<svg xmlns="http://www.w3.org/2000/svg" viewBox="0 0 12 12"><defs><style>.cls-1{fill:#969696;}</style></defs><title>chart_icon_16</title><g id="Layer_2" data-name="Layer 2"><g id="Layer_1-2" data-name="Layer 1"><g id="Layer_2-2" data-name="Layer 2"><path class="cls-1" d="M6.95 6l4.86-4.86a.66.66 0 0 0 0-.93.66.66 0 0 0-.93 0L6 5.06 1.15.2a.66.66 0 0 0-.93 0 .66.66 0 0 0 0 .93L5.06 6 .2 10.86a.66.66 0 0 0 0 .93.66.66 0 0 0 .93 0L6 6.95l4.86 4.86a.66.66 0 0 0 .93 0 .66.66 0 0 0 0-.93z" id="Layer_2-2-2" data-name="Layer 2-2"/></g></g></g></svg>