<?xml version="1.0" encoding="utf-8"?>
<!-- Generator: Adobe Illustrator 18.1.0, SVG Export Plug-In . SVG Version: 6.00 Build 0)  -->
<svg version="1.2" baseProfile="tiny" id="Layer_1" xmlns="http://www.w3.org/2000/svg" xmlns:xlink="http://www.w3.org/1999/xlink"
	 x="0px" y="0px" viewBox="0 0 16 16" xml:space="preserve">
<g>
	<circle fill="none" cx="6.5" cy="6.5" r="5"/>
	<path d="M6.5,0C2.9,0,0,2.9,0,6.5S2.9,13,6.5,13c1.5,0,2.9-0.5,4-1.4l4.2,4.2c0.3,0.3,0.8,0.3,1.1,0c0.3-0.3,0.3-0.8,0-1.1
		l-4.2-4.2C12.5,9.4,13,8,13,6.5C13,2.9,10.1,0,6.5,0z M6.5,11.5c-2.8,0-5-2.2-5-5s2.2-5,5-5s5,2.2,5,5S9.3,11.5,6.5,11.5z"/>
</g>
</svg>
