<?xml version="1.0" standalone="no"?><!DOCTYPE svg PUBLIC "-//W3C//DTD SVG 1.1//EN" "http://www.w3.org/Graphics/SVG/1.1/DTD/svg11.dtd" ><svg version="1.1" xmlns="http://www.w3.org/2000/svg"><defs><font horiz-adv-x="0" id="font"><font-face ascent="800" bbox="-194 -240 1002 1013" cap-height="700" descent="-200" font-family="Retina" font-stretch="normal" font-style="normal" font-weight="500" units-per-em="1000" x-height="523" /><missing-glyph d="M100 -240H600V960H100ZM192 910H507L350 429ZM321 360 150 -154V874ZM378 360 550 874V-154ZM350 291 507 -190H192Z" horiz-adv-x="700" /><glyph d="M457 255H245L351 576ZM541 0H683L431 706H273L22 0H161L207 138H496Z" glyph-name="A" horiz-adv-x="704" unicode="A" /><glyph d="M513 255H309L503 583H513ZM513 0H1002V119H647V299H957V418H647V581H996V700H430L10 0H158L240 138H513Z" glyph-name="AE" horiz-adv-x="1050" unicode="&#198;" /><glyph d="M513 255H309L503 583H513ZM513 0H1002V119H647V299H957V418H647V581H996V700H430L10 0H158L240 138H513ZM643 745 792 844H631L540 745Z" glyph-name="AEacute" horiz-adv-x="1050" unicode="&#508;" /><glyph d="M457 255H245L351 576ZM541 0H683L431 706H273L22 0H161L207 138H496ZM386 751 535 850H374L283 751Z" glyph-name="Aacute" horiz-adv-x="704" unicode="&#193;" /><glyph d="M457 255H245L351 576ZM541 0H683L431 706H273L22 0H161L207 138H496ZM353 817C313 817 289 836 280 866H211C218 797 267 747 351 747C436 747 486 797 493 866H424C415 836 392 817 353 817Z" glyph-name="Abreve" horiz-adv-x="704" unicode="&#258;" /><glyph d="M457 255H245L351 576ZM541 0H683L431 706H273L22 0H161L207 138H496ZM351 799 415 751H503L408 855H296L201 751H288Z" glyph-name="Acircumflex" horiz-adv-x="704" unicode="&#194;" /><glyph d="M457 255H245L351 576ZM541 0H683L431 706H273L22 0H161L207 138H496ZM316 751V850H214V751ZM490 751V850H388V751Z" glyph-name="Adieresis" horiz-adv-x="704" unicode="&#196;" /><glyph d="M457 255H245L351 576ZM541 0H683L431 706H273L22 0H161L207 138H496ZM318 751H421L330 850H169Z" glyph-name="Agrave" horiz-adv-x="704" unicode="&#192;" /><glyph d="M457 255H245L351 576ZM541 0H683L431 706H273L22 0H161L207 138H496ZM503 756V824H201V756Z" glyph-name="Amacron" horiz-adv-x="704" unicode="&#256;" /><glyph d="M457 255H245L351 576ZM688 -94C632 -83 622 -76 622 -62C622 -52 627 -41 656 0H683L431 706H273L22 0H161L207 138H496L541 0H578C527 -42 513 -63 513 -85C513 -124 556 -143 680 -149Z" glyph-name="Aogonek" horiz-adv-x="704" unicode="&#260;" /><glyph d="M284 760C284 797 312 825 352 825C393 825 421 797 421 760C421 723 393 695 352 695C312 695 284 723 284 760ZM457 255H245L351 576ZM541 0H683L436 693H435C452 711 462 734 462 760C462 817 416 861 352 861C289 861 242 817 242 760C242 734 252 711 269 693L22 0H161L207 138H496Z" glyph-name="Aring" horiz-adv-x="704" unicode="&#197;" /><glyph d="M389 888 518 969H362L286 888ZM284 760C284 797 312 825 352 825C393 825 421 797 421 760C421 723 393 695 352 695C312 695 284 723 284 760ZM457 255H245L351 576ZM541 0H683L436 693H435C452 711 462 734 462 760C462 817 416 861 352 861C289 861 242 817 242 760C242 734 252 711 269 693L22 0H161L207 138H496Z" glyph-name="Aringacute" horiz-adv-x="704" unicode="&#506;" /><glyph d="M457 255H245L351 576ZM541 0H683L431 706H273L22 0H161L207 138H496ZM247 746C264 786 277 794 293 794C308 794 322 789 353 772C391 753 408 747 430 747C468 747 499 772 526 851L465 869C448 829 436 821 419 821C404 821 391 826 359 843C322 862 305 868 282 868C244 868 214 843 187 764Z" glyph-name="Atilde" horiz-adv-x="704" unicode="&#195;" /><glyph d="M345 0C514 0 614 70 614 195C614 288 554 340 460 363C535 389 593 439 593 529C593 633 515 700 349 700H77V0ZM211 417V583H342C421 583 456 554 456 508C456 450 404 417 320 417ZM211 117V302H324C423 302 476 267 476 208C476 149 429 117 349 117Z" glyph-name="B" horiz-adv-x="652" unicode="B" /><glyph d="M575 32 548 148C497 126 445 113 392 113C261 113 181 203 181 351C181 494 262 587 387 587C446 587 499 572 546 551L572 672C516 695 453 710 378 710C183 710 44 571 44 349C44 122 178 -10 379 -10C449 -10 516 5 575 32Z" glyph-name="C" horiz-adv-x="611" unicode="C" /><glyph d="M575 32 548 148C497 126 445 113 392 113C261 113 181 203 181 351C181 494 262 587 387 587C446 587 499 572 546 551L572 672C516 695 453 710 378 710C183 710 44 571 44 349C44 122 178 -10 379 -10C449 -10 516 5 575 32ZM394 752 543 851H382L291 752Z" glyph-name="Cacute" horiz-adv-x="611" unicode="&#262;" /><glyph d="M575 32 548 148C497 126 445 113 392 113C261 113 181 203 181 351C181 494 262 587 387 587C446 587 499 572 546 551L572 672C516 695 453 710 378 710C183 710 44 571 44 349C44 122 178 -10 379 -10C449 -10 516 5 575 32ZM361 809 297 856H209L304 752H416L511 856H424Z" glyph-name="Ccaron" horiz-adv-x="611" unicode="&#268;" /><glyph d="M458 -85C458 -53 428 -33 365 -35L391 -10C457 -8 519 7 575 32L548 148C497 126 445 113 392 113C261 113 181 203 181 351C181 494 262 587 387 587C446 587 499 572 546 551L572 672C516 695 453 710 378 710C183 710 44 571 44 349C44 146 151 20 316 -5L273 -55L292 -79C331 -71 352 -77 352 -91C352 -106 330 -116 251 -122L256 -162C405 -159 458 -129 458 -85Z" glyph-name="Ccedilla" horiz-adv-x="611" unicode="&#199;" /><glyph d="M575 32 548 148C497 126 445 113 392 113C261 113 181 203 181 351C181 494 262 587 387 587C446 587 499 572 546 551L572 672C516 695 453 710 378 710C183 710 44 571 44 349C44 122 178 -10 379 -10C449 -10 516 5 575 32ZM359 800 423 752H511L416 856H304L209 752H296Z" glyph-name="Ccircumflex" horiz-adv-x="611" unicode="&#264;" /><glyph d="M575 32 548 148C497 126 445 113 392 113C261 113 181 203 181 351C181 494 262 587 387 587C446 587 499 572 546 551L572 672C516 695 453 710 378 710C183 710 44 571 44 349C44 122 178 -10 379 -10C449 -10 516 5 575 32ZM413 752V851H307V752Z" glyph-name="Cdotaccent" horiz-adv-x="611" unicode="&#266;" /><glyph d="M649 351C649 590 494 700 277 700H77V0H272C493 0 649 111 649 351ZM211 117V583H282C423 583 512 509 512 349C512 189 422 117 282 117Z" glyph-name="D" horiz-adv-x="693" unicode="D" /><glyph d="M649 351C649 590 494 700 277 700H77V0H272C493 0 649 111 649 351ZM211 117V583H282C423 583 512 509 512 349C512 189 422 117 282 117ZM340 802 276 849H188L283 745H395L490 849H403Z" glyph-name="Dcaron" horiz-adv-x="693" unicode="&#270;" /><glyph d="M222 117V313H373V403H222V583H295C436 583 525 509 525 349C525 189 435 117 295 117ZM285 0C506 0 662 111 662 351C662 590 507 700 290 700H89V404H22V312H89V0Z" glyph-name="Dcroat" horiz-adv-x="706" unicode="&#272;" /><glyph d="M572 0V119H211V299H526V418H211V581H566V700H77V0Z" glyph-name="E" horiz-adv-x="620" unicode="E" /><glyph d="M572 0V119H211V299H526V418H211V581H566V700H77V0ZM363 745 512 844H351L260 745Z" glyph-name="Eacute" horiz-adv-x="620" unicode="&#201;" /><glyph d="M572 0V119H211V299H526V418H211V581H566V700H77V0ZM330 811C290 811 266 830 257 860H188C195 791 244 741 328 741C413 741 463 791 470 860H401C392 830 369 811 330 811Z" glyph-name="Ebreve" horiz-adv-x="620" unicode="&#276;" /><glyph d="M572 0V119H211V299H526V418H211V581H566V700H77V0ZM330 802 266 849H178L273 745H385L480 849H393Z" glyph-name="Ecaron" horiz-adv-x="620" unicode="&#282;" /><glyph d="M572 0V119H211V299H526V418H211V581H566V700H77V0ZM328 793 392 745H480L385 849H273L178 745H265Z" glyph-name="Ecircumflex" horiz-adv-x="620" unicode="&#202;" /><glyph d="M572 0V119H211V299H526V418H211V581H566V700H77V0ZM293 745V844H191V745ZM467 745V844H365V745Z" glyph-name="Edieresis" horiz-adv-x="620" unicode="&#203;" /><glyph d="M572 0V119H211V299H526V418H211V581H566V700H77V0ZM382 745V844H276V745Z" glyph-name="Edotaccent" horiz-adv-x="620" unicode="&#278;" /><glyph d="M572 0V119H211V299H526V418H211V581H566V700H77V0ZM295 745H398L307 844H146Z" glyph-name="Egrave" horiz-adv-x="620" unicode="&#200;" /><glyph d="M572 0V119H211V299H526V418H211V581H566V700H77V0ZM480 750V818H178V750Z" glyph-name="Emacron" horiz-adv-x="620" unicode="&#274;" /><glyph d="M449 -178C568 -178 639 -109 639 27V700H511V239L221 700H77V0H205V487L510 23C506 -31 477 -60 426 -60C401 -60 377 -56 354 -49V-167C382 -174 417 -178 449 -178Z" glyph-name="Eng" horiz-adv-x="716" unicode="&#330;" /><glyph d="M573 -94C517 -83 507 -76 507 -62C507 -52 512 -41 541 0H572V119H211V299H526V418H211V581H566V700H77V0H463C412 -42 398 -63 398 -85C398 -124 441 -143 565 -149Z" glyph-name="Eogonek" horiz-adv-x="620" unicode="&#280;" /><glyph d="M222 117V313H373V403H222V583H295C436 583 525 509 525 349C525 189 435 117 295 117ZM285 0C506 0 662 111 662 351C662 590 507 700 290 700H89V404H22V312H89V0Z" glyph-name="Eth" horiz-adv-x="706" unicode="&#208;" /><glyph d="M562 15 543 129C513 119 462 108 421 108C331 108 267 147 240 237H493V307H228C227 321 226 335 226 350C226 364 227 378 228 391H493V461H240C266 552 330 592 422 592C466 592 512 581 543 571L562 685C525 697 471 708 416 708C243 708 138 619 106 461H27V391H97C96 378 96 364 96 350C96 335 96 321 97 307H27V237H106C138 77 244 -8 415 -8C468 -8 523 2 562 15Z" glyph-name="Euro" horiz-adv-x="605" unicode="&#8364;" /><glyph d="M526 13 506 128C471 115 435 108 399 108C318 108 262 148 238 237H456V307H227C226 321 225 335 225 350C225 364 225 378 226 391H456V461H237C261 551 317 592 400 592C436 592 471 584 506 572L526 686C485 700 441 708 390 708C237 708 134 624 104 461H30V391H95C94 378 94 364 94 350C94 335 94 321 95 307H30V237H104C134 75 235 -8 389 -8C437 -8 484 0 526 13Z" glyph-name="Euro.tab" horiz-adv-x="564" /><glyph d="M211 0V271H479V391H211V581H560V700H77V0Z" glyph-name="F" horiz-adv-x="588" unicode="F" /><glyph d="M624 52V399H345V280H491V129C464 117 424 107 384 107C256 107 181 192 181 348C181 494 257 588 387 588C459 588 516 568 568 544L606 661C542 691 470 710 387 710C189 710 44 581 44 349C44 119 170 -9 378 -9C471 -9 559 18 624 52Z" glyph-name="G" horiz-adv-x="690" unicode="G" /><glyph d="M624 52V399H345V280H491V129C464 117 424 107 384 107C256 107 181 192 181 348C181 494 257 588 387 588C459 588 516 568 568 544L606 661C542 691 470 710 387 710C189 710 44 581 44 349C44 119 170 -9 378 -9C471 -9 559 18 624 52ZM369 818C329 818 305 837 296 867H227C234 798 283 748 367 748C452 748 502 798 509 867H440C431 837 408 818 369 818Z" glyph-name="Gbreve" horiz-adv-x="690" unicode="&#286;" /><glyph d="M624 52V399H345V280H491V129C464 117 424 107 384 107C256 107 181 192 181 348C181 494 257 588 387 588C459 588 516 568 568 544L606 661C542 691 470 710 387 710C189 710 44 581 44 349C44 119 170 -9 378 -9C471 -9 559 18 624 52ZM369 809 305 856H217L312 752H424L519 856H432Z" glyph-name="Gcaron" horiz-adv-x="690" unicode="&#486;" /><glyph d="M624 52V399H345V280H491V129C464 117 424 107 384 107C256 107 181 192 181 348C181 494 257 588 387 588C459 588 516 568 568 544L606 661C542 691 470 710 387 710C189 710 44 581 44 349C44 119 170 -9 378 -9C471 -9 559 18 624 52ZM367 800 431 752H519L424 856H312L217 752H304Z" glyph-name="Gcircumflex" horiz-adv-x="690" unicode="&#284;" /><glyph d="M624 52V399H345V280H491V129C464 117 424 107 384 107C256 107 181 192 181 348C181 494 257 588 387 588C459 588 516 568 568 544L606 661C542 691 470 710 387 710C189 710 44 581 44 349C44 119 170 -9 378 -9C471 -9 559 18 624 52ZM421 752V851H315V752Z" glyph-name="Gdotaccent" horiz-adv-x="690" unicode="&#288;" /><glyph d="M211 296H500V0H635V700H500V422H211V700H77V0H211Z" glyph-name="H" horiz-adv-x="712" unicode="H" /><glyph d="M223 408V524H515V408ZM224 290H513V0H648V521H715V612H648V700H515V609H223V700H89V612H22V521H89V0H224Z" glyph-name="Hbar" horiz-adv-x="737" unicode="&#294;" /><glyph d="M211 296H500V0H635V700H500V422H211V700H77V0H211ZM355 793 419 745H507L412 849H300L205 745H292Z" glyph-name="Hcircumflex" horiz-adv-x="712" unicode="&#292;" /><glyph d="M214 0V700H80V0Z" glyph-name="I" horiz-adv-x="294" unicode="I" /><glyph d="M214 0V700H80V0ZM181 745 330 844H169L78 745Z" glyph-name="Iacute" horiz-adv-x="294" unicode="&#205;" /><glyph d="M214 0V700H80V0ZM148 811C108 811 84 830 75 860H6C13 791 62 741 146 741C231 741 281 791 288 860H219C210 830 187 811 148 811Z" glyph-name="Ibreve" horiz-adv-x="294" unicode="&#300;" /><glyph d="M214 0V700H80V0ZM146 793 210 745H298L203 849H91L-4 745H83Z" glyph-name="Icircumflex" horiz-adv-x="294" unicode="&#206;" /><glyph d="M214 0V700H80V0ZM111 745V844H9V745ZM285 745V844H183V745Z" glyph-name="Idieresis" horiz-adv-x="294" unicode="&#207;" /><glyph d="M214 0V700H80V0ZM200 745V844H94V745Z" glyph-name="Idotaccent" horiz-adv-x="294" unicode="&#304;" /><glyph d="M214 0V700H80V0ZM113 745H216L125 844H-36Z" glyph-name="Igrave" horiz-adv-x="294" unicode="&#204;" /><glyph d="M214 0V700H80V0ZM279 750V818H15V750Z" glyph-name="Imacron" horiz-adv-x="294" unicode="&#298;" /><glyph d="M227 -94C171 -83 161 -76 161 -62C161 -52 166 -41 195 0H214V700H80V0H117C66 -42 52 -63 52 -85C52 -124 95 -143 219 -149Z" glyph-name="Iogonek" horiz-adv-x="294" unicode="&#302;" /><glyph d="M214 0V700H80V0ZM42 740C59 780 72 788 88 788C103 788 117 783 148 766C186 747 203 741 225 741C263 741 294 766 321 845L260 863C243 823 231 815 214 815C199 815 186 820 154 837C117 856 100 862 77 862C39 862 9 837 -18 758Z" glyph-name="Itilde" horiz-adv-x="294" unicode="&#296;" /><glyph d="M417 259V700H283V259C283 160 238 110 153 110C116 110 81 117 44 130L21 15C67 0 117 -8 172 -8C335 -8 417 82 417 259Z" glyph-name="J" horiz-adv-x="487" unicode="J" /><glyph d="M417 259V700H283V259C283 160 238 110 153 110C116 110 81 117 44 130L21 15C67 0 117 -8 172 -8C335 -8 417 82 417 259ZM349 793 413 745H501L406 849H294L199 745H286Z" glyph-name="Jcircumflex" horiz-adv-x="487" unicode="&#308;" /><glyph d="M482 0H647L352 361L639 700H476L221 391H211V700H77V0H211V327H220Z" glyph-name="K" horiz-adv-x="654" unicode="K" /><glyph d="M523 0V121H211V700H77V0Z" glyph-name="L" horiz-adv-x="550" unicode="L" /><glyph d="M523 0V121H211V700H77V0ZM178 745 327 844H166L75 745Z" glyph-name="Lacute" horiz-adv-x="550" unicode="&#313;" /><glyph d="M523 0V121H211V700H77V0ZM367 701H286V666C286 621 281 587 268 551L305 532C345 573 367 612 367 674Z" glyph-name="Lcaron" horiz-adv-x="550" unicode="&#317;" /><glyph d="M537 0V121H224V321L370 394V501L224 425V700H89V359L22 327V222L89 255V0Z" glyph-name="Lslash" horiz-adv-x="564" unicode="&#321;" /><glyph d="M725 0H858L822 700H631L458 171L286 700H98L62 0H188L213 540L391 -1H522L701 538Z" glyph-name="M" horiz-adv-x="920" unicode="M" /><glyph d="M205 492 493 0H639V700H511V216L227 700H77V0H205Z" glyph-name="N" horiz-adv-x="716" unicode="N" /><glyph d="M205 492 493 0H639V700H511V216L227 700H77V0H205ZM399 741 548 840H387L296 741Z" glyph-name="Nacute" horiz-adv-x="716" unicode="&#323;" /><glyph d="M205 492 493 0H639V700H511V216L227 700H77V0H205ZM366 798 302 845H214L309 741H421L516 845H429Z" glyph-name="Ncaron" horiz-adv-x="716" unicode="&#327;" /><glyph d="M205 492 493 0H639V700H511V216L227 700H77V0H205ZM260 740C277 780 290 788 306 788C321 788 335 783 366 766C404 747 421 741 443 741C481 741 512 766 539 845L478 863C461 823 449 815 432 815C417 815 404 820 372 837C335 856 318 862 295 862C257 862 227 837 200 758Z" glyph-name="Ntilde" horiz-adv-x="716" unicode="&#209;" /><glyph d="M673 351C673 572 545 712 359 712C172 712 44 571 44 349C44 128 172 -12 358 -12C544 -12 673 129 673 351ZM536 349C536 197 465 104 359 104C253 104 181 198 181 351C181 503 252 596 358 596C464 596 536 502 536 349Z" glyph-name="O" horiz-adv-x="717" unicode="O" /><glyph d="M44 349C44 110 199 0 417 0H972V119H616V299H926V418H616V581H965V700H421C200 700 44 589 44 349ZM181 351C181 511 271 583 411 583H482V117H412C270 117 181 191 181 351Z" glyph-name="OE" horiz-adv-x="1020" unicode="&#338;" /><glyph d="M673 351C673 572 545 712 359 712C172 712 44 571 44 349C44 128 172 -12 358 -12C544 -12 673 129 673 351ZM536 349C536 197 465 104 359 104C253 104 181 198 181 351C181 503 252 596 358 596C464 596 536 502 536 349ZM392 752 541 851H380L289 752Z" glyph-name="Oacute" horiz-adv-x="717" unicode="&#211;" /><glyph d="M673 351C673 572 545 712 359 712C172 712 44 571 44 349C44 128 172 -12 358 -12C544 -12 673 129 673 351ZM536 349C536 197 465 104 359 104C253 104 181 198 181 351C181 503 252 596 358 596C464 596 536 502 536 349ZM359 818C319 818 295 837 286 867H217C224 798 273 748 357 748C442 748 492 798 499 867H430C421 837 398 818 359 818Z" glyph-name="Obreve" horiz-adv-x="717" unicode="&#334;" /><glyph d="M673 351C673 572 545 712 359 712C172 712 44 571 44 349C44 128 172 -12 358 -12C544 -12 673 129 673 351ZM536 349C536 197 465 104 359 104C253 104 181 198 181 351C181 503 252 596 358 596C464 596 536 502 536 349ZM357 800 421 752H509L414 856H302L207 752H294Z" glyph-name="Ocircumflex" horiz-adv-x="717" unicode="&#212;" /><glyph d="M673 351C673 572 545 712 359 712C172 712 44 571 44 349C44 128 172 -12 358 -12C544 -12 673 129 673 351ZM536 349C536 197 465 104 359 104C253 104 181 198 181 351C181 503 252 596 358 596C464 596 536 502 536 349ZM322 752V851H220V752ZM496 752V851H394V752Z" glyph-name="Odieresis" horiz-adv-x="717" unicode="&#214;" /><glyph d="M673 351C673 572 545 712 359 712C172 712 44 571 44 349C44 128 172 -12 358 -12C544 -12 673 129 673 351ZM536 349C536 197 465 104 359 104C253 104 181 198 181 351C181 503 252 596 358 596C464 596 536 502 536 349ZM324 752H427L336 851H175Z" glyph-name="Ograve" horiz-adv-x="717" unicode="&#210;" /><glyph d="M358 -12C544 -12 673 129 673 351C673 484 624 585 543 644C625 659 671 707 671 777C671 801 666 825 656 847L567 822C573 808 576 795 576 781C576 731 535 705 450 705C421 705 389 709 359 709C172 709 44 569 44 349C44 128 172 -12 358 -12ZM536 349C536 197 465 104 359 104C253 104 181 198 181 351C181 502 252 595 358 595C464 595 536 502 536 349Z" glyph-name="Ohorn" horiz-adv-x="717" unicode="&#416;" /><glyph d="M673 351C673 572 545 712 359 712C172 712 44 571 44 349C44 128 172 -12 358 -12C544 -12 673 129 673 351ZM536 349C536 197 465 104 359 104C253 104 181 198 181 351C181 503 252 596 358 596C464 596 536 502 536 349ZM315 752 453 851H320L224 752ZM466 752 604 851H472L376 752Z" glyph-name="Ohungarumlaut" horiz-adv-x="717" unicode="&#336;" /><glyph d="M673 351C673 572 545 712 359 712C172 712 44 571 44 349C44 128 172 -12 358 -12C544 -12 673 129 673 351ZM536 349C536 197 465 104 359 104C253 104 181 198 181 351C181 503 252 596 358 596C464 596 536 502 536 349ZM509 757V825H207V757Z" glyph-name="Omacron" horiz-adv-x="717" unicode="&#332;" /><glyph d="M180 351C180 503 251 597 358 597C393 597 425 587 451 567L216 191C193 232 180 286 180 351ZM359 103C323 103 291 114 264 134L501 510C524 469 537 414 537 349C537 196 465 103 359 103ZM358 -12C544 -12 673 129 673 351C673 462 641 553 585 616L678 751H574L519 670C473 697 419 712 359 712C172 712 44 571 44 349C44 237 77 147 133 84L39 -51H143L198 30C244 3 298 -12 358 -12Z" glyph-name="Oslash" horiz-adv-x="717" unicode="&#216;" /><glyph d="M180 351C180 503 251 597 358 597C393 597 425 587 451 567L216 191C193 232 180 286 180 351ZM359 103C323 103 291 114 264 134L501 510C524 469 537 414 537 349C537 196 465 103 359 103ZM358 -12C544 -12 673 129 673 351C673 462 641 553 585 616L678 751H574L519 670C473 697 419 712 359 712C172 712 44 571 44 349C44 237 77 147 133 84L39 -51H143L198 30C244 3 298 -12 358 -12ZM392 752 541 851H380L289 752Z" glyph-name="Oslashacute" horiz-adv-x="717" unicode="&#510;" /><glyph d="M673 351C673 572 545 712 359 712C172 712 44 571 44 349C44 128 172 -12 358 -12C544 -12 673 129 673 351ZM536 349C536 197 465 104 359 104C253 104 181 198 181 351C181 503 252 596 358 596C464 596 536 502 536 349ZM253 747C270 787 283 795 299 795C314 795 328 790 359 773C397 754 414 748 436 748C474 748 505 773 532 852L471 870C454 830 442 822 425 822C410 822 397 827 365 844C328 863 311 869 288 869C250 869 220 844 193 765Z" glyph-name="Otilde" horiz-adv-x="717" unicode="&#213;" /><glyph d="M211 0V209H293C469 209 586 288 586 463C586 622 484 700 299 700H77V0ZM211 326V583H297C399 583 449 544 449 459C449 368 392 326 292 326Z" glyph-name="P" horiz-adv-x="613" unicode="P" /><glyph d="M706 -74 572 74C635 137 673 233 673 352C673 572 545 712 359 712C172 712 44 570 44 350C44 130 172 -10 358 -10C396 -10 431 -4 463 7L535 -74ZM536 349C536 197 465 104 359 104C253 104 181 198 181 351C181 503 252 596 358 596C464 596 536 502 536 349Z" glyph-name="Q" horiz-adv-x="717" unicode="Q" /><glyph d="M211 357V583H325C422 583 466 546 466 478C466 401 403 357 304 357ZM211 241H261C320 241 353 221 389 169L502 0H661L525 192C490 246 466 269 423 286C512 311 603 368 603 496C603 627 515 700 333 700H77V0H211Z" glyph-name="R" horiz-adv-x="668" unicode="R" /><glyph d="M211 357V583H325C422 583 466 546 466 478C466 401 403 357 304 357ZM211 241H261C320 241 353 221 389 169L502 0H661L525 192C490 246 466 269 423 286C512 311 603 368 603 496C603 627 515 700 333 700H77V0H211ZM361 745 510 844H349L258 745Z" glyph-name="Racute" horiz-adv-x="668" unicode="&#340;" /><glyph d="M211 357V583H325C422 583 466 546 466 478C466 401 403 357 304 357ZM211 241H261C320 241 353 221 389 169L502 0H661L525 192C490 246 466 269 423 286C512 311 603 368 603 496C603 627 515 700 333 700H77V0H211ZM328 802 264 849H176L271 745H383L478 849H391Z" glyph-name="Rcaron" horiz-adv-x="668" unicode="&#344;" /><glyph d="M568 204C568 319 503 372 335 419C223 453 195 478 195 519C195 561 233 591 299 591C371 591 443 571 501 545L536 661C472 689 396 709 308 709C154 709 61 631 61 508C61 398 126 347 292 302C405 265 433 238 433 191C433 142 388 108 307 108C220 108 134 135 67 168L31 53C108 15 199 -10 299 -10C468 -10 568 67 568 204Z" glyph-name="S" horiz-adv-x="607" unicode="S" /><glyph d="M568 204C568 319 503 372 335 419C223 453 195 478 195 519C195 561 233 591 299 591C371 591 443 571 501 545L536 661C472 689 396 709 308 709C154 709 61 631 61 508C61 398 126 347 292 302C405 265 433 238 433 191C433 142 388 108 307 108C220 108 134 135 67 168L31 53C108 15 199 -10 299 -10C468 -10 568 67 568 204ZM346 752 495 851H334L243 752Z" glyph-name="Sacute" horiz-adv-x="607" unicode="&#346;" /><glyph d="M568 204C568 319 503 372 335 419C223 453 195 478 195 519C195 561 233 591 299 591C371 591 443 571 501 545L536 661C472 689 396 709 308 709C154 709 61 631 61 508C61 398 126 347 292 302C405 265 433 238 433 191C433 142 388 108 307 108C220 108 134 135 67 168L31 53C108 15 199 -10 299 -10C468 -10 568 67 568 204ZM313 809 249 856H161L256 752H368L463 856H376Z" glyph-name="Scaron" horiz-adv-x="607" unicode="&#352;" /><glyph d="M568 204C568 319 503 372 335 419C223 453 195 478 195 519C195 561 233 591 299 591C371 591 443 571 501 545L536 661C472 689 396 709 308 709C154 709 61 631 61 508C61 398 126 347 292 302C405 265 433 238 433 191C433 142 388 108 307 108C220 108 134 135 67 168L31 53C108 15 199 -10 299 -10C468 -10 568 67 568 204ZM311 800 375 752H463L368 856H256L161 752H248Z" glyph-name="Scircumflex" horiz-adv-x="607" unicode="&#348;" /><glyph d="M381 0V580H602V700H25V580H246V0Z" glyph-name="T" horiz-adv-x="627" unicode="T" /><glyph d="M506 283V376H381V580H602V700H25V580H246V376H121V283H246V0H381V283Z" glyph-name="Tbar" horiz-adv-x="627" unicode="&#358;" /><glyph d="M381 0V580H602V700H25V580H246V0ZM315 802 251 849H163L258 745H370L465 849H378Z" glyph-name="Tcaron" horiz-adv-x="627" unicode="&#356;" /><glyph d="M211 0V108H293C469 108 586 188 586 363C586 521 484 600 299 600H211V700H77V0ZM211 225V482H297C399 482 449 444 449 358C449 268 392 225 292 225Z" glyph-name="Thorn" horiz-adv-x="624" unicode="&#222;" /><glyph d="M626 274V700H493V268C493 157 433 104 348 104C264 104 203 157 203 269V700H68V274C68 79 181 -11 346 -11C512 -11 626 79 626 274Z" glyph-name="U" horiz-adv-x="694" unicode="U" /><glyph d="M626 274V700H493V268C493 157 433 104 348 104C264 104 203 157 203 269V700H68V274C68 79 181 -11 346 -11C512 -11 626 79 626 274ZM381 741 530 840H369L278 741Z" glyph-name="Uacute" horiz-adv-x="694" unicode="&#218;" /><glyph d="M626 274V700H493V268C493 157 433 104 348 104C264 104 203 157 203 269V700H68V274C68 79 181 -11 346 -11C512 -11 626 79 626 274ZM348 807C308 807 284 826 275 856H206C213 787 262 737 346 737C431 737 481 787 488 856H419C410 826 387 807 348 807Z" glyph-name="Ubreve" horiz-adv-x="694" unicode="&#364;" /><glyph d="M626 274V700H493V268C493 157 433 104 348 104C264 104 203 157 203 269V700H68V274C68 79 181 -11 346 -11C512 -11 626 79 626 274ZM346 793 410 745H498L403 849H291L196 745H283Z" glyph-name="Ucircumflex" horiz-adv-x="694" unicode="&#219;" /><glyph d="M626 274V700H493V268C493 157 433 104 348 104C264 104 203 157 203 269V700H68V274C68 79 181 -11 346 -11C512 -11 626 79 626 274ZM311 745V844H209V745ZM485 745V844H383V745Z" glyph-name="Udieresis" horiz-adv-x="694" unicode="&#220;" /><glyph d="M626 274V700H493V268C493 157 433 104 348 104C264 104 203 157 203 269V700H68V274C68 79 181 -11 346 -11C512 -11 626 79 626 274ZM313 741H416L325 840H164Z" glyph-name="Ugrave" horiz-adv-x="694" unicode="&#217;" /><glyph d="M346 -11C512 -11 626 79 626 274V645C700 667 740 714 740 777C740 801 735 825 725 847L636 822C642 808 644 795 644 781C644 728 602 700 514 700H493V268C493 157 433 104 348 104C264 104 203 157 203 269V700H68V274C68 79 181 -11 346 -11Z" glyph-name="Uhorn" horiz-adv-x="724" unicode="&#431;" /><glyph d="M626 274V700H493V268C493 157 433 104 348 104C264 104 203 157 203 269V700H68V274C68 79 181 -11 346 -11C512 -11 626 79 626 274ZM304 745 442 844H309L213 745ZM455 745 593 844H461L365 745Z" glyph-name="Uhungarumlaut" horiz-adv-x="694" unicode="&#368;" /><glyph d="M626 274V700H493V268C493 157 433 104 348 104C264 104 203 157 203 269V700H68V274C68 79 181 -11 346 -11C512 -11 626 79 626 274ZM498 750V818H196V750Z" glyph-name="Umacron" horiz-adv-x="694" unicode="&#362;" /><glyph d="M432 -149 440 -94C384 -83 374 -76 374 -62C374 -53 379 -42 403 -7C538 12 626 102 626 274V700H493V268C493 157 433 104 348 104C264 104 203 157 203 269V700H68V274C68 90 168 0 318 -10C277 -46 265 -65 265 -85C265 -124 308 -143 432 -149Z" glyph-name="Uogonek" horiz-adv-x="694" unicode="&#370;" /><glyph d="M626 274V700H493V268C493 157 433 104 348 104C264 104 203 157 203 269V700H68V274C68 79 181 -11 346 -11C512 -11 626 79 626 274ZM237 836C237 779 283 735 347 735C411 735 457 779 457 836C457 893 411 936 347 936C283 936 237 893 237 836ZM279 836C279 873 306 900 347 900C388 900 415 873 415 836C415 798 388 771 347 771C306 771 279 798 279 836Z" glyph-name="Uring" horiz-adv-x="694" unicode="&#366;" /><glyph d="M626 274V700H493V268C493 157 433 104 348 104C264 104 203 157 203 269V700H68V274C68 79 181 -11 346 -11C512 -11 626 79 626 274ZM242 740C259 780 272 788 288 788C303 788 317 783 348 766C386 747 403 741 425 741C463 741 494 766 521 845L460 863C443 823 431 815 414 815C399 815 386 820 354 837C317 856 300 862 277 862C239 862 209 837 182 758Z" glyph-name="Utilde" horiz-adv-x="694" unicode="&#360;" /><glyph d="M417 -6 666 700H522L345 153L168 700H22L271 -6Z" glyph-name="V" horiz-adv-x="687" unicode="V" /><glyph d="M666 -5H816L1001 700H863L739 172L591 700H442L292 172L169 700H26L211 -5H360L513 519Z" glyph-name="W" horiz-adv-x="1027" unicode="W" /><glyph d="M666 -5H816L1001 700H863L739 172L591 700H442L292 172L169 700H26L211 -5H360L513 519ZM547 745 696 844H535L444 745Z" glyph-name="Wacute" horiz-adv-x="1027" unicode="&#7810;" /><glyph d="M666 -5H816L1001 700H863L739 172L591 700H442L292 172L169 700H26L211 -5H360L513 519ZM512 793 576 745H664L569 849H457L362 745H449Z" glyph-name="Wcircumflex" horiz-adv-x="1027" unicode="&#372;" /><glyph d="M666 -5H816L1001 700H863L739 172L591 700H442L292 172L169 700H26L211 -5H360L513 519ZM477 745V844H375V745ZM651 745V844H549V745Z" glyph-name="Wdieresis" horiz-adv-x="1027" unicode="&#7812;" /><glyph d="M666 -5H816L1001 700H863L739 172L591 700H442L292 172L169 700H26L211 -5H360L513 519ZM479 745H582L491 844H330Z" glyph-name="Wgrave" horiz-adv-x="1027" unicode="&#7808;" /><glyph d="M487 0H639L412 361L629 700H480L331 455L182 700H31L247 360L20 0H170L329 261Z" glyph-name="X" horiz-adv-x="660" unicode="X" /><glyph d="M392 0V265L638 700H493L326 389L158 700H11L257 265V0Z" glyph-name="Y" horiz-adv-x="649" unicode="Y" /><glyph d="M392 0V265L638 700H493L326 389L158 700H11L257 265V0ZM358 741 507 840H346L255 741Z" glyph-name="Yacute" horiz-adv-x="649" unicode="&#221;" /><glyph d="M392 0V265L638 700H493L326 389L158 700H11L257 265V0ZM323 793 387 745H475L380 849H268L173 745H260Z" glyph-name="Ycircumflex" horiz-adv-x="649" unicode="&#374;" /><glyph d="M392 0V265L638 700H493L326 389L158 700H11L257 265V0ZM288 745V844H186V745ZM462 745V844H360V745Z" glyph-name="Ydieresis" horiz-adv-x="649" unicode="&#376;" /><glyph d="M392 0V265L638 700H493L326 389L158 700H11L257 265V0ZM290 741H393L302 840H141Z" glyph-name="Ygrave" horiz-adv-x="649" unicode="&#7922;" /><glyph d="M572 0V119H204L572 588V700H57V581H407L39 112V0Z" glyph-name="Z" horiz-adv-x="614" unicode="Z" /><glyph d="M572 0V119H204L572 588V700H57V581H407L39 112V0ZM342 745 491 844H330L239 745Z" glyph-name="Zacute" horiz-adv-x="614" unicode="&#377;" /><glyph d="M572 0V119H204L572 588V700H57V581H407L39 112V0ZM309 802 245 849H157L252 745H364L459 849H372Z" glyph-name="Zcaron" horiz-adv-x="614" unicode="&#381;" /><glyph d="M572 0V119H204L572 588V700H57V581H407L39 112V0ZM361 745V844H255V745Z" glyph-name="Zdotaccent" horiz-adv-x="614" unicode="&#379;" /><glyph d="M238 94C185 94 156 119 156 163C156 181 162 198 173 208C188 224 210 234 277 234C302 234 328 232 351 229V135C316 109 276 94 238 94ZM360 53 380 0H489L476 104V350C476 478 410 532 271 532C196 532 129 515 71 491L99 392C148 413 200 426 253 426C321 426 351 399 351 347V322C325 327 292 330 259 330C160 330 110 311 77 277C50 251 35 211 35 158C35 48 100 -9 195 -9C260 -9 310 13 360 53Z" glyph-name="a" horiz-adv-x="539" unicode="a" /><glyph d="M238 94C185 94 156 119 156 163C156 181 162 198 173 208C188 224 210 234 277 234C302 234 328 232 351 229V135C316 109 276 94 238 94ZM360 53 380 0H489L476 104V350C476 478 410 532 271 532C196 532 129 515 71 491L99 392C148 413 200 426 253 426C321 426 351 399 351 347V322C325 327 292 330 259 330C160 330 110 311 77 277C50 251 35 211 35 158C35 48 100 -9 195 -9C260 -9 310 13 360 53ZM293 587 445 702H295L209 587Z" glyph-name="aacute" horiz-adv-x="539" unicode="&#225;" /><glyph d="M238 94C185 94 156 119 156 163C156 181 162 198 173 208C188 224 210 234 277 234C302 234 328 232 351 229V135C316 109 276 94 238 94ZM360 53 380 0H489L476 104V350C476 478 410 532 271 532C196 532 129 515 71 491L99 392C148 413 200 426 253 426C321 426 351 399 351 347V322C325 327 292 330 259 330C160 330 110 311 77 277C50 251 35 211 35 158C35 48 100 -9 195 -9C260 -9 310 13 360 53ZM271 654C229 654 207 676 200 709H137C141 637 187 583 269 583C352 583 399 637 403 709H340C333 676 312 654 271 654Z" glyph-name="abreve" horiz-adv-x="539" unicode="&#259;" /><glyph d="M238 94C185 94 156 119 156 163C156 181 162 198 173 208C188 224 210 234 277 234C302 234 328 232 351 229V135C316 109 276 94 238 94ZM360 53 380 0H489L476 104V350C476 478 410 532 271 532C196 532 129 515 71 491L99 392C148 413 200 426 253 426C321 426 351 399 351 347V322C325 327 292 330 259 330C160 330 110 311 77 277C50 251 35 211 35 158C35 48 100 -9 195 -9C260 -9 310 13 360 53ZM269 645 334 587H412L316 706H224L128 587H205Z" glyph-name="acircumflex" horiz-adv-x="539" unicode="&#226;" /><glyph d="M273 584 425 699H275L189 584Z" glyph-name="acute" horiz-adv-x="500" unicode="&#180;" /><glyph d="M34 745 183 844H22L-69 745Z" glyph-name="acute.cap" horiz-adv-x="0" /><glyph d="M238 94C185 94 156 119 156 163C156 181 162 198 173 208C188 224 210 234 277 234C302 234 328 232 351 229V135C316 109 276 94 238 94ZM360 53 380 0H489L476 104V350C476 478 410 532 271 532C196 532 129 515 71 491L99 392C148 413 200 426 253 426C321 426 351 399 351 347V322C325 327 292 330 259 330C160 330 110 311 77 277C50 251 35 211 35 158C35 48 100 -9 195 -9C260 -9 310 13 360 53ZM235 591V692H138V591ZM402 591V692H305V591Z" glyph-name="adieresis" horiz-adv-x="539" unicode="&#228;" /><glyph d="M471 307C478 382 517 432 578 432C639 432 675 383 682 307ZM598 -10C662 -10 729 8 786 40L752 135C705 109 651 94 605 94C529 94 483 138 473 208H805V254C805 427 717 535 587 535C520 535 467 508 430 461C405 508 356 532 270 532C196 532 129 515 71 491L99 392C148 413 200 426 253 426C321 426 351 399 351 347V322C325 327 292 330 259 330C160 330 110 311 77 277C50 251 35 211 35 158C35 47 106 -9 211 -9C279 -9 346 16 411 63C456 14 521 -10 598 -10ZM238 94C185 94 156 118 156 163C156 181 162 198 173 208C188 224 210 234 277 234C299 234 323 232 349 229C351 197 357 169 365 144C322 110 278 94 238 94Z" glyph-name="ae" horiz-adv-x="838" unicode="&#230;" /><glyph d="M471 307C478 382 517 432 578 432C639 432 675 383 682 307ZM598 -10C662 -10 729 8 786 40L752 135C705 109 651 94 605 94C529 94 483 138 473 208H805V254C805 427 717 535 587 535C520 535 467 508 430 461C405 508 356 532 270 532C196 532 129 515 71 491L99 392C148 413 200 426 253 426C321 426 351 399 351 347V322C325 327 292 330 259 330C160 330 110 311 77 277C50 251 35 211 35 158C35 47 106 -9 211 -9C279 -9 346 16 411 63C456 14 521 -10 598 -10ZM238 94C185 94 156 118 156 163C156 181 162 198 173 208C188 224 210 234 277 234C299 234 323 232 349 229C351 197 357 169 365 144C322 110 278 94 238 94ZM454 584 606 699H456L370 584Z" glyph-name="aeacute" horiz-adv-x="838" unicode="&#509;" /><glyph d="M238 94C185 94 156 119 156 163C156 181 162 198 173 208C188 224 210 234 277 234C302 234 328 232 351 229V135C316 109 276 94 238 94ZM360 53 380 0H489L476 104V350C476 478 410 532 271 532C196 532 129 515 71 491L99 392C148 413 200 426 253 426C321 426 351 399 351 347V322C325 327 292 330 259 330C160 330 110 311 77 277C50 251 35 211 35 158C35 48 100 -9 195 -9C260 -9 310 13 360 53ZM247 587H331L245 702H95Z" glyph-name="agrave" horiz-adv-x="539" unicode="&#224;" /><glyph d="M238 94C185 94 156 119 156 163C156 181 162 198 173 208C188 224 210 234 277 234C302 234 328 232 351 229V135C316 109 276 94 238 94ZM360 53 380 0H489L476 104V350C476 478 410 532 271 532C196 532 129 515 71 491L99 392C148 413 200 426 253 426C321 426 351 399 351 347V322C325 327 292 330 259 330C160 330 110 311 77 277C50 251 35 211 35 158C35 48 100 -9 195 -9C260 -9 310 13 360 53ZM404 595V660H136V595Z" glyph-name="amacron" horiz-adv-x="539" unicode="&#257;" /><glyph d="M251 101C199 101 159 138 159 199C159 245 184 294 246 335L378 168C334 120 296 101 251 101ZM514 0H660L525 173C576 245 606 314 632 396H509C494 347 476 304 452 265L311 440C286 472 271 497 271 527C271 567 299 594 346 594C389 594 437 578 489 548L527 660C465 691 405 708 333 708C210 708 138 641 138 545C138 497 155 458 185 414C86 359 34 282 34 187C34 63 117 -9 232 -9C316 -9 386 25 445 85Z" glyph-name="ampersand" horiz-adv-x="674" unicode="&amp;" /><glyph d="M238 94C185 94 156 119 156 163C156 181 162 198 173 208C188 224 210 234 277 234C302 234 328 232 351 229V135C316 109 276 94 238 94ZM508 -94C452 -83 442 -76 442 -62C442 -52 447 -41 476 0H489L476 104V350C476 478 410 532 271 532C196 532 129 515 71 491L99 392C148 413 200 426 253 426C321 426 351 399 351 347V322C325 327 292 330 259 330C160 330 110 311 77 277C50 251 35 211 35 158C35 48 100 -9 195 -9C260 -9 310 13 360 53L380 0H398C347 -42 333 -63 333 -85C333 -124 376 -143 500 -149Z" glyph-name="aogonek" horiz-adv-x="539" unicode="&#261;" /><glyph d="M436 547C408 490 391 472 367 472C348 472 331 479 286 506C235 536 212 547 182 547C136 547 101 514 58 407L125 378C152 431 169 447 191 447C210 447 227 440 272 413C323 383 346 372 376 372C424 372 462 404 506 517ZM439 335C412 281 396 266 373 266C355 266 338 273 292 299C242 330 218 340 188 340C141 340 103 308 58 195L128 165C156 223 173 240 198 240C216 240 233 233 278 206C329 176 353 166 382 166C429 166 464 198 506 305Z" glyph-name="approxequal" horiz-adv-x="564" unicode="&#8776;" /><glyph d="M238 94C185 94 156 119 156 163C156 181 162 198 173 208C188 224 210 234 277 234C302 234 328 232 351 229V135C316 109 276 94 238 94ZM360 53 380 0H489L476 104V350C476 478 410 532 271 532C196 532 129 515 71 491L99 392C148 413 200 426 253 426C321 426 351 399 351 347V322C325 327 292 330 259 330C160 330 110 311 77 277C50 251 35 211 35 158C35 48 100 -9 195 -9C260 -9 310 13 360 53ZM166 680C166 624 210 581 270 581C330 581 374 624 374 680C374 736 330 779 270 779C210 779 166 736 166 680ZM207 680C207 717 234 744 270 744C306 744 333 717 333 680C333 644 306 617 270 617C234 617 207 644 207 680Z" glyph-name="aring" horiz-adv-x="539" unicode="&#229;" /><glyph d="M238 94C185 94 156 119 156 163C156 181 162 198 173 208C188 224 210 234 277 234C302 234 328 232 351 229V135C316 109 276 94 238 94ZM360 53 380 0H489L476 104V350C476 478 410 532 271 532C196 532 129 515 71 491L99 392C148 413 200 426 253 426C321 426 351 399 351 347V322C325 327 292 330 259 330C160 330 110 311 77 277C50 251 35 211 35 158C35 48 100 -9 195 -9C260 -9 310 13 360 53ZM425 882H282L210 797H297ZM166 676C166 622 210 581 270 581C330 581 374 622 374 676C374 729 330 770 270 770C210 770 166 729 166 676ZM207 676C207 710 234 735 270 735C306 735 333 710 333 676C333 641 306 617 270 617C234 617 207 641 207 676Z" glyph-name="aringacute" horiz-adv-x="539" unicode="&#507;" /><glyph d="M57 414H167L282 627L396 414H508L341 721H223Z" glyph-name="asciicircum" horiz-adv-x="564" unicode="^" /><glyph d="M440 447C412 389 396 371 373 371C354 371 336 378 289 406C236 436 210 446 180 446C133 446 95 411 51 294L124 266C153 324 169 342 191 342C211 342 228 334 276 307C329 276 354 266 385 266C432 266 469 302 513 418Z" glyph-name="asciitilde" horiz-adv-x="564" unicode="~" /><glyph d="M175 595 204 702H129L158 595ZM195 569 305 575 282 644 190 584ZM138 569 143 584 51 644 28 575ZM215 438 274 482 189 552 175 541ZM118 438 158 541 144 552 59 482Z" glyph-name="asterisk" horiz-adv-x="333" unicode="*" /><glyph d="M376 -150C428 -150 472 -143 512 -131L501 -72C466 -82 423 -89 386 -89C220 -89 117 3 117 196C117 444 276 646 458 646C545 646 587 604 587 534C587 522 586 510 584 495C564 501 542 504 523 504C363 504 261 382 261 228C261 120 321 63 394 63C437 63 472 78 512 109L529 64H593L675 407C685 452 692 489 692 530C692 641 624 717 474 717C244 717 43 494 43 193C43 -30 164 -150 376 -150ZM443 146C400 146 368 177 368 238C368 337 433 425 526 425C540 425 554 423 568 419L508 166C485 153 465 146 443 146Z" glyph-name="at" horiz-adv-x="729" unicode="@" /><glyph d="M238 94C185 94 156 119 156 163C156 181 162 198 173 208C188 224 210 234 277 234C302 234 328 232 351 229V135C316 109 276 94 238 94ZM360 53 380 0H489L476 104V350C476 478 410 532 271 532C196 532 129 515 71 491L99 392C148 413 200 426 253 426C321 426 351 399 351 347V322C325 327 292 330 259 330C160 330 110 311 77 277C50 251 35 211 35 158C35 48 100 -9 195 -9C260 -9 310 13 360 53ZM169 582C186 622 198 631 214 631C228 631 240 626 271 609C307 590 323 583 345 583C381 583 409 610 436 691L380 708C362 667 351 658 335 658C321 658 309 664 278 681C242 700 226 706 204 706C167 706 139 680 112 599Z" glyph-name="atilde" horiz-adv-x="539" unicode="&#227;" /><glyph d="M320 -10C441 -10 529 87 529 263C529 436 443 532 325 532C269 532 226 510 192 483V724H66V0H164L181 43C217 14 261 -10 320 -10ZM285 94C252 94 219 108 192 127V391C217 411 250 429 287 429C357 429 402 370 402 262C402 150 355 94 285 94Z" glyph-name="b" horiz-adv-x="567" unicode="b" /><glyph d="M312 -130H405L87 795H-6Z" glyph-name="backslash" horiz-adv-x="387" unicode="\" /><glyph d="M307 -114H400L82 811H-11Z" glyph-name="backslash.cap" horiz-adv-x="387" /><glyph d="M196 -130V795H109V-130Z" glyph-name="bar" horiz-adv-x="304" unicode="|" /><glyph d="M196 -114V811H109V-114Z" glyph-name="bar.cap" horiz-adv-x="304" /><glyph d="M497 -116 508 -38C419 -30 341 -12 283 7C328 32 365 71 365 133C365 222 287 273 179 304C287 335 365 386 365 475C365 537 328 576 283 601C341 620 419 638 508 646L497 724C370 711 252 680 164 645L154 581C207 555 243 521 243 473C243 404 182 353 35 337V271C182 255 243 204 243 135C243 87 207 53 154 27L164 -37C252 -72 370 -103 497 -116Z" glyph-name="braceleft" horiz-adv-x="546" unicode="{" /><glyph d="M497 -71 508 7C419 15 341 33 283 52C328 77 365 116 365 178C365 267 287 318 179 349C287 380 365 431 365 520C365 582 328 621 283 646C341 665 419 683 508 691L497 769C370 756 252 725 164 690L154 626C207 600 243 566 243 518C243 449 182 398 35 382V316C182 300 243 249 243 180C243 132 207 98 154 72L164 8C252 -27 370 -58 497 -71Z" glyph-name="braceleft.cap" horiz-adv-x="546" /><glyph d="M49 -116C176 -103 294 -72 381 -37L392 27C338 53 303 87 303 135C303 204 364 255 511 271V337C364 353 303 404 303 473C303 521 338 555 392 581L381 645C294 680 176 711 49 724L38 646C127 638 204 620 262 601C217 576 181 537 181 475C181 386 259 335 367 304C259 273 181 222 181 133C181 71 217 32 262 7C204 -12 127 -30 38 -38Z" glyph-name="braceright" horiz-adv-x="546" unicode="}" /><glyph d="M49 -71C176 -58 294 -27 381 8L392 72C338 98 303 132 303 180C303 249 364 300 511 316V382C364 398 303 449 303 518C303 566 338 600 392 626L381 690C294 725 176 756 49 769L38 691C127 683 204 665 262 646C217 621 181 582 181 520C181 431 259 380 367 349C259 318 181 267 181 178C181 116 217 77 262 52C204 33 127 15 38 7Z" glyph-name="braceright.cap" horiz-adv-x="546" /><glyph d="M370 -92V-19L185 -28V636L370 627V700L79 717V-109Z" glyph-name="bracketleft" horiz-adv-x="410" unicode="[" /><glyph d="M370 -47V26L185 17V681L370 672V745L79 762V-64Z" glyph-name="bracketleft.cap" horiz-adv-x="410" /><glyph d="M331 -109V717L40 700V627L225 636V-28L40 -19V-92Z" glyph-name="bracketright" horiz-adv-x="410" unicode="]" /><glyph d="M331 -64V762L40 745V672L225 681V17L40 26V-47Z" glyph-name="bracketright.cap" horiz-adv-x="410" /><glyph d="M251 651C209 651 187 673 180 706H117C121 634 167 580 249 580C332 580 379 634 383 706H320C313 673 292 651 251 651Z" glyph-name="breve" horiz-adv-x="500" unicode="&#728;" /><glyph d="M1 811C-39 811 -63 830 -72 860H-141C-134 791 -85 741 -1 741C84 741 134 791 141 860H72C63 830 40 811 1 811Z" glyph-name="breve.cap" horiz-adv-x="0" /><glyph d="M83 355C83 276 147 212 226 212C305 212 370 276 370 355C370 434 305 498 226 498C147 498 83 434 83 355Z" glyph-name="bullet" horiz-adv-x="453" unicode="&#8226;" /><glyph d="M439 28 413 131C373 112 336 100 299 100C213 100 164 164 164 263C164 355 213 423 297 423C337 423 375 410 410 394L436 502C391 521 345 533 287 533C135 533 36 423 36 261C36 97 130 -10 279 -10C339 -10 392 6 439 28Z" glyph-name="c" horiz-adv-x="466" unicode="c" /><glyph d="M439 28 413 131C373 112 336 100 299 100C213 100 164 164 164 263C164 355 213 423 297 423C337 423 375 410 410 394L436 502C391 521 345 533 287 533C135 533 36 423 36 261C36 97 130 -10 279 -10C339 -10 392 6 439 28ZM297 587 449 702H299L213 587Z" glyph-name="cacute" horiz-adv-x="466" unicode="&#263;" /><glyph d="M251 645 186 703H108L204 584H296L392 703H315Z" glyph-name="caron" horiz-adv-x="500" unicode="&#711;" /><glyph d="M1 802 -63 849H-151L-56 745H56L151 849H64Z" glyph-name="caron.cap" horiz-adv-x="0" /><glyph d="M439 28 413 131C373 112 336 100 299 100C213 100 164 164 164 263C164 355 213 423 297 423C337 423 375 410 410 394L436 502C391 521 345 533 287 533C135 533 36 423 36 261C36 97 130 -10 279 -10C339 -10 392 6 439 28ZM275 648 210 706H132L228 587H320L416 706H339Z" glyph-name="ccaron" horiz-adv-x="466" unicode="&#269;" /><glyph d="M373 -85C373 -53 343 -33 280 -35L307 -9C356 -5 400 10 439 28L413 131C373 112 336 100 299 100C213 100 164 164 164 263C164 355 213 423 297 423C337 423 375 410 410 394L436 502C391 521 345 533 287 533C135 533 36 423 36 261C36 115 110 15 231 -6L188 -55L207 -79C246 -71 267 -77 267 -91C267 -106 245 -116 166 -122L171 -162C320 -159 373 -129 373 -85Z" glyph-name="ccedilla" horiz-adv-x="466" unicode="&#231;" /><glyph d="M439 28 413 131C373 112 336 100 299 100C213 100 164 164 164 263C164 355 213 423 297 423C337 423 375 410 410 394L436 502C391 521 345 533 287 533C135 533 36 423 36 261C36 97 130 -10 279 -10C339 -10 392 6 439 28ZM273 645 338 587H416L320 706H228L132 587H209Z" glyph-name="ccircumflex" horiz-adv-x="466" unicode="&#265;" /><glyph d="M439 28 413 131C373 112 336 100 299 100C213 100 164 164 164 263C164 355 213 423 297 423C337 423 375 410 410 394L436 502C391 521 345 533 287 533C135 533 36 423 36 261C36 97 130 -10 279 -10C339 -10 392 6 439 28ZM325 591V692H223V591Z" glyph-name="cdotaccent" horiz-adv-x="466" unicode="&#267;" /><glyph d="M150 -162C299 -159 352 -129 352 -85C352 -53 322 -33 259 -35L302 6L224 10L167 -55L186 -79C225 -71 246 -77 246 -91C246 -106 224 -116 145 -122Z" glyph-name="cedilla" horiz-adv-x="500" unicode="&#184;" /><glyph d="M155 359C155 434 200 486 266 495L229 231C180 251 155 298 155 359ZM439 162 413 254C369 233 326 221 285 221L323 495C354 490 382 480 412 466L439 560C406 574 376 584 343 590L358 704H287L272 594C129 588 41 489 41 359C41 238 107 156 209 132L190 -4H261L278 125C335 126 386 139 439 162Z" glyph-name="cent" horiz-adv-x="476" unicode="&#162;" /><glyph d="M249 642 314 584H392L296 703H204L108 584H185Z" glyph-name="circumflex" horiz-adv-x="500" unicode="&#710;" /><glyph d="M-1 793 63 745H151L56 849H-56L-151 745H-64Z" glyph-name="circumflex.cap" horiz-adv-x="0" /><glyph d="M174 378V523H45V378ZM174 0V144H45V0Z" glyph-name="colon" horiz-adv-x="219" unicode=":" /><glyph d="M175 428V564H45V428ZM175 154V290H45V154Z" glyph-name="colon.fig" horiz-adv-x="220" /><glyph d="M207 428V564H76V428ZM207 154V290H76V154Z" glyph-name="colon.figtab" horiz-adv-x="282" /><glyph d="M206 378V523H76V378ZM206 0V144H76V0Z" glyph-name="colon.tab" horiz-adv-x="282" /><glyph d="M172 144H48C48 17 32 -41 -13 -114L28 -146C124 -62 172 27 172 136Z" glyph-name="comma" horiz-adv-x="209" unicode="," /><glyph d="M208 144H85C85 17 69 -41 24 -114L65 -146C161 -62 208 27 208 136Z" glyph-name="comma.tab" horiz-adv-x="282" /><glyph d="M373 -23C558 -23 697 130 697 350C697 570 558 723 373 723C187 723 48 570 48 350C48 130 187 -23 373 -23ZM373 690C537 690 660 551 660 350C660 149 537 10 373 10C208 10 85 149 85 350C85 551 208 690 373 690ZM506 191 483 258C455 244 428 234 398 234C333 234 292 280 292 354C292 425 333 472 395 472C427 472 455 462 481 448L504 517C472 534 435 546 390 546C284 546 207 472 207 353C207 230 282 160 391 160C433 160 473 172 506 191Z" glyph-name="copyright" horiz-adv-x="745" unicode="&#169;" /><glyph d="M281 94C210 94 165 153 165 260C165 373 212 429 283 429C316 429 348 415 375 396V132C350 112 317 94 281 94ZM384 48 403 0H501V724H375V495C337 518 298 532 252 532C127 532 38 436 38 260C38 87 125 -10 240 -10C304 -10 348 17 384 48Z" glyph-name="d" horiz-adv-x="567" unicode="d" /><glyph d="M179 474 162 563H174L257 545V607L174 589H162L181 702H114L134 589H122L38 607V545L122 563H134L116 474L138 266H157Z" glyph-name="dagger" horiz-adv-x="295" unicode="&#8224;" /><glyph d="M174 360 257 342V404L174 386H162L179 474L162 563H174L257 545V607L174 589H162L181 702H114L134 589H122L38 607V545L122 563H134L116 474L134 386H122L38 404V342L122 360H134L114 247H181L162 360Z" glyph-name="daggerdbl" horiz-adv-x="295" unicode="&#8225;" /><glyph d="M281 94C210 94 165 153 165 260C165 373 212 429 283 429C316 429 348 415 375 396V132C350 112 317 94 281 94ZM384 48 403 0H501V724H375V495C337 518 298 532 252 532C127 532 38 436 38 260C38 87 125 -10 240 -10C304 -10 348 17 384 48ZM643 725H562V690C562 645 557 611 544 575L581 556C621 597 643 636 643 698Z" glyph-name="dcaron" horiz-adv-x="567" unicode="&#271;" /><glyph d="M281 94C210 94 165 151 165 256C165 365 212 419 283 419C316 419 348 405 375 386V132C350 112 317 94 281 94ZM384 48 403 0H501V580H554V653H501V724H375V653H240V580H375V486C337 509 298 523 252 523C127 523 38 428 38 255C38 85 125 -10 240 -10C304 -10 348 17 384 48Z" glyph-name="dcroat" horiz-adv-x="567" unicode="&#273;" /><glyph d="M377 540C377 636 303 709 208 709C114 709 39 635 39 538C39 442 113 369 208 369C303 369 377 443 377 540ZM304 539C304 481 264 436 208 436C153 436 112 482 112 539C112 597 153 641 208 641C263 641 304 597 304 539Z" glyph-name="degree" horiz-adv-x="416" unicode="&#176;" /><glyph d="M215 588V689H118V588ZM382 588V689H285V588Z" glyph-name="dieresis" horiz-adv-x="500" unicode="&#168;" /><glyph d="M-36 745V844H-138V745ZM138 745V844H36V745Z" glyph-name="dieresis.cap" horiz-adv-x="0" /><glyph d="M339 494V600H226V494ZM511 306V403L282 402L53 403V306L282 308ZM339 109V216H226V109Z" glyph-name="divide" horiz-adv-x="564" unicode="&#247;" /><glyph d="M180 512C180 564 224 601 301 601L274 420C206 441 180 469 180 512ZM411 195C411 134 360 100 283 99L311 292C383 270 411 240 411 195ZM259 -109 276 -1C430 -1 526 73 526 203C526 304 468 367 328 405L356 597C402 591 445 576 488 555L518 654C472 676 426 689 379 696L392 781H320L308 701C157 701 65 626 65 504C65 405 120 345 257 307L227 103C170 111 114 130 62 158L32 57C83 31 143 12 204 4L187 -109Z" glyph-name="dollar" horiz-adv-x="567" unicode="$" /><glyph d="M174 512C174 564 217 601 295 601H297L270 419C200 441 174 469 174 512ZM407 195C407 134 357 100 279 99L307 292C379 270 407 240 407 195ZM255 -109 272 -1C427 -1 520 74 520 205C520 302 464 366 324 404L352 597C397 590 441 575 483 555L513 653C468 674 422 689 375 696L388 781H316L303 701H302C149 701 60 624 60 503C60 408 115 345 253 307L223 103C166 110 108 131 56 159L26 58C78 31 139 12 200 4L183 -109Z" glyph-name="dollar.tab" horiz-adv-x="564" /><glyph d="M169 246C169 348 218 399 290 399C325 399 358 386 384 367V133C360 113 327 95 288 95C216 95 169 149 169 246ZM393 48 413 0H511V565H578V630H511V700H384V630H250V565H384V466C347 489 308 503 261 503C137 503 48 412 48 246C48 82 135 -9 250 -9C314 -9 357 18 393 48ZM511 -128V-63H89V-128Z" glyph-name="dong" horiz-adv-x="608" unicode="&#8363;" /><glyph d="M301 588V689H199V588Z" glyph-name="dotaccent" horiz-adv-x="500" unicode="&#729;" /><glyph d="M53 745V844H-53V745Z" glyph-name="dotaccent.cap" horiz-adv-x="0" /><glyph d="M194 0V523H67V0Z" glyph-name="dotlessi" horiz-adv-x="261" unicode="&#305;" /><glyph d="M287 -10C351 -10 418 8 475 40L441 135C394 109 340 94 294 94C219 94 173 138 162 208H495V254C495 427 408 535 268 535C136 535 37 429 37 259C37 77 141 -10 287 -10ZM160 307C168 382 207 432 267 432C328 432 365 383 372 307Z" glyph-name="e" horiz-adv-x="528" unicode="e" /><glyph d="M287 -10C351 -10 418 8 475 40L441 135C394 109 340 94 294 94C219 94 173 138 162 208H495V254C495 427 408 535 268 535C136 535 37 429 37 259C37 77 141 -10 287 -10ZM160 307C168 382 207 432 267 432C328 432 365 383 372 307ZM294 587 446 702H296L210 587Z" glyph-name="eacute" horiz-adv-x="528" unicode="&#233;" /><glyph d="M287 -10C351 -10 418 8 475 40L441 135C394 109 340 94 294 94C219 94 173 138 162 208H495V254C495 427 408 535 268 535C136 535 37 429 37 259C37 77 141 -10 287 -10ZM160 307C168 382 207 432 267 432C328 432 365 383 372 307ZM272 654C230 654 208 676 201 709H138C142 637 188 583 270 583C353 583 400 637 404 709H341C334 676 313 654 272 654Z" glyph-name="ebreve" horiz-adv-x="528" unicode="&#277;" /><glyph d="M287 -10C351 -10 418 8 475 40L441 135C394 109 340 94 294 94C219 94 173 138 162 208H495V254C495 427 408 535 268 535C136 535 37 429 37 259C37 77 141 -10 287 -10ZM160 307C168 382 207 432 267 432C328 432 365 383 372 307ZM272 648 207 706H129L225 587H317L413 706H336Z" glyph-name="ecaron" horiz-adv-x="528" unicode="&#283;" /><glyph d="M287 -10C351 -10 418 8 475 40L441 135C394 109 340 94 294 94C219 94 173 138 162 208H495V254C495 427 408 535 268 535C136 535 37 429 37 259C37 77 141 -10 287 -10ZM160 307C168 382 207 432 267 432C328 432 365 383 372 307ZM270 645 335 587H413L317 706H225L129 587H206Z" glyph-name="ecircumflex" horiz-adv-x="528" unicode="&#234;" /><glyph d="M287 -10C351 -10 418 8 475 40L441 135C394 109 340 94 294 94C219 94 173 138 162 208H495V254C495 427 408 535 268 535C136 535 37 429 37 259C37 77 141 -10 287 -10ZM160 307C168 382 207 432 267 432C328 432 365 383 372 307ZM236 591V692H139V591ZM403 591V692H306V591Z" glyph-name="edieresis" horiz-adv-x="528" unicode="&#235;" /><glyph d="M287 -10C351 -10 418 8 475 40L441 135C394 109 340 94 294 94C219 94 173 138 162 208H495V254C495 427 408 535 268 535C136 535 37 429 37 259C37 77 141 -10 287 -10ZM160 307C168 382 207 432 267 432C328 432 365 383 372 307ZM322 591V692H220V591Z" glyph-name="edotaccent" horiz-adv-x="528" unicode="&#279;" /><glyph d="M287 -10C351 -10 418 8 475 40L441 135C394 109 340 94 294 94C219 94 173 138 162 208H495V254C495 427 408 535 268 535C136 535 37 429 37 259C37 77 141 -10 287 -10ZM160 307C168 382 207 432 267 432C328 432 365 383 372 307ZM248 587H332L246 702H96Z" glyph-name="egrave" horiz-adv-x="528" unicode="&#232;" /><glyph d="M293 -10C447 -10 545 74 545 188C545 275 500 332 424 364C486 396 528 444 528 525C528 625 444 710 293 710C143 710 58 625 58 525C58 444 100 396 162 364C87 332 41 275 41 188C41 74 138 -10 293 -10ZM293 418C234 418 189 453 189 509C189 562 229 599 293 599C357 599 397 562 397 509C397 453 352 418 293 418ZM293 309C363 309 414 267 414 205C414 142 366 101 293 101C221 101 172 142 172 205C172 267 223 309 293 309Z" glyph-name="eight" horiz-adv-x="586" unicode="8" /><glyph d="M206 -6C314 -6 380 45 380 114C380 165 349 199 292 217C339 236 368 266 368 314C368 374 309 426 206 426C103 426 43 374 43 314C43 266 72 236 119 217C62 199 32 165 32 114C32 45 96 -6 206 -6ZM206 247C164 247 131 269 131 304C131 337 159 359 206 359C251 359 280 337 280 304C280 269 249 247 206 247ZM206 61C156 61 122 86 122 124C122 163 156 187 206 187C255 187 289 163 289 124C289 86 256 61 206 61Z" glyph-name="eight.den" horiz-adv-x="411" /><glyph d="M206 274C314 274 380 325 380 394C380 445 349 479 292 497C339 516 368 546 368 594C368 654 309 706 206 706C103 706 43 654 43 594C43 546 72 516 119 497C62 479 32 445 32 394C32 325 96 274 206 274ZM206 527C164 527 131 549 131 584C131 617 159 639 206 639C251 639 280 617 280 584C280 549 249 527 206 527ZM206 341C156 341 122 366 122 404C122 443 156 467 206 467C255 467 289 443 289 404C289 366 256 341 206 341Z" glyph-name="eight.num" horiz-adv-x="411" /><glyph d="M282 -10C432 -10 526 74 526 188C526 276 483 333 405 364C469 396 509 444 509 525C509 625 428 710 282 710C138 710 55 625 55 525C55 444 95 396 159 364C82 333 38 276 38 188C38 74 131 -10 282 -10ZM378 509C378 450 337 418 282 418C228 418 186 450 186 509C186 564 222 599 282 599C342 599 378 564 378 509ZM395 205C395 141 350 101 282 101C215 101 169 141 169 205C169 269 216 309 282 309C348 309 395 269 395 205Z" glyph-name="eight.tab" horiz-adv-x="564" /><glyph d="M573 0V139H448V0ZM369 0V139H244V0ZM165 0V139H40V0Z" glyph-name="ellipsis" horiz-adv-x="613" unicode="&#8230;" /><glyph d="M287 -10C351 -10 418 8 475 40L441 135C394 109 340 94 294 94C219 94 173 138 162 208H495V254C495 427 408 535 268 535C136 535 37 429 37 259C37 77 141 -10 287 -10ZM160 307C168 382 207 432 267 432C328 432 365 383 372 307ZM405 595V660H137V595Z" glyph-name="emacron" horiz-adv-x="528" unicode="&#275;" /><glyph d="M755 251V357H40V251Z" glyph-name="emdash" horiz-adv-x="795" unicode="&#8212;" /><glyph d="M755 306V412H40V306Z" glyph-name="emdash.cap" horiz-adv-x="795" /><glyph d="M443 251V357H40V251Z" glyph-name="endash" horiz-adv-x="483" unicode="&#8211;" /><glyph d="M443 306V412H40V306Z" glyph-name="endash.cap" horiz-adv-x="483" /><glyph d="M391 -180C474 -114 509 -60 509 73V360C509 473 453 532 350 532C282 532 231 505 185 471L164 523H66V0H192V380C223 402 264 420 301 420C355 420 382 389 382 331V75C382 -26 360 -63 304 -119Z" glyph-name="eng" horiz-adv-x="571" unicode="&#331;" /><glyph d="M466 -149 473 -94C418 -83 408 -76 408 -62C408 -50 417 -33 474 46L441 135C394 109 340 94 294 94C219 94 173 138 162 208H495V254C495 427 408 535 268 535C136 535 37 429 37 259C37 77 141 -9 288 -9C312 -9 337 -5 364 3C313 -42 299 -63 299 -85C299 -124 342 -143 466 -149ZM372 307H160C168 382 207 432 267 432C328 432 365 383 372 307Z" glyph-name="eogonek" horiz-adv-x="528" unicode="&#281;" /><glyph d="M504 411V504H60V411ZM504 205V299H60V205Z" glyph-name="equal" horiz-adv-x="564" unicode="=" /><glyph d="M262 -11C410 -11 501 109 501 304C501 449 461 558 369 635L470 724H363L311 675C272 697 227 716 175 731L120 636C160 623 194 610 223 596L129 511H236L285 557C322 527 346 490 360 442C322 459 282 468 240 468C121 468 37 371 37 229C37 81 128 -11 262 -11ZM263 94C203 94 163 146 163 230C163 313 204 366 269 366C306 366 339 356 376 336C377 322 377 308 377 293C377 163 332 94 263 94Z" glyph-name="eth" horiz-adv-x="543" unicode="&#240;" /><glyph d="M173 211 205 539V700H68V539L100 211ZM203 0V130H70V0Z" glyph-name="exclam" horiz-adv-x="273" unicode="!" /><glyph d="M100 489 68 161V0H205V161L173 489ZM70 700V570H203V700Z" glyph-name="exclamdown" horiz-adv-x="273" unicode="&#161;" /><glyph d="M281 729C156 729 102 666 102 556V523H22V418H102V0H228V418H361V523H228V556C228 600 249 627 302 627C331 627 360 621 386 614L403 712C371 722 327 729 281 729Z" glyph-name="f" horiz-adv-x="379" unicode="f" /><glyph d="M281 729C156 729 102 666 102 556V523H22V418H102V0H228V418H361V523H228V556C228 600 249 627 302 627C328 627 354 622 377 616V719C348 725 315 729 281 729Z" glyph-name="f.lig" horiz-adv-x="379" /><glyph d="M281 729C156 729 102 666 102 556V523H22V418H102V0H228V418H361V523H228V556C228 600 249 627 302 627C331 627 360 621 386 614L403 712C371 722 327 729 281 729ZM661 729C536 729 482 666 482 556V523H402V418H482V0H608V418H741V523H608V556C608 600 629 627 682 627C711 627 740 621 766 614L783 712C751 722 707 729 661 729Z" glyph-name="f_f" horiz-adv-x="759" /><glyph d="M281 729C156 729 102 666 102 556V523H22V418H102V0H228V418H361V523H228V556C228 600 249 627 302 627C331 627 360 621 386 614L403 712C371 722 327 729 281 729ZM661 729C536 729 482 666 482 556V523H402V418H482V0H608V418H741V523H608V556C608 600 629 627 682 627C708 627 734 622 757 616V719C728 725 695 729 661 729ZM956 612V714H823V612ZM953 0V523H826V0Z" glyph-name="f_f_i" horiz-adv-x="1020" /><glyph d="M281 729C156 729 102 666 102 556V523H22V418H102V0H228V418H361V523H228V556C228 600 249 627 302 627C331 627 360 621 386 614L403 712C371 722 327 729 281 729ZM661 729C536 729 482 666 482 556V523H402V418H482V0H608V418H741V523H608V556C608 600 629 627 682 627C708 627 734 622 757 616V719C728 725 695 729 661 729ZM953 0V724H826V0Z" glyph-name="f_f_l" horiz-adv-x="1020" /><glyph d="M281 729C156 729 102 666 102 556V523H22V418H102V0H228V418H361V523H228V556C228 600 249 627 302 627C328 627 354 622 377 616V719C348 725 315 729 281 729ZM576 612V714H443V612ZM573 0V523H446V0Z" glyph-name="fi" horiz-adv-x="640" unicode="&#64257;" /><glyph d="M517 268C517 379 444 446 331 446C283 446 237 435 194 416L205 587H508V700H86L65 328L164 285C213 314 260 332 302 332C355 332 386 304 386 259C386 180 297 125 53 101L70 -12C383 12 517 101 517 268Z" glyph-name="five" horiz-adv-x="561" unicode="5" /><glyph d="M359 161C359 226 311 267 234 267C198 267 164 258 132 243L139 346H353V420H62L48 196L111 170C143 188 176 197 206 197C243 197 265 182 265 155C265 112 207 79 40 66L52 -8C272 6 359 64 359 161Z" glyph-name="five.den" horiz-adv-x="393" /><glyph d="M359 441C359 506 311 547 234 547C198 547 164 538 132 523L139 626H353V700H62L48 476L111 450C143 468 176 477 206 477C243 477 265 462 265 435C265 392 207 359 40 346L52 272C272 286 359 344 359 441Z" glyph-name="five.num" horiz-adv-x="393" /><glyph d="M518 267C518 379 443 446 330 446C281 446 235 435 191 415L202 587H509V700H84L62 327L161 284C211 314 258 332 301 332C355 332 386 304 386 258C386 180 297 125 50 101L67 -12C382 12 518 101 518 267Z" glyph-name="five.tab" horiz-adv-x="564" /><glyph d="M281 729C156 729 102 666 102 556V523H22V418H102V0H228V418H361V523H228V556C228 600 249 627 302 627C328 627 354 622 377 616V719C348 725 315 729 281 729ZM573 0V724H446V0Z" glyph-name="fl" horiz-adv-x="640" unicode="&#64258;" /><glyph d="M474 0V144H565V255H474V704H303L24 248L41 144H343V0ZM345 254H159L345 564Z" glyph-name="four" horiz-adv-x="592" unicode="4" /><glyph d="M334 0V82H401V152H334V422H207L21 155L25 82H243V0ZM245 151H107L245 354Z" glyph-name="four.den" horiz-adv-x="419" /><glyph d="M334 280V362H401V432H334V702H207L21 435L25 362H243V280ZM245 431H107L245 634Z" glyph-name="four.num" horiz-adv-x="419" /><glyph d="M457 0V144H539V255H457V704H281L27 255L44 144H326V0ZM328 254H156L328 570Z" glyph-name="four.tab" horiz-adv-x="564" /><glyph d="M-194 0H-133L76 337L308 700H248L38 363Z" glyph-name="fraction" horiz-adv-x="114" unicode="&#8260;" /><glyph d="M165 271C165 375 212 429 283 429C315 429 348 415 375 396V149C350 132 317 117 282 117C211 117 165 170 165 271ZM501 523H403L386 480C350 509 306 532 247 532C125 532 38 435 38 269C38 101 124 13 246 13C301 13 344 32 376 53V31C376 -40 336 -74 254 -74C198 -74 146 -62 99 -41L65 -141C120 -164 188 -178 260 -178C405 -178 501 -117 501 44Z" glyph-name="g" horiz-adv-x="567" unicode="g" /><glyph d="M165 271C165 375 212 429 283 429C315 429 348 415 375 396V149C350 132 317 117 282 117C211 117 165 170 165 271ZM501 523H403L386 480C350 509 306 532 247 532C125 532 38 435 38 269C38 101 124 13 246 13C301 13 344 32 376 53V31C376 -40 336 -74 254 -74C198 -74 146 -62 99 -41L65 -141C120 -164 188 -178 260 -178C405 -178 501 -117 501 44ZM290 654C248 654 226 676 219 709H156C160 637 206 583 288 583C371 583 418 637 422 709H359C352 676 331 654 290 654Z" glyph-name="gbreve" horiz-adv-x="567" unicode="&#287;" /><glyph d="M165 271C165 375 212 429 283 429C315 429 348 415 375 396V149C350 132 317 117 282 117C211 117 165 170 165 271ZM501 523H403L386 480C350 509 306 532 247 532C125 532 38 435 38 269C38 101 124 13 246 13C301 13 344 32 376 53V31C376 -40 336 -74 254 -74C198 -74 146 -62 99 -41L65 -141C120 -164 188 -178 260 -178C405 -178 501 -117 501 44ZM290 648 225 706H147L243 587H335L431 706H354Z" glyph-name="gcaron" horiz-adv-x="567" unicode="&#487;" /><glyph d="M165 271C165 375 212 429 283 429C315 429 348 415 375 396V149C350 132 317 117 282 117C211 117 165 170 165 271ZM501 523H403L386 480C350 509 306 532 247 532C125 532 38 435 38 269C38 101 124 13 246 13C301 13 344 32 376 53V31C376 -40 336 -74 254 -74C198 -74 146 -62 99 -41L65 -141C120 -164 188 -178 260 -178C405 -178 501 -117 501 44ZM288 645 353 587H431L335 706H243L147 587H224Z" glyph-name="gcircumflex" horiz-adv-x="567" unicode="&#285;" /><glyph d="M165 271C165 375 212 429 283 429C315 429 348 415 375 396V149C350 132 317 117 282 117C211 117 165 170 165 271ZM501 523H403L386 480C350 509 306 532 247 532C125 532 38 435 38 269C38 101 124 13 246 13C301 13 344 32 376 53V31C376 -40 336 -74 254 -74C198 -74 146 -62 99 -41L65 -141C120 -164 188 -178 260 -178C405 -178 501 -117 501 44ZM340 591V692H238V591Z" glyph-name="gdotaccent" horiz-adv-x="567" unicode="&#289;" /><glyph d="M423 -7C533 -7 608 51 608 159C608 258 548 322 441 364C512 399 566 458 566 547C566 653 482 729 341 729C179 729 106 645 102 523H22V418H102V0H228V506C228 576 268 624 339 624C404 624 440 588 440 538C440 482 397 437 310 408V310C431 271 482 221 482 167C482 126 455 100 402 100C369 100 330 108 294 124V15C335 0 379 -7 423 -7Z" glyph-name="germandbls" horiz-adv-x="642" unicode="&#223;" /><glyph d="M227 584H311L225 699H75Z" glyph-name="grave" horiz-adv-x="500" unicode="`" /><glyph d="M-34 745H69L-22 844H-183Z" glyph-name="grave.cap" horiz-adv-x="0" /><glyph d="M63 597V487L395 354L63 222V112L509 306V404Z" glyph-name="greater" horiz-adv-x="564" unicode="&gt;" /><glyph d="M443 87 487 126 351 304 487 482 443 521 243 336V271ZM231 87 275 126 139 304 275 482 231 521 31 336V271Z" glyph-name="guillemotleft" horiz-adv-x="521" unicode="&#171;" /><glyph d="M443 142 487 181 351 359 487 537 443 576 243 391V326ZM231 142 275 181 139 359 275 537 231 576 31 391V326Z" glyph-name="guillemotleft.cap" horiz-adv-x="521" /><glyph d="M78 87 278 272V336L78 521L34 481L170 304L34 126ZM290 87 491 272V336L290 521L247 481L382 304L247 126Z" glyph-name="guillemotright" horiz-adv-x="521" unicode="&#187;" /><glyph d="M78 142 278 327V391L78 576L34 536L170 359L34 181ZM290 142 491 327V391L290 576L247 536L382 359L247 181Z" glyph-name="guillemotright.cap" horiz-adv-x="521" /><glyph d="M231 87 275 126 139 304 275 482 231 521 31 336V271Z" glyph-name="guilsinglleft" horiz-adv-x="309" unicode="&#8249;" /><glyph d="M231 142 275 181 139 359 275 537 231 576 31 391V326Z" glyph-name="guilsinglleft.cap" horiz-adv-x="309" /><glyph d="M78 87 278 272V336L78 521L34 481L170 304L34 126Z" glyph-name="guilsinglright" horiz-adv-x="309" unicode="&#8250;" /><glyph d="M78 142 278 327V391L78 576L34 536L170 359L34 181Z" glyph-name="guilsinglright.cap" horiz-adv-x="309" /><glyph d="M192 380C223 402 264 420 301 420C355 420 382 389 382 331V0H509V360C509 473 453 532 350 532C286 532 236 507 192 476V724H66V0H192Z" glyph-name="h" horiz-adv-x="571" unicode="h" /><glyph d="M192 370C223 392 264 411 301 411C355 411 382 380 382 321V0H509V351C509 463 453 522 350 522C286 522 236 498 192 467V580H328V653H192V724H66V653H13V580H66V0H192Z" glyph-name="hbar" horiz-adv-x="571" unicode="&#295;" /><glyph d="M192 380C223 402 264 420 301 420C355 420 382 389 382 331V0H509V360C509 473 453 532 350 532C286 532 236 507 192 476V724H66V0H192ZM128 823 193 765H271L175 884H83L-13 765H64Z" glyph-name="hcircumflex" horiz-adv-x="571" unicode="&#293;" /><glyph d="M203 584 344 699H215L123 584ZM352 584 492 699H363L272 584Z" glyph-name="hungarumlaut" horiz-adv-x="500" unicode="&#733;" /><glyph d="M-43 745 95 844H-38L-134 745ZM108 745 246 844H114L18 745Z" glyph-name="hungarumlaut.cap" horiz-adv-x="0" /><glyph d="M300 249V359H40V249Z" glyph-name="hyphen" horiz-adv-x="339" unicode="-" /><glyph d="M300 304V414H40V304Z" glyph-name="hyphen.cap" horiz-adv-x="339" /><glyph d="M197 612V714H64V612ZM194 0V523H67V0Z" glyph-name="i" horiz-adv-x="261" unicode="i" /><glyph d="M194 0V523H67V0ZM181 588V689H79V588Z" glyph-name="i.dot" horiz-adv-x="261" /><glyph d="M194 0V523H67V0ZM153 584 305 699H155L69 584Z" glyph-name="iacute" horiz-adv-x="261" unicode="&#237;" /><glyph d="M194 0V523H67V0ZM131 651C89 651 67 673 60 706H-3C1 634 47 580 129 580C212 580 259 634 263 706H200C193 673 172 651 131 651Z" glyph-name="ibreve" horiz-adv-x="261" unicode="&#301;" /><glyph d="M194 0V523H67V0ZM129 642 194 584H272L176 703H84L-12 584H65Z" glyph-name="icircumflex" horiz-adv-x="261" unicode="&#238;" /><glyph d="M194 0V523H67V0ZM95 588V689H-2V588ZM262 588V689H165V588Z" glyph-name="idieresis" horiz-adv-x="261" unicode="&#239;" /><glyph d="M194 0V523H67V0ZM107 584H191L105 699H-45Z" glyph-name="igrave" horiz-adv-x="261" unicode="&#236;" /><glyph d="M194 0V523H67V0ZM249 592V657H11V592Z" glyph-name="imacron" horiz-adv-x="261" unicode="&#299;" /><glyph d="M197 612V714H64V612ZM210 -94C154 -83 144 -76 144 -62C144 -52 149 -41 178 0H194V523H67V0H100C49 -42 35 -63 35 -85C35 -124 78 -143 202 -149Z" glyph-name="iogonek" horiz-adv-x="261" unicode="&#303;" /><glyph d="M194 0V523H67V0ZM29 579C46 619 58 628 74 628C88 628 100 623 131 606C167 587 183 580 205 580C241 580 269 607 296 688L240 705C222 664 211 655 195 655C181 655 169 661 138 678C102 697 86 703 64 703C27 703 -1 677 -28 596Z" glyph-name="itilde" horiz-adv-x="261" unicode="&#297;" /><glyph d="M198 612V714H64V612ZM73 -180C158 -114 194 -64 194 74V523H68V76C68 -26 45 -62 -15 -118Z" glyph-name="j" horiz-adv-x="261" unicode="j" /><glyph d="M73 -180C158 -114 194 -64 194 74V523H68V76C68 -26 45 -62 -15 -118ZM130 642 195 584H273L177 703H85L-11 584H66Z" glyph-name="jcircumflex" horiz-adv-x="261" unicode="&#309;" /><glyph d="M378 0H528L320 273L522 523H374L195 291H192V724H66V0H192V253H194Z" glyph-name="k" horiz-adv-x="535" unicode="k" /><glyph d="M194 0V724H67V0Z" glyph-name="l" horiz-adv-x="261" unicode="l" /><glyph d="M194 0V724H67V0ZM153 772 305 887H155L69 772Z" glyph-name="lacute" horiz-adv-x="261" unicode="&#314;" /><glyph d="M194 0V724H67V0ZM335 725H254V690C254 645 249 611 236 575L273 556C313 597 335 636 335 698Z" glyph-name="lcaron" horiz-adv-x="261" unicode="&#318;" /><glyph d="M502 112V223L169 355L502 488V597L55 404V306Z" glyph-name="less" horiz-adv-x="564" unicode="&lt;" /><glyph d="M214 0V343L280 376V474L214 439V725L87 724V374L20 339V242L87 278V0Z" glyph-name="lslash" horiz-adv-x="301" unicode="&#322;" /><glyph d="M816 0V361C816 474 757 532 657 532C590 532 532 504 479 466C454 509 409 532 347 532C282 532 231 505 185 471L164 523H66V0H192V380C223 402 263 420 299 420C350 420 377 390 377 332V0H504V345C504 357 502 368 499 377C533 402 574 420 609 420C661 420 689 390 689 332V0Z" glyph-name="m" horiz-adv-x="878" unicode="m" /><glyph d="M384 592V657H116V592Z" glyph-name="macron" horiz-adv-x="500" unicode="&#175;" /><glyph d="M151 750V818H-151V750Z" glyph-name="macron.cap" horiz-adv-x="0" /><glyph d="M132 750V818H-132V750Z" glyph-name="macron.capnrw" horiz-adv-x="0" /><glyph d="M119 592V657H-119V592Z" glyph-name="macron.nrw" horiz-adv-x="0" /><glyph d="M101 306V429H1V306Z" glyph-name="middotcat" horiz-adv-x="102" /><glyph d="M114 321V451H0V321Z" glyph-name="middotcat.cap" horiz-adv-x="189" /><glyph d="M511 303V407H53V303Z" glyph-name="minus" horiz-adv-x="564" unicode="&#8722;" /><glyph d="M431 134 503 206 352 355 503 505 432 575 282 424 133 575 61 504 212 355 62 205 132 134 282 285Z" glyph-name="multiply" horiz-adv-x="564" unicode="&#215;" /><glyph d="M192 380C223 402 264 420 301 420C355 420 382 389 382 331V0H509V360C509 473 453 532 350 532C282 532 231 505 185 471L164 523H66V0H192Z" glyph-name="n" horiz-adv-x="571" unicode="n" /><glyph d="M192 380C223 402 264 420 301 420C355 420 382 389 382 331V0H509V360C509 473 453 532 350 532C282 532 231 505 185 471L164 523H66V0H192ZM308 587 460 702H310L224 587Z" glyph-name="nacute" horiz-adv-x="571" unicode="&#324;" /><glyph d="M192 380C223 402 264 420 301 420C355 420 382 389 382 331V0H509V360C509 473 453 532 350 532C282 532 231 505 185 471L164 523H66V0H192ZM286 648 221 706H143L239 587H331L427 706H350Z" glyph-name="ncaron" horiz-adv-x="571" unicode="&#328;" /><glyph d="M278 711C134 711 38 615 38 467C38 328 119 250 236 250C286 250 332 262 378 283C346 206 274 142 134 83L190 -18C418 73 524 218 524 421C524 607 429 711 278 711ZM275 601C349 601 393 539 393 438C393 418 392 401 391 384C356 370 318 361 283 361C213 361 169 399 169 478C169 553 212 601 275 601Z" glyph-name="nine" horiz-adv-x="568" unicode="9" /><glyph d="M197 427C95 427 29 368 29 283C29 206 85 157 167 157C205 157 242 165 273 181C256 133 210 97 99 59L132 -11C294 41 371 130 371 252C371 361 305 427 197 427ZM196 356C248 356 281 322 281 261C281 252 280 243 279 235C254 226 226 220 201 220C149 220 118 245 118 287C118 329 150 356 196 356Z" glyph-name="nine.den" horiz-adv-x="404" /><glyph d="M197 707C95 707 29 648 29 563C29 486 85 437 167 437C205 437 242 445 273 461C256 413 210 377 99 339L132 269C294 321 371 410 371 532C371 641 305 707 197 707ZM196 636C248 636 281 602 281 541C281 532 280 523 279 515C254 506 226 500 201 500C149 500 118 525 118 567C118 609 150 636 196 636Z" glyph-name="nine.num" horiz-adv-x="404" /><glyph d="M275 711C134 711 38 615 38 468C38 330 119 250 234 250C283 250 329 262 373 282C340 205 272 141 134 82L190 -18C415 73 519 219 519 421C519 607 425 711 275 711ZM273 601C345 601 389 540 389 438C389 420 388 402 387 384C352 370 316 361 280 361C211 361 169 398 169 478C169 555 212 601 273 601Z" glyph-name="nine.tab" horiz-adv-x="564" /><glyph d="M504 209V296H292L353 414H504V501H401L458 609H371L314 501H60V414H273L212 296H60V209H163L107 100H194L250 209Z" glyph-name="notequal" horiz-adv-x="564" unicode="&#8800;" /><glyph d="M192 380C223 402 264 420 301 420C355 420 382 389 382 331V0H509V360C509 473 453 532 350 532C282 532 231 505 185 471L164 523H66V0H192ZM184 582C201 622 213 631 229 631C243 631 255 626 286 609C322 590 338 583 360 583C396 583 424 610 451 691L395 708C377 667 366 658 350 658C336 658 324 664 293 681C257 700 241 706 219 706C182 706 154 680 127 599Z" glyph-name="ntilde" horiz-adv-x="571" unicode="&#241;" /><glyph d="M364 263 237 270 263 436 391 429ZM321 -5H393L421 169L554 162V253L435 259L462 425L591 418V509L477 515L507 705H435L405 519L278 526L307 705H235L207 530L74 537V446L192 440L165 274L37 281V191L151 185L120 -5H192L222 181L350 173Z" glyph-name="numbersign" horiz-adv-x="628" unicode="#" /><glyph d="M514 262C514 432 412 535 276 535C140 535 37 431 37 260C37 91 139 -12 275 -12C411 -12 514 92 514 262ZM387 261C387 158 343 93 276 93C209 93 164 159 164 262C164 364 208 430 275 430C342 430 387 364 387 261Z" glyph-name="o" horiz-adv-x="551" unicode="o" /><glyph d="M514 262C514 432 412 535 276 535C140 535 37 431 37 260C37 91 139 -12 275 -12C411 -12 514 92 514 262ZM387 261C387 158 343 93 276 93C209 93 164 159 164 262C164 364 208 430 275 430C342 430 387 364 387 261ZM298 587 450 702H300L214 587Z" glyph-name="oacute" horiz-adv-x="551" unicode="&#243;" /><glyph d="M514 262C514 432 412 535 276 535C140 535 37 431 37 260C37 91 139 -12 275 -12C411 -12 514 92 514 262ZM387 261C387 158 343 93 276 93C209 93 164 159 164 262C164 364 208 430 275 430C342 430 387 364 387 261ZM276 654C234 654 212 676 205 709H142C146 637 192 583 274 583C357 583 404 637 408 709H345C338 676 317 654 276 654Z" glyph-name="obreve" horiz-adv-x="551" unicode="&#335;" /><glyph d="M514 262C514 432 412 535 276 535C140 535 37 431 37 260C37 91 139 -12 275 -12C411 -12 514 92 514 262ZM387 261C387 158 343 93 276 93C209 93 164 159 164 262C164 364 208 430 275 430C342 430 387 364 387 261ZM274 645 339 587H417L321 706H229L133 587H210Z" glyph-name="ocircumflex" horiz-adv-x="551" unicode="&#244;" /><glyph d="M514 262C514 432 412 535 276 535C140 535 37 431 37 260C37 91 139 -12 275 -12C411 -12 514 92 514 262ZM387 261C387 158 343 93 276 93C209 93 164 159 164 262C164 364 208 430 275 430C342 430 387 364 387 261ZM240 591V692H143V591ZM407 591V692H310V591Z" glyph-name="odieresis" horiz-adv-x="551" unicode="&#246;" /><glyph d="M520 307C528 382 567 432 627 432C688 432 725 383 732 307ZM387 261C387 158 343 93 276 93C209 93 164 159 164 262C164 364 208 430 275 430C342 430 387 364 387 261ZM649 -10C712 -10 778 8 835 40L801 135C754 109 700 94 654 94C579 94 533 138 522 208H855V254C855 427 768 535 632 535C556 535 494 500 455 438C415 501 351 535 274 535C139 535 37 431 37 260C37 91 138 -12 272 -12C349 -12 413 22 454 84C494 21 562 -10 649 -10Z" glyph-name="oe" horiz-adv-x="888" unicode="&#339;" /><glyph d="M330 -94C274 -83 264 -76 264 -62C264 -52 270 -40 302 6L233 11C172 -39 155 -61 155 -85C155 -124 198 -143 322 -149Z" glyph-name="ogonek" horiz-adv-x="500" unicode="&#731;" /><glyph d="M514 262C514 432 412 535 276 535C140 535 37 431 37 260C37 91 139 -12 275 -12C411 -12 514 92 514 262ZM387 261C387 158 343 93 276 93C209 93 164 159 164 262C164 364 208 430 275 430C342 430 387 364 387 261ZM252 587H336L250 702H100Z" glyph-name="ograve" horiz-adv-x="551" unicode="&#242;" /><glyph d="M275 -12C411 -12 514 92 514 262C514 358 479 431 419 476C483 491 520 533 520 596C520 619 515 641 505 662L420 638C426 625 429 613 429 599C429 553 393 528 328 528C312 528 293 530 276 530C140 530 37 428 37 260C37 91 139 -12 275 -12ZM387 261C387 158 343 93 276 93C209 93 164 159 164 261C164 363 208 427 275 427C342 427 387 362 387 261Z" glyph-name="ohorn" horiz-adv-x="551" unicode="&#417;" /><glyph d="M514 262C514 432 412 535 276 535C140 535 37 431 37 260C37 91 139 -12 275 -12C411 -12 514 92 514 262ZM387 261C387 158 343 93 276 93C209 93 164 159 164 262C164 364 208 430 275 430C342 430 387 364 387 261ZM228 587 369 702H240L148 587ZM377 587 517 702H388L297 587Z" glyph-name="ohungarumlaut" horiz-adv-x="551" unicode="&#337;" /><glyph d="M514 262C514 432 412 535 276 535C140 535 37 431 37 260C37 91 139 -12 275 -12C411 -12 514 92 514 262ZM387 261C387 158 343 93 276 93C209 93 164 159 164 262C164 364 208 430 275 430C342 430 387 364 387 261ZM409 595V660H141V595Z" glyph-name="omacron" horiz-adv-x="551" unicode="&#333;" /><glyph d="M326 0V704H231L26 623L55 514L193 562V0Z" glyph-name="one" horiz-adv-x="422" unicode="1" /><glyph d="M243 0V423H176L24 367L43 290L148 324V0Z" glyph-name="one.den" horiz-adv-x="313" /><glyph d="M243 280V703H176L24 647L43 570L148 604V280Z" glyph-name="one.num" horiz-adv-x="313" /><glyph d="M513 0V108H363V704H269L66 632L87 520L232 566V108H67V0Z" glyph-name="one.tab" horiz-adv-x="564" /><glyph d="M243 280V703H176L24 647L43 570L148 604V280ZM154 0H215L424 337L656 700H596L386 363ZM841 0V77H644L745 171C808 224 833 263 833 311C833 381 776 426 689 426C626 426 568 400 520 356L558 288C601 325 642 346 679 346C714 346 735 328 735 300C735 277 719 255 685 223L511 64L527 0Z" glyph-name="onehalf" horiz-adv-x="871" unicode="&#189;" /><glyph d="M243 280V703H176L24 647L43 570L148 604V280ZM154 0H215L424 337L656 700H596L386 363ZM776 0V82H843V152H776V422H649L463 155L467 82H685V0ZM687 151H549L687 354Z" glyph-name="onequarter" horiz-adv-x="861" unicode="&#188;" /><glyph d="M243 280V703H176L24 647L43 570L148 604V280ZM154 0H215L424 337L656 700H596L386 363ZM533 -4C759 2 852 50 852 131C852 184 812 214 726 224C808 249 846 282 846 333C846 388 797 426 706 426C644 426 585 411 534 387L556 319C601 340 649 352 689 352C728 352 748 339 748 318C748 290 712 268 597 239L606 182C721 181 752 165 752 135C752 100 702 76 533 69Z" glyph-name="onethird" horiz-adv-x="882" unicode="&#8531;" /><glyph d="M184 429C151 429 129 446 129 478C129 509 152 530 201 530C212 530 245 529 255 527V454C234 439 206 429 184 429ZM262 413 275 379H347L338 444V594C338 670 297 706 206 706C158 706 113 695 75 681L94 620C125 633 161 642 194 642C240 642 255 622 255 589V571C242 574 202 576 185 576C97 576 51 537 51 474C51 410 93 376 156 376C197 376 232 390 262 413ZM353 267V314H44V267Z" glyph-name="ordfeminine" horiz-adv-x="399" unicode="&#170;" /><glyph d="M200 707C111 707 44 641 44 539C44 438 110 373 200 373C289 373 356 439 356 540C356 642 290 707 200 707ZM200 440C154 440 123 480 123 540C123 600 154 640 200 640C245 640 277 600 277 539C277 480 245 440 200 440ZM351 267V314H49V267Z" glyph-name="ordmasculine" horiz-adv-x="400" unicode="&#186;" /><glyph d="M163 262C163 365 208 431 275 431C296 431 314 425 330 413L182 161C170 188 163 222 163 262ZM276 92C255 92 236 98 220 111L369 363C381 336 388 301 388 261C388 158 343 92 276 92ZM275 -12C411 -12 514 92 514 262C514 348 488 417 445 464L514 573H424L385 510C352 526 316 535 276 535C140 535 37 431 37 260C37 174 63 106 107 59L37 -50H127L166 13C198 -3 235 -12 275 -12Z" glyph-name="oslash" horiz-adv-x="551" unicode="&#248;" /><glyph d="M163 262C163 365 208 431 275 431C296 431 314 425 330 413L182 161C170 188 163 222 163 262ZM276 92C255 92 236 98 220 111L369 363C381 336 388 301 388 261C388 158 343 92 276 92ZM275 -12C411 -12 514 92 514 262C514 348 488 417 445 464L514 573H424L385 510C352 526 316 535 276 535C140 535 37 431 37 260C37 174 63 106 107 59L37 -50H127L166 13C198 -3 235 -12 275 -12ZM298 587 450 702H300L214 587Z" glyph-name="oslashacute" horiz-adv-x="551" unicode="&#511;" /><glyph d="M514 262C514 432 412 535 276 535C140 535 37 431 37 260C37 91 139 -12 275 -12C411 -12 514 92 514 262ZM387 261C387 158 343 93 276 93C209 93 164 159 164 262C164 364 208 430 275 430C342 430 387 364 387 261ZM174 582C191 622 203 631 219 631C233 631 245 626 276 609C312 590 328 583 350 583C386 583 414 610 441 691L385 708C367 667 356 658 340 658C326 658 314 664 283 681C247 700 231 706 209 706C172 706 144 680 117 599Z" glyph-name="otilde" horiz-adv-x="551" unicode="&#245;" /><glyph d="M285 94C252 94 219 108 192 127V391C217 411 250 429 287 429C357 429 402 370 402 262C402 150 355 94 285 94ZM192 27C230 4 269 -9 316 -9C440 -9 529 87 529 263C529 436 442 532 327 532C263 532 219 506 184 475L164 523H66V-173H192Z" glyph-name="p" horiz-adv-x="567" unicode="p" /><glyph d="M466 0V700H282C129 700 32 622 32 488C32 353 135 277 278 280V621H382V0Z" glyph-name="paragraph" horiz-adv-x="544" unicode="&#182;" /><glyph d="M365 -54C235 41 169 146 169 304C169 462 235 567 365 662L319 728C147 628 52 491 52 304C52 117 147 -20 319 -120Z" glyph-name="parenleft" horiz-adv-x="395" unicode="(" /><glyph d="M365 -9C235 86 169 191 169 349C169 507 235 612 365 707L319 773C147 673 52 536 52 349C52 162 147 25 319 -75Z" glyph-name="parenleft.cap" horiz-adv-x="395" /><glyph d="M31 -54 77 -120C249 -20 343 117 343 304C343 491 249 628 77 728L31 662C161 567 226 462 226 304C226 146 161 41 31 -54Z" glyph-name="parenright" horiz-adv-x="395" unicode=")" /><glyph d="M31 -9 77 -75C249 25 343 162 343 349C343 536 249 673 77 773L31 707C161 612 226 507 226 349C226 191 161 86 31 -9Z" glyph-name="parenright.cap" horiz-adv-x="395" /><glyph d="M588 682 531 711 330 362 108 18 165 -11 367 339ZM324 528C324 639 260 707 181 707C102 707 38 639 38 528C38 417 102 350 181 350C260 350 324 417 324 528ZM247 528C247 457 219 418 181 418C142 418 115 457 115 528C115 599 142 639 181 639C219 639 247 599 247 528ZM660 172C660 283 595 350 517 350C437 350 373 283 373 172C373 61 437 -7 517 -7C595 -7 660 61 660 172ZM583 172C583 101 555 61 517 61C478 61 450 101 450 172C450 243 478 282 517 282C555 282 583 243 583 172Z" glyph-name="percent" horiz-adv-x="698" unicode="%" /><glyph d="M169 0V144H40V0Z" glyph-name="period" horiz-adv-x="209" unicode="." /><glyph d="M206 0V144H76V0Z" glyph-name="period.tab" horiz-adv-x="282" /><glyph d="M333 122V307H511V403H333V588H231V403H53V307H231V122Z" glyph-name="plus" horiz-adv-x="564" unicode="+" /><glyph d="M333 176V340H502V437H333V605H231V437H62V340H231V176ZM502 0V94H62V0Z" glyph-name="plusminus" horiz-adv-x="564" unicode="&#177;" /><glyph d="M501 -173V523H403L386 480C350 509 306 532 247 532C126 532 38 436 38 260C38 86 124 -9 242 -9C298 -9 342 13 375 40V-173ZM281 94C210 94 165 153 165 260C165 373 212 429 283 429C316 429 348 415 375 396V132C350 112 317 94 281 94Z" glyph-name="q" horiz-adv-x="567" unicode="q" /><glyph d="M498 534C498 644 415 710 285 710C190 710 106 680 29 631L74 530C142 570 211 596 271 596C332 596 369 567 369 522C369 469 320 431 179 380L200 211H273L285 313C424 362 498 427 498 534ZM303 0V130H170V0Z" glyph-name="question" horiz-adv-x="531" unicode="?" /><glyph d="M33 166C33 56 116 -10 246 -10C341 -10 425 20 502 69L457 170C389 130 320 104 260 104C199 104 162 133 162 178C162 231 211 269 352 320L331 489H258L246 387C107 338 33 273 33 166ZM228 700V570H361V700Z" glyph-name="questiondown" horiz-adv-x="531" unicode="&#191;" /><glyph d="M426 698V700H292L230 426L283 410ZM233 698V700H99L37 426L90 410Z" glyph-name="quotedbl" horiz-adv-x="449" unicode="&quot;" /><glyph d="M514 698V700H374L292 429L345 410ZM286 698V700H146L65 429L117 410Z" glyph-name="quotedbl.tab" horiz-adv-x="564" /><glyph d="M353 144H237C237 18 222 -41 176 -115L216 -146C309 -61 353 26 353 135ZM164 144H48C48 18 32 -41 -13 -115L27 -146C120 -61 164 26 164 135Z" glyph-name="quotedblbase" horiz-adv-x="390" unicode="&#8222;" /><glyph d="M27 440H143C143 566 158 625 204 699L164 730C71 645 27 558 27 449ZM216 440H332C332 566 347 625 393 699L353 730C260 645 216 558 216 449Z" glyph-name="quotedblleft" horiz-adv-x="408" unicode="&#8220;" /><glyph d="M382 724H265C265 598 250 539 204 465L244 434C337 519 382 606 382 715ZM192 724H76C76 598 61 539 15 465L55 434C148 519 192 606 192 715Z" glyph-name="quotedblright" horiz-adv-x="408" unicode="&#8221;" /><glyph d="M27 440H150C150 568 166 625 212 699L170 730C74 646 27 558 27 448Z" glyph-name="quoteleft" horiz-adv-x="227" unicode="&#8216;" /><glyph d="M200 724H76C76 597 61 539 15 465L56 434C153 518 200 606 200 716Z" glyph-name="quoteright" horiz-adv-x="227" unicode="&#8217;" /><glyph d="M172 144H48C48 17 32 -41 -13 -114L28 -146C124 -62 172 27 172 136Z" glyph-name="quotesinglbase" horiz-adv-x="209" unicode="&#8218;" /><glyph d="M241 698V700H99L37 426L90 410Z" glyph-name="quotesingle" horiz-adv-x="264" unicode="'" /><glyph d="M250 698V700H111L47 426L99 410Z" glyph-name="quotesingle.tab" horiz-adv-x="282" /><glyph d="M192 0V338C240 376 296 399 364 400V530C285 531 230 495 185 436L162 523H66V0Z" glyph-name="r" horiz-adv-x="390" unicode="r" /><glyph d="M192 0V338C240 376 296 399 364 400V530C285 531 230 495 185 436L162 523H66V0ZM233 584 385 699H235L149 584Z" glyph-name="racute" horiz-adv-x="390" unicode="&#341;" /><glyph d="M192 0V338C240 376 296 399 364 400V530C285 531 230 495 185 436L162 523H66V0ZM211 645 146 703H68L164 584H256L352 703H275Z" glyph-name="rcaron" horiz-adv-x="390" unicode="&#345;" /><glyph d="M192 709C103 709 34 638 34 541C34 443 103 372 192 372C282 372 350 443 350 541C350 638 282 709 192 709ZM192 390C113 390 54 454 54 541C54 628 113 691 192 691C272 691 331 628 331 541C331 454 272 390 192 390ZM166 548V599H193C216 599 225 590 225 576C225 558 210 548 186 548ZM166 516H173C187 516 192 513 201 502L233 457H284L248 505C238 518 232 524 222 528C245 535 269 549 269 581C269 612 245 633 195 633H123V457H166Z" glyph-name="registered" horiz-adv-x="385" unicode="&#174;" /><glyph d="M146 677C146 621 190 578 250 578C310 578 354 621 354 677C354 733 310 776 250 776C190 776 146 733 146 677ZM187 677C187 714 214 741 250 741C286 741 313 714 313 677C313 641 286 614 250 614C214 614 187 641 187 677Z" glyph-name="ring" horiz-adv-x="500" unicode="&#730;" /><glyph d="M-110 840C-110 783 -64 739 0 739C64 739 110 783 110 840C110 897 64 940 0 940C-64 940 -110 897 -110 840ZM-68 840C-68 877 -41 904 0 904C41 904 68 877 68 840C68 802 41 775 0 775C-41 775 -68 802 -68 840Z" glyph-name="ring.cap" horiz-adv-x="0" /><glyph d="M155 879H12L-60 794H27ZM-104 673C-104 619 -60 578 0 578C60 578 104 619 104 673C104 726 60 767 0 767C-60 767 -104 726 -104 673ZM-63 673C-63 707 -36 732 0 732C36 732 63 707 63 673C63 638 36 614 0 614C-36 614 -63 638 -63 673Z" glyph-name="ringacute" horiz-adv-x="0" /><glyph d="M451 151C451 237 408 278 274 316C194 341 173 354 173 382C173 409 197 428 242 428C294 428 349 411 399 387L431 490C376 517 313 532 245 532C122 532 51 469 51 375C51 282 109 245 226 213C311 188 329 173 329 145C329 115 301 95 249 95C185 95 117 116 60 147L27 42C89 10 169 -10 248 -10C372 -10 451 45 451 151Z" glyph-name="s" horiz-adv-x="486" unicode="s" /><glyph d="M451 151C451 237 408 278 274 316C194 341 173 354 173 382C173 409 197 428 242 428C294 428 349 411 399 387L431 490C376 517 313 532 245 532C122 532 51 469 51 375C51 282 109 245 226 213C311 188 329 173 329 145C329 115 301 95 249 95C185 95 117 116 60 147L27 42C89 10 169 -10 248 -10C372 -10 451 45 451 151ZM274 587 426 702H276L190 587Z" glyph-name="sacute" horiz-adv-x="486" unicode="&#347;" /><glyph d="M451 151C451 237 408 278 274 316C194 341 173 354 173 382C173 409 197 428 242 428C294 428 349 411 399 387L431 490C376 517 313 532 245 532C122 532 51 469 51 375C51 282 109 245 226 213C311 188 329 173 329 145C329 115 301 95 249 95C185 95 117 116 60 147L27 42C89 10 169 -10 248 -10C372 -10 451 45 451 151ZM252 648 187 706H109L205 587H297L393 706H316Z" glyph-name="scaron" horiz-adv-x="486" unicode="&#353;" /><glyph d="M451 151C451 237 408 278 274 316C194 341 173 354 173 382C173 409 197 428 242 428C294 428 349 411 399 387L431 490C376 517 313 532 245 532C122 532 51 469 51 375C51 282 109 245 226 213C311 188 329 173 329 145C329 115 301 95 249 95C185 95 117 116 60 147L27 42C89 10 169 -10 248 -10C372 -10 451 45 451 151ZM250 645 315 587H393L297 706H205L109 587H186Z" glyph-name="scircumflex" horiz-adv-x="486" unicode="&#349;" /><glyph d="M275 283C167 321 151 338 151 367C151 394 176 418 226 443C246 435 269 426 295 417C404 379 420 362 420 334C420 306 395 283 344 257C324 265 301 274 275 283ZM283 -8C400 -8 465 51 465 124C465 160 454 186 426 210C493 247 532 287 532 349C532 415 493 453 342 506C236 544 221 556 221 579C221 600 242 617 289 617C334 617 398 601 453 580L478 672C422 693 359 708 287 708C171 708 105 649 105 576C105 540 116 514 145 490C77 453 39 413 39 352C39 286 77 247 229 195C334 157 350 144 350 122C350 101 328 83 282 83C237 83 173 99 118 120L93 29C149 7 212 -8 283 -8Z" glyph-name="section" horiz-adv-x="571" unicode="&#167;" /><glyph d="M177 378V523H47V378ZM177 144H51C51 17 36 -41 -8 -114L33 -146C129 -62 177 27 177 136Z" glyph-name="semicolon" horiz-adv-x="219" unicode=";" /><glyph d="M205 -12 503 575V700H41V584H367L78 27Z" glyph-name="seven" horiz-adv-x="539" unicode="7" /><glyph d="M149 -7 348 335V420H33V340H249L61 25Z" glyph-name="seven.den" horiz-adv-x="375" /><glyph d="M149 273 348 615V700H33V620H249L61 305Z" glyph-name="seven.num" horiz-adv-x="375" /><glyph d="M220 -12 521 575V700H47V584H386L93 28Z" glyph-name="seven.tab" horiz-adv-x="564" /><glyph d="M290 -11C434 -11 530 85 530 233C530 372 449 450 332 450C282 450 236 438 190 417C222 494 294 558 434 617L378 718C150 627 44 482 44 279C44 93 139 -11 290 -11ZM293 99C219 99 175 161 175 262C175 282 176 299 177 316C212 330 250 339 285 339C355 339 399 301 399 222C399 147 356 99 293 99Z" glyph-name="six" horiz-adv-x="568" unicode="6" /><glyph d="M207 -7C309 -7 375 52 375 137C375 214 319 263 237 263C199 263 162 255 131 239C148 287 194 323 305 361L272 431C110 379 33 290 33 168C33 59 99 -7 207 -7ZM208 64C156 64 123 98 123 159C123 168 124 177 125 185C150 194 178 200 203 200C255 200 286 175 286 133C286 91 254 64 208 64Z" glyph-name="six.den" horiz-adv-x="404" /><glyph d="M207 273C309 273 375 332 375 417C375 494 319 543 237 543C199 543 162 535 131 519C148 567 194 603 305 641L272 711C110 659 33 570 33 448C33 339 99 273 207 273ZM208 344C156 344 123 378 123 439C123 448 124 457 125 465C150 474 178 480 203 480C255 480 286 455 286 413C286 371 254 344 208 344Z" glyph-name="six.num" horiz-adv-x="404" /><glyph d="M289 -11C430 -11 526 85 526 232C526 370 445 450 330 450C281 450 235 438 191 418C224 495 292 559 430 618L374 718C149 627 45 481 45 279C45 93 139 -11 289 -11ZM291 99C219 99 175 160 175 262C175 280 176 298 177 316C212 330 248 339 284 339C353 339 395 302 395 222C395 145 352 99 291 99Z" glyph-name="six.tab" horiz-adv-x="564" /><glyph d="M393 795H300L-18 -130H75Z" glyph-name="slash" horiz-adv-x="387" unicode="/" /><glyph d="M398 811H305L-13 -114H80Z" glyph-name="slash.cap" horiz-adv-x="387" /><glyph d="M566 812H466L-3 -113H97Z" glyph-name="slash.tab" horiz-adv-x="564" /><glyph glyph-name="space" horiz-adv-x="178" unicode=" " /><glyph glyph-name="space.cap" horiz-adv-x="197" /><glyph d="M521 111H192C221 145 239 180 248 244L256 295H451V397H271L282 468C287 507 300 537 321 559C342 580 371 591 409 591C443 591 479 583 508 573L531 687C497 699 449 709 400 709C326 709 270 687 229 646C192 609 170 558 159 491L145 397H48V295H130L125 260C111 172 85 127 44 87L65 0H521Z" glyph-name="sterling" horiz-adv-x="572" unicode="&#163;" /><glyph d="M517 111H190C220 144 240 181 248 244L256 295H447V397H272L283 468C289 511 301 539 322 560C342 580 370 591 407 591C440 591 475 583 503 572L527 686C490 700 444 709 396 709C324 709 269 688 228 647C192 610 171 559 160 491L146 397H49V295H131L126 260C113 178 86 128 45 87L67 0H517Z" glyph-name="sterling.tab" horiz-adv-x="564" /><glyph d="M266 -8C306 -8 340 -2 368 6V111C345 103 323 99 300 99C252 99 223 123 223 177V418H367V523H223V667H98V523H22V418H98V157C98 40 157 -8 266 -8Z" glyph-name="t" horiz-adv-x="403" unicode="t" /><glyph d="M368 6V107C345 100 323 96 300 96C252 96 223 120 223 174V233H331V306H223V421H367V523H223V667H98V523H22V421H98V306H35V233H98V157C98 40 157 -8 266 -8C306 -8 340 -2 368 6Z" glyph-name="tbar" horiz-adv-x="403" unicode="&#359;" /><glyph d="M266 -8C306 -8 340 -2 368 6V111C345 103 323 99 300 99C252 99 223 123 223 177V418H367V523H223V667H98V523H22V418H98V157C98 40 157 -8 266 -8ZM367 736H286V701C286 656 281 622 268 586L305 567C345 608 367 647 367 709Z" glyph-name="tcaron" horiz-adv-x="403" unicode="&#357;" /><glyph d="M285 94C252 94 219 108 192 127V391C217 411 250 429 287 429C357 429 402 370 402 262C402 150 355 94 285 94ZM192 27C230 4 269 -9 316 -9C440 -9 529 87 529 263C529 436 443 532 325 532C269 532 226 510 192 483V724H66V-173H192Z" glyph-name="thorn" horiz-adv-x="567" unicode="&#254;" /><glyph d="M43 -7C328 2 506 67 506 217C506 305 449 358 336 377C442 421 499 475 499 557C499 650 424 709 294 709C199 709 119 686 42 649L77 543C145 576 218 596 272 596C332 596 363 573 363 538C363 490 302 451 135 402L150 304C318 302 369 274 369 222C369 160 286 117 43 106Z" glyph-name="three" horiz-adv-x="548" unicode="3" /><glyph d="M34 -4C260 2 353 50 353 131C353 184 313 214 227 224C309 249 347 282 347 333C347 388 298 426 207 426C145 426 86 411 35 387L57 319C102 340 150 352 190 352C229 352 249 339 249 318C249 290 213 268 98 239L107 182C222 181 253 165 253 135C253 100 203 76 34 69Z" glyph-name="three.den" horiz-adv-x="384" /><glyph d="M34 276C260 282 353 330 353 411C353 464 313 494 227 504C309 529 347 562 347 613C347 668 298 706 207 706C145 706 86 691 35 667L57 599C102 620 150 632 190 632C229 632 249 619 249 598C249 570 213 548 98 519L107 462C222 461 253 445 253 415C253 380 203 356 34 349Z" glyph-name="three.num" horiz-adv-x="384" /><glyph d="M43 648 77 543C147 576 222 596 278 596C339 596 371 573 371 538C371 490 309 451 138 402L152 304C325 302 378 274 378 222C378 160 292 117 43 106V-7C334 2 514 67 514 217C514 305 455 358 339 377C449 421 507 475 507 557C507 650 431 709 299 709C202 709 121 686 43 648Z" glyph-name="three.tab" horiz-adv-x="564" /><glyph d="M34 276C260 282 353 330 353 411C353 464 313 494 227 504C309 529 347 562 347 613C347 668 298 706 207 706C145 706 86 691 35 667L57 599C102 620 150 632 190 632C229 632 249 619 249 598C249 570 213 548 98 519L107 462C222 461 253 445 253 415C253 380 203 356 34 349ZM202 0H263L472 337L704 700H644L434 363ZM824 0V82H891V152H824V422H697L511 155L515 82H733V0ZM735 151H597L735 354Z" glyph-name="threequarters" horiz-adv-x="910" unicode="&#190;" /><glyph d="M149 579C166 619 178 628 194 628C208 628 220 623 251 606C287 587 303 580 325 580C361 580 389 607 416 688L360 705C342 664 331 655 315 655C301 655 289 661 258 678C222 697 206 703 184 703C147 703 119 677 92 596Z" glyph-name="tilde" horiz-adv-x="500" unicode="&#732;" /><glyph d="M-105 740C-88 780 -75 788 -59 788C-44 788 -30 783 1 766C39 747 56 741 78 741C116 741 147 766 174 845L113 863C96 823 84 815 67 815C52 815 39 820 7 837C-30 856 -47 862 -70 862C-108 862 -138 837 -165 758Z" glyph-name="tilde.cap" horiz-adv-x="0" /><glyph d="M146 469V655H220V700H21V655H95V469ZM361 469H409L466 630L474 469H523L511 700H442L386 539L330 700H261L249 469H297L304 630Z" glyph-name="trademark" horiz-adv-x="559" unicode="&#8482;" /><glyph d="M52 700V690L376 -12H394L718 690V700Z" glyph-name="triagdn" horiz-adv-x="771" unicode="&#9660;" /><glyph d="M59 700 271 -13H294L505 700Z" glyph-name="triagdn.tab" horiz-adv-x="564" /><glyph d="M718 0V10L394 712H376L52 10V0Z" glyph-name="triagup" horiz-adv-x="771" unicode="&#9650;" /><glyph d="M505 0 294 713H271L59 0Z" glyph-name="triagup.tab" horiz-adv-x="564" /><glyph d="M514 0V115H215L373 285C464 373 502 434 502 520C502 631 426 710 291 710C184 710 102 662 41 605L98 501C162 557 217 589 275 589C332 589 365 553 365 504C365 461 341 424 289 368L30 95L52 0Z" glyph-name="two" horiz-adv-x="554" unicode="2" /><glyph d="M355 0V77H158L259 171C322 224 347 263 347 311C347 381 290 426 203 426C140 426 82 400 34 356L72 288C115 325 156 346 193 346C228 346 249 328 249 300C249 277 233 255 199 223L25 64L41 0Z" glyph-name="two.den" horiz-adv-x="385" /><glyph d="M355 280V357H158L259 451C322 504 347 543 347 591C347 661 290 706 203 706C140 706 82 680 34 636L72 568C115 605 156 626 193 626C228 626 249 608 249 580C249 557 233 535 199 503L25 344L41 280Z" glyph-name="two.num" horiz-adv-x="385" /><glyph d="M48 604 105 500C168 557 223 589 280 589C337 589 370 554 370 504C370 462 346 425 295 369L38 95L60 0H519V115H223L380 285C468 372 507 435 507 519C507 632 430 710 295 710C189 710 109 662 48 604Z" glyph-name="two.tab" horiz-adv-x="564" /><glyph d="M355 280V357H158L259 451C322 504 347 543 347 591C347 661 290 706 203 706C140 706 82 680 34 636L72 568C115 605 156 626 193 626C228 626 249 608 249 580C249 557 233 535 199 503L25 344L41 280ZM249 0H310L519 337L751 700H691L481 363ZM628 -4C854 2 947 50 947 131C947 184 907 214 821 224C903 249 941 282 941 333C941 388 892 426 801 426C739 426 680 411 629 387L651 319C696 340 744 352 784 352C823 352 843 339 843 318C843 290 807 268 692 239L701 182C816 181 847 165 847 135C847 100 797 76 628 69Z" glyph-name="twothirds" horiz-adv-x="978" unicode="&#8532;" /><glyph d="M386 52 407 0H505V523H379V143C348 121 307 102 270 102C216 102 189 134 189 192V523H62V162C62 50 118 -9 221 -9C289 -9 340 18 386 52Z" glyph-name="u" horiz-adv-x="571" unicode="u" /><glyph d="M386 52 407 0H505V523H379V143C348 121 307 102 270 102C216 102 189 134 189 192V523H62V162C62 50 118 -9 221 -9C289 -9 340 18 386 52ZM307 580 459 695H309L223 580Z" glyph-name="uacute" horiz-adv-x="571" unicode="&#250;" /><glyph d="M386 52 407 0H505V523H379V143C348 121 307 102 270 102C216 102 189 134 189 192V523H62V162C62 50 118 -9 221 -9C289 -9 340 18 386 52ZM285 647C243 647 221 669 214 702H151C155 630 201 576 283 576C366 576 413 630 417 702H354C347 669 326 647 285 647Z" glyph-name="ubreve" horiz-adv-x="571" unicode="&#365;" /><glyph d="M386 52 407 0H505V523H379V143C348 121 307 102 270 102C216 102 189 134 189 192V523H62V162C62 50 118 -9 221 -9C289 -9 340 18 386 52ZM283 642 348 584H426L330 703H238L142 584H219Z" glyph-name="ucircumflex" horiz-adv-x="571" unicode="&#251;" /><glyph d="M386 52 407 0H505V523H379V143C348 121 307 102 270 102C216 102 189 134 189 192V523H62V162C62 50 118 -9 221 -9C289 -9 340 18 386 52ZM249 588V689H152V588ZM416 588V689H319V588Z" glyph-name="udieresis" horiz-adv-x="571" unicode="&#252;" /><glyph d="M386 52 407 0H505V523H379V143C348 121 307 102 270 102C216 102 189 134 189 192V523H62V162C62 50 118 -9 221 -9C289 -9 340 18 386 52ZM261 580H345L259 695H109Z" glyph-name="ugrave" horiz-adv-x="571" unicode="&#249;" /><glyph d="M386 52 407 0H505V473C569 495 604 538 604 596C604 619 599 641 589 662L504 638C510 625 512 613 512 599C512 550 472 523 393 523H379V144C348 122 307 103 270 103C216 103 189 134 189 192V523H62V163C62 51 118 -8 221 -8C289 -8 340 19 386 52Z" glyph-name="uhorn" horiz-adv-x="594" unicode="&#432;" /><glyph d="M386 52 407 0H505V523H379V143C348 121 307 102 270 102C216 102 189 134 189 192V523H62V162C62 50 118 -9 221 -9C289 -9 340 18 386 52ZM237 584 378 699H249L157 584ZM386 584 526 699H397L306 584Z" glyph-name="uhungarumlaut" horiz-adv-x="571" unicode="&#369;" /><glyph d="M386 52 407 0H505V523H379V143C348 121 307 102 270 102C216 102 189 134 189 192V523H62V162C62 50 118 -9 221 -9C289 -9 340 18 386 52ZM418 592V657H150V592Z" glyph-name="umacron" horiz-adv-x="571" unicode="&#363;" /><glyph d="M492 -101V-49H-2V-101Z" glyph-name="underscore" horiz-adv-x="490" unicode="_" /><glyph glyph-name="uni0000" horiz-adv-x="0" /><glyph d="M-133 887 -120 826C-83 835 -45 839 -8 839C33 839 45 834 45 824C45 814 31 806 -36 787L-21 738C90 767 129 793 129 835C129 875 88 901 -1 901C-48 901 -90 896 -133 887Z" glyph-name="uni00200309.cap" horiz-adv-x="0" /><glyph glyph-name="uni00A0" horiz-adv-x="178" unicode="&#160;" /><glyph d="M-27 719H57L-16 818H-164ZM-35 588V687H-132V588ZM132 588V687H35V588Z" glyph-name="uni00A80300" horiz-adv-x="0" /><glyph d="M63 874 -19 962H-178L-39 874ZM-36 745V842H-138V745ZM138 745V842H36V745Z" glyph-name="uni00A80300.cap" horiz-adv-x="0" /><glyph d="M27 719 164 818H16L-57 719ZM-35 588V687H-132V588ZM132 588V687H35V588Z" glyph-name="uni00A80301" horiz-adv-x="0" /><glyph d="M39 874 178 962H19L-63 874ZM-36 745V842H-138V745ZM138 745V842H36V745Z" glyph-name="uni00A80301.cap" horiz-adv-x="0" /><glyph d="M136 724V787H-136V724ZM-35 588V687H-132V588ZM132 588V687H35V588Z" glyph-name="uni00A80304" horiz-adv-x="0" /><glyph d="M145 878V945H-145V878ZM-36 745V842H-138V745ZM138 745V842H36V745Z" glyph-name="uni00A80304.cap" horiz-adv-x="0" /><glyph d="M46 719 144 822H67L1 778L-66 822H-144L-46 719ZM-35 588V687H-132V588ZM132 588V687H35V588Z" glyph-name="uni00A8030C" horiz-adv-x="0" /><glyph d="M56 874 152 967H66L1 929L-64 967H-152L-56 874ZM-36 745V842H-138V745ZM138 745V842H36V745Z" glyph-name="uni00A8030C.cap" horiz-adv-x="0" /><glyph d="M370 416V493H173L274 587C337 640 362 679 362 727C362 797 305 842 218 842C155 842 97 816 49 772L87 704C130 741 171 762 208 762C243 762 264 744 264 716C264 693 248 671 214 639L40 480L56 416Z" glyph-name="uni00B2" horiz-adv-x="415" unicode="&#178;" /><glyph d="M49 412C275 418 368 466 368 547C368 600 328 630 242 640C324 665 362 698 362 749C362 804 313 842 222 842C160 842 101 827 50 803L72 735C117 756 165 768 205 768C244 768 264 755 264 734C264 706 228 684 113 655L122 598C237 597 268 581 268 551C268 516 218 492 49 485Z" glyph-name="uni00B3" horiz-adv-x="414" unicode="&#179;" /><glyph d="M188 -44 181 33C202 6 233 -8 271 -8C320 -8 361 14 403 53L424 0H509V523H382V144C352 122 311 104 274 104C220 104 192 135 192 193V523H66V-173H188Z" glyph-name="uni00B5" horiz-adv-x="575" unicode="&#181;" /><glyph d="M182 232V376H53V232Z" glyph-name="uni00B7" horiz-adv-x="235" unicode="&#183;" /><glyph d="M182 287V432H53V287Z" glyph-name="uni00B7.cap" horiz-adv-x="235" /><glyph d="M206 284V428H76V284Z" glyph-name="uni00B7.tab" horiz-adv-x="282" /><glyph d="M258 416V839H191L39 783L58 706L163 740V416Z" glyph-name="uni00B9" horiz-adv-x="343" unicode="&#185;" /><glyph d="M624 52V399H345V280H491V129C464 117 424 107 384 107C256 107 181 192 181 348C181 494 257 588 387 588C459 588 516 568 568 544L606 661C542 691 470 710 387 710C189 710 44 581 44 349C44 119 170 -9 378 -9C471 -9 559 18 624 52ZM304 -67C321 -87 329 -101 329 -119C329 -142 318 -158 296 -178L337 -210C394 -183 427 -147 427 -105C427 -82 420 -64 404 -43Z" glyph-name="uni0122" horiz-adv-x="690" unicode="&#290;" /><glyph d="M165 271C165 375 212 429 283 429C315 429 348 415 375 396V149C350 132 317 117 282 117C211 117 165 170 165 271ZM501 523H403L386 480C350 509 306 532 247 532C125 532 38 435 38 269C38 101 124 13 246 13C301 13 344 32 376 53V31C376 -40 336 -74 254 -74C198 -74 146 -62 99 -41L65 -141C120 -164 188 -178 260 -178C405 -178 501 -117 501 44ZM352 605C335 625 327 639 327 657C327 680 338 696 360 716L319 748C262 721 229 685 229 643C229 620 236 602 252 581Z" glyph-name="uni0123" horiz-adv-x="567" unicode="&#291;" /><glyph d="M482 0H647L352 361L639 700H476L221 391H211V700H77V0H211V327H220ZM270 -56C287 -76 295 -90 295 -108C295 -131 284 -147 262 -167L303 -199C360 -172 393 -136 393 -94C393 -71 386 -53 370 -32Z" glyph-name="uni0136" horiz-adv-x="654" unicode="&#310;" /><glyph d="M378 0H528L320 273L522 523H374L195 291H192V724H66V0H192V253H194ZM214 -56C231 -76 239 -90 239 -108C239 -131 228 -147 206 -167L247 -199C304 -172 337 -136 337 -94C337 -71 330 -53 314 -32Z" glyph-name="uni0137" horiz-adv-x="535" unicode="&#311;" /><glyph d="M523 0V121H211V700H77V0ZM233 -60C250 -80 258 -94 258 -112C258 -135 247 -151 225 -171L266 -203C323 -176 356 -140 356 -98C356 -75 349 -57 333 -36Z" glyph-name="uni013B" horiz-adv-x="550" unicode="&#315;" /><glyph d="M194 0V724H67V0ZM67 -60C84 -80 92 -94 92 -112C92 -135 81 -151 59 -171L100 -203C157 -176 190 -140 190 -98C190 -75 183 -57 167 -36Z" glyph-name="uni013C" horiz-adv-x="261" unicode="&#316;" /><glyph d="M205 492 493 0H639V700H511V216L227 700H77V0H205ZM291 -56C308 -76 316 -90 316 -108C316 -131 305 -147 283 -167L324 -199C381 -172 414 -136 414 -94C414 -71 407 -53 391 -32Z" glyph-name="uni0145" horiz-adv-x="716" unicode="&#325;" /><glyph d="M192 380C223 402 264 420 301 420C355 420 382 389 382 331V0H509V360C509 473 453 532 350 532C282 532 231 505 185 471L164 523H66V0H192ZM224 -56C241 -76 249 -90 249 -108C249 -131 238 -147 216 -167L257 -199C314 -172 347 -136 347 -94C347 -71 340 -53 324 -32Z" glyph-name="uni0146" horiz-adv-x="571" unicode="&#326;" /><glyph d="M211 357V583H325C422 583 466 546 466 478C466 401 403 357 304 357ZM211 241H261C320 241 353 221 389 169L502 0H661L525 192C490 246 466 269 423 286C512 311 603 368 603 496C603 627 515 700 333 700H77V0H211ZM276 -56C293 -76 301 -90 301 -108C301 -131 290 -147 268 -167L309 -199C366 -172 399 -136 399 -94C399 -71 392 -53 376 -32Z" glyph-name="uni0156" horiz-adv-x="668" unicode="&#342;" /><glyph d="M192 0V338C240 376 296 399 364 400V530C285 531 230 495 185 436L162 523H66V0ZM66 -60C83 -80 91 -94 91 -112C91 -135 80 -151 58 -171L99 -203C156 -176 189 -140 189 -98C189 -75 182 -57 166 -36Z" glyph-name="uni0157" horiz-adv-x="390" unicode="&#343;" /><glyph d="M203 -162C352 -159 405 -129 405 -85C405 -53 375 -33 312 -35L340 -8C484 3 568 78 568 204C568 319 503 372 335 419C223 453 195 478 195 519C195 561 233 591 299 591C371 591 443 571 501 545L536 661C472 689 396 709 308 709C154 709 61 631 61 508C61 398 126 347 292 302C405 265 433 238 433 191C433 142 388 108 307 108C220 108 134 135 67 168L31 53C98 20 176 -3 261 -9L220 -55L239 -79C278 -71 299 -77 299 -91C299 -106 277 -116 198 -122Z" glyph-name="uni015E" horiz-adv-x="607" unicode="&#350;" /><glyph d="M140 -162C289 -159 342 -129 342 -85C342 -53 312 -33 249 -35L276 -9C384 -1 451 53 451 151C451 237 408 278 274 316C194 341 173 354 173 382C173 409 197 428 242 428C294 428 349 411 399 387L431 490C376 517 313 532 245 532C122 532 51 469 51 375C51 282 109 245 226 213C311 188 329 173 329 145C329 115 301 95 249 95C185 95 117 116 60 147L27 42C76 17 136 -1 199 -7L157 -55L176 -79C215 -71 236 -77 236 -91C236 -106 214 -116 135 -122Z" glyph-name="uni015F" horiz-adv-x="486" unicode="&#351;" /><glyph d="M416 -85C416 -53 386 -33 323 -35L360 0H381V580H602V700H25V580H246V0H279L231 -55L250 -79C289 -71 310 -77 310 -91C310 -106 288 -116 209 -122L214 -162C363 -159 416 -129 416 -85Z" glyph-name="uni0162" horiz-adv-x="627" unicode="&#354;" /><glyph d="M143 -162C292 -159 345 -129 345 -85C345 -53 315 -33 252 -35L281 -8C314 -6 343 -1 368 6V111C345 103 323 99 300 99C252 99 223 123 223 177V418H367V523H223V667H98V523H22V418H98V157C98 63 136 14 206 -2L160 -55L179 -79C218 -71 239 -77 239 -91C239 -106 217 -116 138 -122Z" glyph-name="uni0163" horiz-adv-x="403" unicode="&#355;" /><glyph d="M336 -12C516 -12 638 130 638 355C638 588 510 712 322 712C231 712 158 689 92 650L134 546C187 578 244 596 309 596C410 596 480 537 497 412H43V349C43 124 162 -12 336 -12ZM338 104C252 104 195 170 183 298H499C486 172 425 104 338 104Z" glyph-name="uni018F" horiz-adv-x="682" unicode="&#399;" /><glyph d="M457 255H245L351 576ZM541 0H683L431 706H273L22 0H161L207 138H496ZM353 808 289 855H201L296 751H408L503 855H416Z" glyph-name="uni01CD" horiz-adv-x="704" unicode="&#461;" /><glyph d="M238 94C185 94 156 119 156 163C156 181 162 198 173 208C188 224 210 234 277 234C302 234 328 232 351 229V135C316 109 276 94 238 94ZM360 53 380 0H489L476 104V350C476 478 410 532 271 532C196 532 129 515 71 491L99 392C148 413 200 426 253 426C321 426 351 399 351 347V322C325 327 292 330 259 330C160 330 110 311 77 277C50 251 35 211 35 158C35 48 100 -9 195 -9C260 -9 310 13 360 53ZM271 648 206 706H128L224 587H316L412 706H335Z" glyph-name="uni01CE" horiz-adv-x="539" unicode="&#462;" /><glyph d="M214 0V700H80V0ZM148 802 84 849H-4L91 745H203L298 849H211Z" glyph-name="uni01CF" horiz-adv-x="294" unicode="&#463;" /><glyph d="M194 0V523H67V0ZM131 645 66 703H-12L84 584H176L272 703H195Z" glyph-name="uni01D0" horiz-adv-x="261" unicode="&#464;" /><glyph d="M673 351C673 572 545 712 359 712C172 712 44 571 44 349C44 128 172 -12 358 -12C544 -12 673 129 673 351ZM536 349C536 197 465 104 359 104C253 104 181 198 181 351C181 503 252 596 358 596C464 596 536 502 536 349ZM359 809 295 856H207L302 752H414L509 856H422Z" glyph-name="uni01D1" horiz-adv-x="717" unicode="&#465;" /><glyph d="M514 262C514 432 412 535 276 535C140 535 37 431 37 260C37 91 139 -12 275 -12C411 -12 514 92 514 262ZM387 261C387 158 343 93 276 93C209 93 164 159 164 262C164 364 208 430 275 430C342 430 387 364 387 261ZM276 648 211 706H133L229 587H321L417 706H340Z" glyph-name="uni01D2" horiz-adv-x="551" unicode="&#466;" /><glyph d="M626 274V700H493V268C493 157 433 104 348 104C264 104 203 157 203 269V700H68V274C68 79 181 -11 346 -11C512 -11 626 79 626 274ZM348 798 284 845H196L291 741H403L498 845H411Z" glyph-name="uni01D3" horiz-adv-x="694" unicode="&#467;" /><glyph d="M386 52 407 0H505V523H379V143C348 121 307 102 270 102C216 102 189 134 189 192V523H62V162C62 50 118 -9 221 -9C289 -9 340 18 386 52ZM285 641 220 699H142L238 580H330L426 699H349Z" glyph-name="uni01D4" horiz-adv-x="571" unicode="&#468;" /><glyph d="M626 274V700H493V268C493 157 433 104 348 104C264 104 203 157 203 269V700H68V274C68 79 181 -11 346 -11C512 -11 626 79 626 274ZM492 878V945H202V878ZM311 745V842H209V745ZM485 745V842H383V745Z" glyph-name="uni01D5" horiz-adv-x="694" unicode="&#469;" /><glyph d="M386 52 407 0H505V523H379V143C348 121 307 102 270 102C216 102 189 134 189 192V523H62V162C62 50 118 -9 221 -9C289 -9 340 18 386 52ZM420 724V787H148V724ZM249 588V687H152V588ZM416 588V687H319V588Z" glyph-name="uni01D6" horiz-adv-x="571" unicode="&#470;" /><glyph d="M626 274V700H493V268C493 157 433 104 348 104C264 104 203 157 203 269V700H68V274C68 79 181 -11 346 -11C512 -11 626 79 626 274ZM386 874 525 962H366L284 874ZM311 745V842H209V745ZM485 745V842H383V745Z" glyph-name="uni01D7" horiz-adv-x="694" unicode="&#471;" /><glyph d="M386 52 407 0H505V523H379V143C348 121 307 102 270 102C216 102 189 134 189 192V523H62V162C62 50 118 -9 221 -9C289 -9 340 18 386 52ZM311 719 448 818H300L227 719ZM249 588V687H152V588ZM416 588V687H319V588Z" glyph-name="uni01D8" horiz-adv-x="571" unicode="&#472;" /><glyph d="M626 274V700H493V268C493 157 433 104 348 104C264 104 203 157 203 269V700H68V274C68 79 181 -11 346 -11C512 -11 626 79 626 274ZM403 874 499 967H413L348 929L283 967H195L291 874ZM311 745V842H209V745ZM485 745V842H383V745Z" glyph-name="uni01D9" horiz-adv-x="694" unicode="&#473;" /><glyph d="M386 52 407 0H505V523H379V143C348 121 307 102 270 102C216 102 189 134 189 192V523H62V162C62 50 118 -9 221 -9C289 -9 340 18 386 52ZM330 719 428 822H351L285 778L218 822H140L238 719ZM249 588V687H152V588ZM416 588V687H319V588Z" glyph-name="uni01DA" horiz-adv-x="571" unicode="&#474;" /><glyph d="M626 274V700H493V268C493 157 433 104 348 104C264 104 203 157 203 269V700H68V274C68 79 181 -11 346 -11C512 -11 626 79 626 274ZM410 874 328 962H169L308 874ZM311 745V842H209V745ZM485 745V842H383V745Z" glyph-name="uni01DB" horiz-adv-x="694" unicode="&#475;" /><glyph d="M386 52 407 0H505V523H379V143C348 121 307 102 270 102C216 102 189 134 189 192V523H62V162C62 50 118 -9 221 -9C289 -9 340 18 386 52ZM257 719H341L268 818H120ZM249 588V687H152V588ZM416 588V687H319V588Z" glyph-name="uni01DC" horiz-adv-x="571" unicode="&#476;" /><glyph d="M443 -149 451 -94C395 -83 385 -76 385 -62C385 -53 390 -43 414 -8C569 18 673 152 673 351C673 572 545 712 359 712C172 712 44 571 44 349C44 140 158 3 328 -11C288 -46 276 -65 276 -85C276 -124 319 -143 443 -149ZM536 349C536 197 465 104 359 104C253 104 181 198 181 351C181 503 252 596 358 596C464 596 536 502 536 349Z" glyph-name="uni01EA" horiz-adv-x="717" unicode="&#490;" /><glyph d="M360 -149 368 -94C312 -83 302 -76 302 -62C302 -53 307 -42 332 -5C439 20 514 117 514 262C514 432 412 535 276 535C140 535 37 431 37 260C37 103 125 3 246 -10C205 -46 193 -65 193 -85C193 -124 236 -143 360 -149ZM387 261C387 158 343 93 276 93C209 93 164 159 164 262C164 364 208 430 275 430C342 430 387 364 387 261Z" glyph-name="uni01EB" horiz-adv-x="551" unicode="&#491;" /><glyph d="M73 -180C158 -114 194 -64 194 74V523H68V76C68 -26 45 -62 -15 -118ZM132 645 67 703H-11L85 584H177L273 703H196Z" glyph-name="uni01F0" horiz-adv-x="261" unicode="&#496;" /><glyph d="M205 492 493 0H639V700H511V216L227 700H77V0H205ZM331 741H434L343 840H182Z" glyph-name="uni01F8" horiz-adv-x="716" unicode="&#504;" /><glyph d="M192 380C223 402 264 420 301 420C355 420 382 389 382 331V0H509V360C509 473 453 532 350 532C282 532 231 505 185 471L164 523H66V0H192ZM262 587H346L260 702H110Z" glyph-name="uni01F9" horiz-adv-x="571" unicode="&#505;" /><glyph d="M568 204C568 319 503 372 335 419C223 453 195 478 195 519C195 561 233 591 299 591C371 591 443 571 501 545L536 661C472 689 396 709 308 709C154 709 61 631 61 508C61 398 126 347 292 302C405 265 433 238 433 191C433 142 388 108 307 108C220 108 134 135 67 168L31 53C108 15 199 -10 299 -10C468 -10 568 67 568 204ZM245 -67C262 -87 270 -101 270 -119C270 -142 259 -158 237 -178L278 -210C335 -183 368 -147 368 -105C368 -82 361 -64 345 -43Z" glyph-name="uni0218" horiz-adv-x="607" unicode="&#536;" /><glyph d="M451 151C451 237 408 278 274 316C194 341 173 354 173 382C173 409 197 428 242 428C294 428 349 411 399 387L431 490C376 517 313 532 245 532C122 532 51 469 51 375C51 282 109 245 226 213C311 188 329 173 329 145C329 115 301 95 249 95C185 95 117 116 60 147L27 42C89 10 169 -10 248 -10C372 -10 451 45 451 151ZM184 -63C201 -83 209 -97 209 -115C209 -138 198 -154 176 -174L217 -206C274 -179 307 -143 307 -101C307 -78 300 -60 284 -39Z" glyph-name="uni0219" horiz-adv-x="486" unicode="&#537;" /><glyph d="M381 0V580H602V700H25V580H246V0ZM251 -60C268 -80 276 -94 276 -112C276 -135 265 -151 243 -171L284 -203C341 -176 374 -140 374 -98C374 -75 367 -57 351 -36Z" glyph-name="uni021A" horiz-adv-x="627" unicode="&#538;" /><glyph d="M266 -8C306 -8 340 -2 368 6V111C345 103 323 99 300 99C252 99 223 123 223 177V418H367V523H223V667H98V523H22V418H98V157C98 40 157 -8 266 -8ZM172 -63C189 -83 197 -97 197 -115C197 -138 186 -154 164 -174L205 -206C262 -179 295 -143 295 -101C295 -78 288 -60 272 -39Z" glyph-name="uni021B" horiz-adv-x="403" unicode="&#539;" /><glyph d="M457 255H245L351 576ZM541 0H683L431 706H273L22 0H161L207 138H496ZM405 751V850H299V751Z" glyph-name="uni0226" horiz-adv-x="704" unicode="&#550;" /><glyph d="M238 94C185 94 156 119 156 163C156 181 162 198 173 208C188 224 210 234 277 234C302 234 328 232 351 229V135C316 109 276 94 238 94ZM360 53 380 0H489L476 104V350C476 478 410 532 271 532C196 532 129 515 71 491L99 392C148 413 200 426 253 426C321 426 351 399 351 347V322C325 327 292 330 259 330C160 330 110 311 77 277C50 251 35 211 35 158C35 48 100 -9 195 -9C260 -9 310 13 360 53ZM321 591V692H219V591Z" glyph-name="uni0227" horiz-adv-x="539" unicode="&#551;" /><glyph d="M673 351C673 572 545 712 359 712C172 712 44 571 44 349C44 128 172 -12 358 -12C544 -12 673 129 673 351ZM536 349C536 197 465 104 359 104C253 104 181 198 181 351C181 503 252 596 358 596C464 596 536 502 536 349ZM411 752V851H305V752Z" glyph-name="uni022E" horiz-adv-x="717" unicode="&#558;" /><glyph d="M514 262C514 432 412 535 276 535C140 535 37 431 37 260C37 91 139 -12 275 -12C411 -12 514 92 514 262ZM387 261C387 158 343 93 276 93C209 93 164 159 164 262C164 364 208 430 275 430C342 430 387 364 387 261ZM326 591V692H224V591Z" glyph-name="uni022F" horiz-adv-x="551" unicode="&#559;" /><glyph d="M392 0V265L638 700H493L326 389L158 700H11L257 265V0ZM475 750V818H173V750Z" glyph-name="uni0232" horiz-adv-x="649" unicode="&#562;" /><glyph d="M71 -179C248 -138 305 -89 361 75L513 523H385L270 128L152 523H21L195 13C158 -33 110 -60 43 -77ZM401 592V657H133V592Z" glyph-name="uni0233" horiz-adv-x="528" unicode="&#563;" /><glyph d="M73 -180C158 -114 194 -64 194 74V523H68V76C68 -26 45 -62 -15 -118Z" glyph-name="uni0237" horiz-adv-x="261" unicode="&#567;" /><glyph d="M241 533C177 533 110 515 53 483L87 388C134 414 188 429 234 429C309 429 355 385 366 315H33V269C33 96 120 -12 260 -12C392 -12 491 94 491 264C491 446 387 533 241 533ZM368 216C360 141 321 91 261 91C200 91 163 140 156 216Z" glyph-name="uni0259" horiz-adv-x="528" unicode="&#601;" /><glyph d="M241 722V724H99L37 450L90 434Z" glyph-name="uni02B9" horiz-adv-x="264" unicode="&#697;" /><glyph d="M426 722V724H292L230 450L283 434ZM233 722V724H99L37 450L90 434Z" glyph-name="uni02BA" horiz-adv-x="449" unicode="&#698;" /><glyph d="M27 440H150C150 568 166 625 212 699L170 730C74 646 27 558 27 448Z" glyph-name="uni02BB" horiz-adv-x="227" unicode="&#699;" /><glyph d="M200 724H76C76 597 61 539 15 465L56 434C153 518 200 606 200 716Z" glyph-name="uni02BC" horiz-adv-x="227" unicode="&#700;" /><glyph d="M25 605V526C126 526 188 584 188 668C188 752 126 809 25 809V730C74 730 102 705 102 668C102 630 74 605 25 605Z" glyph-name="uni02BE" horiz-adv-x="203" unicode="&#702;" /><glyph d="M178 730V809C78 809 15 751 15 668C15 583 78 526 178 526V605C130 605 101 631 101 668C101 706 130 730 178 730Z" glyph-name="uni02BF" horiz-adv-x="203" unicode="&#703;" /><glyph d="M151 676H224L151 776H14ZM-1 634 66 584H144L46 693H-46L-144 584H-68Z" glyph-name="uni02C60300" horiz-adv-x="0" /><glyph d="M250 830 168 919H20L159 830ZM-1 786 65 745H153L56 842H-56L-153 745H-66Z" glyph-name="uni02C60300.cap" horiz-adv-x="0" /><glyph d="M182 676 319 776H182L109 676ZM-1 634 66 584H144L46 693H-46L-144 584H-68Z" glyph-name="uni02C60301" horiz-adv-x="0" /><glyph d="M206 830 345 919H196L115 830ZM-1 786 65 745H153L56 842H-56L-153 745H-66Z" glyph-name="uni02C60301.cap" horiz-adv-x="0" /><glyph d="M-86 713C-70 748 -61 756 -47 756C-34 756 -24 752 4 737C36 720 48 714 67 714C99 714 125 739 150 809L97 827C82 792 73 784 58 784C46 784 36 788 7 803C-25 821 -36 826 -56 826C-88 826 -113 802 -139 731ZM-1 631 67 584H145L46 689H-46L-145 584H-69Z" glyph-name="uni02C60303" horiz-adv-x="0" /><glyph d="M-89 862C-74 898 -65 906 -51 906C-37 906 -26 901 2 886C36 868 50 863 70 863C103 863 130 887 156 960L99 978C84 942 75 935 60 935C47 935 35 939 7 955C-26 972 -40 977 -60 977C-94 977 -120 954 -147 881ZM-1 784 66 745H154L56 839H-56L-154 745H-67Z" glyph-name="uni02C60303.cap" horiz-adv-x="0" /><glyph d="M57 797 69 742C94 749 120 753 144 753C170 753 180 747 180 737C180 726 167 717 119 698L136 655C220 684 248 711 248 748C248 785 214 811 152 811C118 811 88 806 57 797ZM-1 634 66 584H144L46 693H-46L-144 584H-68Z" glyph-name="uni02C60309" horiz-adv-x="0" /><glyph d="M56 947 67 891C94 898 123 902 151 902C182 902 193 896 193 887C193 878 180 871 127 855L140 809C230 834 262 860 262 898C262 935 227 960 158 960C121 960 89 956 56 947ZM-1 786 65 745H153L56 842H-56L-153 745H-66Z" glyph-name="uni02C60309.cap" horiz-adv-x="0" /><glyph d="M35 533H126V802H35Z" glyph-name="uni02C8" horiz-adv-x="161" unicode="&#712;" /><glyph d="M35 -102H126V167H35Z" glyph-name="uni02CC" horiz-adv-x="161" unicode="&#716;" /><glyph d="M384 -115V-50H116V-115Z" glyph-name="uni02CD" horiz-adv-x="500" unicode="&#717;" /><glyph d="M-27 714H57L-16 813H-164ZM1 649C-40 649 -64 667 -71 694H-134C-130 628 -83 580 -1 580C81 580 130 628 134 694H71C64 667 41 649 1 649Z" glyph-name="uni02D80300" horiz-adv-x="0" /><glyph d="M64 871 -18 960H-177L-38 871ZM1 810C-39 810 -64 826 -73 850H-143C-135 786 -85 741 -1 741C83 741 135 786 143 850H73C64 826 40 810 1 810Z" glyph-name="uni02D80300.cap" horiz-adv-x="0" /><glyph d="M27 714 164 813H16L-57 714ZM1 649C-40 649 -64 667 -71 694H-134C-130 628 -83 580 -1 580C81 580 130 628 134 694H71C64 667 41 649 1 649Z" glyph-name="uni02D80301" horiz-adv-x="0" /><glyph d="M38 871 177 960H18L-64 871ZM1 810C-39 810 -64 826 -73 850H-143C-135 786 -85 741 -1 741C83 741 135 786 143 850H73C64 826 40 810 1 810Z" glyph-name="uni02D80301.cap" horiz-adv-x="0" /><glyph d="M-89 720C-73 755 -64 763 -49 763C-37 763 -27 759 1 744C34 726 45 721 65 721C97 721 122 745 147 816L95 834C79 799 70 791 55 791C43 791 33 795 5 810C-28 827 -39 833 -59 833C-91 833 -116 808 -141 738ZM1 649C-40 649 -64 667 -71 694H-134C-130 628 -83 580 -1 580C81 580 130 628 134 694H71C64 667 41 649 1 649Z" glyph-name="uni02D80303" horiz-adv-x="0" /><glyph d="M-92 874C-77 910 -68 918 -53 918C-40 918 -28 913 0 898C33 880 47 875 67 875C100 875 127 898 154 972L97 990C82 954 72 946 58 946C44 946 33 951 5 966C-29 984 -42 989 -63 989C-96 989 -123 966 -149 893ZM1 810C-39 810 -64 826 -73 850H-143C-135 786 -85 741 -1 741C83 741 135 786 143 850H73C64 826 40 810 1 810Z" glyph-name="uni02D80303.cap" horiz-adv-x="0" /><glyph d="M-105 837 -93 780C-65 788 -35 793 -9 793C19 793 30 786 30 777C30 767 16 758 -34 739L-17 695C74 724 106 750 106 788C106 825 69 851 -1 851C-38 851 -71 846 -105 837ZM1 649C-40 649 -64 667 -71 694H-134C-130 628 -83 580 -1 580C81 580 130 628 134 694H71C64 667 41 649 1 649Z" glyph-name="uni02D80309" horiz-adv-x="0" /><glyph d="M-121 994 -110 936C-75 943 -41 948 -7 948C29 948 40 943 40 934C40 925 26 917 -33 901L-19 854C86 881 122 908 122 945C122 982 83 1007 0 1007C-43 1007 -82 1003 -121 994ZM1 810C-39 810 -64 826 -73 850H-143C-135 786 -85 741 -1 741C83 741 135 786 143 850H73C64 826 40 810 1 810Z" glyph-name="uni02D80309.cap" horiz-adv-x="0" /><glyph d="M-23 584H61L-25 699H-175Z" glyph-name="uni0300" horiz-adv-x="0" unicode="&#768;" /><glyph d="M23 584 175 699H25L-61 584Z" glyph-name="uni0301" horiz-adv-x="0" unicode="&#769;" /><glyph d="M-1 642 64 584H142L46 703H-46L-142 584H-65Z" glyph-name="uni0302" horiz-adv-x="0" unicode="&#770;" /><glyph d="M-101 579C-84 619 -72 628 -56 628C-42 628 -30 623 1 606C37 587 53 580 75 580C111 580 139 607 166 688L110 705C92 664 81 655 65 655C51 655 39 661 8 678C-28 697 -44 703 -66 703C-103 703 -131 677 -158 596Z" glyph-name="uni0303" horiz-adv-x="0" unicode="&#771;" /><glyph d="M134 592V657H-134V592Z" glyph-name="uni0304" horiz-adv-x="0" unicode="&#772;" /><glyph d="M1 651C-41 651 -63 673 -70 706H-133C-129 634 -83 580 -1 580C82 580 129 634 133 706H70C63 673 42 651 1 651Z" glyph-name="uni0306" horiz-adv-x="0" unicode="&#774;" /><glyph d="M51 588V689H-51V588Z" glyph-name="uni0307" horiz-adv-x="0" unicode="&#775;" /><glyph d="M-35 588V689H-132V588ZM132 588V689H35V588Z" glyph-name="uni0308" horiz-adv-x="0" unicode="&#776;" /><glyph d="M-121 732 -106 671C-74 680 -39 686 -8 686C26 686 38 679 38 669C38 657 24 648 -37 625L-19 577C83 611 118 638 118 681C118 722 77 750 -1 750C-43 750 -83 744 -121 732Z" glyph-name="uni0309" horiz-adv-x="0" unicode="&#777;" /><glyph d="M-104 677C-104 621 -60 578 0 578C60 578 104 621 104 677C104 733 60 776 0 776C-60 776 -104 733 -104 677ZM-63 677C-63 714 -36 741 0 741C36 741 63 714 63 677C63 641 36 614 0 614C-36 614 -63 641 -63 677Z" glyph-name="uni030A" horiz-adv-x="0" unicode="&#778;" /><glyph d="M-47 584 94 699H-35L-127 584ZM102 584 242 699H113L22 584Z" glyph-name="uni030B" horiz-adv-x="0" unicode="&#779;" /><glyph d="M1 645 -64 703H-142L-46 584H46L142 703H65Z" glyph-name="uni030C" horiz-adv-x="0" unicode="&#780;" /><glyph d="M63 602C46 622 38 636 38 654C38 677 49 693 71 713L30 745C-27 718 -60 682 -60 640C-60 617 -53 599 -37 578Z" glyph-name="uni0312" horiz-adv-x="0" unicode="&#786;" /><glyph d="M81 725H0V690C0 645 -5 611 -18 575L19 556C59 597 81 636 81 698Z" glyph-name="uni0315" horiz-adv-x="0" unicode="&#789;" /><glyph d="M51 -146V-45H-51V-146Z" glyph-name="uni0323" horiz-adv-x="0" unicode="&#803;" /><glyph d="M-35 -146V-45H-132V-146ZM132 -146V-45H35V-146Z" glyph-name="uni0324" horiz-adv-x="0" unicode="&#804;" /><glyph d="M-63 -60C-46 -80 -38 -94 -38 -112C-38 -135 -49 -151 -71 -171L-30 -203C27 -176 60 -140 60 -98C60 -75 53 -57 37 -36Z" glyph-name="uni0326" horiz-adv-x="0" unicode="&#806;" /><glyph d="M-100 -162C49 -159 102 -129 102 -85C102 -53 72 -33 9 -35L52 6L-26 10L-83 -55L-64 -79C-25 -71 -4 -77 -4 -91C-4 -106 -26 -116 -105 -122Z" glyph-name="uni0327" horiz-adv-x="0" unicode="&#807;" /><glyph d="M80 -94C24 -83 14 -76 14 -62C14 -52 20 -40 52 6L-17 11C-78 -39 -95 -61 -95 -85C-95 -124 -52 -143 72 -149Z" glyph-name="uni0328" horiz-adv-x="0" unicode="&#808;" /><glyph d="M-1 -106 64 -164H142L46 -45H-46L-142 -164H-65Z" glyph-name="uni032D" horiz-adv-x="0" unicode="&#813;" /><glyph d="M1 -100C-41 -100 -63 -78 -70 -45H-133C-129 -117 -83 -171 -1 -171C82 -171 129 -117 133 -45H70C63 -78 42 -100 1 -100Z" glyph-name="uni032E" horiz-adv-x="0" unicode="&#814;" /><glyph d="M134 -115V-50H-134V-115Z" glyph-name="uni0331" horiz-adv-x="0" unicode="&#817;" /><glyph d="M119 -115V-50H-119V-115Z" glyph-name="uni0331.nrw" horiz-adv-x="0" /><glyph d="M370 -109V0C533 2 628 71 628 195C628 294 563 342 464 363C543 384 607 432 607 529C607 632 532 699 370 700V781H298V700H77V0H298V-109ZM199 407V599H306V407ZM366 599C443 599 480 565 480 512C480 449 435 413 362 408V599ZM199 101V313H306V101ZM499 207C499 138 450 101 367 101H362V312C451 308 499 269 499 207Z" glyph-name="uni0E3F" horiz-adv-x="667" unicode="&#3647;" /><glyph d="M345 0C514 0 614 70 614 195C614 288 554 340 460 363C535 389 593 439 593 529C593 633 515 700 349 700H77V0ZM211 417V583H342C421 583 456 554 456 508C456 450 404 417 320 417ZM211 117V302H324C423 302 476 267 476 208C476 149 429 117 349 117ZM476 -115V-50H208V-115Z" glyph-name="uni1E06" horiz-adv-x="652" unicode="&#7686;" /><glyph d="M320 -10C441 -10 529 87 529 263C529 436 443 532 325 532C269 532 226 510 192 483V724H66V0H164L181 43C217 14 261 -10 320 -10ZM285 94C252 94 219 108 192 127V391C217 411 250 429 287 429C357 429 402 370 402 262C402 150 355 94 285 94ZM412 -118V-53H144V-118Z" glyph-name="uni1E07" horiz-adv-x="567" unicode="&#7687;" /><glyph d="M649 351C649 590 494 700 277 700H77V0H272C493 0 649 111 649 351ZM211 117V583H282C423 583 512 509 512 349C512 189 422 117 282 117ZM394 -146V-45H292V-146Z" glyph-name="uni1E0C" horiz-adv-x="693" unicode="&#7692;" /><glyph d="M281 94C210 94 165 153 165 260C165 373 212 429 283 429C316 429 348 415 375 396V132C350 112 317 94 281 94ZM384 48 403 0H501V724H375V495C337 518 298 532 252 532C127 532 38 436 38 260C38 87 125 -10 240 -10C304 -10 348 17 384 48ZM339 -149V-48H237V-149Z" glyph-name="uni1E0D" horiz-adv-x="567" unicode="&#7693;" /><glyph d="M649 351C649 590 494 700 277 700H77V0H272C493 0 649 111 649 351ZM211 117V583H282C423 583 512 509 512 349C512 189 422 117 282 117ZM477 -115V-50H209V-115Z" glyph-name="uni1E0E" horiz-adv-x="693" unicode="&#7694;" /><glyph d="M281 94C210 94 165 153 165 260C165 373 212 429 283 429C316 429 348 415 375 396V132C350 112 317 94 281 94ZM384 48 403 0H501V724H375V495C337 518 298 532 252 532C127 532 38 436 38 260C38 87 125 -10 240 -10C304 -10 348 17 384 48ZM422 -118V-53H154V-118Z" glyph-name="uni1E0F" horiz-adv-x="567" unicode="&#7695;" /><glyph d="M649 351C649 590 494 700 277 700H77V0H272C493 0 649 111 649 351ZM211 117V583H282C423 583 512 509 512 349C512 189 422 117 282 117ZM342 -106 407 -164H485L389 -45H297L201 -164H278Z" glyph-name="uni1E12" horiz-adv-x="693" unicode="&#7698;" /><glyph d="M281 94C210 94 165 153 165 260C165 373 212 429 283 429C316 429 348 415 375 396V132C350 112 317 94 281 94ZM384 48 403 0H501V724H375V495C337 518 298 532 252 532C127 532 38 436 38 260C38 87 125 -10 240 -10C304 -10 348 17 384 48ZM287 -109 352 -167H430L334 -48H242L146 -167H223Z" glyph-name="uni1E13" horiz-adv-x="567" unicode="&#7699;" /><glyph d="M624 52V399H345V280H491V129C464 117 424 107 384 107C256 107 181 192 181 348C181 494 257 588 387 588C459 588 516 568 568 544L606 661C542 691 470 710 387 710C189 710 44 581 44 349C44 119 170 -9 378 -9C471 -9 559 18 624 52ZM519 757V825H217V757Z" glyph-name="uni1E20" horiz-adv-x="690" unicode="&#7712;" /><glyph d="M165 271C165 375 212 429 283 429C315 429 348 415 375 396V149C350 132 317 117 282 117C211 117 165 170 165 271ZM501 523H403L386 480C350 509 306 532 247 532C125 532 38 435 38 269C38 101 124 13 246 13C301 13 344 32 376 53V31C376 -40 336 -74 254 -74C198 -74 146 -62 99 -41L65 -141C120 -164 188 -178 260 -178C405 -178 501 -117 501 44ZM423 595V660H155V595Z" glyph-name="uni1E21" horiz-adv-x="567" unicode="&#7713;" /><glyph d="M211 296H500V0H635V700H500V422H211V700H77V0H211ZM407 -142V-41H305V-142Z" glyph-name="uni1E24" horiz-adv-x="712" unicode="&#7716;" /><glyph d="M192 380C223 402 264 420 301 420C355 420 382 389 382 331V0H509V360C509 473 453 532 350 532C286 532 236 507 192 476V724H66V0H192ZM338 -142V-41H236V-142Z" glyph-name="uni1E25" horiz-adv-x="571" unicode="&#7717;" /><glyph d="M246 -85C246 -53 216 -33 153 -35L190 0H211V296H500V0H635V700H500V422H211V700H77V0H109L61 -55L80 -79C119 -71 140 -77 140 -91C140 -106 118 -116 39 -122L44 -162C193 -159 246 -129 246 -85Z" glyph-name="uni1E28" horiz-adv-x="712" unicode="&#7720;" /><glyph d="M231 -85C231 -53 201 -33 138 -35L175 0H192V380C223 402 264 420 301 420C355 420 382 389 382 331V0H509V360C509 473 453 532 350 532C286 532 236 507 192 476V724H66V0H94L46 -55L65 -79C104 -71 125 -77 125 -91C125 -106 103 -116 24 -122L29 -162C178 -159 231 -129 231 -85Z" glyph-name="uni1E29" horiz-adv-x="571" unicode="&#7721;" /><glyph d="M211 296H500V0H635V700H500V422H211V700H77V0H211ZM357 -100C315 -100 293 -78 286 -45H223C227 -117 273 -171 355 -171C438 -171 485 -117 489 -45H426C419 -78 398 -100 357 -100Z" glyph-name="uni1E2A" horiz-adv-x="712" unicode="&#7722;" /><glyph d="M192 380C223 402 264 420 301 420C355 420 382 389 382 331V0H509V360C509 473 453 532 350 532C286 532 236 507 192 476V724H66V0H192ZM288 -100C246 -100 224 -78 217 -45H154C158 -117 204 -171 286 -171C369 -171 416 -117 420 -45H357C350 -78 329 -100 288 -100Z" glyph-name="uni1E2B" horiz-adv-x="571" unicode="&#7723;" /><glyph d="M482 0H647L352 361L639 700H476L221 391H211V700H77V0H211V327H220ZM384 -142V-41H282V-142Z" glyph-name="uni1E32" horiz-adv-x="654" unicode="&#7730;" /><glyph d="M378 0H528L320 273L522 523H374L195 291H192V724H66V0H192V253H194ZM328 -142V-41H226V-142Z" glyph-name="uni1E33" horiz-adv-x="535" unicode="&#7731;" /><glyph d="M482 0H647L352 361L639 700H476L221 391H211V700H77V0H211V327H220ZM467 -115V-50H199V-115Z" glyph-name="uni1E34" horiz-adv-x="654" unicode="&#7732;" /><glyph d="M378 0H528L320 273L522 523H374L195 291H192V724H66V0H192V253H194ZM411 -115V-50H143V-115Z" glyph-name="uni1E35" horiz-adv-x="535" unicode="&#7733;" /><glyph d="M523 0V121H211V700H77V0ZM347 -146V-45H245V-146Z" glyph-name="uni1E36" horiz-adv-x="550" unicode="&#7734;" /><glyph d="M194 0V724H67V0ZM181 -146V-45H79V-146Z" glyph-name="uni1E37" horiz-adv-x="261" unicode="&#7735;" /><glyph d="M523 0V121H211V700H77V0ZM276 750V818H12V750ZM347 -146V-45H245V-146Z" glyph-name="uni1E38" horiz-adv-x="550" unicode="&#7736;" /><glyph d="M194 0V724H67V0ZM249 780V845H11V780ZM181 -146V-45H79V-146Z" glyph-name="uni1E39" horiz-adv-x="261" unicode="&#7737;" /><glyph d="M523 0V121H211V700H77V0ZM430 -115V-50H162V-115Z" glyph-name="uni1E3A" horiz-adv-x="550" unicode="&#7738;" /><glyph d="M194 0V724H67V0ZM249 -115V-50H11V-115Z" glyph-name="uni1E3B" horiz-adv-x="261" unicode="&#7739;" /><glyph d="M523 0V121H211V700H77V0ZM295 -106 360 -164H438L342 -45H250L154 -164H231Z" glyph-name="uni1E3C" horiz-adv-x="550" unicode="&#7740;" /><glyph d="M194 0V724H67V0ZM129 -106 194 -164H272L176 -45H84L-12 -164H65Z" glyph-name="uni1E3D" horiz-adv-x="261" unicode="&#7741;" /><glyph d="M725 0H858L822 700H631L458 171L286 700H98L62 0H188L213 540L391 -1H522L701 538ZM493 741 642 840H481L390 741Z" glyph-name="uni1E3E" horiz-adv-x="920" unicode="&#7742;" /><glyph d="M816 0V361C816 474 757 532 657 532C590 532 532 504 479 466C454 509 409 532 347 532C282 532 231 505 185 471L164 523H66V0H192V380C223 402 263 420 299 420C350 420 377 390 377 332V0H504V345C504 357 502 368 499 377C533 402 574 420 609 420C661 420 689 390 689 332V0ZM464 586 616 701H466L380 586Z" glyph-name="uni1E3F" horiz-adv-x="878" unicode="&#7743;" /><glyph d="M725 0H858L822 700H631L458 171L286 700H98L62 0H188L213 540L391 -1H522L701 538ZM512 741V840H406V741Z" glyph-name="uni1E40" horiz-adv-x="920" unicode="&#7744;" /><glyph d="M816 0V361C816 474 757 532 657 532C590 532 532 504 479 466C454 509 409 532 347 532C282 532 231 505 185 471L164 523H66V0H192V380C223 402 263 420 299 420C350 420 377 390 377 332V0H504V345C504 357 502 368 499 377C533 402 574 420 609 420C661 420 689 390 689 332V0ZM492 590V691H390V590Z" glyph-name="uni1E41" horiz-adv-x="878" unicode="&#7745;" /><glyph d="M725 0H858L822 700H631L458 171L286 700H98L62 0H188L213 540L391 -1H522L701 538ZM507 -146V-45H405V-146Z" glyph-name="uni1E42" horiz-adv-x="920" unicode="&#7746;" /><glyph d="M816 0V361C816 474 757 532 657 532C590 532 532 504 479 466C454 509 409 532 347 532C282 532 231 505 185 471L164 523H66V0H192V380C223 402 263 420 299 420C350 420 377 390 377 332V0H504V345C504 357 502 368 499 377C533 402 574 420 609 420C661 420 689 390 689 332V0ZM492 -146V-45H390V-146Z" glyph-name="uni1E43" horiz-adv-x="878" unicode="&#7747;" /><glyph d="M205 492 493 0H639V700H511V216L227 700H77V0H205ZM418 741V840H312V741Z" glyph-name="uni1E44" horiz-adv-x="716" unicode="&#7748;" /><glyph d="M192 380C223 402 264 420 301 420C355 420 382 389 382 331V0H509V360C509 473 453 532 350 532C282 532 231 505 185 471L164 523H66V0H192ZM336 591V692H234V591Z" glyph-name="uni1E45" horiz-adv-x="571" unicode="&#7749;" /><glyph d="M205 492 493 0H639V700H511V216L227 700H77V0H205ZM405 -142V-41H303V-142Z" glyph-name="uni1E46" horiz-adv-x="716" unicode="&#7750;" /><glyph d="M192 380C223 402 264 420 301 420C355 420 382 389 382 331V0H509V360C509 473 453 532 350 532C282 532 231 505 185 471L164 523H66V0H192ZM338 -142V-41H236V-142Z" glyph-name="uni1E47" horiz-adv-x="571" unicode="&#7751;" /><glyph d="M205 492 493 0H639V700H511V216L227 700H77V0H205ZM488 -115V-50H220V-115Z" glyph-name="uni1E48" horiz-adv-x="716" unicode="&#7752;" /><glyph d="M192 380C223 402 264 420 301 420C355 420 382 389 382 331V0H509V360C509 473 453 532 350 532C282 532 231 505 185 471L164 523H66V0H192ZM421 -115V-50H153V-115Z" glyph-name="uni1E49" horiz-adv-x="571" unicode="&#7753;" /><glyph d="M205 492 493 0H639V700H511V216L227 700H77V0H205ZM353 -102 418 -160H496L400 -41H308L212 -160H289Z" glyph-name="uni1E4A" horiz-adv-x="716" unicode="&#7754;" /><glyph d="M192 380C223 402 264 420 301 420C355 420 382 389 382 331V0H509V360C509 473 453 532 350 532C282 532 231 505 185 471L164 523H66V0H192ZM286 -102 351 -160H429L333 -41H241L145 -160H222Z" glyph-name="uni1E4B" horiz-adv-x="571" unicode="&#7755;" /><glyph d="M211 357V583H325C422 583 466 546 466 478C466 401 403 357 304 357ZM211 241H261C320 241 353 221 389 169L502 0H661L525 192C490 246 466 269 423 286C512 311 603 368 603 496C603 627 515 700 333 700H77V0H211ZM380 745V844H274V745Z" glyph-name="uni1E58" horiz-adv-x="668" unicode="&#7768;" /><glyph d="M192 0V338C240 376 296 399 364 400V530C285 531 230 495 185 436L162 523H66V0ZM261 588V689H159V588Z" glyph-name="uni1E59" horiz-adv-x="390" unicode="&#7769;" /><glyph d="M211 357V583H325C422 583 466 546 466 478C466 401 403 357 304 357ZM211 241H261C320 241 353 221 389 169L502 0H661L525 192C490 246 466 269 423 286C512 311 603 368 603 496C603 627 515 700 333 700H77V0H211ZM390 -142V-41H288V-142Z" glyph-name="uni1E5A" horiz-adv-x="668" unicode="&#7770;" /><glyph d="M192 0V338C240 376 296 399 364 400V530C285 531 230 495 185 436L162 523H66V0ZM180 -146V-45H78V-146Z" glyph-name="uni1E5B" horiz-adv-x="390" unicode="&#7771;" /><glyph d="M211 357V583H325C422 583 466 546 466 478C466 401 403 357 304 357ZM211 241H261C320 241 353 221 389 169L502 0H661L525 192C490 246 466 269 423 286C512 311 603 368 603 496C603 627 515 700 333 700H77V0H211ZM478 750V818H176V750ZM390 -142V-41H288V-142Z" glyph-name="uni1E5C" horiz-adv-x="668" unicode="&#7772;" /><glyph d="M192 0V338C240 376 296 399 364 400V530C285 531 230 495 185 436L162 523H66V0ZM329 592V657H91V592ZM180 -146V-45H78V-146Z" glyph-name="uni1E5D" horiz-adv-x="390" unicode="&#7773;" /><glyph d="M211 357V583H325C422 583 466 546 466 478C466 401 403 357 304 357ZM211 241H261C320 241 353 221 389 169L502 0H661L525 192C490 246 466 269 423 286C512 311 603 368 603 496C603 627 515 700 333 700H77V0H211ZM473 -115V-50H205V-115Z" glyph-name="uni1E5E" horiz-adv-x="668" unicode="&#7774;" /><glyph d="M192 0V338C240 376 296 399 364 400V530C285 531 230 495 185 436L162 523H66V0ZM248 -115V-50H10V-115Z" glyph-name="uni1E5F" horiz-adv-x="390" unicode="&#7775;" /><glyph d="M568 204C568 319 503 372 335 419C223 453 195 478 195 519C195 561 233 591 299 591C371 591 443 571 501 545L536 661C472 689 396 709 308 709C154 709 61 631 61 508C61 398 126 347 292 302C405 265 433 238 433 191C433 142 388 108 307 108C220 108 134 135 67 168L31 53C108 15 199 -10 299 -10C468 -10 568 67 568 204ZM359 -153V-52H257V-153Z" glyph-name="uni1E62" horiz-adv-x="607" unicode="&#7778;" /><glyph d="M451 151C451 237 408 278 274 316C194 341 173 354 173 382C173 409 197 428 242 428C294 428 349 411 399 387L431 490C376 517 313 532 245 532C122 532 51 469 51 375C51 282 109 245 226 213C311 188 329 173 329 145C329 115 301 95 249 95C185 95 117 116 60 147L27 42C89 10 169 -10 248 -10C372 -10 451 45 451 151ZM298 -149V-48H196V-149Z" glyph-name="uni1E63" horiz-adv-x="486" unicode="&#7779;" /><glyph d="M381 0V580H602V700H25V580H246V0ZM365 -146V-45H263V-146Z" glyph-name="uni1E6C" horiz-adv-x="627" unicode="&#7788;" /><glyph d="M266 -8C306 -8 340 -2 368 6V111C345 103 323 99 300 99C252 99 223 123 223 177V418H367V523H223V667H98V523H22V418H98V157C98 40 157 -8 266 -8ZM286 -149V-48H184V-149Z" glyph-name="uni1E6D" horiz-adv-x="403" unicode="&#7789;" /><glyph d="M381 0V580H602V700H25V580H246V0ZM448 -115V-50H180V-115Z" glyph-name="uni1E6E" horiz-adv-x="627" unicode="&#7790;" /><glyph d="M266 -8C306 -8 340 -2 368 6V111C345 103 323 99 300 99C252 99 223 123 223 177V418H367V523H223V667H98V523H22V418H98V157C98 40 157 -8 266 -8ZM354 -118V-53H116V-118Z" glyph-name="uni1E6F" horiz-adv-x="403" unicode="&#7791;" /><glyph d="M381 0V580H602V700H25V580H246V0ZM313 -106 378 -164H456L360 -45H268L172 -164H249Z" glyph-name="uni1E70" horiz-adv-x="627" unicode="&#7792;" /><glyph d="M266 -8C306 -8 340 -2 368 6V111C345 103 323 99 300 99C252 99 223 123 223 177V418H367V523H223V667H98V523H22V418H98V157C98 40 157 -8 266 -8ZM234 -109 299 -167H377L281 -48H189L93 -167H170Z" glyph-name="uni1E71" horiz-adv-x="403" unicode="&#7793;" /><glyph d="M417 -6 666 700H522L345 153L168 700H22L271 -6ZM395 -152V-51H293V-152Z" glyph-name="uni1E7E" horiz-adv-x="687" unicode="&#7806;" /><glyph d="M333 -5 513 523H386L267 122L146 523H16L197 -5ZM316 -149V-48H214V-149Z" glyph-name="uni1E7F" horiz-adv-x="530" unicode="&#7807;" /><glyph d="M487 0H639L412 361L629 700H480L331 455L182 700H31L247 360L20 0H170L329 261ZM294 745V844H192V745ZM468 745V844H366V745Z" glyph-name="uni1E8C" horiz-adv-x="660" unicode="&#7820;" /><glyph d="M367 0H501L334 268L494 523H362L260 348L158 523H24L183 268L17 0H149L257 185ZM225 588V689H128V588ZM392 588V689H295V588Z" glyph-name="uni1E8D" horiz-adv-x="518" unicode="&#7821;" /><glyph d="M392 0V265L638 700H493L326 389L158 700H11L257 265V0ZM377 741V840H271V741Z" glyph-name="uni1E8E" horiz-adv-x="649" unicode="&#7822;" /><glyph d="M71 -179C248 -138 305 -89 361 75L513 523H385L270 128L152 523H21L195 13C158 -33 110 -60 43 -77ZM318 584V685H216V584Z" glyph-name="uni1E8F" horiz-adv-x="528" unicode="&#7823;" /><glyph d="M572 0V119H204L572 588V700H57V581H407L39 112V0ZM307 793 371 745H459L364 849H252L157 745H244Z" glyph-name="uni1E90" horiz-adv-x="614" unicode="&#7824;" /><glyph d="M453 0V104H186L453 424V523H49V418H300L34 98V0ZM248 642 313 584H391L295 703H203L107 584H184Z" glyph-name="uni1E91" horiz-adv-x="491" unicode="&#7825;" /><glyph d="M572 0V119H204L572 588V700H57V581H407L39 112V0ZM366 -146V-45H264V-146Z" glyph-name="uni1E92" horiz-adv-x="614" unicode="&#7826;" /><glyph d="M453 0V104H186L453 424V523H49V418H300L34 98V0ZM301 -146V-45H199V-146Z" glyph-name="uni1E93" horiz-adv-x="491" unicode="&#7827;" /><glyph d="M572 0V119H204L572 588V700H57V581H407L39 112V0ZM449 -115V-50H181V-115Z" glyph-name="uni1E94" horiz-adv-x="614" unicode="&#7828;" /><glyph d="M453 0V104H186L453 424V523H49V418H300L34 98V0ZM384 -115V-50H116V-115Z" glyph-name="uni1E95" horiz-adv-x="491" unicode="&#7829;" /><glyph d="M192 380C223 402 264 420 301 420C355 420 382 389 382 331V0H509V360C509 473 453 532 350 532C286 532 236 507 192 476V724H66V0H192ZM421 -115V-50H153V-115Z" glyph-name="uni1E96" horiz-adv-x="571" unicode="&#7830;" /><glyph d="M427 -12C563 -12 647 64 647 167C647 256 588 324 469 369L637 579V592C567 669 470 711 356 711C180 711 68 609 68 430V0H202V430C202 536 263 596 358 596C399 596 436 586 470 566L316 380V293C458 254 509 220 509 174C509 134 473 105 410 105C372 105 330 112 286 126V9C331 -5 380 -12 427 -12Z" glyph-name="uni1E9E" horiz-adv-x="685" unicode="&#7838;" /><glyph d="M457 255H245L351 576ZM541 0H683L431 706H273L22 0H161L207 138H496ZM404 -142V-41H302V-142Z" glyph-name="uni1EA0" horiz-adv-x="704" unicode="&#7840;" /><glyph d="M238 94C185 94 156 119 156 163C156 181 162 198 173 208C188 224 210 234 277 234C302 234 328 232 351 229V135C316 109 276 94 238 94ZM360 53 380 0H489L476 104V350C476 478 410 532 271 532C196 532 129 515 71 491L99 392C148 413 200 426 253 426C321 426 351 399 351 347V322C325 327 292 330 259 330C160 330 110 311 77 277C50 251 35 211 35 158C35 48 100 -9 195 -9C260 -9 310 13 360 53ZM317 -149V-48H215V-149Z" glyph-name="uni1EA1" horiz-adv-x="539" unicode="&#7841;" /><glyph d="M457 255H245L351 576ZM541 0H683L431 706H273L22 0H161L207 138H496ZM219 893 232 832C269 841 307 845 344 845C385 845 397 840 397 830C397 820 383 812 316 793L331 744C442 773 481 799 481 841C481 881 440 907 351 907C304 907 262 902 219 893Z" glyph-name="uni1EA2" horiz-adv-x="704" unicode="&#7842;" /><glyph d="M238 94C185 94 156 119 156 163C156 181 162 198 173 208C188 224 210 234 277 234C302 234 328 232 351 229V135C316 109 276 94 238 94ZM360 53 380 0H489L476 104V350C476 478 410 532 271 532C196 532 129 515 71 491L99 392C148 413 200 426 253 426C321 426 351 399 351 347V322C325 327 292 330 259 330C160 330 110 311 77 277C50 251 35 211 35 158C35 48 100 -9 195 -9C260 -9 310 13 360 53ZM149 735 164 674C196 683 231 689 262 689C296 689 308 682 308 672C308 660 294 651 233 628L251 580C353 614 388 641 388 684C388 725 347 753 269 753C227 753 187 747 149 735Z" glyph-name="uni1EA3" horiz-adv-x="539" unicode="&#7843;" /><glyph d="M457 255H245L351 576ZM541 0H683L431 706H273L22 0H161L207 138H496ZM558 836 697 925H548L467 836ZM351 792 417 751H505L408 848H296L199 751H286Z" glyph-name="uni1EA4" horiz-adv-x="704" unicode="&#7844;" /><glyph d="M238 94C185 94 156 119 156 163C156 181 162 198 173 208C188 224 210 234 277 234C302 234 328 232 351 229V135C316 109 276 94 238 94ZM360 53 380 0H489L476 104V350C476 478 410 532 271 532C196 532 129 515 71 491L99 392C148 413 200 426 253 426C321 426 351 399 351 347V322C325 327 292 330 259 330C160 330 110 311 77 277C50 251 35 211 35 158C35 48 100 -9 195 -9C260 -9 310 13 360 53ZM452 679 589 779H452L379 679ZM269 637 336 587H414L316 696H224L126 587H202Z" glyph-name="uni1EA5" horiz-adv-x="539" unicode="&#7845;" /><glyph d="M457 255H245L351 576ZM541 0H683L431 706H273L22 0H161L207 138H496ZM602 836 520 925H372L511 836ZM351 792 417 751H505L408 848H296L199 751H286Z" glyph-name="uni1EA6" horiz-adv-x="704" unicode="&#7846;" /><glyph d="M238 94C185 94 156 119 156 163C156 181 162 198 173 208C188 224 210 234 277 234C302 234 328 232 351 229V135C316 109 276 94 238 94ZM360 53 380 0H489L476 104V350C476 478 410 532 271 532C196 532 129 515 71 491L99 392C148 413 200 426 253 426C321 426 351 399 351 347V322C325 327 292 330 259 330C160 330 110 311 77 277C50 251 35 211 35 158C35 48 100 -9 195 -9C260 -9 310 13 360 53ZM421 679H494L421 779H284ZM269 637 336 587H414L316 696H224L126 587H202Z" glyph-name="uni1EA7" horiz-adv-x="539" unicode="&#7847;" /><glyph d="M457 255H245L351 576ZM541 0H683L431 706H273L22 0H161L207 138H496ZM408 953 419 897C446 904 475 908 503 908C534 908 545 902 545 893C545 884 532 877 479 861L492 815C582 840 614 866 614 904C614 941 579 966 510 966C473 966 441 962 408 953ZM351 792 417 751H505L408 848H296L199 751H286Z" glyph-name="uni1EA8" horiz-adv-x="704" unicode="&#7848;" /><glyph d="M238 94C185 94 156 119 156 163C156 181 162 198 173 208C188 224 210 234 277 234C302 234 328 232 351 229V135C316 109 276 94 238 94ZM360 53 380 0H489L476 104V350C476 478 410 532 271 532C196 532 129 515 71 491L99 392C148 413 200 426 253 426C321 426 351 399 351 347V322C325 327 292 330 259 330C160 330 110 311 77 277C50 251 35 211 35 158C35 48 100 -9 195 -9C260 -9 310 13 360 53ZM327 800 339 745C364 752 390 756 414 756C440 756 450 750 450 740C450 729 437 720 389 701L406 658C490 687 518 714 518 751C518 788 484 814 422 814C388 814 358 809 327 800ZM269 637 336 587H414L316 696H224L126 587H202Z" glyph-name="uni1EA9" horiz-adv-x="539" unicode="&#7849;" /><glyph d="M457 255H245L351 576ZM541 0H683L431 706H273L22 0H161L207 138H496ZM263 868C278 904 287 912 301 912C315 912 326 907 354 892C388 874 402 869 422 869C455 869 482 893 508 966L451 984C436 948 427 941 412 941C399 941 387 945 359 961C326 978 312 983 292 983C258 983 232 960 205 887ZM351 790 418 751H506L408 845H296L198 751H285Z" glyph-name="uni1EAA" horiz-adv-x="704" unicode="&#7850;" /><glyph d="M238 94C185 94 156 119 156 163C156 181 162 198 173 208C188 224 210 234 277 234C302 234 328 232 351 229V135C316 109 276 94 238 94ZM360 53 380 0H489L476 104V350C476 478 410 532 271 532C196 532 129 515 71 491L99 392C148 413 200 426 253 426C321 426 351 399 351 347V322C325 327 292 330 259 330C160 330 110 311 77 277C50 251 35 211 35 158C35 48 100 -9 195 -9C260 -9 310 13 360 53ZM184 716C200 751 209 759 223 759C236 759 246 755 274 740C306 723 318 717 337 717C369 717 395 742 420 812L367 830C352 795 343 787 328 787C316 787 306 791 277 806C245 824 234 829 214 829C182 829 157 805 131 734ZM269 634 337 587H415L316 692H224L125 587H201Z" glyph-name="uni1EAB" horiz-adv-x="539" unicode="&#7851;" /><glyph d="M457 255H245L351 576ZM541 0H683L431 706H273L22 0H161L207 138H496ZM351 799 415 751H503L408 855H296L201 751H288ZM404 -142V-41H302V-142Z" glyph-name="uni1EAC" horiz-adv-x="704" unicode="&#7852;" /><glyph d="M238 94C185 94 156 119 156 163C156 181 162 198 173 208C188 224 210 234 277 234C302 234 328 232 351 229V135C316 109 276 94 238 94ZM360 53 380 0H489L476 104V350C476 478 410 532 271 532C196 532 129 515 71 491L99 392C148 413 200 426 253 426C321 426 351 399 351 347V322C325 327 292 330 259 330C160 330 110 311 77 277C50 251 35 211 35 158C35 48 100 -9 195 -9C260 -9 310 13 360 53ZM269 645 334 587H412L316 706H224L128 587H205ZM317 -149V-48H215V-149Z" glyph-name="uni1EAD" horiz-adv-x="539" unicode="&#7853;" /><glyph d="M457 255H245L351 576ZM541 0H683L431 706H273L22 0H161L207 138H496ZM390 877 529 966H370L288 877ZM353 816C313 816 288 832 279 856H209C217 792 267 747 351 747C435 747 487 792 495 856H425C416 832 392 816 353 816Z" glyph-name="uni1EAE" horiz-adv-x="704" unicode="&#7854;" /><glyph d="M238 94C185 94 156 119 156 163C156 181 162 198 173 208C188 224 210 234 277 234C302 234 328 232 351 229V135C316 109 276 94 238 94ZM360 53 380 0H489L476 104V350C476 478 410 532 271 532C196 532 129 515 71 491L99 392C148 413 200 426 253 426C321 426 351 399 351 347V322C325 327 292 330 259 330C160 330 110 311 77 277C50 251 35 211 35 158C35 48 100 -9 195 -9C260 -9 310 13 360 53ZM297 717 434 816H286L213 717ZM271 652C230 652 206 670 199 697H136C140 631 187 583 269 583C351 583 400 631 404 697H341C334 670 311 652 271 652Z" glyph-name="uni1EAF" horiz-adv-x="539" unicode="&#7855;" /><glyph d="M457 255H245L351 576ZM541 0H683L431 706H273L22 0H161L207 138H496ZM416 877 334 966H175L314 877ZM353 816C313 816 288 832 279 856H209C217 792 267 747 351 747C435 747 487 792 495 856H425C416 832 392 816 353 816Z" glyph-name="uni1EB0" horiz-adv-x="704" unicode="&#7856;" /><glyph d="M238 94C185 94 156 119 156 163C156 181 162 198 173 208C188 224 210 234 277 234C302 234 328 232 351 229V135C316 109 276 94 238 94ZM360 53 380 0H489L476 104V350C476 478 410 532 271 532C196 532 129 515 71 491L99 392C148 413 200 426 253 426C321 426 351 399 351 347V322C325 327 292 330 259 330C160 330 110 311 77 277C50 251 35 211 35 158C35 48 100 -9 195 -9C260 -9 310 13 360 53ZM243 717H327L254 816H106ZM271 652C230 652 206 670 199 697H136C140 631 187 583 269 583C351 583 400 631 404 697H341C334 670 311 652 271 652Z" glyph-name="uni1EB1" horiz-adv-x="539" unicode="&#7857;" /><glyph d="M457 255H245L351 576ZM541 0H683L431 706H273L22 0H161L207 138H496ZM231 1000 242 942C277 949 311 954 345 954C381 954 392 949 392 940C392 931 378 923 319 907L333 860C438 887 474 914 474 951C474 988 435 1013 352 1013C309 1013 270 1009 231 1000ZM353 816C313 816 288 832 279 856H209C217 792 267 747 351 747C435 747 487 792 495 856H425C416 832 392 816 353 816Z" glyph-name="uni1EB2" horiz-adv-x="704" unicode="&#7858;" /><glyph d="M238 94C185 94 156 119 156 163C156 181 162 198 173 208C188 224 210 234 277 234C302 234 328 232 351 229V135C316 109 276 94 238 94ZM360 53 380 0H489L476 104V350C476 478 410 532 271 532C196 532 129 515 71 491L99 392C148 413 200 426 253 426C321 426 351 399 351 347V322C325 327 292 330 259 330C160 330 110 311 77 277C50 251 35 211 35 158C35 48 100 -9 195 -9C260 -9 310 13 360 53ZM165 840 177 783C205 791 235 796 261 796C289 796 300 789 300 780C300 770 286 761 236 742L253 698C344 727 376 753 376 791C376 828 339 854 269 854C232 854 199 849 165 840ZM271 652C230 652 206 670 199 697H136C140 631 187 583 269 583C351 583 400 631 404 697H341C334 670 311 652 271 652Z" glyph-name="uni1EB3" horiz-adv-x="539" unicode="&#7859;" /><glyph d="M457 255H245L351 576ZM541 0H683L431 706H273L22 0H161L207 138H496ZM260 880C275 916 284 924 299 924C312 924 324 919 352 904C385 886 399 881 419 881C452 881 479 904 506 978L449 996C434 960 424 952 410 952C396 952 385 957 357 972C323 990 310 995 289 995C256 995 229 972 203 899ZM353 816C313 816 288 832 279 856H209C217 792 267 747 351 747C435 747 487 792 495 856H425C416 832 392 816 353 816Z" glyph-name="uni1EB4" horiz-adv-x="704" unicode="&#7860;" /><glyph d="M238 94C185 94 156 119 156 163C156 181 162 198 173 208C188 224 210 234 277 234C302 234 328 232 351 229V135C316 109 276 94 238 94ZM360 53 380 0H489L476 104V350C476 478 410 532 271 532C196 532 129 515 71 491L99 392C148 413 200 426 253 426C321 426 351 399 351 347V322C325 327 292 330 259 330C160 330 110 311 77 277C50 251 35 211 35 158C35 48 100 -9 195 -9C260 -9 310 13 360 53ZM181 723C197 758 206 766 221 766C233 766 243 762 271 747C304 729 315 724 335 724C367 724 392 748 417 819L365 837C349 802 340 794 325 794C313 794 303 798 275 813C242 830 231 836 211 836C179 836 154 811 129 741ZM271 652C230 652 206 670 199 697H136C140 631 187 583 269 583C351 583 400 631 404 697H341C334 670 311 652 271 652Z" glyph-name="uni1EB5" horiz-adv-x="539" unicode="&#7861;" /><glyph d="M457 255H245L351 576ZM541 0H683L431 706H273L22 0H161L207 138H496ZM353 817C313 817 289 836 280 866H211C218 797 267 747 351 747C436 747 486 797 493 866H424C415 836 392 817 353 817ZM404 -142V-41H302V-142Z" glyph-name="uni1EB6" horiz-adv-x="704" unicode="&#7862;" /><glyph d="M238 94C185 94 156 119 156 163C156 181 162 198 173 208C188 224 210 234 277 234C302 234 328 232 351 229V135C316 109 276 94 238 94ZM360 53 380 0H489L476 104V350C476 478 410 532 271 532C196 532 129 515 71 491L99 392C148 413 200 426 253 426C321 426 351 399 351 347V322C325 327 292 330 259 330C160 330 110 311 77 277C50 251 35 211 35 158C35 48 100 -9 195 -9C260 -9 310 13 360 53ZM271 654C229 654 207 676 200 709H137C141 637 187 583 269 583C352 583 399 637 403 709H340C333 676 312 654 271 654ZM317 -149V-48H215V-149Z" glyph-name="uni1EB7" horiz-adv-x="539" unicode="&#7863;" /><glyph d="M572 0V119H211V299H526V418H211V581H566V700H77V0ZM384 -146V-45H282V-146Z" glyph-name="uni1EB8" horiz-adv-x="620" unicode="&#7864;" /><glyph d="M287 -10C351 -10 418 8 475 40L441 135C394 109 340 94 294 94C219 94 173 138 162 208H495V254C495 427 408 535 268 535C136 535 37 429 37 259C37 77 141 -10 287 -10ZM160 307C168 382 207 432 267 432C328 432 365 383 372 307ZM321 -149V-48H219V-149Z" glyph-name="uni1EB9" horiz-adv-x="528" unicode="&#7865;" /><glyph d="M572 0V119H211V299H526V418H211V581H566V700H77V0ZM196 887 209 826C246 835 284 839 321 839C362 839 374 834 374 824C374 814 360 806 293 787L308 738C419 767 458 793 458 835C458 875 417 901 328 901C281 901 239 896 196 887Z" glyph-name="uni1EBA" horiz-adv-x="620" unicode="&#7866;" /><glyph d="M287 -10C351 -10 418 8 475 40L441 135C394 109 340 94 294 94C219 94 173 138 162 208H495V254C495 427 408 535 268 535C136 535 37 429 37 259C37 77 141 -10 287 -10ZM160 307C168 382 207 432 267 432C328 432 365 383 372 307ZM150 735 165 674C197 683 232 689 263 689C297 689 309 682 309 672C309 660 295 651 234 628L252 580C354 614 389 641 389 684C389 725 348 753 270 753C228 753 188 747 150 735Z" glyph-name="uni1EBB" horiz-adv-x="528" unicode="&#7867;" /><glyph d="M572 0V119H211V299H526V418H211V581H566V700H77V0ZM224 740C241 780 254 788 270 788C285 788 299 783 330 766C368 747 385 741 407 741C445 741 476 766 503 845L442 863C425 823 413 815 396 815C381 815 368 820 336 837C299 856 282 862 259 862C221 862 191 837 164 758Z" glyph-name="uni1EBC" horiz-adv-x="620" unicode="&#7868;" /><glyph d="M287 -10C351 -10 418 8 475 40L441 135C394 109 340 94 294 94C219 94 173 138 162 208H495V254C495 427 408 535 268 535C136 535 37 429 37 259C37 77 141 -10 287 -10ZM160 307C168 382 207 432 267 432C328 432 365 383 372 307ZM170 582C187 622 199 631 215 631C229 631 241 626 272 609C308 590 324 583 346 583C382 583 410 610 437 691L381 708C363 667 352 658 336 658C322 658 310 664 279 681C243 700 227 706 205 706C168 706 140 680 113 599Z" glyph-name="uni1EBD" horiz-adv-x="528" unicode="&#7869;" /><glyph d="M572 0V119H211V299H526V418H211V581H566V700H77V0ZM535 830 674 919H525L444 830ZM328 786 394 745H482L385 842H273L176 745H263Z" glyph-name="uni1EBE" horiz-adv-x="620" unicode="&#7870;" /><glyph d="M287 -10C351 -10 418 8 475 40L441 135C394 109 340 94 294 94C219 94 173 138 162 208H495V254C495 427 408 535 268 535C136 535 37 429 37 259C37 77 141 -10 287 -10ZM160 307C168 382 207 432 267 432C328 432 365 383 372 307ZM453 679 590 779H453L380 679ZM270 637 337 587H415L317 696H225L127 587H203Z" glyph-name="uni1EBF" horiz-adv-x="528" unicode="&#7871;" /><glyph d="M572 0V119H211V299H526V418H211V581H566V700H77V0ZM579 830 497 919H349L488 830ZM328 786 394 745H482L385 842H273L176 745H263Z" glyph-name="uni1EC0" horiz-adv-x="620" unicode="&#7872;" /><glyph d="M287 -10C351 -10 418 8 475 40L441 135C394 109 340 94 294 94C219 94 173 138 162 208H495V254C495 427 408 535 268 535C136 535 37 429 37 259C37 77 141 -10 287 -10ZM160 307C168 382 207 432 267 432C328 432 365 383 372 307ZM422 679H495L422 779H285ZM270 637 337 587H415L317 696H225L127 587H203Z" glyph-name="uni1EC1" horiz-adv-x="528" unicode="&#7873;" /><glyph d="M572 0V119H211V299H526V418H211V581H566V700H77V0ZM385 947 396 891C423 898 452 902 480 902C511 902 522 896 522 887C522 878 509 871 456 855L469 809C559 834 591 860 591 898C591 935 556 960 487 960C450 960 418 956 385 947ZM328 786 394 745H482L385 842H273L176 745H263Z" glyph-name="uni1EC2" horiz-adv-x="620" unicode="&#7874;" /><glyph d="M287 -10C351 -10 418 8 475 40L441 135C394 109 340 94 294 94C219 94 173 138 162 208H495V254C495 427 408 535 268 535C136 535 37 429 37 259C37 77 141 -10 287 -10ZM160 307C168 382 207 432 267 432C328 432 365 383 372 307ZM328 800 340 745C365 752 391 756 415 756C441 756 451 750 451 740C451 729 438 720 390 701L407 658C491 687 519 714 519 751C519 788 485 814 423 814C389 814 359 809 328 800ZM270 637 337 587H415L317 696H225L127 587H203Z" glyph-name="uni1EC3" horiz-adv-x="528" unicode="&#7875;" /><glyph d="M572 0V119H211V299H526V418H211V581H566V700H77V0ZM240 862C255 898 264 906 278 906C292 906 303 901 331 886C365 868 379 863 399 863C432 863 459 887 485 960L428 978C413 942 404 935 389 935C376 935 364 939 336 955C303 972 289 977 269 977C235 977 209 954 182 881ZM328 784 395 745H483L385 839H273L175 745H262Z" glyph-name="uni1EC4" horiz-adv-x="620" unicode="&#7876;" /><glyph d="M287 -10C351 -10 418 8 475 40L441 135C394 109 340 94 294 94C219 94 173 138 162 208H495V254C495 427 408 535 268 535C136 535 37 429 37 259C37 77 141 -10 287 -10ZM160 307C168 382 207 432 267 432C328 432 365 383 372 307ZM185 716C201 751 210 759 224 759C237 759 247 755 275 740C307 723 319 717 338 717C370 717 396 742 421 812L368 830C353 795 344 787 329 787C317 787 307 791 278 806C246 824 235 829 215 829C183 829 158 805 132 734ZM270 634 338 587H416L317 692H225L126 587H202Z" glyph-name="uni1EC5" horiz-adv-x="528" unicode="&#7877;" /><glyph d="M572 0V119H211V299H526V418H211V581H566V700H77V0ZM328 793 392 745H480L385 849H273L178 745H265ZM384 -146V-45H282V-146Z" glyph-name="uni1EC6" horiz-adv-x="620" unicode="&#7878;" /><glyph d="M287 -10C351 -10 418 8 475 40L441 135C394 109 340 94 294 94C219 94 173 138 162 208H495V254C495 427 408 535 268 535C136 535 37 429 37 259C37 77 141 -10 287 -10ZM160 307C168 382 207 432 267 432C328 432 365 383 372 307ZM270 645 335 587H413L317 706H225L129 587H206ZM321 -149V-48H219V-149Z" glyph-name="uni1EC7" horiz-adv-x="528" unicode="&#7879;" /><glyph d="M214 0V700H80V0ZM14 887 27 826C64 835 102 839 139 839C180 839 192 834 192 824C192 814 178 806 111 787L126 738C237 767 276 793 276 835C276 875 235 901 146 901C99 901 57 896 14 887Z" glyph-name="uni1EC8" horiz-adv-x="294" unicode="&#7880;" /><glyph d="M194 0V523H67V0ZM9 732 24 671C56 680 91 686 122 686C156 686 168 679 168 669C168 657 154 648 93 625L111 577C213 611 248 638 248 681C248 722 207 750 129 750C87 750 47 744 9 732Z" glyph-name="uni1EC9" horiz-adv-x="261" unicode="&#7881;" /><glyph d="M214 0V700H80V0ZM198 -146V-45H96V-146Z" glyph-name="uni1ECA" horiz-adv-x="294" unicode="&#7882;" /><glyph d="M197 612V714H64V612ZM194 0V523H67V0ZM182 -146V-45H80V-146Z" glyph-name="uni1ECB" horiz-adv-x="261" unicode="&#7883;" /><glyph d="M673 351C673 572 545 712 359 712C172 712 44 571 44 349C44 128 172 -12 358 -12C544 -12 673 129 673 351ZM536 349C536 197 465 104 359 104C253 104 181 198 181 351C181 503 252 596 358 596C464 596 536 502 536 349ZM409 -153V-52H307V-153Z" glyph-name="uni1ECC" horiz-adv-x="717" unicode="&#7884;" /><glyph d="M514 262C514 432 412 535 276 535C140 535 37 431 37 260C37 91 139 -12 275 -12C411 -12 514 92 514 262ZM387 261C387 158 343 93 276 93C209 93 164 159 164 262C164 364 208 430 275 430C342 430 387 364 387 261ZM326 -149V-48H224V-149Z" glyph-name="uni1ECD" horiz-adv-x="551" unicode="&#7885;" /><glyph d="M673 351C673 572 545 712 359 712C172 712 44 571 44 349C44 128 172 -12 358 -12C544 -12 673 129 673 351ZM536 349C536 197 465 104 359 104C253 104 181 198 181 351C181 503 252 596 358 596C464 596 536 502 536 349ZM225 894 238 833C275 842 313 846 350 846C391 846 403 841 403 831C403 821 389 813 322 794L337 745C448 774 487 800 487 842C487 882 446 908 357 908C310 908 268 903 225 894Z" glyph-name="uni1ECE" horiz-adv-x="717" unicode="&#7886;" /><glyph d="M514 262C514 432 412 535 276 535C140 535 37 431 37 260C37 91 139 -12 275 -12C411 -12 514 92 514 262ZM387 261C387 158 343 93 276 93C209 93 164 159 164 262C164 364 208 430 275 430C342 430 387 364 387 261ZM154 735 169 674C201 683 236 689 267 689C301 689 313 682 313 672C313 660 299 651 238 628L256 580C358 614 393 641 393 684C393 725 352 753 274 753C232 753 192 747 154 735Z" glyph-name="uni1ECF" horiz-adv-x="551" unicode="&#7887;" /><glyph d="M673 351C673 572 545 712 359 712C172 712 44 571 44 349C44 128 172 -12 358 -12C544 -12 673 129 673 351ZM536 349C536 197 465 104 359 104C253 104 181 198 181 351C181 503 252 596 358 596C464 596 536 502 536 349ZM564 837 703 926H554L473 837ZM357 793 423 752H511L414 849H302L205 752H292Z" glyph-name="uni1ED0" horiz-adv-x="717" unicode="&#7888;" /><glyph d="M514 262C514 432 412 535 276 535C140 535 37 431 37 260C37 91 139 -12 275 -12C411 -12 514 92 514 262ZM387 261C387 158 343 93 276 93C209 93 164 159 164 262C164 364 208 430 275 430C342 430 387 364 387 261ZM457 679 594 779H457L384 679ZM274 637 341 587H419L321 696H229L131 587H207Z" glyph-name="uni1ED1" horiz-adv-x="551" unicode="&#7889;" /><glyph d="M673 351C673 572 545 712 359 712C172 712 44 571 44 349C44 128 172 -12 358 -12C544 -12 673 129 673 351ZM536 349C536 197 465 104 359 104C253 104 181 198 181 351C181 503 252 596 358 596C464 596 536 502 536 349ZM608 837 526 926H378L517 837ZM357 793 423 752H511L414 849H302L205 752H292Z" glyph-name="uni1ED2" horiz-adv-x="717" unicode="&#7890;" /><glyph d="M514 262C514 432 412 535 276 535C140 535 37 431 37 260C37 91 139 -12 275 -12C411 -12 514 92 514 262ZM387 261C387 158 343 93 276 93C209 93 164 159 164 262C164 364 208 430 275 430C342 430 387 364 387 261ZM426 679H499L426 779H289ZM274 637 341 587H419L321 696H229L131 587H207Z" glyph-name="uni1ED3" horiz-adv-x="551" unicode="&#7891;" /><glyph d="M673 351C673 572 545 712 359 712C172 712 44 571 44 349C44 128 172 -12 358 -12C544 -12 673 129 673 351ZM536 349C536 197 465 104 359 104C253 104 181 198 181 351C181 503 252 596 358 596C464 596 536 502 536 349ZM414 954 425 898C452 905 481 909 509 909C540 909 551 903 551 894C551 885 538 878 485 862L498 816C588 841 620 867 620 905C620 942 585 967 516 967C479 967 447 963 414 954ZM357 793 423 752H511L414 849H302L205 752H292Z" glyph-name="uni1ED4" horiz-adv-x="717" unicode="&#7892;" /><glyph d="M514 262C514 432 412 535 276 535C140 535 37 431 37 260C37 91 139 -12 275 -12C411 -12 514 92 514 262ZM387 261C387 158 343 93 276 93C209 93 164 159 164 262C164 364 208 430 275 430C342 430 387 364 387 261ZM332 800 344 745C369 752 395 756 419 756C445 756 455 750 455 740C455 729 442 720 394 701L411 658C495 687 523 714 523 751C523 788 489 814 427 814C393 814 363 809 332 800ZM274 637 341 587H419L321 696H229L131 587H207Z" glyph-name="uni1ED5" horiz-adv-x="551" unicode="&#7893;" /><glyph d="M673 351C673 572 545 712 359 712C172 712 44 571 44 349C44 128 172 -12 358 -12C544 -12 673 129 673 351ZM536 349C536 197 465 104 359 104C253 104 181 198 181 351C181 503 252 596 358 596C464 596 536 502 536 349ZM269 869C284 905 293 913 307 913C321 913 332 908 360 893C394 875 408 870 428 870C461 870 488 894 514 967L457 985C442 949 433 942 418 942C405 942 393 946 365 962C332 979 318 984 298 984C264 984 238 961 211 888ZM357 791 424 752H512L414 846H302L204 752H291Z" glyph-name="uni1ED6" horiz-adv-x="717" unicode="&#7894;" /><glyph d="M514 262C514 432 412 535 276 535C140 535 37 431 37 260C37 91 139 -12 275 -12C411 -12 514 92 514 262ZM387 261C387 158 343 93 276 93C209 93 164 159 164 262C164 364 208 430 275 430C342 430 387 364 387 261ZM189 716C205 751 214 759 228 759C241 759 251 755 279 740C311 723 323 717 342 717C374 717 400 742 425 812L372 830C357 795 348 787 333 787C321 787 311 791 282 806C250 824 239 829 219 829C187 829 162 805 136 734ZM274 634 342 587H420L321 692H229L130 587H206Z" glyph-name="uni1ED7" horiz-adv-x="551" unicode="&#7895;" /><glyph d="M673 351C673 572 545 712 359 712C172 712 44 571 44 349C44 128 172 -12 358 -12C544 -12 673 129 673 351ZM536 349C536 197 465 104 359 104C253 104 181 198 181 351C181 503 252 596 358 596C464 596 536 502 536 349ZM357 800 421 752H509L414 856H302L207 752H294ZM409 -153V-52H307V-153Z" glyph-name="uni1ED8" horiz-adv-x="717" unicode="&#7896;" /><glyph d="M514 262C514 432 412 535 276 535C140 535 37 431 37 260C37 91 139 -12 275 -12C411 -12 514 92 514 262ZM387 261C387 158 343 93 276 93C209 93 164 159 164 262C164 364 208 430 275 430C342 430 387 364 387 261ZM274 645 339 587H417L321 706H229L133 587H210ZM326 -149V-48H224V-149Z" glyph-name="uni1ED9" horiz-adv-x="551" unicode="&#7897;" /><glyph d="M392 753 524 852H378L291 753ZM358 -12C544 -12 673 129 673 351C673 484 624 585 543 644C625 659 671 707 671 777C671 801 666 825 656 847L567 822C573 808 576 795 576 781C576 731 535 705 450 705C421 705 389 709 359 709C172 709 44 569 44 349C44 128 172 -12 358 -12ZM536 349C536 197 465 104 359 104C253 104 181 198 181 351C181 502 252 595 358 595C464 595 536 502 536 349Z" glyph-name="uni1EDA" horiz-adv-x="717" unicode="&#7898;" /><glyph d="M289 587 415 702H285L199 587ZM275 -12C411 -12 514 92 514 262C514 358 479 431 419 476C483 491 520 533 520 596C520 619 515 641 505 662L420 638C426 625 429 613 429 599C429 553 393 528 328 528C312 528 293 530 276 530C140 530 37 428 37 260C37 91 139 -12 275 -12ZM387 261C387 158 343 93 276 93C209 93 164 159 164 261C164 363 208 427 275 427C342 427 387 362 387 261Z" glyph-name="uni1EDB" horiz-adv-x="551" unicode="&#7899;" /><glyph d="M358 -12C544 -12 673 129 673 351C673 484 624 585 543 644C625 659 671 707 671 777C671 801 666 825 656 847L567 822C573 808 576 795 576 781C576 731 535 705 450 705C421 705 389 709 359 709C172 709 44 569 44 349C44 128 172 -12 358 -12ZM536 349C536 197 465 104 359 104C253 104 181 198 181 351C181 502 252 595 358 595C464 595 536 502 536 349ZM324 752H427L336 851H175Z" glyph-name="uni1EDC" horiz-adv-x="717" unicode="&#7900;" /><glyph d="M275 -12C411 -12 514 92 514 262C514 358 479 431 419 476C483 491 520 533 520 596C520 619 515 641 505 662L420 638C426 625 429 613 429 599C429 553 393 528 328 528C312 528 293 530 276 530C140 530 37 428 37 260C37 91 139 -12 275 -12ZM387 261C387 158 343 93 276 93C209 93 164 159 164 261C164 363 208 427 275 427C342 427 387 362 387 261ZM252 587H336L250 702H100Z" glyph-name="uni1EDD" horiz-adv-x="551" unicode="&#7901;" /><glyph d="M358 -12C544 -12 673 129 673 351C673 484 624 585 543 644C625 659 671 707 671 777C671 801 666 825 656 847L567 822C573 808 576 795 576 781C576 731 535 705 450 705C421 705 389 709 359 709C172 709 44 569 44 349C44 128 172 -12 358 -12ZM536 349C536 197 465 104 359 104C253 104 181 198 181 351C181 502 252 595 358 595C464 595 536 502 536 349ZM225 894 238 833C275 842 313 846 350 846C391 846 403 841 403 831C403 821 389 813 322 794L337 745C448 774 487 800 487 842C487 882 446 908 357 908C310 908 268 903 225 894Z" glyph-name="uni1EDE" horiz-adv-x="717" unicode="&#7902;" /><glyph d="M145 735 160 674C192 683 226 690 257 690C290 690 302 682 302 672C302 660 288 651 228 629L245 580C346 614 380 641 380 684C380 725 340 753 263 753C222 753 183 747 145 735ZM275 -12C411 -12 514 92 514 262C514 358 479 431 419 476C483 491 520 533 520 596C520 619 515 641 505 662L420 638C426 625 429 613 429 599C429 553 393 528 328 528C312 528 293 530 276 530C140 530 37 428 37 260C37 91 139 -12 275 -12ZM387 261C387 158 343 93 276 93C209 93 164 159 164 261C164 363 208 427 275 427C342 427 387 362 387 261Z" glyph-name="uni1EDF" horiz-adv-x="551" unicode="&#7903;" /><glyph d="M244 748C261 786 273 795 289 795C304 795 317 790 348 774C384 755 401 749 423 749C460 749 490 773 517 852L457 870C440 832 428 823 412 823C397 823 384 828 353 845C316 863 300 869 278 869C240 869 211 845 184 766ZM358 -12C544 -12 673 129 673 351C673 484 624 585 543 644C625 659 671 707 671 777C671 801 666 825 656 847L567 822C573 808 576 795 576 781C576 731 535 705 450 705C421 705 389 709 359 709C172 709 44 569 44 349C44 128 172 -12 358 -12ZM536 349C536 197 465 104 359 104C253 104 181 198 181 351C181 502 252 595 358 595C464 595 536 502 536 349Z" glyph-name="uni1EE0" horiz-adv-x="717" unicode="&#7904;" /><glyph d="M161 582C176 621 186 631 200 631C212 631 222 626 250 609C282 590 295 583 314 583C347 583 372 610 396 691L342 708C327 669 318 659 303 659C291 659 281 664 254 681C221 700 208 706 189 706C156 706 132 680 107 599ZM275 -12C411 -12 514 92 514 262C514 358 479 431 419 476C483 491 520 533 520 596C520 619 515 641 505 662L420 638C426 625 429 613 429 599C429 553 393 528 328 528C312 528 293 530 276 530C140 530 37 428 37 260C37 91 139 -12 275 -12ZM387 261C387 158 343 93 276 93C209 93 164 159 164 261C164 363 208 427 275 427C342 427 387 362 387 261Z" glyph-name="uni1EE1" horiz-adv-x="551" unicode="&#7905;" /><glyph d="M358 -12C544 -12 673 129 673 351C673 484 624 585 543 644C625 659 671 707 671 777C671 801 666 825 656 847L567 822C573 808 576 795 576 781C576 731 535 705 450 705C421 705 389 709 359 709C172 709 44 569 44 349C44 128 172 -12 358 -12ZM536 349C536 197 465 104 359 104C253 104 181 198 181 351C181 502 252 595 358 595C464 595 536 502 536 349ZM409 -153V-52H307V-153Z" glyph-name="uni1EE2" horiz-adv-x="717" unicode="&#7906;" /><glyph d="M275 -12C411 -12 514 92 514 262C514 358 479 431 419 476C483 491 520 533 520 596C520 619 515 641 505 662L420 638C426 625 429 613 429 599C429 553 393 528 328 528C312 528 293 530 276 530C140 530 37 428 37 260C37 91 139 -12 275 -12ZM387 261C387 158 343 93 276 93C209 93 164 159 164 261C164 363 208 427 275 427C342 427 387 362 387 261ZM326 -149V-48H224V-149Z" glyph-name="uni1EE3" horiz-adv-x="551" unicode="&#7907;" /><glyph d="M626 274V700H493V268C493 157 433 104 348 104C264 104 203 157 203 269V700H68V274C68 79 181 -11 346 -11C512 -11 626 79 626 274ZM398 -153V-52H296V-153Z" glyph-name="uni1EE4" horiz-adv-x="694" unicode="&#7908;" /><glyph d="M386 52 407 0H505V523H379V143C348 121 307 102 270 102C216 102 189 134 189 192V523H62V162C62 50 118 -9 221 -9C289 -9 340 18 386 52ZM338 -149V-48H236V-149Z" glyph-name="uni1EE5" horiz-adv-x="571" unicode="&#7909;" /><glyph d="M626 274V700H493V268C493 157 433 104 348 104C264 104 203 157 203 269V700H68V274C68 79 181 -11 346 -11C512 -11 626 79 626 274ZM214 883 227 822C264 831 302 835 339 835C380 835 392 830 392 820C392 810 378 802 311 783L326 734C437 763 476 789 476 831C476 871 435 897 346 897C299 897 257 892 214 883Z" glyph-name="uni1EE6" horiz-adv-x="694" unicode="&#7910;" /><glyph d="M386 52 407 0H505V523H379V143C348 121 307 102 270 102C216 102 189 134 189 192V523H62V162C62 50 118 -9 221 -9C289 -9 340 18 386 52ZM163 728 178 667C210 676 245 682 276 682C310 682 322 675 322 665C322 653 308 644 247 621L265 573C367 607 402 634 402 677C402 718 361 746 283 746C241 746 201 740 163 728Z" glyph-name="uni1EE7" horiz-adv-x="571" unicode="&#7911;" /><glyph d="M346 -11C512 -11 626 79 626 274V645C700 667 740 714 740 777C740 801 735 825 725 847L636 822C642 808 644 795 644 781C644 728 602 700 514 700H493V268C493 157 433 104 348 104C264 104 203 157 203 269V700H68V274C68 79 181 -11 346 -11ZM380 741 529 840H368L277 741Z" glyph-name="uni1EE8" horiz-adv-x="724" unicode="&#7912;" /><glyph d="M313 575 459 690H313L227 575ZM386 52 407 0H505V473C569 495 604 538 604 596C604 619 599 641 589 662L504 638C510 625 512 613 512 599C512 550 472 523 393 523H379V144C348 122 307 103 270 103C216 103 189 134 189 192V523H62V163C62 51 118 -8 221 -8C289 -8 340 19 386 52Z" glyph-name="uni1EE9" horiz-adv-x="594" unicode="&#7913;" /><glyph d="M346 -11C512 -11 626 79 626 274V645C700 667 740 714 740 777C740 801 735 825 725 847L636 822C642 808 644 795 644 781C644 728 602 700 514 700H493V268C493 157 433 104 348 104C264 104 203 157 203 269V700H68V274C68 79 181 -11 346 -11ZM312 741H415L324 840H163Z" glyph-name="uni1EEA" horiz-adv-x="724" unicode="&#7914;" /><glyph d="M386 52 407 0H505V473C569 495 604 538 604 596C604 619 599 641 589 662L504 638C510 625 512 613 512 599C512 550 472 523 393 523H379V144C348 122 307 103 270 103C216 103 189 134 189 192V523H62V163C62 51 118 -8 221 -8C289 -8 340 19 386 52ZM261 580H345L259 695H109Z" glyph-name="uni1EEB" horiz-adv-x="594" unicode="&#7915;" /><glyph d="M346 -11C512 -11 626 79 626 274V645C700 667 740 714 740 777C740 801 735 825 725 847L636 822C642 808 644 795 644 781C644 728 602 700 514 700H493V268C493 157 433 104 348 104C264 104 203 157 203 269V700H68V274C68 79 181 -11 346 -11ZM213 883 226 822C263 831 301 835 338 835C379 835 391 830 391 820C391 810 377 802 310 783L325 734C436 763 475 789 475 831C475 871 434 897 345 897C298 897 256 892 213 883Z" glyph-name="uni1EEC" horiz-adv-x="724" unicode="&#7916;" /><glyph d="M386 52 407 0H505V473C569 495 604 538 604 596C604 619 599 641 589 662L504 638C510 625 512 613 512 599C512 550 472 523 393 523H379V144C348 122 307 103 270 103C216 103 189 134 189 192V523H62V163C62 51 118 -8 221 -8C289 -8 340 19 386 52ZM163 728 178 667C210 676 245 682 276 682C310 682 322 675 322 665C322 653 308 644 247 621L265 573C367 607 402 634 402 677C402 718 361 746 283 746C241 746 201 740 163 728Z" glyph-name="uni1EED" horiz-adv-x="594" unicode="&#7917;" /><glyph d="M346 -11C512 -11 626 79 626 274V645C700 667 740 714 740 777C740 801 735 825 725 847L636 822C642 808 644 795 644 781C644 728 602 700 514 700H493V268C493 157 433 104 348 104C264 104 203 157 203 269V700H68V274C68 79 181 -11 346 -11ZM241 740C258 780 271 788 287 788C302 788 316 783 347 766C385 747 402 741 424 741C462 741 493 766 520 845L459 863C442 823 430 815 413 815C398 815 385 820 353 837C316 856 299 862 276 862C238 862 208 837 181 758Z" glyph-name="uni1EEE" horiz-adv-x="724" unicode="&#7918;" /><glyph d="M182 574C200 613 211 623 227 623C241 623 252 618 283 600C319 581 334 575 356 575C392 575 419 602 446 682L390 699C372 659 361 650 345 650C331 650 320 655 289 672C253 691 238 698 216 698C180 698 152 671 126 590ZM386 52 407 0H505V473C569 495 604 538 604 596C604 619 599 641 589 662L504 638C510 625 512 613 512 599C512 550 472 523 393 523H379V144C348 122 307 103 270 103C216 103 189 134 189 192V523H62V163C62 51 118 -8 221 -8C289 -8 340 19 386 52Z" glyph-name="uni1EEF" horiz-adv-x="594" unicode="&#7919;" /><glyph d="M346 -11C512 -11 626 79 626 274V645C700 667 740 714 740 777C740 801 735 825 725 847L636 822C642 808 644 795 644 781C644 728 602 700 514 700H493V268C493 157 433 104 348 104C264 104 203 157 203 269V700H68V274C68 79 181 -11 346 -11ZM397 -153V-52H295V-153Z" glyph-name="uni1EF0" horiz-adv-x="724" unicode="&#7920;" /><glyph d="M386 52 407 0H505V473C569 495 604 538 604 596C604 619 599 641 589 662L504 638C510 625 512 613 512 599C512 550 472 523 393 523H379V144C348 122 307 103 270 103C216 103 189 134 189 192V523H62V163C62 51 118 -8 221 -8C289 -8 340 19 386 52ZM338 -149V-48H236V-149Z" glyph-name="uni1EF1" horiz-adv-x="594" unicode="&#7921;" /><glyph d="M392 0V265L638 700H493L326 389L158 700H11L257 265V0ZM375 -146V-45H273V-146Z" glyph-name="uni1EF4" horiz-adv-x="649" unicode="&#7924;" /><glyph d="M71 -179C248 -138 305 -89 361 75L513 523H385L270 128L152 523H21L195 13C158 -33 110 -60 43 -77ZM443 -176V-75H341V-176Z" glyph-name="uni1EF5" horiz-adv-x="528" unicode="&#7925;" /><glyph d="M392 0V265L638 700H493L326 389L158 700H11L257 265V0ZM191 883 204 822C241 831 279 835 316 835C357 835 369 830 369 820C369 810 355 802 288 783L303 734C414 763 453 789 453 831C453 871 412 897 323 897C276 897 234 892 191 883Z" glyph-name="uni1EF6" horiz-adv-x="649" unicode="&#7926;" /><glyph d="M71 -179C248 -138 305 -89 361 75L513 523H385L270 128L152 523H21L195 13C158 -33 110 -60 43 -77ZM146 728 161 667C193 676 228 682 259 682C293 682 305 675 305 665C305 653 291 644 230 621L248 573C350 607 385 634 385 677C385 718 344 746 266 746C224 746 184 740 146 728Z" glyph-name="uni1EF7" horiz-adv-x="528" unicode="&#7927;" /><glyph d="M392 0V265L638 700H493L326 389L158 700H11L257 265V0ZM219 740C236 780 249 788 265 788C280 788 294 783 325 766C363 747 380 741 402 741C440 741 471 766 498 845L437 863C420 823 408 815 391 815C376 815 363 820 331 837C294 856 277 862 254 862C216 862 186 837 159 758Z" glyph-name="uni1EF8" horiz-adv-x="649" unicode="&#7928;" /><glyph d="M71 -179C248 -138 305 -89 361 75L513 523H385L270 128L152 523H21L195 13C158 -33 110 -60 43 -77ZM166 579C183 619 195 628 211 628C225 628 237 623 268 606C304 587 320 580 342 580C378 580 406 607 433 688L377 705C359 664 348 655 332 655C318 655 306 661 275 678C239 697 223 703 201 703C164 703 136 677 109 596Z" glyph-name="uni1EF9" horiz-adv-x="528" unicode="&#7929;" /><glyph glyph-name="uni2002" horiz-adv-x="500" unicode="&#8194;" /><glyph glyph-name="uni2003" horiz-adv-x="1000" unicode="&#8195;" /><glyph glyph-name="uni2004" horiz-adv-x="333" unicode="&#8196;" /><glyph glyph-name="uni2005" horiz-adv-x="250" unicode="&#8197;" /><glyph glyph-name="uni2007" horiz-adv-x="564" unicode="&#8199;" /><glyph glyph-name="uni2009" horiz-adv-x="125" unicode="&#8201;" /><glyph glyph-name="uni200A" horiz-adv-x="42" unicode="&#8202;" /><glyph d="M300 249V359H40V249Z" glyph-name="uni2011" horiz-adv-x="339" unicode="&#8209;" /><glyph d="M300 304V414H40V304Z" glyph-name="uni2011.cap" horiz-adv-x="339" /><glyph d="M488 306V412H77V306Z" glyph-name="uni2012" horiz-adv-x="564" unicode="&#8210;" /><glyph d="M755 251V357H40V251Z" glyph-name="uni2015" horiz-adv-x="795" unicode="&#8213;" /><glyph d="M755 306V412H40V306Z" glyph-name="uni2015.cap" horiz-adv-x="795" /><glyph d="M27 724V716C27 606 74 518 170 434L212 465C166 539 150 597 150 724Z" glyph-name="uni201B" horiz-adv-x="227" unicode="&#8219;" /><glyph d="M27 724V715C27 606 71 519 164 434L204 465C158 539 143 598 143 724ZM216 724V715C216 606 260 519 353 434L393 465C347 539 332 598 332 724Z" glyph-name="uni201F" horiz-adv-x="408" unicode="&#8223;" /><glyph d="M488 0V144H359V0ZM206 0V144H77V0Z" glyph-name="uni2025" horiz-adv-x="564" unicode="&#8229;" /><glyph glyph-name="uni202F" horiz-adv-x="125" unicode="&#8239;" /><glyph d="M232 409C338 409 414 487 414 626C414 765 338 843 232 843C126 843 51 765 51 626C51 487 126 409 232 409ZM232 766C281 766 318 721 318 625C318 530 281 486 232 486C184 486 146 532 146 627C146 723 184 766 232 766Z" glyph-name="uni2070" horiz-adv-x="464" unicode="&#8304;" /><glyph d="M349 416V498H416V568H349V838H222L36 571L40 498H258V416ZM260 567H122L260 770Z" glyph-name="uni2074" horiz-adv-x="449" unicode="&#8308;" /><glyph d="M374 577C374 642 326 683 249 683C213 683 179 674 147 659L154 762H368V836H77L63 612L126 586C158 604 191 613 221 613C258 613 280 598 280 571C280 528 222 495 55 482L67 408C287 422 374 480 374 577Z" glyph-name="uni2075" horiz-adv-x="423" unicode="&#8309;" /><glyph d="M222 409C324 409 390 468 390 553C390 630 334 679 252 679C214 679 177 671 146 655C163 703 209 739 320 777L287 847C125 795 48 706 48 584C48 475 114 409 222 409ZM223 480C171 480 138 514 138 575C138 584 139 593 140 601C165 610 193 616 218 616C270 616 301 591 301 549C301 507 269 480 223 480Z" glyph-name="uni2076" horiz-adv-x="434" unicode="&#8310;" /><glyph d="M164 409 363 751V836H48V756H264L76 441Z" glyph-name="uni2077" horiz-adv-x="405" unicode="&#8311;" /><glyph d="M221 410C329 410 395 461 395 530C395 581 364 615 307 633C354 652 383 682 383 730C383 790 324 842 221 842C118 842 58 790 58 730C58 682 87 652 134 633C77 615 47 581 47 530C47 461 111 410 221 410ZM221 663C179 663 146 685 146 720C146 753 174 775 221 775C266 775 295 753 295 720C295 685 264 663 221 663ZM221 477C171 477 137 502 137 540C137 579 171 603 221 603C270 603 304 579 304 540C304 502 271 477 221 477Z" glyph-name="uni2078" horiz-adv-x="441" unicode="&#8312;" /><glyph d="M212 843C110 843 44 784 44 699C44 622 100 573 182 573C220 573 257 581 288 597C271 549 225 513 114 475L147 405C309 457 386 546 386 668C386 777 320 843 212 843ZM211 772C263 772 296 738 296 677C296 668 295 659 294 651C269 642 241 636 216 636C164 636 133 661 133 703C133 745 165 772 211 772Z" glyph-name="uni2079" horiz-adv-x="434" unicode="&#8313;" /><glyph d="M232 -163C338 -163 414 -85 414 54C414 193 338 271 232 271C126 271 51 193 51 54C51 -85 126 -163 232 -163ZM232 194C281 194 318 149 318 53C318 -42 281 -86 232 -86C184 -86 146 -40 146 55C146 151 184 194 232 194Z" glyph-name="uni2080" horiz-adv-x="464" unicode="&#8320;" /><glyph d="M258 -156V267H191L39 211L58 134L163 168V-156Z" glyph-name="uni2081" horiz-adv-x="343" unicode="&#8321;" /><glyph d="M370 -156V-79H173L274 15C337 68 362 107 362 155C362 225 305 270 218 270C155 270 97 244 49 200L87 132C130 169 171 190 208 190C243 190 264 172 264 144C264 121 248 99 214 67L40 -92L56 -156Z" glyph-name="uni2082" horiz-adv-x="415" unicode="&#8322;" /><glyph d="M49 -160C275 -154 368 -106 368 -25C368 28 328 58 242 68C324 93 362 126 362 177C362 232 313 270 222 270C160 270 101 255 50 231L72 163C117 184 165 196 205 196C244 196 264 183 264 162C264 134 228 112 113 83L122 26C237 25 268 9 268 -21C268 -56 218 -80 49 -87Z" glyph-name="uni2083" horiz-adv-x="414" unicode="&#8323;" /><glyph d="M349 -156V-74H416V-4H349V266H222L36 -1L40 -74H258V-156ZM260 -5H122L260 198Z" glyph-name="uni2084" horiz-adv-x="449" unicode="&#8324;" /><glyph d="M374 5C374 70 326 111 249 111C213 111 179 102 147 87L154 190H368V264H77L63 40L126 14C158 32 191 41 221 41C258 41 280 26 280 -1C280 -44 222 -77 55 -90L67 -164C287 -150 374 -92 374 5Z" glyph-name="uni2085" horiz-adv-x="423" unicode="&#8325;" /><glyph d="M222 -163C324 -163 390 -104 390 -19C390 58 334 107 252 107C214 107 177 99 146 83C163 131 209 167 320 205L287 275C125 223 48 134 48 12C48 -97 114 -163 222 -163ZM223 -92C171 -92 138 -58 138 3C138 12 139 21 140 29C165 38 193 44 218 44C270 44 301 19 301 -23C301 -65 269 -92 223 -92Z" glyph-name="uni2086" horiz-adv-x="434" unicode="&#8326;" /><glyph d="M164 -163 363 179V264H48V184H264L76 -131Z" glyph-name="uni2087" horiz-adv-x="405" unicode="&#8327;" /><glyph d="M221 -162C329 -162 395 -111 395 -42C395 9 364 43 307 61C354 80 383 110 383 158C383 218 324 270 221 270C118 270 58 218 58 158C58 110 87 80 134 61C77 43 47 9 47 -42C47 -111 111 -162 221 -162ZM221 91C179 91 146 113 146 148C146 181 174 203 221 203C266 203 295 181 295 148C295 113 264 91 221 91ZM221 -95C171 -95 137 -70 137 -32C137 7 171 31 221 31C270 31 304 7 304 -32C304 -70 271 -95 221 -95Z" glyph-name="uni2088" horiz-adv-x="441" unicode="&#8328;" /><glyph d="M212 271C110 271 44 212 44 127C44 50 100 1 182 1C220 1 257 9 288 25C271 -23 225 -59 114 -97L147 -167C309 -115 386 -26 386 96C386 205 320 271 212 271ZM211 200C263 200 296 166 296 105C296 96 295 87 294 79C269 70 241 64 216 64C164 64 133 89 133 131C133 173 165 200 211 200Z" glyph-name="uni2089" horiz-adv-x="434" unicode="&#8329;" /><glyph d="M364 282H235L234 526ZM542 183 412 427H541ZM516 0H660V219H739V289H660V419H739V489H660V700H540V489H379L265 700H116V489H37V419H116V289H37V219H116V0H236V219H397Z" glyph-name="uni20A6" horiz-adv-x="776" unicode="&#8358;" /><glyph d="M572 275H437L505 540ZM711 146 643 430H768ZM303 146 246 430H372ZM643 -5H787L839 213H973V283H855L888 422H973V492H905L954 700H822L779 492H629L578 700H437L386 492H235L193 700H56L105 492H37V422H122L155 283H37V213H171L223 -5H366L422 213H587Z" glyph-name="uni20A9" horiz-adv-x="1010" unicode="&#8361;" /><glyph d="M250 589H334C427 589 476 553 485 476H250ZM250 301V414H484C473 340 421 301 330 301ZM250 193H331C491 193 600 260 618 410H695V480H620C610 627 510 700 336 700H116V480H37V410H116V0H250Z" glyph-name="uni20B1" horiz-adv-x="707" unicode="&#8369;" /><glyph d="M564 2 406 182C375 216 345 239 307 254C406 283 467 342 484 417H563V503H485C474 551 445 589 399 614H563V700H53V614H161C271 614 335 574 350 500H53V421H347C326 349 252 306 144 306H53V220H125C187 220 223 203 265 155L398 0H564Z" glyph-name="uni20B9" horiz-adv-x="614" unicode="&#8377;" /><glyph d="M227 0C455 0 557 132 566 310H492C479 201 403 122 264 122H250V286L451 393V471L250 364V452L451 559V637L250 530V700H116V466L37 425V348L116 388V300L37 260V182L116 222V0Z" glyph-name="uni20BA" horiz-adv-x="604" unicode="&#8378;" /><glyph d="M494 462C494 370 432 325 332 325H250V589H337C440 589 494 549 494 462ZM537 105V175H250V255H338C515 255 629 328 629 482C629 627 524 700 339 700H116V326H37V256H116V175H37V105H116V0H250V105Z" glyph-name="uni20BD" horiz-adv-x="665" unicode="&#8381;" /><glyph d="M373 -23C558 -23 697 130 697 350C697 570 558 723 373 723C187 723 48 570 48 350C48 130 187 -23 373 -23ZM373 690C537 690 660 551 660 350C660 149 537 10 373 10C208 10 85 149 85 350C85 551 208 690 373 690ZM331 163V273H376C474 273 540 316 540 411C540 496 482 540 379 540H250V163ZM331 339V473H378C431 473 457 451 457 407C457 362 430 339 375 339Z" glyph-name="uni2117" horiz-adv-x="745" unicode="&#8471;" /><glyph d="M372 469H421L477 628L485 469H534L522 700H453L397 539L341 700H272L260 469H308L316 630ZM226 537C226 577 203 594 143 609C104 620 96 627 96 640C96 652 106 662 132 662C156 662 183 654 203 645L216 687C194 697 164 704 133 704C76 704 46 675 46 635C46 596 70 580 128 565C168 554 176 546 176 533C176 517 163 508 133 508C103 508 73 517 48 530L34 488C61 475 95 466 131 466C188 466 226 490 226 537Z" glyph-name="uni2120" horiz-adv-x="571" unicode="&#8480;" /><glyph d="M243 280V703H176L24 647L43 570L148 604V280ZM154 0H215L424 337L656 700H596L386 363ZM853 161C853 226 805 267 728 267C692 267 658 258 626 243L633 346H847V420H556L542 196L605 170C637 188 670 197 700 197C737 197 759 182 759 155C759 112 701 79 534 66L546 -8C766 6 853 64 853 161Z" glyph-name="uni2155" horiz-adv-x="887" unicode="&#8533;" /><glyph d="M355 280V357H158L259 451C322 504 347 543 347 591C347 661 290 706 203 706C140 706 82 680 34 636L72 568C115 605 156 626 193 626C228 626 249 608 249 580C249 557 233 535 199 503L25 344L41 280ZM249 0H310L519 337L751 700H691L481 363ZM949 161C949 226 901 267 824 267C788 267 754 258 722 243L729 346H943V420H652L638 196L701 170C733 188 766 197 796 197C833 197 855 182 855 155C855 112 797 79 630 66L642 -8C862 6 949 64 949 161Z" glyph-name="uni2156" horiz-adv-x="983" unicode="&#8534;" /><glyph d="M34 276C260 282 353 330 353 411C353 464 313 494 227 504C309 529 347 562 347 613C347 668 298 706 207 706C145 706 86 691 35 667L57 599C102 620 150 632 190 632C229 632 249 619 249 598C249 570 213 548 98 519L107 462C222 461 253 445 253 415C253 380 203 356 34 349ZM202 0H263L472 337L704 700H644L434 363ZM902 161C902 226 854 267 777 267C741 267 707 258 675 243L682 346H896V420H605L591 196L654 170C686 188 719 197 749 197C786 197 808 182 808 155C808 112 750 79 583 66L595 -8C815 6 902 64 902 161Z" glyph-name="uni2157" horiz-adv-x="936" unicode="&#8535;" /><glyph d="M334 280V362H401V432H334V702H207L21 435L25 362H243V280ZM245 431H107L245 634ZM257 0H318L527 337L759 700H699L489 363ZM957 161C957 226 909 267 832 267C796 267 762 258 730 243L737 346H951V420H660L646 196L709 170C741 188 774 197 804 197C841 197 863 182 863 155C863 112 805 79 638 66L650 -8C870 6 957 64 957 161Z" glyph-name="uni2158" horiz-adv-x="991" unicode="&#8536;" /><glyph d="M243 280V703H176L24 647L43 570L148 604V280ZM154 0H215L424 337L656 700H596L386 363ZM648 -7C750 -7 816 52 816 137C816 214 760 263 678 263C640 263 603 255 572 239C589 287 635 323 746 361L713 431C551 379 474 290 474 168C474 59 540 -7 648 -7ZM649 64C597 64 564 98 564 159C564 168 565 177 566 185C591 194 619 200 644 200C696 200 727 175 727 133C727 91 695 64 649 64Z" glyph-name="uni2159" horiz-adv-x="845" unicode="&#8537;" /><glyph d="M359 441C359 506 311 547 234 547C198 547 164 538 132 523L139 626H353V700H62L48 476L111 450C143 468 176 477 206 477C243 477 265 462 265 435C265 392 207 359 40 346L52 272C272 286 359 344 359 441ZM202 0H263L472 337L704 700H644L434 363ZM696 -7C798 -7 864 52 864 137C864 214 808 263 726 263C688 263 651 255 620 239C637 287 683 323 794 361L761 431C599 379 522 290 522 168C522 59 588 -7 696 -7ZM697 64C645 64 612 98 612 159C612 168 613 177 614 185C639 194 667 200 692 200C744 200 775 175 775 133C775 91 743 64 697 64Z" glyph-name="uni215A" horiz-adv-x="893" unicode="&#8538;" /><glyph d="M243 280V703H176L24 647L43 570L148 604V280ZM154 0H215L424 337L656 700H596L386 363ZM681 -6C789 -6 855 45 855 114C855 165 824 199 767 217C814 236 843 266 843 314C843 374 784 426 681 426C578 426 518 374 518 314C518 266 547 236 594 217C537 199 507 165 507 114C507 45 571 -6 681 -6ZM681 247C639 247 606 269 606 304C606 337 634 359 681 359C726 359 755 337 755 304C755 269 724 247 681 247ZM681 61C631 61 597 86 597 124C597 163 631 187 681 187C730 187 764 163 764 124C764 86 731 61 681 61Z" glyph-name="uni215B" horiz-adv-x="887" unicode="&#8539;" /><glyph d="M34 276C260 282 353 330 353 411C353 464 313 494 227 504C309 529 347 562 347 613C347 668 298 706 207 706C145 706 86 691 35 667L57 599C102 620 150 632 190 632C229 632 249 619 249 598C249 570 213 548 98 519L107 462C222 461 253 445 253 415C253 380 203 356 34 349ZM202 0H263L472 337L704 700H644L434 363ZM730 -6C838 -6 904 45 904 114C904 165 873 199 816 217C863 236 892 266 892 314C892 374 833 426 730 426C627 426 567 374 567 314C567 266 596 236 643 217C586 199 556 165 556 114C556 45 620 -6 730 -6ZM730 247C688 247 655 269 655 304C655 337 683 359 730 359C775 359 804 337 804 304C804 269 773 247 730 247ZM730 61C680 61 646 86 646 124C646 163 680 187 730 187C779 187 813 163 813 124C813 86 780 61 730 61Z" glyph-name="uni215C" horiz-adv-x="935" unicode="&#8540;" /><glyph d="M359 441C359 506 311 547 234 547C198 547 164 538 132 523L139 626H353V700H62L48 476L111 450C143 468 176 477 206 477C243 477 265 462 265 435C265 392 207 359 40 346L52 272C272 286 359 344 359 441ZM202 0H263L472 337L704 700H644L434 363ZM729 -6C837 -6 903 45 903 114C903 165 872 199 815 217C862 236 891 266 891 314C891 374 832 426 729 426C626 426 566 374 566 314C566 266 595 236 642 217C585 199 555 165 555 114C555 45 619 -6 729 -6ZM729 247C687 247 654 269 654 304C654 337 682 359 729 359C774 359 803 337 803 304C803 269 772 247 729 247ZM729 61C679 61 645 86 645 124C645 163 679 187 729 187C778 187 812 163 812 124C812 86 779 61 729 61Z" glyph-name="uni215D" horiz-adv-x="935" unicode="&#8541;" /><glyph d="M149 273 348 615V700H33V620H249L61 305ZM129 0H190L399 337L631 700H571L361 363ZM656 -6C764 -6 830 45 830 114C830 165 799 199 742 217C789 236 818 266 818 314C818 374 759 426 656 426C553 426 493 374 493 314C493 266 522 236 569 217C512 199 482 165 482 114C482 45 546 -6 656 -6ZM656 247C614 247 581 269 581 304C581 337 609 359 656 359C701 359 730 337 730 304C730 269 699 247 656 247ZM656 61C606 61 572 86 572 124C572 163 606 187 656 187C705 187 739 163 739 124C739 86 706 61 656 61Z" glyph-name="uni215E" horiz-adv-x="862" unicode="&#8542;" /><glyph d="M426 146 211 318 544 304H975V415H544L211 401L426 572L356 652L65 392V327L356 66Z" glyph-name="uni2190" horiz-adv-x="1042" unicode="&#8592;" /><glyph d="M337 271 324 567 457 381 535 443 314 711H250L30 443L107 381L240 567L227 271V-3H337Z" glyph-name="uni2191" horiz-adv-x="564" unicode="&#8593;" /><glyph d="M686 66 978 327V392L686 652L616 572L831 401L498 415H67V304H498L831 318L616 146Z" glyph-name="uni2192" horiz-adv-x="1042" unicode="&#8594;" /><glyph d="M314 -11 535 257 457 319 324 133 337 429V703H227V429L240 133L107 319L30 257L250 -11Z" glyph-name="uni2193" horiz-adv-x="564" unicode="&#8595;" /><glyph d="M278 -114V221C339 235 385 290 385 355C385 420 339 475 278 489V811H191V490C129 476 83 421 83 355C83 289 129 234 191 220V-114Z" glyph-name="uni237F" horiz-adv-x="468" unicode="&#9087;" /><glyph d="M117 708V-8L125 -12L727 341V359L125 712Z" glyph-name="uni25B6" horiz-adv-x="798" unicode="&#9654;" /><glyph d="M98 548V172L106 168L496 351V369L106 552Z" glyph-name="uni25B6.tab" horiz-adv-x="564" /><glyph d="M680 -8V708L672 712L70 359V341L672 -12Z" glyph-name="uni25C0" horiz-adv-x="798" unicode="&#9664;" /><glyph d="M467 172V548L459 552L69 369V351L459 168Z" glyph-name="uni25C0.tab" horiz-adv-x="564" /><glyph d="M249 -106 314 -164H392L296 -45H204L108 -164H185Z" glyph-name="uniA788" horiz-adv-x="500" unicode="&#42888;" /><glyph d="M529 -94C473 -83 463 -76 463 -62C463 -52 468 -41 497 0H505V523H379V143C348 121 307 102 270 102C216 102 189 134 189 192V523H62V162C62 50 118 -9 221 -9C289 -9 340 18 386 52L407 0H419C368 -42 354 -63 354 -85C354 -124 397 -143 521 -149Z" glyph-name="uogonek" horiz-adv-x="571" unicode="&#371;" /><glyph d="M386 52 407 0H505V523H379V143C348 121 307 102 270 102C216 102 189 134 189 192V523H62V162C62 50 118 -9 221 -9C289 -9 340 18 386 52ZM180 673C180 617 224 574 284 574C344 574 388 617 388 673C388 729 344 772 284 772C224 772 180 729 180 673ZM221 673C221 710 248 737 284 737C320 737 347 710 347 673C347 637 320 610 284 610C248 610 221 637 221 673Z" glyph-name="uring" horiz-adv-x="571" unicode="&#367;" /><glyph d="M386 52 407 0H505V523H379V143C348 121 307 102 270 102C216 102 189 134 189 192V523H62V162C62 50 118 -9 221 -9C289 -9 340 18 386 52ZM183 579C200 619 212 628 228 628C242 628 254 623 285 606C321 587 337 580 359 580C395 580 423 607 450 688L394 705C376 664 365 655 349 655C335 655 323 661 292 678C256 697 240 703 218 703C181 703 153 677 126 596Z" glyph-name="utilde" horiz-adv-x="571" unicode="&#361;" /><glyph d="M333 -5 513 523H386L267 122L146 523H16L197 -5Z" glyph-name="v" horiz-adv-x="530" unicode="v" /><glyph d="M511 -4H643L787 523H663L575 143L469 523H340L234 142L147 523H20L164 -4H296L403 369Z" glyph-name="w" horiz-adv-x="807" unicode="w" /><glyph d="M511 -4H643L787 523H663L575 143L469 523H340L234 142L147 523H20L164 -4H296L403 369ZM427 584 579 699H429L343 584Z" glyph-name="wacute" horiz-adv-x="807" unicode="&#7811;" /><glyph d="M511 -4H643L787 523H663L575 143L469 523H340L234 142L147 523H20L164 -4H296L403 369ZM403 642 468 584H546L450 703H358L262 584H339Z" glyph-name="wcircumflex" horiz-adv-x="807" unicode="&#373;" /><glyph d="M511 -4H643L787 523H663L575 143L469 523H340L234 142L147 523H20L164 -4H296L403 369ZM369 588V689H272V588ZM536 588V689H439V588Z" glyph-name="wdieresis" horiz-adv-x="807" unicode="&#7813;" /><glyph d="M511 -4H643L787 523H663L575 143L469 523H340L234 142L147 523H20L164 -4H296L403 369ZM381 584H465L379 699H229Z" glyph-name="wgrave" horiz-adv-x="807" unicode="&#7809;" /><glyph d="M367 0H501L334 268L494 523H362L260 348L158 523H24L183 268L17 0H149L257 185Z" glyph-name="x" horiz-adv-x="518" unicode="x" /><glyph d="M71 -179C248 -138 305 -89 361 75L513 523H385L270 128L152 523H21L195 13C158 -33 110 -60 43 -77Z" glyph-name="y" horiz-adv-x="528" unicode="y" /><glyph d="M71 -179C248 -138 305 -89 361 75L513 523H385L270 128L152 523H21L195 13C158 -33 110 -60 43 -77ZM290 580 442 695H292L206 580Z" glyph-name="yacute" horiz-adv-x="528" unicode="&#253;" /><glyph d="M71 -179C248 -138 305 -89 361 75L513 523H385L270 128L152 523H21L195 13C158 -33 110 -60 43 -77ZM266 642 331 584H409L313 703H221L125 584H202Z" glyph-name="ycircumflex" horiz-adv-x="528" unicode="&#375;" /><glyph d="M71 -179C248 -138 305 -89 361 75L513 523H385L270 128L152 523H21L195 13C158 -33 110 -60 43 -77ZM232 588V689H135V588ZM399 588V689H302V588Z" glyph-name="ydieresis" horiz-adv-x="528" unicode="&#255;" /><glyph d="M526 104V173H366V250H526V319H380L583 700H441L301 399L161 700H17L220 319H74V250H234V173H74V104H234V0H366V104Z" glyph-name="yen" horiz-adv-x="600" unicode="&#165;" /><glyph d="M492 104V173H346V250H492V319H359L546 700H413L283 396L154 700H18L206 319H72V250H219V173H72V104H219V0H346V104Z" glyph-name="yen.tab" horiz-adv-x="564" /><glyph d="M71 -179C248 -138 305 -89 361 75L513 523H385L270 128L152 523H21L195 13C158 -33 110 -60 43 -77ZM244 580H328L242 695H92Z" glyph-name="ygrave" horiz-adv-x="528" unicode="&#7923;" /><glyph d="M453 0V104H186L453 424V523H49V418H300L34 98V0Z" glyph-name="z" horiz-adv-x="491" unicode="z" /><glyph d="M453 0V104H186L453 424V523H49V418H300L34 98V0ZM272 584 424 699H274L188 584Z" glyph-name="zacute" horiz-adv-x="491" unicode="&#378;" /><glyph d="M453 0V104H186L453 424V523H49V418H300L34 98V0ZM250 645 185 703H107L203 584H295L391 703H314Z" glyph-name="zcaron" horiz-adv-x="491" unicode="&#382;" /><glyph d="M453 0V104H186L453 424V523H49V418H300L34 98V0ZM300 588V689H198V588Z" glyph-name="zdotaccent" horiz-adv-x="491" unicode="&#380;" /><glyph d="M574 350C574 590 463 712 310 712C158 712 46 590 46 350C46 110 157 -12 310 -12C462 -12 574 110 574 350ZM444 349C444 173 387 99 311 99C234 99 176 175 176 351C176 527 233 601 310 601C386 601 444 525 444 349Z" glyph-name="zero" horiz-adv-x="620" unicode="0" /><glyph d="M217 -7C323 -7 399 71 399 210C399 349 323 427 217 427C111 427 36 349 36 210C36 71 111 -7 217 -7ZM217 350C266 350 303 305 303 209C303 114 266 70 217 70C169 70 131 116 131 211C131 307 169 350 217 350Z" glyph-name="zero.den" horiz-adv-x="434" /><glyph d="M217 273C323 273 399 351 399 490C399 629 323 707 217 707C111 707 36 629 36 490C36 351 111 273 217 273ZM217 630C266 630 303 585 303 489C303 394 266 350 217 350C169 350 131 396 131 491C131 587 169 630 217 630Z" glyph-name="zero.num" horiz-adv-x="434" /><glyph d="M522 350C522 593 424 712 282 712C140 712 42 593 42 350C42 107 140 -12 282 -12C425 -12 522 107 522 350ZM392 349C392 168 344 99 283 99C221 99 173 170 173 351C173 532 220 601 282 601C344 601 392 530 392 349Z" glyph-name="zero.tab" horiz-adv-x="564" /></font>
</defs>
</svg>
