<?xml version="1.0" standalone="no"?><!DOCTYPE svg PUBLIC "-//W3C//DTD SVG 1.1//EN" "http://www.w3.org/Graphics/SVG/1.1/DTD/svg11.dtd" ><svg version="1.1" xmlns="http://www.w3.org/2000/svg"><defs><font horiz-adv-x="0" id="font"><font-face ascent="800" bbox="-234 -240 1092 996" cap-height="700" descent="-200" font-family="Retina" font-stretch="normal" font-style="italic" font-weight="400" units-per-em="1000" x-height="518" /><missing-glyph d="M100 -240H600V960H100ZM192 910H507L350 429ZM321 360 150 -154V874ZM378 360 550 874V-154ZM350 291 507 -190H192Z" horiz-adv-x="700" /><glyph d="M476 243H220L436 609ZM502 0H603L513 708H398L-33 0H77L168 155H485Z" glyph-name="A" horiz-adv-x="695" unicode="A" /><glyph d="M510 243H275L583 611H599ZM451 0H923L945 90H574L628 314H952L974 404H650L699 610H1064L1086 700H544L-47 0H72L202 155H488Z" glyph-name="AE" horiz-adv-x="1039" unicode="&#198;" /><glyph d="M510 243H275L583 611H599ZM451 0H923L945 90H574L628 314H952L974 404H650L699 610H1064L1086 700H544L-47 0H72L202 155H488ZM750 749 916 847H785L666 749Z" glyph-name="AEacute" horiz-adv-x="1039" unicode="&#508;" /><glyph d="M476 243H220L436 609ZM502 0H603L513 708H398L-33 0H77L168 155H485ZM486 755 652 853H521L402 755Z" glyph-name="Aacute" horiz-adv-x="695" unicode="&#193;" /><glyph d="M476 243H220L436 609ZM502 0H603L513 708H398L-33 0H77L168 155H485ZM477 810C439 810 418 830 416 864H361C354 796 397 752 470 752C540 752 597 795 618 864H561C544 829 516 810 477 810Z" glyph-name="Abreve" horiz-adv-x="695" unicode="&#258;" /><glyph d="M476 243H220L436 609ZM502 0H603L513 708H398L-33 0H77L168 155H485ZM481 808 535 755H602L532 856H446L328 755H401Z" glyph-name="Acircumflex" horiz-adv-x="695" unicode="&#194;" /><glyph d="M476 243H220L436 609ZM502 0H603L513 708H398L-33 0H77L168 155H485ZM423 755 444 843H362L342 755ZM588 755 609 843H527L507 755Z" glyph-name="Adieresis" horiz-adv-x="695" unicode="&#196;" /><glyph d="M476 243H220L436 609ZM502 0H603L513 708H398L-33 0H77L168 155H485ZM447 755H523L449 853H328Z" glyph-name="Agrave" horiz-adv-x="695" unicode="&#192;" /><glyph d="M476 243H220L436 609ZM502 0H603L513 708H398L-33 0H77L168 155H485ZM609 761 623 817H336L323 761Z" glyph-name="Amacron" horiz-adv-x="695" unicode="&#256;" /><glyph d="M476 243H220L436 609ZM590 -102C541 -95 528 -88 528 -75C528 -63 535 -52 585 0H603L513 708H398L-33 0H77L168 155H485L502 0H522C456 -51 442 -71 442 -94C442 -125 476 -143 576 -148Z" glyph-name="Aogonek" horiz-adv-x="695" unicode="&#260;" /><glyph d="M455 698C419 698 397 720 397 751C397 791 431 827 477 827C512 827 535 805 535 775C535 735 501 698 455 698ZM476 243H221L436 608ZM502 0H603L516 684C550 704 572 739 572 777C572 824 535 860 480 860C412 860 360 808 360 749C360 725 369 705 386 690L-33 0H77L169 155H485Z" glyph-name="Aring" horiz-adv-x="695" unicode="&#197;" /><glyph d="M515 888 654 967H528L431 888ZM455 698C419 698 397 720 397 751C397 791 431 827 477 827C512 827 535 805 535 775C535 735 501 698 455 698ZM476 243H221L436 608ZM502 0H603L516 684C550 704 572 739 572 777C572 824 535 860 480 860C412 860 360 808 360 749C360 725 369 705 386 690L-33 0H77L169 155H485Z" glyph-name="Aringacute" horiz-adv-x="695" unicode="&#506;" /><glyph d="M476 243H220L436 609ZM502 0H603L513 708H398L-33 0H77L168 155H485ZM421 801C434 801 444 797 474 779C504 760 519 753 539 753C574 753 600 775 641 839L599 862C571 824 557 813 541 813C527 813 517 817 488 835C457 854 442 861 423 861C387 861 362 839 320 774L363 751C390 790 404 801 421 801Z" glyph-name="Atilde" horiz-adv-x="695" unicode="&#195;" /><glyph d="M414 611C496 611 537 579 537 527C537 456 469 403 350 403H224L274 611ZM317 318C428 318 483 277 483 217C483 139 416 89 309 89H148L204 318ZM26 0H289C477 0 587 84 587 210C587 284 538 337 458 357C565 378 645 448 645 548C645 641 572 700 429 700H194Z" glyph-name="B" horiz-adv-x="652" unicode="B" /><glyph d="M348 -9C414 -9 471 3 523 23L520 112C471 95 421 83 369 83C248 83 173 156 173 284C173 385 212 483 271 542C317 588 379 617 448 617C513 617 564 601 618 571L656 660C597 691 534 709 452 709C348 709 262 670 196 604C117 525 70 406 70 277C70 88 184 -9 348 -9Z" glyph-name="C" horiz-adv-x="611" unicode="C" /><glyph d="M348 -9C414 -9 471 3 523 23L520 112C471 95 421 83 369 83C248 83 173 156 173 284C173 385 212 483 271 542C317 588 379 617 448 617C513 617 564 601 618 571L656 660C597 691 534 709 452 709C348 709 262 670 196 604C117 525 70 406 70 277C70 88 184 -9 348 -9ZM494 756 660 854H529L410 756Z" glyph-name="Cacute" horiz-adv-x="611" unicode="&#262;" /><glyph d="M348 -9C414 -9 471 3 523 23L520 112C471 95 421 83 369 83C248 83 173 156 173 284C173 385 212 483 271 542C317 588 379 617 448 617C513 617 564 601 618 571L656 660C597 691 534 709 452 709C348 709 262 670 196 604C117 525 70 406 70 277C70 88 184 -9 348 -9ZM481 805 427 857H360L430 756H516L634 857H561Z" glyph-name="Ccaron" horiz-adv-x="611" unicode="&#268;" /><glyph d="M377 -86C377 -57 349 -42 300 -41L336 -9H348C414 -9 471 3 523 23L520 112C471 95 421 83 369 83C248 83 173 156 173 284C173 385 212 483 271 542C317 588 379 617 448 617C513 617 564 601 618 571L656 660C597 691 534 709 452 709C348 709 262 670 196 604C117 525 70 406 70 277C70 116 152 22 278 -2L226 -54L236 -75C277 -71 293 -77 293 -90C293 -105 272 -117 190 -120L184 -155C330 -155 377 -124 377 -86Z" glyph-name="Ccedilla" horiz-adv-x="611" unicode="&#199;" /><glyph d="M348 -9C414 -9 471 3 523 23L520 112C471 95 421 83 369 83C248 83 173 156 173 284C173 385 212 483 271 542C317 588 379 617 448 617C513 617 564 601 618 571L656 660C597 691 534 709 452 709C348 709 262 670 196 604C117 525 70 406 70 277C70 88 184 -9 348 -9ZM489 809 543 756H610L540 857H454L336 756H409Z" glyph-name="Ccircumflex" horiz-adv-x="611" unicode="&#264;" /><glyph d="M348 -9C414 -9 471 3 523 23L520 112C471 95 421 83 369 83C248 83 173 156 173 284C173 385 212 483 271 542C317 588 379 617 448 617C513 617 564 601 618 571L656 660C597 691 534 709 452 709C348 709 262 670 196 604C117 525 70 406 70 277C70 88 184 -9 348 -9ZM515 756 536 844H451L431 756Z" glyph-name="Cdotaccent" horiz-adv-x="611" unicode="&#266;" /><glyph d="M348 611C487 611 563 542 563 422C563 321 527 231 473 176C418 121 340 89 240 89H148L274 611ZM26 0H219C364 0 473 44 548 117C619 188 666 296 666 430C666 600 552 700 353 700H194Z" glyph-name="D" horiz-adv-x="691" unicode="D" /><glyph d="M348 611C487 611 563 542 563 422C563 321 527 231 473 176C418 121 340 89 240 89H148L274 611ZM26 0H219C364 0 473 44 548 117C619 188 666 296 666 430C666 600 552 700 353 700H194ZM458 798 404 850H337L407 749H493L611 850H538Z" glyph-name="Dcaron" horiz-adv-x="691" unicode="&#270;" /><glyph d="M381 323 399 394H232L284 611H360C499 611 575 542 575 422C575 321 539 231 484 176C430 121 352 89 251 89H158L215 323ZM37 0H230C376 0 485 44 560 117C631 188 677 296 677 430C677 600 564 700 365 700H206L132 395H58L41 323H115Z" glyph-name="Dcroat" horiz-adv-x="703" unicode="&#272;" /><glyph d="M26 0H503L525 90H149L203 314H532L554 404H225L274 610H643L666 700H194Z" glyph-name="E" horiz-adv-x="619" unicode="E" /><glyph d="M26 0H503L525 90H149L203 314H532L554 404H225L274 610H643L666 700H194ZM471 749 637 847H506L387 749Z" glyph-name="Eacute" horiz-adv-x="619" unicode="&#201;" /><glyph d="M26 0H503L525 90H149L203 314H532L554 404H225L274 610H643L666 700H194ZM462 804C424 804 403 824 401 858H346C339 790 382 746 455 746C525 746 582 789 603 858H546C529 823 501 804 462 804Z" glyph-name="Ebreve" horiz-adv-x="619" unicode="&#276;" /><glyph d="M26 0H503L525 90H149L203 314H532L554 404H225L274 610H643L666 700H194ZM458 798 404 850H337L407 749H493L611 850H538Z" glyph-name="Ecaron" horiz-adv-x="619" unicode="&#282;" /><glyph d="M26 0H503L525 90H149L203 314H532L554 404H225L274 610H643L666 700H194ZM466 802 520 749H587L517 850H431L313 749H386Z" glyph-name="Ecircumflex" horiz-adv-x="619" unicode="&#202;" /><glyph d="M26 0H503L525 90H149L203 314H532L554 404H225L274 610H643L666 700H194ZM408 749 429 837H347L327 749ZM573 749 594 837H512L492 749Z" glyph-name="Edieresis" horiz-adv-x="619" unicode="&#203;" /><glyph d="M26 0H503L525 90H149L203 314H532L554 404H225L274 610H643L666 700H194ZM492 749 513 837H428L408 749Z" glyph-name="Edotaccent" horiz-adv-x="619" unicode="&#278;" /><glyph d="M26 0H503L525 90H149L203 314H532L554 404H225L274 610H643L666 700H194ZM432 749H508L434 847H313Z" glyph-name="Egrave" horiz-adv-x="619" unicode="&#200;" /><glyph d="M26 0H503L525 90H149L203 314H532L554 404H225L274 610H643L666 700H194ZM594 755 608 811H321L308 755Z" glyph-name="Emacron" horiz-adv-x="619" unicode="&#274;" /><glyph d="M352 -178C461 -178 536 -117 567 12L733 700H635L510 185L509 181L298 700H194L26 0H123L255 545L470 13C451 -51 408 -88 352 -88C321 -88 291 -81 266 -72L245 -160C279 -173 312 -178 352 -178Z" glyph-name="Eng" horiz-adv-x="714" unicode="&#330;" /><glyph d="M478 -102C429 -95 416 -88 416 -75C416 -63 423 -52 473 0H503L525 90H149L203 314H532L554 404H225L274 610H643L666 700H194L26 0H410C344 -51 330 -71 330 -94C330 -125 364 -143 464 -148Z" glyph-name="Eogonek" horiz-adv-x="619" unicode="&#280;" /><glyph d="M381 323 399 394H232L284 611H360C499 611 575 542 575 422C575 321 539 231 484 176C430 121 352 89 251 89H158L215 323ZM37 0H230C376 0 485 44 560 117C631 188 677 296 677 430C677 600 564 700 365 700H206L132 395H58L41 323H115Z" glyph-name="Eth" horiz-adv-x="703" unicode="&#208;" /><glyph d="M495 6 496 92C467 85 429 79 389 79C289 79 219 127 213 242H478L492 299H215C218 332 225 366 235 398H516L529 455H256C274 494 296 528 321 553C362 594 416 620 483 620C533 620 581 605 615 591L649 677C605 694 553 708 490 708C388 708 311 672 252 614C211 573 177 517 153 455H79L65 398H134C126 366 120 333 117 299H41L28 242H115C119 70 226 -8 377 -8C419 -8 461 -2 495 6Z" glyph-name="Euro" horiz-adv-x="598" unicode="&#8364;" /><glyph d="M447 11 452 98C416 87 381 80 345 80C248 80 192 132 190 242H432L445 299H193C197 332 204 366 214 398H468L481 455H235C253 495 276 531 302 557C344 599 395 619 454 619C495 619 531 610 563 598L599 683C558 699 513 707 459 707C368 707 291 676 230 615C189 574 155 518 132 455H59L46 398H114C105 366 99 332 95 299H23L10 242H92V239C92 75 179 -8 330 -8C374 -8 412 -1 447 11Z" glyph-name="Euro.tab" horiz-adv-x="564" /><glyph d="M477 288 499 378H218L274 610H638L661 700H194L26 0H127L197 288Z" glyph-name="F" horiz-adv-x="582" unicode="F" /><glyph d="M565 45 650 382H381L359 292H529L481 104C441 87 398 79 356 79C237 79 172 156 172 271C172 373 210 481 271 541C317 588 381 618 457 618C527 618 589 596 645 564L686 650C623 686 545 710 463 710C350 710 260 668 196 604C116 524 69 399 69 269C69 100 168 -9 341 -9C424 -9 499 11 565 45Z" glyph-name="G" horiz-adv-x="692" unicode="G" /><glyph d="M565 45 650 382H381L359 292H529L481 104C441 87 398 79 356 79C237 79 172 156 172 271C172 373 210 481 271 541C317 588 381 618 457 618C527 618 589 596 645 564L686 650C623 686 545 710 463 710C350 710 260 668 196 604C116 524 69 399 69 269C69 100 168 -9 341 -9C424 -9 499 11 565 45ZM489 811C451 811 430 831 428 865H373C366 797 409 753 482 753C552 753 609 796 630 865H573C556 830 528 811 489 811Z" glyph-name="Gbreve" horiz-adv-x="692" unicode="&#286;" /><glyph d="M565 45 650 382H381L359 292H529L481 104C441 87 398 79 356 79C237 79 172 156 172 271C172 373 210 481 271 541C317 588 381 618 457 618C527 618 589 596 645 564L686 650C623 686 545 710 463 710C350 710 260 668 196 604C116 524 69 399 69 269C69 100 168 -9 341 -9C424 -9 499 11 565 45ZM485 805 431 857H364L434 756H520L638 857H565Z" glyph-name="Gcaron" horiz-adv-x="692" unicode="&#486;" /><glyph d="M565 45 650 382H381L359 292H529L481 104C441 87 398 79 356 79C237 79 172 156 172 271C172 373 210 481 271 541C317 588 381 618 457 618C527 618 589 596 645 564L686 650C623 686 545 710 463 710C350 710 260 668 196 604C116 524 69 399 69 269C69 100 168 -9 341 -9C424 -9 499 11 565 45ZM493 809 547 756H614L544 857H458L340 756H413Z" glyph-name="Gcircumflex" horiz-adv-x="692" unicode="&#284;" /><glyph d="M565 45 650 382H381L359 292H529L481 104C441 87 398 79 356 79C237 79 172 156 172 271C172 373 210 481 271 541C317 588 381 618 457 618C527 618 589 596 645 564L686 650C623 686 545 710 463 710C350 710 260 668 196 604C116 524 69 399 69 269C69 100 168 -9 341 -9C424 -9 499 11 565 45ZM519 756 540 844H455L435 756Z" glyph-name="Gdotaccent" horiz-adv-x="692" unicode="&#288;" /><glyph d="M461 0H563L731 700H629L558 406H225L296 700H194L26 0H128L203 312H536Z" glyph-name="H" horiz-adv-x="713" unicode="H" /><glyph d="M569 403H236L267 530H600ZM472 0H574L701 528H775L792 598H718L743 700H641L616 596H283L308 700H206L181 598H107L90 528H164L37 0H139L214 311H547Z" glyph-name="Hbar" horiz-adv-x="736" unicode="&#294;" /><glyph d="M461 0H563L731 700H629L558 406H225L296 700H194L26 0H128L203 312H536ZM488 802 542 749H609L539 850H453L335 749H408Z" glyph-name="Hcircumflex" horiz-adv-x="713" unicode="&#292;" /><glyph d="M131 0 300 700H198L29 0Z" glyph-name="I" horiz-adv-x="285" unicode="I" /><glyph d="M131 0 300 700H198L29 0ZM281 749 447 847H316L197 749Z" glyph-name="Iacute" horiz-adv-x="285" unicode="&#205;" /><glyph d="M131 0 300 700H198L29 0ZM272 804C234 804 213 824 211 858H156C149 790 192 746 265 746C335 746 392 789 413 858H356C339 823 311 804 272 804Z" glyph-name="Ibreve" horiz-adv-x="285" unicode="&#300;" /><glyph d="M131 0 300 700H198L29 0ZM276 802 330 749H397L327 850H241L123 749H196Z" glyph-name="Icircumflex" horiz-adv-x="285" unicode="&#206;" /><glyph d="M131 0 300 700H198L29 0ZM218 749 239 837H157L137 749ZM383 749 404 837H322L302 749Z" glyph-name="Idieresis" horiz-adv-x="285" unicode="&#207;" /><glyph d="M131 0 300 700H198L29 0ZM302 749 323 837H238L218 749Z" glyph-name="Idotaccent" horiz-adv-x="285" unicode="&#304;" /><glyph d="M131 0 300 700H198L29 0ZM242 749H318L244 847H123Z" glyph-name="Igrave" horiz-adv-x="285" unicode="&#204;" /><glyph d="M131 0 300 700H198L29 0ZM386 755 400 811H149L135 755Z" glyph-name="Imacron" horiz-adv-x="285" unicode="&#298;" /><glyph d="M123 -102C74 -95 61 -88 61 -75C61 -63 68 -52 118 0H131L300 700H198L29 0H55C-11 -51 -25 -71 -25 -94C-25 -125 9 -143 109 -148Z" glyph-name="Iogonek" horiz-adv-x="285" unicode="&#302;" /><glyph d="M131 0 300 700H198L29 0ZM216 795C229 795 239 791 269 773C299 754 314 747 334 747C369 747 395 769 436 833L394 856C366 818 352 807 336 807C322 807 312 811 283 829C252 848 237 855 218 855C182 855 157 833 115 768L158 745C185 784 199 795 216 795Z" glyph-name="Itilde" horiz-adv-x="285" unicode="&#296;" /><glyph d="M391 217 506 700H404L293 234C268 135 214 82 129 82C89 82 50 92 9 112L-24 29C27 5 76 -8 134 -8C272 -8 355 72 391 217Z" glyph-name="J" horiz-adv-x="480" unicode="J" /><glyph d="M391 217 506 700H404L293 234C268 135 214 82 129 82C89 82 50 92 9 112L-24 29C27 5 76 -8 134 -8C272 -8 355 72 391 217ZM482 802 536 749H603L533 850H447L329 749H402Z" glyph-name="Jcircumflex" horiz-adv-x="480" unicode="&#308;" /><glyph d="M445 0H566L325 353L727 700H597L232 384H220L296 700H194L26 0H127L208 334H220Z" glyph-name="K" horiz-adv-x="642" unicode="K" /><glyph d="M26 0H456L479 91H149L296 700H194Z" glyph-name="L" horiz-adv-x="548" unicode="L" /><glyph d="M26 0H456L479 91H149L296 700H194ZM281 749 447 847H316L197 749Z" glyph-name="Lacute" horiz-adv-x="548" unicode="&#313;" /><glyph d="M26 0H456L479 91H149L296 700H194ZM447 701H382C369 633 354 597 328 557L354 542C405 586 431 623 447 701Z" glyph-name="Lcaron" horiz-adv-x="548" unicode="&#317;" /><glyph d="M37 0H468L491 91H161L216 318L395 403L415 491L237 404L308 700H206L123 356L39 317L19 232L102 270Z" glyph-name="Lslash" horiz-adv-x="559" unicode="&#321;" /><glyph d="M680 0H780L914 700H769L419 122L350 700H216L12 0H109L276 583L345 -1H438L794 579Z" glyph-name="M" horiz-adv-x="915" unicode="M" /><glyph d="M253 537 257 557 458 0H564L733 700H635L507 171L503 154L307 700H194L26 0H123Z" glyph-name="N" horiz-adv-x="714" unicode="N" /><glyph d="M253 537 257 557 458 0H564L733 700H635L507 171L503 154L307 700H194L26 0H123ZM498 745 664 843H533L414 745Z" glyph-name="Nacute" horiz-adv-x="714" unicode="&#323;" /><glyph d="M253 537 257 557 458 0H564L733 700H635L507 171L503 154L307 700H194L26 0H123ZM485 794 431 846H364L434 745H520L638 846H565Z" glyph-name="Ncaron" horiz-adv-x="714" unicode="&#327;" /><glyph d="M253 537 257 557 458 0H564L733 700H635L507 171L503 154L307 700H194L26 0H123ZM434 795C447 795 457 791 487 773C517 754 532 747 552 747C587 747 613 769 654 833L612 856C584 818 570 807 554 807C540 807 530 811 501 829C470 848 455 855 436 855C400 855 375 833 333 768L376 745C403 784 417 795 434 795Z" glyph-name="Ntilde" horiz-adv-x="714" unicode="&#209;" /><glyph d="M333 -12C422 -12 501 25 563 87C641 165 694 300 694 435C694 608 588 712 430 712C340 712 261 675 199 613C121 535 68 400 68 265C68 92 174 -12 333 -12ZM425 625C526 625 592 554 592 437C592 328 547 203 485 141C444 100 393 75 337 75C236 75 170 146 170 263C170 372 215 497 277 559C318 600 370 625 425 625Z" glyph-name="O" horiz-adv-x="718" unicode="O" /><glyph d="M388 89C251 89 173 159 173 278C173 380 208 469 263 524C318 579 396 611 496 611H582L458 89ZM385 0H908L931 90H559L613 314H938L960 404H635L684 610H1049L1071 700H517C372 700 262 656 188 583C117 512 70 404 70 270C70 101 184 0 385 0Z" glyph-name="OE" horiz-adv-x="1025" unicode="&#338;" /><glyph d="M333 -12C422 -12 501 25 563 87C641 165 694 300 694 435C694 608 588 712 430 712C340 712 261 675 199 613C121 535 68 400 68 265C68 92 174 -12 333 -12ZM425 625C526 625 592 554 592 437C592 328 547 203 485 141C444 100 393 75 337 75C236 75 170 146 170 263C170 372 215 497 277 559C318 600 370 625 425 625ZM486 756 652 854H521L402 756Z" glyph-name="Oacute" horiz-adv-x="718" unicode="&#211;" /><glyph d="M333 -12C422 -12 501 25 563 87C641 165 694 300 694 435C694 608 588 712 430 712C340 712 261 675 199 613C121 535 68 400 68 265C68 92 174 -12 333 -12ZM425 625C526 625 592 554 592 437C592 328 547 203 485 141C444 100 393 75 337 75C236 75 170 146 170 263C170 372 215 497 277 559C318 600 370 625 425 625ZM477 811C439 811 418 831 416 865H361C354 797 397 753 470 753C540 753 597 796 618 865H561C544 830 516 811 477 811Z" glyph-name="Obreve" horiz-adv-x="718" unicode="&#334;" /><glyph d="M333 -12C422 -12 501 25 563 87C641 165 694 300 694 435C694 608 588 712 430 712C340 712 261 675 199 613C121 535 68 400 68 265C68 92 174 -12 333 -12ZM425 625C526 625 592 554 592 437C592 328 547 203 485 141C444 100 393 75 337 75C236 75 170 146 170 263C170 372 215 497 277 559C318 600 370 625 425 625ZM481 809 535 756H602L532 857H446L328 756H401Z" glyph-name="Ocircumflex" horiz-adv-x="718" unicode="&#212;" /><glyph d="M333 -12C422 -12 501 25 563 87C641 165 694 300 694 435C694 608 588 712 430 712C340 712 261 675 199 613C121 535 68 400 68 265C68 92 174 -12 333 -12ZM425 625C526 625 592 554 592 437C592 328 547 203 485 141C444 100 393 75 337 75C236 75 170 146 170 263C170 372 215 497 277 559C318 600 370 625 425 625ZM423 756 444 844H362L342 756ZM588 756 609 844H527L507 756Z" glyph-name="Odieresis" horiz-adv-x="718" unicode="&#214;" /><glyph d="M333 -12C422 -12 501 25 563 87C641 165 694 300 694 435C694 608 588 712 430 712C340 712 261 675 199 613C121 535 68 400 68 265C68 92 174 -12 333 -12ZM425 625C526 625 592 554 592 437C592 328 547 203 485 141C444 100 393 75 337 75C236 75 170 146 170 263C170 372 215 497 277 559C318 600 370 625 425 625ZM447 756H523L449 854H328Z" glyph-name="Ograve" horiz-adv-x="718" unicode="&#210;" /><glyph d="M333 -12C422 -12 501 24 563 86C641 164 694 299 694 431C694 529 658 603 599 650C720 659 775 728 775 802C775 819 773 830 769 842L696 821C698 811 699 802 698 791C695 737 649 704 558 704C520 704 488 709 442 709C343 709 262 674 199 611C121 533 68 398 68 264C68 91 174 -12 333 -12ZM425 623C526 623 592 552 592 436C592 328 547 202 485 140C444 100 393 75 337 75C236 75 170 146 170 262C170 371 215 496 277 558C318 599 370 623 425 623Z" glyph-name="Ohorn" horiz-adv-x="718" unicode="&#416;" /><glyph d="M333 -12C422 -12 501 25 563 87C641 165 694 300 694 435C694 608 588 712 430 712C340 712 261 675 199 613C121 535 68 400 68 265C68 92 174 -12 333 -12ZM425 625C526 625 592 554 592 437C592 328 547 203 485 141C444 100 393 75 337 75C236 75 170 146 170 263C170 372 215 497 277 559C318 600 370 625 425 625ZM416 756 574 854H464L341 756ZM562 756 719 854H609L486 756Z" glyph-name="Ohungarumlaut" horiz-adv-x="718" unicode="&#336;" /><glyph d="M333 -12C422 -12 501 25 563 87C641 165 694 300 694 435C694 608 588 712 430 712C340 712 261 675 199 613C121 535 68 400 68 265C68 92 174 -12 333 -12ZM425 625C526 625 592 554 592 437C592 328 547 203 485 141C444 100 393 75 337 75C236 75 170 146 170 263C170 372 215 497 277 559C318 600 370 625 425 625ZM609 762 623 818H336L323 762Z" glyph-name="Omacron" horiz-adv-x="718" unicode="&#332;" /><glyph d="M169 264C169 372 214 497 276 559C317 601 369 625 425 625C470 625 509 611 538 584L190 162C177 190 169 224 169 264ZM337 75C291 75 252 90 223 117L571 539C585 511 593 476 593 436C593 328 548 203 486 141C445 99 393 75 337 75ZM333 -12C422 -12 501 25 563 87C641 165 694 300 694 435C694 507 676 566 643 612L766 751H680L600 658C555 693 497 712 430 712C340 712 261 675 199 613C121 535 68 400 68 265C68 194 86 134 118 89L-4 -51H82L162 42C207 7 265 -12 333 -12Z" glyph-name="Oslash" horiz-adv-x="718" unicode="&#216;" /><glyph d="M169 264C169 372 214 497 276 559C317 601 369 625 425 625C470 625 509 611 538 584L190 162C177 190 169 224 169 264ZM337 75C291 75 252 90 223 117L571 539C585 511 593 476 593 436C593 328 548 203 486 141C445 99 393 75 337 75ZM333 -12C422 -12 501 25 563 87C641 165 694 300 694 435C694 507 676 566 643 612L766 751H680L600 658C555 693 497 712 430 712C340 712 261 675 199 613C121 535 68 400 68 265C68 194 86 134 118 89L-4 -51H82L162 42C207 7 265 -12 333 -12ZM486 756 652 854H521L402 756Z" glyph-name="Oslashacute" horiz-adv-x="718" unicode="&#510;" /><glyph d="M333 -12C422 -12 501 25 563 87C641 165 694 300 694 435C694 608 588 712 430 712C340 712 261 675 199 613C121 535 68 400 68 265C68 92 174 -12 333 -12ZM425 625C526 625 592 554 592 437C592 328 547 203 485 141C444 100 393 75 337 75C236 75 170 146 170 263C170 372 215 497 277 559C318 600 370 625 425 625ZM421 802C434 802 444 798 474 780C504 761 519 754 539 754C574 754 600 776 641 840L599 863C571 825 557 814 541 814C527 814 517 818 488 836C457 855 442 862 423 862C387 862 362 840 320 775L363 752C390 791 404 802 421 802Z" glyph-name="Otilde" horiz-adv-x="718" unicode="&#213;" /><glyph d="M381 611C480 611 528 570 528 501C528 449 509 404 478 374C440 336 381 314 298 314H203L274 611ZM286 225C410 225 497 259 554 316C602 364 631 431 631 511C631 630 547 700 392 700H194L26 0H127L181 225Z" glyph-name="P" horiz-adv-x="614" unicode="P" /><glyph d="M619 -76 523 55C537 66 550 77 563 90C641 167 694 301 694 435C694 608 588 712 430 712C340 712 261 675 199 613C121 535 68 400 68 265C68 93 174 -10 329 -10C367 -10 402 -4 436 8L494 -76ZM425 625C526 625 592 554 592 437C592 329 547 204 486 142C445 101 393 76 337 76C236 76 170 147 170 263C170 373 215 497 277 559C318 600 370 625 425 625Z" glyph-name="Q" horiz-adv-x="718" unicode="Q" /><glyph d="M406 611C499 611 542 569 542 508C542 468 527 433 500 406C461 368 388 346 315 346H210L274 611ZM261 257C326 257 354 237 382 183L472 0H588L485 195C463 242 444 267 405 286C547 313 646 397 646 527C646 633 569 700 420 700H194L26 0H127L189 257Z" glyph-name="R" horiz-adv-x="663" unicode="R" /><glyph d="M406 611C499 611 542 569 542 508C542 468 527 433 500 406C461 368 388 346 315 346H210L274 611ZM261 257C326 257 354 237 382 183L472 0H588L485 195C463 242 444 267 405 286C547 313 646 397 646 527C646 633 569 700 420 700H194L26 0H127L189 257ZM455 749 621 847H490L371 749Z" glyph-name="Racute" horiz-adv-x="663" unicode="&#340;" /><glyph d="M406 611C499 611 542 569 542 508C542 468 527 433 500 406C461 368 388 346 315 346H210L274 611ZM261 257C326 257 354 237 382 183L472 0H588L485 195C463 242 444 267 405 286C547 313 646 397 646 527C646 633 569 700 420 700H194L26 0H127L189 257ZM442 798 388 850H321L391 749H477L595 850H522Z" glyph-name="Rcaron" horiz-adv-x="663" unicode="&#344;" /><glyph d="M439 193C439 125 375 80 287 80C195 80 112 109 48 148L8 61C81 19 167 -9 276 -9C440 -9 543 78 543 203C543 289 490 341 355 400C257 447 224 472 224 519C224 574 276 620 361 620C436 620 508 594 567 561L609 645C544 682 466 709 368 709C216 709 121 619 121 510C121 420 178 374 306 318C406 270 439 238 439 193Z" glyph-name="S" horiz-adv-x="603" unicode="S" /><glyph d="M439 193C439 125 375 80 287 80C195 80 112 109 48 148L8 61C81 19 167 -9 276 -9C440 -9 543 78 543 203C543 289 490 341 355 400C257 447 224 472 224 519C224 574 276 620 361 620C436 620 508 594 567 561L609 645C544 682 466 709 368 709C216 709 121 619 121 510C121 420 178 374 306 318C406 270 439 238 439 193ZM436 756 602 854H471L352 756Z" glyph-name="Sacute" horiz-adv-x="603" unicode="&#346;" /><glyph d="M439 193C439 125 375 80 287 80C195 80 112 109 48 148L8 61C81 19 167 -9 276 -9C440 -9 543 78 543 203C543 289 490 341 355 400C257 447 224 472 224 519C224 574 276 620 361 620C436 620 508 594 567 561L609 645C544 682 466 709 368 709C216 709 121 619 121 510C121 420 178 374 306 318C406 270 439 238 439 193ZM423 805 369 857H302L372 756H458L576 857H503Z" glyph-name="Scaron" horiz-adv-x="603" unicode="&#352;" /><glyph d="M439 193C439 125 375 80 287 80C195 80 112 109 48 148L8 61C81 19 167 -9 276 -9C440 -9 543 78 543 203C543 289 490 341 355 400C257 447 224 472 224 519C224 574 276 620 361 620C436 620 508 594 567 561L609 645C544 682 466 709 368 709C216 709 121 619 121 510C121 420 178 374 306 318C406 270 439 238 439 193ZM431 809 485 756H552L482 857H396L278 756H351Z" glyph-name="Scircumflex" horiz-adv-x="603" unicode="&#348;" /><glyph d="M674 610 696 700H132L109 610H341L194 0H296L443 610Z" glyph-name="T" horiz-adv-x="618" unicode="T" /><glyph d="M502 304 520 376H387L443 610H674L696 700H132L109 610H341L285 376H153L135 304H267L194 0H296L369 304Z" glyph-name="Tbar" horiz-adv-x="618" unicode="&#358;" /><glyph d="M674 610 696 700H132L109 610H341L194 0H296L443 610ZM435 798 381 850H314L384 749H470L588 850H515Z" glyph-name="Tcaron" horiz-adv-x="618" unicode="&#356;" /><glyph d="M356 503C452 503 501 465 501 393C501 344 483 298 451 266C413 228 356 206 281 206H176L248 503ZM270 117C381 117 469 150 527 208C576 257 604 326 604 404C604 527 520 592 373 592H269L295 700H194L26 0H127L155 117Z" glyph-name="Thorn" horiz-adv-x="621" unicode="&#222;" /><glyph d="M612 245 719 700H618L513 256C484 140 415 77 321 77C237 77 179 126 179 212C179 235 182 263 189 289L285 700H184L91 307C81 267 77 232 77 203C77 66 174 -10 314 -10C466 -10 570 75 612 245Z" glyph-name="U" horiz-adv-x="693" unicode="U" /><glyph d="M612 245 719 700H618L513 256C484 140 415 77 321 77C237 77 179 126 179 212C179 235 182 263 189 289L285 700H184L91 307C81 267 77 232 77 203C77 66 174 -10 314 -10C466 -10 570 75 612 245ZM478 745 644 843H513L394 745Z" glyph-name="Uacute" horiz-adv-x="693" unicode="&#218;" /><glyph d="M612 245 719 700H618L513 256C484 140 415 77 321 77C237 77 179 126 179 212C179 235 182 263 189 289L285 700H184L91 307C81 267 77 232 77 203C77 66 174 -10 314 -10C466 -10 570 75 612 245ZM469 800C431 800 410 820 408 854H353C346 786 389 742 462 742C532 742 589 785 610 854H553C536 819 508 800 469 800Z" glyph-name="Ubreve" horiz-adv-x="693" unicode="&#364;" /><glyph d="M612 245 719 700H618L513 256C484 140 415 77 321 77C237 77 179 126 179 212C179 235 182 263 189 289L285 700H184L91 307C81 267 77 232 77 203C77 66 174 -10 314 -10C466 -10 570 75 612 245ZM475 802 529 749H596L526 850H440L322 749H395Z" glyph-name="Ucircumflex" horiz-adv-x="693" unicode="&#219;" /><glyph d="M612 245 719 700H618L513 256C484 140 415 77 321 77C237 77 179 126 179 212C179 235 182 263 189 289L285 700H184L91 307C81 267 77 232 77 203C77 66 174 -10 314 -10C466 -10 570 75 612 245ZM417 749 438 837H356L336 749ZM582 749 603 837H521L501 749Z" glyph-name="Udieresis" horiz-adv-x="693" unicode="&#220;" /><glyph d="M612 245 719 700H618L513 256C484 140 415 77 321 77C237 77 179 126 179 212C179 235 182 263 189 289L285 700H184L91 307C81 267 77 232 77 203C77 66 174 -10 314 -10C466 -10 570 75 612 245ZM439 745H515L441 843H320Z" glyph-name="Ugrave" horiz-adv-x="693" unicode="&#217;" /><glyph d="M314 -10C466 -10 570 75 612 245L708 652C807 671 855 733 855 802C855 821 853 831 849 842L776 821C778 811 779 801 778 790C775 739 731 700 633 700H618L513 256C484 140 415 77 321 77C237 77 179 126 179 212C179 235 182 263 189 289L285 700H184L91 307C81 267 77 232 77 203C77 66 174 -10 314 -10Z" glyph-name="Uhorn" horiz-adv-x="721" unicode="&#431;" /><glyph d="M612 245 719 700H618L513 256C484 140 415 77 321 77C237 77 179 126 179 212C179 235 182 263 189 289L285 700H184L91 307C81 267 77 232 77 203C77 66 174 -10 314 -10C466 -10 570 75 612 245ZM410 749 568 847H458L335 749ZM556 749 713 847H603L480 749Z" glyph-name="Uhungarumlaut" horiz-adv-x="693" unicode="&#368;" /><glyph d="M612 245 719 700H618L513 256C484 140 415 77 321 77C237 77 179 126 179 212C179 235 182 263 189 289L285 700H184L91 307C81 267 77 232 77 203C77 66 174 -10 314 -10C466 -10 570 75 612 245ZM603 755 617 811H330L317 755Z" glyph-name="Umacron" horiz-adv-x="693" unicode="&#362;" /><glyph d="M332 -148 346 -102C297 -95 284 -88 284 -75C284 -64 290 -53 332 -10C474 -3 572 82 612 245L719 700H618L513 256C484 140 415 77 321 77C237 77 179 126 179 212C179 235 182 263 189 289L285 700H184L91 307C81 267 77 232 77 203C77 81 153 8 268 -7C211 -53 198 -72 198 -94C198 -125 232 -143 332 -148Z" glyph-name="Uogonek" horiz-adv-x="693" unicode="&#370;" /><glyph d="M612 245 719 700H618L513 256C484 140 415 77 321 77C237 77 179 126 179 212C179 235 182 263 189 289L285 700H184L91 307C81 267 77 232 77 203C77 66 174 -10 314 -10C466 -10 570 75 612 245ZM491 932C423 932 371 881 371 821C371 774 408 739 463 739C531 739 583 790 583 850C583 897 545 932 491 932ZM466 771C430 771 408 793 408 824C408 864 442 900 488 900C523 900 546 878 546 847C546 807 512 771 466 771Z" glyph-name="Uring" horiz-adv-x="693" unicode="&#366;" /><glyph d="M612 245 719 700H618L513 256C484 140 415 77 321 77C237 77 179 126 179 212C179 235 182 263 189 289L285 700H184L91 307C81 267 77 232 77 203C77 66 174 -10 314 -10C466 -10 570 75 612 245ZM415 795C428 795 438 791 468 773C498 754 513 747 533 747C568 747 594 769 635 833L593 856C565 818 551 807 535 807C521 807 511 811 482 829C451 848 436 855 417 855C381 855 356 833 314 768L357 745C384 784 398 795 415 795Z" glyph-name="Utilde" horiz-adv-x="693" unicode="&#360;" /><glyph d="M323 -8 751 700H637L297 113L237 700H131L217 -8Z" glyph-name="V" horiz-adv-x="675" unicode="V" /><glyph d="M617 -6H729L1092 700H983L699 124L666 700H559L247 124L239 700H136L159 -6H270L581 564Z" glyph-name="W" horiz-adv-x="1021" unicode="W" /><glyph d="M617 -6H729L1092 700H983L699 124L666 700H559L247 124L239 700H136L159 -6H270L581 564ZM641 749 807 847H676L557 749Z" glyph-name="Wacute" horiz-adv-x="1021" unicode="&#7810;" /><glyph d="M617 -6H729L1092 700H983L699 124L666 700H559L247 124L239 700H136L159 -6H270L581 564ZM636 802 690 749H757L687 850H601L483 749H556Z" glyph-name="Wcircumflex" horiz-adv-x="1021" unicode="&#372;" /><glyph d="M617 -6H729L1092 700H983L699 124L666 700H559L247 124L239 700H136L159 -6H270L581 564ZM578 749 599 837H517L497 749ZM743 749 764 837H682L662 749Z" glyph-name="Wdieresis" horiz-adv-x="1021" unicode="&#7812;" /><glyph d="M617 -6H729L1092 700H983L699 124L666 700H559L247 124L239 700H136L159 -6H270L581 564ZM602 749H678L604 847H483Z" glyph-name="Wgrave" horiz-adv-x="1021" unicode="&#7808;" /><glyph d="M91 0 334 288 454 0H565L411 356L716 700H593L364 431L255 700H145L287 365L-33 0Z" glyph-name="X" horiz-adv-x="652" unicode="X" /><glyph d="M304 0 369 269 724 700H605L337 362L227 700H119L268 274L202 0Z" glyph-name="Y" horiz-adv-x="636" unicode="Y" /><glyph d="M304 0 369 269 724 700H605L337 362L227 700H119L268 274L202 0ZM445 745 611 843H480L361 745Z" glyph-name="Yacute" horiz-adv-x="636" unicode="&#221;" /><glyph d="M304 0 369 269 724 700H605L337 362L227 700H119L268 274L202 0ZM441 802 495 749H562L492 850H406L288 749H361Z" glyph-name="Ycircumflex" horiz-adv-x="636" unicode="&#374;" /><glyph d="M304 0 369 269 724 700H605L337 362L227 700H119L268 274L202 0ZM383 749 404 837H322L302 749ZM548 749 569 837H487L467 749Z" glyph-name="Ydieresis" horiz-adv-x="636" unicode="&#376;" /><glyph d="M304 0 369 269 724 700H605L337 362L227 700H119L268 274L202 0ZM406 745H482L408 843H287Z" glyph-name="Ygrave" horiz-adv-x="636" unicode="&#7922;" /><glyph d="M502 0 524 90H132L639 615L658 700H160L138 610H512L4 84L-15 0Z" glyph-name="Z" horiz-adv-x="604" unicode="Z" /><glyph d="M502 0 524 90H132L639 615L658 700H160L138 610H512L4 84L-15 0ZM432 749 598 847H467L348 749Z" glyph-name="Zacute" horiz-adv-x="604" unicode="&#377;" /><glyph d="M502 0 524 90H132L639 615L658 700H160L138 610H512L4 84L-15 0ZM419 798 365 850H298L368 749H454L572 850H499Z" glyph-name="Zcaron" horiz-adv-x="604" unicode="&#381;" /><glyph d="M502 0 524 90H132L639 615L658 700H160L138 610H512L4 84L-15 0ZM453 749 474 837H389L369 749Z" glyph-name="Zdotaccent" horiz-adv-x="604" unicode="&#379;" /><glyph d="M192 70C144 70 109 95 109 142C109 202 154 247 272 247C302 247 331 245 359 242L325 115C280 86 236 70 192 70ZM323 0H401L416 101L477 331C483 354 485 373 485 392C485 480 417 526 310 526C239 526 180 514 126 497L137 420C186 437 233 447 286 447C349 447 389 423 389 376C389 363 388 349 384 334L378 312C339 317 300 320 263 320C99 320 16 244 16 129C16 40 76 -9 157 -9C216 -9 266 13 318 52Z" glyph-name="a" horiz-adv-x="528" unicode="a" /><glyph d="M192 70C144 70 109 95 109 142C109 202 154 247 272 247C302 247 331 245 359 242L325 115C280 86 236 70 192 70ZM323 0H401L416 101L477 331C483 354 485 373 485 392C485 480 417 526 310 526C239 526 180 514 126 497L137 420C186 437 233 447 286 447C349 447 389 423 389 376C389 363 388 349 384 334L378 312C339 317 300 320 263 320C99 320 16 244 16 129C16 40 76 -9 157 -9C216 -9 266 13 318 52ZM354 590 525 705H403L285 590Z" glyph-name="aacute" horiz-adv-x="528" unicode="&#225;" /><glyph d="M192 70C144 70 109 95 109 142C109 202 154 247 272 247C302 247 331 245 359 242L325 115C280 86 236 70 192 70ZM323 0H401L416 101L477 331C483 354 485 373 485 392C485 480 417 526 310 526C239 526 180 514 126 497L137 420C186 437 233 447 286 447C349 447 389 423 389 376C389 363 388 349 384 334L378 312C339 317 300 320 263 320C99 320 16 244 16 129C16 40 76 -9 157 -9C216 -9 266 13 318 52ZM350 645C309 645 292 669 293 708H243C232 636 271 587 344 587C413 587 470 635 487 708H435C418 669 391 645 350 645Z" glyph-name="abreve" horiz-adv-x="528" unicode="&#259;" /><glyph d="M192 70C144 70 109 95 109 142C109 202 154 247 272 247C302 247 331 245 359 242L325 115C280 86 236 70 192 70ZM323 0H401L416 101L477 331C483 354 485 373 485 392C485 480 417 526 310 526C239 526 180 514 126 497L137 420C186 437 233 447 286 447C349 447 389 423 389 376C389 363 388 349 384 334L378 312C339 317 300 320 263 320C99 320 16 244 16 129C16 40 76 -9 157 -9C216 -9 266 13 318 52ZM357 656 410 590H468L403 708H330L208 590H273Z" glyph-name="acircumflex" horiz-adv-x="528" unicode="&#226;" /><glyph d="M345 587 516 702H394L276 587Z" glyph-name="acute" horiz-adv-x="500" unicode="&#180;" /><glyph d="M139 749 305 847H174L55 749Z" glyph-name="acute.cap" horiz-adv-x="0" /><glyph d="M192 70C144 70 109 95 109 142C109 202 154 247 272 247C302 247 331 245 359 242L325 115C280 86 236 70 192 70ZM323 0H401L416 101L477 331C483 354 485 373 485 392C485 480 417 526 310 526C239 526 180 514 126 497L137 420C186 437 233 447 286 447C349 447 389 423 389 376C389 363 388 349 384 334L378 312C339 317 300 320 263 320C99 320 16 244 16 129C16 40 76 -9 157 -9C216 -9 266 13 318 52ZM300 596 322 684H244L223 596ZM457 596 478 684H400L379 596Z" glyph-name="adieresis" horiz-adv-x="528" unicode="&#228;" /><glyph d="M622 452C684 452 720 410 720 344C720 328 718 311 715 295H460C487 383 550 452 622 452ZM192 70C144 70 109 95 109 142C109 202 154 247 272 247C302 247 331 245 360 242C358 226 357 211 357 196C357 175 359 156 363 138C294 89 242 70 192 70ZM727 25 717 100C672 80 624 69 577 69C487 69 444 121 444 198C444 205 444 212 445 219H787C800 257 808 300 808 343C808 456 746 530 638 530C568 530 508 497 461 441C441 497 383 526 296 526C235 526 178 514 126 497L137 420C185 436 233 447 281 447C349 447 387 421 387 376C387 363 385 350 382 336L376 313C338 317 300 320 263 320C99 320 16 244 16 129C16 40 78 -9 164 -9C239 -9 303 19 386 77C419 21 479 -10 562 -10C621 -10 676 2 727 25Z" glyph-name="ae" horiz-adv-x="839" unicode="&#230;" /><glyph d="M622 452C684 452 720 410 720 344C720 328 718 311 715 295H460C487 383 550 452 622 452ZM192 70C144 70 109 95 109 142C109 202 154 247 272 247C302 247 331 245 360 242C358 226 357 211 357 196C357 175 359 156 363 138C294 89 242 70 192 70ZM727 25 717 100C672 80 624 69 577 69C487 69 444 121 444 198C444 205 444 212 445 219H787C800 257 808 300 808 343C808 456 746 530 638 530C568 530 508 497 461 441C441 497 383 526 296 526C235 526 178 514 126 497L137 420C185 436 233 447 281 447C349 447 387 421 387 376C387 363 385 350 382 336L376 313C338 317 300 320 263 320C99 320 16 244 16 129C16 40 78 -9 164 -9C239 -9 303 19 386 77C419 21 479 -10 562 -10C621 -10 676 2 727 25ZM518 587 689 702H567L449 587Z" glyph-name="aeacute" horiz-adv-x="839" unicode="&#509;" /><glyph d="M192 70C144 70 109 95 109 142C109 202 154 247 272 247C302 247 331 245 359 242L325 115C280 86 236 70 192 70ZM323 0H401L416 101L477 331C483 354 485 373 485 392C485 480 417 526 310 526C239 526 180 514 126 497L137 420C186 437 233 447 286 447C349 447 389 423 389 376C389 363 388 349 384 334L378 312C339 317 300 320 263 320C99 320 16 244 16 129C16 40 76 -9 157 -9C216 -9 266 13 318 52ZM326 590H388L324 705H210Z" glyph-name="agrave" horiz-adv-x="528" unicode="&#224;" /><glyph d="M192 70C144 70 109 95 109 142C109 202 154 247 272 247C302 247 331 245 359 242L325 115C280 86 236 70 192 70ZM323 0H401L416 101L477 331C483 354 485 373 485 392C485 480 417 526 310 526C239 526 180 514 126 497L137 420C186 437 233 447 286 447C349 447 389 423 389 376C389 363 388 349 384 334L378 312C339 317 300 320 263 320C99 320 16 244 16 129C16 40 76 -9 157 -9C216 -9 266 13 318 52ZM467 601 480 654H227L214 601Z" glyph-name="amacron" horiz-adv-x="528" unicode="&#257;" /><glyph d="M220 75C162 75 122 112 122 171C122 236 174 305 280 353L389 165C326 103 272 75 220 75ZM488 0H593L499 166C560 235 608 307 654 394H559C526 334 492 281 456 236L344 427C325 458 317 486 317 513C317 579 363 623 430 623C476 623 519 607 565 578L611 656C556 689 496 708 428 708C300 708 223 626 222 519C222 483 230 450 246 415C102 358 26 264 26 156C26 56 93 -8 197 -8C280 -8 354 30 428 101Z" glyph-name="ampersand" horiz-adv-x="676" unicode="&amp;" /><glyph d="M192 70C144 70 109 95 109 142C109 202 154 247 272 247C302 247 331 245 359 242L325 115C280 86 236 70 192 70ZM399 -102C350 -95 337 -88 337 -75C337 -63 344 -52 394 0H401L416 101L477 331C483 354 485 373 485 392C485 480 417 526 310 526C239 526 180 514 126 497L137 420C186 437 233 447 286 447C349 447 389 423 389 376C389 363 388 349 384 334L378 312C339 317 300 320 263 320C99 320 16 244 16 129C16 40 76 -9 157 -9C216 -9 266 13 318 52L323 0H331C265 -51 251 -71 251 -94C251 -125 285 -143 385 -148Z" glyph-name="aogonek" horiz-adv-x="528" unicode="&#261;" /><glyph d="M509 536C472 476 448 456 424 456C404 456 387 464 343 492C296 524 273 536 241 536C199 536 159 504 105 412L154 386C190 442 213 459 236 459C256 459 274 452 317 423C364 391 387 379 419 379C461 379 501 410 560 510ZM461 325C425 269 402 252 379 252C359 252 342 260 298 289C251 321 228 332 196 332C154 332 114 302 55 201L106 175C144 235 167 256 191 256C211 256 229 248 272 219C319 187 342 176 374 176C415 176 457 208 511 300Z" glyph-name="approxequal" horiz-adv-x="564" unicode="&#8776;" /><glyph d="M192 70C144 70 109 95 109 142C109 202 154 247 272 247C302 247 331 245 359 242L325 115C280 86 236 70 192 70ZM323 0H401L416 101L477 331C483 354 485 373 485 392C485 480 417 526 310 526C239 526 180 514 126 497L137 420C186 437 233 447 286 447C349 447 389 423 389 376C389 363 388 349 384 334L378 312C339 317 300 320 263 320C99 320 16 244 16 129C16 40 76 -9 157 -9C216 -9 266 13 318 52ZM345 584C410 584 460 636 460 694C460 740 425 774 372 774C307 774 257 722 257 664C257 618 292 584 345 584ZM348 615C313 615 293 637 293 667C293 706 326 743 369 743C404 743 424 721 424 691C424 651 391 615 348 615Z" glyph-name="aring" horiz-adv-x="528" unicode="&#229;" /><glyph d="M192 70C144 70 109 95 109 142C109 202 154 247 272 247C302 247 331 245 359 242L325 115C280 86 236 70 192 70ZM323 0H401L416 101L477 331C483 354 485 373 485 392C485 480 417 526 310 526C239 526 180 514 126 497L137 420C186 437 233 447 286 447C349 447 389 423 389 376C389 363 388 349 384 334L378 312C339 317 300 320 263 320C99 320 16 244 16 129C16 40 76 -9 157 -9C216 -9 266 13 318 52ZM543 876H424L328 795H402ZM344 584C409 584 458 634 458 689C458 733 423 766 370 766C306 766 257 716 257 661C257 617 292 584 344 584ZM348 615C314 615 293 635 293 663C293 700 325 735 367 735C401 735 421 715 421 686C421 649 390 615 348 615Z" glyph-name="aringacute" horiz-adv-x="528" unicode="&#507;" /><glyph d="M104 421H194L380 650L454 421H537L438 724H350Z" glyph-name="asciicircum" horiz-adv-x="564" unicode="^" /><glyph d="M487 437C447 376 424 355 401 355C381 355 363 364 318 393C267 425 245 436 213 436C170 436 130 404 71 300L124 275C165 336 187 356 210 356C230 356 249 348 294 319C344 286 366 276 398 276C441 276 481 308 540 412Z" glyph-name="asciitilde" horiz-adv-x="564" unicode="~" /><glyph d="M246 595 295 691 235 706 233 597ZM209 579 216 591 139 666 106 614ZM367 551 362 612 259 580 260 567ZM154 463 219 549 210 560 114 510ZM254 438 311 462 249 551 237 545Z" glyph-name="asterisk" horiz-adv-x="331" unicode="*" /><glyph d="M351 -150C403 -150 446 -143 488 -130L481 -82C444 -93 404 -99 362 -99C204 -99 108 -12 108 161C108 428 291 660 487 660C585 660 623 615 623 546C623 530 621 513 618 495C597 501 575 504 551 504C381 504 272 356 272 206C272 112 324 64 397 64C438 64 480 81 522 113L531 64H579L679 409C695 461 704 500 704 549C704 647 643 717 505 717C267 717 48 467 48 153C48 -39 160 -150 351 -150ZM436 128C386 128 355 158 355 220C355 321 433 441 550 441C568 441 585 439 602 433L524 161C491 138 460 128 436 128Z" glyph-name="at" horiz-adv-x="727" unicode="@" /><glyph d="M192 70C144 70 109 95 109 142C109 202 154 247 272 247C302 247 331 245 359 242L325 115C280 86 236 70 192 70ZM323 0H401L416 101L477 331C483 354 485 373 485 392C485 480 417 526 310 526C239 526 180 514 126 497L137 420C186 437 233 447 286 447C349 447 389 423 389 376C389 363 388 349 384 334L378 312C339 317 300 320 263 320C99 320 16 244 16 129C16 40 76 -9 157 -9C216 -9 266 13 318 52ZM297 637C310 637 320 632 347 614C378 594 391 588 410 588C445 588 468 610 508 678L466 699C440 660 427 648 411 648C399 648 389 653 361 671C331 691 319 697 299 697C265 697 241 675 200 608L242 586C268 625 281 637 297 637Z" glyph-name="atilde" horiz-adv-x="528" unicode="&#227;" /><glyph d="M256 -10C320 -10 376 16 419 60C479 119 519 220 519 333C519 461 448 527 359 527C312 527 269 510 224 479L283 724H187L13 0H87L113 44C156 9 203 -10 256 -10ZM243 69C206 69 171 84 135 112L207 408C247 434 286 449 321 449C382 449 424 405 424 321C424 242 394 159 351 116C321 87 285 69 243 69Z" glyph-name="b" horiz-adv-x="558" unicode="b" /><glyph d="M225 -130H291L195 795H129Z" glyph-name="backslash" horiz-adv-x="374" unicode="\" /><glyph d="M223 -114H289L193 811H127Z" glyph-name="backslash.cap" horiz-adv-x="374" /><glyph d="M93 -130 316 795H248L25 -130Z" glyph-name="bar" horiz-adv-x="306" unicode="|" /><glyph d="M97 -114 320 811H252L29 -114Z" glyph-name="bar.cap" horiz-adv-x="306" /><glyph d="M398 -116 423 -55C331 -46 256 -25 200 -4C265 28 321 81 321 155C321 229 266 279 179 301C306 330 404 396 404 498C404 547 378 587 346 611C411 632 499 654 596 663L600 724C477 711 362 683 265 647L244 595C285 569 311 535 311 492C311 411 226 343 55 330L42 278C173 267 228 219 228 155C228 92 179 46 104 13L100 -39C179 -75 279 -103 398 -116Z" glyph-name="braceleft" horiz-adv-x="544" unicode="{" /><glyph d="M409 -71 434 -10C342 -1 267 20 211 41C276 73 332 126 332 200C332 274 277 324 190 346C317 375 415 441 415 543C415 592 389 632 357 656C422 677 510 699 607 708L611 769C488 756 373 728 276 692L255 640C296 614 322 580 322 537C322 456 237 388 66 375L53 323C184 312 239 264 239 200C239 137 190 91 115 58L111 6C190 -30 290 -58 409 -71Z" glyph-name="braceleft.cap" horiz-adv-x="544" /><glyph d="M-39 -116C85 -103 199 -75 296 -39L317 13C276 39 250 73 250 116C250 197 336 265 507 278L520 330C388 341 333 389 333 453C333 516 383 562 458 595L462 647C383 683 282 711 163 724L139 663C230 654 306 633 361 612C296 580 241 527 241 453C241 379 296 329 382 307C255 278 157 212 157 110C157 61 183 21 216 -3C151 -24 62 -46 -34 -55Z" glyph-name="braceright" horiz-adv-x="544" unicode="}" /><glyph d="M-28 -71C96 -58 210 -30 307 6L328 58C287 84 261 118 261 161C261 242 347 310 518 323L531 375C399 386 344 434 344 498C344 561 394 607 469 640L473 692C394 728 293 756 174 769L150 708C241 699 317 678 372 657C307 625 252 572 252 498C252 424 307 374 393 352C266 323 168 257 168 155C168 106 194 66 227 42C162 21 73 -1 -23 -10Z" glyph-name="braceright.cap" horiz-adv-x="544" /><glyph d="M281 -92 295 -35 100 -44 267 652 458 643 472 700 200 717 1 -109Z" glyph-name="bracketleft" horiz-adv-x="412" unicode="[" /><glyph d="M292 -47 306 10 111 1 278 697 469 688 483 745 211 762 12 -64Z" glyph-name="bracketleft.cap" horiz-adv-x="412" /><glyph d="M234 -109 433 717 153 700 139 643 335 652 167 -44 -24 -35 -38 -92Z" glyph-name="bracketright" horiz-adv-x="412" unicode="]" /><glyph d="M245 -64 444 762 164 745 150 688 346 697 178 1 -13 10 -27 -47Z" glyph-name="bracketright.cap" horiz-adv-x="412" /><glyph d="M341 642C300 642 283 666 284 705H234C223 633 262 584 335 584C404 584 461 632 478 705H426C409 666 382 642 341 642Z" glyph-name="breve" horiz-adv-x="500" unicode="&#728;" /><glyph d="M130 804C92 804 71 824 69 858H14C7 790 50 746 123 746C193 746 250 789 271 858H214C197 823 169 804 130 804Z" glyph-name="breve.cap" horiz-adv-x="0" /><glyph d="M108 355C108 282 168 222 241 222C314 222 374 282 374 355C374 428 314 488 241 488C168 488 108 428 108 355Z" glyph-name="bullet" horiz-adv-x="436" unicode="&#8226;" /><glyph d="M381 16 372 95C335 81 301 74 268 74C184 74 134 121 134 210C134 280 161 351 204 393C235 424 276 444 322 444C365 444 400 433 442 407L476 487C430 512 386 528 321 528C247 528 182 498 136 452C76 391 39 297 39 200C39 65 119 -10 249 -10C296 -10 339 -1 381 16Z" glyph-name="c" horiz-adv-x="465" unicode="c" /><glyph d="M381 16 372 95C335 81 301 74 268 74C184 74 134 121 134 210C134 280 161 351 204 393C235 424 276 444 322 444C365 444 400 433 442 407L476 487C430 512 386 528 321 528C247 528 182 498 136 452C76 391 39 297 39 200C39 65 119 -10 249 -10C296 -10 339 -1 381 16ZM362 590 533 705H411L293 590Z" glyph-name="cacute" horiz-adv-x="465" unicode="&#263;" /><glyph d="M338 639 286 705H228L293 587H366L488 705H423Z" glyph-name="caron" horiz-adv-x="500" unicode="&#711;" /><glyph d="M126 798 72 850H5L75 749H161L279 850H206Z" glyph-name="caron.cap" horiz-adv-x="0" /><glyph d="M381 16 372 95C335 81 301 74 268 74C184 74 134 121 134 210C134 280 161 351 204 393C235 424 276 444 322 444C365 444 400 433 442 407L476 487C430 512 386 528 321 528C247 528 182 498 136 452C76 391 39 297 39 200C39 65 119 -10 249 -10C296 -10 339 -1 381 16ZM355 642 303 708H245L310 590H383L505 708H440Z" glyph-name="ccaron" horiz-adv-x="465" unicode="&#269;" /><glyph d="M287 -86C287 -57 259 -42 210 -41L244 -10H249C296 -10 339 -1 381 16L372 95C335 81 301 74 268 74C184 74 134 121 134 210C134 280 161 351 204 393C235 424 276 444 322 444C365 444 400 433 442 407L476 487C430 512 386 528 321 528C247 528 182 498 136 452C76 391 39 297 39 200C39 88 94 18 187 -3L136 -54L146 -75C187 -71 203 -77 203 -90C203 -105 182 -117 100 -120L94 -155C240 -155 287 -124 287 -86Z" glyph-name="ccedilla" horiz-adv-x="465" unicode="&#231;" /><glyph d="M381 16 372 95C335 81 301 74 268 74C184 74 134 121 134 210C134 280 161 351 204 393C235 424 276 444 322 444C365 444 400 433 442 407L476 487C430 512 386 528 321 528C247 528 182 498 136 452C76 391 39 297 39 200C39 65 119 -10 249 -10C296 -10 339 -1 381 16ZM365 656 418 590H476L411 708H338L216 590H281Z" glyph-name="ccircumflex" horiz-adv-x="465" unicode="&#265;" /><glyph d="M381 16 372 95C335 81 301 74 268 74C184 74 134 121 134 210C134 280 161 351 204 393C235 424 276 444 322 444C365 444 400 433 442 407L476 487C430 512 386 528 321 528C247 528 182 498 136 452C76 391 39 297 39 200C39 65 119 -10 249 -10C296 -10 339 -1 381 16ZM388 596 409 684H328L307 596Z" glyph-name="cdotaccent" horiz-adv-x="465" unicode="&#267;" /><glyph d="M63 -155C209 -155 256 -124 256 -86C256 -57 228 -42 179 -41L229 4L168 9L105 -54L115 -75C156 -71 172 -77 172 -90C172 -105 151 -117 69 -120Z" glyph-name="cedilla" horiz-adv-x="500" unicode="&#184;" /><glyph d="M156 324C156 377 178 429 211 463C238 490 273 507 312 511L229 214C181 229 156 268 156 324ZM262 133C321 133 371 146 416 166L404 236C363 218 319 207 282 207H275L358 511C393 507 422 495 453 478L488 547C458 564 425 578 383 584L417 704H360L328 587C256 585 194 558 148 512C98 462 70 392 70 319C70 221 124 159 204 140L164 -4H222L259 133Z" glyph-name="cent" horiz-adv-x="472" unicode="&#162;" /><glyph d="M348 653 401 587H459L394 705H321L199 587H264Z" glyph-name="circumflex" horiz-adv-x="500" unicode="&#710;" /><glyph d="M134 802 188 749H255L185 850H99L-19 749H54Z" glyph-name="circumflex.cap" horiz-adv-x="0" /><glyph d="M185 401 213 518H111L83 401ZM88 0 117 117H15L-14 0Z" glyph-name="colon" horiz-adv-x="200" unicode=":" /><glyph d="M189 420 215 530H113L86 420ZM133 188 160 298H58L31 188Z" glyph-name="colon.fig" horiz-adv-x="198" /><glyph d="M215 439 242 550H137L110 439ZM149 167 176 278H71L44 167Z" glyph-name="colon.figtab" horiz-adv-x="282" /><glyph d="M205 401 233 518H131L103 401ZM108 0 136 117H34L6 0Z" glyph-name="colon.tab" horiz-adv-x="282" /><glyph d="M114 117H19C-6 2 -30 -45 -93 -119L-64 -145C37 -73 94 4 114 117Z" glyph-name="comma" horiz-adv-x="190" unicode="," /><glyph d="M145 117H47C22 13 -11 -44 -75 -114L-44 -139C49 -72 118 -4 145 117Z" glyph-name="comma.tab" horiz-adv-x="282" /><glyph d="M69 263C69 88 172 -26 334 -26C557 -26 730 199 730 437C730 612 627 726 465 726C242 726 69 501 69 263ZM101 266C101 484 259 697 462 697C608 697 698 593 698 434C698 216 540 3 337 3C191 3 101 107 101 266ZM495 192 488 246C456 232 428 222 394 222C337 222 303 257 303 315C303 401 364 484 447 484C479 484 505 475 529 459L557 514C529 531 496 543 451 543C326 543 235 434 235 308C235 217 292 163 382 163C424 163 460 174 495 192Z" glyph-name="copyright" horiz-adv-x="756" unicode="&#169;" /><glyph d="M240 69C179 69 134 113 134 196C134 277 164 359 207 402C237 432 274 449 317 449C354 449 388 434 423 406L351 108C311 83 275 69 240 69ZM347 0H420L595 724H499L440 479C398 510 353 527 302 527C238 527 182 501 138 457C78 398 39 298 39 184C39 56 112 -10 203 -10C251 -10 294 9 342 45Z" glyph-name="d" horiz-adv-x="558" unicode="d" /><glyph d="M220 476 226 565H241L313 550L325 602L246 587H232L277 702H221L209 587H195L123 602L111 550L190 565H204L167 476L134 268H150Z" glyph-name="dagger" horiz-adv-x="285" unicode="&#8224;" /><glyph d="M192 366 263 351 276 403 197 388H183L220 476L226 565H241L313 550L325 602L246 587H232L277 702H221L209 587H195L123 602L111 550L190 565H204L167 476L160 388H146L74 403L61 351L141 366H155L110 251H166L177 366Z" glyph-name="daggerdbl" horiz-adv-x="285" unicode="&#8225;" /><glyph d="M240 69C179 69 134 113 134 196C134 277 164 359 207 402C237 432 274 449 317 449C354 449 388 434 423 406L351 108C311 83 275 69 240 69ZM347 0H420L595 724H499L440 479C398 510 353 527 302 527C238 527 182 501 138 457C78 398 39 298 39 184C39 56 112 -10 203 -10C251 -10 294 9 342 45ZM731 725H666C653 657 638 621 612 581L638 566C689 610 715 647 731 725Z" glyph-name="dcaron" horiz-adv-x="558" unicode="&#271;" /><glyph d="M240 69C179 69 134 112 134 193C134 272 164 351 206 394C236 424 272 440 315 440C351 440 386 425 421 398L351 108C311 83 275 69 240 69ZM347 0H420L561 584H620L635 642H575L595 724H499L479 642H334L320 584H465L438 471C395 502 350 519 301 519C238 519 181 493 138 450C79 390 39 292 39 181C39 55 112 -10 203 -10C251 -10 294 9 342 45Z" glyph-name="dcroat" horiz-adv-x="558" unicode="&#273;" /><glyph d="M444 542C444 636 372 708 278 708C185 708 112 635 112 541C112 447 184 375 278 375C372 375 444 448 444 542ZM385 541C385 478 340 429 278 429C217 429 171 479 171 542C171 605 217 654 278 654C340 654 385 605 385 541Z" glyph-name="degree" horiz-adv-x="422" unicode="&#176;" /><glyph d="M291 593 313 681H235L214 593ZM448 593 469 681H391L370 593Z" glyph-name="dieresis" horiz-adv-x="500" unicode="&#168;" /><glyph d="M76 749 97 837H15L-5 749ZM241 749 262 837H180L160 749Z" glyph-name="dieresis.cap" horiz-adv-x="0" /><glyph d="M388 501 410 591H317L296 501ZM522 317 541 393 315 392 89 393 71 317 297 318ZM294 119 315 209H223L202 119Z" glyph-name="divide" horiz-adv-x="564" unicode="&#247;" /><glyph d="M209 513C209 573 259 624 351 624H363L303 406C237 437 209 467 209 513ZM266 75H255L320 306C390 275 421 241 421 194C421 125 365 75 266 75ZM266 -1C416 -1 510 83 510 204C510 286 459 341 344 389L409 619C458 611 502 591 546 563L582 637C536 664 488 684 435 693L462 784H403L378 700H357C203 700 121 614 121 503C121 426 168 372 279 324L210 80C150 90 94 115 41 149L6 76C59 41 119 17 183 6L150 -108H208L239 0C248 -1 257 -1 266 -1Z" glyph-name="dollar" horiz-adv-x="565" unicode="$" /><glyph d="M186 513C186 573 235 625 326 625H337L279 406C213 436 186 467 186 513ZM245 75H237L298 307C369 275 400 243 400 195C400 126 343 75 245 75ZM245 -1C393 -1 487 83 487 204C487 286 437 341 321 389L381 620C432 611 477 590 522 561L555 636C508 664 460 684 407 693L432 784H374L351 700H331C182 700 99 615 99 502C99 425 147 371 257 324L193 79C131 89 74 115 19 151L-14 77C41 41 101 16 167 5L136 -108H194L224 -1Z" glyph-name="dollar.tab" horiz-adv-x="564" /><glyph d="M247 69C183 69 138 111 138 190C138 262 164 334 204 373C233 403 273 421 317 421C359 421 395 402 424 376L361 112C327 86 291 69 247 69ZM355 0H429L566 570H637L649 623H579L597 700H502L484 623H339L326 570H471L442 451C406 477 360 499 303 499C241 499 183 474 139 430C82 373 46 280 46 178C46 59 116 -10 209 -10C265 -10 308 11 351 45ZM399 -126 412 -73H12L-2 -126Z" glyph-name="dong" horiz-adv-x="596" unicode="&#8363;" /><glyph d="M371 593 392 681H311L290 593Z" glyph-name="dotaccent" horiz-adv-x="500" unicode="&#729;" /><glyph d="M160 749 181 837H96L76 749Z" glyph-name="dotaccent.cap" horiz-adv-x="0" /><glyph d="M110 0 235 518H139L14 0Z" glyph-name="dotlessi" horiz-adv-x="249" unicode="&#305;" /><glyph d="M303 452C365 452 401 410 401 344C401 328 400 311 396 295H142C168 383 231 452 303 452ZM409 25 399 100C353 80 306 69 259 69C168 69 125 121 125 198C125 205 125 212 126 219H468C481 257 489 300 489 343C489 456 425 530 316 530C250 530 188 503 143 458C83 398 38 301 38 196C38 67 113 -10 243 -10C303 -10 357 2 409 25Z" glyph-name="e" horiz-adv-x="520" unicode="e" /><glyph d="M303 452C365 452 401 410 401 344C401 328 400 311 396 295H142C168 383 231 452 303 452ZM409 25 399 100C353 80 306 69 259 69C168 69 125 121 125 198C125 205 125 212 126 219H468C481 257 489 300 489 343C489 456 425 530 316 530C250 530 188 503 143 458C83 398 38 301 38 196C38 67 113 -10 243 -10C303 -10 357 2 409 25ZM355 590 526 705H404L286 590Z" glyph-name="eacute" horiz-adv-x="520" unicode="&#233;" /><glyph d="M303 452C365 452 401 410 401 344C401 328 400 311 396 295H142C168 383 231 452 303 452ZM409 25 399 100C353 80 306 69 259 69C168 69 125 121 125 198C125 205 125 212 126 219H468C481 257 489 300 489 343C489 456 425 530 316 530C250 530 188 503 143 458C83 398 38 301 38 196C38 67 113 -10 243 -10C303 -10 357 2 409 25ZM352 645C311 645 294 669 295 708H245C234 636 273 587 346 587C415 587 472 635 489 708H437C420 669 393 645 352 645Z" glyph-name="ebreve" horiz-adv-x="520" unicode="&#277;" /><glyph d="M303 452C365 452 401 410 401 344C401 328 400 311 396 295H142C168 383 231 452 303 452ZM409 25 399 100C353 80 306 69 259 69C168 69 125 121 125 198C125 205 125 212 126 219H468C481 257 489 300 489 343C489 456 425 530 316 530C250 530 188 503 143 458C83 398 38 301 38 196C38 67 113 -10 243 -10C303 -10 357 2 409 25ZM348 642 296 708H238L303 590H376L498 708H433Z" glyph-name="ecaron" horiz-adv-x="520" unicode="&#283;" /><glyph d="M303 452C365 452 401 410 401 344C401 328 400 311 396 295H142C168 383 231 452 303 452ZM409 25 399 100C353 80 306 69 259 69C168 69 125 121 125 198C125 205 125 212 126 219H468C481 257 489 300 489 343C489 456 425 530 316 530C250 530 188 503 143 458C83 398 38 301 38 196C38 67 113 -10 243 -10C303 -10 357 2 409 25ZM358 656 411 590H469L404 708H331L209 590H274Z" glyph-name="ecircumflex" horiz-adv-x="520" unicode="&#234;" /><glyph d="M303 452C365 452 401 410 401 344C401 328 400 311 396 295H142C168 383 231 452 303 452ZM409 25 399 100C353 80 306 69 259 69C168 69 125 121 125 198C125 205 125 212 126 219H468C481 257 489 300 489 343C489 456 425 530 316 530C250 530 188 503 143 458C83 398 38 301 38 196C38 67 113 -10 243 -10C303 -10 357 2 409 25ZM301 596 323 684H245L224 596ZM458 596 479 684H401L380 596Z" glyph-name="edieresis" horiz-adv-x="520" unicode="&#235;" /><glyph d="M303 452C365 452 401 410 401 344C401 328 400 311 396 295H142C168 383 231 452 303 452ZM409 25 399 100C353 80 306 69 259 69C168 69 125 121 125 198C125 205 125 212 126 219H468C481 257 489 300 489 343C489 456 425 530 316 530C250 530 188 503 143 458C83 398 38 301 38 196C38 67 113 -10 243 -10C303 -10 357 2 409 25ZM381 596 402 684H321L300 596Z" glyph-name="edotaccent" horiz-adv-x="520" unicode="&#279;" /><glyph d="M303 452C365 452 401 410 401 344C401 328 400 311 396 295H142C168 383 231 452 303 452ZM409 25 399 100C353 80 306 69 259 69C168 69 125 121 125 198C125 205 125 212 126 219H468C481 257 489 300 489 343C489 456 425 530 316 530C250 530 188 503 143 458C83 398 38 301 38 196C38 67 113 -10 243 -10C303 -10 357 2 409 25ZM327 590H389L325 705H211Z" glyph-name="egrave" horiz-adv-x="520" unicode="&#232;" /><glyph d="M262 -10C416 -10 520 87 520 206C520 269 492 320 427 356C520 386 576 453 576 542C576 637 498 709 362 709C211 709 125 612 125 513C125 454 148 409 206 374C97 344 34 263 34 169C34 61 123 -10 262 -10ZM223 502C223 566 275 625 357 625C429 625 474 586 474 530C474 463 417 406 341 405C273 405 223 443 223 502ZM136 181C136 254 197 322 291 323C369 324 422 276 422 215C422 136 358 75 269 75C189 75 136 113 136 181Z" glyph-name="eight" horiz-adv-x="582" unicode="8" /><glyph d="M170 -6C274 -6 341 48 341 121C341 161 318 192 276 211C338 228 375 267 375 319C375 381 318 425 225 425C126 425 65 373 65 309C65 273 83 244 122 224C50 208 9 162 9 107C9 41 69 -6 170 -6ZM134 303C134 342 170 372 223 372C275 372 305 347 305 312C305 273 268 242 217 242C165 242 134 267 134 303ZM81 115C81 158 123 193 178 193C236 193 271 165 271 126C271 82 231 48 173 48C114 48 81 74 81 115Z" glyph-name="eight.den" horiz-adv-x="407" /><glyph d="M238 275C342 275 409 329 409 402C409 442 386 473 344 492C406 509 443 548 443 600C443 662 386 706 293 706C194 706 133 654 133 590C133 554 151 525 190 505C118 489 77 443 77 388C77 322 137 275 238 275ZM202 584C202 623 238 653 291 653C343 653 373 628 373 593C373 554 336 523 285 523C233 523 202 548 202 584ZM149 396C149 439 191 474 246 474C304 474 339 446 339 407C339 363 299 329 241 329C182 329 149 355 149 396Z" glyph-name="eight.num" horiz-adv-x="407" /><glyph d="M225 -9C383 -9 486 89 486 211C486 277 454 328 389 358C483 389 544 457 544 550C544 645 466 709 346 709C191 709 101 610 101 502C101 443 129 399 183 372C69 342 8 262 8 164C8 56 98 -9 225 -9ZM304 406C248 406 197 438 197 495C197 560 253 624 335 624C401 624 444 589 444 537C444 466 379 406 304 406ZM234 75C161 75 107 113 107 175C107 249 171 322 267 322C341 322 390 278 390 220C390 141 323 75 234 75Z" glyph-name="eight.tab" horiz-adv-x="564" /><glyph d="M453 0 480 114H382L354 0ZM266 0 294 114H195L168 0ZM80 0 107 114H9L-19 0Z" glyph-name="ellipsis" horiz-adv-x="559" unicode="&#8230;" /><glyph d="M303 452C365 452 401 410 401 344C401 328 400 311 396 295H142C168 383 231 452 303 452ZM409 25 399 100C353 80 306 69 259 69C168 69 125 121 125 198C125 205 125 212 126 219H468C481 257 489 300 489 343C489 456 425 530 316 530C250 530 188 503 143 458C83 398 38 301 38 196C38 67 113 -10 243 -10C303 -10 357 2 409 25ZM468 601 481 654H228L215 601Z" glyph-name="emacron" horiz-adv-x="520" unicode="&#275;" /><glyph d="M757 265 777 345H65L45 265Z" glyph-name="emdash" horiz-adv-x="800" unicode="&#8212;" /><glyph d="M770 320 790 400H78L58 320Z" glyph-name="emdash.cap" horiz-adv-x="800" /><glyph d="M445 265 465 345H65L45 265Z" glyph-name="endash" horiz-adv-x="488" unicode="&#8211;" /><glyph d="M458 320 478 400H78L58 320Z" glyph-name="endash.cap" horiz-adv-x="488" /><glyph d="M271 -179C364 -122 414 -69 445 59L506 322C513 349 517 376 517 398C517 478 466 527 380 527C324 527 272 506 216 471L211 518H138L13 0H108L204 399C248 425 292 442 335 442C388 442 416 414 416 366C416 352 414 336 410 318L354 76C327 -30 291 -71 217 -125Z" glyph-name="eng" horiz-adv-x="563" unicode="&#331;" /><glyph d="M303 452C365 452 401 410 401 344C401 328 400 311 396 295H142C168 383 231 452 303 452ZM388 -102C339 -95 326 -88 326 -75C326 -61 336 -45 409 25L399 100C353 80 306 69 259 69C168 69 125 121 125 198C125 205 125 212 126 219H468C481 257 489 300 489 343C489 456 425 530 316 530C250 530 188 503 143 458C83 398 38 301 38 196C38 67 113 -9 243 -9C267 -9 290 -7 313 -3C253 -51 240 -71 240 -94C240 -125 274 -143 374 -148Z" glyph-name="eogonek" horiz-adv-x="520" unicode="&#281;" /><glyph d="M539 419 557 492H121L103 419ZM490 218 508 291H72L54 218Z" glyph-name="equal" horiz-adv-x="564" unicode="=" /><glyph d="M215 -12C283 -12 342 16 390 64C462 136 509 275 509 409C509 498 484 571 429 629L561 724H475L391 662C354 690 309 712 254 730L209 660C253 645 289 628 318 608L194 517H280L357 575C395 536 414 488 418 429C378 453 332 467 284 467C143 467 33 331 33 173C33 61 102 -12 215 -12ZM221 68C161 68 125 112 125 177C125 282 199 390 289 390C333 390 372 375 413 348C402 249 368 160 323 114C293 85 259 68 221 68Z" glyph-name="eth" horiz-adv-x="538" unicode="&#240;" /><glyph d="M133 188 237 516 281 700H177L133 516L79 188ZM112 0 139 107H35L9 0Z" glyph-name="exclam" horiz-adv-x="246" unicode="!" /><glyph d="M156 512 52 184 8 0H112L156 184L210 512ZM177 700 150 593H254L280 700Z" glyph-name="exclamdown" horiz-adv-x="246" unicode="&#161;" /><glyph d="M391 438 411 518H267L278 562C293 622 328 651 378 651C409 651 437 644 463 635L490 709C455 721 414 729 371 729C274 729 212 676 186 572L173 518H89L69 438H154L48 0H143L248 438Z" glyph-name="f" horiz-adv-x="366" unicode="f" /><glyph d="M391 438 411 518H267L278 562C293 622 328 651 378 651C405 651 431 646 457 636L476 713C442 724 404 729 371 729C274 729 212 676 186 572L173 518H89L69 438H154L48 0H143L248 438Z" glyph-name="f.lig" horiz-adv-x="366" /><glyph d="M391 438 411 518H267L278 562C293 622 328 651 378 651C409 651 437 644 463 635L490 709C455 721 414 729 371 729C274 729 212 676 186 572L173 518H89L69 438H154L48 0H143L248 438ZM758 438 778 518H634L645 562C660 622 695 651 745 651C776 651 804 644 830 635L857 709C822 721 781 729 738 729C641 729 579 676 553 572L540 518H456L436 438H521L415 0H510L615 438Z" glyph-name="f_f" horiz-adv-x="733" /><glyph d="M391 438 411 518H267L278 562C293 622 328 651 378 651C409 651 437 644 463 635L490 709C455 721 414 729 371 729C274 729 212 676 186 572L173 518H89L69 438H154L48 0H143L248 438ZM758 438 778 518H634L645 562C660 622 695 651 745 651C772 651 798 646 824 636L843 713C809 724 771 729 738 729C641 729 579 676 553 572L540 518H456L436 438H521L415 0H510L615 438ZM997 623 1019 712H916L895 623ZM843 0 968 518H872L747 0Z" glyph-name="f_f_i" horiz-adv-x="983" /><glyph d="M391 438 411 518H267L278 562C293 622 328 651 378 651C409 651 437 644 463 635L490 709C455 721 414 729 371 729C274 729 212 676 186 572L173 518H89L69 438H154L48 0H143L248 438ZM758 438 778 518H634L645 562C660 622 695 651 745 651C772 651 798 646 824 636L843 713C809 724 771 729 738 729C641 729 579 676 553 572L540 518H456L436 438H521L415 0H510L615 438ZM843 0 1017 724H922L747 0Z" glyph-name="f_f_l" horiz-adv-x="983" /><glyph d="M391 438 411 518H267L278 562C293 622 328 651 378 651C405 651 431 646 457 636L476 713C442 724 404 729 371 729C274 729 212 676 186 572L173 518H89L69 438H154L48 0H143L248 438ZM630 623 652 712H549L528 623ZM476 0 601 518H505L380 0Z" glyph-name="fi" horiz-adv-x="616" unicode="&#64257;" /><glyph d="M507 282C507 377 440 434 343 434C299 434 256 426 207 407L267 614H572L593 700H196L94 337L161 304C214 333 265 349 312 349C370 349 408 320 408 267C408 170 290 91 17 74L12 -12C374 1 507 133 507 282Z" glyph-name="five" horiz-adv-x="559" unicode="5" /><glyph d="M326 165C326 222 281 261 212 261C182 261 150 255 118 244L150 361H362L377 420H103L42 202L87 181C123 197 158 208 191 208C232 208 254 189 254 159C254 105 182 61 -4 51L-7 -7C229 1 326 69 326 165Z" glyph-name="five.den" horiz-adv-x="390" /><glyph d="M394 446C394 503 349 542 280 542C250 542 218 536 186 525L218 642H430L445 701H171L110 483L155 462C191 478 226 489 259 489C300 489 322 470 322 440C322 386 250 342 64 332L61 274C297 282 394 350 394 446Z" glyph-name="five.num" horiz-adv-x="390" /><glyph d="M496 295C496 383 440 437 336 437C286 437 239 427 183 404L243 614H559L580 700H172L71 335L139 302C200 333 252 351 302 351C362 351 395 323 395 278C395 182 278 102 -2 74L-3 -13C332 14 496 131 496 295Z" glyph-name="five.tab" horiz-adv-x="564" /><glyph d="M391 438 411 518H267L278 562C293 622 328 651 378 651C405 651 431 646 457 636L476 713C442 724 404 729 371 729C274 729 212 676 186 572L173 518H89L69 438H154L48 0H143L248 438ZM476 0 650 724H555L380 0Z" glyph-name="fl" horiz-adv-x="616" unicode="&#64258;" /><glyph d="M137 240 446 597 359 240ZM535 157 555 241H455L567 704H437L26 237L20 157H336L299 0H397L435 157Z" glyph-name="four" horiz-adv-x="587" unicode="4" /><glyph d="M74 145 283 365 229 145ZM355 90 369 146H297L364 422H264L-1 146L-3 90H214L192 0H262L284 90Z" glyph-name="four.den" horiz-adv-x="414" /><glyph d="M142 426 351 646 297 426ZM423 371 437 427H365L432 703H332L67 427L65 371H282L260 281H330L352 371Z" glyph-name="four.num" horiz-adv-x="414" /><glyph d="M109 241 412 606 324 241ZM495 157 515 242H420L532 704H399L6 241L-1 157H302L264 0H362L400 157Z" glyph-name="four.tab" horiz-adv-x="564" /><glyph d="M-234 0H-178L106 338L416 700H360L77 362Z" glyph-name="fraction" horiz-adv-x="138" unicode="&#8260;" /><glyph d="M243 90C179 90 135 132 135 211C135 286 164 360 206 402C235 431 272 449 313 449C351 449 385 434 420 407L353 126C315 103 278 90 243 90ZM176 -177C308 -177 390 -116 420 8L543 518H469L442 473C399 509 352 528 299 528C235 528 180 502 138 460C80 402 41 307 41 198C41 77 111 10 206 10C253 10 295 27 338 57L329 21C310 -59 259 -99 175 -99C120 -99 62 -84 14 -57L-16 -131C36 -159 100 -177 176 -177Z" glyph-name="g" horiz-adv-x="555" unicode="g" /><glyph d="M243 90C179 90 135 132 135 211C135 286 164 360 206 402C235 431 272 449 313 449C351 449 385 434 420 407L353 126C315 103 278 90 243 90ZM176 -177C308 -177 390 -116 420 8L543 518H469L442 473C399 509 352 528 299 528C235 528 180 502 138 460C80 402 41 307 41 198C41 77 111 10 206 10C253 10 295 27 338 57L329 21C310 -59 259 -99 175 -99C120 -99 62 -84 14 -57L-16 -131C36 -159 100 -177 176 -177ZM378 645C337 645 320 669 321 708H271C260 636 299 587 372 587C441 587 498 635 515 708H463C446 669 419 645 378 645Z" glyph-name="gbreve" horiz-adv-x="555" unicode="&#287;" /><glyph d="M243 90C179 90 135 132 135 211C135 286 164 360 206 402C235 431 272 449 313 449C351 449 385 434 420 407L353 126C315 103 278 90 243 90ZM176 -177C308 -177 390 -116 420 8L543 518H469L442 473C399 509 352 528 299 528C235 528 180 502 138 460C80 402 41 307 41 198C41 77 111 10 206 10C253 10 295 27 338 57L329 21C310 -59 259 -99 175 -99C120 -99 62 -84 14 -57L-16 -131C36 -159 100 -177 176 -177ZM374 642 322 708H264L329 590H402L524 708H459Z" glyph-name="gcaron" horiz-adv-x="555" unicode="&#487;" /><glyph d="M243 90C179 90 135 132 135 211C135 286 164 360 206 402C235 431 272 449 313 449C351 449 385 434 420 407L353 126C315 103 278 90 243 90ZM176 -177C308 -177 390 -116 420 8L543 518H469L442 473C399 509 352 528 299 528C235 528 180 502 138 460C80 402 41 307 41 198C41 77 111 10 206 10C253 10 295 27 338 57L329 21C310 -59 259 -99 175 -99C120 -99 62 -84 14 -57L-16 -131C36 -159 100 -177 176 -177ZM384 656 437 590H495L430 708H357L235 590H300Z" glyph-name="gcircumflex" horiz-adv-x="555" unicode="&#285;" /><glyph d="M243 90C179 90 135 132 135 211C135 286 164 360 206 402C235 431 272 449 313 449C351 449 385 434 420 407L353 126C315 103 278 90 243 90ZM176 -177C308 -177 390 -116 420 8L543 518H469L442 473C399 509 352 528 299 528C235 528 180 502 138 460C80 402 41 307 41 198C41 77 111 10 206 10C253 10 295 27 338 57L329 21C310 -59 259 -99 175 -99C120 -99 62 -84 14 -57L-16 -131C36 -159 100 -177 176 -177ZM407 596 428 684H347L326 596Z" glyph-name="gdotaccent" horiz-adv-x="555" unicode="&#289;" /><glyph d="M361 -7C483 -7 570 73 570 184C570 260 527 317 434 357C549 399 619 478 619 575C619 665 551 728 427 728C286 728 205 645 173 518H89L69 438H153L48 0H143L263 500C285 593 340 648 422 648C488 648 524 614 524 563C524 494 458 434 337 397L319 324C430 286 475 240 475 183C475 121 428 75 358 75C320 75 283 83 247 101L226 20C267 2 311 -7 361 -7Z" glyph-name="germandbls" horiz-adv-x="634" unicode="&#223;" /><glyph d="M317 587H379L315 702H201Z" glyph-name="grave" horiz-adv-x="500" unicode="`" /><glyph d="M100 749H176L102 847H-19Z" glyph-name="grave.cap" horiz-adv-x="0" /><glyph d="M145 584 125 504 440 360 55 217 33 126 520 317 538 393Z" glyph-name="greater" horiz-adv-x="564" unicode="&gt;" /><glyph d="M398 93 436 121 335 297 523 483 493 517 253 324 242 278ZM196 93 234 121 134 300 321 483 291 517 52 330 40 280Z" glyph-name="guillemotleft" horiz-adv-x="509" unicode="&#171;" /><glyph d="M411 148 449 176 348 352 536 538 506 572 266 379 255 333ZM209 148 247 176 147 355 334 538 304 572 65 385 53 335Z" glyph-name="guillemotleft.cap" horiz-adv-x="509" /><glyph d="M240 93 479 280 491 330 336 517 298 489 398 310 211 126ZM38 93 278 285 289 332 133 517 95 489 196 313 8 126Z" glyph-name="guillemotright" horiz-adv-x="509" unicode="&#187;" /><glyph d="M253 148 492 335 504 385 349 572 311 544 411 365 224 181ZM51 148 291 340 302 387 146 572 108 544 209 368 21 181Z" glyph-name="guillemotright.cap" horiz-adv-x="509" /><glyph d="M196 93 234 121 134 298 321 483 291 517 52 330 40 280Z" glyph-name="guilsinglleft" horiz-adv-x="307" unicode="&#8249;" /><glyph d="M209 148 247 176 147 353 334 538 304 572 65 385 53 335Z" glyph-name="guilsinglleft.cap" horiz-adv-x="307" /><glyph d="M38 93 277 280 289 330 133 517 95 489 196 311 8 126Z" glyph-name="guilsinglright" horiz-adv-x="307" unicode="&#8250;" /><glyph d="M51 148 290 335 302 385 146 572 108 544 209 366 21 181Z" glyph-name="guilsinglright.cap" horiz-adv-x="307" /><glyph d="M335 442C388 442 416 414 416 366C416 352 414 336 410 318L334 0H430L506 322C513 349 517 376 517 398C517 478 466 527 380 527C326 527 276 508 223 475L283 724H187L13 0H108L204 399C249 426 293 442 335 442Z" glyph-name="h" horiz-adv-x="563" unicode="h" /><glyph d="M333 434C385 434 414 405 414 357C414 344 412 327 408 309L334 0H430L504 313C511 340 514 367 514 389C514 469 464 518 377 518C324 518 274 499 221 467L249 584H394L408 642H263L283 724H187L167 642H108L94 584H153L13 0H108L202 391C247 418 291 434 333 434Z" glyph-name="hbar" horiz-adv-x="563" unicode="&#295;" /><glyph d="M335 442C388 442 416 414 416 366C416 352 414 336 410 318L334 0H430L506 322C513 349 517 376 517 398C517 478 466 527 380 527C326 527 276 508 223 475L283 724H187L13 0H108L204 399C249 426 293 442 335 442ZM264 832 317 766H375L310 884H237L115 766H180Z" glyph-name="hcircumflex" horiz-adv-x="563" unicode="&#293;" /><glyph d="M279 587 440 702H335L213 587ZM421 587 583 702H478L356 587Z" glyph-name="hungarumlaut" horiz-adv-x="500" unicode="&#733;" /><glyph d="M69 749 227 847H117L-6 749ZM215 749 372 847H262L139 749Z" glyph-name="hungarumlaut.cap" horiz-adv-x="0" /><glyph d="M298 263 318 347H65L45 263Z" glyph-name="hyphen" horiz-adv-x="341" unicode="-" /><glyph d="M311 318 331 402H78L58 318Z" glyph-name="hyphen.cap" horiz-adv-x="341" /><glyph d="M264 623 286 712H183L162 623ZM110 0 235 518H139L14 0Z" glyph-name="i" horiz-adv-x="249" unicode="i" /><glyph d="M110 0 235 518H139L14 0ZM245 593 266 681H185L164 593Z" glyph-name="i.dot" horiz-adv-x="249" /><glyph d="M110 0 235 518H139L14 0ZM219 587 390 702H268L150 587Z" glyph-name="iacute" horiz-adv-x="249" unicode="&#237;" /><glyph d="M110 0 235 518H139L14 0ZM216 642C175 642 158 666 159 705H109C98 633 137 584 210 584C279 584 336 632 353 705H301C284 666 257 642 216 642Z" glyph-name="ibreve" horiz-adv-x="249" unicode="&#301;" /><glyph d="M110 0 235 518H139L14 0ZM222 653 275 587H333L268 705H195L73 587H138Z" glyph-name="icircumflex" horiz-adv-x="249" unicode="&#238;" /><glyph d="M110 0 235 518H139L14 0ZM165 593 187 681H109L88 593ZM322 593 343 681H265L244 593Z" glyph-name="idieresis" horiz-adv-x="249" unicode="&#239;" /><glyph d="M110 0 235 518H139L14 0ZM191 587H253L189 702H75Z" glyph-name="igrave" horiz-adv-x="249" unicode="&#236;" /><glyph d="M110 0 235 518H139L14 0ZM317 598 330 651H107L94 598Z" glyph-name="imacron" horiz-adv-x="249" unicode="&#299;" /><glyph d="M264 623 286 712H183L162 623ZM104 -102C55 -95 42 -88 42 -75C42 -63 49 -52 99 0H110L235 518H139L14 0H36C-30 -51 -44 -71 -44 -94C-44 -125 -10 -143 90 -148Z" glyph-name="iogonek" horiz-adv-x="249" unicode="&#303;" /><glyph d="M110 0 235 518H139L14 0ZM162 634C175 634 185 629 212 611C243 591 256 585 275 585C310 585 333 607 373 675L331 696C305 657 292 645 276 645C264 645 254 650 226 668C196 688 184 694 164 694C130 694 106 672 65 605L107 583C133 622 146 634 162 634Z" glyph-name="itilde" horiz-adv-x="249" unicode="&#297;" /><glyph d="M266 623 287 712H185L164 623ZM128 58 236 518H141L37 76C11 -30 -27 -71 -100 -125L-47 -179C46 -121 97 -68 128 58Z" glyph-name="j" horiz-adv-x="250" unicode="j" /><glyph d="M128 58 236 518H141L37 76C11 -30 -27 -71 -100 -125L-47 -179C46 -121 97 -68 128 58ZM224 653 277 587H335L270 705H197L75 587H140Z" glyph-name="jcircumflex" horiz-adv-x="250" unicode="&#309;" /><glyph d="M330 0H438L274 263L556 518H438L189 290H178L283 724H187L13 0H108L168 249H177Z" glyph-name="k" horiz-adv-x="512" unicode="k" /><glyph d="M110 0 284 724H189L14 0Z" glyph-name="l" horiz-adv-x="249" unicode="l" /><glyph d="M110 0 284 724H189L14 0ZM265 778 436 893H314L196 778Z" glyph-name="lacute" horiz-adv-x="249" unicode="&#314;" /><glyph d="M110 0 284 724H189L14 0ZM420 725H355C342 657 327 621 301 581L327 566C378 610 404 647 420 725Z" glyph-name="lcaron" horiz-adv-x="249" unicode="&#318;" /><glyph d="M465 126 485 206 170 350 556 494 577 584 91 393 72 317Z" glyph-name="less" horiz-adv-x="564" unicode="&lt;" /><glyph d="M127 0 210 345 290 384 309 462 229 422 302 725 207 724 123 376 42 336 24 259 104 300 32 0Z" glyph-name="lslash" horiz-adv-x="284" unicode="&#322;" /><glyph d="M333 442C384 442 411 415 411 367C411 353 409 337 405 319L329 0H424L501 323C507 348 511 372 511 394C564 426 608 442 649 442C700 442 728 415 728 367C728 353 726 337 721 319L645 0H741L818 323C824 350 828 376 828 399C828 478 778 527 693 527C630 527 573 504 499 459C480 503 438 527 377 527C322 527 272 506 216 471L211 518H138L13 0H108L204 399C248 425 291 442 333 442Z" glyph-name="m" horiz-adv-x="874" unicode="m" /><glyph d="M458 598 471 651H218L205 598Z" glyph-name="macron" horiz-adv-x="500" unicode="&#175;" /><glyph d="M262 755 276 811H-11L-24 755Z" glyph-name="macron.cap" horiz-adv-x="0" /><glyph d="M244 755 258 811H7L-7 755Z" glyph-name="macron.capnrw" horiz-adv-x="0" /><glyph d="M193 598 206 651H-17L-30 598Z" glyph-name="macron.nrw" horiz-adv-x="0" /><glyph d="M97 318 123 422H42L17 318Z" glyph-name="middotcat" horiz-adv-x="86" /><glyph d="M107 324 134 434H43L16 324Z" glyph-name="middotcat.cap" horiz-adv-x="180" /><glyph d="M521 315 541 395H89L70 315Z" glyph-name="minus" horiz-adv-x="564" unicode="&#8722;" /><glyph d="M415 144 479 194 359 350 556 508 511 566 314 408 197 566 133 516 252 359 56 202 101 143 297 302Z" glyph-name="multiply" horiz-adv-x="564" unicode="&#215;" /><glyph d="M335 442C388 442 416 414 416 366C416 352 414 336 410 318L334 0H430L506 322C513 349 517 376 517 398C517 478 466 527 380 527C324 527 272 506 216 471L211 518H138L13 0H108L204 399C248 425 292 442 335 442Z" glyph-name="n" horiz-adv-x="563" unicode="n" /><glyph d="M335 442C388 442 416 414 416 366C416 352 414 336 410 318L334 0H430L506 322C513 349 517 376 517 398C517 478 466 527 380 527C324 527 272 506 216 471L211 518H138L13 0H108L204 399C248 425 292 442 335 442ZM374 590 545 705H423L305 590Z" glyph-name="nacute" horiz-adv-x="563" unicode="&#324;" /><glyph d="M335 442C388 442 416 414 416 366C416 352 414 336 410 318L334 0H430L506 322C513 349 517 376 517 398C517 478 466 527 380 527C324 527 272 506 216 471L211 518H138L13 0H108L204 399C248 425 292 442 335 442ZM367 642 315 708H257L322 590H395L517 708H452Z" glyph-name="ncaron" horiz-adv-x="563" unicode="&#328;" /><glyph d="M350 711C201 711 94 592 94 440C94 327 167 259 278 259C316 259 358 267 397 280C340 190 238 111 80 66L94 -16C220 9 328 66 399 136C499 236 553 366 553 494C553 637 472 711 350 711ZM342 628C410 628 457 582 457 495C457 452 448 407 432 362C393 348 352 339 315 339C235 339 191 379 191 449C191 540 259 628 342 628Z" glyph-name="nine" horiz-adv-x="564" unicode="9" /><glyph d="M209 427C111 427 37 362 37 270C37 200 86 158 163 158C194 158 227 165 257 176C222 120 155 75 41 49L52 -10C245 28 354 142 354 281C354 372 298 427 209 427ZM204 370C254 370 285 339 285 283C285 265 282 245 277 225C248 215 216 210 190 210C133 210 106 233 106 276C106 329 148 370 204 370Z" glyph-name="nine.den" horiz-adv-x="400" /><glyph d="M277 708C179 708 105 643 105 551C105 481 154 439 231 439C262 439 295 446 325 457C290 401 223 356 109 330L120 271C313 309 422 423 422 562C422 653 366 708 277 708ZM272 651C322 651 353 620 353 564C353 546 350 526 345 506C316 496 284 491 258 491C201 491 174 514 174 557C174 610 216 651 272 651Z" glyph-name="nine.num" horiz-adv-x="400" /><glyph d="M334 711C175 711 67 581 67 428C67 319 138 258 246 258C291 258 336 268 380 285C326 194 233 121 75 61L101 -18C217 19 311 72 381 141C488 247 533 378 533 495C533 632 458 711 334 711ZM327 627C398 627 438 578 438 500C438 462 430 416 416 372C369 352 319 340 278 340C207 340 164 375 164 440C164 496 186 550 218 582C246 609 285 627 327 627Z" glyph-name="nine.tab" horiz-adv-x="564" /><glyph d="M490 220 507 289H286L390 421H539L556 490H447L537 605H466L376 490H120L103 421H325L221 289H71L54 220H164L74 105H144L234 220Z" glyph-name="notequal" horiz-adv-x="564" unicode="&#8800;" /><glyph d="M335 442C388 442 416 414 416 366C416 352 414 336 410 318L334 0H430L506 322C513 349 517 376 517 398C517 478 466 527 380 527C324 527 272 506 216 471L211 518H138L13 0H108L204 399C248 425 292 442 335 442ZM317 637C330 637 340 632 367 614C398 594 411 588 430 588C465 588 488 610 528 678L486 699C460 660 447 648 431 648C419 648 409 653 381 671C351 691 339 697 319 697C285 697 261 675 220 608L262 586C288 625 301 637 317 637Z" glyph-name="ntilde" horiz-adv-x="563" unicode="&#241;" /><glyph d="M378 252 243 264 290 448 425 436ZM314 -5H373L421 185L554 173L559 236L436 247L482 431L613 419L618 482L498 493L551 705H492L440 498L305 510L354 705H296L248 515L114 527L109 464L232 453L186 269L55 281L50 218L171 207L117 -5H176L228 202L363 190Z" glyph-name="numbersign" horiz-adv-x="625" unicode="#" /><glyph d="M233 -12C301 -12 361 16 407 61C468 122 507 220 507 322C507 452 425 530 312 530C244 530 184 502 138 457C78 396 38 298 38 196C38 66 120 -12 233 -12ZM239 68C179 68 132 113 132 197C132 275 164 363 208 406C235 433 268 450 306 450C366 450 413 405 413 321C413 243 381 155 338 112C311 85 277 68 239 68Z" glyph-name="o" horiz-adv-x="545" unicode="o" /><glyph d="M233 -12C301 -12 361 16 407 61C468 122 507 220 507 322C507 452 425 530 312 530C244 530 184 502 138 457C78 396 38 298 38 196C38 66 120 -12 233 -12ZM239 68C179 68 132 113 132 197C132 275 164 363 208 406C235 433 268 450 306 450C366 450 413 405 413 321C413 243 381 155 338 112C311 85 277 68 239 68ZM359 590 530 705H408L290 590Z" glyph-name="oacute" horiz-adv-x="545" unicode="&#243;" /><glyph d="M233 -12C301 -12 361 16 407 61C468 122 507 220 507 322C507 452 425 530 312 530C244 530 184 502 138 457C78 396 38 298 38 196C38 66 120 -12 233 -12ZM239 68C179 68 132 113 132 197C132 275 164 363 208 406C235 433 268 450 306 450C366 450 413 405 413 321C413 243 381 155 338 112C311 85 277 68 239 68ZM355 645C314 645 297 669 298 708H248C237 636 276 587 349 587C418 587 475 635 492 708H440C423 669 396 645 355 645Z" glyph-name="obreve" horiz-adv-x="545" unicode="&#335;" /><glyph d="M233 -12C301 -12 361 16 407 61C468 122 507 220 507 322C507 452 425 530 312 530C244 530 184 502 138 457C78 396 38 298 38 196C38 66 120 -12 233 -12ZM239 68C179 68 132 113 132 197C132 275 164 363 208 406C235 433 268 450 306 450C366 450 413 405 413 321C413 243 381 155 338 112C311 85 277 68 239 68ZM362 656 415 590H473L408 708H335L213 590H278Z" glyph-name="ocircumflex" horiz-adv-x="545" unicode="&#244;" /><glyph d="M233 -12C301 -12 361 16 407 61C468 122 507 220 507 322C507 452 425 530 312 530C244 530 184 502 138 457C78 396 38 298 38 196C38 66 120 -12 233 -12ZM239 68C179 68 132 113 132 197C132 275 164 363 208 406C235 433 268 450 306 450C366 450 413 405 413 321C413 243 381 155 338 112C311 85 277 68 239 68ZM305 596 327 684H249L228 596ZM462 596 483 684H405L384 596Z" glyph-name="odieresis" horiz-adv-x="545" unicode="&#246;" /><glyph d="M673 452C735 452 771 410 771 344C771 328 769 311 766 295H511C538 383 601 452 673 452ZM240 68C179 68 132 113 132 197C132 275 164 363 208 406C235 433 268 450 306 450C366 450 413 405 413 321C413 243 381 155 338 112C311 85 277 68 240 68ZM400 62C412 74 423 87 433 102C460 31 523 -10 616 -10C674 -10 727 2 778 25L768 100C723 80 675 69 628 69C538 69 495 121 495 198C495 205 495 212 496 219H838C851 257 859 300 859 343C859 456 795 530 688 530C624 530 563 504 518 458C505 445 493 429 482 413C454 487 390 530 309 530C242 530 183 502 138 457C78 396 38 298 38 196C38 66 120 -12 231 -12C297 -12 355 16 400 62Z" glyph-name="oe" horiz-adv-x="890" unicode="&#339;" /><glyph d="M231 -102C182 -95 169 -88 169 -75C169 -63 176 -51 230 4L177 11C99 -48 83 -69 83 -94C83 -125 117 -143 217 -148Z" glyph-name="ogonek" horiz-adv-x="500" unicode="&#731;" /><glyph d="M233 -12C301 -12 361 16 407 61C468 122 507 220 507 322C507 452 425 530 312 530C244 530 184 502 138 457C78 396 38 298 38 196C38 66 120 -12 233 -12ZM239 68C179 68 132 113 132 197C132 275 164 363 208 406C235 433 268 450 306 450C366 450 413 405 413 321C413 243 381 155 338 112C311 85 277 68 239 68ZM331 590H393L329 705H215Z" glyph-name="ograve" horiz-adv-x="545" unicode="&#242;" /><glyph d="M234 -12C301 -12 361 15 407 61C467 121 507 219 507 320C507 389 483 442 444 476C533 492 579 550 579 616C579 631 576 642 573 653L504 634C506 624 506 617 506 606C503 559 461 523 383 523C361 523 337 525 318 525C245 525 184 498 138 452C77 392 38 295 38 194C38 66 120 -12 234 -12ZM240 68C179 68 132 113 132 196C132 273 164 359 207 402C234 429 267 447 308 447C364 447 413 403 413 319C413 242 380 155 338 112C311 85 277 68 240 68Z" glyph-name="ohorn" horiz-adv-x="545" unicode="&#417;" /><glyph d="M233 -12C301 -12 361 16 407 61C468 122 507 220 507 322C507 452 425 530 312 530C244 530 184 502 138 457C78 396 38 298 38 196C38 66 120 -12 233 -12ZM239 68C179 68 132 113 132 197C132 275 164 363 208 406C235 433 268 450 306 450C366 450 413 405 413 321C413 243 381 155 338 112C311 85 277 68 239 68ZM293 590 454 705H349L227 590ZM435 590 597 705H492L370 590Z" glyph-name="ohungarumlaut" horiz-adv-x="545" unicode="&#337;" /><glyph d="M233 -12C301 -12 361 16 407 61C468 122 507 220 507 322C507 452 425 530 312 530C244 530 184 502 138 457C78 396 38 298 38 196C38 66 120 -12 233 -12ZM239 68C179 68 132 113 132 197C132 275 164 363 208 406C235 433 268 450 306 450C366 450 413 405 413 321C413 243 381 155 338 112C311 85 277 68 239 68ZM472 601 485 654H232L219 601Z" glyph-name="omacron" horiz-adv-x="545" unicode="&#333;" /><glyph d="M241 0 412 704H339L119 622L129 539L284 593L141 0Z" glyph-name="one" horiz-adv-x="414" unicode="1" /><glyph d="M167 0 270 422H217L54 368L61 307L177 343L93 0Z" glyph-name="one.den" horiz-adv-x="308" /><glyph d="M235 281 338 703H285L122 649L129 588L245 624L161 281Z" glyph-name="one.num" horiz-adv-x="308" /><glyph d="M414 0 434 82H275L442 704H369L148 626L146 543L315 598L175 82H2L-18 0Z" glyph-name="one.tab" horiz-adv-x="564" /><glyph d="M235 281 338 703H285L122 649L129 588L245 624L161 281ZM99 0H155L439 338L749 700H693L410 362ZM791 0 806 61H591L738 177C815 235 847 274 847 325C847 385 795 425 721 425C659 425 600 400 552 360L579 307C624 341 667 362 708 362C747 362 771 343 771 313C771 286 749 261 702 223L483 50L485 0Z" glyph-name="onehalf" horiz-adv-x="881" unicode="&#189;" /><glyph d="M235 281 338 703H285L122 649L129 588L245 624L161 281ZM99 0H155L439 338L749 700H693L410 362ZM518 145 727 365 673 145ZM799 90 813 146H741L808 422H708L443 146L441 90H658L636 0H706L728 90Z" glyph-name="onequarter" horiz-adv-x="858" unicode="&#188;" /><glyph d="M235 281 338 703H285L122 649L129 588L245 624L161 281ZM99 0H155L439 338L749 700H693L410 362ZM482 -5C726 -4 816 49 816 129C816 173 780 207 710 216C814 238 860 280 860 336C860 391 811 425 718 425C668 425 617 415 573 398L588 344C628 358 671 367 709 367C761 367 785 351 785 325C785 291 743 261 611 237L602 189C708 184 741 164 741 132C741 88 676 55 496 54Z" glyph-name="onethird" horiz-adv-x="887" unicode="&#8531;" /><glyph d="M222 420C191 420 168 437 168 467C168 508 198 536 275 536C294 536 313 535 331 533L311 449C281 430 251 420 222 420ZM312 380H367L375 443L408 579C411 595 413 608 413 619C413 675 372 705 302 705C254 705 213 697 177 684L185 636C217 647 250 654 285 654C324 654 347 639 347 611C347 600 345 591 343 581L341 572C316 575 292 576 268 576C157 576 106 530 106 459C106 407 144 376 199 376C237 376 272 389 308 414ZM351 270 361 310H62L53 270Z" glyph-name="ordfeminine" horiz-adv-x="402" unicode="&#170;" /><glyph d="M291 707C190 707 112 613 112 504C112 423 167 373 243 373C344 373 423 466 423 575C423 656 367 707 291 707ZM286 653C329 653 361 623 361 571C361 506 314 426 248 426C205 426 174 456 174 509C174 573 220 653 286 653ZM349 270 359 310H65L55 270Z" glyph-name="ordmasculine" horiz-adv-x="403" unicode="&#186;" /><glyph d="M129 197C129 276 163 363 207 407C235 435 269 452 307 452C333 452 357 443 376 427L142 130C134 148 129 171 129 197ZM238 66C212 66 188 75 169 91L403 388C411 370 416 347 416 321C416 242 383 155 338 111C311 83 276 66 238 66ZM233 -12C301 -12 361 16 407 61C468 122 507 220 507 322C507 376 493 421 468 455L562 569H487L428 495C396 518 356 530 312 530C244 530 184 502 138 457C78 396 38 298 38 196C38 142 52 96 77 62L-17 -51H58L118 22C149 0 189 -12 233 -12Z" glyph-name="oslash" horiz-adv-x="545" unicode="&#248;" /><glyph d="M129 197C129 276 163 363 207 407C235 435 269 452 307 452C333 452 357 443 376 427L142 130C134 148 129 171 129 197ZM238 66C212 66 188 75 169 91L403 388C411 370 416 347 416 321C416 242 383 155 338 111C311 83 276 66 238 66ZM233 -12C301 -12 361 16 407 61C468 122 507 220 507 322C507 376 493 421 468 455L562 569H487L428 495C396 518 356 530 312 530C244 530 184 502 138 457C78 396 38 298 38 196C38 142 52 96 77 62L-17 -51H58L118 22C149 0 189 -12 233 -12ZM360 590 531 705H409L291 590Z" glyph-name="oslashacute" horiz-adv-x="545" unicode="&#511;" /><glyph d="M233 -12C301 -12 361 16 407 61C468 122 507 220 507 322C507 452 425 530 312 530C244 530 184 502 138 457C78 396 38 298 38 196C38 66 120 -12 233 -12ZM239 68C179 68 132 113 132 197C132 275 164 363 208 406C235 433 268 450 306 450C366 450 413 405 413 321C413 243 381 155 338 112C311 85 277 68 239 68ZM302 637C315 637 325 632 352 614C383 594 396 588 415 588C450 588 473 610 513 678L471 699C445 660 432 648 416 648C404 648 394 653 366 671C336 691 324 697 304 697C270 697 246 675 205 608L247 586C273 625 286 637 302 637Z" glyph-name="otilde" horiz-adv-x="545" unicode="&#245;" /><glyph d="M243 69C206 69 170 84 135 112L206 409C246 434 282 449 318 449C379 449 424 405 424 322C424 241 394 159 351 116C321 87 285 69 243 69ZM257 -10C320 -10 376 15 419 59C479 118 519 219 519 333C519 461 446 528 356 528C309 528 264 509 216 473L211 518H138L-29 -173H66L117 39C160 7 207 -10 257 -10Z" glyph-name="p" horiz-adv-x="558" unicode="p" /><glyph d="M394 0 563 700H383C198 700 89 595 89 451C89 338 169 281 282 281H286L372 637H480L327 0Z" glyph-name="paragraph" horiz-adv-x="546" unicode="&#182;" /><glyph d="M279 -74C197 9 153 105 153 215C153 398 259 569 459 674L435 728C202 626 65 434 65 218C65 90 130 -30 237 -120Z" glyph-name="parenleft" horiz-adv-x="397" unicode="(" /><glyph d="M290 -29C208 54 164 150 164 260C164 443 270 614 470 719L446 773C213 671 76 479 76 263C76 135 141 15 248 -75Z" glyph-name="parenleft.cap" horiz-adv-x="397" /><glyph d="M140 682C222 599 266 503 266 393C266 210 160 39 -40 -66L-16 -120C217 -18 354 174 354 390C354 518 289 638 182 728Z" glyph-name="parenright" horiz-adv-x="397" unicode=")" /><glyph d="M151 727C233 644 277 548 277 438C277 255 171 84 -29 -21L-5 -75C228 27 365 219 365 435C365 563 300 683 193 773Z" glyph-name="parenright.cap" horiz-adv-x="397" /><glyph d="M680 687 637 711 354 359 56 13 99 -11 382 341ZM272 706C235 706 202 690 174 663C133 621 106 551 106 483C106 398 154 352 218 352C255 352 288 368 316 396C357 437 384 508 384 576C384 660 336 706 272 706ZM268 652C302 652 324 624 324 574C324 524 303 460 274 431C258 415 241 406 222 406C188 406 166 434 166 484C166 534 187 599 216 628C231 643 249 652 268 652ZM519 348C482 348 449 332 421 304C380 263 353 193 353 124C353 40 402 -6 465 -6C503 -6 535 10 563 37C604 79 631 150 631 218C631 302 583 348 519 348ZM515 294C549 294 571 266 571 216C571 166 550 101 521 72C506 57 488 48 469 48C436 48 414 76 414 126C414 176 434 240 463 269C479 285 496 294 515 294Z" glyph-name="percent" horiz-adv-x="697" unicode="%" /><glyph d="M83 0 112 117H10L-19 0Z" glyph-name="period" horiz-adv-x="190" unicode="." /><glyph d="M109 0 137 117H35L7 0Z" glyph-name="period.tab" horiz-adv-x="282" /><glyph d="M288 125 336 318H522L540 392H354L402 585H322L275 392H89L70 318H256L209 125Z" glyph-name="plus" horiz-adv-x="564" unicode="+" /><glyph d="M299 168 342 344H519L537 419H360L404 598H325L281 419H104L86 344H262L220 168ZM436 0 454 73H21L3 0Z" glyph-name="plusminus" horiz-adv-x="564" unicode="&#177;" /><glyph d="M378 -173 545 518H471L445 474C402 509 355 528 302 528C238 528 182 501 139 458C79 398 39 298 39 186C39 56 112 -10 201 -10C247 -10 289 7 334 39L283 -173ZM240 69C178 69 134 113 134 197C134 277 164 358 207 402C237 431 273 449 315 449C352 449 387 434 423 406L351 108C311 83 275 69 240 69Z" glyph-name="q" horiz-adv-x="558" unicode="q" /><glyph d="M241 188 288 317C468 374 547 451 547 557C547 650 468 710 344 710C266 710 186 686 121 646L150 570C213 605 274 624 330 624C407 624 448 590 448 540C448 478 400 423 215 367L187 188ZM221 0 247 107H143L118 0Z" glyph-name="question" horiz-adv-x="524" unicode="?" /><glyph d="M327 512 280 383C100 326 21 249 21 143C21 50 100 -10 224 -10C302 -10 382 14 447 54L418 130C355 95 294 76 238 76C161 76 120 110 120 160C120 222 168 277 353 333L381 512ZM347 700 321 593H425L450 700Z" glyph-name="questiondown" horiz-adv-x="524" unicode="&#191;" /><glyph d="M494 699V700H388L265 450L303 437ZM317 699V700H210L88 450L125 437Z" glyph-name="quotedbl" horiz-adv-x="417" unicode="&quot;" /><glyph d="M583 699V700H472L329 452L365 437ZM362 699V700H250L107 452L144 437Z" glyph-name="quotedbl.tab" horiz-adv-x="564" /><glyph d="M109 117H20C-5 3 -29 -44 -93 -119L-64 -145C33 -72 88 3 109 117ZM284 117H195C171 3 146 -44 83 -119L112 -145C209 -72 264 3 284 117Z" glyph-name="quotedblbase" horiz-adv-x="360" unicode="&#8222;" /><glyph d="M261 466H350C374 580 399 628 462 702L433 728C336 656 281 580 261 466ZM85 466H174C199 580 223 628 287 702L258 728C161 656 106 580 85 466Z" glyph-name="quotedblleft" horiz-adv-x="379" unicode="&#8220;" /><glyph d="M280 724H191C166 610 142 563 78 489L107 462C204 535 259 610 280 724ZM455 724H366C342 610 317 563 254 489L283 462C380 535 435 610 455 724Z" glyph-name="quotedblright" horiz-adv-x="379" unicode="&#8221;" /><glyph d="M85 466H180C205 581 229 628 292 702L263 728C163 656 106 579 85 466Z" glyph-name="quoteleft" horiz-adv-x="208" unicode="&#8216;" /><glyph d="M285 724H190C165 609 141 562 78 488L107 462C207 534 265 611 285 724Z" glyph-name="quoteright" horiz-adv-x="208" unicode="&#8217;" /><glyph d="M114 117H19C-6 2 -30 -45 -93 -119L-64 -145C37 -73 94 4 114 117Z" glyph-name="quotesinglbase" horiz-adv-x="190" unicode="&#8218;" /><glyph d="M322 699V700H211L88 450L125 437Z" glyph-name="quotesingle" horiz-adv-x="245" unicode="'" /><glyph d="M325 699V700H215L83 450L120 437Z" glyph-name="quotesingle.tab" horiz-adv-x="282" /><glyph d="M13 0H108L194 358C259 403 322 425 392 427L415 525C338 525 273 495 208 433L210 518H138Z" glyph-name="r" horiz-adv-x="380" unicode="r" /><glyph d="M13 0H108L194 358C259 403 322 425 392 427L415 525C338 525 273 495 208 433L210 518H138ZM302 587 473 702H351L233 587Z" glyph-name="racute" horiz-adv-x="380" unicode="&#341;" /><glyph d="M13 0H108L194 358C259 403 322 425 392 427L415 525C338 525 273 495 208 433L210 518H138ZM295 639 243 705H185L250 587H323L445 705H380Z" glyph-name="rcaron" horiz-adv-x="380" unicode="&#345;" /><glyph d="M290 709C193 709 109 625 105 520C100 433 155 373 237 373C334 373 418 461 423 562C427 649 372 709 290 709ZM239 390C166 390 119 444 124 522C128 616 202 692 289 692C361 692 408 638 404 560C399 466 324 390 239 390ZM234 546 248 603H280C302 603 311 594 309 579C306 559 285 546 254 546ZM228 519H239C253 519 258 515 265 504L290 459H332L304 506C297 518 293 524 285 528C313 535 341 550 345 582C350 611 331 631 287 631H220L178 459H213Z" glyph-name="registered" horiz-adv-x="393" unicode="&#174;" /><glyph d="M336 581C401 581 451 633 451 691C451 737 416 771 363 771C298 771 248 719 248 661C248 615 283 581 336 581ZM339 612C304 612 284 634 284 664C284 703 317 740 360 740C395 740 415 718 415 688C415 648 382 612 339 612Z" glyph-name="ring" horiz-adv-x="500" unicode="&#730;" /><glyph d="M152 936C84 936 32 885 32 825C32 778 69 743 124 743C192 743 244 794 244 854C244 901 206 936 152 936ZM127 775C91 775 69 797 69 828C69 868 103 904 149 904C184 904 207 882 207 851C207 811 173 775 127 775Z" glyph-name="ring.cap" horiz-adv-x="0" /><glyph d="M284 873H165L69 792H143ZM85 581C150 581 199 631 199 686C199 730 164 763 111 763C47 763 -2 713 -2 658C-2 614 33 581 85 581ZM89 612C55 612 34 632 34 660C34 697 66 732 108 732C142 732 162 712 162 683C162 646 131 612 89 612Z" glyph-name="ringacute" horiz-adv-x="0" /><glyph d="M316 139C316 100 280 70 217 70C158 70 90 93 30 128L-4 51C60 13 133 -10 215 -10C333 -10 408 55 408 146C408 217 369 258 266 300C195 331 174 347 174 381C174 417 210 448 270 448C323 448 372 429 427 400L460 478C404 508 347 528 275 528C157 528 82 460 82 372C82 303 126 265 225 224C297 193 316 173 316 139Z" glyph-name="s" horiz-adv-x="478" unicode="s" /><glyph d="M316 139C316 100 280 70 217 70C158 70 90 93 30 128L-4 51C60 13 133 -10 215 -10C333 -10 408 55 408 146C408 217 369 258 266 300C195 331 174 347 174 381C174 417 210 448 270 448C323 448 372 429 427 400L460 478C404 508 347 528 275 528C157 528 82 460 82 372C82 303 126 265 225 224C297 193 316 173 316 139ZM333 590 504 705H382L264 590Z" glyph-name="sacute" horiz-adv-x="478" unicode="&#347;" /><glyph d="M316 139C316 100 280 70 217 70C158 70 90 93 30 128L-4 51C60 13 133 -10 215 -10C333 -10 408 55 408 146C408 217 369 258 266 300C195 331 174 347 174 381C174 417 210 448 270 448C323 448 372 429 427 400L460 478C404 508 347 528 275 528C157 528 82 460 82 372C82 303 126 265 225 224C297 193 316 173 316 139ZM326 642 274 708H216L281 590H354L476 708H411Z" glyph-name="scaron" horiz-adv-x="478" unicode="&#353;" /><glyph d="M316 139C316 100 280 70 217 70C158 70 90 93 30 128L-4 51C60 13 133 -10 215 -10C333 -10 408 55 408 146C408 217 369 258 266 300C195 331 174 347 174 381C174 417 210 448 270 448C323 448 372 429 427 400L460 478C404 508 347 528 275 528C157 528 82 460 82 372C82 303 126 265 225 224C297 193 316 173 316 139ZM336 656 389 590H447L382 708H309L187 590H252Z" glyph-name="scircumflex" horiz-adv-x="478" unicode="&#349;" /><glyph d="M275 264C177 308 161 329 161 357C161 397 200 428 293 461C308 453 325 445 344 436C441 393 458 372 458 344C458 304 418 273 325 240C310 248 293 256 275 264ZM253 -7C366 -7 431 49 431 121C431 152 419 177 388 201C498 241 544 290 544 355C544 408 510 447 392 500C294 546 276 560 276 588C276 614 307 637 364 637C415 637 473 619 530 593L562 663C499 691 440 708 365 708C253 708 187 652 187 580C187 548 199 524 230 500C121 460 74 411 74 345C74 292 108 254 227 201C324 155 343 141 343 113C343 86 311 64 254 64C203 64 145 81 89 108L56 38C119 10 179 -7 253 -7Z" glyph-name="section" horiz-adv-x="573" unicode="&#167;" /><glyph d="M186 401 215 518H113L84 401ZM117 117H22C-2 2 -27 -45 -89 -119L-60 -145C40 -73 97 4 117 117Z" glyph-name="semicolon" horiz-adv-x="200" unicode=";" /><glyph d="M133 -11 576 606 597 700H151L129 612H475L42 26Z" glyph-name="seven" horiz-adv-x="536" unicode="7" /><glyph d="M88 -7 365 352 381 419H76L60 356H287L25 25Z" glyph-name="seven.den" horiz-adv-x="373" /><glyph d="M156 274 433 633 449 700H144L128 637H355L93 306Z" glyph-name="seven.num" horiz-adv-x="373" /><glyph d="M136 -10 564 606 587 700H123L102 612H463L45 21Z" glyph-name="seven.tab" horiz-adv-x="564" /><glyph d="M257 -11C406 -11 513 108 513 260C513 373 440 441 329 441C291 441 249 433 210 420C267 510 369 589 527 634L513 716C387 691 279 634 208 564C108 464 54 334 54 206C54 63 135 -11 257 -11ZM265 72C197 72 150 118 150 205C150 248 159 293 175 338C214 352 255 361 292 361C372 361 416 321 416 251C416 160 348 72 265 72Z" glyph-name="six" horiz-adv-x="564" unicode="6" /><glyph d="M168 -7C266 -7 340 58 340 150C340 220 291 262 214 262C183 262 150 255 120 244C155 300 222 345 336 371L325 430C132 392 23 278 23 139C23 48 79 -7 168 -7ZM173 50C123 50 92 81 92 137C92 155 95 175 100 195C129 205 161 210 187 210C244 210 271 187 271 144C271 91 229 50 173 50Z" glyph-name="six.den" horiz-adv-x="400" /><glyph d="M236 274C334 274 408 339 408 431C408 501 359 543 282 543C251 543 218 536 188 525C223 581 290 626 404 652L393 711C200 673 91 559 91 420C91 329 147 274 236 274ZM241 331C191 331 160 362 160 418C160 436 163 456 168 476C197 486 229 491 255 491C312 491 339 468 339 425C339 372 297 331 241 331Z" glyph-name="six.num" horiz-adv-x="400" /><glyph d="M232 -11C391 -11 499 119 499 272C499 381 428 442 320 442C275 442 230 432 186 415C240 506 333 579 491 639L465 718C349 681 255 628 185 559C78 453 33 322 33 205C33 68 108 -11 232 -11ZM239 73C168 73 128 122 128 200C128 238 136 284 150 328C197 348 247 360 288 360C359 360 402 325 402 260C402 204 380 150 348 118C320 91 281 73 239 73Z" glyph-name="six.tab" horiz-adv-x="564" /><glyph d="M511 795H436L-106 -130H-30Z" glyph-name="slash" horiz-adv-x="383" unicode="/" /><glyph d="M520 811H445L-97 -114H-21Z" glyph-name="slash.cap" horiz-adv-x="383" /><glyph d="M666 811H585L-103 -114H-22Z" glyph-name="slash.tab" horiz-adv-x="564" /><glyph glyph-name="space" horiz-adv-x="180" unicode=" " /><glyph glyph-name="space.cap" horiz-adv-x="202" /><glyph d="M476 85H125C183 129 214 170 240 255L257 307H457L476 386H282L311 478C325 523 346 562 372 585C398 607 432 619 472 619C509 619 551 609 581 596L617 680C582 696 527 708 480 708C412 708 356 689 311 650C272 616 242 563 221 497L186 386H85L66 307H160L146 262C116 166 82 123 6 67L9 0H456Z" glyph-name="sterling" horiz-adv-x="570" unicode="&#163;" /><glyph d="M458 85H110C168 129 199 170 225 255L241 307H439L458 386H266L295 477C309 522 330 560 356 584C382 607 416 619 457 619C494 619 532 610 563 598L598 681C563 697 513 708 465 708C397 708 340 689 295 650C256 614 227 562 205 495L171 386H70L51 307H146L132 262C102 166 66 123 -9 67L-6 0H437Z" glyph-name="sterling.tab" horiz-adv-x="564" /><glyph d="M300 1 318 82C295 77 275 73 250 73C207 73 174 92 174 136C174 149 176 162 179 176L244 438H398L417 518H263L300 667H206L170 518H89L70 438H150L85 172C79 150 77 129 77 111C77 31 132 -9 220 -9C248 -9 275 -5 300 1Z" glyph-name="t" horiz-adv-x="396" unicode="t" /><glyph d="M300 1 318 80C294 75 274 71 250 71C206 71 174 90 174 134C174 147 175 160 179 174L195 240H312L326 299H210L244 440H399L417 518H263L300 667H206L170 518H89L70 440H151L116 299H48L33 240H102L85 172C79 150 77 129 77 111C77 31 132 -9 220 -9C248 -9 275 -5 300 1Z" glyph-name="tbar" horiz-adv-x="395" unicode="&#359;" /><glyph d="M300 1 318 82C295 77 275 73 250 73C207 73 174 92 174 136C174 149 176 162 179 176L244 438H398L417 518H263L300 667H206L170 518H89L70 438H150L85 172C79 150 77 129 77 111C77 31 132 -9 220 -9C248 -9 275 -5 300 1ZM452 730H387C374 662 359 626 333 586L359 571C410 615 436 652 452 730Z" glyph-name="tcaron" horiz-adv-x="396" unicode="&#357;" /><glyph d="M243 69C206 69 170 84 135 112L207 408C247 434 285 449 320 449C381 449 424 405 424 322C424 241 394 159 351 116C321 86 285 69 243 69ZM257 -10C320 -10 376 15 419 58C479 118 519 219 519 333C519 461 448 527 359 527C312 527 269 511 224 479L283 724H187L-29 -173H66L117 39C160 7 207 -10 257 -10Z" glyph-name="thorn" horiz-adv-x="558" unicode="&#254;" /><glyph d="M-8 -7C336 -5 477 85 477 218C477 295 427 345 328 363C475 406 548 476 548 566C548 657 472 709 348 709C270 709 200 692 134 663L153 583C216 610 279 624 334 624C407 624 444 596 444 550C444 489 381 441 182 395L167 318C322 311 376 279 376 220C376 142 278 82 12 79Z" glyph-name="three" horiz-adv-x="543" unicode="3" /><glyph d="M-23 -5C221 -4 311 49 311 129C311 173 275 207 205 216C309 238 355 280 355 336C355 391 306 425 213 425C163 425 112 415 68 398L83 344C123 358 166 367 204 367C256 367 280 351 280 325C280 291 238 261 106 237L97 189C203 184 236 164 236 132C236 88 171 55 -9 54Z" glyph-name="three.den" horiz-adv-x="382" /><glyph d="M45 276C289 277 379 330 379 410C379 454 343 488 273 497C377 519 423 561 423 617C423 672 374 706 281 706C231 706 180 696 136 679L151 625C191 639 234 648 272 648C324 648 348 632 348 606C348 572 306 542 174 518L165 470C271 465 304 445 304 413C304 369 239 336 59 335Z" glyph-name="three.num" horiz-adv-x="382" /><glyph d="M-27 -7C298 1 473 84 473 230C473 302 419 352 309 367C463 416 543 485 543 579C543 656 481 709 358 709C269 709 189 686 107 647L126 567C201 602 274 623 338 623C406 623 440 598 440 559C440 497 366 448 156 393L148 318C309 314 371 284 371 230C371 147 265 90 -8 80Z" glyph-name="three.tab" horiz-adv-x="564" /><glyph d="M45 276C289 277 379 330 379 410C379 454 343 488 273 497C377 519 423 561 423 617C423 672 374 706 281 706C231 706 180 696 136 679L151 625C191 639 234 648 272 648C324 648 348 632 348 606C348 572 306 542 174 518L165 470C271 465 304 445 304 413C304 369 239 336 59 335ZM161 0H217L501 338L811 700H755L472 362ZM581 145 790 365 736 145ZM862 90 876 146H804L871 422H771L506 146L504 90H721L699 0H769L791 90Z" glyph-name="threequarters" horiz-adv-x="921" unicode="&#190;" /><glyph d="M288 634C301 634 311 629 338 611C369 591 382 585 401 585C436 585 459 607 499 675L457 696C431 657 418 645 402 645C390 645 380 650 352 668C322 688 310 694 290 694C256 694 232 672 191 605L233 583C259 622 272 634 288 634Z" glyph-name="tilde" horiz-adv-x="500" unicode="&#732;" /><glyph d="M74 795C87 795 97 791 127 773C157 754 172 747 192 747C227 747 253 769 294 833L252 856C224 818 210 807 194 807C180 807 170 811 141 829C110 848 95 855 76 855C40 855 15 833 -27 768L16 745C43 784 57 795 74 795Z" glyph-name="tilde.cap" horiz-adv-x="0" /><glyph d="M190 472 236 663H312L321 700H128L119 663H194L148 472ZM412 472H452L561 647L526 472H566L610 700H551L444 526L420 700H366L299 472H339L388 645Z" glyph-name="trademark" horiz-adv-x="554" unicode="&#8482;" /><glyph d="M107 700V690L431 -12H449L773 690V700Z" glyph-name="triagdn" horiz-adv-x="782" unicode="&#9660;" /><glyph d="M75 700 286 -13H309L520 700Z" glyph-name="triagdn.tab" horiz-adv-x="564" /><glyph d="M715 0V10L391 712H373L49 10V0Z" glyph-name="triagup" horiz-adv-x="782" unicode="&#9650;" /><glyph d="M490 0 278 713H255L44 0Z" glyph-name="triagup.tab" horiz-adv-x="564" /><glyph d="M445 0 466 87H144L387 300C496 393 548 464 548 553C548 645 481 709 367 709C270 709 193 667 124 610L163 534C230 590 289 619 348 619C411 619 446 585 446 533C446 478 409 433 333 364L-4 71V0Z" glyph-name="two" horiz-adv-x="549" unicode="2" /><glyph d="M292 0 307 61H92L239 177C316 235 348 274 348 325C348 385 296 425 222 425C160 425 101 400 53 360L80 307C125 341 168 362 209 362C248 362 272 343 272 313C272 286 250 261 203 223L-16 50L-14 0Z" glyph-name="two.den" horiz-adv-x="381" /><glyph d="M360 281 375 342H160L307 458C384 516 416 555 416 606C416 666 364 706 290 706C228 706 169 681 121 641L148 588C193 622 236 643 277 643C316 643 340 624 340 594C340 567 318 542 271 504L52 331L54 281Z" glyph-name="two.num" horiz-adv-x="381" /><glyph d="M430 0 451 87H128L373 299C481 392 532 458 532 551C532 644 470 709 353 709C255 709 175 665 101 601L140 525C214 586 274 619 337 619C398 619 431 585 431 533C431 477 397 431 310 355L-18 71V0Z" glyph-name="two.tab" horiz-adv-x="564" /><glyph d="M360 281 375 342H160L307 458C384 516 416 555 416 606C416 666 364 706 290 706C228 706 169 681 121 641L148 588C193 622 236 643 277 643C316 643 340 624 340 594C340 567 318 542 271 504L52 331L54 281ZM203 0H259L543 338L853 700H797L514 362ZM587 -5C831 -4 921 49 921 129C921 173 885 207 815 216C919 238 965 280 965 336C965 391 916 425 823 425C773 425 722 415 678 398L693 344C733 358 776 367 814 367C866 367 890 351 890 325C890 291 848 261 716 237L707 189C813 184 846 164 846 132C846 88 781 55 601 54Z" glyph-name="twothirds" horiz-adv-x="992" unicode="&#8532;" /><glyph d="M352 0H425L550 518H455L359 119C315 93 271 76 228 76C175 76 146 104 146 152C146 166 148 182 153 200L228 518H133L56 196C50 169 46 142 46 120C46 40 97 -9 183 -9C239 -9 291 12 347 47Z" glyph-name="u" horiz-adv-x="563" unicode="u" /><glyph d="M352 0H425L550 518H455L359 119C315 93 271 76 228 76C175 76 146 104 146 152C146 166 148 182 153 200L228 518H133L56 196C50 169 46 142 46 120C46 40 97 -9 183 -9C239 -9 291 12 347 47ZM370 583 541 698H419L301 583Z" glyph-name="uacute" horiz-adv-x="563" unicode="&#250;" /><glyph d="M352 0H425L550 518H455L359 119C315 93 271 76 228 76C175 76 146 104 146 152C146 166 148 182 153 200L228 518H133L56 196C50 169 46 142 46 120C46 40 97 -9 183 -9C239 -9 291 12 347 47ZM366 638C325 638 308 662 309 701H259C248 629 287 580 360 580C429 580 486 628 503 701H451C434 662 407 638 366 638Z" glyph-name="ubreve" horiz-adv-x="563" unicode="&#365;" /><glyph d="M352 0H425L550 518H455L359 119C315 93 271 76 228 76C175 76 146 104 146 152C146 166 148 182 153 200L228 518H133L56 196C50 169 46 142 46 120C46 40 97 -9 183 -9C239 -9 291 12 347 47ZM374 653 427 587H485L420 705H347L225 587H290Z" glyph-name="ucircumflex" horiz-adv-x="563" unicode="&#251;" /><glyph d="M352 0H425L550 518H455L359 119C315 93 271 76 228 76C175 76 146 104 146 152C146 166 148 182 153 200L228 518H133L56 196C50 169 46 142 46 120C46 40 97 -9 183 -9C239 -9 291 12 347 47ZM317 593 339 681H261L240 593ZM474 593 495 681H417L396 593Z" glyph-name="udieresis" horiz-adv-x="563" unicode="&#252;" /><glyph d="M352 0H425L550 518H455L359 119C315 93 271 76 228 76C175 76 146 104 146 152C146 166 148 182 153 200L228 518H133L56 196C50 169 46 142 46 120C46 40 97 -9 183 -9C239 -9 291 12 347 47ZM342 583H404L340 698H226Z" glyph-name="ugrave" horiz-adv-x="563" unicode="&#249;" /><glyph d="M347 47 352 0H425L539 474C628 493 673 551 673 616C673 632 671 642 667 653L598 634C600 624 601 617 600 605C597 559 556 518 464 518H455L359 119C315 93 271 76 228 76C175 76 146 104 146 152C146 166 148 182 153 200L228 518H133L56 196C50 169 46 142 46 120C46 40 97 -9 183 -9C239 -9 291 12 347 47Z" glyph-name="uhorn" horiz-adv-x="584" unicode="&#432;" /><glyph d="M352 0H425L550 518H455L359 119C315 93 271 76 228 76C175 76 146 104 146 152C146 166 148 182 153 200L228 518H133L56 196C50 169 46 142 46 120C46 40 97 -9 183 -9C239 -9 291 12 347 47ZM305 587 466 702H361L239 587ZM447 587 609 702H504L382 587Z" glyph-name="uhungarumlaut" horiz-adv-x="563" unicode="&#369;" /><glyph d="M352 0H425L550 518H455L359 119C315 93 271 76 228 76C175 76 146 104 146 152C146 166 148 182 153 200L228 518H133L56 196C50 169 46 142 46 120C46 40 97 -9 183 -9C239 -9 291 12 347 47ZM484 598 497 651H244L231 598Z" glyph-name="umacron" horiz-adv-x="563" unicode="&#363;" /><glyph d="M429 -97 440 -53H-48L-59 -97Z" glyph-name="underscore" horiz-adv-x="483" unicode="_" /><glyph glyph-name="uni0000" horiz-adv-x="0" /><glyph d="M25 878V828C62 835 100 840 136 840C175 840 188 834 188 825C188 815 176 806 95 783L98 743C223 771 257 800 257 836C257 870 220 892 143 892C102 892 64 887 25 878Z" glyph-name="uni00200309.cap" horiz-adv-x="0" /><glyph glyph-name="uni00A0" horiz-adv-x="180" unicode="&#160;" /><glyph d="M92 715H155L100 812H-12ZM41 593 62 679H-16L-36 593ZM198 593 218 679H141L120 593Z" glyph-name="uni00A80300" horiz-adv-x="0" /><glyph d="M197 869 132 955H11L121 869ZM76 749 97 835H15L-5 749ZM241 749 262 835H180L160 749Z" glyph-name="uni00A80300.cap" horiz-adv-x="0" /><glyph d="M131 715 282 812H161L61 715ZM41 593 62 679H-16L-36 593ZM198 593 218 679H141L120 593Z" glyph-name="uni00A80301" horiz-adv-x="0" /><glyph d="M176 869 328 955H197L92 869ZM76 749 97 835H15L-5 749ZM241 749 262 835H180L160 749Z" glyph-name="uni00A80301.cap" horiz-adv-x="0" /><glyph d="M235 720 248 772H0L-13 720ZM41 593 62 679H-16L-36 593ZM198 593 218 679H141L120 593Z" glyph-name="uni00A80304" horiz-adv-x="0" /><glyph d="M281 874 295 929H29L15 874ZM76 749 97 835H15L-5 749ZM241 749 262 835H180L160 749Z" glyph-name="uni00A80304.cap" horiz-adv-x="0" /><glyph d="M146 715 266 815H201L118 765L60 815H2L73 715ZM41 593 62 679H-16L-36 593ZM198 593 218 679H141L120 593Z" glyph-name="uni00A8030C" horiz-adv-x="0" /><glyph d="M190 869 307 958H234L155 917L97 958H30L104 869ZM76 749 97 835H15L-5 749ZM241 749 262 835H180L160 749Z" glyph-name="uni00A8030C.cap" horiz-adv-x="0" /><glyph d="M406 417 421 478H206L353 594C430 652 462 691 462 742C462 802 410 842 336 842C274 842 215 817 167 777L194 724C239 758 282 779 323 779C362 779 386 760 386 730C386 703 364 678 317 640L98 467L100 417Z" glyph-name="uni00B2" horiz-adv-x="411" unicode="&#178;" /><glyph d="M91 412C335 413 425 466 425 546C425 590 389 624 319 633C423 655 469 697 469 753C469 808 420 842 327 842C277 842 226 832 182 815L197 761C237 775 280 784 318 784C370 784 394 768 394 742C394 708 352 678 220 654L211 606C317 601 350 581 350 549C350 505 285 472 105 471Z" glyph-name="uni00B3" horiz-adv-x="412" unicode="&#179;" /><glyph d="M98 -32 112 50C128 12 164 -7 212 -7C258 -7 305 11 360 50L366 0H430L555 518H459L363 119C317 92 273 76 233 76C180 76 151 105 151 154C151 167 153 183 158 201L233 518H138L-28 -169H65Z" glyph-name="uni00B5" horiz-adv-x="568" unicode="&#181;" /><glyph d="M156 246 184 364H82L54 246Z" glyph-name="uni00B7" horiz-adv-x="216" unicode="&#183;" /><glyph d="M155 301 185 418H83L53 301Z" glyph-name="uni00B7.cap" horiz-adv-x="216" /><glyph d="M179 297 207 414H105L77 297Z" glyph-name="uni00B7.tab" horiz-adv-x="282" /><glyph d="M281 417 384 839H331L168 785L175 724L291 760L207 417Z" glyph-name="uni00B9" horiz-adv-x="338" unicode="&#185;" /><glyph d="M565 45 650 382H381L359 292H529L481 104C441 87 398 79 356 79C237 79 172 156 172 271C172 373 210 481 271 541C317 588 381 618 457 618C527 618 589 596 645 564L686 650C623 686 545 710 463 710C350 710 260 668 196 604C116 524 69 399 69 269C69 100 168 -9 341 -9C424 -9 499 11 565 45ZM250 -67C259 -82 263 -93 263 -104C263 -125 252 -143 216 -172L241 -200C315 -167 344 -130 344 -89C344 -75 340 -62 332 -47Z" glyph-name="uni0122" horiz-adv-x="692" unicode="&#290;" /><glyph d="M243 90C179 90 135 132 135 211C135 286 164 360 206 402C235 431 272 449 313 449C351 449 385 434 420 407L353 126C315 103 278 90 243 90ZM176 -177C308 -177 390 -116 420 8L543 518H469L442 473C399 509 352 528 299 528C235 528 180 502 138 460C80 402 41 307 41 198C41 77 111 10 206 10C253 10 295 27 338 57L329 21C310 -59 259 -99 175 -99C120 -99 62 -84 14 -57L-16 -131C36 -159 100 -177 176 -177ZM418 605C409 620 405 631 405 642C405 663 416 681 452 710L427 738C353 705 324 668 324 627C324 613 328 600 336 585Z" glyph-name="uni0123" horiz-adv-x="555" unicode="&#291;" /><glyph d="M445 0H566L325 353L727 700H597L232 384H220L296 700H194L26 0H127L208 334H220ZM210 -56C219 -71 223 -82 223 -93C223 -114 212 -132 176 -161L201 -189C275 -156 304 -119 304 -78C304 -64 300 -51 292 -36Z" glyph-name="uni0136" horiz-adv-x="642" unicode="&#310;" /><glyph d="M330 0H438L274 263L556 518H438L189 290H178L283 724H187L13 0H108L168 249H177ZM143 -56C152 -71 156 -82 156 -93C156 -114 145 -132 109 -161L134 -189C208 -156 237 -119 237 -78C237 -64 233 -51 225 -36Z" glyph-name="uni0137" horiz-adv-x="512" unicode="&#311;" /><glyph d="M26 0H456L479 91H149L296 700H194ZM181 -60C190 -75 194 -86 194 -97C194 -118 183 -136 147 -165L172 -193C246 -160 275 -123 275 -82C275 -68 271 -55 263 -40Z" glyph-name="uni013B" horiz-adv-x="548" unicode="&#315;" /><glyph d="M110 0 284 724H189L14 0ZM-2 -60C7 -75 11 -86 11 -97C11 -118 0 -136 -36 -165L-11 -193C63 -160 92 -123 92 -82C92 -68 88 -55 80 -40Z" glyph-name="uni013C" horiz-adv-x="249" unicode="&#316;" /><glyph d="M253 537 257 557 458 0H564L733 700H635L507 171L503 154L307 700H194L26 0H123ZM229 -56C238 -71 242 -82 242 -93C242 -114 231 -132 195 -161L220 -189C294 -156 323 -119 323 -78C323 -64 319 -51 311 -36Z" glyph-name="uni0145" horiz-adv-x="714" unicode="&#325;" /><glyph d="M335 442C388 442 416 414 416 366C416 352 414 336 410 318L334 0H430L506 322C513 349 517 376 517 398C517 478 466 527 380 527C324 527 272 506 216 471L211 518H138L13 0H108L204 399C248 425 292 442 335 442ZM161 -56C170 -71 174 -82 174 -93C174 -114 163 -132 127 -161L152 -189C226 -156 255 -119 255 -78C255 -64 251 -51 243 -36Z" glyph-name="uni0146" horiz-adv-x="563" unicode="&#326;" /><glyph d="M406 611C499 611 542 569 542 508C542 468 527 433 500 406C461 368 388 346 315 346H210L274 611ZM261 257C326 257 354 237 382 183L472 0H588L485 195C463 242 444 267 405 286C547 313 646 397 646 527C646 633 569 700 420 700H194L26 0H127L189 257ZM219 -56C228 -71 232 -82 232 -93C232 -114 221 -132 185 -161L210 -189C284 -156 313 -119 313 -78C313 -64 309 -51 301 -36Z" glyph-name="uni0156" horiz-adv-x="663" unicode="&#342;" /><glyph d="M13 0H108L194 358C259 403 322 425 392 427L415 525C338 525 273 495 208 433L210 518H138ZM-3 -60C6 -75 10 -86 10 -97C10 -118 -1 -136 -37 -165L-12 -193C62 -160 91 -123 91 -82C91 -68 87 -55 79 -40Z" glyph-name="uni0157" horiz-adv-x="380" unicode="&#343;" /><glyph d="M312 -86C312 -57 284 -42 235 -41L271 -9H276C440 -9 543 78 543 203C543 289 490 341 355 400C257 447 224 472 224 519C224 574 276 620 361 620C436 620 508 594 567 561L609 645C544 682 466 709 368 709C216 709 121 619 121 510C121 420 178 374 306 318C406 270 439 238 439 193C439 125 375 80 287 80C195 80 112 109 48 148L8 61C66 28 131 4 210 -5L161 -54L171 -75C212 -71 228 -77 228 -90C228 -105 207 -117 125 -120L119 -155C265 -155 312 -124 312 -86Z" glyph-name="uni015E" horiz-adv-x="603" unicode="&#350;" /><glyph d="M254 -86C254 -57 226 -42 177 -41L211 -10H215C333 -10 408 55 408 146C408 217 369 258 266 300C195 331 174 347 174 381C174 417 210 448 270 448C323 448 372 429 427 400L460 478C404 508 347 528 275 528C157 528 82 460 82 372C82 303 126 265 225 224C297 193 316 173 316 139C316 100 280 70 217 70C158 70 90 93 30 128L-4 51C43 23 95 3 152 -5L103 -54L113 -75C154 -71 170 -77 170 -90C170 -105 149 -117 67 -120L61 -155C207 -155 254 -124 254 -86Z" glyph-name="uni015F" horiz-adv-x="478" unicode="&#351;" /><glyph d="M313 -86C313 -57 285 -42 236 -41L282 0H296L443 610H674L696 700H132L109 610H341L194 0H216L162 -54L172 -75C213 -71 229 -77 229 -90C229 -105 208 -117 126 -120L120 -155C266 -155 313 -124 313 -86Z" glyph-name="uni0162" horiz-adv-x="618" unicode="&#354;" /><glyph d="M251 -86C251 -57 223 -42 174 -41L210 -9H220C248 -9 275 -5 300 1L318 82C295 77 275 73 250 73C207 73 174 92 174 136C174 149 176 162 179 176L244 438H398L417 518H263L300 667H206L170 518H89L70 438H150L85 172C79 150 77 129 77 111C77 53 106 16 154 0L100 -54L110 -75C151 -71 167 -77 167 -90C167 -105 146 -117 64 -120L58 -155C204 -155 251 -124 251 -86Z" glyph-name="uni0163" horiz-adv-x="396" unicode="&#355;" /><glyph d="M291 -12C383 -12 463 24 526 87C610 171 662 320 662 449C662 617 562 712 406 712C318 712 247 690 175 647L196 568C257 604 322 625 390 625C497 625 559 560 559 443C559 429 558 414 557 399H84C69 335 63 287 63 244C63 81 150 -12 291 -12ZM303 75C216 75 164 133 164 239C164 261 166 286 171 312H540C521 243 489 178 451 140C410 99 359 75 303 75Z" glyph-name="uni018F" horiz-adv-x="684" unicode="&#399;" /><glyph d="M476 243H220L436 609ZM502 0H603L513 708H398L-33 0H77L168 155H485ZM473 804 419 856H352L422 755H508L626 856H553Z" glyph-name="uni01CD" horiz-adv-x="695" unicode="&#461;" /><glyph d="M192 70C144 70 109 95 109 142C109 202 154 247 272 247C302 247 331 245 359 242L325 115C280 86 236 70 192 70ZM323 0H401L416 101L477 331C483 354 485 373 485 392C485 480 417 526 310 526C239 526 180 514 126 497L137 420C186 437 233 447 286 447C349 447 389 423 389 376C389 363 388 349 384 334L378 312C339 317 300 320 263 320C99 320 16 244 16 129C16 40 76 -9 157 -9C216 -9 266 13 318 52ZM347 642 295 708H237L302 590H375L497 708H432Z" glyph-name="uni01CE" horiz-adv-x="528" unicode="&#462;" /><glyph d="M131 0 300 700H198L29 0ZM268 798 214 850H147L217 749H303L421 850H348Z" glyph-name="uni01CF" horiz-adv-x="285" unicode="&#463;" /><glyph d="M110 0 235 518H139L14 0ZM212 639 160 705H102L167 587H240L362 705H297Z" glyph-name="uni01D0" horiz-adv-x="249" unicode="&#464;" /><glyph d="M333 -12C422 -12 501 25 563 87C641 165 694 300 694 435C694 608 588 712 430 712C340 712 261 675 199 613C121 535 68 400 68 265C68 92 174 -12 333 -12ZM425 625C526 625 592 554 592 437C592 328 547 203 485 141C444 100 393 75 337 75C236 75 170 146 170 263C170 372 215 497 277 559C318 600 370 625 425 625ZM473 805 419 857H352L422 756H508L626 857H553Z" glyph-name="uni01D1" horiz-adv-x="718" unicode="&#465;" /><glyph d="M233 -12C301 -12 361 16 407 61C468 122 507 220 507 322C507 452 425 530 312 530C244 530 184 502 138 457C78 396 38 298 38 196C38 66 120 -12 233 -12ZM239 68C179 68 132 113 132 197C132 275 164 363 208 406C235 433 268 450 306 450C366 450 413 405 413 321C413 243 381 155 338 112C311 85 277 68 239 68ZM352 642 300 708H242L307 590H380L502 708H437Z" glyph-name="uni01D2" horiz-adv-x="545" unicode="&#466;" /><glyph d="M612 245 719 700H618L513 256C484 140 415 77 321 77C237 77 179 126 179 212C179 235 182 263 189 289L285 700H184L91 307C81 267 77 232 77 203C77 66 174 -10 314 -10C466 -10 570 75 612 245ZM465 794 411 846H344L414 745H500L618 846H545Z" glyph-name="uni01D3" horiz-adv-x="693" unicode="&#467;" /><glyph d="M352 0H425L550 518H455L359 119C315 93 271 76 228 76C175 76 146 104 146 152C146 166 148 182 153 200L228 518H133L56 196C50 169 46 142 46 120C46 40 97 -9 183 -9C239 -9 291 12 347 47ZM363 635 311 701H253L318 583H391L513 701H448Z" glyph-name="uni01D4" horiz-adv-x="563" unicode="&#468;" /><glyph d="M612 245 719 700H618L513 256C484 140 415 77 321 77C237 77 179 126 179 212C179 235 182 263 189 289L285 700H184L91 307C81 267 77 232 77 203C77 66 174 -10 314 -10C466 -10 570 75 612 245ZM622 874 636 929H370L356 874ZM417 749 438 835H356L336 749ZM582 749 603 835H521L501 749Z" glyph-name="uni01D5" horiz-adv-x="693" unicode="&#469;" /><glyph d="M352 0H425L550 518H455L359 119C315 93 271 76 228 76C175 76 146 104 146 152C146 166 148 182 153 200L228 518H133L56 196C50 169 46 142 46 120C46 40 97 -9 183 -9C239 -9 291 12 347 47ZM511 720 524 772H276L263 720ZM317 593 338 679H260L240 593ZM474 593 494 679H417L396 593Z" glyph-name="uni01D6" horiz-adv-x="563" unicode="&#470;" /><glyph d="M612 245 719 700H618L513 256C484 140 415 77 321 77C237 77 179 126 179 212C179 235 182 263 189 289L285 700H184L91 307C81 267 77 232 77 203C77 66 174 -10 314 -10C466 -10 570 75 612 245ZM517 869 669 955H538L433 869ZM417 749 438 835H356L336 749ZM582 749 603 835H521L501 749Z" glyph-name="uni01D7" horiz-adv-x="693" unicode="&#471;" /><glyph d="M352 0H425L550 518H455L359 119C315 93 271 76 228 76C175 76 146 104 146 152C146 166 148 182 153 200L228 518H133L56 196C50 169 46 142 46 120C46 40 97 -9 183 -9C239 -9 291 12 347 47ZM407 715 558 812H437L337 715ZM317 593 338 679H260L240 593ZM474 593 494 679H417L396 593Z" glyph-name="uni01D8" horiz-adv-x="563" unicode="&#472;" /><glyph d="M612 245 719 700H618L513 256C484 140 415 77 321 77C237 77 179 126 179 212C179 235 182 263 189 289L285 700H184L91 307C81 267 77 232 77 203C77 66 174 -10 314 -10C466 -10 570 75 612 245ZM531 869 648 958H575L496 917L438 958H371L445 869ZM417 749 438 835H356L336 749ZM582 749 603 835H521L501 749Z" glyph-name="uni01D9" horiz-adv-x="693" unicode="&#473;" /><glyph d="M352 0H425L550 518H455L359 119C315 93 271 76 228 76C175 76 146 104 146 152C146 166 148 182 153 200L228 518H133L56 196C50 169 46 142 46 120C46 40 97 -9 183 -9C239 -9 291 12 347 47ZM422 715 542 815H477L394 765L336 815H278L349 715ZM317 593 338 679H260L240 593ZM474 593 494 679H417L396 593Z" glyph-name="uni01DA" horiz-adv-x="563" unicode="&#474;" /><glyph d="M612 245 719 700H618L513 256C484 140 415 77 321 77C237 77 179 126 179 212C179 235 182 263 189 289L285 700H184L91 307C81 267 77 232 77 203C77 66 174 -10 314 -10C466 -10 570 75 612 245ZM538 869 473 955H352L462 869ZM417 749 438 835H356L336 749ZM582 749 603 835H521L501 749Z" glyph-name="uni01DB" horiz-adv-x="693" unicode="&#475;" /><glyph d="M352 0H425L550 518H455L359 119C315 93 271 76 228 76C175 76 146 104 146 152C146 166 148 182 153 200L228 518H133L56 196C50 169 46 142 46 120C46 40 97 -9 183 -9C239 -9 291 12 347 47ZM368 715H431L376 812H264ZM317 593 338 679H260L240 593ZM474 593 494 679H417L396 593Z" glyph-name="uni01DC" horiz-adv-x="563" unicode="&#476;" /><glyph d="M348 -148 362 -102C313 -95 300 -88 300 -75C300 -64 306 -53 346 -12C430 -8 504 28 563 87C641 165 694 300 694 435C694 608 588 712 430 712C340 712 261 675 199 613C121 535 68 400 68 265C68 111 152 11 283 -8C226 -53 214 -72 214 -94C214 -125 248 -143 348 -148ZM425 625C526 625 592 554 592 437C592 328 547 203 485 141C444 100 393 75 337 75C236 75 170 146 170 263C170 372 215 497 277 559C318 600 370 625 425 625Z" glyph-name="uni01EA" horiz-adv-x="718" unicode="&#490;" /><glyph d="M259 -148 273 -102C224 -95 211 -88 211 -75C211 -64 217 -53 258 -11C316 -5 367 22 407 61C468 122 507 220 507 322C507 452 425 530 312 530C244 530 184 502 138 457C78 396 38 298 38 196C38 82 101 8 194 -9C137 -53 125 -72 125 -94C125 -125 159 -143 259 -148ZM239 68C179 68 132 113 132 197C132 275 164 363 208 406C235 433 268 450 306 450C366 450 413 405 413 321C413 243 381 155 338 112C311 85 277 68 239 68Z" glyph-name="uni01EB" horiz-adv-x="545" unicode="&#491;" /><glyph d="M128 58 236 518H141L37 76C11 -30 -27 -71 -100 -125L-47 -179C46 -121 97 -68 128 58ZM214 639 162 705H104L169 587H242L364 705H299Z" glyph-name="uni01F0" horiz-adv-x="250" unicode="&#496;" /><glyph d="M253 537 257 557 458 0H564L733 700H635L507 171L503 154L307 700H194L26 0H123ZM459 745H535L461 843H340Z" glyph-name="uni01F8" horiz-adv-x="714" unicode="&#504;" /><glyph d="M335 442C388 442 416 414 416 366C416 352 414 336 410 318L334 0H430L506 322C513 349 517 376 517 398C517 478 466 527 380 527C324 527 272 506 216 471L211 518H138L13 0H108L204 399C248 425 292 442 335 442ZM346 590H408L344 705H230Z" glyph-name="uni01F9" horiz-adv-x="563" unicode="&#505;" /><glyph d="M439 193C439 125 375 80 287 80C195 80 112 109 48 148L8 61C81 19 167 -9 276 -9C440 -9 543 78 543 203C543 289 490 341 355 400C257 447 224 472 224 519C224 574 276 620 361 620C436 620 508 594 567 561L609 645C544 682 466 709 368 709C216 709 121 619 121 510C121 420 178 374 306 318C406 270 439 238 439 193ZM182 -67C191 -82 195 -93 195 -104C195 -125 184 -143 148 -172L173 -200C247 -167 276 -130 276 -89C276 -75 272 -62 264 -47Z" glyph-name="uni0218" horiz-adv-x="603" unicode="&#536;" /><glyph d="M316 139C316 100 280 70 217 70C158 70 90 93 30 128L-4 51C60 13 133 -10 215 -10C333 -10 408 55 408 146C408 217 369 258 266 300C195 331 174 347 174 381C174 417 210 448 270 448C323 448 372 429 427 400L460 478C404 508 347 528 275 528C157 528 82 460 82 372C82 303 126 265 225 224C297 193 316 173 316 139ZM120 -63C129 -78 133 -89 133 -100C133 -121 122 -139 86 -168L111 -196C185 -163 214 -126 214 -85C214 -71 210 -58 202 -43Z" glyph-name="uni0219" horiz-adv-x="478" unicode="&#537;" /><glyph d="M674 610 696 700H132L109 610H341L194 0H296L443 610ZM183 -60C192 -75 196 -86 196 -97C196 -118 185 -136 149 -165L174 -193C248 -160 277 -123 277 -82C277 -68 273 -55 265 -40Z" glyph-name="uni021A" horiz-adv-x="618" unicode="&#538;" /><glyph d="M300 1 318 82C295 77 275 73 250 73C207 73 174 92 174 136C174 149 176 162 179 176L244 438H398L417 518H263L300 667H206L170 518H89L70 438H150L85 172C79 150 77 129 77 111C77 31 132 -9 220 -9C248 -9 275 -5 300 1ZM110 -63C119 -78 123 -89 123 -100C123 -121 112 -139 76 -168L101 -196C175 -163 204 -126 204 -85C204 -71 200 -58 192 -43Z" glyph-name="uni021B" horiz-adv-x="396" unicode="&#539;" /><glyph d="M476 243H220L436 609ZM502 0H603L513 708H398L-33 0H77L168 155H485ZM507 755 528 843H443L423 755Z" glyph-name="uni0226" horiz-adv-x="695" unicode="&#550;" /><glyph d="M192 70C144 70 109 95 109 142C109 202 154 247 272 247C302 247 331 245 359 242L325 115C280 86 236 70 192 70ZM323 0H401L416 101L477 331C483 354 485 373 485 392C485 480 417 526 310 526C239 526 180 514 126 497L137 420C186 437 233 447 286 447C349 447 389 423 389 376C389 363 388 349 384 334L378 312C339 317 300 320 263 320C99 320 16 244 16 129C16 40 76 -9 157 -9C216 -9 266 13 318 52ZM380 596 401 684H320L299 596Z" glyph-name="uni0227" horiz-adv-x="528" unicode="&#551;" /><glyph d="M333 -12C422 -12 501 25 563 87C641 165 694 300 694 435C694 608 588 712 430 712C340 712 261 675 199 613C121 535 68 400 68 265C68 92 174 -12 333 -12ZM425 625C526 625 592 554 592 437C592 328 547 203 485 141C444 100 393 75 337 75C236 75 170 146 170 263C170 372 215 497 277 559C318 600 370 625 425 625ZM507 756 528 844H443L423 756Z" glyph-name="uni022E" horiz-adv-x="718" unicode="&#558;" /><glyph d="M233 -12C301 -12 361 16 407 61C468 122 507 220 507 322C507 452 425 530 312 530C244 530 184 502 138 457C78 396 38 298 38 196C38 66 120 -12 233 -12ZM239 68C179 68 132 113 132 197C132 275 164 363 208 406C235 433 268 450 306 450C366 450 413 405 413 321C413 243 381 155 338 112C311 85 277 68 239 68ZM385 596 406 684H325L304 596Z" glyph-name="uni022F" horiz-adv-x="545" unicode="&#559;" /><glyph d="M304 0 369 269 724 700H605L337 362L227 700H119L268 274L202 0ZM569 755 583 811H296L283 755Z" glyph-name="uni0232" horiz-adv-x="636" unicode="&#562;" /><glyph d="M-24 -177C128 -148 195 -89 270 35L553 518H451L218 89L182 518H87L147 3C94 -49 44 -78 -29 -94ZM460 598 473 651H220L207 598Z" glyph-name="uni0233" horiz-adv-x="513" unicode="&#563;" /><glyph d="M128 58 236 518H141L37 76C11 -30 -27 -71 -100 -125L-47 -179C46 -121 97 -68 128 58Z" glyph-name="uni0237" horiz-adv-x="250" unicode="&#567;" /><glyph d="M217 66C155 66 119 108 119 174C119 190 120 207 124 223H378C352 135 289 66 217 66ZM111 493 121 418C167 438 214 449 261 449C352 449 395 397 395 320C395 313 395 306 394 299H52C39 261 31 218 31 175C31 62 95 -12 204 -12C270 -12 332 15 377 60C437 120 482 217 482 322C482 451 407 528 277 528C217 528 163 516 111 493Z" glyph-name="uni0259" horiz-adv-x="520" unicode="&#601;" /><glyph d="M328 723V724H217L94 474L131 461Z" glyph-name="uni02B9" horiz-adv-x="245" unicode="&#697;" /><glyph d="M500 723V724H394L271 474L309 461ZM323 723V724H216L94 474L131 461Z" glyph-name="uni02BA" horiz-adv-x="417" unicode="&#698;" /><glyph d="M85 466H180C205 581 229 628 292 702L263 728C163 656 106 579 85 466Z" glyph-name="uni02BB" horiz-adv-x="208" unicode="&#699;" /><glyph d="M285 724H190C165 609 141 562 78 488L107 462C207 534 265 611 285 724Z" glyph-name="uni02BC" horiz-adv-x="208" unicode="&#700;" /><glyph d="M109 599 94 537C207 539 280 609 280 697C280 765 232 805 159 806L144 745C187 744 212 723 212 687C212 638 170 601 109 599Z" glyph-name="uni02BE" horiz-adv-x="196" unicode="&#702;" /><glyph d="M285 744 300 806C186 804 113 734 113 646C113 578 161 538 234 537L249 598C206 599 182 620 182 656C182 705 223 742 285 744Z" glyph-name="uni02BF" horiz-adv-x="196" unicode="&#703;" /><glyph d="M243 680H298L244 778H139ZM96 644 153 587H211L142 694H68L-53 587H11Z" glyph-name="uni02C60300" horiz-adv-x="0" /><glyph d="M356 833 291 919H177L288 833ZM132 794 190 749H257L183 842H96L-21 749H52Z" glyph-name="uni02C60300.cap" horiz-adv-x="0" /><glyph d="M263 680 415 778H301L201 680ZM96 644 153 587H211L142 694H68L-53 587H11Z" glyph-name="uni02C60301" horiz-adv-x="0" /><glyph d="M315 833 467 919H345L239 833ZM132 794 190 749H257L183 842H96L-21 749H52Z" glyph-name="uni02C60301.cap" horiz-adv-x="0" /><glyph d="M27 714C50 748 63 758 77 758C88 758 97 754 120 739C147 722 159 716 177 716C206 716 230 737 267 796L228 816C204 783 192 772 178 772C167 772 158 777 134 792C108 808 95 815 78 815C48 815 25 794 -12 734ZM95 639 154 587H213L140 689H67L-54 587H10Z" glyph-name="uni02C60303" horiz-adv-x="0" /><glyph d="M58 862C82 896 95 907 109 907C121 907 130 902 156 886C184 869 196 863 214 863C244 863 269 884 306 945L267 966C243 932 230 921 216 921C204 921 195 925 169 942C141 959 129 965 111 965C80 965 56 944 18 883ZM132 791 192 749H259L182 838H96L-23 749H50Z" glyph-name="uni02C60303.cap" horiz-adv-x="0" /><glyph d="M177 790 178 744C202 751 228 756 250 756C276 756 285 750 285 741C285 729 272 718 216 697L223 661C316 690 344 718 344 753C344 784 315 804 262 804C233 804 205 800 177 790ZM96 644 153 587H211L142 694H68L-53 587H11Z" glyph-name="uni02C60309" horiz-adv-x="0" /><glyph d="M209 940 208 893C235 899 265 903 291 903C319 903 329 898 329 889C329 880 316 872 258 853L262 814C358 839 387 866 389 900C390 931 360 952 300 952C267 952 238 948 209 940ZM132 794 190 749H257L183 842H96L-21 749H52Z" glyph-name="uni02C60309.cap" horiz-adv-x="0" /><glyph d="M108 543H179L241 800H170Z" glyph-name="uni02C8" horiz-adv-x="152" unicode="&#712;" /><glyph d="M-47 -100H24L86 157H15Z" glyph-name="uni02CC" horiz-adv-x="152" unicode="&#716;" /><glyph d="M288 -108 301 -55H48L35 -108Z" glyph-name="uni02CD" horiz-adv-x="500" unicode="&#717;" /><glyph d="M91 711H154L99 808H-13ZM91 640C50 640 30 660 30 692H-19C-30 628 12 584 84 584C155 584 211 627 227 692H175C160 660 132 640 91 640Z" glyph-name="uni02D80300" horiz-adv-x="0" /><glyph d="M198 867 132 952H11L122 867ZM129 803C89 803 68 819 65 846H10C5 786 50 746 122 746C193 746 250 784 270 846H213C197 819 169 803 129 803Z" glyph-name="uni02D80300.cap" horiz-adv-x="0" /><glyph d="M130 711 282 808H161L61 711ZM91 640C50 640 30 660 30 692H-19C-30 628 12 584 84 584C155 584 211 627 227 692H175C160 660 132 640 91 640Z" glyph-name="uni02D80301" horiz-adv-x="0" /><glyph d="M174 867 326 952H195L90 867ZM129 803C89 803 68 819 65 846H10C5 786 50 746 122 746C193 746 250 784 270 846H213C197 819 169 803 129 803Z" glyph-name="uni02D80301.cap" horiz-adv-x="0" /><glyph d="M25 721C48 754 61 765 74 765C85 765 94 760 118 745C145 729 156 722 174 722C204 722 228 743 264 802L225 822C202 789 189 779 175 779C165 779 156 783 132 798C105 815 93 821 76 821C46 821 22 800 -15 741ZM91 640C50 640 30 660 30 692H-19C-30 628 12 584 84 584C155 584 211 627 227 692H175C160 660 132 640 91 640Z" glyph-name="uni02D80303" horiz-adv-x="0" /><glyph d="M57 871C81 905 94 916 108 916C120 916 129 911 155 895C183 878 195 872 213 872C243 872 268 893 305 954L266 975C242 941 228 930 214 930C202 930 194 934 168 951C140 968 127 974 109 974C79 974 55 953 17 892ZM129 803C89 803 68 819 65 846H10C5 786 50 746 122 746C193 746 250 784 270 846H213C197 819 169 803 129 803Z" glyph-name="uni02D80303.cap" horiz-adv-x="0" /><glyph d="M38 823V776C65 784 92 789 117 789C145 789 154 782 154 773C154 762 141 752 84 730L89 693C186 723 217 750 218 784C219 816 189 837 129 837C98 837 68 833 38 823ZM91 640C50 640 30 660 30 692H-19C-30 628 12 584 84 584C155 584 211 627 227 692H175C160 660 132 640 91 640Z" glyph-name="uni02D80309" horiz-adv-x="0" /><glyph d="M62 978 61 929C94 937 127 941 157 941C190 941 202 935 202 927C201 918 187 909 120 890L125 851C235 877 268 904 269 938C270 969 237 990 166 990C130 990 95 986 62 978ZM129 803C89 803 68 819 65 846H10C5 786 50 746 122 746C193 746 250 784 270 846H213C197 819 169 803 129 803Z" glyph-name="uni02D80309.cap" horiz-adv-x="0" /><glyph d="M67 587H129L65 702H-49Z" glyph-name="uni0300" horiz-adv-x="0" unicode="&#768;" /><glyph d="M95 587 266 702H144L26 587Z" glyph-name="uni0301" horiz-adv-x="0" unicode="&#769;" /><glyph d="M98 653 151 587H209L144 705H71L-51 587H14Z" glyph-name="uni0302" horiz-adv-x="0" unicode="&#770;" /><glyph d="M38 634C51 634 61 629 88 611C119 591 132 585 151 585C186 585 209 607 249 675L207 696C181 657 168 645 152 645C140 645 130 650 102 668C72 688 60 694 40 694C6 694 -18 672 -59 605L-17 583C9 622 22 634 38 634Z" glyph-name="uni0303" horiz-adv-x="0" unicode="&#771;" /><glyph d="M208 598 221 651H-32L-45 598Z" glyph-name="uni0304" horiz-adv-x="0" unicode="&#772;" /><glyph d="M91 642C50 642 33 666 34 705H-16C-27 633 12 584 85 584C154 584 211 632 228 705H176C159 666 132 642 91 642Z" glyph-name="uni0306" horiz-adv-x="0" unicode="&#774;" /><glyph d="M121 593 142 681H61L40 593Z" glyph-name="uni0307" horiz-adv-x="0" unicode="&#775;" /><glyph d="M41 593 63 681H-15L-36 593ZM198 593 219 681H141L120 593Z" glyph-name="uni0308" horiz-adv-x="0" unicode="&#776;" /><glyph d="M1 723V673C33 682 68 688 98 688C131 688 143 681 143 670C143 658 130 647 57 621L63 580C178 614 209 644 209 682C209 717 175 740 107 740C70 740 36 734 1 723Z" glyph-name="uni0309" horiz-adv-x="0" unicode="&#777;" /><glyph d="M86 581C151 581 201 633 201 691C201 737 166 771 113 771C48 771 -2 719 -2 661C-2 615 33 581 86 581ZM89 612C54 612 34 634 34 664C34 703 67 740 110 740C145 740 165 718 165 688C165 648 132 612 89 612Z" glyph-name="uni030A" horiz-adv-x="0" unicode="&#778;" /><glyph d="M29 587 190 702H85L-37 587ZM171 587 333 702H228L106 587Z" glyph-name="uni030B" horiz-adv-x="0" unicode="&#779;" /><glyph d="M88 639 36 705H-22L43 587H116L238 705H173Z" glyph-name="uni030C" horiz-adv-x="0" unicode="&#780;" /><glyph d="M132 602C123 617 119 628 119 639C119 660 130 678 166 707L141 735C67 702 38 665 38 624C38 610 42 597 50 582Z" glyph-name="uni0312" horiz-adv-x="0" unicode="&#786;" /><glyph d="M177 725H112C99 657 84 621 58 581L84 566C135 610 161 647 177 725Z" glyph-name="uni0315" horiz-adv-x="0" unicode="&#789;" /><glyph d="M-55 -137 -34 -49H-115L-136 -137Z" glyph-name="uni0323" horiz-adv-x="0" unicode="&#803;" /><glyph d="M-135 -137 -113 -49H-191L-212 -137ZM22 -137 43 -49H-35L-56 -137Z" glyph-name="uni0324" horiz-adv-x="0" unicode="&#804;" /><glyph d="M-126 -60C-117 -75 -113 -86 -113 -97C-113 -118 -124 -136 -160 -165L-135 -193C-61 -160 -32 -123 -32 -82C-32 -68 -36 -55 -44 -40Z" glyph-name="uni0326" horiz-adv-x="0" unicode="&#806;" /><glyph d="M-187 -155C-41 -155 6 -124 6 -86C6 -57 -22 -42 -71 -41L-21 4L-82 9L-145 -54L-135 -75C-94 -71 -78 -77 -78 -90C-78 -105 -99 -117 -181 -120Z" glyph-name="uni0327" horiz-adv-x="0" unicode="&#807;" /><glyph d="M-19 -102C-68 -95 -81 -88 -81 -75C-81 -63 -74 -51 -20 4L-73 11C-151 -48 -167 -69 -167 -94C-167 -125 -133 -143 -33 -148Z" glyph-name="uni0328" horiz-adv-x="0" unicode="&#808;" /><glyph d="M-83 -101 -30 -167H28L-37 -49H-110L-232 -167H-167Z" glyph-name="uni032D" horiz-adv-x="0" unicode="&#813;" /><glyph d="M-90 -112C-131 -112 -148 -88 -147 -49H-197C-208 -121 -169 -170 -96 -170C-27 -170 30 -122 47 -49H-5C-22 -88 -49 -112 -90 -112Z" glyph-name="uni032E" horiz-adv-x="0" unicode="&#814;" /><glyph d="M38 -108 51 -55H-202L-215 -108Z" glyph-name="uni0331" horiz-adv-x="0" unicode="&#817;" /><glyph d="M23 -108 36 -55H-187L-200 -108Z" glyph-name="uni0331.nrw" horiz-adv-x="0" /><glyph d="M215 397 269 622H397L342 397ZM558 537C558 460 495 405 390 398L444 622C518 622 558 590 558 537ZM138 78 196 324H325L265 78ZM504 216C504 134 430 78 326 78H312L371 323C457 315 504 276 504 216ZM306 0C482 0 598 81 598 212C598 283 554 335 466 358C579 385 655 449 655 555C655 638 593 694 468 699L489 784H430L410 700H194L26 0H241L215 -107H273L299 0Z" glyph-name="uni0E3F" horiz-adv-x="664" unicode="&#3647;" /><glyph d="M414 611C496 611 537 579 537 527C537 456 469 403 350 403H224L274 611ZM317 318C428 318 483 277 483 217C483 139 416 89 309 89H148L204 318ZM26 0H289C477 0 587 84 587 210C587 284 538 337 458 357C565 378 645 448 645 548C645 641 572 700 429 700H194ZM380 -108 393 -55H140L127 -108Z" glyph-name="uni1E06" horiz-adv-x="652" unicode="&#7686;" /><glyph d="M256 -10C320 -10 376 16 419 60C479 119 519 220 519 333C519 461 448 527 359 527C312 527 269 510 224 479L283 724H187L13 0H87L113 44C156 9 203 -10 256 -10ZM243 69C206 69 171 84 135 112L207 408C247 434 286 449 321 449C382 449 424 405 424 321C424 242 394 159 351 116C321 87 285 69 243 69ZM305 -111 318 -58H65L52 -111Z" glyph-name="uni1E07" horiz-adv-x="558" unicode="&#7687;" /><glyph d="M348 611C487 611 563 542 563 422C563 321 527 231 473 176C418 121 340 89 240 89H148L274 611ZM26 0H219C364 0 473 44 548 117C619 188 666 296 666 430C666 600 552 700 353 700H194ZM291 -137 312 -49H231L210 -137Z" glyph-name="uni1E0C" horiz-adv-x="691" unicode="&#7692;" /><glyph d="M240 69C179 69 134 113 134 196C134 277 164 359 207 402C237 432 274 449 317 449C354 449 388 434 423 406L351 108C311 83 275 69 240 69ZM347 0H420L595 724H499L440 479C398 510 353 527 302 527C238 527 182 501 138 457C78 398 39 298 39 184C39 56 112 -10 203 -10C251 -10 294 9 342 45ZM233 -140 254 -52H173L152 -140Z" glyph-name="uni1E0D" horiz-adv-x="558" unicode="&#7693;" /><glyph d="M348 611C487 611 563 542 563 422C563 321 527 231 473 176C418 121 340 89 240 89H148L274 611ZM26 0H219C364 0 473 44 548 117C619 188 666 296 666 430C666 600 552 700 353 700H194ZM384 -108 397 -55H144L131 -108Z" glyph-name="uni1E0E" horiz-adv-x="691" unicode="&#7694;" /><glyph d="M240 69C179 69 134 113 134 196C134 277 164 359 207 402C237 432 274 449 317 449C354 449 388 434 423 406L351 108C311 83 275 69 240 69ZM347 0H420L595 724H499L440 479C398 510 353 527 302 527C238 527 182 501 138 457C78 398 39 298 39 184C39 56 112 -10 203 -10C251 -10 294 9 342 45ZM326 -111 339 -58H86L73 -111Z" glyph-name="uni1E0F" horiz-adv-x="558" unicode="&#7695;" /><glyph d="M348 611C487 611 563 542 563 422C563 321 527 231 473 176C418 121 340 89 240 89H148L274 611ZM26 0H219C364 0 473 44 548 117C619 188 666 296 666 430C666 600 552 700 353 700H194ZM263 -101 316 -167H374L309 -49H236L114 -167H179Z" glyph-name="uni1E12" horiz-adv-x="691" unicode="&#7698;" /><glyph d="M240 69C179 69 134 113 134 196C134 277 164 359 207 402C237 432 274 449 317 449C354 449 388 434 423 406L351 108C311 83 275 69 240 69ZM347 0H420L595 724H499L440 479C398 510 353 527 302 527C238 527 182 501 138 457C78 398 39 298 39 184C39 56 112 -10 203 -10C251 -10 294 9 342 45ZM205 -104 258 -170H316L251 -52H178L56 -170H121Z" glyph-name="uni1E13" horiz-adv-x="558" unicode="&#7699;" /><glyph d="M565 45 650 382H381L359 292H529L481 104C441 87 398 79 356 79C237 79 172 156 172 271C172 373 210 481 271 541C317 588 381 618 457 618C527 618 589 596 645 564L686 650C623 686 545 710 463 710C350 710 260 668 196 604C116 524 69 399 69 269C69 100 168 -9 341 -9C424 -9 499 11 565 45ZM621 762 635 818H348L335 762Z" glyph-name="uni1E20" horiz-adv-x="692" unicode="&#7712;" /><glyph d="M243 90C179 90 135 132 135 211C135 286 164 360 206 402C235 431 272 449 313 449C351 449 385 434 420 407L353 126C315 103 278 90 243 90ZM176 -177C308 -177 390 -116 420 8L543 518H469L442 473C399 509 352 528 299 528C235 528 180 502 138 460C80 402 41 307 41 198C41 77 111 10 206 10C253 10 295 27 338 57L329 21C310 -59 259 -99 175 -99C120 -99 62 -84 14 -57L-16 -131C36 -159 100 -177 176 -177ZM494 601 507 654H254L241 601Z" glyph-name="uni1E21" horiz-adv-x="555" unicode="&#7713;" /><glyph d="M461 0H563L731 700H629L558 406H225L296 700H194L26 0H128L203 312H536ZM305 -133 326 -45H245L224 -133Z" glyph-name="uni1E24" horiz-adv-x="713" unicode="&#7716;" /><glyph d="M335 442C388 442 416 414 416 366C416 352 414 336 410 318L334 0H430L506 322C513 349 517 376 517 398C517 478 466 527 380 527C326 527 276 508 223 475L283 724H187L13 0H108L204 399C249 426 293 442 335 442ZM231 -133 252 -45H171L150 -133Z" glyph-name="uni1E25" horiz-adv-x="563" unicode="&#7717;" /><glyph d="M144 -86C144 -57 116 -42 67 -41L113 0H128L203 312H536L461 0H563L731 700H629L558 406H225L296 700H194L26 0H47L-7 -54L3 -75C44 -71 60 -77 60 -90C60 -105 39 -117 -43 -120L-49 -155C97 -155 144 -124 144 -86Z" glyph-name="uni1E28" horiz-adv-x="713" unicode="&#7720;" /><glyph d="M128 -86C128 -57 100 -42 51 -41L97 0H108L204 399C249 426 293 442 335 442C388 442 416 414 416 366C416 352 414 336 410 318L334 0H430L506 322C513 349 517 376 517 398C517 478 466 527 380 527C326 527 276 508 223 475L283 724H187L13 0H31L-23 -54L-13 -75C28 -71 44 -77 44 -90C44 -105 23 -117 -59 -120L-65 -155C81 -155 128 -124 128 -86Z" glyph-name="uni1E29" horiz-adv-x="563" unicode="&#7721;" /><glyph d="M461 0H563L731 700H629L558 406H225L296 700H194L26 0H128L203 312H536ZM269 -112C228 -112 211 -88 212 -49H162C151 -121 190 -170 263 -170C332 -170 389 -122 406 -49H354C337 -88 310 -112 269 -112Z" glyph-name="uni1E2A" horiz-adv-x="713" unicode="&#7722;" /><glyph d="M335 442C388 442 416 414 416 366C416 352 414 336 410 318L334 0H430L506 322C513 349 517 376 517 398C517 478 466 527 380 527C326 527 276 508 223 475L283 724H187L13 0H108L204 399C249 426 293 442 335 442ZM195 -112C154 -112 137 -88 138 -49H88C77 -121 116 -170 189 -170C258 -170 315 -122 332 -49H280C263 -88 236 -112 195 -112Z" glyph-name="uni1E2B" horiz-adv-x="563" unicode="&#7723;" /><glyph d="M445 0H566L325 353L727 700H597L232 384H220L296 700H194L26 0H127L208 334H220ZM281 -133 302 -45H221L200 -133Z" glyph-name="uni1E32" horiz-adv-x="642" unicode="&#7730;" /><glyph d="M330 0H438L274 263L556 518H438L189 290H178L283 724H187L13 0H108L168 249H177ZM214 -133 235 -45H154L133 -133Z" glyph-name="uni1E33" horiz-adv-x="512" unicode="&#7731;" /><glyph d="M445 0H566L325 353L727 700H597L232 384H220L296 700H194L26 0H127L208 334H220ZM373 -108 386 -55H133L120 -108Z" glyph-name="uni1E34" horiz-adv-x="642" unicode="&#7732;" /><glyph d="M330 0H438L274 263L556 518H438L189 290H178L283 724H187L13 0H108L168 249H177ZM306 -108 319 -55H66L53 -108Z" glyph-name="uni1E35" horiz-adv-x="512" unicode="&#7733;" /><glyph d="M26 0H456L479 91H149L296 700H194ZM252 -137 273 -49H192L171 -137Z" glyph-name="uni1E36" horiz-adv-x="548" unicode="&#7734;" /><glyph d="M110 0 284 724H189L14 0ZM69 -137 90 -49H9L-12 -137Z" glyph-name="uni1E37" horiz-adv-x="249" unicode="&#7735;" /><glyph d="M26 0H456L479 91H149L296 700H194ZM386 755 400 811H149L135 755ZM252 -137 273 -49H192L171 -137Z" glyph-name="uni1E38" horiz-adv-x="548" unicode="&#7736;" /><glyph d="M110 0 284 724H189L14 0ZM363 789 376 842H153L140 789ZM69 -137 90 -49H9L-12 -137Z" glyph-name="uni1E39" horiz-adv-x="249" unicode="&#7737;" /><glyph d="M26 0H456L479 91H149L296 700H194ZM345 -108 358 -55H105L92 -108Z" glyph-name="uni1E3A" horiz-adv-x="548" unicode="&#7738;" /><glyph d="M110 0 284 724H189L14 0ZM147 -108 160 -55H-63L-76 -108Z" glyph-name="uni1E3B" horiz-adv-x="249" unicode="&#7739;" /><glyph d="M26 0H456L479 91H149L296 700H194ZM224 -101 277 -167H335L270 -49H197L75 -167H140Z" glyph-name="uni1E3C" horiz-adv-x="548" unicode="&#7740;" /><glyph d="M110 0 284 724H189L14 0ZM41 -101 94 -167H152L87 -49H14L-108 -167H-43Z" glyph-name="uni1E3D" horiz-adv-x="249" unicode="&#7741;" /><glyph d="M680 0H780L914 700H769L419 122L350 700H216L12 0H109L276 583L345 -1H438L794 579ZM583 745 749 843H618L499 745Z" glyph-name="uni1E3E" horiz-adv-x="915" unicode="&#7742;" /><glyph d="M333 442C384 442 411 415 411 367C411 353 409 337 405 319L329 0H424L501 323C507 348 511 372 511 394C564 426 608 442 649 442C700 442 728 415 728 367C728 353 726 337 721 319L645 0H741L818 323C824 350 828 376 828 399C828 478 778 527 693 527C630 527 573 504 499 459C480 503 438 527 377 527C322 527 272 506 216 471L211 518H138L13 0H108L204 399C248 425 291 442 333 442ZM531 588 702 703H580L462 588Z" glyph-name="uni1E3F" horiz-adv-x="874" unicode="&#7743;" /><glyph d="M680 0H780L914 700H769L419 122L350 700H216L12 0H109L276 583L345 -1H438L794 579ZM604 745 625 833H540L520 745Z" glyph-name="uni1E40" horiz-adv-x="915" unicode="&#7744;" /><glyph d="M333 442C384 442 411 415 411 367C411 353 409 337 405 319L329 0H424L501 323C507 348 511 372 511 394C564 426 608 442 649 442C700 442 728 415 728 367C728 353 726 337 721 319L645 0H741L818 323C824 350 828 376 828 399C828 478 778 527 693 527C630 527 573 504 499 459C480 503 438 527 377 527C322 527 272 506 216 471L211 518H138L13 0H108L204 399C248 425 291 442 333 442ZM557 594 578 682H497L476 594Z" glyph-name="uni1E41" horiz-adv-x="874" unicode="&#7745;" /><glyph d="M680 0H780L914 700H769L419 122L350 700H216L12 0H109L276 583L345 -1H438L794 579ZM401 -137 422 -49H341L320 -137Z" glyph-name="uni1E42" horiz-adv-x="915" unicode="&#7746;" /><glyph d="M333 442C384 442 411 415 411 367C411 353 409 337 405 319L329 0H424L501 323C507 348 511 372 511 394C564 426 608 442 649 442C700 442 728 415 728 367C728 353 726 337 721 319L645 0H741L818 323C824 350 828 376 828 399C828 478 778 527 693 527C630 527 573 504 499 459C480 503 438 527 377 527C322 527 272 506 216 471L211 518H138L13 0H108L204 399C248 425 291 442 333 442ZM384 -137 405 -49H324L303 -137Z" glyph-name="uni1E43" horiz-adv-x="874" unicode="&#7747;" /><glyph d="M253 537 257 557 458 0H564L733 700H635L507 171L503 154L307 700H194L26 0H123ZM519 745 540 833H455L435 745Z" glyph-name="uni1E44" horiz-adv-x="714" unicode="&#7748;" /><glyph d="M335 442C388 442 416 414 416 366C416 352 414 336 410 318L334 0H430L506 322C513 349 517 376 517 398C517 478 466 527 380 527C324 527 272 506 216 471L211 518H138L13 0H108L204 399C248 425 292 442 335 442ZM400 596 421 684H340L319 596Z" glyph-name="uni1E45" horiz-adv-x="563" unicode="&#7749;" /><glyph d="M253 537 257 557 458 0H564L733 700H635L507 171L503 154L307 700H194L26 0H123ZM300 -133 321 -45H240L219 -133Z" glyph-name="uni1E46" horiz-adv-x="714" unicode="&#7750;" /><glyph d="M335 442C388 442 416 414 416 366C416 352 414 336 410 318L334 0H430L506 322C513 349 517 376 517 398C517 478 466 527 380 527C324 527 272 506 216 471L211 518H138L13 0H108L204 399C248 425 292 442 335 442ZM232 -133 253 -45H172L151 -133Z" glyph-name="uni1E47" horiz-adv-x="563" unicode="&#7751;" /><glyph d="M253 537 257 557 458 0H564L733 700H635L507 171L503 154L307 700H194L26 0H123ZM392 -108 405 -55H152L139 -108Z" glyph-name="uni1E48" horiz-adv-x="714" unicode="&#7752;" /><glyph d="M335 442C388 442 416 414 416 366C416 352 414 336 410 318L334 0H430L506 322C513 349 517 376 517 398C517 478 466 527 380 527C324 527 272 506 216 471L211 518H138L13 0H108L204 399C248 425 292 442 335 442ZM324 -108 337 -55H84L71 -108Z" glyph-name="uni1E49" horiz-adv-x="563" unicode="&#7753;" /><glyph d="M253 537 257 557 458 0H564L733 700H635L507 171L503 154L307 700H194L26 0H123ZM272 -97 325 -163H383L318 -45H245L123 -163H188Z" glyph-name="uni1E4A" horiz-adv-x="714" unicode="&#7754;" /><glyph d="M335 442C388 442 416 414 416 366C416 352 414 336 410 318L334 0H430L506 322C513 349 517 376 517 398C517 478 466 527 380 527C324 527 272 506 216 471L211 518H138L13 0H108L204 399C248 425 292 442 335 442ZM204 -97 257 -163H315L250 -45H177L55 -163H120Z" glyph-name="uni1E4B" horiz-adv-x="563" unicode="&#7755;" /><glyph d="M406 611C499 611 542 569 542 508C542 468 527 433 500 406C461 368 388 346 315 346H210L274 611ZM261 257C326 257 354 237 382 183L472 0H588L485 195C463 242 444 267 405 286C547 313 646 397 646 527C646 633 569 700 420 700H194L26 0H127L189 257ZM476 749 497 837H412L392 749Z" glyph-name="uni1E58" horiz-adv-x="663" unicode="&#7768;" /><glyph d="M13 0H108L194 358C259 403 322 425 392 427L415 525C338 525 273 495 208 433L210 518H138ZM328 593 349 681H268L247 593Z" glyph-name="uni1E59" horiz-adv-x="380" unicode="&#7769;" /><glyph d="M406 611C499 611 542 569 542 508C542 468 527 433 500 406C461 368 388 346 315 346H210L274 611ZM261 257C326 257 354 237 382 183L472 0H588L485 195C463 242 444 267 405 286C547 313 646 397 646 527C646 633 569 700 420 700H194L26 0H127L189 257ZM290 -133 311 -45H230L209 -133Z" glyph-name="uni1E5A" horiz-adv-x="663" unicode="&#7770;" /><glyph d="M13 0H108L194 358C259 403 322 425 392 427L415 525C338 525 273 495 208 433L210 518H138ZM68 -137 89 -49H8L-13 -137Z" glyph-name="uni1E5B" horiz-adv-x="380" unicode="&#7771;" /><glyph d="M406 611C499 611 542 569 542 508C542 468 527 433 500 406C461 368 388 346 315 346H210L274 611ZM261 257C326 257 354 237 382 183L472 0H588L485 195C463 242 444 267 405 286C547 313 646 397 646 527C646 633 569 700 420 700H194L26 0H127L189 257ZM578 755 592 811H305L292 755ZM290 -133 311 -45H230L209 -133Z" glyph-name="uni1E5C" horiz-adv-x="663" unicode="&#7772;" /><glyph d="M13 0H108L194 358C259 403 322 425 392 427L415 525C338 525 273 495 208 433L210 518H138ZM400 598 413 651H190L177 598ZM68 -137 89 -49H8L-13 -137Z" glyph-name="uni1E5D" horiz-adv-x="380" unicode="&#7773;" /><glyph d="M406 611C499 611 542 569 542 508C542 468 527 433 500 406C461 368 388 346 315 346H210L274 611ZM261 257C326 257 354 237 382 183L472 0H588L485 195C463 242 444 267 405 286C547 313 646 397 646 527C646 633 569 700 420 700H194L26 0H127L189 257ZM382 -108 395 -55H142L129 -108Z" glyph-name="uni1E5E" horiz-adv-x="663" unicode="&#7774;" /><glyph d="M13 0H108L194 358C259 403 322 425 392 427L415 525C338 525 273 495 208 433L210 518H138ZM146 -108 159 -55H-64L-77 -108Z" glyph-name="uni1E5F" horiz-adv-x="380" unicode="&#7775;" /><glyph d="M439 193C439 125 375 80 287 80C195 80 112 109 48 148L8 61C81 19 167 -9 276 -9C440 -9 543 78 543 203C543 289 490 341 355 400C257 447 224 472 224 519C224 574 276 620 361 620C436 620 508 594 567 561L609 645C544 682 466 709 368 709C216 709 121 619 121 510C121 420 178 374 306 318C406 270 439 238 439 193ZM253 -144 274 -56H193L172 -144Z" glyph-name="uni1E62" horiz-adv-x="603" unicode="&#7778;" /><glyph d="M316 139C316 100 280 70 217 70C158 70 90 93 30 128L-4 51C60 13 133 -10 215 -10C333 -10 408 55 408 146C408 217 369 258 266 300C195 331 174 347 174 381C174 417 210 448 270 448C323 448 372 429 427 400L460 478C404 508 347 528 275 528C157 528 82 460 82 372C82 303 126 265 225 224C297 193 316 173 316 139ZM191 -140 212 -52H131L110 -140Z" glyph-name="uni1E63" horiz-adv-x="478" unicode="&#7779;" /><glyph d="M674 610 696 700H132L109 610H341L194 0H296L443 610ZM254 -137 275 -49H194L173 -137Z" glyph-name="uni1E6C" horiz-adv-x="618" unicode="&#7788;" /><glyph d="M300 1 318 82C295 77 275 73 250 73C207 73 174 92 174 136C174 149 176 162 179 176L244 438H398L417 518H263L300 667H206L170 518H89L70 438H150L85 172C79 150 77 129 77 111C77 31 132 -9 220 -9C248 -9 275 -5 300 1ZM181 -140 202 -52H121L100 -140Z" glyph-name="uni1E6D" horiz-adv-x="396" unicode="&#7789;" /><glyph d="M674 610 696 700H132L109 610H341L194 0H296L443 610ZM347 -108 360 -55H107L94 -108Z" glyph-name="uni1E6E" horiz-adv-x="618" unicode="&#7790;" /><glyph d="M300 1 318 82C295 77 275 73 250 73C207 73 174 92 174 136C174 149 176 162 179 176L244 438H398L417 518H263L300 667H206L170 518H89L70 438H150L85 172C79 150 77 129 77 111C77 31 132 -9 220 -9C248 -9 275 -5 300 1ZM259 -111 272 -58H49L36 -111Z" glyph-name="uni1E6F" horiz-adv-x="396" unicode="&#7791;" /><glyph d="M674 610 696 700H132L109 610H341L194 0H296L443 610ZM226 -101 279 -167H337L272 -49H199L77 -167H142Z" glyph-name="uni1E70" horiz-adv-x="618" unicode="&#7792;" /><glyph d="M300 1 318 82C295 77 275 73 250 73C207 73 174 92 174 136C174 149 176 162 179 176L244 438H398L417 518H263L300 667H206L170 518H89L70 438H150L85 172C79 150 77 129 77 111C77 31 132 -9 220 -9C248 -9 275 -5 300 1ZM153 -104 206 -170H264L199 -52H126L4 -170H69Z" glyph-name="uni1E71" horiz-adv-x="396" unicode="&#7793;" /><glyph d="M323 -8 751 700H637L297 113L237 700H131L217 -8ZM280 -143 301 -55H220L199 -143Z" glyph-name="uni1E7E" horiz-adv-x="675" unicode="&#7806;" /><glyph d="M242 -7 554 518H452L212 88L177 518H83L141 -7ZM201 -140 222 -52H141L120 -140Z" glyph-name="uni1E7F" horiz-adv-x="515" unicode="&#7807;" /><glyph d="M91 0 334 288 454 0H565L411 356L716 700H593L364 431L255 700H145L287 365L-33 0ZM393 749 414 837H332L312 749ZM558 749 579 837H497L477 749Z" glyph-name="uni1E8C" horiz-adv-x="652" unicode="&#7820;" /><glyph d="M332 0H431L315 262L545 518H435L273 327L194 518H95L205 269L-37 0H74L247 205ZM294 593 316 681H238L217 593ZM451 593 472 681H394L373 593Z" glyph-name="uni1E8D" horiz-adv-x="517" unicode="&#7821;" /><glyph d="M304 0 369 269 724 700H605L337 362L227 700H119L268 274L202 0ZM466 745 487 833H402L382 745Z" glyph-name="uni1E8E" horiz-adv-x="636" unicode="&#7822;" /><glyph d="M-24 -177C128 -148 195 -89 270 35L553 518H451L218 89L182 518H87L147 3C94 -49 44 -78 -29 -94ZM372 589 393 677H312L291 589Z" glyph-name="uni1E8F" horiz-adv-x="513" unicode="&#7823;" /><glyph d="M502 0 524 90H132L639 615L658 700H160L138 610H512L4 84L-15 0ZM427 802 481 749H548L478 850H392L274 749H347Z" glyph-name="uni1E90" horiz-adv-x="604" unicode="&#7824;" /><glyph d="M377 0 397 79H109L477 444L493 518H111L91 439H364L-4 74L-21 0ZM333 653 386 587H444L379 705H306L184 587H249Z" glyph-name="uni1E91" horiz-adv-x="480" unicode="&#7825;" /><glyph d="M502 0 524 90H132L639 615L658 700H160L138 610H512L4 84L-15 0ZM259 -137 280 -49H199L178 -137Z" glyph-name="uni1E92" horiz-adv-x="604" unicode="&#7826;" /><glyph d="M377 0 397 79H109L477 444L493 518H111L91 439H364L-4 74L-21 0ZM196 -137 217 -49H136L115 -137Z" glyph-name="uni1E93" horiz-adv-x="480" unicode="&#7827;" /><glyph d="M502 0 524 90H132L639 615L658 700H160L138 610H512L4 84L-15 0ZM352 -108 365 -55H112L99 -108Z" glyph-name="uni1E94" horiz-adv-x="604" unicode="&#7828;" /><glyph d="M377 0 397 79H109L477 444L493 518H111L91 439H364L-4 74L-21 0ZM289 -108 302 -55H49L36 -108Z" glyph-name="uni1E95" horiz-adv-x="480" unicode="&#7829;" /><glyph d="M335 442C388 442 416 414 416 366C416 352 414 336 410 318L334 0H430L506 322C513 349 517 376 517 398C517 478 466 527 380 527C326 527 276 508 223 475L283 724H187L13 0H108L204 399C249 426 293 442 335 442ZM323 -108 336 -55H83L70 -108Z" glyph-name="uni1E96" horiz-adv-x="563" unicode="&#7830;" /><glyph d="M369 -10C516 -11 612 80 612 188C612 260 561 319 462 361L699 581L702 592C648 667 557 711 448 711C286 711 163 614 122 446L16 0H118L221 434C250 554 336 623 437 623C487 623 534 608 572 578L348 372L333 311C460 272 510 231 510 181C510 125 458 77 371 77C330 77 283 87 243 104L221 17C265 -1 321 -10 369 -10Z" glyph-name="uni1E9E" horiz-adv-x="678" unicode="&#7838;" /><glyph d="M476 243H220L436 609ZM502 0H603L513 708H398L-33 0H77L168 155H485ZM301 -133 322 -45H241L220 -133Z" glyph-name="uni1EA0" horiz-adv-x="695" unicode="&#7840;" /><glyph d="M192 70C144 70 109 95 109 142C109 202 154 247 272 247C302 247 331 245 359 242L325 115C280 86 236 70 192 70ZM323 0H401L416 101L477 331C483 354 485 373 485 392C485 480 417 526 310 526C239 526 180 514 126 497L137 420C186 437 233 447 286 447C349 447 389 423 389 376C389 363 388 349 384 334L378 312C339 317 300 320 263 320C99 320 16 244 16 129C16 40 76 -9 157 -9C216 -9 266 13 318 52ZM209 -140 230 -52H149L128 -140Z" glyph-name="uni1EA1" horiz-adv-x="528" unicode="&#7841;" /><glyph d="M476 243H220L436 609ZM502 0H603L513 708H398L-33 0H77L168 155H485ZM372 884V834C409 841 447 846 483 846C522 846 535 840 535 831C535 821 523 812 442 789L445 749C570 777 604 806 604 842C604 876 567 898 490 898C449 898 411 893 372 884Z" glyph-name="uni1EA2" horiz-adv-x="695" unicode="&#7842;" /><glyph d="M192 70C144 70 109 95 109 142C109 202 154 247 272 247C302 247 331 245 359 242L325 115C280 86 236 70 192 70ZM323 0H401L416 101L477 331C483 354 485 373 485 392C485 480 417 526 310 526C239 526 180 514 126 497L137 420C186 437 233 447 286 447C349 447 389 423 389 376C389 363 388 349 384 334L378 312C339 317 300 320 263 320C99 320 16 244 16 129C16 40 76 -9 157 -9C216 -9 266 13 318 52ZM260 726V676C292 685 327 691 357 691C390 691 402 684 402 673C402 661 389 650 316 624L322 583C437 617 468 647 468 685C468 720 434 743 366 743C329 743 295 737 260 726Z" glyph-name="uni1EA3" horiz-adv-x="528" unicode="&#7843;" /><glyph d="M476 243H220L436 609ZM502 0H603L513 708H398L-33 0H77L168 155H485ZM662 839 814 925H692L586 839ZM479 800 537 755H604L530 848H443L326 755H399Z" glyph-name="uni1EA4" horiz-adv-x="695" unicode="&#7844;" /><glyph d="M192 70C144 70 109 95 109 142C109 202 154 247 272 247C302 247 331 245 359 242L325 115C280 86 236 70 192 70ZM323 0H401L416 101L477 331C483 354 485 373 485 392C485 480 417 526 310 526C239 526 180 514 126 497L137 420C186 437 233 447 286 447C349 447 389 423 389 376C389 363 388 349 384 334L378 312C339 317 300 320 263 320C99 320 16 244 16 129C16 40 76 -9 157 -9C216 -9 266 13 318 52ZM522 683 674 781H560L460 683ZM355 647 412 590H470L401 697H327L206 590H270Z" glyph-name="uni1EA5" horiz-adv-x="528" unicode="&#7845;" /><glyph d="M476 243H220L436 609ZM502 0H603L513 708H398L-33 0H77L168 155H485ZM703 839 638 925H524L635 839ZM479 800 537 755H604L530 848H443L326 755H399Z" glyph-name="uni1EA6" horiz-adv-x="695" unicode="&#7846;" /><glyph d="M192 70C144 70 109 95 109 142C109 202 154 247 272 247C302 247 331 245 359 242L325 115C280 86 236 70 192 70ZM323 0H401L416 101L477 331C483 354 485 373 485 392C485 480 417 526 310 526C239 526 180 514 126 497L137 420C186 437 233 447 286 447C349 447 389 423 389 376C389 363 388 349 384 334L378 312C339 317 300 320 263 320C99 320 16 244 16 129C16 40 76 -9 157 -9C216 -9 266 13 318 52ZM502 683H557L503 781H398ZM355 647 412 590H470L401 697H327L206 590H270Z" glyph-name="uni1EA7" horiz-adv-x="528" unicode="&#7847;" /><glyph d="M476 243H220L436 609ZM502 0H603L513 708H398L-33 0H77L168 155H485ZM556 946 555 899C582 905 612 909 638 909C666 909 676 904 676 895C676 886 663 878 605 859L609 820C705 845 734 872 736 906C737 937 707 958 647 958C614 958 585 954 556 946ZM479 800 537 755H604L530 848H443L326 755H399Z" glyph-name="uni1EA8" horiz-adv-x="695" unicode="&#7848;" /><glyph d="M192 70C144 70 109 95 109 142C109 202 154 247 272 247C302 247 331 245 359 242L325 115C280 86 236 70 192 70ZM323 0H401L416 101L477 331C483 354 485 373 485 392C485 480 417 526 310 526C239 526 180 514 126 497L137 420C186 437 233 447 286 447C349 447 389 423 389 376C389 363 388 349 384 334L378 312C339 317 300 320 263 320C99 320 16 244 16 129C16 40 76 -9 157 -9C216 -9 266 13 318 52ZM436 793 437 747C461 754 487 759 509 759C535 759 544 753 544 744C544 732 531 721 475 700L482 664C575 693 603 721 603 756C603 787 574 807 521 807C492 807 464 803 436 793ZM355 647 412 590H470L401 697H327L206 590H270Z" glyph-name="uni1EA9" horiz-adv-x="528" unicode="&#7849;" /><glyph d="M476 243H220L436 609ZM502 0H603L513 708H398L-33 0H77L168 155H485ZM405 868C429 902 442 913 456 913C468 913 477 908 503 892C531 875 543 869 561 869C591 869 616 890 653 951L614 972C590 938 577 927 563 927C551 927 542 931 516 948C488 965 476 971 458 971C427 971 403 950 365 889ZM479 797 539 755H606L529 844H443L324 755H397Z" glyph-name="uni1EAA" horiz-adv-x="695" unicode="&#7850;" /><glyph d="M192 70C144 70 109 95 109 142C109 202 154 247 272 247C302 247 331 245 359 242L325 115C280 86 236 70 192 70ZM323 0H401L416 101L477 331C483 354 485 373 485 392C485 480 417 526 310 526C239 526 180 514 126 497L137 420C186 437 233 447 286 447C349 447 389 423 389 376C389 363 388 349 384 334L378 312C339 317 300 320 263 320C99 320 16 244 16 129C16 40 76 -9 157 -9C216 -9 266 13 318 52ZM286 717C309 751 322 761 336 761C347 761 356 757 379 742C406 725 418 719 436 719C465 719 489 740 526 799L487 819C463 786 451 775 437 775C426 775 417 780 393 795C367 811 354 818 337 818C307 818 284 797 247 737ZM354 642 413 590H472L399 692H326L205 590H269Z" glyph-name="uni1EAB" horiz-adv-x="528" unicode="&#7851;" /><glyph d="M476 243H220L436 609ZM502 0H603L513 708H398L-33 0H77L168 155H485ZM481 808 535 755H602L532 856H446L328 755H401ZM301 -133 322 -45H241L220 -133Z" glyph-name="uni1EAC" horiz-adv-x="695" unicode="&#7852;" /><glyph d="M192 70C144 70 109 95 109 142C109 202 154 247 272 247C302 247 331 245 359 242L325 115C280 86 236 70 192 70ZM323 0H401L416 101L477 331C483 354 485 373 485 392C485 480 417 526 310 526C239 526 180 514 126 497L137 420C186 437 233 447 286 447C349 447 389 423 389 376C389 363 388 349 384 334L378 312C339 317 300 320 263 320C99 320 16 244 16 129C16 40 76 -9 157 -9C216 -9 266 13 318 52ZM357 656 410 590H468L403 708H330L208 590H273ZM209 -140 230 -52H149L128 -140Z" glyph-name="uni1EAD" horiz-adv-x="528" unicode="&#7853;" /><glyph d="M476 243H220L436 609ZM502 0H603L513 708H398L-33 0H77L168 155H485ZM521 873 673 958H542L437 873ZM476 809C436 809 415 825 412 852H357C352 792 397 752 469 752C540 752 597 790 617 852H560C544 825 516 809 476 809Z" glyph-name="uni1EAE" horiz-adv-x="695" unicode="&#7854;" /><glyph d="M192 70C144 70 109 95 109 142C109 202 154 247 272 247C302 247 331 245 359 242L325 115C280 86 236 70 192 70ZM323 0H401L416 101L477 331C483 354 485 373 485 392C485 480 417 526 310 526C239 526 180 514 126 497L137 420C186 437 233 447 286 447C349 447 389 423 389 376C389 363 388 349 384 334L378 312C339 317 300 320 263 320C99 320 16 244 16 129C16 40 76 -9 157 -9C216 -9 266 13 318 52ZM389 714 541 811H420L320 714ZM350 643C309 643 289 663 289 695H240C229 631 271 587 343 587C414 587 470 630 486 695H434C419 663 391 643 350 643Z" glyph-name="uni1EAF" horiz-adv-x="528" unicode="&#7855;" /><glyph d="M476 243H220L436 609ZM502 0H603L513 708H398L-33 0H77L168 155H485ZM545 873 479 958H358L469 873ZM476 809C436 809 415 825 412 852H357C352 792 397 752 469 752C540 752 597 790 617 852H560C544 825 516 809 476 809Z" glyph-name="uni1EB0" horiz-adv-x="695" unicode="&#7856;" /><glyph d="M192 70C144 70 109 95 109 142C109 202 154 247 272 247C302 247 331 245 359 242L325 115C280 86 236 70 192 70ZM323 0H401L416 101L477 331C483 354 485 373 485 392C485 480 417 526 310 526C239 526 180 514 126 497L137 420C186 437 233 447 286 447C349 447 389 423 389 376C389 363 388 349 384 334L378 312C339 317 300 320 263 320C99 320 16 244 16 129C16 40 76 -9 157 -9C216 -9 266 13 318 52ZM350 714H413L358 811H246ZM350 643C309 643 289 663 289 695H240C229 631 271 587 343 587C414 587 470 630 486 695H434C419 663 391 643 350 643Z" glyph-name="uni1EB1" horiz-adv-x="528" unicode="&#7857;" /><glyph d="M476 243H220L436 609ZM502 0H603L513 708H398L-33 0H77L168 155H485ZM409 984 408 935C441 943 474 947 504 947C537 947 549 941 549 933C548 924 534 915 467 896L472 857C582 883 615 910 616 944C617 975 584 996 513 996C477 996 442 992 409 984ZM476 809C436 809 415 825 412 852H357C352 792 397 752 469 752C540 752 597 790 617 852H560C544 825 516 809 476 809Z" glyph-name="uni1EB2" horiz-adv-x="695" unicode="&#7858;" /><glyph d="M192 70C144 70 109 95 109 142C109 202 154 247 272 247C302 247 331 245 359 242L325 115C280 86 236 70 192 70ZM323 0H401L416 101L477 331C483 354 485 373 485 392C485 480 417 526 310 526C239 526 180 514 126 497L137 420C186 437 233 447 286 447C349 447 389 423 389 376C389 363 388 349 384 334L378 312C339 317 300 320 263 320C99 320 16 244 16 129C16 40 76 -9 157 -9C216 -9 266 13 318 52ZM297 826V779C324 787 351 792 376 792C404 792 413 785 413 776C413 765 400 755 343 733L348 696C445 726 476 753 477 787C478 819 448 840 388 840C357 840 327 836 297 826ZM350 643C309 643 289 663 289 695H240C229 631 271 587 343 587C414 587 470 630 486 695H434C419 663 391 643 350 643Z" glyph-name="uni1EB3" horiz-adv-x="528" unicode="&#7859;" /><glyph d="M476 243H220L436 609ZM502 0H603L513 708H398L-33 0H77L168 155H485ZM404 877C428 911 441 922 455 922C467 922 476 917 502 901C530 884 542 878 560 878C590 878 615 899 652 960L613 981C589 947 575 936 561 936C549 936 541 940 515 957C487 974 474 980 456 980C426 980 402 959 364 898ZM476 809C436 809 415 825 412 852H357C352 792 397 752 469 752C540 752 597 790 617 852H560C544 825 516 809 476 809Z" glyph-name="uni1EB4" horiz-adv-x="695" unicode="&#7860;" /><glyph d="M192 70C144 70 109 95 109 142C109 202 154 247 272 247C302 247 331 245 359 242L325 115C280 86 236 70 192 70ZM323 0H401L416 101L477 331C483 354 485 373 485 392C485 480 417 526 310 526C239 526 180 514 126 497L137 420C186 437 233 447 286 447C349 447 389 423 389 376C389 363 388 349 384 334L378 312C339 317 300 320 263 320C99 320 16 244 16 129C16 40 76 -9 157 -9C216 -9 266 13 318 52ZM284 724C307 757 320 768 333 768C344 768 353 763 377 748C404 732 415 725 433 725C463 725 487 746 523 805L484 825C461 792 448 782 434 782C424 782 415 786 391 801C364 818 352 824 335 824C305 824 281 803 244 744ZM350 643C309 643 289 663 289 695H240C229 631 271 587 343 587C414 587 470 630 486 695H434C419 663 391 643 350 643Z" glyph-name="uni1EB5" horiz-adv-x="528" unicode="&#7861;" /><glyph d="M476 243H220L436 609ZM502 0H603L513 708H398L-33 0H77L168 155H485ZM477 810C439 810 418 830 416 864H361C354 796 397 752 470 752C540 752 597 795 618 864H561C544 829 516 810 477 810ZM301 -133 322 -45H241L220 -133Z" glyph-name="uni1EB6" horiz-adv-x="695" unicode="&#7862;" /><glyph d="M192 70C144 70 109 95 109 142C109 202 154 247 272 247C302 247 331 245 359 242L325 115C280 86 236 70 192 70ZM323 0H401L416 101L477 331C483 354 485 373 485 392C485 480 417 526 310 526C239 526 180 514 126 497L137 420C186 437 233 447 286 447C349 447 389 423 389 376C389 363 388 349 384 334L378 312C339 317 300 320 263 320C99 320 16 244 16 129C16 40 76 -9 157 -9C216 -9 266 13 318 52ZM350 645C309 645 292 669 293 708H243C232 636 271 587 344 587C413 587 470 635 487 708H435C418 669 391 645 350 645ZM209 -140 230 -52H149L128 -140Z" glyph-name="uni1EB7" horiz-adv-x="528" unicode="&#7863;" /><glyph d="M26 0H503L525 90H149L203 314H532L554 404H225L274 610H643L666 700H194ZM287 -137 308 -49H227L206 -137Z" glyph-name="uni1EB8" horiz-adv-x="619" unicode="&#7864;" /><glyph d="M303 452C365 452 401 410 401 344C401 328 400 311 396 295H142C168 383 231 452 303 452ZM409 25 399 100C353 80 306 69 259 69C168 69 125 121 125 198C125 205 125 212 126 219H468C481 257 489 300 489 343C489 456 425 530 316 530C250 530 188 503 143 458C83 398 38 301 38 196C38 67 113 -10 243 -10C303 -10 357 2 409 25ZM216 -140 237 -52H156L135 -140Z" glyph-name="uni1EB9" horiz-adv-x="520" unicode="&#7865;" /><glyph d="M26 0H503L525 90H149L203 314H532L554 404H225L274 610H643L666 700H194ZM357 878V828C394 835 432 840 468 840C507 840 520 834 520 825C520 815 508 806 427 783L430 743C555 771 589 800 589 836C589 870 552 892 475 892C434 892 396 887 357 878Z" glyph-name="uni1EBA" horiz-adv-x="619" unicode="&#7866;" /><glyph d="M303 452C365 452 401 410 401 344C401 328 400 311 396 295H142C168 383 231 452 303 452ZM409 25 399 100C353 80 306 69 259 69C168 69 125 121 125 198C125 205 125 212 126 219H468C481 257 489 300 489 343C489 456 425 530 316 530C250 530 188 503 143 458C83 398 38 301 38 196C38 67 113 -10 243 -10C303 -10 357 2 409 25ZM261 726V676C293 685 328 691 358 691C391 691 403 684 403 673C403 661 390 650 317 624L323 583C438 617 469 647 469 685C469 720 435 743 367 743C330 743 296 737 261 726Z" glyph-name="uni1EBB" horiz-adv-x="520" unicode="&#7867;" /><glyph d="M26 0H503L525 90H149L203 314H532L554 404H225L274 610H643L666 700H194ZM406 795C419 795 429 791 459 773C489 754 504 747 524 747C559 747 585 769 626 833L584 856C556 818 542 807 526 807C512 807 502 811 473 829C442 848 427 855 408 855C372 855 347 833 305 768L348 745C375 784 389 795 406 795Z" glyph-name="uni1EBC" horiz-adv-x="619" unicode="&#7868;" /><glyph d="M303 452C365 452 401 410 401 344C401 328 400 311 396 295H142C168 383 231 452 303 452ZM409 25 399 100C353 80 306 69 259 69C168 69 125 121 125 198C125 205 125 212 126 219H468C481 257 489 300 489 343C489 456 425 530 316 530C250 530 188 503 143 458C83 398 38 301 38 196C38 67 113 -10 243 -10C303 -10 357 2 409 25ZM298 637C311 637 321 632 348 614C379 594 392 588 411 588C446 588 469 610 509 678L467 699C441 660 428 648 412 648C400 648 390 653 362 671C332 691 320 697 300 697C266 697 242 675 201 608L243 586C269 625 282 637 298 637Z" glyph-name="uni1EBD" horiz-adv-x="520" unicode="&#7869;" /><glyph d="M26 0H503L525 90H149L203 314H532L554 404H225L274 610H643L666 700H194ZM647 833 799 919H677L571 833ZM464 794 522 749H589L515 842H428L311 749H384Z" glyph-name="uni1EBE" horiz-adv-x="619" unicode="&#7870;" /><glyph d="M303 452C365 452 401 410 401 344C401 328 400 311 396 295H142C168 383 231 452 303 452ZM409 25 399 100C353 80 306 69 259 69C168 69 125 121 125 198C125 205 125 212 126 219H468C481 257 489 300 489 343C489 456 425 530 316 530C250 530 188 503 143 458C83 398 38 301 38 196C38 67 113 -10 243 -10C303 -10 357 2 409 25ZM523 683 675 781H561L461 683ZM356 647 413 590H471L402 697H328L207 590H271Z" glyph-name="uni1EBF" horiz-adv-x="520" unicode="&#7871;" /><glyph d="M26 0H503L525 90H149L203 314H532L554 404H225L274 610H643L666 700H194ZM688 833 623 919H509L620 833ZM464 794 522 749H589L515 842H428L311 749H384Z" glyph-name="uni1EC0" horiz-adv-x="619" unicode="&#7872;" /><glyph d="M303 452C365 452 401 410 401 344C401 328 400 311 396 295H142C168 383 231 452 303 452ZM409 25 399 100C353 80 306 69 259 69C168 69 125 121 125 198C125 205 125 212 126 219H468C481 257 489 300 489 343C489 456 425 530 316 530C250 530 188 503 143 458C83 398 38 301 38 196C38 67 113 -10 243 -10C303 -10 357 2 409 25ZM503 683H558L504 781H399ZM356 647 413 590H471L402 697H328L207 590H271Z" glyph-name="uni1EC1" horiz-adv-x="520" unicode="&#7873;" /><glyph d="M26 0H503L525 90H149L203 314H532L554 404H225L274 610H643L666 700H194ZM541 940 540 893C567 899 597 903 623 903C651 903 661 898 661 889C661 880 648 872 590 853L594 814C690 839 719 866 721 900C722 931 692 952 632 952C599 952 570 948 541 940ZM464 794 522 749H589L515 842H428L311 749H384Z" glyph-name="uni1EC2" horiz-adv-x="619" unicode="&#7874;" /><glyph d="M303 452C365 452 401 410 401 344C401 328 400 311 396 295H142C168 383 231 452 303 452ZM409 25 399 100C353 80 306 69 259 69C168 69 125 121 125 198C125 205 125 212 126 219H468C481 257 489 300 489 343C489 456 425 530 316 530C250 530 188 503 143 458C83 398 38 301 38 196C38 67 113 -10 243 -10C303 -10 357 2 409 25ZM437 793 438 747C462 754 488 759 510 759C536 759 545 753 545 744C545 732 532 721 476 700L483 664C576 693 604 721 604 756C604 787 575 807 522 807C493 807 465 803 437 793ZM356 647 413 590H471L402 697H328L207 590H271Z" glyph-name="uni1EC3" horiz-adv-x="520" unicode="&#7875;" /><glyph d="M26 0H503L525 90H149L203 314H532L554 404H225L274 610H643L666 700H194ZM390 862C414 896 427 907 441 907C453 907 462 902 488 886C516 869 528 863 546 863C576 863 601 884 638 945L599 966C575 932 562 921 548 921C536 921 527 925 501 942C473 959 461 965 443 965C412 965 388 944 350 883ZM464 791 524 749H591L514 838H428L309 749H382Z" glyph-name="uni1EC4" horiz-adv-x="619" unicode="&#7876;" /><glyph d="M303 452C365 452 401 410 401 344C401 328 400 311 396 295H142C168 383 231 452 303 452ZM409 25 399 100C353 80 306 69 259 69C168 69 125 121 125 198C125 205 125 212 126 219H468C481 257 489 300 489 343C489 456 425 530 316 530C250 530 188 503 143 458C83 398 38 301 38 196C38 67 113 -10 243 -10C303 -10 357 2 409 25ZM287 717C310 751 323 761 337 761C348 761 357 757 380 742C407 725 419 719 437 719C466 719 490 740 527 799L488 819C464 786 452 775 438 775C427 775 418 780 394 795C368 811 355 818 338 818C308 818 285 797 248 737ZM355 642 414 590H473L400 692H327L206 590H270Z" glyph-name="uni1EC5" horiz-adv-x="520" unicode="&#7877;" /><glyph d="M26 0H503L525 90H149L203 314H532L554 404H225L274 610H643L666 700H194ZM466 802 520 749H587L517 850H431L313 749H386ZM287 -137 308 -49H227L206 -137Z" glyph-name="uni1EC6" horiz-adv-x="619" unicode="&#7878;" /><glyph d="M303 452C365 452 401 410 401 344C401 328 400 311 396 295H142C168 383 231 452 303 452ZM409 25 399 100C353 80 306 69 259 69C168 69 125 121 125 198C125 205 125 212 126 219H468C481 257 489 300 489 343C489 456 425 530 316 530C250 530 188 503 143 458C83 398 38 301 38 196C38 67 113 -10 243 -10C303 -10 357 2 409 25ZM358 656 411 590H469L404 708H331L209 590H274ZM216 -140 237 -52H156L135 -140Z" glyph-name="uni1EC7" horiz-adv-x="520" unicode="&#7879;" /><glyph d="M131 0 300 700H198L29 0ZM167 878V828C204 835 242 840 278 840C317 840 330 834 330 825C330 815 318 806 237 783L240 743C365 771 399 800 399 836C399 870 362 892 285 892C244 892 206 887 167 878Z" glyph-name="uni1EC8" horiz-adv-x="285" unicode="&#7880;" /><glyph d="M110 0 235 518H139L14 0ZM125 723V673C157 682 192 688 222 688C255 688 267 681 267 670C267 658 254 647 181 621L187 580C302 614 333 644 333 682C333 717 299 740 231 740C194 740 160 734 125 723Z" glyph-name="uni1EC9" horiz-adv-x="249" unicode="&#7881;" /><glyph d="M131 0 300 700H198L29 0ZM88 -137 109 -49H28L7 -137Z" glyph-name="uni1ECA" horiz-adv-x="285" unicode="&#7882;" /><glyph d="M264 623 286 712H183L162 623ZM110 0 235 518H139L14 0ZM69 -137 90 -49H9L-12 -137Z" glyph-name="uni1ECB" horiz-adv-x="249" unicode="&#7883;" /><glyph d="M333 -12C422 -12 501 25 563 87C641 165 694 300 694 435C694 608 588 712 430 712C340 712 261 675 199 613C121 535 68 400 68 265C68 92 174 -12 333 -12ZM425 625C526 625 592 554 592 437C592 328 547 203 485 141C444 100 393 75 337 75C236 75 170 146 170 263C170 372 215 497 277 559C318 600 370 625 425 625ZM312 -144 333 -56H252L231 -144Z" glyph-name="uni1ECC" horiz-adv-x="718" unicode="&#7884;" /><glyph d="M233 -12C301 -12 361 16 407 61C468 122 507 220 507 322C507 452 425 530 312 530C244 530 184 502 138 457C78 396 38 298 38 196C38 66 120 -12 233 -12ZM239 68C179 68 132 113 132 197C132 275 164 363 208 406C235 433 268 450 306 450C366 450 413 405 413 321C413 243 381 155 338 112C311 85 277 68 239 68ZM225 -140 246 -52H165L144 -140Z" glyph-name="uni1ECD" horiz-adv-x="545" unicode="&#7885;" /><glyph d="M333 -12C422 -12 501 25 563 87C641 165 694 300 694 435C694 608 588 712 430 712C340 712 261 675 199 613C121 535 68 400 68 265C68 92 174 -12 333 -12ZM425 625C526 625 592 554 592 437C592 328 547 203 485 141C444 100 393 75 337 75C236 75 170 146 170 263C170 372 215 497 277 559C318 600 370 625 425 625ZM372 885V835C409 842 447 847 483 847C522 847 535 841 535 832C535 822 523 813 442 790L445 750C570 778 604 807 604 843C604 877 567 899 490 899C449 899 411 894 372 885Z" glyph-name="uni1ECE" horiz-adv-x="718" unicode="&#7886;" /><glyph d="M233 -12C301 -12 361 16 407 61C468 122 507 220 507 322C507 452 425 530 312 530C244 530 184 502 138 457C78 396 38 298 38 196C38 66 120 -12 233 -12ZM239 68C179 68 132 113 132 197C132 275 164 363 208 406C235 433 268 450 306 450C366 450 413 405 413 321C413 243 381 155 338 112C311 85 277 68 239 68ZM264 726V676C296 685 331 691 361 691C394 691 406 684 406 673C406 661 393 650 320 624L326 583C441 617 472 647 472 685C472 720 438 743 370 743C333 743 299 737 264 726Z" glyph-name="uni1ECF" horiz-adv-x="545" unicode="&#7887;" /><glyph d="M333 -12C422 -12 501 25 563 87C641 165 694 300 694 435C694 608 588 712 430 712C340 712 261 675 199 613C121 535 68 400 68 265C68 92 174 -12 333 -12ZM425 625C526 625 592 554 592 437C592 328 547 203 485 141C444 100 393 75 337 75C236 75 170 146 170 263C170 372 215 497 277 559C318 600 370 625 425 625ZM662 840 814 926H692L586 840ZM479 801 537 756H604L530 849H443L326 756H399Z" glyph-name="uni1ED0" horiz-adv-x="718" unicode="&#7888;" /><glyph d="M233 -12C301 -12 361 16 407 61C468 122 507 220 507 322C507 452 425 530 312 530C244 530 184 502 138 457C78 396 38 298 38 196C38 66 120 -12 233 -12ZM239 68C179 68 132 113 132 197C132 275 164 363 208 406C235 433 268 450 306 450C366 450 413 405 413 321C413 243 381 155 338 112C311 85 277 68 239 68ZM527 683 679 781H565L465 683ZM360 647 417 590H475L406 697H332L211 590H275Z" glyph-name="uni1ED1" horiz-adv-x="545" unicode="&#7889;" /><glyph d="M333 -12C422 -12 501 25 563 87C641 165 694 300 694 435C694 608 588 712 430 712C340 712 261 675 199 613C121 535 68 400 68 265C68 92 174 -12 333 -12ZM425 625C526 625 592 554 592 437C592 328 547 203 485 141C444 100 393 75 337 75C236 75 170 146 170 263C170 372 215 497 277 559C318 600 370 625 425 625ZM703 840 638 926H524L635 840ZM479 801 537 756H604L530 849H443L326 756H399Z" glyph-name="uni1ED2" horiz-adv-x="718" unicode="&#7890;" /><glyph d="M233 -12C301 -12 361 16 407 61C468 122 507 220 507 322C507 452 425 530 312 530C244 530 184 502 138 457C78 396 38 298 38 196C38 66 120 -12 233 -12ZM239 68C179 68 132 113 132 197C132 275 164 363 208 406C235 433 268 450 306 450C366 450 413 405 413 321C413 243 381 155 338 112C311 85 277 68 239 68ZM507 683H562L508 781H403ZM360 647 417 590H475L406 697H332L211 590H275Z" glyph-name="uni1ED3" horiz-adv-x="545" unicode="&#7891;" /><glyph d="M333 -12C422 -12 501 25 563 87C641 165 694 300 694 435C694 608 588 712 430 712C340 712 261 675 199 613C121 535 68 400 68 265C68 92 174 -12 333 -12ZM425 625C526 625 592 554 592 437C592 328 547 203 485 141C444 100 393 75 337 75C236 75 170 146 170 263C170 372 215 497 277 559C318 600 370 625 425 625ZM556 947 555 900C582 906 612 910 638 910C666 910 676 905 676 896C676 887 663 879 605 860L609 821C705 846 734 873 736 907C737 938 707 959 647 959C614 959 585 955 556 947ZM479 801 537 756H604L530 849H443L326 756H399Z" glyph-name="uni1ED4" horiz-adv-x="718" unicode="&#7892;" /><glyph d="M233 -12C301 -12 361 16 407 61C468 122 507 220 507 322C507 452 425 530 312 530C244 530 184 502 138 457C78 396 38 298 38 196C38 66 120 -12 233 -12ZM239 68C179 68 132 113 132 197C132 275 164 363 208 406C235 433 268 450 306 450C366 450 413 405 413 321C413 243 381 155 338 112C311 85 277 68 239 68ZM441 793 442 747C466 754 492 759 514 759C540 759 549 753 549 744C549 732 536 721 480 700L487 664C580 693 608 721 608 756C608 787 579 807 526 807C497 807 469 803 441 793ZM360 647 417 590H475L406 697H332L211 590H275Z" glyph-name="uni1ED5" horiz-adv-x="545" unicode="&#7893;" /><glyph d="M333 -12C422 -12 501 25 563 87C641 165 694 300 694 435C694 608 588 712 430 712C340 712 261 675 199 613C121 535 68 400 68 265C68 92 174 -12 333 -12ZM425 625C526 625 592 554 592 437C592 328 547 203 485 141C444 100 393 75 337 75C236 75 170 146 170 263C170 372 215 497 277 559C318 600 370 625 425 625ZM405 869C429 903 442 914 456 914C468 914 477 909 503 893C531 876 543 870 561 870C591 870 616 891 653 952L614 973C590 939 577 928 563 928C551 928 542 932 516 949C488 966 476 972 458 972C427 972 403 951 365 890ZM479 798 539 756H606L529 845H443L324 756H397Z" glyph-name="uni1ED6" horiz-adv-x="718" unicode="&#7894;" /><glyph d="M233 -12C301 -12 361 16 407 61C468 122 507 220 507 322C507 452 425 530 312 530C244 530 184 502 138 457C78 396 38 298 38 196C38 66 120 -12 233 -12ZM239 68C179 68 132 113 132 197C132 275 164 363 208 406C235 433 268 450 306 450C366 450 413 405 413 321C413 243 381 155 338 112C311 85 277 68 239 68ZM291 717C314 751 327 761 341 761C352 761 361 757 384 742C411 725 423 719 441 719C470 719 494 740 531 799L492 819C468 786 456 775 442 775C431 775 422 780 398 795C372 811 359 818 342 818C312 818 289 797 252 737ZM359 642 418 590H477L404 692H331L210 590H274Z" glyph-name="uni1ED7" horiz-adv-x="545" unicode="&#7895;" /><glyph d="M333 -12C422 -12 501 25 563 87C641 165 694 300 694 435C694 608 588 712 430 712C340 712 261 675 199 613C121 535 68 400 68 265C68 92 174 -12 333 -12ZM425 625C526 625 592 554 592 437C592 328 547 203 485 141C444 100 393 75 337 75C236 75 170 146 170 263C170 372 215 497 277 559C318 600 370 625 425 625ZM481 809 535 756H602L532 857H446L328 756H401ZM312 -144 333 -56H252L231 -144Z" glyph-name="uni1ED8" horiz-adv-x="718" unicode="&#7896;" /><glyph d="M233 -12C301 -12 361 16 407 61C468 122 507 220 507 322C507 452 425 530 312 530C244 530 184 502 138 457C78 396 38 298 38 196C38 66 120 -12 233 -12ZM239 68C179 68 132 113 132 197C132 275 164 363 208 406C235 433 268 450 306 450C366 450 413 405 413 321C413 243 381 155 338 112C311 85 277 68 239 68ZM362 656 415 590H473L408 708H335L213 590H278ZM225 -140 246 -52H165L144 -140Z" glyph-name="uni1ED9" horiz-adv-x="545" unicode="&#7897;" /><glyph d="M479 757 634 854H513L396 757ZM333 -12C422 -12 501 24 563 86C641 164 694 299 694 431C694 529 658 603 599 650C720 659 775 728 775 802C775 819 773 830 769 842L696 821C698 811 699 802 698 791C695 737 649 704 558 704C520 704 488 709 442 709C343 709 262 674 199 611C121 533 68 398 68 264C68 91 174 -12 333 -12ZM425 623C526 623 592 552 592 436C592 328 547 202 485 140C444 100 393 75 337 75C236 75 170 146 170 262C170 371 215 496 277 558C318 599 370 623 425 623Z" glyph-name="uni1EDA" horiz-adv-x="718" unicode="&#7898;" /><glyph d="M348 590 502 705H394L275 590ZM234 -12C301 -12 361 15 407 61C467 121 507 219 507 320C507 389 483 442 444 476C533 492 579 550 579 616C579 631 576 642 573 653L504 634C506 624 506 617 506 606C503 559 461 523 383 523C361 523 337 525 318 525C245 525 184 498 138 452C77 392 38 295 38 194C38 66 120 -12 234 -12ZM240 68C179 68 132 113 132 196C132 273 164 359 207 402C234 429 267 447 308 447C364 447 413 403 413 319C413 242 380 155 338 112C311 85 277 68 240 68Z" glyph-name="uni1EDB" horiz-adv-x="545" unicode="&#7899;" /><glyph d="M333 -12C422 -12 501 24 563 86C641 164 694 299 694 431C694 529 658 603 599 650C720 659 775 728 775 802C775 819 773 830 769 842L696 821C698 811 699 802 698 791C695 737 649 704 558 704C520 704 488 709 442 709C343 709 262 674 199 611C121 533 68 398 68 264C68 91 174 -12 333 -12ZM425 623C526 623 592 552 592 436C592 328 547 202 485 140C444 100 393 75 337 75C236 75 170 146 170 262C170 371 215 496 277 558C318 599 370 623 425 623ZM447 756H523L449 854H328Z" glyph-name="uni1EDC" horiz-adv-x="718" unicode="&#7900;" /><glyph d="M234 -12C301 -12 361 15 407 61C467 121 507 219 507 320C507 389 483 442 444 476C533 492 579 550 579 616C579 631 576 642 573 653L504 634C506 624 506 617 506 606C503 559 461 523 383 523C361 523 337 525 318 525C245 525 184 498 138 452C77 392 38 295 38 194C38 66 120 -12 234 -12ZM240 68C179 68 132 113 132 196C132 273 164 359 207 402C234 429 267 447 308 447C364 447 413 403 413 319C413 242 380 155 338 112C311 85 277 68 240 68ZM332 590H394L330 705H216Z" glyph-name="uni1EDD" horiz-adv-x="545" unicode="&#7901;" /><glyph d="M333 -12C422 -12 501 24 563 86C641 164 694 299 694 431C694 529 658 603 599 650C720 659 775 728 775 802C775 819 773 830 769 842L696 821C698 811 699 802 698 791C695 737 649 704 558 704C520 704 488 709 442 709C343 709 262 674 199 611C121 533 68 398 68 264C68 91 174 -12 333 -12ZM425 623C526 623 592 552 592 436C592 328 547 202 485 140C444 100 393 75 337 75C236 75 170 146 170 262C170 371 215 496 277 558C318 599 370 623 425 623ZM372 885V835C409 842 447 847 483 847C522 847 535 841 535 832C535 822 523 813 442 790L445 750C570 778 604 807 604 843C604 877 567 899 490 899C449 899 411 894 372 885Z" glyph-name="uni1EDE" horiz-adv-x="718" unicode="&#7902;" /><glyph d="M260 726V676C291 685 325 691 354 691C386 691 397 684 397 673C397 661 385 650 313 624L319 584C432 618 462 648 462 685C462 720 429 743 363 743C328 743 294 737 260 726ZM234 -12C301 -12 361 15 407 61C467 121 507 219 507 320C507 389 483 442 444 476C533 492 579 550 579 616C579 631 576 642 573 653L504 634C506 624 506 617 506 606C503 559 461 523 383 523C361 523 337 525 318 525C245 525 184 498 138 452C77 392 38 295 38 194C38 66 120 -12 234 -12ZM240 68C179 68 132 113 132 196C132 273 164 359 207 402C234 429 267 447 308 447C364 447 413 403 413 319C413 242 380 155 338 112C311 85 277 68 240 68Z" glyph-name="uni1EDF" horiz-adv-x="545" unicode="&#7903;" /><glyph d="M412 802C425 802 435 798 464 780C493 761 507 754 527 754C561 754 586 776 626 841L584 864C557 825 544 814 528 814C515 814 506 818 477 836C448 855 433 862 414 862C380 862 355 840 314 776L356 753C383 791 397 802 412 802ZM333 -12C422 -12 501 24 563 86C641 164 694 299 694 431C694 529 658 603 599 650C720 659 775 728 775 802C775 819 773 830 769 842L696 821C698 811 699 802 698 791C695 737 649 704 558 704C520 704 488 709 442 709C343 709 262 674 199 611C121 533 68 398 68 264C68 91 174 -12 333 -12ZM425 623C526 623 592 552 592 436C592 328 547 202 485 140C444 100 393 75 337 75C236 75 170 146 170 262C170 371 215 496 277 558C318 599 370 623 425 623Z" glyph-name="uni1EE0" horiz-adv-x="718" unicode="&#7904;" /><glyph d="M289 637C300 637 309 632 334 614C362 595 373 588 390 588C421 588 442 611 478 678L438 699C414 660 402 648 389 648C378 648 369 653 344 671C317 691 306 697 288 697C258 697 236 675 200 607L240 586C264 625 276 637 289 637ZM234 -12C301 -12 361 15 407 61C467 121 507 219 507 320C507 389 483 442 444 476C533 492 579 550 579 616C579 631 576 642 573 653L504 634C506 624 506 617 506 606C503 559 461 523 383 523C361 523 337 525 318 525C245 525 184 498 138 452C77 392 38 295 38 194C38 66 120 -12 234 -12ZM240 68C179 68 132 113 132 196C132 273 164 359 207 402C234 429 267 447 308 447C364 447 413 403 413 319C413 242 380 155 338 112C311 85 277 68 240 68Z" glyph-name="uni1EE1" horiz-adv-x="545" unicode="&#7905;" /><glyph d="M333 -12C422 -12 501 24 563 86C641 164 694 299 694 431C694 529 658 603 599 650C720 659 775 728 775 802C775 819 773 830 769 842L696 821C698 811 699 802 698 791C695 737 649 704 558 704C520 704 488 709 442 709C343 709 262 674 199 611C121 533 68 398 68 264C68 91 174 -12 333 -12ZM425 623C526 623 592 552 592 436C592 328 547 202 485 140C444 100 393 75 337 75C236 75 170 146 170 262C170 371 215 496 277 558C318 599 370 623 425 623ZM312 -144 333 -56H252L231 -144Z" glyph-name="uni1EE2" horiz-adv-x="718" unicode="&#7906;" /><glyph d="M234 -12C301 -12 361 15 407 61C467 121 507 219 507 320C507 389 483 442 444 476C533 492 579 550 579 616C579 631 576 642 573 653L504 634C506 624 506 617 506 606C503 559 461 523 383 523C361 523 337 525 318 525C245 525 184 498 138 452C77 392 38 295 38 194C38 66 120 -12 234 -12ZM240 68C179 68 132 113 132 196C132 273 164 359 207 402C234 429 267 447 308 447C364 447 413 403 413 319C413 242 380 155 338 112C311 85 277 68 240 68ZM223 -140 244 -52H163L142 -140Z" glyph-name="uni1EE3" horiz-adv-x="545" unicode="&#7907;" /><glyph d="M612 245 719 700H618L513 256C484 140 415 77 321 77C237 77 179 126 179 212C179 235 182 263 189 289L285 700H184L91 307C81 267 77 232 77 203C77 66 174 -10 314 -10C466 -10 570 75 612 245ZM297 -144 318 -56H237L216 -144Z" glyph-name="uni1EE4" horiz-adv-x="693" unicode="&#7908;" /><glyph d="M352 0H425L550 518H455L359 119C315 93 271 76 228 76C175 76 146 104 146 152C146 166 148 182 153 200L228 518H133L56 196C50 169 46 142 46 120C46 40 97 -9 183 -9C239 -9 291 12 347 47ZM228 -140 249 -52H168L147 -140Z" glyph-name="uni1EE5" horiz-adv-x="563" unicode="&#7909;" /><glyph d="M612 245 719 700H618L513 256C484 140 415 77 321 77C237 77 179 126 179 212C179 235 182 263 189 289L285 700H184L91 307C81 267 77 232 77 203C77 66 174 -10 314 -10C466 -10 570 75 612 245ZM364 874V824C401 831 439 836 475 836C514 836 527 830 527 821C527 811 515 802 434 779L437 739C562 767 596 796 596 832C596 866 559 888 482 888C441 888 403 883 364 874Z" glyph-name="uni1EE6" horiz-adv-x="693" unicode="&#7910;" /><glyph d="M352 0H425L550 518H455L359 119C315 93 271 76 228 76C175 76 146 104 146 152C146 166 148 182 153 200L228 518H133L56 196C50 169 46 142 46 120C46 40 97 -9 183 -9C239 -9 291 12 347 47ZM275 719V669C307 678 342 684 372 684C405 684 417 677 417 666C417 654 404 643 331 617L337 576C452 610 483 640 483 678C483 713 449 736 381 736C344 736 310 730 275 719Z" glyph-name="uni1EE7" horiz-adv-x="563" unicode="&#7911;" /><glyph d="M314 -10C466 -10 570 75 612 245L708 652C807 671 855 733 855 802C855 821 853 831 849 842L776 821C778 811 779 801 778 790C775 739 731 700 633 700H618L513 256C484 140 415 77 321 77C237 77 179 126 179 212C179 235 182 263 189 289L285 700H184L91 307C81 267 77 232 77 203C77 66 174 -10 314 -10ZM478 745 644 843H513L394 745Z" glyph-name="uni1EE8" horiz-adv-x="721" unicode="&#7912;" /><glyph d="M364 584 533 699H413L295 584ZM347 47 352 0H425L539 474C628 493 673 551 673 616C673 632 671 642 667 653L598 634C600 624 601 617 600 605C597 559 556 518 464 518H455L359 119C315 93 271 76 228 76C175 76 146 104 146 152C146 166 148 182 153 200L228 518H133L56 196C50 169 46 142 46 120C46 40 97 -9 183 -9C239 -9 291 12 347 47Z" glyph-name="uni1EE9" horiz-adv-x="584" unicode="&#7913;" /><glyph d="M314 -10C466 -10 570 75 612 245L708 652C807 671 855 733 855 802C855 821 853 831 849 842L776 821C778 811 779 801 778 790C775 739 731 700 633 700H618L513 256C484 140 415 77 321 77C237 77 179 126 179 212C179 235 182 263 189 289L285 700H184L91 307C81 267 77 232 77 203C77 66 174 -10 314 -10ZM439 745H515L441 843H320Z" glyph-name="uni1EEA" horiz-adv-x="721" unicode="&#7914;" /><glyph d="M347 47 352 0H425L539 474C628 493 673 551 673 616C673 632 671 642 667 653L598 634C600 624 601 617 600 605C597 559 556 518 464 518H455L359 119C315 93 271 76 228 76C175 76 146 104 146 152C146 166 148 182 153 200L228 518H133L56 196C50 169 46 142 46 120C46 40 97 -9 183 -9C239 -9 291 12 347 47ZM343 583H405L341 698H227Z" glyph-name="uni1EEB" horiz-adv-x="584" unicode="&#7915;" /><glyph d="M314 -10C466 -10 570 75 612 245L708 652C807 671 855 733 855 802C855 821 853 831 849 842L776 821C778 811 779 801 778 790C775 739 731 700 633 700H618L513 256C484 140 415 77 321 77C237 77 179 126 179 212C179 235 182 263 189 289L285 700H184L91 307C81 267 77 232 77 203C77 66 174 -10 314 -10ZM364 874V824C401 831 439 836 475 836C514 836 527 830 527 821C527 811 515 802 434 779L437 739C562 767 596 796 596 832C596 866 559 888 482 888C441 888 403 883 364 874Z" glyph-name="uni1EEC" horiz-adv-x="721" unicode="&#7916;" /><glyph d="M347 47 352 0H425L539 474C628 493 673 551 673 616C673 632 671 642 667 653L598 634C600 624 601 617 600 605C597 559 556 518 464 518H455L359 119C315 93 271 76 228 76C175 76 146 104 146 152C146 166 148 182 153 200L228 518H133L56 196C50 169 46 142 46 120C46 40 97 -9 183 -9C239 -9 291 12 347 47ZM277 719V669C309 678 344 684 374 684C407 684 419 677 419 666C419 654 406 643 333 617L339 576C454 610 485 640 485 678C485 713 451 736 383 736C346 736 312 730 277 719Z" glyph-name="uni1EED" horiz-adv-x="584" unicode="&#7917;" /><glyph d="M314 -10C466 -10 570 75 612 245L708 652C807 671 855 733 855 802C855 821 853 831 849 842L776 821C778 811 779 801 778 790C775 739 731 700 633 700H618L513 256C484 140 415 77 321 77C237 77 179 126 179 212C179 235 182 263 189 289L285 700H184L91 307C81 267 77 232 77 203C77 66 174 -10 314 -10ZM415 795C428 795 438 791 468 773C498 754 513 747 533 747C568 747 594 769 635 833L593 856C565 818 551 807 535 807C521 807 511 811 482 829C451 848 436 855 417 855C381 855 356 833 314 768L357 745C384 784 398 795 415 795Z" glyph-name="uni1EEE" horiz-adv-x="721" unicode="&#7918;" /><glyph d="M308 634C321 634 330 629 358 611C388 591 400 585 419 585C453 585 476 607 516 675L475 696C449 657 436 645 420 645C408 645 398 650 371 668C342 688 329 694 310 694C276 694 253 672 213 605L254 583C280 622 293 634 308 634ZM347 47 352 0H425L539 474C628 493 673 551 673 616C673 632 671 642 667 653L598 634C600 624 601 617 600 605C597 559 556 518 464 518H455L359 119C315 93 271 76 228 76C175 76 146 104 146 152C146 166 148 182 153 200L228 518H133L56 196C50 169 46 142 46 120C46 40 97 -9 183 -9C239 -9 291 12 347 47Z" glyph-name="uni1EEF" horiz-adv-x="584" unicode="&#7919;" /><glyph d="M314 -10C466 -10 570 75 612 245L708 652C807 671 855 733 855 802C855 821 853 831 849 842L776 821C778 811 779 801 778 790C775 739 731 700 633 700H618L513 256C484 140 415 77 321 77C237 77 179 126 179 212C179 235 182 263 189 289L285 700H184L91 307C81 267 77 232 77 203C77 66 174 -10 314 -10ZM297 -144 318 -56H237L216 -144Z" glyph-name="uni1EF0" horiz-adv-x="721" unicode="&#7920;" /><glyph d="M347 47 352 0H425L539 474C628 493 673 551 673 616C673 632 671 642 667 653L598 634C600 624 601 617 600 605C597 559 556 518 464 518H455L359 119C315 93 271 76 228 76C175 76 146 104 146 152C146 166 148 182 153 200L228 518H133L56 196C50 169 46 142 46 120C46 40 97 -9 183 -9C239 -9 291 12 347 47ZM228 -140 249 -52H168L147 -140Z" glyph-name="uni1EF1" horiz-adv-x="584" unicode="&#7921;" /><glyph d="M304 0 369 269 724 700H605L337 362L227 700H119L268 274L202 0ZM262 -137 283 -49H202L181 -137Z" glyph-name="uni1EF4" horiz-adv-x="636" unicode="&#7924;" /><glyph d="M-24 -177C128 -148 195 -89 270 35L553 518H451L218 89L182 518H87L147 3C94 -49 44 -78 -29 -94ZM304 -176 325 -88H244L223 -176Z" glyph-name="uni1EF5" horiz-adv-x="513" unicode="&#7925;" /><glyph d="M304 0 369 269 724 700H605L337 362L227 700H119L268 274L202 0ZM331 874V824C368 831 406 836 442 836C481 836 494 830 494 821C494 811 482 802 401 779L404 739C529 767 563 796 563 832C563 866 526 888 449 888C408 888 370 883 331 874Z" glyph-name="uni1EF6" horiz-adv-x="636" unicode="&#7926;" /><glyph d="M-24 -177C128 -148 195 -89 270 35L553 518H451L218 89L182 518H87L147 3C94 -49 44 -78 -29 -94ZM251 719V669C283 678 318 684 348 684C381 684 393 677 393 666C393 654 380 643 307 617L313 576C428 610 459 640 459 678C459 713 425 736 357 736C320 736 286 730 251 719Z" glyph-name="uni1EF7" horiz-adv-x="513" unicode="&#7927;" /><glyph d="M304 0 369 269 724 700H605L337 362L227 700H119L268 274L202 0ZM381 795C394 795 404 791 434 773C464 754 479 747 499 747C534 747 560 769 601 833L559 856C531 818 517 807 501 807C487 807 477 811 448 829C417 848 402 855 383 855C347 855 322 833 280 768L323 745C350 784 364 795 381 795Z" glyph-name="uni1EF8" horiz-adv-x="636" unicode="&#7928;" /><glyph d="M-24 -177C128 -148 195 -89 270 35L553 518H451L218 89L182 518H87L147 3C94 -49 44 -78 -29 -94ZM290 634C303 634 313 629 340 611C371 591 384 585 403 585C438 585 461 607 501 675L459 696C433 657 420 645 404 645C392 645 382 650 354 668C324 688 312 694 292 694C258 694 234 672 193 605L235 583C261 622 274 634 290 634Z" glyph-name="uni1EF9" horiz-adv-x="513" unicode="&#7929;" /><glyph glyph-name="uni2002" horiz-adv-x="500" unicode="&#8194;" /><glyph glyph-name="uni2003" horiz-adv-x="1000" unicode="&#8195;" /><glyph glyph-name="uni2004" horiz-adv-x="333" unicode="&#8196;" /><glyph glyph-name="uni2005" horiz-adv-x="250" unicode="&#8197;" /><glyph glyph-name="uni2007" horiz-adv-x="564" unicode="&#8199;" /><glyph glyph-name="uni2009" horiz-adv-x="125" unicode="&#8201;" /><glyph glyph-name="uni200A" horiz-adv-x="42" unicode="&#8202;" /><glyph d="M298 263 318 347H65L45 263Z" glyph-name="uni2011" horiz-adv-x="341" unicode="&#8209;" /><glyph d="M311 318 331 402H78L58 318Z" glyph-name="uni2011.cap" horiz-adv-x="341" /><glyph d="M478 318 497 399H90L71 318Z" glyph-name="uni2012" horiz-adv-x="564" unicode="&#8210;" /><glyph d="M757 265 777 345H65L45 265Z" glyph-name="uni2015" horiz-adv-x="800" unicode="&#8213;" /><glyph d="M770 320 790 400H78L58 320Z" glyph-name="uni2015.cap" horiz-adv-x="800" /><glyph d="M139 724C131 692 128 668 128 641C128 576 152 519 202 461L237 483C221 519 213 555 213 594C213 631 219 671 232 724Z" glyph-name="uni201B" horiz-adv-x="208" unicode="&#8219;" /><glyph d="M315 724C307 690 303 666 303 638C303 574 326 519 373 461L407 482C391 520 383 555 383 596C383 630 390 670 403 724ZM144 724C136 690 133 666 133 638C133 574 156 519 203 461L237 482C221 520 213 555 213 596C213 630 219 670 232 724Z" glyph-name="uni201F" horiz-adv-x="379" unicode="&#8223;" /><glyph d="M423 117H322L294 0H395ZM141 117H40L11 0H113Z" glyph-name="uni2025" horiz-adv-x="564" unicode="&#8229;" /><glyph glyph-name="uni202F" horiz-adv-x="125" unicode="&#8239;" /><glyph d="M288 410C338 410 382 429 417 465C463 511 496 595 496 681C496 782 432 843 347 843C297 843 253 824 218 789C172 743 140 659 140 572C140 472 204 410 288 410ZM293 471C247 471 213 506 213 573C213 641 239 717 273 751C293 771 317 782 343 782C389 782 423 747 423 681C423 613 397 537 363 503C343 483 318 471 293 471Z" glyph-name="uni2070" horiz-adv-x="461" unicode="&#8304;" /><glyph d="M188 562 397 782 343 562ZM469 507 483 563H411L478 839H378L113 563L111 507H328L306 417H376L398 507Z" glyph-name="uni2074" horiz-adv-x="444" unicode="&#8308;" /><glyph d="M440 582C440 639 395 678 326 678C296 678 264 672 232 661L264 778H476L491 837H217L156 619L201 598C237 614 272 625 305 625C346 625 368 606 368 576C368 522 296 478 110 468L107 410C343 418 440 486 440 582Z" glyph-name="uni2075" horiz-adv-x="420" unicode="&#8309;" /><glyph d="M282 410C380 410 454 475 454 567C454 637 405 679 328 679C297 679 264 672 234 661C269 717 336 762 450 788L439 847C246 809 137 695 137 556C137 465 193 410 282 410ZM287 467C237 467 206 498 206 554C206 572 209 592 214 612C243 622 275 627 301 627C358 627 385 604 385 561C385 508 343 467 287 467Z" glyph-name="uni2076" horiz-adv-x="430" unicode="&#8310;" /><glyph d="M202 410 479 769 495 836H190L174 773H401L139 442Z" glyph-name="uni2077" horiz-adv-x="403" unicode="&#8311;" /><glyph d="M284 411C388 411 455 465 455 538C455 578 432 609 390 628C452 645 489 684 489 736C489 798 432 842 339 842C240 842 179 790 179 726C179 690 197 661 236 641C164 625 123 579 123 524C123 458 183 411 284 411ZM248 720C248 759 284 789 337 789C389 789 419 764 419 729C419 690 382 659 331 659C279 659 248 684 248 720ZM195 532C195 575 237 610 292 610C350 610 385 582 385 543C385 499 345 465 287 465C228 465 195 491 195 532Z" glyph-name="uni2078" horiz-adv-x="437" unicode="&#8312;" /><glyph d="M323 844C225 844 151 779 151 687C151 617 200 575 277 575C308 575 341 582 371 593C336 537 269 492 155 466L166 407C359 445 468 559 468 698C468 789 412 844 323 844ZM318 787C368 787 399 756 399 700C399 682 396 662 391 642C362 632 330 627 304 627C247 627 220 650 220 693C220 746 262 787 318 787Z" glyph-name="uni2079" horiz-adv-x="430" unicode="&#8313;" /><glyph d="M151 -163C201 -163 245 -144 280 -108C326 -62 359 22 359 108C359 209 295 270 210 270C160 270 116 251 81 216C35 170 3 86 3 -1C3 -101 67 -163 151 -163ZM156 -102C110 -102 76 -67 76 0C76 68 102 144 136 178C156 198 180 209 206 209C252 209 286 174 286 108C286 40 260 -36 226 -70C206 -90 181 -102 156 -102Z" glyph-name="uni2080" horiz-adv-x="461" unicode="&#8320;" /><glyph d="M144 -156 247 266H194L31 212L38 151L154 187L70 -156Z" glyph-name="uni2081" horiz-adv-x="338" unicode="&#8321;" /><glyph d="M269 -156 284 -95H69L216 21C293 79 325 118 325 169C325 229 273 269 199 269C137 269 78 244 30 204L57 151C102 185 145 206 186 206C225 206 249 187 249 157C249 130 227 105 180 67L-39 -106L-37 -156Z" glyph-name="uni2082" horiz-adv-x="411" unicode="&#8322;" /><glyph d="M-46 -161C198 -160 288 -107 288 -27C288 17 252 51 182 60C286 82 332 124 332 180C332 235 283 269 190 269C140 269 89 259 45 242L60 188C100 202 143 211 181 211C233 211 257 195 257 169C257 135 215 105 83 81L74 33C180 28 213 8 213 -24C213 -68 148 -101 -32 -102Z" glyph-name="uni2083" horiz-adv-x="412" unicode="&#8323;" /><glyph d="M51 -11 260 209 206 -11ZM332 -66 346 -10H274L341 266H241L-24 -10L-26 -66H191L169 -156H239L261 -66Z" glyph-name="uni2084" horiz-adv-x="444" unicode="&#8324;" /><glyph d="M303 9C303 66 258 105 189 105C159 105 127 99 95 88L127 205H339L354 264H80L19 46L64 25C100 41 135 52 168 52C209 52 231 33 231 3C231 -51 159 -95 -27 -105L-30 -163C206 -155 303 -87 303 9Z" glyph-name="uni2085" horiz-adv-x="420" unicode="&#8325;" /><glyph d="M145 -163C243 -163 317 -98 317 -6C317 64 268 106 191 106C160 106 127 99 97 88C132 144 199 189 313 215L302 274C109 236 0 122 0 -17C0 -108 56 -163 145 -163ZM150 -106C100 -106 69 -75 69 -19C69 -1 72 19 77 39C106 49 138 54 164 54C221 54 248 31 248 -12C248 -65 206 -106 150 -106Z" glyph-name="uni2086" horiz-adv-x="430" unicode="&#8326;" /><glyph d="M65 -163 342 196 358 263H53L37 200H264L2 -131Z" glyph-name="uni2087" horiz-adv-x="403" unicode="&#8327;" /><glyph d="M147 -162C251 -162 318 -108 318 -35C318 5 295 36 253 55C315 72 352 111 352 163C352 225 295 269 202 269C103 269 42 217 42 153C42 117 60 88 99 68C27 52 -14 6 -14 -49C-14 -115 46 -162 147 -162ZM111 147C111 186 147 216 200 216C252 216 282 191 282 156C282 117 245 86 194 86C142 86 111 111 111 147ZM58 -41C58 2 100 37 155 37C213 37 248 9 248 -30C248 -74 208 -108 150 -108C91 -108 58 -82 58 -41Z" glyph-name="uni2088" horiz-adv-x="437" unicode="&#8328;" /><glyph d="M186 271C88 271 14 206 14 114C14 44 63 2 140 2C171 2 204 9 234 20C199 -36 132 -81 18 -107L29 -166C222 -128 331 -14 331 125C331 216 275 271 186 271ZM181 214C231 214 262 183 262 127C262 109 259 89 254 69C225 59 193 54 167 54C110 54 83 77 83 120C83 173 125 214 181 214Z" glyph-name="uni2089" horiz-adv-x="430" unicode="&#8329;" /><glyph d="M322 473H265L289 576ZM559 285H474L431 423H592ZM381 285H221L253 423H338ZM523 131 490 235H547ZM472 0H580L636 232H718L732 288H650L681 420H763L777 476H695L749 700H657L602 473H416L343 700H231L177 476H94L80 420H163L132 288H49L35 232H118L62 0H153L210 235H396Z" glyph-name="uni20A6" horiz-adv-x="767" unicode="&#8358;" /><glyph d="M576 475H520L573 578ZM744 281H661L658 425H811ZM581 281H422L495 425H577ZM339 281H255L258 425H411ZM664 106 662 231H721ZM589 -7H697L811 228H944L958 284H839L906 422H991L1005 478H933L1041 700H936L833 475H658L653 700H548L435 475H260L264 700H164L165 478H94L80 422H166V284H47L33 228H167L168 -7H275L397 231H582ZM251 105 254 231H314Z" glyph-name="uni20A9" horiz-adv-x="994" unicode="&#8361;" /><glyph d="M311 617H408C505 617 557 576 557 494V479H278ZM233 289 266 428H547C538 398 523 371 502 351C463 312 404 289 334 289ZM212 208H324C429 208 519 240 579 301C612 334 636 376 648 425H722L736 482H657C658 489 658 496 658 503C658 634 569 700 413 700H230L177 482H95L81 425H164L61 0H163Z" glyph-name="uni20B1" horiz-adv-x="696" unicode="&#8369;" /><glyph d="M495 2 373 177C346 216 320 240 283 256C407 284 493 349 523 434H601L617 501H534V502C534 558 507 604 457 632H649L665 700H165L149 632H259C375 632 434 580 434 503V499H117L101 436H421C387 356 293 302 167 302H69L53 234H119C194 234 229 216 270 155L374 0H494Z" glyph-name="uni20B9" horiz-adv-x="612" unicode="&#8377;" /><glyph d="M158 0C383 0 521 129 564 302H503C458 177 352 92 206 92H186L231 279L465 395L481 459L246 342L271 446L507 563L522 627L286 510L332 700H231L172 458L78 412L63 349L157 394L132 290L38 245L23 181L117 227L62 0Z" glyph-name="uni20BA" horiz-adv-x="597" unicode="&#8378;" /></font>
</defs>
</svg>
