<svg xmlns="http://www.w3.org/2000/svg" xmlns:xlink="http://www.w3.org/1999/xlink" viewBox="0 0 24 23.99"><defs><style>.cls-1{fill:#b2b2b2;}.cls-2{fill:url(#New_Gradient_Swatch_4);}.cls-3{fill:url(#New_Gradient_Swatch_4-2);}.cls-4{fill:url(#New_Gradient_Swatch_4-3);}.cls-5{fill:url(#New_Gradient_Swatch_4-4);}.cls-6{fill:url(#New_Gradient_Swatch_4-5);}.cls-7{fill:url(#New_Gradient_Swatch_4-6);}.cls-8{fill:none;}</style><radialGradient id="New_Gradient_Swatch_4" cx="2.85" cy="11.57" r="1.52" gradientUnits="userSpaceOnUse"><stop offset="0" stop-color="#ff8142"/><stop offset="0.3" stop-color="#e356c4"/><stop offset="0.67" stop-color="#3993e5"/><stop offset="1" stop-color="#1ac5db"/></radialGradient><radialGradient id="New_Gradient_Swatch_4-2" cx="16.94" cy="13.98" r="1.48" xlink:href="#New_Gradient_Swatch_4"/><radialGradient id="New_Gradient_Swatch_4-3" cx="13.99" cy="9.1" r="1.64" xlink:href="#New_Gradient_Swatch_4"/><radialGradient id="New_Gradient_Swatch_4-4" cx="2.68" cy="7.05" r="1.48" xlink:href="#New_Gradient_Swatch_4"/><radialGradient id="New_Gradient_Swatch_4-5" cx="19.12" cy="11" r="2.97" xlink:href="#New_Gradient_Swatch_4"/><radialGradient id="New_Gradient_Swatch_4-6" cx="4.53" cy="13.98" r="2.47" xlink:href="#New_Gradient_Swatch_4"/></defs><title>geo_heatmap_chart_24</title><g id="Layer_2" data-name="Layer 2"><g id="Layer_2-2" data-name="Layer 2"><path class="cls-1" d="M1,6.13l.88.5V6.09H13.59l-.52.84.12.12h.72l.47-.46V7h.69l.38-.54h.66L14.93,7.65V8.79l.47.48h.16l.33-.17L16,9V7.81l.57-.51h.19V8h.43V9.11h.78l.81-.95h.88l.68-1.35H22l.41-1.2h.21v.63H23v.36L22,7.78l0,.75h.12l.14-.16-.09.23-.75.27,0,.18L21,9.24l-.14,0v1.08l-.28-.1-.16,0,.11.74,0,.35h-.37l-.32-.24-.08.19.39.76v1L18.54,14.6l0,.34,1,1.76V18l-1.08-.71L18,15.7h-.94s-.23.38-.31.31l-.22-.22-1.7,0v1h-1l-1-.46h-.16l-1.81,1.46.2.64L9.85,18.1l-1-1.56h0L8.37,17l-.87-1.51H5.45L4,14.71l-1.34,0,0-.7L2,13.61v-.26L1,11.24V6.13Z"/><circle class="cls-2" cx="2.85" cy="11.57" r="1.52"/><circle class="cls-3" cx="16.94" cy="13.98" r="1.48"/><circle class="cls-4" cx="13.99" cy="9.1" r="1.64"/><circle class="cls-5" cx="2.68" cy="7.05" r="1.48"/><circle class="cls-6" cx="19.12" cy="11" r="2.97"/><circle class="cls-7" cx="4.53" cy="13.98" r="2.47"/><rect class="cls-8" width="24" height="23.99"/></g></g></svg>