<svg xmlns="http://www.w3.org/2000/svg" viewBox="0 0 24 23.99"><defs><style>.cls-1{fill:#b2b2b2;}.cls-2{fill:#e356c4;}.cls-3{fill:#9350e5;}.cls-4{fill:#ff8142;}.cls-5{fill:#3952cc;}.cls-6{fill:#3391de;}.cls-7{fill:none;}</style></defs><title>geo_bubble_chart_24</title><g id="Layer_2" data-name="Layer 2"><g id="Layer_2-2" data-name="Layer 2"><path class="cls-1" d="M22.87,6.55c-.1-.14-.23-.26-.32-.4a1.29,1.29,0,0,1-.1-.32c-.1-.34-.22-.39-.49-.21l-.21-.12a6.71,6.71,0,0,0-.14.88.78.78,0,0,1-.54.8,6.57,6.57,0,0,1-.76.2.68.68,0,0,0-.48.37c-.07.12-.13.24-.2.37l.1.22a.64.64,0,0,1-.65.28.53.53,0,0,0-.28.08s-.09.14-.08.17c.14.19,0,.3-.1.39s-.47.35-.69.55a.5.5,0,0,1-.77,0l.25-.46a.18.18,0,0,0,0-.1,4.85,4.85,0,0,0-.14-.61c-.05-.15-.16-.16-.26,0l-.15.2-.07,0c0-.09.08-.19.13-.28a.52.52,0,0,0-.17-.69h-.09a1.09,1.09,0,0,1-.86-.38,2.47,2.47,0,0,1-.52-.14A2.42,2.42,0,0,1,14.81,7l-.37.27c-.19.14-.26.12-.37-.09l-.36.17,0-.07L14,7a1.16,1.16,0,0,1-.93-.6l0-.07a.32.32,0,0,1-.23,0,.85.85,0,0,1-.33-.07l-.3-.12A33.51,33.51,0,0,1,2.84,4.72v.69c-.06-.09-.09-.18-.16-.22S2.29,5,2,4.85c0,.17,0,.33,0,.48a4.56,4.56,0,0,1-.49,2,2.09,2.09,0,0,0-.35,1.16A.88.88,0,0,1,1,9.1a.64.64,0,0,0,0,.35c0,.12.08.27,0,.36-.16.37.17.63.14,1h0c0,.1,0,.2.07.31s0,.23,0,.27.21.2,0,.35,0,.1,0,.15.18.35.25.54a.63.63,0,0,1,0,.37c-.06.2,0,.24.16.3a.65.65,0,0,1,.33.21c.1.16.27.22.38.37a.91.91,0,0,1,.31.61c0,.14,0,.2.19.22a1.6,1.6,0,0,1,1.06.34A9.07,9.07,0,0,0,5,15.4a4.06,4.06,0,0,0,1.69.45l.05-.26a5.09,5.09,0,0,1,.54.08.62.62,0,0,1,.26.16,4.25,4.25,0,0,1,.43.49,2.79,2.79,0,0,1,.21.41,1.34,1.34,0,0,0,.19.35,4,4,0,0,0,.49.36c.06-.08.15-.14.18-.22s.13-.26.27-.25a.63.63,0,0,1,.39.11,2.69,2.69,0,0,1,.36.52l.39.65a.4.4,0,0,1,.06.14c.05.32.15.6.48.7l.43.16a.91.91,0,0,0,.2,0,2.63,2.63,0,0,1-.11-.63,1,1,0,0,1,.7-.92.84.84,0,0,0,.36-.22.66.66,0,0,1,.39-.31,1.35,1.35,0,0,1,.8,0c.09,0,.21,0,.31,0V17c.25.16.47.41.83.31a1.14,1.14,0,0,1,.45-.52.22.22,0,0,0-.08-.13c.21-.05.46-.2.58-.12s.35,0,.5,0a.82.82,0,0,1,.63.14c.05,0,.08.11.14.21a1.32,1.32,0,0,0,.4-.21c.19-.21.31-.05.43.06s.16.22.26.25a.27.27,0,0,1,.19.36c-.09.27,0,.44.15.62a4.77,4.77,0,0,0,.36.47c.07.09.11.24.19.27s.23.18.3.32a.14.14,0,0,0,.12.06c.19,0,.28-.12.3-.37a1.28,1.28,0,0,0-.14-.89,3,3,0,0,1-.25-.52c0-.09,0-.21-.09-.27a2.82,2.82,0,0,1-.42-.72,1.42,1.42,0,0,1,.31-1.45,1.19,1.19,0,0,0,.44-.61c0-.1.18-.18.28-.27l.18-.19.38-.42a1.73,1.73,0,0,1,.18-.15L20.56,13c.19-.07.32-.15.29-.37l-.05,0-.17-.06.08,0a1.41,1.41,0,0,1-.3-.86l-.06-.37.08.07a1.48,1.48,0,0,1,.06-.24v0a1.32,1.32,0,0,1,.59-1.1l0-.07.64-.48-.1-.14,0,0c.13-.1.26-.21.4-.31.3-.2,0-.29-.07-.44a.72.72,0,0,1,0-.11.86.86,0,0,1,.24-.77c.12-.11.21-.26.33-.37s.35-.28.55-.43A2.23,2.23,0,0,0,22.87,6.55Z"/><circle class="cls-2" cx="5" cy="14.15" r="2.97"/><circle class="cls-3" cx="19.08" cy="7.87" r="1.76"/><circle class="cls-4" cx="13.55" cy="17.17" r="1.22"/><circle class="cls-5" cx="18.78" cy="14.78" r="1.22"/><circle class="cls-2" cx="16.78" cy="11.22" r="1.22"/><circle class="cls-4" cx="3.28" cy="7.28" r="1.72"/><circle class="cls-6" cx="20.72" cy="11.28" r="1.72"/><rect class="cls-7" width="24" height="23.99"/></g></g></svg>