<svg xmlns="http://www.w3.org/2000/svg" viewBox="0 0 24 23.99"><defs><style>.cls-1{fill:#eb41a4;}.cls-2{fill:#ff6cd5;}.cls-3{fill:#ff94e6;}.cls-4{fill:#f9cdea;}.cls-5{fill:#ef56cb;}.cls-6{fill:#ffa1e4;}.cls-7{fill:#ffbbea;}.cls-8{fill:#ffb8e7;}.cls-9{fill:#e598cb;}.cls-10{fill:#ff92e0;}.cls-11{fill:#666665;}.cls-12{fill:none;}</style></defs><title>geo_area_chart_24</title><g id="Layer_2" data-name="Layer 2"><g id="Layer_2-2" data-name="Layer 2"><polygon class="cls-1" points="19.71 11.06 19.6 10.97 19.68 10.87 19.8 10.96 19.71 11.06"/><polygon class="cls-2" points="1.31 7.57 1.03 7.4 1.03 6.13 1.91 6.62 1.91 6.09 3.67 6.09 3.67 7.57 1.31 7.57"/><polygon class="cls-1" points="3.67 9 1.03 9 1.03 7.59 1.27 7.73 3.67 7.73 3.67 9"/><polygon class="cls-3" points="4.05 13.48 3.8 13.7 3.8 14.67 2.62 14.67 2.62 13.97 2.04 13.61 2.04 13.35 1.03 11.24 1.03 9.16 2.4 9.16 2.4 10.64 4.05 13.48"/><polygon class="cls-4" points="4.39 9.16 4.39 12.53 4.07 12.53 4.07 13.2 2.57 10.6 2.57 9.16 4.39 9.16"/><polygon class="cls-4" points="3.83 9 3.83 6.09 4.07 6.09 4.07 6.64 4.51 6.64 4.92 7.83 5.82 8.13 6.03 8.34 6.03 9 3.83 9"/><polygon class="cls-5" points="6.03 10.03 6.77 10.03 6.77 12.28 4.55 12.28 4.55 9.16 6.03 9.16 6.03 10.03"/><polygon class="cls-1" points="4.55 12.44 6.77 12.44 6.77 15.45 5.45 15.45 3.96 14.71 3.96 13.77 4.24 13.56 4.24 12.69 4.55 12.69 4.55 12.44"/><polygon class="cls-3" points="9.18 15.2 7.32 15.2 7.32 15.45 6.93 15.45 6.93 12.44 9.18 12.44 9.18 15.2"/><polygon class="cls-5" points="4.63 6.48 4.24 6.48 4.24 6.09 9.16 6.09 9.16 7.78 6.03 7.78 6.03 8.11 5.91 7.99 5.04 7.71 4.63 6.48"/><rect class="cls-6" x="6.19" y="7.94" width="2.97" height="1.93"/><rect class="cls-7" x="6.93" y="10.03" width="3.03" height="2.24"/><rect class="cls-8" x="9.32" y="6.09" width="2.14" height="1.1"/><rect class="cls-5" x="9.32" y="7.35" width="2.14" height="1.57"/><polygon class="cls-5" points="10.12 9.87 9.32 9.87 9.32 9.09 11.46 9.09 11.46 9.32 12.23 10.53 10.12 10.53 10.12 9.87"/><polygon class="cls-5" points="12.69 12.28 10.12 12.28 10.12 10.69 12.33 10.69 12.69 11.25 12.69 12.28"/><polygon class="cls-3" points="10.78 13.59 10.78 12.85 9.34 12.85 9.34 12.44 10.12 12.44 10.12 12.44 12.69 12.44 12.69 14.55 11.9 14.13 11.63 14.32 10.78 13.59"/><polygon class="cls-1" points="10.88 17.74 11.08 18.38 9.86 18.1 8.86 16.54 8.37 16.95 7.5 15.45 7.5 15.36 9.34 15.36 9.34 13.01 10.62 13.01 10.62 13.67 11.63 14.52 11.91 14.32 12.69 14.73 12.69 16.28 10.88 17.74"/><polygon class="cls-3" points="13.19 8.43 11.62 8.43 11.62 6.09 13.59 6.09 13.07 6.93 13.07 6.93 13 7.05 13 7.05 12.69 7.58 13.19 8.11 13.19 8.43"/><polygon class="cls-1" points="12.04 9.93 11.62 9.27 11.62 8.59 13.19 8.59 13.19 8.72 13.73 9.25 13.55 9.38 13.55 9.93 12.04 9.93"/><polygon class="cls-3" points="12.86 11.2 12.14 10.09 13.59 10.09 14.08 10.9 14.35 10.9 14.17 11.14 14.6 12.18 12.86 12.18 12.86 11.2"/><polygon class="cls-9" points="14.11 14.6 12.86 14.6 12.86 12.35 14.8 12.35 14.11 13.9 14.11 14.6"/><polygon class="cls-8" points="13.86 16.72 12.86 16.27 12.86 14.76 14.11 14.76 14.11 15 13.78 15.51 14.85 15.51 14.85 16.72 13.86 16.72"/><polygon class="cls-7" points="13.19 7.05 13.91 7.05 14.93 7.65 14.93 8.79 13.49 8.79 13.35 8.66 13.35 8.04 12.89 7.55 13.19 7.05"/><polygon class="cls-1" points="14.35 11.16 14.67 10.74 14.17 10.74 13.71 9.98 13.71 9.47 13.98 9.27 13.65 8.95 14.98 8.96 15.4 9.27 15.4 11.07 15.18 11.66 14.64 11.86 14.35 11.16"/><polygon class="cls-3" points="14.54 13.33 15.51 13.33 15.51 15.78 15.01 15.78 15.01 15.35 14.08 15.35 14.27 15.05 14.27 13.94 14.54 13.33"/><polygon class="cls-9" points="15 7.5 14.06 6.95 14.38 6.59 14.38 7.01 15.06 7.01 15.44 6.47 16.1 6.47 15 7.5"/><polygon class="cls-3" points="16.64 10.45 16.28 10.84 15.56 10.98 15.56 9.28 15.89 9.11 16.64 9.11 16.64 10.45"/><polygon class="cls-4" points="16.81 15.31 16.07 15.31 16.07 15.78 15.67 15.78 15.67 13.33 16.81 13.33 16.81 15.31"/><polygon class="cls-5" points="15.96 7.81 16.52 7.3 16.71 7.3 16.71 8 17.15 8 17.15 8.95 15.96 8.95 15.96 7.81"/><polygon class="cls-4" points="17.86 11.52 17.43 12.18 14.77 12.18 14.7 12.01 15.31 11.79 15.54 11.15 16.36 10.98 16.72 10.59 17.86 11.52"/><polygon class="cls-4" points="17.15 9.11 17.92 9.11 18.3 8.67 18.31 8.66 18.31 9.87 18.05 9.87 18.05 10.63 17.55 11.05 16.8 10.44 16.8 9.11 17.15 9.11 17.15 9.11"/><polygon class="cls-9" points="17.55 12.86 17.34 13.17 14.62 13.17 14.98 12.35 18.42 12.35 18.24 12.72 17.55 12.86"/><polygon class="cls-8" points="17.35 13.33 18.46 14.77 18.56 14.94 18.38 14.94 18.38 15.31 16.97 15.31 16.97 13.33 17.35 13.33"/><polygon class="cls-1" points="18.6 10.37 18.6 10.82 19.14 10.82 18.49 11.43 18.01 11.43 17.68 11.16 18.21 10.7 18.21 10.03 18.31 10.03 18.31 10.37 18.6 10.37"/><polygon class="cls-1" points="18.54 14.6 17.55 13.33 18.71 13.33 19.37 13.77 18.54 14.6"/><polygon class="cls-5" points="18.43 17.29 18.03 15.7 17.08 15.7 16.77 16.01 16.55 15.78 16.23 15.78 16.23 15.47 18.55 15.47 18.55 15.11 18.65 15.11 19.51 16.7 19.51 18 18.43 17.29"/><polygon class="cls-2" points="19.71 11.25 20.1 12.01 20.1 12.18 17.63 12.18 18.01 11.6 18.55 11.6 19.28 10.91 19.71 11.25"/><polygon class="cls-10" points="18.61 12.35 20.1 12.35 20.1 13.04 19.49 13.65 18.76 13.17 17.54 13.17 17.65 13.01 18.35 12.86 18.61 12.35"/><polygon class="cls-1" points="20.35 10.37 20.47 10.95 20.3 10.95 20.3 10.37 20.35 10.37"/><polygon class="cls-8" points="20.14 11.11 20.49 11.11 20.49 11.3 20.11 11.3 19.81 11.12 19.98 10.94 19.66 10.69 19.49 10.88 19.22 10.66 18.76 10.66 18.76 10.37 20.14 10.37 20.14 11.11"/><polygon class="cls-4" points="20.15 9.39 20.52 9.76 20.36 10.2 18.47 10.2 18.47 8.47 18.73 8.17 18.77 8.17 18.77 8.84 20.45 8.84 20.55 8.95 20.15 9.39"/><polygon class="cls-2" points="20.66 9.08 20.81 9.26 20.81 10.34 20.52 10.24 20.71 9.72 20.37 9.38 20.66 9.08"/><polygon class="cls-1" points="21.43 8.88 21 9.01 21 8.59 21.43 8.59 21.43 8.88"/><polygon class="cls-1" points="21.18 7.91 21.02 7.91 21.02 6.81 21.5 6.81 21.5 7.07 21.18 7.36 21.18 7.91"/><polygon class="cls-5" points="21.73 8.59 21.73 8.79 21.59 8.83 21.59 8.59 21.73 8.59"/><polygon class="cls-10" points="21.4 7.42 21.66 7.13 21.66 6.81 22.01 6.81 22.01 7.91 21.4 7.91 21.4 7.42"/><polygon class="cls-1" points="22.27 8.38 22.17 8.62 21.89 8.71 21.89 8.42 21.02 8.42 21.02 8.07 22.01 8.07 22.01 8.53 22.13 8.54 22.27 8.38"/><polygon class="cls-9" points="22.13 7.66 22.13 6.68 22.41 5.62 22.63 5.62 22.63 6.25 22.97 6.25 22.97 6.61 22.13 7.66"/><path class="cls-11" d="M20.64,10.95Z"/><polygon class="cls-3" points="21.47 9.06 20.95 9.24 20.53 8.67 18.93 8.67 18.93 8.17 19.62 8.17 20.3 6.81 20.86 6.81 20.86 8.9 21 9.12 21.45 9.01 21.47 9.06"/><rect class="cls-12" width="24" height="23.99"/></g></g></svg>