<svg xmlns="http://www.w3.org/2000/svg" viewBox="0 0 24 23.99"><defs><style>.cls-1,.cls-2,.cls-3,.cls-4,.cls-5,.cls-6,.cls-7,.cls-8{fill:#9350e5;}.cls-1{opacity:0.7;}.cls-2{opacity:0.5;}.cls-3{opacity:0.2;}.cls-4{opacity:0.9;}.cls-5{opacity:0.4;}.cls-7{opacity:0.8;}.cls-8{opacity:0.6;}.cls-9{fill:none;}</style></defs><title>heatmap_chart_24</title><g id="Layer_2" data-name="Layer 2"><g id="Layer_2-2" data-name="Layer 2"><rect class="cls-1" x="2" y="2.5" width="4.21" height="4"/><rect class="cls-2" x="7.26" y="2.5" width="4.21" height="4"/><rect class="cls-1" x="12.53" y="2.5" width="4.21" height="4"/><rect class="cls-3" x="17.79" y="2.5" width="4.21" height="4"/><rect class="cls-4" x="2" y="7.5" width="4.21" height="4"/><rect class="cls-1" x="7.26" y="7.5" width="4.21" height="4"/><rect class="cls-2" x="12.53" y="7.5" width="4.21" height="4"/><rect class="cls-5" x="17.79" y="7.5" width="4.21" height="4"/><rect class="cls-1" x="2" y="12.5" width="4.21" height="4"/><rect class="cls-4" x="7.26" y="12.5" width="4.21" height="4"/><rect class="cls-6" x="12.53" y="12.5" width="4.21" height="4"/><rect class="cls-7" x="17.79" y="12.5" width="4.21" height="4"/><rect class="cls-6" x="2" y="17.5" width="4.21" height="4"/><rect class="cls-8" x="7.26" y="17.5" width="4.21" height="4"/><rect class="cls-4" x="12.53" y="17.5" width="4.21" height="4"/><rect class="cls-1" x="17.79" y="17.5" width="4.21" height="4"/><rect class="cls-9" width="24" height="23.99"/></g></g></svg>