<svg xmlns="http://www.w3.org/2000/svg" viewBox="0 0 24 23.99"><defs><style>.cls-1,.cls-2,.cls-6{fill:none;}.cls-1{stroke:#e356c4;}.cls-1,.cls-2{stroke-miterlimit:10;}.cls-2{stroke:#ff8142;}.cls-3{fill:#231f20;}.cls-4{fill:#ff8142;}.cls-5{fill:#e356c4;}</style></defs><title>line_chart_24</title><g id="Layer_2" data-name="Layer 2"><g id="Layer_2-2" data-name="Layer 2"><polyline class="cls-1" points="4.48 19.74 8.26 11.47 12.26 16.03 16.24 8.47 20.18 12.09"/><polyline class="cls-2" points="4.26 11.03 8.03 4.19 12.26 8.47 16.23 3.97 20.26 7.03"/><polygon class="cls-3" points="23 23 1 23 1 1 2 1 2 22 23 22 23 23"/><circle class="cls-4" cx="4.26" cy="11.12" r="1.5"/><circle class="cls-4" cx="8.06" cy="3.94" r="1.5"/><circle class="cls-4" cx="12.26" cy="8.64" r="1.5"/><circle class="cls-4" cx="16.24" cy="3.94" r="1.5"/><circle class="cls-4" cx="20.23" cy="7.03" r="1.5"/><circle class="cls-5" cx="4.48" cy="19.74" r="1.5"/><circle class="cls-5" cx="12.26" cy="16.26" r="1.5"/><circle class="cls-5" cx="16.24" cy="8.64" r="1.5"/><circle class="cls-5" cx="20.26" cy="12.14" r="1.5"/><circle class="cls-5" cx="8.26" cy="11.12" r="1.5"/><rect class="cls-6" width="24" height="23.99"/></g></g></svg>