<svg xmlns="http://www.w3.org/2000/svg" viewBox="0 0 24 23.99"><defs><style>.cls-1,.cls-6{fill:none;}.cls-1{stroke:#61c767;stroke-miterlimit:10;stroke-width:2px;}.cls-2{fill:#9350e5;}.cls-3{fill:#3952cc;}.cls-4{fill:#3295e6;}.cls-5{fill:#1ac5db;}</style></defs><title>stacked_column_line_chart</title><g id="Layer_2" data-name="Layer 2"><g id="Layer_2-2" data-name="Layer 2"><rect x="1" y="22" width="22" height="1" transform="translate(24 45) rotate(-180)"/><polyline class="cls-1" points="3 7.07 9 4 14.94 3.06 21 5.04"/><rect class="cls-2" x="2.23" y="18.23" width="1.54" height="4" transform="translate(-17.23 23.23) rotate(-90)"/><rect class="cls-2" x="7" y="17" width="4" height="4" transform="translate(-10 28) rotate(-90)"/><rect class="cls-2" x="12.5" y="16.5" width="5" height="4" transform="translate(-3.5 33.5) rotate(-90)"/><rect class="cls-2" x="19" y="17" width="4" height="4" transform="translate(2 40) rotate(-90)"/><rect class="cls-3" x="2" y="16.75" width="2" height="4" transform="translate(-15.75 21.75) rotate(-90)"/><rect class="cls-4" x="2" y="15" width="2" height="4" transform="translate(-14 20) rotate(-90)"/><rect class="cls-4" x="7.44" y="12.28" width="3.12" height="4" transform="translate(-5.27 23.27) rotate(-90)"/><rect class="cls-4" x="13.13" y="8.9" width="3.75" height="4" transform="translate(4.11 25.89) rotate(-90)"/><rect class="cls-4" x="19" y="9.96" width="4" height="4" transform="translate(9.05 32.96) rotate(-90)"/><rect class="cls-5" x="19.38" y="6.32" width="3.23" height="4" transform="translate(12.68 29.32) rotate(-90)"/><rect class="cls-5" x="13.13" y="5.15" width="3.75" height="4" transform="translate(7.86 22.14) rotate(-90)"/><rect class="cls-5" x="6.51" y="8.23" width="4.97" height="4" transform="translate(-1.23 19.23) rotate(-90)"/><rect class="cls-5" x="2.22" y="13.34" width="1.57" height="4" transform="translate(-12.34 18.34) rotate(-90)"/><rect class="cls-3" x="7.5" y="14.88" width="3" height="4" transform="translate(-7.88 25.88) rotate(-90)"/><rect class="cls-3" x="13" y="12.71" width="4" height="4" transform="translate(0.29 29.71) rotate(-90)"/><rect class="cls-3" x="19.45" y="13.46" width="3.11" height="4" transform="translate(5.54 36.46) rotate(-90)"/><rect class="cls-6" width="24" height="23.99"/></g></g></svg>