<svg xmlns="http://www.w3.org/2000/svg" viewBox="0 0 24 23.99"><defs><style>.cls-1{fill:#969696;}.cls-2{fill:none;}</style></defs><title>lock_open_icon_24_1</title><g id="Layer_2" data-name="Layer 2"><g id="Layer_2-2" data-name="Layer 2"><path class="cls-1" d="M12 7.86a7 7 0 0 0-3.43.93 3.53 3.53 0 0 1 5.28-4.55 2.85 2.85 0 0 0 .28.21c.16.16.39.35.66.58L15.71 4l-1-.81a4.93 4.93 0 0 0-7.3 6.4A7 7 0 1 0 12 7.86zm1.42 9.91h-2.84l.75-2.58a1.62 1.62 0 1 1 1.34 0z"/><path class="cls-2" d="M0 0h24v23.99H0z"/></g></g></svg>