<svg xmlns="http://www.w3.org/2000/svg" viewBox="0 0 24 23.99"><defs><style>.cls-1{fill:#9350e5;}.cls-1,.cls-2,.cls-3,.cls-4{fill-rule:evenodd;}.cls-2{fill:#6178e8;}.cls-3{fill:#3952cc;}.cls-4{fill:#b282fa;}.cls-5{fill:none;}</style></defs><title>donut_chart_24</title><g id="Layer_2" data-name="Layer 2"><g id="Layer_2-2" data-name="Layer 2"><path class="cls-1" d="M11.5,6V1A11,11,0,0,0,1,11.5c0,.16,0,.33,0,.5s0,.33,0,.5a10.93,10.93,0,0,0,2.87,6.91,7.93,7.93,0,0,0,.71.71A10.9,10.9,0,0,0,11.5,23V18a5.85,5.85,0,0,1-3.36-1.41,4.76,4.76,0,0,1-.72-.7A6,6,0,0,1,6,12.5c0-.17,0-.33,0-.5a4.07,4.07,0,0,1,0-.5A6,6,0,0,1,11.5,6Z"/><path class="cls-2" d="M12.5,1V6a5.85,5.85,0,0,1,3.36,1.41l3.55-3.55A10.9,10.9,0,0,0,12.5,1Z"/><path class="cls-3" d="M20.12,4.59,16.58,8.13A6,6,0,0,1,18,11.5h5A10.9,10.9,0,0,0,20.12,4.59Z"/><path class="cls-4" d="M18,12.5A6,6,0,0,1,12.5,18v5A11,11,0,0,0,23,12.5Z"/><rect class="cls-5" width="24" height="23.99"/></g></g></svg>