<svg xmlns="http://www.w3.org/2000/svg" viewBox="0 0 24 23.99"><defs><style>.cls-1{fill:#333;}.cls-2{fill:#7f7f7f;}.cls-3{fill:#666;}.cls-4{fill:none;}</style></defs><title>pivot_table_icon_24</title><g id="Layer_2" data-name="Layer 2"><g id="Layer_2-2" data-name="Layer 2"><path class="cls-1" d="M2 2h4v4H2z"/><path class="cls-2" d="M2 7h4v14H2z"/><path class="cls-3" d="M7.04 2H21v4H7.04z"/><path class="cls-1" d="M21.35 10.64L19 8.35l-2.34 2.29.7.71 1.14-1.11v.81a7.46 7.46 0 0 1-7.45 7.46h-.85l1.13-1.16-.71-.7L8.34 19l2.29 2.34.71-.7-1.1-1.12h.8a8.47 8.47 0 0 0 8.46-8.46v-.81l1.14 1.11z"/><path class="cls-4" d="M0 0h24v23.99H0z"/></g></g></svg>