<svg xmlns="http://www.w3.org/2000/svg" xmlns:xlink="http://www.w3.org/1999/xlink" version="1.1" x="0px" y="0px" viewBox="0 0 100 125" enable-background="new 0 0 100 100" xml:space="preserve">
    <path d="M50,5C25.147,5,5,25.147,5,50c0,24.854,20.147,45,45,45c24.854,0,45-20.146,45-45C95,25.147,74.854,5,50,5z M70.014,38.138  c-6.887,0.014-14.132-0.063-20.512,0.106c12.466,3.468,20.3,11.212,20.512,25.991c1.319,0.314,3.435-0.104,4.752,0.214  c-0.054,0.913-1.021,1.424-1.623,1.927c-3.705,3.111-7.543,6.238-11.473,9.521c-0.585,0.485-1.633,1.367-2.086,1.39  c-0.891,0.044-3.561-2.374-4.172-2.886c-3.278-2.748-7.16-5.285-10.436-8.023c-0.576-0.48-1.588-0.932-1.623-1.816  c1.01-0.494,3.824-0.076,5.22-0.217c0.077-1.878-0.417-3.613-1.159-4.814c-3.329-5.379-15.144-3.092-23.292-3.529  c-0.193-7.843-0.192-16.436,0-24.28c15.026-0.25,30.556-0.037,45.774-0.108c0.269-0.288,0.041-1.848,0.115-2.313  c-0.004-0.184,0.088-0.277,0.233-0.322c0.739,0.614,1.983,1.905,2.849,2.858c0.398,0.441,1.268,1.245,1.766,1.71  c0.334,0.309,1.127,1.034,1.16,1.283c0.097,0.773-2.164,2.832-2.653,3.333c-0.5,0.511-1.071,1.007-1.507,1.446  c-0.397,0.402-0.873,1.088-1.623,1.068C69.723,40.474,70.148,38.688,70.014,38.138z"/>
</svg>
