<svg xmlns="http://www.w3.org/2000/svg" viewBox="0 0 24 23.99"><defs><style>.cls-1{fill:#3952cc;}.cls-2{fill:#3295e6;}.cls-3{fill:#1ac5db;}.cls-4{fill:#46c27c;}.cls-5{fill:none;}</style></defs><title>stacked_column_24</title><g id="Layer_2" data-name="Layer 2"><g id="Layer_2-2" data-name="Layer 2"><rect class="cls-1" x="1" y="17.22" width="4" height="4" transform="translate(-16.22 22.22) rotate(-90)"/><rect class="cls-1" x="6.5" y="16.73" width="5" height="4" transform="translate(-9.73 27.73) rotate(-90)"/><rect class="cls-1" x="11" y="15.22" width="8" height="4" transform="translate(-2.22 32.22) rotate(-90)"/><rect class="cls-1" x="19" y="17.22" width="4" height="4" transform="translate(1.78 40.22) rotate(-90)"/><rect class="cls-2" x="1.13" y="14.09" width="3.75" height="4" transform="translate(-13.09 19.09) rotate(-90)"/><rect class="cls-3" x="1" y="10.22" width="4" height="4" transform="translate(-9.22 15.22) rotate(-90)"/><rect class="cls-3" x="7.44" y="8.78" width="3.12" height="4" transform="translate(-1.78 19.78) rotate(-90)"/><rect class="cls-3" x="13.13" y="5.4" width="3.75" height="4" transform="translate(7.6 22.4) rotate(-90)"/><rect class="cls-3" x="19.13" y="9.34" width="3.75" height="4" transform="translate(9.66 32.34) rotate(-90)"/><rect class="cls-4" x="19.38" y="5.83" width="3.23" height="4" transform="translate(13.17 28.83) rotate(-90)"/><rect class="cls-4" x="13.13" y="1.65" width="3.75" height="4" transform="translate(11.35 18.65) rotate(-90)"/><rect class="cls-4" x="6.51" y="4.73" width="4.97" height="4" transform="translate(2.27 15.73) rotate(-90)"/><rect class="cls-4" x="1.49" y="6.71" width="3.02" height="4" transform="translate(-5.71 11.71) rotate(-90)"/><rect class="cls-2" x="6.86" y="12.39" width="4.28" height="4" transform="translate(-5.38 23.38) rotate(-90)"/><rect class="cls-2" x="13" y="9.22" width="4" height="4" transform="translate(3.78 26.22) rotate(-90)"/><rect class="cls-2" x="18.85" y="13.37" width="4.31" height="4" transform="translate(5.63 36.37) rotate(-90)"/><rect x="1" y="22.22" width="22" height="1"/><rect class="cls-5" width="24" height="23.99"/></g></g></svg>