<svg xmlns="http://www.w3.org/2000/svg" viewBox="0 0 24 23.99"><defs><style>.cls-1{fill:#3952cc;}.cls-2{fill:#3295e6;}.cls-3{fill:#1ac5db;}.cls-4{fill:#46c27c;}.cls-5{fill:none;}</style></defs><title>stacked_bar_chart_24</title><g id="Layer_2" data-name="Layer 2"><g id="Layer_2-2" data-name="Layer 2"><rect class="cls-1" x="3.28" y="1" width="4" height="4"/><rect class="cls-1" x="3.27" y="7" width="5" height="4"/><rect class="cls-1" x="3.28" y="13" width="8" height="4"/><rect class="cls-1" x="3.28" y="19" width="4" height="4"/><rect class="cls-2" x="6.53" y="1" width="3.75" height="4"/><rect class="cls-3" x="10.28" y="1" width="4" height="4"/><rect class="cls-3" x="12.15" y="7" width="3.12" height="4"/><rect class="cls-3" x="15.22" y="13" width="3.75" height="4"/><rect class="cls-3" x="11.28" y="19" width="3.75" height="4"/><rect class="cls-4" x="15.05" y="19" width="3.23" height="4"/><rect class="cls-4" x="18.97" y="13" width="3.75" height="4"/><rect class="cls-4" x="15.28" y="7" width="4.97" height="4"/><rect class="cls-4" x="14.28" y="1" width="3.02" height="4"/><rect class="cls-2" x="7.97" y="7" width="4.28" height="4"/><rect class="cls-2" x="11.28" y="13" width="4" height="4"/><rect class="cls-2" x="6.97" y="19" width="4.31" height="4"/><rect x="-9.22" y="11.5" width="22" height="1" transform="translate(13.78 10.22) rotate(90)"/><rect class="cls-5" width="24" height="23.99"/></g></g></svg>