<svg xmlns="http://www.w3.org/2000/svg" viewBox="0 0 24 23.99"><defs><style>.cls-1{fill:#3295e6;}.cls-2{fill:#3952cc;}.cls-3{fill:#9350e5;}.cls-4{fill:#e356c4;}.cls-5{fill:none;}</style></defs><title>stacked_area_24_1</title><g id="Layer_2" data-name="Layer 2"><g id="Layer_2-2" data-name="Layer 2"><rect x="1" y="22" width="22" height="1"/><polyline class="cls-1" points="1.01 20.98 22.98 20.98 22.98 5.94 19.06 2.02 15.02 3.94 11.04 2.94 7.04 10.99 2.99 11.94"/><polyline class="cls-2" points="1.01 20.98 22.98 20.98 22.98 10.03 19.06 7.17 15.02 6.57 11.04 7.85 7.04 13.71 2.99 14.4"/><polyline class="cls-3" points="1.01 20.98 22.98 20.98 22.98 12.04 19.06 11.23 15.02 12.86 11.04 11.66 7.04 16.38 2.99 16.81"/><polyline class="cls-4" points="1.01 20.98 22.98 20.98 22.98 15.11 19.06 15.21 15.02 17.1 11.04 16.45 7.04 18.47 2.99 18.71"/><rect class="cls-5" width="24" height="23.99"/></g></g></svg>