<?xml version="1.0" encoding="UTF-8"?>
<svg width="12px" height="12px" viewBox="0 0 12 12" version="1.1" xmlns="http://www.w3.org/2000/svg" xmlns:xlink="http://www.w3.org/1999/xlink">
    <!-- Generator: Sketch 42 (36781) - http://www.bohemiancoding.com/sketch -->
    <title>Group</title>
    <desc>Created with Sketch.</desc>
    <defs></defs>
    <g id="Page-1" stroke="none" stroke-width="1" fill="none" fill-rule="evenodd">
        <g id="New-Embedded" transform="translate(-589.000000, -650.000000)" fill-rule="nonzero">
            <g id="Embedded-Logo" transform="translate(589.000000, 650.000000)">
                <g id="Group">
                    <path d="M11.6819071,5.9757085 C11.6819071,9.27449393 9.07009863,11.951417 5.84095357,11.951417 C2.61655725,11.951417 0,9.27935223 0,5.9757085 C0,2.67692308 2.61180851,0 5.84095357,0 C9.06534989,-5.60954791e-16 11.6819071,2.67692308 11.6819071,5.9757085" id="Shape" fill="#7B7979"></path>
                    <g id="Group-2" transform="translate(1.972603, 3.450012)" fill="#FFFFFF">
                        <path d="M6.82206881,2.22445353 L5.17425508,2.22445353 C5.03654154,2.22445353 4.92732046,2.36552641 4.92732046,2.54340091 C4.92732046,2.72127541 5.03654154,2.86234829 5.17425508,2.86234829 L6.82206881,2.86234829 C6.99777229,2.86234829 7.14498332,3.04635639 7.14498332,3.27943332 C7.14498332,3.51251025 6.99777229,3.69651836 6.82206881,3.69651836 L0.506240969,3.69651836 C0.36852743,3.69651836 0.259306347,3.83759124 0.259306347,4.01546574 C0.259306347,4.19334024 0.36852743,4.33441312 0.506240969,4.33441312 L6.82206881,4.33441312 C7.27319937,4.33441312 7.63410382,3.86212565 7.63410382,3.28556693 C7.63410382,2.69674099 7.26845063,2.22445353 6.82206881,2.22445353" id="Shape"></path>
                        <path d="M0.990612728,2.86234829 L2.78088874,2.86234829 C2.91860228,2.86234829 3.02782336,2.72127541 3.02782336,2.54340091 C3.02782336,2.36552641 2.91860228,2.22445353 2.78088874,2.22445353 L0.990612728,2.22445353 C0.810160504,2.22445353 0.667698222,2.03431182 0.667698222,1.80736849 C0.667698222,1.57429156 0.810160504,1.39028345 0.990612728,1.39028345 L3.73063729,1.39028345 L3.73063729,2.59246973 C3.73063729,2.77034423 3.83985837,2.91141711 3.97757191,2.91141711 C4.11528545,2.91141711 4.22450653,2.77034423 4.22450653,2.59246973 L4.22450653,1.39028345 L7.39191794,1.39028345 C7.52963148,1.39028345 7.63885256,1.24921057 7.63885256,1.07133607 C7.63885256,0.893461572 7.52963148,0.752388692 7.39191794,0.752388692 L0.990612728,0.752388692 C0.539482168,0.752388692 0.17857772,1.22467616 0.17857772,1.80123489 C0.17857772,2.39006082 0.544230911,2.86234829 0.990612728,2.86234829" id="Shape"></path>
                    </g>
                </g>
            </g>
        </g>
    </g>
</svg>