<?xml version="1.0" standalone="no"?><!DOCTYPE svg PUBLIC "-//W3C//DTD SVG 1.1//EN" "http://www.w3.org/Graphics/SVG/1.1/DTD/svg11.dtd" ><svg version="1.1" xmlns="http://www.w3.org/2000/svg"><defs><font horiz-adv-x="0" id="font"><font-face ascent="800" bbox="-181 -240 980 972" cap-height="700" descent="-200" font-family="Retina" font-stretch="normal" font-style="normal" font-weight="300" units-per-em="1000" x-height="511" /><missing-glyph d="M100 -240H600V960H100ZM192 910H507L350 429ZM321 360 150 -154V874ZM378 360 550 874V-154ZM350 291 507 -190H192Z" horiz-adv-x="700" /><glyph d="M508 225H182L345 652ZM594 0H648L371 711H321L44 0H96L165 181H525Z" glyph-name="A" horiz-adv-x="691" unicode="A" /><glyph d="M514 225H222L492 657H514ZM514 0H961V45H564V337H914V382H564V655H956V700H465L25 0H82L195 181H514Z" glyph-name="AE" horiz-adv-x="1023" unicode="&#198;" /><glyph d="M514 225H222L492 657H514ZM514 0H961V45H564V337H914V382H564V655H956V700H465L25 0H82L195 181H514ZM599 756 733 852H658L552 756Z" glyph-name="AEacute" horiz-adv-x="1023" unicode="&#508;" /><glyph d="M508 225H182L345 652ZM594 0H648L371 711H321L44 0H96L165 181H525ZM345 763 479 859H404L298 763Z" glyph-name="Aacute" horiz-adv-x="691" unicode="&#193;" /><glyph d="M508 225H182L345 652ZM594 0H648L371 711H321L44 0H96L165 181H525ZM345 799C306 799 282 822 273 862H237C244 800 286 761 345 761C404 761 446 800 453 862H417C408 822 384 799 345 799Z" glyph-name="Abreve" horiz-adv-x="691" unicode="&#258;" /><glyph d="M508 225H182L345 652ZM594 0H648L371 711H321L44 0H96L165 181H525ZM345 823 418 763H461L369 860H321L229 763H272Z" glyph-name="Acircumflex" horiz-adv-x="691" unicode="&#194;" /><glyph d="M508 225H182L345 652ZM594 0H648L371 711H321L44 0H96L165 181H525ZM295 763V831H245V763ZM445 763V831H395V763Z" glyph-name="Adieresis" horiz-adv-x="691" unicode="&#196;" /><glyph d="M508 225H182L345 652ZM594 0H648L371 711H321L44 0H96L165 181H525ZM345 763H392L286 859H211Z" glyph-name="Agrave" horiz-adv-x="691" unicode="&#192;" /><glyph d="M508 225H182L345 652ZM594 0H648L371 711H321L44 0H96L165 181H525ZM477 769V806H213V769Z" glyph-name="Amacron" horiz-adv-x="691" unicode="&#256;" /><glyph d="M508 225H182L345 652ZM664 -113C606 -108 592 -99 592 -82C592 -69 601 -51 638 0H648L371 711H321L44 0H96L165 181H525L594 0H601C559 -48 545 -71 545 -91C545 -123 572 -140 660 -145Z" glyph-name="Aogonek" horiz-adv-x="691" unicode="&#260;" /><glyph d="M279 767C279 802 306 831 346 831C386 831 413 802 413 767C413 731 386 702 346 702C306 702 279 731 279 767ZM508 225H182L345 652ZM594 0H648L382 683C419 696 443 730 443 767C443 816 404 857 347 857C290 857 249 816 249 767C249 729 273 696 309 682L44 0H96L165 181H525Z" glyph-name="Aring" horiz-adv-x="691" unicode="&#197;" /><glyph d="M351 889 464 963H391L304 889ZM279 767C279 802 306 831 346 831C386 831 413 802 413 767C413 731 386 702 346 702C306 702 279 731 279 767ZM508 225H182L345 652ZM594 0H648L382 683C419 696 443 730 443 767C443 816 404 857 347 857C290 857 249 816 249 767C249 729 273 696 309 682L44 0H96L165 181H525Z" glyph-name="Aringacute" horiz-adv-x="691" unicode="&#506;" /><glyph d="M508 225H182L345 652ZM594 0H648L371 711H321L44 0H96L165 181H525ZM247 761C266 803 276 812 290 812C302 812 311 808 341 789C374 769 388 762 406 762C439 762 458 785 481 841L449 852C430 811 420 801 407 801C394 801 385 806 355 824C322 845 308 851 291 851C257 851 239 829 215 773Z" glyph-name="Atilde" horiz-adv-x="691" unicode="&#195;" /><glyph d="M356 0C488 0 587 65 587 185C587 291 509 342 396 363C481 386 562 438 562 541C562 635 489 700 352 700H106V0ZM156 384V656H349C457 656 512 607 512 536C512 439 419 384 298 384ZM156 44V340H298C446 340 537 281 537 187C537 97 461 44 358 44Z" glyph-name="B" horiz-adv-x="647" unicode="B" /><glyph d="M565 35 550 77C496 50 442 36 388 36C223 36 115 167 115 351C115 529 226 664 384 664C441 664 497 649 545 626L560 670C507 695 447 709 384 709C197 709 65 558 65 349C65 137 193 -9 384 -9C446 -9 507 5 565 35Z" glyph-name="C" horiz-adv-x="614" unicode="C" /><glyph d="M565 35 550 77C496 50 442 36 388 36C223 36 115 167 115 351C115 529 226 664 384 664C441 664 497 649 545 626L560 670C507 695 447 709 384 709C197 709 65 558 65 349C65 137 193 -9 384 -9C446 -9 507 5 565 35ZM368 763 502 859H427L321 763Z" glyph-name="Cacute" horiz-adv-x="614" unicode="&#262;" /><glyph d="M565 35 550 77C496 50 442 36 388 36C223 36 115 167 115 351C115 529 226 664 384 664C441 664 497 649 545 626L560 670C507 695 447 709 384 709C197 709 65 558 65 349C65 137 193 -9 384 -9C446 -9 507 5 565 35ZM368 800 295 860H252L344 763H392L484 860H441Z" glyph-name="Ccaron" horiz-adv-x="614" unicode="&#268;" /><glyph d="M427 -81C427 -53 402 -37 355 -37L375 -9H384C446 -9 507 5 565 35L550 77C496 50 442 36 388 36C223 36 115 167 115 351C115 529 226 664 384 664C441 664 497 649 545 626L560 670C507 695 447 709 384 709C197 709 65 558 65 349C65 154 173 15 339 -6L311 -51L321 -64C364 -60 382 -68 382 -84C382 -101 359 -113 287 -120L291 -147C391 -140 427 -116 427 -81Z" glyph-name="Ccedilla" horiz-adv-x="614" unicode="&#199;" /><glyph d="M565 35 550 77C496 50 442 36 388 36C223 36 115 167 115 351C115 529 226 664 384 664C441 664 497 649 545 626L560 670C507 695 447 709 384 709C197 709 65 558 65 349C65 137 193 -9 384 -9C446 -9 507 5 565 35ZM368 823 441 763H484L392 860H344L252 763H295Z" glyph-name="Ccircumflex" horiz-adv-x="614" unicode="&#264;" /><glyph d="M565 35 550 77C496 50 442 36 388 36C223 36 115 167 115 351C115 529 226 664 384 664C441 664 497 649 545 626L560 670C507 695 447 709 384 709C197 709 65 558 65 349C65 137 193 -9 384 -9C446 -9 507 5 565 35ZM393 763V831H343V763Z" glyph-name="Cdotaccent" horiz-adv-x="614" unicode="&#266;" /><glyph d="M624 351C624 579 481 700 279 700H106V0H278C480 0 624 122 624 351ZM156 44V656H279C455 656 574 542 574 349C574 154 454 44 282 44Z" glyph-name="D" horiz-adv-x="689" unicode="D" /><glyph d="M624 351C624 579 481 700 279 700H106V0H278C480 0 624 122 624 351ZM156 44V656H279C455 656 574 542 574 349C574 154 454 44 282 44ZM339 793 266 853H223L315 756H363L455 853H412Z" glyph-name="Dcaron" horiz-adv-x="689" unicode="&#270;" /><glyph d="M165 44V340H356V379H165V656H289C465 656 584 542 584 349C584 154 464 44 292 44ZM288 0C490 0 634 122 634 351C634 579 491 700 289 700H116V380H31V339H116V0Z" glyph-name="Dcroat" horiz-adv-x="699" unicode="&#272;" /><glyph d="M554 0V45H156V337H507V382H156V655H549V700H106V0Z" glyph-name="E" horiz-adv-x="616" unicode="E" /><glyph d="M554 0V45H156V337H507V382H156V655H549V700H106V0ZM336 756 470 852H395L289 756Z" glyph-name="Eacute" horiz-adv-x="616" unicode="&#201;" /><glyph d="M554 0V45H156V337H507V382H156V655H549V700H106V0ZM336 792C297 792 273 815 264 855H228C235 793 277 754 336 754C395 754 437 793 444 855H408C399 815 375 792 336 792Z" glyph-name="Ebreve" horiz-adv-x="616" unicode="&#276;" /><glyph d="M554 0V45H156V337H507V382H156V655H549V700H106V0ZM336 793 263 853H220L312 756H360L452 853H409Z" glyph-name="Ecaron" horiz-adv-x="616" unicode="&#282;" /><glyph d="M554 0V45H156V337H507V382H156V655H549V700H106V0ZM336 816 409 756H452L360 853H312L220 756H263Z" glyph-name="Ecircumflex" horiz-adv-x="616" unicode="&#202;" /><glyph d="M554 0V45H156V337H507V382H156V655H549V700H106V0ZM286 756V824H236V756ZM436 756V824H386V756Z" glyph-name="Edieresis" horiz-adv-x="616" unicode="&#203;" /><glyph d="M554 0V45H156V337H507V382H156V655H549V700H106V0ZM361 756V824H311V756Z" glyph-name="Edotaccent" horiz-adv-x="616" unicode="&#278;" /><glyph d="M554 0V45H156V337H507V382H156V655H549V700H106V0ZM336 756H383L277 852H202Z" glyph-name="Egrave" horiz-adv-x="616" unicode="&#200;" /><glyph d="M554 0V45H156V337H507V382H156V655H549V700H106V0ZM468 762V799H204V762Z" glyph-name="Emacron" horiz-adv-x="616" unicode="&#274;" /><glyph d="M455 -178C550 -178 611 -117 611 1V700H563V84L161 700H106V0H154V623L563 0C563 -82 523 -133 452 -133C422 -133 392 -127 365 -116V-162C392 -172 423 -178 455 -178Z" glyph-name="Eng" horiz-adv-x="717" unicode="&#330;" /><glyph d="M552 -113C494 -108 480 -99 480 -82C480 -69 489 -51 526 0H554V45H156V337H507V382H156V655H549V700H106V0H489C447 -48 433 -71 433 -91C433 -123 460 -140 548 -145Z" glyph-name="Eogonek" horiz-adv-x="616" unicode="&#280;" /><glyph d="M165 44V340H356V379H165V656H289C465 656 584 542 584 349C584 154 464 44 292 44ZM288 0C490 0 634 122 634 351C634 579 491 700 289 700H116V380H31V339H116V0Z" glyph-name="Eth" horiz-adv-x="699" unicode="&#208;" /><glyph d="M528 15 517 58C486 47 440 38 401 38C282 38 199 110 173 250H465V286H167C165 306 164 328 164 351C164 372 165 391 167 410H465V447H172C197 589 280 662 402 662C445 662 487 652 517 642L528 686C493 698 450 707 402 707C254 707 151 614 123 447H38V410H118C116 391 115 371 115 350C115 328 116 306 118 286H38V250H123C151 83 252 -7 401 -7C447 -7 494 3 528 15Z" glyph-name="Euro" horiz-adv-x="587" unicode="&#8364;" /><glyph d="M513 15 501 59C466 45 429 38 392 38C278 38 197 110 172 250H450V286H167C165 306 164 328 164 351C164 372 165 391 167 410H450V447H172C196 588 277 662 392 662C430 662 467 655 502 643L513 686C475 700 436 707 392 707C251 707 150 615 122 447H38V410H118C116 391 115 371 115 350C115 328 116 306 118 286H38V250H123C150 82 248 -7 391 -7C433 -7 476 1 513 15Z" glyph-name="Euro.tab" horiz-adv-x="564" /><glyph d="M156 0V313H455V358H156V655H549V700H106V0Z" glyph-name="F" horiz-adv-x="580" unicode="F" /><glyph d="M607 51V355H358V311H559V78C516 54 453 35 387 35C219 35 115 165 115 350C115 526 220 664 385 664C458 664 515 643 569 617L588 661C531 689 464 710 388 710C194 710 65 558 65 349C65 130 193 -9 385 -9C470 -9 545 15 607 51Z" glyph-name="G" horiz-adv-x="700" unicode="G" /><glyph d="M607 51V355H358V311H559V78C516 54 453 35 387 35C219 35 115 165 115 350C115 526 220 664 385 664C458 664 515 643 569 617L588 661C531 689 464 710 388 710C194 710 65 558 65 349C65 130 193 -9 385 -9C470 -9 545 15 607 51ZM372 799C333 799 309 822 300 862H264C271 800 313 761 372 761C431 761 473 800 480 862H444C435 822 411 799 372 799Z" glyph-name="Gbreve" horiz-adv-x="700" unicode="&#286;" /><glyph d="M607 51V355H358V311H559V78C516 54 453 35 387 35C219 35 115 165 115 350C115 526 220 664 385 664C458 664 515 643 569 617L588 661C531 689 464 710 388 710C194 710 65 558 65 349C65 130 193 -9 385 -9C470 -9 545 15 607 51ZM372 800 299 860H256L348 763H396L488 860H445Z" glyph-name="Gcaron" horiz-adv-x="700" unicode="&#486;" /><glyph d="M607 51V355H358V311H559V78C516 54 453 35 387 35C219 35 115 165 115 350C115 526 220 664 385 664C458 664 515 643 569 617L588 661C531 689 464 710 388 710C194 710 65 558 65 349C65 130 193 -9 385 -9C470 -9 545 15 607 51ZM372 823 445 763H488L396 860H348L256 763H299Z" glyph-name="Gcircumflex" horiz-adv-x="700" unicode="&#284;" /><glyph d="M607 51V355H358V311H559V78C516 54 453 35 387 35C219 35 115 165 115 350C115 526 220 664 385 664C458 664 515 643 569 617L588 661C531 689 464 710 388 710C194 710 65 558 65 349C65 130 193 -9 385 -9C470 -9 545 15 607 51ZM397 763V831H347V763Z" glyph-name="Gdotaccent" horiz-adv-x="700" unicode="&#288;" /><glyph d="M156 337H558V0H608V700H558V383H156V700H106V0H156Z" glyph-name="H" horiz-adv-x="714" unicode="H" /><glyph d="M165 380V539H569V380ZM166 336H568V0H618V538H704V577H618V700H569V577H165V700H116V577H31V538H116V0H166Z" glyph-name="Hbar" horiz-adv-x="734" unicode="&#294;" /><glyph d="M156 337H558V0H608V700H558V383H156V700H106V0H156ZM357 816 430 756H473L381 853H333L241 756H284Z" glyph-name="Hcircumflex" horiz-adv-x="714" unicode="&#292;" /><glyph d="M160 0V700H110V0Z" glyph-name="I" horiz-adv-x="269" unicode="I" /><glyph d="M160 0V700H110V0ZM135 756 269 852H194L88 756Z" glyph-name="Iacute" horiz-adv-x="269" unicode="&#205;" /><glyph d="M160 0V700H110V0ZM135 792C96 792 72 815 63 855H27C34 793 76 754 135 754C194 754 236 793 243 855H207C198 815 174 792 135 792Z" glyph-name="Ibreve" horiz-adv-x="269" unicode="&#300;" /><glyph d="M160 0V700H110V0ZM135 816 208 756H251L159 853H111L19 756H62Z" glyph-name="Icircumflex" horiz-adv-x="269" unicode="&#206;" /><glyph d="M160 0V700H110V0ZM85 756V824H35V756ZM235 756V824H185V756Z" glyph-name="Idieresis" horiz-adv-x="269" unicode="&#207;" /><glyph d="M160 0V700H110V0ZM160 756V824H110V756Z" glyph-name="Idotaccent" horiz-adv-x="269" unicode="&#304;" /><glyph d="M160 0V700H110V0ZM135 756H182L76 852H1Z" glyph-name="Igrave" horiz-adv-x="269" unicode="&#204;" /><glyph d="M160 0V700H110V0ZM250 762V799H20V762Z" glyph-name="Imacron" horiz-adv-x="269" unicode="&#298;" /><glyph d="M182 -113C124 -108 110 -99 110 -82C110 -69 119 -51 156 0H160V700H110V0H119C77 -48 63 -71 63 -91C63 -123 90 -140 178 -145Z" glyph-name="Iogonek" horiz-adv-x="269" unicode="&#302;" /><glyph d="M160 0V700H110V0ZM37 754C56 796 66 805 80 805C92 805 101 801 131 782C164 762 178 755 196 755C229 755 248 778 271 834L239 845C220 804 210 794 197 794C184 794 175 799 145 817C112 838 98 844 81 844C47 844 29 822 5 766Z" glyph-name="Itilde" horiz-adv-x="269" unicode="&#296;" /><glyph d="M371 240V700H322V242C322 113 268 37 158 37C117 37 80 45 43 60L30 16C72 0 114 -8 160 -8C300 -8 371 84 371 240Z" glyph-name="J" horiz-adv-x="468" unicode="J" /><glyph d="M371 240V700H322V242C322 113 268 37 158 37C117 37 80 45 43 60L30 16C72 0 114 -8 160 -8C300 -8 371 84 371 240ZM347 816 420 756H463L371 853H323L231 756H274Z" glyph-name="Jcircumflex" horiz-adv-x="468" unicode="&#308;" /><glyph d="M532 0H600L225 360L594 700H527L177 375H156V700H106V0H156V344H175Z" glyph-name="K" horiz-adv-x="621" unicode="K" /><glyph d="M513 0V45H156V700H106V0Z" glyph-name="L" horiz-adv-x="544" unicode="L" /><glyph d="M513 0V45H156V700H106V0ZM131 756 265 852H190L84 756Z" glyph-name="Lacute" horiz-adv-x="544" unicode="&#313;" /><glyph d="M513 0V45H156V700H106V0ZM297 701H259V672C259 629 254 600 238 567L255 557C283 595 297 626 297 680Z" glyph-name="Lcaron" horiz-adv-x="544" unicode="&#317;" /><glyph d="M526 0V45H166V326L344 426V472L166 370V700H116V345L31 297V251L116 299V0Z" glyph-name="Lslash" horiz-adv-x="557" unicode="&#321;" /><glyph d="M767 0H816L783 700H721L455 61L190 700H128L93 0H142L169 631L432 -2H477L740 631Z" glyph-name="M" horiz-adv-x="910" unicode="M" /><glyph d="M558 0H611V700H563V79L162 700H106V0H154V626Z" glyph-name="N" horiz-adv-x="717" unicode="N" /><glyph d="M558 0H611V700H563V79L162 700H106V0H154V626ZM368 751 502 847H427L321 751Z" glyph-name="Nacute" horiz-adv-x="717" unicode="&#323;" /><glyph d="M558 0H611V700H563V79L162 700H106V0H154V626ZM368 788 295 848H252L344 751H392L484 848H441Z" glyph-name="Ncaron" horiz-adv-x="717" unicode="&#327;" /><glyph d="M558 0H611V700H563V79L162 700H106V0H154V626ZM270 754C289 796 299 805 313 805C325 805 334 801 364 782C397 762 411 755 429 755C462 755 481 778 504 834L472 845C453 804 443 794 430 794C417 794 408 799 378 817C345 838 331 844 314 844C280 844 262 822 238 766Z" glyph-name="Ntilde" horiz-adv-x="717" unicode="&#209;" /><glyph d="M654 351C654 563 531 712 361 712C189 712 65 561 65 349C65 137 188 -12 359 -12C529 -12 654 139 654 351ZM604 349C604 166 504 32 360 32C216 32 115 166 115 351C115 534 216 668 359 668C503 668 604 534 604 349Z" glyph-name="O" horiz-adv-x="719" unicode="O" /><glyph d="M65 349C65 121 208 0 410 0H980V45H583V337H933V382H583V655H975V700H411C209 700 65 578 65 349ZM115 351C115 546 234 656 407 656H533V44H410C234 44 115 158 115 351Z" glyph-name="OE" horiz-adv-x="1042" unicode="&#338;" /><glyph d="M654 351C654 563 531 712 361 712C189 712 65 561 65 349C65 137 188 -12 359 -12C529 -12 654 139 654 351ZM604 349C604 166 504 32 360 32C216 32 115 166 115 351C115 534 216 668 359 668C503 668 604 534 604 349ZM360 763 494 859H419L313 763Z" glyph-name="Oacute" horiz-adv-x="719" unicode="&#211;" /><glyph d="M654 351C654 563 531 712 361 712C189 712 65 561 65 349C65 137 188 -12 359 -12C529 -12 654 139 654 351ZM604 349C604 166 504 32 360 32C216 32 115 166 115 351C115 534 216 668 359 668C503 668 604 534 604 349ZM360 799C321 799 297 822 288 862H252C259 800 301 761 360 761C419 761 461 800 468 862H432C423 822 399 799 360 799Z" glyph-name="Obreve" horiz-adv-x="719" unicode="&#334;" /><glyph d="M654 351C654 563 531 712 361 712C189 712 65 561 65 349C65 137 188 -12 359 -12C529 -12 654 139 654 351ZM604 349C604 166 504 32 360 32C216 32 115 166 115 351C115 534 216 668 359 668C503 668 604 534 604 349ZM360 823 433 763H476L384 860H336L244 763H287Z" glyph-name="Ocircumflex" horiz-adv-x="719" unicode="&#212;" /><glyph d="M654 351C654 563 531 712 361 712C189 712 65 561 65 349C65 137 188 -12 359 -12C529 -12 654 139 654 351ZM604 349C604 166 504 32 360 32C216 32 115 166 115 351C115 534 216 668 359 668C503 668 604 534 604 349ZM310 763V831H260V763ZM460 763V831H410V763Z" glyph-name="Odieresis" horiz-adv-x="719" unicode="&#214;" /><glyph d="M654 351C654 563 531 712 361 712C189 712 65 561 65 349C65 137 188 -12 359 -12C529 -12 654 139 654 351ZM604 349C604 166 504 32 360 32C216 32 115 166 115 351C115 534 216 668 359 668C503 668 604 534 604 349ZM360 763H407L301 859H226Z" glyph-name="Ograve" horiz-adv-x="719" unicode="&#210;" /><glyph d="M654 351C654 501 592 615 495 670C585 670 641 713 641 779C641 798 636 816 628 833L588 819C595 806 598 793 598 779C598 730 558 703 475 703C436 703 399 709 361 709C189 709 65 560 65 349C65 137 188 -12 359 -12C529 -12 654 139 654 351ZM604 349C604 166 504 32 360 32C216 32 115 166 115 351C115 533 216 665 359 665C503 665 604 533 604 349Z" glyph-name="Ohorn" horiz-adv-x="719" unicode="&#416;" /><glyph d="M654 351C654 563 531 712 361 712C189 712 65 561 65 349C65 137 188 -12 359 -12C529 -12 654 139 654 351ZM604 349C604 166 504 32 360 32C216 32 115 166 115 351C115 534 216 668 359 668C503 668 604 534 604 349ZM299 763 429 859H362L255 763ZM433 763 563 859H495L389 763Z" glyph-name="Ohungarumlaut" horiz-adv-x="719" unicode="&#336;" /><glyph d="M654 351C654 563 531 712 361 712C189 712 65 561 65 349C65 137 188 -12 359 -12C529 -12 654 139 654 351ZM604 349C604 166 504 32 360 32C216 32 115 166 115 351C115 534 216 668 359 668C503 668 604 534 604 349ZM492 769V806H228V769Z" glyph-name="Omacron" horiz-adv-x="719" unicode="&#332;" /><glyph d="M115 351C115 534 215 668 359 668C416 668 467 647 507 610L187 118C141 175 115 256 115 351ZM360 32C303 32 252 53 212 91L533 582C578 525 605 444 605 349C605 166 504 32 360 32ZM359 -12C529 -12 654 139 654 351C654 463 620 557 562 621L650 751H603L534 649C487 689 427 712 361 712C189 712 65 561 65 349C65 237 99 143 157 79L69 -51H116L185 51C232 11 292 -12 359 -12Z" glyph-name="Oslash" horiz-adv-x="719" unicode="&#216;" /><glyph d="M115 351C115 534 215 668 359 668C416 668 467 647 507 610L187 118C141 175 115 256 115 351ZM360 32C303 32 252 53 212 91L533 582C578 525 605 444 605 349C605 166 504 32 360 32ZM359 -12C529 -12 654 139 654 351C654 463 620 557 562 621L650 751H603L534 649C487 689 427 712 361 712C189 712 65 561 65 349C65 237 99 143 157 79L69 -51H116L185 51C232 11 292 -12 359 -12ZM360 763 494 859H419L313 763Z" glyph-name="Oslashacute" horiz-adv-x="719" unicode="&#510;" /><glyph d="M654 351C654 563 531 712 361 712C189 712 65 561 65 349C65 137 188 -12 359 -12C529 -12 654 139 654 351ZM604 349C604 166 504 32 360 32C216 32 115 166 115 351C115 534 216 668 359 668C503 668 604 534 604 349ZM262 761C281 803 291 812 305 812C317 812 326 808 356 789C389 769 403 762 421 762C454 762 473 785 496 841L464 852C445 811 435 801 422 801C409 801 400 806 370 824C337 845 323 851 306 851C272 851 254 829 230 773Z" glyph-name="Otilde" horiz-adv-x="719" unicode="&#213;" /><glyph d="M156 0V251H285C443 251 558 326 558 485C558 627 460 700 301 700H106V0ZM156 295V656H298C430 656 508 597 508 482C508 354 412 295 287 295Z" glyph-name="P" horiz-adv-x="602" unicode="P" /><glyph d="M671 -79 536 54C609 118 654 224 654 351C654 563 531 712 361 712C189 712 65 561 65 349C65 137 188 -12 359 -12C410 -12 457 1 497 26L603 -79ZM604 349C604 166 504 32 360 32C216 32 115 166 115 351C115 534 216 668 359 668C503 668 604 534 604 349Z" glyph-name="Q" horiz-adv-x="719" unicode="Q" /><glyph d="M156 326V656H332C455 656 519 600 519 504C519 394 417 326 282 326ZM156 282H261C333 282 369 258 420 192L574 0H639L465 210C428 261 405 282 364 297C464 319 569 377 569 508C569 629 487 700 335 700H106V0H156Z" glyph-name="R" horiz-adv-x="662" unicode="R" /><glyph d="M156 326V656H332C455 656 519 600 519 504C519 394 417 326 282 326ZM156 282H261C333 282 369 258 420 192L574 0H639L465 210C428 261 405 282 364 297C464 319 569 377 569 508C569 629 487 700 335 700H106V0H156ZM321 756 455 852H380L274 756Z" glyph-name="Racute" horiz-adv-x="662" unicode="&#340;" /><glyph d="M156 326V656H332C455 656 519 600 519 504C519 394 417 326 282 326ZM156 282H261C333 282 369 258 420 192L574 0H639L465 210C428 261 405 282 364 297C464 319 569 377 569 508C569 629 487 700 335 700H106V0H156ZM321 793 248 853H205L297 756H345L437 853H394Z" glyph-name="Rcaron" horiz-adv-x="662" unicode="&#344;" /><glyph d="M543 181C543 277 490 334 320 386C175 431 131 474 131 539C131 611 198 664 296 664C371 664 431 646 494 616L512 659C447 690 380 708 300 708C173 708 81 639 81 535C81 446 135 393 303 342C449 294 494 252 494 177C494 96 417 36 304 36C217 36 135 63 67 102L47 58C123 17 209 -8 301 -8C448 -8 543 67 543 181Z" glyph-name="S" horiz-adv-x="604" unicode="S" /><glyph d="M543 181C543 277 490 334 320 386C175 431 131 474 131 539C131 611 198 664 296 664C371 664 431 646 494 616L512 659C447 690 380 708 300 708C173 708 81 639 81 535C81 446 135 393 303 342C449 294 494 252 494 177C494 96 417 36 304 36C217 36 135 63 67 102L47 58C123 17 209 -8 301 -8C448 -8 543 67 543 181ZM308 763 442 859H367L261 763Z" glyph-name="Sacute" horiz-adv-x="604" unicode="&#346;" /><glyph d="M543 181C543 277 490 334 320 386C175 431 131 474 131 539C131 611 198 664 296 664C371 664 431 646 494 616L512 659C447 690 380 708 300 708C173 708 81 639 81 535C81 446 135 393 303 342C449 294 494 252 494 177C494 96 417 36 304 36C217 36 135 63 67 102L47 58C123 17 209 -8 301 -8C448 -8 543 67 543 181ZM308 800 235 860H192L284 763H332L424 860H381Z" glyph-name="Scaron" horiz-adv-x="604" unicode="&#352;" /><glyph d="M543 181C543 277 490 334 320 386C175 431 131 474 131 539C131 611 198 664 296 664C371 664 431 646 494 616L512 659C447 690 380 708 300 708C173 708 81 639 81 535C81 446 135 393 303 342C449 294 494 252 494 177C494 96 417 36 304 36C217 36 135 63 67 102L47 58C123 17 209 -8 301 -8C448 -8 543 67 543 181ZM308 823 381 763H424L332 860H284L192 763H235Z" glyph-name="Scircumflex" horiz-adv-x="604" unicode="&#348;" /><glyph d="M329 0V655H577V700H31V655H279V0Z" glyph-name="T" horiz-adv-x="608" unicode="T" /><glyph d="M473 336V377H329V655H577V700H31V655H279V377H135V336H279V0H329V336Z" glyph-name="Tbar" horiz-adv-x="608" unicode="&#358;" /><glyph d="M329 0V655H577V700H31V655H279V0ZM304 793 231 853H188L280 756H328L420 853H377Z" glyph-name="Tcaron" horiz-adv-x="608" unicode="&#356;" /><glyph d="M156 0V130H285C443 130 558 205 558 364C558 507 460 580 301 580H156V700H106V0ZM156 175V535H298C430 535 508 477 508 362C508 234 412 175 287 175Z" glyph-name="Thorn" horiz-adv-x="615" unicode="&#222;" /><glyph d="M595 267V700H546V265C546 119 465 34 345 34C226 34 144 120 144 269V700H95V268C95 93 192 -10 344 -10C497 -10 595 93 595 267Z" glyph-name="U" horiz-adv-x="690" unicode="U" /><glyph d="M595 267V700H546V265C546 119 465 34 345 34C226 34 144 120 144 269V700H95V268C95 93 192 -10 344 -10C497 -10 595 93 595 267ZM345 751 479 847H404L298 751Z" glyph-name="Uacute" horiz-adv-x="690" unicode="&#218;" /><glyph d="M595 267V700H546V265C546 119 465 34 345 34C226 34 144 120 144 269V700H95V268C95 93 192 -10 344 -10C497 -10 595 93 595 267ZM345 787C306 787 282 810 273 850H237C244 788 286 749 345 749C404 749 446 788 453 850H417C408 810 384 787 345 787Z" glyph-name="Ubreve" horiz-adv-x="690" unicode="&#364;" /><glyph d="M595 267V700H546V265C546 119 465 34 345 34C226 34 144 120 144 269V700H95V268C95 93 192 -10 344 -10C497 -10 595 93 595 267ZM345 816 418 756H461L369 853H321L229 756H272Z" glyph-name="Ucircumflex" horiz-adv-x="690" unicode="&#219;" /><glyph d="M595 267V700H546V265C546 119 465 34 345 34C226 34 144 120 144 269V700H95V268C95 93 192 -10 344 -10C497 -10 595 93 595 267ZM295 756V824H245V756ZM445 756V824H395V756Z" glyph-name="Udieresis" horiz-adv-x="690" unicode="&#220;" /><glyph d="M595 267V700H546V265C546 119 465 34 345 34C226 34 144 120 144 269V700H95V268C95 93 192 -10 344 -10C497 -10 595 93 595 267ZM345 751H392L286 847H211Z" glyph-name="Ugrave" horiz-adv-x="690" unicode="&#217;" /><glyph d="M344 -10C497 -10 595 93 595 267V668C672 677 717 718 717 779C717 798 713 816 704 833L665 819C671 806 674 793 674 779C674 728 634 700 550 700H546V265C546 119 465 34 345 34C226 34 144 120 144 269V700H95V268C95 93 192 -10 344 -10Z" glyph-name="Uhorn" horiz-adv-x="716" unicode="&#431;" /><glyph d="M595 267V700H546V265C546 119 465 34 345 34C226 34 144 120 144 269V700H95V268C95 93 192 -10 344 -10C497 -10 595 93 595 267ZM284 756 414 852H347L240 756ZM418 756 548 852H480L374 756Z" glyph-name="Uhungarumlaut" horiz-adv-x="690" unicode="&#368;" /><glyph d="M595 267V700H546V265C546 119 465 34 345 34C226 34 144 120 144 269V700H95V268C95 93 192 -10 344 -10C497 -10 595 93 595 267ZM477 762V799H213V762Z" glyph-name="Umacron" horiz-adv-x="690" unicode="&#362;" /><glyph d="M405 -145 409 -113C351 -108 337 -99 337 -82C337 -70 345 -53 377 -8C511 6 595 106 595 267V700H546V265C546 119 465 34 345 34C226 34 144 120 144 269V700H95V268C95 96 189 -7 337 -10C302 -51 290 -73 290 -91C290 -123 317 -140 405 -145Z" glyph-name="Uogonek" horiz-adv-x="690" unicode="&#370;" /><glyph d="M595 267V700H546V265C546 119 465 34 345 34C226 34 144 120 144 269V700H95V268C95 93 192 -10 344 -10C497 -10 595 93 595 267ZM248 834C248 785 287 744 344 744C401 744 442 785 442 834C442 883 403 925 346 925C289 925 248 883 248 834ZM278 834C278 870 305 899 345 899C385 899 412 870 412 834C412 799 385 770 345 770C305 770 278 799 278 834Z" glyph-name="Uring" horiz-adv-x="690" unicode="&#366;" /><glyph d="M595 267V700H546V265C546 119 465 34 345 34C226 34 144 120 144 269V700H95V268C95 93 192 -10 344 -10C497 -10 595 93 595 267ZM247 754C266 796 276 805 290 805C302 805 311 801 341 782C374 762 388 755 406 755C439 755 458 778 481 834L449 845C430 804 420 794 407 794C394 794 385 799 355 817C322 838 308 844 291 844C257 844 239 822 215 766Z" glyph-name="Utilde" horiz-adv-x="690" unicode="&#360;" /><glyph d="M361 -11 631 700H578L338 52L98 700H44L314 -11Z" glyph-name="V" horiz-adv-x="675" unicode="V" /><glyph d="M720 -9H773L978 700H927L747 56L540 700H488L282 56L101 700H48L253 -9H306L513 629Z" glyph-name="W" horiz-adv-x="1026" unicode="W" /><glyph d="M720 -9H773L978 700H927L747 56L540 700H488L282 56L101 700H48L253 -9H306L513 629ZM513 756 647 852H572L466 756Z" glyph-name="Wacute" horiz-adv-x="1026" unicode="&#7810;" /><glyph d="M720 -9H773L978 700H927L747 56L540 700H488L282 56L101 700H48L253 -9H306L513 629ZM513 816 586 756H629L537 853H489L397 756H440Z" glyph-name="Wcircumflex" horiz-adv-x="1026" unicode="&#372;" /><glyph d="M720 -9H773L978 700H927L747 56L540 700H488L282 56L101 700H48L253 -9H306L513 629ZM463 756V824H413V756ZM613 756V824H563V756Z" glyph-name="Wdieresis" horiz-adv-x="1026" unicode="&#7812;" /><glyph d="M720 -9H773L978 700H927L747 56L540 700H488L282 56L101 700H48L253 -9H306L513 629ZM513 756H560L454 852H379Z" glyph-name="Wgrave" horiz-adv-x="1026" unicode="&#7808;" /><glyph d="M535 0H593L350 361L580 700H523L319 397L114 700H56L287 360L43 0H100L318 323Z" glyph-name="X" horiz-adv-x="637" unicode="X" /><glyph d="M340 0V288L601 700H545L316 333L87 700H29L290 288V0Z" glyph-name="Y" horiz-adv-x="630" unicode="Y" /><glyph d="M340 0V288L601 700H545L316 333L87 700H29L290 288V0ZM315 751 449 847H374L268 751Z" glyph-name="Yacute" horiz-adv-x="630" unicode="&#221;" /><glyph d="M340 0V288L601 700H545L316 333L87 700H29L290 288V0ZM315 816 388 756H431L339 853H291L199 756H242Z" glyph-name="Ycircumflex" horiz-adv-x="630" unicode="&#374;" /><glyph d="M340 0V288L601 700H545L316 333L87 700H29L290 288V0ZM265 756V824H215V756ZM415 756V824H365V756Z" glyph-name="Ydieresis" horiz-adv-x="630" unicode="&#376;" /><glyph d="M340 0V288L601 700H545L316 333L87 700H29L290 288V0ZM315 751H362L256 847H181Z" glyph-name="Ygrave" horiz-adv-x="630" unicode="&#7922;" /><glyph d="M545 0V45H112L545 660V700H70V655H485L51 40V0Z" glyph-name="Z" horiz-adv-x="601" unicode="Z" /><glyph d="M545 0V45H112L545 660V700H70V655H485L51 40V0ZM297 756 431 852H356L250 756Z" glyph-name="Zacute" horiz-adv-x="601" unicode="&#377;" /><glyph d="M545 0V45H112L545 660V700H70V655H485L51 40V0ZM297 793 224 853H181L273 756H321L413 853H370Z" glyph-name="Zcaron" horiz-adv-x="601" unicode="&#381;" /><glyph d="M545 0V45H112L545 660V700H70V655H485L51 40V0ZM322 756V824H272V756Z" glyph-name="Zdotaccent" horiz-adv-x="601" unicode="&#379;" /><glyph d="M220 32C144 32 96 75 96 149C96 179 106 207 124 226C151 253 186 270 309 270C334 270 361 268 385 266V105C332 59 275 32 220 32ZM388 66 406 0H442L431 96V361C431 470 375 518 261 518C200 518 141 502 90 481L104 441C153 462 204 477 257 477C346 477 385 437 385 360V305C361 308 335 310 308 310C175 310 125 290 91 255C65 229 50 193 50 147C50 45 117 -9 210 -9C273 -9 330 16 388 66Z" glyph-name="a" horiz-adv-x="517" unicode="a" /><glyph d="M220 32C144 32 96 75 96 149C96 179 106 207 124 226C151 253 186 270 309 270C334 270 361 268 385 266V105C332 59 275 32 220 32ZM388 66 406 0H442L431 96V361C431 470 375 518 261 518C200 518 141 502 90 481L104 441C153 462 204 477 257 477C346 477 385 437 385 360V305C361 308 335 310 308 310C175 310 125 290 91 255C65 229 50 193 50 147C50 45 117 -9 210 -9C273 -9 330 16 388 66ZM259 595 391 710H322L220 595Z" glyph-name="aacute" horiz-adv-x="517" unicode="&#225;" /><glyph d="M220 32C144 32 96 75 96 149C96 179 106 207 124 226C151 253 186 270 309 270C334 270 361 268 385 266V105C332 59 275 32 220 32ZM388 66 406 0H442L431 96V361C431 470 375 518 261 518C200 518 141 502 90 481L104 441C153 462 204 477 257 477C346 477 385 437 385 360V305C361 308 335 310 308 310C175 310 125 290 91 255C65 229 50 193 50 147C50 45 117 -9 210 -9C273 -9 330 16 388 66ZM259 631C216 631 193 659 187 706H155C157 639 197 593 259 593C321 593 361 639 363 706H331C325 659 302 631 259 631Z" glyph-name="abreve" horiz-adv-x="517" unicode="&#259;" /><glyph d="M220 32C144 32 96 75 96 149C96 179 106 207 124 226C151 253 186 270 309 270C334 270 361 268 385 266V105C332 59 275 32 220 32ZM388 66 406 0H442L431 96V361C431 470 375 518 261 518C200 518 141 502 90 481L104 441C153 462 204 477 257 477C346 477 385 437 385 360V305C361 308 335 310 308 310C175 310 125 290 91 255C65 229 50 193 50 147C50 45 117 -9 210 -9C273 -9 330 16 388 66ZM259 673 333 595H370L280 711H238L148 595H184Z" glyph-name="acircumflex" horiz-adv-x="517" unicode="&#226;" /><glyph d="M250 592 382 707H313L211 592Z" glyph-name="acute" horiz-adv-x="500" unicode="&#180;" /><glyph d="M0 756 134 852H59L-47 756Z" glyph-name="acute.cap" horiz-adv-x="0" /><glyph d="M220 32C144 32 96 75 96 149C96 179 106 207 124 226C151 253 186 270 309 270C334 270 361 268 385 266V105C332 59 275 32 220 32ZM388 66 406 0H442L431 96V361C431 470 375 518 261 518C200 518 141 502 90 481L104 441C153 462 204 477 257 477C346 477 385 437 385 360V305C361 308 335 310 308 310C175 310 125 290 91 255C65 229 50 193 50 147C50 45 117 -9 210 -9C273 -9 330 16 388 66ZM213 604V671H165V604ZM353 604V671H305V604Z" glyph-name="adieresis" horiz-adv-x="517" unicode="&#228;" /><glyph d="M429 277C436 393 499 481 588 481C680 481 739 395 745 277ZM605 -10C662 -10 718 8 771 41L753 77C706 48 656 31 606 31C504 31 434 116 429 237H790V253C790 407 715 522 591 522C514 522 455 477 421 406C408 482 358 518 261 518C200 518 141 502 90 481L104 441C153 462 204 477 257 477C346 477 385 437 385 360V305C361 308 335 310 308 310C175 310 125 290 91 255C65 229 50 193 50 147C50 46 118 -9 214 -9C286 -9 354 23 427 86C467 23 531 -10 605 -10ZM220 32C145 32 96 74 96 149C96 179 106 207 124 226C151 253 186 270 309 270C332 270 358 268 383 266V254C383 203 392 158 408 121C344 61 280 32 220 32Z" glyph-name="ae" horiz-adv-x="838" unicode="&#230;" /><glyph d="M429 277C436 393 499 481 588 481C680 481 739 395 745 277ZM605 -10C662 -10 718 8 771 41L753 77C706 48 656 31 606 31C504 31 434 116 429 237H790V253C790 407 715 522 591 522C514 522 455 477 421 406C408 482 358 518 261 518C200 518 141 502 90 481L104 441C153 462 204 477 257 477C346 477 385 437 385 360V305C361 308 335 310 308 310C175 310 125 290 91 255C65 229 50 193 50 147C50 46 118 -9 214 -9C286 -9 354 23 427 86C467 23 531 -10 605 -10ZM220 32C145 32 96 74 96 149C96 179 106 207 124 226C151 253 186 270 309 270C332 270 358 268 383 266V254C383 203 392 158 408 121C344 61 280 32 220 32ZM435 592 567 707H498L396 592Z" glyph-name="aeacute" horiz-adv-x="838" unicode="&#509;" /><glyph d="M220 32C144 32 96 75 96 149C96 179 106 207 124 226C151 253 186 270 309 270C334 270 361 268 385 266V105C332 59 275 32 220 32ZM388 66 406 0H442L431 96V361C431 470 375 518 261 518C200 518 141 502 90 481L104 441C153 462 204 477 257 477C346 477 385 437 385 360V305C361 308 335 310 308 310C175 310 125 290 91 255C65 229 50 193 50 147C50 45 117 -9 210 -9C273 -9 330 16 388 66ZM259 595H298L196 710H127Z" glyph-name="agrave" horiz-adv-x="517" unicode="&#224;" /><glyph d="M220 32C144 32 96 75 96 149C96 179 106 207 124 226C151 253 186 270 309 270C334 270 361 268 385 266V105C332 59 275 32 220 32ZM388 66 406 0H442L431 96V361C431 470 375 518 261 518C200 518 141 502 90 481L104 441C153 462 204 477 257 477C346 477 385 437 385 360V305C361 308 335 310 308 310C175 310 125 290 91 255C65 229 50 193 50 147C50 45 117 -9 210 -9C273 -9 330 16 388 66ZM374 610V645H144V610Z" glyph-name="amacron" horiz-adv-x="517" unicode="&#257;" /><glyph d="M244 36C166 36 106 93 106 181C106 255 151 330 255 378L440 164C380 79 317 36 244 36ZM586 0H646L498 170C538 233 573 303 607 392H557C530 318 500 258 468 205L288 409C247 457 221 498 221 549C221 615 268 664 341 664C389 664 433 649 484 619L504 662C447 693 399 708 340 708C238 708 172 642 172 551C172 496 196 451 228 411C116 359 58 274 58 177C58 62 136 -7 239 -7C329 -7 405 41 469 131Z" glyph-name="ampersand" horiz-adv-x="677" unicode="&amp;" /><glyph d="M220 32C144 32 96 75 96 149C96 179 106 207 124 226C151 253 186 270 309 270C334 270 361 268 385 266V105C332 59 275 32 220 32ZM466 -113C408 -108 394 -99 394 -82C394 -69 403 -51 440 0H442L431 96V361C431 470 375 518 261 518C200 518 141 502 90 481L104 441C153 462 204 477 257 477C346 477 385 437 385 360V305C361 308 335 310 308 310C175 310 125 290 91 255C65 229 50 193 50 147C50 45 117 -9 210 -9C273 -9 330 16 388 66L405 2C361 -47 347 -71 347 -91C347 -123 374 -140 462 -145Z" glyph-name="aogonek" horiz-adv-x="517" unicode="&#261;" /><glyph d="M457 519C423 455 404 435 380 435C361 435 343 442 289 475C232 509 208 519 180 519C142 519 113 492 73 408L107 392C141 455 160 475 183 475C203 475 220 468 274 435C331 401 356 391 383 391C421 391 451 418 491 503ZM458 319C423 256 405 235 382 235C362 235 344 243 290 276C233 310 209 320 181 320C143 320 114 293 73 208L107 192C142 256 160 276 184 276C204 276 221 269 275 236C333 202 357 192 385 192C422 192 451 219 491 303Z" glyph-name="approxequal" horiz-adv-x="564" unicode="&#8776;" /><glyph d="M220 32C144 32 96 75 96 149C96 179 106 207 124 226C151 253 186 270 309 270C334 270 361 268 385 266V105C332 59 275 32 220 32ZM388 66 406 0H442L431 96V361C431 470 375 518 261 518C200 518 141 502 90 481L104 441C153 462 204 477 257 477C346 477 385 437 385 360V305C361 308 335 310 308 310C175 310 125 290 91 255C65 229 50 193 50 147C50 45 117 -9 210 -9C273 -9 330 16 388 66ZM167 677C167 627 205 588 259 588C313 588 351 627 351 677C351 727 313 766 259 766C205 766 167 727 167 677ZM196 677C196 713 222 741 259 741C296 741 322 713 322 677C322 641 296 613 259 613C222 613 196 641 196 677Z" glyph-name="aring" horiz-adv-x="517" unicode="&#229;" /><glyph d="M220 32C144 32 96 75 96 149C96 179 106 207 124 226C151 253 186 270 309 270C334 270 361 268 385 266V105C332 59 275 32 220 32ZM388 66 406 0H442L431 96V361C431 470 375 518 261 518C200 518 141 502 90 481L104 441C153 462 204 477 257 477C346 477 385 437 385 360V305C361 308 335 310 308 310C175 310 125 290 91 255C65 229 50 193 50 147C50 45 117 -9 210 -9C273 -9 330 16 388 66ZM375 866H305L218 791H263ZM167 674C167 626 205 588 259 588C313 588 351 626 351 674C351 722 313 759 259 759C205 759 167 722 167 674ZM196 674C196 708 222 734 259 734C296 734 322 708 322 674C322 640 296 613 259 613C222 613 196 640 196 674Z" glyph-name="aringacute" horiz-adv-x="517" unicode="&#507;" /><glyph d="M80 433H129L282 685L434 433H485L304 730H261Z" glyph-name="asciicircum" horiz-adv-x="564" unicode="^" /><glyph d="M466 420C430 356 411 336 387 336C365 336 347 343 290 376C230 410 205 420 176 420C136 420 105 392 64 306L98 291C134 355 153 375 178 375C199 375 217 368 274 335C334 301 360 291 389 291C428 291 459 319 501 404Z" glyph-name="asciitilde" horiz-adv-x="564" unicode="~" /><glyph d="M168 598 185 702H143L160 598ZM188 578 291 594 278 634 185 586ZM141 578 143 586 50 634 37 594ZM221 459 255 484 181 558 174 553ZM107 459 154 553 147 558 73 484Z" glyph-name="asterisk" horiz-adv-x="328" unicode="*" /><glyph d="M359 -150C412 -150 456 -141 496 -129L490 -97C453 -108 407 -117 363 -117C196 -117 97 -14 97 183C97 458 270 681 473 681C583 681 634 625 634 540C634 523 632 505 629 485C601 497 569 504 536 504C395 504 287 380 287 221C287 120 344 64 419 64C467 64 507 82 548 115L552 64H575L660 424C670 466 677 503 677 541C677 640 614 716 477 716C252 716 59 483 59 180C59 -32 168 -150 359 -150ZM431 102C372 102 330 145 330 224C330 354 418 467 536 467C565 467 595 461 621 448C621 445 620 442 619 439L552 152C506 118 470 102 431 102Z" glyph-name="at" horiz-adv-x="733" unicode="@" /><glyph d="M220 32C144 32 96 75 96 149C96 179 106 207 124 226C151 253 186 270 309 270C334 270 361 268 385 266V105C332 59 275 32 220 32ZM388 66 406 0H442L431 96V361C431 470 375 518 261 518C200 518 141 502 90 481L104 441C153 462 204 477 257 477C346 477 385 437 385 360V305C361 308 335 310 308 310C175 310 125 290 91 255C65 229 50 193 50 147C50 45 117 -9 210 -9C273 -9 330 16 388 66ZM163 593C181 635 193 645 207 645C217 645 225 641 255 622C287 601 300 595 317 595C350 595 368 618 392 675L362 685C343 643 332 633 318 633C307 633 300 637 270 656C238 677 225 684 208 684C175 684 157 661 133 604Z" glyph-name="atilde" horiz-adv-x="517" unicode="&#227;" /><glyph d="M277 -10C401 -10 487 90 487 258C487 418 402 520 280 520C217 520 171 493 137 466V724H90V0H124L134 42C172 12 221 -10 277 -10ZM270 31C220 31 173 55 137 83V425C170 454 216 479 270 479C371 479 440 393 440 257C440 111 368 31 270 31Z" glyph-name="b" horiz-adv-x="542" unicode="b" /><glyph d="M328 -130H369L51 795H9Z" glyph-name="backslash" horiz-adv-x="367" unicode="\" /><glyph d="M323 -114H364L46 811H4Z" glyph-name="backslash.cap" horiz-adv-x="367" /><glyph d="M173 -130V795H135V-130Z" glyph-name="bar" horiz-adv-x="309" unicode="|" /><glyph d="M173 -114V811H135V-114Z" glyph-name="bar.cap" horiz-adv-x="309" /><glyph d="M481 -117 489 -81C387 -70 301 -45 237 -20C284 7 329 53 329 126C329 221 257 281 156 304C257 327 329 387 329 482C329 555 284 601 237 628C301 653 387 678 489 689L481 725C369 713 277 686 189 649L183 617C242 587 283 545 283 481C283 393 207 323 46 320V288C207 285 283 215 283 127C283 63 242 21 183 -9L189 -41C277 -78 369 -105 481 -117Z" glyph-name="braceleft" horiz-adv-x="543" unicode="{" /><glyph d="M481 -72 489 -36C387 -25 301 0 237 25C284 52 329 98 329 171C329 266 257 326 156 349C257 372 329 432 329 527C329 600 284 646 237 673C301 698 387 723 489 734L481 770C369 758 277 731 189 694L183 662C242 632 283 590 283 526C283 438 207 368 46 365V333C207 330 283 260 283 172C283 108 242 66 183 36L189 4C277 -33 369 -60 481 -72Z" glyph-name="braceleft.cap" horiz-adv-x="543" /><glyph d="M62 -117C174 -105 265 -78 354 -41L360 -9C300 21 260 63 260 127C260 215 335 285 496 288V320C335 323 260 393 260 481C260 545 300 587 360 617L354 649C265 686 174 713 62 725L54 689C155 678 242 653 305 628C259 601 213 555 213 482C213 387 286 327 387 304C286 281 213 221 213 126C213 53 259 7 305 -20C242 -45 155 -70 54 -81Z" glyph-name="braceright" horiz-adv-x="543" unicode="}" /><glyph d="M62 -72C174 -60 265 -33 354 4L360 36C300 66 260 108 260 172C260 260 335 330 496 333V365C335 368 260 438 260 526C260 590 300 632 360 662L354 694C265 731 174 758 62 770L54 734C155 723 242 698 305 673C259 646 213 600 213 527C213 432 286 372 387 349C286 326 213 266 213 171C213 98 259 52 305 25C242 0 155 -25 54 -36Z" glyph-name="braceright.cap" horiz-adv-x="543" /><glyph d="M359 -93V-60L149 -70V678L359 668V701L106 716V-108Z" glyph-name="bracketleft" horiz-adv-x="416" unicode="[" /><glyph d="M359 -48V-15L149 -25V723L359 713V746L106 761V-63Z" glyph-name="bracketleft.cap" horiz-adv-x="416" /><glyph d="M310 -108V716L57 701V668L267 678V-70L57 -60V-93Z" glyph-name="bracketright" horiz-adv-x="416" unicode="]" /><glyph d="M310 -63V761L57 746V713L267 723V-25L57 -15V-48Z" glyph-name="bracketright.cap" horiz-adv-x="416" /><glyph d="M250 628C207 628 184 656 178 703H146C148 636 188 590 250 590C312 590 352 636 354 703H322C316 656 293 628 250 628Z" glyph-name="breve" horiz-adv-x="500" unicode="&#728;" /><glyph d="M0 792C-39 792 -63 815 -72 855H-108C-101 793 -59 754 0 754C59 754 101 793 108 855H72C63 815 39 792 0 792Z" glyph-name="breve.cap" horiz-adv-x="0" /><glyph d="M90 355C90 291 142 239 206 239C269 239 321 291 321 355C321 419 269 471 206 471C142 471 90 419 90 355Z" glyph-name="bullet" horiz-adv-x="411" unicode="&#8226;" /><glyph d="M416 22 403 63C363 44 323 33 284 33C172 33 101 126 101 256C101 381 172 477 282 477C325 477 361 467 401 449L415 491C373 509 332 520 282 520C144 520 54 408 54 254C54 101 140 -10 279 -10C330 -10 374 3 416 22Z" glyph-name="c" horiz-adv-x="457" unicode="c" /><glyph d="M416 22 403 63C363 44 323 33 284 33C172 33 101 126 101 256C101 381 172 477 282 477C325 477 361 467 401 449L415 491C373 509 332 520 282 520C144 520 54 408 54 254C54 101 140 -10 279 -10C330 -10 374 3 416 22ZM271 595 403 710H334L232 595Z" glyph-name="cacute" horiz-adv-x="457" unicode="&#263;" /><glyph d="M250 631 176 708H139L229 592H271L361 708H325Z" glyph-name="caron" horiz-adv-x="500" unicode="&#711;" /><glyph d="M0 793 -73 853H-116L-24 756H24L116 853H73Z" glyph-name="caron.cap" horiz-adv-x="0" /><glyph d="M416 22 403 63C363 44 323 33 284 33C172 33 101 126 101 256C101 381 172 477 282 477C325 477 361 467 401 449L415 491C373 509 332 520 282 520C144 520 54 408 54 254C54 101 140 -10 279 -10C330 -10 374 3 416 22ZM271 634 197 711H160L250 595H292L382 711H346Z" glyph-name="ccaron" horiz-adv-x="457" unicode="&#269;" /><glyph d="M333 -81C333 -53 308 -37 261 -37L280 -10C330 -10 374 3 416 22L403 63C363 44 323 33 284 33C172 33 101 126 101 256C101 381 172 477 282 477C325 477 361 467 401 449L415 491C373 509 332 520 282 520C144 520 54 408 54 254C54 114 126 9 244 -8L217 -51L227 -64C270 -60 288 -68 288 -84C288 -101 265 -113 193 -120L197 -147C297 -140 333 -116 333 -81Z" glyph-name="ccedilla" horiz-adv-x="457" unicode="&#231;" /><glyph d="M416 22 403 63C363 44 323 33 284 33C172 33 101 126 101 256C101 381 172 477 282 477C325 477 361 467 401 449L415 491C373 509 332 520 282 520C144 520 54 408 54 254C54 101 140 -10 279 -10C330 -10 374 3 416 22ZM271 673 345 595H382L292 711H250L160 595H196Z" glyph-name="ccircumflex" horiz-adv-x="457" unicode="&#265;" /><glyph d="M416 22 403 63C363 44 323 33 284 33C172 33 101 126 101 256C101 381 172 477 282 477C325 477 361 467 401 449L415 491C373 509 332 520 282 520C144 520 54 408 54 254C54 101 140 -10 279 -10C330 -10 374 3 416 22ZM295 604V671H247V604Z" glyph-name="cdotaccent" horiz-adv-x="457" unicode="&#267;" /><glyph d="M181 -147C281 -140 317 -116 317 -81C317 -53 292 -37 245 -37L272 1L239 9L201 -51L211 -64C254 -60 272 -68 272 -84C272 -101 249 -113 177 -120Z" glyph-name="cedilla" horiz-adv-x="500" unicode="&#184;" /><glyph d="M107 361C107 464 178 531 262 536L226 191C149 209 107 274 107 361ZM267 146C318 146 372 163 416 187L399 223C362 201 312 186 270 186H257L294 535C334 532 365 520 397 503L413 540C377 558 344 571 301 575L314 704H279L265 576C151 572 61 487 61 360C61 249 124 170 220 151L203 -4H239L254 146Z" glyph-name="cent" horiz-adv-x="467" unicode="&#162;" /><glyph d="M250 670 324 592H361L271 708H229L139 592H175Z" glyph-name="circumflex" horiz-adv-x="500" unicode="&#710;" /><glyph d="M0 816 73 756H116L24 853H-24L-116 756H-73Z" glyph-name="circumflex.cap" horiz-adv-x="0" /><glyph d="M114 436V511H56V436ZM114 0V75H56V0Z" glyph-name="colon" horiz-adv-x="170" unicode=":" /><glyph d="M114 469V542H56V469ZM114 175V248H56V175Z" glyph-name="colon.fig" horiz-adv-x="170" /><glyph d="M171 469V542H112V469ZM171 175V248H112V175Z" glyph-name="colon.figtab" horiz-adv-x="282" /><glyph d="M170 436V511H112V436ZM170 0V75H112V0Z" glyph-name="colon.tab" horiz-adv-x="282" /><glyph d="M111 75H56C56 -15 40 -66 -6 -133L11 -147C78 -78 111 -16 111 67Z" glyph-name="comma" horiz-adv-x="160" unicode="," /><glyph d="M172 75H117C117 -15 101 -66 55 -133L72 -147C139 -78 172 -16 172 67Z" glyph-name="comma.tab" horiz-adv-x="282" /><glyph d="M386 -30C567 -30 706 127 706 350C706 573 567 730 386 730C205 730 66 573 66 350C66 127 205 -30 386 -30ZM386 707C554 707 682 559 682 350C682 141 554 -7 386 -7C219 -7 90 141 90 350C90 559 219 707 386 707ZM512 198 498 229C468 213 438 202 401 202C322 202 268 262 268 354C268 442 323 504 400 504C438 504 467 494 496 478L509 510C478 527 444 538 400 538C300 538 229 462 229 353C229 241 299 168 400 168C444 168 481 180 512 198Z" glyph-name="copyright" horiz-adv-x="772" unicode="&#169;" /><glyph d="M272 31C171 31 102 118 102 254C102 399 174 479 272 479C322 479 369 456 406 428V86C372 57 327 31 272 31ZM408 46 418 0H452V724H406V471C367 500 319 520 267 520C142 520 55 421 55 253C55 93 140 -10 262 -10C326 -10 374 19 408 46Z" glyph-name="d" horiz-adv-x="542" unicode="d" /><glyph d="M166 480 154 569H172L247 558V594L172 583H154L167 702H127L140 583H122L47 594V558L122 569H140L128 480L141 271H152Z" glyph-name="dagger" horiz-adv-x="294" unicode="&#8224;" /><glyph d="M172 376 247 365V402L172 390H154L166 480L154 569H172L247 558V594L172 583H154L167 702H127L140 583H122L47 594V558L122 569H140L128 480L140 390H122L47 402V365L122 376H140L127 257H167L154 376Z" glyph-name="daggerdbl" horiz-adv-x="294" unicode="&#8225;" /><glyph d="M272 31C171 31 102 118 102 254C102 399 174 479 272 479C322 479 369 456 406 428V86C372 57 327 31 272 31ZM408 46 418 0H452V724H406V471C367 500 319 520 267 520C142 520 55 421 55 253C55 93 140 -10 262 -10C326 -10 374 19 408 46ZM578 725H540V696C540 653 535 624 519 591L536 581C564 619 578 650 578 704Z" glyph-name="dcaron" horiz-adv-x="542" unicode="&#271;" /><glyph d="M272 31C171 31 102 116 102 250C102 393 174 472 272 472C322 472 369 449 406 421V86C372 57 327 31 272 31ZM408 46 418 0H452V591H523V626H452V724H406V626H244V591H406V464C367 494 319 513 267 513C142 513 55 415 55 249C55 92 140 -10 262 -10C326 -10 374 19 408 46Z" glyph-name="dcroat" horiz-adv-x="542" unicode="&#273;" /><glyph d="M377 546C377 636 307 708 216 708C124 708 54 636 54 546C54 455 124 384 216 384C307 384 377 455 377 546ZM339 546C339 474 287 417 216 417C144 417 92 474 92 546C92 617 144 674 216 674C287 674 339 617 339 546Z" glyph-name="degree" horiz-adv-x="431" unicode="&#176;" /><glyph d="M204 601V668H156V601ZM344 601V668H296V601Z" glyph-name="dieresis" horiz-adv-x="500" unicode="&#168;" /><glyph d="M-50 756V824H-100V756ZM100 756V824H50V756Z" glyph-name="dieresis.cap" horiz-adv-x="0" /><glyph d="M312 513V577H252V513ZM503 334V376H61V334L282 335ZM312 133V197H252V133Z" glyph-name="divide" horiz-adv-x="564" unicode="&#247;" /><glyph d="M135 528C135 604 198 660 301 660H310L279 388C179 417 135 458 135 528ZM277 40H271L305 335C410 305 458 259 458 186C458 90 378 40 277 40ZM275 0C410 0 503 70 503 189C503 281 446 341 310 379L341 658C391 652 438 636 483 610L501 648C451 676 402 692 349 698L359 788H322L312 700H304C175 700 89 629 89 525C89 436 142 381 274 343L239 42C176 49 116 71 64 102L46 64C100 31 166 9 233 2L220 -106H256L269 0Z" glyph-name="dollar" horiz-adv-x="570" unicode="$" /><glyph d="M128 528C128 604 190 660 295 660H305L274 387C173 419 128 457 128 528ZM270 40H266L300 335C404 304 451 257 451 186C451 91 374 40 270 40ZM267 0C405 0 497 70 497 189C497 279 439 340 305 379L337 657C386 651 432 635 477 609L494 647C447 674 397 691 344 697L354 788H318L308 700H297C166 700 83 628 83 525C83 436 138 381 269 343L235 42C172 48 110 71 58 104L40 66C95 31 161 8 228 2L215 -106H252L265 0Z" glyph-name="dollar.tab" horiz-adv-x="564" /><glyph d="M110 241C110 377 183 453 281 453C331 453 378 430 414 403V86C381 58 335 32 280 32C180 32 110 113 110 241ZM417 46 427 0H461V578H538V612H461V700H414V612H254V578H414V446C376 475 328 494 275 494C151 494 64 399 64 240C64 88 150 -9 271 -9C335 -9 383 19 417 46ZM461 -124V-89H95V-124Z" glyph-name="dong" horiz-adv-x="579" unicode="&#8363;" /><glyph d="M274 601V668H226V601Z" glyph-name="dotaccent" horiz-adv-x="500" unicode="&#729;" /><glyph d="M25 756V824H-25V756Z" glyph-name="dotaccent.cap" horiz-adv-x="0" /><glyph d="M139 0V511H92V0Z" glyph-name="dotlessi" horiz-adv-x="231" unicode="&#305;" /><glyph d="M275 -10C333 -10 389 8 441 41L423 77C376 48 326 31 277 31C174 31 105 116 100 237H461V253C461 407 386 523 261 523C140 523 54 410 54 254C54 85 151 -10 275 -10ZM100 277C106 393 169 482 259 482C351 482 410 395 416 277Z" glyph-name="e" horiz-adv-x="509" unicode="e" /><glyph d="M275 -10C333 -10 389 8 441 41L423 77C376 48 326 31 277 31C174 31 105 116 100 237H461V253C461 407 386 523 261 523C140 523 54 410 54 254C54 85 151 -10 275 -10ZM100 277C106 393 169 482 259 482C351 482 410 395 416 277ZM263 595 395 710H326L224 595Z" glyph-name="eacute" horiz-adv-x="509" unicode="&#233;" /><glyph d="M275 -10C333 -10 389 8 441 41L423 77C376 48 326 31 277 31C174 31 105 116 100 237H461V253C461 407 386 523 261 523C140 523 54 410 54 254C54 85 151 -10 275 -10ZM100 277C106 393 169 482 259 482C351 482 410 395 416 277ZM263 631C220 631 197 659 191 706H159C161 639 201 593 263 593C325 593 365 639 367 706H335C329 659 306 631 263 631Z" glyph-name="ebreve" horiz-adv-x="509" unicode="&#277;" /><glyph d="M275 -10C333 -10 389 8 441 41L423 77C376 48 326 31 277 31C174 31 105 116 100 237H461V253C461 407 386 523 261 523C140 523 54 410 54 254C54 85 151 -10 275 -10ZM100 277C106 393 169 482 259 482C351 482 410 395 416 277ZM263 634 189 711H152L242 595H284L374 711H338Z" glyph-name="ecaron" horiz-adv-x="509" unicode="&#283;" /><glyph d="M275 -10C333 -10 389 8 441 41L423 77C376 48 326 31 277 31C174 31 105 116 100 237H461V253C461 407 386 523 261 523C140 523 54 410 54 254C54 85 151 -10 275 -10ZM100 277C106 393 169 482 259 482C351 482 410 395 416 277ZM263 673 337 595H374L284 711H242L152 595H188Z" glyph-name="ecircumflex" horiz-adv-x="509" unicode="&#234;" /><glyph d="M275 -10C333 -10 389 8 441 41L423 77C376 48 326 31 277 31C174 31 105 116 100 237H461V253C461 407 386 523 261 523C140 523 54 410 54 254C54 85 151 -10 275 -10ZM100 277C106 393 169 482 259 482C351 482 410 395 416 277ZM217 604V671H169V604ZM357 604V671H309V604Z" glyph-name="edieresis" horiz-adv-x="509" unicode="&#235;" /><glyph d="M275 -10C333 -10 389 8 441 41L423 77C376 48 326 31 277 31C174 31 105 116 100 237H461V253C461 407 386 523 261 523C140 523 54 410 54 254C54 85 151 -10 275 -10ZM100 277C106 393 169 482 259 482C351 482 410 395 416 277ZM287 604V671H239V604Z" glyph-name="edotaccent" horiz-adv-x="509" unicode="&#279;" /><glyph d="M275 -10C333 -10 389 8 441 41L423 77C376 48 326 31 277 31C174 31 105 116 100 237H461V253C461 407 386 523 261 523C140 523 54 410 54 254C54 85 151 -10 275 -10ZM100 277C106 393 169 482 259 482C351 482 410 395 416 277ZM263 595H302L200 710H131Z" glyph-name="egrave" horiz-adv-x="509" unicode="&#232;" /><glyph d="M287 -9C420 -9 516 74 516 184C516 280 460 337 376 367C442 393 497 442 497 532C497 629 414 709 287 709C161 709 78 629 78 532C78 442 133 393 199 367C115 337 58 280 58 184C58 74 153 -9 287 -9ZM287 387C200 387 127 442 127 525C127 603 188 665 287 665C386 665 448 603 448 525C448 442 374 387 287 387ZM287 345C388 345 467 280 467 191C467 100 393 35 287 35C181 35 107 100 107 191C107 280 186 345 287 345Z" glyph-name="eight" horiz-adv-x="574" unicode="8" /><glyph d="M202 -5C296 -5 360 44 360 110C360 166 323 201 265 219C311 235 348 264 348 317C348 375 289 424 202 424C115 424 56 375 56 317C56 264 92 235 139 219C80 201 43 166 43 110C43 44 107 -5 202 -5ZM202 234C145 234 96 265 96 311C96 356 136 390 202 390C266 390 308 356 308 311C308 265 260 234 202 234ZM202 29C133 29 83 64 83 116C83 166 134 202 202 202C268 202 320 166 320 116C320 64 272 29 202 29Z" glyph-name="eight.den" horiz-adv-x="403" /><glyph d="M202 277C296 277 360 326 360 392C360 448 323 483 265 501C311 517 348 546 348 599C348 657 289 706 202 706C115 706 56 657 56 599C56 546 92 517 139 501C80 483 43 448 43 392C43 326 107 277 202 277ZM202 516C145 516 96 547 96 593C96 638 136 672 202 672C266 672 308 638 308 593C308 547 260 516 202 516ZM202 311C133 311 83 346 83 398C83 448 134 484 202 484C268 484 320 448 320 398C320 346 272 311 202 311Z" glyph-name="eight.num" horiz-adv-x="403" /><glyph d="M282 -9C415 -9 509 73 509 184C509 280 454 337 368 367C435 393 490 442 490 532C490 629 408 709 282 709C157 709 74 629 74 532C74 442 129 393 196 367C111 337 55 280 55 184C55 73 149 -9 282 -9ZM441 525C441 442 369 387 282 387C196 387 124 442 124 525C124 604 183 665 282 665C380 665 441 604 441 525ZM460 191C460 99 388 35 282 35C177 35 104 99 104 191C104 281 181 345 282 345C383 345 460 281 460 191Z" glyph-name="eight.tab" horiz-adv-x="564" /><glyph d="M426 0V74H368V0ZM267 0V74H209V0ZM108 0V74H51V0Z" glyph-name="ellipsis" horiz-adv-x="476" unicode="&#8230;" /><glyph d="M275 -10C333 -10 389 8 441 41L423 77C376 48 326 31 277 31C174 31 105 116 100 237H461V253C461 407 386 523 261 523C140 523 54 410 54 254C54 85 151 -10 275 -10ZM100 277C106 393 169 482 259 482C351 482 410 395 416 277ZM378 610V645H148V610Z" glyph-name="emacron" horiz-adv-x="509" unicode="&#275;" /><glyph d="M759 285V328H51V285Z" glyph-name="emdash" horiz-adv-x="809" unicode="&#8212;" /><glyph d="M759 338V381H51V338Z" glyph-name="emdash.cap" horiz-adv-x="809" /><glyph d="M445 285V328H51V285Z" glyph-name="endash" horiz-adv-x="496" unicode="&#8211;" /><glyph d="M445 338V381H51V338Z" glyph-name="endash.cap" horiz-adv-x="496" /><glyph d="M356 -177C428 -123 466 -74 466 48V341C466 457 407 520 302 520C234 520 180 493 135 461L124 511H90V0H137V420C176 451 235 477 290 477C375 477 420 427 420 334V47C420 -62 387 -98 326 -148Z" glyph-name="eng" horiz-adv-x="551" unicode="&#331;" /><glyph d="M430 -145 434 -113C376 -108 362 -99 362 -82C362 -66 374 -44 440 43L423 77C376 48 326 31 277 31C174 31 105 116 100 237H461V253C461 407 386 523 261 523C140 523 54 410 54 254C54 85 151 -10 276 -10C308 -10 341 -3 382 14C330 -44 315 -70 315 -91C315 -123 342 -140 430 -145ZM416 277H100C106 393 169 482 259 482C351 482 410 395 416 277Z" glyph-name="eogonek" horiz-adv-x="509" unicode="&#281;" /><glyph d="M494 432V473H71V432ZM494 237V279H71V237Z" glyph-name="equal" horiz-adv-x="564" unicode="=" /><glyph d="M258 -9C389 -9 474 115 474 298C474 436 428 548 334 629L452 724H397L307 651C264 682 212 708 152 729L133 691C187 672 234 649 272 622L159 530H214L300 601C357 553 394 493 412 421C360 454 307 471 253 471C140 471 54 371 54 230C54 89 138 -9 258 -9ZM258 32C164 32 101 115 101 231C101 345 167 431 258 431C313 431 365 411 422 371C425 347 427 321 427 294C427 138 361 32 258 32Z" glyph-name="eth" horiz-adv-x="533" unicode="&#240;" /><glyph d="M136 186 148 515V700H98V515L110 186ZM152 0V72H93V0Z" glyph-name="exclam" horiz-adv-x="246" unicode="!" /><glyph d="M110 514 98 185V0H148V185L136 514ZM94 700V628H153V700Z" glyph-name="exclamdown" horiz-adv-x="246" unicode="&#161;" /><glyph d="M270 729C172 729 124 670 124 572V511H32V470H124V0H170V470H327V511H170V574C170 643 200 687 271 687C304 687 337 679 359 672L369 712C344 721 307 729 270 729Z" glyph-name="f" horiz-adv-x="347" unicode="f" /><glyph d="M270 729C172 729 124 670 124 572V511H32V470H124V0H170V470H327V511H170V574C170 643 200 687 271 687C300 687 329 681 351 675V718C327 724 298 729 270 729Z" glyph-name="f.lig" horiz-adv-x="347" /><glyph d="M270 729C172 729 124 670 124 572V511H32V470H124V0H170V470H327V511H170V574C170 643 200 687 271 687C304 687 337 679 359 672L369 712C344 721 307 729 270 729ZM617 729C519 729 471 670 471 572V511H379V470H471V0H517V470H674V511H517V574C517 643 547 687 618 687C651 687 684 679 706 672L716 712C691 721 654 729 617 729Z" glyph-name="f_f" horiz-adv-x="694" /><glyph d="M270 729C172 729 124 670 124 572V511H32V470H124V0H170V470H327V511H170V574C170 643 200 687 271 687C304 687 337 679 359 672L369 712C344 721 307 729 270 729ZM617 729C519 729 471 670 471 572V511H379V470H471V0H517V470H674V511H517V574C517 643 547 687 618 687C647 687 676 681 698 675V718C674 724 645 729 617 729ZM837 641V708H783V641ZM833 0V511H786V0Z" glyph-name="f_f_i" horiz-adv-x="925" /><glyph d="M270 729C172 729 124 670 124 572V511H32V470H124V0H170V470H327V511H170V574C170 643 200 687 271 687C304 687 337 679 359 672L369 712C344 721 307 729 270 729ZM617 729C519 729 471 670 471 572V511H379V470H471V0H517V470H674V511H517V574C517 643 547 687 618 687C647 687 676 681 698 675V718C674 724 645 729 617 729ZM833 0V724H786V0Z" glyph-name="f_f_l" horiz-adv-x="925" /><glyph d="M270 729C172 729 124 670 124 572V511H32V470H124V0H170V470H327V511H170V574C170 643 200 687 271 687C300 687 329 681 351 675V718C327 724 298 729 270 729ZM490 641V708H436V641ZM486 0V511H439V0Z" glyph-name="fi" horiz-adv-x="578" unicode="&#64257;" /><glyph d="M493 265C493 365 423 427 312 427C251 427 194 410 141 382L158 656H486V700H114L92 345L128 328C188 362 246 383 305 383C393 383 444 337 444 262C444 142 322 60 74 31L82 -13C356 18 493 116 493 265Z" glyph-name="five" horiz-adv-x="555" unicode="5" /><glyph d="M343 158C343 218 295 257 220 257C180 257 140 247 104 229L115 383H338V418H80L65 204L93 191C134 212 173 222 211 222C269 222 302 197 302 156C302 91 222 44 53 28L59 -8C251 10 343 69 343 158Z" glyph-name="five.den" horiz-adv-x="389" /><glyph d="M343 440C343 500 295 539 220 539C180 539 140 529 104 511L115 665H338V700H80L65 486L93 473C134 494 173 504 211 504C269 504 302 479 302 438C302 373 222 326 53 310L59 274C251 292 343 351 343 440Z" glyph-name="five.num" horiz-adv-x="389" /><glyph d="M499 263C499 364 427 427 314 427C251 427 192 410 139 380L155 656H491V700H111L89 344L126 327C187 362 246 383 307 383C397 383 449 336 449 260C449 142 324 60 72 31L80 -13C358 18 499 115 499 263Z" glyph-name="five.tab" horiz-adv-x="564" /><glyph d="M270 729C172 729 124 670 124 572V511H32V470H124V0H170V470H327V511H170V574C170 643 200 687 271 687C300 687 329 681 351 675V718C327 724 298 729 270 729ZM486 0V724H439V0Z" glyph-name="fl" horiz-adv-x="578" unicode="&#64258;" /><glyph d="M429 0V178H542V221H429V705H370L36 216L45 178H380V0ZM381 221H93L381 645Z" glyph-name="four" horiz-adv-x="576" unicode="4" /><glyph d="M307 0V101H385V135H307V422H255L29 133L32 101H268V0ZM268 135H74L268 383Z" glyph-name="four.den" horiz-adv-x="409" /><glyph d="M307 282V383H385V417H307V704H255L29 415L32 383H268V282ZM268 417H74L268 665Z" glyph-name="four.num" horiz-adv-x="409" /><glyph d="M429 0V178H529V221H429V705H367L38 217L47 178H380V0ZM380 221H95L380 649Z" glyph-name="four.tab" horiz-adv-x="564" /><glyph d="M-181 0H-142L73 342L303 700H265L49 358Z" glyph-name="fraction" horiz-adv-x="122" unicode="&#8260;" /><glyph d="M102 262C102 400 175 479 272 479C321 479 369 457 406 428V101C372 73 325 48 271 48C171 48 102 134 102 262ZM452 511H418L408 468C370 499 321 520 266 520C145 520 55 425 55 261C55 105 144 7 261 7C324 7 372 34 406 59V18C406 -83 350 -135 253 -135C199 -135 147 -122 99 -100L84 -140C136 -163 193 -176 253 -176C377 -176 452 -112 452 22Z" glyph-name="g" horiz-adv-x="542" unicode="g" /><glyph d="M102 262C102 400 175 479 272 479C321 479 369 457 406 428V101C372 73 325 48 271 48C171 48 102 134 102 262ZM452 511H418L408 468C370 499 321 520 266 520C145 520 55 425 55 261C55 105 144 7 261 7C324 7 372 34 406 59V18C406 -83 350 -135 253 -135C199 -135 147 -122 99 -100L84 -140C136 -163 193 -176 253 -176C377 -176 452 -112 452 22ZM280 631C237 631 214 659 208 706H176C178 639 218 593 280 593C342 593 382 639 384 706H352C346 659 323 631 280 631Z" glyph-name="gbreve" horiz-adv-x="542" unicode="&#287;" /><glyph d="M102 262C102 400 175 479 272 479C321 479 369 457 406 428V101C372 73 325 48 271 48C171 48 102 134 102 262ZM452 511H418L408 468C370 499 321 520 266 520C145 520 55 425 55 261C55 105 144 7 261 7C324 7 372 34 406 59V18C406 -83 350 -135 253 -135C199 -135 147 -122 99 -100L84 -140C136 -163 193 -176 253 -176C377 -176 452 -112 452 22ZM280 634 206 711H169L259 595H301L391 711H355Z" glyph-name="gcaron" horiz-adv-x="542" unicode="&#487;" /><glyph d="M102 262C102 400 175 479 272 479C321 479 369 457 406 428V101C372 73 325 48 271 48C171 48 102 134 102 262ZM452 511H418L408 468C370 499 321 520 266 520C145 520 55 425 55 261C55 105 144 7 261 7C324 7 372 34 406 59V18C406 -83 350 -135 253 -135C199 -135 147 -122 99 -100L84 -140C136 -163 193 -176 253 -176C377 -176 452 -112 452 22ZM280 673 354 595H391L301 711H259L169 595H205Z" glyph-name="gcircumflex" horiz-adv-x="542" unicode="&#285;" /><glyph d="M102 262C102 400 175 479 272 479C321 479 369 457 406 428V101C372 73 325 48 271 48C171 48 102 134 102 262ZM452 511H418L408 468C370 499 321 520 266 520C145 520 55 425 55 261C55 105 144 7 261 7C324 7 372 34 406 59V18C406 -83 350 -135 253 -135C199 -135 147 -122 99 -100L84 -140C136 -163 193 -176 253 -176C377 -176 452 -112 452 22ZM304 604V671H256V604Z" glyph-name="gdotaccent" horiz-adv-x="542" unicode="&#289;" /><glyph d="M401 -7C502 -7 568 51 568 144C568 248 492 318 353 363C447 399 519 464 519 560C519 655 443 728 325 728C190 728 124 637 124 517V511H32V470H124V0H170V517C170 614 225 687 325 687C417 687 472 629 472 558C472 479 407 415 295 381V342C453 294 522 229 522 144C522 80 476 35 397 35C357 35 313 44 267 66V21C311 1 357 -7 401 -7Z" glyph-name="germandbls" horiz-adv-x="620" unicode="&#223;" /><glyph d="M250 592H289L187 707H118Z" glyph-name="grave" horiz-adv-x="500" unicode="`" /><glyph d="M0 756H47L-59 852H-134Z" glyph-name="grave.cap" horiz-adv-x="0" /><glyph d="M72 564V516L449 355L72 194V147L501 335V376Z" glyph-name="greater" horiz-adv-x="564" unicode="&gt;" /><glyph d="M422 102 441 120 286 307 441 493 422 511 229 319V294ZM235 102 254 120 99 307 254 493 235 511 42 319V294Z" glyph-name="guillemotleft" horiz-adv-x="490" unicode="&#171;" /><glyph d="M422 155 441 173 286 360 441 546 422 564 229 372V347ZM235 155 254 173 99 360 254 546 235 564 42 372V347Z" glyph-name="guillemotleft.cap" horiz-adv-x="490" /><glyph d="M68 102 262 294V320L68 511L49 493L205 306L49 120ZM255 102 448 294V320L255 511L236 493L391 306L236 120Z" glyph-name="guillemotright" horiz-adv-x="490" unicode="&#187;" /><glyph d="M68 155 262 347V373L68 564L49 546L205 359L49 173ZM255 155 448 347V373L255 564L236 546L391 359L236 173Z" glyph-name="guillemotright.cap" horiz-adv-x="490" /><glyph d="M235 102 254 120 99 307 254 493 235 511 42 319V294Z" glyph-name="guilsinglleft" horiz-adv-x="304" unicode="&#8249;" /><glyph d="M235 155 254 173 99 360 254 546 235 564 42 372V347Z" glyph-name="guilsinglleft.cap" horiz-adv-x="304" /><glyph d="M68 102 262 294V320L68 511L49 493L205 306L49 120Z" glyph-name="guilsinglright" horiz-adv-x="304" unicode="&#8250;" /><glyph d="M68 155 262 347V373L68 564L49 546L205 359L49 173Z" glyph-name="guilsinglright.cap" horiz-adv-x="304" /><glyph d="M137 420C176 451 235 477 290 477C375 477 420 427 420 334V0H466V341C466 457 407 520 302 520C236 520 182 495 137 462V724H90V0H137Z" glyph-name="h" horiz-adv-x="551" unicode="h" /><glyph d="M137 413C176 444 235 470 290 470C375 470 420 420 420 327V0H466V334C466 451 407 513 302 513C236 513 182 488 137 455V591H298V626H137V724H90V626H19V591H90V0H137Z" glyph-name="hbar" horiz-adv-x="551" unicode="&#295;" /><glyph d="M137 420C176 451 235 477 290 477C375 477 420 427 420 334V0H466V341C466 457 407 520 302 520C236 520 182 495 137 462V724H90V0H137ZM113 847 187 769H224L134 885H92L2 769H38Z" glyph-name="hcircumflex" horiz-adv-x="551" unicode="&#293;" /><glyph d="M190 592 318 707H255L153 592ZM322 592 449 707H387L284 592Z" glyph-name="hungarumlaut" horiz-adv-x="500" unicode="&#733;" /><glyph d="M-61 756 69 852H2L-105 756ZM73 756 203 852H135L29 756Z" glyph-name="hungarumlaut.cap" horiz-adv-x="0" /><glyph d="M294 284V329H51V284Z" glyph-name="hyphen" horiz-adv-x="344" unicode="-" /><glyph d="M294 337V382H51V337Z" glyph-name="hyphen.cap" horiz-adv-x="344" /><glyph d="M143 641V708H89V641ZM139 0V511H92V0Z" glyph-name="i" horiz-adv-x="231" unicode="i" /><glyph d="M139 0V511H92V0ZM140 601V668H92V601Z" glyph-name="i.dot" horiz-adv-x="231" /><glyph d="M139 0V511H92V0ZM116 592 248 707H179L77 592Z" glyph-name="iacute" horiz-adv-x="231" unicode="&#237;" /><glyph d="M139 0V511H92V0ZM116 628C73 628 50 656 44 703H12C14 636 54 590 116 590C178 590 218 636 220 703H188C182 656 159 628 116 628Z" glyph-name="ibreve" horiz-adv-x="231" unicode="&#301;" /><glyph d="M139 0V511H92V0ZM116 670 190 592H227L137 708H95L5 592H41Z" glyph-name="icircumflex" horiz-adv-x="231" unicode="&#238;" /><glyph d="M139 0V511H92V0ZM70 601V668H22V601ZM210 601V668H162V601Z" glyph-name="idieresis" horiz-adv-x="231" unicode="&#239;" /><glyph d="M139 0V511H92V0ZM116 592H155L53 707H-16Z" glyph-name="igrave" horiz-adv-x="231" unicode="&#236;" /><glyph d="M139 0V511H92V0ZM216 607V642H16V607Z" glyph-name="imacron" horiz-adv-x="231" unicode="&#299;" /><glyph d="M143 641V708H89V641ZM162 -113C104 -108 90 -99 90 -82C90 -69 99 -51 136 0H139V511H92V0H99C57 -48 43 -71 43 -91C43 -123 70 -140 158 -145Z" glyph-name="iogonek" horiz-adv-x="231" unicode="&#303;" /><glyph d="M139 0V511H92V0ZM20 590C38 632 50 642 64 642C74 642 82 638 112 619C144 598 157 592 174 592C207 592 225 615 249 672L219 682C200 640 189 630 175 630C164 630 157 634 127 653C95 674 82 681 65 681C32 681 14 658 -10 601Z" glyph-name="itilde" horiz-adv-x="231" unicode="&#297;" /><glyph d="M144 641V708H90V641ZM28 -177C101 -123 140 -75 140 48V511H93V47C93 -62 61 -98 -1 -148Z" glyph-name="j" horiz-adv-x="231" unicode="j" /><glyph d="M28 -177C101 -123 140 -75 140 48V511H93V47C93 -62 61 -98 -1 -148ZM117 670 191 592H228L138 708H96L6 592H42Z" glyph-name="jcircumflex" horiz-adv-x="231" unicode="&#309;" /><glyph d="M137 724H90V0H137V253H154L398 0H461L201 266L455 511H392L153 278H137Z" glyph-name="k" horiz-adv-x="480" unicode="k" /><glyph d="M139 0V724H92V0Z" glyph-name="l" horiz-adv-x="231" unicode="l" /><glyph d="M139 0V724H92V0ZM116 787 248 902H179L77 787Z" glyph-name="lacute" horiz-adv-x="231" unicode="&#314;" /><glyph d="M139 0V724H92V0ZM265 725H227V696C227 653 222 624 206 591L223 581C251 619 265 650 265 704Z" glyph-name="lcaron" horiz-adv-x="231" unicode="&#318;" /><glyph d="M493 147V195L116 356L493 517V564L63 376V335Z" glyph-name="less" horiz-adv-x="564" unicode="&lt;" /><glyph d="M105 -1 152 1V355L227 398V441L152 397V725L105 724V372L30 330V287L105 330Z" glyph-name="lslash" horiz-adv-x="257" unicode="&#322;" /><glyph d="M784 0V342C784 459 723 520 620 520C553 520 490 489 435 450C409 496 363 520 300 520C233 520 180 493 135 461L124 511H90V0H137V420C176 451 233 477 287 477C370 477 414 427 414 335V0H461V339C461 368 456 393 448 414C498 451 556 477 607 477C692 477 738 427 738 335V0Z" glyph-name="m" horiz-adv-x="869" unicode="m" /><glyph d="M365 607V642H135V607Z" glyph-name="macron" horiz-adv-x="500" unicode="&#175;" /><glyph d="M132 762V799H-132V762Z" glyph-name="macron.cap" horiz-adv-x="0" /><glyph d="M115 762V799H-115V762Z" glyph-name="macron.capnrw" horiz-adv-x="0" /><glyph d="M100 607V642H-100V607Z" glyph-name="macron.nrw" horiz-adv-x="0" /><glyph d="M56 336V409H5V336Z" glyph-name="middotcat" horiz-adv-x="61" /><glyph d="M56 330V407H0V330Z" glyph-name="middotcat.cap" horiz-adv-x="167" /><glyph d="M503 334V377H61V334Z" glyph-name="minus" horiz-adv-x="564" unicode="&#8722;" /><glyph d="M449 157 480 188 312 355 480 523 450 553 282 385 115 553 85 522 253 355 85 187 114 157 282 325Z" glyph-name="multiply" horiz-adv-x="564" unicode="&#215;" /><glyph d="M137 420C176 451 235 477 290 477C375 477 420 427 420 334V0H466V341C466 457 407 520 302 520C234 520 180 493 135 461L124 511H90V0H137Z" glyph-name="n" horiz-adv-x="551" unicode="n" /><glyph d="M137 420C176 451 235 477 290 477C375 477 420 427 420 334V0H466V341C466 457 407 520 302 520C234 520 180 493 135 461L124 511H90V0H137ZM276 595 408 710H339L237 595Z" glyph-name="nacute" horiz-adv-x="551" unicode="&#324;" /><glyph d="M137 420C176 451 235 477 290 477C375 477 420 427 420 334V0H466V341C466 457 407 520 302 520C234 520 180 493 135 461L124 511H90V0H137ZM276 634 202 711H165L255 595H297L387 711H351Z" glyph-name="ncaron" horiz-adv-x="551" unicode="&#328;" /><glyph d="M272 710C147 710 59 616 59 480C59 344 144 267 267 267C324 267 382 284 431 309C399 192 311 97 148 22L170 -17C391 81 494 238 494 429C494 600 406 710 272 710ZM269 667C379 667 445 570 445 431C445 404 443 378 439 354C389 330 328 310 278 310C176 310 108 370 108 483C108 592 178 667 269 667Z" glyph-name="nine" horiz-adv-x="560" unicode="9" /><glyph d="M194 424C105 424 43 366 43 286C43 210 102 158 188 158C227 158 266 169 300 186C278 119 221 65 108 23L123 -10C277 46 349 138 349 255C349 360 287 424 194 424ZM193 390C263 390 309 340 309 258C309 244 308 231 306 218C272 201 232 192 198 192C129 192 84 229 84 288C84 348 131 390 193 390Z" glyph-name="nine.den" horiz-adv-x="397" /><glyph d="M194 706C105 706 43 648 43 568C43 492 102 440 188 440C227 440 266 451 300 468C278 401 221 347 108 305L123 272C277 328 349 420 349 537C349 642 287 706 194 706ZM193 672C263 672 309 622 309 540C309 526 308 513 306 500C272 483 232 474 198 474C129 474 84 511 84 570C84 630 131 672 193 672Z" glyph-name="nine.num" horiz-adv-x="397" /><glyph d="M274 710C146 710 57 616 57 480C57 344 142 267 268 267C326 267 386 284 437 311C405 193 317 97 151 22L173 -17C397 81 499 238 499 429C499 600 412 710 274 710ZM272 667C384 667 450 570 450 431C450 405 448 380 444 356C392 330 330 310 278 310C174 310 106 371 106 483C106 593 178 667 272 667Z" glyph-name="nine.tab" horiz-adv-x="564" /><glyph d="M494 238V278H259L347 432H494V472H372L444 597H399L327 472H71V432H306L217 278H71V238H192L121 114H165L237 238Z" glyph-name="notequal" horiz-adv-x="564" unicode="&#8800;" /><glyph d="M137 420C176 451 235 477 290 477C375 477 420 427 420 334V0H466V341C466 457 407 520 302 520C234 520 180 493 135 461L124 511H90V0H137ZM180 593C198 635 210 645 224 645C234 645 242 641 272 622C304 601 317 595 334 595C367 595 385 618 409 675L379 685C360 643 349 633 335 633C324 633 317 637 287 656C255 677 242 684 225 684C192 684 174 661 150 604Z" glyph-name="ntilde" horiz-adv-x="551" unicode="&#241;" /><glyph d="M369 246 218 253 251 455 403 448ZM328 -5H366L401 205L537 199V239L407 245L440 447L574 441V480L447 486L483 705H445L409 487L257 494L292 705H254L220 496L83 502V462L213 456L180 255L45 261V221L173 215L137 -5H175L211 214L363 207Z" glyph-name="numbersign" horiz-adv-x="620" unicode="#" /><glyph d="M482 256C482 414 391 523 269 523C147 523 54 413 54 255C54 96 145 -12 267 -12C390 -12 482 97 482 256ZM435 255C435 123 365 29 268 29C171 29 101 123 101 256C101 388 171 481 268 481C365 481 435 387 435 255Z" glyph-name="o" horiz-adv-x="536" unicode="o" /><glyph d="M482 256C482 414 391 523 269 523C147 523 54 413 54 255C54 96 145 -12 267 -12C390 -12 482 97 482 256ZM435 255C435 123 365 29 268 29C171 29 101 123 101 256C101 388 171 481 268 481C365 481 435 387 435 255ZM268 595 400 710H331L229 595Z" glyph-name="oacute" horiz-adv-x="536" unicode="&#243;" /><glyph d="M482 256C482 414 391 523 269 523C147 523 54 413 54 255C54 96 145 -12 267 -12C390 -12 482 97 482 256ZM435 255C435 123 365 29 268 29C171 29 101 123 101 256C101 388 171 481 268 481C365 481 435 387 435 255ZM268 631C225 631 202 659 196 706H164C166 639 206 593 268 593C330 593 370 639 372 706H340C334 659 311 631 268 631Z" glyph-name="obreve" horiz-adv-x="536" unicode="&#335;" /><glyph d="M482 256C482 414 391 523 269 523C147 523 54 413 54 255C54 96 145 -12 267 -12C390 -12 482 97 482 256ZM435 255C435 123 365 29 268 29C171 29 101 123 101 256C101 388 171 481 268 481C365 481 435 387 435 255ZM268 673 342 595H379L289 711H247L157 595H193Z" glyph-name="ocircumflex" horiz-adv-x="536" unicode="&#244;" /><glyph d="M482 256C482 414 391 523 269 523C147 523 54 413 54 255C54 96 145 -12 267 -12C390 -12 482 97 482 256ZM435 255C435 123 365 29 268 29C171 29 101 123 101 256C101 388 171 481 268 481C365 481 435 387 435 255ZM222 604V671H174V604ZM362 604V671H314V604Z" glyph-name="odieresis" horiz-adv-x="536" unicode="&#246;" /><glyph d="M483 277C489 393 552 482 642 482C734 482 793 395 799 277ZM435 255C435 123 365 29 268 29C171 29 101 123 101 256C101 388 171 481 268 481C365 481 435 387 435 255ZM659 -10C716 -10 772 8 824 41L806 77C759 48 709 31 660 31C557 31 488 116 483 237H844V253C844 407 769 523 644 523C555 523 489 462 459 368C428 464 356 523 268 523C146 523 54 413 54 255C54 96 145 -12 267 -12C356 -12 428 46 459 142C490 44 565 -10 659 -10Z" glyph-name="oe" horiz-adv-x="892" unicode="&#339;" /><glyph d="M297 -113C239 -108 225 -99 225 -82C225 -69 234 -51 272 1L244 11C194 -44 178 -70 178 -91C178 -123 205 -140 293 -145Z" glyph-name="ogonek" horiz-adv-x="500" unicode="&#731;" /><glyph d="M482 256C482 414 391 523 269 523C147 523 54 413 54 255C54 96 145 -12 267 -12C390 -12 482 97 482 256ZM435 255C435 123 365 29 268 29C171 29 101 123 101 256C101 388 171 481 268 481C365 481 435 387 435 255ZM268 595H307L205 710H136Z" glyph-name="ograve" horiz-adv-x="536" unicode="&#242;" /><glyph d="M267 -12C389 -12 482 97 482 256C482 365 437 446 368 487C436 491 479 529 479 587C479 605 475 622 466 638L429 625C435 612 438 600 438 587C438 541 401 515 330 515C310 515 289 518 269 518C147 518 54 411 54 255C54 96 146 -12 267 -12ZM435 255C435 123 364 29 268 29C172 29 101 123 101 256C101 386 172 477 268 477C364 477 435 385 435 255Z" glyph-name="ohorn" horiz-adv-x="536" unicode="&#417;" /><glyph d="M482 256C482 414 391 523 269 523C147 523 54 413 54 255C54 96 145 -12 267 -12C390 -12 482 97 482 256ZM435 255C435 123 365 29 268 29C171 29 101 123 101 256C101 388 171 481 268 481C365 481 435 387 435 255ZM208 595 336 710H273L171 595ZM340 595 467 710H405L302 595Z" glyph-name="ohungarumlaut" horiz-adv-x="536" unicode="&#337;" /><glyph d="M482 256C482 414 391 523 269 523C147 523 54 413 54 255C54 96 145 -12 267 -12C390 -12 482 97 482 256ZM435 255C435 123 365 29 268 29C171 29 101 123 101 256C101 388 171 481 268 481C365 481 435 387 435 255ZM383 610V645H153V610Z" glyph-name="omacron" horiz-adv-x="536" unicode="&#333;" /><glyph d="M268 0V705H228L45 622L59 583L219 651V0Z" glyph-name="one" horiz-adv-x="401" unicode="1" /><glyph d="M208 0V422H176L34 363L46 329L167 376V0Z" glyph-name="one.den" horiz-adv-x="301" /><glyph d="M208 282V704H176L34 645L46 611L167 658V282Z" glyph-name="one.num" horiz-adv-x="301" /><glyph d="M495 0V43H321V705H281L87 618L101 579L272 651V43H84V0Z" glyph-name="one.tab" horiz-adv-x="564" /><glyph d="M208 282V704H176L34 645L46 611L167 658V282ZM149 0H188L403 342L633 700H595L379 358ZM811 0V36H570L717 179C775 234 799 271 799 317C799 382 747 423 673 423C613 423 561 395 522 347L546 320C583 363 624 387 670 387C723 387 757 358 757 314C757 278 735 248 690 204L510 30L519 0Z" glyph-name="onehalf" horiz-adv-x="850" unicode="&#189;" /><glyph d="M208 282V704H176L34 645L46 611L167 658V282ZM149 0H188L403 342L633 700H595L379 358ZM733 0V101H811V135H733V422H681L455 133L458 101H694V0ZM694 135H500L694 383Z" glyph-name="onequarter" horiz-adv-x="835" unicode="&#188;" /><glyph d="M208 282V704H176L34 645L46 611L167 658V282ZM149 0H188L403 342L633 700H595L379 358ZM532 -4C719 1 821 46 821 125C821 181 769 214 673 221C763 248 815 282 815 337C815 387 768 424 687 424C630 424 577 407 532 380L549 348C589 373 636 388 682 388C741 388 774 364 774 332C774 288 717 256 598 228L603 199C730 197 779 171 779 126C779 74 703 36 532 31Z" glyph-name="onethird" horiz-adv-x="867" unicode="&#8531;" /><glyph d="M180 406C133 406 105 433 105 474C105 515 139 547 218 547C225 547 285 547 292 545V450C259 423 215 406 180 406ZM294 421 308 380H337L329 441V605C329 670 292 705 214 705C170 705 130 695 94 681L105 650C137 663 175 673 211 673C271 673 292 647 292 604V573C285 575 225 576 217 576C112 576 68 532 68 472C68 412 112 376 173 376C217 376 257 393 294 421ZM344 275V303H61V275Z" glyph-name="ordfeminine" horiz-adv-x="408" unicode="&#170;" /><glyph d="M204 706C119 706 58 636 58 539C58 442 119 372 204 372C289 372 350 442 350 539C350 636 289 706 204 706ZM204 404C140 404 94 463 94 539C94 616 140 674 204 674C268 674 314 616 314 539C314 462 268 404 204 404ZM345 275V303H63V275Z" glyph-name="ordmasculine" horiz-adv-x="408" unicode="&#186;" /><glyph d="M101 256C101 388 172 482 268 482C304 482 337 469 363 445L149 91C119 132 101 189 101 256ZM268 29C232 29 199 42 173 66L387 419C417 379 435 322 435 255C435 123 365 29 268 29ZM267 -12C390 -12 482 97 482 256C482 340 456 410 414 457L481 562H437L387 483C354 509 313 523 269 523C147 523 54 413 54 255C54 170 80 100 122 53L55 -52H99L150 28C183 2 223 -12 267 -12Z" glyph-name="oslash" horiz-adv-x="536" unicode="&#248;" /><glyph d="M101 256C101 388 172 482 268 482C304 482 337 469 363 445L149 91C119 132 101 189 101 256ZM268 29C232 29 199 42 173 66L387 419C417 379 435 322 435 255C435 123 365 29 268 29ZM267 -12C390 -12 482 97 482 256C482 340 456 410 414 457L481 562H437L387 483C354 509 313 523 269 523C147 523 54 413 54 255C54 170 80 100 122 53L55 -52H99L150 28C183 2 223 -12 267 -12ZM268 595 400 710H331L229 595Z" glyph-name="oslashacute" horiz-adv-x="536" unicode="&#511;" /><glyph d="M482 256C482 414 391 523 269 523C147 523 54 413 54 255C54 96 145 -12 267 -12C390 -12 482 97 482 256ZM435 255C435 123 365 29 268 29C171 29 101 123 101 256C101 388 171 481 268 481C365 481 435 387 435 255ZM172 593C190 635 202 645 216 645C226 645 234 641 264 622C296 601 309 595 326 595C359 595 377 618 401 675L371 685C352 643 341 633 327 633C316 633 309 637 279 656C247 677 234 684 217 684C184 684 166 661 142 604Z" glyph-name="otilde" horiz-adv-x="536" unicode="&#245;" /><glyph d="M270 31C220 31 173 55 137 83V425C170 454 216 479 270 479C371 479 440 393 440 257C440 111 368 31 270 31ZM137 39C175 10 223 -10 276 -10C400 -10 487 90 487 258C487 418 402 520 281 520C216 520 168 492 134 464L124 511H90V-173H137Z" glyph-name="p" horiz-adv-x="542" unicode="p" /><glyph d="M442 0V700H289C142 700 48 622 48 489C48 354 148 279 287 281V662H401V0Z" glyph-name="paragraph" horiz-adv-x="548" unicode="&#182;" /><glyph d="M353 -93C208 4 120 125 120 304C120 483 208 604 353 701L335 727C175 632 73 496 73 304C73 112 175 -24 335 -119Z" glyph-name="parenleft" horiz-adv-x="401" unicode="(" /><glyph d="M353 -48C208 49 120 170 120 349C120 528 208 649 353 746L335 772C175 677 73 541 73 349C73 157 175 21 335 -74Z" glyph-name="parenleft.cap" horiz-adv-x="401" /><glyph d="M47 -93 66 -119C225 -24 327 112 327 304C327 496 225 632 66 727L47 701C193 604 281 483 281 304C281 125 193 4 47 -93Z" glyph-name="parenright" horiz-adv-x="401" unicode=")" /><glyph d="M47 -48 66 -74C225 21 327 157 327 349C327 541 225 677 66 772L47 746C193 649 281 528 281 349C281 170 193 49 47 -48Z" glyph-name="parenright.cap" horiz-adv-x="401" /><glyph d="M564 694 531 710 336 356 132 6 165 -10 360 344ZM311 530C311 636 254 706 185 706C116 706 60 636 60 530C60 424 116 354 185 354C254 354 311 424 311 530ZM274 530C274 445 236 389 185 389C135 389 97 445 97 530C97 615 135 672 185 672C236 672 274 615 274 530ZM637 170C637 276 580 346 511 346C442 346 385 276 385 170C385 64 442 -6 511 -6C580 -6 637 64 637 170ZM600 170C600 85 561 28 511 28C461 28 422 85 422 170C422 255 461 311 511 311C561 311 600 255 600 170Z" glyph-name="percent" horiz-adv-x="697" unicode="%" /><glyph d="M109 0V75H51V0Z" glyph-name="period" horiz-adv-x="160" unicode="." /><glyph d="M170 0V75H112V0Z" glyph-name="period.tab" horiz-adv-x="282" /><glyph d="M304 129V335H503V376H304V582H260V376H61V335H260V129Z" glyph-name="plus" horiz-adv-x="564" unicode="+" /><glyph d="M304 157V351H493V392H304V587H260V392H71V351H260V157ZM493 0V41H71V0Z" glyph-name="plusminus" horiz-adv-x="564" unicode="&#177;" /><glyph d="M452 -173V511H418L408 468C370 498 321 520 266 520C142 520 55 421 55 253C55 92 140 -10 262 -10C325 -10 372 17 406 44V-173ZM272 31C171 31 102 117 102 254C102 399 174 479 272 479C322 479 369 456 406 428V86C372 57 327 31 272 31Z" glyph-name="q" horiz-adv-x="542" unicode="q" /><glyph d="M479 548C479 648 397 710 282 710C195 710 119 678 47 627L70 590C133 634 204 665 279 665C368 665 431 618 431 545C431 466 368 414 217 352L227 186H254L261 326C402 387 479 447 479 548ZM270 0V72H211V0Z" glyph-name="question" horiz-adv-x="531" unicode="?" /><glyph d="M52 152C52 52 134 -10 249 -10C336 -10 412 22 484 73L461 110C398 66 327 35 252 35C163 35 100 82 100 155C100 234 163 286 314 348L304 514H277L270 374C129 313 52 253 52 152ZM261 700V628H320V700Z" glyph-name="questiondown" horiz-adv-x="531" unicode="&#191;" /><glyph d="M330 699V700H267L205 486L226 478ZM177 699V700H113L51 486L73 478Z" glyph-name="quotedbl" horiz-adv-x="366" unicode="&quot;" /><glyph d="M473 699V700H406L319 488L341 478ZM261 699V700H194L107 488L129 478Z" glyph-name="quotedbl.tab" horiz-adv-x="564" /><glyph d="M264 75H210C210 -15 194 -66 148 -133L165 -147C232 -78 264 -16 264 67ZM109 75H56C56 -15 40 -66 -6 -133L11 -147C77 -78 109 -16 109 67Z" glyph-name="quotedblbase" horiz-adv-x="313" unicode="&#8222;" /><glyph d="M39 507H93C93 597 108 647 155 714L138 728C71 659 39 597 39 514ZM193 507H247C247 597 263 647 309 714L292 728C225 659 193 597 193 514Z" glyph-name="quotedblleft" horiz-adv-x="333" unicode="&#8220;" /><glyph d="M294 724H240C240 635 224 584 178 517L195 503C262 572 294 634 294 717ZM139 724H86C86 635 70 584 24 517L41 503C107 572 139 634 139 717Z" glyph-name="quotedblright" horiz-adv-x="333" unicode="&#8221;" /><glyph d="M39 507H94C94 597 110 647 156 714L139 728C72 660 39 597 39 514Z" glyph-name="quoteleft" horiz-adv-x="180" unicode="&#8216;" /><glyph d="M141 724H86C86 634 70 584 24 517L41 503C108 571 141 634 141 717Z" glyph-name="quoteright" horiz-adv-x="180" unicode="&#8217;" /><glyph d="M111 75H56C56 -15 40 -66 -6 -133L11 -147C78 -78 111 -16 111 67Z" glyph-name="quotesinglbase" horiz-adv-x="160" unicode="&#8218;" /><glyph d="M178 699V700H113L51 486L73 478Z" glyph-name="quotesingle" horiz-adv-x="214" unicode="'" /><glyph d="M224 699V700H158L74 488L95 478Z" glyph-name="quotesingle.tab" horiz-adv-x="282" /><glyph d="M137 0V386C191 435 254 466 331 468V515C247 515 183 479 134 426L124 511H90V0Z" glyph-name="r" horiz-adv-x="364" unicode="r" /><glyph d="M137 0V386C191 435 254 466 331 468V515C247 515 183 479 134 426L124 511H90V0ZM199 592 331 707H262L160 592Z" glyph-name="racute" horiz-adv-x="364" unicode="&#341;" /><glyph d="M137 0V386C191 435 254 466 331 468V515C247 515 183 479 134 426L124 511H90V0ZM199 631 125 708H88L178 592H220L310 708H274Z" glyph-name="rcaron" horiz-adv-x="364" unicode="&#345;" /><glyph d="M202 709C114 709 47 638 47 542C47 446 114 375 202 375C290 375 358 446 358 542C358 638 290 709 202 709ZM202 390C124 390 64 455 64 542C64 630 124 694 202 694C281 694 341 630 341 542C341 455 281 390 202 390ZM166 544V609H206C232 609 244 598 244 581C244 558 223 544 190 544ZM166 524H182C198 524 206 520 216 508L257 462H287L241 513C232 524 228 528 220 531C244 538 268 553 268 583C268 611 246 629 208 629H143V462H166Z" glyph-name="registered" horiz-adv-x="405" unicode="&#174;" /><glyph d="M158 674C158 624 196 585 250 585C304 585 342 624 342 674C342 724 304 763 250 763C196 763 158 724 158 674ZM187 674C187 710 213 738 250 738C287 738 313 710 313 674C313 638 287 610 250 610C213 610 187 638 187 674Z" glyph-name="ring" horiz-adv-x="500" unicode="&#730;" /><glyph d="M-97 839C-97 790 -58 749 -1 749C56 749 97 790 97 839C97 888 58 930 1 930C-56 930 -97 888 -97 839ZM-67 839C-67 875 -40 904 0 904C40 904 67 875 67 839C67 804 40 775 0 775C-40 775 -67 804 -67 839Z" glyph-name="ring.cap" horiz-adv-x="0" /><glyph d="M116 863H46L-41 788H4ZM-92 671C-92 623 -54 585 0 585C54 585 92 623 92 671C92 719 54 756 0 756C-54 756 -92 719 -92 671ZM-63 671C-63 705 -37 731 0 731C37 731 63 705 63 671C63 637 37 610 0 610C-37 610 -63 637 -63 671Z" glyph-name="ringacute" horiz-adv-x="0" /><glyph d="M416 130C416 201 380 242 251 281C150 313 115 338 115 391C115 441 160 479 233 479C284 479 335 463 377 440L395 480C347 504 293 520 234 520C136 520 70 465 70 387C70 311 117 275 234 240C342 207 370 177 370 127C370 70 318 32 239 32C177 32 115 51 64 80L47 40C101 10 170 -10 238 -10C341 -10 416 41 416 130Z" glyph-name="s" horiz-adv-x="472" unicode="s" /><glyph d="M416 130C416 201 380 242 251 281C150 313 115 338 115 391C115 441 160 479 233 479C284 479 335 463 377 440L395 480C347 504 293 520 234 520C136 520 70 465 70 387C70 311 117 275 234 240C342 207 370 177 370 127C370 70 318 32 239 32C177 32 115 51 64 80L47 40C101 10 170 -10 238 -10C341 -10 416 41 416 130ZM242 595 374 710H305L203 595Z" glyph-name="sacute" horiz-adv-x="472" unicode="&#347;" /><glyph d="M416 130C416 201 380 242 251 281C150 313 115 338 115 391C115 441 160 479 233 479C284 479 335 463 377 440L395 480C347 504 293 520 234 520C136 520 70 465 70 387C70 311 117 275 234 240C342 207 370 177 370 127C370 70 318 32 239 32C177 32 115 51 64 80L47 40C101 10 170 -10 238 -10C341 -10 416 41 416 130ZM242 634 168 711H131L221 595H263L353 711H317Z" glyph-name="scaron" horiz-adv-x="472" unicode="&#353;" /><glyph d="M416 130C416 201 380 242 251 281C150 313 115 338 115 391C115 441 160 479 233 479C284 479 335 463 377 440L395 480C347 504 293 520 234 520C136 520 70 465 70 387C70 311 117 275 234 240C342 207 370 177 370 127C370 70 318 32 239 32C177 32 115 51 64 80L47 40C101 10 170 -10 238 -10C341 -10 416 41 416 130ZM242 673 316 595H353L263 711H221L131 595H167Z" glyph-name="scircumflex" horiz-adv-x="472" unicode="&#349;" /><glyph d="M270 241C129 289 103 318 103 358C103 404 157 446 250 480C266 473 285 466 306 459C447 411 473 382 473 342C473 296 419 254 326 220C309 227 291 234 270 241ZM283 -7C385 -7 447 41 447 101C447 142 428 170 370 200C460 236 519 282 519 345C519 403 487 441 327 496C204 542 175 564 175 601C175 637 215 667 292 667C341 667 405 651 450 632L464 672C418 691 353 707 293 707C190 707 129 659 129 599C129 558 148 530 206 500C116 464 57 418 57 355C57 297 89 259 249 204C372 158 401 137 401 99C401 63 361 33 284 33C235 33 171 49 126 68L112 28C158 9 223 -7 283 -7Z" glyph-name="section" horiz-adv-x="576" unicode="&#167;" /><glyph d="M116 436V511H57V436ZM116 75H60C60 -15 45 -66 -1 -133L16 -147C83 -78 116 -16 116 67Z" glyph-name="semicolon" horiz-adv-x="170" unicode=";" /><glyph d="M163 -8 481 655V700H53V656H431L117 10Z" glyph-name="seven" horiz-adv-x="530" unicode="7" /><glyph d="M124 -5 335 379V418H44V382H292L86 11Z" glyph-name="seven.den" horiz-adv-x="369" /><glyph d="M124 277 335 661V700H44V664H292L86 293Z" glyph-name="seven.num" horiz-adv-x="369" /><glyph d="M184 -7 509 655V700H60V656H458L138 10Z" glyph-name="seven.tab" horiz-adv-x="564" /><glyph d="M288 -10C413 -10 501 84 501 220C501 356 416 433 293 433C236 433 178 416 129 391C161 508 249 603 412 678L390 717C169 619 66 462 66 271C66 100 154 -10 288 -10ZM291 33C181 33 115 130 115 269C115 296 117 322 121 346C171 370 232 390 282 390C384 390 452 330 452 217C452 108 382 33 291 33Z" glyph-name="six" horiz-adv-x="560" unicode="6" /><glyph d="M203 -6C292 -6 354 52 354 132C354 208 295 260 209 260C170 260 131 249 97 232C119 299 176 353 289 395L274 428C120 372 48 280 48 163C48 58 110 -6 203 -6ZM204 28C134 28 88 78 88 160C88 174 89 187 91 200C125 217 165 226 199 226C268 226 313 189 313 130C313 70 266 28 204 28Z" glyph-name="six.den" horiz-adv-x="397" /><glyph d="M203 276C292 276 354 334 354 414C354 490 295 542 209 542C170 542 131 531 97 514C119 581 176 635 289 677L274 710C120 654 48 562 48 445C48 340 110 276 203 276ZM204 310C134 310 88 360 88 442C88 456 89 469 91 482C125 499 165 508 199 508C268 508 313 471 313 412C313 352 266 310 204 310Z" glyph-name="six.num" horiz-adv-x="397" /><glyph d="M290 -10C418 -10 507 84 507 220C507 356 422 433 296 433C238 433 178 416 127 389C159 507 247 603 413 678L391 717C167 619 65 462 65 271C65 100 152 -10 290 -10ZM292 33C180 33 114 130 114 269C114 295 116 320 120 344C172 370 234 390 286 390C390 390 458 329 458 217C458 107 386 33 292 33Z" glyph-name="six.tab" horiz-adv-x="564" /><glyph d="M357 795H316L-2 -130H39Z" glyph-name="slash" horiz-adv-x="367" unicode="/" /><glyph d="M362 811H321L3 -114H44Z" glyph-name="slash.cap" horiz-adv-x="367" /><glyph d="M536 811H492L27 -114H71Z" glyph-name="slash.tab" horiz-adv-x="564" /><glyph glyph-name="space" horiz-adv-x="189" unicode=" " /><glyph glyph-name="space.cap" horiz-adv-x="209" /><glyph d="M506 43H121C164 87 191 137 201 230L211 327H437V369H216L229 491C234 547 251 594 280 622C306 648 342 663 388 663C426 663 467 652 496 641L509 685C473 698 432 708 387 708C326 708 280 689 244 653C208 617 188 565 180 498L167 369H65V327H163L154 235C144 140 110 82 57 36L68 0H506Z" glyph-name="sterling" horiz-adv-x="567" unicode="&#163;" /><glyph d="M511 43H117C162 86 189 137 200 230L210 327H441V369H215L228 491C234 550 251 593 279 621C306 648 343 663 389 663C428 663 470 652 499 639L513 682C476 698 434 708 387 708C327 708 279 689 243 653C207 617 187 568 180 498L166 369H63V327H162L152 235C143 141 108 82 55 36L66 0H511Z" glyph-name="sterling.tab" horiz-adv-x="564" /><glyph d="M262 -8C290 -8 314 -4 336 2V44C313 37 291 34 269 34C204 34 166 71 166 144V470H335V511H166V666H119V511H33V470H119V138C119 41 172 -8 262 -8Z" glyph-name="t" horiz-adv-x="383" unicode="t" /><glyph d="M336 2V43C313 36 291 33 269 33C204 33 166 70 166 143V253H295V288H166V470H335V511H166V666H119V511H33V470H119V288H45V253H119V138C119 41 172 -8 262 -8C290 -8 314 -4 336 2Z" glyph-name="tbar" horiz-adv-x="383" unicode="&#359;" /><glyph d="M262 -8C290 -8 314 -4 336 2V44C313 37 291 34 269 34C204 34 166 71 166 144V470H335V511H166V666H119V511H33V470H119V138C119 41 172 -8 262 -8ZM292 721H254V692C254 649 249 620 233 587L250 577C278 615 292 646 292 700Z" glyph-name="tcaron" horiz-adv-x="383" unicode="&#357;" /><glyph d="M270 31C220 31 173 55 137 83V425C170 454 216 479 270 479C371 479 440 393 440 257C440 111 368 31 270 31ZM137 39C175 10 223 -10 276 -10C400 -10 487 90 487 258C487 418 402 520 280 520C217 520 171 493 137 466V724H90V-173H137Z" glyph-name="thorn" horiz-adv-x="542" unicode="&#254;" /><glyph d="M60 -7C318 1 480 73 480 208C480 306 399 358 259 370C390 416 472 474 472 568C472 649 401 708 283 708C203 708 128 683 60 644L79 605C140 641 211 664 278 664C370 664 422 624 422 563C422 485 332 425 157 378L164 340C353 336 430 290 430 208C430 111 310 44 60 37Z" glyph-name="three" horiz-adv-x="545" unicode="3" /><glyph d="M47 -4C234 1 336 46 336 125C336 181 284 214 188 221C278 248 330 282 330 337C330 387 283 424 202 424C145 424 92 407 47 380L64 348C104 373 151 388 197 388C256 388 289 364 289 332C289 288 232 256 113 228L118 199C245 197 294 171 294 126C294 74 218 36 47 31Z" glyph-name="three.den" horiz-adv-x="382" /><glyph d="M47 278C234 283 336 328 336 407C336 463 284 496 188 503C278 530 330 564 330 619C330 669 283 706 202 706C145 706 92 689 47 662L64 630C104 655 151 670 197 670C256 670 289 646 289 614C289 570 232 538 113 510L118 481C245 479 294 453 294 408C294 356 218 318 47 313Z" glyph-name="three.num" horiz-adv-x="382" /><glyph d="M60 644 79 605C142 641 215 664 284 664C380 664 434 624 434 563C434 485 341 425 160 378L167 340C361 336 442 289 442 208C442 111 317 44 59 37V-7C325 0 492 73 492 208C492 305 407 358 262 370C399 416 484 474 484 568C484 650 410 708 289 708C206 708 130 683 60 644Z" glyph-name="three.tab" horiz-adv-x="564" /><glyph d="M47 278C234 283 336 328 336 407C336 463 284 496 188 503C278 530 330 564 330 619C330 669 283 706 202 706C145 706 92 689 47 662L64 630C104 655 151 670 197 670C256 670 289 646 289 614C289 570 232 538 113 510L118 481C245 479 294 453 294 408C294 356 218 318 47 313ZM211 0H250L465 342L695 700H657L441 358ZM795 0V101H873V135H795V422H743L517 133L520 101H756V0ZM756 135H562L756 383Z" glyph-name="threequarters" horiz-adv-x="897" unicode="&#190;" /><glyph d="M154 590C172 632 184 642 198 642C208 642 216 638 246 619C278 598 291 592 308 592C341 592 359 615 383 672L353 682C334 640 323 630 309 630C298 630 291 634 261 653C229 674 216 681 199 681C166 681 148 658 124 601Z" glyph-name="tilde" horiz-adv-x="500" unicode="&#732;" /><glyph d="M-98 754C-79 796 -69 805 -55 805C-43 805 -34 801 -4 782C29 762 43 755 61 755C94 755 113 778 136 834L104 845C85 804 75 794 62 794C49 794 40 799 10 817C-23 838 -37 844 -54 844C-88 844 -106 822 -130 766Z" glyph-name="tilde.cap" horiz-adv-x="0" /><glyph d="M128 476V676H207V700H23V676H102V476ZM361 476H388L468 666L477 476H503L492 700H455L375 508L294 700H258L247 476H272L281 666Z" glyph-name="trademark" horiz-adv-x="545" unicode="&#8482;" /><glyph d="M52 700V690L376 -12H394L718 690V700Z" glyph-name="triagdn" horiz-adv-x="771" unicode="&#9660;" /><glyph d="M59 700 271 -13H294L505 700Z" glyph-name="triagdn.tab" horiz-adv-x="564" /><glyph d="M718 0V10L394 712H376L52 10V0Z" glyph-name="triagup" horiz-adv-x="771" unicode="&#9650;" /><glyph d="M505 0 294 713H271L59 0Z" glyph-name="triagup.tab" horiz-adv-x="564" /><glyph d="M488 0V44H118L351 304C433 393 470 453 470 534C470 632 405 708 286 708C192 708 123 661 67 600L94 565C150 625 210 663 283 663C370 663 420 607 420 530C420 467 386 412 317 334L48 35L59 0Z" glyph-name="two" horiz-adv-x="542" unicode="2" /><glyph d="M338 0V36H97L244 179C302 234 326 271 326 317C326 382 274 423 200 423C140 423 88 395 49 347L73 320C110 363 151 387 197 387C250 387 284 358 284 314C284 278 262 248 217 204L37 30L46 0Z" glyph-name="two.den" horiz-adv-x="377" /><glyph d="M338 282V318H97L244 461C302 516 326 553 326 599C326 664 274 705 200 705C140 705 88 677 49 629L73 602C110 645 151 669 197 669C250 669 284 640 284 596C284 560 262 530 217 486L37 312L46 282Z" glyph-name="two.num" horiz-adv-x="377" /><glyph d="M75 598 102 564C159 625 220 663 294 663C382 663 434 606 434 530C434 467 400 412 330 335L58 35L69 0H500V44H128L364 304C447 393 484 453 484 534C484 632 418 708 297 708C202 708 131 661 75 598Z" glyph-name="two.tab" horiz-adv-x="564" /><glyph d="M338 282V318H97L244 461C302 516 326 553 326 599C326 664 274 705 200 705C140 705 88 677 49 629L73 602C110 645 151 669 197 669C250 669 284 640 284 596C284 560 262 530 217 486L37 312L46 282ZM254 0H293L508 342L738 700H700L484 358ZM637 -4C824 1 926 46 926 125C926 181 874 214 778 221C868 248 920 282 920 337C920 387 873 424 792 424C735 424 682 407 637 380L654 348C694 373 741 388 787 388C846 388 879 364 879 332C879 288 822 256 703 228L708 199C835 197 884 171 884 126C884 74 808 36 637 31Z" glyph-name="twothirds" horiz-adv-x="971" unicode="&#8532;" /><glyph d="M416 50 426 0H461V511H414V90C375 60 316 33 261 33C176 33 131 84 131 177V511H84V169C84 53 143 -9 248 -9C317 -9 371 17 416 50Z" glyph-name="u" horiz-adv-x="551" unicode="u" /><glyph d="M416 50 426 0H461V511H414V90C375 60 316 33 261 33C176 33 131 84 131 177V511H84V169C84 53 143 -9 248 -9C317 -9 371 17 416 50ZM274 587 406 702H337L235 587Z" glyph-name="uacute" horiz-adv-x="551" unicode="&#250;" /><glyph d="M416 50 426 0H461V511H414V90C375 60 316 33 261 33C176 33 131 84 131 177V511H84V169C84 53 143 -9 248 -9C317 -9 371 17 416 50ZM274 623C231 623 208 651 202 698H170C172 631 212 585 274 585C336 585 376 631 378 698H346C340 651 317 623 274 623Z" glyph-name="ubreve" horiz-adv-x="551" unicode="&#365;" /><glyph d="M416 50 426 0H461V511H414V90C375 60 316 33 261 33C176 33 131 84 131 177V511H84V169C84 53 143 -9 248 -9C317 -9 371 17 416 50ZM274 670 348 592H385L295 708H253L163 592H199Z" glyph-name="ucircumflex" horiz-adv-x="551" unicode="&#251;" /><glyph d="M416 50 426 0H461V511H414V90C375 60 316 33 261 33C176 33 131 84 131 177V511H84V169C84 53 143 -9 248 -9C317 -9 371 17 416 50ZM228 601V668H180V601ZM368 601V668H320V601Z" glyph-name="udieresis" horiz-adv-x="551" unicode="&#252;" /><glyph d="M416 50 426 0H461V511H414V90C375 60 316 33 261 33C176 33 131 84 131 177V511H84V169C84 53 143 -9 248 -9C317 -9 371 17 416 50ZM274 587H313L211 702H142Z" glyph-name="ugrave" horiz-adv-x="551" unicode="&#249;" /><glyph d="M416 52 426 0H461V481C528 490 569 530 569 587C569 605 565 622 556 638L520 625C525 612 528 600 528 587C528 539 490 511 417 511H414V92C375 62 316 35 261 35C176 35 131 86 131 179V511H84V171C84 55 143 -7 248 -7C317 -7 371 19 416 52Z" glyph-name="uhorn" horiz-adv-x="568" unicode="&#432;" /><glyph d="M416 50 426 0H461V511H414V90C375 60 316 33 261 33C176 33 131 84 131 177V511H84V169C84 53 143 -9 248 -9C317 -9 371 17 416 50ZM214 592 342 707H279L177 592ZM346 592 473 707H411L308 592Z" glyph-name="uhungarumlaut" horiz-adv-x="551" unicode="&#369;" /><glyph d="M416 50 426 0H461V511H414V90C375 60 316 33 261 33C176 33 131 84 131 177V511H84V169C84 53 143 -9 248 -9C317 -9 371 17 416 50ZM389 607V642H159V607Z" glyph-name="umacron" horiz-adv-x="551" unicode="&#363;" /><glyph d="M475 -92V-58H-2V-92Z" glyph-name="underscore" horiz-adv-x="473" unicode="_" /><glyph glyph-name="uni0000" horiz-adv-x="0" /><glyph d="M-105 864 -98 830C-66 837 -33 842 -1 842C45 842 62 834 62 822C62 809 47 801 -21 778L-11 750C79 777 106 797 106 827C106 857 74 877 3 877C-37 877 -70 873 -105 864Z" glyph-name="uni00200309.cap" horiz-adv-x="0" /><glyph glyph-name="uni00A0" horiz-adv-x="190" unicode="&#160;" /><glyph d="M-7 708H34L-53 804H-123ZM-46 601V668H-94V601ZM94 601V668H46V601Z" glyph-name="uni00A80300" horiz-adv-x="0" /><glyph d="M37 863 -56 944H-132L-11 863ZM-50 756V824H-100V756ZM100 756V824H50V756Z" glyph-name="uni00A80300.cap" horiz-adv-x="0" /><glyph d="M7 708 123 804H53L-34 708ZM-46 601V668H-94V601ZM94 601V668H46V601Z" glyph-name="uni00A80301" horiz-adv-x="0" /><glyph d="M11 863 132 944H56L-37 863ZM-50 756V824H-100V756ZM100 756V824H50V756Z" glyph-name="uni00A80301.cap" horiz-adv-x="0" /><glyph d="M104 714V750H-104V714ZM-46 601V668H-94V601ZM94 601V668H46V601Z" glyph-name="uni00A80304" horiz-adv-x="0" /><glyph d="M115 868V905H-115V868ZM-50 756V824H-100V756ZM100 756V824H50V756Z" glyph-name="uni00A80304.cap" horiz-adv-x="0" /><glyph d="M21 708 113 804H76L0 745L-76 804H-113L-21 708ZM-46 601V668H-94V601ZM94 601V668H46V601Z" glyph-name="uni00A8030C" horiz-adv-x="0" /><glyph d="M24 863 117 945H74L0 899L-74 945H-117L-24 863ZM-50 756V824H-100V756ZM100 756V824H50V756Z" glyph-name="uni00A8030C.cap" horiz-adv-x="0" /><glyph d="M353 418V454H112L259 597C317 652 341 689 341 735C341 800 289 841 215 841C155 841 103 813 64 765L88 738C125 781 166 805 212 805C265 805 299 776 299 732C299 696 277 666 232 622L52 448L61 418Z" glyph-name="uni00B2" horiz-adv-x="407" unicode="&#178;" /><glyph d="M62 414C249 419 351 464 351 543C351 599 299 632 203 639C293 666 345 700 345 755C345 805 298 842 217 842C160 842 107 825 62 798L79 766C119 791 166 806 212 806C271 806 304 782 304 750C304 706 247 674 128 646L133 617C260 615 309 589 309 544C309 492 233 454 62 449Z" glyph-name="uni00B3" horiz-adv-x="412" unicode="&#179;" /><glyph d="M136 -13 133 61C157 16 201 -7 262 -7C327 -7 380 18 424 52L434 0H466V511H420V92C380 62 322 35 267 35C182 35 137 86 137 179V511H90V-173H136Z" glyph-name="uni00B5" horiz-adv-x="557" unicode="&#181;" /><glyph d="M122 269V344H64V269Z" glyph-name="uni00B7" horiz-adv-x="186" unicode="&#183;" /><glyph d="M122 322V397H64V322Z" glyph-name="uni00B7.cap" horiz-adv-x="186" /><glyph d="M170 318V393H112V318Z" glyph-name="uni00B7.tab" horiz-adv-x="282" /><glyph d="M223 418V840H191L49 781L61 747L182 794V418Z" glyph-name="uni00B9" horiz-adv-x="331" unicode="&#185;" /><glyph d="M607 51V355H358V311H559V78C516 54 453 35 387 35C219 35 115 165 115 350C115 526 220 664 385 664C458 664 515 643 569 617L588 661C531 689 464 710 388 710C194 710 65 558 65 349C65 130 193 -9 385 -9C470 -9 545 15 607 51ZM337 -69C352 -88 359 -100 359 -114C359 -135 349 -147 326 -168L343 -187C386 -160 405 -135 405 -106C405 -87 399 -73 383 -54Z" glyph-name="uni0122" horiz-adv-x="700" unicode="&#290;" /><glyph d="M102 262C102 400 175 479 272 479C321 479 369 457 406 428V101C372 73 325 48 271 48C171 48 102 134 102 262ZM452 511H418L408 468C370 499 321 520 266 520C145 520 55 425 55 261C55 105 144 7 261 7C324 7 372 34 406 59V18C406 -83 350 -135 253 -135C199 -135 147 -122 99 -100L84 -140C136 -163 193 -176 253 -176C377 -176 452 -112 452 22ZM313 606C298 625 291 637 291 651C291 672 301 684 324 705L307 724C264 697 245 672 245 643C245 624 251 610 267 591Z" glyph-name="uni0123" horiz-adv-x="542" unicode="&#291;" /><glyph d="M532 0H600L225 360L594 700H527L177 375H156V700H106V0H156V344H175ZM288 -57C303 -76 310 -88 310 -102C310 -123 300 -135 277 -156L294 -175C337 -148 356 -123 356 -94C356 -75 350 -61 334 -42Z" glyph-name="uni0136" horiz-adv-x="621" unicode="&#310;" /><glyph d="M137 724H90V0H137V253H154L398 0H461L201 266L455 511H392L153 278H137ZM220 -57C235 -76 242 -88 242 -102C242 -123 232 -135 209 -156L226 -175C269 -148 288 -123 288 -94C288 -75 282 -61 266 -42Z" glyph-name="uni0137" horiz-adv-x="480" unicode="&#311;" /><glyph d="M513 0V45H156V700H106V0ZM274 -62C289 -81 296 -93 296 -107C296 -128 286 -140 263 -161L280 -180C323 -153 342 -128 342 -99C342 -80 336 -66 320 -47Z" glyph-name="uni013B" horiz-adv-x="544" unicode="&#315;" /><glyph d="M139 0V724H92V0ZM83 -62C98 -81 105 -93 105 -107C105 -128 95 -140 72 -161L89 -180C132 -153 151 -128 151 -99C151 -80 145 -66 129 -47Z" glyph-name="uni013C" horiz-adv-x="231" unicode="&#316;" /><glyph d="M558 0H611V700H563V79L162 700H106V0H154V626ZM318 -57C333 -76 340 -88 340 -102C340 -123 330 -135 307 -156L324 -175C367 -148 386 -123 386 -94C386 -75 380 -61 364 -42Z" glyph-name="uni0145" horiz-adv-x="717" unicode="&#325;" /><glyph d="M137 420C176 451 235 477 290 477C375 477 420 427 420 334V0H466V341C466 457 407 520 302 520C234 520 180 493 135 461L124 511H90V0H137ZM244 -57C259 -76 266 -88 266 -102C266 -123 256 -135 233 -156L250 -175C293 -148 312 -123 312 -94C312 -75 306 -61 290 -42Z" glyph-name="uni0146" horiz-adv-x="551" unicode="&#326;" /><glyph d="M156 326V656H332C455 656 519 600 519 504C519 394 417 326 282 326ZM156 282H261C333 282 369 258 420 192L574 0H639L465 210C428 261 405 282 364 297C464 319 569 377 569 508C569 629 487 700 335 700H106V0H156ZM303 -57C318 -76 325 -88 325 -102C325 -123 315 -135 292 -156L309 -175C352 -148 371 -123 371 -94C371 -75 365 -61 349 -42Z" glyph-name="uni0156" horiz-adv-x="662" unicode="&#342;" /><glyph d="M137 0V386C191 435 254 466 331 468V515C247 515 183 479 134 426L124 511H90V0ZM81 -62C96 -81 103 -93 103 -107C103 -128 93 -140 70 -161L87 -180C130 -153 149 -128 149 -99C149 -80 143 -66 127 -47Z" glyph-name="uni0157" horiz-adv-x="364" unicode="&#343;" /><glyph d="M226 -147C326 -140 362 -116 362 -81C362 -53 337 -37 290 -37L311 -8C452 -5 543 70 543 181C543 277 490 334 320 386C175 431 131 474 131 539C131 611 198 664 296 664C371 664 431 646 494 616L512 659C447 690 380 708 300 708C173 708 81 639 81 535C81 446 135 393 303 342C449 294 494 252 494 177C494 96 417 36 304 36C217 36 135 63 67 102L47 58C115 21 192 -3 274 -7L246 -51L256 -64C299 -60 317 -68 317 -84C317 -101 294 -113 222 -120Z" glyph-name="uni015E" horiz-adv-x="604" unicode="&#350;" /><glyph d="M164 -147C264 -140 300 -116 300 -81C300 -53 275 -37 228 -37L247 -10C345 -7 416 44 416 130C416 201 380 242 251 281C150 313 115 338 115 391C115 441 160 479 233 479C284 479 335 463 377 440L395 480C347 504 293 520 234 520C136 520 70 465 70 387C70 311 117 275 234 240C342 207 370 177 370 127C370 70 318 32 239 32C177 32 115 51 64 80L47 40C94 14 152 -4 211 -9L184 -51L194 -64C237 -60 255 -68 255 -84C255 -101 232 -113 160 -120Z" glyph-name="uni015F" horiz-adv-x="472" unicode="&#351;" /><glyph d="M371 -81C371 -53 346 -37 299 -37L325 0H329V655H577V700H31V655H279V0H287L255 -51L265 -64C308 -60 326 -68 326 -84C326 -101 303 -113 231 -120L235 -147C335 -140 371 -116 371 -81Z" glyph-name="uni0162" horiz-adv-x="608" unicode="&#354;" /><glyph d="M304 -81C304 -53 279 -37 232 -37L253 -8H262C290 -8 314 -4 336 2V44C313 37 291 34 269 34C204 34 166 71 166 144V470H335V511H166V666H119V511H33V470H119V138C119 58 155 11 218 -3L188 -51L198 -64C241 -60 259 -68 259 -84C259 -101 236 -113 164 -120L168 -147C268 -140 304 -116 304 -81Z" glyph-name="uni0163" horiz-adv-x="383" unicode="&#355;" /><glyph d="M337 -12C500 -12 623 138 623 352C623 579 494 712 321 712C236 712 166 687 106 639L128 602C183 645 246 668 318 668C459 668 562 561 572 379H63V349C63 128 178 -12 337 -12ZM338 32C210 32 119 151 113 335H573C568 157 471 32 338 32Z" glyph-name="uni018F" horiz-adv-x="687" unicode="&#399;" /><glyph d="M508 225H182L345 652ZM594 0H648L371 711H321L44 0H96L165 181H525ZM345 800 272 860H229L321 763H369L461 860H418Z" glyph-name="uni01CD" horiz-adv-x="691" unicode="&#461;" /><glyph d="M220 32C144 32 96 75 96 149C96 179 106 207 124 226C151 253 186 270 309 270C334 270 361 268 385 266V105C332 59 275 32 220 32ZM388 66 406 0H442L431 96V361C431 470 375 518 261 518C200 518 141 502 90 481L104 441C153 462 204 477 257 477C346 477 385 437 385 360V305C361 308 335 310 308 310C175 310 125 290 91 255C65 229 50 193 50 147C50 45 117 -9 210 -9C273 -9 330 16 388 66ZM259 634 185 711H148L238 595H280L370 711H334Z" glyph-name="uni01CE" horiz-adv-x="517" unicode="&#462;" /><glyph d="M160 0V700H110V0ZM135 793 62 853H19L111 756H159L251 853H208Z" glyph-name="uni01CF" horiz-adv-x="269" unicode="&#463;" /><glyph d="M139 0V511H92V0ZM116 631 42 708H5L95 592H137L227 708H191Z" glyph-name="uni01D0" horiz-adv-x="231" unicode="&#464;" /><glyph d="M654 351C654 563 531 712 361 712C189 712 65 561 65 349C65 137 188 -12 359 -12C529 -12 654 139 654 351ZM604 349C604 166 504 32 360 32C216 32 115 166 115 351C115 534 216 668 359 668C503 668 604 534 604 349ZM360 800 287 860H244L336 763H384L476 860H433Z" glyph-name="uni01D1" horiz-adv-x="719" unicode="&#465;" /><glyph d="M482 256C482 414 391 523 269 523C147 523 54 413 54 255C54 96 145 -12 267 -12C390 -12 482 97 482 256ZM435 255C435 123 365 29 268 29C171 29 101 123 101 256C101 388 171 481 268 481C365 481 435 387 435 255ZM268 634 194 711H157L247 595H289L379 711H343Z" glyph-name="uni01D2" horiz-adv-x="536" unicode="&#466;" /><glyph d="M595 267V700H546V265C546 119 465 34 345 34C226 34 144 120 144 269V700H95V268C95 93 192 -10 344 -10C497 -10 595 93 595 267ZM345 788 272 848H229L321 751H369L461 848H418Z" glyph-name="uni01D3" horiz-adv-x="690" unicode="&#467;" /><glyph d="M416 50 426 0H461V511H414V90C375 60 316 33 261 33C176 33 131 84 131 177V511H84V169C84 53 143 -9 248 -9C317 -9 371 17 416 50ZM274 626 200 703H163L253 587H295L385 703H349Z" glyph-name="uni01D4" horiz-adv-x="551" unicode="&#468;" /><glyph d="M595 267V700H546V265C546 119 465 34 345 34C226 34 144 120 144 269V700H95V268C95 93 192 -10 344 -10C497 -10 595 93 595 267ZM460 868V905H230V868ZM295 756V824H245V756ZM445 756V824H395V756Z" glyph-name="uni01D5" horiz-adv-x="690" unicode="&#469;" /><glyph d="M416 50 426 0H461V511H414V90C375 60 316 33 261 33C176 33 131 84 131 177V511H84V169C84 53 143 -9 248 -9C317 -9 371 17 416 50ZM378 714V750H170V714ZM228 601V668H180V601ZM368 601V668H320V601Z" glyph-name="uni01D6" horiz-adv-x="551" unicode="&#470;" /><glyph d="M595 267V700H546V265C546 119 465 34 345 34C226 34 144 120 144 269V700H95V268C95 93 192 -10 344 -10C497 -10 595 93 595 267ZM356 863 477 944H401L308 863ZM295 756V824H245V756ZM445 756V824H395V756Z" glyph-name="uni01D7" horiz-adv-x="690" unicode="&#471;" /><glyph d="M416 50 426 0H461V511H414V90C375 60 316 33 261 33C176 33 131 84 131 177V511H84V169C84 53 143 -9 248 -9C317 -9 371 17 416 50ZM281 708 397 804H327L240 708ZM228 601V668H180V601ZM368 601V668H320V601Z" glyph-name="uni01D8" horiz-adv-x="551" unicode="&#472;" /><glyph d="M595 267V700H546V265C546 119 465 34 345 34C226 34 144 120 144 269V700H95V268C95 93 192 -10 344 -10C497 -10 595 93 595 267ZM369 863 462 945H419L345 899L271 945H228L321 863ZM295 756V824H245V756ZM445 756V824H395V756Z" glyph-name="uni01D9" horiz-adv-x="690" unicode="&#473;" /><glyph d="M416 50 426 0H461V511H414V90C375 60 316 33 261 33C176 33 131 84 131 177V511H84V169C84 53 143 -9 248 -9C317 -9 371 17 416 50ZM295 708 387 804H350L274 745L198 804H161L253 708ZM228 601V668H180V601ZM368 601V668H320V601Z" glyph-name="uni01DA" horiz-adv-x="551" unicode="&#474;" /><glyph d="M595 267V700H546V265C546 119 465 34 345 34C226 34 144 120 144 269V700H95V268C95 93 192 -10 344 -10C497 -10 595 93 595 267ZM382 863 289 944H213L334 863ZM295 756V824H245V756ZM445 756V824H395V756Z" glyph-name="uni01DB" horiz-adv-x="690" unicode="&#475;" /><glyph d="M416 50 426 0H461V511H414V90C375 60 316 33 261 33C176 33 131 84 131 177V511H84V169C84 53 143 -9 248 -9C317 -9 371 17 416 50ZM267 708H308L221 804H151ZM228 601V668H180V601ZM368 601V668H320V601Z" glyph-name="uni01DC" horiz-adv-x="551" unicode="&#476;" /><glyph d="M420 -145 424 -113C366 -108 352 -99 352 -82C352 -70 360 -54 391 -10C544 7 654 153 654 351C654 563 531 712 361 712C189 712 65 561 65 349C65 140 184 -7 351 -12C317 -52 305 -73 305 -91C305 -123 332 -140 420 -145ZM604 349C604 166 504 32 360 32C216 32 115 166 115 351C115 534 216 668 359 668C503 668 604 534 604 349Z" glyph-name="uni01EA" horiz-adv-x="719" unicode="&#490;" /><glyph d="M328 -145 332 -113C274 -108 260 -99 260 -82C260 -70 268 -53 299 -9C406 8 482 111 482 256C482 414 391 523 269 523C147 523 54 413 54 255C54 100 141 -7 259 -12C225 -52 213 -73 213 -91C213 -123 240 -140 328 -145ZM435 255C435 123 365 29 268 29C171 29 101 123 101 256C101 388 171 481 268 481C365 481 435 387 435 255Z" glyph-name="uni01EB" horiz-adv-x="536" unicode="&#491;" /><glyph d="M28 -177C101 -123 140 -75 140 48V511H93V47C93 -62 61 -98 -1 -148ZM117 631 43 708H6L96 592H138L228 708H192Z" glyph-name="uni01F0" horiz-adv-x="231" unicode="&#496;" /><glyph d="M558 0H611V700H563V79L162 700H106V0H154V626ZM368 751H415L309 847H234Z" glyph-name="uni01F8" horiz-adv-x="717" unicode="&#504;" /><glyph d="M137 420C176 451 235 477 290 477C375 477 420 427 420 334V0H466V341C466 457 407 520 302 520C234 520 180 493 135 461L124 511H90V0H137ZM276 595H315L213 710H144Z" glyph-name="uni01F9" horiz-adv-x="551" unicode="&#505;" /><glyph d="M543 181C543 277 490 334 320 386C175 431 131 474 131 539C131 611 198 664 296 664C371 664 431 646 494 616L512 659C447 690 380 708 300 708C173 708 81 639 81 535C81 446 135 393 303 342C449 294 494 252 494 177C494 96 417 36 304 36C217 36 135 63 67 102L47 58C123 17 209 -8 301 -8C448 -8 543 67 543 181ZM270 -69C285 -88 292 -100 292 -114C292 -135 282 -147 259 -168L276 -187C319 -160 338 -135 338 -106C338 -87 332 -73 316 -54Z" glyph-name="uni0218" horiz-adv-x="604" unicode="&#536;" /><glyph d="M416 130C416 201 380 242 251 281C150 313 115 338 115 391C115 441 160 479 233 479C284 479 335 463 377 440L395 480C347 504 293 520 234 520C136 520 70 465 70 387C70 311 117 275 234 240C342 207 370 177 370 127C370 70 318 32 239 32C177 32 115 51 64 80L47 40C101 10 170 -10 238 -10C341 -10 416 41 416 130ZM206 -65C221 -84 228 -96 228 -110C228 -131 218 -143 195 -164L212 -183C255 -156 274 -131 274 -102C274 -83 268 -69 252 -50Z" glyph-name="uni0219" horiz-adv-x="472" unicode="&#537;" /><glyph d="M329 0V655H577V700H31V655H279V0ZM271 -62C286 -81 293 -93 293 -107C293 -128 283 -140 260 -161L277 -180C320 -153 339 -128 339 -99C339 -80 333 -66 317 -47Z" glyph-name="uni021A" horiz-adv-x="608" unicode="&#538;" /><glyph d="M262 -8C290 -8 314 -4 336 2V44C313 37 291 34 269 34C204 34 166 71 166 144V470H335V511H166V666H119V511H33V470H119V138C119 41 172 -8 262 -8ZM198 -65C213 -84 220 -96 220 -110C220 -131 210 -143 187 -164L204 -183C247 -156 266 -131 266 -102C266 -83 260 -69 244 -50Z" glyph-name="uni021B" horiz-adv-x="383" unicode="&#539;" /><glyph d="M508 225H182L345 652ZM594 0H648L371 711H321L44 0H96L165 181H525ZM370 763V831H320V763Z" glyph-name="uni0226" horiz-adv-x="691" unicode="&#550;" /><glyph d="M220 32C144 32 96 75 96 149C96 179 106 207 124 226C151 253 186 270 309 270C334 270 361 268 385 266V105C332 59 275 32 220 32ZM388 66 406 0H442L431 96V361C431 470 375 518 261 518C200 518 141 502 90 481L104 441C153 462 204 477 257 477C346 477 385 437 385 360V305C361 308 335 310 308 310C175 310 125 290 91 255C65 229 50 193 50 147C50 45 117 -9 210 -9C273 -9 330 16 388 66ZM283 604V671H235V604Z" glyph-name="uni0227" horiz-adv-x="517" unicode="&#551;" /><glyph d="M654 351C654 563 531 712 361 712C189 712 65 561 65 349C65 137 188 -12 359 -12C529 -12 654 139 654 351ZM604 349C604 166 504 32 360 32C216 32 115 166 115 351C115 534 216 668 359 668C503 668 604 534 604 349ZM385 763V831H335V763Z" glyph-name="uni022E" horiz-adv-x="719" unicode="&#558;" /><glyph d="M482 256C482 414 391 523 269 523C147 523 54 413 54 255C54 96 145 -12 267 -12C390 -12 482 97 482 256ZM435 255C435 123 365 29 268 29C171 29 101 123 101 256C101 388 171 481 268 481C365 481 435 387 435 255ZM292 604V671H244V604Z" glyph-name="uni022F" horiz-adv-x="536" unicode="&#559;" /><glyph d="M340 0V288L601 700H545L316 333L87 700H29L290 288V0ZM447 762V799H183V762Z" glyph-name="uni0232" horiz-adv-x="630" unicode="&#562;" /><glyph d="M66 -177C174 -147 234 -101 283 29L465 511H416L252 53L87 511H38L226 7C187 -74 138 -115 54 -137ZM366 607V642H136V607Z" glyph-name="uni0233" horiz-adv-x="497" unicode="&#563;" /><glyph d="M28 -177C101 -123 140 -75 140 48V511H93V47C93 -62 61 -98 -1 -148Z" glyph-name="uni0237" horiz-adv-x="231" unicode="&#567;" /><glyph d="M234 521C176 521 120 503 68 470L86 434C133 463 183 480 232 480C335 480 404 395 409 274H48V258C48 104 123 -12 248 -12C369 -12 455 101 455 257C455 426 358 521 234 521ZM409 234C403 118 340 29 250 29C158 29 99 116 93 234Z" glyph-name="uni0259" horiz-adv-x="509" unicode="&#601;" /><glyph d="M178 723V724H113L51 510L73 502Z" glyph-name="uni02B9" horiz-adv-x="214" unicode="&#697;" /><glyph d="M330 723V724H267L205 510L226 502ZM177 723V724H113L51 510L73 502Z" glyph-name="uni02BA" horiz-adv-x="366" unicode="&#698;" /><glyph d="M39 507H94C94 597 110 647 156 714L139 728C72 660 39 597 39 514Z" glyph-name="uni02BB" horiz-adv-x="180" unicode="&#699;" /><glyph d="M141 724H86C86 634 70 584 24 517L41 503C108 571 141 634 141 717Z" glyph-name="uni02BC" horiz-adv-x="180" unicode="&#700;" /><glyph d="M31 590V555C110 555 164 605 164 678C164 751 110 801 31 801V766C88 766 126 730 126 678C126 625 88 590 31 590Z" glyph-name="uni02BE" horiz-adv-x="185" unicode="&#702;" /><glyph d="M154 766V801C75 801 21 750 21 678C21 604 75 555 154 555V590C97 590 59 626 59 678C59 731 97 766 154 766Z" glyph-name="uni02BF" horiz-adv-x="185" unicode="&#703;" /><glyph d="M135 686H174L87 782H19ZM0 660 77 592H114L21 696H-21L-114 592H-77Z" glyph-name="uni02C60300" horiz-adv-x="0" /><glyph d="M187 838 94 919H20L141 838ZM0 806 75 756H118L24 841H-24L-118 756H-76Z" glyph-name="uni02C60300.cap" horiz-adv-x="0" /><glyph d="M132 686 248 782H180L93 686ZM0 660 77 592H114L21 696H-21L-114 592H-77Z" glyph-name="uni02C60301" horiz-adv-x="0" /><glyph d="M137 838 258 919H184L91 838ZM0 806 75 756H118L24 841H-24L-118 756H-76Z" glyph-name="uni02C60301.cap" horiz-adv-x="0" /><glyph d="M-80 717C-64 751 -54 760 -42 760C-32 760 -25 757 1 741C29 724 40 718 56 718C83 718 100 739 121 788L91 799C76 764 65 756 54 756C44 756 37 759 11 775C-18 792 -29 797 -44 797C-71 797 -88 777 -109 728ZM0 653 78 592H115L21 689H-21L-115 592H-79Z" glyph-name="uni02C60303" horiz-adv-x="0" /><glyph d="M-82 862C-65 898 -56 907 -44 907C-34 907 -26 903 1 887C29 868 42 863 58 863C84 863 102 883 123 935L93 946C76 910 67 901 55 901C45 901 37 905 10 921C-19 940 -31 945 -47 945C-74 945 -92 925 -113 873ZM0 802 76 756H120L24 837H-24L-120 756H-77Z" glyph-name="uni02C60303.cap" horiz-adv-x="0" /><glyph d="M45 782 53 750C75 757 96 761 117 761C147 761 159 752 159 740C159 728 147 718 101 695L113 670C179 699 199 719 199 746C199 774 171 794 121 794C94 794 70 791 45 782ZM0 660 77 592H114L21 696H-21L-114 592H-77Z" glyph-name="uni02C60309" horiz-adv-x="0" /><glyph d="M45 929 52 896C74 902 97 905 120 905C151 905 164 898 164 887C164 877 150 868 103 850L114 822C182 846 205 866 205 893C205 919 176 940 123 940C94 940 70 937 45 929ZM0 806 75 756H118L24 841H-24L-118 756H-76Z" glyph-name="uni02C60309.cap" horiz-adv-x="0" /><glyph d="M49 558H88V797H49Z" glyph-name="uni02C8" horiz-adv-x="137" unicode="&#712;" /><glyph d="M49 -98H88V141H49Z" glyph-name="uni02CC" horiz-adv-x="137" unicode="&#716;" /><glyph d="M365 -98V-63H135V-98Z" glyph-name="uni02CD" horiz-adv-x="500" unicode="&#717;" /><glyph d="M-8 706H33L-54 801H-124ZM0 627C-43 627 -67 651 -74 690H-106C-104 630 -62 590 0 590C62 590 104 630 106 690H74C67 651 43 627 0 627Z" glyph-name="uni02D80300" horiz-adv-x="0" /><glyph d="M38 859 -55 940H-131L-9 859ZM0 792C-40 792 -65 810 -74 840H-110C-102 788 -59 754 0 754C59 754 102 788 110 840H74C65 810 40 792 0 792Z" glyph-name="uni02D80300.cap" horiz-adv-x="0" /><glyph d="M8 706 124 801H54L-33 706ZM0 627C-43 627 -67 651 -74 690H-106C-104 630 -62 590 0 590C62 590 104 630 106 690H74C67 651 43 627 0 627Z" glyph-name="uni02D80301" horiz-adv-x="0" /><glyph d="M9 859 131 940H55L-38 859ZM0 792C-40 792 -65 810 -74 840H-110C-102 788 -59 754 0 754C59 754 102 788 110 840H74C65 810 40 792 0 792Z" glyph-name="uni02D80301.cap" horiz-adv-x="0" /><glyph d="M-84 722C-69 756 -58 765 -47 765C-37 765 -30 762 -4 746C25 729 35 724 51 724C78 724 95 744 116 793L87 804C71 769 61 761 49 761C39 761 32 764 6 780C-22 797 -33 802 -49 802C-76 802 -93 782 -114 733ZM0 627C-43 627 -67 651 -74 690H-106C-104 630 -62 590 0 590C62 590 104 630 106 690H74C67 651 43 627 0 627Z" glyph-name="uni02D80303" horiz-adv-x="0" /><glyph d="M-86 867C-69 903 -60 912 -49 912C-38 912 -30 908 -4 892C25 873 38 868 54 868C80 868 98 888 119 940L89 951C72 915 63 906 51 906C40 906 33 910 6 926C-23 945 -35 950 -51 950C-78 950 -96 930 -117 878ZM0 792C-40 792 -65 810 -74 840H-110C-102 788 -59 754 0 754C59 754 102 788 110 840H74C65 810 40 792 0 792Z" glyph-name="uni02D80303.cap" horiz-adv-x="0" /><glyph d="M-80 804 -71 771C-49 778 -28 782 -6 782C23 782 36 773 36 762C36 750 23 739 -22 717L-11 691C57 721 78 741 78 768C78 796 49 816 -2 816C-30 816 -54 812 -80 804ZM0 627C-43 627 -67 651 -74 690H-106C-104 630 -62 590 0 590C62 590 104 630 106 690H74C67 651 43 627 0 627Z" glyph-name="uni02D80309" horiz-adv-x="0" /><glyph d="M-87 953 -80 920C-55 926 -29 930 -3 930C33 930 46 923 46 913C46 902 31 892 -20 874L-10 847C66 871 89 891 89 918C89 945 59 965 0 965C-31 965 -60 961 -87 953ZM0 792C-40 792 -65 810 -74 840H-110C-102 788 -59 754 0 754C59 754 102 788 110 840H74C65 810 40 792 0 792Z" glyph-name="uni02D80309.cap" horiz-adv-x="0" /><glyph d="M0 592H39L-63 707H-132Z" glyph-name="uni0300" horiz-adv-x="0" unicode="&#768;" /><glyph d="M0 592 132 707H63L-39 592Z" glyph-name="uni0301" horiz-adv-x="0" unicode="&#769;" /><glyph d="M0 670 74 592H111L21 708H-21L-111 592H-75Z" glyph-name="uni0302" horiz-adv-x="0" unicode="&#770;" /><glyph d="M-96 590C-78 632 -66 642 -52 642C-42 642 -34 638 -4 619C28 598 41 592 58 592C91 592 109 615 133 672L103 682C84 640 73 630 59 630C48 630 41 634 11 653C-21 674 -34 681 -51 681C-84 681 -102 658 -126 601Z" glyph-name="uni0303" horiz-adv-x="0" unicode="&#771;" /><glyph d="M115 607V642H-115V607Z" glyph-name="uni0304" horiz-adv-x="0" unicode="&#772;" /><glyph d="M0 628C-43 628 -66 656 -72 703H-104C-102 636 -62 590 0 590C62 590 102 636 104 703H72C66 656 43 628 0 628Z" glyph-name="uni0306" horiz-adv-x="0" unicode="&#774;" /><glyph d="M24 601V668H-24V601Z" glyph-name="uni0307" horiz-adv-x="0" unicode="&#775;" /><glyph d="M-46 601V668H-94V601ZM94 601V668H46V601Z" glyph-name="uni0308" horiz-adv-x="0" unicode="&#776;" /><glyph d="M-93 709 -84 676C-57 684 -30 689 -2 689C35 689 51 679 51 665C51 651 36 640 -22 613L-11 586C70 619 93 640 93 671C93 702 61 724 0 724C-32 724 -63 719 -93 709Z" glyph-name="uni0309" horiz-adv-x="0" unicode="&#777;" /><glyph d="M-92 674C-92 624 -54 585 0 585C54 585 92 624 92 674C92 724 54 763 0 763C-54 763 -92 724 -92 674ZM-63 674C-63 710 -37 738 0 738C37 738 63 710 63 674C63 638 37 610 0 610C-37 610 -63 638 -63 674Z" glyph-name="uni030A" horiz-adv-x="0" unicode="&#778;" /><glyph d="M-60 592 68 707H5L-97 592ZM72 592 199 707H137L34 592Z" glyph-name="uni030B" horiz-adv-x="0" unicode="&#779;" /><glyph d="M0 631 -74 708H-111L-21 592H21L111 708H75Z" glyph-name="uni030C" horiz-adv-x="0" unicode="&#780;" /><glyph d="M33 603C18 622 11 634 11 648C11 669 21 681 44 702L27 721C-16 694 -35 669 -35 640C-35 621 -29 607 -13 588Z" glyph-name="uni0312" horiz-adv-x="0" unicode="&#786;" /><glyph d="M38 725H0V696C0 653 -5 624 -21 591L-4 581C24 619 38 650 38 704Z" glyph-name="uni0315" horiz-adv-x="0" unicode="&#789;" /><glyph d="M24 -123V-56H-24V-123Z" glyph-name="uni0323" horiz-adv-x="0" unicode="&#803;" /><glyph d="M-46 -123V-56H-94V-123ZM94 -123V-56H46V-123Z" glyph-name="uni0324" horiz-adv-x="0" unicode="&#804;" /><glyph d="M-33 -62C-18 -81 -11 -93 -11 -107C-11 -128 -21 -140 -44 -161L-27 -180C16 -153 35 -128 35 -99C35 -80 29 -66 13 -47Z" glyph-name="uni0326" horiz-adv-x="0" unicode="&#806;" /><glyph d="M-69 -147C31 -140 67 -116 67 -81C67 -53 42 -37 -5 -37L22 1L-11 9L-49 -51L-39 -64C4 -60 22 -68 22 -84C22 -101 -1 -113 -73 -120Z" glyph-name="uni0327" horiz-adv-x="0" unicode="&#807;" /><glyph d="M47 -113C-11 -108 -25 -99 -25 -82C-25 -69 -16 -51 22 1L-6 11C-56 -44 -72 -70 -72 -91C-72 -123 -45 -140 43 -145Z" glyph-name="uni0328" horiz-adv-x="0" unicode="&#808;" /><glyph d="M0 -94 74 -172H111L21 -56H-21L-111 -172H-75Z" glyph-name="uni032D" horiz-adv-x="0" unicode="&#813;" /><glyph d="M0 -131C-43 -131 -66 -103 -72 -56H-104C-102 -123 -62 -169 0 -169C62 -169 102 -123 104 -56H72C66 -103 43 -131 0 -131Z" glyph-name="uni032E" horiz-adv-x="0" unicode="&#814;" /><glyph d="M115 -98V-63H-115V-98Z" glyph-name="uni0331" horiz-adv-x="0" unicode="&#817;" /><glyph d="M100 -98V-63H-100V-98Z" glyph-name="uni0331.nrw" horiz-adv-x="0" /><glyph d="M154 382V658H316V382ZM363 658C470 658 524 610 524 537C524 447 451 394 348 384V658ZM154 42V342H316V42ZM548 187C548 94 474 42 371 42H348V341C475 332 548 275 548 187ZM369 0C501 0 597 64 597 185C597 291 521 343 406 363C493 385 572 438 572 541C572 636 501 700 365 700H350V788H313V700H106V0H313V-106H350V0Z" glyph-name="uni0E3F" horiz-adv-x="658" unicode="&#3647;" /><glyph d="M356 0C488 0 587 65 587 185C587 291 509 342 396 363C481 386 562 438 562 541C562 635 489 700 352 700H106V0ZM156 384V656H349C457 656 512 607 512 536C512 439 419 384 298 384ZM156 44V340H298C446 340 537 281 537 187C537 97 461 44 358 44ZM459 -98V-63H229V-98Z" glyph-name="uni1E06" horiz-adv-x="647" unicode="&#7686;" /><glyph d="M277 -10C401 -10 487 90 487 258C487 418 402 520 280 520C217 520 171 493 137 466V724H90V0H124L134 42C172 12 221 -10 277 -10ZM270 31C220 31 173 55 137 83V425C170 454 216 479 270 479C371 479 440 393 440 257C440 111 368 31 270 31ZM377 -101V-66H147V-101Z" glyph-name="uni1E07" horiz-adv-x="542" unicode="&#7687;" /><glyph d="M624 351C624 579 481 700 279 700H106V0H278C480 0 624 122 624 351ZM156 44V656H279C455 656 574 542 574 349C574 154 454 44 282 44ZM371 -123V-56H323V-123Z" glyph-name="uni1E0C" horiz-adv-x="689" unicode="&#7692;" /><glyph d="M272 31C171 31 102 118 102 254C102 399 174 479 272 479C322 479 369 456 406 428V86C372 57 327 31 272 31ZM408 46 418 0H452V724H406V471C367 500 319 520 267 520C142 520 55 421 55 253C55 93 140 -10 262 -10C326 -10 374 19 408 46ZM301 -126V-59H253V-126Z" glyph-name="uni1E0D" horiz-adv-x="542" unicode="&#7693;" /><glyph d="M624 351C624 579 481 700 279 700H106V0H278C480 0 624 122 624 351ZM156 44V656H279C455 656 574 542 574 349C574 154 454 44 282 44ZM462 -98V-63H232V-98Z" glyph-name="uni1E0E" horiz-adv-x="689" unicode="&#7694;" /><glyph d="M272 31C171 31 102 118 102 254C102 399 174 479 272 479C322 479 369 456 406 428V86C372 57 327 31 272 31ZM408 46 418 0H452V724H406V471C367 500 319 520 267 520C142 520 55 421 55 253C55 93 140 -10 262 -10C326 -10 374 19 408 46ZM392 -101V-66H162V-101Z" glyph-name="uni1E0F" horiz-adv-x="542" unicode="&#7695;" /><glyph d="M624 351C624 579 481 700 279 700H106V0H278C480 0 624 122 624 351ZM156 44V656H279C455 656 574 542 574 349C574 154 454 44 282 44ZM347 -94 421 -172H458L368 -56H326L236 -172H272Z" glyph-name="uni1E12" horiz-adv-x="689" unicode="&#7698;" /><glyph d="M272 31C171 31 102 118 102 254C102 399 174 479 272 479C322 479 369 456 406 428V86C372 57 327 31 272 31ZM408 46 418 0H452V724H406V471C367 500 319 520 267 520C142 520 55 421 55 253C55 93 140 -10 262 -10C326 -10 374 19 408 46ZM277 -97 351 -175H388L298 -59H256L166 -175H202Z" glyph-name="uni1E13" horiz-adv-x="542" unicode="&#7699;" /><glyph d="M607 51V355H358V311H559V78C516 54 453 35 387 35C219 35 115 165 115 350C115 526 220 664 385 664C458 664 515 643 569 617L588 661C531 689 464 710 388 710C194 710 65 558 65 349C65 130 193 -9 385 -9C470 -9 545 15 607 51ZM504 769V806H240V769Z" glyph-name="uni1E20" horiz-adv-x="700" unicode="&#7712;" /><glyph d="M102 262C102 400 175 479 272 479C321 479 369 457 406 428V101C372 73 325 48 271 48C171 48 102 134 102 262ZM452 511H418L408 468C370 499 321 520 266 520C145 520 55 425 55 261C55 105 144 7 261 7C324 7 372 34 406 59V18C406 -83 350 -135 253 -135C199 -135 147 -122 99 -100L84 -140C136 -163 193 -176 253 -176C377 -176 452 -112 452 22ZM395 610V645H165V610Z" glyph-name="uni1E21" horiz-adv-x="542" unicode="&#7713;" /><glyph d="M156 337H558V0H608V700H558V383H156V700H106V0H156ZM381 -118V-51H333V-118Z" glyph-name="uni1E24" horiz-adv-x="714" unicode="&#7716;" /><glyph d="M137 420C176 451 235 477 290 477C375 477 420 427 420 334V0H466V341C466 457 407 520 302 520C236 520 182 495 137 462V724H90V0H137ZM301 -118V-51H253V-118Z" glyph-name="uni1E25" horiz-adv-x="551" unicode="&#7717;" /><glyph d="M198 -81C198 -53 173 -37 126 -37L152 0H156V337H558V0H608V700H558V383H156V700H106V0H114L82 -51L92 -64C135 -60 153 -68 153 -84C153 -101 130 -113 58 -120L62 -147C162 -140 198 -116 198 -81Z" glyph-name="uni1E28" horiz-adv-x="714" unicode="&#7720;" /><glyph d="M180 -81C180 -53 155 -37 108 -37L134 0H137V420C176 451 235 477 290 477C375 477 420 427 420 334V0H466V341C466 457 407 520 302 520C236 520 182 495 137 462V724H90V0H96L64 -51L74 -64C117 -60 135 -68 135 -84C135 -101 112 -113 40 -120L44 -147C144 -140 180 -116 180 -81Z" glyph-name="uni1E29" horiz-adv-x="551" unicode="&#7721;" /><glyph d="M156 337H558V0H608V700H558V383H156V700H106V0H156ZM357 -131C314 -131 291 -103 285 -56H253C255 -123 295 -169 357 -169C419 -169 459 -123 461 -56H429C423 -103 400 -131 357 -131Z" glyph-name="uni1E2A" horiz-adv-x="714" unicode="&#7722;" /><glyph d="M137 420C176 451 235 477 290 477C375 477 420 427 420 334V0H466V341C466 457 407 520 302 520C236 520 182 495 137 462V724H90V0H137ZM277 -131C234 -131 211 -103 205 -56H173C175 -123 215 -169 277 -169C339 -169 379 -123 381 -56H349C343 -103 320 -131 277 -131Z" glyph-name="uni1E2B" horiz-adv-x="551" unicode="&#7723;" /><glyph d="M532 0H600L225 360L594 700H527L177 375H156V700H106V0H156V344H175ZM345 -118V-51H297V-118Z" glyph-name="uni1E32" horiz-adv-x="621" unicode="&#7730;" /><glyph d="M137 724H90V0H137V253H154L398 0H461L201 266L455 511H392L153 278H137ZM277 -118V-51H229V-118Z" glyph-name="uni1E33" horiz-adv-x="480" unicode="&#7731;" /><glyph d="M532 0H600L225 360L594 700H527L177 375H156V700H106V0H156V344H175ZM436 -98V-63H206V-98Z" glyph-name="uni1E34" horiz-adv-x="621" unicode="&#7732;" /><glyph d="M137 724H90V0H137V253H154L398 0H461L201 266L455 511H392L153 278H137ZM368 -98V-63H138V-98Z" glyph-name="uni1E35" horiz-adv-x="480" unicode="&#7733;" /><glyph d="M513 0V45H156V700H106V0ZM331 -123V-56H283V-123Z" glyph-name="uni1E36" horiz-adv-x="544" unicode="&#7734;" /><glyph d="M139 0V724H92V0ZM140 -123V-56H92V-123Z" glyph-name="uni1E37" horiz-adv-x="231" unicode="&#7735;" /><glyph d="M513 0V45H156V700H106V0ZM246 762V799H16V762ZM331 -123V-56H283V-123Z" glyph-name="uni1E38" horiz-adv-x="544" unicode="&#7736;" /><glyph d="M139 0V724H92V0ZM216 802V837H16V802ZM140 -123V-56H92V-123Z" glyph-name="uni1E39" horiz-adv-x="231" unicode="&#7737;" /><glyph d="M513 0V45H156V700H106V0ZM422 -98V-63H192V-98Z" glyph-name="uni1E3A" horiz-adv-x="544" unicode="&#7738;" /><glyph d="M139 0V724H92V0ZM216 -98V-63H16V-98Z" glyph-name="uni1E3B" horiz-adv-x="231" unicode="&#7739;" /><glyph d="M513 0V45H156V700H106V0ZM307 -94 381 -172H418L328 -56H286L196 -172H232Z" glyph-name="uni1E3C" horiz-adv-x="544" unicode="&#7740;" /><glyph d="M139 0V724H92V0ZM116 -94 190 -172H227L137 -56H95L5 -172H41Z" glyph-name="uni1E3D" horiz-adv-x="231" unicode="&#7741;" /><glyph d="M767 0H816L783 700H721L455 61L190 700H128L93 0H142L169 631L432 -2H477L740 631ZM455 751 589 847H514L408 751Z" glyph-name="uni1E3E" horiz-adv-x="910" unicode="&#7742;" /><glyph d="M784 0V342C784 459 723 520 620 520C553 520 490 489 435 450C409 496 363 520 300 520C233 520 180 493 135 461L124 511H90V0H137V420C176 451 233 477 287 477C370 477 414 427 414 335V0H461V339C461 368 456 393 448 414C498 451 556 477 607 477C692 477 738 427 738 335V0ZM437 592 569 707H500L398 592Z" glyph-name="uni1E3F" horiz-adv-x="869" unicode="&#7743;" /><glyph d="M767 0H816L783 700H721L455 61L190 700H128L93 0H142L169 631L432 -2H477L740 631ZM480 751V819H430V751Z" glyph-name="uni1E40" horiz-adv-x="910" unicode="&#7744;" /><glyph d="M784 0V342C784 459 723 520 620 520C553 520 490 489 435 450C409 496 363 520 300 520C233 520 180 493 135 461L124 511H90V0H137V420C176 451 233 477 287 477C370 477 414 427 414 335V0H461V339C461 368 456 393 448 414C498 451 556 477 607 477C692 477 738 427 738 335V0ZM461 601V668H413V601Z" glyph-name="uni1E41" horiz-adv-x="869" unicode="&#7745;" /><glyph d="M767 0H816L783 700H721L455 61L190 700H128L93 0H142L169 631L432 -2H477L740 631ZM478 -123V-56H430V-123Z" glyph-name="uni1E42" horiz-adv-x="910" unicode="&#7746;" /><glyph d="M784 0V342C784 459 723 520 620 520C553 520 490 489 435 450C409 496 363 520 300 520C233 520 180 493 135 461L124 511H90V0H137V420C176 451 233 477 287 477C370 477 414 427 414 335V0H461V339C461 368 456 393 448 414C498 451 556 477 607 477C692 477 738 427 738 335V0ZM461 -123V-56H413V-123Z" glyph-name="uni1E43" horiz-adv-x="869" unicode="&#7747;" /><glyph d="M558 0H611V700H563V79L162 700H106V0H154V626ZM393 751V819H343V751Z" glyph-name="uni1E44" horiz-adv-x="717" unicode="&#7748;" /><glyph d="M137 420C176 451 235 477 290 477C375 477 420 427 420 334V0H466V341C466 457 407 520 302 520C234 520 180 493 135 461L124 511H90V0H137ZM300 604V671H252V604Z" glyph-name="uni1E45" horiz-adv-x="551" unicode="&#7749;" /><glyph d="M558 0H611V700H563V79L162 700H106V0H154V626ZM375 -118V-51H327V-118Z" glyph-name="uni1E46" horiz-adv-x="717" unicode="&#7750;" /><glyph d="M137 420C176 451 235 477 290 477C375 477 420 427 420 334V0H466V341C466 457 407 520 302 520C234 520 180 493 135 461L124 511H90V0H137ZM301 -118V-51H253V-118Z" glyph-name="uni1E47" horiz-adv-x="551" unicode="&#7751;" /><glyph d="M558 0H611V700H563V79L162 700H106V0H154V626ZM466 -98V-63H236V-98Z" glyph-name="uni1E48" horiz-adv-x="717" unicode="&#7752;" /><glyph d="M137 420C176 451 235 477 290 477C375 477 420 427 420 334V0H466V341C466 457 407 520 302 520C234 520 180 493 135 461L124 511H90V0H137ZM392 -98V-63H162V-98Z" glyph-name="uni1E49" horiz-adv-x="551" unicode="&#7753;" /><glyph d="M558 0H611V700H563V79L162 700H106V0H154V626ZM351 -89 425 -167H462L372 -51H330L240 -167H276Z" glyph-name="uni1E4A" horiz-adv-x="717" unicode="&#7754;" /><glyph d="M137 420C176 451 235 477 290 477C375 477 420 427 420 334V0H466V341C466 457 407 520 302 520C234 520 180 493 135 461L124 511H90V0H137ZM277 -89 351 -167H388L298 -51H256L166 -167H202Z" glyph-name="uni1E4B" horiz-adv-x="551" unicode="&#7755;" /><glyph d="M156 326V656H332C455 656 519 600 519 504C519 394 417 326 282 326ZM156 282H261C333 282 369 258 420 192L574 0H639L465 210C428 261 405 282 364 297C464 319 569 377 569 508C569 629 487 700 335 700H106V0H156ZM346 756V824H296V756Z" glyph-name="uni1E58" horiz-adv-x="662" unicode="&#7768;" /><glyph d="M137 0V386C191 435 254 466 331 468V515C247 515 183 479 134 426L124 511H90V0ZM223 601V668H175V601Z" glyph-name="uni1E59" horiz-adv-x="364" unicode="&#7769;" /><glyph d="M156 326V656H332C455 656 519 600 519 504C519 394 417 326 282 326ZM156 282H261C333 282 369 258 420 192L574 0H639L465 210C428 261 405 282 364 297C464 319 569 377 569 508C569 629 487 700 335 700H106V0H156ZM360 -118V-51H312V-118Z" glyph-name="uni1E5A" horiz-adv-x="662" unicode="&#7770;" /><glyph d="M137 0V386C191 435 254 466 331 468V515C247 515 183 479 134 426L124 511H90V0ZM138 -123V-56H90V-123Z" glyph-name="uni1E5B" horiz-adv-x="364" unicode="&#7771;" /><glyph d="M156 326V656H332C455 656 519 600 519 504C519 394 417 326 282 326ZM156 282H261C333 282 369 258 420 192L574 0H639L465 210C428 261 405 282 364 297C464 319 569 377 569 508C569 629 487 700 335 700H106V0H156ZM453 762V799H189V762ZM361 -118V-51H313V-118Z" glyph-name="uni1E5C" horiz-adv-x="662" unicode="&#7772;" /><glyph d="M137 0V386C191 435 254 466 331 468V515C247 515 183 479 134 426L124 511H90V0ZM299 607V642H99V607ZM138 -123V-56H90V-123Z" glyph-name="uni1E5D" horiz-adv-x="364" unicode="&#7773;" /><glyph d="M156 326V656H332C455 656 519 600 519 504C519 394 417 326 282 326ZM156 282H261C333 282 369 258 420 192L574 0H639L465 210C428 261 405 282 364 297C464 319 569 377 569 508C569 629 487 700 335 700H106V0H156ZM451 -98V-63H221V-98Z" glyph-name="uni1E5E" horiz-adv-x="662" unicode="&#7774;" /><glyph d="M137 0V386C191 435 254 466 331 468V515C247 515 183 479 134 426L124 511H90V0ZM214 -98V-63H14V-98Z" glyph-name="uni1E5F" horiz-adv-x="364" unicode="&#7775;" /><glyph d="M543 181C543 277 490 334 320 386C175 431 131 474 131 539C131 611 198 664 296 664C371 664 431 646 494 616L512 659C447 690 380 708 300 708C173 708 81 639 81 535C81 446 135 393 303 342C449 294 494 252 494 177C494 96 417 36 304 36C217 36 135 63 67 102L47 58C123 17 209 -8 301 -8C448 -8 543 67 543 181ZM327 -130V-63H279V-130Z" glyph-name="uni1E62" horiz-adv-x="604" unicode="&#7778;" /><glyph d="M416 130C416 201 380 242 251 281C150 313 115 338 115 391C115 441 160 479 233 479C284 479 335 463 377 440L395 480C347 504 293 520 234 520C136 520 70 465 70 387C70 311 117 275 234 240C342 207 370 177 370 127C370 70 318 32 239 32C177 32 115 51 64 80L47 40C101 10 170 -10 238 -10C341 -10 416 41 416 130ZM263 -126V-59H215V-126Z" glyph-name="uni1E63" horiz-adv-x="472" unicode="&#7779;" /><glyph d="M329 0V655H577V700H31V655H279V0ZM328 -123V-56H280V-123Z" glyph-name="uni1E6C" horiz-adv-x="608" unicode="&#7788;" /><glyph d="M262 -8C290 -8 314 -4 336 2V44C313 37 291 34 269 34C204 34 166 71 166 144V470H335V511H166V666H119V511H33V470H119V138C119 41 172 -8 262 -8ZM255 -126V-59H207V-126Z" glyph-name="uni1E6D" horiz-adv-x="383" unicode="&#7789;" /><glyph d="M329 0V655H577V700H31V655H279V0ZM419 -98V-63H189V-98Z" glyph-name="uni1E6E" horiz-adv-x="608" unicode="&#7790;" /><glyph d="M262 -8C290 -8 314 -4 336 2V44C313 37 291 34 269 34C204 34 166 71 166 144V470H335V511H166V666H119V511H33V470H119V138C119 41 172 -8 262 -8ZM331 -101V-66H131V-101Z" glyph-name="uni1E6F" horiz-adv-x="383" unicode="&#7791;" /><glyph d="M329 0V655H577V700H31V655H279V0ZM304 -94 378 -172H415L325 -56H283L193 -172H229Z" glyph-name="uni1E70" horiz-adv-x="608" unicode="&#7792;" /><glyph d="M262 -8C290 -8 314 -4 336 2V44C313 37 291 34 269 34C204 34 166 71 166 144V470H335V511H166V666H119V511H33V470H119V138C119 41 172 -8 262 -8ZM231 -97 305 -175H342L252 -59H210L120 -175H156Z" glyph-name="uni1E71" horiz-adv-x="383" unicode="&#7793;" /><glyph d="M361 -11 631 700H578L338 52L98 700H44L314 -11ZM362 -130V-63H314V-130Z" glyph-name="uni1E7E" horiz-adv-x="675" unicode="&#7806;" /><glyph d="M272 -9 466 511H418L251 44L83 511H34L228 -9ZM274 -126V-59H226V-126Z" glyph-name="uni1E7F" horiz-adv-x="500" unicode="&#7807;" /><glyph d="M535 0H593L350 361L580 700H523L319 397L114 700H56L287 360L43 0H100L318 323ZM268 756V824H218V756ZM418 756V824H368V756Z" glyph-name="uni1E8C" horiz-adv-x="637" unicode="&#7820;" /><glyph d="M400 0H452L271 263L442 511H392L245 294L98 511H46L217 263L36 0H87L243 231ZM198 601V668H150V601ZM338 601V668H290V601Z" glyph-name="uni1E8D" horiz-adv-x="488" unicode="&#7821;" /><glyph d="M340 0V288L601 700H545L316 333L87 700H29L290 288V0ZM340 751V819H290V751Z" glyph-name="uni1E8E" horiz-adv-x="630" unicode="&#7822;" /><glyph d="M66 -177C174 -147 234 -101 283 29L465 511H416L252 53L87 511H38L226 7C187 -74 138 -115 54 -137ZM275 596V663H227V596Z" glyph-name="uni1E8F" horiz-adv-x="497" unicode="&#7823;" /><glyph d="M545 0V45H112L545 660V700H70V655H485L51 40V0ZM297 816 370 756H413L321 853H273L181 756H224Z" glyph-name="uni1E90" horiz-adv-x="601" unicode="&#7824;" /><glyph d="M410 0V41H101L410 476V511H58V470H353L44 35V0ZM230 670 304 592H341L251 708H209L119 592H155Z" glyph-name="uni1E91" horiz-adv-x="459" unicode="&#7825;" /><glyph d="M545 0V45H112L545 660V700H70V655H485L51 40V0ZM333 -123V-56H285V-123Z" glyph-name="uni1E92" horiz-adv-x="601" unicode="&#7826;" /><glyph d="M410 0V41H101L410 476V511H58V470H353L44 35V0ZM260 -123V-56H212V-123Z" glyph-name="uni1E93" horiz-adv-x="459" unicode="&#7827;" /><glyph d="M545 0V45H112L545 660V700H70V655H485L51 40V0ZM424 -98V-63H194V-98Z" glyph-name="uni1E94" horiz-adv-x="601" unicode="&#7828;" /><glyph d="M410 0V41H101L410 476V511H58V470H353L44 35V0ZM351 -98V-63H121V-98Z" glyph-name="uni1E95" horiz-adv-x="459" unicode="&#7829;" /><glyph d="M137 420C176 451 235 477 290 477C375 477 420 427 420 334V0H466V341C466 457 407 520 302 520C236 520 182 495 137 462V724H90V0H137ZM392 -98V-63H162V-98Z" glyph-name="uni1E96" horiz-adv-x="551" unicode="&#7830;" /><glyph d="M400 -11C525 -11 607 59 607 157C607 252 534 317 388 361L595 596V604C537 672 451 710 356 710C198 710 95 608 95 438V0H144V439C144 582 231 666 355 666C424 666 486 643 536 599L325 361V334C488 289 557 239 557 159C557 86 496 33 399 33C350 33 310 42 269 58V12C310 -4 351 -11 400 -11Z" glyph-name="uni1E9E" horiz-adv-x="662" unicode="&#7838;" /><glyph d="M508 225H182L345 652ZM594 0H648L371 711H321L44 0H96L165 181H525ZM371 -118V-51H323V-118Z" glyph-name="uni1EA0" horiz-adv-x="691" unicode="&#7840;" /><glyph d="M220 32C144 32 96 75 96 149C96 179 106 207 124 226C151 253 186 270 309 270C334 270 361 268 385 266V105C332 59 275 32 220 32ZM388 66 406 0H442L431 96V361C431 470 375 518 261 518C200 518 141 502 90 481L104 441C153 462 204 477 257 477C346 477 385 437 385 360V305C361 308 335 310 308 310C175 310 125 290 91 255C65 229 50 193 50 147C50 45 117 -9 210 -9C273 -9 330 16 388 66ZM278 -126V-59H230V-126Z" glyph-name="uni1EA1" horiz-adv-x="517" unicode="&#7841;" /><glyph d="M508 225H182L345 652ZM594 0H648L371 711H321L44 0H96L165 181H525ZM240 871 247 837C279 844 312 849 344 849C390 849 407 841 407 829C407 816 392 808 324 785L334 757C424 784 451 804 451 834C451 864 419 884 348 884C308 884 275 880 240 871Z" glyph-name="uni1EA2" horiz-adv-x="691" unicode="&#7842;" /><glyph d="M220 32C144 32 96 75 96 149C96 179 106 207 124 226C151 253 186 270 309 270C334 270 361 268 385 266V105C332 59 275 32 220 32ZM388 66 406 0H442L431 96V361C431 470 375 518 261 518C200 518 141 502 90 481L104 441C153 462 204 477 257 477C346 477 385 437 385 360V305C361 308 335 310 308 310C175 310 125 290 91 255C65 229 50 193 50 147C50 45 117 -9 210 -9C273 -9 330 16 388 66ZM166 712 175 679C202 687 229 692 257 692C294 692 310 682 310 668C310 654 295 643 237 616L248 589C329 622 352 643 352 674C352 705 320 727 259 727C227 727 196 722 166 712Z" glyph-name="uni1EA3" horiz-adv-x="517" unicode="&#7843;" /><glyph d="M508 225H182L345 652ZM594 0H648L371 711H321L44 0H96L165 181H525ZM482 845 603 926H529L436 845ZM345 813 420 763H463L369 848H321L227 763H269Z" glyph-name="uni1EA4" horiz-adv-x="691" unicode="&#7844;" /><glyph d="M220 32C144 32 96 75 96 149C96 179 106 207 124 226C151 253 186 270 309 270C334 270 361 268 385 266V105C332 59 275 32 220 32ZM388 66 406 0H442L431 96V361C431 470 375 518 261 518C200 518 141 502 90 481L104 441C153 462 204 477 257 477C346 477 385 437 385 360V305C361 308 335 310 308 310C175 310 125 290 91 255C65 229 50 193 50 147C50 45 117 -9 210 -9C273 -9 330 16 388 66ZM391 689 507 785H439L352 689ZM259 663 336 595H373L280 699H238L145 595H182Z" glyph-name="uni1EA5" horiz-adv-x="517" unicode="&#7845;" /><glyph d="M508 225H182L345 652ZM594 0H648L371 711H321L44 0H96L165 181H525ZM532 845 439 926H365L486 845ZM345 813 420 763H463L369 848H321L227 763H269Z" glyph-name="uni1EA6" horiz-adv-x="691" unicode="&#7846;" /><glyph d="M220 32C144 32 96 75 96 149C96 179 106 207 124 226C151 253 186 270 309 270C334 270 361 268 385 266V105C332 59 275 32 220 32ZM388 66 406 0H442L431 96V361C431 470 375 518 261 518C200 518 141 502 90 481L104 441C153 462 204 477 257 477C346 477 385 437 385 360V305C361 308 335 310 308 310C175 310 125 290 91 255C65 229 50 193 50 147C50 45 117 -9 210 -9C273 -9 330 16 388 66ZM394 689H433L346 785H278ZM259 663 336 595H373L280 699H238L145 595H182Z" glyph-name="uni1EA7" horiz-adv-x="517" unicode="&#7847;" /><glyph d="M508 225H182L345 652ZM594 0H648L371 711H321L44 0H96L165 181H525ZM390 936 397 903C419 909 442 912 465 912C496 912 509 905 509 894C509 884 495 875 448 857L459 829C527 853 550 873 550 900C550 926 521 947 468 947C439 947 415 944 390 936ZM345 813 420 763H463L369 848H321L227 763H269Z" glyph-name="uni1EA8" horiz-adv-x="691" unicode="&#7848;" /><glyph d="M220 32C144 32 96 75 96 149C96 179 106 207 124 226C151 253 186 270 309 270C334 270 361 268 385 266V105C332 59 275 32 220 32ZM388 66 406 0H442L431 96V361C431 470 375 518 261 518C200 518 141 502 90 481L104 441C153 462 204 477 257 477C346 477 385 437 385 360V305C361 308 335 310 308 310C175 310 125 290 91 255C65 229 50 193 50 147C50 45 117 -9 210 -9C273 -9 330 16 388 66ZM304 785 312 753C334 760 355 764 376 764C406 764 418 755 418 743C418 731 406 721 360 698L372 673C438 702 458 722 458 749C458 777 430 797 380 797C353 797 329 794 304 785ZM259 663 336 595H373L280 699H238L145 595H182Z" glyph-name="uni1EA9" horiz-adv-x="517" unicode="&#7849;" /><glyph d="M508 225H182L345 652ZM594 0H648L371 711H321L44 0H96L165 181H525ZM263 869C280 905 289 914 301 914C311 914 319 910 346 894C374 875 387 870 403 870C429 870 447 890 468 942L438 953C421 917 412 908 400 908C390 908 382 912 355 928C326 947 314 952 298 952C271 952 253 932 232 880ZM345 809 421 763H465L369 844H321L225 763H268Z" glyph-name="uni1EAA" horiz-adv-x="691" unicode="&#7850;" /><glyph d="M220 32C144 32 96 75 96 149C96 179 106 207 124 226C151 253 186 270 309 270C334 270 361 268 385 266V105C332 59 275 32 220 32ZM388 66 406 0H442L431 96V361C431 470 375 518 261 518C200 518 141 502 90 481L104 441C153 462 204 477 257 477C346 477 385 437 385 360V305C361 308 335 310 308 310C175 310 125 290 91 255C65 229 50 193 50 147C50 45 117 -9 210 -9C273 -9 330 16 388 66ZM179 720C195 754 205 763 217 763C227 763 234 760 260 744C288 727 299 721 315 721C342 721 359 742 380 791L350 802C335 767 324 759 313 759C303 759 296 762 270 778C241 795 230 800 215 800C188 800 171 780 150 731ZM259 656 337 595H374L280 692H238L144 595H180Z" glyph-name="uni1EAB" horiz-adv-x="517" unicode="&#7851;" /><glyph d="M508 225H182L345 652ZM594 0H648L371 711H321L44 0H96L165 181H525ZM345 823 418 763H461L369 860H321L229 763H272ZM371 -118V-51H323V-118Z" glyph-name="uni1EAC" horiz-adv-x="691" unicode="&#7852;" /><glyph d="M220 32C144 32 96 75 96 149C96 179 106 207 124 226C151 253 186 270 309 270C334 270 361 268 385 266V105C332 59 275 32 220 32ZM388 66 406 0H442L431 96V361C431 470 375 518 261 518C200 518 141 502 90 481L104 441C153 462 204 477 257 477C346 477 385 437 385 360V305C361 308 335 310 308 310C175 310 125 290 91 255C65 229 50 193 50 147C50 45 117 -9 210 -9C273 -9 330 16 388 66ZM259 673 333 595H370L280 711H238L148 595H184ZM278 -126V-59H230V-126Z" glyph-name="uni1EAD" horiz-adv-x="517" unicode="&#7853;" /><glyph d="M508 225H182L345 652ZM594 0H648L371 711H321L44 0H96L165 181H525ZM354 866 476 947H400L307 866ZM345 799C305 799 280 817 271 847H235C243 795 286 761 345 761C404 761 447 795 455 847H419C410 817 385 799 345 799Z" glyph-name="uni1EAE" horiz-adv-x="691" unicode="&#7854;" /><glyph d="M220 32C144 32 96 75 96 149C96 179 106 207 124 226C151 253 186 270 309 270C334 270 361 268 385 266V105C332 59 275 32 220 32ZM388 66 406 0H442L431 96V361C431 470 375 518 261 518C200 518 141 502 90 481L104 441C153 462 204 477 257 477C346 477 385 437 385 360V305C361 308 335 310 308 310C175 310 125 290 91 255C65 229 50 193 50 147C50 45 117 -9 210 -9C273 -9 330 16 388 66ZM267 709 383 804H313L226 709ZM259 630C216 630 192 654 185 693H153C155 633 197 593 259 593C321 593 363 633 365 693H333C326 654 302 630 259 630Z" glyph-name="uni1EAF" horiz-adv-x="517" unicode="&#7855;" /><glyph d="M508 225H182L345 652ZM594 0H648L371 711H321L44 0H96L165 181H525ZM383 866 290 947H214L336 866ZM345 799C305 799 280 817 271 847H235C243 795 286 761 345 761C404 761 447 795 455 847H419C410 817 385 799 345 799Z" glyph-name="uni1EB0" horiz-adv-x="691" unicode="&#7856;" /><glyph d="M220 32C144 32 96 75 96 149C96 179 106 207 124 226C151 253 186 270 309 270C334 270 361 268 385 266V105C332 59 275 32 220 32ZM388 66 406 0H442L431 96V361C431 470 375 518 261 518C200 518 141 502 90 481L104 441C153 462 204 477 257 477C346 477 385 437 385 360V305C361 308 335 310 308 310C175 310 125 290 91 255C65 229 50 193 50 147C50 45 117 -9 210 -9C273 -9 330 16 388 66ZM251 709H292L205 804H135ZM259 630C216 630 192 654 185 693H153C155 633 197 593 259 593C321 593 363 633 365 693H333C326 654 302 630 259 630Z" glyph-name="uni1EB1" horiz-adv-x="517" unicode="&#7857;" /><glyph d="M508 225H182L345 652ZM594 0H648L371 711H321L44 0H96L165 181H525ZM258 960 265 927C290 933 316 937 342 937C378 937 391 930 391 920C391 909 376 899 325 881L335 854C411 878 434 898 434 925C434 952 404 972 345 972C314 972 285 968 258 960ZM345 799C305 799 280 817 271 847H235C243 795 286 761 345 761C404 761 447 795 455 847H419C410 817 385 799 345 799Z" glyph-name="uni1EB2" horiz-adv-x="691" unicode="&#7858;" /><glyph d="M220 32C144 32 96 75 96 149C96 179 106 207 124 226C151 253 186 270 309 270C334 270 361 268 385 266V105C332 59 275 32 220 32ZM388 66 406 0H442L431 96V361C431 470 375 518 261 518C200 518 141 502 90 481L104 441C153 462 204 477 257 477C346 477 385 437 385 360V305C361 308 335 310 308 310C175 310 125 290 91 255C65 229 50 193 50 147C50 45 117 -9 210 -9C273 -9 330 16 388 66ZM179 807 188 774C210 781 231 785 253 785C282 785 295 776 295 765C295 753 282 742 237 720L248 694C316 724 337 744 337 771C337 799 308 819 257 819C229 819 205 815 179 807ZM259 630C216 630 192 654 185 693H153C155 633 197 593 259 593C321 593 363 633 365 693H333C326 654 302 630 259 630Z" glyph-name="uni1EB3" horiz-adv-x="517" unicode="&#7859;" /><glyph d="M508 225H182L345 652ZM594 0H648L371 711H321L44 0H96L165 181H525ZM259 874C276 910 285 919 296 919C307 919 315 915 341 899C370 880 383 875 399 875C425 875 443 895 464 947L434 958C417 922 408 913 396 913C385 913 378 917 351 933C322 952 310 957 294 957C267 957 249 937 228 885ZM345 799C305 799 280 817 271 847H235C243 795 286 761 345 761C404 761 447 795 455 847H419C410 817 385 799 345 799Z" glyph-name="uni1EB4" horiz-adv-x="691" unicode="&#7860;" /><glyph d="M220 32C144 32 96 75 96 149C96 179 106 207 124 226C151 253 186 270 309 270C334 270 361 268 385 266V105C332 59 275 32 220 32ZM388 66 406 0H442L431 96V361C431 470 375 518 261 518C200 518 141 502 90 481L104 441C153 462 204 477 257 477C346 477 385 437 385 360V305C361 308 335 310 308 310C175 310 125 290 91 255C65 229 50 193 50 147C50 45 117 -9 210 -9C273 -9 330 16 388 66ZM175 725C190 759 201 768 212 768C222 768 229 765 255 749C284 732 294 727 310 727C337 727 354 747 375 796L346 807C330 772 320 764 308 764C298 764 291 767 265 783C237 800 226 805 210 805C183 805 166 785 145 736ZM259 630C216 630 192 654 185 693H153C155 633 197 593 259 593C321 593 363 633 365 693H333C326 654 302 630 259 630Z" glyph-name="uni1EB5" horiz-adv-x="517" unicode="&#7861;" /><glyph d="M508 225H182L345 652ZM594 0H648L371 711H321L44 0H96L165 181H525ZM345 799C306 799 282 822 273 862H237C244 800 286 761 345 761C404 761 446 800 453 862H417C408 822 384 799 345 799ZM371 -118V-51H323V-118Z" glyph-name="uni1EB6" horiz-adv-x="691" unicode="&#7862;" /><glyph d="M220 32C144 32 96 75 96 149C96 179 106 207 124 226C151 253 186 270 309 270C334 270 361 268 385 266V105C332 59 275 32 220 32ZM388 66 406 0H442L431 96V361C431 470 375 518 261 518C200 518 141 502 90 481L104 441C153 462 204 477 257 477C346 477 385 437 385 360V305C361 308 335 310 308 310C175 310 125 290 91 255C65 229 50 193 50 147C50 45 117 -9 210 -9C273 -9 330 16 388 66ZM259 631C216 631 193 659 187 706H155C157 639 197 593 259 593C321 593 361 639 363 706H331C325 659 302 631 259 631ZM278 -126V-59H230V-126Z" glyph-name="uni1EB7" horiz-adv-x="517" unicode="&#7863;" /><glyph d="M554 0V45H156V337H507V382H156V655H549V700H106V0ZM363 -123V-56H315V-123Z" glyph-name="uni1EB8" horiz-adv-x="616" unicode="&#7864;" /><glyph d="M275 -10C333 -10 389 8 441 41L423 77C376 48 326 31 277 31C174 31 105 116 100 237H461V253C461 407 386 523 261 523C140 523 54 410 54 254C54 85 151 -10 275 -10ZM100 277C106 393 169 482 259 482C351 482 410 395 416 277ZM286 -126V-59H238V-126Z" glyph-name="uni1EB9" horiz-adv-x="509" unicode="&#7865;" /><glyph d="M554 0V45H156V337H507V382H156V655H549V700H106V0ZM231 864 238 830C270 837 303 842 335 842C381 842 398 834 398 822C398 809 383 801 315 778L325 750C415 777 442 797 442 827C442 857 410 877 339 877C299 877 266 873 231 864Z" glyph-name="uni1EBA" horiz-adv-x="616" unicode="&#7866;" /><glyph d="M275 -10C333 -10 389 8 441 41L423 77C376 48 326 31 277 31C174 31 105 116 100 237H461V253C461 407 386 523 261 523C140 523 54 410 54 254C54 85 151 -10 275 -10ZM100 277C106 393 169 482 259 482C351 482 410 395 416 277ZM170 712 179 679C206 687 233 692 261 692C298 692 314 682 314 668C314 654 299 643 241 616L252 589C333 622 356 643 356 674C356 705 324 727 263 727C231 727 200 722 170 712Z" glyph-name="uni1EBB" horiz-adv-x="509" unicode="&#7867;" /><glyph d="M554 0V45H156V337H507V382H156V655H549V700H106V0ZM238 754C257 796 267 805 281 805C293 805 302 801 332 782C365 762 379 755 397 755C430 755 449 778 472 834L440 845C421 804 411 794 398 794C385 794 376 799 346 817C313 838 299 844 282 844C248 844 230 822 206 766Z" glyph-name="uni1EBC" horiz-adv-x="616" unicode="&#7868;" /><glyph d="M275 -10C333 -10 389 8 441 41L423 77C376 48 326 31 277 31C174 31 105 116 100 237H461V253C461 407 386 523 261 523C140 523 54 410 54 254C54 85 151 -10 275 -10ZM100 277C106 393 169 482 259 482C351 482 410 395 416 277ZM167 593C185 635 197 645 211 645C221 645 229 641 259 622C291 601 304 595 321 595C354 595 372 618 396 675L366 685C347 643 336 633 322 633C311 633 304 637 274 656C242 677 229 684 212 684C179 684 161 661 137 604Z" glyph-name="uni1EBD" horiz-adv-x="509" unicode="&#7869;" /><glyph d="M554 0V45H156V337H507V382H156V655H549V700H106V0ZM473 838 594 919H520L427 838ZM336 806 411 756H454L360 841H312L218 756H260Z" glyph-name="uni1EBE" horiz-adv-x="616" unicode="&#7870;" /><glyph d="M275 -10C333 -10 389 8 441 41L423 77C376 48 326 31 277 31C174 31 105 116 100 237H461V253C461 407 386 523 261 523C140 523 54 410 54 254C54 85 151 -10 275 -10ZM100 277C106 393 169 482 259 482C351 482 410 395 416 277ZM395 689 511 785H443L356 689ZM263 663 340 595H377L284 699H242L149 595H186Z" glyph-name="uni1EBF" horiz-adv-x="509" unicode="&#7871;" /><glyph d="M554 0V45H156V337H507V382H156V655H549V700H106V0ZM523 838 430 919H356L477 838ZM336 806 411 756H454L360 841H312L218 756H260Z" glyph-name="uni1EC0" horiz-adv-x="616" unicode="&#7872;" /><glyph d="M275 -10C333 -10 389 8 441 41L423 77C376 48 326 31 277 31C174 31 105 116 100 237H461V253C461 407 386 523 261 523C140 523 54 410 54 254C54 85 151 -10 275 -10ZM100 277C106 393 169 482 259 482C351 482 410 395 416 277ZM398 689H437L350 785H282ZM263 663 340 595H377L284 699H242L149 595H186Z" glyph-name="uni1EC1" horiz-adv-x="509" unicode="&#7873;" /><glyph d="M554 0V45H156V337H507V382H156V655H549V700H106V0ZM381 929 388 896C410 902 433 905 456 905C487 905 500 898 500 887C500 877 486 868 439 850L450 822C518 846 541 866 541 893C541 919 512 940 459 940C430 940 406 937 381 929ZM336 806 411 756H454L360 841H312L218 756H260Z" glyph-name="uni1EC2" horiz-adv-x="616" unicode="&#7874;" /><glyph d="M275 -10C333 -10 389 8 441 41L423 77C376 48 326 31 277 31C174 31 105 116 100 237H461V253C461 407 386 523 261 523C140 523 54 410 54 254C54 85 151 -10 275 -10ZM100 277C106 393 169 482 259 482C351 482 410 395 416 277ZM308 785 316 753C338 760 359 764 380 764C410 764 422 755 422 743C422 731 410 721 364 698L376 673C442 702 462 722 462 749C462 777 434 797 384 797C357 797 333 794 308 785ZM263 663 340 595H377L284 699H242L149 595H186Z" glyph-name="uni1EC3" horiz-adv-x="509" unicode="&#7875;" /><glyph d="M554 0V45H156V337H507V382H156V655H549V700H106V0ZM254 862C271 898 280 907 292 907C302 907 310 903 337 887C365 868 378 863 394 863C420 863 438 883 459 935L429 946C412 910 403 901 391 901C381 901 373 905 346 921C317 940 305 945 289 945C262 945 244 925 223 873ZM336 802 412 756H456L360 837H312L216 756H259Z" glyph-name="uni1EC4" horiz-adv-x="616" unicode="&#7876;" /><glyph d="M275 -10C333 -10 389 8 441 41L423 77C376 48 326 31 277 31C174 31 105 116 100 237H461V253C461 407 386 523 261 523C140 523 54 410 54 254C54 85 151 -10 275 -10ZM100 277C106 393 169 482 259 482C351 482 410 395 416 277ZM183 720C199 754 209 763 221 763C231 763 238 760 264 744C292 727 303 721 319 721C346 721 363 742 384 791L354 802C339 767 328 759 317 759C307 759 300 762 274 778C245 795 234 800 219 800C192 800 175 780 154 731ZM263 656 341 595H378L284 692H242L148 595H184Z" glyph-name="uni1EC5" horiz-adv-x="509" unicode="&#7877;" /><glyph d="M554 0V45H156V337H507V382H156V655H549V700H106V0ZM336 816 409 756H452L360 853H312L220 756H263ZM363 -123V-56H315V-123Z" glyph-name="uni1EC6" horiz-adv-x="616" unicode="&#7878;" /><glyph d="M275 -10C333 -10 389 8 441 41L423 77C376 48 326 31 277 31C174 31 105 116 100 237H461V253C461 407 386 523 261 523C140 523 54 410 54 254C54 85 151 -10 275 -10ZM100 277C106 393 169 482 259 482C351 482 410 395 416 277ZM263 673 337 595H374L284 711H242L152 595H188ZM286 -126V-59H238V-126Z" glyph-name="uni1EC7" horiz-adv-x="509" unicode="&#7879;" /><glyph d="M160 0V700H110V0ZM30 864 37 830C69 837 102 842 134 842C180 842 197 834 197 822C197 809 182 801 114 778L124 750C214 777 241 797 241 827C241 857 209 877 138 877C98 877 65 873 30 864Z" glyph-name="uni1EC8" horiz-adv-x="269" unicode="&#7880;" /><glyph d="M139 0V511H92V0ZM22 709 31 676C58 684 85 689 113 689C150 689 166 679 166 665C166 651 151 640 93 613L104 586C185 619 208 640 208 671C208 702 176 724 115 724C83 724 52 719 22 709Z" glyph-name="uni1EC9" horiz-adv-x="231" unicode="&#7881;" /><glyph d="M160 0V700H110V0ZM159 -123V-56H111V-123Z" glyph-name="uni1ECA" horiz-adv-x="269" unicode="&#7882;" /><glyph d="M143 641V708H89V641ZM139 0V511H92V0ZM140 -123V-56H92V-123Z" glyph-name="uni1ECB" horiz-adv-x="231" unicode="&#7883;" /><glyph d="M654 351C654 563 531 712 361 712C189 712 65 561 65 349C65 137 188 -12 359 -12C529 -12 654 139 654 351ZM604 349C604 166 504 32 360 32C216 32 115 166 115 351C115 534 216 668 359 668C503 668 604 534 604 349ZM384 -130V-63H336V-130Z" glyph-name="uni1ECC" horiz-adv-x="719" unicode="&#7884;" /><glyph d="M482 256C482 414 391 523 269 523C147 523 54 413 54 255C54 96 145 -12 267 -12C390 -12 482 97 482 256ZM435 255C435 123 365 29 268 29C171 29 101 123 101 256C101 388 171 481 268 481C365 481 435 387 435 255ZM292 -126V-59H244V-126Z" glyph-name="uni1ECD" horiz-adv-x="536" unicode="&#7885;" /><glyph d="M654 351C654 563 531 712 361 712C189 712 65 561 65 349C65 137 188 -12 359 -12C529 -12 654 139 654 351ZM604 349C604 166 504 32 360 32C216 32 115 166 115 351C115 534 216 668 359 668C503 668 604 534 604 349ZM255 871 262 837C294 844 327 849 359 849C405 849 422 841 422 829C422 816 407 808 339 785L349 757C439 784 466 804 466 834C466 864 434 884 363 884C323 884 290 880 255 871Z" glyph-name="uni1ECE" horiz-adv-x="719" unicode="&#7886;" /><glyph d="M482 256C482 414 391 523 269 523C147 523 54 413 54 255C54 96 145 -12 267 -12C390 -12 482 97 482 256ZM435 255C435 123 365 29 268 29C171 29 101 123 101 256C101 388 171 481 268 481C365 481 435 387 435 255ZM174 712 183 679C210 687 237 692 265 692C302 692 318 682 318 668C318 654 303 643 245 616L256 589C337 622 360 643 360 674C360 705 328 727 267 727C235 727 204 722 174 712Z" glyph-name="uni1ECF" horiz-adv-x="536" unicode="&#7887;" /><glyph d="M654 351C654 563 531 712 361 712C189 712 65 561 65 349C65 137 188 -12 359 -12C529 -12 654 139 654 351ZM604 349C604 166 504 32 360 32C216 32 115 166 115 351C115 534 216 668 359 668C503 668 604 534 604 349ZM497 845 618 926H544L451 845ZM360 813 435 763H478L384 848H336L242 763H284Z" glyph-name="uni1ED0" horiz-adv-x="719" unicode="&#7888;" /><glyph d="M482 256C482 414 391 523 269 523C147 523 54 413 54 255C54 96 145 -12 267 -12C390 -12 482 97 482 256ZM435 255C435 123 365 29 268 29C171 29 101 123 101 256C101 388 171 481 268 481C365 481 435 387 435 255ZM400 689 516 785H448L361 689ZM268 663 345 595H382L289 699H247L154 595H191Z" glyph-name="uni1ED1" horiz-adv-x="536" unicode="&#7889;" /><glyph d="M654 351C654 563 531 712 361 712C189 712 65 561 65 349C65 137 188 -12 359 -12C529 -12 654 139 654 351ZM604 349C604 166 504 32 360 32C216 32 115 166 115 351C115 534 216 668 359 668C503 668 604 534 604 349ZM547 845 454 926H380L501 845ZM360 813 435 763H478L384 848H336L242 763H284Z" glyph-name="uni1ED2" horiz-adv-x="719" unicode="&#7890;" /><glyph d="M482 256C482 414 391 523 269 523C147 523 54 413 54 255C54 96 145 -12 267 -12C390 -12 482 97 482 256ZM435 255C435 123 365 29 268 29C171 29 101 123 101 256C101 388 171 481 268 481C365 481 435 387 435 255ZM403 689H442L355 785H287ZM268 663 345 595H382L289 699H247L154 595H191Z" glyph-name="uni1ED3" horiz-adv-x="536" unicode="&#7891;" /><glyph d="M654 351C654 563 531 712 361 712C189 712 65 561 65 349C65 137 188 -12 359 -12C529 -12 654 139 654 351ZM604 349C604 166 504 32 360 32C216 32 115 166 115 351C115 534 216 668 359 668C503 668 604 534 604 349ZM405 936 412 903C434 909 457 912 480 912C511 912 524 905 524 894C524 884 510 875 463 857L474 829C542 853 565 873 565 900C565 926 536 947 483 947C454 947 430 944 405 936ZM360 813 435 763H478L384 848H336L242 763H284Z" glyph-name="uni1ED4" horiz-adv-x="719" unicode="&#7892;" /><glyph d="M482 256C482 414 391 523 269 523C147 523 54 413 54 255C54 96 145 -12 267 -12C390 -12 482 97 482 256ZM435 255C435 123 365 29 268 29C171 29 101 123 101 256C101 388 171 481 268 481C365 481 435 387 435 255ZM313 785 321 753C343 760 364 764 385 764C415 764 427 755 427 743C427 731 415 721 369 698L381 673C447 702 467 722 467 749C467 777 439 797 389 797C362 797 338 794 313 785ZM268 663 345 595H382L289 699H247L154 595H191Z" glyph-name="uni1ED5" horiz-adv-x="536" unicode="&#7893;" /><glyph d="M654 351C654 563 531 712 361 712C189 712 65 561 65 349C65 137 188 -12 359 -12C529 -12 654 139 654 351ZM604 349C604 166 504 32 360 32C216 32 115 166 115 351C115 534 216 668 359 668C503 668 604 534 604 349ZM278 869C295 905 304 914 316 914C326 914 334 910 361 894C389 875 402 870 418 870C444 870 462 890 483 942L453 953C436 917 427 908 415 908C405 908 397 912 370 928C341 947 329 952 313 952C286 952 268 932 247 880ZM360 809 436 763H480L384 844H336L240 763H283Z" glyph-name="uni1ED6" horiz-adv-x="719" unicode="&#7894;" /><glyph d="M482 256C482 414 391 523 269 523C147 523 54 413 54 255C54 96 145 -12 267 -12C390 -12 482 97 482 256ZM435 255C435 123 365 29 268 29C171 29 101 123 101 256C101 388 171 481 268 481C365 481 435 387 435 255ZM188 720C204 754 214 763 226 763C236 763 243 760 269 744C297 727 308 721 324 721C351 721 368 742 389 791L359 802C344 767 333 759 322 759C312 759 305 762 279 778C250 795 239 800 224 800C197 800 180 780 159 731ZM268 656 346 595H383L289 692H247L153 595H189Z" glyph-name="uni1ED7" horiz-adv-x="536" unicode="&#7895;" /><glyph d="M654 351C654 563 531 712 361 712C189 712 65 561 65 349C65 137 188 -12 359 -12C529 -12 654 139 654 351ZM604 349C604 166 504 32 360 32C216 32 115 166 115 351C115 534 216 668 359 668C503 668 604 534 604 349ZM360 823 433 763H476L384 860H336L244 763H287ZM384 -130V-63H336V-130Z" glyph-name="uni1ED8" horiz-adv-x="719" unicode="&#7896;" /><glyph d="M482 256C482 414 391 523 269 523C147 523 54 413 54 255C54 96 145 -12 267 -12C390 -12 482 97 482 256ZM435 255C435 123 365 29 268 29C171 29 101 123 101 256C101 388 171 481 268 481C365 481 435 387 435 255ZM268 673 342 595H379L289 711H247L157 595H193ZM292 -126V-59H244V-126Z" glyph-name="uni1ED9" horiz-adv-x="536" unicode="&#7897;" /><glyph d="M374 763 506 859H434L328 763ZM654 351C654 501 592 615 495 670C585 670 641 713 641 779C641 798 636 816 628 833L588 819C595 806 598 793 598 779C598 730 558 703 475 703C436 703 399 709 361 709C189 709 65 560 65 349C65 137 188 -12 359 -12C529 -12 654 139 654 351ZM604 349C604 166 504 32 360 32C216 32 115 166 115 351C115 533 216 665 359 665C503 665 604 533 604 349Z" glyph-name="uni1EDA" horiz-adv-x="719" unicode="&#7898;" /><glyph d="M276 595 404 710H339L236 595ZM267 -12C389 -12 482 97 482 256C482 365 437 446 368 487C436 491 479 529 479 587C479 605 475 622 466 638L429 625C435 612 438 600 438 587C438 541 401 515 330 515C310 515 289 518 269 518C147 518 54 411 54 255C54 96 146 -12 267 -12ZM435 255C435 123 364 29 268 29C172 29 101 123 101 256C101 386 172 477 268 477C364 477 435 385 435 255Z" glyph-name="uni1EDB" horiz-adv-x="536" unicode="&#7899;" /><glyph d="M654 351C654 501 592 615 495 670C585 670 641 713 641 779C641 798 636 816 628 833L588 819C595 806 598 793 598 779C598 730 558 703 475 703C436 703 399 709 361 709C189 709 65 560 65 349C65 137 188 -12 359 -12C529 -12 654 139 654 351ZM604 349C604 166 504 32 360 32C216 32 115 166 115 351C115 533 216 665 359 665C503 665 604 533 604 349ZM360 763H407L301 859H226Z" glyph-name="uni1EDC" horiz-adv-x="719" unicode="&#7900;" /><glyph d="M267 -12C389 -12 482 97 482 256C482 365 437 446 368 487C436 491 479 529 479 587C479 605 475 622 466 638L429 625C435 612 438 600 438 587C438 541 401 515 330 515C310 515 289 518 269 518C147 518 54 411 54 255C54 96 146 -12 267 -12ZM435 255C435 123 364 29 268 29C172 29 101 123 101 256C101 386 172 477 268 477C364 477 435 385 435 255ZM268 595H307L205 710H136Z" glyph-name="uni1EDD" horiz-adv-x="536" unicode="&#7901;" /><glyph d="M654 351C654 501 592 615 495 670C585 670 641 713 641 779C641 798 636 816 628 833L588 819C595 806 598 793 598 779C598 730 558 703 475 703C436 703 399 709 361 709C189 709 65 560 65 349C65 137 188 -12 359 -12C529 -12 654 139 654 351ZM604 349C604 166 504 32 360 32C216 32 115 166 115 351C115 533 216 665 359 665C503 665 604 533 604 349ZM255 871 262 837C294 844 327 849 359 849C405 849 422 841 422 829C422 816 407 808 339 785L349 757C439 784 466 804 466 834C466 864 434 884 363 884C323 884 290 880 255 871Z" glyph-name="uni1EDE" horiz-adv-x="719" unicode="&#7902;" /><glyph d="M173 712 182 679C209 687 236 692 263 692C301 692 317 682 317 669C317 654 302 643 243 616L255 589C335 622 359 643 359 674C359 705 326 727 266 727C233 727 203 722 173 712ZM267 -12C389 -12 482 97 482 256C482 365 437 446 368 487C436 491 479 529 479 587C479 605 475 622 466 638L429 625C435 612 438 600 438 587C438 541 401 515 330 515C310 515 289 518 269 518C147 518 54 411 54 255C54 96 146 -12 267 -12ZM435 255C435 123 364 29 268 29C172 29 101 123 101 256C101 386 172 477 268 477C364 477 435 385 435 255Z" glyph-name="uni1EDF" horiz-adv-x="536" unicode="&#7903;" /><glyph d="M259 761C277 803 288 812 301 812C313 812 322 808 352 789C385 769 399 762 417 762C450 762 468 785 492 841L460 852C441 811 431 801 417 801C405 801 396 806 366 824C334 845 319 851 302 851C268 851 251 829 227 773ZM654 351C654 501 592 615 495 670C585 670 641 713 641 779C641 798 636 816 628 833L588 819C595 806 598 793 598 779C598 730 558 703 475 703C436 703 399 709 361 709C189 709 65 560 65 349C65 137 188 -12 359 -12C529 -12 654 139 654 351ZM604 349C604 166 504 32 360 32C216 32 115 166 115 351C115 533 216 665 359 665C503 665 604 533 604 349Z" glyph-name="uni1EE0" horiz-adv-x="719" unicode="&#7904;" /><glyph d="M167 593C184 635 195 645 208 645C218 645 226 641 254 622C284 601 296 595 313 595C344 595 361 618 384 675L354 686C337 644 326 633 313 633C303 633 295 638 267 657C237 677 224 684 208 684C177 684 160 661 137 604ZM267 -12C389 -12 482 97 482 256C482 365 437 446 368 487C436 491 479 529 479 587C479 605 475 622 466 638L429 625C435 612 438 600 438 587C438 541 401 515 330 515C310 515 289 518 269 518C147 518 54 411 54 255C54 96 146 -12 267 -12ZM435 255C435 123 364 29 268 29C172 29 101 123 101 256C101 386 172 477 268 477C364 477 435 385 435 255Z" glyph-name="uni1EE1" horiz-adv-x="536" unicode="&#7905;" /><glyph d="M654 351C654 501 592 615 495 670C585 670 641 713 641 779C641 798 636 816 628 833L588 819C595 806 598 793 598 779C598 730 558 703 475 703C436 703 399 709 361 709C189 709 65 560 65 349C65 137 188 -12 359 -12C529 -12 654 139 654 351ZM604 349C604 166 504 32 360 32C216 32 115 166 115 351C115 533 216 665 359 665C503 665 604 533 604 349ZM384 -130V-63H336V-130Z" glyph-name="uni1EE2" horiz-adv-x="719" unicode="&#7906;" /><glyph d="M267 -12C389 -12 482 97 482 256C482 365 437 446 368 487C436 491 479 529 479 587C479 605 475 622 466 638L429 625C435 612 438 600 438 587C438 541 401 515 330 515C310 515 289 518 269 518C147 518 54 411 54 255C54 96 146 -12 267 -12ZM435 255C435 123 364 29 268 29C172 29 101 123 101 256C101 386 172 477 268 477C364 477 435 385 435 255ZM292 -126V-59H244V-126Z" glyph-name="uni1EE3" horiz-adv-x="536" unicode="&#7907;" /><glyph d="M595 267V700H546V265C546 119 465 34 345 34C226 34 144 120 144 269V700H95V268C95 93 192 -10 344 -10C497 -10 595 93 595 267ZM369 -130V-63H321V-130Z" glyph-name="uni1EE4" horiz-adv-x="690" unicode="&#7908;" /><glyph d="M416 50 426 0H461V511H414V90C375 60 316 33 261 33C176 33 131 84 131 177V511H84V169C84 53 143 -9 248 -9C317 -9 371 17 416 50ZM300 -126V-59H252V-126Z" glyph-name="uni1EE5" horiz-adv-x="551" unicode="&#7909;" /><glyph d="M595 267V700H546V265C546 119 465 34 345 34C226 34 144 120 144 269V700H95V268C95 93 192 -10 344 -10C497 -10 595 93 595 267ZM240 859 247 825C279 832 312 837 344 837C390 837 407 829 407 817C407 804 392 796 324 773L334 745C424 772 451 792 451 822C451 852 419 872 348 872C308 872 275 868 240 859Z" glyph-name="uni1EE6" horiz-adv-x="690" unicode="&#7910;" /><glyph d="M416 50 426 0H461V511H414V90C375 60 316 33 261 33C176 33 131 84 131 177V511H84V169C84 53 143 -9 248 -9C317 -9 371 17 416 50ZM180 704 189 671C216 679 243 684 271 684C308 684 324 674 324 660C324 646 309 635 251 608L262 581C343 614 366 635 366 666C366 697 334 719 273 719C241 719 210 714 180 704Z" glyph-name="uni1EE7" horiz-adv-x="551" unicode="&#7911;" /><glyph d="M344 -10C497 -10 595 93 595 267V668C672 677 717 718 717 779C717 798 713 816 704 833L665 819C671 806 674 793 674 779C674 728 634 700 550 700H546V265C546 119 465 34 345 34C226 34 144 120 144 269V700H95V268C95 93 192 -10 344 -10ZM345 751 479 847H404L298 751Z" glyph-name="uni1EE8" horiz-adv-x="716" unicode="&#7912;" /><glyph d="M285 575 416 690H348L246 575ZM416 52 426 0H461V481C528 490 569 530 569 587C569 605 565 622 556 638L520 625C525 612 528 600 528 587C528 539 490 511 417 511H414V92C375 62 316 35 261 35C176 35 131 86 131 179V511H84V171C84 55 143 -7 248 -7C317 -7 371 19 416 52Z" glyph-name="uni1EE9" horiz-adv-x="568" unicode="&#7913;" /><glyph d="M344 -10C497 -10 595 93 595 267V668C672 677 717 718 717 779C717 798 713 816 704 833L665 819C671 806 674 793 674 779C674 728 634 700 550 700H546V265C546 119 465 34 345 34C226 34 144 120 144 269V700H95V268C95 93 192 -10 344 -10ZM345 751H392L286 847H211Z" glyph-name="uni1EEA" horiz-adv-x="716" unicode="&#7914;" /><glyph d="M416 52 426 0H461V481C528 490 569 530 569 587C569 605 565 622 556 638L520 625C525 612 528 600 528 587C528 539 490 511 417 511H414V92C375 62 316 35 261 35C176 35 131 86 131 179V511H84V171C84 55 143 -7 248 -7C317 -7 371 19 416 52ZM274 587H313L211 702H142Z" glyph-name="uni1EEB" horiz-adv-x="568" unicode="&#7915;" /><glyph d="M344 -10C497 -10 595 93 595 267V668C672 677 717 718 717 779C717 798 713 816 704 833L665 819C671 806 674 793 674 779C674 728 634 700 550 700H546V265C546 119 465 34 345 34C226 34 144 120 144 269V700H95V268C95 93 192 -10 344 -10ZM240 859 247 825C279 832 312 837 344 837C390 837 407 829 407 817C407 804 392 796 324 773L334 745C424 772 451 792 451 822C451 852 419 872 348 872C308 872 275 868 240 859Z" glyph-name="uni1EEC" horiz-adv-x="716" unicode="&#7916;" /><glyph d="M416 52 426 0H461V481C528 490 569 530 569 587C569 605 565 622 556 638L520 625C525 612 528 600 528 587C528 539 490 511 417 511H414V92C375 62 316 35 261 35C176 35 131 86 131 179V511H84V171C84 55 143 -7 248 -7C317 -7 371 19 416 52ZM180 704 189 671C216 679 243 684 271 684C308 684 324 674 324 660C324 646 309 635 251 608L262 581C343 614 366 635 366 666C366 697 334 719 273 719C241 719 210 714 180 704Z" glyph-name="uni1EED" horiz-adv-x="568" unicode="&#7917;" /><glyph d="M344 -10C497 -10 595 93 595 267V668C672 677 717 718 717 779C717 798 713 816 704 833L665 819C671 806 674 793 674 779C674 728 634 700 550 700H546V265C546 119 465 34 345 34C226 34 144 120 144 269V700H95V268C95 93 192 -10 344 -10ZM247 754C266 796 276 805 290 805C302 805 311 801 341 782C374 762 388 755 406 755C439 755 458 778 481 834L449 845C430 804 420 794 407 794C394 794 385 799 355 817C322 838 308 844 291 844C257 844 239 822 215 766Z" glyph-name="uni1EEE" horiz-adv-x="716" unicode="&#7918;" /><glyph d="M178 577C196 619 207 629 221 629C232 629 240 625 269 606C301 585 314 579 332 579C364 579 382 602 406 659L376 669C358 627 346 617 332 617C322 617 314 621 284 640C252 661 239 668 222 668C190 668 171 645 148 588ZM416 52 426 0H461V481C528 490 569 530 569 587C569 605 565 622 556 638L520 625C525 612 528 600 528 587C528 539 490 511 417 511H414V92C375 62 316 35 261 35C176 35 131 86 131 179V511H84V171C84 55 143 -7 248 -7C317 -7 371 19 416 52Z" glyph-name="uni1EEF" horiz-adv-x="568" unicode="&#7919;" /><glyph d="M344 -10C497 -10 595 93 595 267V668C672 677 717 718 717 779C717 798 713 816 704 833L665 819C671 806 674 793 674 779C674 728 634 700 550 700H546V265C546 119 465 34 345 34C226 34 144 120 144 269V700H95V268C95 93 192 -10 344 -10ZM369 -130V-63H321V-130Z" glyph-name="uni1EF0" horiz-adv-x="716" unicode="&#7920;" /><glyph d="M416 52 426 0H461V481C528 490 569 530 569 587C569 605 565 622 556 638L520 625C525 612 528 600 528 587C528 539 490 511 417 511H414V92C375 62 316 35 261 35C176 35 131 86 131 179V511H84V171C84 55 143 -7 248 -7C317 -7 371 19 416 52ZM300 -126V-59H252V-126Z" glyph-name="uni1EF1" horiz-adv-x="568" unicode="&#7921;" /><glyph d="M340 0V288L601 700H545L316 333L87 700H29L290 288V0ZM339 -123V-56H291V-123Z" glyph-name="uni1EF4" horiz-adv-x="630" unicode="&#7924;" /><glyph d="M66 -177C174 -147 234 -101 283 29L465 511H416L252 53L87 511H38L226 7C187 -74 138 -115 54 -137ZM337 -177V-110H289V-177Z" glyph-name="uni1EF5" horiz-adv-x="497" unicode="&#7925;" /><glyph d="M340 0V288L601 700H545L316 333L87 700H29L290 288V0ZM210 859 217 825C249 832 282 837 314 837C360 837 377 829 377 817C377 804 362 796 294 773L304 745C394 772 421 792 421 822C421 852 389 872 318 872C278 872 245 868 210 859Z" glyph-name="uni1EF6" horiz-adv-x="630" unicode="&#7926;" /><glyph d="M66 -177C174 -147 234 -101 283 29L465 511H416L252 53L87 511H38L226 7C187 -74 138 -115 54 -137ZM158 704 167 671C194 679 221 684 249 684C286 684 302 674 302 660C302 646 287 635 229 608L240 581C321 614 344 635 344 666C344 697 312 719 251 719C219 719 188 714 158 704Z" glyph-name="uni1EF7" horiz-adv-x="497" unicode="&#7927;" /><glyph d="M340 0V288L601 700H545L316 333L87 700H29L290 288V0ZM217 754C236 796 246 805 260 805C272 805 281 801 311 782C344 762 358 755 376 755C409 755 428 778 451 834L419 845C400 804 390 794 377 794C364 794 355 799 325 817C292 838 278 844 261 844C227 844 209 822 185 766Z" glyph-name="uni1EF8" horiz-adv-x="630" unicode="&#7928;" /><glyph d="M66 -177C174 -147 234 -101 283 29L465 511H416L252 53L87 511H38L226 7C187 -74 138 -115 54 -137ZM155 590C173 632 185 642 199 642C209 642 217 638 247 619C279 598 292 592 309 592C342 592 360 615 384 672L354 682C335 640 324 630 310 630C299 630 292 634 262 653C230 674 217 681 200 681C167 681 149 658 125 601Z" glyph-name="uni1EF9" horiz-adv-x="497" unicode="&#7929;" /><glyph glyph-name="uni2002" horiz-adv-x="500" unicode="&#8194;" /><glyph glyph-name="uni2003" horiz-adv-x="1000" unicode="&#8195;" /><glyph glyph-name="uni2004" horiz-adv-x="333" unicode="&#8196;" /><glyph glyph-name="uni2005" horiz-adv-x="250" unicode="&#8197;" /><glyph glyph-name="uni2007" horiz-adv-x="564" unicode="&#8199;" /><glyph glyph-name="uni2009" horiz-adv-x="125" unicode="&#8201;" /><glyph glyph-name="uni200A" horiz-adv-x="42" unicode="&#8202;" /><glyph d="M294 284V329H51V284Z" glyph-name="uni2011" horiz-adv-x="344" unicode="&#8209;" /><glyph d="M294 337V382H51V337Z" glyph-name="uni2011.cap" horiz-adv-x="344" /><glyph d="M482 337V380H82V337Z" glyph-name="uni2012" horiz-adv-x="564" unicode="&#8210;" /><glyph d="M759 285V328H51V285Z" glyph-name="uni2015" horiz-adv-x="809" unicode="&#8213;" /><glyph d="M759 338V381H51V338Z" glyph-name="uni2015.cap" horiz-adv-x="809" /><glyph d="M39 724V717C39 634 72 571 139 503L156 517C110 584 94 634 94 724Z" glyph-name="uni201B" horiz-adv-x="180" unicode="&#8219;" /><glyph d="M39 724V717C39 634 71 572 138 503L155 517C108 584 93 635 93 724ZM193 724V717C193 634 225 572 292 503L309 517C263 584 247 635 247 724Z" glyph-name="uni201F" horiz-adv-x="333" unicode="&#8223;" /><glyph d="M453 0V75H394V0ZM170 0V75H112V0Z" glyph-name="uni2025" horiz-adv-x="564" unicode="&#8229;" /><glyph glyph-name="uni202F" horiz-adv-x="125" unicode="&#8239;" /><glyph d="M229 412C321 412 394 490 394 627C394 765 321 843 229 843C138 843 64 765 64 627C64 490 138 412 229 412ZM229 807C295 807 353 742 353 626C353 510 295 447 229 447C163 447 105 512 105 628C105 744 163 807 229 807Z" glyph-name="uni2070" horiz-adv-x="458" unicode="&#8304;" /><glyph d="M322 418V519H400V553H322V840H270L44 551L47 519H283V418ZM283 553H89L283 801Z" glyph-name="uni2074" horiz-adv-x="439" unicode="&#8308;" /><glyph d="M358 576C358 636 310 675 235 675C195 675 155 665 119 647L130 801H353V836H95L80 622L108 609C149 630 188 640 226 640C284 640 317 615 317 574C317 509 237 462 68 446L74 410C266 428 358 487 358 576Z" glyph-name="uni2075" horiz-adv-x="419" unicode="&#8309;" /><glyph d="M218 412C307 412 369 470 369 550C369 626 310 678 224 678C185 678 146 667 112 650C134 717 191 771 304 813L289 846C135 790 63 698 63 581C63 476 125 412 218 412ZM219 446C149 446 103 496 103 578C103 592 104 605 106 618C140 635 180 644 214 644C283 644 328 607 328 548C328 488 281 446 219 446Z" glyph-name="uni2076" horiz-adv-x="427" unicode="&#8310;" /><glyph d="M139 413 350 797V836H59V800H307L101 429Z" glyph-name="uni2077" horiz-adv-x="399" unicode="&#8311;" /><glyph d="M217 413C311 413 375 462 375 528C375 584 338 619 280 637C326 653 363 682 363 735C363 793 304 842 217 842C130 842 71 793 71 735C71 682 107 653 154 637C95 619 58 584 58 528C58 462 122 413 217 413ZM217 652C160 652 111 683 111 729C111 774 151 808 217 808C281 808 323 774 323 729C323 683 275 652 217 652ZM217 447C148 447 98 482 98 534C98 584 149 620 217 620C283 620 335 584 335 534C335 482 287 447 217 447Z" glyph-name="uni2078" horiz-adv-x="433" unicode="&#8312;" /><glyph d="M209 842C120 842 58 784 58 704C58 628 117 576 203 576C242 576 281 587 315 604C293 537 236 483 123 441L138 408C292 464 364 556 364 673C364 778 302 842 209 842ZM208 808C278 808 324 758 324 676C324 662 323 649 321 636C287 619 247 610 213 610C144 610 99 647 99 706C99 766 146 808 208 808Z" glyph-name="uni2079" horiz-adv-x="427" unicode="&#8313;" /><glyph d="M229 -162C321 -162 394 -84 394 53C394 191 321 269 229 269C138 269 64 191 64 53C64 -84 138 -162 229 -162ZM229 233C295 233 353 168 353 52C353 -64 295 -127 229 -127C163 -127 105 -62 105 54C105 170 163 233 229 233Z" glyph-name="uni2080" horiz-adv-x="458" unicode="&#8320;" /><glyph d="M223 -156V266H191L49 207L61 173L182 220V-156Z" glyph-name="uni2081" horiz-adv-x="331" unicode="&#8321;" /><glyph d="M353 -156V-120H112L259 23C317 78 341 115 341 161C341 226 289 267 215 267C155 267 103 239 64 191L88 164C125 207 166 231 212 231C265 231 299 202 299 158C299 122 277 92 232 48L52 -126L61 -156Z" glyph-name="uni2082" horiz-adv-x="407" unicode="&#8322;" /><glyph d="M62 -160C249 -155 351 -110 351 -31C351 25 299 58 203 65C293 92 345 126 345 181C345 231 298 268 217 268C160 268 107 251 62 224L79 192C119 217 166 232 212 232C271 232 304 208 304 176C304 132 247 100 128 72L133 43C260 41 309 15 309 -30C309 -82 233 -120 62 -125Z" glyph-name="uni2083" horiz-adv-x="412" unicode="&#8323;" /><glyph d="M322 -156V-55H400V-21H322V266H270L44 -23L47 -55H283V-156ZM283 -21H89L283 227Z" glyph-name="uni2084" horiz-adv-x="439" unicode="&#8324;" /><glyph d="M358 2C358 62 310 101 235 101C195 101 155 91 119 73L130 227H353V262H95L80 48L108 35C149 56 188 66 226 66C284 66 317 41 317 0C317 -65 237 -112 68 -128L74 -164C266 -146 358 -87 358 2Z" glyph-name="uni2085" horiz-adv-x="419" unicode="&#8325;" /><glyph d="M218 -162C307 -162 369 -104 369 -24C369 52 310 104 224 104C185 104 146 93 112 76C134 143 191 197 304 239L289 272C135 216 63 124 63 7C63 -98 125 -162 218 -162ZM219 -128C149 -128 103 -78 103 4C103 18 104 31 106 44C140 61 180 70 214 70C283 70 328 33 328 -26C328 -86 281 -128 219 -128Z" glyph-name="uni2086" horiz-adv-x="427" unicode="&#8326;" /><glyph d="M139 -161 350 223V262H59V226H307L101 -145Z" glyph-name="uni2087" horiz-adv-x="399" unicode="&#8327;" /><glyph d="M217 -161C311 -161 375 -112 375 -46C375 10 338 45 280 63C326 79 363 108 363 161C363 219 304 268 217 268C130 268 71 219 71 161C71 108 107 79 154 63C95 45 58 10 58 -46C58 -112 122 -161 217 -161ZM217 78C160 78 111 109 111 155C111 200 151 234 217 234C281 234 323 200 323 155C323 109 275 78 217 78ZM217 -127C148 -127 98 -92 98 -40C98 10 149 46 217 46C283 46 335 10 335 -40C335 -92 287 -127 217 -127Z" glyph-name="uni2088" horiz-adv-x="433" unicode="&#8328;" /><glyph d="M209 268C120 268 58 210 58 130C58 54 117 2 203 2C242 2 281 13 315 30C293 -37 236 -91 123 -133L138 -166C292 -110 364 -18 364 99C364 204 302 268 209 268ZM208 234C278 234 324 184 324 102C324 88 323 75 321 62C287 45 247 36 213 36C144 36 99 73 99 132C99 192 146 234 208 234Z" glyph-name="uni2089" horiz-adv-x="427" unicode="&#8329;" /><glyph d="M291 454H184V633ZM569 285H443L361 422H569ZM392 285H184V422H310ZM569 74 462 252H569ZM563 0H615V251H703V287H615V420H703V456H615V700H569V454H341L194 700H138V456H50V420H138V287H50V251H138V0H184V252H412Z" glyph-name="uni20A6" horiz-adv-x="753" unicode="&#8358;" /><glyph d="M537 455H435L486 631ZM755 284H631L592 422H789ZM587 284H385L425 422H547ZM343 284H220L185 422H383ZM697 52 641 251H747ZM672 -9H723L790 250H922V286H800L835 421H922V456H844L907 700H857L796 455H582L512 700H462L392 455H177L117 700H65L128 456H50V421H137L172 286H50V250H182L249 -9H300L376 251H596ZM277 54 228 251H334Z" glyph-name="uni20A9" horiz-adv-x="972" unicode="&#8361;" /><glyph d="M187 657H326C451 657 527 598 531 482H187ZM187 274V449H530C520 334 438 274 316 274ZM188 231H314C459 231 568 301 580 448H663V484H581C577 627 481 700 329 700H138V484H50V448H138V0H188Z" glyph-name="uni20B1" horiz-adv-x="679" unicode="&#8369;" /><glyph d="M545 1 359 201C325 238 298 258 264 270C380 295 456 366 470 459H552V498H472C469 575 429 632 358 661H552V700H68V661H204C341 661 418 601 422 497H68V460H419C403 361 303 295 167 295H68V257H153C221 257 260 239 314 179L479 0H545Z" glyph-name="uni20B9" horiz-adv-x="610" unicode="&#8377;" /><glyph d="M214 0C413 0 522 127 534 290H497C480 144 382 45 220 45H188V262L414 403V445L188 304V432L414 573V615L188 474V700H138V446L50 392V350L138 404V276L50 222V180L138 234V0Z" glyph-name="uni20BA" horiz-adv-x="587" unicode="&#8378;" /><glyph d="M547 491C547 368 448 311 320 311H187V657H331C467 657 547 600 547 491ZM500 134V170H188V276H318C479 276 596 346 596 496C596 630 496 700 334 700H138V312H50V276H138V170H50V134H138V0H188V134Z" glyph-name="uni20BD" horiz-adv-x="651" unicode="&#8381;" /><glyph d="M386 -30C567 -30 706 127 706 350C706 573 567 730 386 730C205 730 66 573 66 350C66 127 205 -30 386 -30ZM386 707C554 707 682 559 682 350C682 141 554 -7 386 -7C219 -7 90 141 90 350C90 559 219 707 386 707ZM316 171V293H385C475 293 540 333 540 417C540 491 483 533 394 533H278V171ZM316 326V500H392C463 500 501 468 501 415C501 358 460 326 386 326Z" glyph-name="uni2117" horiz-adv-x="772" unicode="&#8471;" /><glyph d="M377 476H405L484 666L494 476H519L508 700H472L392 508L311 700H274L263 476H288L298 666ZM214 535C214 569 197 587 136 604C90 617 78 628 78 646C78 664 92 680 128 680C152 680 176 672 195 664L204 687C183 696 156 703 129 703C79 703 51 676 51 645C51 611 70 595 127 579C178 565 188 554 188 534C188 511 166 496 130 496C98 496 73 505 48 518L38 496C65 482 94 473 128 473C179 473 214 497 214 535Z" glyph-name="uni2120" horiz-adv-x="561" unicode="&#8480;" /><glyph d="M208 282V704H176L34 645L46 611L167 658V282ZM149 0H188L403 342L633 700H595L379 358ZM824 158C824 218 776 257 701 257C661 257 621 247 585 229L596 383H819V418H561L546 204L574 191C615 212 654 222 692 222C750 222 783 197 783 156C783 91 703 44 534 28L540 -8C732 10 824 69 824 158Z" glyph-name="uni2155" horiz-adv-x="870" unicode="&#8533;" /><glyph d="M338 282V318H97L244 461C302 516 326 553 326 599C326 664 274 705 200 705C140 705 88 677 49 629L73 602C110 645 151 669 197 669C250 669 284 640 284 596C284 560 262 530 217 486L37 312L46 282ZM254 0H293L508 342L738 700H700L484 358ZM929 158C929 218 881 257 806 257C766 257 726 247 690 229L701 383H924V418H666L651 204L679 191C720 212 759 222 797 222C855 222 888 197 888 156C888 91 808 44 639 28L645 -8C837 10 929 69 929 158Z" glyph-name="uni2156" horiz-adv-x="975" unicode="&#8534;" /><glyph d="M47 278C234 283 336 328 336 407C336 463 284 496 188 503C278 530 330 564 330 619C330 669 283 706 202 706C145 706 92 689 47 662L64 630C104 655 151 670 197 670C256 670 289 646 289 614C289 570 232 538 113 510L118 481C245 479 294 453 294 408C294 356 218 318 47 313ZM211 0H250L465 342L695 700H657L441 358ZM886 158C886 218 838 257 763 257C723 257 683 247 647 229L658 383H881V418H623L608 204L636 191C677 212 716 222 754 222C812 222 845 197 845 156C845 91 765 44 596 28L602 -8C794 10 886 69 886 158Z" glyph-name="uni2157" horiz-adv-x="932" unicode="&#8535;" /><glyph d="M307 282V383H385V417H307V704H255L29 415L32 383H268V282ZM268 417H74L268 665ZM257 0H296L511 342L741 700H703L487 358ZM932 158C932 218 884 257 809 257C769 257 729 247 693 229L704 383H927V418H669L654 204L682 191C723 212 762 222 800 222C858 222 891 197 891 156C891 91 811 44 642 28L648 -8C840 10 932 69 932 158Z" glyph-name="uni2158" horiz-adv-x="978" unicode="&#8536;" /><glyph d="M208 282V704H176L34 645L46 611L167 658V282ZM149 0H188L403 342L633 700H595L379 358ZM634 -6C723 -6 785 52 785 132C785 208 726 260 640 260C601 260 562 249 528 232C550 299 607 353 720 395L705 428C551 372 479 280 479 163C479 58 541 -6 634 -6ZM635 28C565 28 519 78 519 160C519 174 520 187 522 200C556 217 596 226 630 226C699 226 744 189 744 130C744 70 697 28 635 28Z" glyph-name="uni2159" horiz-adv-x="828" unicode="&#8537;" /><glyph d="M343 440C343 500 295 539 220 539C180 539 140 529 104 511L115 665H338V700H80L65 486L93 473C134 494 173 504 211 504C269 504 302 479 302 438C302 373 222 326 53 310L59 274C251 292 343 351 343 440ZM208 0H247L462 342L692 700H654L438 358ZM693 -6C782 -6 844 52 844 132C844 208 785 260 699 260C660 260 621 249 587 232C609 299 666 353 779 395L764 428C610 372 538 280 538 163C538 58 600 -6 693 -6ZM694 28C624 28 578 78 578 160C578 174 579 187 581 200C615 217 655 226 689 226C758 226 803 189 803 130C803 70 756 28 694 28Z" glyph-name="uni215A" horiz-adv-x="887" unicode="&#8538;" /><glyph d="M208 282V704H176L34 645L46 611L167 658V282ZM149 0H188L403 342L633 700H595L379 358ZM667 -5C761 -5 825 44 825 110C825 166 788 201 730 219C776 235 813 264 813 317C813 375 754 424 667 424C580 424 521 375 521 317C521 264 557 235 604 219C545 201 508 166 508 110C508 44 572 -5 667 -5ZM667 234C610 234 561 265 561 311C561 356 601 390 667 390C731 390 773 356 773 311C773 265 725 234 667 234ZM667 29C598 29 548 64 548 116C548 166 599 202 667 202C733 202 785 166 785 116C785 64 737 29 667 29Z" glyph-name="uni215B" horiz-adv-x="869" unicode="&#8539;" /><glyph d="M47 278C234 283 336 328 336 407C336 463 284 496 188 503C278 530 330 564 330 619C330 669 283 706 202 706C145 706 92 689 47 662L64 630C104 655 151 670 197 670C256 670 289 646 289 614C289 570 232 538 113 510L118 481C245 479 294 453 294 408C294 356 218 318 47 313ZM211 0H250L465 342L695 700H657L441 358ZM729 -5C823 -5 887 44 887 110C887 166 850 201 792 219C838 235 875 264 875 317C875 375 816 424 729 424C642 424 583 375 583 317C583 264 619 235 666 219C607 201 570 166 570 110C570 44 634 -5 729 -5ZM729 234C672 234 623 265 623 311C623 356 663 390 729 390C793 390 835 356 835 311C835 265 787 234 729 234ZM729 29C660 29 610 64 610 116C610 166 661 202 729 202C795 202 847 166 847 116C847 64 799 29 729 29Z" glyph-name="uni215C" horiz-adv-x="931" unicode="&#8540;" /><glyph d="M343 440C343 500 295 539 220 539C180 539 140 529 104 511L115 665H338V700H80L65 486L93 473C134 494 173 504 211 504C269 504 302 479 302 438C302 373 222 326 53 310L59 274C251 292 343 351 343 440ZM208 0H247L462 342L692 700H654L438 358ZM727 -5C821 -5 885 44 885 110C885 166 848 201 790 219C836 235 873 264 873 317C873 375 814 424 727 424C640 424 581 375 581 317C581 264 617 235 664 219C605 201 568 166 568 110C568 44 632 -5 727 -5ZM727 234C670 234 621 265 621 311C621 356 661 390 727 390C791 390 833 356 833 311C833 265 785 234 727 234ZM727 29C658 29 608 64 608 116C608 166 659 202 727 202C793 202 845 166 845 116C845 64 797 29 727 29Z" glyph-name="uni215D" horiz-adv-x="928" unicode="&#8541;" /><glyph d="M124 277 335 661V700H44V664H292L86 293ZM139 0H178L393 342L623 700H585L369 358ZM657 -5C751 -5 815 44 815 110C815 166 778 201 720 219C766 235 803 264 803 317C803 375 744 424 657 424C570 424 511 375 511 317C511 264 547 235 594 219C535 201 498 166 498 110C498 44 562 -5 657 -5ZM657 234C600 234 551 265 551 311C551 356 591 390 657 390C721 390 763 356 763 311C763 265 715 234 657 234ZM657 29C588 29 538 64 538 116C538 166 589 202 657 202C723 202 775 166 775 116C775 64 727 29 657 29Z" glyph-name="uni215E" horiz-adv-x="859" unicode="&#8542;" /><glyph d="M390 124 138 342 527 338H964V382H527L139 378L390 595L360 629L78 375V345L360 91Z" glyph-name="uni2190" horiz-adv-x="1042" unicode="&#8592;" /><glyph d="M305 279 301 650 484 421 518 449 297 714H267L46 449L80 421L263 650L259 279V-4H305Z" glyph-name="uni2191" horiz-adv-x="564" unicode="&#8593;" /><glyph d="M682 91 965 345V375L682 629L652 595L903 378L516 382H78V338H516L904 342L652 124Z" glyph-name="uni2192" horiz-adv-x="1042" unicode="&#8594;" /><glyph d="M297 -14 518 251 484 279 301 50 305 421V704H259V421L263 50L80 279L46 251L267 -14Z" glyph-name="uni2193" horiz-adv-x="564" unicode="&#8595;" /><glyph d="M229 -114V241C286 248 330 297 330 355C330 413 286 462 229 469V811H191V469C134 462 90 413 90 355C90 297 134 248 191 241V-114Z" glyph-name="uni237F" horiz-adv-x="420" unicode="&#9087;" /><glyph d="M117 708V-8L125 -12L727 341V359L125 712Z" glyph-name="uni25B6" horiz-adv-x="798" unicode="&#9654;" /><glyph d="M98 548V172L106 168L496 351V369L106 552Z" glyph-name="uni25B6.tab" horiz-adv-x="564" /><glyph d="M680 -8V708L672 712L70 359V341L672 -12Z" glyph-name="uni25C0" horiz-adv-x="798" unicode="&#9664;" /><glyph d="M467 172V548L459 552L69 369V351L459 168Z" glyph-name="uni25C0.tab" horiz-adv-x="564" /><glyph d="M250 -94 324 -172H361L271 -56H229L139 -172H175Z" glyph-name="uniA788" horiz-adv-x="500" unicode="&#42888;" /><glyph d="M485 -113C427 -108 413 -99 413 -82C413 -69 422 -51 459 0H461V511H414V90C375 60 316 33 261 33C176 33 131 84 131 177V511H84V169C84 53 143 -9 248 -9C317 -9 371 17 416 50L425 4C381 -46 366 -71 366 -91C366 -123 393 -140 481 -145Z" glyph-name="uogonek" horiz-adv-x="551" unicode="&#371;" /><glyph d="M416 50 426 0H461V511H414V90C375 60 316 33 261 33C176 33 131 84 131 177V511H84V169C84 53 143 -9 248 -9C317 -9 371 17 416 50ZM182 669C182 619 220 580 274 580C328 580 366 619 366 669C366 719 328 758 274 758C220 758 182 719 182 669ZM211 669C211 705 237 733 274 733C311 733 337 705 337 669C337 633 311 605 274 605C237 605 211 633 211 669Z" glyph-name="uring" horiz-adv-x="551" unicode="&#367;" /><glyph d="M416 50 426 0H461V511H414V90C375 60 316 33 261 33C176 33 131 84 131 177V511H84V169C84 53 143 -9 248 -9C317 -9 371 17 416 50ZM178 590C196 632 208 642 222 642C232 642 240 638 270 619C302 598 315 592 332 592C365 592 383 615 407 672L377 682C358 640 347 630 333 630C322 630 315 634 285 653C253 674 240 681 223 681C190 681 172 658 148 601Z" glyph-name="utilde" horiz-adv-x="551" unicode="&#361;" /><glyph d="M272 -9 466 511H418L251 44L83 511H34L228 -9Z" glyph-name="v" horiz-adv-x="500" unicode="v" /><glyph d="M545 -7H591L750 511H704L568 50L418 511H371L221 50L85 511H37L196 -7H242L394 453Z" glyph-name="w" horiz-adv-x="787" unicode="w" /><glyph d="M545 -7H591L750 511H704L568 50L418 511H371L221 50L85 511H37L196 -7H242L394 453ZM393 592 525 707H456L354 592Z" glyph-name="wacute" horiz-adv-x="787" unicode="&#7811;" /><glyph d="M545 -7H591L750 511H704L568 50L418 511H371L221 50L85 511H37L196 -7H242L394 453ZM393 670 467 592H504L414 708H372L282 592H318Z" glyph-name="wcircumflex" horiz-adv-x="787" unicode="&#373;" /><glyph d="M545 -7H591L750 511H704L568 50L418 511H371L221 50L85 511H37L196 -7H242L394 453ZM347 601V668H299V601ZM487 601V668H439V601Z" glyph-name="wdieresis" horiz-adv-x="787" unicode="&#7813;" /><glyph d="M545 -7H591L750 511H704L568 50L418 511H371L221 50L85 511H37L196 -7H242L394 453ZM393 592H432L330 707H261Z" glyph-name="wgrave" horiz-adv-x="787" unicode="&#7809;" /><glyph d="M400 0H452L271 263L442 511H392L245 294L98 511H46L217 263L36 0H87L243 231Z" glyph-name="x" horiz-adv-x="488" unicode="x" /><glyph d="M66 -177C174 -147 234 -101 283 29L465 511H416L252 53L87 511H38L226 7C187 -74 138 -115 54 -137Z" glyph-name="y" horiz-adv-x="497" unicode="y" /><glyph d="M66 -177C174 -147 234 -101 283 29L465 511H416L252 53L87 511H38L226 7C187 -74 138 -115 54 -137ZM251 587 383 702H314L212 587Z" glyph-name="yacute" horiz-adv-x="497" unicode="&#253;" /><glyph d="M66 -177C174 -147 234 -101 283 29L465 511H416L252 53L87 511H38L226 7C187 -74 138 -115 54 -137ZM251 670 325 592H362L272 708H230L140 592H176Z" glyph-name="ycircumflex" horiz-adv-x="497" unicode="&#375;" /><glyph d="M66 -177C174 -147 234 -101 283 29L465 511H416L252 53L87 511H38L226 7C187 -74 138 -115 54 -137ZM205 601V668H157V601ZM345 601V668H297V601Z" glyph-name="ydieresis" horiz-adv-x="497" unicode="&#255;" /><glyph d="M485 131V166H311V274H485V309H321L533 700H479L288 334L96 700H41L253 309H88V274H263V166H88V131H263V0H311V131Z" glyph-name="yen" horiz-adv-x="574" unicode="&#165;" /><glyph d="M477 131V166H306V274H477V309H316L525 700H473L283 333L93 700H39L249 309H87V274H259V166H87V131H259V0H306V131Z" glyph-name="yen.tab" horiz-adv-x="564" /><glyph d="M66 -177C174 -147 234 -101 283 29L465 511H416L252 53L87 511H38L226 7C187 -74 138 -115 54 -137ZM251 587H290L188 702H119Z" glyph-name="ygrave" horiz-adv-x="497" unicode="&#7923;" /><glyph d="M410 0V41H101L410 476V511H58V470H353L44 35V0Z" glyph-name="z" horiz-adv-x="459" unicode="z" /><glyph d="M410 0V41H101L410 476V511H58V470H353L44 35V0ZM230 592 362 707H293L191 592Z" glyph-name="zacute" horiz-adv-x="459" unicode="&#378;" /><glyph d="M410 0V41H101L410 476V511H58V470H353L44 35V0ZM230 631 156 708H119L209 592H251L341 708H305Z" glyph-name="zcaron" horiz-adv-x="459" unicode="&#382;" /><glyph d="M410 0V41H101L410 476V511H58V470H353L44 35V0ZM254 601V668H206V601Z" glyph-name="zdotaccent" horiz-adv-x="459" unicode="&#380;" /><glyph d="M545 350C545 589 439 711 306 711C173 711 66 589 66 350C66 111 173 -11 306 -11C439 -11 545 111 545 350ZM496 349C496 137 409 32 307 32C203 32 115 139 115 351C115 563 203 668 305 668C409 668 496 561 496 349Z" glyph-name="zero" horiz-adv-x="612" unicode="0" /><glyph d="M214 -6C306 -6 379 72 379 209C379 347 306 425 214 425C123 425 49 347 49 209C49 72 123 -6 214 -6ZM214 389C280 389 338 324 338 208C338 92 280 29 214 29C148 29 90 94 90 210C90 326 148 389 214 389Z" glyph-name="zero.den" horiz-adv-x="428" /><glyph d="M214 276C306 276 379 354 379 491C379 629 306 707 214 707C123 707 49 629 49 491C49 354 123 276 214 276ZM214 671C280 671 338 606 338 490C338 374 280 311 214 311C148 311 90 376 90 492C90 608 148 671 214 671Z" glyph-name="zero.num" horiz-adv-x="428" /><glyph d="M507 350C507 590 408 711 282 711C156 711 58 590 58 350C58 110 157 -11 282 -11C408 -11 507 110 507 350ZM458 349C458 136 377 32 283 32C188 32 107 138 107 351C107 564 188 668 281 668C377 668 458 562 458 349Z" glyph-name="zero.tab" horiz-adv-x="564" /></font>
</defs>
</svg>
