<?xml version="1.0" standalone="no"?><!DOCTYPE svg PUBLIC "-//W3C//DTD SVG 1.1//EN" "http://www.w3.org/Graphics/SVG/1.1/DTD/svg11.dtd" ><svg version="1.1" xmlns="http://www.w3.org/2000/svg"><defs><font horiz-adv-x="0" id="font"><font-face ascent="800" bbox="-219 -240 1045 1043" cap-height="700" descent="-200" font-family="Retina" font-stretch="normal" font-style="normal" font-weight="900" units-per-em="1000" x-height="532" /><missing-glyph d="M100 -240H600V960H100ZM192 910H507L350 429ZM321 360 150 -154V874ZM378 360 550 874V-154ZM350 291 507 -190H192Z" horiz-adv-x="700" /><glyph d="M422 273H289L356 504ZM501 0H709L476 703H238L5 0H210L242 111H469Z" glyph-name="A" horiz-adv-x="714" unicode="A" /><glyph d="M514 272H360L514 541ZM514 0H1032V164H706V277H988V439H706V536H1025V700H406L-1 0H205L268 111H514Z" glyph-name="AE" horiz-adv-x="1070" unicode="&#198;" /><glyph d="M514 272H360L514 541ZM514 0H1032V164H706V277H988V439H706V536H1025V700H406L-1 0H205L268 111H514ZM676 737 835 838H611L531 737Z" glyph-name="AEacute" horiz-adv-x="1070" unicode="&#508;" /><glyph d="M422 273H289L356 504ZM501 0H709L476 703H238L5 0H210L242 111H469ZM417 742 576 843H352L272 742Z" glyph-name="Aacute" horiz-adv-x="714" unicode="&#193;" /><glyph d="M422 273H289L356 504ZM501 0H709L476 703H238L5 0H210L242 111H469ZM358 830C319 830 294 847 286 869H191C198 794 252 737 356 737C460 737 516 794 523 869H428C420 847 397 830 358 830Z" glyph-name="Abreve" horiz-adv-x="714" unicode="&#258;" /><glyph d="M422 273H289L356 504ZM501 0H709L476 703H238L5 0H210L242 111H469ZM356 780 412 742H533L437 851H277L181 742H300Z" glyph-name="Acircumflex" horiz-adv-x="714" unicode="&#194;" /><glyph d="M422 273H289L356 504ZM501 0H709L476 703H238L5 0H210L242 111H469ZM331 742V864H190V742ZM524 742V864H383V742Z" glyph-name="Adieresis" horiz-adv-x="714" unicode="&#196;" /><glyph d="M422 273H289L356 504ZM501 0H709L476 703H238L5 0H210L242 111H469ZM297 742H442L362 843H138Z" glyph-name="Agrave" horiz-adv-x="714" unicode="&#192;" /><glyph d="M422 273H289L356 504ZM501 0H709L476 703H238L5 0H210L242 111H469ZM522 746V836H192V746Z" glyph-name="Amacron" horiz-adv-x="714" unicode="&#256;" /><glyph d="M422 273H289L356 504ZM706 -79C653 -65 645 -60 645 -47C645 -40 648 -33 669 0H709L476 703H238L5 0H210L242 111H469L501 0H561C504 -38 490 -56 490 -80C490 -124 545 -145 695 -152Z" glyph-name="Aogonek" horiz-adv-x="714" unicode="&#260;" /><glyph d="M287 755C287 794 316 820 357 820C397 820 426 794 426 755C426 716 397 690 357 690C316 690 287 716 287 755ZM422 273H289L356 504ZM501 0H709L479 693H456C469 710 477 731 477 755C477 818 425 863 357 863C288 863 237 818 237 755C237 731 245 710 258 693H235L5 0H210L242 111H469Z" glyph-name="Aring" horiz-adv-x="714" unicode="&#197;" /><glyph d="M417 887 558 974H341L273 887ZM287 755C287 794 316 820 357 820C397 820 426 794 426 755C426 716 397 690 357 690C316 690 287 716 287 755ZM422 273H289L356 504ZM501 0H709L479 693H456C469 710 477 731 477 755C477 818 425 863 357 863C288 863 237 818 237 755C237 731 245 710 258 693H235L5 0H210L242 111H469Z" glyph-name="Aringacute" horiz-adv-x="714" unicode="&#506;" /><glyph d="M422 273H289L356 504ZM501 0H709L476 703H238L5 0H210L242 111H469ZM247 735C263 772 277 780 296 780C313 780 329 774 362 759C403 741 422 736 448 736C490 736 529 762 559 858L477 881C461 843 447 835 428 835C411 835 395 842 362 856C321 874 302 880 276 880C234 880 195 854 165 758Z" glyph-name="Atilde" horiz-adv-x="714" unicode="&#195;" /><glyph d="M337 0C533 0 633 73 633 202C633 296 577 341 490 362C562 384 616 428 616 520C616 631 534 700 347 700H55V0ZM248 426V549H332C388 549 412 527 412 491C412 451 389 426 332 426ZM248 150V290H339C400 290 429 267 429 223C429 175 400 150 339 150Z" glyph-name="B" horiz-adv-x="656" unicode="B" /><glyph d="M583 30 546 202C497 183 447 169 395 169C290 169 231 230 231 352C231 469 289 531 389 531C449 531 500 515 546 496L581 673C523 695 458 710 374 710C172 710 29 580 29 350C29 110 166 -10 376 -10C450 -10 522 5 583 30Z" glyph-name="C" horiz-adv-x="608" unicode="C" /><glyph d="M583 30 546 202C497 183 447 169 395 169C290 169 231 230 231 352C231 469 289 531 389 531C449 531 500 515 546 496L581 673C523 695 458 710 374 710C172 710 29 580 29 350C29 110 166 -10 376 -10C450 -10 522 5 583 30ZM414 744 573 845H349L269 744Z" glyph-name="Cacute" horiz-adv-x="608" unicode="&#262;" /><glyph d="M583 30 546 202C497 183 447 169 395 169C290 169 231 230 231 352C231 469 289 531 389 531C449 531 500 515 546 496L581 673C523 695 458 710 374 710C172 710 29 580 29 350C29 110 166 -10 376 -10C450 -10 522 5 583 30ZM355 815 299 853H178L274 744H434L530 853H411Z" glyph-name="Ccaron" horiz-adv-x="608" unicode="&#268;" /><glyph d="M481 -89C481 -52 448 -32 373 -34L403 -9C468 -6 530 8 583 30L546 202C497 183 447 169 395 169C290 169 231 230 231 352C231 469 289 531 389 531C449 531 500 515 546 496L581 673C523 695 458 710 374 710C172 710 29 580 29 350C29 140 134 22 301 -4L245 -59L271 -91C306 -80 329 -84 329 -96C329 -110 309 -118 224 -123L229 -174C416 -174 481 -138 481 -89Z" glyph-name="Ccedilla" horiz-adv-x="608" unicode="&#199;" /><glyph d="M583 30 546 202C497 183 447 169 395 169C290 169 231 230 231 352C231 469 289 531 389 531C449 531 500 515 546 496L581 673C523 695 458 710 374 710C172 710 29 580 29 350C29 110 166 -10 376 -10C450 -10 522 5 583 30ZM353 782 409 744H530L434 853H274L178 744H297Z" glyph-name="Ccircumflex" horiz-adv-x="608" unicode="&#264;" /><glyph d="M583 30 546 202C497 183 447 169 395 169C290 169 231 230 231 352C231 469 289 531 389 531C449 531 500 515 546 496L581 673C523 695 458 710 374 710C172 710 29 580 29 350C29 110 166 -10 376 -10C450 -10 522 5 583 30ZM428 744V866H280V744Z" glyph-name="Cdotaccent" horiz-adv-x="608" unicode="&#266;" /><glyph d="M668 352C668 598 504 700 275 700H55V0H268C503 0 668 102 668 352ZM251 171V529H284C400 529 466 484 466 350C466 215 398 171 282 171Z" glyph-name="D" horiz-adv-x="697" unicode="D" /><glyph d="M668 352C668 598 504 700 275 700H55V0H268C503 0 668 102 668 352ZM251 171V529H284C400 529 466 484 466 350C466 215 398 171 282 171ZM340 808 284 846H163L259 737H419L515 846H396Z" glyph-name="Dcaron" horiz-adv-x="697" unicode="&#270;" /><glyph d="M264 171V293H385V420H264V529H299C415 529 481 484 481 350C481 215 413 171 297 171ZM283 0C518 0 683 102 683 352C683 598 519 700 290 700H70V423H16V291H70V0Z" glyph-name="Dcroat" horiz-adv-x="712" unicode="&#272;" /><glyph d="M585 0V164H249V277H541V439H249V536H578V700H55V0Z" glyph-name="E" horiz-adv-x="623" unicode="E" /><glyph d="M585 0V164H249V277H541V439H249V536H578V700H55V0ZM384 737 543 838H319L239 737Z" glyph-name="Eacute" horiz-adv-x="623" unicode="&#201;" /><glyph d="M585 0V164H249V277H541V439H249V536H578V700H55V0ZM325 825C286 825 261 842 253 864H158C165 789 219 732 323 732C427 732 483 789 490 864H395C387 842 364 825 325 825Z" glyph-name="Ebreve" horiz-adv-x="623" unicode="&#276;" /><glyph d="M585 0V164H249V277H541V439H249V536H578V700H55V0ZM325 808 269 846H148L244 737H404L500 846H381Z" glyph-name="Ecaron" horiz-adv-x="623" unicode="&#282;" /><glyph d="M585 0V164H249V277H541V439H249V536H578V700H55V0ZM323 775 379 737H500L404 846H244L148 737H267Z" glyph-name="Ecircumflex" horiz-adv-x="623" unicode="&#202;" /><glyph d="M585 0V164H249V277H541V439H249V536H578V700H55V0ZM298 737V859H157V737ZM491 737V859H350V737Z" glyph-name="Edieresis" horiz-adv-x="623" unicode="&#203;" /><glyph d="M585 0V164H249V277H541V439H249V536H578V700H55V0ZM398 737V859H250V737Z" glyph-name="Edotaccent" horiz-adv-x="623" unicode="&#278;" /><glyph d="M585 0V164H249V277H541V439H249V536H578V700H55V0ZM264 737H409L329 838H105Z" glyph-name="Egrave" horiz-adv-x="623" unicode="&#200;" /><glyph d="M585 0V164H249V277H541V439H249V536H578V700H55V0ZM489 741V831H159V741Z" glyph-name="Emacron" horiz-adv-x="623" unicode="&#274;" /><glyph d="M444 -179C582 -179 660 -104 660 47V700H477V406L478 343L263 700H55V0H238V345L237 401L477 36C474 -6 449 -25 407 -25C386 -25 366 -23 347 -19V-170C375 -176 412 -179 444 -179Z" glyph-name="Eng" horiz-adv-x="715" unicode="&#330;" /><glyph d="M587 -79C534 -65 526 -60 526 -47C526 -40 529 -33 550 0H585V164H249V277H541V439H249V536H578V700H55V0H442C385 -38 371 -56 371 -80C371 -124 426 -145 576 -152Z" glyph-name="Eogonek" horiz-adv-x="623" unicode="&#280;" /><glyph d="M264 171V293H385V420H264V529H299C415 529 481 484 481 350C481 215 413 171 297 171ZM283 0C518 0 683 102 683 352C683 598 519 700 290 700H70V423H16V291H70V0Z" glyph-name="Eth" horiz-adv-x="712" unicode="&#208;" /><glyph d="M588 15 562 181C533 172 479 160 435 160C370 160 322 178 296 227H513V323H273C272 332 272 341 272 350C272 359 272 368 273 376H513V471H295C321 521 369 540 436 540C482 540 530 528 562 519L588 685C548 697 487 709 426 709C236 709 128 623 93 471H19V376H81V350C81 341 81 332 82 323H19V227H94C129 72 238 -9 425 -9C483 -9 545 2 588 15Z" glyph-name="Euro" horiz-adv-x="619" unicode="&#8364;" /><glyph d="M535 12 510 179C475 168 440 160 405 160C350 160 311 179 290 227H460V323H271C270 332 270 341 270 350C270 359 270 368 271 376H460V471H289C310 520 349 540 406 540C441 540 474 532 508 520L535 687C492 700 444 709 389 709C228 709 123 631 90 471H23V376H79V323H23V227H90C123 69 224 -9 389 -9C441 -9 489 -1 535 12Z" glyph-name="Euro.tab" horiz-adv-x="564" /><glyph d="M251 0V244H497V413H251V530H569V700H55V0Z" glyph-name="F" horiz-adv-x="594" unicode="F" /><glyph d="M636 54V420H336V269H449V162C432 156 410 153 385 153C283 153 231 209 231 345C231 473 284 536 389 536C462 536 518 516 569 494L619 661C549 692 475 710 386 710C186 710 29 597 29 350C29 111 153 -9 373 -9C472 -9 570 20 636 54Z" glyph-name="G" horiz-adv-x="682" unicode="G" /><glyph d="M636 54V420H336V269H449V162C432 156 410 153 385 153C283 153 231 209 231 345C231 473 284 536 389 536C462 536 518 516 569 494L619 661C549 692 475 710 386 710C186 710 29 597 29 350C29 111 153 -9 373 -9C472 -9 570 20 636 54ZM366 832C327 832 302 849 294 871H199C206 796 260 739 364 739C468 739 524 796 531 871H436C428 849 405 832 366 832Z" glyph-name="Gbreve" horiz-adv-x="682" unicode="&#286;" /><glyph d="M636 54V420H336V269H449V162C432 156 410 153 385 153C283 153 231 209 231 345C231 473 284 536 389 536C462 536 518 516 569 494L619 661C549 692 475 710 386 710C186 710 29 597 29 350C29 111 153 -9 373 -9C472 -9 570 20 636 54ZM366 815 310 853H189L285 744H445L541 853H422Z" glyph-name="Gcaron" horiz-adv-x="682" unicode="&#486;" /><glyph d="M636 54V420H336V269H449V162C432 156 410 153 385 153C283 153 231 209 231 345C231 473 284 536 389 536C462 536 518 516 569 494L619 661C549 692 475 710 386 710C186 710 29 597 29 350C29 111 153 -9 373 -9C472 -9 570 20 636 54ZM364 782 420 744H541L445 853H285L189 744H308Z" glyph-name="Gcircumflex" horiz-adv-x="682" unicode="&#284;" /><glyph d="M636 54V420H336V269H449V162C432 156 410 153 385 153C283 153 231 209 231 345C231 473 284 536 389 536C462 536 518 516 569 494L619 661C549 692 475 710 386 710C186 710 29 597 29 350C29 111 153 -9 373 -9C472 -9 570 20 636 54ZM439 744V866H291V744Z" glyph-name="Gdotaccent" horiz-adv-x="682" unicode="&#288;" /><glyph d="M252 266H458V0H655V700H458V451H252V700H55V0H252Z" glyph-name="H" horiz-adv-x="710" unicode="H" /><glyph d="M265 428V513H475V428ZM267 256H473V0H670V509H724V637H670V700H475V633H265V700H70V637H16V509H70V0H267Z" glyph-name="Hbar" horiz-adv-x="740" unicode="&#294;" /><glyph d="M252 266H458V0H655V700H458V451H252V700H55V0H252ZM354 775 410 737H531L435 846H275L179 737H298Z" glyph-name="Hcircumflex" horiz-adv-x="710" unicode="&#292;" /><glyph d="M255 0V700H57V0Z" glyph-name="I" horiz-adv-x="312" unicode="I" /><glyph d="M255 0V700H57V0ZM216 737 375 838H151L71 737Z" glyph-name="Iacute" horiz-adv-x="312" unicode="&#205;" /><glyph d="M255 0V700H57V0ZM157 825C118 825 93 842 85 864H-10C-3 789 51 732 155 732C259 732 315 789 322 864H227C219 842 196 825 157 825Z" glyph-name="Ibreve" horiz-adv-x="312" unicode="&#300;" /><glyph d="M255 0V700H57V0ZM155 775 211 737H332L236 846H76L-20 737H99Z" glyph-name="Icircumflex" horiz-adv-x="312" unicode="&#206;" /><glyph d="M255 0V700H57V0ZM130 737V859H-11V737ZM323 737V859H182V737Z" glyph-name="Idieresis" horiz-adv-x="312" unicode="&#207;" /><glyph d="M255 0V700H57V0ZM230 737V859H82V737Z" glyph-name="Idotaccent" horiz-adv-x="312" unicode="&#304;" /><glyph d="M255 0V700H57V0ZM96 737H241L161 838H-63Z" glyph-name="Igrave" horiz-adv-x="312" unicode="&#204;" /><glyph d="M255 0V700H57V0ZM302 741V831H10V741Z" glyph-name="Imacron" horiz-adv-x="312" unicode="&#298;" /><glyph d="M260 -79C207 -65 199 -60 199 -47C199 -40 202 -33 223 0H255V700H57V0H115C58 -38 44 -56 44 -80C44 -124 99 -145 249 -152Z" glyph-name="Iogonek" horiz-adv-x="312" unicode="&#302;" /><glyph d="M255 0V700H57V0ZM46 730C62 767 76 775 95 775C112 775 128 769 161 754C202 736 221 731 247 731C289 731 328 757 358 853L276 876C260 838 246 830 227 830C210 830 194 837 161 851C120 869 101 875 75 875C33 875 -6 849 -36 753Z" glyph-name="Itilde" horiz-adv-x="312" unicode="&#296;" /><glyph d="M451 272V700H254V272C254 196 216 165 148 165C115 165 83 171 45 182L15 13C63 0 119 -8 181 -8C361 -8 451 80 451 272Z" glyph-name="J" horiz-adv-x="501" unicode="J" /><glyph d="M451 272V700H254V272C254 196 216 165 148 165C115 165 83 171 45 182L15 13C63 0 119 -8 181 -8C361 -8 451 80 451 272ZM351 775 407 737H528L432 846H272L176 737H295Z" glyph-name="Jcircumflex" horiz-adv-x="501" unicode="&#308;" /><glyph d="M445 0H682L440 361L672 700H438L252 406V700H55V0H252V311Z" glyph-name="K" horiz-adv-x="679" unicode="K" /><glyph d="M530 0V177H252V700H55V0Z" glyph-name="L" horiz-adv-x="555" unicode="L" /><glyph d="M530 0V177H252V700H55V0ZM214 737 373 838H149L69 737Z" glyph-name="Lacute" horiz-adv-x="555" unicode="&#313;" /><glyph d="M530 0V177H252V700H55V0ZM419 700H306V662C306 615 302 578 290 540L342 514C392 557 419 602 419 670Z" glyph-name="Lcaron" horiz-adv-x="555" unicode="&#317;" /><glyph d="M545 0V177H267V316L390 370V522L267 463V700H70V374L16 350V201L70 226V0Z" glyph-name="Lslash" horiz-adv-x="570" unicode="&#321;" /><glyph d="M363 0H554L675 454L696 0H889L852 700H566L460 284L355 700H76L38 0H221L243 456Z" glyph-name="M" horiz-adv-x="927" unicode="M" /><glyph d="M238 339 237 390 449 0H660V700H477V371L478 321L272 700H55V0H238Z" glyph-name="N" horiz-adv-x="715" unicode="N" /><glyph d="M238 339 237 390 449 0H660V700H477V371L478 321L272 700H55V0H238ZM423 734 582 835H358L278 734Z" glyph-name="Nacute" horiz-adv-x="715" unicode="&#323;" /><glyph d="M238 339 237 390 449 0H660V700H477V371L478 321L272 700H55V0H238ZM364 805 308 843H187L283 734H443L539 843H420Z" glyph-name="Ncaron" horiz-adv-x="715" unicode="&#327;" /><glyph d="M238 339 237 390 449 0H660V700H477V371L478 321L272 700H55V0H238ZM253 730C269 767 283 775 302 775C319 775 335 769 368 754C409 736 428 731 454 731C496 731 535 757 565 853L483 876C467 838 453 830 434 830C417 830 401 837 368 851C327 869 308 875 282 875C240 875 201 849 171 753Z" glyph-name="Ntilde" horiz-adv-x="715" unicode="&#209;" /><glyph d="M687 351C687 579 555 712 359 712C160 712 29 578 29 349C29 122 160 -12 357 -12C554 -12 687 122 687 351ZM485 349C485 220 436 158 358 158C280 158 231 221 231 351C231 480 279 542 357 542C435 542 485 479 485 349Z" glyph-name="O" horiz-adv-x="716" unicode="O" /><glyph d="M29 348C29 102 192 0 422 0H965V164H639V277H921V439H639V536H958V700H428C193 700 29 598 29 348ZM231 350C231 493 299 539 414 539H445V161H413C297 161 231 209 231 350Z" glyph-name="OE" horiz-adv-x="1003" unicode="&#338;" /><glyph d="M687 351C687 579 555 712 359 712C160 712 29 578 29 349C29 122 160 -12 357 -12C554 -12 687 122 687 351ZM485 349C485 220 436 158 358 158C280 158 231 221 231 351C231 480 279 542 357 542C435 542 485 479 485 349ZM417 744 576 845H352L272 744Z" glyph-name="Oacute" horiz-adv-x="716" unicode="&#211;" /><glyph d="M687 351C687 579 555 712 359 712C160 712 29 578 29 349C29 122 160 -12 357 -12C554 -12 687 122 687 351ZM485 349C485 220 436 158 358 158C280 158 231 221 231 351C231 480 279 542 357 542C435 542 485 479 485 349ZM358 832C319 832 294 849 286 871H191C198 796 252 739 356 739C460 739 516 796 523 871H428C420 849 397 832 358 832Z" glyph-name="Obreve" horiz-adv-x="716" unicode="&#334;" /><glyph d="M687 351C687 579 555 712 359 712C160 712 29 578 29 349C29 122 160 -12 357 -12C554 -12 687 122 687 351ZM485 349C485 220 436 158 358 158C280 158 231 221 231 351C231 480 279 542 357 542C435 542 485 479 485 349ZM356 782 412 744H533L437 853H277L181 744H300Z" glyph-name="Ocircumflex" horiz-adv-x="716" unicode="&#212;" /><glyph d="M687 351C687 579 555 712 359 712C160 712 29 578 29 349C29 122 160 -12 357 -12C554 -12 687 122 687 351ZM485 349C485 220 436 158 358 158C280 158 231 221 231 351C231 480 279 542 357 542C435 542 485 479 485 349ZM331 744V866H190V744ZM524 744V866H383V744Z" glyph-name="Odieresis" horiz-adv-x="716" unicode="&#214;" /><glyph d="M687 351C687 579 555 712 359 712C160 712 29 578 29 349C29 122 160 -12 357 -12C554 -12 687 122 687 351ZM485 349C485 220 436 158 358 158C280 158 231 221 231 351C231 480 279 542 357 542C435 542 485 479 485 349ZM297 744H442L362 845H138Z" glyph-name="Ograve" horiz-adv-x="716" unicode="&#210;" /><glyph d="M357 -12C554 -12 687 122 687 351C687 476 644 569 571 628C651 650 694 702 694 775C694 803 688 832 677 857L551 824C557 810 559 797 559 782C559 732 519 707 432 707C409 707 382 708 359 708C160 708 29 576 29 349C29 122 160 -12 357 -12ZM485 349C485 220 436 158 358 158C280 158 231 221 231 351C231 480 279 542 357 542C435 542 485 479 485 349Z" glyph-name="Ohorn" horiz-adv-x="716" unicode="&#416;" /><glyph d="M687 351C687 579 555 712 359 712C160 712 29 578 29 349C29 122 160 -12 357 -12C554 -12 687 122 687 351ZM485 349C485 220 436 158 358 158C280 158 231 221 231 351C231 480 279 542 357 542C435 542 485 479 485 349ZM310 744 453 845H290L202 744ZM492 744 635 845H473L384 744Z" glyph-name="Ohungarumlaut" horiz-adv-x="716" unicode="&#336;" /><glyph d="M687 351C687 579 555 712 359 712C160 712 29 578 29 349C29 122 160 -12 357 -12C554 -12 687 122 687 351ZM485 349C485 220 436 158 358 158C280 158 231 221 231 351C231 480 279 542 357 542C435 542 485 479 485 349ZM522 748V838H192V748Z" glyph-name="Omacron" horiz-adv-x="716" unicode="&#332;" /><glyph d="M229 351C229 481 278 544 357 544C377 544 394 540 410 532L241 254C233 281 229 313 229 351ZM358 156C338 156 319 160 303 169L474 449C482 422 487 389 487 349C487 218 437 156 358 156ZM357 -12C554 -12 687 122 687 351C687 462 656 551 601 612L699 751H552L506 682C463 702 413 712 359 712C160 712 29 578 29 349C29 238 60 150 115 88L17 -51H163L210 18C253 -2 302 -12 357 -12Z" glyph-name="Oslash" horiz-adv-x="716" unicode="&#216;" /><glyph d="M229 351C229 481 278 544 357 544C377 544 394 540 410 532L241 254C233 281 229 313 229 351ZM358 156C338 156 319 160 303 169L474 449C482 422 487 389 487 349C487 218 437 156 358 156ZM357 -12C554 -12 687 122 687 351C687 462 656 551 601 612L699 751H552L506 682C463 702 413 712 359 712C160 712 29 578 29 349C29 238 60 150 115 88L17 -51H163L210 18C253 -2 302 -12 357 -12ZM417 744 576 845H352L272 744Z" glyph-name="Oslashacute" horiz-adv-x="716" unicode="&#510;" /><glyph d="M687 351C687 579 555 712 359 712C160 712 29 578 29 349C29 122 160 -12 357 -12C554 -12 687 122 687 351ZM485 349C485 220 436 158 358 158C280 158 231 221 231 351C231 480 279 542 357 542C435 542 485 479 485 349ZM247 737C263 774 277 782 296 782C313 782 329 776 362 761C403 743 422 738 448 738C490 738 529 764 559 860L477 883C461 845 447 837 428 837C411 837 395 844 362 858C321 876 302 882 276 882C234 882 195 856 165 760Z" glyph-name="Otilde" horiz-adv-x="716" unicode="&#213;" /><glyph d="M251 0V184H299C489 184 607 266 607 450C607 618 502 700 297 700H55V0ZM251 341V539H296C379 539 409 510 409 442C409 376 381 341 296 341Z" glyph-name="P" horiz-adv-x="622" unicode="P" /><glyph d="M732 -70 596 88C654 150 687 240 687 353C687 578 555 712 359 712C160 712 29 576 29 351C29 124 160 -8 357 -8C382 -8 405 -6 428 -2L485 -70ZM485 349C485 220 436 158 358 158C280 158 231 221 231 351C231 480 279 542 357 542C435 542 485 479 485 349Z" glyph-name="Q" horiz-adv-x="716" unicode="Q" /><glyph d="M249 372V541H321C396 541 427 511 427 460C427 402 391 372 318 372ZM249 219H260C308 219 336 203 363 158L449 0H678L570 179C536 234 511 259 467 278C547 305 628 362 628 486C628 625 537 700 332 700H55V0H249Z" glyph-name="R" horiz-adv-x="673" unicode="R" /><glyph d="M249 372V541H321C396 541 427 511 427 460C427 402 391 372 318 372ZM249 219H260C308 219 336 203 363 158L449 0H678L570 179C536 234 511 259 467 278C547 305 628 362 628 486C628 625 537 700 332 700H55V0H249ZM391 737 550 838H326L246 737Z" glyph-name="Racute" horiz-adv-x="673" unicode="&#340;" /><glyph d="M249 372V541H321C396 541 427 511 427 460C427 402 391 372 318 372ZM249 219H260C308 219 336 203 363 158L449 0H678L570 179C536 234 511 259 467 278C547 305 628 362 628 486C628 625 537 700 332 700H55V0H249ZM332 808 276 846H155L251 737H411L507 846H388Z" glyph-name="Rcaron" horiz-adv-x="673" unicode="&#344;" /><glyph d="M586 220C586 350 513 399 345 442C250 470 237 482 237 507C237 530 254 546 303 546C374 546 454 524 508 500L554 662C490 689 407 709 314 709C140 709 45 625 45 488C45 363 119 315 283 273C371 245 393 230 393 200C393 172 373 153 306 153C219 153 131 181 65 209L19 48C96 14 192 -11 298 -11C483 -11 586 67 586 220Z" glyph-name="S" horiz-adv-x="609" unicode="S" /><glyph d="M586 220C586 350 513 399 345 442C250 470 237 482 237 507C237 530 254 546 303 546C374 546 454 524 508 500L554 662C490 689 407 709 314 709C140 709 45 625 45 488C45 363 119 315 283 273C371 245 393 230 393 200C393 172 373 153 306 153C219 153 131 181 65 209L19 48C96 14 192 -11 298 -11C483 -11 586 67 586 220ZM375 744 534 845H310L230 744Z" glyph-name="Sacute" horiz-adv-x="609" unicode="&#346;" /><glyph d="M586 220C586 350 513 399 345 442C250 470 237 482 237 507C237 530 254 546 303 546C374 546 454 524 508 500L554 662C490 689 407 709 314 709C140 709 45 625 45 488C45 363 119 315 283 273C371 245 393 230 393 200C393 172 373 153 306 153C219 153 131 181 65 209L19 48C96 14 192 -11 298 -11C483 -11 586 67 586 220ZM316 815 260 853H139L235 744H395L491 853H372Z" glyph-name="Scaron" horiz-adv-x="609" unicode="&#352;" /><glyph d="M586 220C586 350 513 399 345 442C250 470 237 482 237 507C237 530 254 546 303 546C374 546 454 524 508 500L554 662C490 689 407 709 314 709C140 709 45 625 45 488C45 363 119 315 283 273C371 245 393 230 393 200C393 172 373 153 306 153C219 153 131 181 65 209L19 48C96 14 192 -11 298 -11C483 -11 586 67 586 220ZM314 782 370 744H491L395 853H235L139 744H258Z" glyph-name="Scircumflex" horiz-adv-x="609" unicode="&#348;" /><glyph d="M420 0V524H620V700H21V524H222V0Z" glyph-name="T" horiz-adv-x="642" unicode="T" /><glyph d="M531 243V376H420V524H620V700H21V524H222V376H110V243H222V0H420V243Z" glyph-name="Tbar" horiz-adv-x="642" unicode="&#358;" /><glyph d="M420 0V524H620V700H21V524H222V0ZM322 808 266 846H145L241 737H401L497 846H378Z" glyph-name="Tcaron" horiz-adv-x="642" unicode="&#356;" /><glyph d="M251 0V96H299C489 96 607 178 607 362C607 530 502 612 298 612H251V700H55V0ZM251 253V451H296C379 451 409 422 409 354C409 288 381 253 296 253Z" glyph-name="Thorn" horiz-adv-x="632" unicode="&#222;" /><glyph d="M649 280V700H454V269C454 184 409 157 350 157C292 157 246 184 246 269V700H48V277C48 68 172 -11 348 -11C523 -11 649 68 649 280Z" glyph-name="U" horiz-adv-x="697" unicode="U" /><glyph d="M649 280V700H454V269C454 184 409 157 350 157C292 157 246 184 246 269V700H48V277C48 68 172 -11 348 -11C523 -11 649 68 649 280ZM408 734 567 835H343L263 734Z" glyph-name="Uacute" horiz-adv-x="697" unicode="&#218;" /><glyph d="M649 280V700H454V269C454 184 409 157 350 157C292 157 246 184 246 269V700H48V277C48 68 172 -11 348 -11C523 -11 649 68 649 280ZM349 822C310 822 285 839 277 861H182C189 786 243 729 347 729C451 729 507 786 514 861H419C411 839 388 822 349 822Z" glyph-name="Ubreve" horiz-adv-x="697" unicode="&#364;" /><glyph d="M649 280V700H454V269C454 184 409 157 350 157C292 157 246 184 246 269V700H48V277C48 68 172 -11 348 -11C523 -11 649 68 649 280ZM347 775 403 737H524L428 846H268L172 737H291Z" glyph-name="Ucircumflex" horiz-adv-x="697" unicode="&#219;" /><glyph d="M649 280V700H454V269C454 184 409 157 350 157C292 157 246 184 246 269V700H48V277C48 68 172 -11 348 -11C523 -11 649 68 649 280ZM322 737V859H181V737ZM515 737V859H374V737Z" glyph-name="Udieresis" horiz-adv-x="697" unicode="&#220;" /><glyph d="M649 280V700H454V269C454 184 409 157 350 157C292 157 246 184 246 269V700H48V277C48 68 172 -11 348 -11C523 -11 649 68 649 280ZM288 734H433L353 835H129Z" glyph-name="Ugrave" horiz-adv-x="697" unicode="&#217;" /><glyph d="M348 -11C523 -11 649 68 649 280V631C720 660 757 710 757 775C757 803 751 832 740 857L615 824C620 810 623 797 623 782C623 728 578 700 487 700H454V269C454 184 409 157 350 157C292 157 246 184 246 269V700H48V277C48 68 172 -11 348 -11Z" glyph-name="Uhorn" horiz-adv-x="730" unicode="&#431;" /><glyph d="M649 280V700H454V269C454 184 409 157 350 157C292 157 246 184 246 269V700H48V277C48 68 172 -11 348 -11C523 -11 649 68 649 280ZM301 737 444 838H281L193 737ZM483 737 626 838H464L375 737Z" glyph-name="Uhungarumlaut" horiz-adv-x="697" unicode="&#368;" /><glyph d="M649 280V700H454V269C454 184 409 157 350 157C292 157 246 184 246 269V700H48V277C48 68 172 -11 348 -11C523 -11 649 68 649 280ZM513 741V831H183V741Z" glyph-name="Umacron" horiz-adv-x="697" unicode="&#362;" /><glyph d="M451 -152 462 -79C409 -65 401 -60 401 -47C401 -40 403 -34 422 -6C557 15 649 99 649 280V700H454V269C454 184 409 157 350 157C292 157 246 184 246 269V700H48V277C48 86 151 4 304 -9C258 -41 246 -58 246 -80C246 -124 301 -145 451 -152Z" glyph-name="Uogonek" horiz-adv-x="697" unicode="&#370;" /><glyph d="M649 280V700H454V269C454 184 409 157 350 157C292 157 246 184 246 269V700H48V277C48 68 172 -11 348 -11C523 -11 649 68 649 280ZM228 837C228 774 279 729 348 729C417 729 468 774 468 837C468 900 417 945 348 945C279 945 228 900 228 837ZM279 837C279 876 307 902 348 902C389 902 417 876 417 837C417 798 389 772 348 772C307 772 279 798 279 837Z" glyph-name="Uring" horiz-adv-x="697" unicode="&#366;" /><glyph d="M649 280V700H454V269C454 184 409 157 350 157C292 157 246 184 246 269V700H48V277C48 68 172 -11 348 -11C523 -11 649 68 649 280ZM238 730C254 767 268 775 287 775C304 775 320 769 353 754C394 736 413 731 439 731C481 731 520 757 550 853L468 876C452 838 438 830 419 830C402 830 386 837 353 851C312 869 293 875 267 875C225 875 186 849 156 753Z" glyph-name="Utilde" horiz-adv-x="697" unicode="&#360;" /><glyph d="M458 -3 692 700H481L351 247L220 700H5L239 -3Z" glyph-name="V" horiz-adv-x="697" unicode="V" /><glyph d="M629 -2H848L1018 700H817L732 270L625 700H411L302 271L218 700H9L180 -2H396L513 436Z" glyph-name="W" horiz-adv-x="1028" unicode="W" /><glyph d="M629 -2H848L1018 700H817L732 270L625 700H411L302 271L218 700H9L180 -2H396L513 436ZM573 737 732 838H508L428 737Z" glyph-name="Wacute" horiz-adv-x="1028" unicode="&#7810;" /><glyph d="M629 -2H848L1018 700H817L732 270L625 700H411L302 271L218 700H9L180 -2H396L513 436ZM512 775 568 737H689L593 846H433L337 737H456Z" glyph-name="Wcircumflex" horiz-adv-x="1028" unicode="&#372;" /><glyph d="M629 -2H848L1018 700H817L732 270L625 700H411L302 271L218 700H9L180 -2H396L513 436ZM487 737V859H346V737ZM680 737V859H539V737Z" glyph-name="Wdieresis" horiz-adv-x="1028" unicode="&#7812;" /><glyph d="M629 -2H848L1018 700H817L732 270L625 700H411L302 271L218 700H9L180 -2H396L513 436ZM453 737H598L518 838H294Z" glyph-name="Wgrave" horiz-adv-x="1028" unicode="&#7808;" /><glyph d="M452 0H674L458 360L665 700H448L340 503L232 700H12L219 361L3 0H222L337 210Z" glyph-name="X" horiz-adv-x="677" unicode="X" /><glyph d="M430 0V248L665 700H455L333 443L211 700H-2L233 248V0Z" glyph-name="Y" horiz-adv-x="663" unicode="Y" /><glyph d="M430 0V248L665 700H455L333 443L211 700H-2L233 248V0ZM391 734 550 835H326L246 734Z" glyph-name="Yacute" horiz-adv-x="663" unicode="&#221;" /><glyph d="M430 0V248L665 700H455L333 443L211 700H-2L233 248V0ZM330 775 386 737H507L411 846H251L155 737H274Z" glyph-name="Ycircumflex" horiz-adv-x="663" unicode="&#374;" /><glyph d="M430 0V248L665 700H455L333 443L211 700H-2L233 248V0ZM305 737V859H164V737ZM498 737V859H357V737Z" glyph-name="Ydieresis" horiz-adv-x="663" unicode="&#376;" /><glyph d="M430 0V248L665 700H455L333 443L211 700H-2L233 248V0ZM271 734H416L336 835H112Z" glyph-name="Ygrave" horiz-adv-x="663" unicode="&#7922;" /><glyph d="M592 0V167H277L592 535V700H47V533H345L30 165V0Z" glyph-name="Z" horiz-adv-x="623" unicode="Z" /><glyph d="M592 0V167H277L592 535V700H47V533H345L30 165V0ZM377 737 536 838H312L232 737Z" glyph-name="Zacute" horiz-adv-x="623" unicode="&#377;" /><glyph d="M592 0V167H277L592 535V700H47V533H345L30 165V0ZM318 808 262 846H141L237 737H397L493 846H374Z" glyph-name="Zcaron" horiz-adv-x="623" unicode="&#381;" /><glyph d="M592 0V167H277L592 535V700H47V533H345L30 165V0ZM391 737V859H243V737Z" glyph-name="Zdotaccent" horiz-adv-x="623" unicode="&#379;" /><glyph d="M256 111C217 111 192 127 192 169C192 189 197 202 206 212C217 223 235 228 261 228C285 228 306 226 327 222V127C307 119 280 111 256 111ZM340 44 361 0H524L510 110V341C510 483 437 542 278 542C193 542 120 524 56 499L93 364C143 384 195 397 247 397C307 397 327 371 327 331V314C298 320 261 325 223 325C147 325 97 308 65 276C37 248 23 208 23 161C23 47 89 -9 185 -9C251 -9 296 11 340 44Z" glyph-name="a" horiz-adv-x="556" unicode="a" /><glyph d="M256 111C217 111 192 127 192 169C192 189 197 202 206 212C217 223 235 228 261 228C285 228 306 226 327 222V127C307 119 280 111 256 111ZM340 44 361 0H524L510 110V341C510 483 437 542 278 542C193 542 120 524 56 499L93 364C143 384 195 397 247 397C307 397 327 371 327 331V314C298 320 261 325 223 325C147 325 97 308 65 276C37 248 23 208 23 161C23 47 89 -9 185 -9C251 -9 296 11 340 44ZM320 581 486 696H275L202 581Z" glyph-name="aacute" horiz-adv-x="556" unicode="&#225;" /><glyph d="M256 111C217 111 192 127 192 169C192 189 197 202 206 212C217 223 235 228 261 228C285 228 306 226 327 222V127C307 119 280 111 256 111ZM340 44 361 0H524L510 110V341C510 483 437 542 278 542C193 542 120 524 56 499L93 364C143 384 195 397 247 397C307 397 327 371 327 331V314C298 320 261 325 223 325C147 325 97 308 65 276C37 248 23 208 23 161C23 47 89 -9 185 -9C251 -9 296 11 340 44ZM280 671C240 671 218 689 210 712H124C130 636 180 576 278 576C376 576 428 636 434 712H348C340 689 320 671 280 671Z" glyph-name="abreve" horiz-adv-x="556" unicode="&#259;" /><glyph d="M256 111C217 111 192 127 192 169C192 189 197 202 206 212C217 223 235 228 261 228C285 228 306 226 327 222V127C307 119 280 111 256 111ZM340 44 361 0H524L510 110V341C510 483 437 542 278 542C193 542 120 524 56 499L93 364C143 384 195 397 247 397C307 397 327 371 327 331V314C298 320 261 325 223 325C147 325 97 308 65 276C37 248 23 208 23 161C23 47 89 -9 185 -9C251 -9 296 11 340 44ZM278 625 336 581H444L344 702H214L114 581H220Z" glyph-name="acircumflex" horiz-adv-x="556" unicode="&#226;" /><glyph d="M291 578 457 693H246L173 578Z" glyph-name="acute" horiz-adv-x="500" unicode="&#180;" /><glyph d="M60 737 219 838H-5L-85 737Z" glyph-name="acute.cap" horiz-adv-x="0" /><glyph d="M256 111C217 111 192 127 192 169C192 189 197 202 206 212C217 223 235 228 261 228C285 228 306 226 327 222V127C307 119 280 111 256 111ZM340 44 361 0H524L510 110V341C510 483 437 542 278 542C193 542 120 524 56 499L93 364C143 384 195 397 247 397C307 397 327 371 327 331V314C298 320 261 325 223 325C147 325 97 308 65 276C37 248 23 208 23 161C23 47 89 -9 185 -9C251 -9 296 11 340 44ZM253 581V708H119V581ZM439 581V708H305V581Z" glyph-name="adieresis" horiz-adv-x="556" unicode="&#228;" /><glyph d="M493 312C499 374 525 408 570 408C614 408 640 374 645 312ZM592 -10C662 -10 737 7 797 40L758 159C710 136 653 123 610 123C538 123 500 151 493 205H816V255C816 441 719 544 584 544C521 544 471 524 435 489C406 524 357 542 277 542C193 542 120 524 56 499L93 364C143 384 195 397 247 397C307 397 327 371 327 331V314C298 320 261 325 223 325C147 325 97 308 65 276C37 248 23 208 23 161C23 46 99 -9 209 -9C275 -9 341 12 401 49C448 8 514 -10 592 -10ZM256 113C218 113 192 130 192 169C192 189 197 202 206 212C217 223 235 228 261 228C283 228 303 226 323 223C326 190 332 161 341 136C312 122 281 113 256 113Z" glyph-name="ae" horiz-adv-x="838" unicode="&#230;" /><glyph d="M493 312C499 374 525 408 570 408C614 408 640 374 645 312ZM592 -10C662 -10 737 7 797 40L758 159C710 136 653 123 610 123C538 123 500 151 493 205H816V255C816 441 719 544 584 544C521 544 471 524 435 489C406 524 357 542 277 542C193 542 120 524 56 499L93 364C143 384 195 397 247 397C307 397 327 371 327 331V314C298 320 261 325 223 325C147 325 97 308 65 276C37 248 23 208 23 161C23 46 99 -9 209 -9C275 -9 341 12 401 49C448 8 514 -10 592 -10ZM256 113C218 113 192 130 192 169C192 189 197 202 206 212C217 223 235 228 261 228C283 228 303 226 323 223C326 190 332 161 341 136C312 122 281 113 256 113ZM469 578 635 693H424L351 578Z" glyph-name="aeacute" horiz-adv-x="838" unicode="&#509;" /><glyph d="M256 111C217 111 192 127 192 169C192 189 197 202 206 212C217 223 235 228 261 228C285 228 306 226 327 222V127C307 119 280 111 256 111ZM340 44 361 0H524L510 110V341C510 483 437 542 278 542C193 542 120 524 56 499L93 364C143 384 195 397 247 397C307 397 327 371 327 331V314C298 320 261 325 223 325C147 325 97 308 65 276C37 248 23 208 23 161C23 47 89 -9 185 -9C251 -9 296 11 340 44ZM238 581H356L283 696H72Z" glyph-name="agrave" horiz-adv-x="556" unicode="&#224;" /><glyph d="M256 111C217 111 192 127 192 169C192 189 197 202 206 212C217 223 235 228 261 228C285 228 306 226 327 222V127C307 119 280 111 256 111ZM340 44 361 0H524L510 110V341C510 483 437 542 278 542C193 542 120 524 56 499L93 364C143 384 195 397 247 397C307 397 327 371 327 331V314C298 320 261 325 223 325C147 325 97 308 65 276C37 248 23 208 23 161C23 47 89 -9 185 -9C251 -9 296 11 340 44ZM427 585V670H131V585Z" glyph-name="amacron" horiz-adv-x="556" unicode="&#257;" /><glyph d="M256 149C224 149 199 171 199 212C199 238 210 267 240 297L329 177C302 155 281 149 256 149ZM462 0H670L544 173C603 252 629 320 650 399H473C466 368 456 339 441 312L329 463C314 484 309 496 309 511C309 531 323 543 350 543C389 543 441 524 493 495L545 658C478 690 410 708 327 708C190 708 112 640 112 541C112 497 125 461 154 416C64 360 16 287 16 193C16 64 102 -10 227 -10C303 -10 367 13 421 54Z" glyph-name="ampersand" horiz-adv-x="672" unicode="&amp;" /><glyph d="M256 111C217 111 192 127 192 169C192 189 197 202 206 212C217 223 235 228 261 228C285 228 306 226 327 222V127C307 119 280 111 256 111ZM539 -79C486 -65 478 -60 478 -47C478 -40 481 -33 502 0H524L510 110V341C510 483 437 542 278 542C193 542 120 524 56 499L93 364C143 384 195 397 247 397C307 397 327 371 327 331V314C298 320 261 325 223 325C147 325 97 308 65 276C37 248 23 208 23 161C23 47 89 -9 185 -9C251 -9 296 11 340 44L361 0H394C337 -38 323 -56 323 -80C323 -124 378 -145 528 -152Z" glyph-name="aogonek" horiz-adv-x="556" unicode="&#261;" /><glyph d="M421 567C397 515 382 500 357 500C339 500 322 507 284 530C238 556 215 567 184 567C131 567 91 531 47 406L139 367C161 413 175 426 197 426C215 426 232 419 271 396C316 369 340 359 370 359C425 359 469 394 517 528ZM426 346C404 301 389 288 367 288C349 288 333 294 294 317C248 344 225 355 194 355C139 355 95 319 47 186L143 146C167 198 182 213 208 213C225 213 242 207 281 184C327 157 350 146 381 146C434 146 473 183 517 307Z" glyph-name="approxequal" horiz-adv-x="564" unicode="&#8776;" /><glyph d="M256 111C217 111 192 127 192 169C192 189 197 202 206 212C217 223 235 228 261 228C285 228 306 226 327 222V127C307 119 280 111 256 111ZM340 44 361 0H524L510 110V341C510 483 437 542 278 542C193 542 120 524 56 499L93 364C143 384 195 397 247 397C307 397 327 371 327 331V314C298 320 261 325 223 325C147 325 97 308 65 276C37 248 23 208 23 161C23 47 89 -9 185 -9C251 -9 296 11 340 44ZM166 682C166 622 214 576 279 576C344 576 392 622 392 682C392 742 344 789 279 789C214 789 166 742 166 682ZM217 682C217 719 244 745 279 745C314 745 341 719 341 682C341 645 314 619 279 619C244 619 217 645 217 682Z" glyph-name="aring" horiz-adv-x="556" unicode="&#229;" /><glyph d="M256 111C217 111 192 127 192 169C192 189 197 202 206 212C217 223 235 228 261 228C285 228 306 226 327 222V127C307 119 280 111 256 111ZM340 44 361 0H524L510 110V341C510 483 437 542 278 542C193 542 120 524 56 499L93 364C143 384 195 397 247 397C307 397 327 371 327 331V314C298 320 261 325 223 325C147 325 97 308 65 276C37 248 23 208 23 161C23 47 89 -9 185 -9C251 -9 296 11 340 44ZM462 895H265L205 802H323ZM166 677C166 619 214 576 279 576C344 576 392 619 392 677C392 735 344 778 279 778C214 778 166 735 166 677ZM217 677C217 711 244 735 279 735C314 735 341 711 341 677C341 643 314 619 279 619C244 619 217 643 217 677Z" glyph-name="aringacute" horiz-adv-x="556" unicode="&#507;" /><glyph d="M40 401H195L282 584L368 401H524L369 714H196Z" glyph-name="asciicircum" horiz-adv-x="564" unicode="^" /><glyph d="M421 466C398 413 385 397 364 397C345 397 328 404 287 428C240 455 214 466 182 466C130 466 88 425 42 285L143 247C166 300 180 316 201 316C219 316 236 309 277 285C324 258 350 248 382 248C435 248 477 289 522 429Z" glyph-name="asciitilde" horiz-adv-x="564" unicode="~" /><glyph d="M179 592 218 702H118L157 592ZM315 561 285 652 193 583 200 562ZM21 561 136 562 143 583 52 652ZM210 422 288 481 194 547 175 533ZM126 422 161 533 142 547 48 481Z" glyph-name="asterisk" horiz-adv-x="336" unicode="*" /><glyph d="M388 -150C440 -150 484 -144 524 -132L510 -53C475 -62 436 -68 403 -68C238 -68 132 14 132 206C132 434 280 620 446 620C516 620 553 589 553 529C553 521 552 511 551 501C537 503 524 504 512 504C339 504 241 384 241 233C241 120 303 63 374 63C415 63 448 77 487 108L512 63H607L686 395C697 442 703 479 703 522C703 642 631 717 472 717C238 717 31 502 31 203C31 -29 161 -150 388 -150ZM451 179C421 179 396 201 396 248C396 324 444 393 519 393H527L476 182C468 180 460 179 451 179Z" glyph-name="at" horiz-adv-x="726" unicode="@" /><glyph d="M256 111C217 111 192 127 192 169C192 189 197 202 206 212C217 223 235 228 261 228C285 228 306 226 327 222V127C307 119 280 111 256 111ZM340 44 361 0H524L510 110V341C510 483 437 542 278 542C193 542 120 524 56 499L93 364C143 384 195 397 247 397C307 397 327 371 327 331V314C298 320 261 325 223 325C147 325 97 308 65 276C37 248 23 208 23 161C23 47 89 -9 185 -9C251 -9 296 11 340 44ZM174 574C191 613 202 621 220 621C237 621 251 615 284 599C323 581 341 575 366 575C406 575 441 604 470 703L394 724C377 685 366 677 348 677C331 677 316 683 284 699C245 717 227 723 202 723C162 723 126 694 98 595Z" glyph-name="atilde" horiz-adv-x="556" unicode="&#227;" /><glyph d="M352 -10C471 -10 560 85 560 266C560 450 474 541 359 541C308 541 266 522 234 495V724H48V0H193L216 44C251 15 291 -10 352 -10ZM299 141C275 141 253 148 234 160V366C251 379 276 391 302 391C352 391 382 353 382 266C382 179 351 141 299 141Z" glyph-name="b" horiz-adv-x="586" unicode="b" /><glyph d="M301 -130H432L114 795H-17Z" glyph-name="backslash" horiz-adv-x="402" unicode="\" /><glyph d="M296 -114H427L109 811H-22Z" glyph-name="backslash.cap" horiz-adv-x="402" /><glyph d="M212 -130V795H89V-130Z" glyph-name="bar" horiz-adv-x="301" unicode="|" /><glyph d="M212 -114V811H89V-114Z" glyph-name="bar.cap" horiz-adv-x="301" /><glyph d="M509 -115 522 -6C443 0 371 13 318 26C361 52 391 85 391 137C391 222 309 268 196 304C309 340 391 386 391 471C391 523 361 556 318 582C371 595 443 608 522 614L509 723C370 709 233 676 146 643L132 554C182 532 213 504 213 467C213 412 163 376 27 349V259C163 232 213 196 213 141C213 104 182 76 132 54L146 -35C233 -68 370 -101 509 -115Z" glyph-name="braceleft" horiz-adv-x="548" unicode="{" /><glyph d="M509 -70 522 39C443 45 371 58 318 71C361 97 391 130 391 182C391 267 309 313 196 349C309 385 391 431 391 516C391 568 361 601 318 627C371 640 443 653 522 659L509 768C370 754 233 721 146 688L132 599C182 577 213 549 213 512C213 457 163 421 27 394V304C163 277 213 241 213 186C213 149 182 121 132 99L146 10C233 -23 370 -56 509 -70Z" glyph-name="braceleft.cap" horiz-adv-x="548" /><glyph d="M39 -115C177 -101 315 -68 402 -35L415 54C366 76 335 104 335 141C335 196 385 232 521 259V349C385 376 335 412 335 467C335 504 366 532 415 554L402 643C315 676 177 709 39 723L26 614C105 608 177 595 230 582C187 556 157 523 157 471C157 386 239 340 352 304C239 268 157 222 157 137C157 85 187 52 230 26C177 13 105 0 26 -6Z" glyph-name="braceright" horiz-adv-x="548" unicode="}" /><glyph d="M39 -70C177 -56 315 -23 402 10L415 99C366 121 335 149 335 186C335 241 385 277 521 304V394C385 421 335 457 335 512C335 549 366 577 415 599L402 688C315 721 177 754 39 768L26 659C105 653 177 640 230 627C187 601 157 568 157 516C157 431 239 385 352 349C239 313 157 267 157 182C157 130 187 97 230 71C177 58 105 45 26 39Z" glyph-name="braceright.cap" horiz-adv-x="548" /><glyph d="M378 -91V11L213 4V604L378 597V699L59 717V-109Z" glyph-name="bracketleft" horiz-adv-x="406" unicode="[" /><glyph d="M378 -46V56L213 49V649L378 642V744L59 762V-64Z" glyph-name="bracketleft.cap" horiz-adv-x="406" /><glyph d="M346 -109V717L28 699V597L193 604V4L28 11V-91Z" glyph-name="bracketright" horiz-adv-x="406" unicode="]" /><glyph d="M346 -64V762L28 744V642L193 649V49L28 56V-46Z" glyph-name="bracketright.cap" horiz-adv-x="406" /><glyph d="M251 668C211 668 189 686 181 709H95C101 633 151 573 249 573C347 573 399 633 405 709H319C311 686 291 668 251 668Z" glyph-name="breve" horiz-adv-x="500" unicode="&#728;" /><glyph d="M1 825C-38 825 -63 842 -71 864H-166C-159 789 -105 732 -1 732C103 732 159 789 166 864H71C63 842 40 825 1 825Z" glyph-name="breve.cap" horiz-adv-x="0" /><glyph d="M78 355C78 264 151 191 242 191C332 191 406 264 406 355C406 446 332 519 242 519C151 519 78 446 78 355Z" glyph-name="bullet" horiz-adv-x="483" unicode="&#8226;" /><glyph d="M456 32 420 181C380 163 343 149 304 149C237 149 201 191 201 267C201 336 237 382 302 382C344 382 384 368 416 353L452 509C404 529 355 542 291 542C128 542 24 435 24 266C24 94 123 -10 279 -10C346 -10 406 8 456 32Z" glyph-name="c" horiz-adv-x="473" unicode="c" /><glyph d="M456 32 420 181C380 163 343 149 304 149C237 149 201 191 201 267C201 336 237 382 302 382C344 382 384 368 416 353L452 509C404 529 355 542 291 542C128 542 24 435 24 266C24 94 123 -10 279 -10C346 -10 406 8 456 32ZM317 581 483 696H272L199 581Z" glyph-name="cacute" horiz-adv-x="473" unicode="&#263;" /><glyph d="M251 655 193 699H85L185 578H315L415 699H309Z" glyph-name="caron" horiz-adv-x="500" unicode="&#711;" /><glyph d="M1 808 -55 846H-176L-80 737H80L176 846H57Z" glyph-name="caron.cap" horiz-adv-x="0" /><glyph d="M456 32 420 181C380 163 343 149 304 149C237 149 201 191 201 267C201 336 237 382 302 382C344 382 384 368 416 353L452 509C404 529 355 542 291 542C128 542 24 435 24 266C24 94 123 -10 279 -10C346 -10 406 8 456 32ZM277 658 219 702H111L211 581H341L441 702H335Z" glyph-name="ccaron" horiz-adv-x="473" unicode="&#269;" /><glyph d="M404 -89C404 -52 371 -32 296 -34L330 -7C376 0 419 14 456 32L420 181C380 163 343 149 304 149C237 149 201 191 201 267C201 336 237 382 302 382C344 382 384 368 416 353L452 509C404 529 355 542 291 542C128 542 24 435 24 266C24 115 100 17 223 -5L168 -59L194 -91C229 -80 252 -84 252 -96C252 -110 232 -118 147 -123L152 -174C339 -174 404 -138 404 -89Z" glyph-name="ccedilla" horiz-adv-x="473" unicode="&#231;" /><glyph d="M456 32 420 181C380 163 343 149 304 149C237 149 201 191 201 267C201 336 237 382 302 382C344 382 384 368 416 353L452 509C404 529 355 542 291 542C128 542 24 435 24 266C24 94 123 -10 279 -10C346 -10 406 8 456 32ZM275 625 333 581H441L341 702H211L111 581H217Z" glyph-name="ccircumflex" horiz-adv-x="473" unicode="&#265;" /><glyph d="M456 32 420 181C380 163 343 149 304 149C237 149 201 191 201 267C201 336 237 382 302 382C344 382 384 368 416 353L452 509C404 529 355 542 291 542C128 542 24 435 24 266C24 94 123 -10 279 -10C346 -10 406 8 456 32ZM346 581V708H206V581Z" glyph-name="cdotaccent" horiz-adv-x="473" unicode="&#267;" /><glyph d="M126 -174C313 -174 378 -138 378 -89C378 -52 345 -32 270 -34L324 10H213L142 -59L168 -91C203 -80 226 -84 226 -96C226 -110 206 -118 121 -123Z" glyph-name="cedilla" horiz-adv-x="500" unicode="&#184;" /><glyph d="M456 144 424 277C378 258 344 250 308 248L342 465C369 460 395 451 423 439L458 575C429 587 402 595 374 600L391 704H293L278 607C112 600 27 492 27 358C27 230 96 145 200 118L180 -4H278L296 109C352 112 400 123 456 144ZM192 357C192 411 218 452 265 465L233 264C205 283 192 316 192 357Z" glyph-name="cent" horiz-adv-x="483" unicode="&#162;" /><glyph d="M249 622 307 578H415L315 699H185L85 578H191Z" glyph-name="circumflex" horiz-adv-x="500" unicode="&#710;" /><glyph d="M-1 775 55 737H176L80 846H-80L-176 737H-57Z" glyph-name="circumflex.cap" horiz-adv-x="0" /><glyph d="M218 336V532H36V336ZM218 0V196H36V0Z" glyph-name="colon" horiz-adv-x="255" unicode=":" /><glyph d="M221 398V581H36V398ZM221 139V321H36V139Z" glyph-name="colon.fig" horiz-adv-x="257" /><glyph d="M233 398V581H49V398ZM233 139V321H49V139Z" glyph-name="colon.figtab" horiz-adv-x="282" /><glyph d="M232 336V532H50V336ZM232 0V196H50V0Z" glyph-name="colon.tab" horiz-adv-x="282" /><glyph d="M217 196H42C42 40 26 -22 -19 -101L40 -145C159 -50 217 58 217 188Z" glyph-name="comma" horiz-adv-x="245" unicode="," /><glyph d="M236 196H61C61 40 45 -22 0 -101L59 -145C177 -50 236 58 236 188Z" glyph-name="comma.tab" horiz-adv-x="282" /><glyph d="M363 -19C551 -19 691 132 691 350C691 568 551 719 363 719C175 719 35 568 35 350C35 132 175 -19 363 -19ZM363 676C525 676 644 544 644 350C644 156 525 24 363 24C200 24 81 156 81 350C81 544 200 676 363 676ZM502 185 471 279C446 266 421 258 395 258C342 258 311 293 311 354C311 412 340 448 391 448C418 448 447 439 471 425L500 523C467 539 428 551 383 551C272 551 190 479 190 353C190 223 269 155 385 155C425 155 468 167 502 185Z" glyph-name="copyright" horiz-adv-x="725" unicode="&#169;" /><glyph d="M284 141C234 141 203 179 203 265C203 353 234 391 287 391C311 391 333 384 352 372V166C335 153 310 141 284 141ZM366 49 392 0H538V724H352V513C316 532 283 541 241 541C116 541 26 447 26 266C26 82 113 -10 224 -10C288 -10 329 16 366 49Z" glyph-name="d" horiz-adv-x="586" unicode="d" /><glyph d="M189 471 168 559H175L265 536V616L175 593H168L191 702H105L129 593H121L31 616V536L121 559H128L107 471L135 262H161Z" glyph-name="dagger" horiz-adv-x="296" unicode="&#8224;" /><glyph d="M175 348 265 325V405L175 382H168L189 471L168 559H175L265 536V616L175 593H168L191 702H105L129 593H121L31 616V536L121 559H128L107 471L128 382H121L31 405V325L121 348H129L105 239H191L168 348Z" glyph-name="daggerdbl" horiz-adv-x="296" unicode="&#8225;" /><glyph d="M284 141C234 141 203 179 203 265C203 353 234 391 287 391C311 391 333 384 352 372V166C335 153 310 141 284 141ZM366 49 392 0H538V724H352V513C316 532 283 541 241 541C116 541 26 447 26 266C26 82 113 -10 224 -10C288 -10 329 16 366 49ZM691 724H578V686C578 639 574 602 562 564L614 538C664 581 691 626 691 694Z" glyph-name="dcaron" horiz-adv-x="586" unicode="&#271;" /><glyph d="M284 141C234 141 203 177 203 260C203 344 234 380 287 380C311 380 333 373 352 360V166C335 153 310 141 284 141ZM366 49 392 0H538V572H577V674H538V724H352V674H236V572H352V502C316 520 283 529 241 529C116 529 26 437 26 260C26 80 113 -10 224 -10C288 -10 329 16 366 49Z" glyph-name="dcroat" horiz-adv-x="586" unicode="&#273;" /><glyph d="M377 535C377 636 301 710 203 710C106 710 27 634 27 533C27 432 104 358 202 358C300 358 377 434 377 535ZM277 533C277 486 246 451 202 451C159 451 128 487 128 535C128 582 159 617 202 617C246 617 277 581 277 533Z" glyph-name="degree" horiz-adv-x="405" unicode="&#176;" /><glyph d="M224 578V705H90V578ZM410 578V705H276V578Z" glyph-name="dieresis" horiz-adv-x="500" unicode="&#168;" /><glyph d="M-26 737V859H-167V737ZM167 737V859H26V737Z" glyph-name="dieresis.cap" horiz-adv-x="0" /><glyph d="M358 480V617H206V480ZM517 286V423L282 421L48 423V286L282 288ZM358 92V229H206V92Z" glyph-name="divide" horiz-adv-x="564" unicode="&#247;" /><glyph d="M214 501C214 533 240 556 292 558L272 442C229 458 214 475 214 501ZM376 201C376 168 349 145 294 142L315 262C361 247 376 228 376 201ZM261 -110 281 -2C449 2 542 79 542 214C542 321 486 384 343 423L365 553C408 546 450 532 491 515L530 658C487 676 445 688 403 695L417 776H318L305 702C141 699 48 621 48 489C48 383 103 319 243 281L220 147C166 155 113 174 60 199L21 52C70 30 126 13 183 5L162 -110Z" glyph-name="dollar" horiz-adv-x="565" unicode="$" /><glyph d="M208 500C208 534 235 556 288 558L268 442C223 457 208 476 208 500ZM373 202C373 167 346 145 289 142L310 263C358 248 373 229 373 202ZM257 -110 277 -2C446 1 538 80 538 216C538 318 483 385 338 424L361 552C404 545 447 532 487 515L526 658C485 675 442 687 399 694L413 776H314L301 702C136 702 43 621 43 486C43 387 98 319 239 281L216 147C162 156 107 175 55 199L16 52C66 30 121 14 179 5L158 -110Z" glyph-name="dollar.tab" horiz-adv-x="564" /><glyph d="M213 250C213 326 244 359 297 359C321 359 343 352 362 340V168C345 154 320 142 294 142C244 142 213 175 213 250ZM376 50 402 0H548V555H607V643H548V700H362V643H246V555H362V481C326 500 293 509 251 509C126 509 36 421 36 250C36 77 123 -8 234 -8C298 -8 339 17 376 50ZM548 -131V-44H84V-131Z" glyph-name="dong" horiz-adv-x="629" unicode="&#8363;" /><glyph d="M320 578V705H180V578Z" glyph-name="dotaccent" horiz-adv-x="500" unicode="&#729;" /><glyph d="M74 737V859H-74V737Z" glyph-name="dotaccent.cap" horiz-adv-x="0" /><glyph d="M235 0V532H49V0Z" glyph-name="dotlessi" horiz-adv-x="283" unicode="&#305;" /><glyph d="M296 -10C365 -10 441 7 501 40L461 159C414 136 357 123 313 123C241 123 204 151 197 205H519V255C519 441 424 544 274 544C133 544 24 443 24 263C24 70 133 -10 296 -10ZM197 312C202 374 228 408 273 408C318 408 343 374 348 312Z" glyph-name="e" horiz-adv-x="542" unicode="e" /><glyph d="M296 -10C365 -10 441 7 501 40L461 159C414 136 357 123 313 123C241 123 204 151 197 205H519V255C519 441 424 544 274 544C133 544 24 443 24 263C24 70 133 -10 296 -10ZM197 312C202 374 228 408 273 408C318 408 343 374 348 312ZM317 581 483 696H272L199 581Z" glyph-name="eacute" horiz-adv-x="542" unicode="&#233;" /><glyph d="M296 -10C365 -10 441 7 501 40L461 159C414 136 357 123 313 123C241 123 204 151 197 205H519V255C519 441 424 544 274 544C133 544 24 443 24 263C24 70 133 -10 296 -10ZM197 312C202 374 228 408 273 408C318 408 343 374 348 312ZM277 671C237 671 215 689 207 712H121C127 636 177 576 275 576C373 576 425 636 431 712H345C337 689 317 671 277 671Z" glyph-name="ebreve" horiz-adv-x="542" unicode="&#277;" /><glyph d="M296 -10C365 -10 441 7 501 40L461 159C414 136 357 123 313 123C241 123 204 151 197 205H519V255C519 441 424 544 274 544C133 544 24 443 24 263C24 70 133 -10 296 -10ZM197 312C202 374 228 408 273 408C318 408 343 374 348 312ZM277 658 219 702H111L211 581H341L441 702H335Z" glyph-name="ecaron" horiz-adv-x="542" unicode="&#283;" /><glyph d="M296 -10C365 -10 441 7 501 40L461 159C414 136 357 123 313 123C241 123 204 151 197 205H519V255C519 441 424 544 274 544C133 544 24 443 24 263C24 70 133 -10 296 -10ZM197 312C202 374 228 408 273 408C318 408 343 374 348 312ZM275 625 333 581H441L341 702H211L111 581H217Z" glyph-name="ecircumflex" horiz-adv-x="542" unicode="&#234;" /><glyph d="M296 -10C365 -10 441 7 501 40L461 159C414 136 357 123 313 123C241 123 204 151 197 205H519V255C519 441 424 544 274 544C133 544 24 443 24 263C24 70 133 -10 296 -10ZM197 312C202 374 228 408 273 408C318 408 343 374 348 312ZM250 581V708H116V581ZM436 581V708H302V581Z" glyph-name="edieresis" horiz-adv-x="542" unicode="&#235;" /><glyph d="M296 -10C365 -10 441 7 501 40L461 159C414 136 357 123 313 123C241 123 204 151 197 205H519V255C519 441 424 544 274 544C133 544 24 443 24 263C24 70 133 -10 296 -10ZM197 312C202 374 228 408 273 408C318 408 343 374 348 312ZM346 581V708H206V581Z" glyph-name="edotaccent" horiz-adv-x="542" unicode="&#279;" /><glyph d="M296 -10C365 -10 441 7 501 40L461 159C414 136 357 123 313 123C241 123 204 151 197 205H519V255C519 441 424 544 274 544C133 544 24 443 24 263C24 70 133 -10 296 -10ZM197 312C202 374 228 408 273 408C318 408 343 374 348 312ZM235 581H353L280 696H69Z" glyph-name="egrave" horiz-adv-x="542" unicode="&#232;" /><glyph d="M297 -11C468 -11 567 74 567 191C567 274 528 330 449 361C515 393 551 441 551 519C551 622 466 711 297 711C130 711 43 622 43 519C43 441 80 393 146 361C68 330 28 274 28 191C28 74 126 -11 297 -11ZM297 421C249 421 218 450 218 500C218 544 250 572 297 572C345 572 377 544 377 500C377 450 345 421 297 421ZM297 301C352 301 388 269 388 214C388 160 350 129 297 129C244 129 207 160 207 214C207 269 243 301 297 301Z" glyph-name="eight" horiz-adv-x="595" unicode="8" /><glyph d="M209 -7C328 -7 394 46 394 117C394 165 368 198 313 217C360 237 384 267 384 311C384 373 325 428 209 428C94 428 34 373 34 311C34 267 57 237 104 217C49 198 23 165 23 117C23 46 88 -7 209 -7ZM209 257C177 257 158 272 158 298C158 322 176 337 209 337C241 337 260 322 260 298C260 272 240 257 209 257ZM209 85C174 85 151 102 151 130C151 160 172 176 209 176C245 176 266 160 266 130C266 102 244 85 209 85Z" glyph-name="eight.den" horiz-adv-x="417" /><glyph d="M209 271C328 271 394 324 394 395C394 443 368 476 313 495C360 515 384 545 384 589C384 651 325 706 209 706C94 706 34 651 34 589C34 545 57 515 104 495C49 476 23 443 23 395C23 324 88 271 209 271ZM209 535C177 535 158 550 158 576C158 600 176 615 209 615C241 615 260 600 260 576C260 550 240 535 209 535ZM209 363C174 363 151 380 151 408C151 438 172 454 209 454C245 454 266 438 266 408C266 380 244 363 209 363Z" glyph-name="eight.num" horiz-adv-x="417" /><glyph d="M282 -11C445 -11 539 74 539 191C539 274 504 330 425 361C490 393 523 441 523 519C523 622 442 711 282 711C123 711 41 622 41 519C41 441 74 393 139 361C61 330 26 274 26 191C26 74 118 -11 282 -11ZM350 500C350 450 323 421 282 421C241 421 214 450 214 500C214 544 241 572 282 572C323 572 350 544 350 500ZM361 214C361 160 329 129 282 129C236 129 204 160 204 214C204 269 234 301 282 301C330 301 361 269 361 214Z" glyph-name="eight.tab" horiz-adv-x="564" /><glyph d="M683 0V187H508V0ZM445 0V187H270V0ZM207 0V187H31V0Z" glyph-name="ellipsis" horiz-adv-x="714" unicode="&#8230;" /><glyph d="M296 -10C365 -10 441 7 501 40L461 159C414 136 357 123 313 123C241 123 204 151 197 205H519V255C519 441 424 544 274 544C133 544 24 443 24 263C24 70 133 -10 296 -10ZM197 312C202 374 228 408 273 408C318 408 343 374 348 312ZM424 585V670H128V585Z" glyph-name="emacron" horiz-adv-x="542" unicode="&#275;" /><glyph d="M752 226V379H31V226Z" glyph-name="emdash" horiz-adv-x="784" unicode="&#8212;" /><glyph d="M752 283V436H31V283Z" glyph-name="emdash.cap" horiz-adv-x="784" /><glyph d="M442 226V379H31V226Z" glyph-name="endash" horiz-adv-x="473" unicode="&#8211;" /><glyph d="M442 283V436H31V283Z" glyph-name="endash.cap" horiz-adv-x="473" /><glyph d="M418 -183C508 -108 541 -50 541 92V374C541 484 486 541 385 541C318 541 268 513 222 479L194 532H48V0H234V350C257 366 286 378 309 378C340 378 355 361 355 329V95C355 0 339 -37 288 -98Z" glyph-name="eng" horiz-adv-x="586" unicode="&#331;" /><glyph d="M492 -152 503 -79C450 -65 442 -60 442 -47C442 -37 449 -25 498 48L461 159C414 136 357 123 313 123C241 123 204 151 197 205H519V255C519 441 424 544 274 544C133 544 24 443 24 263C24 70 133 -8 297 -8C314 -8 333 -7 352 -4C300 -39 287 -57 287 -80C287 -124 342 -145 492 -152ZM348 312H197C202 374 228 408 273 408C318 408 343 374 348 312Z" glyph-name="eogonek" horiz-adv-x="542" unicode="&#281;" /><glyph d="M512 395V527H52V395ZM512 182V314H52V182Z" glyph-name="equal" horiz-adv-x="564" unicode="=" /><glyph d="M265 -12C426 -12 522 104 522 308C522 459 485 566 393 640L482 724H338L307 692C274 708 235 721 192 732L115 603C146 594 172 585 196 576L127 505H251L279 531C303 512 319 489 329 460C299 469 266 474 231 474C102 474 24 382 24 235C24 78 120 -12 265 -12ZM267 138C224 138 199 170 199 235C199 303 228 339 278 339C302 339 324 334 348 325V292C348 182 315 138 267 138Z" glyph-name="eth" horiz-adv-x="550" unicode="&#240;" /><glyph d="M200 229 248 558V700H45V558L93 229ZM240 0V172H53V0Z" glyph-name="exclam" horiz-adv-x="293" unicode="!" /><glyph d="M93 471 45 142V0H248V142L200 471ZM53 700V528H240V700Z" glyph-name="exclamdown" horiz-adv-x="293" unicode="&#161;" /><glyph d="M289 730C143 730 87 663 87 543V517H14V372H87V0H271V372H386V517H269V537C269 571 285 590 324 590C352 590 380 586 407 578L428 712C391 723 342 730 289 730Z" glyph-name="f" horiz-adv-x="402" unicode="f" /><glyph d="M289 730C143 730 87 663 87 543V517H14V372H87V0H271V372H386V517H269V537C269 571 285 590 324 590C348 590 373 587 396 581V720C364 726 327 730 289 730Z" glyph-name="f.lig" horiz-adv-x="402" /><glyph d="M289 730C143 730 87 663 87 543V517H14V372H87V0H271V372H386V517H269V537C269 571 285 590 324 590C352 590 380 586 407 578L428 712C391 723 342 730 289 730ZM693 730C547 730 491 663 491 543V517H418V372H491V0H675V372H790V517H673V537C673 571 689 590 728 590C756 590 784 586 811 578L832 712C795 723 746 730 693 730Z" glyph-name="f_f" horiz-adv-x="807" /><glyph d="M289 730C143 730 87 663 87 543V517H14V372H87V0H271V372H386V517H269V537C269 571 285 590 324 590C352 590 380 586 407 578L428 712C391 723 342 730 289 730ZM693 730C547 730 491 663 491 543V517H418V372H491V0H675V372H790V517H673V537C673 571 689 590 728 590C752 590 777 587 800 581V720C768 726 731 730 693 730ZM1045 591V718H852V591ZM1042 0V532H856V0Z" glyph-name="f_f_i" horiz-adv-x="1090" /><glyph d="M289 730C143 730 87 663 87 543V517H14V372H87V0H271V372H386V517H269V537C269 571 285 590 324 590C352 590 380 586 407 578L428 712C391 723 342 730 289 730ZM693 730C547 730 491 663 491 543V517H418V372H491V0H675V372H790V517H673V537C673 571 689 590 728 590C752 590 777 587 800 581V720C768 726 731 730 693 730ZM1042 0V724H856V0Z" glyph-name="f_f_l" horiz-adv-x="1090" /><glyph d="M289 730C143 730 87 663 87 543V517H14V372H87V0H271V372H386V517H269V537C269 571 285 590 324 590C348 590 373 587 396 581V720C364 726 327 730 289 730ZM640 591V718H447V591ZM637 0V532H451V0Z" glyph-name="fi" horiz-adv-x="686" unicode="&#64257;" /><glyph d="M535 270C535 389 461 457 349 457C300 457 255 445 213 428L221 542H525V700H66L44 316L171 262C219 289 257 303 292 303C325 303 344 287 344 257C344 205 283 165 37 146L60 -12C402 6 535 90 535 270Z" glyph-name="five" horiz-adv-x="565" unicode="5" /><glyph d="M371 163C371 232 322 274 243 274C212 274 181 267 153 254L158 319H364V422H49L35 190L123 155C150 170 179 179 203 179C224 179 237 170 237 155C237 128 197 105 30 95L46 -8C289 3 371 60 371 163Z" glyph-name="five.den" horiz-adv-x="396" /><glyph d="M371 441C371 510 322 552 243 552C212 552 181 545 153 532L158 597H364V700H49L35 468L123 433C150 448 179 457 203 457C224 457 237 448 237 433C237 406 197 383 30 373L46 270C289 281 371 338 371 441Z" glyph-name="five.num" horiz-adv-x="396" /><glyph d="M532 270C532 389 458 457 346 457C297 457 253 445 210 428L218 542H522V700H63L42 316L169 262C216 289 254 303 289 303C321 303 340 287 340 257C340 205 281 165 34 146L58 -12C400 6 532 90 532 270Z" glyph-name="five.tab" horiz-adv-x="564" /><glyph d="M289 730C143 730 87 663 87 543V517H14V372H87V0H271V372H386V517H269V537C269 571 285 590 324 590C348 590 373 587 396 581V720C364 726 327 730 289 730ZM637 0V724H451V0Z" glyph-name="fl" horiz-adv-x="686" unicode="&#64258;" /><glyph d="M507 0V119H582V269H507V703H254L16 272L38 119H321V0ZM325 266H178L325 536Z" glyph-name="four" horiz-adv-x="604" unicode="4" /><glyph d="M354 0V69H413V165H354V423H171L15 170L19 69H224V0ZM227 163H128L227 325Z" glyph-name="four.den" horiz-adv-x="427" /><glyph d="M354 278V347H413V443H354V701H171L15 448L19 347H224V278ZM227 441H128L227 603Z" glyph-name="four.num" horiz-adv-x="427" /><glyph d="M478 0V119H546V269H478V703H217L20 284L42 119H293V0ZM298 266H170L298 544Z" glyph-name="four.tab" horiz-adv-x="564" /><glyph d="M-204 0H-126L78 334L312 700H235L30 366Z" glyph-name="fraction" horiz-adv-x="109" unicode="&#8260;" /><glyph d="M203 277C203 356 234 391 287 391C311 391 333 384 352 372V180C335 171 311 163 288 163C234 163 203 196 203 277ZM26 276C26 101 110 21 235 21C283 21 324 35 353 53V35C353 -24 317 -48 248 -48C190 -48 140 -36 92 -16L52 -141C109 -165 184 -179 264 -179C425 -179 538 -121 538 61V532H392L369 488C335 516 294 541 233 541C111 541 26 443 26 276Z" glyph-name="g" horiz-adv-x="586" unicode="g" /><glyph d="M203 277C203 356 234 391 287 391C311 391 333 384 352 372V180C335 171 311 163 288 163C234 163 203 196 203 277ZM26 276C26 101 110 21 235 21C283 21 324 35 353 53V35C353 -24 317 -48 248 -48C190 -48 140 -36 92 -16L52 -141C109 -165 184 -179 264 -179C425 -179 538 -121 538 61V532H392L369 488C335 516 294 541 233 541C111 541 26 443 26 276ZM297 671C257 671 235 689 227 712H141C147 636 197 576 295 576C393 576 445 636 451 712H365C357 689 337 671 297 671Z" glyph-name="gbreve" horiz-adv-x="586" unicode="&#287;" /><glyph d="M203 277C203 356 234 391 287 391C311 391 333 384 352 372V180C335 171 311 163 288 163C234 163 203 196 203 277ZM26 276C26 101 110 21 235 21C283 21 324 35 353 53V35C353 -24 317 -48 248 -48C190 -48 140 -36 92 -16L52 -141C109 -165 184 -179 264 -179C425 -179 538 -121 538 61V532H392L369 488C335 516 294 541 233 541C111 541 26 443 26 276ZM297 658 239 702H131L231 581H361L461 702H355Z" glyph-name="gcaron" horiz-adv-x="586" unicode="&#487;" /><glyph d="M203 277C203 356 234 391 287 391C311 391 333 384 352 372V180C335 171 311 163 288 163C234 163 203 196 203 277ZM26 276C26 101 110 21 235 21C283 21 324 35 353 53V35C353 -24 317 -48 248 -48C190 -48 140 -36 92 -16L52 -141C109 -165 184 -179 264 -179C425 -179 538 -121 538 61V532H392L369 488C335 516 294 541 233 541C111 541 26 443 26 276ZM295 625 353 581H461L361 702H231L131 581H237Z" glyph-name="gcircumflex" horiz-adv-x="586" unicode="&#285;" /><glyph d="M203 277C203 356 234 391 287 391C311 391 333 384 352 372V180C335 171 311 163 288 163C234 163 203 196 203 277ZM26 276C26 101 110 21 235 21C283 21 324 35 353 53V35C353 -24 317 -48 248 -48C190 -48 140 -36 92 -16L52 -141C109 -165 184 -179 264 -179C425 -179 538 -121 538 61V532H392L369 488C335 516 294 541 233 541C111 541 26 443 26 276ZM366 581V708H226V581Z" glyph-name="gdotaccent" horiz-adv-x="586" unicode="&#289;" /><glyph d="M439 -8C555 -8 638 51 638 170C638 267 588 325 490 364C559 398 602 452 602 537C602 651 510 730 352 730C166 730 90 645 87 517H14V372H87V0H269V497C269 553 300 581 353 581C400 581 424 557 424 520C424 474 387 443 321 414V298C419 266 460 225 460 181C460 147 441 135 405 135C377 135 343 142 314 151V11C353 -1 396 -8 439 -8Z" glyph-name="germandbls" horiz-adv-x="659" unicode="&#223;" /><glyph d="M209 578H327L254 693H43Z" glyph-name="grave" horiz-adv-x="500" unicode="`" /><glyph d="M-60 737H85L5 838H-219Z" glyph-name="grave.cap" horiz-adv-x="0" /><glyph d="M56 622V465L355 354L56 243V87L515 285V424Z" glyph-name="greater" horiz-adv-x="564" unicode="&gt;" /><glyph d="M460 76 521 131 400 302 521 473 460 528 253 348V254ZM228 76 290 131 169 302 290 473 228 528 22 348V254Z" glyph-name="guillemotleft" horiz-adv-x="544" unicode="&#171;" /><glyph d="M460 133 521 188 400 359 521 530 460 585 253 405V311ZM228 133 290 188 169 359 290 530 228 585 22 405V311Z" glyph-name="guillemotleft.cap" horiz-adv-x="544" /><glyph d="M85 76 291 255V349L85 528L23 473L144 302L23 130ZM316 76 522 255V349L316 528L254 473L375 302L254 130Z" glyph-name="guillemotright" horiz-adv-x="544" unicode="&#187;" /><glyph d="M85 133 291 312V406L85 585L23 530L144 359L23 187ZM316 133 522 312V406L316 585L254 530L375 359L254 187Z" glyph-name="guillemotright.cap" horiz-adv-x="544" /><glyph d="M228 76 290 131 169 302 290 473 228 528 22 348V254Z" glyph-name="guilsinglleft" horiz-adv-x="313" unicode="&#8249;" /><glyph d="M228 133 290 188 169 359 290 530 228 585 22 405V311Z" glyph-name="guilsinglleft.cap" horiz-adv-x="313" /><glyph d="M85 76 291 255V349L85 528L23 473L144 302L23 130Z" glyph-name="guilsinglright" horiz-adv-x="313" unicode="&#8250;" /><glyph d="M85 133 291 312V406L85 585L23 530L144 359L23 187Z" glyph-name="guilsinglright.cap" horiz-adv-x="313" /><glyph d="M234 350C257 366 286 378 309 378C340 378 355 361 355 329V0H541V374C541 484 486 541 385 541C324 541 276 517 234 487V724H48V0H234Z" glyph-name="h" horiz-adv-x="586" unicode="h" /><glyph d="M234 338C257 354 286 366 309 366C340 366 355 350 355 317V0H541V363C541 473 486 529 385 529C324 529 276 506 234 476V572H350V674H234V724H48V674H9V572H48V0H234Z" glyph-name="hbar" horiz-adv-x="586" unicode="&#295;" /><glyph d="M234 350C257 366 286 378 309 378C340 378 355 361 355 329V0H541V374C541 484 486 541 385 541C324 541 276 517 234 487V724H48V0H234ZM140 806 198 762H306L206 883H76L-24 762H82Z" glyph-name="hcircumflex" horiz-adv-x="586" unicode="&#293;" /><glyph d="M197 578 347 693H185L101 578ZM375 578 524 693H362L279 578Z" glyph-name="hungarumlaut" horiz-adv-x="500" unicode="&#733;" /><glyph d="M-47 737 96 838H-67L-155 737ZM135 737 278 838H116L27 737Z" glyph-name="hungarumlaut.cap" horiz-adv-x="0" /><glyph d="M304 224V381H31V224Z" glyph-name="hyphen" horiz-adv-x="335" unicode="-" /><glyph d="M304 281V438H31V281Z" glyph-name="hyphen.cap" horiz-adv-x="335" /><glyph d="M238 591V718H45V591ZM235 0V532H49V0Z" glyph-name="i" horiz-adv-x="283" unicode="i" /><glyph d="M235 0V532H49V0ZM211 578V705H71V578Z" glyph-name="i.dot" horiz-adv-x="283" /><glyph d="M235 0V532H49V0ZM182 578 348 693H137L64 578Z" glyph-name="iacute" horiz-adv-x="283" unicode="&#237;" /><glyph d="M235 0V532H49V0ZM142 668C102 668 80 686 72 709H-14C-8 633 42 573 140 573C238 573 290 633 296 709H210C202 686 182 668 142 668Z" glyph-name="ibreve" horiz-adv-x="283" unicode="&#301;" /><glyph d="M235 0V532H49V0ZM140 622 198 578H306L206 699H76L-24 578H82Z" glyph-name="icircumflex" horiz-adv-x="283" unicode="&#238;" /><glyph d="M235 0V532H49V0ZM115 578V705H-19V578ZM301 578V705H167V578Z" glyph-name="idieresis" horiz-adv-x="283" unicode="&#239;" /><glyph d="M235 0V532H49V0ZM100 578H218L145 693H-66Z" glyph-name="igrave" horiz-adv-x="283" unicode="&#236;" /><glyph d="M235 0V532H49V0ZM274 582V667H8V582Z" glyph-name="imacron" horiz-adv-x="283" unicode="&#299;" /><glyph d="M238 591V718H45V591ZM246 -79C193 -65 185 -60 185 -47C185 -40 188 -33 209 0H235V532H49V0H101C44 -38 30 -56 30 -80C30 -124 85 -145 235 -152Z" glyph-name="iogonek" horiz-adv-x="283" unicode="&#303;" /><glyph d="M235 0V532H49V0ZM36 571C53 610 64 618 82 618C99 618 113 612 146 596C185 578 203 572 228 572C268 572 303 601 332 700L256 721C239 682 228 674 210 674C193 674 178 680 146 696C107 714 89 720 64 720C24 720 -12 691 -40 592Z" glyph-name="itilde" horiz-adv-x="283" unicode="&#297;" /><glyph d="M238 591V718H45V591ZM105 -183C200 -107 235 -55 235 94V532H49V97C49 0 33 -36 -25 -96Z" glyph-name="j" horiz-adv-x="283" unicode="j" /><glyph d="M105 -183C200 -107 235 -55 235 94V532H49V97C49 0 33 -36 -25 -96ZM141 622 199 578H307L207 699H77L-23 578H83Z" glyph-name="jcircumflex" horiz-adv-x="283" unicode="&#309;" /><glyph d="M363 0H578L404 277L573 532H361L234 318V724H48V0H234V237Z" glyph-name="k" horiz-adv-x="576" unicode="k" /><glyph d="M235 0V724H49V0Z" glyph-name="l" horiz-adv-x="283" unicode="l" /><glyph d="M235 0V724H49V0ZM183 761 349 876H138L65 761Z" glyph-name="lacute" horiz-adv-x="283" unicode="&#314;" /><glyph d="M235 0V724H49V0ZM388 724H275V686C275 639 271 602 259 564L311 538C361 581 388 626 388 694Z" glyph-name="lcaron" horiz-adv-x="283" unicode="&#318;" /><glyph d="M508 87V244L209 355L508 466V622L50 424V285Z" glyph-name="less" horiz-adv-x="564" unicode="&lt;" /><glyph d="M260 0V331L320 360V499L260 468V724H74V376L14 346V209L74 240V0Z" glyph-name="lslash" horiz-adv-x="334" unicode="&#322;" /><glyph d="M234 350C257 366 285 378 307 378C335 378 350 362 350 330V0H536V350C560 366 588 378 610 378C638 378 653 362 653 330V0H839V375C839 486 783 541 684 541C618 541 564 515 512 478C487 520 443 541 383 541C319 541 269 513 222 479L194 532H48V0H234Z" glyph-name="m" horiz-adv-x="884" unicode="m" /><glyph d="M398 582V667H102V582Z" glyph-name="macron" horiz-adv-x="500" unicode="&#175;" /><glyph d="M165 741V831H-165V741Z" glyph-name="macron.cap" horiz-adv-x="0" /><glyph d="M146 741V831H-146V741Z" glyph-name="macron.capnrw" horiz-adv-x="0" /><glyph d="M133 582V667H-133V582Z" glyph-name="macron.nrw" horiz-adv-x="0" /><glyph d="M135 284V444H-2V284Z" glyph-name="middotcat" horiz-adv-x="133" /><glyph d="M156 314V483H0V314Z" glyph-name="middotcat.cap" horiz-adv-x="205" /><glyph d="M517 280V429H48V280Z" glyph-name="minus" horiz-adv-x="564" unicode="&#8722;" /><glyph d="M418 117 520 219 382 355 520 492 419 592 282 454 147 592 44 490 183 355 45 218 145 117 282 255Z" glyph-name="multiply" horiz-adv-x="564" unicode="&#215;" /><glyph d="M234 350C257 366 286 378 309 378C340 378 355 361 355 329V0H541V374C541 484 486 541 385 541C318 541 268 513 222 479L194 532H48V0H234Z" glyph-name="n" horiz-adv-x="586" unicode="n" /><glyph d="M234 350C257 366 286 378 309 378C340 378 355 361 355 329V0H541V374C541 484 486 541 385 541C318 541 268 513 222 479L194 532H48V0H234ZM332 581 498 696H287L214 581Z" glyph-name="nacute" horiz-adv-x="586" unicode="&#324;" /><glyph d="M234 350C257 366 286 378 309 378C340 378 355 361 355 329V0H541V374C541 484 486 541 385 541C318 541 268 513 222 479L194 532H48V0H234ZM292 658 234 702H126L226 581H356L456 702H350Z" glyph-name="ncaron" horiz-adv-x="586" unicode="&#328;" /><glyph d="M282 712C124 712 23 614 23 461C23 325 101 247 214 247C265 247 308 260 355 281C326 225 257 179 124 128L206 -18C438 67 547 204 547 416C547 612 446 712 282 712ZM279 560C332 560 366 520 366 443C366 428 366 415 365 403C339 393 314 388 287 388C235 388 203 414 203 472C203 529 232 560 279 560Z" glyph-name="nine" horiz-adv-x="574" unicode="9" /><glyph d="M199 430C88 430 18 370 18 282C18 203 73 156 152 156C188 156 223 163 254 177C238 145 202 120 92 86L138 -10C306 37 386 126 386 250C386 362 318 430 199 430ZM198 331C237 331 260 309 260 264V249C240 244 221 241 203 241C164 241 144 257 144 286C144 315 163 331 198 331Z" glyph-name="nine.den" horiz-adv-x="409" /><glyph d="M199 708C88 708 18 648 18 560C18 481 73 434 152 434C188 434 223 441 254 455C238 423 202 398 92 364L138 268C306 315 386 404 386 528C386 640 318 708 199 708ZM198 609C237 609 260 587 260 542V527C240 522 221 519 203 519C164 519 144 535 144 564C144 593 163 609 198 609Z" glyph-name="nine.num" horiz-adv-x="409" /><glyph d="M275 712C125 712 25 615 25 462C25 326 102 247 209 247C257 247 298 258 341 278C312 223 248 176 122 126L203 -18C429 67 534 205 534 416C534 612 436 712 275 712ZM273 560C320 560 353 522 353 443C353 429 353 415 352 401C329 393 307 388 281 388C232 388 202 414 202 472C202 530 229 560 273 560Z" glyph-name="nine.tab" horiz-adv-x="564" /><glyph d="M512 187V309H315L358 400H512V522H422L468 619H350L303 522H52V400H250L206 309H52V187H143L96 90H215L261 187Z" glyph-name="notequal" horiz-adv-x="564" unicode="&#8800;" /><glyph d="M234 350C257 366 286 378 309 378C340 378 355 361 355 329V0H541V374C541 484 486 541 385 541C318 541 268 513 222 479L194 532H48V0H234ZM186 574C203 613 214 621 232 621C249 621 263 615 296 599C335 581 353 575 378 575C418 575 453 604 482 703L406 724C389 685 378 677 360 677C343 677 328 683 296 699C257 717 239 723 214 723C174 723 138 694 110 595Z" glyph-name="ntilde" horiz-adv-x="586" unicode="&#241;" /><glyph d="M360 276 250 282 272 421 382 415ZM316 -4H414L437 143L567 135V263L457 270L479 409L603 401V529L499 536L525 704H428L402 542L292 549L317 704H220L196 555L67 563V434L176 427L154 288L31 296V168L134 162L108 -4H205L230 156L340 149Z" glyph-name="numbersign" horiz-adv-x="634" unicode="#" /><glyph d="M538 267C538 445 428 544 282 544C135 544 24 444 24 265C24 87 135 -12 280 -12C427 -12 538 88 538 267ZM362 266C362 185 332 141 282 141C232 141 201 186 201 266C201 347 231 391 280 391C330 391 362 346 362 266Z" glyph-name="o" horiz-adv-x="562" unicode="o" /><glyph d="M538 267C538 445 428 544 282 544C135 544 24 444 24 265C24 87 135 -12 280 -12C427 -12 538 88 538 267ZM362 266C362 185 332 141 282 141C232 141 201 186 201 266C201 347 231 391 280 391C330 391 362 346 362 266ZM322 581 488 696H277L204 581Z" glyph-name="oacute" horiz-adv-x="562" unicode="&#243;" /><glyph d="M538 267C538 445 428 544 282 544C135 544 24 444 24 265C24 87 135 -12 280 -12C427 -12 538 88 538 267ZM362 266C362 185 332 141 282 141C232 141 201 186 201 266C201 347 231 391 280 391C330 391 362 346 362 266ZM282 671C242 671 220 689 212 712H126C132 636 182 576 280 576C378 576 430 636 436 712H350C342 689 322 671 282 671Z" glyph-name="obreve" horiz-adv-x="562" unicode="&#335;" /><glyph d="M538 267C538 445 428 544 282 544C135 544 24 444 24 265C24 87 135 -12 280 -12C427 -12 538 88 538 267ZM362 266C362 185 332 141 282 141C232 141 201 186 201 266C201 347 231 391 280 391C330 391 362 346 362 266ZM280 625 338 581H446L346 702H216L116 581H222Z" glyph-name="ocircumflex" horiz-adv-x="562" unicode="&#244;" /><glyph d="M538 267C538 445 428 544 282 544C135 544 24 444 24 265C24 87 135 -12 280 -12C427 -12 538 88 538 267ZM362 266C362 185 332 141 282 141C232 141 201 186 201 266C201 347 231 391 280 391C330 391 362 346 362 266ZM255 581V708H121V581ZM441 581V708H307V581Z" glyph-name="odieresis" horiz-adv-x="562" unicode="&#246;" /><glyph d="M539 312C545 374 571 408 616 408C661 408 686 374 691 312ZM362 266C362 185 332 141 282 141C232 141 201 186 201 266C201 347 231 391 280 391C330 391 362 346 362 266ZM642 -10C710 -10 783 7 844 40L804 159C756 136 700 123 656 123C584 123 547 151 539 205H862V255C862 441 767 544 622 544C552 544 493 519 452 471C410 520 349 544 278 544C133 544 24 444 24 265C24 87 133 -12 276 -12C347 -12 407 12 450 59C493 12 558 -10 642 -10Z" glyph-name="oe" horiz-adv-x="885" unicode="&#339;" /><glyph d="M354 -79C301 -65 293 -60 293 -47C293 -39 296 -32 324 10H224C155 -35 138 -54 138 -80C138 -124 193 -145 343 -152Z" glyph-name="ogonek" horiz-adv-x="500" unicode="&#731;" /><glyph d="M538 267C538 445 428 544 282 544C135 544 24 444 24 265C24 87 135 -12 280 -12C427 -12 538 88 538 267ZM362 266C362 185 332 141 282 141C232 141 201 186 201 266C201 347 231 391 280 391C330 391 362 346 362 266ZM240 581H358L285 696H74Z" glyph-name="ograve" horiz-adv-x="562" unicode="&#242;" /><glyph d="M280 -12C427 -12 538 88 538 266C538 356 507 424 453 469C516 489 551 535 551 603C551 630 545 655 535 679L414 648C419 634 421 622 421 608C421 562 387 538 327 538C313 538 297 539 282 539C135 539 24 440 24 264C24 87 135 -12 280 -12ZM362 265C362 185 332 141 282 141C232 141 201 186 201 265C201 346 231 390 280 390C330 390 362 345 362 265Z" glyph-name="ohorn" horiz-adv-x="562" unicode="&#417;" /><glyph d="M538 267C538 445 428 544 282 544C135 544 24 444 24 265C24 87 135 -12 280 -12C427 -12 538 88 538 267ZM362 266C362 185 332 141 282 141C232 141 201 186 201 266C201 347 231 391 280 391C330 391 362 346 362 266ZM228 581 378 696H216L132 581ZM406 581 555 696H393L310 581Z" glyph-name="ohungarumlaut" horiz-adv-x="562" unicode="&#337;" /><glyph d="M538 267C538 445 428 544 282 544C135 544 24 444 24 265C24 87 135 -12 280 -12C427 -12 538 88 538 267ZM362 266C362 185 332 141 282 141C232 141 201 186 201 266C201 347 231 391 280 391C330 391 362 346 362 266ZM429 585V670H133V585Z" glyph-name="omacron" horiz-adv-x="562" unicode="&#333;" /><glyph d="M368 0V703H234L13 624L52 462L174 499V0Z" glyph-name="one" horiz-adv-x="437" unicode="1" /><glyph d="M269 0V424H176L16 370L40 261L134 288V0Z" glyph-name="one.den" horiz-adv-x="321" /><glyph d="M269 278V702H176L16 648L40 539L134 566V278Z" glyph-name="one.num" horiz-adv-x="321" /><glyph d="M526 0V156H395V703H260L50 641L77 477L202 507V156H55V0Z" glyph-name="one.tab" horiz-adv-x="564" /><glyph d="M269 278V702H176L16 648L40 539L134 566V278ZM157 0H235L439 334L673 700H596L391 366ZM865 0V108H700L766 165C833 217 858 257 858 306C858 380 798 428 702 428C635 428 574 403 520 362L568 264C615 297 656 316 685 316C707 316 719 306 719 290C719 275 707 260 682 237L512 90L533 0Z" glyph-name="onehalf" horiz-adv-x="886" unicode="&#189;" /><glyph d="M269 278V702H176L16 648L40 539L134 566V278ZM157 0H235L439 334L673 700H596L391 366ZM807 0V69H866V165H807V423H624L468 170L472 69H677V0ZM680 163H581L680 325Z" glyph-name="onequarter" horiz-adv-x="880" unicode="&#188;" /><glyph d="M269 278V702H176L16 648L40 539L134 566V278ZM157 0H235L439 334L673 700H596L391 366ZM534 -5C788 3 874 52 874 135C874 186 843 214 765 226C840 250 868 282 868 331C868 389 819 427 720 427C655 427 590 414 535 392L562 297C609 315 658 326 693 326C718 326 728 319 728 308C728 292 707 276 597 248L608 169C714 169 732 160 732 141C732 120 701 106 534 97Z" glyph-name="onethird" horiz-adv-x="894" unicode="&#8531;" /><glyph d="M188 447C165 447 147 456 147 482C147 505 163 517 189 517C203 517 216 515 228 513V457C216 451 200 447 188 447ZM238 406 251 379H355L345 446V586C345 670 301 707 200 707C150 707 101 696 61 681L86 598C116 610 150 619 181 619C217 619 228 604 228 578V569C210 573 185 576 162 576C86 576 39 541 39 475C39 410 80 375 144 375C182 375 213 388 238 406ZM360 261V322H32V261Z" glyph-name="ordfeminine" horiz-adv-x="392" unicode="&#170;" /><glyph d="M198 708C105 708 34 645 34 540C34 435 104 373 196 373C289 373 360 436 360 541C360 646 290 708 198 708ZM197 466C165 466 145 493 145 541C145 588 165 614 197 614C229 614 249 587 249 540C249 492 229 466 197 466ZM355 261V322H39V261Z" glyph-name="ordmasculine" horiz-adv-x="394" unicode="&#186;" /><glyph d="M199 266C199 348 230 393 280 393C289 393 298 392 306 389L205 211C201 227 199 245 199 266ZM282 139C272 139 263 141 254 144L357 324C362 307 364 288 364 266C364 183 333 139 282 139ZM280 -12C427 -12 538 88 538 267C538 354 512 422 468 469L539 581H415L381 527C351 538 318 544 282 544C135 544 24 444 24 265C24 177 51 109 95 62L24 -49H147L181 5C211 -6 245 -12 280 -12Z" glyph-name="oslash" horiz-adv-x="562" unicode="&#248;" /><glyph d="M199 266C199 348 230 393 280 393C289 393 298 392 306 389L205 211C201 227 199 245 199 266ZM282 139C272 139 263 141 254 144L357 324C362 307 364 288 364 266C364 183 333 139 282 139ZM280 -12C427 -12 538 88 538 267C538 354 512 422 468 469L539 581H415L381 527C351 538 318 544 282 544C135 544 24 444 24 265C24 177 51 109 95 62L24 -49H147L181 5C211 -6 245 -12 280 -12ZM322 581 488 696H277L204 581Z" glyph-name="oslashacute" horiz-adv-x="562" unicode="&#511;" /><glyph d="M538 267C538 445 428 544 282 544C135 544 24 444 24 265C24 87 135 -12 280 -12C427 -12 538 88 538 267ZM362 266C362 185 332 141 282 141C232 141 201 186 201 266C201 347 231 391 280 391C330 391 362 346 362 266ZM176 574C193 613 204 621 222 621C239 621 253 615 286 599C325 581 343 575 368 575C408 575 443 604 472 703L396 724C379 685 368 677 350 677C333 677 318 683 286 699C247 717 229 723 204 723C164 723 128 694 100 595Z" glyph-name="otilde" horiz-adv-x="562" unicode="&#245;" /><glyph d="M299 141C275 141 253 148 234 160V366C251 379 276 391 302 391C352 391 382 353 382 266C382 179 351 141 299 141ZM234 18C270 0 303 -9 345 -9C470 -9 560 85 560 266C560 450 473 541 361 541C298 541 257 516 220 483L193 532H48V-173H234Z" glyph-name="p" horiz-adv-x="586" unicode="p" /><glyph d="M484 0V700H277C119 700 19 622 19 488C19 353 125 277 271 279V591H367V0Z" glyph-name="paragraph" horiz-adv-x="541" unicode="&#182;" /><glyph d="M373 -25C254 68 206 162 206 304C206 446 254 540 373 633L307 728C125 624 36 487 36 304C36 121 125 -16 307 -120Z" glyph-name="parenleft" horiz-adv-x="391" unicode="(" /><glyph d="M373 20C254 113 206 207 206 349C206 491 254 585 373 678L307 773C125 669 36 532 36 349C36 166 125 29 307 -75Z" glyph-name="parenleft.cap" horiz-adv-x="391" /><glyph d="M18 -25 84 -120C266 -16 355 121 355 304C355 487 266 624 84 728L18 633C137 540 186 446 186 304C186 162 137 68 18 -25Z" glyph-name="parenright" horiz-adv-x="391" unicode=")" /><glyph d="M18 20 84 -75C266 29 355 166 355 349C355 532 266 669 84 773L18 678C137 585 186 491 186 349C186 207 137 113 18 20Z" glyph-name="parenright.cap" horiz-adv-x="391" /><glyph d="M607 673 532 713 325 366 90 27 165 -13 372 336ZM334 527C334 641 263 708 178 708C91 708 21 641 21 527C21 412 91 346 178 346C263 346 334 412 334 527ZM227 527C227 466 208 440 178 440C148 440 128 466 128 527C128 587 148 614 178 614C208 614 227 587 227 527ZM677 173C677 288 606 354 521 354C434 354 364 288 364 173C364 59 434 -8 521 -8C606 -8 677 59 677 173ZM571 173C571 113 551 86 521 86C491 86 471 113 471 173C471 233 491 260 521 260C551 260 571 233 571 173Z" glyph-name="percent" horiz-adv-x="698" unicode="%" /><glyph d="M213 0V196H31V0Z" glyph-name="period" horiz-adv-x="245" unicode="." /><glyph d="M232 0V196H50V0Z" glyph-name="period.tab" horiz-adv-x="282" /><glyph d="M355 117V286H517V423H355V592H210V423H48V286H210V117Z" glyph-name="plus" horiz-adv-x="564" unicode="+" /><glyph d="M355 190V332H509V470H355V618H210V470H55V332H210V190ZM509 0V133H55V0Z" glyph-name="plusminus" horiz-adv-x="564" unicode="&#177;" /><glyph d="M538 -173V532H392L369 488C335 516 294 541 233 541C114 541 26 447 26 266C26 82 112 -9 227 -9C277 -9 319 9 352 36V-173ZM284 141C234 141 203 179 203 265C203 353 234 391 287 391C311 391 333 384 352 372V166C335 153 310 141 284 141Z" glyph-name="q" horiz-adv-x="586" unicode="q" /><glyph d="M511 523C511 640 428 710 287 710C187 710 96 681 15 635L77 485C149 523 216 544 265 544C306 544 323 529 323 504C323 470 285 443 151 401L180 229H287L304 304C440 344 511 413 511 523ZM327 0V172H140V0Z" glyph-name="question" horiz-adv-x="531" unicode="?" /><glyph d="M20 177C20 60 103 -10 244 -10C344 -10 435 19 516 65L454 215C382 177 315 156 266 156C225 156 208 171 208 196C208 230 246 257 380 299L351 471H244L227 396C91 356 20 287 20 177ZM204 700V528H391V700Z" glyph-name="questiondown" horiz-adv-x="531" unicode="&#191;" /><glyph d="M498 698V700H310L249 382L325 359ZM275 698V700H88L27 382L102 359Z" glyph-name="quotedbl" horiz-adv-x="512" unicode="&quot;" /><glyph d="M544 698V700H349L272 385L348 359ZM305 698V700H111L34 385L109 359Z" glyph-name="quotedbl.tab" horiz-adv-x="564" /><glyph d="M420 196H257C257 43 242 -22 197 -102L254 -145C366 -48 420 58 420 185ZM204 196H42C42 43 27 -22 -19 -102L39 -145C151 -48 204 58 204 185Z" glyph-name="quotedblbase" horiz-adv-x="448" unicode="&#8222;" /><glyph d="M18 390H180C180 543 195 608 241 688L183 731C71 634 18 528 18 401ZM233 390H396C396 543 410 608 456 688L399 731C286 634 233 528 233 401Z" glyph-name="quotedblleft" horiz-adv-x="465" unicode="&#8220;" /><glyph d="M447 724H284C284 572 269 506 224 426L281 383C394 480 447 586 447 714ZM232 724H69C69 572 54 506 9 426L66 383C178 480 232 586 232 714Z" glyph-name="quotedblright" horiz-adv-x="465" unicode="&#8221;" /><glyph d="M18 390H192C192 546 208 608 253 687L194 731C76 636 18 528 18 399Z" glyph-name="quoteleft" horiz-adv-x="262" unicode="&#8216;" /><glyph d="M244 724H69C69 569 54 506 9 427L68 383C186 479 244 586 244 716Z" glyph-name="quoteright" horiz-adv-x="262" unicode="&#8217;" /><glyph d="M217 196H42C42 40 26 -22 -19 -101L40 -145C159 -50 217 58 217 188Z" glyph-name="quotesinglbase" horiz-adv-x="245" unicode="&#8218;" /><glyph d="M288 698V700H89L27 382L102 359Z" glyph-name="quotesingle" horiz-adv-x="301" unicode="'" /><glyph d="M268 698V700H76L27 380L102 359Z" glyph-name="quotesingle.tab" horiz-adv-x="282" /><glyph d="M234 0V303C277 332 328 350 389 350V541C314 543 264 506 223 444L191 532H48V0Z" glyph-name="r" horiz-adv-x="409" unicode="r" /><glyph d="M234 0V303C277 332 328 350 389 350V541C314 543 264 506 223 444L191 532H48V0ZM259 578 425 693H214L141 578Z" glyph-name="racute" horiz-adv-x="409" unicode="&#341;" /><glyph d="M234 0V303C277 332 328 350 389 350V541C314 543 264 506 223 444L191 532H48V0ZM219 655 161 699H53L153 578H283L383 699H277Z" glyph-name="rcaron" horiz-adv-x="409" unicode="&#345;" /><glyph d="M185 709C94 709 25 638 25 540C25 441 94 370 185 370C276 370 345 441 345 540C345 638 276 709 185 709ZM185 391C104 391 47 453 47 540C47 627 104 689 185 689C266 689 323 627 323 540C323 453 266 391 185 391ZM166 552V591H183C203 591 210 584 210 572C210 559 201 552 182 552ZM166 510H167C179 510 182 507 189 497L215 454H282L253 499C243 515 236 521 223 526C247 533 270 547 270 580C270 613 244 635 185 635H108V454H166Z" glyph-name="registered" horiz-adv-x="370" unicode="&#174;" /><glyph d="M137 679C137 619 185 573 250 573C315 573 363 619 363 679C363 739 315 786 250 786C185 786 137 739 137 679ZM188 679C188 716 215 742 250 742C285 742 312 716 312 679C312 642 285 616 250 616C215 616 188 642 188 679Z" glyph-name="ring" horiz-adv-x="500" unicode="&#730;" /><glyph d="M-120 840C-120 777 -69 732 0 732C69 732 120 777 120 840C120 903 69 948 0 948C-69 948 -120 903 -120 840ZM-69 840C-69 879 -41 905 0 905C41 905 69 879 69 840C69 801 41 775 0 775C-41 775 -69 801 -69 840Z" glyph-name="ring.cap" horiz-adv-x="0" /><glyph d="M183 892H-14L-74 799H44ZM-113 674C-113 616 -65 573 0 573C65 573 113 616 113 674C113 732 65 775 0 775C-65 775 -113 732 -113 674ZM-62 674C-62 708 -35 732 0 732C35 732 62 708 62 674C62 640 35 616 0 616C-35 616 -62 640 -62 674Z" glyph-name="ringacute" horiz-adv-x="0" /><glyph d="M477 165C477 262 429 300 291 338C219 358 208 364 208 379C208 393 221 401 252 401C305 401 363 384 419 359L458 498C397 526 327 542 253 542C112 542 37 472 37 367C37 261 103 227 221 197C294 177 306 174 306 156C306 140 290 130 252 130C187 130 114 153 53 184L13 44C81 10 168 -10 255 -10C395 -10 477 48 477 165Z" glyph-name="s" horiz-adv-x="496" unicode="s" /><glyph d="M477 165C477 262 429 300 291 338C219 358 208 364 208 379C208 393 221 401 252 401C305 401 363 384 419 359L458 498C397 526 327 542 253 542C112 542 37 472 37 367C37 261 103 227 221 197C294 177 306 174 306 156C306 140 290 130 252 130C187 130 114 153 53 184L13 44C81 10 168 -10 255 -10C395 -10 477 48 477 165ZM300 581 466 696H255L182 581Z" glyph-name="sacute" horiz-adv-x="496" unicode="&#347;" /><glyph d="M477 165C477 262 429 300 291 338C219 358 208 364 208 379C208 393 221 401 252 401C305 401 363 384 419 359L458 498C397 526 327 542 253 542C112 542 37 472 37 367C37 261 103 227 221 197C294 177 306 174 306 156C306 140 290 130 252 130C187 130 114 153 53 184L13 44C81 10 168 -10 255 -10C395 -10 477 48 477 165ZM260 658 202 702H94L194 581H324L424 702H318Z" glyph-name="scaron" horiz-adv-x="496" unicode="&#353;" /><glyph d="M477 165C477 262 429 300 291 338C219 358 208 364 208 379C208 393 221 401 252 401C305 401 363 384 419 359L458 498C397 526 327 542 253 542C112 542 37 472 37 367C37 261 103 227 221 197C294 177 306 174 306 156C306 140 290 130 252 130C187 130 114 153 53 184L13 44C81 10 168 -10 255 -10C395 -10 477 48 477 165ZM258 625 316 581H424L324 702H194L94 581H200Z" glyph-name="scircumflex" horiz-adv-x="496" unicode="&#349;" /><glyph d="M279 314C195 345 187 353 187 373C187 387 195 399 215 413C236 404 260 395 287 386C372 356 380 347 380 328C380 314 371 301 351 287C330 296 306 305 279 314ZM284 -9C410 -9 479 58 479 142C479 172 472 196 457 216C513 252 542 290 542 351C542 424 498 463 353 512C260 545 254 551 254 563C254 573 263 580 287 580C329 580 392 564 454 542L488 672C425 695 363 709 283 709C156 709 88 642 88 559C88 529 95 505 110 484C54 448 25 411 25 349C25 277 69 238 214 188C306 156 312 150 312 138C312 128 304 121 280 121C238 121 175 136 112 159L79 29C141 6 204 -9 284 -9Z" glyph-name="section" horiz-adv-x="567" unicode="&#167;" /><glyph d="M222 336V532H40V336ZM222 196H44C44 40 30 -22 -14 -101L45 -145C164 -50 222 58 222 188Z" glyph-name="semicolon" horiz-adv-x="255" unicode=";" /><glyph d="M236 -16 518 516V700H31V530H317L48 40Z" glyph-name="seven" horiz-adv-x="545" unicode="7" /><glyph d="M168 -9 358 303V422H26V309H213L42 36Z" glyph-name="seven.den" horiz-adv-x="379" /><glyph d="M168 269 358 581V700H26V587H213L42 314Z" glyph-name="seven.num" horiz-adv-x="379" /><glyph d="M247 -15 531 516V700H38V530H329L60 41Z" glyph-name="seven.tab" horiz-adv-x="564" /><glyph d="M292 -12C450 -12 551 86 551 239C551 375 473 453 360 453C309 453 266 440 219 419C248 475 317 521 450 572L368 718C136 633 27 496 27 284C27 88 128 -12 292 -12ZM295 140C242 140 208 180 208 257C208 272 208 285 209 297C235 307 260 312 287 312C339 312 371 286 371 228C371 171 342 140 295 140Z" glyph-name="six" horiz-adv-x="574" unicode="6" /><glyph d="M210 -8C321 -8 391 52 391 140C391 219 336 266 257 266C221 266 186 259 155 245C171 277 207 302 317 336L271 432C103 385 23 296 23 172C23 60 91 -8 210 -8ZM211 91C172 91 149 113 149 158V173C169 178 188 181 206 181C245 181 265 165 265 136C265 107 246 91 211 91Z" glyph-name="six.den" horiz-adv-x="409" /><glyph d="M210 270C321 270 391 330 391 418C391 497 336 544 257 544C221 544 186 537 155 523C171 555 207 580 317 614L271 710C103 663 23 574 23 450C23 338 91 270 210 270ZM211 369C172 369 149 391 149 436V451C169 456 188 459 206 459C245 459 265 443 265 414C265 385 246 369 211 369Z" glyph-name="six.num" horiz-adv-x="409" /><glyph d="M289 -12C439 -12 539 85 539 238C539 374 462 453 355 453C307 453 266 442 223 422C252 477 316 524 442 574L361 718C135 633 30 495 30 284C30 88 128 -12 289 -12ZM291 140C244 140 211 178 211 257C211 271 211 285 212 299C235 307 257 312 283 312C332 312 362 286 362 228C362 170 335 140 291 140Z" glyph-name="six.tab" horiz-adv-x="564" /><glyph d="M419 795H289L-30 -130H101Z" glyph-name="slash" horiz-adv-x="402" unicode="/" /><glyph d="M424 811H294L-25 -114H106Z" glyph-name="slash.cap" horiz-adv-x="402" /><glyph d="M588 812H447L-25 -113H117Z" glyph-name="slash.tab" horiz-adv-x="564" /><glyph glyph-name="space" horiz-adv-x="169" unicode=" " /><glyph glyph-name="space.cap" horiz-adv-x="188" /><glyph d="M531 162H245C264 187 275 213 283 254L286 270H462V417H315L322 451C327 477 335 496 352 512C368 529 392 538 426 538C455 538 488 532 517 523L548 688C514 700 462 709 410 709C326 709 263 686 218 641C180 604 157 553 144 485L131 417H35V270H102C85 194 66 160 34 125L63 0H531Z" glyph-name="sterling" horiz-adv-x="575" unicode="&#163;" /><glyph d="M521 162H244C263 186 277 213 284 254L287 270H452V417H317L324 451C330 481 338 499 354 514C369 530 390 538 421 538C450 538 479 533 506 523L538 689C500 702 451 709 403 709C321 709 262 687 217 642C180 605 158 553 146 485L133 417H39V270H104C88 201 69 160 38 125L68 0H521Z" glyph-name="sterling.tab" horiz-adv-x="564" /><glyph d="M270 -8C319 -8 360 -1 391 9V155C369 147 347 143 324 143C288 143 266 158 266 197V388H391V532H266V668H82V532H14V388H82V171C82 39 147 -8 270 -8Z" glyph-name="t" horiz-adv-x="418" unicode="t" /><glyph d="M391 9V147C369 139 347 135 324 135C288 135 266 150 266 189V218H359V319H266V396H391V532H266V668H82V532H14V396H82V319H28V218H82V171C82 39 147 -8 270 -8C319 -8 360 -1 391 9Z" glyph-name="tbar" horiz-adv-x="418" unicode="&#359;" /><glyph d="M270 -8C319 -8 360 -1 391 9V155C369 147 347 143 324 143C288 143 266 158 266 197V388H391V532H266V668H82V532H14V388H82V171C82 39 147 -8 270 -8ZM423 746H310V708C310 661 306 624 294 586L346 560C396 603 423 648 423 716Z" glyph-name="tcaron" horiz-adv-x="418" unicode="&#357;" /><glyph d="M299 141C275 141 253 148 234 160V366C251 379 276 391 302 391C352 391 382 353 382 266C382 179 351 141 299 141ZM234 18C270 0 303 -9 345 -9C470 -9 560 85 560 266C560 450 474 541 359 541C308 541 266 522 234 495V724H48V-173H234Z" glyph-name="thorn" horiz-adv-x="586" unicode="&#254;" /><glyph d="M30 -7C336 4 525 62 525 222C525 309 483 356 365 376C467 414 518 463 518 551C518 651 441 710 303 710C196 710 112 687 28 652L72 505C145 536 221 554 265 554C299 554 319 543 319 518C319 481 280 458 120 408L137 288C290 287 325 269 325 234C325 186 266 162 30 149Z" glyph-name="three" horiz-adv-x="550" unicode="3" /><glyph d="M25 -5C279 3 365 52 365 135C365 186 334 214 256 226C331 250 359 282 359 331C359 389 310 427 211 427C146 427 81 414 26 392L53 297C100 315 149 326 184 326C209 326 219 319 219 308C219 292 198 276 88 248L99 169C205 169 223 160 223 141C223 120 192 106 25 97Z" glyph-name="three.den" horiz-adv-x="385" /><glyph d="M25 273C279 281 365 330 365 413C365 464 334 492 256 504C331 528 359 560 359 609C359 667 310 705 211 705C146 705 81 692 26 670L53 575C100 593 149 604 184 604C209 604 219 597 219 586C219 570 198 554 88 526L99 447C205 447 223 438 223 419C223 398 192 384 25 375Z" glyph-name="three.num" horiz-adv-x="385" /><glyph d="M30 652 73 505C148 536 225 554 270 554C305 554 325 543 325 518C325 481 286 458 123 408L140 288C296 287 331 269 331 234C331 186 271 162 32 149V-7C341 4 531 62 531 222C531 309 489 356 368 376C472 414 524 463 524 551C524 651 447 710 307 710C199 710 114 687 30 652Z" glyph-name="three.tab" horiz-adv-x="564" /><glyph d="M25 273C279 281 365 330 365 413C365 464 334 492 256 504C331 528 359 560 359 609C359 667 310 705 211 705C146 705 81 692 26 670L53 575C100 593 149 604 184 604C209 604 219 597 219 586C219 570 198 554 88 526L99 447C205 447 223 438 223 419C223 398 192 384 25 375ZM196 0H274L478 334L712 700H635L430 366ZM846 0V69H905V165H846V423H663L507 170L511 69H716V0ZM719 163H620L719 325Z" glyph-name="threequarters" horiz-adv-x="919" unicode="&#190;" /><glyph d="M145 571C162 610 173 618 191 618C208 618 222 612 255 596C294 578 312 572 337 572C377 572 412 601 441 700L365 721C348 682 337 674 319 674C302 674 287 680 255 696C216 714 198 720 173 720C133 720 97 691 69 592Z" glyph-name="tilde" horiz-adv-x="500" unicode="&#732;" /><glyph d="M-110 730C-94 767 -80 775 -61 775C-44 775 -28 769 5 754C46 736 65 731 91 731C133 731 172 757 202 853L120 876C104 838 90 830 71 830C54 830 38 837 5 851C-36 869 -55 875 -81 875C-123 875 -162 849 -192 753Z" glyph-name="tilde.cap" horiz-adv-x="0" /><glyph d="M159 465V639H230V700H19V639H90V465ZM361 465H425L464 600L471 465H538L525 700H432L394 566L356 700H263L251 465H315L322 602Z" glyph-name="trademark" horiz-adv-x="570" unicode="&#8482;" /><glyph d="M52 700V690L376 -12H394L718 690V700Z" glyph-name="triagdn" horiz-adv-x="771" unicode="&#9660;" /><glyph d="M59 700 271 -13H294L505 700Z" glyph-name="triagdn.tab" horiz-adv-x="564" /><glyph d="M718 0V10L394 712H376L52 10V0Z" glyph-name="triagup" horiz-adv-x="771" unicode="&#9650;" /><glyph d="M505 0 294 713H271L59 0Z" glyph-name="triagup.tab" horiz-adv-x="564" /><glyph d="M534 0V168H288L389 272C487 358 525 420 525 509C525 631 442 711 294 711C177 711 87 662 23 609L101 453C171 507 223 535 269 535C305 535 324 513 324 485C324 456 307 433 268 394L17 139L46 0Z" glyph-name="two" horiz-adv-x="562" unicode="2" /><glyph d="M369 0V108H204L270 165C337 217 362 257 362 306C362 380 302 428 206 428C139 428 78 403 24 362L72 264C119 297 160 316 189 316C211 316 223 306 223 290C223 275 211 260 186 237L16 90L37 0Z" glyph-name="two.den" horiz-adv-x="390" /><glyph d="M369 278V386H204L270 443C337 495 362 535 362 584C362 658 302 706 206 706C139 706 78 681 24 640L72 542C119 575 160 594 189 594C211 594 223 584 223 568C223 553 211 538 186 515L16 368L37 278Z" glyph-name="two.num" horiz-adv-x="390" /><glyph d="M29 609 107 453C175 507 225 535 270 535C304 535 323 515 323 485C323 458 306 434 269 395L24 139L52 0H532V168H294L392 272C485 356 523 422 523 508C523 632 440 711 294 711C180 711 93 662 29 609Z" glyph-name="two.tab" horiz-adv-x="564" /><glyph d="M369 278V386H204L270 443C337 495 362 535 362 584C362 658 302 706 206 706C139 706 78 681 24 640L72 542C119 575 160 594 189 594C211 594 223 584 223 568C223 553 211 538 186 515L16 368L37 278ZM245 0H323L527 334L761 700H684L479 366ZM622 -5C876 3 962 52 962 135C962 186 931 214 853 226C928 250 956 282 956 331C956 389 907 427 808 427C743 427 678 414 623 392L650 297C697 315 746 326 781 326C806 326 816 319 816 308C816 292 795 276 685 248L696 169C802 169 820 160 820 141C820 120 789 106 622 97Z" glyph-name="twothirds" horiz-adv-x="983" unicode="&#8532;" /><glyph d="M364 53 392 0H538V532H352V182C329 166 300 154 277 154C246 154 231 170 231 203V532H45V157C45 48 100 -9 201 -9C268 -9 318 19 364 53Z" glyph-name="u" horiz-adv-x="586" unicode="u" /><glyph d="M364 53 392 0H538V532H352V182C329 166 300 154 277 154C246 154 231 170 231 203V532H45V157C45 48 100 -9 201 -9C268 -9 318 19 364 53ZM332 575 498 690H287L214 575Z" glyph-name="uacute" horiz-adv-x="586" unicode="&#250;" /><glyph d="M364 53 392 0H538V532H352V182C329 166 300 154 277 154C246 154 231 170 231 203V532H45V157C45 48 100 -9 201 -9C268 -9 318 19 364 53ZM292 665C252 665 230 683 222 706H136C142 630 192 570 290 570C388 570 440 630 446 706H360C352 683 332 665 292 665Z" glyph-name="ubreve" horiz-adv-x="586" unicode="&#365;" /><glyph d="M364 53 392 0H538V532H352V182C329 166 300 154 277 154C246 154 231 170 231 203V532H45V157C45 48 100 -9 201 -9C268 -9 318 19 364 53ZM290 622 348 578H456L356 699H226L126 578H232Z" glyph-name="ucircumflex" horiz-adv-x="586" unicode="&#251;" /><glyph d="M364 53 392 0H538V532H352V182C329 166 300 154 277 154C246 154 231 170 231 203V532H45V157C45 48 100 -9 201 -9C268 -9 318 19 364 53ZM265 578V705H131V578ZM451 578V705H317V578Z" glyph-name="udieresis" horiz-adv-x="586" unicode="&#252;" /><glyph d="M364 53 392 0H538V532H352V182C329 166 300 154 277 154C246 154 231 170 231 203V532H45V157C45 48 100 -9 201 -9C268 -9 318 19 364 53ZM250 575H368L295 690H84Z" glyph-name="ugrave" horiz-adv-x="586" unicode="&#249;" /><glyph d="M364 53 392 0H538V470C599 497 630 543 630 603C630 630 624 655 614 679L493 648C498 634 501 622 501 608C501 559 459 532 376 532H352V182C329 166 300 154 277 154C246 154 231 170 231 203V532H45V157C45 48 100 -9 201 -9C268 -9 318 19 364 53Z" glyph-name="uhorn" horiz-adv-x="613" unicode="&#432;" /><glyph d="M364 53 392 0H538V532H352V182C329 166 300 154 277 154C246 154 231 170 231 203V532H45V157C45 48 100 -9 201 -9C268 -9 318 19 364 53ZM238 578 388 693H226L142 578ZM416 578 565 693H403L320 578Z" glyph-name="uhungarumlaut" horiz-adv-x="586" unicode="&#369;" /><glyph d="M364 53 392 0H538V532H352V182C329 166 300 154 277 154C246 154 231 170 231 203V532H45V157C45 48 100 -9 201 -9C268 -9 318 19 364 53ZM439 582V667H143V582Z" glyph-name="umacron" horiz-adv-x="586" unicode="&#363;" /><glyph d="M504 -108V-42H-2V-108Z" glyph-name="underscore" horiz-adv-x="502" unicode="_" /><glyph glyph-name="uni0000" horiz-adv-x="0" /><glyph d="M-154 903 -137 823C-95 833 -53 838 -13 838C23 838 32 833 32 826C32 817 19 810 -48 793L-29 729C98 760 145 790 145 841C145 887 99 919 -4 919C-56 919 -106 914 -154 903Z" glyph-name="uni00200309.cap" horiz-adv-x="0" /><glyph glyph-name="uni00A0" horiz-adv-x="169" unicode="&#160;" /><glyph d="M-42 727H74L11 829H-194ZM-26 578V701H-160V578ZM160 578V701H26V578Z" glyph-name="uni00A80300" horiz-adv-x="0" /><glyph d="M82 882 9 976H-213L-60 882ZM-26 737V856H-167V737ZM167 737V856H26V737Z" glyph-name="uni00A80300.cap" horiz-adv-x="0" /><glyph d="M42 727 194 829H-11L-74 727ZM-26 578V701H-160V578ZM160 578V701H26V578Z" glyph-name="uni00A80301" horiz-adv-x="0" /><glyph d="M60 882 213 976H-9L-82 882ZM-26 737V856H-167V737ZM167 737V856H26V737Z" glyph-name="uni00A80301.cap" horiz-adv-x="0" /><glyph d="M160 731V814H-160V731ZM-26 578V701H-160V578ZM160 578V701H26V578Z" glyph-name="uni00A80304" horiz-adv-x="0" /><glyph d="M167 886V974H-167V886ZM-26 737V856H-167V737ZM167 737V856H26V737Z" glyph-name="uni00A80304.cap" horiz-adv-x="0" /><glyph d="M65 727 167 835H61L1 802L-59 835H-167L-65 727ZM-26 578V701H-160V578ZM160 578V701H26V578Z" glyph-name="uni00A8030C" horiz-adv-x="0" /><glyph d="M80 882 178 984H59L1 951L-57 984H-178L-80 882ZM-26 737V856H-167V737ZM167 737V856H26V737Z" glyph-name="uni00A8030C.cap" horiz-adv-x="0" /><glyph d="M384 415V523H219L285 580C352 632 377 672 377 721C377 795 317 843 221 843C154 843 93 818 39 777L87 679C134 712 175 731 204 731C226 731 238 721 238 705C238 690 226 675 201 652L31 505L52 415Z" glyph-name="uni00B2" horiz-adv-x="420" unicode="&#178;" /><glyph d="M40 410C294 418 380 467 380 550C380 601 349 629 271 641C346 665 374 697 374 746C374 804 325 842 226 842C161 842 96 829 41 807L68 712C115 730 164 741 199 741C224 741 234 734 234 723C234 707 213 691 103 663L114 584C220 584 238 575 238 556C238 535 207 521 40 512Z" glyph-name="uni00B3" horiz-adv-x="415" unicode="&#179;" /><glyph d="M227 -66 216 17C233 0 254 -8 278 -8C314 -8 348 12 388 54L416 0H541V532H355V183C331 167 303 155 279 155C249 155 234 172 234 204V532H48V-173H227Z" glyph-name="uni00B5" horiz-adv-x="588" unicode="&#181;" /><glyph d="M227 204V400H45V204Z" glyph-name="uni00B7" horiz-adv-x="271" unicode="&#183;" /><glyph d="M227 261V457H45V261Z" glyph-name="uni00B7.cap" horiz-adv-x="271" /><glyph d="M232 259V455H50V259Z" glyph-name="uni00B7.tab" horiz-adv-x="282" /><glyph d="M284 415V839H191L31 785L55 676L149 703V415Z" glyph-name="uni00B9" horiz-adv-x="351" unicode="&#185;" /><glyph d="M636 54V420H336V269H449V162C432 156 410 153 385 153C283 153 231 209 231 345C231 473 284 536 389 536C462 536 518 516 569 494L619 661C549 692 475 710 386 710C186 710 29 597 29 350C29 111 153 -9 373 -9C472 -9 570 20 636 54ZM280 -66C299 -87 307 -101 307 -122C307 -146 295 -165 274 -185L332 -227C401 -200 444 -156 444 -103C444 -78 436 -57 420 -35Z" glyph-name="uni0122" horiz-adv-x="682" unicode="&#290;" /><glyph d="M203 277C203 356 234 391 287 391C311 391 333 384 352 372V180C335 171 311 163 288 163C234 163 203 196 203 277ZM26 276C26 101 110 21 235 21C283 21 324 35 353 53V35C353 -24 317 -48 248 -48C190 -48 140 -36 92 -16L52 -141C109 -165 184 -179 264 -179C425 -179 538 -121 538 61V532H392L369 488C335 516 294 541 233 541C111 541 26 443 26 276ZM381 605C362 626 354 640 354 661C354 685 366 704 387 724L329 766C260 739 217 695 217 642C217 617 225 596 241 574Z" glyph-name="uni0123" horiz-adv-x="586" unicode="&#291;" /><glyph d="M445 0H682L440 361L672 700H438L252 406V700H55V0H252V311ZM257 -56C276 -77 284 -91 284 -112C284 -136 272 -155 251 -175L309 -217C378 -190 421 -146 421 -93C421 -68 413 -47 397 -25Z" glyph-name="uni0136" horiz-adv-x="679" unicode="&#310;" /><glyph d="M363 0H578L404 277L573 532H361L234 318V724H48V0H234V237ZM210 -56C229 -77 237 -91 237 -112C237 -136 225 -155 204 -175L262 -217C331 -190 374 -146 374 -93C374 -68 366 -47 350 -25Z" glyph-name="uni0137" horiz-adv-x="576" unicode="&#311;" /><glyph d="M530 0V177H252V700H55V0ZM203 -59C222 -80 230 -94 230 -115C230 -139 218 -158 197 -178L255 -220C324 -193 367 -149 367 -96C367 -71 359 -50 343 -28Z" glyph-name="uni013B" horiz-adv-x="555" unicode="&#315;" /><glyph d="M235 0V724H49V0ZM56 -59C75 -80 83 -94 83 -115C83 -139 71 -158 50 -178L108 -220C177 -193 220 -149 220 -96C220 -71 212 -50 196 -28Z" glyph-name="uni013C" horiz-adv-x="283" unicode="&#316;" /><glyph d="M238 339 237 390 449 0H660V700H477V371L478 321L272 700H55V0H238ZM271 -56C290 -77 298 -91 298 -112C298 -136 286 -155 265 -175L323 -217C392 -190 435 -146 435 -93C435 -68 427 -47 411 -25Z" glyph-name="uni0145" horiz-adv-x="715" unicode="&#325;" /><glyph d="M234 350C257 366 286 378 309 378C340 378 355 361 355 329V0H541V374C541 484 486 541 385 541C318 541 268 513 222 479L194 532H48V0H234ZM209 -56C228 -77 236 -91 236 -112C236 -136 224 -155 203 -175L261 -217C330 -190 373 -146 373 -93C373 -68 365 -47 349 -25Z" glyph-name="uni0146" horiz-adv-x="586" unicode="&#326;" /><glyph d="M249 372V541H321C396 541 427 511 427 460C427 402 391 372 318 372ZM249 219H260C308 219 336 203 363 158L449 0H678L570 179C536 234 511 259 467 278C547 305 628 362 628 486C628 625 537 700 332 700H55V0H249ZM256 -56C275 -77 283 -91 283 -112C283 -136 271 -155 250 -175L308 -217C377 -190 420 -146 420 -93C420 -68 412 -47 396 -25Z" glyph-name="uni0156" horiz-adv-x="673" unicode="&#342;" /><glyph d="M234 0V303C277 332 328 350 389 350V541C314 543 264 506 223 444L191 532H48V0ZM56 -59C75 -80 83 -94 83 -115C83 -139 71 -158 50 -178L108 -220C177 -193 220 -149 220 -96C220 -71 212 -50 196 -28Z" glyph-name="uni0157" horiz-adv-x="409" unicode="&#343;" /><glyph d="M185 -174C372 -174 437 -138 437 -89C437 -52 404 -32 329 -34L361 -8C506 9 586 85 586 220C586 350 513 399 345 442C250 470 237 482 237 507C237 530 254 546 303 546C374 546 454 524 508 500L554 662C490 689 407 709 314 709C140 709 45 625 45 488C45 363 119 315 283 273C371 245 393 230 393 200C393 172 373 153 306 153C219 153 131 181 65 209L19 48C85 19 164 -3 252 -9L201 -59L227 -91C262 -80 285 -84 285 -96C285 -110 265 -118 180 -123Z" glyph-name="uni015E" horiz-adv-x="609" unicode="&#350;" /><glyph d="M121 -174C308 -174 373 -138 373 -89C373 -52 340 -32 265 -34L297 -8C411 3 477 60 477 165C477 262 429 300 291 338C219 358 208 364 208 379C208 393 221 401 252 401C305 401 363 384 419 359L458 498C397 526 327 542 253 542C112 542 37 472 37 367C37 261 103 227 221 197C294 177 306 174 306 156C306 140 290 130 252 130C187 130 114 153 53 184L13 44C64 18 126 1 191 -6L137 -59L163 -91C198 -80 221 -84 221 -96C221 -110 201 -118 116 -123Z" glyph-name="uni015F" horiz-adv-x="496" unicode="&#351;" /><glyph d="M449 -89C449 -52 416 -32 341 -34L383 0H420V524H620V700H21V524H222V0H274L213 -59L239 -91C274 -80 297 -84 297 -96C297 -110 277 -118 192 -123L197 -174C384 -174 449 -138 449 -89Z" glyph-name="uni0162" horiz-adv-x="642" unicode="&#354;" /><glyph d="M123 -174C310 -174 375 -138 375 -89C375 -52 342 -32 267 -34L300 -7C336 -5 367 1 391 9V155C369 147 347 143 324 143C288 143 266 158 266 197V388H391V532H266V668H82V532H14V388H82V171C82 67 122 16 199 -1L139 -59L165 -91C200 -80 223 -84 223 -96C223 -110 203 -118 118 -123Z" glyph-name="uni0163" horiz-adv-x="418" unicode="&#355;" /><glyph d="M336 -12C527 -12 649 124 649 357C649 595 521 712 323 712C227 712 153 691 82 659L137 510C187 533 241 548 300 548C378 548 429 516 446 428H29V349C29 120 151 -12 336 -12ZM338 150C276 150 238 187 225 279H449C437 187 398 150 338 150Z" glyph-name="uni018F" horiz-adv-x="678" unicode="&#399;" /><glyph d="M422 273H289L356 504ZM501 0H709L476 703H238L5 0H210L242 111H469ZM358 813 302 851H181L277 742H437L533 851H414Z" glyph-name="uni01CD" horiz-adv-x="714" unicode="&#461;" /><glyph d="M256 111C217 111 192 127 192 169C192 189 197 202 206 212C217 223 235 228 261 228C285 228 306 226 327 222V127C307 119 280 111 256 111ZM340 44 361 0H524L510 110V341C510 483 437 542 278 542C193 542 120 524 56 499L93 364C143 384 195 397 247 397C307 397 327 371 327 331V314C298 320 261 325 223 325C147 325 97 308 65 276C37 248 23 208 23 161C23 47 89 -9 185 -9C251 -9 296 11 340 44ZM280 658 222 702H114L214 581H344L444 702H338Z" glyph-name="uni01CE" horiz-adv-x="556" unicode="&#462;" /><glyph d="M255 0V700H57V0ZM157 808 101 846H-20L76 737H236L332 846H213Z" glyph-name="uni01CF" horiz-adv-x="312" unicode="&#463;" /><glyph d="M235 0V532H49V0ZM142 655 84 699H-24L76 578H206L306 699H200Z" glyph-name="uni01D0" horiz-adv-x="283" unicode="&#464;" /><glyph d="M687 351C687 579 555 712 359 712C160 712 29 578 29 349C29 122 160 -12 357 -12C554 -12 687 122 687 351ZM485 349C485 220 436 158 358 158C280 158 231 221 231 351C231 480 279 542 357 542C435 542 485 479 485 349ZM358 815 302 853H181L277 744H437L533 853H414Z" glyph-name="uni01D1" horiz-adv-x="716" unicode="&#465;" /><glyph d="M538 267C538 445 428 544 282 544C135 544 24 444 24 265C24 87 135 -12 280 -12C427 -12 538 88 538 267ZM362 266C362 185 332 141 282 141C232 141 201 186 201 266C201 347 231 391 280 391C330 391 362 346 362 266ZM282 658 224 702H116L216 581H346L446 702H340Z" glyph-name="uni01D2" horiz-adv-x="562" unicode="&#466;" /><glyph d="M649 280V700H454V269C454 184 409 157 350 157C292 157 246 184 246 269V700H48V277C48 68 172 -11 348 -11C523 -11 649 68 649 280ZM349 805 293 843H172L268 734H428L524 843H405Z" glyph-name="uni01D3" horiz-adv-x="697" unicode="&#467;" /><glyph d="M364 53 392 0H538V532H352V182C329 166 300 154 277 154C246 154 231 170 231 203V532H45V157C45 48 100 -9 201 -9C268 -9 318 19 364 53ZM292 652 234 696H126L226 575H356L456 696H350Z" glyph-name="uni01D4" horiz-adv-x="586" unicode="&#468;" /><glyph d="M649 280V700H454V269C454 184 409 157 350 157C292 157 246 184 246 269V700H48V277C48 68 172 -11 348 -11C523 -11 649 68 649 280ZM515 886V974H181V886ZM322 737V856H181V737ZM515 737V856H374V737Z" glyph-name="uni01D5" horiz-adv-x="697" unicode="&#469;" /><glyph d="M364 53 392 0H538V532H352V182C329 166 300 154 277 154C246 154 231 170 231 203V532H45V157C45 48 100 -9 201 -9C268 -9 318 19 364 53ZM451 731V814H131V731ZM265 578V701H131V578ZM451 578V701H317V578Z" glyph-name="uni01D6" horiz-adv-x="586" unicode="&#470;" /><glyph d="M649 280V700H454V269C454 184 409 157 350 157C292 157 246 184 246 269V700H48V277C48 68 172 -11 348 -11C523 -11 649 68 649 280ZM408 882 561 976H339L266 882ZM322 737V856H181V737ZM515 737V856H374V737Z" glyph-name="uni01D7" horiz-adv-x="697" unicode="&#471;" /><glyph d="M364 53 392 0H538V532H352V182C329 166 300 154 277 154C246 154 231 170 231 203V532H45V157C45 48 100 -9 201 -9C268 -9 318 19 364 53ZM333 727 485 829H280L217 727ZM265 578V701H131V578ZM451 578V701H317V578Z" glyph-name="uni01D8" horiz-adv-x="586" unicode="&#472;" /><glyph d="M649 280V700H454V269C454 184 409 157 350 157C292 157 246 184 246 269V700H48V277C48 68 172 -11 348 -11C523 -11 649 68 649 280ZM428 882 526 984H407L349 951L291 984H170L268 882ZM322 737V856H181V737ZM515 737V856H374V737Z" glyph-name="uni01D9" horiz-adv-x="697" unicode="&#473;" /><glyph d="M364 53 392 0H538V532H352V182C329 166 300 154 277 154C246 154 231 170 231 203V532H45V157C45 48 100 -9 201 -9C268 -9 318 19 364 53ZM356 727 458 835H352L292 802L232 835H124L226 727ZM265 578V701H131V578ZM451 578V701H317V578Z" glyph-name="uni01DA" horiz-adv-x="586" unicode="&#474;" /><glyph d="M649 280V700H454V269C454 184 409 157 350 157C292 157 246 184 246 269V700H48V277C48 68 172 -11 348 -11C523 -11 649 68 649 280ZM430 882 357 976H135L288 882ZM322 737V856H181V737ZM515 737V856H374V737Z" glyph-name="uni01DB" horiz-adv-x="697" unicode="&#475;" /><glyph d="M364 53 392 0H538V532H352V182C329 166 300 154 277 154C246 154 231 170 231 203V532H45V157C45 48 100 -9 201 -9C268 -9 318 19 364 53ZM249 727H365L302 829H97ZM265 578V701H131V578ZM451 578V701H317V578Z" glyph-name="uni01DC" horiz-adv-x="586" unicode="&#476;" /><glyph d="M460 -152 471 -79C418 -65 410 -60 410 -47C410 -40 412 -34 431 -5C587 25 687 152 687 351C687 579 555 712 359 712C160 712 29 578 29 349C29 140 140 10 312 -10C267 -41 255 -58 255 -80C255 -124 310 -145 460 -152ZM485 349C485 220 436 158 358 158C280 158 231 221 231 351C231 480 279 542 357 542C435 542 485 479 485 349Z" glyph-name="uni01EA" horiz-adv-x="716" unicode="&#490;" /><glyph d="M383 -152 394 -79C341 -65 333 -60 333 -47C333 -40 335 -34 356 -2C464 27 538 120 538 267C538 445 428 544 282 544C135 544 24 444 24 265C24 105 113 9 236 -9C190 -41 178 -58 178 -80C178 -124 233 -145 383 -152ZM362 266C362 185 332 141 282 141C232 141 201 186 201 266C201 347 231 391 280 391C330 391 362 346 362 266Z" glyph-name="uni01EB" horiz-adv-x="562" unicode="&#491;" /><glyph d="M105 -183C200 -107 235 -55 235 94V532H49V97C49 0 33 -36 -25 -96ZM143 655 85 699H-23L77 578H207L307 699H201Z" glyph-name="uni01F0" horiz-adv-x="283" unicode="&#496;" /><glyph d="M238 339 237 390 449 0H660V700H477V371L478 321L272 700H55V0H238ZM303 734H448L368 835H144Z" glyph-name="uni01F8" horiz-adv-x="715" unicode="&#504;" /><glyph d="M234 350C257 366 286 378 309 378C340 378 355 361 355 329V0H541V374C541 484 486 541 385 541C318 541 268 513 222 479L194 532H48V0H234ZM250 581H368L295 696H84Z" glyph-name="uni01F9" horiz-adv-x="586" unicode="&#505;" /><glyph d="M586 220C586 350 513 399 345 442C250 470 237 482 237 507C237 530 254 546 303 546C374 546 454 524 508 500L554 662C490 689 407 709 314 709C140 709 45 625 45 488C45 363 119 315 283 273C371 245 393 230 393 200C393 172 373 153 306 153C219 153 131 181 65 209L19 48C96 14 192 -11 298 -11C483 -11 586 67 586 220ZM227 -66C246 -87 254 -101 254 -122C254 -146 242 -165 221 -185L279 -227C348 -200 391 -156 391 -103C391 -78 383 -57 367 -35Z" glyph-name="uni0218" horiz-adv-x="609" unicode="&#536;" /><glyph d="M477 165C477 262 429 300 291 338C219 358 208 364 208 379C208 393 221 401 252 401C305 401 363 384 419 359L458 498C397 526 327 542 253 542C112 542 37 472 37 367C37 261 103 227 221 197C294 177 306 174 306 156C306 140 290 130 252 130C187 130 114 153 53 184L13 44C81 10 168 -10 255 -10C395 -10 477 48 477 165ZM167 -62C186 -83 194 -97 194 -118C194 -142 182 -161 161 -181L219 -223C288 -196 331 -152 331 -99C331 -74 323 -53 307 -31Z" glyph-name="uni0219" horiz-adv-x="496" unicode="&#537;" /><glyph d="M420 0V524H620V700H21V524H222V0ZM236 -59C255 -80 263 -94 263 -115C263 -139 251 -158 230 -178L288 -220C357 -193 400 -149 400 -96C400 -71 392 -50 376 -28Z" glyph-name="uni021A" horiz-adv-x="642" unicode="&#538;" /><glyph d="M270 -8C319 -8 360 -1 391 9V155C369 147 347 143 324 143C288 143 266 158 266 197V388H391V532H266V668H82V532H14V388H82V171C82 39 147 -8 270 -8ZM154 -62C173 -83 181 -97 181 -118C181 -142 169 -161 148 -181L206 -223C275 -196 318 -152 318 -99C318 -74 310 -53 294 -31Z" glyph-name="uni021B" horiz-adv-x="418" unicode="&#539;" /><glyph d="M422 273H289L356 504ZM501 0H709L476 703H238L5 0H210L242 111H469ZM431 742V864H283V742Z" glyph-name="uni0226" horiz-adv-x="714" unicode="&#550;" /><glyph d="M256 111C217 111 192 127 192 169C192 189 197 202 206 212C217 223 235 228 261 228C285 228 306 226 327 222V127C307 119 280 111 256 111ZM340 44 361 0H524L510 110V341C510 483 437 542 278 542C193 542 120 524 56 499L93 364C143 384 195 397 247 397C307 397 327 371 327 331V314C298 320 261 325 223 325C147 325 97 308 65 276C37 248 23 208 23 161C23 47 89 -9 185 -9C251 -9 296 11 340 44ZM349 581V708H209V581Z" glyph-name="uni0227" horiz-adv-x="556" unicode="&#551;" /><glyph d="M687 351C687 579 555 712 359 712C160 712 29 578 29 349C29 122 160 -12 357 -12C554 -12 687 122 687 351ZM485 349C485 220 436 158 358 158C280 158 231 221 231 351C231 480 279 542 357 542C435 542 485 479 485 349ZM431 744V866H283V744Z" glyph-name="uni022E" horiz-adv-x="716" unicode="&#558;" /><glyph d="M538 267C538 445 428 544 282 544C135 544 24 444 24 265C24 87 135 -12 280 -12C427 -12 538 88 538 267ZM362 266C362 185 332 141 282 141C232 141 201 186 201 266C201 347 231 391 280 391C330 391 362 346 362 266ZM351 581V708H211V581Z" glyph-name="uni022F" horiz-adv-x="562" unicode="&#559;" /><glyph d="M430 0V248L665 700H455L333 443L211 700H-2L233 248V0ZM496 741V831H166V741Z" glyph-name="uni0232" horiz-adv-x="663" unicode="&#562;" /><glyph d="M75 -180C303 -131 357 -81 419 109L549 532H362L282 205L199 532H9L172 17C136 -2 88 -19 34 -33ZM427 582V667H131V582Z" glyph-name="uni0233" horiz-adv-x="551" unicode="&#563;" /><glyph d="M105 -183C200 -107 235 -55 235 94V532H49V97C49 0 33 -36 -25 -96Z" glyph-name="uni0237" horiz-adv-x="283" unicode="&#567;" /><glyph d="M246 542C177 542 101 525 41 492L81 373C128 396 185 409 229 409C301 409 338 381 345 327H23V277C23 91 118 -12 268 -12C409 -12 518 89 518 269C518 462 409 542 246 542ZM345 220C340 158 314 124 269 124C224 124 199 158 194 220Z" glyph-name="uni0259" horiz-adv-x="542" unicode="&#601;" /><glyph d="M288 722V724H89L27 406L102 383Z" glyph-name="uni02B9" horiz-adv-x="301" unicode="&#697;" /><glyph d="M498 722V724H310L249 406L325 383ZM275 722V724H88L27 406L102 383Z" glyph-name="uni02BA" horiz-adv-x="512" unicode="&#698;" /><glyph d="M18 390H192C192 546 208 608 253 687L194 731C76 636 18 528 18 399Z" glyph-name="uni02BB" horiz-adv-x="262" unicode="&#699;" /><glyph d="M244 724H69C69 569 54 506 9 427L68 383C186 479 244 586 244 716Z" glyph-name="uni02BC" horiz-adv-x="262" unicode="&#700;" /><glyph d="M22 616V505C138 505 206 568 206 660C206 753 138 815 22 815V704C63 703 84 686 84 660C84 633 63 617 22 616Z" glyph-name="uni02BE" horiz-adv-x="217" unicode="&#702;" /><glyph d="M195 704V815C80 815 11 752 11 660C11 567 80 505 195 505V616C154 617 133 634 133 660C133 687 154 703 195 704Z" glyph-name="uni02BF" horiz-adv-x="217" unicode="&#703;" /><glyph d="M162 669H261L198 771H10ZM-1 615 59 578H167L65 691H-65L-167 578H-61Z" glyph-name="uni02C60300" horiz-adv-x="0" /><glyph d="M296 825 224 919H20L172 825ZM-1 772 57 737H178L80 842H-80L-178 737H-59Z" glyph-name="uni02C60300.cap" horiz-adv-x="0" /><glyph d="M220 669 372 771H184L121 669ZM-1 615 59 578H167L65 691H-65L-167 578H-61Z" glyph-name="uni02C60301" horiz-adv-x="0" /><glyph d="M257 825 409 919H205L133 825ZM-1 772 57 737H178L80 842H-80L-178 737H-59Z" glyph-name="uni02C60301.cap" horiz-adv-x="0" /><glyph d="M-90 710C-75 745 -67 754 -50 754C-36 754 -24 749 6 734C41 716 53 711 76 711C112 711 143 739 172 824L102 848C87 813 78 804 62 804C47 804 35 809 5 824C-30 842 -42 847 -65 847C-100 847 -132 820 -161 734ZM-1 615 59 578H168L65 690H-65L-168 578H-61Z" glyph-name="uni02C60303" horiz-adv-x="0" /><glyph d="M-95 863C-81 899 -72 906 -55 906C-40 906 -26 900 3 886C40 869 55 864 79 864C117 864 150 889 180 979L104 1002C90 967 81 959 64 959C48 959 34 965 5 979C-32 997 -47 1001 -70 1001C-108 1001 -141 976 -172 886ZM-1 770 58 737H179L80 840H-80L-179 737H-60Z" glyph-name="uni02C60303.cap" horiz-adv-x="0" /><glyph d="M66 808 81 736C108 743 138 747 163 747C188 747 195 743 195 734C195 725 182 717 133 701L153 644C251 673 284 704 284 750C284 793 246 823 175 823C135 823 101 818 66 808ZM-1 615 59 578H167L65 691H-65L-167 578H-61Z" glyph-name="uni02C60309" horiz-adv-x="0" /><glyph d="M65 960 78 887C109 894 142 899 175 899C205 899 214 895 214 887C214 879 203 873 146 859L160 800C266 824 305 856 305 902C305 946 265 975 183 975C141 975 103 971 65 960ZM-1 772 57 737H178L80 842H-80L-178 737H-59Z" glyph-name="uni02C60309.cap" horiz-adv-x="0" /><glyph d="M24 515H155V805H24Z" glyph-name="uni02C8" horiz-adv-x="179" unicode="&#712;" /><glyph d="M24 -105H155V185H24Z" glyph-name="uni02CC" horiz-adv-x="179" unicode="&#716;" /><glyph d="M398 -126V-41H102V-126Z" glyph-name="uni02CD" horiz-adv-x="500" unicode="&#717;" /><glyph d="M-41 719H75L12 821H-194ZM1 665C-38 665 -61 679 -70 697H-155C-149 627 -98 573 -1 573C96 573 149 627 155 697H70C61 679 40 665 1 665Z" glyph-name="uni02D80300" horiz-adv-x="0" /><glyph d="M83 880 10 974H-212L-60 880ZM1 823C-39 823 -64 837 -72 858H-167C-160 785 -103 732 -1 732C101 732 160 785 167 858H72C64 837 41 823 1 823Z" glyph-name="uni02D80300.cap" horiz-adv-x="0" /><glyph d="M41 719 194 821H-12L-75 719ZM1 665C-38 665 -61 679 -70 697H-155C-149 627 -98 573 -1 573C96 573 149 627 155 697H70C61 679 40 665 1 665Z" glyph-name="uni02D80301" horiz-adv-x="0" /><glyph d="M60 880 212 974H-10L-83 880ZM1 823C-39 823 -64 837 -72 858H-167C-160 785 -103 732 -1 732C101 732 160 785 167 858H72C64 837 41 823 1 823Z" glyph-name="uni02D80301.cap" horiz-adv-x="0" /><glyph d="M-92 719C-77 753 -68 762 -52 762C-37 762 -25 757 5 742C40 725 52 720 75 720C110 720 142 747 171 832L100 856C85 821 77 813 60 813C46 813 34 818 4 833C-31 850 -43 855 -66 855C-102 855 -133 828 -162 742ZM1 665C-38 665 -61 679 -70 697H-155C-149 627 -98 573 -1 573C96 573 149 627 155 697H70C61 679 40 665 1 665Z" glyph-name="uni02D80303" horiz-adv-x="0" /><glyph d="M-96 880C-82 915 -73 923 -56 923C-41 923 -27 917 2 903C39 885 54 881 77 881C115 881 149 906 179 996L102 1019C89 983 79 976 63 976C47 976 33 982 4 996C-33 1013 -48 1018 -71 1018C-109 1018 -143 993 -173 903ZM1 823C-39 823 -64 837 -72 858H-167C-160 785 -103 732 -1 732C101 732 160 785 167 858H72C64 837 41 823 1 823Z" glyph-name="uni02D80303.cap" horiz-adv-x="0" /><glyph d="M-124 861 -108 787C-76 795 -41 800 -11 800C17 800 25 796 25 788C25 779 12 772 -42 755L-22 697C87 727 127 757 127 804C127 847 85 877 0 877C-44 877 -83 872 -124 861ZM1 665C-38 665 -61 679 -70 697H-155C-149 627 -98 573 -1 573C96 573 149 627 155 697H70C61 679 40 665 1 665Z" glyph-name="uni02D80309" horiz-adv-x="0" /><glyph d="M-147 1023 -132 947C-90 956 -49 961 -10 961C26 961 35 957 35 950C35 942 22 936 -43 920L-25 860C100 889 146 920 146 966C146 1010 100 1038 -1 1038C-53 1038 -98 1033 -147 1023ZM1 823C-39 823 -64 837 -72 858H-167C-160 785 -103 732 -1 732C101 732 160 785 167 858H72C64 837 41 823 1 823Z" glyph-name="uni02D80309.cap" horiz-adv-x="0" /><glyph d="M-41 578H77L4 693H-207Z" glyph-name="uni0300" horiz-adv-x="0" unicode="&#768;" /><glyph d="M41 578 207 693H-4L-77 578Z" glyph-name="uni0301" horiz-adv-x="0" unicode="&#769;" /><glyph d="M-1 622 57 578H165L65 699H-65L-165 578H-59Z" glyph-name="uni0302" horiz-adv-x="0" unicode="&#770;" /><glyph d="M-105 571C-88 610 -77 618 -59 618C-42 618 -28 612 5 596C44 578 62 572 87 572C127 572 162 601 191 700L115 721C98 682 87 674 69 674C52 674 37 680 5 696C-34 714 -52 720 -77 720C-117 720 -153 691 -181 592Z" glyph-name="uni0303" horiz-adv-x="0" unicode="&#771;" /><glyph d="M148 582V667H-148V582Z" glyph-name="uni0304" horiz-adv-x="0" unicode="&#772;" /><glyph d="M1 668C-39 668 -61 686 -69 709H-155C-149 633 -99 573 -1 573C97 573 149 633 155 709H69C61 686 41 668 1 668Z" glyph-name="uni0306" horiz-adv-x="0" unicode="&#774;" /><glyph d="M70 578V705H-70V578Z" glyph-name="uni0307" horiz-adv-x="0" unicode="&#775;" /><glyph d="M-26 578V705H-160V578ZM160 578V705H26V578Z" glyph-name="uni0308" horiz-adv-x="0" unicode="&#776;" /><glyph d="M-142 749 -123 667C-87 677 -46 685 -12 685C19 685 28 680 28 672C28 662 16 654 -48 635L-26 570C93 604 136 636 136 688C136 736 89 769 -2 769C-50 769 -97 762 -142 749Z" glyph-name="uni0309" horiz-adv-x="0" unicode="&#777;" /><glyph d="M-113 679C-113 619 -65 573 0 573C65 573 113 619 113 679C113 739 65 786 0 786C-65 786 -113 739 -113 679ZM-62 679C-62 716 -35 742 0 742C35 742 62 716 62 679C62 642 35 616 0 616C-35 616 -62 642 -62 679Z" glyph-name="uni030A" horiz-adv-x="0" unicode="&#778;" /><glyph d="M-53 578 97 693H-65L-149 578ZM125 578 274 693H112L29 578Z" glyph-name="uni030B" horiz-adv-x="0" unicode="&#779;" /><glyph d="M1 655 -57 699H-165L-65 578H65L165 699H59Z" glyph-name="uni030C" horiz-adv-x="0" unicode="&#780;" /><glyph d="M85 602C66 623 58 637 58 658C58 682 70 701 91 721L33 763C-36 736 -79 692 -79 639C-79 614 -71 593 -55 571Z" glyph-name="uni0312" horiz-adv-x="0" unicode="&#786;" /><glyph d="M113 724H0V686C0 639 -4 602 -16 564L36 538C86 581 113 626 113 694Z" glyph-name="uni0315" horiz-adv-x="0" unicode="&#789;" /><glyph d="M70 -163V-36H-70V-163Z" glyph-name="uni0323" horiz-adv-x="0" unicode="&#803;" /><glyph d="M-26 -163V-36H-160V-163ZM160 -163V-36H26V-163Z" glyph-name="uni0324" horiz-adv-x="0" unicode="&#804;" /><glyph d="M-85 -59C-66 -80 -58 -94 -58 -115C-58 -139 -70 -158 -91 -178L-33 -220C36 -193 79 -149 79 -96C79 -71 71 -50 55 -28Z" glyph-name="uni0326" horiz-adv-x="0" unicode="&#806;" /><glyph d="M-124 -174C63 -174 128 -138 128 -89C128 -52 95 -32 20 -34L74 10H-37L-108 -59L-82 -91C-47 -80 -24 -84 -24 -96C-24 -110 -44 -118 -129 -123Z" glyph-name="uni0327" horiz-adv-x="0" unicode="&#807;" /><glyph d="M104 -79C51 -65 43 -60 43 -47C43 -39 46 -32 74 10H-26C-95 -35 -112 -54 -112 -80C-112 -124 -57 -145 93 -152Z" glyph-name="uni0328" horiz-adv-x="0" unicode="&#808;" /><glyph d="M-1 -114 57 -158H165L65 -37H-65L-165 -158H-59Z" glyph-name="uni032D" horiz-adv-x="0" unicode="&#813;" /><glyph d="M1 -78C-39 -78 -61 -60 -69 -37H-155C-149 -113 -99 -173 -1 -173C97 -173 149 -113 155 -37H69C61 -60 41 -78 1 -78Z" glyph-name="uni032E" horiz-adv-x="0" unicode="&#814;" /><glyph d="M148 -126V-41H-148V-126Z" glyph-name="uni0331" horiz-adv-x="0" unicode="&#817;" /><glyph d="M133 -126V-41H-133V-126Z" glyph-name="uni0331.nrw" horiz-adv-x="0" /><glyph d="M385 -110V1C561 8 651 80 651 202C651 296 595 341 507 362C580 384 633 428 633 520C633 627 558 695 385 700V776H286V700H55V0H286V-110ZM233 425V554H299V425ZM448 494C448 451 424 426 372 425V554C423 554 448 532 448 494ZM233 145V291H299V145ZM462 221C462 173 434 147 372 145V291C433 291 462 267 462 221Z" glyph-name="uni0E3F" horiz-adv-x="674" unicode="&#3647;" /><glyph d="M337 0C533 0 633 73 633 202C633 296 577 341 490 362C562 384 616 428 616 520C616 631 534 700 347 700H55V0ZM248 426V549H332C388 549 412 527 412 491C412 451 389 426 332 426ZM248 150V290H339C400 290 429 267 429 223C429 175 400 150 339 150ZM489 -126V-41H193V-126Z" glyph-name="uni1E06" horiz-adv-x="656" unicode="&#7686;" /><glyph d="M352 -10C471 -10 560 85 560 266C560 450 474 541 359 541C308 541 266 522 234 495V724H48V0H193L216 44C251 15 291 -10 352 -10ZM299 141C275 141 253 148 234 160V366C251 379 276 391 302 391C352 391 382 353 382 266C382 179 351 141 299 141ZM438 -129V-44H142V-129Z" glyph-name="uni1E07" horiz-adv-x="586" unicode="&#7687;" /><glyph d="M668 352C668 598 504 700 275 700H55V0H268C503 0 668 102 668 352ZM251 171V529H284C400 529 466 484 466 350C466 215 398 171 282 171ZM409 -163V-36H269V-163Z" glyph-name="uni1E0C" horiz-adv-x="697" unicode="&#7692;" /><glyph d="M284 141C234 141 203 179 203 265C203 353 234 391 287 391C311 391 333 384 352 372V166C335 153 310 141 284 141ZM366 49 392 0H538V724H352V513C316 532 283 541 241 541C116 541 26 447 26 266C26 82 113 -10 224 -10C288 -10 329 16 366 49ZM366 -166V-39H226V-166Z" glyph-name="uni1E0D" horiz-adv-x="586" unicode="&#7693;" /><glyph d="M668 352C668 598 504 700 275 700H55V0H268C503 0 668 102 668 352ZM251 171V529H284C400 529 466 484 466 350C466 215 398 171 282 171ZM487 -126V-41H191V-126Z" glyph-name="uni1E0E" horiz-adv-x="697" unicode="&#7694;" /><glyph d="M284 141C234 141 203 179 203 265C203 353 234 391 287 391C311 391 333 384 352 372V166C335 153 310 141 284 141ZM366 49 392 0H538V724H352V513C316 532 283 541 241 541C116 541 26 447 26 266C26 82 113 -10 224 -10C288 -10 329 16 366 49ZM444 -129V-44H148V-129Z" glyph-name="uni1E0F" horiz-adv-x="586" unicode="&#7695;" /><glyph d="M668 352C668 598 504 700 275 700H55V0H268C503 0 668 102 668 352ZM251 171V529H284C400 529 466 484 466 350C466 215 398 171 282 171ZM338 -114 396 -158H504L404 -37H274L174 -158H280Z" glyph-name="uni1E12" horiz-adv-x="697" unicode="&#7698;" /><glyph d="M284 141C234 141 203 179 203 265C203 353 234 391 287 391C311 391 333 384 352 372V166C335 153 310 141 284 141ZM366 49 392 0H538V724H352V513C316 532 283 541 241 541C116 541 26 447 26 266C26 82 113 -10 224 -10C288 -10 329 16 366 49ZM295 -117 353 -161H461L361 -40H231L131 -161H237Z" glyph-name="uni1E13" horiz-adv-x="586" unicode="&#7699;" /><glyph d="M636 54V420H336V269H449V162C432 156 410 153 385 153C283 153 231 209 231 345C231 473 284 536 389 536C462 536 518 516 569 494L619 661C549 692 475 710 386 710C186 710 29 597 29 350C29 111 153 -9 373 -9C472 -9 570 20 636 54ZM530 748V838H200V748Z" glyph-name="uni1E20" horiz-adv-x="682" unicode="&#7712;" /><glyph d="M203 277C203 356 234 391 287 391C311 391 333 384 352 372V180C335 171 311 163 288 163C234 163 203 196 203 277ZM26 276C26 101 110 21 235 21C283 21 324 35 353 53V35C353 -24 317 -48 248 -48C190 -48 140 -36 92 -16L52 -141C109 -165 184 -179 264 -179C425 -179 538 -121 538 61V532H392L369 488C335 516 294 541 233 541C111 541 26 443 26 276ZM444 585V670H148V585Z" glyph-name="uni1E21" horiz-adv-x="586" unicode="&#7713;" /><glyph d="M252 266H458V0H655V700H458V451H252V700H55V0H252ZM425 -160V-33H285V-160Z" glyph-name="uni1E24" horiz-adv-x="710" unicode="&#7716;" /><glyph d="M234 350C257 366 286 378 309 378C340 378 355 361 355 329V0H541V374C541 484 486 541 385 541C324 541 276 517 234 487V724H48V0H234ZM364 -160V-33H224V-160Z" glyph-name="uni1E25" horiz-adv-x="586" unicode="&#7717;" /><glyph d="M282 -89C282 -52 249 -32 174 -34L216 0H252V266H458V0H655V700H458V451H252V700H55V0H107L46 -59L72 -91C107 -80 130 -84 130 -96C130 -110 110 -118 25 -123L30 -174C217 -174 282 -138 282 -89Z" glyph-name="uni1E28" horiz-adv-x="710" unicode="&#7720;" /><glyph d="M269 -89C269 -52 236 -32 161 -34L203 0H234V350C257 366 286 378 309 378C340 378 355 361 355 329V0H541V374C541 484 486 541 385 541C324 541 276 517 234 487V724H48V0H94L33 -59L59 -91C94 -80 117 -84 117 -96C117 -110 97 -118 12 -123L17 -174C204 -174 269 -138 269 -89Z" glyph-name="uni1E29" horiz-adv-x="586" unicode="&#7721;" /><glyph d="M252 266H458V0H655V700H458V451H252V700H55V0H252ZM356 -78C316 -78 294 -60 286 -37H200C206 -113 256 -173 354 -173C452 -173 504 -113 510 -37H424C416 -60 396 -78 356 -78Z" glyph-name="uni1E2A" horiz-adv-x="710" unicode="&#7722;" /><glyph d="M234 350C257 366 286 378 309 378C340 378 355 361 355 329V0H541V374C541 484 486 541 385 541C324 541 276 517 234 487V724H48V0H234ZM295 -78C255 -78 233 -60 225 -37H139C145 -113 195 -173 293 -173C391 -173 443 -113 449 -37H363C355 -60 335 -78 295 -78Z" glyph-name="uni1E2B" horiz-adv-x="586" unicode="&#7723;" /><glyph d="M445 0H682L440 361L672 700H438L252 406V700H55V0H252V311ZM412 -160V-33H272V-160Z" glyph-name="uni1E32" horiz-adv-x="679" unicode="&#7730;" /><glyph d="M363 0H578L404 277L573 532H361L234 318V724H48V0H234V237ZM365 -160V-33H225V-160Z" glyph-name="uni1E33" horiz-adv-x="576" unicode="&#7731;" /><glyph d="M445 0H682L440 361L672 700H438L252 406V700H55V0H252V311ZM490 -126V-41H194V-126Z" glyph-name="uni1E34" horiz-adv-x="679" unicode="&#7732;" /><glyph d="M363 0H578L404 277L573 532H361L234 318V724H48V0H234V237ZM443 -126V-41H147V-126Z" glyph-name="uni1E35" horiz-adv-x="576" unicode="&#7733;" /><glyph d="M530 0V177H252V700H55V0ZM358 -163V-36H218V-163Z" glyph-name="uni1E36" horiz-adv-x="555" unicode="&#7734;" /><glyph d="M235 0V724H49V0ZM211 -163V-36H71V-163Z" glyph-name="uni1E37" horiz-adv-x="283" unicode="&#7735;" /><glyph d="M530 0V177H252V700H55V0ZM300 741V831H8V741ZM358 -163V-36H218V-163Z" glyph-name="uni1E38" horiz-adv-x="555" unicode="&#7736;" /><glyph d="M235 0V724H49V0ZM275 765V850H9V765ZM211 -163V-36H71V-163Z" glyph-name="uni1E39" horiz-adv-x="283" unicode="&#7737;" /><glyph d="M530 0V177H252V700H55V0ZM436 -126V-41H140V-126Z" glyph-name="uni1E3A" horiz-adv-x="555" unicode="&#7738;" /><glyph d="M235 0V724H49V0ZM274 -126V-41H8V-126Z" glyph-name="uni1E3B" horiz-adv-x="283" unicode="&#7739;" /><glyph d="M530 0V177H252V700H55V0ZM287 -114 345 -158H453L353 -37H223L123 -158H229Z" glyph-name="uni1E3C" horiz-adv-x="555" unicode="&#7740;" /><glyph d="M235 0V724H49V0ZM140 -114 198 -158H306L206 -37H76L-24 -158H82Z" glyph-name="uni1E3D" horiz-adv-x="283" unicode="&#7741;" /><glyph d="M363 0H554L675 454L696 0H889L852 700H566L460 284L355 700H76L38 0H221L243 456ZM522 734 681 835H457L377 734Z" glyph-name="uni1E3E" horiz-adv-x="927" unicode="&#7742;" /><glyph d="M234 350C257 366 285 378 307 378C335 378 350 362 350 330V0H536V350C560 366 588 378 610 378C638 378 653 362 653 330V0H839V375C839 486 783 541 684 541C618 541 564 515 512 478C487 520 443 541 383 541C319 541 269 513 222 479L194 532H48V0H234ZM485 581 651 696H440L367 581Z" glyph-name="uni1E3F" horiz-adv-x="884" unicode="&#7743;" /><glyph d="M363 0H554L675 454L696 0H889L852 700H566L460 284L355 700H76L38 0H221L243 456ZM536 734V856H388V734Z" glyph-name="uni1E40" horiz-adv-x="927" unicode="&#7744;" /><glyph d="M234 350C257 366 285 378 307 378C335 378 350 362 350 330V0H536V350C560 366 588 378 610 378C638 378 653 362 653 330V0H839V375C839 486 783 541 684 541C618 541 564 515 512 478C487 520 443 541 383 541C319 541 269 513 222 479L194 532H48V0H234ZM514 581V708H374V581Z" glyph-name="uni1E41" horiz-adv-x="884" unicode="&#7745;" /><glyph d="M363 0H554L675 454L696 0H889L852 700H566L460 284L355 700H76L38 0H221L243 456ZM528 -163V-36H388V-163Z" glyph-name="uni1E42" horiz-adv-x="927" unicode="&#7746;" /><glyph d="M234 350C257 366 285 378 307 378C335 378 350 362 350 330V0H536V350C560 366 588 378 610 378C638 378 653 362 653 330V0H839V375C839 486 783 541 684 541C618 541 564 515 512 478C487 520 443 541 383 541C319 541 269 513 222 479L194 532H48V0H234ZM514 -163V-36H374V-163Z" glyph-name="uni1E43" horiz-adv-x="884" unicode="&#7747;" /><glyph d="M238 339 237 390 449 0H660V700H477V371L478 321L272 700H55V0H238ZM437 734V856H289V734Z" glyph-name="uni1E44" horiz-adv-x="715" unicode="&#7748;" /><glyph d="M234 350C257 366 286 378 309 378C340 378 355 361 355 329V0H541V374C541 484 486 541 385 541C318 541 268 513 222 479L194 532H48V0H234ZM361 581V708H221V581Z" glyph-name="uni1E45" horiz-adv-x="586" unicode="&#7749;" /><glyph d="M238 339 237 390 449 0H660V700H477V371L478 321L272 700H55V0H238ZM426 -160V-33H286V-160Z" glyph-name="uni1E46" horiz-adv-x="715" unicode="&#7750;" /><glyph d="M234 350C257 366 286 378 309 378C340 378 355 361 355 329V0H541V374C541 484 486 541 385 541C318 541 268 513 222 479L194 532H48V0H234ZM364 -160V-33H224V-160Z" glyph-name="uni1E47" horiz-adv-x="586" unicode="&#7751;" /><glyph d="M238 339 237 390 449 0H660V700H477V371L478 321L272 700H55V0H238ZM504 -126V-41H208V-126Z" glyph-name="uni1E48" horiz-adv-x="715" unicode="&#7752;" /><glyph d="M234 350C257 366 286 378 309 378C340 378 355 361 355 329V0H541V374C541 484 486 541 385 541C318 541 268 513 222 479L194 532H48V0H234ZM442 -126V-41H146V-126Z" glyph-name="uni1E49" horiz-adv-x="586" unicode="&#7753;" /><glyph d="M238 339 237 390 449 0H660V700H477V371L478 321L272 700H55V0H238ZM355 -111 413 -155H521L421 -34H291L191 -155H297Z" glyph-name="uni1E4A" horiz-adv-x="715" unicode="&#7754;" /><glyph d="M234 350C257 366 286 378 309 378C340 378 355 361 355 329V0H541V374C541 484 486 541 385 541C318 541 268 513 222 479L194 532H48V0H234ZM293 -111 351 -155H459L359 -34H229L129 -155H235Z" glyph-name="uni1E4B" horiz-adv-x="586" unicode="&#7755;" /><glyph d="M249 372V541H321C396 541 427 511 427 460C427 402 391 372 318 372ZM249 219H260C308 219 336 203 363 158L449 0H678L570 179C536 234 511 259 467 278C547 305 628 362 628 486C628 625 537 700 332 700H55V0H249ZM405 737V859H257V737Z" glyph-name="uni1E58" horiz-adv-x="673" unicode="&#7768;" /><glyph d="M234 0V303C277 332 328 350 389 350V541C314 543 264 506 223 444L191 532H48V0ZM288 578V705H148V578Z" glyph-name="uni1E59" horiz-adv-x="409" unicode="&#7769;" /><glyph d="M249 372V541H321C396 541 427 511 427 460C427 402 391 372 318 372ZM249 219H260C308 219 336 203 363 158L449 0H678L570 179C536 234 511 259 467 278C547 305 628 362 628 486C628 625 537 700 332 700H55V0H249ZM411 -160V-33H271V-160Z" glyph-name="uni1E5A" horiz-adv-x="673" unicode="&#7770;" /><glyph d="M234 0V303C277 332 328 350 389 350V541C314 543 264 506 223 444L191 532H48V0ZM211 -163V-36H71V-163Z" glyph-name="uni1E5B" horiz-adv-x="409" unicode="&#7771;" /><glyph d="M249 372V541H321C396 541 427 511 427 460C427 402 391 372 318 372ZM249 219H260C308 219 336 203 363 158L449 0H678L570 179C536 234 511 259 467 278C547 305 628 362 628 486C628 625 537 700 332 700H55V0H249ZM496 741V831H166V741ZM411 -160V-33H271V-160Z" glyph-name="uni1E5C" horiz-adv-x="673" unicode="&#7772;" /><glyph d="M234 0V303C277 332 328 350 389 350V541C314 543 264 506 223 444L191 532H48V0ZM351 582V667H85V582ZM211 -163V-36H71V-163Z" glyph-name="uni1E5D" horiz-adv-x="409" unicode="&#7773;" /><glyph d="M249 372V541H321C396 541 427 511 427 460C427 402 391 372 318 372ZM249 219H260C308 219 336 203 363 158L449 0H678L570 179C536 234 511 259 467 278C547 305 628 362 628 486C628 625 537 700 332 700H55V0H249ZM489 -126V-41H193V-126Z" glyph-name="uni1E5E" horiz-adv-x="673" unicode="&#7774;" /><glyph d="M234 0V303C277 332 328 350 389 350V541C314 543 264 506 223 444L191 532H48V0ZM274 -126V-41H8V-126Z" glyph-name="uni1E5F" horiz-adv-x="409" unicode="&#7775;" /><glyph d="M586 220C586 350 513 399 345 442C250 470 237 482 237 507C237 530 254 546 303 546C374 546 454 524 508 500L554 662C490 689 407 709 314 709C140 709 45 625 45 488C45 363 119 315 283 273C371 245 393 230 393 200C393 172 373 153 306 153C219 153 131 181 65 209L19 48C96 14 192 -11 298 -11C483 -11 586 67 586 220ZM382 -170V-43H242V-170Z" glyph-name="uni1E62" horiz-adv-x="609" unicode="&#7778;" /><glyph d="M477 165C477 262 429 300 291 338C219 358 208 364 208 379C208 393 221 401 252 401C305 401 363 384 419 359L458 498C397 526 327 542 253 542C112 542 37 472 37 367C37 261 103 227 221 197C294 177 306 174 306 156C306 140 290 130 252 130C187 130 114 153 53 184L13 44C81 10 168 -10 255 -10C395 -10 477 48 477 165ZM322 -166V-39H182V-166Z" glyph-name="uni1E63" horiz-adv-x="496" unicode="&#7779;" /><glyph d="M420 0V524H620V700H21V524H222V0ZM391 -163V-36H251V-163Z" glyph-name="uni1E6C" horiz-adv-x="642" unicode="&#7788;" /><glyph d="M270 -8C319 -8 360 -1 391 9V155C369 147 347 143 324 143C288 143 266 158 266 197V388H391V532H266V668H82V532H14V388H82V171C82 39 147 -8 270 -8ZM309 -166V-39H169V-166Z" glyph-name="uni1E6D" horiz-adv-x="418" unicode="&#7789;" /><glyph d="M420 0V524H620V700H21V524H222V0ZM469 -126V-41H173V-126Z" glyph-name="uni1E6E" horiz-adv-x="642" unicode="&#7790;" /><glyph d="M270 -8C319 -8 360 -1 391 9V155C369 147 347 143 324 143C288 143 266 158 266 197V388H391V532H266V668H82V532H14V388H82V171C82 39 147 -8 270 -8ZM372 -129V-44H106V-129Z" glyph-name="uni1E6F" horiz-adv-x="418" unicode="&#7791;" /><glyph d="M420 0V524H620V700H21V524H222V0ZM320 -114 378 -158H486L386 -37H256L156 -158H262Z" glyph-name="uni1E70" horiz-adv-x="642" unicode="&#7792;" /><glyph d="M270 -8C319 -8 360 -1 391 9V155C369 147 347 143 324 143C288 143 266 158 266 197V388H391V532H266V668H82V532H14V388H82V171C82 39 147 -8 270 -8ZM238 -117 296 -161H404L304 -40H174L74 -161H180Z" glyph-name="uni1E71" horiz-adv-x="418" unicode="&#7793;" /><glyph d="M458 -3 692 700H481L351 247L220 700H5L239 -3ZM419 -168V-41H279V-168Z" glyph-name="uni1E7E" horiz-adv-x="697" unicode="&#7806;" /><glyph d="M378 -3 549 532H362L279 199L193 532H3L174 -3ZM346 -166V-39H206V-166Z" glyph-name="uni1E7F" horiz-adv-x="552" unicode="&#7807;" /><glyph d="M452 0H674L458 360L665 700H448L340 503L232 700H12L219 361L3 0H222L337 210ZM313 737V859H172V737ZM506 737V859H365V737Z" glyph-name="uni1E8C" horiz-adv-x="677" unicode="&#7820;" /><glyph d="M343 0H537L380 272L533 532H341L271 394L203 532H8L159 273L3 0H195L268 144ZM245 578V705H111V578ZM431 578V705H297V578Z" glyph-name="uni1E8D" horiz-adv-x="541" unicode="&#7821;" /><glyph d="M430 0V248L665 700H455L333 443L211 700H-2L233 248V0ZM405 734V856H257V734Z" glyph-name="uni1E8E" horiz-adv-x="663" unicode="&#7822;" /><glyph d="M75 -180C303 -131 357 -81 419 109L549 532H362L282 205L199 532H9L172 17C136 -2 88 -19 34 -33ZM349 575V702H209V575Z" glyph-name="uni1E8F" horiz-adv-x="551" unicode="&#7823;" /><glyph d="M592 0V167H277L592 535V700H47V533H345L30 165V0ZM316 775 372 737H493L397 846H237L141 737H260Z" glyph-name="uni1E90" horiz-adv-x="623" unicode="&#7824;" /><glyph d="M485 0V143H254L486 386V532H42V389H258L26 145V0ZM263 622 321 578H429L329 699H199L99 578H205Z" glyph-name="uni1E91" horiz-adv-x="514" unicode="&#7825;" /><glyph d="M592 0V167H277L592 535V700H47V533H345L30 165V0ZM390 -163V-36H250V-163Z" glyph-name="uni1E92" horiz-adv-x="623" unicode="&#7826;" /><glyph d="M485 0V143H254L486 386V532H42V389H258L26 145V0ZM331 -163V-36H191V-163Z" glyph-name="uni1E93" horiz-adv-x="514" unicode="&#7827;" /><glyph d="M592 0V167H277L592 535V700H47V533H345L30 165V0ZM468 -126V-41H172V-126Z" glyph-name="uni1E94" horiz-adv-x="623" unicode="&#7828;" /><glyph d="M485 0V143H254L486 386V532H42V389H258L26 145V0ZM409 -126V-41H113V-126Z" glyph-name="uni1E95" horiz-adv-x="514" unicode="&#7829;" /><glyph d="M234 350C257 366 286 378 309 378C340 378 355 361 355 329V0H541V374C541 484 486 541 385 541C324 541 276 517 234 487V724H48V0H234ZM442 -126V-41H146V-126Z" glyph-name="uni1E96" horiz-adv-x="586" unicode="&#7830;" /><glyph d="M447 -12C590 -12 676 68 676 171C676 259 626 326 523 370L669 566V584C589 667 484 711 356 711C167 711 48 609 48 424V0H242V425C242 504 287 545 361 545C386 545 410 540 433 530L309 372V285C442 249 479 221 479 192C479 168 458 153 410 153C373 153 335 160 298 169V6C346 -6 401 -12 447 -12Z" glyph-name="uni1E9E" horiz-adv-x="703" unicode="&#7838;" /><glyph d="M422 273H289L356 504ZM501 0H709L476 703H238L5 0H210L242 111H469ZM427 -160V-33H287V-160Z" glyph-name="uni1EA0" horiz-adv-x="714" unicode="&#7840;" /><glyph d="M256 111C217 111 192 127 192 169C192 189 197 202 206 212C217 223 235 228 261 228C285 228 306 226 327 222V127C307 119 280 111 256 111ZM340 44 361 0H524L510 110V341C510 483 437 542 278 542C193 542 120 524 56 499L93 364C143 384 195 397 247 397C307 397 327 371 327 331V314C298 320 261 325 223 325C147 325 97 308 65 276C37 248 23 208 23 161C23 47 89 -9 185 -9C251 -9 296 11 340 44ZM345 -166V-39H205V-166Z" glyph-name="uni1EA1" horiz-adv-x="556" unicode="&#7841;" /><glyph d="M422 273H289L356 504ZM501 0H709L476 703H238L5 0H210L242 111H469ZM203 908 220 828C262 838 304 843 344 843C380 843 389 838 389 831C389 822 376 815 309 798L328 734C455 765 502 795 502 846C502 892 456 924 353 924C301 924 251 919 203 908Z" glyph-name="uni1EA2" horiz-adv-x="714" unicode="&#7842;" /><glyph d="M256 111C217 111 192 127 192 169C192 189 197 202 206 212C217 223 235 228 261 228C285 228 306 226 327 222V127C307 119 280 111 256 111ZM340 44 361 0H524L510 110V341C510 483 437 542 278 542C193 542 120 524 56 499L93 364C143 384 195 397 247 397C307 397 327 371 327 331V314C298 320 261 325 223 325C147 325 97 308 65 276C37 248 23 208 23 161C23 47 89 -9 185 -9C251 -9 296 11 340 44ZM137 752 156 670C192 680 233 688 267 688C298 688 307 683 307 675C307 665 295 657 231 638L253 573C372 607 415 639 415 691C415 739 368 772 277 772C229 772 182 765 137 752Z" glyph-name="uni1EA3" horiz-adv-x="556" unicode="&#7843;" /><glyph d="M422 273H289L356 504ZM501 0H709L476 703H238L5 0H210L242 111H469ZM614 830 766 924H562L490 830ZM356 777 414 742H535L437 847H277L179 742H298Z" glyph-name="uni1EA4" horiz-adv-x="714" unicode="&#7844;" /><glyph d="M256 111C217 111 192 127 192 169C192 189 197 202 206 212C217 223 235 228 261 228C285 228 306 226 327 222V127C307 119 280 111 256 111ZM340 44 361 0H524L510 110V341C510 483 437 542 278 542C193 542 120 524 56 499L93 364C143 384 195 397 247 397C307 397 327 371 327 331V314C298 320 261 325 223 325C147 325 97 308 65 276C37 248 23 208 23 161C23 47 89 -9 185 -9C251 -9 296 11 340 44ZM499 672 651 774H463L400 672ZM278 618 338 581H446L344 694H214L112 581H218Z" glyph-name="uni1EA5" horiz-adv-x="556" unicode="&#7845;" /><glyph d="M422 273H289L356 504ZM501 0H709L476 703H238L5 0H210L242 111H469ZM653 830 581 924H377L529 830ZM356 777 414 742H535L437 847H277L179 742H298Z" glyph-name="uni1EA6" horiz-adv-x="714" unicode="&#7846;" /><glyph d="M256 111C217 111 192 127 192 169C192 189 197 202 206 212C217 223 235 228 261 228C285 228 306 226 327 222V127C307 119 280 111 256 111ZM340 44 361 0H524L510 110V341C510 483 437 542 278 542C193 542 120 524 56 499L93 364C143 384 195 397 247 397C307 397 327 371 327 331V314C298 320 261 325 223 325C147 325 97 308 65 276C37 248 23 208 23 161C23 47 89 -9 185 -9C251 -9 296 11 340 44ZM441 672H540L477 774H289ZM278 618 338 581H446L344 694H214L112 581H218Z" glyph-name="uni1EA7" horiz-adv-x="556" unicode="&#7847;" /><glyph d="M422 273H289L356 504ZM501 0H709L476 703H238L5 0H210L242 111H469ZM422 965 435 892C466 899 499 904 532 904C562 904 571 900 571 892C571 884 560 878 503 864L517 805C623 829 662 861 662 907C662 951 622 980 540 980C498 980 460 976 422 965ZM356 777 414 742H535L437 847H277L179 742H298Z" glyph-name="uni1EA8" horiz-adv-x="714" unicode="&#7848;" /><glyph d="M256 111C217 111 192 127 192 169C192 189 197 202 206 212C217 223 235 228 261 228C285 228 306 226 327 222V127C307 119 280 111 256 111ZM340 44 361 0H524L510 110V341C510 483 437 542 278 542C193 542 120 524 56 499L93 364C143 384 195 397 247 397C307 397 327 371 327 331V314C298 320 261 325 223 325C147 325 97 308 65 276C37 248 23 208 23 161C23 47 89 -9 185 -9C251 -9 296 11 340 44ZM345 811 360 739C387 746 417 750 442 750C467 750 474 746 474 737C474 728 461 720 412 704L432 647C530 676 563 707 563 753C563 796 525 826 454 826C414 826 380 821 345 811ZM278 618 338 581H446L344 694H214L112 581H218Z" glyph-name="uni1EA9" horiz-adv-x="556" unicode="&#7849;" /><glyph d="M422 273H289L356 504ZM501 0H709L476 703H238L5 0H210L242 111H469ZM262 868C276 904 285 911 302 911C317 911 331 905 360 891C397 874 412 869 436 869C474 869 507 894 537 984L461 1007C447 972 438 964 421 964C405 964 391 970 362 984C325 1002 310 1006 287 1006C249 1006 216 981 185 891ZM356 775 415 742H536L437 845H277L178 742H297Z" glyph-name="uni1EAA" horiz-adv-x="714" unicode="&#7850;" /><glyph d="M256 111C217 111 192 127 192 169C192 189 197 202 206 212C217 223 235 228 261 228C285 228 306 226 327 222V127C307 119 280 111 256 111ZM340 44 361 0H524L510 110V341C510 483 437 542 278 542C193 542 120 524 56 499L93 364C143 384 195 397 247 397C307 397 327 371 327 331V314C298 320 261 325 223 325C147 325 97 308 65 276C37 248 23 208 23 161C23 47 89 -9 185 -9C251 -9 296 11 340 44ZM189 713C204 748 212 757 229 757C243 757 255 752 285 737C320 719 332 714 355 714C391 714 422 742 451 827L381 851C366 816 357 807 341 807C326 807 314 812 284 827C249 845 237 850 214 850C179 850 147 823 118 737ZM278 618 338 581H447L344 693H214L111 581H218Z" glyph-name="uni1EAB" horiz-adv-x="556" unicode="&#7851;" /><glyph d="M422 273H289L356 504ZM501 0H709L476 703H238L5 0H210L242 111H469ZM356 780 412 742H533L437 851H277L181 742H300ZM427 -160V-33H287V-160Z" glyph-name="uni1EAC" horiz-adv-x="714" unicode="&#7852;" /><glyph d="M256 111C217 111 192 127 192 169C192 189 197 202 206 212C217 223 235 228 261 228C285 228 306 226 327 222V127C307 119 280 111 256 111ZM340 44 361 0H524L510 110V341C510 483 437 542 278 542C193 542 120 524 56 499L93 364C143 384 195 397 247 397C307 397 327 371 327 331V314C298 320 261 325 223 325C147 325 97 308 65 276C37 248 23 208 23 161C23 47 89 -9 185 -9C251 -9 296 11 340 44ZM278 625 336 581H444L344 702H214L114 581H220ZM345 -166V-39H205V-166Z" glyph-name="uni1EAD" horiz-adv-x="556" unicode="&#7853;" /><glyph d="M422 273H289L356 504ZM501 0H709L476 703H238L5 0H210L242 111H469ZM417 885 569 979H347L274 885ZM358 828C318 828 293 842 285 863H190C197 790 254 737 356 737C458 737 517 790 524 863H429C421 842 398 828 358 828Z" glyph-name="uni1EAE" horiz-adv-x="714" unicode="&#7854;" /><glyph d="M256 111C217 111 192 127 192 169C192 189 197 202 206 212C217 223 235 228 261 228C285 228 306 226 327 222V127C307 119 280 111 256 111ZM340 44 361 0H524L510 110V341C510 483 437 542 278 542C193 542 120 524 56 499L93 364C143 384 195 397 247 397C307 397 327 371 327 331V314C298 320 261 325 223 325C147 325 97 308 65 276C37 248 23 208 23 161C23 47 89 -9 185 -9C251 -9 296 11 340 44ZM320 722 473 824H267L204 722ZM280 668C241 668 218 682 209 700H124C130 630 181 576 278 576C375 576 428 630 434 700H349C340 682 319 668 280 668Z" glyph-name="uni1EAF" horiz-adv-x="556" unicode="&#7855;" /><glyph d="M422 273H289L356 504ZM501 0H709L476 703H238L5 0H210L242 111H469ZM440 885 367 979H145L297 885ZM358 828C318 828 293 842 285 863H190C197 790 254 737 356 737C458 737 517 790 524 863H429C421 842 398 828 358 828Z" glyph-name="uni1EB0" horiz-adv-x="714" unicode="&#7856;" /><glyph d="M256 111C217 111 192 127 192 169C192 189 197 202 206 212C217 223 235 228 261 228C285 228 306 226 327 222V127C307 119 280 111 256 111ZM340 44 361 0H524L510 110V341C510 483 437 542 278 542C193 542 120 524 56 499L93 364C143 384 195 397 247 397C307 397 327 371 327 331V314C298 320 261 325 223 325C147 325 97 308 65 276C37 248 23 208 23 161C23 47 89 -9 185 -9C251 -9 296 11 340 44ZM238 722H354L291 824H85ZM280 668C241 668 218 682 209 700H124C130 630 181 576 278 576C375 576 428 630 434 700H349C340 682 319 668 280 668Z" glyph-name="uni1EB1" horiz-adv-x="556" unicode="&#7857;" /><glyph d="M422 273H289L356 504ZM501 0H709L476 703H238L5 0H210L242 111H469ZM210 1028 225 952C267 961 308 966 347 966C383 966 392 962 392 955C392 947 379 941 314 925L332 865C457 894 503 925 503 971C503 1015 457 1043 356 1043C304 1043 259 1038 210 1028ZM358 828C318 828 293 842 285 863H190C197 790 254 737 356 737C458 737 517 790 524 863H429C421 842 398 828 358 828Z" glyph-name="uni1EB2" horiz-adv-x="714" unicode="&#7858;" /><glyph d="M256 111C217 111 192 127 192 169C192 189 197 202 206 212C217 223 235 228 261 228C285 228 306 226 327 222V127C307 119 280 111 256 111ZM340 44 361 0H524L510 110V341C510 483 437 542 278 542C193 542 120 524 56 499L93 364C143 384 195 397 247 397C307 397 327 371 327 331V314C298 320 261 325 223 325C147 325 97 308 65 276C37 248 23 208 23 161C23 47 89 -9 185 -9C251 -9 296 11 340 44ZM155 864 171 790C203 798 238 803 268 803C296 803 304 799 304 791C304 782 291 775 237 758L257 700C366 730 406 760 406 807C406 850 364 880 279 880C235 880 196 875 155 864ZM280 668C241 668 218 682 209 700H124C130 630 181 576 278 576C375 576 428 630 434 700H349C340 682 319 668 280 668Z" glyph-name="uni1EB3" horiz-adv-x="556" unicode="&#7859;" /><glyph d="M422 273H289L356 504ZM501 0H709L476 703H238L5 0H210L242 111H469ZM261 885C275 920 284 928 301 928C316 928 330 922 359 908C396 890 411 886 434 886C472 886 506 911 536 1001L459 1024C446 988 436 981 420 981C404 981 390 987 361 1001C324 1018 309 1023 286 1023C248 1023 214 998 184 908ZM358 828C318 828 293 842 285 863H190C197 790 254 737 356 737C458 737 517 790 524 863H429C421 842 398 828 358 828Z" glyph-name="uni1EB4" horiz-adv-x="714" unicode="&#7860;" /><glyph d="M256 111C217 111 192 127 192 169C192 189 197 202 206 212C217 223 235 228 261 228C285 228 306 226 327 222V127C307 119 280 111 256 111ZM340 44 361 0H524L510 110V341C510 483 437 542 278 542C193 542 120 524 56 499L93 364C143 384 195 397 247 397C307 397 327 371 327 331V314C298 320 261 325 223 325C147 325 97 308 65 276C37 248 23 208 23 161C23 47 89 -9 185 -9C251 -9 296 11 340 44ZM187 722C202 756 211 765 227 765C242 765 254 760 284 745C319 728 331 723 354 723C389 723 421 750 450 835L379 859C364 824 356 816 339 816C325 816 313 821 283 836C248 853 236 858 213 858C177 858 146 831 117 745ZM280 668C241 668 218 682 209 700H124C130 630 181 576 278 576C375 576 428 630 434 700H349C340 682 319 668 280 668Z" glyph-name="uni1EB5" horiz-adv-x="556" unicode="&#7861;" /><glyph d="M422 273H289L356 504ZM501 0H709L476 703H238L5 0H210L242 111H469ZM358 830C319 830 294 847 286 869H191C198 794 252 737 356 737C460 737 516 794 523 869H428C420 847 397 830 358 830ZM427 -160V-33H287V-160Z" glyph-name="uni1EB6" horiz-adv-x="714" unicode="&#7862;" /><glyph d="M256 111C217 111 192 127 192 169C192 189 197 202 206 212C217 223 235 228 261 228C285 228 306 226 327 222V127C307 119 280 111 256 111ZM340 44 361 0H524L510 110V341C510 483 437 542 278 542C193 542 120 524 56 499L93 364C143 384 195 397 247 397C307 397 327 371 327 331V314C298 320 261 325 223 325C147 325 97 308 65 276C37 248 23 208 23 161C23 47 89 -9 185 -9C251 -9 296 11 340 44ZM280 671C240 671 218 689 210 712H124C130 636 180 576 278 576C376 576 428 636 434 712H348C340 689 320 671 280 671ZM345 -166V-39H205V-166Z" glyph-name="uni1EB7" horiz-adv-x="556" unicode="&#7863;" /><glyph d="M585 0V164H249V277H541V439H249V536H578V700H55V0ZM398 -163V-36H258V-163Z" glyph-name="uni1EB8" horiz-adv-x="623" unicode="&#7864;" /><glyph d="M296 -10C365 -10 441 7 501 40L461 159C414 136 357 123 313 123C241 123 204 151 197 205H519V255C519 441 424 544 274 544C133 544 24 443 24 263C24 70 133 -10 296 -10ZM197 312C202 374 228 408 273 408C318 408 343 374 348 312ZM345 -166V-39H205V-166Z" glyph-name="uni1EB9" horiz-adv-x="542" unicode="&#7865;" /><glyph d="M585 0V164H249V277H541V439H249V536H578V700H55V0ZM170 903 187 823C229 833 271 838 311 838C347 838 356 833 356 826C356 817 343 810 276 793L295 729C422 760 469 790 469 841C469 887 423 919 320 919C268 919 218 914 170 903Z" glyph-name="uni1EBA" horiz-adv-x="623" unicode="&#7866;" /><glyph d="M296 -10C365 -10 441 7 501 40L461 159C414 136 357 123 313 123C241 123 204 151 197 205H519V255C519 441 424 544 274 544C133 544 24 443 24 263C24 70 133 -10 296 -10ZM197 312C202 374 228 408 273 408C318 408 343 374 348 312ZM134 752 153 670C189 680 230 688 264 688C295 688 304 683 304 675C304 665 292 657 228 638L250 573C369 607 412 639 412 691C412 739 365 772 274 772C226 772 179 765 134 752Z" glyph-name="uni1EBB" horiz-adv-x="542" unicode="&#7867;" /><glyph d="M585 0V164H249V277H541V439H249V536H578V700H55V0ZM214 730C230 767 244 775 263 775C280 775 296 769 329 754C370 736 389 731 415 731C457 731 496 757 526 853L444 876C428 838 414 830 395 830C378 830 362 837 329 851C288 869 269 875 243 875C201 875 162 849 132 753Z" glyph-name="uni1EBC" horiz-adv-x="623" unicode="&#7868;" /><glyph d="M296 -10C365 -10 441 7 501 40L461 159C414 136 357 123 313 123C241 123 204 151 197 205H519V255C519 441 424 544 274 544C133 544 24 443 24 263C24 70 133 -10 296 -10ZM197 312C202 374 228 408 273 408C318 408 343 374 348 312ZM171 574C188 613 199 621 217 621C234 621 248 615 281 599C320 581 338 575 363 575C403 575 438 604 467 703L391 724C374 685 363 677 345 677C328 677 313 683 281 699C242 717 224 723 199 723C159 723 123 694 95 595Z" glyph-name="uni1EBD" horiz-adv-x="542" unicode="&#7869;" /><glyph d="M585 0V164H249V277H541V439H249V536H578V700H55V0ZM581 825 733 919H529L457 825ZM323 772 381 737H502L404 842H244L146 737H265Z" glyph-name="uni1EBE" horiz-adv-x="623" unicode="&#7870;" /><glyph d="M296 -10C365 -10 441 7 501 40L461 159C414 136 357 123 313 123C241 123 204 151 197 205H519V255C519 441 424 544 274 544C133 544 24 443 24 263C24 70 133 -10 296 -10ZM197 312C202 374 228 408 273 408C318 408 343 374 348 312ZM496 672 648 774H460L397 672ZM275 618 335 581H443L341 694H211L109 581H215Z" glyph-name="uni1EBF" horiz-adv-x="542" unicode="&#7871;" /><glyph d="M585 0V164H249V277H541V439H249V536H578V700H55V0ZM620 825 548 919H344L496 825ZM323 772 381 737H502L404 842H244L146 737H265Z" glyph-name="uni1EC0" horiz-adv-x="623" unicode="&#7872;" /><glyph d="M296 -10C365 -10 441 7 501 40L461 159C414 136 357 123 313 123C241 123 204 151 197 205H519V255C519 441 424 544 274 544C133 544 24 443 24 263C24 70 133 -10 296 -10ZM197 312C202 374 228 408 273 408C318 408 343 374 348 312ZM438 672H537L474 774H286ZM275 618 335 581H443L341 694H211L109 581H215Z" glyph-name="uni1EC1" horiz-adv-x="542" unicode="&#7873;" /><glyph d="M585 0V164H249V277H541V439H249V536H578V700H55V0ZM389 960 402 887C433 894 466 899 499 899C529 899 538 895 538 887C538 879 527 873 470 859L484 800C590 824 629 856 629 902C629 946 589 975 507 975C465 975 427 971 389 960ZM323 772 381 737H502L404 842H244L146 737H265Z" glyph-name="uni1EC2" horiz-adv-x="623" unicode="&#7874;" /><glyph d="M296 -10C365 -10 441 7 501 40L461 159C414 136 357 123 313 123C241 123 204 151 197 205H519V255C519 441 424 544 274 544C133 544 24 443 24 263C24 70 133 -10 296 -10ZM197 312C202 374 228 408 273 408C318 408 343 374 348 312ZM342 811 357 739C384 746 414 750 439 750C464 750 471 746 471 737C471 728 458 720 409 704L429 647C527 676 560 707 560 753C560 796 522 826 451 826C411 826 377 821 342 811ZM275 618 335 581H443L341 694H211L109 581H215Z" glyph-name="uni1EC3" horiz-adv-x="542" unicode="&#7875;" /><glyph d="M585 0V164H249V277H541V439H249V536H578V700H55V0ZM229 863C243 899 252 906 269 906C284 906 298 900 327 886C364 869 379 864 403 864C441 864 474 889 504 979L428 1002C414 967 405 959 388 959C372 959 358 965 329 979C292 997 277 1001 254 1001C216 1001 183 976 152 886ZM323 770 382 737H503L404 840H244L145 737H264Z" glyph-name="uni1EC4" horiz-adv-x="623" unicode="&#7876;" /><glyph d="M296 -10C365 -10 441 7 501 40L461 159C414 136 357 123 313 123C241 123 204 151 197 205H519V255C519 441 424 544 274 544C133 544 24 443 24 263C24 70 133 -10 296 -10ZM197 312C202 374 228 408 273 408C318 408 343 374 348 312ZM186 713C201 748 209 757 226 757C240 757 252 752 282 737C317 719 329 714 352 714C388 714 419 742 448 827L378 851C363 816 354 807 338 807C323 807 311 812 281 827C246 845 234 850 211 850C176 850 144 823 115 737ZM275 618 335 581H444L341 693H211L108 581H215Z" glyph-name="uni1EC5" horiz-adv-x="542" unicode="&#7877;" /><glyph d="M585 0V164H249V277H541V439H249V536H578V700H55V0ZM323 775 379 737H500L404 846H244L148 737H267ZM398 -163V-36H258V-163Z" glyph-name="uni1EC6" horiz-adv-x="623" unicode="&#7878;" /><glyph d="M296 -10C365 -10 441 7 501 40L461 159C414 136 357 123 313 123C241 123 204 151 197 205H519V255C519 441 424 544 274 544C133 544 24 443 24 263C24 70 133 -10 296 -10ZM197 312C202 374 228 408 273 408C318 408 343 374 348 312ZM275 625 333 581H441L341 702H211L111 581H217ZM345 -166V-39H205V-166Z" glyph-name="uni1EC7" horiz-adv-x="542" unicode="&#7879;" /><glyph d="M255 0V700H57V0ZM2 903 19 823C61 833 103 838 143 838C179 838 188 833 188 826C188 817 175 810 108 793L127 729C254 760 301 790 301 841C301 887 255 919 152 919C100 919 50 914 2 903Z" glyph-name="uni1EC8" horiz-adv-x="312" unicode="&#7880;" /><glyph d="M235 0V532H49V0ZM-1 749 18 667C54 677 95 685 129 685C160 685 169 680 169 672C169 662 157 654 93 635L115 570C234 604 277 636 277 688C277 736 230 769 139 769C91 769 44 762 -1 749Z" glyph-name="uni1EC9" horiz-adv-x="283" unicode="&#7881;" /><glyph d="M255 0V700H57V0ZM226 -163V-36H86V-163Z" glyph-name="uni1ECA" horiz-adv-x="312" unicode="&#7882;" /><glyph d="M238 591V718H45V591ZM235 0V532H49V0ZM212 -163V-36H72V-163Z" glyph-name="uni1ECB" horiz-adv-x="283" unicode="&#7883;" /><glyph d="M687 351C687 579 555 712 359 712C160 712 29 578 29 349C29 122 160 -12 357 -12C554 -12 687 122 687 351ZM485 349C485 220 436 158 358 158C280 158 231 221 231 351C231 480 279 542 357 542C435 542 485 479 485 349ZM427 -170V-43H287V-170Z" glyph-name="uni1ECC" horiz-adv-x="716" unicode="&#7884;" /><glyph d="M538 267C538 445 428 544 282 544C135 544 24 444 24 265C24 87 135 -12 280 -12C427 -12 538 88 538 267ZM362 266C362 185 332 141 282 141C232 141 201 186 201 266C201 347 231 391 280 391C330 391 362 346 362 266ZM351 -166V-39H211V-166Z" glyph-name="uni1ECD" horiz-adv-x="562" unicode="&#7885;" /><glyph d="M687 351C687 579 555 712 359 712C160 712 29 578 29 349C29 122 160 -12 357 -12C554 -12 687 122 687 351ZM485 349C485 220 436 158 358 158C280 158 231 221 231 351C231 480 279 542 357 542C435 542 485 479 485 349ZM203 910 220 830C262 840 304 845 344 845C380 845 389 840 389 833C389 824 376 817 309 800L328 736C455 767 502 797 502 848C502 894 456 926 353 926C301 926 251 921 203 910Z" glyph-name="uni1ECE" horiz-adv-x="716" unicode="&#7886;" /><glyph d="M538 267C538 445 428 544 282 544C135 544 24 444 24 265C24 87 135 -12 280 -12C427 -12 538 88 538 267ZM362 266C362 185 332 141 282 141C232 141 201 186 201 266C201 347 231 391 280 391C330 391 362 346 362 266ZM139 752 158 670C194 680 235 688 269 688C300 688 309 683 309 675C309 665 297 657 233 638L255 573C374 607 417 639 417 691C417 739 370 772 279 772C231 772 184 765 139 752Z" glyph-name="uni1ECF" horiz-adv-x="562" unicode="&#7887;" /><glyph d="M687 351C687 579 555 712 359 712C160 712 29 578 29 349C29 122 160 -12 357 -12C554 -12 687 122 687 351ZM485 349C485 220 436 158 358 158C280 158 231 221 231 351C231 480 279 542 357 542C435 542 485 479 485 349ZM614 832 766 926H562L490 832ZM356 779 414 744H535L437 849H277L179 744H298Z" glyph-name="uni1ED0" horiz-adv-x="716" unicode="&#7888;" /><glyph d="M538 267C538 445 428 544 282 544C135 544 24 444 24 265C24 87 135 -12 280 -12C427 -12 538 88 538 267ZM362 266C362 185 332 141 282 141C232 141 201 186 201 266C201 347 231 391 280 391C330 391 362 346 362 266ZM501 672 653 774H465L402 672ZM280 618 340 581H448L346 694H216L114 581H220Z" glyph-name="uni1ED1" horiz-adv-x="562" unicode="&#7889;" /><glyph d="M687 351C687 579 555 712 359 712C160 712 29 578 29 349C29 122 160 -12 357 -12C554 -12 687 122 687 351ZM485 349C485 220 436 158 358 158C280 158 231 221 231 351C231 480 279 542 357 542C435 542 485 479 485 349ZM653 832 581 926H377L529 832ZM356 779 414 744H535L437 849H277L179 744H298Z" glyph-name="uni1ED2" horiz-adv-x="716" unicode="&#7890;" /><glyph d="M538 267C538 445 428 544 282 544C135 544 24 444 24 265C24 87 135 -12 280 -12C427 -12 538 88 538 267ZM362 266C362 185 332 141 282 141C232 141 201 186 201 266C201 347 231 391 280 391C330 391 362 346 362 266ZM443 672H542L479 774H291ZM280 618 340 581H448L346 694H216L114 581H220Z" glyph-name="uni1ED3" horiz-adv-x="562" unicode="&#7891;" /><glyph d="M687 351C687 579 555 712 359 712C160 712 29 578 29 349C29 122 160 -12 357 -12C554 -12 687 122 687 351ZM485 349C485 220 436 158 358 158C280 158 231 221 231 351C231 480 279 542 357 542C435 542 485 479 485 349ZM422 967 435 894C466 901 499 906 532 906C562 906 571 902 571 894C571 886 560 880 503 866L517 807C623 831 662 863 662 909C662 953 622 982 540 982C498 982 460 978 422 967ZM356 779 414 744H535L437 849H277L179 744H298Z" glyph-name="uni1ED4" horiz-adv-x="716" unicode="&#7892;" /><glyph d="M538 267C538 445 428 544 282 544C135 544 24 444 24 265C24 87 135 -12 280 -12C427 -12 538 88 538 267ZM362 266C362 185 332 141 282 141C232 141 201 186 201 266C201 347 231 391 280 391C330 391 362 346 362 266ZM347 811 362 739C389 746 419 750 444 750C469 750 476 746 476 737C476 728 463 720 414 704L434 647C532 676 565 707 565 753C565 796 527 826 456 826C416 826 382 821 347 811ZM280 618 340 581H448L346 694H216L114 581H220Z" glyph-name="uni1ED5" horiz-adv-x="562" unicode="&#7893;" /><glyph d="M687 351C687 579 555 712 359 712C160 712 29 578 29 349C29 122 160 -12 357 -12C554 -12 687 122 687 351ZM485 349C485 220 436 158 358 158C280 158 231 221 231 351C231 480 279 542 357 542C435 542 485 479 485 349ZM262 870C276 906 285 913 302 913C317 913 331 907 360 893C397 876 412 871 436 871C474 871 507 896 537 986L461 1009C447 974 438 966 421 966C405 966 391 972 362 986C325 1004 310 1008 287 1008C249 1008 216 983 185 893ZM356 777 415 744H536L437 847H277L178 744H297Z" glyph-name="uni1ED6" horiz-adv-x="716" unicode="&#7894;" /><glyph d="M538 267C538 445 428 544 282 544C135 544 24 444 24 265C24 87 135 -12 280 -12C427 -12 538 88 538 267ZM362 266C362 185 332 141 282 141C232 141 201 186 201 266C201 347 231 391 280 391C330 391 362 346 362 266ZM191 713C206 748 214 757 231 757C245 757 257 752 287 737C322 719 334 714 357 714C393 714 424 742 453 827L383 851C368 816 359 807 343 807C328 807 316 812 286 827C251 845 239 850 216 850C181 850 149 823 120 737ZM280 618 340 581H449L346 693H216L113 581H220Z" glyph-name="uni1ED7" horiz-adv-x="562" unicode="&#7895;" /><glyph d="M687 351C687 579 555 712 359 712C160 712 29 578 29 349C29 122 160 -12 357 -12C554 -12 687 122 687 351ZM485 349C485 220 436 158 358 158C280 158 231 221 231 351C231 480 279 542 357 542C435 542 485 479 485 349ZM356 782 412 744H533L437 853H277L181 744H300ZM427 -170V-43H287V-170Z" glyph-name="uni1ED8" horiz-adv-x="716" unicode="&#7896;" /><glyph d="M538 267C538 445 428 544 282 544C135 544 24 444 24 265C24 87 135 -12 280 -12C427 -12 538 88 538 267ZM362 266C362 185 332 141 282 141C232 141 201 186 201 266C201 347 231 391 280 391C330 391 362 346 362 266ZM280 625 338 581H446L346 702H216L116 581H222ZM351 -166V-39H211V-166Z" glyph-name="uni1ED9" horiz-adv-x="562" unicode="&#7897;" /><glyph d="M405 745 538 846H337L264 745ZM357 -12C554 -12 687 122 687 351C687 476 644 569 571 628C651 650 694 702 694 775C694 803 688 832 677 857L551 824C557 810 559 797 559 782C559 732 519 707 432 707C409 707 382 708 359 708C160 708 29 576 29 349C29 122 160 -12 357 -12ZM485 349C485 220 436 158 358 158C280 158 231 221 231 351C231 480 279 542 357 542C435 542 485 479 485 349Z" glyph-name="uni1EDA" horiz-adv-x="716" unicode="&#7898;" /><glyph d="M299 581 423 696H245L171 581ZM280 -12C427 -12 538 88 538 266C538 356 507 424 453 469C516 489 551 535 551 603C551 630 545 655 535 679L414 648C419 634 421 622 421 608C421 562 387 538 327 538C313 538 297 539 282 539C135 539 24 440 24 264C24 87 135 -12 280 -12ZM362 265C362 185 332 141 282 141C232 141 201 186 201 265C201 346 231 390 280 390C330 390 362 345 362 265Z" glyph-name="uni1EDB" horiz-adv-x="562" unicode="&#7899;" /><glyph d="M357 -12C554 -12 687 122 687 351C687 476 644 569 571 628C651 650 694 702 694 775C694 803 688 832 677 857L551 824C557 810 559 797 559 782C559 732 519 707 432 707C409 707 382 708 359 708C160 708 29 576 29 349C29 122 160 -12 357 -12ZM485 349C485 220 436 158 358 158C280 158 231 221 231 351C231 480 279 542 357 542C435 542 485 479 485 349ZM297 744H442L362 845H138Z" glyph-name="uni1EDC" horiz-adv-x="716" unicode="&#7900;" /><glyph d="M280 -12C427 -12 538 88 538 266C538 356 507 424 453 469C516 489 551 535 551 603C551 630 545 655 535 679L414 648C419 634 421 622 421 608C421 562 387 538 327 538C313 538 297 539 282 539C135 539 24 440 24 264C24 87 135 -12 280 -12ZM362 265C362 185 332 141 282 141C232 141 201 186 201 265C201 346 231 390 280 390C330 390 362 345 362 265ZM240 581H358L285 696H74Z" glyph-name="uni1EDD" horiz-adv-x="562" unicode="&#7901;" /><glyph d="M357 -12C554 -12 687 122 687 351C687 476 644 569 571 628C651 650 694 702 694 775C694 803 688 832 677 857L551 824C557 810 559 797 559 782C559 732 519 707 432 707C409 707 382 708 359 708C160 708 29 576 29 349C29 122 160 -12 357 -12ZM485 349C485 220 436 158 358 158C280 158 231 221 231 351C231 480 279 542 357 542C435 542 485 479 485 349ZM203 910 220 830C262 840 304 845 344 845C380 845 389 840 389 833C389 824 376 817 309 800L328 736C455 767 502 797 502 848C502 894 456 926 353 926C301 926 251 921 203 910Z" glyph-name="uni1EDE" horiz-adv-x="716" unicode="&#7902;" /><glyph d="M124 752 144 671C179 680 218 688 252 688C282 688 291 683 291 675C291 665 278 657 217 638L238 573C353 608 396 640 396 691C396 740 350 772 261 772C214 772 168 765 124 752ZM280 -12C427 -12 538 88 538 266C538 356 507 424 453 469C516 489 551 535 551 603C551 630 545 655 535 679L414 648C419 634 421 622 421 608C421 562 387 538 327 538C313 538 297 539 282 539C135 539 24 440 24 264C24 87 135 -12 280 -12ZM362 265C362 185 332 141 282 141C232 141 201 186 201 265C201 346 231 390 280 390C330 390 362 345 362 265Z" glyph-name="uni1EDF" horiz-adv-x="562" unicode="&#7903;" /><glyph d="M233 738C248 774 262 782 280 782C296 782 313 776 344 762C384 744 402 739 428 739C468 739 505 765 535 861L455 884C439 847 426 839 408 839C391 839 375 845 343 860C304 877 285 883 260 883C220 883 182 857 153 761ZM357 -12C554 -12 687 122 687 351C687 476 644 569 571 628C651 650 694 702 694 775C694 803 688 832 677 857L551 824C557 810 559 797 559 782C559 732 519 707 432 707C409 707 382 708 359 708C160 708 29 576 29 349C29 122 160 -12 357 -12ZM485 349C485 220 436 158 358 158C280 158 231 221 231 351C231 480 279 542 357 542C435 542 485 479 485 349Z" glyph-name="uni1EE0" horiz-adv-x="716" unicode="&#7904;" /><glyph d="M157 574C171 611 179 620 194 620C208 620 219 614 247 599C280 581 295 575 315 575C350 575 379 605 406 703L334 724C319 687 311 678 296 678C283 678 271 684 243 700C210 717 196 723 175 723C141 723 111 694 84 595ZM280 -12C427 -12 538 88 538 266C538 356 507 424 453 469C516 489 551 535 551 603C551 630 545 655 535 679L414 648C419 634 421 622 421 608C421 562 387 538 327 538C313 538 297 539 282 539C135 539 24 440 24 264C24 87 135 -12 280 -12ZM362 265C362 185 332 141 282 141C232 141 201 186 201 265C201 346 231 390 280 390C330 390 362 345 362 265Z" glyph-name="uni1EE1" horiz-adv-x="562" unicode="&#7905;" /><glyph d="M357 -12C554 -12 687 122 687 351C687 476 644 569 571 628C651 650 694 702 694 775C694 803 688 832 677 857L551 824C557 810 559 797 559 782C559 732 519 707 432 707C409 707 382 708 359 708C160 708 29 576 29 349C29 122 160 -12 357 -12ZM485 349C485 220 436 158 358 158C280 158 231 221 231 351C231 480 279 542 357 542C435 542 485 479 485 349ZM427 -170V-43H287V-170Z" glyph-name="uni1EE2" horiz-adv-x="716" unicode="&#7906;" /><glyph d="M280 -12C427 -12 538 88 538 266C538 356 507 424 453 469C516 489 551 535 551 603C551 630 545 655 535 679L414 648C419 634 421 622 421 608C421 562 387 538 327 538C313 538 297 539 282 539C135 539 24 440 24 264C24 87 135 -12 280 -12ZM362 265C362 185 332 141 282 141C232 141 201 186 201 265C201 346 231 390 280 390C330 390 362 345 362 265ZM351 -166V-39H211V-166Z" glyph-name="uni1EE3" horiz-adv-x="562" unicode="&#7907;" /><glyph d="M649 280V700H454V269C454 184 409 157 350 157C292 157 246 184 246 269V700H48V277C48 68 172 -11 348 -11C523 -11 649 68 649 280ZM418 -170V-43H278V-170Z" glyph-name="uni1EE4" horiz-adv-x="697" unicode="&#7908;" /><glyph d="M364 53 392 0H538V532H352V182C329 166 300 154 277 154C246 154 231 170 231 203V532H45V157C45 48 100 -9 201 -9C268 -9 318 19 364 53ZM365 -166V-39H225V-166Z" glyph-name="uni1EE5" horiz-adv-x="586" unicode="&#7909;" /><glyph d="M649 280V700H454V269C454 184 409 157 350 157C292 157 246 184 246 269V700H48V277C48 68 172 -11 348 -11C523 -11 649 68 649 280ZM194 900 211 820C253 830 295 835 335 835C371 835 380 830 380 823C380 814 367 807 300 790L319 726C446 757 493 787 493 838C493 884 447 916 344 916C292 916 242 911 194 900Z" glyph-name="uni1EE6" horiz-adv-x="697" unicode="&#7910;" /><glyph d="M364 53 392 0H538V532H352V182C329 166 300 154 277 154C246 154 231 170 231 203V532H45V157C45 48 100 -9 201 -9C268 -9 318 19 364 53ZM149 746 168 664C204 674 245 682 279 682C310 682 319 677 319 669C319 659 307 651 243 632L265 567C384 601 427 633 427 685C427 733 380 766 289 766C241 766 194 759 149 746Z" glyph-name="uni1EE7" horiz-adv-x="586" unicode="&#7911;" /><glyph d="M348 -11C523 -11 649 68 649 280V631C720 660 757 710 757 775C757 803 751 832 740 857L615 824C620 810 623 797 623 782C623 728 578 700 487 700H454V269C454 184 409 157 350 157C292 157 246 184 246 269V700H48V277C48 68 172 -11 348 -11ZM407 734 566 835H342L262 734Z" glyph-name="uni1EE8" horiz-adv-x="730" unicode="&#7912;" /><glyph d="M334 575 491 690H287L213 575ZM364 53 392 0H538V470C599 497 630 543 630 603C630 630 624 655 614 679L493 648C498 634 501 622 501 608C501 559 459 532 376 532H352V182C329 166 300 154 277 154C246 154 231 170 231 203V532H45V157C45 48 100 -9 201 -9C268 -9 318 19 364 53Z" glyph-name="uni1EE9" horiz-adv-x="613" unicode="&#7913;" /><glyph d="M348 -11C523 -11 649 68 649 280V631C720 660 757 710 757 775C757 803 751 832 740 857L615 824C620 810 623 797 623 782C623 728 578 700 487 700H454V269C454 184 409 157 350 157C292 157 246 184 246 269V700H48V277C48 68 172 -11 348 -11ZM287 734H432L352 835H128Z" glyph-name="uni1EEA" horiz-adv-x="730" unicode="&#7914;" /><glyph d="M364 53 392 0H538V470C599 497 630 543 630 603C630 630 624 655 614 679L493 648C498 634 501 622 501 608C501 559 459 532 376 532H352V182C329 166 300 154 277 154C246 154 231 170 231 203V532H45V157C45 48 100 -9 201 -9C268 -9 318 19 364 53ZM250 575H368L295 690H84Z" glyph-name="uni1EEB" horiz-adv-x="613" unicode="&#7915;" /><glyph d="M348 -11C523 -11 649 68 649 280V631C720 660 757 710 757 775C757 803 751 832 740 857L615 824C620 810 623 797 623 782C623 728 578 700 487 700H454V269C454 184 409 157 350 157C292 157 246 184 246 269V700H48V277C48 68 172 -11 348 -11ZM193 900 210 820C252 830 294 835 334 835C370 835 379 830 379 823C379 814 366 807 299 790L318 726C445 757 492 787 492 838C492 884 446 916 343 916C291 916 241 911 193 900Z" glyph-name="uni1EEC" horiz-adv-x="730" unicode="&#7916;" /><glyph d="M364 53 392 0H538V470C599 497 630 543 630 603C630 630 624 655 614 679L493 648C498 634 501 622 501 608C501 559 459 532 376 532H352V182C329 166 300 154 277 154C246 154 231 170 231 203V532H45V157C45 48 100 -9 201 -9C268 -9 318 19 364 53ZM149 746 168 664C204 674 245 682 279 682C310 682 319 677 319 669C319 659 307 651 243 632L265 567C384 601 427 633 427 685C427 733 380 766 289 766C241 766 194 759 149 746Z" glyph-name="uni1EED" horiz-adv-x="613" unicode="&#7917;" /><glyph d="M348 -11C523 -11 649 68 649 280V631C720 660 757 710 757 775C757 803 751 832 740 857L615 824C620 810 623 797 623 782C623 728 578 700 487 700H454V269C454 184 409 157 350 157C292 157 246 184 246 269V700H48V277C48 68 172 -11 348 -11ZM237 730C253 767 267 775 286 775C303 775 319 769 352 754C393 736 412 731 438 731C480 731 519 757 549 853L467 876C451 838 437 830 418 830C401 830 385 837 352 851C311 869 292 875 266 875C224 875 185 849 155 753Z" glyph-name="uni1EEE" horiz-adv-x="730" unicode="&#7918;" /><glyph d="M186 571C203 609 213 618 231 618C247 618 261 612 294 596C331 578 349 572 373 572C412 572 446 601 476 700L400 721C382 683 372 674 354 674C338 674 324 680 292 696C254 714 236 720 212 720C173 720 138 691 110 592ZM364 53 392 0H538V470C599 497 630 543 630 603C630 630 624 655 614 679L493 648C498 634 501 622 501 608C501 559 459 532 376 532H352V182C329 166 300 154 277 154C246 154 231 170 231 203V532H45V157C45 48 100 -9 201 -9C268 -9 318 19 364 53Z" glyph-name="uni1EEF" horiz-adv-x="613" unicode="&#7919;" /><glyph d="M348 -11C523 -11 649 68 649 280V631C720 660 757 710 757 775C757 803 751 832 740 857L615 824C620 810 623 797 623 782C623 728 578 700 487 700H454V269C454 184 409 157 350 157C292 157 246 184 246 269V700H48V277C48 68 172 -11 348 -11ZM417 -170V-43H277V-170Z" glyph-name="uni1EF0" horiz-adv-x="730" unicode="&#7920;" /><glyph d="M364 53 392 0H538V470C599 497 630 543 630 603C630 630 624 655 614 679L493 648C498 634 501 622 501 608C501 559 459 532 376 532H352V182C329 166 300 154 277 154C246 154 231 170 231 203V532H45V157C45 48 100 -9 201 -9C268 -9 318 19 364 53ZM365 -166V-39H225V-166Z" glyph-name="uni1EF1" horiz-adv-x="613" unicode="&#7921;" /><glyph d="M430 0V248L665 700H455L333 443L211 700H-2L233 248V0ZM401 -163V-36H261V-163Z" glyph-name="uni1EF4" horiz-adv-x="663" unicode="&#7924;" /><glyph d="M75 -180C303 -131 357 -81 419 109L549 532H362L282 205L199 532H9L172 17C136 -2 88 -19 34 -33ZM522 -175V-48H382V-175Z" glyph-name="uni1EF5" horiz-adv-x="551" unicode="&#7925;" /><glyph d="M430 0V248L665 700H455L333 443L211 700H-2L233 248V0ZM177 900 194 820C236 830 278 835 318 835C354 835 363 830 363 823C363 814 350 807 283 790L302 726C429 757 476 787 476 838C476 884 430 916 327 916C275 916 225 911 177 900Z" glyph-name="uni1EF6" horiz-adv-x="663" unicode="&#7926;" /><glyph d="M75 -180C303 -131 357 -81 419 109L549 532H362L282 205L199 532H9L172 17C136 -2 88 -19 34 -33ZM137 746 156 664C192 674 233 682 267 682C298 682 307 677 307 669C307 659 295 651 231 632L253 567C372 601 415 633 415 685C415 733 368 766 277 766C229 766 182 759 137 746Z" glyph-name="uni1EF7" horiz-adv-x="551" unicode="&#7927;" /><glyph d="M430 0V248L665 700H455L333 443L211 700H-2L233 248V0ZM221 730C237 767 251 775 270 775C287 775 303 769 336 754C377 736 396 731 422 731C464 731 503 757 533 853L451 876C435 838 421 830 402 830C385 830 369 837 336 851C295 869 276 875 250 875C208 875 169 849 139 753Z" glyph-name="uni1EF8" horiz-adv-x="663" unicode="&#7928;" /><glyph d="M75 -180C303 -131 357 -81 419 109L549 532H362L282 205L199 532H9L172 17C136 -2 88 -19 34 -33ZM174 571C191 610 202 618 220 618C237 618 251 612 284 596C323 578 341 572 366 572C406 572 441 601 470 700L394 721C377 682 366 674 348 674C331 674 316 680 284 696C245 714 227 720 202 720C162 720 126 691 98 592Z" glyph-name="uni1EF9" horiz-adv-x="551" unicode="&#7929;" /><glyph glyph-name="uni2002" horiz-adv-x="500" unicode="&#8194;" /><glyph glyph-name="uni2003" horiz-adv-x="1000" unicode="&#8195;" /><glyph glyph-name="uni2004" horiz-adv-x="333" unicode="&#8196;" /><glyph glyph-name="uni2005" horiz-adv-x="250" unicode="&#8197;" /><glyph glyph-name="uni2007" horiz-adv-x="564" unicode="&#8199;" /><glyph glyph-name="uni2009" horiz-adv-x="125" unicode="&#8201;" /><glyph glyph-name="uni200A" horiz-adv-x="42" unicode="&#8202;" /><glyph d="M304 224V381H31V224Z" glyph-name="uni2011" horiz-adv-x="335" unicode="&#8209;" /><glyph d="M304 281V438H31V281Z" glyph-name="uni2011.cap" horiz-adv-x="335" /><glyph d="M492 283V436H73V283Z" glyph-name="uni2012" horiz-adv-x="564" unicode="&#8210;" /><glyph d="M752 226V379H31V226Z" glyph-name="uni2015" horiz-adv-x="784" unicode="&#8213;" /><glyph d="M752 283V436H31V283Z" glyph-name="uni2015.cap" horiz-adv-x="784" /><glyph d="M18 724V716C18 586 76 479 194 383L253 427C208 506 192 569 192 724Z" glyph-name="uni201B" horiz-adv-x="262" unicode="&#8219;" /><glyph d="M18 724V714C18 586 71 480 183 383L241 426C195 506 180 572 180 724ZM233 724V714C233 586 286 480 399 383L456 426C410 506 396 572 396 724Z" glyph-name="uni201F" horiz-adv-x="465" unicode="&#8223;" /><glyph d="M514 0V196H333V0ZM232 0V196H50V0Z" glyph-name="uni2025" horiz-adv-x="564" unicode="&#8229;" /><glyph glyph-name="uni202F" horiz-adv-x="125" unicode="&#8239;" /><glyph d="M234 407C351 407 428 486 428 626C428 766 351 844 234 844C118 844 41 766 41 626C41 486 118 407 234 407ZM234 737C270 737 292 705 292 625C292 545 270 515 234 515C199 515 177 547 177 627C177 707 199 737 234 737Z" glyph-name="uni2070" horiz-adv-x="469" unicode="&#8304;" /><glyph d="M369 415V484H428V580H369V838H186L30 585L34 484H239V415ZM242 578H143L242 740Z" glyph-name="uni2074" horiz-adv-x="457" unicode="&#8308;" /><glyph d="M386 578C386 647 337 689 258 689C227 689 196 682 168 669L173 734H379V837H64L50 605L138 570C165 585 194 594 218 594C239 594 252 585 252 570C252 543 212 520 45 510L61 407C304 418 386 475 386 578Z" glyph-name="uni2075" horiz-adv-x="426" unicode="&#8309;" /><glyph d="M225 407C336 407 406 467 406 555C406 634 351 681 272 681C236 681 201 674 170 660C186 692 222 717 332 751L286 847C118 800 38 711 38 587C38 475 106 407 225 407ZM226 506C187 506 164 528 164 573V588C184 593 203 596 221 596C260 596 280 580 280 551C280 522 261 506 226 506Z" glyph-name="uni2076" horiz-adv-x="439" unicode="&#8310;" /><glyph d="M183 406 373 718V837H41V724H228L57 451Z" glyph-name="uni2077" horiz-adv-x="409" unicode="&#8311;" /><glyph d="M224 408C343 408 409 461 409 532C409 580 383 613 328 632C375 652 399 682 399 726C399 788 340 843 224 843C109 843 49 788 49 726C49 682 72 652 119 632C64 613 38 580 38 532C38 461 103 408 224 408ZM224 672C192 672 173 687 173 713C173 737 191 752 224 752C256 752 275 737 275 713C275 687 255 672 224 672ZM224 500C189 500 166 517 166 545C166 575 187 591 224 591C260 591 281 575 281 545C281 517 259 500 224 500Z" glyph-name="uni2078" horiz-adv-x="447" unicode="&#8312;" /><glyph d="M214 845C103 845 33 785 33 697C33 618 88 571 167 571C203 571 238 578 269 592C253 560 217 535 107 501L153 405C321 452 401 541 401 665C401 777 333 845 214 845ZM213 746C252 746 275 724 275 679V664C255 659 236 656 218 656C179 656 159 672 159 701C159 730 178 746 213 746Z" glyph-name="uni2079" horiz-adv-x="439" unicode="&#8313;" /><glyph d="M234 -164C351 -164 428 -85 428 55C428 195 351 273 234 273C118 273 41 195 41 55C41 -85 118 -164 234 -164ZM234 166C270 166 292 134 292 54C292 -26 270 -56 234 -56C199 -56 177 -24 177 56C177 136 199 166 234 166Z" glyph-name="uni2080" horiz-adv-x="469" unicode="&#8320;" /><glyph d="M284 -156V268H191L31 214L55 105L149 132V-156Z" glyph-name="uni2081" horiz-adv-x="351" unicode="&#8321;" /><glyph d="M384 -156V-48H219L285 9C352 61 377 101 377 150C377 224 317 272 221 272C154 272 93 247 39 206L87 108C134 141 175 160 204 160C226 160 238 150 238 134C238 119 226 104 201 81L31 -66L52 -156Z" glyph-name="uni2082" horiz-adv-x="420" unicode="&#8322;" /><glyph d="M40 -161C294 -153 380 -104 380 -21C380 30 349 58 271 70C346 94 374 126 374 175C374 233 325 271 226 271C161 271 96 258 41 236L68 141C115 159 164 170 199 170C224 170 234 163 234 152C234 136 213 120 103 92L114 13C220 13 238 4 238 -15C238 -36 207 -50 40 -59Z" glyph-name="uni2083" horiz-adv-x="415" unicode="&#8323;" /><glyph d="M369 -156V-87H428V9H369V267H186L30 14L34 -87H239V-156ZM242 7H143L242 169Z" glyph-name="uni2084" horiz-adv-x="457" unicode="&#8324;" /><glyph d="M386 7C386 76 337 118 258 118C227 118 196 111 168 98L173 163H379V266H64L50 34L138 -1C165 14 194 23 218 23C239 23 252 14 252 -1C252 -28 212 -51 45 -61L61 -164C304 -153 386 -96 386 7Z" glyph-name="uni2085" horiz-adv-x="426" unicode="&#8325;" /><glyph d="M225 -164C336 -164 406 -104 406 -16C406 63 351 110 272 110C236 110 201 103 170 89C186 121 222 146 332 180L286 276C118 229 38 140 38 16C38 -96 106 -164 225 -164ZM226 -65C187 -65 164 -43 164 2V17C184 22 203 25 221 25C260 25 280 9 280 -20C280 -49 261 -65 226 -65Z" glyph-name="uni2086" horiz-adv-x="439" unicode="&#8326;" /><glyph d="M183 -165 373 147V266H41V153H228L57 -120Z" glyph-name="uni2087" horiz-adv-x="409" unicode="&#8327;" /><glyph d="M224 -163C343 -163 409 -110 409 -39C409 9 383 42 328 61C375 81 399 111 399 155C399 217 340 272 224 272C109 272 49 217 49 155C49 111 72 81 119 61C64 42 38 9 38 -39C38 -110 103 -163 224 -163ZM224 101C192 101 173 116 173 142C173 166 191 181 224 181C256 181 275 166 275 142C275 116 255 101 224 101ZM224 -71C189 -71 166 -54 166 -26C166 4 187 20 224 20C260 20 281 4 281 -26C281 -54 259 -71 224 -71Z" glyph-name="uni2088" horiz-adv-x="447" unicode="&#8328;" /><glyph d="M214 274C103 274 33 214 33 126C33 47 88 0 167 0C203 0 238 7 269 21C253 -11 217 -36 107 -70L153 -166C321 -119 401 -30 401 94C401 206 333 274 214 274ZM213 175C252 175 275 153 275 108V93C255 88 236 85 218 85C179 85 159 101 159 130C159 159 178 175 213 175Z" glyph-name="uni2089" horiz-adv-x="439" unicode="&#8329;" /><glyph d="M344 280H272L271 432ZM523 278 450 430H521ZM481 0H694V196H766V291H694V419H766V514H694V700H519V514H411L318 700H99V514H27V419H99V291H27V196H99V0H274V196H383Z" glyph-name="uni20A6" horiz-adv-x="793" unicode="&#8358;" /><glyph d="M562 270H475L519 458ZM721 237 680 435H754ZM323 237 290 435H364ZM622 -2H834L876 186H1011V281H896L928 424H1011V519H949L989 700H796L766 519H665L627 700H419L380 519H279L249 700H49L89 519H27V424H110L142 281H27V186H162L204 -2H414L458 186H578Z" glyph-name="uni20A9" horiz-adv-x="1038" unicode="&#8361;" /><glyph d="M296 539H341C406 539 439 518 450 472H296ZM296 321V388H449C438 344 407 321 341 321ZM296 164H344C514 164 625 232 647 382H719V478H649C635 627 531 700 341 700H99V478H27V382H99V0H296Z" glyph-name="uni20B1" horiz-adv-x="727" unicode="&#8369;" /><glyph d="M578 3 441 167C412 201 379 226 336 243C423 272 476 323 494 386H570V507H489C477 535 457 559 429 578H570V700H42V578H130C218 578 271 553 292 502H42V391H290C267 341 212 314 126 314H42V193H104C162 193 196 177 228 136L337 0H578Z" glyph-name="uni20B9" horiz-adv-x="617" unicode="&#8377;" /><glyph d="M237 0C486 0 584 137 590 325H488C478 242 418 178 296 178V301L478 386V490L296 405V464L478 549V653L296 568V700H99V483L27 450V346L99 379V320L27 287V183L99 216V0Z" glyph-name="uni20BA" horiz-adv-x="617" unicode="&#8378;" /><glyph d="M455 440C455 370 420 335 342 335H296V539H341C421 539 455 511 455 440ZM564 83V179H296V240H352C542 240 653 314 653 472C653 625 544 700 342 700H99V337H27V242H99V179H27V83H99V0H296V83Z" glyph-name="uni20BD" horiz-adv-x="675" unicode="&#8381;" /><glyph d="M363 -19C551 -19 691 132 691 350C691 568 551 719 363 719C175 719 35 568 35 350C35 132 175 -19 363 -19ZM363 676C525 676 644 544 644 350C644 156 525 24 363 24C200 24 81 156 81 350C81 544 200 676 363 676ZM342 158V257H370C474 257 540 304 540 406C540 499 481 545 368 545H228V158ZM342 348V453H367C407 453 425 439 425 402C425 365 408 348 367 348Z" glyph-name="uni2117" horiz-adv-x="725" unicode="&#8471;" /><glyph d="M369 465H433L472 597L479 465H546L533 700H440L401 565L363 700H271L258 465H323L330 600ZM234 538C234 582 207 599 148 613C114 622 110 627 110 635C110 642 116 648 135 648C159 648 189 640 209 631L225 687C203 697 171 704 137 704C75 704 42 674 42 628C42 585 69 569 128 555C161 545 167 540 167 532C167 522 160 517 136 517C106 517 73 526 47 539L31 482C59 469 96 460 134 460C195 460 234 486 234 538Z" glyph-name="uni2120" horiz-adv-x="578" unicode="&#8480;" /><glyph d="M269 278V702H176L16 648L40 539L134 566V278ZM157 0H235L439 334L673 700H596L391 366ZM875 163C875 232 826 274 747 274C716 274 685 267 657 254L662 319H868V422H553L539 190L627 155C654 170 683 179 707 179C728 179 741 170 741 155C741 128 701 105 534 95L550 -8C793 3 875 60 875 163Z" glyph-name="uni2155" horiz-adv-x="900" unicode="&#8533;" /><glyph d="M369 278V386H204L270 443C337 495 362 535 362 584C362 658 302 706 206 706C139 706 78 681 24 640L72 542C119 575 160 594 189 594C211 594 223 584 223 568C223 553 211 538 186 515L16 368L37 278ZM245 0H323L527 334L761 700H684L479 366ZM963 163C963 232 914 274 835 274C804 274 773 267 745 254L750 319H956V422H641L627 190L715 155C742 170 771 179 795 179C816 179 829 170 829 155C829 128 789 105 622 95L638 -8C881 3 963 60 963 163Z" glyph-name="uni2156" horiz-adv-x="989" unicode="&#8534;" /><glyph d="M25 273C279 281 365 330 365 413C365 464 334 492 256 504C331 528 359 560 359 609C359 667 310 705 211 705C146 705 81 692 26 670L53 575C100 593 149 604 184 604C209 604 219 597 219 586C219 570 198 554 88 526L99 447C205 447 223 438 223 419C223 398 192 384 25 375ZM196 0H274L478 334L712 700H635L430 366ZM914 163C914 232 865 274 786 274C755 274 724 267 696 254L701 319H907V422H592L578 190L666 155C693 170 722 179 746 179C767 179 780 170 780 155C780 128 740 105 573 95L589 -8C832 3 914 60 914 163Z" glyph-name="uni2157" horiz-adv-x="939" unicode="&#8535;" /><glyph d="M354 278V347H413V443H354V701H171L15 448L19 347H224V278ZM227 441H128L227 603ZM257 0H335L539 334L773 700H696L491 366ZM975 163C975 232 926 274 847 274C816 274 785 267 757 254L762 319H968V422H653L639 190L727 155C754 170 783 179 807 179C828 179 841 170 841 155C841 128 801 105 634 95L650 -8C893 3 975 60 975 163Z" glyph-name="uni2158" horiz-adv-x="1001" unicode="&#8536;" /><glyph d="M269 278V702H176L16 648L40 539L134 566V278ZM157 0H235L439 334L673 700H596L391 366ZM658 -8C769 -8 839 52 839 140C839 219 784 266 705 266C669 266 634 259 603 245C619 277 655 302 765 336L719 432C551 385 471 296 471 172C471 60 539 -8 658 -8ZM659 91C620 91 597 113 597 158V173C617 178 636 181 654 181C693 181 713 165 713 136C713 107 694 91 659 91Z" glyph-name="uni2159" horiz-adv-x="857" unicode="&#8537;" /><glyph d="M371 441C371 510 322 552 243 552C212 552 181 545 153 532L158 597H364V700H49L35 468L123 433C150 448 179 457 203 457C224 457 237 448 237 433C237 406 197 383 30 373L46 270C289 281 371 338 371 441ZM197 0H275L479 334L713 700H636L431 366ZM698 -8C809 -8 879 52 879 140C879 219 824 266 745 266C709 266 674 259 643 245C659 277 695 302 805 336L759 432C591 385 511 296 511 172C511 60 579 -8 698 -8ZM699 91C660 91 637 113 637 158V173C657 178 676 181 694 181C733 181 753 165 753 136C753 107 734 91 699 91Z" glyph-name="uni215A" horiz-adv-x="897" unicode="&#8538;" /><glyph d="M269 278V702H176L16 648L40 539L134 566V278ZM157 0H235L439 334L673 700H596L391 366ZM692 -7C811 -7 877 46 877 117C877 165 851 198 796 217C843 237 867 267 867 311C867 373 808 428 692 428C577 428 517 373 517 311C517 267 540 237 587 217C532 198 506 165 506 117C506 46 571 -7 692 -7ZM692 257C660 257 641 272 641 298C641 322 659 337 692 337C724 337 743 322 743 298C743 272 723 257 692 257ZM692 85C657 85 634 102 634 130C634 160 655 176 692 176C728 176 749 160 749 130C749 102 727 85 692 85Z" glyph-name="uni215B" horiz-adv-x="900" unicode="&#8539;" /><glyph d="M25 273C279 281 365 330 365 413C365 464 334 492 256 504C331 528 359 560 359 609C359 667 310 705 211 705C146 705 81 692 26 670L53 575C100 593 149 604 184 604C209 604 219 597 219 586C219 570 198 554 88 526L99 447C205 447 223 438 223 419C223 398 192 384 25 375ZM196 0H274L478 334L712 700H635L430 366ZM731 -7C850 -7 916 46 916 117C916 165 890 198 835 217C882 237 906 267 906 311C906 373 847 428 731 428C616 428 556 373 556 311C556 267 579 237 626 217C571 198 545 165 545 117C545 46 610 -7 731 -7ZM731 257C699 257 680 272 680 298C680 322 698 337 731 337C763 337 782 322 782 298C782 272 762 257 731 257ZM731 85C696 85 673 102 673 130C673 160 694 176 731 176C767 176 788 160 788 130C788 102 766 85 731 85Z" glyph-name="uni215C" horiz-adv-x="939" unicode="&#8540;" /><glyph d="M371 441C371 510 322 552 243 552C212 552 181 545 153 532L158 597H364V700H49L35 468L123 433C150 448 179 457 203 457C224 457 237 448 237 433C237 406 197 383 30 373L46 270C289 281 371 338 371 441ZM197 0H275L479 334L713 700H636L431 366ZM731 -7C850 -7 916 46 916 117C916 165 890 198 835 217C882 237 906 267 906 311C906 373 847 428 731 428C616 428 556 373 556 311C556 267 579 237 626 217C571 198 545 165 545 117C545 46 610 -7 731 -7ZM731 257C699 257 680 272 680 298C680 322 698 337 731 337C763 337 782 322 782 298C782 272 762 257 731 257ZM731 85C696 85 673 102 673 130C673 160 694 176 731 176C767 176 788 160 788 130C788 102 766 85 731 85Z" glyph-name="uni215D" horiz-adv-x="940" unicode="&#8541;" /><glyph d="M168 269 358 581V700H26V587H213L42 314ZM121 0H199L403 334L637 700H560L355 366ZM656 -7C775 -7 841 46 841 117C841 165 815 198 760 217C807 237 831 267 831 311C831 373 772 428 656 428C541 428 481 373 481 311C481 267 504 237 551 217C496 198 470 165 470 117C470 46 535 -7 656 -7ZM656 257C624 257 605 272 605 298C605 322 623 337 656 337C688 337 707 322 707 298C707 272 687 257 656 257ZM656 85C621 85 598 102 598 130C598 160 619 176 656 176C692 176 713 160 713 130C713 102 691 85 656 85Z" glyph-name="uni215E" horiz-adv-x="864" unicode="&#8542;" /><glyph d="M453 162 270 298 557 278H983V439H557L269 419L453 555L353 670L55 404V314L353 48Z" glyph-name="uni2190" horiz-adv-x="1042" unicode="&#8592;" /><glyph d="M361 266 343 496 437 351 547 439 327 709H237L18 439L127 351L221 497L204 266V-2H361Z" glyph-name="uni2191" horiz-adv-x="564" unicode="&#8593;" /><glyph d="M689 48 987 314V404L689 670L590 555L773 419L485 439H59V278H485L772 298L590 162Z" glyph-name="uni2192" horiz-adv-x="1042" unicode="&#8594;" /><glyph d="M327 -9 547 261 437 349 343 204 361 434V702H204V434L221 203L127 349L18 261L237 -9Z" glyph-name="uni2193" horiz-adv-x="564" unicode="&#8595;" /><glyph d="M314 -114V205C379 224 427 284 427 355C427 426 379 486 314 505V811H191V505C126 486 78 426 78 355C78 284 126 224 191 205V-114Z" glyph-name="uni237F" horiz-adv-x="505" unicode="&#9087;" /><glyph d="M117 708V-8L125 -12L727 341V359L125 712Z" glyph-name="uni25B6" horiz-adv-x="798" unicode="&#9654;" /><glyph d="M98 548V172L106 168L496 351V369L106 552Z" glyph-name="uni25B6.tab" horiz-adv-x="564" /><glyph d="M680 -8V708L672 712L70 359V341L672 -12Z" glyph-name="uni25C0" horiz-adv-x="798" unicode="&#9664;" /><glyph d="M467 172V548L459 552L69 369V351L459 168Z" glyph-name="uni25C0.tab" horiz-adv-x="564" /><glyph d="M249 -114 307 -158H415L315 -37H185L85 -158H191Z" glyph-name="uniA788" horiz-adv-x="500" unicode="&#42888;" /><glyph d="M561 -79C508 -65 500 -60 500 -47C500 -40 503 -33 524 0H538V532H352V182C329 166 300 154 277 154C246 154 231 170 231 203V532H45V157C45 48 100 -9 201 -9C268 -9 318 19 364 53L392 0H416C359 -38 345 -56 345 -80C345 -124 400 -145 550 -152Z" glyph-name="uogonek" horiz-adv-x="586" unicode="&#371;" /><glyph d="M364 53 392 0H538V532H352V182C329 166 300 154 277 154C246 154 231 170 231 203V532H45V157C45 48 100 -9 201 -9C268 -9 318 19 364 53ZM178 676C178 616 226 570 291 570C356 570 404 616 404 676C404 736 356 783 291 783C226 783 178 736 178 676ZM229 676C229 713 256 739 291 739C326 739 353 713 353 676C353 639 326 613 291 613C256 613 229 639 229 676Z" glyph-name="uring" horiz-adv-x="586" unicode="&#367;" /><glyph d="M364 53 392 0H538V532H352V182C329 166 300 154 277 154C246 154 231 170 231 203V532H45V157C45 48 100 -9 201 -9C268 -9 318 19 364 53ZM186 571C203 610 214 618 232 618C249 618 263 612 296 596C335 578 353 572 378 572C418 572 453 601 482 700L406 721C389 682 378 674 360 674C343 674 328 680 296 696C257 714 239 720 214 720C174 720 138 691 110 592Z" glyph-name="utilde" horiz-adv-x="586" unicode="&#361;" /><glyph d="M378 -3 549 532H362L279 199L193 532H3L174 -3Z" glyph-name="v" horiz-adv-x="552" unicode="v" /><glyph d="M488 -2H682L815 532H634L578 230L505 532H320L247 230L192 532H7L140 -2H334L410 297Z" glyph-name="w" horiz-adv-x="822" unicode="w" /><glyph d="M488 -2H682L815 532H634L578 230L505 532H320L247 230L192 532H7L140 -2H334L410 297ZM452 578 618 693H407L334 578Z" glyph-name="wacute" horiz-adv-x="822" unicode="&#7811;" /><glyph d="M488 -2H682L815 532H634L578 230L505 532H320L247 230L192 532H7L140 -2H334L410 297ZM410 622 468 578H576L476 699H346L246 578H352Z" glyph-name="wcircumflex" horiz-adv-x="822" unicode="&#373;" /><glyph d="M488 -2H682L815 532H634L578 230L505 532H320L247 230L192 532H7L140 -2H334L410 297ZM385 578V705H251V578ZM571 578V705H437V578Z" glyph-name="wdieresis" horiz-adv-x="822" unicode="&#7813;" /><glyph d="M488 -2H682L815 532H634L578 230L505 532H320L247 230L192 532H7L140 -2H334L410 297ZM370 578H488L415 693H204Z" glyph-name="wgrave" horiz-adv-x="822" unicode="&#7809;" /><glyph d="M343 0H537L380 272L533 532H341L271 394L203 532H8L159 273L3 0H195L268 144Z" glyph-name="x" horiz-adv-x="541" unicode="x" /><glyph d="M75 -180C303 -131 357 -81 419 109L549 532H362L282 205L199 532H9L172 17C136 -2 88 -19 34 -33Z" glyph-name="y" horiz-adv-x="551" unicode="y" /><glyph d="M75 -180C303 -131 357 -81 419 109L549 532H362L282 205L199 532H9L172 17C136 -2 88 -19 34 -33ZM320 575 486 690H275L202 575Z" glyph-name="yacute" horiz-adv-x="551" unicode="&#253;" /><glyph d="M75 -180C303 -131 357 -81 419 109L549 532H362L282 205L199 532H9L172 17C136 -2 88 -19 34 -33ZM278 622 336 578H444L344 699H214L114 578H220Z" glyph-name="ycircumflex" horiz-adv-x="551" unicode="&#375;" /><glyph d="M75 -180C303 -131 357 -81 419 109L549 532H362L282 205L199 532H9L172 17C136 -2 88 -19 34 -33ZM253 578V705H119V578ZM439 578V705H305V578Z" glyph-name="ydieresis" horiz-adv-x="551" unicode="&#255;" /><glyph d="M557 85V178H407V232H557V326H424L620 700H413L310 457L208 700H0L196 326H63V232H213V178H63V85H213V0H407V85Z" glyph-name="yen" horiz-adv-x="619" unicode="&#165;" /><glyph d="M502 85V178H375V232H502V326H390L562 700H368L283 458L198 700H3L174 326H62V232H189V178H62V85H189V0H375V85Z" glyph-name="yen.tab" horiz-adv-x="564" /><glyph d="M75 -180C303 -131 357 -81 419 109L549 532H362L282 205L199 532H9L172 17C136 -2 88 -19 34 -33ZM238 575H356L283 690H72Z" glyph-name="ygrave" horiz-adv-x="551" unicode="&#7923;" /><glyph d="M485 0V143H254L486 386V532H42V389H258L26 145V0Z" glyph-name="z" horiz-adv-x="514" unicode="z" /><glyph d="M485 0V143H254L486 386V532H42V389H258L26 145V0ZM305 578 471 693H260L187 578Z" glyph-name="zacute" horiz-adv-x="514" unicode="&#378;" /><glyph d="M485 0V143H254L486 386V532H42V389H258L26 145V0ZM265 655 207 699H99L199 578H329L429 699H323Z" glyph-name="zcaron" horiz-adv-x="514" unicode="&#382;" /><glyph d="M485 0V143H254L486 386V532H42V389H258L26 145V0ZM334 578V705H194V578Z" glyph-name="zdotaccent" horiz-adv-x="514" unicode="&#380;" /><glyph d="M596 350C596 591 480 712 313 712C147 712 30 590 30 350C30 109 146 -12 313 -12C480 -12 596 109 596 350ZM404 349C404 200 371 149 313 149C257 149 222 202 222 351C222 500 256 551 313 551C370 551 404 498 404 349Z" glyph-name="zero" horiz-adv-x="626" unicode="0" /><glyph d="M219 -8C336 -8 413 71 413 211C413 351 336 429 219 429C103 429 26 351 26 211C26 71 103 -8 219 -8ZM219 322C255 322 277 290 277 210C277 130 255 100 219 100C184 100 162 132 162 212C162 292 184 322 219 322Z" glyph-name="zero.den" horiz-adv-x="439" /><glyph d="M219 270C336 270 413 349 413 489C413 629 336 707 219 707C103 707 26 629 26 489C26 349 103 270 219 270ZM219 600C255 600 277 568 277 488C277 408 255 378 219 378C184 378 162 410 162 490C162 570 184 600 219 600Z" glyph-name="zero.num" horiz-adv-x="439" /><glyph d="M533 350C533 595 437 712 282 712C128 712 31 595 31 350C31 105 127 -12 282 -12C437 -12 533 105 533 350ZM349 349C349 196 324 152 282 152C241 152 216 198 216 351C216 504 240 548 282 548C324 548 349 502 349 349Z" glyph-name="zero.tab" horiz-adv-x="564" /></font>
</defs>
</svg>
