<?xml version="1.0" encoding="UTF-8"?>
<svg width="14px" height="14px" viewBox="0 0 14 14" version="1.1" xmlns="http://www.w3.org/2000/svg" xmlns:xlink="http://www.w3.org/1999/xlink">
    <!-- Generator: Sketch 44.1 (41455) - http://www.bohemiancoding.com/sketch -->
    <title>pound</title>
    <desc>Created with Sketch.</desc>
    <defs></defs>
    <g id="icons" stroke="none" stroke-width="1" fill="none" fill-rule="evenodd">
        <g id="pound-copy-6"></g>
        <path d="M8.62500078,3.99999879 L8.89050429,1.87597196 L8.89050429,1.87597196 C8.95305792,1.37554317 9.37845891,1.00000676 9.88278216,1.00000676 L9.88278216,1.00000676 L10,1.00000676 L10,1.00000676 C10.4875471,1.00000676 10.8827822,1.3952418 10.8827822,1.88278892 C10.8827822,1.91939352 10.8805054,1.95596269 10.8759652,1.99228463 L10.6250008,3.99999879 L12.4999999,3.99999879 L12.4999999,3.99999879 C13.0522847,3.99999879 13.5,4.4477141 13.5,4.99999893 C13.5,5.55228375 13.0522847,5.99999906 12.4999999,5.99999906 L10.3750006,5.99999906 L10.1250004,7.99999933 L11.9999999,7.99999933 C12.5522847,7.99999933 13,8.44771464 13,8.99999946 C13,9.55228429 12.5522847,9.9999996 11.9999999,9.9999996 L9.87500026,9.9999996 L9.60949571,12.1240348 C9.54694208,12.6244636 9.12154109,13 8.61721784,13 L8.5,13 C8.01245288,13 7.61721784,12.604765 7.61721784,12.1172178 C7.61721784,12.0806132 7.61949456,12.0440441 7.6240348,12.0077221 L7.87500026,9.9999996 L5.87500005,9.9999996 L5.60949566,12.1240347 C5.54694206,12.6244636 5.12154105,13 4.61721778,13 L4.5,13 C4.01245284,13 3.61721778,12.6047649 3.61721778,12.1172178 C3.61721778,12.0806132 3.61949449,12.044044 3.62403473,12.0077221 L3.87500005,9.9999996 L2.00000013,9.9999996 C1.44771531,9.9999996 1,9.55228429 1,8.99999946 L1,8.99999946 L1,8.99999946 C1,8.44771464 1.44771531,7.99999933 2.00000013,7.99999933 L2.00000013,7.99999933 L4.12500008,7.99999933 L4.37500012,5.99999906 L2.50000013,5.99999906 C1.94771531,5.99999906 1.5,5.55228375 1.5,4.99999893 L1.5,4.99999893 L1.5,4.99999893 C1.5,4.4477141 1.94771531,3.99999879 2.50000013,3.99999879 L2.50000013,3.99999879 L4.62500015,3.99999879 L4.89050434,1.87596527 L4.89050434,1.87596527 C4.95305794,1.37553644 5.37845895,1 5.88278222,1 L5.88278222,1 L6,1 L6,1 C6.48754716,1 6.88278222,1.39523506 6.88278222,1.88278222 C6.88278222,1.9193868 6.88050551,1.95595596 6.87596527,1.99227788 L6.62500015,3.99999879 L8.62500078,3.99999879 Z M8.37500061,5.99999906 L6.37500012,5.99999906 L6.12500008,7.99999933 L8.12500044,7.99999933 L8.37500061,5.99999906 Z" id="pound" fill="#333333"></path>
    </g>
</svg>