<?xml version="1.0" encoding="UTF-8"?>
<svg width="24px" height="24px" viewBox="0 0 24 24" version="1.1" xmlns="http://www.w3.org/2000/svg" xmlns:xlink="http://www.w3.org/1999/xlink">
    <!-- Generator: Sketch 44.1 (41455) - http://www.bohemiancoding.com/sketch -->
    <title>i-lg</title>
    <desc>Created with Sketch.</desc>
    <defs></defs>
    <g id="icons" stroke="none" stroke-width="1" fill="none" fill-rule="evenodd">
        <g id="i-lg" fill="#333333">
            <path d="M13.8828967,19.6503255 C13.8755926,19.7018733 13.8439413,19.7435897 13.8018872,19.7566095 C13.4501819,19.8676764 12.9143239,20 12.3596522,20 C11.5223325,20 10.9059077,19.7263186 10.5276419,19.1861299 C10.1183889,18.6020991 9.99443993,17.7295071 10.159115,16.5922678 L10.9127691,11.5350073 L9.61064075,11.5350073 C9.5778828,11.5350073 9.54667422,11.5177361 9.52564716,11.4874452 C9.5046201,11.4571542 9.49598793,11.4172977 9.50174271,11.3787698 L9.82046867,9.25043178 C9.82998618,9.18719277 9.87580304,9.14095921 9.92936671,9.14095921 L13.6146357,9.14095921 C13.6473936,9.14095921 13.6783809,9.15823037 13.6996293,9.18852132 C13.7206563,9.21881228 13.7295098,9.25840308 13.7235337,9.29719676 L12.6077715,16.7580709 C12.5550932,17.1279394 12.5783336,17.3779726 12.6790422,17.5214561 C12.7642571,17.6428856 12.9205213,17.7018733 13.1562458,17.7018733 C13.434467,17.7018733 13.7396913,17.6367743 14.0152565,17.5182676 C14.0524412,17.5020593 14.0933886,17.5110934 14.1237119,17.5413843 C14.1538138,17.5716753 14.1682007,17.6189717 14.1617819,17.665471 L13.8828967,19.6503255 Z M12.5403384,7.85253089 C11.4595373,7.85253089 10.5804065,6.98844161 10.5804065,5.92613259 C10.5804065,4.86408928 11.4595373,4 12.5403384,4 C13.6208691,4 14.5,4.86408928 14.5,5.92613259 C14.5,6.9881759 13.6208691,7.85253089 12.5403384,7.85253089 Z" id="Combined-Shape"></path>
        </g>
    </g>
</svg>