<?xml version="1.0" encoding="UTF-8"?>
<svg width="14px" height="14px" viewBox="0 0 14 14" version="1.1" xmlns="http://www.w3.org/2000/svg" xmlns:xlink="http://www.w3.org/1999/xlink">
    <!-- Generator: Sketch 41.2 (35397) - http://www.bohemiancoding.com/sketch -->
    <title>magnifying-glass-shape-sm</title>
    <desc>Created with Sketch.</desc>
    <defs></defs>
    <g id="Page-1" stroke="none" stroke-width="1" fill="none" fill-rule="evenodd">
        <path d="M10.939942,9.2340327 C12.6028453,6.67043434 12.0678156,3.26019795 9.70045588,1.33364748 C7.33309621,-0.592902983 3.89836887,-0.413243404 1.74333329,1.74985906 C-0.41170229,3.91296153 -0.590691862,7.36054599 1.32867389,9.73676733 C3.24803965,12.1129887 6.64555821,12.6500211 9.1995961,10.9808932 L11.9319392,13.601184 C12.2238505,13.930881 12.6737298,14.0710795 13.1003408,13.9652998 C13.5269519,13.8595201 13.860044,13.5251812 13.9654292,13.0969732 C14.0708144,12.6687652 13.9311387,12.2172019 13.6026713,11.9241979 L10.939942,9.2340327 Z M5.97995615,10.4044292 C3.57703986,10.4044292 1.62909134,8.44918901 1.62909134,6.03727796 C1.62909134,3.62536691 3.57703986,1.67012668 5.97995615,1.67012668 C8.38287243,1.67012668 10.330821,3.62536691 10.330821,6.03727796 C10.330821,7.19551849 9.87242758,8.30632051 9.05648215,9.12532025 C8.24053673,9.94431998 7.13387724,10.4044292 5.97995615,10.4044292 L5.97995615,10.4044292 Z" id="magnifying-glass" fill="#333333"></path>
    </g>
</svg>