<?xml version="1.0" standalone="no"?><!DOCTYPE svg PUBLIC "-//W3C//DTD SVG 1.1//EN" "http://www.w3.org/Graphics/SVG/1.1/DTD/svg11.dtd" ><svg version="1.1" xmlns="http://www.w3.org/2000/svg"><defs><font horiz-adv-x="0" id="font"><font-face ascent="800" bbox="-257 -240 1139 1138" cap-height="736" descent="-200" font-family="Retina MP" font-stretch="normal" font-style="normal" font-weight="350" units-per-em="1000" x-height="554" /><missing-glyph d="M100 -240H600V960H100ZM192 910H507L350 429ZM321 360 150 -154V874ZM378 360 550 874V-154ZM350 291 507 -190H192Z" horiz-adv-x="700" /><glyph d="M204 221 196 233 227 279 343 606 357 686H377L392 606L508 279L539 233L530 221L487 230H248ZM45 0H126L176 139L180 174L190 181L230 168H505L545 181L555 174L558 139L609 0H691L418 746H317Z" glyph-name="A" horiz-adv-x="736" unicode="A" /><glyph d="M520 262 532 225 523 216 485 228H296L241 218L234 232L274 279L454 607L483 675H520ZM519 130V0H976V71H635L595 59L586 68L598 105V309L586 346L595 355L635 343H912V412H635L595 400L586 409L598 446V631L586 668L595 677L635 665H966V736H448L36 5V0H119L193 133L199 169L209 176L254 165H484L522 177L531 168Z" glyph-name="AE" horiz-adv-x="1028" unicode="&#198;" /><glyph d="M520 262 532 225 523 216 485 228H296L241 218L234 232L274 279L454 607L483 675H520ZM519 130V0H976V71H635L595 59L586 68L598 105V309L586 346L595 355L635 343H912V412H635L595 400L586 409L598 446V631L586 668L595 677L635 665H966V736H448L36 5V0H119L193 133L199 169L209 176L254 165H484L522 177L531 168ZM594 821 816 940V945H663L518 826V821Z" glyph-name="AEacute" horiz-adv-x="1028" unicode="&#508;" /><glyph d="M204 221 196 233 227 279 343 606 357 686H377L392 606L508 279L539 233L530 221L487 230H248ZM45 0H126L176 139L180 174L190 181L230 168H505L545 181L555 174L558 139L609 0H691L418 746H317ZM403 821 625 940V945H472L327 826V821Z" glyph-name="Aacute" horiz-adv-x="736" unicode="&#193;" /><glyph d="M204 221 196 233 227 279 343 606 357 686H377L392 606L508 279L539 233L530 221L487 230H248ZM45 0H126L176 139L180 174L190 181L230 168H505L545 181L555 174L558 139L609 0H691L418 746H317ZM367 821C473 821 538 873 542 956H489C480 908 441 881 369 881C297 881 256 908 247 956H194C198 873 261 821 367 821Z" glyph-name="Abreve" horiz-adv-x="736" unicode="&#258;" /><glyph d="M204 221 196 233 227 279 343 606 357 686H377L392 606L508 279L539 233L530 221L487 230H248ZM45 0H126L176 139L180 174L190 181L230 168H505L545 181L555 174L558 139L609 0H691L418 746H317ZM179 821H237L330 879L358 907H376L404 879L497 821H557V826L411 955H325L179 826Z" glyph-name="Acircumflex" horiz-adv-x="736" unicode="&#194;" /><glyph d="M204 221 196 233 227 279 343 606 357 686H377L392 606L508 279L539 233L530 221L487 230H248ZM45 0H126L176 139L180 174L190 181L230 168H505L545 181L555 174L558 139L609 0H691L418 746H317ZM437 823H533V933H437ZM203 823H299V933H203Z" glyph-name="Adieresis" horiz-adv-x="736" unicode="&#196;" /><glyph d="M204 221 196 233 227 279 343 606 357 686H377L392 606L508 279L539 233L530 221L487 230H248ZM45 0H126L176 139L180 174L190 181L230 168H505L545 181L555 174L558 139L609 0H691L418 746H317ZM333 821H409V826L264 945H111V940Z" glyph-name="Agrave" horiz-adv-x="736" unicode="&#192;" /><glyph d="M204 221 196 233 227 279 343 606 357 686H377L392 606L508 279L539 233L530 221L487 230H248ZM45 0H126L176 139L180 174L190 181L230 168H505L545 181L555 174L558 139L609 0H691L418 746H317ZM175 832H561V893H175Z" glyph-name="Amacron" horiz-adv-x="736" unicode="&#256;" /><glyph d="M749 -157V-147C659 -120 640 -109 640 -94C640 -83 645 -73 691 0L418 746H317L45 0H126L176 139L180 174L190 181L230 168H505L545 181L555 174L558 139L605 10L644 2V-11C577 -70 563 -91 563 -111C563 -127 575 -141 603 -157ZM204 221 196 233 227 279 343 606 357 686H377L392 606L508 279L539 233L530 221L487 230H248Z" glyph-name="Aogonek" horiz-adv-x="736" unicode="&#260;" /><glyph d="M368 737C308 737 270 761 270 804C270 848 308 872 368 872C428 872 465 848 465 804C465 761 428 737 368 737ZM204 221 196 233 227 279 343 606 357 684H378L392 606L508 279L539 233L530 221L487 230H248ZM176 139 180 174 190 181 230 168H505L545 181L555 174L558 139L609 0H691L436 696L420 706V712C469 726 502 760 502 806C502 868 443 905 368 905C293 905 234 866 234 804C234 758 267 726 315 712V706L299 696L45 0H126Z" glyph-name="Aring" horiz-adv-x="736" unicode="&#197;" /><glyph d="M368 737C308 737 270 761 270 804C270 848 308 872 368 872C428 872 465 848 465 804C465 761 428 737 368 737ZM204 221 196 233 227 279 343 606 357 684H378L392 606L508 279L539 233L530 221L487 230H248ZM176 139 180 174 190 181 230 168H505L545 181L555 174L558 139L609 0H691L436 696L420 706V712C469 726 502 760 502 806C502 868 443 905 368 905C293 905 234 866 234 804C234 758 267 726 315 712V706L299 696L45 0H126ZM403 962 625 1081V1086H472L327 967V962Z" glyph-name="Aringacute" horiz-adv-x="736" unicode="&#506;" /><glyph d="M204 221 196 233 227 279 343 606 357 686H377L392 606L508 279L539 233L530 221L487 230H248ZM45 0H126L176 139L180 174L190 181L230 168H505L545 181L555 174L558 139L609 0H691L418 746H317ZM382 914C326 949 303 959 277 959C231 959 203 928 159 832L199 813C235 879 251 899 274 899C291 899 303 892 354 861C410 826 434 816 459 816C505 816 533 847 577 943L538 961C502 896 485 876 463 876C446 876 434 883 382 914Z" glyph-name="Atilde" horiz-adv-x="736" unicode="&#195;" /><glyph d="M97 0H362C494 0 609 54 609 181C609 301 500 356 376 378V387C479 409 580 467 580 578C580 678 500 736 360 736H97ZM162 411 174 448V627L162 664L171 673H328C442 673 504 635 504 562C504 443 354 404 172 401ZM162 72 174 109V307L162 345L172 355H211C396 355 532 305 532 193C532 104 449 63 324 63H171Z" glyph-name="B" horiz-adv-x="667" unicode="B" /><glyph d="M399 -7C470 -7 522 7 583 33L562 103C508 79 461 66 404 66C332 66 272 92 224 140C175 189 141 271 141 369C141 464 174 546 223 594C273 644 333 670 401 670C458 670 502 659 557 635L578 706C520 732 468 743 401 743C311 743 228 708 164 644C100 580 59 481 59 367C59 248 99 153 163 89C228 24 312 -7 399 -7Z" glyph-name="C" horiz-adv-x="630" unicode="C" /><glyph d="M399 -7C470 -7 522 7 583 33L562 103C508 79 461 66 404 66C332 66 272 92 224 140C175 189 141 271 141 369C141 464 174 546 223 594C273 644 333 670 401 670C458 670 502 659 557 635L578 706C520 732 468 743 401 743C311 743 228 708 164 644C100 580 59 481 59 367C59 248 99 153 163 89C228 24 312 -7 399 -7ZM411 821 633 940V945H480L335 826V821Z" glyph-name="Cacute" horiz-adv-x="630" unicode="&#262;" /><glyph d="M399 -7C470 -7 522 7 583 33L562 103C508 79 461 66 404 66C332 66 272 92 224 140C175 189 141 271 141 369C141 464 174 546 223 594C273 644 333 670 401 670C458 670 502 659 557 635L578 706C520 732 468 743 401 743C311 743 228 708 164 644C100 580 59 481 59 367C59 248 99 153 163 89C228 24 312 -7 399 -7ZM565 955H507L414 898L386 869H368L340 898L247 955H187V951L333 821H419L565 951Z" glyph-name="Ccaron" horiz-adv-x="630" unicode="&#268;" /><glyph d="M326 -157 405 -7C473 -6 523 8 583 33L562 103C508 79 461 66 404 66C332 66 272 92 224 140C175 189 141 271 141 369C141 464 174 546 223 594C273 644 333 670 401 670C458 670 502 659 557 635L578 706C520 732 468 743 401 743C311 743 228 708 164 644C100 580 59 481 59 367C59 248 99 153 163 89C219 33 282 5 366 1V-12L331 -26L223 -153V-157Z" glyph-name="Ccedilla" horiz-adv-x="630" unicode="&#199;" /><glyph d="M399 -7C470 -7 522 7 583 33L562 103C508 79 461 66 404 66C332 66 272 92 224 140C175 189 141 271 141 369C141 464 174 546 223 594C273 644 333 670 401 670C458 670 502 659 557 635L578 706C520 732 468 743 401 743C311 743 228 708 164 644C100 580 59 481 59 367C59 248 99 153 163 89C228 24 312 -7 399 -7ZM187 821H245L338 879L366 907H384L412 879L505 821H565V826L419 955H333L187 826Z" glyph-name="Ccircumflex" horiz-adv-x="630" unicode="&#264;" /><glyph d="M399 -7C470 -7 522 7 583 33L562 103C508 79 461 66 404 66C332 66 272 92 224 140C175 189 141 271 141 369C141 464 174 546 223 594C273 644 333 670 401 670C458 670 502 659 557 635L578 706C520 732 468 743 401 743C311 743 228 708 164 644C100 580 59 481 59 367C59 248 99 153 163 89C228 24 312 -7 399 -7ZM323 821H429V935H323Z" glyph-name="Cdotaccent" horiz-adv-x="630" unicode="&#266;" /><glyph d="M97 736V0H261C473 0 642 127 642 369C642 610 473 736 266 736ZM167 80 179 118V618L167 656L176 665H256C439 665 559 562 559 367C559 171 439 71 259 71H176Z" glyph-name="D" horiz-adv-x="701" unicode="D" /><glyph d="M97 736V0H261C473 0 642 127 642 369C642 610 473 736 266 736ZM167 80 179 118V618L167 656L176 665H256C439 665 559 562 559 367C559 171 439 71 259 71H176ZM520 955H462L369 898L341 869H323L295 898L202 955H142V951L288 821H374L520 951Z" glyph-name="Dcaron" horiz-adv-x="701" unicode="&#270;" /><glyph d="M150 447 162 409 153 400 116 412H25V343H116L153 355L162 346L150 308V0H315C526 0 695 127 695 369C695 610 526 736 320 736H150ZM216 80 227 115V313L216 348L225 357L264 345H424V411H264L225 399L216 408L227 443V621L216 656L225 665H310C493 665 612 562 612 367C612 171 493 71 312 71H225Z" glyph-name="Dcroat" horiz-adv-x="755" unicode="&#272;" /><glyph d="M97 0H567V71H214L175 59L166 68L178 105V309L166 346L175 355L214 343H503V412H214L175 400L166 409L178 446V631L166 668L175 677L214 665H557V736H97Z" glyph-name="E" horiz-adv-x="620" unicode="E" /><glyph d="M97 0H567V71H214L175 59L166 68L178 105V309L166 346L175 355L214 343H503V412H214L175 400L166 409L178 446V631L166 668L175 677L214 665H557V736H97ZM367 821 589 940V945H436L291 826V821Z" glyph-name="Eacute" horiz-adv-x="620" unicode="&#201;" /><glyph d="M97 0H567V71H214L175 59L166 68L178 105V309L166 346L175 355L214 343H503V412H214L175 400L166 409L178 446V631L166 668L175 677L214 665H557V736H97ZM331 821C437 821 502 873 506 956H453C444 908 405 881 333 881C261 881 220 908 211 956H158C162 873 225 821 331 821Z" glyph-name="Ebreve" horiz-adv-x="620" unicode="&#276;" /><glyph d="M97 0H567V71H214L175 59L166 68L178 105V309L166 346L175 355L214 343H503V412H214L175 400L166 409L178 446V631L166 668L175 677L214 665H557V736H97ZM521 955H463L370 898L342 869H324L296 898L203 955H143V951L289 821H375L521 951Z" glyph-name="Ecaron" horiz-adv-x="620" unicode="&#282;" /><glyph d="M97 0H567V71H214L175 59L166 68L178 105V309L166 346L175 355L214 343H503V412H214L175 400L166 409L178 446V631L166 668L175 677L214 665H557V736H97ZM143 821H201L294 879L322 907H340L368 879L461 821H521V826L375 955H289L143 826Z" glyph-name="Ecircumflex" horiz-adv-x="620" unicode="&#202;" /><glyph d="M97 0H567V71H214L175 59L166 68L178 105V309L166 346L175 355L214 343H503V412H214L175 400L166 409L178 446V631L166 668L175 677L214 665H557V736H97ZM401 823H497V933H401ZM167 823H263V933H167Z" glyph-name="Edieresis" horiz-adv-x="620" unicode="&#203;" /><glyph d="M97 0H567V71H214L175 59L166 68L178 105V309L166 346L175 355L214 343H503V412H214L175 400L166 409L178 446V631L166 668L175 677L214 665H557V736H97ZM279 821H385V935H279Z" glyph-name="Edotaccent" horiz-adv-x="620" unicode="&#278;" /><glyph d="M97 0H567V71H214L175 59L166 68L178 105V309L166 346L175 355L214 343H503V412H214L175 400L166 409L178 446V631L166 668L175 677L214 665H557V736H97ZM297 821H373V826L228 945H75V940Z" glyph-name="Egrave" horiz-adv-x="620" unicode="&#200;" /><glyph d="M97 0H567V71H214L175 59L166 68L178 105V309L166 346L175 355L214 343H503V412H214L175 400L166 409L178 446V631L166 668L175 677L214 665H557V736H97ZM139 832H525V893H139Z" glyph-name="Emacron" horiz-adv-x="620" unicode="&#274;" /><glyph d="M431 -157H526C616 -39 636 1 636 69V736H561L562 197L583 83L563 76L214 736H97V0H172L171 548L151 663L171 670L518 13L558 6V-11L431 -149Z" glyph-name="Eng" horiz-adv-x="733" unicode="&#330;" /><glyph d="M574 -147C484 -120 466 -109 466 -94C466 -83 471 -73 516 0H567V71H214L175 59L166 68L178 105V309L166 346L175 355L214 343H503V412H214L175 400L166 409L178 446V631L166 668L175 677L214 665H557V736H97V0H423L472 13L478 -1C404 -69 388 -90 388 -111C388 -127 401 -141 429 -157H574Z" glyph-name="Eogonek" horiz-adv-x="620" unicode="&#280;" /><glyph d="M150 447 162 409 153 400 116 412H25V343H116L153 355L162 346L150 308V0H315C526 0 695 127 695 369C695 610 526 736 320 736H150ZM216 80 227 115V313L216 348L225 357L264 345H424V411H264L225 399L216 408L227 443V621L216 656L225 665H310C493 665 612 562 612 367C612 171 493 71 312 71H225Z" glyph-name="Eth" horiz-adv-x="755" unicode="&#208;" /><glyph d="M583 0 576 68C552 66 517 64 488 64C338 64 249 127 209 255L218 265L267 253H521V306H243L209 295L200 304L211 336V396L200 429L209 438L243 426H521V479H267L218 467L209 477C250 611 338 672 489 672C521 672 551 671 576 669L583 736C561 738 532 740 503 740C306 740 189 656 153 510L160 477L151 468L118 479H43V426H112L144 438L153 429L142 396V336L153 304L144 295L112 306H43V253H117L150 265L159 256L152 223C189 78 306 -4 502 -4C532 -4 562 -2 583 0Z" glyph-name="Euro" horiz-adv-x="643" unicode="&#8364;" /><glyph d="M512 -2 505 66C491 65 474 64 454 64C320 64 236 125 195 255L204 265L253 253H468V306H230L196 295L187 304L198 336V396L187 429L196 438L230 426H468V479H254L204 467L194 478C237 612 321 672 454 672C472 672 490 671 505 670L512 738C500 739 483 740 466 740C288 740 177 656 139 510L146 477L137 468L104 479H29V426H98L131 438L140 429L128 396V336L140 304L131 295L98 306H29V253H104L136 265L145 256L139 223C176 78 288 -4 466 -4C483 -4 499 -3 512 -2Z" glyph-name="Euro.tab" horiz-adv-x="555" /><glyph d="M97 0H179V278L167 315L176 324L214 313H452V385H214L176 373L167 382L179 420V629L167 666L176 675L214 664H557V736H97Z" glyph-name="F" horiz-adv-x="587" unicode="F" /><glyph d="M627 58V383H358V317H518L558 329L567 320L555 283V133L570 101L564 85C512 67 462 58 411 58C242 58 143 175 143 368C143 543 239 671 383 671C460 671 511 653 564 626L594 694C530 728 465 744 387 744C202 744 61 589 61 367C61 135 196 -7 392 -7C485 -7 562 19 627 58Z" glyph-name="G" horiz-adv-x="708" unicode="G" /><glyph d="M627 58V383H358V317H518L558 329L567 320L555 283V133L570 101L564 85C512 67 462 58 411 58C242 58 143 175 143 368C143 543 239 671 383 671C460 671 511 653 564 626L594 694C530 728 465 744 387 744C202 744 61 589 61 367C61 135 196 -7 392 -7C485 -7 562 19 627 58ZM372 821C478 821 543 873 547 956H494C485 908 446 881 374 881C302 881 261 908 252 956H199C203 873 266 821 372 821Z" glyph-name="Gbreve" horiz-adv-x="708" unicode="&#286;" /><glyph d="M627 58V383H358V317H518L558 329L567 320L555 283V133L570 101L564 85C512 67 462 58 411 58C242 58 143 175 143 368C143 543 239 671 383 671C460 671 511 653 564 626L594 694C530 728 465 744 387 744C202 744 61 589 61 367C61 135 196 -7 392 -7C485 -7 562 19 627 58ZM562 955H504L411 898L383 869H365L337 898L244 955H184V951L330 821H416L562 951Z" glyph-name="Gcaron" horiz-adv-x="708" unicode="&#486;" /><glyph d="M627 58V383H358V317H518L558 329L567 320L555 283V133L570 101L564 85C512 67 462 58 411 58C242 58 143 175 143 368C143 543 239 671 383 671C460 671 511 653 564 626L594 694C530 728 465 744 387 744C202 744 61 589 61 367C61 135 196 -7 392 -7C485 -7 562 19 627 58ZM184 821H242L335 879L363 907H381L409 879L502 821H562V826L416 955H330L184 826Z" glyph-name="Gcircumflex" horiz-adv-x="708" unicode="&#284;" /><glyph d="M627 58V383H358V317H518L558 329L567 320L555 283V133L570 101L564 85C512 67 462 58 411 58C242 58 143 175 143 368C143 543 239 671 383 671C460 671 511 653 564 626L594 694C530 728 465 744 387 744C202 744 61 589 61 367C61 135 196 -7 392 -7C485 -7 562 19 627 58ZM320 821H426V935H320Z" glyph-name="Gdotaccent" horiz-adv-x="708" unicode="&#288;" /><glyph d="M97 0H179V305L167 343L176 352L214 340H509L547 352L556 343L544 305V0H626V736H544V450L556 413L547 404L509 416H214L176 404L167 413L179 450V736H97Z" glyph-name="H" horiz-adv-x="723" unicode="H" /><glyph d="M597 519V432L609 396L600 387L562 399H268L230 387L221 396L232 432V519L221 555L230 564L268 552H562L600 564L609 555ZM679 651V736H597V649L609 613L600 604L563 616H267L230 604L221 613L232 649V736H150V651L162 614L153 605L116 617H25V551H116L153 563L162 554L150 516V0H232V294L221 331L230 340L267 329H563L600 340L609 331L597 294V0H679V516L667 554L676 563L714 551H804V617H714L676 605L667 614Z" glyph-name="Hbar" horiz-adv-x="830" unicode="&#294;" /><glyph d="M97 0H179V305L167 343L176 352L214 340H509L547 352L556 343L544 305V0H626V736H544V450L556 413L547 404L509 416H214L176 404L167 413L179 450V736H97ZM173 821H231L324 879L352 907H370L398 879L491 821H551V826L405 955H319L173 826Z" glyph-name="Hcircumflex" horiz-adv-x="723" unicode="&#292;" /><glyph d="M113 0H195V736H113Z" glyph-name="I" horiz-adv-x="308" unicode="I" /><glyph d="M113 0H195V736H113ZM190 821 412 940V945H259L114 826V821Z" glyph-name="Iacute" horiz-adv-x="308" unicode="&#205;" /><glyph d="M113 0H195V736H113ZM154 821C260 821 325 873 329 956H276C267 908 228 881 156 881C84 881 43 908 34 956H-19C-15 873 48 821 154 821Z" glyph-name="Ibreve" horiz-adv-x="308" unicode="&#300;" /><glyph d="M113 0H195V736H113ZM-34 821H24L117 879L145 907H163L191 879L284 821H344V826L198 955H112L-34 826Z" glyph-name="Icircumflex" horiz-adv-x="308" unicode="&#206;" /><glyph d="M113 0H195V736H113ZM224 823H320V933H224ZM-10 823H86V933H-10Z" glyph-name="Idieresis" horiz-adv-x="308" unicode="&#207;" /><glyph d="M113 0H195V736H113ZM102 821H208V935H102Z" glyph-name="Idotaccent" horiz-adv-x="308" unicode="&#304;" /><glyph d="M113 0H195V736H113ZM120 821H196V826L51 945H-102V940Z" glyph-name="Igrave" horiz-adv-x="308" unicode="&#204;" /><glyph d="M113 0H195V736H113ZM-5 832H315V893H-5Z" glyph-name="Imacron" horiz-adv-x="308" unicode="&#298;" /><glyph d="M253 -157V-147C163 -120 145 -109 145 -94C145 -83 150 -73 195 0V736H113V8L148 2V-12C81 -71 67 -91 67 -111C67 -127 79 -141 107 -157Z" glyph-name="Iogonek" horiz-adv-x="308" unicode="&#302;" /><glyph d="M113 0H195V736H113ZM169 914C113 949 90 959 64 959C18 959 -10 928 -54 832L-14 813C22 879 38 899 61 899C78 899 90 892 141 861C197 826 221 816 246 816C292 816 320 847 364 943L325 961C289 896 272 876 250 876C233 876 221 883 169 914Z" glyph-name="Itilde" horiz-adv-x="308" unicode="&#296;" /><glyph d="M164 -6C235 -6 293 16 338 62C389 112 415 188 415 294V736H333V290C333 205 313 148 279 113C247 82 209 66 163 66C120 66 89 73 49 86L32 15C75 1 111 -6 164 -6Z" glyph-name="J" horiz-adv-x="506" unicode="J" /><glyph d="M164 -6C235 -6 293 16 338 62C389 112 415 188 415 294V736H333V290C333 205 313 148 279 113C247 82 209 66 163 66C120 66 89 73 49 86L32 15C75 1 111 -6 164 -6ZM186 821H244L337 879L365 907H383L411 879L504 821H564V826L418 955H332L186 826Z" glyph-name="Jcircumflex" horiz-adv-x="506" unicode="&#308;" /><glyph d="M97 0H179V301L167 342L178 353H250L263 328L543 0H639V8L340 351L307 371V384L340 404L627 728V736H532L266 427L251 403H178L167 413L179 455V736H97Z" glyph-name="K" horiz-adv-x="658" unicode="K" /><glyph d="M97 0H528V73H214L176 61L167 70L179 107V736H97Z" glyph-name="L" horiz-adv-x="559" unicode="L" /><glyph d="M97 0H528V73H214L176 61L167 70L179 107V736H97ZM174 821 396 940V945H243L98 826V821Z" glyph-name="Lacute" horiz-adv-x="559" unicode="&#313;" /><glyph d="M97 0H528V73H214L176 61L167 70L179 107V736H97ZM284 553 316 545 408 723V736H322Z" glyph-name="Lcaron" horiz-adv-x="559" unicode="&#317;" /><glyph d="M150 416 164 388 158 378 127 375 25 327V253L117 297L151 327L163 319L150 277V0H582V73H264L227 61L218 70L230 107V320L216 348L222 358L253 361L451 455V529L263 439L229 410L217 417L230 460V736H150Z" glyph-name="Lslash" horiz-adv-x="612" unicode="&#321;" /><glyph d="M81 0H155L178 669H201L215 584L421 -8H495L700 584L714 669H737L760 0H837L803 736H680L484 171L468 68H449L433 171L237 736H115Z" glyph-name="M" horiz-adv-x="917" unicode="M" /><glyph d="M97 0H172L171 548L151 663L171 670L525 0H636V736H561L562 197L583 83L563 76L214 736H97Z" glyph-name="N" horiz-adv-x="733" unicode="N" /><glyph d="M97 0H172L171 548L151 663L171 670L525 0H636V736H561L562 197L583 83L563 76L214 736H97ZM402 821 624 940V945H471L326 826V821Z" glyph-name="Nacute" horiz-adv-x="733" unicode="&#323;" /><glyph d="M97 0H172L171 548L151 663L171 670L525 0H636V736H561L562 197L583 83L563 76L214 736H97ZM556 955H498L405 898L377 869H359L331 898L238 955H178V951L324 821H410L556 951Z" glyph-name="Ncaron" horiz-adv-x="733" unicode="&#327;" /><glyph d="M97 0H172L171 548L151 663L171 670L525 0H636V736H561L562 197L583 83L563 76L214 736H97ZM381 914C325 949 302 959 276 959C230 959 202 928 158 832L198 813C234 879 250 899 273 899C290 899 302 892 353 861C409 826 433 816 458 816C504 816 532 847 576 943L537 961C501 896 484 876 462 876C445 876 433 883 381 914Z" glyph-name="Ntilde" horiz-adv-x="733" unicode="&#209;" /><glyph d="M367 -10C540 -10 675 148 675 369C675 589 540 746 369 746C196 746 61 588 61 367C61 147 195 -10 367 -10ZM369 61C235 61 143 192 143 369C143 546 233 675 367 675C501 675 593 544 593 367C593 190 503 61 369 61Z" glyph-name="O" horiz-adv-x="736" unicode="O" /><glyph d="M525 78 516 69H445C260 69 143 177 143 369C143 563 260 667 443 667H516L525 658L514 620V116ZM440 736C229 736 60 609 60 367C60 126 228 0 435 0H974V69H592L583 78L595 115V310L583 346L592 355L631 343H909V412H631L592 400L583 409L595 446V621L583 658L592 667H963V736Z" glyph-name="OE" horiz-adv-x="1026" unicode="&#338;" /><glyph d="M367 -10C540 -10 675 148 675 369C675 589 540 746 369 746C196 746 61 588 61 367C61 147 195 -10 367 -10ZM369 61C235 61 143 192 143 369C143 546 233 675 367 675C501 675 593 544 593 367C593 190 503 61 369 61ZM403 821 625 940V945H472L327 826V821Z" glyph-name="Oacute" horiz-adv-x="736" unicode="&#211;" /><glyph d="M367 -10C540 -10 675 148 675 369C675 589 540 746 369 746C196 746 61 588 61 367C61 147 195 -10 367 -10ZM369 61C235 61 143 192 143 369C143 546 233 675 367 675C501 675 593 544 593 367C593 190 503 61 369 61ZM367 821C473 821 538 873 542 956H489C480 908 441 881 369 881C297 881 256 908 247 956H194C198 873 261 821 367 821Z" glyph-name="Obreve" horiz-adv-x="736" unicode="&#334;" /><glyph d="M367 -10C540 -10 675 148 675 369C675 589 540 746 369 746C196 746 61 588 61 367C61 147 195 -10 367 -10ZM369 61C235 61 143 192 143 369C143 546 233 675 367 675C501 675 593 544 593 367C593 190 503 61 369 61ZM179 821H237L330 879L358 907H376L404 879L497 821H557V826L411 955H325L179 826Z" glyph-name="Ocircumflex" horiz-adv-x="736" unicode="&#212;" /><glyph d="M367 -10C540 -10 675 148 675 369C675 589 540 746 369 746C196 746 61 588 61 367C61 147 195 -10 367 -10ZM369 61C235 61 143 192 143 369C143 546 233 675 367 675C501 675 593 544 593 367C593 190 503 61 369 61ZM437 823H533V933H437ZM203 823H299V933H203Z" glyph-name="Odieresis" horiz-adv-x="736" unicode="&#214;" /><glyph d="M367 -10C540 -10 675 148 675 369C675 589 540 746 369 746C196 746 61 588 61 367C61 147 195 -10 367 -10ZM369 61C235 61 143 192 143 369C143 546 233 675 367 675C501 675 593 544 593 367C593 190 503 61 369 61ZM333 821H409V826L264 945H111V940Z" glyph-name="Ograve" horiz-adv-x="736" unicode="&#210;" /><glyph d="M675 364C675 527 611 632 497 684L501 698C524 695 545 694 565 694C647 694 680 721 734 903L672 921C622 758 596 736 525 736H369C196 736 61 582 61 363C61 144 195 -10 367 -10C540 -10 675 145 675 364ZM143 366C143 542 233 670 367 670C501 670 593 540 593 364C593 188 503 61 369 61C235 61 143 190 143 366Z" glyph-name="Ohorn" horiz-adv-x="743" unicode="&#416;" /><glyph d="M367 -10C540 -10 675 148 675 369C675 589 540 746 369 746C196 746 61 588 61 367C61 147 195 -10 367 -10ZM369 61C235 61 143 192 143 369C143 546 233 675 367 675C501 675 593 544 593 367C593 190 503 61 369 61ZM434 821H485L693 940V945H561L434 826ZM211 821H262L470 940V945H338L211 826Z" glyph-name="Ohungarumlaut" horiz-adv-x="736" unicode="&#336;" /><glyph d="M367 -10C540 -10 675 148 675 369C675 589 540 746 369 746C196 746 61 588 61 367C61 147 195 -10 367 -10ZM369 61C235 61 143 192 143 369C143 546 233 675 367 675C501 675 593 544 593 367C593 190 503 61 369 61ZM175 832H561V893H175Z" glyph-name="Omacron" horiz-adv-x="736" unicode="&#332;" /><glyph d="M138 355C138 471 170 567 223 619C261 657 311 679 373 679C424 679 469 664 520 631V615L485 588L220 194L199 144H182C152 217 138 283 138 355ZM363 57C312 57 267 72 216 105V121L251 148L516 542L537 592H554C584 519 598 453 598 381C598 265 566 169 513 117C475 79 425 57 363 57ZM61 367C61 271 88 187 131 123L162 108V95L124 66L38 -57V-60H107L168 30L180 71H195L213 40C258 9 310 -10 367 -10C540 -10 675 148 675 369C675 465 648 549 605 613L574 628V641L612 670L698 793V796H629L567 706L556 665H541L523 696C478 727 426 746 369 746C196 746 61 588 61 367Z" glyph-name="Oslash" horiz-adv-x="736" unicode="&#216;" /><glyph d="M138 355C138 471 170 567 223 619C261 657 311 679 373 679C424 679 469 664 520 631V615L485 588L220 194L199 144H182C152 217 138 283 138 355ZM363 57C312 57 267 72 216 105V121L251 148L516 542L537 592H554C584 519 598 453 598 381C598 265 566 169 513 117C475 79 425 57 363 57ZM61 367C61 271 88 187 131 123L162 108V95L124 66L38 -57V-60H107L168 30L180 71H195L213 40C258 9 310 -10 367 -10C540 -10 675 148 675 369C675 465 648 549 605 613L574 628V641L612 670L698 793V796H629L567 706L556 665H541L523 696C478 727 426 746 369 746C196 746 61 588 61 367ZM403 821 625 940V945H472L327 826V821Z" glyph-name="Oslashacute" horiz-adv-x="736" unicode="&#510;" /><glyph d="M367 -10C540 -10 675 148 675 369C675 589 540 746 369 746C196 746 61 588 61 367C61 147 195 -10 367 -10ZM369 61C235 61 143 192 143 369C143 546 233 675 367 675C501 675 593 544 593 367C593 190 503 61 369 61ZM382 914C326 949 303 959 277 959C231 959 203 928 159 832L199 813C235 879 251 899 274 899C291 899 303 892 354 861C410 826 434 816 459 816C505 816 533 847 577 943L538 961C502 896 485 876 463 876C446 876 434 883 382 914Z" glyph-name="Otilde" horiz-adv-x="736" unicode="&#213;" /><glyph d="M166 324 178 362V623L166 661L175 670H285C422 670 501 609 501 499C501 376 406 315 261 315H175ZM97 736V0H179V216L167 253L176 262L214 251H293C382 251 463 277 516 330C556 371 580 428 580 503C580 657 464 736 306 736Z" glyph-name="P" horiz-adv-x="626" unicode="P" /><glyph d="M640 -115H742V-108L543 79L552 93L583 96C636 158 675 254 675 370C675 589 540 746 369 746C196 746 61 588 61 367C61 147 195 -8 366 -8C395 -8 426 -2 452 8L470 35H486ZM370 60C235 60 143 192 143 369C143 546 233 675 367 675C501 675 593 544 593 367C593 188 503 60 370 60Z" glyph-name="Q" horiz-adv-x="736" unicode="Q" /><glyph d="M166 349 178 387V623L166 661L175 670H308C441 670 511 624 511 527C511 411 393 340 240 340H175ZM179 239 167 276 176 285H243C328 285 363 259 413 194L565 0H666V8L520 185C470 250 424 283 361 303V313C473 340 593 403 593 541C593 673 491 736 337 736H97V0H179Z" glyph-name="R" horiz-adv-x="682" unicode="R" /><glyph d="M166 349 178 387V623L166 661L175 670H308C441 670 511 624 511 527C511 411 393 340 240 340H175ZM179 239 167 276 176 285H243C328 285 363 259 413 194L565 0H666V8L520 185C470 250 424 283 361 303V313C473 340 593 403 593 541C593 673 491 736 337 736H97V0H179ZM363 821 585 940V945H432L287 826V821Z" glyph-name="Racute" horiz-adv-x="682" unicode="&#340;" /><glyph d="M166 349 178 387V623L166 661L175 670H308C441 670 511 624 511 527C511 411 393 340 240 340H175ZM179 239 167 276 176 285H243C328 285 363 259 413 194L565 0H666V8L520 185C470 250 424 283 361 303V313C473 340 593 403 593 541C593 673 491 736 337 736H97V0H179ZM517 955H459L366 898L338 869H320L292 898L199 955H139V951L285 821H371L517 951Z" glyph-name="Rcaron" horiz-adv-x="682" unicode="&#344;" /><glyph d="M326 -5C464 -5 591 57 591 200C591 320 511 371 358 415C220 454 170 483 170 558C170 630 226 673 320 673C397 673 463 654 523 624L552 691C486 722 414 741 327 741C195 741 92 674 92 552C92 437 173 392 321 350C466 306 514 271 514 195C514 106 436 63 332 63C243 63 154 89 85 128L56 61C134 20 228 -5 326 -5Z" glyph-name="S" horiz-adv-x="659" unicode="S" /><glyph d="M326 -5C464 -5 591 57 591 200C591 320 511 371 358 415C220 454 170 483 170 558C170 630 226 673 320 673C397 673 463 654 523 624L552 691C486 722 414 741 327 741C195 741 92 674 92 552C92 437 173 392 321 350C466 306 514 271 514 195C514 106 436 63 332 63C243 63 154 89 85 128L56 61C134 20 228 -5 326 -5ZM362 821 584 940V945H431L286 826V821Z" glyph-name="Sacute" horiz-adv-x="659" unicode="&#346;" /><glyph d="M326 -5C464 -5 591 57 591 200C591 320 511 371 358 415C220 454 170 483 170 558C170 630 226 673 320 673C397 673 463 654 523 624L552 691C486 722 414 741 327 741C195 741 92 674 92 552C92 437 173 392 321 350C466 306 514 271 514 195C514 106 436 63 332 63C243 63 154 89 85 128L56 61C134 20 228 -5 326 -5ZM516 955H458L365 898L337 869H319L291 898L198 955H138V951L284 821H370L516 951Z" glyph-name="Scaron" horiz-adv-x="659" unicode="&#352;" /><glyph d="M326 -5C464 -5 591 57 591 200C591 320 511 371 358 415C220 454 170 483 170 558C170 630 226 673 320 673C397 673 463 654 523 624L552 691C486 722 414 741 327 741C195 741 92 674 92 552C92 437 173 392 321 350C466 306 514 271 514 195C514 106 436 63 332 63C243 63 154 89 85 128L56 61C134 20 228 -5 326 -5ZM138 821H196L289 879L317 907H335L363 879L456 821H516V826L370 955H284L138 826Z" glyph-name="Scircumflex" horiz-adv-x="659" unicode="&#348;" /><glyph d="M280 0H362V627L350 665L359 674L397 662H610V736H32V662H245L283 674L292 665L280 627Z" glyph-name="T" horiz-adv-x="642" unicode="T" /><glyph d="M397 341H552V407H397L359 396L350 405L362 442V627L350 665L359 674L397 662H610V736H32V662H245L283 674L292 665L280 627V442L292 405L283 396L245 407H90V341H245L283 353L292 344L280 306V0H362V306L350 344L359 353Z" glyph-name="Tbar" horiz-adv-x="642" unicode="&#358;" /><glyph d="M280 0H362V627L350 665L359 674L397 662H610V736H32V662H245L283 674L292 665L280 627ZM511 955H453L360 898L332 869H314L286 898L193 955H133V951L279 821H365L511 951Z" glyph-name="Tcaron" horiz-adv-x="642" unicode="&#356;" /><glyph d="M166 211 178 249V496L166 533L176 543H275C421 543 504 488 504 378C504 257 405 202 269 202H175ZM583 382C583 447 562 497 525 534C476 582 398 609 306 609H214L176 597L167 606L179 643V736H97V0H179V103L167 141L176 150L214 138H293C384 138 468 166 520 218C561 259 583 313 583 382Z" glyph-name="Thorn" horiz-adv-x="636" unicode="&#222;" /><glyph d="M355 63C240 63 172 146 172 294V736H90V294C90 104 192 -8 353 -8C514 -8 616 104 616 293V736H538V292C538 146 468 63 355 63Z" glyph-name="U" horiz-adv-x="707" unicode="U" /><glyph d="M355 63C240 63 172 146 172 294V736H90V294C90 104 192 -8 353 -8C514 -8 616 104 616 293V736H538V292C538 146 468 63 355 63ZM389 821 611 940V945H458L313 826V821Z" glyph-name="Uacute" horiz-adv-x="707" unicode="&#218;" /><glyph d="M355 63C240 63 172 146 172 294V736H90V294C90 104 192 -8 353 -8C514 -8 616 104 616 293V736H538V292C538 146 468 63 355 63ZM353 821C459 821 524 873 528 956H475C466 908 427 881 355 881C283 881 242 908 233 956H180C184 873 247 821 353 821Z" glyph-name="Ubreve" horiz-adv-x="707" unicode="&#364;" /><glyph d="M355 63C240 63 172 146 172 294V736H90V294C90 104 192 -8 353 -8C514 -8 616 104 616 293V736H538V292C538 146 468 63 355 63ZM165 821H223L316 879L344 907H362L390 879L483 821H543V826L397 955H311L165 826Z" glyph-name="Ucircumflex" horiz-adv-x="707" unicode="&#219;" /><glyph d="M355 63C240 63 172 146 172 294V736H90V294C90 104 192 -8 353 -8C514 -8 616 104 616 293V736H538V292C538 146 468 63 355 63ZM423 823H519V933H423ZM189 823H285V933H189Z" glyph-name="Udieresis" horiz-adv-x="707" unicode="&#220;" /><glyph d="M355 63C240 63 172 146 172 294V736H90V294C90 104 192 -8 353 -8C514 -8 616 104 616 293V736H538V292C538 146 468 63 355 63ZM319 821H395V826L250 945H97V940Z" glyph-name="Ugrave" horiz-adv-x="707" unicode="&#217;" /><glyph d="M353 -8C514 -8 616 104 616 293V647L604 685L613 694H619C701 694 734 721 787 903L726 921C676 758 650 736 578 736H538V292C538 146 468 63 355 63C240 63 172 146 172 294V736H90V294C90 104 192 -8 353 -8Z" glyph-name="Uhorn" horiz-adv-x="741" unicode="&#431;" /><glyph d="M355 63C240 63 172 146 172 294V736H90V294C90 104 192 -8 353 -8C514 -8 616 104 616 293V736H538V292C538 146 468 63 355 63ZM420 821H471L679 940V945H547L420 826ZM197 821H248L456 940V945H324L197 826Z" glyph-name="Uhungarumlaut" horiz-adv-x="707" unicode="&#368;" /><glyph d="M355 63C240 63 172 146 172 294V736H90V294C90 104 192 -8 353 -8C514 -8 616 104 616 293V736H538V292C538 146 468 63 355 63ZM161 832H547V893H161Z" glyph-name="Umacron" horiz-adv-x="707" unicode="&#362;" /><glyph d="M459 -157V-147C369 -120 351 -109 351 -94C351 -83 356 -74 399 -5C534 15 616 123 616 293V736H538V292C538 146 468 63 355 63C240 63 172 146 172 294V736H90V294C90 103 189 -2 350 -3V-15C288 -71 273 -91 273 -111C273 -127 286 -141 313 -157Z" glyph-name="Uogonek" horiz-adv-x="707" unicode="&#370;" /><glyph d="M355 63C240 63 172 146 172 294V736H90V294C90 104 192 -8 353 -8C514 -8 616 104 616 293V736H538V292C538 146 468 63 355 63ZM488 913C488 972 429 1008 354 1008C279 1008 220 970 220 911C220 852 279 816 354 816C429 816 488 854 488 913ZM257 912C257 952 295 976 354 976C413 976 451 952 451 912C451 872 413 848 354 848C295 848 257 872 257 912Z" glyph-name="Uring" horiz-adv-x="707" unicode="&#366;" /><glyph d="M355 63C240 63 172 146 172 294V736H90V294C90 104 192 -8 353 -8C514 -8 616 104 616 293V736H538V292C538 146 468 63 355 63ZM368 914C312 949 289 959 263 959C217 959 189 928 145 832L185 813C221 879 237 899 260 899C277 899 289 892 340 861C396 826 420 816 445 816C491 816 519 847 563 943L524 961C488 896 471 876 449 876C432 876 420 883 368 914Z" glyph-name="Utilde" horiz-adv-x="707" unicode="&#360;" /><glyph d="M307 -11H401L663 736H580L377 138L363 56H347L333 138L130 736H45Z" glyph-name="V" horiz-adv-x="708" unicode="V" /><glyph d="M253 -9H346L513 572L527 662H545L559 572L726 -9H819L1019 736H939L790 151L779 63H760L749 151L584 736H490L325 151L314 63H295L284 151L135 736H53Z" glyph-name="W" horiz-adv-x="1072" unicode="W" /><glyph d="M253 -9H346L513 572L527 662H545L559 572L726 -9H819L1019 736H939L790 151L779 63H760L749 151L584 736H490L325 151L314 63H295L284 151L135 736H53ZM572 821 794 940V945H641L496 826V821Z" glyph-name="Wacute" horiz-adv-x="1072" unicode="&#7810;" /><glyph d="M253 -9H346L513 572L527 662H545L559 572L726 -9H819L1019 736H939L790 151L779 63H760L749 151L584 736H490L325 151L314 63H295L284 151L135 736H53ZM348 821H406L499 879L527 907H545L573 879L666 821H726V826L580 955H494L348 826Z" glyph-name="Wcircumflex" horiz-adv-x="1072" unicode="&#372;" /><glyph d="M253 -9H346L513 572L527 662H545L559 572L726 -9H819L1019 736H939L790 151L779 63H760L749 151L584 736H490L325 151L314 63H295L284 151L135 736H53ZM606 823H702V933H606ZM372 823H468V933H372Z" glyph-name="Wdieresis" horiz-adv-x="1072" unicode="&#7812;" /><glyph d="M253 -9H346L513 572L527 662H545L559 572L726 -9H819L1019 736H939L790 151L779 63H760L749 151L584 736H490L325 151L314 63H295L284 151L135 736H53ZM502 821H578V826L433 945H280V940Z" glyph-name="Wgrave" horiz-adv-x="1072" unicode="&#7808;" /><glyph d="M136 0 324 292 337 336H352L365 292L553 0H640V7L411 354L385 374V386L411 405L625 729V736H541L367 465L354 421H340L326 465L152 736H66V729L280 405L306 386V374L280 354L51 7V0Z" glyph-name="X" horiz-adv-x="691" unicode="X" /><glyph d="M291 0H373V298L633 730V736H549L353 409L340 353H325L312 409L117 736H31V730L291 298Z" glyph-name="Y" horiz-adv-x="664" unicode="Y" /><glyph d="M291 0H373V298L633 730V736H549L353 409L340 353H325L312 409L117 736H31V730L291 298ZM367 821 589 940V945H436L291 826V821Z" glyph-name="Yacute" horiz-adv-x="664" unicode="&#221;" /><glyph d="M291 0H373V298L633 730V736H549L353 409L340 353H325L312 409L117 736H31V730L291 298ZM143 821H201L294 879L322 907H340L368 879L461 821H521V826L375 955H289L143 826Z" glyph-name="Ycircumflex" horiz-adv-x="664" unicode="&#374;" /><glyph d="M291 0H373V298L633 730V736H549L353 409L340 353H325L312 409L117 736H31V730L291 298ZM401 823H497V933H401ZM167 823H263V933H167Z" glyph-name="Ydieresis" horiz-adv-x="664" unicode="&#376;" /><glyph d="M291 0H373V298L633 730V736H549L353 409L340 353H325L312 409L117 736H31V730L291 298ZM297 821H373V826L228 945H75V940Z" glyph-name="Ygrave" horiz-adv-x="664" unicode="&#7922;" /><glyph d="M60 0H577V69H212L156 55L148 66L581 667V736H85V667H428L484 681L493 670L60 69Z" glyph-name="Z" horiz-adv-x="646" unicode="Z" /><glyph d="M60 0H577V69H212L156 55L148 66L581 667V736H85V667H428L484 681L493 670L60 69ZM356 821 578 940V945H425L280 826V821Z" glyph-name="Zacute" horiz-adv-x="646" unicode="&#377;" /><glyph d="M60 0H577V69H212L156 55L148 66L581 667V736H85V667H428L484 681L493 670L60 69ZM510 955H452L359 898L331 869H313L285 898L192 955H132V951L278 821H364L510 951Z" glyph-name="Zcaron" horiz-adv-x="646" unicode="&#381;" /><glyph d="M577 0V69H212L156 55L148 66L581 667V736H85V667H428L484 681L493 670L60 69V0H300L348 13L353 1L317 -23L205 -153V-157H308L391 0Z" glyph-name="Zcedilla" horiz-adv-x="646" /><glyph d="M60 0H577V69H212L156 55L148 66L581 667V736H85V667H428L484 681L493 670L60 69ZM268 821H374V935H268Z" glyph-name="Zdotaccent" horiz-adv-x="646" unicode="&#379;" /><glyph d="M258 50C211 50 174 63 150 87C130 107 120 133 120 167C120 198 130 225 150 245C182 277 238 292 378 292H399L408 282L397 248V144L406 106L398 89C355 65 310 50 258 50ZM350 15 406 63 428 0H485L470 108V371C470 497 392 560 267 560C199 560 146 547 97 529L116 470C160 486 210 498 264 498C353 498 403 451 403 356V341L392 329L350 341C201 340 133 318 93 277C65 249 50 210 50 164C50 51 138 -6 244 -6C287 -6 320 2 350 15Z" glyph-name="a" horiz-adv-x="548" unicode="a" /><glyph d="M258 50C211 50 174 63 150 87C130 107 120 133 120 167C120 198 130 225 150 245C182 277 238 292 378 292H399L408 282L397 248V144L406 106L398 89C355 65 310 50 258 50ZM350 15 406 63 428 0H485L470 108V371C470 497 392 560 267 560C199 560 146 547 97 529L116 470C160 486 210 498 264 498C353 498 403 451 403 356V341L392 329L350 341C201 340 133 318 93 277C65 249 50 210 50 164C50 51 138 -6 244 -6C287 -6 320 2 350 15ZM299 652 514 778V782H370L236 656V652Z" glyph-name="aacute" horiz-adv-x="548" unicode="&#225;" /><glyph d="M258 50C211 50 174 63 150 87C130 107 120 133 120 167C120 198 130 225 150 245C182 277 238 292 378 292H399L408 282L397 248V144L406 106L398 89C355 65 310 50 258 50ZM350 15 406 63 428 0H485L470 108V371C470 497 392 560 267 560C199 560 146 547 97 529L116 470C160 486 210 498 264 498C353 498 403 451 403 356V341L392 329L350 341C201 340 133 318 93 277C65 249 50 210 50 164C50 51 138 -6 244 -6C287 -6 320 2 350 15ZM269 651C363 651 421 704 425 792H372C365 740 332 711 271 711C210 711 175 740 168 792H115C119 704 175 651 269 651Z" glyph-name="abreve" horiz-adv-x="548" unicode="&#259;" /><glyph d="M258 50C211 50 174 63 150 87C130 107 120 133 120 167C120 198 130 225 150 245C182 277 238 292 378 292H399L408 282L397 248V144L406 106L398 89C355 65 310 50 258 50ZM350 15 406 63 428 0H485L470 108V371C470 497 392 560 267 560C199 560 146 547 97 529L116 470C160 486 210 498 264 498C353 498 403 451 403 356V341L392 329L350 341C201 340 133 318 93 277C65 249 50 210 50 164C50 51 138 -6 244 -6C287 -6 320 2 350 15ZM104 652H161L239 713L261 742H277L299 713L377 652H436V656L313 792H227L104 656Z" glyph-name="acircumflex" horiz-adv-x="548" unicode="&#226;" /><glyph d="M279 652 494 778V782H350L216 656V652Z" glyph-name="acute" horiz-adv-x="500" unicode="&#180;" /><glyph d="M35 821 257 940V945H104L-41 826V821Z" glyph-name="acute.cap" horiz-adv-x="0" /><glyph d="M258 50C211 50 174 63 150 87C130 107 120 133 120 167C120 198 130 225 150 245C182 277 238 292 378 292H399L408 282L397 248V144L406 106L398 89C355 65 310 50 258 50ZM350 15 406 63 428 0H485L470 108V371C470 497 392 560 267 560C199 560 146 547 97 529L116 470C160 486 210 498 264 498C353 498 403 451 403 356V341L392 329L350 341C201 340 133 318 93 277C65 249 50 210 50 164C50 51 138 -6 244 -6C287 -6 320 2 350 15ZM325 652H421V762H325ZM119 652H215V762H119Z" glyph-name="adieresis" horiz-adv-x="548" unicode="&#228;" /><glyph d="M741 281 705 292H493L458 281L447 292C456 435 521 507 600 507C678 507 742 440 752 292ZM247 51C167 51 120 97 120 167C120 199 130 227 151 247C180 276 235 292 361 292H386L395 282L385 250C386 220 391 189 400 160L417 136V122C358 71 307 51 247 51ZM790 33 769 87C722 66 678 53 625 53C527 53 461 123 448 237L458 248L504 240H817V269C817 444 734 563 605 563C528 563 471 515 435 435H424C406 516 352 560 259 560C195 560 144 547 97 529L116 470C158 486 205 498 256 498C341 498 388 451 388 356V340L378 329L337 341C197 340 132 318 93 279C65 251 50 211 50 164C50 51 135 -6 235 -6C282 -6 325 5 365 27L429 94C471 29 541 -7 619 -7C685 -7 735 7 790 33Z" glyph-name="ae" horiz-adv-x="861" unicode="&#230;" /><glyph d="M741 281 705 292H493L458 281L447 292C456 435 521 507 600 507C678 507 742 440 752 292ZM247 51C167 51 120 97 120 167C120 199 130 227 151 247C180 276 235 292 361 292H386L395 282L385 250C386 220 391 189 400 160L417 136V122C358 71 307 51 247 51ZM790 33 769 87C722 66 678 53 625 53C527 53 461 123 448 237L458 248L504 240H817V269C817 444 734 563 605 563C528 563 471 515 435 435H424C406 516 352 560 259 560C195 560 144 547 97 529L116 470C158 486 205 498 256 498C341 498 388 451 388 356V340L378 329L337 341C197 340 132 318 93 279C65 251 50 211 50 164C50 51 135 -6 235 -6C282 -6 325 5 365 27L429 94C471 29 541 -7 619 -7C685 -7 735 7 790 33ZM465 652 680 778V782H536L402 656V652Z" glyph-name="aeacute" horiz-adv-x="861" unicode="&#509;" /><glyph d="M258 50C211 50 174 63 150 87C130 107 120 133 120 167C120 198 130 225 150 245C182 277 238 292 378 292H399L408 282L397 248V144L406 106L398 89C355 65 310 50 258 50ZM350 15 406 63 428 0H485L470 108V371C470 497 392 560 267 560C199 560 146 547 97 529L116 470C160 486 210 498 264 498C353 498 403 451 403 356V341L392 329L350 341C201 340 133 318 93 277C65 249 50 210 50 164C50 51 138 -6 244 -6C287 -6 320 2 350 15ZM241 652H304V656L170 782H26V778Z" glyph-name="agrave" horiz-adv-x="548" unicode="&#224;" /><glyph d="M258 50C211 50 174 63 150 87C130 107 120 133 120 167C120 198 130 225 150 245C182 277 238 292 378 292H399L408 282L397 248V144L406 106L398 89C355 65 310 50 258 50ZM350 15 406 63 428 0H485L470 108V371C470 497 392 560 267 560C199 560 146 547 97 529L116 470C160 486 210 498 264 498C353 498 403 451 403 356V341L392 329L350 341C201 340 133 318 93 277C65 249 50 210 50 164C50 51 138 -6 244 -6C287 -6 320 2 350 15ZM100 662H440V722H100Z" glyph-name="amacron" horiz-adv-x="548" unicode="&#257;" /><glyph d="M252 56C185 56 135 110 135 195C135 273 170 330 256 390H277L284 356L400 215L428 200V186C362 93 309 56 252 56ZM245 -8C323 -8 386 31 442 112L454 152H469L480 118L578 0H665V6L522 177L495 194V208L522 226L627 407V413H550L475 283L465 243H450L439 281L312 432C269 487 249 524 249 576C249 634 287 674 343 674C392 674 432 659 486 628L516 693C457 727 405 742 343 742C245 742 172 676 172 576C172 534 184 496 210 455L244 432L238 417H203C115 367 61 292 61 190C61 70 140 -8 245 -8Z" glyph-name="ampersand" horiz-adv-x="695" unicode="&amp;" /><glyph d="M258 50C211 50 174 63 150 87C130 107 120 133 120 167C120 198 130 225 150 245C182 277 238 292 378 292H399L408 282L397 248V144L406 106L398 89C355 65 310 50 258 50ZM528 -147C437 -120 419 -109 419 -94C419 -83 424 -73 469 0H485L470 108V371C470 497 392 560 267 560C199 560 146 547 97 529L116 470C160 486 210 498 264 498C353 498 403 451 403 356V341L392 329L350 341C201 340 133 318 93 277C65 249 50 210 50 164C50 51 138 -6 244 -6C287 -6 320 2 350 15L406 63L426 5C354 -73 342 -92 342 -111C342 -127 354 -141 382 -157H528Z" glyph-name="aogonek" horiz-adv-x="548" unicode="&#261;" /><glyph d="M281 525C221 567 201 578 172 578C124 578 92 536 44 422L92 402C132 479 150 506 175 506C194 506 210 496 269 454C329 412 349 401 377 401C426 401 463 444 511 560L462 581C422 501 399 473 375 473C355 473 340 483 281 525ZM286 291C226 334 206 344 178 344C130 344 92 301 44 185L93 164C134 244 156 272 180 272C200 272 215 262 274 220C334 178 355 167 383 167C432 167 463 209 511 323L463 343C423 266 405 239 380 239C361 239 346 249 286 291Z" glyph-name="approxequal" horiz-adv-x="555" unicode="&#8776;" /><glyph d="M258 50C211 50 174 63 150 87C130 107 120 133 120 167C120 198 130 225 150 245C182 277 238 292 378 292H399L408 282L397 248V144L406 106L398 89C355 65 310 50 258 50ZM350 15 406 63 428 0H485L470 108V371C470 497 392 560 267 560C199 560 146 547 97 529L116 470C160 486 210 498 264 498C353 498 403 451 403 356V341L392 329L350 341C201 340 133 318 93 277C65 249 50 210 50 164C50 51 138 -6 244 -6C287 -6 320 2 350 15ZM390 745C390 805 337 844 270 844C203 844 150 803 150 743C150 683 203 644 270 644C337 644 390 685 390 745ZM186 744C186 786 219 811 270 811C321 811 354 786 354 744C354 702 321 677 270 677C219 677 186 702 186 744Z" glyph-name="aring" horiz-adv-x="548" unicode="&#229;" /><glyph d="M258 50C211 50 174 63 150 87C130 107 120 133 120 167C120 198 130 225 150 245C182 277 238 292 378 292H399L408 282L397 248V144L406 106L398 89C355 65 310 50 258 50ZM350 15 406 63 428 0H485L470 108V371C470 497 392 560 267 560C199 560 146 547 97 529L116 470C160 486 210 498 264 498C353 498 403 451 403 356V341L392 329L350 341C201 340 133 318 93 277C65 249 50 210 50 164C50 51 138 -6 244 -6C287 -6 320 2 350 15ZM270 644C337 644 390 684 390 745C390 792 357 825 311 838L510 955V959H369L247 841C191 833 150 796 150 743C150 682 203 644 270 644ZM186 744C186 785 219 810 270 810C321 810 354 785 354 744C354 702 321 677 270 677C219 677 186 702 186 744Z" glyph-name="aringacute" horiz-adv-x="548" unicode="&#507;" /><glyph d="M57 373H129L250 624L266 682H288L304 624L425 373H498L313 744H243Z" glyph-name="asciicircum" horiz-adv-x="555" unicode="^" /><glyph d="M284 410C224 453 202 464 174 464C125 464 90 419 43 299L92 278C133 360 152 388 176 388C196 388 211 378 271 335C331 292 353 281 382 281C430 281 465 326 513 446L463 467C422 386 404 357 379 357C360 357 344 367 284 410Z" glyph-name="asciitilde" horiz-adv-x="555" unicode="~" /><glyph d="M300 582C305 645 322 705 341 737V746H234V737C254 705 271 645 276 582ZM225 526 233 550C176 573 127 609 104 638L95 640L62 537L71 534C105 543 166 542 225 526ZM350 526C410 542 470 543 505 534L513 537L481 640L472 638C448 609 399 573 343 550ZM374 303 460 366 455 374C421 388 373 425 334 474L314 459C347 406 367 347 369 310ZM201 303 206 310C209 347 229 406 261 459L242 474C202 425 154 388 121 374L115 366Z" glyph-name="asterisk" horiz-adv-x="576" unicode="*" /><glyph d="M482 -157 496 -109H425C242 -109 127 -21 127 197C127 480 303 720 497 720C596 720 651 663 651 541C651 527 650 510 650 496L638 490L604 520C585 527 565 530 544 530C425 530 299 414 299 242C299 132 365 68 454 68C475 68 491 71 510 78L547 111H559L566 68H605L684 415C696 466 703 507 703 555C703 684 633 770 504 770C276 770 68 511 68 192C68 -44 202 -157 413 -157ZM474 122C412 122 367 161 367 248C367 380 456 475 553 475C580 475 605 471 628 463L634 447L618 417L567 193L568 158L559 143C530 129 501 122 474 122Z" glyph-name="at" horiz-adv-x="764" unicode="@" /><glyph d="M258 50C211 50 174 63 150 87C130 107 120 133 120 167C120 198 130 225 150 245C182 277 238 292 378 292H399L408 282L397 248V144L406 106L398 89C355 65 310 50 258 50ZM350 15 406 63 428 0H485L470 108V371C470 497 392 560 267 560C199 560 146 547 97 529L116 470C160 486 210 498 264 498C353 498 403 451 403 356V341L392 329L350 341C201 340 133 318 93 277C65 249 50 210 50 164C50 51 138 -6 244 -6C287 -6 320 2 350 15ZM281 749C229 785 211 794 186 794C139 794 111 752 75 662L115 646C147 710 162 734 184 734C201 734 211 727 259 694C312 658 330 649 355 649C401 649 429 691 466 781L425 797C393 733 378 709 356 709C339 709 329 716 281 749Z" glyph-name="atilde" horiz-adv-x="548" unicode="&#227;" /><glyph d="M85 765V-4H126L143 44H155L187 11C211 1 239 -5 270 -5C332 -5 388 17 432 62C479 109 507 183 507 279C507 378 481 449 435 496C392 538 342 560 274 560C247 560 223 554 202 543L161 508L149 515L160 569V765ZM253 57C221 57 188 64 155 77L148 93L159 134V415L148 456L157 475C188 489 222 498 254 498C308 498 349 482 379 451C417 414 435 358 435 277C435 199 416 143 380 107C346 73 304 57 253 57Z" glyph-name="b" horiz-adv-x="558" unicode="b" /><glyph d="M420 -137 85 770H21L355 -137Z" glyph-name="backslash" horiz-adv-x="401" unicode="\" /><glyph d="M406 -100 71 807H7L341 -100Z" glyph-name="backslash.cap" horiz-adv-x="401" /><glyph d="M164 -196H226V829H164Z" glyph-name="bar" horiz-adv-x="390" unicode="|" /><glyph d="M164 -141H226V839H164Z" glyph-name="bar.cap" horiz-adv-x="390" /><glyph d="M513 -124 522 -71C410 -59 305 -32 250 -8V3C325 33 357 76 357 130C357 220 274 280 158 313V325C274 358 357 418 357 508C357 562 325 605 250 635V646C305 670 410 697 522 709L513 762C381 748 265 714 182 677V625C241 597 284 565 284 504C284 420 203 352 76 345L45 344V294L76 293C203 286 284 218 284 134C284 73 241 41 182 13V-39C265 -76 381 -110 513 -124Z" glyph-name="braceleft" horiz-adv-x="567" unicode="{" /><glyph d="M513 -79 522 -26C410 -14 305 13 250 37V48C325 78 357 121 357 175C357 265 274 325 158 358V370C274 403 357 463 357 553C357 607 325 650 250 680V691C305 715 410 742 522 754L513 807C381 793 265 759 182 722V670C241 642 284 610 284 549C284 465 203 397 76 390L45 389V339L76 338C203 331 284 263 284 179C284 118 241 86 182 58V6C265 -31 381 -65 513 -79Z" glyph-name="braceleft.cap" horiz-adv-x="567" /><glyph d="M54 -124C186 -110 301 -76 385 -39V13C325 41 283 73 283 134C283 218 364 286 491 293L522 294V344L491 345C364 352 283 420 283 504C283 565 325 597 385 625V677C301 714 186 748 54 762L45 709C157 697 262 670 316 646V634C240 605 209 561 209 508C209 418 292 358 409 325V313C292 280 209 220 209 130C209 77 240 33 316 4V-8C262 -32 157 -59 45 -71Z" glyph-name="braceright" horiz-adv-x="567" unicode="}" /><glyph d="M54 -79C186 -65 301 -31 385 6V58C325 86 283 118 283 179C283 263 364 331 491 338L522 339V389L491 390C364 397 283 465 283 549C283 610 325 642 385 670V722C301 759 186 793 54 807L45 754C157 742 262 715 316 691V679C240 650 209 606 209 553C209 463 292 403 409 370V358C292 325 209 265 209 175C209 122 240 78 316 49V37C262 13 157 -14 45 -26Z" glyph-name="braceright.cap" horiz-adv-x="567" /><glyph d="M155 -20V658L143 695L152 704L190 693L366 683V736L88 752V-114L366 -98V-45L190 -55L152 -66L143 -57Z" glyph-name="bracketleft" horiz-adv-x="418" unicode="[" /><glyph d="M155 25V703L143 740L152 749L190 738L366 728V781L88 797V-69L366 -53V0L190 -10L152 -21L143 -12Z" glyph-name="bracketleft.cap" horiz-adv-x="418" /><glyph d="M263 658V-20L274 -57L265 -66L228 -55L52 -45V-98L330 -114V752L52 736V683L228 693L265 704L274 695Z" glyph-name="bracketright" horiz-adv-x="418" unicode="]" /><glyph d="M263 703V25L274 -12L265 -21L228 -10L52 0V-53L330 -69V797L52 781V728L228 738L265 749L274 740Z" glyph-name="bracketright.cap" horiz-adv-x="418" /><glyph d="M249 651C343 651 401 704 405 792H352C345 740 312 711 251 711C190 711 155 740 148 792H95C99 704 155 651 249 651Z" glyph-name="breve" horiz-adv-x="500" unicode="&#728;" /><glyph d="M-1 821C105 821 170 873 174 956H121C112 908 73 881 1 881C-71 881 -112 908 -121 956H-174C-170 873 -107 821 -1 821Z" glyph-name="breve.cap" horiz-adv-x="0" /><glyph d="M300 195C399 195 478 274 478 373C478 472 399 551 300 551C200 551 122 472 122 373C122 274 200 195 300 195Z" glyph-name="bullet" horiz-adv-x="600" unicode="&#8226;" /><glyph d="M50 276C50 188 78 116 130 63C175 18 234 -7 298 -7C352 -7 393 6 439 26L419 87C379 69 345 58 304 58C256 58 215 77 182 110C144 148 123 204 123 278C123 346 146 407 183 444C217 478 255 495 303 495C341 495 373 486 416 469L436 531C391 550 354 561 303 561C235 561 179 536 130 488C81 438 50 362 50 276Z" glyph-name="c" horiz-adv-x="483" unicode="c" /><glyph d="M50 276C50 188 78 116 130 63C175 18 234 -7 298 -7C352 -7 393 6 439 26L419 87C379 69 345 58 304 58C256 58 215 77 182 110C144 148 123 204 123 278C123 346 146 407 183 444C217 478 255 495 303 495C341 495 373 486 416 469L436 531C391 550 354 561 303 561C235 561 179 536 130 488C81 438 50 362 50 276ZM308 652 523 778V782H379L245 656V652Z" glyph-name="cacute" horiz-adv-x="483" unicode="&#263;" /><glyph d="M416 792H359L281 731L259 702H243L221 731L143 792H84V788L207 652H293L416 788Z" glyph-name="caron" horiz-adv-x="500" unicode="&#711;" /><glyph d="M189 955H131L38 898L10 869H-8L-36 898L-129 955H-189V951L-43 821H43L189 951Z" glyph-name="caron.cap" horiz-adv-x="0" /><glyph d="M50 276C50 188 78 116 130 63C175 18 234 -7 298 -7C352 -7 393 6 439 26L419 87C379 69 345 58 304 58C256 58 215 77 182 110C144 148 123 204 123 278C123 346 146 407 183 444C217 478 255 495 303 495C341 495 373 486 416 469L436 531C391 550 354 561 303 561C235 561 179 536 130 488C81 438 50 362 50 276ZM445 792H388L310 731L288 702H272L250 731L172 792H113V788L236 652H322L445 788Z" glyph-name="ccaron" horiz-adv-x="483" unicode="&#269;" /><glyph d="M439 26 419 87C379 69 345 58 304 58C256 58 215 77 182 110C144 148 123 204 123 278C123 346 146 407 183 444C217 478 255 495 303 495C341 495 373 486 416 469L436 531C391 550 354 561 303 561C235 561 179 536 130 488C81 438 50 362 50 276C50 188 78 116 130 63C169 25 213 5 278 1V-12L243 -26L134 -153V-157H238L317 -6C361 -4 398 8 439 26Z" glyph-name="ccedilla" horiz-adv-x="483" unicode="&#231;" /><glyph d="M50 276C50 188 78 116 130 63C175 18 234 -7 298 -7C352 -7 393 6 439 26L419 87C379 69 345 58 304 58C256 58 215 77 182 110C144 148 123 204 123 278C123 346 146 407 183 444C217 478 255 495 303 495C341 495 373 486 416 469L436 531C391 550 354 561 303 561C235 561 179 536 130 488C81 438 50 362 50 276ZM113 652H170L248 713L270 742H286L308 713L386 652H445V656L322 792H236L113 656Z" glyph-name="ccircumflex" horiz-adv-x="483" unicode="&#265;" /><glyph d="M50 276C50 188 78 116 130 63C175 18 234 -7 298 -7C352 -7 393 6 439 26L419 87C379 69 345 58 304 58C256 58 215 77 182 110C144 148 123 204 123 278C123 346 146 407 183 444C217 478 255 495 303 495C341 495 373 486 416 469L436 531C391 550 354 561 303 561C235 561 179 536 130 488C81 438 50 362 50 276ZM226 652H332V766H226Z" glyph-name="cdotaccent" horiz-adv-x="483" unicode="&#267;" /><glyph d="M208 -157 290 0 245 9 104 -153V-157Z" glyph-name="cedilla" horiz-adv-x="500" unicode="&#184;" /><glyph d="M106 380C106 474 166 532 278 560L287 551L273 513L241 252L246 212L237 204C143 250 106 304 106 380ZM273 122 266 159 275 167 309 152C357 155 410 168 453 189L432 241C387 221 337 207 279 198L271 208L286 246L318 513L311 551L320 560C357 550 395 536 430 520L451 574C421 588 394 597 363 602L329 594L320 602L337 638L349 743H296L284 638L291 603L283 594L250 602C126 581 41 495 41 378C41 281 97 205 195 168L230 171L238 162L221 125L205 -7H258Z" glyph-name="cent" horiz-adv-x="494" unicode="&#162;" /><glyph d="M84 652H141L219 713L241 742H257L279 713L357 652H416V656L293 792H207L84 656Z" glyph-name="circumflex" horiz-adv-x="500" unicode="&#710;" /><glyph d="M-189 821H-131L-38 879L-10 907H8L36 879L129 821H189V826L43 955H-43L-189 826Z" glyph-name="circumflex.cap" horiz-adv-x="0" /><glyph d="M87 429H193V544H87ZM87 0H193V115H87Z" glyph-name="colon" horiz-adv-x="280" unicode=":" /><glyph d="M87 472H193V588H87ZM87 156H193V271H87Z" glyph-name="colon.fig" horiz-adv-x="280" /><glyph d="M86 473H191V588H86ZM86 156H191V271H86Z" glyph-name="colon.figtab" horiz-adv-x="278" /><glyph d="M86 429H191V544H86ZM86 0H191V115H86Z" glyph-name="colon.tab" horiz-adv-x="278" /><glyph d="M75 -140 213 131V143H108L33 -129Z" glyph-name="comma" horiz-adv-x="280" unicode="," /><glyph d="M74 -140 211 131V143H106L32 -129Z" glyph-name="comma.tab" horiz-adv-x="278" /><glyph d="M76 308C76 41 252 -158 467 -158C683 -158 859 42 859 308C859 575 683 774 468 774C252 774 76 574 76 308ZM109 308C109 555 268 744 467 744C667 744 826 555 826 308C826 61 667 -128 468 -128C268 -128 109 61 109 308ZM486 83C544 83 590 99 631 123L609 173C572 153 536 139 490 139C402 139 338 205 338 317C338 425 403 492 486 492C532 492 567 481 603 460L626 511C582 536 541 548 486 548C370 548 274 456 274 315C274 171 368 83 486 83Z" glyph-name="copyright" horiz-adv-x="935" unicode="&#169;" /><glyph d="M307 57C253 57 209 73 178 104C141 141 123 197 123 278C123 356 142 412 178 448C211 482 253 498 304 498C336 498 370 489 401 475L410 456L399 415V135L410 93L403 77C369 64 337 57 307 57ZM51 276C51 177 76 106 123 59C165 17 219 -5 288 -5C319 -5 347 1 371 11L403 44H415L431 -4H472V765H398V569L409 515L397 508L356 543C334 554 311 560 286 560C225 560 170 538 126 493C78 446 51 372 51 276Z" glyph-name="d" horiz-adv-x="558" unicode="d" /><glyph d="M289 551C295 630 312 698 324 727V736H231V727C243 698 260 630 266 551ZM292 503H263C193 503 136 522 90 545H82V441H90C136 464 193 482 263 482H292C362 482 419 464 465 441H473V545H465C419 522 362 503 292 503ZM290 430H265L242 310L267 -11H288L313 310Z" glyph-name="dagger" horiz-adv-x="555" unicode="&#8224;" /><glyph d="M322 736H233V727C246 701 261 646 266 580H289C294 646 310 701 322 727ZM292 535H263C193 535 136 551 90 573H82V476H90C136 498 193 515 263 515H292C362 515 419 498 465 476H473V573H465C419 551 362 535 292 535ZM289 263 311 368 289 473H266L244 368L266 263ZM292 221H263C193 221 136 238 90 260H82V163H90C136 185 193 201 263 201H292C362 201 419 185 465 163H473V260H465C419 238 362 221 292 221ZM322 0V9C310 35 294 90 289 156H266C261 90 246 35 233 9V0Z" glyph-name="daggerdbl" horiz-adv-x="555" unicode="&#8225;" /><glyph d="M307 57C253 57 209 73 178 104C141 141 123 197 123 278C123 356 142 412 178 448C211 482 253 498 304 498C336 498 370 489 401 475L410 456L399 415V135L410 93L403 77C369 64 337 57 307 57ZM51 276C51 177 76 106 123 59C165 17 219 -5 288 -5C319 -5 347 1 371 11L403 44H415L431 -4H472V765H398V569L409 515L397 508L356 543C334 554 311 560 286 560C225 560 170 538 126 493C78 446 51 372 51 276ZM547 582 579 574 671 752V765H585Z" glyph-name="dcaron" horiz-adv-x="558" unicode="&#271;" /><glyph d="M307 57C246 57 201 74 171 104C139 136 123 183 123 251C123 317 141 364 171 394C202 425 246 442 304 442C336 442 370 433 401 419L410 401L399 360V135L410 93L403 77C369 64 337 57 307 57ZM357 488C335 499 311 505 286 505C218 505 161 480 117 437C77 396 51 332 51 248C51 165 72 102 115 59C157 18 215 -5 288 -5C319 -5 347 1 371 11L403 44H415L431 -4H472V588L461 624L470 633L507 622H568V677H507L470 665L461 674L472 708V765H398V708L410 674L401 665L363 677H218V622H365L402 633L411 624L400 592V509L410 460L398 453Z" glyph-name="dcroat" horiz-adv-x="558" unicode="&#273;" /><glyph d="M471 546C471 658 385 746 278 746C172 746 84 656 84 544C84 433 171 345 277 345C384 345 471 435 471 546ZM141 546C141 632 199 693 278 693C356 693 414 631 414 545C414 459 356 398 278 398C199 398 141 459 141 546Z" glyph-name="degree" horiz-adv-x="555" unicode="&#176;" /><glyph d="M305 652H401V762H305ZM99 652H195V762H99Z" glyph-name="dieresis" horiz-adv-x="500" unicode="&#168;" /><glyph d="M69 823H165V933H69ZM-165 823H-69V933H-165Z" glyph-name="dieresis.cap" horiz-adv-x="0" /><glyph d="M229 514H326V611H229ZM49 339 278 343 506 339V406L278 402L49 406ZM229 134H326V232H229Z" glyph-name="divide" horiz-adv-x="555" unicode="&#247;" /><glyph d="M139 547C139 620 196 672 320 691L329 682L315 644L296 446L303 407L294 399C184 437 139 480 139 547ZM285 54 299 93 322 323 315 362 324 370C440 333 490 282 490 207C490 123 431 68 293 46ZM295 -32 286 4 294 12 329 4C474 20 561 96 561 211C561 310 491 379 367 409L335 404L327 413L340 446L360 643L352 681L360 689C420 675 479 656 536 631L560 687C507 708 456 723 404 731L368 724L360 733L376 770L384 854H328L320 769L329 733L320 725L285 733C152 720 69 647 69 544C69 451 134 393 251 361L283 367L291 358L278 324L255 95L263 55L254 47C177 63 108 84 45 112L20 55C77 32 145 13 210 5L246 12L255 4L239 -33L228 -135H284Z" glyph-name="dollar" horiz-adv-x="604" unicode="$" /><glyph d="M141 545C141 622 192 674 296 691L305 682L291 644L272 446L279 407L270 399C177 432 141 477 141 545ZM261 55 275 93 297 323 291 362 300 370C399 335 436 286 436 209C436 120 386 68 270 45ZM260 -135 270 -32 262 4 270 12 305 4C429 20 503 94 503 213C503 315 445 378 342 409L311 404L303 413L316 446L335 643L327 681L336 690C386 675 433 657 481 634L504 690C462 708 419 722 380 731L344 724L336 733L352 770L360 854H304L296 769L304 733L296 725L261 733C147 718 74 649 74 542C74 450 127 393 228 361L258 367L267 358L254 324L231 95L238 55L230 47C166 62 107 83 53 110L28 53C75 31 130 14 186 5L222 12L231 4L214 -33L204 -135Z" glyph-name="dollar.tab" horiz-adv-x="555" /><glyph d="M307 57C246 57 201 74 171 104C139 136 123 182 123 249C123 315 141 361 171 391C201 421 246 439 304 439C336 439 370 430 401 416L410 398L399 357V135L410 93L403 77C369 64 337 57 307 57ZM357 484C335 495 311 501 286 501C218 501 160 477 117 433C76 393 51 330 51 246C51 164 72 102 115 59C156 18 214 -5 288 -5C319 -5 347 1 371 11L403 44H415L431 -4H472V563L461 600L470 609L507 597H568V652H507L470 640L461 649L472 683V736H398V683L410 649L401 640L363 652H218V597H365L402 609L411 600L400 567V506L410 457L398 450ZM111 -157H472V-103H111Z" glyph-name="dong" horiz-adv-x="558" unicode="&#8363;" /><glyph d="M197 652H303V766H197Z" glyph-name="dotaccent" horiz-adv-x="500" unicode="&#729;" /><glyph d="M-53 821H53V935H-53Z" glyph-name="dotaccent.cap" horiz-adv-x="0" /><glyph d="M103 0H178V554H103Z" glyph-name="dotlessi" horiz-adv-x="281" unicode="&#305;" /><glyph d="M103 554V0H178V554L156 551H125Z" glyph-name="dotlessi.cmb" horiz-adv-x="281" /><glyph d="M236 -157V-147C146 -120 127 -109 127 -94C127 -83 132 -73 178 0V554H103V7L131 2V-11C64 -70 50 -91 50 -111C50 -127 62 -141 90 -157Z" glyph-name="dotlessiogonek" horiz-adv-x="281" /><glyph d="M236 -157V-147C146 -120 127 -109 127 -94C127 -83 132 -73 178 0V554L156 551H125L103 554V7L131 2V-11C64 -70 50 -91 50 -111C50 -127 62 -141 90 -157Z" glyph-name="dotlessiogonek.cmb" horiz-adv-x="281" /><glyph d="M422 281 386 292H162L127 281L117 291C125 433 193 507 276 507C357 507 423 439 432 291ZM471 33 450 87C401 66 356 53 301 53C199 53 131 123 117 237L127 248L173 240H497V269C497 444 412 563 277 563C149 563 50 448 50 276C50 89 158 -7 296 -7C363 -7 415 7 471 33Z" glyph-name="e" horiz-adv-x="542" unicode="e" /><glyph d="M422 281 386 292H162L127 281L117 291C125 433 193 507 276 507C357 507 423 439 432 291ZM471 33 450 87C401 66 356 53 301 53C199 53 131 123 117 237L127 248L173 240H497V269C497 444 412 563 277 563C149 563 50 448 50 276C50 89 158 -7 296 -7C363 -7 415 7 471 33ZM303 652 518 778V782H374L240 656V652Z" glyph-name="eacute" horiz-adv-x="542" unicode="&#233;" /><glyph d="M422 281 386 292H162L127 281L117 291C125 433 193 507 276 507C357 507 423 439 432 291ZM471 33 450 87C401 66 356 53 301 53C199 53 131 123 117 237L127 248L173 240H497V269C497 444 412 563 277 563C149 563 50 448 50 276C50 89 158 -7 296 -7C363 -7 415 7 471 33ZM273 651C367 651 425 704 429 792H376C369 740 336 711 275 711C214 711 179 740 172 792H119C123 704 179 651 273 651Z" glyph-name="ebreve" horiz-adv-x="542" unicode="&#277;" /><glyph d="M422 281 386 292H162L127 281L117 291C125 433 193 507 276 507C357 507 423 439 432 291ZM471 33 450 87C401 66 356 53 301 53C199 53 131 123 117 237L127 248L173 240H497V269C497 444 412 563 277 563C149 563 50 448 50 276C50 89 158 -7 296 -7C363 -7 415 7 471 33ZM440 792H383L305 731L283 702H267L245 731L167 792H108V788L231 652H317L440 788Z" glyph-name="ecaron" horiz-adv-x="542" unicode="&#283;" /><glyph d="M422 281 386 292H162L127 281L117 291C125 433 193 507 276 507C357 507 423 439 432 291ZM471 33 450 87C401 66 356 53 301 53C199 53 131 123 117 237L127 248L173 240H497V269C497 444 412 563 277 563C149 563 50 448 50 276C50 89 158 -7 296 -7C363 -7 415 7 471 33ZM108 652H165L243 713L265 742H281L303 713L381 652H440V656L317 792H231L108 656Z" glyph-name="ecircumflex" horiz-adv-x="542" unicode="&#234;" /><glyph d="M422 281 386 292H162L127 281L117 291C125 433 193 507 276 507C357 507 423 439 432 291ZM471 33 450 87C401 66 356 53 301 53C199 53 131 123 117 237L127 248L173 240H497V269C497 444 412 563 277 563C149 563 50 448 50 276C50 89 158 -7 296 -7C363 -7 415 7 471 33ZM329 652H425V762H329ZM123 652H219V762H123Z" glyph-name="edieresis" horiz-adv-x="542" unicode="&#235;" /><glyph d="M422 281 386 292H162L127 281L117 291C125 433 193 507 276 507C357 507 423 439 432 291ZM471 33 450 87C401 66 356 53 301 53C199 53 131 123 117 237L127 248L173 240H497V269C497 444 412 563 277 563C149 563 50 448 50 276C50 89 158 -7 296 -7C363 -7 415 7 471 33ZM221 652H327V766H221Z" glyph-name="edotaccent" horiz-adv-x="542" unicode="&#279;" /><glyph d="M422 281 386 292H162L127 281L117 291C125 433 193 507 276 507C357 507 423 439 432 291ZM471 33 450 87C401 66 356 53 301 53C199 53 131 123 117 237L127 248L173 240H497V269C497 444 412 563 277 563C149 563 50 448 50 276C50 89 158 -7 296 -7C363 -7 415 7 471 33ZM245 652H308V656L174 782H30V778Z" glyph-name="egrave" horiz-adv-x="542" unicode="&#232;" /><glyph d="M300 -8C432 -8 543 71 543 187C543 285 474 350 372 382V391C458 423 523 474 523 567C523 669 424 744 300 744C175 744 76 669 76 567C76 474 141 423 227 391V382C125 350 56 285 56 187C56 71 168 -8 300 -8ZM300 413C223 413 147 470 147 554C147 630 210 683 300 683C390 683 452 630 452 554C452 470 377 413 300 413ZM300 54C206 54 129 110 129 199C129 289 207 359 300 359C392 359 471 289 471 199C471 110 394 54 300 54Z" glyph-name="eight" horiz-adv-x="600" unicode="8" /><glyph d="M177 -165C258 -165 319 -116 319 -47C319 12 283 49 225 72V77C272 97 308 126 308 183C308 245 253 290 177 290C102 290 47 245 47 183C47 126 83 97 130 77V72C71 49 36 12 36 -47C36 -116 97 -165 177 -165ZM177 92C134 92 97 127 97 175C97 219 126 249 177 249C229 249 258 219 258 175C258 127 220 92 177 92ZM177 -123C123 -123 87 -91 87 -38C87 14 125 56 177 56C229 56 268 14 268 -38C268 -91 231 -123 177 -123Z" glyph-name="eight.den" horiz-adv-x="355" /><glyph d="M177 289C258 289 319 337 319 406C319 465 283 503 225 525V531C272 551 308 580 308 636C308 698 253 744 177 744C102 744 47 698 47 636C47 580 83 551 130 531V525C71 503 36 465 36 406C36 337 97 289 177 289ZM177 546C134 546 97 580 97 628C97 673 126 702 177 702C229 702 258 673 258 628C258 580 220 546 177 546ZM177 331C123 331 87 363 87 416C87 468 125 509 177 509C229 509 268 468 268 416C268 363 231 331 177 331Z" glyph-name="eight.num" horiz-adv-x="355" /><glyph d="M278 744C156 744 71 666 71 567C71 471 128 426 206 391V382C109 349 50 284 50 186C50 75 149 -8 278 -8C407 -8 505 75 505 186C505 284 446 349 350 382V391C427 426 484 471 484 567C484 666 399 744 278 744ZM278 413C204 413 142 473 142 554C142 627 190 683 278 683C365 683 413 627 413 554C413 473 352 413 278 413ZM278 54C186 54 123 113 123 199C123 286 187 359 278 359C368 359 432 286 432 199C432 113 369 54 278 54Z" glyph-name="eight.tab" horiz-adv-x="555" /><glyph d="M645 0H746V111H645ZM367 0H468V111H367ZM89 0H190V111H89Z" glyph-name="ellipsis" horiz-adv-x="835" unicode="&#8230;" /><glyph d="M422 281 386 292H162L127 281L117 291C125 433 193 507 276 507C357 507 423 439 432 291ZM471 33 450 87C401 66 356 53 301 53C199 53 131 123 117 237L127 248L173 240H497V269C497 444 412 563 277 563C149 563 50 448 50 276C50 89 158 -7 296 -7C363 -7 415 7 471 33ZM104 662H444V722H104Z" glyph-name="emacron" horiz-adv-x="542" unicode="&#275;" /><glyph d="M52 284H797V359H52Z" glyph-name="emdash" horiz-adv-x="849" unicode="&#8212;" /><glyph d="M52 335H797V410H52Z" glyph-name="emdash.cap" horiz-adv-x="849" /><glyph d="M52 284H466V360H52Z" glyph-name="endash" horiz-adv-x="518" unicode="&#8211;" /><glyph d="M52 335H466V411H52Z" glyph-name="endash.cap" horiz-adv-x="518" /><glyph d="M359 -165C462 -83 500 -26 500 135V323C500 405 481 462 441 502C401 542 349 561 282 561C246 561 214 553 187 542L155 509H143L126 558H85V0H160V423L149 464L157 480C190 492 225 498 259 498C317 498 357 483 383 457C413 427 426 383 426 319V134C426 0 398 -46 315 -118Z" glyph-name="eng" horiz-adv-x="577" unicode="&#331;" /><glyph d="M422 281 386 292H162L127 281L117 291C125 433 193 507 276 507C357 507 423 439 432 291ZM508 -147C418 -120 400 -109 400 -94C400 -83 405 -73 471 33L450 87C401 66 356 53 301 53C199 53 131 123 117 237L127 248L173 240H497V269C497 444 412 563 277 563C149 563 50 448 50 276C50 100 148 -4 292 -4C334 -4 373 4 413 21L419 9C342 -63 322 -89 322 -111C322 -127 335 -141 363 -157H508Z" glyph-name="eogonek" horiz-adv-x="542" unicode="&#281;" /><glyph d="M63 455H492V522H63ZM63 223H492V291H63Z" glyph-name="equal" horiz-adv-x="555" unicode="=" /><glyph d="M264 -10C400 -10 501 112 501 314C501 449 453 557 369 636L339 643V657L372 671L474 761V765H399L328 701L314 673H300L289 698C247 725 199 749 149 769L124 716C162 700 200 680 235 659L269 653V639L229 621L143 544V540H214L281 600L294 627H308L319 601C379 544 417 476 436 386L423 376L308 441C290 447 271 450 251 450C135 450 49 357 49 222C49 88 137 -10 264 -10ZM265 52C181 52 121 120 121 223C121 322 176 392 256 392C296 392 331 379 431 328V308C431 151 363 52 265 52Z" glyph-name="eth" horiz-adv-x="555" unicode="&#240;" /><glyph d="M134 228H171L200 654V736H105V654ZM99 0H206V111H99Z" glyph-name="exclam" horiz-adv-x="304" unicode="!" /><glyph d="M99 626H206V736H99ZM105 0H200V82L171 508H134L105 82Z" glyph-name="exclamdown" horiz-adv-x="304" unicode="&#161;" /><glyph d="M211 429 199 467 208 476 245 464H379V525H249L211 513L202 522V535C202 652 250 705 338 705C370 705 393 700 418 693L432 756C403 764 374 768 335 768C272 768 223 749 190 716C156 682 137 634 137 576V560L149 523L140 514L103 526H40V464H102L140 476L149 467L137 429V0H211Z" glyph-name="f" horiz-adv-x="404" unicode="f" /><glyph d="M211 429 199 467 208 476 245 464H379V525H249L211 513L202 522V535C202 652 250 705 338 705C360 705 378 703 395 699V764C378 767 358 768 335 768C272 768 223 749 190 716C156 682 137 634 137 576V560L149 523L140 514L103 526H40V464H102L140 476L149 467L137 429V0H211Z" glyph-name="f.lig" horiz-adv-x="404" /><glyph d="M211 429 199 467 208 476 245 464H379V525H249L211 513L202 522V535C202 652 250 705 338 705C370 705 393 700 418 693L432 756C403 764 374 768 335 768C272 768 223 749 190 716C156 682 137 634 137 576V560L149 523L140 514L103 526H40V464H102L140 476L149 467L137 429V0H211ZM615 429 603 467 612 476 649 464H783V525H653L615 513L606 522V535C606 652 654 705 742 705C774 705 797 700 822 693L836 756C807 764 778 768 739 768C676 768 627 749 594 716C560 682 541 634 541 576V560L553 523L544 514L507 526H444V464H506L544 476L553 467L541 429V0H615Z" glyph-name="f_f" horiz-adv-x="808" /><glyph d="M211 429 199 467 208 476 245 464H379V525H249L211 513L202 522V535C202 652 250 705 338 705C370 705 393 700 418 693L432 756C403 764 374 768 335 768C272 768 223 749 190 716C156 682 137 634 137 576V560L149 523L140 514L103 526H40V464H102L140 476L149 467L137 429V0H211ZM615 429 603 467 612 476 649 464H783V525H653L615 513L606 522V535C606 652 654 705 742 705C764 705 782 703 799 699V764C782 767 762 768 739 768C676 768 627 749 594 716C560 682 541 634 541 576V560L553 523L544 514L507 526H444V464H506L544 476L553 467L541 429V0H615ZM895 755V657L918 662H979L1002 657V755ZM911 554V0H986V554L964 551H933Z" glyph-name="f_f_i" horiz-adv-x="1089" /><glyph d="M211 429 199 467 208 476 245 464H379V525H249L211 513L202 522V535C202 652 250 705 338 705C370 705 393 700 418 693L432 756C403 764 374 768 335 768C272 768 223 749 190 716C156 682 137 634 137 576V560L149 523L140 514L103 526H40V464H102L140 476L149 467L137 429V0H211ZM615 429 603 467 612 476 649 464H783V525H653L615 513L606 522V535C606 652 654 705 742 705C764 705 782 703 799 699V764C782 767 762 768 739 768C676 768 627 749 594 716C560 682 541 634 541 576V560L553 523L544 514L507 526H444V464H506L544 476L553 467L541 429V0H615ZM911 0H986V765H911Z" glyph-name="f_f_l" horiz-adv-x="1089" /><glyph d="M211 429 199 467 208 476 245 464H379V525H249L211 513L202 522V535C202 652 250 705 338 705C360 705 378 703 395 699V764C378 767 358 768 335 768C272 768 223 749 190 716C156 682 137 634 137 576V560L149 523L140 514L103 526H40V464H102L140 476L149 467L137 429V0H211ZM491 755V657L514 662H575L598 657V755ZM507 554V0H582V554L560 551H529Z" glyph-name="fi" horiz-adv-x="685" unicode="&#64257;" /><glyph d="M83 -14C370 30 506 130 506 284C506 393 429 455 317 455C260 455 209 435 157 404L143 416L162 476L172 633L160 669L169 678L207 666H495V736H108L86 373L146 343C199 374 246 391 301 391C378 391 427 350 427 282C427 175 337 96 67 53Z" glyph-name="five" horiz-adv-x="568" unicode="5" /><glyph d="M55 -169C228 -143 314 -86 314 11C314 76 268 114 204 114C166 114 135 102 103 83L94 90L107 129L112 207L103 235L111 243L146 233H307V283H68L55 61L94 42C129 60 155 70 187 70C232 70 258 48 258 7C258 -53 208 -96 45 -121Z" glyph-name="five.den" horiz-adv-x="355" /><glyph d="M55 284C228 311 314 367 314 464C314 530 268 568 204 568C166 568 135 556 103 537L94 544L107 583L112 660L103 688L111 697L146 686H307V736H68L55 515L94 495C129 513 155 523 187 523C232 523 258 501 258 461C258 401 208 358 45 333Z" glyph-name="five.num" horiz-adv-x="355" /><glyph d="M202 666H486V736H103L81 373L141 343C194 374 239 391 294 391C370 391 418 350 418 282C418 175 331 96 63 53L78 -14C364 30 497 130 497 284C497 393 421 455 310 455C254 455 205 436 153 404L138 416L158 476L167 633L156 669L165 678Z" glyph-name="five.tab" horiz-adv-x="555" /><glyph d="M211 429 199 467 208 476 245 464H379V525H249L211 513L202 522V535C202 652 250 705 338 705C360 705 378 703 395 699V764C378 767 358 768 335 768C272 768 223 749 190 716C156 682 137 634 137 576V560L149 523L140 514L103 526H40V464H102L140 476L149 467L137 429V0H211ZM507 0H582V765H507Z" glyph-name="fl" horiz-adv-x="685" unicode="&#64258;" /><glyph d="M399 281 410 244 401 235 364 247H179L106 236L100 249L142 295L360 634L384 691H409L399 580ZM358 186 396 198 405 189 393 151V0H468V151L456 189L465 198L502 186H580V250H502L465 238L456 247L468 284V741H360L47 256V186Z" glyph-name="four" horiz-adv-x="619" unicode="4" /><glyph d="M193 -8H110L56 -16L52 -5L84 29L191 208L211 255H228L221 172V20L230 -9L222 -17ZM269 -78 260 -49 268 -41 297 -50H333V-4H297L268 -14L260 -6L269 23V289H193L14 -1V-50H189L218 -41L227 -49L217 -78V-157H269Z" glyph-name="four.den" horiz-adv-x="355" /><glyph d="M193 446H110L56 438L52 448L84 483L191 661L211 708H228L221 625V473L230 444L222 436ZM269 375 260 404 268 413 297 403H333V449H297L268 440L260 448L269 477V743H193L14 453V403H189L218 413L227 404L217 375V296H269Z" glyph-name="four.num" horiz-adv-x="355" /><glyph d="M369 235 332 247H161L88 236L82 249L123 296L328 630L352 691H377L367 580V281L378 244ZM361 0H436V151L424 189L433 198L470 186H532V250H470L433 238L424 247L436 284V741H328L29 256V186H327L364 198L373 189L361 151Z" glyph-name="four.tab" horiz-adv-x="555" /><glyph d="M53 337 295 734V740H228L33 346ZM-241 -161H-174L21 233L1 242L-241 -155Z" glyph-name="fraction" horiz-adv-x="54" unicode="&#8260;" /><glyph d="M300 124C245 124 200 140 170 170C139 201 122 245 122 310C122 373 141 423 172 454C201 484 240 498 296 498C334 498 373 491 408 477L415 463L405 422V199L415 158L408 143C374 130 337 124 300 124ZM237 -162C393 -162 478 -77 478 83V558H437L421 509H409L376 542C348 553 317 560 283 560C215 560 159 537 118 496C76 453 51 387 51 308C51 231 73 170 113 130C153 90 213 66 286 66C312 66 337 70 361 78L400 109L414 101C414 -40 353 -100 239 -100C188 -100 134 -90 87 -73L73 -135C124 -152 180 -162 237 -162Z" glyph-name="g" horiz-adv-x="563" unicode="g" /><glyph d="M300 124C245 124 200 140 170 170C139 201 122 245 122 310C122 373 141 423 172 454C201 484 240 498 296 498C334 498 373 491 408 477L415 463L405 422V199L415 158L408 143C374 130 337 124 300 124ZM237 -162C393 -162 478 -77 478 83V558H437L421 509H409L376 542C348 553 317 560 283 560C215 560 159 537 118 496C76 453 51 387 51 308C51 231 73 170 113 130C153 90 213 66 286 66C312 66 337 70 361 78L400 109L414 101C414 -40 353 -100 239 -100C188 -100 134 -90 87 -73L73 -135C124 -152 180 -162 237 -162ZM269 651C363 651 421 704 425 792H372C365 740 332 711 271 711C210 711 175 740 168 792H115C119 704 175 651 269 651Z" glyph-name="gbreve" horiz-adv-x="563" unicode="&#287;" /><glyph d="M300 124C245 124 200 140 170 170C139 201 122 245 122 310C122 373 141 423 172 454C201 484 240 498 296 498C334 498 373 491 408 477L415 463L405 422V199L415 158L408 143C374 130 337 124 300 124ZM237 -162C393 -162 478 -77 478 83V558H437L421 509H409L376 542C348 553 317 560 283 560C215 560 159 537 118 496C76 453 51 387 51 308C51 231 73 170 113 130C153 90 213 66 286 66C312 66 337 70 361 78L400 109L414 101C414 -40 353 -100 239 -100C188 -100 134 -90 87 -73L73 -135C124 -152 180 -162 237 -162ZM436 792H379L301 731L279 702H263L241 731L163 792H104V788L227 652H313L436 788Z" glyph-name="gcaron" horiz-adv-x="563" unicode="&#487;" /><glyph d="M300 124C245 124 200 140 170 170C139 201 122 245 122 310C122 373 141 423 172 454C201 484 240 498 296 498C334 498 373 491 408 477L415 463L405 422V199L415 158L408 143C374 130 337 124 300 124ZM237 -162C393 -162 478 -77 478 83V558H437L421 509H409L376 542C348 553 317 560 283 560C215 560 159 537 118 496C76 453 51 387 51 308C51 231 73 170 113 130C153 90 213 66 286 66C312 66 337 70 361 78L400 109L414 101C414 -40 353 -100 239 -100C188 -100 134 -90 87 -73L73 -135C124 -152 180 -162 237 -162ZM104 652H161L239 713L261 742H277L299 713L377 652H436V656L313 792H227L104 656Z" glyph-name="gcircumflex" horiz-adv-x="563" unicode="&#285;" /><glyph d="M300 124C245 124 200 140 170 170C139 201 122 245 122 310C122 373 141 423 172 454C201 484 240 498 296 498C334 498 373 491 408 477L415 463L405 422V199L415 158L408 143C374 130 337 124 300 124ZM237 -162C393 -162 478 -77 478 83V558H437L421 509H409L376 542C348 553 317 560 283 560C215 560 159 537 118 496C76 453 51 387 51 308C51 231 73 170 113 130C153 90 213 66 286 66C312 66 337 70 361 78L400 109L414 101C414 -40 353 -100 239 -100C188 -100 134 -90 87 -73L73 -135C124 -152 180 -162 237 -162ZM217 652H323V766H217Z" glyph-name="gdotaccent" horiz-adv-x="563" unicode="&#289;" /><glyph d="M137 429V0H210V535C210 648 264 708 354 708C440 708 491 659 491 585C491 504 445 452 334 410V350C483 299 544 240 544 157C544 92 504 55 447 55C406 55 370 65 327 84L308 24C356 3 400 -7 448 -7C547 -7 617 53 617 154C617 266 531 333 399 378V389C505 434 564 490 564 590C564 697 481 770 357 770C290 770 236 750 198 712C163 677 139 619 139 557V553L149 523L140 514L103 526H40V464H102L140 476L149 467Z" glyph-name="germandbls" horiz-adv-x="667" unicode="&#223;" /><glyph d="M221 652H284V656L150 782H6V778Z" glyph-name="grave" horiz-adv-x="500" unicode="`" /><glyph d="M-35 821H41V826L-104 945H-257V940Z" glyph-name="grave.cap" horiz-adv-x="0" /><glyph d="M70 619V541L367 399L433 383V361L367 345L70 203V126L498 339V406Z" glyph-name="greater" horiz-adv-x="555" unicode="&gt;" /><glyph d="M566 107 591 134 454 285 408 315V330L454 360L591 511L566 538L343 355V289ZM291 107 316 134 179 285 132 315V330L179 360L316 511L291 538L67 355V289Z" glyph-name="guillemotleft" horiz-adv-x="662" unicode="&#171;" /><glyph d="M566 157 591 184 454 335 408 365V380L454 410L591 561L566 588L343 405V339ZM291 157 316 184 179 335 132 365V380L179 410L316 561L291 588L67 405V339Z" glyph-name="guillemotleft.cap" horiz-adv-x="662" /><glyph d="M96 538 71 511 208 359 254 329V314L208 284L71 133L96 107L320 289V355ZM372 538 346 511 484 359 530 329V314L484 284L346 133L372 107L595 289V355Z" glyph-name="guillemotright" horiz-adv-x="662" unicode="&#187;" /><glyph d="M96 588 71 561 208 409 254 379V364L208 334L71 183L96 157L320 339V405ZM372 588 346 561 484 409 530 379V364L484 334L346 183L372 157L595 339V405Z" glyph-name="guillemotright.cap" horiz-adv-x="662" /><glyph d="M291 538 67 355V289L291 107L316 134L179 285L133 315V330L179 360L316 511Z" glyph-name="guilsinglleft" horiz-adv-x="387" unicode="&#8249;" /><glyph d="M291 588 67 405V339L291 157L316 184L179 335L133 365V380L179 410L316 561Z" glyph-name="guilsinglleft.cap" horiz-adv-x="387" /><glyph d="M96 107 320 289V355L96 538L71 511L208 359L255 329V314L208 284L71 133Z" glyph-name="guilsinglright" horiz-adv-x="387" unicode="&#8250;" /><glyph d="M96 157 320 339V405L96 588L71 561L208 409L255 379V364L208 334L71 183Z" glyph-name="guilsinglright.cap" horiz-adv-x="387" /><glyph d="M160 416 149 457 159 476C185 487 220 498 259 498C317 498 357 483 383 457C413 427 426 383 426 319V0H500V323C500 405 481 462 441 502C401 542 349 561 282 561C255 561 226 554 201 543L161 508L149 515L160 569V765H85V0H160Z" glyph-name="h" horiz-adv-x="577" unicode="h" /><glyph d="M160 360 149 402 158 420C185 431 220 442 259 442C318 442 361 428 387 403C413 377 426 340 426 283V0H500V288C500 361 482 411 446 447C408 485 354 505 282 505C255 505 226 498 201 487L160 453L148 460L158 505V592L146 624L155 633L193 622H339V677H194L157 665L148 674L159 708V765H85V708L97 674L88 665L51 677H-10V622H51L88 633L97 624L85 588V0H160Z" glyph-name="hbar" horiz-adv-x="577" unicode="&#295;" /><glyph d="M160 416 149 457 159 476C185 487 220 498 259 498C317 498 357 483 383 457C413 427 426 383 426 319V0H500V323C500 405 481 462 441 502C401 542 349 561 282 561C255 561 226 554 201 543L161 508L149 515L160 569V765H85V0H160ZM-43 817H14L92 878L114 907H130L152 878L230 817H289V821L166 957H80L-43 821Z" glyph-name="hcircumflex" horiz-adv-x="577" unicode="&#293;" /><glyph d="M314 652H363L554 778V782H432L314 656ZM103 652H153L343 778V782H222L103 656Z" glyph-name="hungarumlaut" horiz-adv-x="500" unicode="&#733;" /><glyph d="M66 821H117L325 940V945H193L66 826ZM-157 821H-106L102 940V945H-30L-157 826Z" glyph-name="hungarumlaut.cap" horiz-adv-x="0" /><glyph d="M51 283H308V361H51Z" glyph-name="hyphen" horiz-adv-x="359" unicode="-" /><glyph d="M51 334H308V412H51Z" glyph-name="hyphen.cap" horiz-adv-x="359" /><glyph d="M87 755V657L110 662H171L194 657V755ZM103 554V0H178V554L156 551H125Z" glyph-name="i" horiz-adv-x="281" unicode="i" /><glyph d="M103 554V0H178V554L156 551H125ZM88 652H194V766H88Z" glyph-name="i.dot" horiz-adv-x="281" /><glyph d="M103 554V0H178V554L156 551H125ZM170 652 385 778V782H241L107 656V652Z" glyph-name="iacute" horiz-adv-x="281" unicode="&#237;" /><glyph d="M103 554V0H178V554L156 551H125ZM140 651C234 651 292 704 296 792H243C236 740 203 711 142 711C81 711 46 740 39 792H-14C-10 704 46 651 140 651Z" glyph-name="ibreve" horiz-adv-x="281" unicode="&#301;" /><glyph d="M103 554V0H178V554L156 551H125ZM-25 652H32L110 713L132 742H148L170 713L248 652H307V656L184 792H98L-25 656Z" glyph-name="icircumflex" horiz-adv-x="281" unicode="&#238;" /><glyph d="M103 554V0H178V554L156 551H125ZM196 652H292V762H196ZM-10 652H86V762H-10Z" glyph-name="idieresis" horiz-adv-x="281" unicode="&#239;" /><glyph d="M103 554V0H178V554L156 551H125ZM112 652H175V656L41 782H-103V778Z" glyph-name="igrave" horiz-adv-x="281" unicode="&#236;" /><glyph d="M103 554V0H178V554L156 551H125ZM3 662H279V722H3Z" glyph-name="imacron" horiz-adv-x="281" unicode="&#299;" /><glyph d="M87 755V657L110 662H171L194 657V755ZM236 -157V-147C146 -120 127 -109 127 -94C127 -83 132 -73 178 0V554L156 551H125L103 554V7L131 2V-11C64 -70 50 -91 50 -111C50 -127 62 -141 90 -157Z" glyph-name="iogonek" horiz-adv-x="281" unicode="&#303;" /><glyph d="M103 554V0H178V554L156 551H125ZM152 749C100 785 82 794 57 794C10 794 -18 752 -54 662L-14 646C18 710 33 734 55 734C72 734 82 727 130 694C183 658 201 649 226 649C272 649 300 691 337 781L296 797C264 733 249 709 227 709C210 709 200 716 152 749Z" glyph-name="itilde" horiz-adv-x="281" unicode="&#297;" /><glyph d="M92 755V657L115 662H176L199 657V755ZM108 554V134C108 0 80 -46 -5 -118L39 -165C143 -83 183 -26 183 135V554L161 551H130Z" glyph-name="j" horiz-adv-x="281" unicode="j" /><glyph d="M108 554V134C108 0 80 -46 -5 -118L39 -165C143 -83 183 -26 183 135V554L161 551H130ZM-21 652H36L114 713L136 742H152L174 713L252 652H311V656L188 792H102L-21 656Z" glyph-name="jcircumflex" horiz-adv-x="281" unicode="&#309;" /><glyph d="M85 0H160V209L146 254L157 265H219L232 244L429 0H514V8L305 259L270 282V294L305 317L501 546V554H417L234 332L222 312H157L146 322L160 368V765H85Z" glyph-name="k" horiz-adv-x="533" unicode="k" /><glyph d="M103 0H178V765H103Z" glyph-name="l" horiz-adv-x="281" unicode="l" /><glyph d="M103 0H178V765H103ZM170 850 385 976V980H241L107 854V850Z" glyph-name="lacute" horiz-adv-x="281" unicode="&#314;" /><glyph d="M103 0H178V765H103ZM253 582 285 574 377 752V765H291Z" glyph-name="lcaron" horiz-adv-x="281" unicode="&#318;" /><glyph d="M485 126V205L188 347L122 363V384L188 401L485 543V619L57 406V339Z" glyph-name="less" horiz-adv-x="555" unicode="&lt;" /><glyph d="M224 345 211 372 217 383 248 385 346 432V502L258 460L224 430L212 438L224 480V765H150V439L163 411L158 401L127 398L29 351V281L117 324L150 353L163 346L150 303V0H224Z" glyph-name="lslash" horiz-adv-x="375" unicode="&#322;" /><glyph d="M160 423 149 464 157 479C191 490 230 498 264 498C323 498 353 487 377 462C401 439 413 403 413 346V0H487V351C487 399 480 432 465 462L474 478C507 490 545 498 583 498C636 498 672 484 697 459C727 429 740 387 740 324V0H815V328C815 410 795 466 757 504C721 540 670 561 606 561C566 561 525 551 491 535L447 495C415 537 361 561 291 561C252 561 216 553 187 542L155 509H143L126 558H85V0H160Z" glyph-name="m" horiz-adv-x="891" unicode="m" /><glyph d="M80 662H420V722H80Z" glyph-name="macron" horiz-adv-x="500" unicode="&#175;" /><glyph d="M-193 832H193V893H-193Z" glyph-name="macron.cap" horiz-adv-x="0" /><glyph d="M-160 832H160V893H-160Z" glyph-name="macron.capnrw" horiz-adv-x="0" /><glyph d="M-138 662H138V722H-138Z" glyph-name="macron.nrw" horiz-adv-x="0" /><glyph d="M20 333H110V451H20Z" glyph-name="middotcat" horiz-adv-x="129" /><glyph d="M10 354H114V473H10Z" glyph-name="middotcat.cap" horiz-adv-x="211" /><glyph d="M54 336H501V409H54Z" glyph-name="minus" horiz-adv-x="555" unicode="&#8722;" /><glyph d="M285 409H271L253 443L115 592L66 543L207 397L242 379V366L207 348L66 202L114 153L252 302L270 336H284L302 302L440 153L489 202L348 348L313 366V379L348 397L489 543L441 592L303 443Z" glyph-name="multiply" horiz-adv-x="555" unicode="&#215;" /><glyph d="M160 423 149 464 157 480C190 492 225 498 259 498C317 498 357 483 383 457C413 427 426 383 426 319V0H500V323C500 405 481 462 441 502C401 542 349 561 282 561C246 561 214 553 187 542L155 509H143L126 558H85V0H160Z" glyph-name="n" horiz-adv-x="577" unicode="n" /><glyph d="M160 423 149 464 157 480C190 492 225 498 259 498C317 498 357 483 383 457C413 427 426 383 426 319V0H500V323C500 405 481 462 441 502C401 542 349 561 282 561C246 561 214 553 187 542L155 509H143L126 558H85V0H160ZM320 652 535 778V782H391L257 656V652Z" glyph-name="nacute" horiz-adv-x="577" unicode="&#324;" /><glyph d="M160 423 149 464 157 480C190 492 225 498 259 498C317 498 357 483 383 457C413 427 426 383 426 319V0H500V323C500 405 481 462 441 502C401 542 349 561 282 561C246 561 214 553 187 542L155 509H143L126 558H85V0H160ZM457 792H400L322 731L300 702H284L262 731L184 792H125V788L248 652H334L457 788Z" glyph-name="ncaron" horiz-adv-x="577" unicode="&#328;" /><glyph d="M180 -17C395 81 524 244 524 458C524 633 429 746 282 746C151 746 51 653 51 503C51 345 157 274 274 274C296 274 317 276 333 278L423 320L437 309C379 187 276 102 146 42ZM281 680C383 680 450 590 450 459C450 428 448 397 443 369C387 346 341 335 299 335C193 335 124 393 124 505C124 613 194 680 281 680Z" glyph-name="nine" horiz-adv-x="585" unicode="9" /><glyph d="M126 -171C255 -94 316 -9 316 119C316 225 256 292 175 292C95 292 35 228 35 143C35 55 86 9 155 9C164 9 173 10 181 11L253 43L262 33C226 -38 179 -85 99 -131ZM173 246C227 246 265 200 265 123C265 105 264 87 261 71C230 58 199 49 170 49C119 49 87 81 87 143C87 207 123 246 173 246Z" glyph-name="nine.den" horiz-adv-x="355" /><glyph d="M126 282C255 359 316 445 316 572C316 679 256 745 175 745C95 745 35 682 35 596C35 508 86 463 155 463C164 463 173 463 181 464L253 496L262 487C226 416 179 369 99 323ZM173 699C227 699 265 653 265 576C265 558 264 540 261 525C230 511 199 503 170 503C119 503 87 534 87 597C87 661 123 699 173 699Z" glyph-name="nine.num" horiz-adv-x="355" /><glyph d="M181 -18C396 91 496 251 496 458C496 632 407 746 272 746C144 746 55 649 55 502C55 357 143 274 259 274C275 274 292 275 304 277L395 321L409 310C356 188 270 101 145 40ZM269 680C363 680 422 589 422 459C422 428 419 397 415 368C362 346 320 335 285 335C190 335 128 393 128 505C128 608 187 680 269 680Z" glyph-name="nine.tab" horiz-adv-x="555" /><glyph d="M285 320 336 426 339 457 349 464 380 455H492V522H414L374 511L367 522L393 552L444 661H376L325 551L322 520L312 514L281 522H63V455H248L288 466L295 455L270 425L219 319L216 289L206 282L176 291H63V223H141L181 234L188 223L162 193L111 84H179L230 194L233 225L243 232L274 223H492V291H307L267 279L260 290Z" glyph-name="notequal" horiz-adv-x="555" unicode="&#8800;" /><glyph d="M160 423 149 464 157 480C190 492 225 498 259 498C317 498 357 483 383 457C413 427 426 383 426 319V0H500V323C500 405 481 462 441 502C401 542 349 561 282 561C246 561 214 553 187 542L155 509H143L126 558H85V0H160ZM302 749C250 785 232 794 207 794C160 794 132 752 96 662L136 646C168 710 183 734 205 734C222 734 232 727 280 694C333 658 351 649 376 649C422 649 450 691 487 781L446 797C414 733 399 709 377 709C360 709 350 716 302 749Z" glyph-name="ntilde" horiz-adv-x="577" unicode="&#241;" /><glyph d="M155 299 157 264 147 256 114 265 25 270V209L107 206L140 214L148 204L135 172L107 -6H155L274 742H225L199 578L201 543L191 535L159 545L63 550V489L151 485L184 493L192 483L179 452ZM356 159 354 194 364 202 397 192 492 187V248L404 252L371 244L363 254L376 285L400 438L398 473L408 481L441 472L530 467V528L448 531L415 523L407 533L420 565L448 742H400L281 -6H330Z" glyph-name="numbersign" horiz-adv-x="555" unicode="#" /><glyph d="M50 276C50 102 148 -10 276 -10C403 -10 502 103 502 278C502 452 404 563 276 563C149 563 50 450 50 276ZM123 277C123 409 183 499 275 499C368 499 429 409 429 276C429 144 370 54 277 54C184 54 123 145 123 277Z" glyph-name="o" horiz-adv-x="552" unicode="o" /><glyph d="M50 276C50 102 148 -10 276 -10C403 -10 502 103 502 278C502 452 404 563 276 563C149 563 50 450 50 276ZM123 277C123 409 183 499 275 499C368 499 429 409 429 276C429 144 370 54 277 54C184 54 123 145 123 277ZM305 652 520 778V782H376L242 656V652Z" glyph-name="oacute" horiz-adv-x="552" unicode="&#243;" /><glyph d="M50 276C50 102 148 -10 276 -10C403 -10 502 103 502 278C502 452 404 563 276 563C149 563 50 450 50 276ZM123 277C123 409 183 499 275 499C368 499 429 409 429 276C429 144 370 54 277 54C184 54 123 145 123 277ZM275 651C369 651 427 704 431 792H378C371 740 338 711 277 711C216 711 181 740 174 792H121C125 704 181 651 275 651Z" glyph-name="obreve" horiz-adv-x="552" unicode="&#335;" /><glyph d="M50 276C50 102 148 -10 276 -10C403 -10 502 103 502 278C502 452 404 563 276 563C149 563 50 450 50 276ZM123 277C123 409 183 499 275 499C368 499 429 409 429 276C429 144 370 54 277 54C184 54 123 145 123 277ZM110 652H167L245 713L267 742H283L305 713L383 652H442V656L319 792H233L110 656Z" glyph-name="ocircumflex" horiz-adv-x="552" unicode="&#244;" /><glyph d="M50 276C50 102 148 -10 276 -10C403 -10 502 103 502 278C502 452 404 563 276 563C149 563 50 450 50 276ZM123 277C123 409 183 499 275 499C368 499 429 409 429 276C429 144 370 54 277 54C184 54 123 145 123 277ZM331 652H427V762H331ZM125 652H221V762H125Z" glyph-name="odieresis" horiz-adv-x="552" unicode="&#246;" /><glyph d="M770 281 735 292H525L490 281L479 292C488 432 553 507 632 507C708 507 771 440 781 292ZM270 54C182 54 123 145 123 277C123 409 180 499 267 499C356 499 417 409 417 276C417 144 358 54 270 54ZM445 148H456C487 50 557 -7 654 -7C715 -7 765 7 820 33L799 87C751 66 708 53 657 53C559 53 493 123 480 237L490 248L536 240H846V269C846 444 764 563 637 563C552 563 485 501 456 405H445C416 501 353 563 266 563C146 563 50 450 50 276C50 102 145 -10 265 -10C351 -10 416 53 445 148Z" glyph-name="oe" horiz-adv-x="891" unicode="&#339;" /><glyph d="M203 -157H349V-147C258 -120 240 -109 240 -94C240 -83 245 -73 290 0L255 14C176 -72 163 -91 163 -111C163 -127 175 -141 203 -157Z" glyph-name="ogonek" horiz-adv-x="500" unicode="&#731;" /><glyph d="M50 276C50 102 148 -10 276 -10C403 -10 502 103 502 278C502 452 404 563 276 563C149 563 50 450 50 276ZM123 277C123 409 183 499 275 499C368 499 429 409 429 276C429 144 370 54 277 54C184 54 123 145 123 277ZM247 652H310V656L176 782H32V778Z" glyph-name="ograve" horiz-adv-x="552" unicode="&#242;" /><glyph d="M502 273C502 388 463 459 385 502L390 516C402 515 414 515 425 515C503 515 533 540 584 710L524 727C476 573 453 554 386 554H276C149 554 50 444 50 271C50 99 148 -10 276 -10C403 -10 502 101 502 273ZM275 494C368 494 429 405 429 273C429 143 370 54 277 54C184 54 123 143 123 275C123 405 183 494 275 494Z" glyph-name="ohorn" horiz-adv-x="562" unicode="&#417;" /><glyph d="M50 276C50 102 148 -10 276 -10C403 -10 502 103 502 278C502 452 404 563 276 563C149 563 50 450 50 276ZM123 277C123 409 183 499 275 499C368 499 429 409 429 276C429 144 370 54 277 54C184 54 123 145 123 277ZM340 652H389L580 778V782H458L340 656ZM129 652H179L369 778V782H248L129 656Z" glyph-name="ohungarumlaut" horiz-adv-x="552" unicode="&#337;" /><glyph d="M50 276C50 102 148 -10 276 -10C403 -10 502 103 502 278C502 452 404 563 276 563C149 563 50 450 50 276ZM123 277C123 409 183 499 275 499C368 499 429 409 429 276C429 144 370 54 277 54C184 54 123 145 123 277ZM106 662H446V722H106Z" glyph-name="omacron" horiz-adv-x="552" unicode="&#333;" /><glyph d="M309 0V741H241L32 636L57 581L234 663L245 651L231 608V0Z" glyph-name="one" horiz-adv-x="447" unicode="1" /><glyph d="M212 -79V286H167L41 234L57 193L159 234L168 225L155 192V-79L165 -111L156 -119L125 -109H48V-157H302V-109H242L210 -119L202 -111Z" glyph-name="one.den" horiz-adv-x="355" /><glyph d="M212 374V739H167L41 687L57 646L159 687L168 679L155 645V374L165 342L156 334L125 344H48V296H302V344H242L210 334L202 342Z" glyph-name="one.num" horiz-adv-x="355" /><glyph d="M340 104V741H273L78 652L98 595L264 664L276 652L261 609V104L273 66L264 57L227 69H74V0H512V69H375L337 57L328 66Z" glyph-name="one.tab" horiz-adv-x="555" /><glyph d="M212 374V739H167L41 687L57 646L159 687L168 679L155 645V374L165 342L156 334L125 344H48V296H302V344H242L210 334L202 342ZM426 337 668 734V740H601L406 346ZM132 -161H199L394 233L374 242L132 -155ZM483 -157H749V-105H612L523 -123L515 -104L656 24C717 76 745 118 745 175C745 244 694 288 623 288C561 288 515 257 476 217L510 180C545 214 578 237 619 237C660 237 688 213 688 170C688 127 666 95 621 51L460 -102Z" glyph-name="onehalf" horiz-adv-x="794" unicode="&#189;" /><glyph d="M212 374V739H167L41 687L57 646L159 687L168 679L155 645V374L165 342L156 334L125 344H48V296H302V344H242L210 334L202 342ZM426 337 668 734V740H601L406 346ZM132 -161H199L394 233L374 242L132 -155ZM617 -8H534L480 -16L476 -5L508 29L615 208L635 255H652L645 172V20L654 -9L646 -17ZM693 -78 684 -49 692 -41 721 -50H757V-4H721L692 -14L684 -6L693 23V289H617L438 -1V-50H613L642 -41L651 -49L641 -78V-157H693Z" glyph-name="onequarter" horiz-adv-x="779" unicode="&#188;" /><glyph d="M212 374V739H167L41 687L57 646L159 687L168 679L155 645V374L165 342L156 334L125 344H48V296H302V344H242L210 334L202 342ZM426 337 668 734V740H601L406 346ZM132 -161H199L394 233L374 242L132 -155ZM478 -162C641 -158 750 -114 750 -28C750 36 691 60 604 72L603 81C700 113 746 145 746 202C746 257 697 289 622 289C570 289 522 274 476 250L494 209C535 228 577 242 614 242C663 242 689 223 689 191C689 151 646 122 535 89L542 47C635 42 692 22 692 -25C692 -78 622 -109 478 -116Z" glyph-name="onethird" horiz-adv-x="794" unicode="&#8531;" /><glyph d="M250 394C187 394 151 423 151 470C151 528 200 557 328 557C343 557 365 556 383 554L392 546L382 515V435C344 410 303 394 250 394ZM336 367 385 412 407 355H454L440 435V603C440 695 385 743 270 743C218 743 175 735 134 722L146 677C183 687 223 694 266 694C353 694 386 667 388 590L380 582L346 592C170 602 93 552 93 467C93 395 155 350 242 350C277 350 308 356 336 367ZM83 175H471V222H83Z" glyph-name="ordfeminine" horiz-adv-x="555" unicode="&#170;" /><glyph d="M87 546C87 426 172 348 277 348C381 348 468 426 468 547C468 668 383 745 278 745C174 745 87 667 87 546ZM147 548C147 637 200 695 277 695C354 695 408 637 408 546C408 457 355 398 278 398C201 398 147 457 147 548ZM85 175H470V222H85Z" glyph-name="ordmasculine" horiz-adv-x="555" unicode="&#186;" /><glyph d="M117 267C117 357 140 426 178 463C205 490 239 504 279 504C312 504 343 495 379 476V461L349 433L175 155L160 112H144C126 166 117 217 117 267ZM273 49C240 49 209 58 173 78V93L203 121L377 398L392 442H408C425 388 435 336 435 287C435 196 412 128 374 90C347 63 313 49 273 49ZM469 625 420 546 407 507H395L379 535C351 552 315 563 276 563C149 563 50 450 50 276C50 204 68 140 98 93L126 80V68L94 43L22 -68V-71H83L133 8L145 47H157L173 19C201 1 237 -10 276 -10C403 -10 502 103 502 278C502 350 484 413 454 461L426 473V486L458 511L530 622V625Z" glyph-name="oslash" horiz-adv-x="552" unicode="&#248;" /><glyph d="M117 267C117 357 140 426 178 463C205 490 239 504 279 504C312 504 343 495 379 476V461L349 433L175 155L160 112H144C126 166 117 217 117 267ZM273 49C240 49 209 58 173 78V93L203 121L377 398L392 442H408C425 388 435 336 435 287C435 196 412 128 374 90C347 63 313 49 273 49ZM469 625 420 546 407 507H395L379 535C351 552 315 563 276 563C149 563 50 450 50 276C50 204 68 140 98 93L126 80V68L94 43L22 -68V-71H83L133 8L145 47H157L173 19C201 1 237 -10 276 -10C403 -10 502 103 502 278C502 350 484 413 454 461L426 473V486L458 511L530 622V625ZM305 652 520 778V782H376L242 656V652Z" glyph-name="oslashacute" horiz-adv-x="552" unicode="&#511;" /><glyph d="M50 276C50 102 148 -10 276 -10C403 -10 502 103 502 278C502 452 404 563 276 563C149 563 50 450 50 276ZM123 277C123 409 183 499 275 499C368 499 429 409 429 276C429 144 370 54 277 54C184 54 123 145 123 277ZM287 749C235 785 217 794 192 794C145 794 117 752 81 662L121 646C153 710 168 734 190 734C207 734 217 727 265 694C318 658 336 649 361 649C407 649 435 691 472 781L431 797C399 733 384 709 362 709C345 709 335 716 287 749Z" glyph-name="otilde" horiz-adv-x="552" unicode="&#245;" /><glyph d="M251 68C221 68 188 76 156 90L148 108L159 149V418L148 460L157 477C186 490 218 497 257 497C307 497 350 482 379 453C416 416 435 362 435 282C435 206 416 151 379 114C347 82 307 68 251 68ZM507 285C507 379 482 450 435 496C394 537 337 560 274 560C241 560 213 553 187 542L155 509H143L126 558H85V-157H160V-6L149 48L161 55L202 20C223 11 246 6 270 6C334 6 390 29 433 72C480 119 507 190 507 285Z" glyph-name="p" horiz-adv-x="558" unicode="p" /><glyph d="M425 653V-157H484V736H310C150 736 47 638 47 472C47 304 156 210 307 212V653L295 690L304 699L338 687H393L428 699L437 690Z" glyph-name="paragraph" horiz-adv-x="575" unicode="&#182;" /><glyph d="M70 319C70 123 165 -25 336 -126L365 -85C215 18 139 138 139 319C139 500 215 620 365 723L336 764C165 663 70 515 70 319Z" glyph-name="parenleft" horiz-adv-x="416" unicode="(" /><glyph d="M70 364C70 168 165 20 336 -81L365 -40C215 63 139 183 139 364C139 545 215 665 365 768L336 809C165 708 70 560 70 364Z" glyph-name="parenleft.cap" horiz-adv-x="416" /><glyph d="M346 319C346 515 252 663 80 764L52 723C201 620 277 500 277 319C277 138 201 18 52 -85L80 -126C252 -25 346 123 346 319Z" glyph-name="parenright" horiz-adv-x="416" unicode=")" /><glyph d="M346 364C346 560 252 708 80 809L52 768C201 665 277 545 277 364C277 183 201 63 52 -40L80 -81C252 20 346 168 346 364Z" glyph-name="parenright.cap" horiz-adv-x="416" /><glyph d="M378 392 601 719 554 748 360 403ZM27 554C27 439 80 367 163 367C246 367 299 441 299 556C299 671 246 742 163 742C80 742 27 669 27 554ZM75 555C75 652 109 700 163 700C216 700 251 652 251 555C251 457 216 409 163 409C109 409 75 457 75 555ZM402 180C402 65 455 -6 539 -6C622 -6 675 67 675 182C675 297 622 369 539 369C455 369 402 295 402 180ZM324 344 100 17 147 -12 342 333ZM451 181C451 279 485 327 539 327C592 327 627 279 627 181C627 84 592 36 539 36C485 36 451 84 451 181Z" glyph-name="percent" horiz-adv-x="702" unicode="%" /><glyph d="M71 0H177V115H71Z" glyph-name="period" horiz-adv-x="248" unicode="." /><glyph d="M86 0H192V115H86Z" glyph-name="period.tab" horiz-adv-x="278" /><glyph d="M349 406 311 394 302 403 314 440V615H241V440L253 403L244 394L206 406H49V340H206L244 351L253 342L241 305V130H314V305L302 342L311 351L349 340H506V406Z" glyph-name="plus" horiz-adv-x="555" unicode="+" /><glyph d="M314 341 302 379 311 388 348 376H500V442H348L311 430L302 439L314 477V640H242V477L253 439L244 430L207 442H55V376H207L244 388L253 379L242 341V178H314ZM62 0H493V68H62Z" glyph-name="plusminus" horiz-adv-x="555" unicode="&#177;" /><glyph d="M51 281C51 187 76 116 123 70C163 30 223 6 286 6C311 6 335 11 356 20L397 55L409 48L398 -6V-157H472V558H431L415 509H403L371 542C345 553 318 560 286 560C224 560 167 537 125 494C78 447 51 376 51 281ZM305 68C252 68 208 84 178 113C141 150 123 204 123 284C123 360 142 415 179 452C210 483 251 498 305 498C340 498 372 491 401 478L410 460L399 419V149L410 108L402 91C370 76 335 68 305 68Z" glyph-name="q" horiz-adv-x="558" unicode="q" /><glyph d="M220 228H260L271 350C412 416 488 480 488 582C488 686 407 745 290 745C198 745 119 713 42 663L78 604C145 647 211 676 285 676C360 676 408 640 408 576C408 504 358 454 202 388ZM187 0H293V111H187Z" glyph-name="question" horiz-adv-x="544" unicode="?" /><glyph d="M357 736H250V625H357ZM323 508H284L273 386C132 320 55 256 55 154C55 50 137 -9 254 -9C346 -9 425 23 501 73L466 132C399 89 332 60 259 60C184 60 136 96 136 160C136 232 186 282 342 348Z" glyph-name="questiondown" horiz-adv-x="544" unicode="&#191;" /><glyph d="M324 434 457 724V736H358L287 444ZM94 434 227 724V736H128L57 444Z" glyph-name="quotedbl" horiz-adv-x="505" unicode="&quot;" /><glyph d="M348 433 491 724V736H392L310 444ZM111 433 254 724V736H154L73 444Z" glyph-name="quotedbl.tab" horiz-adv-x="555" /><glyph d="M303 -153 435 131V143H337L265 -143ZM72 -153 205 131V143H107L35 -143Z" glyph-name="quotedblbase" horiz-adv-x="499" unicode="&#8222;" /><glyph d="M181 770 48 480V468H146L218 759ZM411 770 278 480V468H376L448 759Z" glyph-name="quotedblleft" horiz-adv-x="505" unicode="&#8220;" /><glyph d="M324 463 457 753V765H358L287 473ZM94 463 227 753V765H128L57 473Z" glyph-name="quotedblright" horiz-adv-x="505" unicode="&#8221;" /><glyph d="M185 770 50 480V468H153L225 759Z" glyph-name="quoteleft" horiz-adv-x="283" unicode="&#8216;" /><glyph d="M99 463 234 753V765H130L59 474Z" glyph-name="quoteright" horiz-adv-x="283" unicode="&#8217;" /><glyph d="M77 -153 212 131V143H108L37 -142Z" glyph-name="quotesinglbase" horiz-adv-x="278" unicode="&#8218;" /><glyph d="M99 434 234 724V736H130L59 445Z" glyph-name="quotesingle" horiz-adv-x="283" unicode="'" /><glyph d="M94 433 232 724V736H130L54 444Z" glyph-name="quotesingle.tab" horiz-adv-x="278" /><glyph d="M160 0V366L149 407L155 422C218 459 280 484 362 489V565C306 564 264 553 221 533L158 464H146L125 558H85V0Z" glyph-name="r" horiz-adv-x="392" unicode="r" /><glyph d="M160 0V366L149 407L155 422C218 459 280 484 362 489V565C306 564 264 553 221 533L158 464H146L125 558H85V0ZM252 652 467 778V782H323L189 656V652Z" glyph-name="racute" horiz-adv-x="392" unicode="&#341;" /><glyph d="M160 0V366L149 407L155 422C218 459 280 484 362 489V565C306 564 264 553 221 533L158 464H146L125 558H85V0ZM389 792H332L254 731L232 702H216L194 731L116 792H57V788L180 652H266L389 788Z" glyph-name="rcaron" horiz-adv-x="392" unicode="&#345;" /><glyph d="M362 136C523 136 650 273 650 452C650 631 525 768 363 768C201 768 74 631 74 452C74 273 200 136 362 136ZM362 164C215 164 104 290 104 452C104 614 215 740 362 740C509 740 620 614 620 452C620 290 509 164 362 164ZM287 458 294 482V559L287 582L294 589H351C413 589 443 570 443 528C443 482 398 452 330 452H293ZM295 390 288 414 294 420H328C361 420 377 411 398 385L467 296H524V300L458 379C435 406 415 422 384 431V436C438 448 491 476 491 537C491 596 444 626 368 626H250V296H295Z" glyph-name="registered" horiz-adv-x="724" unicode="&#174;" /><glyph d="M370 745C370 805 317 844 250 844C183 844 130 803 130 743C130 683 183 644 250 644C317 644 370 685 370 745ZM166 744C166 786 199 811 250 811C301 811 334 786 334 744C334 702 301 677 250 677C199 677 166 702 166 744Z" glyph-name="ring" horiz-adv-x="500" unicode="&#730;" /><glyph d="M134 913C134 972 75 1008 0 1008C-75 1008 -134 970 -134 911C-134 852 -75 816 0 816C75 816 134 854 134 913ZM-97 912C-97 952 -59 976 0 976C59 976 97 952 97 912C97 872 59 848 0 848C-59 848 -97 872 -97 912Z" glyph-name="ring.cap" horiz-adv-x="0" /><glyph d="M0 644C67 644 120 684 120 745C120 792 87 825 41 838L240 955V959H99L-23 841C-79 833 -120 796 -120 743C-120 682 -67 644 0 644ZM-84 744C-84 785 -51 810 0 810C51 810 84 785 84 744C84 702 51 677 0 677C-51 677 -84 702 -84 744Z" glyph-name="ringacute" horiz-adv-x="0" /><glyph d="M262 -8C369 -8 461 43 461 148C461 251 379 281 281 310C204 335 145 354 145 416C145 466 186 502 254 502C308 502 362 486 408 463L434 519C381 545 325 561 257 561C153 561 76 504 76 412C76 311 159 282 255 253C333 228 392 209 392 145C392 85 340 51 266 51C198 51 133 72 79 101L52 45C112 14 187 -8 262 -8Z" glyph-name="s" horiz-adv-x="520" unicode="s" /><glyph d="M262 -8C369 -8 461 43 461 148C461 251 379 281 281 310C204 335 145 354 145 416C145 466 186 502 254 502C308 502 362 486 408 463L434 519C381 545 325 561 257 561C153 561 76 504 76 412C76 311 159 282 255 253C333 228 392 209 392 145C392 85 340 51 266 51C198 51 133 72 79 101L52 45C112 14 187 -8 262 -8ZM287 652 502 778V782H358L224 656V652Z" glyph-name="sacute" horiz-adv-x="520" unicode="&#347;" /><glyph d="M262 -8C369 -8 461 43 461 148C461 251 379 281 281 310C204 335 145 354 145 416C145 466 186 502 254 502C308 502 362 486 408 463L434 519C381 545 325 561 257 561C153 561 76 504 76 412C76 311 159 282 255 253C333 228 392 209 392 145C392 85 340 51 266 51C198 51 133 72 79 101L52 45C112 14 187 -8 262 -8ZM424 792H367L289 731L267 702H251L229 731L151 792H92V788L215 652H301L424 788Z" glyph-name="scaron" horiz-adv-x="520" unicode="&#353;" /><glyph d="M262 -8C369 -8 461 43 461 148C461 251 379 281 281 310C204 335 145 354 145 416C145 466 186 502 254 502C308 502 362 486 408 463L434 519C381 545 325 561 257 561C153 561 76 504 76 412C76 311 159 282 255 253C333 228 392 209 392 145C392 85 340 51 266 51C198 51 133 72 79 101L52 45C112 14 187 -8 262 -8ZM92 652H149L227 713L249 742H265L287 713L365 652H424V656L301 792H215L92 656Z" glyph-name="scircumflex" horiz-adv-x="520" unicode="&#349;" /><glyph d="M351 122 314 153C146 227 118 264 118 321C118 378 155 423 260 478H274L310 447C479 373 506 336 506 279C506 222 469 177 365 122ZM293 -163C412 -163 490 -106 490 -24C490 15 473 47 444 73L407 84V99C523 142 577 204 577 284C577 366 534 416 369 493C241 554 206 581 206 626C206 671 247 704 329 704C384 704 445 688 501 665L521 723C460 749 398 763 331 763C212 763 134 706 134 624C134 585 151 553 181 527L217 516V501C102 458 48 396 48 316C48 234 90 184 255 107C383 46 419 20 419 -26C419 -71 377 -104 296 -104C240 -104 180 -88 123 -65L103 -123C164 -149 227 -163 293 -163Z" glyph-name="section" horiz-adv-x="624" unicode="&#167;" /><glyph d="M94 429H199V544H94ZM67 -140 204 131V143H99L24 -129Z" glyph-name="semicolon" horiz-adv-x="288" unicode=";" /><glyph d="M160 -14 482 634V736H46V664H358L414 678L424 664L391 621L90 15Z" glyph-name="seven" horiz-adv-x="529" unicode="7" /><glyph d="M133 -169 332 211V283H45V232H241L286 241L293 228L264 194L84 -149Z" glyph-name="seven.den" horiz-adv-x="355" /><glyph d="M133 284 332 665V736H45V685H241L286 694L293 682L264 648L84 305Z" glyph-name="seven.num" horiz-adv-x="355" /><glyph d="M179 -14 501 634V736H66V664H377L433 678L442 664L410 621L109 15Z" glyph-name="seven.tab" horiz-adv-x="555" /><glyph d="M303 -10C435 -10 534 83 534 233C534 391 428 462 311 462C289 462 268 460 253 458L162 416L148 428C206 549 309 634 439 694L405 753C190 655 61 492 61 278C61 103 156 -10 303 -10ZM304 56C203 56 135 146 135 277C135 308 137 339 142 367C198 390 244 401 286 401C392 401 461 343 461 231C461 123 391 56 304 56Z" glyph-name="six" horiz-adv-x="585" unicode="6" /><glyph d="M180 -166C260 -166 320 -103 320 -17C320 71 269 116 200 116C191 116 182 116 174 115L102 83L92 93C128 163 177 210 256 256L229 297C100 220 39 134 39 7C39 -100 99 -166 180 -166ZM181 -120C128 -120 90 -74 90 3C90 21 91 39 93 54C125 68 156 76 185 76C235 76 268 45 268 -18C268 -82 232 -120 181 -120Z" glyph-name="six.den" horiz-adv-x="355" /><glyph d="M180 287C260 287 320 351 320 436C320 524 269 570 200 570C191 570 182 569 174 568L102 536L92 546C128 617 176 664 256 710L229 750C100 673 39 588 39 460C39 354 99 287 180 287ZM181 333C128 333 90 379 90 456C90 474 91 492 93 508C125 521 156 530 185 530C235 530 268 498 268 436C268 372 232 333 181 333Z" glyph-name="six.num" horiz-adv-x="355" /><glyph d="M284 -10C411 -10 500 87 500 234C500 379 412 462 296 462C280 462 264 461 251 459L160 415L146 426C199 548 285 635 411 696L374 754C159 645 59 485 59 278C59 104 148 -10 284 -10ZM286 56C192 56 133 147 133 277C133 308 136 339 140 368C194 390 235 401 270 401C365 401 427 343 427 231C427 128 368 56 286 56Z" glyph-name="six.tab" horiz-adv-x="555" /><glyph d="M-18 -137H46L380 770H316Z" glyph-name="slash" horiz-adv-x="401" unicode="/" /><glyph d="M-4 -100H60L394 807H330Z" glyph-name="slash.cap" horiz-adv-x="401" /><glyph d="M7 -100H75L532 807H464Z" glyph-name="slash.tab" horiz-adv-x="555" /><glyph glyph-name="space" horiz-adv-x="278" unicode=" " /><glyph d="M111 0H551V68H217L161 52L152 64L178 112L237 293L238 330L248 338L283 329H481V392H314L266 381L259 392L282 426L300 485C319 544 342 589 373 621C407 655 451 671 512 671C524 671 535 671 547 670L553 741C542 742 531 742 522 742C429 742 367 718 316 667C279 629 251 573 229 502L206 428L204 391L194 383L160 392H69V329H133L177 340L185 330L160 293L81 45Z" glyph-name="sterling" horiz-adv-x="619" unicode="&#163;" /><glyph d="M220 293 221 330 231 338 266 329H430V392H293L245 381L237 392L260 426L278 488C296 548 315 589 347 621C381 655 422 671 483 671C493 671 502 671 513 670L520 741C511 742 503 742 493 742C402 742 342 719 294 671C256 633 228 576 207 503L185 428L184 391L174 383L140 392H46V329H118L161 340L169 330L144 293L73 45L103 0H501V68H206L150 52L140 64L167 112Z" glyph-name="sterling.tab" horiz-adv-x="555" /><glyph d="M379 63C366 60 354 59 340 59C250 59 199 102 199 210V455L187 493L196 502L234 490H379V551H234L196 539L187 548L199 586V731H125V586L137 548L128 539L91 551H35V490H91L128 502L137 493L125 455V205C125 56 210 -5 335 -5C352 -5 367 -4 382 -1Z" glyph-name="t" horiz-adv-x="434" unicode="t" /><glyph d="M382 -1 379 63C366 60 354 59 340 59C241 59 191 113 191 232V270L200 279L238 267H363V320H234L196 308L187 317L199 351V459L187 493L196 502L234 490H379V551H234L196 539L187 548L199 586V731H125V586L137 548L128 539L91 551H35V490H91L128 502L137 493L125 459V351L137 317L128 308L91 320H35V267H91L128 279L137 270L125 236V200C125 133 145 82 178 49C215 12 269 -5 335 -5C352 -5 367 -4 382 -1Z" glyph-name="tbar" horiz-adv-x="434" unicode="&#359;" /><glyph d="M379 63C366 60 354 59 340 59C250 59 199 102 199 210V455L187 493L196 502L234 490H379V551H234L196 539L187 548L199 586V731H125V586L137 548L128 539L91 551H35V490H91L128 502L137 493L125 455V205C125 56 210 -5 335 -5C352 -5 367 -4 382 -1ZM283 650 315 642 407 820V833H321Z" glyph-name="tcaron" horiz-adv-x="434" unicode="&#357;" /><glyph d="M251 68C221 68 188 76 156 90L148 108L159 149V415L148 457L157 475C188 489 223 498 257 498C307 498 350 483 379 453C416 416 435 362 435 282C435 206 416 151 379 114C347 82 307 68 251 68ZM274 560C247 560 223 554 202 543L161 508L149 515L160 569V765H85V-157H160V-6L149 48L161 55L202 20C223 11 246 6 270 6C334 6 390 29 433 72C480 119 507 190 507 285C507 379 482 450 435 497C394 538 337 560 274 560Z" glyph-name="thorn" horiz-adv-x="558" unicode="&#254;" /><glyph d="M51 -7C321 2 484 77 484 218C484 325 387 366 247 383L245 394C405 449 477 505 477 598C477 691 398 743 278 743C194 743 119 716 47 676L78 618C139 652 204 675 270 675C352 675 396 641 396 585C396 512 318 460 145 408L154 347C313 340 403 303 403 222C403 124 289 69 51 59Z" glyph-name="three" horiz-adv-x="544" unicode="3" /><glyph d="M39 -162C202 -158 311 -114 311 -28C311 36 252 60 165 72L164 81C261 113 307 145 307 202C307 257 258 289 183 289C131 289 83 274 37 250L55 209C96 228 138 242 175 242C224 242 250 223 250 191C250 151 207 122 96 89L103 47C196 42 253 22 253 -25C253 -78 183 -109 39 -116Z" glyph-name="three.den" horiz-adv-x="355" /><glyph d="M39 291C202 296 311 340 311 425C311 489 252 514 165 525L164 534C261 567 307 599 307 655C307 710 258 742 183 742C131 742 83 727 37 704L55 662C96 682 138 695 175 695C224 695 250 676 250 645C250 605 207 576 96 542L103 500C196 495 253 475 253 429C253 375 183 344 39 338Z" glyph-name="three.num" horiz-adv-x="355" /><glyph d="M56 -7C326 2 493 78 493 218C493 324 393 366 254 383L252 394C411 448 485 505 485 598C485 690 405 743 285 743C200 743 125 716 52 676L83 618C145 652 211 675 277 675C360 675 405 640 405 585C405 513 325 460 152 408L161 347C320 340 412 303 412 222C412 125 294 69 56 59Z" glyph-name="three.tab" horiz-adv-x="555" /><glyph d="M39 291C202 296 311 340 311 425C311 489 252 514 165 525L164 534C261 567 307 599 307 655C307 710 258 742 183 742C131 742 83 727 37 704L55 662C96 682 138 695 175 695C224 695 250 676 250 645C250 605 207 576 96 542L103 500C196 495 253 475 253 429C253 375 183 344 39 338ZM408 337 650 734V740H583L388 346ZM114 -161H181L376 233L356 242L114 -155ZM599 -8H516L462 -16L458 -5L490 29L597 208L617 255H634L627 172V20L636 -9L628 -17ZM675 -78 666 -49 674 -41 703 -50H739V-4H703L674 -14L666 -6L675 23V289H599L420 -1V-50H595L624 -41L633 -49L623 -78V-157H675Z" glyph-name="threequarters" horiz-adv-x="760" unicode="&#190;" /><glyph d="M261 749C209 785 191 794 166 794C119 794 91 752 55 662L95 646C127 710 142 734 164 734C181 734 191 727 239 694C292 658 310 649 335 649C381 649 409 691 446 781L405 797C373 733 358 709 336 709C319 709 309 716 261 749Z" glyph-name="tilde" horiz-adv-x="500" unicode="&#732;" /><glyph d="M14 914C-42 949 -65 959 -91 959C-137 959 -165 928 -209 832L-169 813C-133 879 -117 899 -94 899C-77 899 -65 892 -14 861C42 826 66 816 91 816C137 816 165 847 209 943L170 961C134 896 117 876 95 876C78 876 66 883 14 914Z" glyph-name="tilde.cap" horiz-adv-x="0" /><glyph d="M-13 861C42 825 64 816 90 816C134 816 161 847 205 943L165 961C129 895 114 876 92 876C76 876 65 882 14 914C-42 950 -63 959 -89 959C-134 959 -160 928 -204 832L-165 813C-129 880 -113 899 -92 899C-75 899 -64 893 -13 861Z" glyph-name="tilde.capnrw" horiz-adv-x="0" /><glyph d="M-11 694C39 658 56 649 82 649C125 649 150 688 187 781L146 797C115 730 103 709 83 709C67 709 58 715 11 749C-39 785 -56 794 -81 794C-125 794 -150 756 -186 662L-146 646C-115 713 -103 734 -82 734C-66 734 -58 728 -11 694Z" glyph-name="tilde.nrw" horiz-adv-x="0" /><glyph d="M174 687 206 698 215 689 204 657V325H257V657L247 689L255 698L287 687H407V736H54V687ZM487 325H535L545 593V687H564L581 617L687 320H737L843 617L860 687H879V593L889 325H938L919 736H843L733 428L721 367H704L693 428L582 736H507Z" glyph-name="trademark" horiz-adv-x="1019" unicode="&#8482;" /><glyph d="M794 726V736H79V726L425 -23H447Z" glyph-name="triagdn" horiz-adv-x="873" unicode="&#9660;" /><glyph d="M500 736H55L265 -23H290Z" glyph-name="triagdn.tab" horiz-adv-x="555" /><glyph d="M794 0V10L447 759H425L79 10V0Z" glyph-name="triagup" horiz-adv-x="873" unicode="&#9650;" /><glyph d="M500 0 290 759H265L55 0Z" glyph-name="triagup.tab" horiz-adv-x="555" /><glyph d="M88 0H518V72H252L156 53L146 75L361 304C450 396 501 462 501 558C501 669 420 743 303 743C213 743 140 698 78 636L126 583C184 640 234 672 298 672C369 672 420 625 420 552C420 480 385 427 303 339L56 74Z" glyph-name="two" horiz-adv-x="585" unicode="2" /><glyph d="M44 -157H310V-105H173L84 -123L76 -104L217 24C278 76 306 118 306 175C306 244 255 288 184 288C122 288 76 257 37 217L71 180C106 214 139 237 180 237C221 237 249 213 249 170C249 127 227 95 182 51L21 -102Z" glyph-name="two.den" horiz-adv-x="355" /><glyph d="M44 296H310V348H173L84 331L76 350L217 477C278 530 306 571 306 629C306 697 255 742 184 742C122 742 76 710 37 670L71 633C106 667 139 691 180 691C221 691 249 667 249 624C249 581 227 549 182 505L21 352Z" glyph-name="two.num" horiz-adv-x="355" /><glyph d="M74 0H503V72H239L143 53L133 75L348 304C436 395 486 462 486 558C486 669 406 743 289 743C199 743 127 698 65 636L113 583C171 640 220 672 284 672C355 672 405 625 405 552C405 480 371 427 289 339L43 74Z" glyph-name="two.tab" horiz-adv-x="555" /><glyph d="M44 296H310V348H173L84 331L76 350L217 477C278 530 306 571 306 629C306 697 255 742 184 742C122 742 76 710 37 670L71 633C106 667 139 691 180 691C221 691 249 667 249 624C249 581 227 549 182 505L21 352ZM424 337 666 734V740H599L404 346ZM130 -161H197L392 233L372 242L130 -155ZM476 -162C639 -158 748 -114 748 -28C748 36 689 60 602 72L601 81C698 113 744 145 744 202C744 257 695 289 620 289C568 289 520 274 474 250L492 209C533 228 575 242 612 242C661 242 687 223 687 191C687 151 644 122 533 89L540 47C633 42 690 22 690 -25C690 -78 620 -109 476 -116Z" glyph-name="twothirds" horiz-adv-x="792" unicode="&#8532;" /><glyph d="M390 12 422 44H434L450 -4H491V554H417V131L427 90L419 73C386 62 351 56 317 56C260 56 220 71 193 97C163 127 151 170 151 234V554H76V230C76 148 95 91 135 51C175 11 228 -7 295 -7C331 -7 363 1 390 12Z" glyph-name="u" horiz-adv-x="577" unicode="u" /><glyph d="M390 12 422 44H434L450 -4H491V554H417V131L427 90L419 73C386 62 351 56 317 56C260 56 220 71 193 97C163 127 151 170 151 234V554H76V230C76 148 95 91 135 51C175 11 228 -7 295 -7C331 -7 363 1 390 12ZM313 652 528 778V782H384L250 656V652Z" glyph-name="uacute" horiz-adv-x="577" unicode="&#250;" /><glyph d="M390 12 422 44H434L450 -4H491V554H417V131L427 90L419 73C386 62 351 56 317 56C260 56 220 71 193 97C163 127 151 170 151 234V554H76V230C76 148 95 91 135 51C175 11 228 -7 295 -7C331 -7 363 1 390 12ZM283 651C377 651 435 704 439 792H386C379 740 346 711 285 711C224 711 189 740 182 792H129C133 704 189 651 283 651Z" glyph-name="ubreve" horiz-adv-x="577" unicode="&#365;" /><glyph d="M390 12 422 44H434L450 -4H491V554H417V131L427 90L419 73C386 62 351 56 317 56C260 56 220 71 193 97C163 127 151 170 151 234V554H76V230C76 148 95 91 135 51C175 11 228 -7 295 -7C331 -7 363 1 390 12ZM118 652H175L253 713L275 742H291L313 713L391 652H450V656L327 792H241L118 656Z" glyph-name="ucircumflex" horiz-adv-x="577" unicode="&#251;" /><glyph d="M390 12 422 44H434L450 -4H491V554H417V131L427 90L419 73C386 62 351 56 317 56C260 56 220 71 193 97C163 127 151 170 151 234V554H76V230C76 148 95 91 135 51C175 11 228 -7 295 -7C331 -7 363 1 390 12ZM339 652H435V762H339ZM133 652H229V762H133Z" glyph-name="udieresis" horiz-adv-x="577" unicode="&#252;" /><glyph d="M390 12 422 44H434L450 -4H491V554H417V131L427 90L419 73C386 62 351 56 317 56C260 56 220 71 193 97C163 127 151 170 151 234V554H76V230C76 148 95 91 135 51C175 11 228 -7 295 -7C331 -7 363 1 390 12ZM255 652H318V656L184 782H40V778Z" glyph-name="ugrave" horiz-adv-x="577" unicode="&#249;" /><glyph d="M390 12 422 44H434L450 -4H491V468L480 506L488 515H500C579 515 609 540 659 710L600 727C552 573 529 554 462 554H417V131L427 90L419 73C386 62 351 56 317 56C260 56 220 71 193 97C163 127 151 170 151 234V554H76V230C76 148 95 91 135 51C175 11 228 -7 295 -7C331 -7 363 1 390 12Z" glyph-name="uhorn" horiz-adv-x="616" unicode="&#432;" /><glyph d="M390 12 422 44H434L450 -4H491V554H417V131L427 90L419 73C386 62 351 56 317 56C260 56 220 71 193 97C163 127 151 170 151 234V554H76V230C76 148 95 91 135 51C175 11 228 -7 295 -7C331 -7 363 1 390 12ZM348 652H397L588 778V782H466L348 656ZM137 652H187L377 778V782H256L137 656Z" glyph-name="uhungarumlaut" horiz-adv-x="577" unicode="&#369;" /><glyph d="M390 12 422 44H434L450 -4H491V554H417V131L427 90L419 73C386 62 351 56 317 56C260 56 220 71 193 97C163 127 151 170 151 234V554H76V230C76 148 95 91 135 51C175 11 228 -7 295 -7C331 -7 363 1 390 12ZM114 662H454V722H114Z" glyph-name="umacron" horiz-adv-x="577" unicode="&#363;" /><glyph d="M-2 -157H557V-105H-2Z" glyph-name="underscore" horiz-adv-x="555" unicode="_" /><glyph glyph-name="uni0000" horiz-adv-x="0" /><glyph d="M-132 911H14C61 911 71 905 71 893C71 881 53 869 -50 820V809H21C125 856 152 880 152 912C152 945 119 964 28 964H-132Z" glyph-name="uni00200309.cap" horiz-adv-x="0" /><glyph glyph-name="uni00A0" horiz-adv-x="278" unicode="&#160;" /><glyph d="M-24 814H38V818L-87 933H-228V928ZM-55 652V761H-151V652ZM151 652V761H55V652Z" glyph-name="uni00A80300" horiz-adv-x="0" /><glyph d="M-32 981H43V986L-93 1098H-244V1094ZM-69 823V932H-165V823ZM165 823V932H69V823Z" glyph-name="uni00A80300.cap" horiz-adv-x="0" /><glyph d="M24 814 228 928V933H87L-38 818V814ZM55 652H151V761H55ZM-151 652H-55V761H-151Z" glyph-name="uni00A80301" horiz-adv-x="0" /><glyph d="M32 981 244 1094V1098H93L-43 986V981ZM69 823H165V932H69ZM-165 823H-69V932H-165Z" glyph-name="uni00A80301.cap" horiz-adv-x="0" /><glyph d="M166 828V888H-166V828ZM-151 652H-55V761H-151ZM151 652V761H55V652Z" glyph-name="uni00A80304" horiz-adv-x="0" /><glyph d="M-187 999H187V1059H-187ZM69 823H165V932H69ZM-165 823H-69V932H-165Z" glyph-name="uni00A80304.cap" horiz-adv-x="0" /><glyph d="M166 947H108L31 891L9 863H-7L-29 891L-106 947H-166V943L-43 814H43L166 943ZM-55 652V761H-151V652ZM151 652V761H55V652Z" glyph-name="uni00A8030C" horiz-adv-x="0" /><glyph d="M189 1113H131L38 1057L10 1029H-8L-36 1057L-129 1113H-189V1109L-43 981H43L189 1109ZM-69 823V932H-165V823ZM165 823V932H69V823Z" glyph-name="uni00A8030C.cap" horiz-adv-x="0" /><glyph d="M44 454H310V506H173L84 488L76 507L217 635C278 687 306 729 306 786C306 855 255 899 184 899C122 899 76 868 37 828L71 791C106 825 139 848 180 848C221 848 249 824 249 781C249 738 227 706 182 662L21 509Z" glyph-name="uni00B2" horiz-adv-x="355" unicode="&#178;" /><glyph d="M39 449C202 453 311 497 311 583C311 647 252 671 165 683L164 692C261 724 307 756 307 813C307 868 258 900 183 900C131 900 83 885 37 861L55 820C96 839 138 853 175 853C224 853 250 834 250 802C250 762 207 733 96 700L103 658C196 653 253 633 253 586C253 533 183 502 39 495Z" glyph-name="uni00B3" horiz-adv-x="355" unicode="&#179;" /><glyph d="M160 -39 148 -1 157 8 193 -4C279 5 352 40 405 93L432 169H445L463 -3H519L500 237V554H426V339C426 157 330 71 157 54L148 64L160 101V554H85V-157H160Z" glyph-name="uni00B5" horiz-adv-x="586" unicode="&#181;" /><glyph d="M71 264H177V380H71Z" glyph-name="uni00B7" horiz-adv-x="248" unicode="&#183;" /><glyph d="M76 316H182V431H76Z" glyph-name="uni00B7.cap" horiz-adv-x="258" /><glyph d="M86 316H192V431H86Z" glyph-name="uni00B7.tab" horiz-adv-x="278" /><glyph d="M212 532V897H167L41 845L57 804L159 845L168 836L155 803V532L165 500L156 492L125 502H48V454H302V502H242L210 492L202 500Z" glyph-name="uni00B9" horiz-adv-x="355" unicode="&#185;" /><glyph d="M627 58V383H358V317H518L558 329L567 320L555 283V133L570 101L564 85C512 67 462 58 411 58C242 58 143 175 143 368C143 543 239 671 383 671C460 671 511 653 564 626L594 694C530 728 465 744 387 744C202 744 61 589 61 367C61 135 196 -7 392 -7C485 -7 562 19 627 58ZM426 -84H316V-92C372 -119 385 -129 385 -142C385 -157 367 -167 275 -199L284 -226C433 -190 467 -167 467 -135C467 -118 455 -104 426 -84Z" glyph-name="uni0122" horiz-adv-x="708" unicode="&#290;" /><glyph d="M300 124C245 124 200 140 170 170C139 201 122 245 122 310C122 373 141 423 172 454C201 484 240 498 296 498C334 498 373 491 408 477L415 463L405 422V199L415 158L408 143C374 130 337 124 300 124ZM237 -162C393 -162 478 -77 478 83V558H437L421 509H409L376 542C348 553 317 560 283 560C215 560 159 537 118 496C76 453 51 387 51 308C51 231 73 170 113 130C153 90 213 66 286 66C312 66 337 70 361 78L400 109L414 101C414 -40 353 -100 239 -100C188 -100 134 -90 87 -73L73 -135C124 -152 180 -162 237 -162ZM225 652H335V660C279 687 266 697 266 710C266 725 284 735 376 767L367 794C218 758 184 735 184 703C184 686 196 672 225 652Z" glyph-name="uni0123" horiz-adv-x="563" unicode="&#291;" /><glyph d="M97 0H179V301L167 342L178 353H250L263 328L543 0H639V8L340 351L307 371V384L340 404L627 728V736H532L266 427L251 403H178L167 413L179 455V736H97ZM389 -84H279V-92C335 -119 348 -129 348 -142C348 -157 330 -167 238 -199L247 -226C396 -190 430 -167 430 -135C430 -118 418 -104 389 -84Z" glyph-name="uni0136" horiz-adv-x="658" unicode="&#310;" /><glyph d="M85 0H160V209L146 254L157 265H219L232 244L429 0H514V8L305 259L270 282V294L305 317L501 546V554H417L234 332L222 312H157L146 322L160 368V765H85ZM336 -84H226V-92C282 -119 295 -129 295 -142C295 -157 277 -167 185 -199L194 -226C343 -190 377 -167 377 -135C377 -118 365 -104 336 -84Z" glyph-name="uni0137" horiz-adv-x="533" unicode="&#311;" /><glyph d="M97 0H528V73H214L176 61L167 70L179 107V736H97ZM356 -84H246V-92C302 -119 315 -129 315 -142C315 -157 297 -167 205 -199L214 -226C363 -190 397 -167 397 -135C397 -118 385 -104 356 -84Z" glyph-name="uni013B" horiz-adv-x="559" unicode="&#315;" /><glyph d="M103 0H178V765H103ZM186 -84H76V-92C132 -119 145 -129 145 -142C145 -157 127 -167 35 -199L44 -226C193 -190 227 -167 227 -135C227 -118 215 -104 186 -84Z" glyph-name="uni013C" horiz-adv-x="281" unicode="&#316;" /><glyph d="M97 0H172L171 548L151 663L171 670L525 0H636V736H561L562 197L583 83L563 76L214 736H97ZM412 -84H302V-92C358 -119 371 -129 371 -142C371 -157 353 -167 261 -199L270 -226C419 -190 453 -167 453 -135C453 -118 441 -104 412 -84Z" glyph-name="uni0145" horiz-adv-x="733" unicode="&#325;" /><glyph d="M160 423 149 464 157 480C190 492 225 498 259 498C317 498 357 483 383 457C413 427 426 383 426 319V0H500V323C500 405 481 462 441 502C401 542 349 561 282 561C246 561 214 553 187 542L155 509H143L126 558H85V0H160ZM338 -84H228V-92C284 -119 297 -129 297 -142C297 -157 279 -167 187 -199L196 -226C345 -190 379 -167 379 -135C379 -118 367 -104 338 -84Z" glyph-name="uni0146" horiz-adv-x="577" unicode="&#326;" /><glyph d="M166 349 178 387V623L166 661L175 670H308C441 670 511 624 511 527C511 411 393 340 240 340H175ZM179 239 167 276 176 285H243C328 285 363 259 413 194L565 0H666V8L520 185C470 250 424 283 361 303V313C473 340 593 403 593 541C593 673 491 736 337 736H97V0H179ZM394 -84H284V-92C340 -119 353 -129 353 -142C353 -157 335 -167 243 -199L252 -226C401 -190 435 -167 435 -135C435 -118 423 -104 394 -84Z" glyph-name="uni0156" horiz-adv-x="682" unicode="&#342;" /><glyph d="M160 0V366L149 407L155 422C218 459 280 484 362 489V565C306 564 264 553 221 533L158 464H146L125 558H85V0ZM168 -84H58V-92C114 -119 127 -129 127 -142C127 -157 109 -167 17 -199L26 -226C175 -190 209 -167 209 -135C209 -118 197 -104 168 -84Z" glyph-name="uni0157" horiz-adv-x="392" unicode="&#343;" /><glyph d="M201 -157H305L388 0C500 16 591 79 591 200C591 320 511 371 358 415C220 454 170 483 170 558C170 630 226 673 320 673C397 673 463 654 523 624L552 691C486 722 414 741 327 741C195 741 92 674 92 552C92 437 173 392 321 350C466 306 514 271 514 195C514 106 436 63 332 63C243 63 154 89 85 128L56 61C126 24 207 1 291 -5L341 9L346 -3L309 -27L201 -153Z" glyph-name="uni015E" horiz-adv-x="659" unicode="&#350;" /><glyph d="M134 -157H238L320 -2C401 14 461 63 461 148C461 251 379 281 281 310C204 335 145 354 145 416C145 466 186 502 254 502C308 502 362 486 408 463L434 519C381 545 325 561 257 561C153 561 76 504 76 412C76 311 159 282 255 253C333 228 392 209 392 145C392 85 340 51 266 51C198 51 133 72 79 101L52 45C106 17 163 0 227 -6L271 6L276 -6L240 -30L134 -153Z" glyph-name="uni015F" horiz-adv-x="520" unicode="&#351;" /><glyph d="M362 0V627L350 665L359 674L397 662H610V736H32V662H245L283 674L292 665L280 627V10L320 2V-11L286 -25L176 -153V-157H279Z" glyph-name="uni0162" horiz-adv-x="642" unicode="&#354;" /><glyph d="M382 -1 379 63C366 60 354 59 340 59C250 59 199 102 199 210V455L187 493L196 502L234 490H379V551H234L196 539L187 548L199 586V731H125V586L137 548L128 539L91 551H35V490H91L128 502L137 493L125 455V205C125 76 188 11 301 1V-12L266 -26L157 -153V-157H261L341 -5C352 -5 367 -4 382 -1Z" glyph-name="uni0163" horiz-adv-x="434" unicode="&#355;" /><glyph d="M347 -10C514 -10 644 143 644 371C644 613 504 745 322 745C239 745 163 726 95 692L119 627C180 657 245 674 317 674C448 674 543 591 569 413L558 402L505 413H60V379C60 141 179 -10 347 -10ZM348 59C236 59 150 158 138 350L148 360L186 349H519L556 360L567 349C552 161 463 59 348 59Z" glyph-name="uni018F" horiz-adv-x="705" unicode="&#399;" /><glyph d="M204 221 196 233 227 279 343 606 357 686H377L392 606L508 279L539 233L530 221L487 230H248ZM45 0H126L176 139L180 174L190 181L230 168H505L545 181L555 174L558 139L609 0H691L418 746H317ZM557 955H499L406 898L378 869H360L332 898L239 955H179V951L325 821H411L557 951Z" glyph-name="uni01CD" horiz-adv-x="736" unicode="&#461;" /><glyph d="M258 50C211 50 174 63 150 87C130 107 120 133 120 167C120 198 130 225 150 245C182 277 238 292 378 292H399L408 282L397 248V144L406 106L398 89C355 65 310 50 258 50ZM350 15 406 63 428 0H485L470 108V371C470 497 392 560 267 560C199 560 146 547 97 529L116 470C160 486 210 498 264 498C353 498 403 451 403 356V341L392 329L350 341C201 340 133 318 93 277C65 249 50 210 50 164C50 51 138 -6 244 -6C287 -6 320 2 350 15ZM436 792H379L301 731L279 702H263L241 731L163 792H104V788L227 652H313L436 788Z" glyph-name="uni01CE" horiz-adv-x="548" unicode="&#462;" /><glyph d="M113 0H195V736H113ZM344 955H286L193 898L165 869H147L119 898L26 955H-34V951L112 821H198L344 951Z" glyph-name="uni01CF" horiz-adv-x="308" unicode="&#463;" /><glyph d="M103 554V0H178V554L156 551H125ZM307 792H250L172 731L150 702H134L112 731L34 792H-25V788L98 652H184L307 788Z" glyph-name="uni01D0" horiz-adv-x="281" unicode="&#464;" /><glyph d="M367 -10C540 -10 675 148 675 369C675 589 540 746 369 746C196 746 61 588 61 367C61 147 195 -10 367 -10ZM369 61C235 61 143 192 143 369C143 546 233 675 367 675C501 675 593 544 593 367C593 190 503 61 369 61ZM557 955H499L406 898L378 869H360L332 898L239 955H179V951L325 821H411L557 951Z" glyph-name="uni01D1" horiz-adv-x="736" unicode="&#465;" /><glyph d="M50 276C50 102 148 -10 276 -10C403 -10 502 103 502 278C502 452 404 563 276 563C149 563 50 450 50 276ZM123 277C123 409 183 499 275 499C368 499 429 409 429 276C429 144 370 54 277 54C184 54 123 145 123 277ZM442 792H385L307 731L285 702H269L247 731L169 792H110V788L233 652H319L442 788Z" glyph-name="uni01D2" horiz-adv-x="552" unicode="&#466;" /><glyph d="M355 63C240 63 172 146 172 294V736H90V294C90 104 192 -8 353 -8C514 -8 616 104 616 293V736H538V292C538 146 468 63 355 63ZM543 955H485L392 898L364 869H346L318 898L225 955H165V951L311 821H397L543 951Z" glyph-name="uni01D3" horiz-adv-x="707" unicode="&#467;" /><glyph d="M390 12 422 44H434L450 -4H491V554H417V131L427 90L419 73C386 62 351 56 317 56C260 56 220 71 193 97C163 127 151 170 151 234V554H76V230C76 148 95 91 135 51C175 11 228 -7 295 -7C331 -7 363 1 390 12ZM450 792H393L315 731L293 702H277L255 731L177 792H118V788L241 652H327L450 788Z" glyph-name="uni01D4" horiz-adv-x="577" unicode="&#468;" /><glyph d="M355 63C240 63 172 146 172 294V736H90V294C90 104 192 -8 353 -8C514 -8 616 104 616 293V736H538V292C538 146 468 63 355 63ZM167 999H541V1059H167ZM423 823H519V932H423ZM189 823H285V932H189Z" glyph-name="uni01D5" horiz-adv-x="707" unicode="&#469;" /><glyph d="M390 12 422 44H434L450 -4H491V554H417V131L427 90L419 73C386 62 351 56 317 56C260 56 220 71 193 97C163 127 151 170 151 234V554H76V230C76 148 95 91 135 51C175 11 228 -7 295 -7C331 -7 363 1 390 12ZM450 828V888H118V828ZM133 652H229V761H133ZM435 652V761H339V652Z" glyph-name="uni01D6" horiz-adv-x="577" unicode="&#470;" /><glyph d="M355 63C240 63 172 146 172 294V736H90V294C90 104 192 -8 353 -8C514 -8 616 104 616 293V736H538V292C538 146 468 63 355 63ZM386 981 598 1094V1098H447L311 986V981ZM423 823H519V932H423ZM189 823H285V932H189Z" glyph-name="uni01D7" horiz-adv-x="707" unicode="&#471;" /><glyph d="M390 12 422 44H434L450 -4H491V554H417V131L427 90L419 73C386 62 351 56 317 56C260 56 220 71 193 97C163 127 151 170 151 234V554H76V230C76 148 95 91 135 51C175 11 228 -7 295 -7C331 -7 363 1 390 12ZM308 814 512 928V933H371L246 818V814ZM339 652H435V761H339ZM133 652H229V761H133Z" glyph-name="uni01D8" horiz-adv-x="577" unicode="&#472;" /><glyph d="M355 63C240 63 172 146 172 294V736H90V294C90 104 192 -8 353 -8C514 -8 616 104 616 293V736H538V292C538 146 468 63 355 63ZM543 1113H485L392 1057L364 1029H346L318 1057L225 1113H165V1109L311 981H397L543 1109ZM285 823V932H189V823ZM519 823V932H423V823Z" glyph-name="uni01D9" horiz-adv-x="707" unicode="&#473;" /><glyph d="M390 12 422 44H434L450 -4H491V554H417V131L427 90L419 73C386 62 351 56 317 56C260 56 220 71 193 97C163 127 151 170 151 234V554H76V230C76 148 95 91 135 51C175 11 228 -7 295 -7C331 -7 363 1 390 12ZM450 947H392L315 891L293 863H277L255 891L178 947H118V943L241 814H327L450 943ZM229 652V761H133V652ZM435 652V761H339V652Z" glyph-name="uni01DA" horiz-adv-x="577" unicode="&#474;" /><glyph d="M355 63C240 63 172 146 172 294V736H90V294C90 104 192 -8 353 -8C514 -8 616 104 616 293V736H538V292C538 146 468 63 355 63ZM322 981H397V986L261 1098H110V1094ZM285 823V932H189V823ZM519 823V932H423V823Z" glyph-name="uni01DB" horiz-adv-x="707" unicode="&#475;" /><glyph d="M390 12 422 44H434L450 -4H491V554H417V131L427 90L419 73C386 62 351 56 317 56C260 56 220 71 193 97C163 127 151 170 151 234V554H76V230C76 148 95 91 135 51C175 11 228 -7 295 -7C331 -7 363 1 390 12ZM260 814H322V818L197 933H56V928ZM229 652V761H133V652ZM435 652V761H339V652Z" glyph-name="uni01DC" horiz-adv-x="577" unicode="&#476;" /><glyph d="M471 -157V-147C381 -120 363 -109 363 -94C363 -84 367 -74 410 -7C562 18 675 167 675 369C675 589 540 746 369 746C196 746 61 588 61 367C61 148 189 0 362 -3V-15C300 -71 285 -91 285 -111C285 -127 298 -141 326 -157ZM369 61C235 61 143 192 143 369C143 546 233 675 367 675C501 675 593 544 593 367C593 190 503 61 369 61Z" glyph-name="uni01EA" horiz-adv-x="736" unicode="&#490;" /><glyph d="M380 -157V-147C290 -120 271 -109 271 -94C271 -83 276 -74 320 -4C426 18 502 124 502 278C502 452 404 563 276 563C149 563 50 450 50 276C50 104 142 0 271 -3V-15C208 -71 194 -91 194 -111C194 -127 206 -141 234 -157ZM123 277C123 409 183 499 275 499C368 499 429 409 429 276C429 144 370 54 277 54C184 54 123 145 123 277Z" glyph-name="uni01EB" horiz-adv-x="552" unicode="&#491;" /><glyph d="M108 554V134C108 0 80 -46 -5 -118L39 -165C143 -83 183 -26 183 135V554L161 551H130ZM311 792H254L176 731L154 702H138L116 731L38 792H-21V788L102 652H188L311 788Z" glyph-name="uni01F0" horiz-adv-x="281" unicode="&#496;" /><glyph d="M97 0H172L171 548L151 663L171 670L525 0H636V736H561L562 197L583 83L563 76L214 736H97ZM332 821H408V826L263 945H110V940Z" glyph-name="uni01F8" horiz-adv-x="733" unicode="&#504;" /><glyph d="M160 423 149 464 157 480C190 492 225 498 259 498C317 498 357 483 383 457C413 427 426 383 426 319V0H500V323C500 405 481 462 441 502C401 542 349 561 282 561C246 561 214 553 187 542L155 509H143L126 558H85V0H160ZM262 652H325V656L191 782H47V778Z" glyph-name="uni01F9" horiz-adv-x="577" unicode="&#505;" /><glyph d="M326 -5C464 -5 591 57 591 200C591 320 511 371 358 415C220 454 170 483 170 558C170 630 226 673 320 673C397 673 463 654 523 624L552 691C486 722 414 741 327 741C195 741 92 674 92 552C92 437 173 392 321 350C466 306 514 271 514 195C514 106 436 63 332 63C243 63 154 89 85 128L56 61C134 20 228 -5 326 -5ZM372 -84H262V-92C318 -119 331 -129 331 -142C331 -157 313 -167 221 -199L230 -226C379 -190 413 -167 413 -135C413 -118 401 -104 372 -84Z" glyph-name="uni0218" horiz-adv-x="659" unicode="&#536;" /><glyph d="M262 -8C369 -8 461 43 461 148C461 251 379 281 281 310C204 335 145 354 145 416C145 466 186 502 254 502C308 502 362 486 408 463L434 519C381 545 325 561 257 561C153 561 76 504 76 412C76 311 159 282 255 253C333 228 392 209 392 145C392 85 340 51 266 51C198 51 133 72 79 101L52 45C112 14 187 -8 262 -8ZM304 -84H194V-92C250 -119 263 -129 263 -142C263 -157 245 -167 153 -199L162 -226C311 -190 345 -167 345 -135C345 -118 333 -104 304 -84Z" glyph-name="uni0219" horiz-adv-x="520" unicode="&#537;" /><glyph d="M280 0H362V627L350 665L359 674L397 662H610V736H32V662H245L283 674L292 665L280 627ZM367 -84H257V-92C313 -119 326 -129 326 -142C326 -157 308 -167 216 -199L225 -226C374 -190 408 -167 408 -135C408 -118 396 -104 367 -84Z" glyph-name="uni021A" horiz-adv-x="642" unicode="&#538;" /><glyph d="M379 63C366 60 354 59 340 59C250 59 199 102 199 210V455L187 493L196 502L234 490H379V551H234L196 539L187 548L199 586V731H125V586L137 548L128 539L91 551H35V490H91L128 502L137 493L125 455V205C125 56 210 -5 335 -5C352 -5 367 -4 382 -1ZM292 -84H182V-92C238 -119 251 -129 251 -142C251 -157 233 -167 141 -199L150 -226C299 -190 333 -167 333 -135C333 -118 321 -104 292 -84Z" glyph-name="uni021B" horiz-adv-x="434" unicode="&#539;" /><glyph d="M204 221 196 233 227 279 343 606 357 686H377L392 606L508 279L539 233L530 221L487 230H248ZM45 0H126L176 139L180 174L190 181L230 168H505L545 181L555 174L558 139L609 0H691L418 746H317ZM315 821H421V935H315Z" glyph-name="uni0226" horiz-adv-x="736" unicode="&#550;" /><glyph d="M258 50C211 50 174 63 150 87C130 107 120 133 120 167C120 198 130 225 150 245C182 277 238 292 378 292H399L408 282L397 248V144L406 106L398 89C355 65 310 50 258 50ZM350 15 406 63 428 0H485L470 108V371C470 497 392 560 267 560C199 560 146 547 97 529L116 470C160 486 210 498 264 498C353 498 403 451 403 356V341L392 329L350 341C201 340 133 318 93 277C65 249 50 210 50 164C50 51 138 -6 244 -6C287 -6 320 2 350 15ZM217 652H323V766H217Z" glyph-name="uni0227" horiz-adv-x="548" unicode="&#551;" /><glyph d="M367 -10C540 -10 675 148 675 369C675 589 540 746 369 746C196 746 61 588 61 367C61 147 195 -10 367 -10ZM369 61C235 61 143 192 143 369C143 546 233 675 367 675C501 675 593 544 593 367C593 190 503 61 369 61ZM315 821H421V935H315Z" glyph-name="uni022E" horiz-adv-x="736" unicode="&#558;" /><glyph d="M50 276C50 102 148 -10 276 -10C403 -10 502 103 502 278C502 452 404 563 276 563C149 563 50 450 50 276ZM123 277C123 409 183 499 275 499C368 499 429 409 429 276C429 144 370 54 277 54C184 54 123 145 123 277ZM223 652H329V766H223Z" glyph-name="uni022F" horiz-adv-x="552" unicode="&#559;" /><glyph d="M291 0H373V298L633 730V736H549L353 409L340 353H325L312 409L117 736H31V730L291 298ZM139 832H525V893H139Z" glyph-name="uni0232" horiz-adv-x="664" unicode="&#562;" /><glyph d="M77 -160C219 -115 292 -52 356 130L507 554H430L302 157L286 75H266L250 157L119 554H40L222 47L238 30V20C195 -43 137 -77 56 -100ZM103 662H443V722H103Z" glyph-name="uni0233" horiz-adv-x="539" unicode="&#563;" /><glyph d="M108 554V134C108 0 80 -46 -5 -118L39 -165C143 -83 183 -26 183 135V554L161 551H130Z" glyph-name="uni0237" horiz-adv-x="281" unicode="&#567;" /><glyph d="M265 -10C393 -10 492 105 492 278C492 465 384 561 247 561C179 561 127 547 71 521L92 466C141 488 186 500 241 500C343 500 411 430 425 317L415 306L369 313H45V285C45 109 130 -10 265 -10ZM266 46C185 46 119 115 110 263L120 273L156 262H380L415 273L425 263C417 120 349 46 266 46Z" glyph-name="uni0259" horiz-adv-x="542" unicode="&#601;" /><glyph d="M99 463 234 753V765H130L59 474Z" glyph-name="uni02B9" horiz-adv-x="283" unicode="&#697;" /><glyph d="M324 463 457 753V765H358L287 473ZM94 463 227 753V765H128L57 473Z" glyph-name="uni02BA" horiz-adv-x="505" unicode="&#698;" /><glyph d="M185 770 50 480V468H153L225 759Z" glyph-name="uni02BB" horiz-adv-x="283" unicode="&#699;" /><glyph d="M99 463 234 753V765H130L59 474Z" glyph-name="uni02BC" horiz-adv-x="283" unicode="&#700;" /><glyph d="M25 515C141 515 220 586 220 692C220 798 141 866 25 866V805C105 804 154 760 154 690C154 620 105 577 25 576Z" glyph-name="uni02BE" horiz-adv-x="238" unicode="&#702;" /><glyph d="M213 866C97 866 18 796 18 690C18 584 97 515 213 515V576C133 577 84 622 84 692C84 762 133 804 213 805Z" glyph-name="uni02BF" horiz-adv-x="238" unicode="&#703;" /><glyph d="M208 772H265V776L158 885H26V881ZM-166 652H-109L-31 708L-9 736H7L29 708L107 652H166V656L43 786H-43L-166 656Z" glyph-name="uni02C60300" horiz-adv-x="0" /><glyph d="M204 947H274V951L160 1057H16V1052ZM-189 821H-131L-38 877L-10 905H8L36 877L129 821H189V826L43 953H-43L-189 826Z" glyph-name="uni02C60300.cap" horiz-adv-x="0" /><glyph d="M186 772 368 881V885H236L129 776V772ZM-166 652H-109L-31 708L-9 736H7L29 708L107 652H166V656L43 786H-43L-166 656Z" glyph-name="uni02C60301" horiz-adv-x="0" /><glyph d="M195 947 383 1052V1057H239L125 951V947ZM-189 821H-131L-38 877L-10 905H8L36 877L129 821H189V826L43 953H-43L-189 826Z" glyph-name="uni02C60301.cap" horiz-adv-x="0" /><glyph d="M-12 873C30 842 47 833 70 833C106 833 134 866 167 955L128 970C100 909 88 893 72 893C60 893 51 897 12 927C-29 959 -47 968 -70 968C-105 968 -134 934 -167 846L-127 831C-100 892 -88 908 -72 908C-60 908 -51 904 -12 873ZM-166 652H-109L-31 708L-9 736H7L29 708L107 652H166V656L43 785H-43L-166 656Z" glyph-name="uni02C60303" horiz-adv-x="0" /><glyph d="M-12 1037C35 1005 56 998 79 998C117 998 146 1026 186 1116L146 1133C113 1072 98 1055 81 1055C67 1055 56 1061 12 1091C-35 1123 -55 1131 -78 1131C-117 1131 -146 1102 -186 1012L-145 995C-113 1056 -98 1074 -81 1074C-66 1074 -56 1068 -12 1037ZM-189 821H-131L-38 877L-10 905H8L36 877L129 821H189V826L43 953H-43L-189 826Z" glyph-name="uni02C60303.cap" horiz-adv-x="0" /><glyph d="M75 863H167C198 863 208 856 208 845C208 832 192 818 128 772V761H183C256 811 275 835 275 863C275 894 249 914 184 914H75ZM-166 652H-109L-31 708L-9 736H7L29 708L107 652H166V656L43 786H-43L-166 656Z" glyph-name="uni02C60309" horiz-adv-x="0" /><glyph d="M86 1027H187C221 1027 230 1021 230 1010C230 998 215 985 148 940V929H206C283 976 306 1001 306 1028C306 1060 277 1079 209 1079H86ZM-189 821H-131L-38 877L-10 905H8L36 877L129 821H189V826L43 953H-43L-189 826Z" glyph-name="uni02C60309.cap" horiz-adv-x="0" /><glyph d="M57 517H122V864H57Z" glyph-name="uni02C8" horiz-adv-x="178" unicode="&#712;" /><glyph d="M57 -170H122V177H57Z" glyph-name="uni02CC" horiz-adv-x="178" unicode="&#716;" /><glyph d="M80 -154H420V-94H80Z" glyph-name="uni02CD" horiz-adv-x="500" unicode="&#717;" /><glyph d="M-15 818H46V822L-79 937H-219V933ZM-1 651C94 651 152 701 155 785H103C95 737 62 711 1 711C-60 711 -95 737 -103 785H-155C-152 701 -95 651 -1 651Z" glyph-name="uni02D80300" horiz-adv-x="0" /><glyph d="M-23 982H52V986L-84 1099H-235V1094ZM-1 821C105 821 170 872 174 955H121C112 908 73 881 1 881C-71 881 -112 908 -121 955H-174C-170 872 -107 821 -1 821Z" glyph-name="uni02D80300.cap" horiz-adv-x="0" /><glyph d="M15 818 219 933V937H79L-46 822V818ZM-1 651C94 651 152 701 155 785H103C95 737 62 711 1 711C-60 711 -95 737 -103 785H-155C-152 701 -95 651 -1 651Z" glyph-name="uni02D80301" horiz-adv-x="0" /><glyph d="M23 982 235 1094V1099H84L-52 986V982ZM-1 821C105 821 170 872 174 955H121C112 908 73 881 1 881C-71 881 -112 908 -121 955H-174C-170 872 -107 821 -1 821Z" glyph-name="uni02D80301.cap" horiz-adv-x="0" /><glyph d="M-12 871C30 840 47 831 70 831C106 831 134 864 167 953L128 968C100 906 88 891 72 891C60 891 51 895 12 925C-29 957 -47 965 -70 965C-105 965 -134 932 -167 844L-127 828C-100 890 -88 906 -72 906C-60 906 -51 902 -12 871ZM-1 651C94 651 152 701 155 785H103C95 737 62 711 1 711C-60 711 -95 737 -103 785H-155C-152 701 -95 651 -1 651Z" glyph-name="uni02D80303" horiz-adv-x="0" /><glyph d="M-12 1042C35 1010 56 1002 79 1002C117 1002 146 1031 186 1121L146 1138C113 1077 98 1059 81 1059C67 1059 56 1065 12 1095C-35 1127 -55 1135 -78 1135C-117 1135 -146 1107 -186 1016L-145 999C-113 1060 -98 1078 -81 1078C-66 1078 -56 1072 -12 1042ZM-1 821C105 821 170 872 174 955H121C112 908 73 881 1 881C-71 881 -112 908 -121 955H-174C-170 872 -107 821 -1 821Z" glyph-name="uni02D80303.cap" horiz-adv-x="0" /><glyph d="M-104 903H10C45 903 55 897 55 886C55 873 38 860 -40 813V803H20C104 852 126 875 126 904C126 937 99 955 26 955H-104ZM-1 651C94 651 152 701 155 785H103C95 737 62 711 1 711C-60 711 -95 737 -103 785H-155C-152 701 -95 651 -1 651Z" glyph-name="uni02D80309" horiz-adv-x="0" /><glyph d="M-123 1070H10C52 1070 62 1065 62 1054C62 1042 44 1031 -48 985V974H21C116 1019 141 1042 141 1071C141 1105 110 1123 26 1123H-123ZM-1 821C105 821 170 872 174 955H121C112 908 73 881 1 881C-71 881 -112 908 -121 955H-174C-170 872 -107 821 -1 821Z" glyph-name="uni02D80309.cap" horiz-adv-x="0" /><glyph d="M-29 652H34V656L-100 782H-244V778Z" glyph-name="uni0300" horiz-adv-x="0" unicode="&#768;" /><glyph d="M29 652 244 778V782H100L-34 656V652Z" glyph-name="uni0301" horiz-adv-x="0" unicode="&#769;" /><glyph d="M-166 652H-109L-31 713L-9 742H7L29 713L107 652H166V656L43 792H-43L-166 656Z" glyph-name="uni0302" horiz-adv-x="0" unicode="&#770;" /><glyph d="M11 749C-41 785 -59 794 -84 794C-131 794 -159 752 -195 662L-155 646C-123 710 -108 734 -86 734C-69 734 -59 727 -11 694C42 658 60 649 85 649C131 649 159 691 196 781L155 797C123 733 108 709 86 709C69 709 59 716 11 749Z" glyph-name="uni0303" horiz-adv-x="0" unicode="&#771;" /><glyph d="M-170 662H170V722H-170Z" glyph-name="uni0304" horiz-adv-x="0" unicode="&#772;" /><glyph d="M-1 651C93 651 151 704 155 792H102C95 740 62 711 1 711C-60 711 -95 740 -102 792H-155C-151 704 -95 651 -1 651Z" glyph-name="uni0306" horiz-adv-x="0" unicode="&#774;" /><glyph d="M-53 652H53V766H-53Z" glyph-name="uni0307" horiz-adv-x="0" unicode="&#775;" /><glyph d="M55 652H151V762H55ZM-151 652H-55V762H-151Z" glyph-name="uni0308" horiz-adv-x="0" unicode="&#776;" /><glyph d="M-111 744H11C48 744 58 738 58 726C58 713 38 698 -43 649V638H17C107 690 130 715 130 744C130 779 102 798 26 798H-111Z" glyph-name="uni0309" horiz-adv-x="0" unicode="&#777;" /><glyph d="M120 745C120 805 67 844 0 844C-67 844 -120 803 -120 743C-120 683 -67 644 0 644C67 644 120 685 120 745ZM-84 744C-84 786 -51 811 0 811C51 811 84 786 84 744C84 702 51 677 0 677C-51 677 -84 702 -84 744Z" glyph-name="uni030A" horiz-adv-x="0" unicode="&#778;" /><glyph d="M64 652H113L304 778V782H182L64 656ZM-147 652H-97L93 778V782H-28L-147 656Z" glyph-name="uni030B" horiz-adv-x="0" unicode="&#779;" /><glyph d="M166 792H109L31 731L9 702H-7L-29 731L-107 792H-166V788L-43 652H43L166 788Z" glyph-name="uni030C" horiz-adv-x="0" unicode="&#780;" /><glyph d="M-45 652H65V660C9 687 -4 697 -4 710C-4 725 14 735 106 767L97 794C-52 758 -86 735 -86 703C-86 686 -74 672 -45 652Z" glyph-name="uni0312" horiz-adv-x="0" unicode="&#786;" /><glyph d="M-38 582 -6 574 86 752V765H0Z" glyph-name="uni0315" horiz-adv-x="0" unicode="&#789;" /><glyph d="M-53 -198H53V-84H-53Z" glyph-name="uni0323" horiz-adv-x="0" unicode="&#803;" /><glyph d="M55 -194H151V-84H55ZM-151 -194H-55V-84H-151Z" glyph-name="uni0324" horiz-adv-x="0" unicode="&#804;" /><glyph d="M45 -84H-65V-92C-9 -119 4 -129 4 -142C4 -157 -14 -167 -106 -199L-97 -226C52 -190 86 -167 86 -135C86 -118 74 -104 45 -84Z" glyph-name="uni0326" horiz-adv-x="0" unicode="&#806;" /><glyph d="M-42 -157 40 0 -5 9 -146 -153V-157Z" glyph-name="uni0327" horiz-adv-x="0" unicode="&#807;" /><glyph d="M-47 -157H99V-147C8 -120 -10 -109 -10 -94C-10 -83 -5 -73 40 0L5 14C-74 -72 -87 -91 -87 -111C-87 -127 -75 -141 -47 -157Z" glyph-name="uni0328" horiz-adv-x="0" unicode="&#808;" /><glyph d="M-166 -225H-109L-31 -163L-9 -135H7L29 -163L107 -225H166V-220L43 -84H-43L-166 -220Z" glyph-name="uni032D" horiz-adv-x="0" unicode="&#813;" /><glyph d="M-1 -225C93 -225 151 -172 155 -84H102C95 -136 62 -164 1 -164C-60 -164 -95 -136 -102 -84H-155C-151 -172 -95 -225 -1 -225Z" glyph-name="uni032E" horiz-adv-x="0" unicode="&#814;" /><glyph d="M-170 -154H170V-94H-170Z" glyph-name="uni0331" horiz-adv-x="0" unicode="&#817;" /><glyph d="M-138 -154H138V-94H-138Z" glyph-name="uni0331.nrw" horiz-adv-x="0" /><glyph d="M157 412 169 449V620L157 657L166 666H273L302 673L310 666L302 636L308 493L336 494L342 636L334 666L342 674C451 657 493 620 493 558C493 463 391 402 189 402H167ZM335 70 342 99 336 263H308L302 99L309 70L301 63L272 70H166L157 79L169 117V307L157 345L166 354H217C408 354 521 300 521 196C521 122 470 77 343 62ZM264 10 299 21 307 13 296 -22V-135H348V-20L338 14L346 22L380 12C519 20 594 83 594 186C594 298 492 354 359 377V387C468 410 566 468 566 573C566 664 492 719 380 723L346 714L338 721L348 756V854H296V758L307 723L299 715L264 726H98V10Z" glyph-name="uni0E3F" horiz-adv-x="652" unicode="&#3647;" /><glyph d="M97 0H362C494 0 609 54 609 181C609 301 500 356 376 378V387C479 409 580 467 580 578C580 678 500 736 360 736H97ZM162 411 174 448V627L162 664L171 673H328C442 673 504 635 504 562C504 443 354 404 172 401ZM162 72 174 109V307L162 345L172 355H211C396 355 532 305 532 193C532 104 449 63 324 63H171ZM165 -154H505V-94H165Z" glyph-name="uni1E06" horiz-adv-x="667" unicode="&#7686;" /><glyph d="M85 765V-4H126L143 44H155L187 11C211 1 239 -5 270 -5C332 -5 388 17 432 62C479 109 507 183 507 279C507 378 481 449 435 496C392 538 342 560 274 560C247 560 223 554 202 543L161 508L149 515L160 569V765ZM253 57C221 57 188 64 155 77L148 93L159 134V415L148 456L157 475C188 489 222 498 254 498C308 498 349 482 379 451C417 414 435 358 435 277C435 199 416 143 380 107C346 73 304 57 253 57ZM114 -154H454V-94H114Z" glyph-name="uni1E07" horiz-adv-x="558" unicode="&#7687;" /><glyph d="M97 736V0H261C473 0 642 127 642 369C642 610 473 736 266 736ZM167 80 179 118V618L167 656L176 665H256C439 665 559 562 559 367C559 171 439 71 259 71H176ZM278 -198H384V-84H278Z" glyph-name="uni1E0C" horiz-adv-x="701" unicode="&#7692;" /><glyph d="M307 57C253 57 209 73 178 104C141 141 123 197 123 278C123 356 142 412 178 448C211 482 253 498 304 498C336 498 370 489 401 475L410 456L399 415V135L410 93L403 77C369 64 337 57 307 57ZM51 276C51 177 76 106 123 59C165 17 219 -5 288 -5C319 -5 347 1 371 11L403 44H415L431 -4H472V765H398V569L409 515L397 508L356 543C334 554 311 560 286 560C225 560 170 538 126 493C78 446 51 372 51 276ZM221 -198H327V-84H221Z" glyph-name="uni1E0D" horiz-adv-x="558" unicode="&#7693;" /><glyph d="M97 736V0H261C473 0 642 127 642 369C642 610 473 736 266 736ZM167 80 179 118V618L167 656L176 665H256C439 665 559 562 559 367C559 171 439 71 259 71H176ZM161 -154H501V-94H161Z" glyph-name="uni1E0E" horiz-adv-x="701" unicode="&#7694;" /><glyph d="M307 57C253 57 209 73 178 104C141 141 123 197 123 278C123 356 142 412 178 448C211 482 253 498 304 498C336 498 370 489 401 475L410 456L399 415V135L410 93L403 77C369 64 337 57 307 57ZM51 276C51 177 76 106 123 59C165 17 219 -5 288 -5C319 -5 347 1 371 11L403 44H415L431 -4H472V765H398V569L409 515L397 508L356 543C334 554 311 560 286 560C225 560 170 538 126 493C78 446 51 372 51 276ZM104 -154H444V-94H104Z" glyph-name="uni1E0F" horiz-adv-x="558" unicode="&#7695;" /><glyph d="M97 736V0H261C473 0 642 127 642 369C642 610 473 736 266 736ZM167 80 179 118V618L167 656L176 665H256C439 665 559 562 559 367C559 171 439 71 259 71H176ZM165 -225H222L300 -163L322 -135H338L360 -163L438 -225H497V-220L374 -84H288L165 -220Z" glyph-name="uni1E12" horiz-adv-x="701" unicode="&#7698;" /><glyph d="M307 57C253 57 209 73 178 104C141 141 123 197 123 278C123 356 142 412 178 448C211 482 253 498 304 498C336 498 370 489 401 475L410 456L399 415V135L410 93L403 77C369 64 337 57 307 57ZM51 276C51 177 76 106 123 59C165 17 219 -5 288 -5C319 -5 347 1 371 11L403 44H415L431 -4H472V765H398V569L409 515L397 508L356 543C334 554 311 560 286 560C225 560 170 538 126 493C78 446 51 372 51 276ZM108 -225H165L243 -163L265 -135H281L303 -163L381 -225H440V-220L317 -84H231L108 -220Z" glyph-name="uni1E13" horiz-adv-x="558" unicode="&#7699;" /><glyph d="M627 58V383H358V317H518L558 329L567 320L555 283V133L570 101L564 85C512 67 462 58 411 58C242 58 143 175 143 368C143 543 239 671 383 671C460 671 511 653 564 626L594 694C530 728 465 744 387 744C202 744 61 589 61 367C61 135 196 -7 392 -7C485 -7 562 19 627 58ZM180 832H566V893H180Z" glyph-name="uni1E20" horiz-adv-x="708" unicode="&#7712;" /><glyph d="M300 124C245 124 200 140 170 170C139 201 122 245 122 310C122 373 141 423 172 454C201 484 240 498 296 498C334 498 373 491 408 477L415 463L405 422V199L415 158L408 143C374 130 337 124 300 124ZM237 -162C393 -162 478 -77 478 83V558H437L421 509H409L376 542C348 553 317 560 283 560C215 560 159 537 118 496C76 453 51 387 51 308C51 231 73 170 113 130C153 90 213 66 286 66C312 66 337 70 361 78L400 109L414 101C414 -40 353 -100 239 -100C188 -100 134 -90 87 -73L73 -135C124 -152 180 -162 237 -162ZM100 662H440V722H100Z" glyph-name="uni1E21" horiz-adv-x="563" unicode="&#7713;" /><glyph d="M97 0H179V305L167 343L176 352L214 340H509L547 352L556 343L544 305V0H626V736H544V450L556 413L547 404L509 416H214L176 404L167 413L179 450V736H97ZM309 -198H415V-84H309Z" glyph-name="uni1E24" horiz-adv-x="723" unicode="&#7716;" /><glyph d="M160 416 149 457 159 476C185 487 220 498 259 498C317 498 357 483 383 457C413 427 426 383 426 319V0H500V323C500 405 481 462 441 502C401 542 349 561 282 561C255 561 226 554 201 543L161 508L149 515L160 569V765H85V0H160ZM240 -198H346V-84H240Z" glyph-name="uni1E25" horiz-adv-x="577" unicode="&#7717;" /><glyph d="M179 0V305L167 343L176 352L214 340H509L547 352L556 343L544 305V0H626V736H544V450L556 413L547 404L509 416H214L176 404L167 413L179 450V736H97V10L138 2V-11L103 -25L-7 -153V-157H96Z" glyph-name="uni1E28" horiz-adv-x="723" unicode="&#7720;" /><glyph d="M160 0V416L149 457L159 476C186 487 221 498 259 498C317 498 357 483 383 457C413 427 426 383 426 319V0H500V323C500 405 481 462 441 502C401 542 349 561 282 561C255 561 226 554 201 543L161 508L149 515L160 569V765H85V9L118 2V-11L84 -25L-27 -153V-157H77Z" glyph-name="uni1E29" horiz-adv-x="577" unicode="&#7721;" /><glyph d="M97 0H179V305L167 343L176 352L214 340H509L547 352L556 343L544 305V0H626V736H544V450L556 413L547 404L509 416H214L176 404L167 413L179 450V736H97ZM361 -225C455 -225 513 -172 517 -84H464C457 -136 424 -164 363 -164C302 -164 267 -136 260 -84H207C211 -172 267 -225 361 -225Z" glyph-name="uni1E2A" horiz-adv-x="723" unicode="&#7722;" /><glyph d="M160 416 149 457 159 476C185 487 220 498 259 498C317 498 357 483 383 457C413 427 426 383 426 319V0H500V323C500 405 481 462 441 502C401 542 349 561 282 561C255 561 226 554 201 543L161 508L149 515L160 569V765H85V0H160ZM292 -225C386 -225 444 -172 448 -84H395C388 -136 355 -164 294 -164C233 -164 198 -136 191 -84H138C142 -172 198 -225 292 -225Z" glyph-name="uni1E2B" horiz-adv-x="577" unicode="&#7723;" /><glyph d="M97 0H179V301L167 342L178 353H250L263 328L543 0H639V8L340 351L307 371V384L340 404L627 728V736H532L266 427L251 403H178L167 413L179 455V736H97ZM291 -198H397V-84H291Z" glyph-name="uni1E32" horiz-adv-x="658" unicode="&#7730;" /><glyph d="M85 0H160V209L146 254L157 265H219L232 244L429 0H514V8L305 259L270 282V294L305 317L501 546V554H417L234 332L222 312H157L146 322L160 368V765H85ZM238 -198H344V-84H238Z" glyph-name="uni1E33" horiz-adv-x="533" unicode="&#7731;" /><glyph d="M97 0H179V301L167 342L178 353H250L263 328L543 0H639V8L340 351L307 371V384L340 404L627 728V736H532L266 427L251 403H178L167 413L179 455V736H97ZM174 -154H514V-94H174Z" glyph-name="uni1E34" horiz-adv-x="658" unicode="&#7732;" /><glyph d="M85 0H160V209L146 254L157 265H219L232 244L429 0H514V8L305 259L270 282V294L305 317L501 546V554H417L234 332L222 312H157L146 322L160 368V765H85ZM121 -154H461V-94H121Z" glyph-name="uni1E35" horiz-adv-x="533" unicode="&#7733;" /><glyph d="M97 0H528V73H214L176 61L167 70L179 107V736H97ZM258 -198H364V-84H258Z" glyph-name="uni1E36" horiz-adv-x="559" unicode="&#7734;" /><glyph d="M103 0H178V765H103ZM88 -198H194V-84H88Z" glyph-name="uni1E37" horiz-adv-x="281" unicode="&#7735;" /><glyph d="M97 0H528V73H214L176 61L167 70L179 107V736H97ZM-21 832H299V893H-21ZM258 -198H364V-84H258Z" glyph-name="uni1E38" horiz-adv-x="559" unicode="&#7736;" /><glyph d="M103 0H178V765H103ZM3 860H279V920H3ZM88 -198H194V-84H88Z" glyph-name="uni1E39" horiz-adv-x="281" unicode="&#7737;" /><glyph d="M97 0H528V73H214L176 61L167 70L179 107V736H97ZM141 -154H481V-94H141Z" glyph-name="uni1E3A" horiz-adv-x="559" unicode="&#7738;" /><glyph d="M103 0H178V765H103ZM3 -154H279V-94H3Z" glyph-name="uni1E3B" horiz-adv-x="281" unicode="&#7739;" /><glyph d="M97 0H528V73H214L176 61L167 70L179 107V736H97ZM145 -225H202L280 -163L302 -135H318L340 -163L418 -225H477V-220L354 -84H268L145 -220Z" glyph-name="uni1E3C" horiz-adv-x="559" unicode="&#7740;" /><glyph d="M103 0H178V765H103ZM-25 -225H32L110 -163L132 -135H148L170 -163L248 -225H307V-220L184 -84H98L-25 -220Z" glyph-name="uni1E3D" horiz-adv-x="281" unicode="&#7741;" /><glyph d="M81 0H155L178 669H201L215 584L421 -8H495L700 584L714 669H737L760 0H837L803 736H680L484 171L468 68H449L433 171L237 736H115ZM494 821 716 940V945H563L418 826V821Z" glyph-name="uni1E3E" horiz-adv-x="917" unicode="&#7742;" /><glyph d="M160 423 149 464 157 479C191 490 230 498 264 498C323 498 353 487 377 462C401 439 413 403 413 346V0H487V351C487 399 480 432 465 462L474 478C507 490 545 498 583 498C636 498 672 484 697 459C727 429 740 387 740 324V0H815V328C815 410 795 466 757 504C721 540 670 561 606 561C566 561 525 551 491 535L447 495C415 537 361 561 291 561C252 561 216 553 187 542L155 509H143L126 558H85V0H160ZM479 652 694 778V782H550L416 656V652Z" glyph-name="uni1E3F" horiz-adv-x="891" unicode="&#7743;" /><glyph d="M81 0H155L178 669H201L215 584L421 -8H495L700 584L714 669H737L760 0H837L803 736H680L484 171L468 68H449L433 171L237 736H115ZM406 821H512V935H406Z" glyph-name="uni1E40" horiz-adv-x="917" unicode="&#7744;" /><glyph d="M160 423 149 464 157 479C191 490 230 498 264 498C323 498 353 487 377 462C401 439 413 403 413 346V0H487V351C487 399 480 432 465 462L474 478C507 490 545 498 583 498C636 498 672 484 697 459C727 429 740 387 740 324V0H815V328C815 410 795 466 757 504C721 540 670 561 606 561C566 561 525 551 491 535L447 495C415 537 361 561 291 561C252 561 216 553 187 542L155 509H143L126 558H85V0H160ZM397 652H503V766H397Z" glyph-name="uni1E41" horiz-adv-x="891" unicode="&#7745;" /><glyph d="M81 0H155L178 669H201L215 584L421 -8H495L700 584L714 669H737L760 0H837L803 736H680L484 171L468 68H449L433 171L237 736H115ZM406 -198H512V-84H406Z" glyph-name="uni1E42" horiz-adv-x="917" unicode="&#7746;" /><glyph d="M160 423 149 464 157 479C191 490 230 498 264 498C323 498 353 487 377 462C401 439 413 403 413 346V0H487V351C487 399 480 432 465 462L474 478C507 490 545 498 583 498C636 498 672 484 697 459C727 429 740 387 740 324V0H815V328C815 410 795 466 757 504C721 540 670 561 606 561C566 561 525 551 491 535L447 495C415 537 361 561 291 561C252 561 216 553 187 542L155 509H143L126 558H85V0H160ZM397 -198H503V-84H397Z" glyph-name="uni1E43" horiz-adv-x="891" unicode="&#7747;" /><glyph d="M97 0H172L171 548L151 663L171 670L525 0H636V736H561L562 197L583 83L563 76L214 736H97ZM314 821H420V935H314Z" glyph-name="uni1E44" horiz-adv-x="733" unicode="&#7748;" /><glyph d="M160 423 149 464 157 480C190 492 225 498 259 498C317 498 357 483 383 457C413 427 426 383 426 319V0H500V323C500 405 481 462 441 502C401 542 349 561 282 561C246 561 214 553 187 542L155 509H143L126 558H85V0H160ZM238 652H344V766H238Z" glyph-name="uni1E45" horiz-adv-x="577" unicode="&#7749;" /><glyph d="M97 0H172L171 548L151 663L171 670L525 0H636V736H561L562 197L583 83L563 76L214 736H97ZM314 -198H420V-84H314Z" glyph-name="uni1E46" horiz-adv-x="733" unicode="&#7750;" /><glyph d="M160 423 149 464 157 480C190 492 225 498 259 498C317 498 357 483 383 457C413 427 426 383 426 319V0H500V323C500 405 481 462 441 502C401 542 349 561 282 561C246 561 214 553 187 542L155 509H143L126 558H85V0H160ZM240 -198H346V-84H240Z" glyph-name="uni1E47" horiz-adv-x="577" unicode="&#7751;" /><glyph d="M97 0H172L171 548L151 663L171 670L525 0H636V736H561L562 197L583 83L563 76L214 736H97ZM197 -154H537V-94H197Z" glyph-name="uni1E48" horiz-adv-x="733" unicode="&#7752;" /><glyph d="M160 423 149 464 157 480C190 492 225 498 259 498C317 498 357 483 383 457C413 427 426 383 426 319V0H500V323C500 405 481 462 441 502C401 542 349 561 282 561C246 561 214 553 187 542L155 509H143L126 558H85V0H160ZM123 -154H463V-94H123Z" glyph-name="uni1E49" horiz-adv-x="577" unicode="&#7753;" /><glyph d="M97 0H172L171 548L151 663L171 670L525 0H636V736H561L562 197L583 83L563 76L214 736H97ZM201 -225H258L336 -163L358 -135H374L396 -163L474 -225H533V-220L410 -84H324L201 -220Z" glyph-name="uni1E4A" horiz-adv-x="733" unicode="&#7754;" /><glyph d="M160 423 149 464 157 480C190 492 225 498 259 498C317 498 357 483 383 457C413 427 426 383 426 319V0H500V323C500 405 481 462 441 502C401 542 349 561 282 561C246 561 214 553 187 542L155 509H143L126 558H85V0H160ZM127 -225H184L262 -163L284 -135H300L322 -163L400 -225H459V-220L336 -84H250L127 -220Z" glyph-name="uni1E4B" horiz-adv-x="577" unicode="&#7755;" /><glyph d="M166 349 178 387V623L166 661L175 670H308C441 670 511 624 511 527C511 411 393 340 240 340H175ZM179 239 167 276 176 285H243C328 285 363 259 413 194L565 0H666V8L520 185C470 250 424 283 361 303V313C473 340 593 403 593 541C593 673 491 736 337 736H97V0H179ZM275 821H381V935H275Z" glyph-name="uni1E58" horiz-adv-x="682" unicode="&#7768;" /><glyph d="M160 0V366L149 407L155 422C218 459 280 484 362 489V565C306 564 264 553 221 533L158 464H146L125 558H85V0ZM170 652H276V766H170Z" glyph-name="uni1E59" horiz-adv-x="392" unicode="&#7769;" /><glyph d="M166 349 178 387V623L166 661L175 670H308C441 670 511 624 511 527C511 411 393 340 240 340H175ZM179 239 167 276 176 285H243C328 285 363 259 413 194L565 0H666V8L520 185C470 250 424 283 361 303V313C473 340 593 403 593 541C593 673 491 736 337 736H97V0H179ZM296 -198H402V-84H296Z" glyph-name="uni1E5A" horiz-adv-x="682" unicode="&#7770;" /><glyph d="M160 0V366L149 407L155 422C218 459 280 484 362 489V565C306 564 264 553 221 533L158 464H146L125 558H85V0ZM70 -198H176V-84H70Z" glyph-name="uni1E5B" horiz-adv-x="392" unicode="&#7771;" /><glyph d="M166 349 178 387V623L166 661L175 670H308C441 670 511 624 511 527C511 411 393 340 240 340H175ZM179 239 167 276 176 285H243C328 285 363 259 413 194L565 0H666V8L520 185C470 250 424 283 361 303V313C473 340 593 403 593 541C593 673 491 736 337 736H97V0H179ZM135 832H521V893H135ZM296 -198H402V-84H296Z" glyph-name="uni1E5C" horiz-adv-x="682" unicode="&#7772;" /><glyph d="M160 0V366L149 407L155 422C218 459 280 484 362 489V565C306 564 264 553 221 533L158 464H146L125 558H85V0ZM85 662H361V722H85ZM70 -198H176V-84H70Z" glyph-name="uni1E5D" horiz-adv-x="392" unicode="&#7773;" /><glyph d="M166 349 178 387V623L166 661L175 670H308C441 670 511 624 511 527C511 411 393 340 240 340H175ZM179 239 167 276 176 285H243C328 285 363 259 413 194L565 0H666V8L520 185C470 250 424 283 361 303V313C473 340 593 403 593 541C593 673 491 736 337 736H97V0H179ZM179 -154H519V-94H179Z" glyph-name="uni1E5E" horiz-adv-x="682" unicode="&#7774;" /><glyph d="M160 0V366L149 407L155 422C218 459 280 484 362 489V565C306 564 264 553 221 533L158 464H146L125 558H85V0ZM-15 -154H261V-94H-15Z" glyph-name="uni1E5F" horiz-adv-x="392" unicode="&#7775;" /><glyph d="M326 -5C464 -5 591 57 591 200C591 320 511 371 358 415C220 454 170 483 170 558C170 630 226 673 320 673C397 673 463 654 523 624L552 691C486 722 414 741 327 741C195 741 92 674 92 552C92 437 173 392 321 350C466 306 514 271 514 195C514 106 436 63 332 63C243 63 154 89 85 128L56 61C134 20 228 -5 326 -5ZM274 -198H380V-84H274Z" glyph-name="uni1E62" horiz-adv-x="659" unicode="&#7778;" /><glyph d="M262 -8C369 -8 461 43 461 148C461 251 379 281 281 310C204 335 145 354 145 416C145 466 186 502 254 502C308 502 362 486 408 463L434 519C381 545 325 561 257 561C153 561 76 504 76 412C76 311 159 282 255 253C333 228 392 209 392 145C392 85 340 51 266 51C198 51 133 72 79 101L52 45C112 14 187 -8 262 -8ZM206 -198H312V-84H206Z" glyph-name="uni1E63" horiz-adv-x="520" unicode="&#7779;" /><glyph d="M280 0H362V627L350 665L359 674L397 662H610V736H32V662H245L283 674L292 665L280 627ZM269 -198H375V-84H269Z" glyph-name="uni1E6C" horiz-adv-x="642" unicode="&#7788;" /><glyph d="M379 63C366 60 354 59 340 59C250 59 199 102 199 210V455L187 493L196 502L234 490H379V551H234L196 539L187 548L199 586V731H125V586L137 548L128 539L91 551H35V490H91L128 502L137 493L125 455V205C125 56 210 -5 335 -5C352 -5 367 -4 382 -1ZM194 -198H300V-84H194Z" glyph-name="uni1E6D" horiz-adv-x="434" unicode="&#7789;" /><glyph d="M280 0H362V627L350 665L359 674L397 662H610V736H32V662H245L283 674L292 665L280 627ZM152 -154H492V-94H152Z" glyph-name="uni1E6E" horiz-adv-x="642" unicode="&#7790;" /><glyph d="M379 63C366 60 354 59 340 59C250 59 199 102 199 210V455L187 493L196 502L234 490H379V551H234L196 539L187 548L199 586V731H125V586L137 548L128 539L91 551H35V490H91L128 502L137 493L125 455V205C125 56 210 -5 335 -5C352 -5 367 -4 382 -1ZM109 -154H385V-94H109Z" glyph-name="uni1E6F" horiz-adv-x="434" unicode="&#7791;" /><glyph d="M280 0H362V627L350 665L359 674L397 662H610V736H32V662H245L283 674L292 665L280 627ZM156 -225H213L291 -163L313 -135H329L351 -163L429 -225H488V-220L365 -84H279L156 -220Z" glyph-name="uni1E70" horiz-adv-x="642" unicode="&#7792;" /><glyph d="M379 63C366 60 354 59 340 59C250 59 199 102 199 210V455L187 493L196 502L234 490H379V551H234L196 539L187 548L199 586V731H125V586L137 548L128 539L91 551H35V490H91L128 502L137 493L125 455V205C125 56 210 -5 335 -5C352 -5 367 -4 382 -1ZM81 -225H138L216 -163L238 -135H254L276 -163L354 -225H413V-220L290 -84H204L81 -220Z" glyph-name="uni1E71" horiz-adv-x="434" unicode="&#7793;" /><glyph d="M307 -11H401L663 736H580L377 138L363 56H347L333 138L130 736H45ZM301 -198H407V-84H301Z" glyph-name="uni1E7E" horiz-adv-x="708" unicode="&#7806;" /><glyph d="M231 -11H315L512 554H434L298 135L282 51H264L249 135L112 554H33ZM220 -198H326V-84H220Z" glyph-name="uni1E7F" horiz-adv-x="545" unicode="&#7807;" /><glyph d="M136 0 324 292 337 336H352L365 292L553 0H640V7L411 354L385 374V386L411 405L625 729V736H541L367 465L354 421H340L326 465L152 736H66V729L280 405L306 386V374L280 354L51 7V0ZM415 823H511V933H415ZM181 823H277V933H181Z" glyph-name="uni1E8C" horiz-adv-x="691" unicode="&#7820;" /><glyph d="M119 0 251 210 264 250H276L289 210L421 0H499V6L331 262L307 280V290L331 308L488 548V554H412L291 358L278 318H266L253 358L131 554H53V548L211 308L235 290V280L211 262L43 6V0ZM326 652H422V762H326ZM120 652H216V762H120Z" glyph-name="uni1E8D" horiz-adv-x="542" unicode="&#7821;" /><glyph d="M291 0H373V298L633 730V736H549L353 409L340 353H325L312 409L117 736H31V730L291 298ZM279 821H385V935H279Z" glyph-name="uni1E8E" horiz-adv-x="664" unicode="&#7822;" /><glyph d="M77 -160C219 -115 292 -52 356 130L507 554H430L302 157L286 75H266L250 157L119 554H40L222 47L238 30V20C195 -43 137 -77 56 -100ZM220 652H326V766H220Z" glyph-name="uni1E8F" horiz-adv-x="539" unicode="&#7823;" /><glyph d="M60 0H577V69H212L156 55L148 66L581 667V736H85V667H428L484 681L493 670L60 69ZM132 821H190L283 879L311 907H329L357 879L450 821H510V826L364 955H278L132 826Z" glyph-name="uni1E90" horiz-adv-x="646" unicode="&#7824;" /><glyph d="M50 0H453V60H185L137 46L127 58L455 493V554H67V494H321L369 508L378 496L50 60ZM87 652H144L222 713L244 742H260L282 713L360 652H419V656L296 792H210L87 656Z" glyph-name="uni1E91" horiz-adv-x="511" unicode="&#7825;" /><glyph d="M60 0H577V69H212L156 55L148 66L581 667V736H85V667H428L484 681L493 670L60 69ZM268 -198H374V-84H268Z" glyph-name="uni1E92" horiz-adv-x="646" unicode="&#7826;" /><glyph d="M50 0H453V60H185L137 46L127 58L455 493V554H67V494H321L369 508L378 496L50 60ZM200 -198H306V-84H200Z" glyph-name="uni1E93" horiz-adv-x="511" unicode="&#7827;" /><glyph d="M60 0H577V69H212L156 55L148 66L581 667V736H85V667H428L484 681L493 670L60 69ZM151 -154H491V-94H151Z" glyph-name="uni1E94" horiz-adv-x="646" unicode="&#7828;" /><glyph d="M50 0H453V60H185L137 46L127 58L455 493V554H67V494H321L369 508L378 496L50 60ZM83 -154H423V-94H83Z" glyph-name="uni1E95" horiz-adv-x="511" unicode="&#7829;" /><glyph d="M160 416 149 457 159 476C185 487 220 498 259 498C317 498 357 483 383 457C413 427 426 383 426 319V0H500V323C500 405 481 462 441 502C401 542 349 561 282 561C255 561 226 554 201 543L161 508L149 515L160 569V765H85V0H160ZM123 -154H463V-94H123Z" glyph-name="uni1E96" horiz-adv-x="577" unicode="&#7830;" /><glyph d="M432 -7C574 -7 662 63 662 161C662 256 596 321 415 362V379L465 399L647 628V674C580 718 492 744 395 744C213 744 90 628 90 430V0H172V427C172 592 261 678 405 678C467 678 526 664 584 640V622L534 602L355 377V329C527 283 581 237 581 167C581 105 523 60 429 60C390 60 351 67 318 77L305 11C345 0 390 -7 432 -7Z" glyph-name="uni1E9E" horiz-adv-x="711" unicode="&#7838;" /><glyph d="M204 221 196 233 227 279 343 606 357 686H377L392 606L508 279L539 233L530 221L487 230H248ZM45 0H126L176 139L180 174L190 181L230 168H505L545 181L555 174L558 139L609 0H691L418 746H317ZM315 -198H421V-84H315Z" glyph-name="uni1EA0" horiz-adv-x="736" unicode="&#7840;" /><glyph d="M258 50C211 50 174 63 150 87C130 107 120 133 120 167C120 198 130 225 150 245C182 277 238 292 378 292H399L408 282L397 248V144L406 106L398 89C355 65 310 50 258 50ZM350 15 406 63 428 0H485L470 108V371C470 497 392 560 267 560C199 560 146 547 97 529L116 470C160 486 210 498 264 498C353 498 403 451 403 356V341L392 329L350 341C201 340 133 318 93 277C65 249 50 210 50 164C50 51 138 -6 244 -6C287 -6 320 2 350 15ZM214 -198H320V-84H214Z" glyph-name="uni1EA1" horiz-adv-x="548" unicode="&#7841;" /><glyph d="M204 221 196 233 227 279 343 606 357 686H377L392 606L508 279L539 233L530 221L487 230H248ZM45 0H126L176 139L180 174L190 181L230 168H505L545 181L555 174L558 139L609 0H691L418 746H317ZM236 911H382C429 911 439 905 439 893C439 881 421 869 318 820V809H389C493 856 520 880 520 912C520 945 487 964 396 964H236Z" glyph-name="uni1EA2" horiz-adv-x="736" unicode="&#7842;" /><glyph d="M258 50C211 50 174 63 150 87C130 107 120 133 120 167C120 198 130 225 150 245C182 277 238 292 378 292H399L408 282L397 248V144L406 106L398 89C355 65 310 50 258 50ZM350 15 406 63 428 0H485L470 108V371C470 497 392 560 267 560C199 560 146 547 97 529L116 470C160 486 210 498 264 498C353 498 403 451 403 356V341L392 329L350 341C201 340 133 318 93 277C65 249 50 210 50 164C50 51 138 -6 244 -6C287 -6 320 2 350 15ZM159 744H281C318 744 328 738 328 726C328 713 308 698 227 649V638H287C377 690 400 715 400 744C400 779 372 798 296 798H159Z" glyph-name="uni1EA3" horiz-adv-x="548" unicode="&#7843;" /><glyph d="M204 221 196 233 227 279 343 606 357 686H377L392 606L508 279L539 233L530 221L487 230H248ZM45 0H126L176 139L180 174L190 181L230 168H505L545 181L555 174L558 139L609 0H691L418 746H317ZM563 947 751 1052V1057H607L493 951V947ZM179 821H237L330 877L358 905H376L404 877L497 821H557V826L411 953H325L179 826Z" glyph-name="uni1EA4" horiz-adv-x="736" unicode="&#7844;" /><glyph d="M258 50C211 50 174 63 150 87C130 107 120 133 120 167C120 198 130 225 150 245C182 277 238 292 378 292H399L408 282L397 248V144L406 106L398 89C355 65 310 50 258 50ZM350 15 406 63 428 0H485L470 108V371C470 497 392 560 267 560C199 560 146 547 97 529L116 470C160 486 210 498 264 498C353 498 403 451 403 356V341L392 329L350 341C201 340 133 318 93 277C65 249 50 210 50 164C50 51 138 -6 244 -6C287 -6 320 2 350 15ZM456 772 638 881V885H506L399 776V772ZM104 652H161L239 708L261 736H277L299 708L377 652H436V656L313 786H227L104 656Z" glyph-name="uni1EA5" horiz-adv-x="548" unicode="&#7845;" /><glyph d="M204 221 196 233 227 279 343 606 357 686H377L392 606L508 279L539 233L530 221L487 230H248ZM45 0H126L176 139L180 174L190 181L230 168H505L545 181L555 174L558 139L609 0H691L418 746H317ZM572 947H642V951L528 1057H384V1052ZM179 821H237L330 877L358 905H376L404 877L497 821H557V826L411 953H325L179 826Z" glyph-name="uni1EA6" horiz-adv-x="736" unicode="&#7846;" /><glyph d="M258 50C211 50 174 63 150 87C130 107 120 133 120 167C120 198 130 225 150 245C182 277 238 292 378 292H399L408 282L397 248V144L406 106L398 89C355 65 310 50 258 50ZM350 15 406 63 428 0H485L470 108V371C470 497 392 560 267 560C199 560 146 547 97 529L116 470C160 486 210 498 264 498C353 498 403 451 403 356V341L392 329L350 341C201 340 133 318 93 277C65 249 50 210 50 164C50 51 138 -6 244 -6C287 -6 320 2 350 15ZM478 772H535V776L428 885H296V881ZM104 652H161L239 708L261 736H277L299 708L377 652H436V656L313 786H227L104 656Z" glyph-name="uni1EA7" horiz-adv-x="548" unicode="&#7847;" /><glyph d="M204 221 196 233 227 279 343 606 357 686H377L392 606L508 279L539 233L530 221L487 230H248ZM45 0H126L176 139L180 174L190 181L230 168H505L545 181L555 174L558 139L609 0H691L418 746H317ZM454 1027H555C589 1027 598 1021 598 1010C598 998 583 985 516 940V929H574C651 976 674 1001 674 1028C674 1060 645 1079 577 1079H454ZM179 821H237L330 877L358 905H376L404 877L497 821H557V826L411 953H325L179 826Z" glyph-name="uni1EA8" horiz-adv-x="736" unicode="&#7848;" /><glyph d="M258 50C211 50 174 63 150 87C130 107 120 133 120 167C120 198 130 225 150 245C182 277 238 292 378 292H399L408 282L397 248V144L406 106L398 89C355 65 310 50 258 50ZM350 15 406 63 428 0H485L470 108V371C470 497 392 560 267 560C199 560 146 547 97 529L116 470C160 486 210 498 264 498C353 498 403 451 403 356V341L392 329L350 341C201 340 133 318 93 277C65 249 50 210 50 164C50 51 138 -6 244 -6C287 -6 320 2 350 15ZM345 863H437C468 863 478 856 478 845C478 832 462 818 398 772V761H453C526 811 545 835 545 863C545 894 519 914 454 914H345ZM104 652H161L239 708L261 736H277L299 708L377 652H436V656L313 786H227L104 656Z" glyph-name="uni1EA9" horiz-adv-x="548" unicode="&#7849;" /><glyph d="M204 221 196 233 227 279 343 606 357 686H377L392 606L508 279L539 233L530 221L487 230H248ZM45 0H126L176 139L180 174L190 181L230 168H505L545 181L555 174L558 139L609 0H691L418 746H317ZM356 1037C403 1005 424 998 447 998C485 998 514 1026 554 1116L514 1133C481 1072 466 1055 449 1055C435 1055 424 1061 380 1091C333 1123 313 1131 290 1131C251 1131 222 1102 182 1012L223 995C255 1056 270 1074 287 1074C302 1074 312 1068 356 1037ZM179 821H237L330 877L358 905H376L404 877L497 821H557V826L411 953H325L179 826Z" glyph-name="uni1EAA" horiz-adv-x="736" unicode="&#7850;" /><glyph d="M258 50C211 50 174 63 150 87C130 107 120 133 120 167C120 198 130 225 150 245C182 277 238 292 378 292H399L408 282L397 248V144L406 106L398 89C355 65 310 50 258 50ZM350 15 406 63 428 0H485L470 108V371C470 497 392 560 267 560C199 560 146 547 97 529L116 470C160 486 210 498 264 498C353 498 403 451 403 356V341L392 329L350 341C201 340 133 318 93 277C65 249 50 210 50 164C50 51 138 -6 244 -6C287 -6 320 2 350 15ZM258 873C300 842 317 833 340 833C376 833 404 866 437 955L398 970C370 909 358 893 342 893C330 893 321 897 282 927C241 959 223 968 200 968C165 968 136 934 103 846L143 831C170 892 182 908 198 908C210 908 219 904 258 873ZM104 652H161L239 708L261 736H277L299 708L377 652H436V656L313 785H227L104 656Z" glyph-name="uni1EAB" horiz-adv-x="548" unicode="&#7851;" /><glyph d="M204 221 196 233 227 279 343 606 357 686H377L392 606L508 279L539 233L530 221L487 230H248ZM45 0H126L176 139L180 174L190 181L230 168H505L545 181L555 174L558 139L609 0H691L418 746H317ZM179 821H237L330 879L358 907H376L404 879L497 821H557V826L411 955H325L179 826ZM315 -198H421V-84H315Z" glyph-name="uni1EAC" horiz-adv-x="736" unicode="&#7852;" /><glyph d="M258 50C211 50 174 63 150 87C130 107 120 133 120 167C120 198 130 225 150 245C182 277 238 292 378 292H399L408 282L397 248V144L406 106L398 89C355 65 310 50 258 50ZM350 15 406 63 428 0H485L470 108V371C470 497 392 560 267 560C199 560 146 547 97 529L116 470C160 486 210 498 264 498C353 498 403 451 403 356V341L392 329L350 341C201 340 133 318 93 277C65 249 50 210 50 164C50 51 138 -6 244 -6C287 -6 320 2 350 15ZM104 652H161L239 713L261 742H277L299 713L377 652H436V656L313 792H227L104 656ZM214 -198H320V-84H214Z" glyph-name="uni1EAD" horiz-adv-x="548" unicode="&#7853;" /><glyph d="M204 221 196 233 227 279 343 606 357 686H377L392 606L508 279L539 233L530 221L487 230H248ZM45 0H126L176 139L180 174L190 181L230 168H505L545 181L555 174L558 139L609 0H691L418 746H317ZM391 982 603 1094V1099H452L316 986V982ZM367 821C473 821 538 872 542 955H489C480 908 441 881 369 881C297 881 256 908 247 955H194C198 872 261 821 367 821Z" glyph-name="uni1EAE" horiz-adv-x="736" unicode="&#7854;" /><glyph d="M258 50C211 50 174 63 150 87C130 107 120 133 120 167C120 198 130 225 150 245C182 277 238 292 378 292H399L408 282L397 248V144L406 106L398 89C355 65 310 50 258 50ZM350 15 406 63 428 0H485L470 108V371C470 497 392 560 267 560C199 560 146 547 97 529L116 470C160 486 210 498 264 498C353 498 403 451 403 356V341L392 329L350 341C201 340 133 318 93 277C65 249 50 210 50 164C50 51 138 -6 244 -6C287 -6 320 2 350 15ZM285 818 489 933V937H349L224 822V818ZM269 651C364 651 422 701 425 785H373C365 737 332 711 271 711C210 711 175 737 167 785H115C118 701 175 651 269 651Z" glyph-name="uni1EAF" horiz-adv-x="548" unicode="&#7855;" /><glyph d="M204 221 196 233 227 279 343 606 357 686H377L392 606L508 279L539 233L530 221L487 230H248ZM45 0H126L176 139L180 174L190 181L230 168H505L545 181L555 174L558 139L609 0H691L418 746H317ZM345 982H420V986L284 1099H133V1094ZM367 821C473 821 538 872 542 955H489C480 908 441 881 369 881C297 881 256 908 247 955H194C198 872 261 821 367 821Z" glyph-name="uni1EB0" horiz-adv-x="736" unicode="&#7856;" /><glyph d="M258 50C211 50 174 63 150 87C130 107 120 133 120 167C120 198 130 225 150 245C182 277 238 292 378 292H399L408 282L397 248V144L406 106L398 89C355 65 310 50 258 50ZM350 15 406 63 428 0H485L470 108V371C470 497 392 560 267 560C199 560 146 547 97 529L116 470C160 486 210 498 264 498C353 498 403 451 403 356V341L392 329L350 341C201 340 133 318 93 277C65 249 50 210 50 164C50 51 138 -6 244 -6C287 -6 320 2 350 15ZM255 818H316V822L191 937H51V933ZM269 651C364 651 422 701 425 785H373C365 737 332 711 271 711C210 711 175 737 167 785H115C118 701 175 651 269 651Z" glyph-name="uni1EB1" horiz-adv-x="548" unicode="&#7857;" /><glyph d="M204 221 196 233 227 279 343 606 357 686H377L392 606L508 279L539 233L530 221L487 230H248ZM45 0H126L176 139L180 174L190 181L230 168H505L545 181L555 174L558 139L609 0H691L418 746H317ZM245 1070H378C420 1070 430 1065 430 1054C430 1042 412 1031 320 985V974H389C484 1019 509 1042 509 1071C509 1105 478 1123 394 1123H245ZM367 821C473 821 538 872 542 955H489C480 908 441 881 369 881C297 881 256 908 247 955H194C198 872 261 821 367 821Z" glyph-name="uni1EB2" horiz-adv-x="736" unicode="&#7858;" /><glyph d="M258 50C211 50 174 63 150 87C130 107 120 133 120 167C120 198 130 225 150 245C182 277 238 292 378 292H399L408 282L397 248V144L406 106L398 89C355 65 310 50 258 50ZM350 15 406 63 428 0H485L470 108V371C470 497 392 560 267 560C199 560 146 547 97 529L116 470C160 486 210 498 264 498C353 498 403 451 403 356V341L392 329L350 341C201 340 133 318 93 277C65 249 50 210 50 164C50 51 138 -6 244 -6C287 -6 320 2 350 15ZM166 903H280C315 903 325 897 325 886C325 873 308 860 230 813V803H290C374 852 396 875 396 904C396 937 369 955 296 955H166ZM269 651C364 651 422 701 425 785H373C365 737 332 711 271 711C210 711 175 737 167 785H115C118 701 175 651 269 651Z" glyph-name="uni1EB3" horiz-adv-x="548" unicode="&#7859;" /><glyph d="M204 221 196 233 227 279 343 606 357 686H377L392 606L508 279L539 233L530 221L487 230H248ZM45 0H126L176 139L180 174L190 181L230 168H505L545 181L555 174L558 139L609 0H691L418 746H317ZM356 1042C403 1010 424 1002 447 1002C485 1002 514 1031 554 1121L514 1138C481 1077 466 1059 449 1059C435 1059 424 1065 380 1095C333 1127 313 1135 290 1135C251 1135 222 1107 182 1016L223 999C255 1060 270 1078 287 1078C302 1078 312 1072 356 1042ZM367 821C473 821 538 872 542 955H489C480 908 441 881 369 881C297 881 256 908 247 955H194C198 872 261 821 367 821Z" glyph-name="uni1EB4" horiz-adv-x="736" unicode="&#7860;" /><glyph d="M258 50C211 50 174 63 150 87C130 107 120 133 120 167C120 198 130 225 150 245C182 277 238 292 378 292H399L408 282L397 248V144L406 106L398 89C355 65 310 50 258 50ZM350 15 406 63 428 0H485L470 108V371C470 497 392 560 267 560C199 560 146 547 97 529L116 470C160 486 210 498 264 498C353 498 403 451 403 356V341L392 329L350 341C201 340 133 318 93 277C65 249 50 210 50 164C50 51 138 -6 244 -6C287 -6 320 2 350 15ZM258 871C300 840 317 831 340 831C376 831 404 864 437 953L398 968C370 906 358 891 342 891C330 891 321 895 282 925C241 957 223 965 200 965C165 965 136 932 103 844L143 828C170 890 182 906 198 906C210 906 219 902 258 871ZM269 651C364 651 422 701 425 785H373C365 737 332 711 271 711C210 711 175 737 167 785H115C118 701 175 651 269 651Z" glyph-name="uni1EB5" horiz-adv-x="548" unicode="&#7861;" /><glyph d="M204 221 196 233 227 279 343 606 357 686H377L392 606L508 279L539 233L530 221L487 230H248ZM45 0H126L176 139L180 174L190 181L230 168H505L545 181L555 174L558 139L609 0H691L418 746H317ZM367 821C473 821 538 873 542 956H489C480 908 441 881 369 881C297 881 256 908 247 956H194C198 873 261 821 367 821ZM315 -198H421V-84H315Z" glyph-name="uni1EB6" horiz-adv-x="736" unicode="&#7862;" /><glyph d="M258 50C211 50 174 63 150 87C130 107 120 133 120 167C120 198 130 225 150 245C182 277 238 292 378 292H399L408 282L397 248V144L406 106L398 89C355 65 310 50 258 50ZM350 15 406 63 428 0H485L470 108V371C470 497 392 560 267 560C199 560 146 547 97 529L116 470C160 486 210 498 264 498C353 498 403 451 403 356V341L392 329L350 341C201 340 133 318 93 277C65 249 50 210 50 164C50 51 138 -6 244 -6C287 -6 320 2 350 15ZM269 651C363 651 421 704 425 792H372C365 740 332 711 271 711C210 711 175 740 168 792H115C119 704 175 651 269 651ZM214 -198H320V-84H214Z" glyph-name="uni1EB7" horiz-adv-x="548" unicode="&#7863;" /><glyph d="M97 0H567V71H214L175 59L166 68L178 105V309L166 346L175 355L214 343H503V412H214L175 400L166 409L178 446V631L166 668L175 677L214 665H557V736H97ZM279 -198H385V-84H279Z" glyph-name="uni1EB8" horiz-adv-x="620" unicode="&#7864;" /><glyph d="M422 281 386 292H162L127 281L117 291C125 433 193 507 276 507C357 507 423 439 432 291ZM471 33 450 87C401 66 356 53 301 53C199 53 131 123 117 237L127 248L173 240H497V269C497 444 412 563 277 563C149 563 50 448 50 276C50 89 158 -7 296 -7C363 -7 415 7 471 33ZM221 -198H327V-84H221Z" glyph-name="uni1EB9" horiz-adv-x="542" unicode="&#7865;" /><glyph d="M97 0H567V71H214L175 59L166 68L178 105V309L166 346L175 355L214 343H503V412H214L175 400L166 409L178 446V631L166 668L175 677L214 665H557V736H97ZM200 911H346C393 911 403 905 403 893C403 881 385 869 282 820V809H353C457 856 484 880 484 912C484 945 451 964 360 964H200Z" glyph-name="uni1EBA" horiz-adv-x="620" unicode="&#7866;" /><glyph d="M422 281 386 292H162L127 281L117 291C125 433 193 507 276 507C357 507 423 439 432 291ZM471 33 450 87C401 66 356 53 301 53C199 53 131 123 117 237L127 248L173 240H497V269C497 444 412 563 277 563C149 563 50 448 50 276C50 89 158 -7 296 -7C363 -7 415 7 471 33ZM163 744H285C322 744 332 738 332 726C332 713 312 698 231 649V638H291C381 690 404 715 404 744C404 779 376 798 300 798H163Z" glyph-name="uni1EBB" horiz-adv-x="542" unicode="&#7867;" /><glyph d="M97 0H567V71H214L175 59L166 68L178 105V309L166 346L175 355L214 343H503V412H214L175 400L166 409L178 446V631L166 668L175 677L214 665H557V736H97ZM346 914C290 949 267 959 241 959C195 959 167 928 123 832L163 813C199 879 215 899 238 899C255 899 267 892 318 861C374 826 398 816 423 816C469 816 497 847 541 943L502 961C466 896 449 876 427 876C410 876 398 883 346 914Z" glyph-name="uni1EBC" horiz-adv-x="620" unicode="&#7868;" /><glyph d="M422 281 386 292H162L127 281L117 291C125 433 193 507 276 507C357 507 423 439 432 291ZM471 33 450 87C401 66 356 53 301 53C199 53 131 123 117 237L127 248L173 240H497V269C497 444 412 563 277 563C149 563 50 448 50 276C50 89 158 -7 296 -7C363 -7 415 7 471 33ZM285 749C233 785 215 794 190 794C143 794 115 752 79 662L119 646C151 710 166 734 188 734C205 734 215 727 263 694C316 658 334 649 359 649C405 649 433 691 470 781L429 797C397 733 382 709 360 709C343 709 333 716 285 749Z" glyph-name="uni1EBD" horiz-adv-x="542" unicode="&#7869;" /><glyph d="M97 0H567V71H214L175 59L166 68L178 105V309L166 346L175 355L214 343H503V412H214L175 400L166 409L178 446V631L166 668L175 677L214 665H557V736H97ZM527 947 715 1052V1057H571L457 951V947ZM143 821H201L294 877L322 905H340L368 877L461 821H521V826L375 953H289L143 826Z" glyph-name="uni1EBE" horiz-adv-x="620" unicode="&#7870;" /><glyph d="M422 281 386 292H162L127 281L117 291C125 433 193 507 276 507C357 507 423 439 432 291ZM471 33 450 87C401 66 356 53 301 53C199 53 131 123 117 237L127 248L173 240H497V269C497 444 412 563 277 563C149 563 50 448 50 276C50 89 158 -7 296 -7C363 -7 415 7 471 33ZM460 772 642 881V885H510L403 776V772ZM108 652H165L243 708L265 736H281L303 708L381 652H440V656L317 786H231L108 656Z" glyph-name="uni1EBF" horiz-adv-x="542" unicode="&#7871;" /><glyph d="M97 0H567V71H214L175 59L166 68L178 105V309L166 346L175 355L214 343H503V412H214L175 400L166 409L178 446V631L166 668L175 677L214 665H557V736H97ZM536 947H606V951L492 1057H348V1052ZM143 821H201L294 877L322 905H340L368 877L461 821H521V826L375 953H289L143 826Z" glyph-name="uni1EC0" horiz-adv-x="620" unicode="&#7872;" /><glyph d="M422 281 386 292H162L127 281L117 291C125 433 193 507 276 507C357 507 423 439 432 291ZM471 33 450 87C401 66 356 53 301 53C199 53 131 123 117 237L127 248L173 240H497V269C497 444 412 563 277 563C149 563 50 448 50 276C50 89 158 -7 296 -7C363 -7 415 7 471 33ZM482 772H539V776L432 885H300V881ZM108 652H165L243 708L265 736H281L303 708L381 652H440V656L317 786H231L108 656Z" glyph-name="uni1EC1" horiz-adv-x="542" unicode="&#7873;" /><glyph d="M97 0H567V71H214L175 59L166 68L178 105V309L166 346L175 355L214 343H503V412H214L175 400L166 409L178 446V631L166 668L175 677L214 665H557V736H97ZM418 1027H519C553 1027 562 1021 562 1010C562 998 547 985 480 940V929H538C615 976 638 1001 638 1028C638 1060 609 1079 541 1079H418ZM143 821H201L294 877L322 905H340L368 877L461 821H521V826L375 953H289L143 826Z" glyph-name="uni1EC2" horiz-adv-x="620" unicode="&#7874;" /><glyph d="M422 281 386 292H162L127 281L117 291C125 433 193 507 276 507C357 507 423 439 432 291ZM471 33 450 87C401 66 356 53 301 53C199 53 131 123 117 237L127 248L173 240H497V269C497 444 412 563 277 563C149 563 50 448 50 276C50 89 158 -7 296 -7C363 -7 415 7 471 33ZM349 863H441C472 863 482 856 482 845C482 832 466 818 402 772V761H457C530 811 549 835 549 863C549 894 523 914 458 914H349ZM108 652H165L243 708L265 736H281L303 708L381 652H440V656L317 786H231L108 656Z" glyph-name="uni1EC3" horiz-adv-x="542" unicode="&#7875;" /><glyph d="M97 0H567V71H214L175 59L166 68L178 105V309L166 346L175 355L214 343H503V412H214L175 400L166 409L178 446V631L166 668L175 677L214 665H557V736H97ZM320 1037C367 1005 388 998 411 998C449 998 478 1026 518 1116L478 1133C445 1072 430 1055 413 1055C399 1055 388 1061 344 1091C297 1123 277 1131 254 1131C215 1131 186 1102 146 1012L187 995C219 1056 234 1074 251 1074C266 1074 276 1068 320 1037ZM143 821H201L294 877L322 905H340L368 877L461 821H521V826L375 953H289L143 826Z" glyph-name="uni1EC4" horiz-adv-x="620" unicode="&#7876;" /><glyph d="M422 281 386 292H162L127 281L117 291C125 433 193 507 276 507C357 507 423 439 432 291ZM471 33 450 87C401 66 356 53 301 53C199 53 131 123 117 237L127 248L173 240H497V269C497 444 412 563 277 563C149 563 50 448 50 276C50 89 158 -7 296 -7C363 -7 415 7 471 33ZM262 873C304 842 321 833 344 833C380 833 408 866 441 955L402 970C374 909 362 893 346 893C334 893 325 897 286 927C245 959 227 968 204 968C169 968 140 934 107 846L147 831C174 892 186 908 202 908C214 908 223 904 262 873ZM108 652H165L243 708L265 736H281L303 708L381 652H440V656L317 785H231L108 656Z" glyph-name="uni1EC5" horiz-adv-x="542" unicode="&#7877;" /><glyph d="M97 0H567V71H214L175 59L166 68L178 105V309L166 346L175 355L214 343H503V412H214L175 400L166 409L178 446V631L166 668L175 677L214 665H557V736H97ZM143 821H201L294 879L322 907H340L368 879L461 821H521V826L375 955H289L143 826ZM279 -198H385V-84H279Z" glyph-name="uni1EC6" horiz-adv-x="620" unicode="&#7878;" /><glyph d="M422 281 386 292H162L127 281L117 291C125 433 193 507 276 507C357 507 423 439 432 291ZM471 33 450 87C401 66 356 53 301 53C199 53 131 123 117 237L127 248L173 240H497V269C497 444 412 563 277 563C149 563 50 448 50 276C50 89 158 -7 296 -7C363 -7 415 7 471 33ZM108 652H165L243 713L265 742H281L303 713L381 652H440V656L317 792H231L108 656ZM221 -198H327V-84H221Z" glyph-name="uni1EC7" horiz-adv-x="542" unicode="&#7879;" /><glyph d="M113 0H195V736H113ZM23 911H169C216 911 226 905 226 893C226 881 208 869 105 820V809H176C280 856 307 880 307 912C307 945 274 964 183 964H23Z" glyph-name="uni1EC8" horiz-adv-x="308" unicode="&#7880;" /><glyph d="M103 554V0H178V554L156 551H125ZM30 744H152C189 744 199 738 199 726C199 713 179 698 98 649V638H158C248 690 271 715 271 744C271 779 243 798 167 798H30Z" glyph-name="uni1EC9" horiz-adv-x="281" unicode="&#7881;" /><glyph d="M113 0H195V736H113ZM102 -198H208V-84H102Z" glyph-name="uni1ECA" horiz-adv-x="308" unicode="&#7882;" /><glyph d="M87 755V657L110 662H171L194 657V755ZM103 554V0H178V554L156 551H125ZM88 -198H194V-84H88Z" glyph-name="uni1ECB" horiz-adv-x="281" unicode="&#7883;" /><glyph d="M367 -10C540 -10 675 148 675 369C675 589 540 746 369 746C196 746 61 588 61 367C61 147 195 -10 367 -10ZM369 61C235 61 143 192 143 369C143 546 233 675 367 675C501 675 593 544 593 367C593 190 503 61 369 61ZM315 -198H421V-84H315Z" glyph-name="uni1ECC" horiz-adv-x="736" unicode="&#7884;" /><glyph d="M50 276C50 102 148 -10 276 -10C403 -10 502 103 502 278C502 452 404 563 276 563C149 563 50 450 50 276ZM123 277C123 409 183 499 275 499C368 499 429 409 429 276C429 144 370 54 277 54C184 54 123 145 123 277ZM223 -198H329V-84H223Z" glyph-name="uni1ECD" horiz-adv-x="552" unicode="&#7885;" /><glyph d="M367 -10C540 -10 675 148 675 369C675 589 540 746 369 746C196 746 61 588 61 367C61 147 195 -10 367 -10ZM369 61C235 61 143 192 143 369C143 546 233 675 367 675C501 675 593 544 593 367C593 190 503 61 369 61ZM236 911H382C429 911 439 905 439 893C439 881 421 869 318 820V809H389C493 856 520 880 520 912C520 945 487 964 396 964H236Z" glyph-name="uni1ECE" horiz-adv-x="736" unicode="&#7886;" /><glyph d="M50 276C50 102 148 -10 276 -10C403 -10 502 103 502 278C502 452 404 563 276 563C149 563 50 450 50 276ZM123 277C123 409 183 499 275 499C368 499 429 409 429 276C429 144 370 54 277 54C184 54 123 145 123 277ZM165 744H287C324 744 334 738 334 726C334 713 314 698 233 649V638H293C383 690 406 715 406 744C406 779 378 798 302 798H165Z" glyph-name="uni1ECF" horiz-adv-x="552" unicode="&#7887;" /><glyph d="M367 -10C540 -10 675 148 675 369C675 589 540 746 369 746C196 746 61 588 61 367C61 147 195 -10 367 -10ZM369 61C235 61 143 192 143 369C143 546 233 675 367 675C501 675 593 544 593 367C593 190 503 61 369 61ZM563 947 751 1052V1057H607L493 951V947ZM179 821H237L330 877L358 905H376L404 877L497 821H557V826L411 953H325L179 826Z" glyph-name="uni1ED0" horiz-adv-x="736" unicode="&#7888;" /><glyph d="M50 276C50 102 148 -10 276 -10C403 -10 502 103 502 278C502 452 404 563 276 563C149 563 50 450 50 276ZM123 277C123 409 183 499 275 499C368 499 429 409 429 276C429 144 370 54 277 54C184 54 123 145 123 277ZM462 772 644 881V885H512L405 776V772ZM110 652H167L245 708L267 736H283L305 708L383 652H442V656L319 786H233L110 656Z" glyph-name="uni1ED1" horiz-adv-x="552" unicode="&#7889;" /><glyph d="M367 -10C540 -10 675 148 675 369C675 589 540 746 369 746C196 746 61 588 61 367C61 147 195 -10 367 -10ZM369 61C235 61 143 192 143 369C143 546 233 675 367 675C501 675 593 544 593 367C593 190 503 61 369 61ZM572 947H642V951L528 1057H384V1052ZM179 821H237L330 877L358 905H376L404 877L497 821H557V826L411 953H325L179 826Z" glyph-name="uni1ED2" horiz-adv-x="736" unicode="&#7890;" /><glyph d="M50 276C50 102 148 -10 276 -10C403 -10 502 103 502 278C502 452 404 563 276 563C149 563 50 450 50 276ZM123 277C123 409 183 499 275 499C368 499 429 409 429 276C429 144 370 54 277 54C184 54 123 145 123 277ZM484 772H541V776L434 885H302V881ZM110 652H167L245 708L267 736H283L305 708L383 652H442V656L319 786H233L110 656Z" glyph-name="uni1ED3" horiz-adv-x="552" unicode="&#7891;" /><glyph d="M367 -10C540 -10 675 148 675 369C675 589 540 746 369 746C196 746 61 588 61 367C61 147 195 -10 367 -10ZM369 61C235 61 143 192 143 369C143 546 233 675 367 675C501 675 593 544 593 367C593 190 503 61 369 61ZM454 1027H555C589 1027 598 1021 598 1010C598 998 583 985 516 940V929H574C651 976 674 1001 674 1028C674 1060 645 1079 577 1079H454ZM179 821H237L330 877L358 905H376L404 877L497 821H557V826L411 953H325L179 826Z" glyph-name="uni1ED4" horiz-adv-x="736" unicode="&#7892;" /><glyph d="M50 276C50 102 148 -10 276 -10C403 -10 502 103 502 278C502 452 404 563 276 563C149 563 50 450 50 276ZM123 277C123 409 183 499 275 499C368 499 429 409 429 276C429 144 370 54 277 54C184 54 123 145 123 277ZM351 863H443C474 863 484 856 484 845C484 832 468 818 404 772V761H459C532 811 551 835 551 863C551 894 525 914 460 914H351ZM110 652H167L245 708L267 736H283L305 708L383 652H442V656L319 786H233L110 656Z" glyph-name="uni1ED5" horiz-adv-x="552" unicode="&#7893;" /><glyph d="M367 -10C540 -10 675 148 675 369C675 589 540 746 369 746C196 746 61 588 61 367C61 147 195 -10 367 -10ZM369 61C235 61 143 192 143 369C143 546 233 675 367 675C501 675 593 544 593 367C593 190 503 61 369 61ZM356 1037C403 1005 424 998 447 998C485 998 514 1026 554 1116L514 1133C481 1072 466 1055 449 1055C435 1055 424 1061 380 1091C333 1123 313 1131 290 1131C251 1131 222 1102 182 1012L223 995C255 1056 270 1074 287 1074C302 1074 312 1068 356 1037ZM179 821H237L330 877L358 905H376L404 877L497 821H557V826L411 953H325L179 826Z" glyph-name="uni1ED6" horiz-adv-x="736" unicode="&#7894;" /><glyph d="M50 276C50 102 148 -10 276 -10C403 -10 502 103 502 278C502 452 404 563 276 563C149 563 50 450 50 276ZM123 277C123 409 183 499 275 499C368 499 429 409 429 276C429 144 370 54 277 54C184 54 123 145 123 277ZM264 873C306 842 323 833 346 833C382 833 410 866 443 955L404 970C376 909 364 893 348 893C336 893 327 897 288 927C247 959 229 968 206 968C171 968 142 934 109 846L149 831C176 892 188 908 204 908C216 908 225 904 264 873ZM110 652H167L245 708L267 736H283L305 708L383 652H442V656L319 785H233L110 656Z" glyph-name="uni1ED7" horiz-adv-x="552" unicode="&#7895;" /><glyph d="M367 -10C540 -10 675 148 675 369C675 589 540 746 369 746C196 746 61 588 61 367C61 147 195 -10 367 -10ZM369 61C235 61 143 192 143 369C143 546 233 675 367 675C501 675 593 544 593 367C593 190 503 61 369 61ZM179 821H237L330 879L358 907H376L404 879L497 821H557V826L411 955H325L179 826ZM315 -198H421V-84H315Z" glyph-name="uni1ED8" horiz-adv-x="736" unicode="&#7896;" /><glyph d="M50 276C50 102 148 -10 276 -10C403 -10 502 103 502 278C502 452 404 563 276 563C149 563 50 450 50 276ZM123 277C123 409 183 499 275 499C368 499 429 409 429 276C429 144 370 54 277 54C184 54 123 145 123 277ZM110 652H167L245 713L267 742H283L305 713L383 652H442V656L319 792H233L110 656ZM223 -198H329V-84H223Z" glyph-name="uni1ED9" horiz-adv-x="552" unicode="&#7897;" /><glyph d="M675 364C675 527 611 632 497 684L501 698C524 695 545 694 565 694C647 694 680 721 734 903L672 921C622 758 596 736 525 736H369C196 736 61 582 61 363C61 144 195 -10 367 -10C540 -10 675 145 675 364ZM143 366C143 542 233 670 367 670C501 670 593 540 593 364C593 188 503 61 369 61C235 61 143 190 143 366ZM386 825 608 944V949H455L310 830V825Z" glyph-name="uni1EDA" horiz-adv-x="743" unicode="&#7898;" /><glyph d="M502 273C502 388 463 459 385 502L390 516C402 515 414 515 425 515C503 515 533 540 584 710L524 727C476 573 453 554 386 554H276C149 554 50 444 50 271C50 99 148 -10 276 -10C403 -10 502 101 502 273ZM275 494C368 494 429 405 429 273C429 143 370 54 277 54C184 54 123 143 123 275C123 405 183 494 275 494ZM276 652 491 778V782H347L213 656V652Z" glyph-name="uni1EDB" horiz-adv-x="562" unicode="&#7899;" /><glyph d="M675 364C675 527 611 632 497 684L501 698C524 695 545 694 565 694C647 694 680 721 734 903L672 921C622 758 596 736 525 736H369C196 736 61 582 61 363C61 144 195 -10 367 -10C540 -10 675 145 675 364ZM143 366C143 542 233 670 367 670C501 670 593 540 593 364C593 188 503 61 369 61C235 61 143 190 143 366ZM333 825H409V830L264 949H111V944Z" glyph-name="uni1EDC" horiz-adv-x="743" unicode="&#7900;" /><glyph d="M502 273C502 388 463 459 385 502L390 516C402 515 414 515 425 515C503 515 533 540 584 710L524 727C476 573 453 554 386 554H276C149 554 50 444 50 271C50 99 148 -10 276 -10C403 -10 502 101 502 273ZM275 494C368 494 429 405 429 273C429 143 370 54 277 54C184 54 123 143 123 275C123 405 183 494 275 494ZM247 652H310V656L176 782H32V778Z" glyph-name="uni1EDD" horiz-adv-x="562" unicode="&#7901;" /><glyph d="M675 364C675 527 611 632 497 684L501 698C524 695 545 694 565 694C647 694 680 721 734 903L672 921C622 758 596 736 525 736H369C196 736 61 582 61 363C61 144 195 -10 367 -10C540 -10 675 145 675 364ZM143 366C143 542 233 670 367 670C501 670 593 540 593 364C593 188 503 61 369 61C235 61 143 190 143 366ZM236 915H382C429 915 439 909 439 897C439 885 421 873 318 824V813H389C493 860 520 884 520 916C520 949 487 968 396 968H236Z" glyph-name="uni1EDE" horiz-adv-x="743" unicode="&#7902;" /><glyph d="M502 273C502 388 463 459 385 502L390 516C402 515 414 515 425 515C503 515 533 540 584 710L524 727C476 573 453 554 386 554H276C149 554 50 444 50 271C50 99 148 -10 276 -10C403 -10 502 101 502 273ZM275 494C368 494 429 405 429 273C429 143 370 54 277 54C184 54 123 143 123 275C123 405 183 494 275 494ZM165 744H287C324 744 334 738 334 726C334 713 314 698 233 649V638H293C383 690 406 715 406 744C406 779 378 798 302 798H165Z" glyph-name="uni1EDF" horiz-adv-x="562" unicode="&#7903;" /><glyph d="M675 364C675 527 611 632 497 684L501 698C524 695 545 694 565 694C647 694 680 721 734 903L672 921C622 758 596 736 525 736H369C196 736 61 582 61 363C61 144 195 -10 367 -10C540 -10 675 145 675 364ZM143 366C143 542 233 670 367 670C501 670 593 540 593 364C593 188 503 61 369 61C235 61 143 190 143 366ZM351 865C406 829 428 820 454 820C498 820 525 851 569 947L529 965C493 899 478 880 456 880C440 880 429 886 378 918C322 954 301 963 275 963C230 963 204 932 160 836L199 817C235 884 251 903 272 903C289 903 300 897 351 865Z" glyph-name="uni1EE0" horiz-adv-x="743" unicode="&#7904;" /><glyph d="M502 273C502 388 463 459 385 502L390 516C402 515 414 515 425 515C503 515 533 540 584 710L524 727C476 573 453 554 386 554H276C149 554 50 444 50 271C50 99 148 -10 276 -10C403 -10 502 101 502 273ZM275 494C368 494 429 405 429 273C429 143 370 54 277 54C184 54 123 143 123 275C123 405 183 494 275 494ZM256 694C306 658 323 649 349 649C392 649 417 688 454 781L413 797C382 730 370 709 350 709C334 709 325 715 278 749C228 785 211 794 186 794C142 794 117 756 81 662L121 646C152 713 164 734 185 734C201 734 209 728 256 694Z" glyph-name="uni1EE1" horiz-adv-x="562" unicode="&#7905;" /><glyph d="M675 364C675 527 611 632 497 684L501 698C524 695 545 694 565 694C647 694 680 721 734 903L672 921C622 758 596 736 525 736H369C196 736 61 582 61 363C61 144 195 -10 367 -10C540 -10 675 145 675 364ZM143 366C143 542 233 670 367 670C501 670 593 540 593 364C593 188 503 61 369 61C235 61 143 190 143 366ZM315 -198H421V-84H315Z" glyph-name="uni1EE2" horiz-adv-x="743" unicode="&#7906;" /><glyph d="M502 273C502 388 463 459 385 502L390 516C402 515 414 515 425 515C503 515 533 540 584 710L524 727C476 573 453 554 386 554H276C149 554 50 444 50 271C50 99 148 -10 276 -10C403 -10 502 101 502 273ZM275 494C368 494 429 405 429 273C429 143 370 54 277 54C184 54 123 143 123 275C123 405 183 494 275 494ZM223 -198H329V-84H223Z" glyph-name="uni1EE3" horiz-adv-x="562" unicode="&#7907;" /><glyph d="M355 63C240 63 172 146 172 294V736H90V294C90 104 192 -8 353 -8C514 -8 616 104 616 293V736H538V292C538 146 468 63 355 63ZM301 -198H407V-84H301Z" glyph-name="uni1EE4" horiz-adv-x="707" unicode="&#7908;" /><glyph d="M390 12 422 44H434L450 -4H491V554H417V131L427 90L419 73C386 62 351 56 317 56C260 56 220 71 193 97C163 127 151 170 151 234V554H76V230C76 148 95 91 135 51C175 11 228 -7 295 -7C331 -7 363 1 390 12ZM233 -198H339V-84H233Z" glyph-name="uni1EE5" horiz-adv-x="577" unicode="&#7909;" /><glyph d="M355 63C240 63 172 146 172 294V736H90V294C90 104 192 -8 353 -8C514 -8 616 104 616 293V736H538V292C538 146 468 63 355 63ZM222 911H368C415 911 425 905 425 893C425 881 407 869 304 820V809H375C479 856 506 880 506 912C506 945 473 964 382 964H222Z" glyph-name="uni1EE6" horiz-adv-x="707" unicode="&#7910;" /><glyph d="M390 12 422 44H434L450 -4H491V554H417V131L427 90L419 73C386 62 351 56 317 56C260 56 220 71 193 97C163 127 151 170 151 234V554H76V230C76 148 95 91 135 51C175 11 228 -7 295 -7C331 -7 363 1 390 12ZM173 744H295C332 744 342 738 342 726C342 713 322 698 241 649V638H301C391 690 414 715 414 744C414 779 386 798 310 798H173Z" glyph-name="uni1EE7" horiz-adv-x="577" unicode="&#7911;" /><glyph d="M353 -8C514 -8 616 104 616 293V647L604 685L613 694H619C701 694 734 721 787 903L726 921C676 758 650 736 578 736H538V292C538 146 468 63 355 63C240 63 172 146 172 294V736H90V294C90 104 192 -8 353 -8ZM386 821 608 940V945H455L310 826V821Z" glyph-name="uni1EE8" horiz-adv-x="741" unicode="&#7912;" /><glyph d="M390 12 422 44H434L450 -4H491V468L480 506L488 515H500C579 515 609 540 659 710L600 727C552 573 529 554 462 554H417V131L427 90L419 73C386 62 351 56 317 56C260 56 220 71 193 97C163 127 151 170 151 234V554H76V230C76 148 95 91 135 51C175 11 228 -7 295 -7C331 -7 363 1 390 12ZM305 652 520 778V782H376L242 656V652Z" glyph-name="uni1EE9" horiz-adv-x="616" unicode="&#7913;" /><glyph d="M353 -8C514 -8 616 104 616 293V647L604 685L613 694H619C701 694 734 721 787 903L726 921C676 758 650 736 578 736H538V292C538 146 468 63 355 63C240 63 172 146 172 294V736H90V294C90 104 192 -8 353 -8ZM319 821H395V826L250 945H97V940Z" glyph-name="uni1EEA" horiz-adv-x="741" unicode="&#7914;" /><glyph d="M390 12 422 44H434L450 -4H491V468L480 506L488 515H500C579 515 609 540 659 710L600 727C552 573 529 554 462 554H417V131L427 90L419 73C386 62 351 56 317 56C260 56 220 71 193 97C163 127 151 170 151 234V554H76V230C76 148 95 91 135 51C175 11 228 -7 295 -7C331 -7 363 1 390 12ZM255 652H318V656L184 782H40V778Z" glyph-name="uni1EEB" horiz-adv-x="616" unicode="&#7915;" /><glyph d="M353 -8C514 -8 616 104 616 293V647L604 685L613 694H619C701 694 734 721 787 903L726 921C676 758 650 736 578 736H538V292C538 146 468 63 355 63C240 63 172 146 172 294V736H90V294C90 104 192 -8 353 -8ZM222 911H368C415 911 425 905 425 893C425 881 407 869 304 820V809H375C479 856 506 880 506 912C506 945 473 964 382 964H222Z" glyph-name="uni1EEC" horiz-adv-x="741" unicode="&#7916;" /><glyph d="M390 12 422 44H434L450 -4H491V468L480 506L488 515H500C579 515 609 540 659 710L600 727C552 573 529 554 462 554H417V131L427 90L419 73C386 62 351 56 317 56C260 56 220 71 193 97C163 127 151 170 151 234V554H76V230C76 148 95 91 135 51C175 11 228 -7 295 -7C331 -7 363 1 390 12ZM173 744H295C332 744 342 738 342 726C342 713 322 698 241 649V638H301C391 690 414 715 414 744C414 779 386 798 310 798H173Z" glyph-name="uni1EED" horiz-adv-x="616" unicode="&#7917;" /><glyph d="M353 -8C514 -8 616 104 616 293V647L604 685L613 694H619C701 694 734 721 787 903L726 921C676 758 650 736 578 736H538V292C538 146 468 63 355 63C240 63 172 146 172 294V736H90V294C90 104 192 -8 353 -8ZM341 861C396 825 418 816 444 816C488 816 515 847 559 943L519 961C483 895 468 876 446 876C430 876 419 882 368 914C312 950 291 959 265 959C220 959 194 928 150 832L189 813C225 880 241 899 262 899C279 899 290 893 341 861Z" glyph-name="uni1EEE" horiz-adv-x="741" unicode="&#7918;" /><glyph d="M390 12 422 44H434L450 -4H491V468L480 506L488 515H500C579 515 609 540 659 710L600 727C552 573 529 554 462 554H417V131L427 90L419 73C386 62 351 56 317 56C260 56 220 71 193 97C163 127 151 170 151 234V554H76V230C76 148 95 91 135 51C175 11 228 -7 295 -7C331 -7 363 1 390 12ZM273 694C323 658 340 649 366 649C409 649 434 688 471 781L430 797C399 730 387 709 367 709C351 709 342 715 295 749C245 785 228 794 203 794C159 794 134 756 98 662L138 646C169 713 181 734 202 734C218 734 226 728 273 694Z" glyph-name="uni1EEF" horiz-adv-x="616" unicode="&#7919;" /></font>
</defs>
</svg>
