<?xml version="1.0" standalone="no"?><!DOCTYPE svg PUBLIC "-//W3C//DTD SVG 1.1//EN" "http://www.w3.org/Graphics/SVG/1.1/DTD/svg11.dtd" ><svg version="1.1" xmlns="http://www.w3.org/2000/svg"><defs><font horiz-adv-x="0" id="font"><font-face ascent="800" bbox="-362 -240 1213 1139" cap-height="736" descent="-200" font-family="Retina MP" font-stretch="normal" font-style="italic" font-weight="350" units-per-em="1000" x-height="554" /><missing-glyph d="M100 -240H600V960H100ZM192 910H507L350 429ZM321 360 150 -154V874ZM378 360 550 874V-154ZM350 291 507 -190H192Z" horiz-adv-x="700" /><glyph d="M529 230 520 220 480 230H249L190 221L185 234L234 282L449 606L486 686H507L499 606L514 274ZM604 0 565 746H463L-42 0H45L141 141L153 174L168 181L205 168H474L518 179L528 169L519 127L525 0Z" glyph-name="A" horiz-adv-x="736" unicode="A" /><glyph d="M477 228H299L232 217L227 233L288 283L564 603L611 675H648L517 259V224L506 216ZM41 0 162 137 173 170 186 176 221 165H446L492 177L500 166L473 124L434 0H891L914 71H577L531 58L523 70L549 109L612 310L611 346L622 355L654 343H935L958 412H684L639 400L632 411L657 452L713 633L712 669L723 677L756 665H1091L1114 736H593L-48 5L-49 0Z" glyph-name="AE" horiz-adv-x="1031" unicode="&#198;" /><glyph d="M477 228H299L232 217L227 233L288 283L564 603L611 675H648L517 259V224L506 216ZM41 0 162 137 173 170 186 176 221 165H446L492 177L500 166L473 124L434 0H891L914 71H577L531 58L523 70L549 109L612 310L611 346L622 355L654 343H935L958 412H684L639 400L632 411L657 452L713 633L712 669L723 677L756 665H1091L1114 736H593L-48 5L-49 0ZM827 821 1084 940 1085 945H917L746 826L744 821Z" glyph-name="AEacute" horiz-adv-x="1031" unicode="&#508;" /><glyph d="M529 230 520 220 480 230H249L190 221L185 234L234 282L449 606L486 686H507L499 606L514 274ZM604 0 565 746H463L-42 0H45L141 141L153 174L168 181L205 168H474L518 179L528 169L519 127L525 0ZM576 821 833 940 834 945H666L495 826L493 821Z" glyph-name="Aacute" horiz-adv-x="736" unicode="&#193;" /><glyph d="M529 230 520 220 480 230H249L190 221L185 234L234 282L449 606L486 686H507L499 606L514 274ZM604 0 565 746H463L-42 0H45L141 141L153 174L168 181L205 168H474L518 179L528 169L519 127L525 0ZM549 821C656 821 723 873 753 956H700C674 908 629 881 557 881C485 881 453 908 458 956H405C384 875 441 821 549 821Z" glyph-name="Abreve" horiz-adv-x="736" unicode="&#258;" /><glyph d="M529 230 520 220 480 230H249L190 221L185 234L234 282L449 606L486 686H507L499 606L514 274ZM604 0 565 746H463L-42 0H45L141 141L153 174L168 181L205 168H474L518 179L528 169L519 127L525 0ZM412 821 525 882 559 911H577L599 882L674 821H726L728 826L622 959H536L349 826L347 821Z" glyph-name="Acircumflex" horiz-adv-x="736" unicode="&#194;" /><glyph d="M529 230 520 220 480 230H249L190 221L185 234L234 282L449 606L486 686H507L499 606L514 274ZM604 0 565 746H463L-42 0H45L141 141L153 174L168 181L205 168H474L518 179L528 169L519 127L525 0ZM468 823 503 933H407L372 823ZM703 823 738 933H641L606 823Z" glyph-name="Adieresis" horiz-adv-x="736" unicode="&#196;" /><glyph d="M529 230 520 220 480 230H249L190 221L185 234L234 282L449 606L486 686H507L499 606L514 274ZM604 0 565 746H463L-42 0H45L141 141L153 174L168 181L205 168H474L518 179L528 169L519 127L525 0ZM575 821 576 826 464 945H322L321 940L506 821Z" glyph-name="Agrave" horiz-adv-x="736" unicode="&#192;" /><glyph d="M529 230 520 220 480 230H249L190 221L185 234L234 282L449 606L486 686H507L499 606L514 274ZM604 0 565 746H463L-42 0H45L141 141L153 174L168 181L205 168H474L518 179L528 169L519 127L525 0ZM734 832 753 893H366L347 832Z" glyph-name="Amacron" horiz-adv-x="736" unicode="&#256;" /><glyph d="M607 -157 610 -147C540 -125 522 -113 522 -101C522 -90 533 -75 604 0L565 746H463L-42 0H45L141 141L153 174L168 181L205 168H474L518 179L528 169L519 127L524 14L556 5L553 -5C458 -74 438 -99 438 -117C438 -132 454 -147 473 -157ZM249 230 190 221 185 234 234 282 449 606 486 686H507L499 606L514 274L529 230L520 220L480 230Z" glyph-name="Aogonek" horiz-adv-x="736" unicode="&#260;" /><glyph d="M523 737C469 737 436 762 436 798C436 838 476 871 539 871C591 871 628 848 628 811C628 773 590 737 523 737ZM530 230 521 220 480 230H249L190 221L185 234L234 282L449 606L486 684H507L499 606L514 274ZM141 141 153 174 168 181 206 168H475L518 179L528 169L520 127L526 0H604L567 692L554 703L556 708C623 719 667 762 667 815C667 868 617 906 542 906C457 906 398 858 398 795C398 759 420 731 457 716L455 709L430 697L-42 0H45Z" glyph-name="Aring" horiz-adv-x="736" unicode="&#197;" /><glyph d="M523 737C469 737 436 762 436 798C436 838 476 871 539 871C591 871 628 848 628 811C628 773 590 737 523 737ZM530 230 521 220 480 230H249L190 221L185 234L234 282L449 606L486 684H507L499 606L514 274ZM141 141 153 174 168 181 206 168H475L518 179L528 169L520 127L526 0H604L567 692L554 703L556 708C623 719 667 762 667 815C667 868 617 906 542 906C457 906 398 858 398 795C398 759 420 731 457 716L455 709L430 697L-42 0H45ZM616 962 873 1081 874 1086H706L535 967L533 962Z" glyph-name="Aringacute" horiz-adv-x="736" unicode="&#506;" /><glyph d="M529 230 520 220 480 230H249L190 221L185 234L234 282L449 606L486 686H507L499 606L514 274ZM604 0 565 746H463L-42 0H45L141 141L153 174L168 181L205 168H474L518 179L528 169L519 127L525 0ZM370 811C427 879 449 899 472 899C489 899 499 893 541 861C585 826 607 816 633 816C676 816 708 842 781 939L746 963C690 896 666 876 643 876C627 876 618 881 576 913C531 948 511 959 484 959C439 959 404 928 334 834Z" glyph-name="Atilde" horiz-adv-x="736" unicode="&#195;" /><glyph d="M260 0C449 0 578 80 578 206C578 293 522 345 402 371L405 381C577 413 671 489 671 592C671 685 593 736 455 736H244L11 0ZM205 414 231 451 287 629 286 665 296 673H418C535 673 591 641 591 577C591 484 466 401 238 401H213ZM98 74 123 110 186 311 185 346 197 355H241C433 355 504 292 504 213C504 119 412 63 232 63H105Z" glyph-name="B" horiz-adv-x="667" unicode="B" /><glyph d="M343 -7C404 -7 468 9 524 44L503 110C453 82 407 65 355 65C231 65 163 146 163 275C163 386 210 501 288 578C346 635 421 670 505 670C572 670 624 647 664 616L705 683C658 720 591 743 514 743C403 743 303 699 227 624C141 541 81 406 81 269C81 102 177 -7 343 -7Z" glyph-name="C" horiz-adv-x="630" unicode="C" /><glyph d="M343 -7C404 -7 468 9 524 44L503 110C453 82 407 65 355 65C231 65 163 146 163 275C163 386 210 501 288 578C346 635 421 670 505 670C572 670 624 647 664 616L705 683C658 720 591 743 514 743C403 743 303 699 227 624C141 541 81 406 81 269C81 102 177 -7 343 -7ZM588 821 845 940 846 945H678L507 826L505 821Z" glyph-name="Cacute" horiz-adv-x="630" unicode="&#262;" /><glyph d="M343 -7C404 -7 468 9 524 44L503 110C453 82 407 65 355 65C231 65 163 146 163 275C163 386 210 501 288 578C346 635 421 670 505 670C572 670 624 647 664 616L705 683C658 720 591 743 514 743C403 743 303 699 227 624C141 541 81 406 81 269C81 102 177 -7 343 -7ZM591 821 780 951 781 955H712L602 898L569 869H551L528 898L454 955H402L401 951L507 821Z" glyph-name="Ccaron" horiz-adv-x="630" unicode="&#268;" /><glyph d="M343 -7C404 -7 468 9 524 44L503 110C453 82 407 65 355 65C231 65 163 146 163 275C163 386 210 501 288 578C346 635 421 670 505 670C572 670 624 647 664 616L705 683C658 720 591 743 514 743C403 743 303 699 227 624C141 541 81 406 81 269C81 128 148 23 284 1L279 -13L235 -30L90 -153L88 -157H200L323 -6C330 -7 337 -7 343 -7Z" glyph-name="Ccedilla" horiz-adv-x="630" unicode="&#199;" /><glyph d="M343 -7C404 -7 468 9 524 44L503 110C453 82 407 65 355 65C231 65 163 146 163 275C163 386 210 501 288 578C346 635 421 670 505 670C572 670 624 647 664 616L705 683C658 720 591 743 514 743C403 743 303 699 227 624C141 541 81 406 81 269C81 102 177 -7 343 -7ZM424 821 537 882 571 911H589L611 882L686 821H738L740 826L634 959H548L361 826L359 821Z" glyph-name="Ccircumflex" horiz-adv-x="630" unicode="&#264;" /><glyph d="M343 -7C404 -7 468 9 524 44L503 110C453 82 407 65 355 65C231 65 163 146 163 275C163 386 210 501 288 578C346 635 421 670 505 670C572 670 624 647 664 616L705 683C658 720 591 743 514 743C403 743 303 699 227 624C141 541 81 406 81 269C81 102 177 -7 343 -7ZM602 821 638 935H532L496 821Z" glyph-name="Cdotaccent" horiz-adv-x="630" unicode="&#266;" /><glyph d="M169 0C337 0 457 47 542 132C625 215 678 343 678 460C678 636 569 736 378 736H244L11 0ZM105 82 133 124 288 618 286 656 299 665H351C518 665 596 588 596 457C596 351 543 240 482 178C412 108 311 71 172 71H112Z" glyph-name="D" horiz-adv-x="701" unicode="D" /><glyph d="M169 0C337 0 457 47 542 132C625 215 678 343 678 460C678 636 569 736 378 736H244L11 0ZM105 82 133 124 288 618 286 656 299 665H351C518 665 596 588 596 457C596 351 543 240 482 178C412 108 311 71 172 71H112ZM542 821 731 951 732 955H663L553 898L520 869H502L479 898L405 955H353L352 951L458 821Z" glyph-name="Dcaron" horiz-adv-x="701" unicode="&#270;" /><glyph d="M65 0H222C390 0 510 47 595 132C678 215 731 343 731 460C731 638 621 736 431 736H297L206 446V409L195 401L163 412H70L48 343H136L178 355L186 346L161 305ZM155 82 181 121 241 313 240 348 251 356 284 345H448L469 411H310L266 399L259 408L284 447L337 619L336 655L349 665H402C570 665 649 588 649 457C649 351 596 240 534 177C465 108 365 71 225 71H163Z" glyph-name="Dcroat" horiz-adv-x="755" unicode="&#272;" /><glyph d="M480 0 502 71H156L109 58L102 70L127 109L190 310L189 346L201 355L233 343H524L546 412H263L217 400L210 411L235 451L292 633L291 669L302 677L335 665H679L702 736H244L11 0Z" glyph-name="E" horiz-adv-x="620" unicode="E" /><glyph d="M480 0 502 71H156L109 58L102 70L127 109L190 310L189 346L201 355L233 343H524L546 412H263L217 400L210 411L235 451L292 633L291 669L302 677L335 665H679L702 736H244L11 0ZM536 821 793 940 794 945H626L455 826L453 821Z" glyph-name="Eacute" horiz-adv-x="620" unicode="&#201;" /><glyph d="M480 0 502 71H156L109 58L102 70L127 109L190 310L189 346L201 355L233 343H524L546 412H263L217 400L210 411L235 451L292 633L291 669L302 677L335 665H679L702 736H244L11 0ZM509 821C616 821 683 873 713 956H660C634 908 589 881 517 881C445 881 413 908 418 956H365C344 875 401 821 509 821Z" glyph-name="Ebreve" horiz-adv-x="620" unicode="&#276;" /><glyph d="M480 0 502 71H156L109 58L102 70L127 109L190 310L189 346L201 355L233 343H524L546 412H263L217 400L210 411L235 451L292 633L291 669L302 677L335 665H679L702 736H244L11 0ZM539 821 728 951 729 955H660L550 898L517 869H499L476 898L402 955H350L349 951L455 821Z" glyph-name="Ecaron" horiz-adv-x="620" unicode="&#282;" /><glyph d="M480 0 502 71H156L109 58L102 70L127 109L190 310L189 346L201 355L233 343H524L546 412H263L217 400L210 411L235 451L292 633L291 669L302 677L335 665H679L702 736H244L11 0ZM372 821 485 882 519 911H537L559 882L634 821H686L688 826L582 959H496L309 826L307 821Z" glyph-name="Ecircumflex" horiz-adv-x="620" unicode="&#202;" /><glyph d="M480 0 502 71H156L109 58L102 70L127 109L190 310L189 346L201 355L233 343H524L546 412H263L217 400L210 411L235 451L292 633L291 669L302 677L335 665H679L702 736H244L11 0ZM428 823 463 933H367L332 823ZM663 823 698 933H601L566 823Z" glyph-name="Edieresis" horiz-adv-x="620" unicode="&#203;" /><glyph d="M480 0 502 71H156L109 58L102 70L127 109L190 310L189 346L201 355L233 343H524L546 412H263L217 400L210 411L235 451L292 633L291 669L302 677L335 665H679L702 736H244L11 0ZM550 821 586 935H480L444 821Z" glyph-name="Edotaccent" horiz-adv-x="620" unicode="&#278;" /><glyph d="M480 0 502 71H156L109 58L102 70L127 109L190 310L189 346L201 355L233 343H524L546 412H263L217 400L210 411L235 451L292 633L291 669L302 677L335 665H679L702 736H244L11 0ZM535 821 536 826 424 945H282L281 940L466 821Z" glyph-name="Egrave" horiz-adv-x="620" unicode="&#200;" /><glyph d="M480 0 502 71H156L109 58L102 70L127 109L190 310L189 346L201 355L233 343H524L546 412H263L217 400L210 411L235 451L292 633L291 669L302 677L335 665H679L702 736H244L11 0ZM694 832 713 893H326L307 832Z" glyph-name="Emacron" horiz-adv-x="620" unicode="&#274;" /><glyph d="M387 -157C515 -39 546 0 568 69L779 736H703L534 200L518 83L494 78L358 736H244L11 0H87L259 546L275 662L299 668L433 16L466 8L461 -10L287 -149L285 -157Z" glyph-name="Eng" horiz-adv-x="733" unicode="&#330;" /><glyph d="M438 -147C368 -125 351 -113 351 -101C351 -90 362 -75 432 0H480L502 71H156L109 58L102 70L127 109L190 310L189 346L201 355L233 343H524L546 412H263L217 400L210 411L235 451L292 633L290 669L302 677L335 665H679L702 736H244L11 0H316L387 17L391 5C289 -76 267 -98 267 -117C267 -132 282 -147 301 -157H435Z" glyph-name="Eogonek" horiz-adv-x="620" unicode="&#280;" /><glyph d="M65 0H222C390 0 510 47 595 132C678 215 731 343 731 460C731 638 621 736 431 736H297L206 446V409L195 401L163 412H70L48 343H136L178 355L186 346L161 305ZM155 82 181 121 241 313 240 348 251 356 284 345H448L469 411H310L266 399L259 408L284 447L337 619L336 655L349 665H402C570 665 649 588 649 457C649 351 596 240 534 177C465 108 365 71 225 71H163Z" glyph-name="Eth" horiz-adv-x="755" unicode="&#208;" /><glyph d="M500 6 503 73C481 68 453 64 414 64C290 64 215 113 208 254L222 266L262 253H510L527 306H264L216 294L209 304L231 337L247 396L243 428L255 437L288 426H566L582 479H338L275 464L269 472C350 608 460 672 597 672C636 672 667 668 691 662L719 729C689 735 653 740 611 740C434 740 296 655 218 511V476L206 467L177 479H107L90 426H148L192 438L199 428L175 394L159 335L165 304L153 295L123 306H52L35 253H110L153 265L160 255L145 222C149 82 242 -4 410 -4C450 -4 480 1 500 6Z" glyph-name="Euro" horiz-adv-x="643" unicode="&#8364;" /><glyph d="M409 3 411 69C396 67 378 65 359 65C243 65 172 111 166 258L177 266L219 253H431L448 306H222L173 294L166 304L188 337L204 396L200 428L212 437L245 426H486L503 479H296L231 464L225 473C308 607 420 672 541 672C563 672 582 669 599 667L627 733C606 737 581 739 554 739C390 739 254 658 176 511V476L164 467L134 479H65L48 426H106L149 438L156 428L132 394L116 335L123 304L111 295L80 306H10L-7 253H67L110 265L118 255L103 222C106 82 199 -4 354 -4C374 -4 394 -1 409 3Z" glyph-name="Euro.tab" horiz-adv-x="555" /><glyph d="M93 0 182 281 181 316 192 324 224 313H463L486 385H256L211 373L202 385L228 424L292 629L291 667L302 676L335 664H679L702 736H244L11 0Z" glyph-name="F" horiz-adv-x="587" unicode="F" /><glyph d="M550 45 656 383H387L366 317H522L568 331L577 319L550 278L501 121L508 93L499 81C452 64 407 57 367 57C231 57 162 141 162 269C162 378 213 508 288 583C342 637 411 671 494 671C564 671 621 647 676 606L722 670C663 716 591 744 504 744C394 744 303 703 229 630C138 539 81 392 81 265C81 100 178 -7 339 -7C414 -7 487 14 550 45Z" glyph-name="G" horiz-adv-x="708" unicode="G" /><glyph d="M550 45 656 383H387L366 317H522L568 331L577 319L550 278L501 121L508 93L499 81C452 64 407 57 367 57C231 57 162 141 162 269C162 378 213 508 288 583C342 637 411 671 494 671C564 671 621 647 676 606L722 670C663 716 591 744 504 744C394 744 303 703 229 630C138 539 81 392 81 265C81 100 178 -7 339 -7C414 -7 487 14 550 45ZM556 821C663 821 730 873 760 956H707C681 908 636 881 564 881C492 881 460 908 465 956H412C391 875 448 821 556 821Z" glyph-name="Gbreve" horiz-adv-x="708" unicode="&#286;" /><glyph d="M550 45 656 383H387L366 317H522L568 331L577 319L550 278L501 121L508 93L499 81C452 64 407 57 367 57C231 57 162 141 162 269C162 378 213 508 288 583C342 637 411 671 494 671C564 671 621 647 676 606L722 670C663 716 591 744 504 744C394 744 303 703 229 630C138 539 81 392 81 265C81 100 178 -7 339 -7C414 -7 487 14 550 45ZM587 821 776 951 777 955H708L598 898L565 869H547L524 898L450 955H398L397 951L503 821Z" glyph-name="Gcaron" horiz-adv-x="708" unicode="&#486;" /><glyph d="M550 45 656 383H387L366 317H522L568 331L577 319L550 278L501 121L508 93L499 81C452 64 407 57 367 57C231 57 162 141 162 269C162 378 213 508 288 583C342 637 411 671 494 671C564 671 621 647 676 606L722 670C663 716 591 744 504 744C394 744 303 703 229 630C138 539 81 392 81 265C81 100 178 -7 339 -7C414 -7 487 14 550 45ZM419 821 532 882 566 911H584L606 882L681 821H733L735 826L629 959H543L356 826L354 821Z" glyph-name="Gcircumflex" horiz-adv-x="708" unicode="&#284;" /><glyph d="M550 45 656 383H387L366 317H522L568 331L577 319L550 278L501 121L508 93L499 81C452 64 407 57 367 57C231 57 162 141 162 269C162 378 213 508 288 583C342 637 411 671 494 671C564 671 621 647 676 606L722 670C663 716 591 744 504 744C394 744 303 703 229 630C138 539 81 392 81 265C81 100 178 -7 339 -7C414 -7 487 14 550 45ZM597 821 633 935H527L491 821Z" glyph-name="Gdotaccent" horiz-adv-x="708" unicode="&#288;" /><glyph d="M93 0 190 307 189 343 201 352 233 340H520L565 352L573 341L548 301L453 0H535L768 736H686L595 448L596 412L585 404L553 416H265L221 403L212 415L237 454L326 736H244L11 0Z" glyph-name="H" horiz-adv-x="722" unicode="H" /><glyph d="M260 398 285 437 311 521 310 556 322 565 354 552H641L685 565L694 554L669 514L642 430L643 396L632 387L600 399H313L268 387ZM147 0 239 295V332L251 340L282 329H570L615 341L623 330L597 290L506 0H588L753 520L752 555L764 564L795 551H888L909 617H821L779 605L771 616L796 656L821 736H739L712 649V611L700 603L668 616H380L337 603L329 614L354 654L379 736H297L270 649L271 613L259 605L228 617H135L114 551H199L243 563L251 552L226 512L65 0Z" glyph-name="Hbar" horiz-adv-x="829" unicode="&#294;" /><glyph d="M93 0 190 307 189 343 201 352 233 340H520L565 352L573 341L548 301L453 0H535L768 736H686L595 448L596 412L585 404L553 416H265L221 403L212 415L237 454L326 736H244L11 0ZM407 821 520 882 554 911H572L594 882L669 821H721L723 826L617 959H531L344 826L342 821Z" glyph-name="Hcircumflex" horiz-adv-x="722" unicode="&#292;" /><glyph d="M107 0 340 736H258L25 0Z" glyph-name="I" horiz-adv-x="308" unicode="I" /><glyph d="M107 0 340 736H258L25 0ZM364 821 621 940 622 945H454L283 826L281 821Z" glyph-name="Iacute" horiz-adv-x="308" unicode="&#205;" /><glyph d="M107 0 340 736H258L25 0ZM337 821C444 821 511 873 541 956H488C462 908 417 881 345 881C273 881 241 908 246 956H193C172 875 229 821 337 821Z" glyph-name="Ibreve" horiz-adv-x="308" unicode="&#300;" /><glyph d="M107 0 340 736H258L25 0ZM200 821 313 882 347 911H365L387 882L462 821H514L516 826L410 959H324L137 826L135 821Z" glyph-name="Icircumflex" horiz-adv-x="308" unicode="&#206;" /><glyph d="M107 0 340 736H258L25 0ZM257 823 292 933H196L161 823ZM492 823 527 933H430L395 823Z" glyph-name="Idieresis" horiz-adv-x="308" unicode="&#207;" /><glyph d="M107 0 340 736H258L25 0ZM378 821 414 935H308L272 821Z" glyph-name="Idotaccent" horiz-adv-x="308" unicode="&#304;" /><glyph d="M107 0 340 736H258L25 0ZM363 821 364 826 252 945H110L109 940L294 821Z" glyph-name="Igrave" horiz-adv-x="308" unicode="&#204;" /><glyph d="M107 0 340 736H258L25 0ZM490 832 509 893H188L169 832Z" glyph-name="Imacron" horiz-adv-x="308" unicode="&#298;" /><glyph d="M110 -157 114 -147C44 -125 26 -113 26 -101C26 -90 37 -75 107 0L340 736H258L28 8L57 2L54 -9C-36 -73 -58 -98 -58 -117C-58 -132 -42 -147 -23 -157Z" glyph-name="Iogonek" horiz-adv-x="308" unicode="&#302;" /><glyph d="M107 0 340 736H258L25 0ZM159 811C216 879 238 899 261 899C278 899 288 893 330 861C374 826 396 816 422 816C465 816 497 842 570 939L535 963C479 896 455 876 432 876C416 876 407 881 365 913C320 948 300 959 273 959C228 959 193 928 123 834Z" glyph-name="Itilde" horiz-adv-x="308" unicode="&#296;" /><glyph d="M106 -7C182 -7 249 18 299 67C350 116 384 185 414 277L557 736H476L333 280C312 213 286 159 248 121C212 85 166 65 110 65C68 65 28 76 -7 96L-42 29C-7 10 40 -7 106 -7Z" glyph-name="J" horiz-adv-x="506" unicode="J" /><glyph d="M106 -7C182 -7 249 18 299 67C350 116 384 185 414 277L557 736H476L333 280C312 213 286 159 248 121C212 85 166 65 110 65C68 65 28 76 -7 96L-42 29C-7 10 40 -7 106 -7ZM420 821 533 882 567 911H585L607 882L682 821H734L736 826L630 959H544L357 826L355 821Z" glyph-name="Jcircumflex" horiz-adv-x="506" unicode="&#308;" /><glyph d="M93 0 186 302 189 343 201 353H282L289 326L467 0H552L555 8L362 349L333 371L337 385L382 406L764 728L767 736H664L307 429L285 403H218L209 415L238 463L323 736H241L11 0Z" glyph-name="K" horiz-adv-x="658" unicode="K" /><glyph d="M441 0 465 73H156L112 60L104 72L129 111L327 736H245L12 0Z" glyph-name="L" horiz-adv-x="559" unicode="L" /><glyph d="M441 0 465 73H156L112 60L104 72L129 111L327 736H245L12 0ZM353 821 610 940 611 945H443L272 826L270 821Z" glyph-name="Lacute" horiz-adv-x="559" unicode="&#313;" /><glyph d="M441 0 465 73H156L112 60L104 72L129 111L327 736H245L12 0ZM376 556 409 545 559 723 563 736H468Z" glyph-name="Lcaron" horiz-adv-x="559" unicode="&#317;" /><glyph d="M495 0 518 73H207L163 60L155 72L180 111L246 321L241 347L249 356H281L511 452L536 531L324 443L272 406L262 415L292 463L378 736H299L196 413L202 387L193 378H162L45 329L18 249L117 290L170 327L180 317L150 269L65 0Z" glyph-name="Lslash" horiz-adv-x="612" unicode="&#321;" /><glyph d="M407 -8 790 578 834 669H857L672 0H748L945 736H818L449 171L401 68H382L397 171L381 736H260L-4 0H70L301 669H325L312 584L331 -8Z" glyph-name="M" horiz-adv-x="917" unicode="M" /><glyph d="M87 0 259 546 275 662 299 668 437 0H546L779 736H703L534 200L518 83L494 78L358 736H244L11 0Z" glyph-name="N" horiz-adv-x="733" unicode="N" /><glyph d="M87 0 259 546 275 662 299 668 437 0H546L779 736H703L534 200L518 83L494 78L358 736H244L11 0ZM575 821 832 940 833 945H665L494 826L492 821Z" glyph-name="Nacute" horiz-adv-x="733" unicode="&#323;" /><glyph d="M87 0 259 546 275 662 299 668 437 0H546L779 736H703L534 200L518 83L494 78L358 736H244L11 0ZM578 821 767 951 768 955H699L589 898L556 869H538L515 898L441 955H389L388 951L494 821Z" glyph-name="Ncaron" horiz-adv-x="733" unicode="&#327;" /><glyph d="M87 0 259 546 275 662 299 668 437 0H546L779 736H703L534 200L518 83L494 78L358 736H244L11 0ZM369 811C426 879 448 899 471 899C488 899 498 893 540 861C584 826 606 816 632 816C675 816 707 842 780 939L745 963C689 896 665 876 642 876C626 876 617 881 575 913C530 948 510 959 483 959C438 959 403 928 333 834Z" glyph-name="Ntilde" horiz-adv-x="733" unicode="&#209;" /><glyph d="M320 -9C414 -9 494 32 563 100C656 193 713 347 713 481C713 632 627 745 473 745C379 745 299 704 230 636C137 543 80 389 80 255C80 104 166 -9 320 -9ZM326 61C217 61 161 145 161 255C161 372 212 514 290 591C340 641 398 675 467 675C575 675 632 591 632 481C632 364 581 222 503 145C453 95 395 61 326 61Z" glyph-name="O" horiz-adv-x="736" unicode="O" /><glyph d="M462 78 450 69H395C241 69 164 149 164 279C164 383 215 493 276 556C346 629 447 667 581 667H640L647 657L620 616L462 114ZM880 0 902 69H527L519 80L546 120L605 310L604 347L615 355L648 343H924L946 412H677L632 399L625 411L650 451L703 624L702 658L713 667H1080L1103 736H588C422 736 299 688 214 600C134 519 81 392 81 275C81 101 191 0 381 0Z" glyph-name="OE" horiz-adv-x="1020" unicode="&#338;" /><glyph d="M320 -9C414 -9 494 32 563 100C656 193 713 347 713 481C713 632 627 745 473 745C379 745 299 704 230 636C137 543 80 389 80 255C80 104 166 -9 320 -9ZM326 61C217 61 161 145 161 255C161 372 212 514 290 591C340 641 398 675 467 675C575 675 632 591 632 481C632 364 581 222 503 145C453 95 395 61 326 61ZM578 821 835 940 836 945H668L497 826L495 821Z" glyph-name="Oacute" horiz-adv-x="736" unicode="&#211;" /><glyph d="M320 -9C414 -9 494 32 563 100C656 193 713 347 713 481C713 632 627 745 473 745C379 745 299 704 230 636C137 543 80 389 80 255C80 104 166 -9 320 -9ZM326 61C217 61 161 145 161 255C161 372 212 514 290 591C340 641 398 675 467 675C575 675 632 591 632 481C632 364 581 222 503 145C453 95 395 61 326 61ZM551 821C658 821 725 873 755 956H702C676 908 631 881 559 881C487 881 455 908 460 956H407C386 875 443 821 551 821Z" glyph-name="Obreve" horiz-adv-x="736" unicode="&#334;" /><glyph d="M320 -9C414 -9 494 32 563 100C656 193 713 347 713 481C713 632 627 745 473 745C379 745 299 704 230 636C137 543 80 389 80 255C80 104 166 -9 320 -9ZM326 61C217 61 161 145 161 255C161 372 212 514 290 591C340 641 398 675 467 675C575 675 632 591 632 481C632 364 581 222 503 145C453 95 395 61 326 61ZM414 821 527 882 561 911H579L601 882L676 821H728L730 826L624 959H538L351 826L349 821Z" glyph-name="Ocircumflex" horiz-adv-x="736" unicode="&#212;" /><glyph d="M320 -9C414 -9 494 32 563 100C656 193 713 347 713 481C713 632 627 745 473 745C379 745 299 704 230 636C137 543 80 389 80 255C80 104 166 -9 320 -9ZM326 61C217 61 161 145 161 255C161 372 212 514 290 591C340 641 398 675 467 675C575 675 632 591 632 481C632 364 581 222 503 145C453 95 395 61 326 61ZM470 823 505 933H409L374 823ZM705 823 740 933H643L608 823Z" glyph-name="Odieresis" horiz-adv-x="736" unicode="&#214;" /><glyph d="M320 -9C414 -9 494 32 563 100C656 193 713 347 713 481C713 632 627 745 473 745C379 745 299 704 230 636C137 543 80 389 80 255C80 104 166 -9 320 -9ZM326 61C217 61 161 145 161 255C161 372 212 514 290 591C340 641 398 675 467 675C575 675 632 591 632 481C632 364 581 222 503 145C453 95 395 61 326 61ZM577 821 578 826 466 945H324L323 940L508 821Z" glyph-name="Ograve" horiz-adv-x="736" unicode="&#210;" /><glyph d="M561 99C653 191 712 344 712 469C712 568 667 649 596 684L604 698C634 695 661 693 687 693C785 693 814 716 913 896L852 923C761 754 730 736 653 736H489C379 736 297 699 229 631C136 538 80 387 80 255C80 104 166 -9 320 -9C412 -9 493 30 561 99ZM326 61C217 61 161 146 161 255C161 370 211 511 288 588C339 638 401 670 473 670C567 670 631 591 631 474C631 362 577 219 501 143C453 95 394 61 326 61Z" glyph-name="Ohorn" horiz-adv-x="743" unicode="&#416;" /><glyph d="M320 -9C414 -9 494 32 563 100C656 193 713 347 713 481C713 632 627 745 473 745C379 745 299 704 230 636C137 543 80 389 80 255C80 104 166 -9 320 -9ZM326 61C217 61 161 145 161 255C161 372 212 514 290 591C340 641 398 675 467 675C575 675 632 591 632 481C632 364 581 222 503 145C453 95 395 61 326 61ZM436 821 677 940 679 945H536L378 826L377 821ZM663 821 904 940 906 945H763L605 826L604 821Z" glyph-name="Ohungarumlaut" horiz-adv-x="736" unicode="&#336;" /><glyph d="M320 -9C414 -9 494 32 563 100C656 193 713 347 713 481C713 632 627 745 473 745C379 745 299 704 230 636C137 543 80 389 80 255C80 104 166 -9 320 -9ZM326 61C217 61 161 145 161 255C161 372 212 514 290 591C340 641 398 675 467 675C575 675 632 591 632 481C632 364 581 222 503 145C453 95 395 61 326 61ZM736 832 755 893H368L349 832Z" glyph-name="Omacron" horiz-adv-x="736" unicode="&#332;" /><glyph d="M152 242C158 381 207 512 288 593C341 646 400 678 471 678C532 678 577 655 611 615L605 596L560 571L213 214L178 163H159C153 186 152 219 152 242ZM322 58C262 58 217 81 182 121L188 140L234 165L580 522L615 574H633C639 550 641 516 641 493C634 355 587 226 505 143C452 91 393 58 322 58ZM6 -60 111 44 133 84H147L157 53C199 14 250 -9 320 -9C413 -9 494 31 563 100C656 194 713 348 713 482C713 522 706 560 693 594L668 613L671 625L716 651L861 792L862 795H787L683 692L661 652H647L637 683C595 722 543 745 473 745C380 745 299 705 231 636C135 541 80 386 80 254C80 214 87 176 101 142L126 123L122 111L77 85L-68 -57L-69 -60Z" glyph-name="Oslash" horiz-adv-x="736" unicode="&#216;" /><glyph d="M152 242C158 381 207 512 288 593C341 646 400 678 471 678C532 678 577 655 611 615L605 596L560 571L213 214L178 163H159C153 186 152 219 152 242ZM322 58C262 58 217 81 182 121L188 140L234 165L580 522L615 574H633C639 550 641 516 641 493C634 355 587 226 505 143C452 91 393 58 322 58ZM6 -60 111 44 133 84H147L157 53C199 14 250 -9 320 -9C413 -9 494 31 563 100C656 194 713 348 713 482C713 522 706 560 693 594L668 613L671 625L716 651L861 792L862 795H787L683 692L661 652H647L637 683C595 722 543 745 473 745C380 745 299 705 231 636C135 541 80 386 80 254C80 214 87 176 101 142L126 123L122 111L77 85L-68 -57L-69 -60ZM578 821 835 940 836 945H668L497 826L495 821Z" glyph-name="Oslashacute" horiz-adv-x="736" unicode="&#510;" /><glyph d="M320 -9C414 -9 494 32 563 100C656 193 713 347 713 481C713 632 627 745 473 745C379 745 299 704 230 636C137 543 80 389 80 255C80 104 166 -9 320 -9ZM326 61C217 61 161 145 161 255C161 372 212 514 290 591C340 641 398 675 467 675C575 675 632 591 632 481C632 364 581 222 503 145C453 95 395 61 326 61ZM372 811C429 879 451 899 474 899C491 899 501 893 543 861C587 826 609 816 635 816C678 816 710 842 783 939L748 963C692 896 668 876 645 876C629 876 620 881 578 913C533 948 513 959 486 959C441 959 406 928 336 834Z" glyph-name="Otilde" horiz-adv-x="736" unicode="&#213;" /><glyph d="M180 325 208 366 288 621 287 661 298 670H396C525 670 573 615 573 538C573 484 549 431 512 394C465 347 385 315 264 315H187ZM93 0 161 213V254L172 262L207 251H273C407 251 508 289 571 352C622 403 653 473 653 546C653 661 577 736 417 736H244L11 0Z" glyph-name="P" horiz-adv-x="628" unicode="P" /><glyph d="M535 -115H624L627 -107L496 80L506 91L547 93C645 188 713 342 713 481C713 632 627 745 473 745C379 745 299 704 230 636C137 543 80 389 80 255C80 104 166 -8 316 -8C341 -8 367 -3 390 6L413 39H432ZM326 60C217 60 161 145 161 255C161 372 212 514 290 591C340 641 398 675 467 675C575 675 632 591 632 481C632 364 577 220 500 144C451 95 395 60 326 60Z" glyph-name="Q" horiz-adv-x="740" unicode="Q" /><glyph d="M188 351 215 391 290 626 288 662 298 670H424C538 670 589 623 588 554C587 436 435 340 257 340H196ZM169 241 168 277 179 285H232C320 285 355 259 391 187L491 0H582L584 8L482 186C450 248 416 280 356 299L358 308C551 346 672 434 673 568C674 667 602 736 453 736H244L11 0H93Z" glyph-name="R" horiz-adv-x="682" unicode="R" /><glyph d="M188 351 215 391 290 626 288 662 298 670H424C538 670 589 623 588 554C587 436 435 340 257 340H196ZM169 241 168 277 179 285H232C320 285 355 259 391 187L491 0H582L584 8L482 186C450 248 416 280 356 299L358 308C551 346 672 434 673 568C674 667 602 736 453 736H244L11 0H93ZM531 821 788 940 789 945H621L450 826L448 821Z" glyph-name="Racute" horiz-adv-x="682" unicode="&#340;" /><glyph d="M188 351 215 391 290 626 288 662 298 670H424C538 670 589 623 588 554C587 436 435 340 257 340H196ZM169 241 168 277 179 285H232C320 285 355 259 391 187L491 0H582L584 8L482 186C450 248 416 280 356 299L358 308C551 346 672 434 673 568C674 667 602 736 453 736H244L11 0H93ZM534 821 723 951 724 955H655L545 898L512 869H494L471 898L397 955H345L344 951L450 821Z" glyph-name="Rcaron" horiz-adv-x="682" unicode="&#344;" /><glyph d="M264 -5C440 -5 545 94 546 216C547 301 504 352 378 410C274 460 244 495 245 546C245 616 305 673 413 673C487 673 551 647 604 608L651 670C581 715 510 741 421 741C257 741 163 649 163 537C163 455 211 402 331 347C435 297 464 262 464 206C464 125 387 63 271 63C182 63 108 94 38 142L-7 79C74 25 159 -5 264 -5Z" glyph-name="S" horiz-adv-x="637" unicode="S" /><glyph d="M264 -5C440 -5 545 94 546 216C547 301 504 352 378 410C274 460 244 495 245 546C245 616 305 673 413 673C487 673 551 647 604 608L651 670C581 715 510 741 421 741C257 741 163 649 163 537C163 455 211 402 331 347C435 297 464 262 464 206C464 125 387 63 271 63C182 63 108 94 38 142L-7 79C74 25 159 -5 264 -5ZM520 821 777 940 778 945H610L439 826L437 821Z" glyph-name="Sacute" horiz-adv-x="637" unicode="&#346;" /><glyph d="M264 -5C440 -5 545 94 546 216C547 301 504 352 378 410C274 460 244 495 245 546C245 616 305 673 413 673C487 673 551 647 604 608L651 670C581 715 510 741 421 741C257 741 163 649 163 537C163 455 211 402 331 347C435 297 464 262 464 206C464 125 387 63 271 63C182 63 108 94 38 142L-7 79C74 25 159 -5 264 -5ZM524 821 713 951 714 955H645L535 898L502 869H484L461 898L387 955H335L334 951L440 821Z" glyph-name="Scaron" horiz-adv-x="637" unicode="&#352;" /><glyph d="M264 -5C440 -5 545 94 546 216C547 301 504 352 378 410C274 460 244 495 245 546C245 616 305 673 413 673C487 673 551 647 604 608L651 670C581 715 510 741 421 741C257 741 163 649 163 537C163 455 211 402 331 347C435 297 464 262 464 206C464 125 387 63 271 63C182 63 108 94 38 142L-7 79C74 25 159 -5 264 -5ZM356 821 469 882 503 911H521L543 882L618 821H670L672 826L566 959H480L293 826L291 821Z" glyph-name="Scircumflex" horiz-adv-x="637" unicode="&#348;" /><glyph d="M273 0 471 629V665L482 674L515 662H729L753 736H177L153 662H360L405 674L413 663L387 623L191 0Z" glyph-name="T" horiz-adv-x="640" unicode="T" /><glyph d="M273 0 370 308 371 345 381 353 414 341H572L593 407H440L396 395L388 406L415 447L471 629V665L482 674L515 662H729L753 736H177L153 662H360L405 674L413 663L387 623L331 441L330 404L319 395L287 407H129L108 341H260L305 354L312 343L286 302L191 0Z" glyph-name="Tbar" horiz-adv-x="640" unicode="&#358;" /><glyph d="M273 0 471 629V665L482 674L515 662H729L753 736H177L153 662H360L405 674L413 663L387 623L191 0ZM534 821 723 951 724 955H655L545 898L512 869H494L471 898L397 955H345L344 951L450 821Z" glyph-name="Tcaron" horiz-adv-x="640" unicode="&#356;" /><glyph d="M146 212 173 253 249 497V534L261 543H362C487 543 538 491 538 416C538 367 516 318 481 283C431 233 349 202 227 202H153ZM94 0 125 101 126 141 137 150 170 138H235C369 138 474 176 540 243C587 289 617 353 617 424C617 538 536 609 390 609H324L280 596L273 607L298 646L326 736H244L11 0Z" glyph-name="Thorn" horiz-adv-x="636" unicode="&#222;" /><glyph d="M305 -8C464 -8 556 93 614 272L759 736H681L542 290C493 139 419 63 312 63C219 63 165 115 165 198C165 231 173 266 184 301L320 736H238L107 317C93 275 84 233 84 192C84 66 171 -8 305 -8Z" glyph-name="U" horiz-adv-x="707" unicode="U" /><glyph d="M305 -8C464 -8 556 93 614 272L759 736H681L542 290C493 139 419 63 312 63C219 63 165 115 165 198C165 231 173 266 184 301L320 736H238L107 317C93 275 84 233 84 192C84 66 171 -8 305 -8ZM560 821 817 940 818 945H650L479 826L477 821Z" glyph-name="Uacute" horiz-adv-x="707" unicode="&#218;" /><glyph d="M305 -8C464 -8 556 93 614 272L759 736H681L542 290C493 139 419 63 312 63C219 63 165 115 165 198C165 231 173 266 184 301L320 736H238L107 317C93 275 84 233 84 192C84 66 171 -8 305 -8ZM533 821C640 821 707 873 737 956H684C658 908 613 881 541 881C469 881 437 908 442 956H389C368 875 425 821 533 821Z" glyph-name="Ubreve" horiz-adv-x="707" unicode="&#364;" /><glyph d="M305 -8C464 -8 556 93 614 272L759 736H681L542 290C493 139 419 63 312 63C219 63 165 115 165 198C165 231 173 266 184 301L320 736H238L107 317C93 275 84 233 84 192C84 66 171 -8 305 -8ZM396 821 509 882 543 911H561L583 882L658 821H710L712 826L606 959H520L333 826L331 821Z" glyph-name="Ucircumflex" horiz-adv-x="707" unicode="&#219;" /><glyph d="M305 -8C464 -8 556 93 614 272L759 736H681L542 290C493 139 419 63 312 63C219 63 165 115 165 198C165 231 173 266 184 301L320 736H238L107 317C93 275 84 233 84 192C84 66 171 -8 305 -8ZM453 823 488 933H392L357 823ZM688 823 723 933H626L591 823Z" glyph-name="Udieresis" horiz-adv-x="707" unicode="&#220;" /><glyph d="M305 -8C464 -8 556 93 614 272L759 736H681L542 290C493 139 419 63 312 63C219 63 165 115 165 198C165 231 173 266 184 301L320 736H238L107 317C93 275 84 233 84 192C84 66 171 -8 305 -8ZM559 821 560 826 448 945H306L305 940L490 821Z" glyph-name="Ugrave" horiz-adv-x="707" unicode="&#217;" /><glyph d="M305 -8C464 -8 556 93 614 272L732 650L729 686L739 693H755C845 693 881 714 981 894L920 921C830 758 797 736 723 736H681L542 290C493 139 419 63 312 63C219 63 165 115 165 198C165 231 173 266 184 301L320 736H238L107 317C93 275 84 233 84 192C84 66 171 -8 305 -8Z" glyph-name="Uhorn" horiz-adv-x="741" unicode="&#431;" /><glyph d="M305 -8C464 -8 556 93 614 272L759 736H681L542 290C493 139 419 63 312 63C219 63 165 115 165 198C165 231 173 266 184 301L320 736H238L107 317C93 275 84 233 84 192C84 66 171 -8 305 -8ZM419 821 660 940 662 945H519L361 826L360 821ZM646 821 887 940 889 945H746L588 826L587 821Z" glyph-name="Uhungarumlaut" horiz-adv-x="707" unicode="&#368;" /><glyph d="M305 -8C464 -8 556 93 614 272L759 736H681L542 290C493 139 419 63 312 63C219 63 165 115 165 198C165 231 173 266 184 301L320 736H238L107 317C93 275 84 233 84 192C84 66 171 -8 305 -8ZM719 832 738 893H351L332 832Z" glyph-name="Umacron" horiz-adv-x="707" unicode="&#362;" /><glyph d="M316 -157 319 -147C249 -125 231 -113 231 -101C231 -90 241 -76 306 -7C461 -7 556 91 614 270L759 736H681L542 290C493 140 419 63 312 63C219 63 165 115 165 199C165 231 173 265 184 300L320 736H238L107 316C93 274 84 232 84 192C84 87 143 18 257 -1L254 -12C167 -75 147 -98 147 -117C147 -132 163 -147 182 -157Z" glyph-name="Uogonek" horiz-adv-x="707" unicode="&#370;" /><glyph d="M305 -8C464 -8 556 93 614 272L759 736H681L542 290C493 139 419 63 312 63C219 63 165 115 165 198C165 231 173 266 184 301L320 736H238L107 317C93 275 84 233 84 192C84 66 171 -8 305 -8ZM540 816C626 816 678 859 682 916C686 969 638 1008 561 1008C477 1008 423 965 419 907C415 855 463 816 540 816ZM542 848C486 848 453 873 455 908C458 947 498 976 558 976C615 976 648 951 645 916C643 876 603 848 542 848Z" glyph-name="Uring" horiz-adv-x="707" unicode="&#366;" /><glyph d="M305 -8C464 -8 556 93 614 272L759 736H681L542 290C493 139 419 63 312 63C219 63 165 115 165 198C165 231 173 266 184 301L320 736H238L107 317C93 275 84 233 84 192C84 66 171 -8 305 -8ZM355 811C412 879 434 899 457 899C474 899 484 893 526 861C570 826 592 816 618 816C661 816 693 842 766 939L731 963C675 896 651 876 628 876C612 876 603 881 561 913C516 948 496 959 469 959C424 959 389 928 319 834Z" glyph-name="Utilde" horiz-adv-x="707" unicode="&#360;" /><glyph d="M802 736H714L330 138L293 56H277L286 138L265 736H185L219 -11H312Z" glyph-name="V" horiz-adv-x="708" unicode="V" /><glyph d="M256 -9 604 572 644 662H662L649 572L637 -9H728L1162 736H1078L747 151L709 63H690L705 151L721 736H629L282 151L244 63H225L241 152L273 736H196L164 -9Z" glyph-name="W" horiz-adv-x="1072" unicode="W" /><glyph d="M256 -9 604 572 644 662H662L649 572L637 -9H728L1162 736H1078L747 151L709 63H690L705 151L721 736H629L282 151L244 63H225L241 152L273 736H196L164 -9ZM742 821 999 940 1000 945H832L661 826L659 821Z" glyph-name="Wacute" horiz-adv-x="1072" unicode="&#7810;" /><glyph d="M256 -9 604 572 644 662H662L649 572L637 -9H728L1162 736H1078L747 151L709 63H690L705 151L721 736H629L282 151L244 63H225L241 152L273 736H196L164 -9ZM578 821 691 882 725 911H743L765 882L840 821H892L894 826L788 959H702L515 826L513 821Z" glyph-name="Wcircumflex" horiz-adv-x="1072" unicode="&#372;" /><glyph d="M256 -9 604 572 644 662H662L649 572L637 -9H728L1162 736H1078L747 151L709 63H690L705 151L721 736H629L282 151L244 63H225L241 152L273 736H196L164 -9ZM634 823 669 933H573L538 823ZM869 823 904 933H807L772 823Z" glyph-name="Wdieresis" horiz-adv-x="1072" unicode="&#7812;" /><glyph d="M256 -9 604 572 644 662H662L649 572L637 -9H728L1162 736H1078L747 151L709 63H690L705 151L721 736H629L282 151L244 63H225L241 152L273 736H196L164 -9ZM741 821 742 826 630 945H488L487 940L672 821Z" glyph-name="Wgrave" horiz-adv-x="1072" unicode="&#7808;" /><glyph d="M57 0 337 293 361 336H375V293L472 0H552L554 7L433 355L413 373L416 385L449 404L766 729L768 736H676L418 465L393 421H378L377 465L290 736H209L208 729L321 404L341 385L337 374L306 356L-34 7L-36 0Z" glyph-name="X" horiz-adv-x="691" unicode="X" /><glyph d="M286 0 379 299 774 730 776 736H685L388 409L361 353H345L346 409L254 736H175L173 730L298 301L204 0Z" glyph-name="Y" horiz-adv-x="663" unicode="Y" /><glyph d="M286 0 379 299 774 730 776 736H685L388 409L361 353H345L346 409L254 736H175L173 730L298 301L204 0ZM537 821 794 940 795 945H627L456 826L454 821Z" glyph-name="Yacute" horiz-adv-x="663" unicode="&#221;" /><glyph d="M286 0 379 299 774 730 776 736H685L388 409L361 353H345L346 409L254 736H175L173 730L298 301L204 0ZM373 821 486 882 520 911H538L560 882L635 821H687L689 826L583 959H497L310 826L308 821Z" glyph-name="Ycircumflex" horiz-adv-x="663" unicode="&#374;" /><glyph d="M286 0 379 299 774 730 776 736H685L388 409L361 353H345L346 409L254 736H175L173 730L298 301L204 0ZM430 823 465 933H369L334 823ZM665 823 700 933H603L568 823Z" glyph-name="Ydieresis" horiz-adv-x="663" unicode="&#376;" /><glyph d="M286 0 379 299 774 730 776 736H685L388 409L361 353H345L346 409L254 736H175L173 730L298 301L204 0ZM536 821 537 826 425 945H283L282 940L467 821Z" glyph-name="Ygrave" horiz-adv-x="663" unicode="&#7922;" /><glyph d="M494 0 516 69H186L101 49L93 62L680 667L702 736H212L190 667H500L582 685L590 674L3 69L-17 0Z" glyph-name="Z" horiz-adv-x="644" unicode="Z" /><glyph d="M494 0 516 69H186L101 49L93 62L680 667L702 736H212L190 667H500L582 685L590 674L3 69L-17 0ZM526 821 783 940 784 945H616L445 826L443 821Z" glyph-name="Zacute" horiz-adv-x="644" unicode="&#377;" /><glyph d="M494 0 516 69H186L101 49L93 62L680 667L702 736H212L190 667H500L582 685L590 674L3 69L-17 0ZM529 821 718 951 719 955H650L540 898L507 869H489L466 898L392 955H340L339 951L445 821Z" glyph-name="Zcaron" horiz-adv-x="644" unicode="&#381;" /><glyph d="M495 0 517 69H186L102 49L94 62L681 667L703 736H213L191 667H501L583 685L591 674L4 69L-17 0H207L272 13L276 -1L222 -28L75 -153L74 -157H186L314 0Z" glyph-name="Zcedilla" horiz-adv-x="644" /><glyph d="M494 0 516 69H186L101 49L93 62L680 667L702 736H212L190 667H500L582 685L590 674L3 69L-17 0ZM540 821 576 935H470L434 821Z" glyph-name="Zdotaccent" horiz-adv-x="644" unicode="&#379;" /><glyph d="M210 50C125 50 86 92 86 148C86 184 100 217 122 239C155 271 206 287 278 287C302 287 353 284 395 277L403 263L380 232L353 139V107L339 88C295 63 253 50 210 50ZM261 4 340 61 342 0H398L418 108L490 342C497 366 503 395 503 419C503 507 438 560 317 560C262 560 214 549 170 536L173 474C213 488 258 498 304 498C394 498 432 462 432 404C432 387 429 373 425 357L415 317L402 310L367 327C325 335 289 338 260 338C168 337 108 316 66 274C32 240 14 194 14 144C14 49 83 -6 190 -6C218 -6 239 -2 261 4Z" glyph-name="a" horiz-adv-x="548" unicode="a" /><glyph d="M210 50C125 50 86 92 86 148C86 184 100 217 122 239C155 271 206 287 278 287C302 287 353 284 395 277L403 263L380 232L353 139V107L339 88C295 63 253 50 210 50ZM261 4 340 61 342 0H398L418 108L490 342C497 366 503 395 503 419C503 507 438 560 317 560C262 560 214 549 170 536L173 474C213 488 258 498 304 498C394 498 432 462 432 404C432 387 429 373 425 357L415 317L402 310L367 327C325 335 289 338 260 338C168 337 108 316 66 274C32 240 14 194 14 144C14 49 83 -6 190 -6C218 -6 239 -2 261 4ZM417 652 665 778 667 782H508L350 656L349 652Z" glyph-name="aacute" horiz-adv-x="548" unicode="&#225;" /><glyph d="M210 50C125 50 86 92 86 148C86 184 100 217 122 239C155 271 206 287 278 287C302 287 353 284 395 277L403 263L380 232L353 139V107L339 88C295 63 253 50 210 50ZM261 4 340 61 342 0H398L418 108L490 342C497 366 503 395 503 419C503 507 438 560 317 560C262 560 214 549 170 536L173 474C213 488 258 498 304 498C394 498 432 462 432 404C432 387 429 373 425 357L415 317L402 310L367 327C325 335 289 338 260 338C168 337 108 316 66 274C32 240 14 194 14 144C14 49 83 -6 190 -6C218 -6 239 -2 261 4ZM396 651C493 651 556 703 583 792H530C506 740 466 711 406 711C340 711 316 740 325 792H273C250 704 302 651 396 651Z" glyph-name="abreve" horiz-adv-x="548" unicode="&#259;" /><glyph d="M210 50C125 50 86 92 86 148C86 184 100 217 122 239C155 271 206 287 278 287C302 287 353 284 395 277L403 263L380 232L353 139V107L339 88C295 63 253 50 210 50ZM261 4 340 61 342 0H398L418 108L490 342C497 366 503 395 503 419C503 507 438 560 317 560C262 560 214 549 170 536L173 474C213 488 258 498 304 498C394 498 432 462 432 404C432 387 429 373 425 357L415 317L402 310L367 327C325 335 289 338 260 338C168 337 108 316 66 274C32 240 14 194 14 144C14 49 83 -6 190 -6C218 -6 239 -2 261 4ZM218 652H284L380 713L408 742H423L440 713L499 652H550L551 656L468 792H385L219 656Z" glyph-name="acircumflex" horiz-adv-x="548" unicode="&#226;" /><glyph d="M403 652 651 778 653 782H494L336 656L335 652Z" glyph-name="acute" horiz-adv-x="500" unicode="&#180;" /><glyph d="M211 821 468 940 469 945H301L130 826L128 821Z" glyph-name="acute.cap" horiz-adv-x="0" /><glyph d="M210 50C125 50 86 92 86 148C86 184 100 217 122 239C155 271 206 287 278 287C302 287 353 284 395 277L403 263L380 232L353 139V107L339 88C295 63 253 50 210 50ZM261 4 340 61 342 0H398L418 108L490 342C497 366 503 395 503 419C503 507 438 560 317 560C262 560 214 549 170 536L173 474C213 488 258 498 304 498C394 498 432 462 432 404C432 387 429 373 425 357L415 317L402 310L367 327C325 335 289 338 260 338C168 337 108 316 66 274C32 240 14 194 14 144C14 49 83 -6 190 -6C218 -6 239 -2 261 4ZM439 652H535L570 762H474ZM232 652H328L363 762H267Z" glyph-name="adieresis" horiz-adv-x="548" unicode="&#228;" /><glyph d="M738 280 705 292H497L457 280L447 294C467 354 498 410 535 449C571 485 613 507 657 507C733 507 762 447 762 374C762 350 759 320 752 291ZM193 51C122 51 85 89 85 148C85 184 99 218 122 241C153 272 203 287 273 287C294 287 341 285 379 279L378 247C376 237 367 212 367 201C367 192 366 182 367 175C367 166 372 148 374 139L371 127C300 78 240 51 193 51ZM714 27 700 83C657 64 618 53 573 53C476 53 429 110 429 207C429 217 430 228 431 240L446 250L490 240H800C820 298 827 343 827 383C827 477 780 563 672 563C593 563 519 515 470 435H460C457 518 408 560 313 560C257 560 212 549 168 536L172 474C212 488 257 498 304 498C384 498 417 461 417 404C417 388 415 373 409 353L400 317L387 310L350 327C309 335 277 338 249 338C167 337 107 316 66 275C32 241 14 195 14 143C14 51 78 -6 174 -6C204 -6 232 -1 261 8L385 97C413 31 477 -7 566 -7C613 -7 663 3 714 27Z" glyph-name="ae" horiz-adv-x="857" unicode="&#230;" /><glyph d="M738 280 705 292H497L457 280L447 294C467 354 498 410 535 449C571 485 613 507 657 507C733 507 762 447 762 374C762 350 759 320 752 291ZM193 51C122 51 85 89 85 148C85 184 99 218 122 241C153 272 203 287 273 287C294 287 341 285 379 279L378 247C376 237 367 212 367 201C367 192 366 182 367 175C367 166 372 148 374 139L371 127C300 78 240 51 193 51ZM714 27 700 83C657 64 618 53 573 53C476 53 429 110 429 207C429 217 430 228 431 240L446 250L490 240H800C820 298 827 343 827 383C827 477 780 563 672 563C593 563 519 515 470 435H460C457 518 408 560 313 560C257 560 212 549 168 536L172 474C212 488 257 498 304 498C384 498 417 461 417 404C417 388 415 373 409 353L400 317L387 310L350 327C309 335 277 338 249 338C167 337 107 316 66 275C32 241 14 195 14 143C14 51 78 -6 174 -6C204 -6 232 -1 261 8L385 97C413 31 477 -7 566 -7C613 -7 663 3 714 27ZM564 652 812 778 814 782H655L497 656L496 652Z" glyph-name="aeacute" horiz-adv-x="857" unicode="&#509;" /><glyph d="M210 50C125 50 86 92 86 148C86 184 100 217 122 239C155 271 206 287 278 287C302 287 353 284 395 277L403 263L380 232L353 139V107L339 88C295 63 253 50 210 50ZM261 4 340 61 342 0H398L418 108L490 342C497 366 503 395 503 419C503 507 438 560 317 560C262 560 214 549 170 536L173 474C213 488 258 498 304 498C394 498 432 462 432 404C432 387 429 373 425 357L415 317L402 310L367 327C325 335 289 338 260 338C168 337 108 316 66 274C32 240 14 194 14 144C14 49 83 -6 190 -6C218 -6 239 -2 261 4ZM361 652H417L418 656L313 782H182L180 778Z" glyph-name="agrave" horiz-adv-x="548" unicode="&#224;" /><glyph d="M210 50C125 50 86 92 86 148C86 184 100 217 122 239C155 271 206 287 278 287C302 287 353 284 395 277L403 263L380 232L353 139V107L339 88C295 63 253 50 210 50ZM261 4 340 61 342 0H398L418 108L490 342C497 366 503 395 503 419C503 507 438 560 317 560C262 560 214 549 170 536L173 474C213 488 258 498 304 498C394 498 432 462 432 404C432 387 429 373 425 357L415 317L402 310L367 327C325 335 289 338 260 338C168 337 108 316 66 274C32 240 14 194 14 144C14 49 83 -6 190 -6C218 -6 239 -2 261 4ZM217 662H557L576 722H236Z" glyph-name="amacron" horiz-adv-x="548" unicode="&#257;" /><glyph d="M199 56C139 56 106 101 106 163C106 244 165 323 296 389L314 386L312 355L379 223L404 209L400 194C310 99 253 56 199 56ZM433 152 435 117 499 0H580L581 6L490 179L469 194L472 207L506 228L669 407L670 413H587L473 284L452 244H437L435 282L357 429C338 465 330 496 330 531C330 615 394 674 472 674C521 674 565 654 600 622L646 682C602 719 542 743 478 743C347 743 255 654 255 529C255 503 259 477 265 457L290 433L283 419H246C121 366 32 268 32 153C32 56 90 -8 186 -8C267 -8 333 37 418 152Z" glyph-name="ampersand" horiz-adv-x="695" unicode="&amp;" /><glyph d="M210 50C125 50 86 92 86 148C86 184 100 217 122 239C155 271 206 287 278 287C302 287 353 284 395 277L403 263L380 232L353 139V107L339 88C295 63 253 50 210 50ZM392 -147C323 -125 305 -113 305 -101C305 -90 316 -75 386 0H398L418 108L490 342C497 366 503 395 503 419C503 507 438 560 317 560C262 560 214 549 170 536L173 474C213 488 258 498 304 498C394 498 432 462 432 404C432 387 429 373 425 357L415 317L402 310L367 327C325 335 289 338 260 338C168 337 108 316 66 274C32 240 14 194 14 144C14 49 83 -6 190 -6C218 -6 239 -2 261 4L340 61L342 7C243 -73 221 -98 221 -117C221 -132 236 -147 255 -157H389Z" glyph-name="aogonek" horiz-adv-x="548" unicode="&#261;" /><glyph d="M135 399C198 481 223 506 248 506C268 506 281 498 330 454C379 411 399 400 429 400C477 400 519 439 598 556L555 582C492 499 463 472 438 472C418 473 407 479 358 523C309 566 290 578 259 578C210 578 172 541 92 424ZM61 163C125 247 152 273 176 273C196 272 209 265 258 221C307 178 328 167 357 167C406 167 444 204 524 321L481 346C418 264 393 239 368 239C348 239 336 246 287 289C238 332 220 344 189 344C140 344 98 307 17 189Z" glyph-name="approxequal" horiz-adv-x="555" unicode="&#8776;" /><glyph d="M210 50C125 50 86 92 86 148C86 184 100 217 122 239C155 271 206 287 278 287C302 287 353 284 395 277L403 263L380 232L353 139V107L339 88C295 63 253 50 210 50ZM261 4 340 61 342 0H398L418 108L490 342C497 366 503 395 503 419C503 507 438 560 317 560C262 560 214 549 170 536L173 474C213 488 258 498 304 498C394 498 432 462 432 404C432 387 429 373 425 357L415 317L402 310L367 327C325 335 289 338 260 338C168 337 108 316 66 274C32 240 14 194 14 144C14 49 83 -6 190 -6C218 -6 239 -2 261 4ZM404 644C485 644 532 697 532 754C532 805 490 844 423 844C343 844 294 792 294 735C294 683 336 644 404 644ZM406 677C358 677 331 703 331 737C331 780 367 811 420 811C468 811 495 786 495 751C495 709 460 677 406 677Z" glyph-name="aring" horiz-adv-x="548" unicode="&#229;" /><glyph d="M210 50C125 50 86 92 86 148C86 184 100 217 122 239C155 271 206 287 278 287C302 287 353 284 395 277L403 263L380 232L353 139V107L339 88C295 63 253 50 210 50ZM261 4 340 61 342 0H398L418 108L490 342C497 366 503 395 503 419C503 507 438 560 317 560C262 560 214 549 170 536L173 474C213 488 258 498 304 498C394 498 432 462 432 404C432 387 429 373 425 357L415 317L402 310L367 327C325 335 289 338 260 338C168 337 108 316 66 274C32 240 14 194 14 144C14 49 83 -6 190 -6C218 -6 239 -2 261 4ZM404 643C484 643 530 695 531 751C532 786 512 816 477 832L719 954L720 958H564L420 842C344 842 295 791 294 735C293 682 336 643 404 643ZM406 676C359 676 330 702 331 737C332 778 367 809 420 809C467 809 496 784 495 749C494 708 460 676 406 676Z" glyph-name="aringacute" horiz-adv-x="548" unicode="&#507;" /><glyph d="M165 373 364 624 397 682H419L418 624L458 373H526L460 744H390L85 373Z" glyph-name="asciicircum" horiz-adv-x="555" unicode="^" /><glyph d="M95 275C160 362 188 388 213 388C233 388 245 381 294 336C344 292 364 281 393 281C443 281 483 319 564 443L521 469C457 384 428 357 403 357C382 357 372 364 323 408C274 452 255 464 225 464C174 464 134 427 51 302Z" glyph-name="asciitilde" horiz-adv-x="555" unicode="~" /><glyph d="M378 582C382 645 400 705 419 737V746H312V737C331 705 349 645 353 582ZM303 526 310 550C254 573 205 609 181 638L173 640L140 537L148 534C183 543 243 542 303 526ZM428 526C488 542 548 543 583 534L591 537L558 640L550 638C526 609 477 573 421 550ZM452 303 538 366 532 374C499 388 451 425 412 474L392 459C424 406 445 347 447 310ZM279 303 284 310C286 347 307 406 339 459L319 474C280 425 232 388 199 374L193 366Z" glyph-name="asterisk" horiz-adv-x="575" unicode="*" /><glyph d="M458 -157 476 -109H413C237 -109 135 -18 135 165C135 355 233 558 367 655C423 697 484 720 545 720C643 720 697 669 697 577C697 548 691 519 685 493L673 488L646 519C629 526 605 530 582 530C521 530 466 509 423 473C357 418 313 319 313 226C313 125 371 68 452 68C472 68 490 72 509 79L546 113H559L561 68H599L718 433C735 484 749 536 749 583C749 691 681 770 548 770C473 770 400 742 335 694C188 588 79 375 79 166C79 -38 196 -157 406 -157ZM473 122C414 122 381 158 381 231C381 299 412 383 464 429C499 459 542 475 592 475C617 475 641 471 664 462L668 448L647 415L571 184V157L562 145C530 130 499 122 473 122Z" glyph-name="at" horiz-adv-x="764" unicode="@" /><glyph d="M210 50C125 50 86 92 86 148C86 184 100 217 122 239C155 271 206 287 278 287C302 287 353 284 395 277L403 263L380 232L353 139V107L339 88C295 63 253 50 210 50ZM261 4 340 61 342 0H398L418 108L490 342C497 366 503 395 503 419C503 507 438 560 317 560C262 560 214 549 170 536L173 474C213 488 258 498 304 498C394 498 432 462 432 404C432 387 429 373 425 357L415 317L402 310L367 327C325 335 289 338 260 338C168 337 108 316 66 274C32 240 14 194 14 144C14 49 83 -6 190 -6C218 -6 239 -2 261 4ZM232 646C284 712 307 734 329 734C346 734 355 726 392 694C433 658 448 649 476 649C521 649 557 688 616 775L580 797C527 731 506 708 484 708C468 708 459 716 420 749C379 784 366 794 337 794C291 794 256 755 196 668Z" glyph-name="atilde" horiz-adv-x="548" unicode="&#227;" /><glyph d="M-2 -4H39L76 53H87L117 12C142 0 169 -5 200 -5C280 -5 351 28 403 80C473 150 516 267 516 368C516 484 460 560 357 560C347 560 336 559 323 557L230 499L219 508L255 573L316 765H242ZM195 57C161 57 129 66 99 83L94 102L119 146L200 407L202 447L218 466C265 489 297 500 327 500C401 500 445 453 445 365C445 282 408 178 352 122C313 83 261 57 195 57Z" glyph-name="b" horiz-adv-x="558" unicode="b" /><glyph d="M288 -137 232 770H171L227 -137Z" glyph-name="backslash" horiz-adv-x="395" unicode="\" /><glyph d="M285 -100 229 807H168L224 -100Z" glyph-name="backslash.cap" horiz-adv-x="395" /><glyph d="M77 -196 400 829H338L15 -196Z" glyph-name="bar" horiz-adv-x="390" unicode="|" /><glyph d="M94 -141 404 839H341L31 -141Z" glyph-name="bar.cap" horiz-adv-x="390" /><glyph d="M381 -124 405 -72C297 -59 205 -36 157 -13L160 -2C249 27 315 84 315 161C315 235 253 289 167 311L170 322C319 352 433 435 433 532C433 574 413 609 361 633L365 643C427 667 538 694 653 708L663 762C525 746 404 714 308 677L291 625C333 606 361 581 361 533C361 437 242 352 92 346L67 344L51 294L77 292C183 286 245 241 245 169C245 101 188 46 97 13L80 -40C152 -76 252 -107 381 -124Z" glyph-name="braceleft" horiz-adv-x="567" unicode="{" /><glyph d="M396 -79 420 -27C312 -14 220 9 172 32L175 43C264 72 330 129 330 206C330 280 268 334 182 356L185 367C334 397 448 480 448 577C448 619 428 654 376 678L380 688C442 712 553 739 668 753L678 807C540 791 419 759 323 722L306 670C348 651 376 626 376 578C376 482 257 397 107 391L82 389L66 339L92 337C198 331 260 286 260 214C260 146 203 91 112 58L95 5C167 -31 267 -62 396 -79Z" glyph-name="braceleft.cap" horiz-adv-x="567" /><glyph d="M-71 -124C67 -108 188 -76 283 -39L300 13C259 32 231 57 231 105C231 201 350 286 500 292L525 294L540 344L515 346C409 352 347 397 347 469C347 537 404 592 495 625L512 678C439 714 339 745 211 762L187 710C295 697 386 674 434 651L431 640C344 612 277 554 277 477C277 403 339 349 425 327L421 316C273 286 159 203 159 106C159 64 179 30 230 6L226 -5C165 -29 54 -56 -61 -70Z" glyph-name="braceright" horiz-adv-x="567" unicode="}" /><glyph d="M-56 -79C82 -63 203 -31 298 6L315 58C274 77 246 102 246 150C246 246 365 331 515 337L540 339L555 389L530 391C424 397 362 442 362 514C362 582 419 637 510 670L527 723C454 759 354 790 226 807L202 755C310 742 401 719 449 696L446 685C359 657 292 599 292 522C292 448 354 394 440 372L436 361C288 331 174 248 174 151C174 109 194 75 245 51L241 40C180 16 69 -11 -46 -25Z" glyph-name="braceright.cap" horiz-adv-x="567" /><glyph d="M235 -98 252 -45 83 -55 41 -69 32 -58 61 -15 274 660 273 697 285 706 316 693 482 683 499 736 237 752 -39 -114Z" glyph-name="bracketleft" horiz-adv-x="411" unicode="[" /><glyph d="M250 -53 267 0 98 -10 56 -24 47 -13 76 30 289 705 288 742 300 751 331 738 497 728 514 781 252 797 -24 -69Z" glyph-name="bracketleft.cap" horiz-adv-x="411" /><glyph d="M201 735 184 683 353 693 395 706 404 696 375 652 162 -22 163 -59 151 -68 120 -55 -46 -45 -63 -98 199 -114 475 752Z" glyph-name="bracketright" horiz-adv-x="411" unicode="]" /><glyph d="M216 780 199 728 368 738 410 751 419 741 390 697 177 23 178 -14 166 -23 135 -10 -31 0 -48 -53 214 -69 490 797Z" glyph-name="bracketright.cap" horiz-adv-x="411" /><glyph d="M381 651C478 651 541 703 568 792H515C491 740 451 711 391 711C325 711 301 740 310 792H258C235 704 287 651 381 651Z" glyph-name="breve" horiz-adv-x="500" unicode="&#728;" /><glyph d="M184 821C291 821 358 873 388 956H335C309 908 264 881 192 881C120 881 88 908 93 956H40C19 875 76 821 184 821Z" glyph-name="breve.cap" horiz-adv-x="0" /><glyph d="M328 195C428 195 506 274 506 373C506 472 428 551 328 551C229 551 151 472 151 373C151 274 229 195 328 195Z" glyph-name="bullet" horiz-adv-x="600" unicode="&#8226;" /><glyph d="M239 -7C286 -7 333 5 378 31L362 90C322 67 283 58 249 58C165 58 115 111 115 203C115 285 149 373 206 430C244 468 296 495 358 495C407 495 446 477 475 455L512 515C475 543 424 561 363 561C277 561 206 527 152 472C83 404 42 299 42 199C42 75 112 -7 239 -7Z" glyph-name="c" horiz-adv-x="483" unicode="c" /><glyph d="M239 -7C286 -7 333 5 378 31L362 90C322 67 283 58 249 58C165 58 115 111 115 203C115 285 149 373 206 430C244 468 296 495 358 495C407 495 446 477 475 455L512 515C475 543 424 561 363 561C277 561 206 527 152 472C83 404 42 299 42 199C42 75 112 -7 239 -7ZM426 652 674 778 676 782H517L359 656L358 652Z" glyph-name="cacute" horiz-adv-x="483" unicode="&#263;" /><glyph d="M579 792H514L418 731L390 702H374L358 731L298 792H248L247 788L329 652H412L578 788Z" glyph-name="caron" horiz-adv-x="500" unicode="&#711;" /><glyph d="M214 821 403 951 404 955H335L225 898L192 869H174L151 898L77 955H25L24 951L130 821Z" glyph-name="caron.cap" horiz-adv-x="0" /><glyph d="M239 -7C286 -7 333 5 378 31L362 90C322 67 283 58 249 58C165 58 115 111 115 203C115 285 149 373 206 430C244 468 296 495 358 495C407 495 446 477 475 455L512 515C475 543 424 561 363 561C277 561 206 527 152 472C83 404 42 299 42 199C42 75 112 -7 239 -7ZM604 792H539L443 731L415 702H399L383 731L323 792H273L272 788L354 652H437L603 788Z" glyph-name="ccaron" horiz-adv-x="483" unicode="&#269;" /><glyph d="M239 -7C286 -7 333 5 378 31L362 90C322 67 283 58 249 58C165 58 115 111 115 203C115 285 149 373 206 430C244 468 296 495 358 495C407 495 446 477 475 455L512 515C475 543 424 561 363 561C277 561 206 527 152 472C83 404 42 299 42 199C42 93 92 15 193 -1L189 -14L141 -33L-1 -153L-2 -157H110L233 -7Z" glyph-name="ccedilla" horiz-adv-x="483" unicode="&#231;" /><glyph d="M239 -7C286 -7 333 5 378 31L362 90C322 67 283 58 249 58C165 58 115 111 115 203C115 285 149 373 206 430C244 468 296 495 358 495C407 495 446 477 475 455L512 515C475 543 424 561 363 561C277 561 206 527 152 472C83 404 42 299 42 199C42 75 112 -7 239 -7ZM227 652H293L389 713L417 742H432L449 713L508 652H559L560 656L477 792H394L228 656Z" glyph-name="ccircumflex" horiz-adv-x="483" unicode="&#265;" /><glyph d="M239 -7C286 -7 333 5 378 31L362 90C322 67 283 58 249 58C165 58 115 111 115 203C115 285 149 373 206 430C244 468 296 495 358 495C407 495 446 477 475 455L512 515C475 543 424 561 363 561C277 561 206 527 152 472C83 404 42 299 42 199C42 75 112 -7 239 -7ZM446 652 483 766H376L340 652Z" glyph-name="cdotaccent" horiz-adv-x="483" unicode="&#267;" /><glyph d="M76 -157 204 -1 161 11 -34 -153 -36 -157Z" glyph-name="cedilla" horiz-adv-x="500" unicode="&#184;" /><glyph d="M135 339C135 424 193 528 349 558L355 550L330 512L244 245V207L233 199C161 231 135 277 135 339ZM253 119 252 157 262 164 289 152C341 157 393 171 434 196L416 246C369 221 325 206 271 198L265 206L293 249L379 517L378 552L386 559C433 551 468 532 495 513L530 563C508 579 476 596 443 600L402 591L395 599L425 645L456 743H400L367 636V599L358 593L327 603C160 578 71 454 71 334C71 256 107 196 179 163L220 168L226 160L197 112L158 -7H214Z" glyph-name="cent" horiz-adv-x="495" unicode="&#162;" /><glyph d="M203 652H269L365 713L393 742H408L425 713L484 652H535L536 656L453 792H370L204 656Z" glyph-name="circumflex" horiz-adv-x="500" unicode="&#710;" /><glyph d="M47 821 160 882 194 911H212L234 882L309 821H361L363 826L257 959H171L-16 826L-18 821Z" glyph-name="circumflex.cap" horiz-adv-x="0" /><glyph d="M238 429 274 544H169L132 429ZM103 0 140 115H35L-2 0Z" glyph-name="colon" horiz-adv-x="275" unicode=":" /><glyph d="M253 473 290 588H185L148 473ZM154 156 191 271H86L49 156Z" glyph-name="colon.fig" horiz-adv-x="279" /><glyph d="M223 473 260 588H155L118 473ZM124 156 161 271H56L19 156Z" glyph-name="colon.figtab" horiz-adv-x="278" /><glyph d="M220 429 256 544H151L114 429ZM85 0 122 115H17L-20 0Z" glyph-name="colon.tab" horiz-adv-x="278" /><glyph d="M172 131 176 143H64L-93 -128L-49 -141Z" glyph-name="comma" horiz-adv-x="278" unicode="," /><glyph d="M150 131 155 143H42L-115 -128L-70 -141Z" glyph-name="comma.tab" horiz-adv-x="278" /><glyph d="M376 -158C469 -158 557 -125 635 -65C782 47 879 243 879 434C879 638 756 774 578 774C486 774 398 741 321 683C173 571 75 374 75 182C75 -22 198 -158 376 -158ZM378 -128C211 -128 109 -2 109 184C109 367 204 552 340 658C411 711 494 744 576 744C743 744 845 618 845 431C845 250 752 66 616 -40C545 -94 462 -128 378 -128ZM446 83C497 83 541 100 587 127L570 175C532 153 496 139 455 139C379 139 346 189 346 256C347 359 428 492 542 492C585 492 620 473 648 453L681 500C649 524 608 548 546 548C399 548 286 393 285 252C285 154 342 83 446 83Z" glyph-name="copyright" horiz-adv-x="935" unicode="&#169;" /><glyph d="M229 55C156 55 111 103 112 196C112 274 149 376 205 433C243 471 295 497 359 497C392 497 427 487 457 467L460 443L436 405L356 146V111L338 89C290 65 258 55 229 55ZM204 -5C217 -5 233 -3 243 -1L333 61H345L340 -4H380L622 765H548L485 563L481 505L466 498L431 540C409 553 384 560 355 560C277 560 207 528 155 475C87 408 41 289 41 192C40 72 96 -5 204 -5Z" glyph-name="d" horiz-adv-x="558" unicode="d" /><glyph d="M465 727 468 736H374L371 727C375 698 370 630 352 551H375C405 630 443 698 465 727ZM523 440 557 545H548C496 522 433 503 362 503H334C263 503 212 522 174 545H166L132 440H141C194 464 256 482 327 482H355C426 482 477 464 515 440ZM323 310 337 430H312L252 310L177 -11H197Z" glyph-name="dagger" horiz-adv-x="555" unicode="&#8224;" /><glyph d="M463 727 466 736H375L373 727C378 701 375 646 361 580H384C409 646 442 701 463 727ZM534 476 565 573H557C505 551 443 535 372 535H344C273 535 221 551 183 573H175L144 476H152C204 497 267 515 337 515H366C437 515 488 497 526 476ZM339 368 349 473H327L272 368L261 263H284ZM436 163 467 260H459C407 238 345 221 274 221H245C175 221 123 238 85 260H77L45 163H54C106 184 169 201 239 201H268C339 201 390 184 428 163ZM236 0 239 9C233 35 235 90 250 156H228C202 90 169 35 149 9L146 0Z" glyph-name="daggerdbl" horiz-adv-x="555" unicode="&#8225;" /><glyph d="M229 55C156 55 111 103 112 196C112 274 149 376 205 433C243 471 295 497 359 497C392 497 427 487 457 467L460 443L436 405L356 146V111L338 89C290 65 258 55 229 55ZM204 -5C217 -5 233 -3 243 -1L333 61H345L340 -4H380L622 765H548L485 563L481 505L466 498L431 540C409 553 384 560 355 560C277 560 207 528 155 475C87 408 41 289 41 192C40 72 96 -5 204 -5ZM645 585 678 574 828 752 832 765H737Z" glyph-name="dcaron" horiz-adv-x="558" unicode="&#271;" /><glyph d="M226 55C156 55 109 93 110 176C110 243 137 329 192 383C226 417 277 443 340 443C374 443 408 433 438 413L442 388L418 352L356 147V110L339 88C288 63 257 55 226 55ZM201 -5C215 -5 231 -3 242 -1L333 61H345L340 -4H380L569 594L568 626L579 634L607 622H673L691 677H630L589 663L581 674L606 710L623 765H549L530 704L531 673L520 665L491 677H341L323 622H468L511 635L518 624L495 591L467 504L464 450L449 443L414 485C391 498 365 505 336 505C260 505 189 473 140 424C75 359 40 260 39 172C38 63 97 -5 201 -5Z" glyph-name="dcroat" horiz-adv-x="558" unicode="&#273;" /><glyph d="M533 546C533 658 447 746 340 746C234 746 146 656 146 544C146 433 233 345 339 345C446 345 533 435 533 546ZM203 546C203 632 261 693 340 693C419 693 477 631 477 545C477 459 419 398 340 398C261 398 203 459 203 546Z" glyph-name="degree" horiz-adv-x="556" unicode="&#176;" /><glyph d="M424 652H520L555 762H459ZM217 652H313L348 762H252Z" glyph-name="dieresis" horiz-adv-x="500" unicode="&#168;" /><glyph d="M103 823 138 933H42L7 823ZM338 823 373 933H276L241 823Z" glyph-name="dieresis.cap" horiz-adv-x="0" /><glyph d="M400 513 431 611H335L304 513ZM525 339 546 406 316 402 89 406 68 339 298 343ZM280 134 311 232H214L183 134Z" glyph-name="divide" horiz-adv-x="555" unicode="&#247;" /><glyph d="M219 529C219 616 295 675 424 689L430 680L405 641L341 444L340 404L332 399C250 433 219 474 219 529ZM245 57 271 97 343 321 344 360 351 365C435 330 467 288 467 229C467 133 390 66 252 48ZM235 -34V4L244 12L273 2C442 16 536 113 536 237C536 316 489 372 406 402L365 396L360 404L385 439L452 647L454 683L463 690C529 681 588 651 626 621L662 673C626 699 573 723 522 731L477 723L470 731L498 773L524 854H467L439 768L441 732L432 725L400 734C242 728 149 631 149 524C149 447 199 389 278 362L318 369L324 361L299 326L223 91V55L212 46C138 55 65 91 14 129L-24 78C24 43 96 9 153 4L198 13L205 5L176 -38L145 -135H203Z" glyph-name="dollar" horiz-adv-x="604" unicode="$" /><glyph d="M184 523C184 608 249 675 364 690L370 680L346 641L283 444L281 404L274 400C208 432 184 474 184 523ZM188 57 213 97 283 321 286 360 293 365C358 334 387 295 387 238C387 144 317 65 196 46ZM178 -34 177 5 186 12 216 2C364 18 453 120 453 244C453 319 414 369 346 400L307 394L301 402L325 439L391 646L394 683L405 691C453 682 500 659 537 630L572 678C543 701 502 723 462 731L416 723L410 732L437 772L463 854H407L379 768L381 731L371 725L339 735C202 725 119 626 119 518C119 452 155 393 221 363L260 371L265 363L241 326L167 90L165 55L154 45C95 59 38 87 -8 126L-46 77C4 37 52 13 98 5L142 13L148 5L120 -39L89 -135H145Z" glyph-name="dollar.tab" horiz-adv-x="555" /><glyph d="M230 55C154 55 105 92 105 176C105 240 133 326 184 377C222 414 275 439 339 439C375 439 409 428 440 408L443 384L419 349L359 151V110L342 89C290 64 261 55 230 55ZM317 594H462L504 608L512 597L489 564L468 500L466 448L450 441L416 481C393 495 365 502 335 502C256 502 185 470 132 418C71 356 34 258 34 171C34 64 94 -5 204 -5C219 -5 233 -3 244 -1L336 61H347L342 -3H383L563 567L561 599L572 607L601 594H667L685 649H624L582 635L575 646L599 681L616 736H542L523 675L525 645L513 636L484 649H335ZM334 -157 351 -103H-11L-28 -157Z" glyph-name="dong" horiz-adv-x="558" unicode="&#8363;" /><glyph d="M422 652 459 766H352L316 652Z" glyph-name="dotaccent" horiz-adv-x="500" unicode="&#729;" /><glyph d="M225 821 261 935H155L119 821Z" glyph-name="dotaccent.cap" horiz-adv-x="0" /><glyph d="M90 0 265 554H191L15 0Z" glyph-name="dotlessi" horiz-adv-x="281" unicode="&#305;" /><glyph d="M191 554 15 0H90L265 554L243 551H212Z" glyph-name="dotlessi.cmb" horiz-adv-x="281" /><glyph d="M93 -157 96 -147C26 -125 9 -113 9 -101C9 -90 20 -75 90 0L265 554H191L19 12L44 5L40 -7C-48 -67 -76 -96 -76 -117C-76 -132 -60 -147 -41 -157Z" glyph-name="dotlessiogonek" horiz-adv-x="281" /><glyph d="M93 -157 96 -147C26 -125 9 -113 9 -101C9 -90 20 -75 90 0L265 554L243 551H212L191 554L19 12L44 5L40 -7C-48 -67 -76 -96 -76 -117C-76 -132 -60 -147 -41 -157Z" glyph-name="dotlessiogonek.cmb" horiz-adv-x="281" /><glyph d="M423 280 390 292H172L132 280L122 293C164 421 252 507 336 507C417 507 447 447 447 373C447 349 444 319 438 291ZM398 27 384 83C340 65 299 53 254 53C156 53 107 112 107 213C107 222 107 231 108 241L121 250L165 240H485C504 297 512 342 512 384C512 480 460 563 343 563C271 563 209 532 157 480C88 411 42 296 42 194C42 70 113 -7 244 -7C295 -7 345 3 398 27Z" glyph-name="e" horiz-adv-x="542" unicode="e" /><glyph d="M423 280 390 292H172L132 280L122 293C164 421 252 507 336 507C417 507 447 447 447 373C447 349 444 319 438 291ZM398 27 384 83C340 65 299 53 254 53C156 53 107 112 107 213C107 222 107 231 108 241L121 250L165 240H485C504 297 512 342 512 384C512 480 460 563 343 563C271 563 209 532 157 480C88 411 42 296 42 194C42 70 113 -7 244 -7C295 -7 345 3 398 27ZM422 652 670 778 672 782H513L355 656L354 652Z" glyph-name="eacute" horiz-adv-x="542" unicode="&#233;" /><glyph d="M423 280 390 292H172L132 280L122 293C164 421 252 507 336 507C417 507 447 447 447 373C447 349 444 319 438 291ZM398 27 384 83C340 65 299 53 254 53C156 53 107 112 107 213C107 222 107 231 108 241L121 250L165 240H485C504 297 512 342 512 384C512 480 460 563 343 563C271 563 209 532 157 480C88 411 42 296 42 194C42 70 113 -7 244 -7C295 -7 345 3 398 27ZM402 651C499 651 562 703 589 792H536C512 740 472 711 412 711C346 711 322 740 331 792H279C256 704 308 651 402 651Z" glyph-name="ebreve" horiz-adv-x="542" unicode="&#277;" /><glyph d="M423 280 390 292H172L132 280L122 293C164 421 252 507 336 507C417 507 447 447 447 373C447 349 444 319 438 291ZM398 27 384 83C340 65 299 53 254 53C156 53 107 112 107 213C107 222 107 231 108 241L121 250L165 240H485C504 297 512 342 512 384C512 480 460 563 343 563C271 563 209 532 157 480C88 411 42 296 42 194C42 70 113 -7 244 -7C295 -7 345 3 398 27ZM600 792H535L439 731L411 702H395L379 731L319 792H269L268 788L350 652H433L599 788Z" glyph-name="ecaron" horiz-adv-x="542" unicode="&#283;" /><glyph d="M423 280 390 292H172L132 280L122 293C164 421 252 507 336 507C417 507 447 447 447 373C447 349 444 319 438 291ZM398 27 384 83C340 65 299 53 254 53C156 53 107 112 107 213C107 222 107 231 108 241L121 250L165 240H485C504 297 512 342 512 384C512 480 460 563 343 563C271 563 209 532 157 480C88 411 42 296 42 194C42 70 113 -7 244 -7C295 -7 345 3 398 27ZM223 652H289L385 713L413 742H428L445 713L504 652H555L556 656L473 792H390L224 656Z" glyph-name="ecircumflex" horiz-adv-x="542" unicode="&#234;" /><glyph d="M423 280 390 292H172L132 280L122 293C164 421 252 507 336 507C417 507 447 447 447 373C447 349 444 319 438 291ZM398 27 384 83C340 65 299 53 254 53C156 53 107 112 107 213C107 222 107 231 108 241L121 250L165 240H485C504 297 512 342 512 384C512 480 460 563 343 563C271 563 209 532 157 480C88 411 42 296 42 194C42 70 113 -7 244 -7C295 -7 345 3 398 27ZM445 652H541L576 762H480ZM238 652H334L369 762H273Z" glyph-name="edieresis" horiz-adv-x="542" unicode="&#235;" /><glyph d="M423 280 390 292H172L132 280L122 293C164 421 252 507 336 507C417 507 447 447 447 373C447 349 444 319 438 291ZM398 27 384 83C340 65 299 53 254 53C156 53 107 112 107 213C107 222 107 231 108 241L121 250L165 240H485C504 297 512 342 512 384C512 480 460 563 343 563C271 563 209 532 157 480C88 411 42 296 42 194C42 70 113 -7 244 -7C295 -7 345 3 398 27ZM442 652 479 766H372L336 652Z" glyph-name="edotaccent" horiz-adv-x="542" unicode="&#279;" /><glyph d="M423 280 390 292H172L132 280L122 293C164 421 252 507 336 507C417 507 447 447 447 373C447 349 444 319 438 291ZM398 27 384 83C340 65 299 53 254 53C156 53 107 112 107 213C107 222 107 231 108 241L121 250L165 240H485C504 297 512 342 512 384C512 480 460 563 343 563C271 563 209 532 157 480C88 411 42 296 42 194C42 70 113 -7 244 -7C295 -7 345 3 398 27ZM367 652H423L424 656L319 782H188L186 778Z" glyph-name="egrave" horiz-adv-x="542" unicode="&#232;" /><glyph d="M258 -8C408 -8 517 88 517 210C517 285 468 342 398 373L401 383C513 401 607 469 607 579C607 674 522 744 398 744C251 744 162 652 162 551C162 476 213 428 270 401L267 391C130 376 32 287 32 173C32 69 120 -8 258 -8ZM395 683C480 683 537 638 537 568C537 477 450 413 363 413C288 413 232 460 232 538C232 621 295 683 395 683ZM262 53C169 53 104 103 104 183C104 277 189 359 300 359C393 359 446 301 446 223C446 125 367 53 262 53Z" glyph-name="eight" horiz-adv-x="599" unicode="8" /><glyph d="M65 -165C155 -165 223 -103 223 -29C223 13 195 48 156 66L158 73C230 85 280 131 280 192C280 248 231 290 159 290C71 290 15 234 15 169C15 129 36 102 75 83L74 77C-6 67 -65 13 -65 -58C-65 -121 -14 -165 65 -165ZM156 249C201 249 230 223 230 186C230 135 181 92 132 92C92 92 64 119 64 160C64 211 101 249 156 249ZM68 -123C20 -123 -14 -97 -14 -52C-14 6 35 56 96 56C143 56 172 27 172 -19C172 -78 127 -123 68 -123Z" glyph-name="eight.den" horiz-adv-x="355" /><glyph d="M208 288C298 288 366 350 366 425C366 467 338 501 299 520L301 527C373 538 423 584 423 646C423 701 374 744 301 744C214 744 157 688 157 622C157 582 179 556 218 537L216 530C136 520 78 466 78 395C78 333 129 288 208 288ZM298 702C344 702 373 676 373 640C373 588 324 545 275 545C235 545 206 573 206 614C206 665 244 702 298 702ZM210 331C163 331 129 356 129 401C129 459 178 510 239 510C286 510 315 480 315 434C315 375 270 331 210 331Z" glyph-name="eight.num" horiz-adv-x="355" /><glyph d="M211 -8C353 -8 454 90 454 212C454 284 414 339 351 371L355 381C462 403 545 478 545 580C545 674 469 744 352 744C216 744 132 653 132 548C132 485 170 431 225 402L221 392C95 375 3 286 3 169C3 66 84 -8 211 -8ZM348 683C425 683 474 639 474 570C474 482 397 413 316 413C247 413 202 464 202 535C202 622 260 683 348 683ZM215 53C132 53 76 101 76 181C76 275 155 359 254 359C337 359 382 301 382 225C383 127 312 53 215 53Z" glyph-name="eight.tab" horiz-adv-x="555" /><glyph d="M657 0 693 111H591L556 0ZM380 0 415 111H314L279 0ZM103 0 138 111H37L2 0Z" glyph-name="ellipsis" horiz-adv-x="833" unicode="&#8230;" /><glyph d="M423 280 390 292H172L132 280L122 293C164 421 252 507 336 507C417 507 447 447 447 373C447 349 444 319 438 291ZM398 27 384 83C340 65 299 53 254 53C156 53 107 112 107 213C107 222 107 231 108 241L121 250L165 240H485C504 297 512 342 512 384C512 480 460 563 343 563C271 563 209 532 157 480C88 411 42 296 42 194C42 70 113 -7 244 -7C295 -7 345 3 398 27ZM223 662H563L582 722H242Z" glyph-name="emacron" horiz-adv-x="542" unicode="&#275;" /><glyph d="M798 284 823 359H78L54 284Z" glyph-name="emdash" horiz-adv-x="849" unicode="&#8212;" /><glyph d="M815 335 840 410H95L71 335Z" glyph-name="emdash.cap" horiz-adv-x="849" /><glyph d="M468 284 492 360H78L54 284Z" glyph-name="endash" horiz-adv-x="518" unicode="&#8211;" /><glyph d="M485 335 509 411H95L71 335Z" glyph-name="endash.cap" horiz-adv-x="518" /><glyph d="M221 -165C354 -85 402 -31 453 129L507 301C521 345 530 380 530 411C530 507 470 561 371 561C345 561 324 557 302 549L224 495H213L217 558H176L0 0H74L201 405L205 447L222 468C271 490 305 498 340 498C414 498 454 463 454 402C454 376 447 345 437 314L381 136C341 6 299 -41 187 -115Z" glyph-name="eng" horiz-adv-x="577" unicode="&#331;" /><glyph d="M423 280 390 292H172L132 280L122 293C164 421 252 507 336 507C417 507 447 447 447 373C447 349 444 319 438 291ZM379 -147C309 -125 291 -113 291 -101C291 -88 314 -62 398 25L384 83C340 65 299 53 254 53C156 53 107 112 107 213C107 222 107 231 108 241L121 250L165 240H485C504 297 512 342 512 384C512 480 460 563 343 563C271 563 209 532 157 480C88 411 42 296 42 194C42 70 114 -5 237 -5C269 -5 304 3 334 17L340 6C237 -65 207 -94 207 -117C207 -132 223 -147 242 -157H376Z" glyph-name="eogonek" horiz-adv-x="542" unicode="&#281;" /><glyph d="M547 455 569 522H141L119 455ZM473 223 495 291H67L45 223Z" glyph-name="equal" horiz-adv-x="555" unicode="=" /><glyph d="M205 -9C259 -9 307 7 349 38C456 117 526 289 526 440C526 516 506 579 469 632L442 642L445 656L493 673L618 761L619 765H537L444 701L428 674H416L411 698C380 724 338 750 299 769L266 718C298 702 325 686 352 664L383 657L381 644L331 626L214 544V541H292L379 603L400 627H412L415 596C447 549 463 495 463 428C463 412 462 395 460 377L448 370L344 441C325 447 307 450 284 450C230 450 181 434 142 405C72 355 29 264 29 172C29 66 95 -9 205 -9ZM213 52C148 52 100 93 100 173C100 272 168 392 287 392C327 392 361 380 446 328C415 194 333 52 213 52Z" glyph-name="eth" horiz-adv-x="555" unicode="&#240;" /><glyph d="M118 228H155L320 654L344 736H249L225 654ZM11 0H118L154 111H47Z" glyph-name="exclam" horiz-adv-x="304" unicode="!" /><glyph d="M350 736H243L207 625H314ZM243 508H206L41 82L17 0H112L136 82Z" glyph-name="exclamdown" horiz-adv-x="304" unicode="&#161;" /><glyph d="M259 433 258 467 269 476 300 464H437L456 525H335L284 511L277 519L291 555C326 652 389 705 471 705C504 705 529 699 552 690L579 751C552 761 519 768 478 768C413 768 358 748 315 711C279 680 251 636 232 578L224 554V523L213 514L183 526H118L99 464H158L199 477L208 465L183 427L50 0H124Z" glyph-name="f" horiz-adv-x="404" unicode="f" /><glyph d="M259 433 258 467 269 476 300 464H437L456 525H335L284 511L277 519L291 555C326 652 389 705 471 705C492 705 510 703 526 698L547 761C526 766 505 768 478 768C413 768 358 748 315 711C279 680 251 636 232 578L224 554V523L213 514L183 526H118L98 464H158L199 477L208 465L183 427L50 0H124Z" glyph-name="f.lig" horiz-adv-x="404" /><glyph d="M259 433 258 467 269 476 300 464H437L456 525H335L284 511L277 519L291 555C326 652 389 705 471 705C504 705 529 699 552 690L579 751C552 761 519 768 478 768C413 768 358 748 315 711C279 680 251 636 232 578L224 554V523L213 514L183 526H118L99 464H158L199 477L208 465L183 427L50 0H124ZM663 433 662 467 673 476 704 464H841L860 525H739L688 511L681 519L695 555C730 652 793 705 875 705C908 705 933 699 956 690L983 751C956 761 923 768 882 768C817 768 762 748 719 711C683 680 655 636 636 578L628 554V523L617 514L587 526H522L503 464H562L603 477L612 465L587 427L454 0H528Z" glyph-name="f_f" horiz-adv-x="808" /><glyph d="M259 433 258 467 269 476 300 464H437L456 525H335L284 511L277 519L291 555C326 652 389 705 471 705C504 705 529 699 552 690L579 751C552 761 519 768 478 768C413 768 358 748 315 711C279 680 251 636 232 578L224 554V523L213 514L183 526H118L99 464H158L199 477L208 465L183 427L50 0H124ZM663 433 662 467 673 476 704 464H841L860 525H739L688 511L681 519L695 555C730 652 793 705 875 705C896 705 914 703 930 698L951 761C930 766 909 768 882 768C817 768 762 748 719 711C683 680 655 636 636 578L628 554V523L617 514L587 526H522L502 464H562L603 477L612 465L587 427L454 0H528ZM1040 662H1101L1123 657L1153 755H1046L1016 657ZM898 0 1073 554 1051 551H1019L999 554L823 0Z" glyph-name="f_f_i" horiz-adv-x="1089" /><glyph d="M259 433 258 467 269 476 300 464H437L456 525H335L284 511L277 519L291 555C326 652 389 705 471 705C504 705 529 699 552 690L579 751C552 761 519 768 478 768C413 768 358 748 315 711C279 680 251 636 232 578L224 554V523L213 514L183 526H118L99 464H158L199 477L208 465L183 427L50 0H124ZM663 433 662 467 673 476 704 464H841L860 525H739L688 511L681 519L695 555C730 652 793 705 875 705C896 705 914 703 930 698L951 761C930 766 909 768 882 768C817 768 762 748 719 711C683 680 655 636 636 578L628 554V523L617 514L587 526H522L502 464H562L603 477L612 465L587 427L454 0H528ZM898 0 1139 765H1064L823 0Z" glyph-name="f_f_l" horiz-adv-x="1089" /><glyph d="M259 433 258 467 269 476 300 464H437L456 525H335L284 511L277 519L291 555C326 652 389 705 471 705C492 705 510 703 526 698L547 761C526 766 505 768 478 768C413 768 358 748 315 711C279 680 251 636 232 578L224 554V523L213 514L183 526H118L98 464H158L199 477L208 465L183 427L50 0H124ZM636 662H697L719 657L749 755H642L612 657ZM494 0 669 554 647 551H615L595 554L419 0Z" glyph-name="fi" horiz-adv-x="685" unicode="&#64257;" /><glyph d="M3 -14C337 14 511 166 511 319C511 402 453 454 358 454C298 454 242 435 189 403L174 416L221 489L276 640L275 671L287 679L322 666H608L630 736H241L107 373L160 340C218 373 276 391 327 391C394 391 430 361 430 308C430 198 292 85 4 53Z" glyph-name="five" horiz-adv-x="568" unicode="5" /><glyph d="M-76 -169C115 -154 228 -69 228 33C228 83 194 114 139 114C104 114 70 104 38 84L28 92L60 142L87 215L89 242L98 249L135 233H285L301 283H63L-18 62L18 41C54 61 85 70 114 70C152 70 172 53 172 24C172 -43 82 -106 -75 -120Z" glyph-name="five.den" horiz-adv-x="355" /><glyph d="M67 285C258 299 371 385 371 487C371 536 337 568 282 568C247 568 213 558 181 537L171 546L203 595L230 669L232 695L241 702L278 686H428L444 736H206L125 516L161 495C197 514 228 524 257 524C295 524 315 507 315 478C315 411 225 348 68 333Z" glyph-name="five.num" horiz-adv-x="355" /><glyph d="M-38 -14C306 15 475 170 475 321C475 402 421 454 327 454C268 454 214 436 162 403L147 416L194 489L251 640L250 670L262 678L297 666H573L595 736H216L80 373L133 340C190 374 246 390 295 390C361 390 393 361 393 312C393 201 263 87 -35 54Z" glyph-name="five.tab" horiz-adv-x="555" /><glyph d="M259 433 258 467 269 476 300 464H437L456 525H335L284 511L277 519L291 555C326 652 389 705 471 705C492 705 510 703 526 698L547 761C526 766 505 768 478 768C413 768 358 748 315 711C279 680 251 636 232 578L224 554V523L213 514L183 526H118L98 464H158L199 477L208 465L183 427L50 0H124ZM494 0 735 765H660L419 0Z" glyph-name="fl" horiz-adv-x="685" unicode="&#64258;" /><glyph d="M93 250 161 303 469 630 511 691H537L493 588L395 282L396 244L384 236L351 247H177L95 235ZM374 0 422 151V189L434 198L468 186H538L559 250H490L446 235L439 246L467 288L611 741H497L41 257L19 186H318L366 199L374 189L348 151L299 0Z" glyph-name="four" horiz-adv-x="612" unicode="4" /><glyph d="M140 -15 120 -9 53 -8 -19 -16 -31 -8 11 23 136 145 203 243 222 255 203 196 158 64 145 -5ZM237 -50 251 -4H218L184 -15L177 -6L199 28L280 289H203L-66 -1L-82 -50H89L125 -40L132 -49L111 -82L88 -157H140L166 -75V-47L173 -42L196 -50Z" glyph-name="four.den" horiz-adv-x="355" /><glyph d="M283 439 263 445 196 446 124 437 112 446 154 477 279 598 346 696 365 708 346 650 301 518 288 449ZM380 403 394 449H361L327 439L320 447L341 482L423 743H346L77 453L61 403H232L268 413L275 405L254 371L231 296H283L309 379V406L316 412L339 403Z" glyph-name="four.num" horiz-adv-x="355" /><glyph d="M45 250 112 303 410 627 453 691H479L436 588L338 282L339 244L327 236L294 247H129L48 235ZM318 0 366 151V189L378 198L411 186H473L494 250H433L390 235L382 246L410 288L552 741H439L-8 256L-30 186H262L310 199L317 189L291 151L244 0Z" glyph-name="four.tab" horiz-adv-x="555" /><glyph d="M89 337 455 734 457 740H387L71 347ZM-362 -161H-293L24 232L6 242L-361 -155Z" glyph-name="fraction" horiz-adv-x="87" unicode="&#8260;" /><glyph d="M252 124C175 124 129 169 129 253C129 311 154 387 200 433C240 473 296 498 359 498C396 498 431 488 463 470L467 452L442 410L381 208L380 170L369 156C314 132 283 124 252 124ZM126 -162C264 -162 362 -81 409 71L563 558H523L485 498H474L446 540C420 552 392 560 356 560C280 560 206 531 150 475C88 413 56 319 56 245C56 134 118 66 222 66C235 66 247 67 258 69L346 117L356 109L353 101C308 -37 236 -101 132 -101C75 -101 29 -83 -19 -56L-53 -113C-2 -142 55 -162 126 -162Z" glyph-name="g" horiz-adv-x="563" unicode="g" /><glyph d="M252 124C175 124 129 169 129 253C129 311 154 387 200 433C240 473 296 498 359 498C396 498 431 488 463 470L467 452L442 410L381 208L380 170L369 156C314 132 283 124 252 124ZM126 -162C264 -162 362 -81 409 71L563 558H523L485 498H474L446 540C420 552 392 560 356 560C280 560 206 531 150 475C88 413 56 319 56 245C56 134 118 66 222 66C235 66 247 67 258 69L346 117L356 109L353 101C308 -37 236 -101 132 -101C75 -101 29 -83 -19 -56L-53 -113C-2 -142 55 -162 126 -162ZM400 651C497 651 560 703 587 792H534C510 740 470 711 410 711C344 711 320 740 329 792H277C254 704 306 651 400 651Z" glyph-name="gbreve" horiz-adv-x="563" unicode="&#287;" /><glyph d="M252 124C175 124 129 169 129 253C129 311 154 387 200 433C240 473 296 498 359 498C396 498 431 488 463 470L467 452L442 410L381 208L380 170L369 156C314 132 283 124 252 124ZM126 -162C264 -162 362 -81 409 71L563 558H523L485 498H474L446 540C420 552 392 560 356 560C280 560 206 531 150 475C88 413 56 319 56 245C56 134 118 66 222 66C235 66 247 67 258 69L346 117L356 109L353 101C308 -37 236 -101 132 -101C75 -101 29 -83 -19 -56L-53 -113C-2 -142 55 -162 126 -162ZM598 792H533L437 731L409 702H393L377 731L317 792H267L266 788L348 652H431L597 788Z" glyph-name="gcaron" horiz-adv-x="563" unicode="&#487;" /><glyph d="M252 124C175 124 129 169 129 253C129 311 154 387 200 433C240 473 296 498 359 498C396 498 431 488 463 470L467 452L442 410L381 208L380 170L369 156C314 132 283 124 252 124ZM126 -162C264 -162 362 -81 409 71L563 558H523L485 498H474L446 540C420 552 392 560 356 560C280 560 206 531 150 475C88 413 56 319 56 245C56 134 118 66 222 66C235 66 247 67 258 69L346 117L356 109L353 101C308 -37 236 -101 132 -101C75 -101 29 -83 -19 -56L-53 -113C-2 -142 55 -162 126 -162ZM222 652H288L384 713L412 742H427L444 713L503 652H554L555 656L472 792H389L223 656Z" glyph-name="gcircumflex" horiz-adv-x="563" unicode="&#285;" /><glyph d="M252 124C175 124 129 169 129 253C129 311 154 387 200 433C240 473 296 498 359 498C396 498 431 488 463 470L467 452L442 410L381 208L380 170L369 156C314 132 283 124 252 124ZM126 -162C264 -162 362 -81 409 71L563 558H523L485 498H474L446 540C420 552 392 560 356 560C280 560 206 531 150 475C88 413 56 319 56 245C56 134 118 66 222 66C235 66 247 67 258 69L346 117L356 109L353 101C308 -37 236 -101 132 -101C75 -101 29 -83 -19 -56L-53 -113C-2 -142 55 -162 126 -162ZM441 652 478 766H371L335 652Z" glyph-name="gdotaccent" horiz-adv-x="563" unicode="&#289;" /><glyph d="M577 179C577 270 514 324 424 371L428 381C571 418 661 513 661 619C661 705 591 769 477 769C353 769 271 688 225 555L224 523L214 514L183 526H118L99 464H158L200 477L208 465L183 427L50 0H124L288 527C324 640 381 708 472 708C543 708 588 670 588 610C588 533 527 451 372 410L354 352C450 306 506 250 506 179C506 115 461 55 378 55C338 55 298 67 265 86L233 29C274 7 325 -7 377 -7C495 -7 577 71 577 179Z" glyph-name="germandbls" horiz-adv-x="667" unicode="&#223;" /><glyph d="M346 652H402L403 656L298 782H167L165 778Z" glyph-name="grave" horiz-adv-x="500" unicode="`" /><glyph d="M210 821 211 826 99 945H-43L-44 940L141 821Z" glyph-name="grave.cap" horiz-adv-x="0" /><glyph d="M517 340 539 407 179 619 156 549 408 407 469 390 461 366 390 352 48 209 22 127Z" glyph-name="greater" horiz-adv-x="555" unicode="&gt;" /><glyph d="M370 355 348 288 519 106 547 127 453 278 417 311 421 327 479 351 665 508 645 538ZM94 355 72 288 243 106 272 127 178 278 141 311 146 327 204 351 389 508 370 538Z" glyph-name="guillemotleft" horiz-adv-x="662" unicode="&#171;" /><glyph d="M386 405 364 338 535 156 563 177 469 328 433 361 437 377 495 401 681 558 661 588ZM110 405 88 338 259 156 288 177 194 328 157 361 162 377 220 401 405 558 386 588Z" glyph-name="guillemotleft.cap" horiz-adv-x="662" /><glyph d="M325 288 346 355 175 538 147 516 241 366 278 332 273 317 215 291 29 135 49 106ZM600 288 622 355 450 538 422 516 517 366 553 332 548 317 491 291 305 135 325 106Z" glyph-name="guillemotright" horiz-adv-x="662" unicode="&#187;" /><glyph d="M341 338 362 405 191 588 163 566 257 416 294 382 289 367 231 341 45 185 65 156ZM616 338 638 405 466 588 438 566 533 416 569 382 564 367 507 341 321 185 341 156Z" glyph-name="guillemotright.cap" horiz-adv-x="662" /><glyph d="M95 357 72 289 244 107 272 128 178 279 141 312 147 328 203 351 389 507 369 538Z" glyph-name="guilsinglleft" horiz-adv-x="387" unicode="&#8249;" /><glyph d="M111 407 88 339 260 157 288 178 194 329 157 362 163 378 219 401 405 557 385 588Z" glyph-name="guilsinglleft.cap" horiz-adv-x="387" /><glyph d="M324 287 347 355 175 538 147 516 241 366 277 332 273 317 216 292 30 137 50 107Z" glyph-name="guilsinglright" horiz-adv-x="387" unicode="&#8250;" /><glyph d="M340 337 363 405 191 588 163 566 257 416 293 382 289 367 232 342 46 187 66 157Z" glyph-name="guilsinglright.cap" horiz-adv-x="387" /><glyph d="M202 405 205 447 222 468C271 490 307 498 342 498C416 498 454 463 454 402C454 376 447 344 437 313L339 0H413L507 301C521 344 529 379 529 410C529 507 469 561 372 561C349 561 330 557 310 550L230 500L220 509L253 567L315 765H241L0 0H74Z" glyph-name="h" horiz-adv-x="577" unicode="h" /><glyph d="M183 351 187 392 203 412C250 433 288 442 322 442C396 442 436 410 436 347C436 322 429 289 419 258L338 0H412L490 246C504 289 512 325 512 357C512 451 454 505 355 505C332 505 313 501 293 495L212 445L202 454L232 508L259 593V623L271 633L298 622H449L467 677H323L282 664L274 676L300 715L315 765H241L223 708L224 675L213 666L184 677H118L100 622H161L202 635L209 623L183 583L0 0H74Z" glyph-name="hbar" horiz-adv-x="577" unicode="&#295;" /><glyph d="M202 405 205 447 222 468C271 490 307 498 342 498C416 498 454 463 454 402C454 376 447 344 437 313L339 0H413L507 301C521 344 529 379 529 410C529 507 469 561 372 561C349 561 330 557 310 550L230 500L220 509L253 567L315 765H241L0 0H74ZM127 817H193L289 878L317 907H332L349 878L408 817H459L460 821L377 957H294L128 821Z" glyph-name="hcircumflex" horiz-adv-x="577" unicode="&#293;" /><glyph d="M276 652 501 778 503 782H371L221 656L220 652ZM488 652 712 778 714 782H583L433 656L432 652Z" glyph-name="hungarumlaut" horiz-adv-x="500" unicode="&#733;" /><glyph d="M69 821 310 940 312 945H169L11 826L10 821ZM296 821 537 940 539 945H396L238 826L237 821Z" glyph-name="hungarumlaut.cap" horiz-adv-x="0" /><glyph d="M309 283 333 361H77L53 283Z" glyph-name="hyphen" horiz-adv-x="359" unicode="-" /><glyph d="M326 334 350 412H94L70 334Z" glyph-name="hyphen.cap" horiz-adv-x="359" /><glyph d="M232 662H293L315 657L345 755H238L208 657ZM90 0 265 554 243 551H211L191 554L15 0Z" glyph-name="i" horiz-adv-x="281" unicode="i" /><glyph d="M191 554 15 0H90L265 554L243 551H212ZM313 652 350 766H243L207 652Z" glyph-name="i.dot" horiz-adv-x="281" /><glyph d="M191 554 15 0H90L265 554L243 551H212ZM294 652 542 778 544 782H385L227 656L226 652Z" glyph-name="iacute" horiz-adv-x="281" unicode="&#237;" /><glyph d="M191 554 15 0H90L265 554L243 551H212ZM272 651C369 651 432 703 459 792H406C382 740 342 711 282 711C216 711 192 740 201 792H149C126 704 178 651 272 651Z" glyph-name="ibreve" horiz-adv-x="281" unicode="&#301;" /><glyph d="M191 554 15 0H90L265 554L243 551H212ZM94 652H160L256 713L284 742H299L316 713L375 652H426L427 656L344 792H261L95 656Z" glyph-name="icircumflex" horiz-adv-x="281" unicode="&#238;" /><glyph d="M191 554 15 0H90L265 554L243 551H212ZM315 652H411L446 762H350ZM108 652H204L239 762H143Z" glyph-name="idieresis" horiz-adv-x="281" unicode="&#239;" /><glyph d="M191 554 15 0H90L265 554L243 551H212ZM237 652H293L294 656L189 782H58L56 778Z" glyph-name="igrave" horiz-adv-x="281" unicode="&#236;" /><glyph d="M191 554 15 0H90L265 554L243 551H212ZM126 662H401L420 722H144Z" glyph-name="imacron" horiz-adv-x="281" unicode="&#299;" /><glyph d="M233 662H293L315 657L346 755H238L208 657ZM93 -157 96 -147C26 -125 9 -113 9 -101C9 -90 20 -75 90 0L265 554L243 551H212L191 554L19 12L44 5L40 -7C-48 -67 -76 -96 -76 -117C-76 -132 -60 -147 -41 -157Z" glyph-name="iogonek" horiz-adv-x="281" unicode="&#303;" /><glyph d="M191 554 15 0H90L265 554L243 551H212ZM108 646C160 712 183 734 205 734C222 734 231 726 268 694C309 658 324 649 352 649C397 649 433 688 492 775L456 797C403 731 382 708 360 708C344 708 335 716 296 749C255 784 242 794 213 794C167 794 132 755 72 668Z" glyph-name="itilde" horiz-adv-x="281" unicode="&#297;" /><glyph d="M236 662H296L318 657L349 755H241L211 657ZM-98 -165C33 -87 85 -30 136 131L270 554L248 551H216L196 554L63 135C22 4 -20 -43 -131 -115Z" glyph-name="j" horiz-adv-x="281" unicode="j" /><glyph d="M-98 -165C33 -87 85 -30 136 131L270 554L248 551H216L196 554L63 135C22 4 -20 -43 -131 -115ZM98 652H164L260 713L288 742H303L320 713L379 652H430L431 656L348 792H265L99 656Z" glyph-name="jcircumflex" horiz-adv-x="281" unicode="&#309;" /><glyph d="M74 0 140 208 141 255 154 265H225L231 244L356 0H430L432 8L300 258L273 280L278 294L319 316L584 546L587 554H496L248 333L229 312H168L159 325L195 378L316 765H242L0 0Z" glyph-name="k" horiz-adv-x="531" unicode="k" /><glyph d="M90 0 331 765H256L15 0Z" glyph-name="l" horiz-adv-x="281" unicode="l" /><glyph d="M90 0 331 765H256L15 0ZM355 850 603 976 605 980H446L288 854L287 850Z" glyph-name="lacute" horiz-adv-x="281" unicode="&#314;" /><glyph d="M90 0 331 765H256L15 0ZM351 585 384 574 534 752 538 765H443Z" glyph-name="lcaron" horiz-adv-x="281" unicode="&#318;" /><glyph d="M459 197 207 340 146 357 154 380 226 395 567 537 593 619 98 407 77 339 436 127Z" glyph-name="less" horiz-adv-x="555" unicode="&lt;" /><glyph d="M136 0 245 346 241 373 251 383 276 380 393 428 417 505 316 462 272 429 261 437 288 480 377 765H303L201 438L205 412L195 402L170 404L53 356L29 279L129 322L174 356L186 348L158 304L62 0Z" glyph-name="lslash" horiz-adv-x="375" unicode="&#322;" /><glyph d="M201 407 205 447 223 469C268 490 305 498 337 498C406 498 443 465 443 408C443 384 436 352 426 319L326 0H400L497 309C511 354 518 390 518 421C518 428 518 435 517 442L537 467C575 484 617 498 657 498C731 498 769 463 769 404C769 379 762 349 753 319L652 0H727L823 307C836 350 844 383 844 416C844 508 788 560 689 560C659 560 626 555 601 547L507 479C487 531 437 560 370 560C346 560 319 556 298 549L225 495H214L217 558H176L0 0H74Z" glyph-name="m" horiz-adv-x="890" unicode="m" /><glyph d="M202 662H542L561 722H221Z" glyph-name="macron" horiz-adv-x="500" unicode="&#175;" /><glyph d="M369 832 388 893H1L-18 832Z" glyph-name="macron.cap" horiz-adv-x="0" /><glyph d="M336 832 355 893H34L15 832Z" glyph-name="macron.capnrw" horiz-adv-x="0" /><glyph d="M-15 662H260L279 722H3Z" glyph-name="macron.nrw" horiz-adv-x="0" /><glyph d="M127 333 165 451H74L37 333Z" glyph-name="middotcat" horiz-adv-x="129" /><glyph d="M34 354H139L177 473H72Z" glyph-name="middotcat.cap" horiz-adv-x="211" /><glyph d="M518 336 542 409H95L72 336Z" glyph-name="minus" horiz-adv-x="555" unicode="&#8722;" /><glyph d="M461 191 368 343 340 365 346 380 384 392 573 540 535 591 352 443 327 409H312L301 442L211 591L154 554L248 402L274 381L269 365L231 352L41 204L79 153L263 301L288 336H303L313 304L405 154Z" glyph-name="multiply" horiz-adv-x="555" unicode="&#215;" /><glyph d="M202 405 205 447 222 468C271 490 307 498 342 498C416 498 454 463 454 402C454 376 447 344 437 313L339 0H413L507 301C521 344 529 379 529 410C529 507 470 561 370 561C345 561 324 557 302 549L224 495H213L217 558H176L0 0H74Z" glyph-name="n" horiz-adv-x="577" unicode="n" /><glyph d="M202 405 205 447 222 468C271 490 307 498 342 498C416 498 454 463 454 402C454 376 447 344 437 313L339 0H413L507 301C521 344 529 379 529 410C529 507 470 561 370 561C345 561 324 557 302 549L224 495H213L217 558H176L0 0H74ZM436 652 684 778 686 782H527L369 656L368 652Z" glyph-name="nacute" horiz-adv-x="577" unicode="&#324;" /><glyph d="M202 405 205 447 222 468C271 490 307 498 342 498C416 498 454 463 454 402C454 376 447 344 437 313L339 0H413L507 301C521 344 529 379 529 410C529 507 470 561 370 561C345 561 324 557 302 549L224 495H213L217 558H176L0 0H74ZM614 792H549L453 731L425 702H409L393 731L333 792H283L282 788L364 652H447L613 788Z" glyph-name="ncaron" horiz-adv-x="577" unicode="&#328;" /><glyph d="M90 -17C230 24 347 95 416 166C515 267 577 398 577 529C578 670 495 745 376 745C217 745 117 601 117 458C117 354 178 275 288 275C301 275 315 277 329 280L444 321L452 312C360 181 225 103 66 45ZM370 680C451 680 505 625 505 528C505 483 494 422 471 367C415 344 363 335 324 335C232 335 191 390 191 464C191 564 257 680 370 680Z" glyph-name="nine" horiz-adv-x="574" unicode="9" /><glyph d="M-27 -170C48 -147 120 -108 172 -53C232 9 265 91 265 165C265 249 217 292 147 292C55 292 -12 206 -12 114C-12 52 24 9 88 9C95 9 101 10 108 11L179 39L184 30C135 -42 55 -94 -42 -126ZM215 165C215 138 209 104 194 68C165 57 136 49 113 49C61 49 40 80 40 119C40 185 85 246 143 246C187 246 215 216 215 165Z" glyph-name="nine.den" horiz-adv-x="355" /><glyph d="M116 283C191 306 263 346 315 400C375 463 407 544 407 618C407 702 360 745 290 745C198 745 131 660 131 568C131 506 167 463 231 463C237 463 244 463 251 464L321 493L327 484C275 409 195 358 101 327ZM358 618C358 592 351 557 337 522C307 510 279 503 256 503C204 503 182 533 182 572C182 639 228 700 286 700C330 700 358 670 358 618Z" glyph-name="nine.num" horiz-adv-x="355" /><glyph d="M66 -18C168 16 284 79 367 165C470 273 531 410 531 541C531 673 458 745 348 745C192 745 87 599 87 452C87 350 143 275 251 275C261 275 272 277 283 279L391 323L401 311C310 185 181 95 40 43ZM341 680C414 680 458 627 458 539C458 490 443 423 419 367C365 346 320 334 287 334C199 334 161 389 161 461C161 566 234 680 341 680Z" glyph-name="nine.tab" horiz-adv-x="555" /><glyph d="M121 84 211 200 217 228 226 233 252 223H474L496 291H316L267 277L263 291L307 325L392 431L398 460L408 465L433 455H548L570 522H498L450 509L446 522L490 557L571 661H494L404 546L398 517L389 512L363 522H142L120 455H299L348 468L353 455L309 420L223 314L217 286L208 280L182 291H67L46 223H117L165 236L170 223L126 188L44 84Z" glyph-name="notequal" horiz-adv-x="555" unicode="&#8800;" /><glyph d="M202 405 205 447 222 468C271 490 307 498 342 498C416 498 454 463 454 402C454 376 447 344 437 313L339 0H413L507 301C521 344 529 379 529 410C529 507 470 561 370 561C345 561 324 557 302 549L224 495H213L217 558H176L0 0H74ZM251 646C303 712 326 734 348 734C365 734 374 726 411 694C452 658 467 649 495 649C540 649 576 688 635 775L599 797C546 731 525 708 503 708C487 708 478 716 439 749C398 784 385 794 356 794C310 794 275 755 215 668Z" glyph-name="ntilde" horiz-adv-x="577" unicode="&#241;" /><glyph d="M68 -6 421 742H369L291 576L283 541L274 535L249 543L149 550L130 489L209 486L253 494L258 486L227 443L159 297L150 261L142 256L114 265L27 269L4 209L78 206L120 215L126 206L96 165L16 -6ZM243 -6 321 161 330 197 338 202 369 193 462 187 482 247 401 252 360 243 354 251 385 294 454 440 462 476 471 482 502 472 588 467 608 528 535 531 491 522 486 531 517 573 596 742H544L191 -6Z" glyph-name="numbersign" horiz-adv-x="556" unicode="#" /><glyph d="M215 -9C286 -9 346 21 395 71C465 141 511 262 511 364C511 484 451 563 337 563C267 563 206 532 157 483C87 413 41 292 41 189C41 70 102 -9 215 -9ZM222 54C145 54 112 112 112 189C112 274 152 386 210 444C244 478 284 499 330 499C407 499 440 442 440 364C440 279 400 167 342 109C308 75 268 54 222 54Z" glyph-name="o" horiz-adv-x="552" unicode="o" /><glyph d="M215 -9C286 -9 346 21 395 71C465 141 511 262 511 364C511 484 451 563 337 563C267 563 206 532 157 483C87 413 41 292 41 189C41 70 102 -9 215 -9ZM222 54C145 54 112 112 112 189C112 274 152 386 210 444C244 478 284 499 330 499C407 499 440 442 440 364C440 279 400 167 342 109C308 75 268 54 222 54ZM423 652 671 778 673 782H514L356 656L355 652Z" glyph-name="oacute" horiz-adv-x="552" unicode="&#243;" /><glyph d="M215 -9C286 -9 346 21 395 71C465 141 511 262 511 364C511 484 451 563 337 563C267 563 206 532 157 483C87 413 41 292 41 189C41 70 102 -9 215 -9ZM222 54C145 54 112 112 112 189C112 274 152 386 210 444C244 478 284 499 330 499C407 499 440 442 440 364C440 279 400 167 342 109C308 75 268 54 222 54ZM403 651C500 651 563 703 590 792H537C513 740 473 711 413 711C347 711 323 740 332 792H280C257 704 309 651 403 651Z" glyph-name="obreve" horiz-adv-x="552" unicode="&#335;" /><glyph d="M215 -9C286 -9 346 21 395 71C465 141 511 262 511 364C511 484 451 563 337 563C267 563 206 532 157 483C87 413 41 292 41 189C41 70 102 -9 215 -9ZM222 54C145 54 112 112 112 189C112 274 152 386 210 444C244 478 284 499 330 499C407 499 440 442 440 364C440 279 400 167 342 109C308 75 268 54 222 54ZM225 652H291L387 713L415 742H430L447 713L506 652H557L558 656L475 792H392L226 656Z" glyph-name="ocircumflex" horiz-adv-x="552" unicode="&#244;" /><glyph d="M215 -9C286 -9 346 21 395 71C465 141 511 262 511 364C511 484 451 563 337 563C267 563 206 532 157 483C87 413 41 292 41 189C41 70 102 -9 215 -9ZM222 54C145 54 112 112 112 189C112 274 152 386 210 444C244 478 284 499 330 499C407 499 440 442 440 364C440 279 400 167 342 109C308 75 268 54 222 54ZM446 652H542L577 762H481ZM239 652H335L370 762H274Z" glyph-name="odieresis" horiz-adv-x="552" unicode="&#246;" /><glyph d="M770 280 737 292H530L490 280L479 294C499 355 530 411 564 446C601 483 646 507 691 507C766 507 794 445 794 372C794 348 790 319 784 291ZM214 54C144 54 113 111 113 188C113 274 150 383 211 446C243 479 282 499 326 499C395 499 425 443 425 366C425 280 389 168 330 109C300 79 260 54 214 54ZM412 151H421C439 50 495 -7 599 -7C647 -7 695 5 744 27L730 83C688 66 650 53 606 53C512 53 465 113 465 215C465 223 465 231 466 240L480 250L524 240H832C851 297 859 343 859 383C859 475 813 563 705 563C613 563 529 500 481 405H470C464 503 416 563 327 563C265 563 206 534 157 485C84 410 41 287 41 187C41 70 99 -9 199 -9C289 -9 369 60 412 151Z" glyph-name="oe" horiz-adv-x="889" unicode="&#339;" /><glyph d="M73 -157H207L210 -147C141 -125 123 -113 123 -101C123 -90 134 -75 204 0L175 19C63 -70 39 -97 39 -117C39 -132 54 -147 73 -157Z" glyph-name="ogonek" horiz-adv-x="500" unicode="&#731;" /><glyph d="M215 -9C286 -9 346 21 395 71C465 141 511 262 511 364C511 484 451 563 337 563C267 563 206 532 157 483C87 413 41 292 41 189C41 70 102 -9 215 -9ZM222 54C145 54 112 112 112 189C112 274 152 386 210 444C244 478 284 499 330 499C407 499 440 442 440 364C440 279 400 167 342 109C308 75 268 54 222 54ZM368 652H424L425 656L320 782H189L187 778Z" glyph-name="ograve" horiz-adv-x="552" unicode="&#242;" /><glyph d="M395 71C463 139 510 255 510 351C510 419 483 474 431 504L438 517C453 515 469 515 483 515C562 515 614 533 707 701L649 728C557 570 524 554 460 554H342C270 554 206 525 155 473C85 404 40 288 40 189C40 71 100 -9 214 -9C284 -9 345 21 395 71ZM222 54C145 54 111 112 111 189C111 272 150 379 207 436C242 471 282 494 328 494C398 494 438 441 438 355C438 265 392 160 342 110C308 76 267 54 222 54Z" glyph-name="ohorn" horiz-adv-x="556" unicode="&#417;" /><glyph d="M215 -9C286 -9 346 21 395 71C465 141 511 262 511 364C511 484 451 563 337 563C267 563 206 532 157 483C87 413 41 292 41 189C41 70 102 -9 215 -9ZM222 54C145 54 112 112 112 189C112 274 152 386 210 444C244 478 284 499 330 499C407 499 440 442 440 364C440 279 400 167 342 109C308 75 268 54 222 54ZM298 652 523 778 525 782H393L243 656L242 652ZM510 652 734 778 736 782H605L455 656L454 652Z" glyph-name="ohungarumlaut" horiz-adv-x="552" unicode="&#337;" /><glyph d="M215 -9C286 -9 346 21 395 71C465 141 511 262 511 364C511 484 451 563 337 563C267 563 206 532 157 483C87 413 41 292 41 189C41 70 102 -9 215 -9ZM222 54C145 54 112 112 112 189C112 274 152 386 210 444C244 478 284 499 330 499C407 499 440 442 440 364C440 279 400 167 342 109C308 75 268 54 222 54ZM224 662H564L583 722H243Z" glyph-name="omacron" horiz-adv-x="552" unicode="&#333;" /><glyph d="M201 0 435 741H365L149 647L161 590L335 661L344 648L312 599L123 0Z" glyph-name="one" horiz-adv-x="428" unicode="1" /><glyph d="M109 -71 220 286H175L32 234L41 192L148 230L156 220L128 177L47 -83L48 -114L39 -121L13 -109H-68L-83 -157H177L192 -109H130L91 -121L84 -111Z" glyph-name="one.den" horiz-adv-x="355" /><glyph d="M251 383 363 739H318L175 687L184 645L291 684L299 673L271 630L190 370L191 340L182 333L156 344H75L60 296H320L335 344H273L234 333L227 343Z" glyph-name="one.num" horiz-adv-x="355" /><glyph d="M398 0 420 69H290L243 57L236 68L262 111L461 741H391L170 652L176 594L362 661L369 649L336 598L181 104V67L169 57L136 69H-17L-39 0Z" glyph-name="one.tab" horiz-adv-x="555" /><glyph d="M251 383 363 739H318L175 687L184 645L291 684L299 673L271 630L190 370L191 340L182 333L156 344H75L60 296H320L335 344H273L234 333L227 343ZM462 337 828 734 830 740H760L444 347ZM11 -161H80L397 232L379 242L12 -155ZM662 -157 678 -105H539L452 -125L448 -107L611 18C702 84 739 136 739 194C739 253 694 288 628 288C572 288 521 261 479 218L508 181C545 217 581 237 619 237C657 237 681 219 681 186C681 148 653 108 588 55L389 -106L397 -157Z" glyph-name="onehalf" horiz-adv-x="826" unicode="&#189;" /><glyph d="M251 383 363 739H318L175 687L184 645L291 684L299 673L271 630L190 370L191 340L182 333L156 344H75L60 296H320L335 344H273L234 333L227 343ZM462 337 828 734 830 740H760L444 347ZM11 -161H80L397 232L379 242L12 -155ZM595 -15 575 -9 508 -8 436 -16 424 -8 466 23 591 145 658 243 677 255 658 196 613 64 600 -5ZM692 -50 706 -4H673L639 -15L632 -6L654 28L735 289H658L389 -1L373 -50H544L580 -40L587 -49L566 -82L543 -157H595L621 -75V-47L628 -42L651 -50Z" glyph-name="onequarter" horiz-adv-x="809" unicode="&#188;" /><glyph d="M251 383 363 739H318L175 687L184 645L291 684L299 673L271 630L190 370L191 340L182 333L156 344H75L60 296H320L335 344H273L234 333L227 343ZM462 337 828 734 830 740H760L444 347ZM11 -161H80L397 232L379 242L12 -155ZM389 -162C414 -162 437 -161 458 -159C617 -148 694 -88 694 -19C694 30 650 60 571 68L573 78C689 105 754 149 754 209C754 256 713 289 641 289C594 289 547 276 502 254L516 211C556 231 594 242 632 242C670 242 696 227 696 200C696 160 649 124 515 92L508 49C595 44 636 23 636 -15C636 -61 580 -104 453 -112C437 -114 418 -115 398 -115Z" glyph-name="onethird" horiz-adv-x="829" unicode="&#8531;" /><glyph d="M303 394C243 394 210 419 210 461C210 481 217 501 232 515C258 541 306 557 376 557C400 557 438 552 468 545L473 537L455 510L441 466L443 448L438 437C392 408 344 394 303 394ZM361 360 428 406 431 355H477L489 435L538 590C543 608 547 626 547 642C547 707 499 743 401 743C357 743 314 736 276 725L279 677C313 688 356 694 393 694C466 694 492 671 492 632C492 620 489 605 485 591L480 577L470 571L448 584C417 591 386 594 361 594C283 594 222 574 189 541C166 518 155 488 155 456C155 389 211 350 291 350C316 350 338 354 361 360ZM51 175H437L452 222H66Z" glyph-name="ordfeminine" horiz-adv-x="555" unicode="&#170;" /><glyph d="M326 348C460 348 553 472 553 589C553 684 488 745 396 745C262 745 169 622 169 504C169 409 234 348 326 348ZM331 398C275 398 229 435 229 507C229 596 296 695 390 695C447 695 492 658 492 586C492 498 426 398 331 398ZM432 175 447 222H72L57 175Z" glyph-name="ordmasculine" horiz-adv-x="556" unicode="&#186;" /><glyph d="M100 152C102 276 146 386 206 446C243 482 286 504 335 504C369 504 401 492 429 469L425 454L384 429L143 162L117 117H102C100 129 100 142 100 152ZM216 49C182 49 150 61 122 84L126 99L167 125L408 392L434 437H450C452 425 452 412 452 401C449 280 405 167 345 108C309 71 266 49 216 49ZM-18 -72 59 10 88 57H99L105 27C133 5 170 -9 216 -9C285 -9 345 21 395 71C468 143 511 264 511 364C511 394 506 427 498 451L476 464L480 476L520 501L636 621L637 624H569L493 543L464 497H453L447 527C419 549 383 563 336 563C267 563 207 533 156 483C85 411 41 291 41 189C41 159 45 127 54 102L76 89L72 78L32 53L-85 -69V-72Z" glyph-name="oslash" horiz-adv-x="552" unicode="&#248;" /><glyph d="M100 152C102 276 146 386 206 446C243 482 286 504 335 504C369 504 401 492 429 469L425 454L384 429L143 162L117 117H102C100 129 100 142 100 152ZM216 49C182 49 150 61 122 84L126 99L167 125L408 392L434 437H450C452 425 452 412 452 401C449 280 405 167 345 108C309 71 266 49 216 49ZM-18 -72 59 10 88 57H99L105 27C133 5 170 -9 216 -9C285 -9 345 21 395 71C468 143 511 264 511 364C511 394 506 427 498 451L476 464L480 476L520 501L636 621L637 624H569L493 543L464 497H453L447 527C419 549 383 563 336 563C267 563 207 533 156 483C85 411 41 291 41 189C41 159 45 127 54 102L76 89L72 78L32 53L-85 -69V-72ZM424 651 672 777 674 781H515L357 655L356 651Z" glyph-name="oslashacute" horiz-adv-x="552" unicode="&#511;" /><glyph d="M215 -9C286 -9 346 21 395 71C465 141 511 262 511 364C511 484 451 563 337 563C267 563 206 532 157 483C87 413 41 292 41 189C41 70 102 -9 215 -9ZM222 54C145 54 112 112 112 189C112 274 152 386 210 444C244 478 284 499 330 499C407 499 440 442 440 364C440 279 400 167 342 109C308 75 268 54 222 54ZM239 646C291 712 314 734 336 734C353 734 362 726 399 694C440 658 455 649 483 649C528 649 564 688 623 775L587 797C534 731 513 708 491 708C475 708 466 716 427 749C386 784 373 794 344 794C298 794 263 755 203 668Z" glyph-name="otilde" horiz-adv-x="552" unicode="&#245;" /><glyph d="M200 68C166 68 134 78 105 97L101 119L124 157L200 405L202 445L221 467C268 489 299 499 328 499C401 499 446 452 446 365C446 286 409 185 355 131C314 90 262 68 200 68ZM25 -157 76 2 80 61 96 68 128 27C152 14 174 6 208 6C285 6 353 36 406 89C475 157 517 275 517 369C517 484 461 560 354 560C340 560 326 558 315 555L223 493H212L216 558H176L-50 -157Z" glyph-name="p" horiz-adv-x="558" unicode="p" /><glyph d="M347 -156 629 736H443C218 736 100 559 100 397C100 286 165 212 278 212H285L424 652L425 690L437 698L466 687H515L561 699L568 688L541 644L288 -156Z" glyph-name="paragraph" horiz-adv-x="575" unicode="&#182;" /><glyph d="M247 -92C175 -16 139 95 139 210C139 408 271 600 501 722L482 763C227 651 72 429 72 207C72 83 119 -47 213 -126Z" glyph-name="parenleft" horiz-adv-x="416" unicode="(" /><glyph d="M262 -47C190 29 154 140 154 255C154 453 286 645 516 767L497 808C242 696 87 474 87 252C87 128 134 -2 228 -81Z" glyph-name="parenleft.cap" horiz-adv-x="416" /><glyph d="M193 730C266 654 302 543 302 428C302 230 169 38 -61 -84L-41 -125C213 -13 369 210 369 431C369 555 322 685 227 764Z" glyph-name="parenright" horiz-adv-x="416" unicode=")" /><glyph d="M208 775C281 699 317 588 317 473C317 275 184 83 -46 -39L-26 -80C228 32 384 255 384 476C384 600 337 730 242 809Z" glyph-name="parenright.cap" horiz-adv-x="416" /><glyph d="M740 712 699 748 398 404 415 389ZM293 400C352 448 389 547 389 621C389 698 349 741 287 742C253 742 223 730 198 710C139 663 100 563 100 488C100 411 140 368 203 368C238 367 267 379 293 400ZM261 429C246 416 227 409 208 409C170 410 148 437 148 488C148 547 179 639 225 678C242 691 260 700 282 700C320 700 342 673 342 621C342 561 309 467 261 429ZM562 27C621 75 658 174 658 248C658 325 618 368 556 369C522 369 492 357 467 337C408 290 369 190 369 115C369 38 409 -5 472 -5C507 -6 536 6 562 27ZM361 332 344 347 19 23 60 -12ZM530 56C515 43 496 36 477 36C439 37 417 64 417 115C417 174 448 266 494 305C511 318 529 327 551 327C589 327 611 300 611 248C611 188 578 94 530 56Z" glyph-name="percent" horiz-adv-x="702" unicode="%" /><glyph d="M90 0 126 115H20L-16 0Z" glyph-name="period" horiz-adv-x="248" unicode="." /><glyph d="M85 0 121 115H15L-21 0Z" glyph-name="period.tab" horiz-adv-x="278" /><glyph d="M525 340 546 406H391L348 393L340 404L366 444L422 615H350L292 438V401L282 393L251 406H89L68 340H223L266 352L274 342L249 302L193 130H265L323 308L322 344L332 352L363 340Z" glyph-name="plus" horiz-adv-x="555" unicode="+" /><glyph d="M531 376 552 442H403L359 429L352 440L377 479L428 640H357L304 475V437L293 429L263 442H107L86 376H235L279 389L286 378L262 340L210 178H281L335 344L334 381L344 389L374 376ZM410 0 432 68H-7L-29 0Z" glyph-name="plusminus" horiz-adv-x="555" unicode="&#177;" /><glyph d="M332 -157 557 558H517L478 493H466L439 539C413 553 390 560 355 560C275 560 207 531 151 475C84 408 42 289 42 194C42 81 100 6 205 6C216 6 229 8 239 10L334 69L344 59L304 -12L258 -157ZM235 67C161 67 113 110 113 198C113 276 149 379 203 433C245 475 298 497 357 497C392 497 426 486 456 468L459 446L436 407L360 157L359 120L346 104C294 78 262 67 235 67Z" glyph-name="q" horiz-adv-x="558" unicode="q" /><glyph d="M195 228H235L292 348C483 413 581 499 581 602C581 688 513 745 396 745C311 745 234 716 159 666L190 607C259 653 326 676 390 676C461 676 500 645 500 594C500 525 439 459 236 389ZM206 0 241 111H135L100 0Z" glyph-name="question" horiz-adv-x="544" unicode="?" /><glyph d="M394 736 359 625H465L500 736ZM404 507H365L308 388C117 322 19 236 19 134C19 47 86 -9 204 -9C289 -9 366 20 441 69L410 128C341 83 274 60 210 60C139 60 100 91 100 142C100 210 161 277 364 346Z" glyph-name="questiondown" horiz-adv-x="544" unicode="&#191;" /><glyph d="M377 725 380 737H273L111 447L150 434ZM613 725 617 737H510L348 447L387 434Z" glyph-name="quotedbl" horiz-adv-x="519" unicode="&quot;" /><glyph d="M368 727 371 739H264L100 449L138 436ZM605 727 608 739H502L337 449L375 436Z" glyph-name="quotedbl.tab" horiz-adv-x="555" /><glyph d="M166 131 169 143H61L-95 -142L-55 -153ZM403 131 407 143H298L142 -142L182 -153Z" glyph-name="quotedblbase" horiz-adv-x="499" unicode="&#8222;" /><glyph d="M339 479 336 468H444L600 757L561 770ZM108 479 105 468H213L370 757L330 770Z" glyph-name="quotedblleft" horiz-adv-x="505" unicode="&#8220;" /><glyph d="M380 753 382 765H275L119 475L158 463ZM611 753 614 765H506L349 475L388 463Z" glyph-name="quotedblright" horiz-adv-x="505" unicode="&#8221;" /><glyph d="M108 480 106 468H217L373 758L332 771Z" glyph-name="quoteleft" horiz-adv-x="283" unicode="&#8216;" /><glyph d="M387 753 390 765H278L122 476L163 463Z" glyph-name="quoteright" horiz-adv-x="283" unicode="&#8217;" /><glyph d="M172 131 176 143H64L-92 -142L-50 -153Z" glyph-name="quotesinglbase" horiz-adv-x="278" unicode="&#8218;" /><glyph d="M380 725 382 737H272L114 447L155 434Z" glyph-name="quotesingle" horiz-adv-x="283" unicode="'" /><glyph d="M349 727 352 739H240L80 449L121 436Z" glyph-name="quotesingle.tab" horiz-adv-x="278" /><glyph d="M74 0 191 370 192 402 206 418C293 465 357 483 430 488L454 565C400 564 356 554 308 536L212 453H201L216 558H176L0 0Z" glyph-name="r" horiz-adv-x="395" unicode="r" /><glyph d="M74 0 191 370 192 402 206 418C293 465 357 483 430 488L454 565C400 564 356 554 308 536L212 453H201L216 558H176L0 0ZM369 652 617 778 619 782H460L302 656L301 652Z" glyph-name="racute" horiz-adv-x="395" unicode="&#341;" /><glyph d="M74 0 191 370 192 402 206 418C293 465 357 483 430 488L454 565C400 564 356 554 308 536L212 453H201L216 558H176L0 0ZM548 792H483L387 731L359 702H343L327 731L267 792H217L216 788L298 652H381L547 788Z" glyph-name="rcaron" horiz-adv-x="395" unicode="&#345;" /><glyph d="M365 136C562 136 712 326 712 516C712 655 624 768 470 768C274 768 124 576 124 387C124 248 211 136 365 136ZM366 164C231 164 155 261 155 387C155 559 294 740 469 740C603 740 681 642 681 515C681 344 542 164 366 164ZM344 459 360 484 384 561 385 584 392 589H443C494 589 522 575 522 542C522 493 462 453 382 452H348ZM331 392 333 415 340 421H367C405 421 418 409 431 382L477 297H528L529 301L487 374C469 406 455 419 427 429L428 434C508 446 574 491 574 551C574 595 537 626 466 626H360L256 297H301Z" glyph-name="registered" horiz-adv-x="724" unicode="&#174;" /><glyph d="M389 644C470 644 517 697 517 754C517 805 475 844 408 844C328 844 279 792 279 735C279 683 321 644 389 644ZM391 677C343 677 316 703 316 737C316 780 352 811 405 811C453 811 480 786 480 751C480 709 445 677 391 677Z" glyph-name="ring" horiz-adv-x="500" unicode="&#730;" /><glyph d="M190 816C276 816 328 859 332 916C336 969 288 1008 211 1008C127 1008 73 965 69 907C65 855 113 816 190 816ZM192 848C136 848 103 873 105 908C108 947 148 976 208 976C265 976 298 951 295 916C293 876 253 848 192 848Z" glyph-name="ring.cap" horiz-adv-x="0" /><glyph d="M139 644C219 644 265 696 266 752C267 787 247 817 212 833L454 955L455 959H299L155 843C79 843 30 792 29 736C28 683 71 644 139 644ZM141 677C94 677 65 703 66 738C67 779 102 810 155 810C202 810 231 785 230 750C229 709 195 677 141 677Z" glyph-name="ringacute" horiz-adv-x="0" /><glyph d="M205 -8C332 -8 415 65 415 157C415 226 368 266 287 307C215 344 186 368 186 409C186 462 236 502 306 502C360 502 413 479 458 446L497 499C441 538 379 561 312 561C200 561 117 496 117 404C117 335 159 299 243 256C309 221 346 197 346 150C346 93 291 51 212 51C145 51 79 80 32 122L-12 69C48 22 122 -8 205 -8Z" glyph-name="s" horiz-adv-x="517" unicode="s" /><glyph d="M205 -8C332 -8 415 65 415 157C415 226 368 266 287 307C215 344 186 368 186 409C186 462 236 502 306 502C360 502 413 479 458 446L497 499C441 538 379 561 312 561C200 561 117 496 117 404C117 335 159 299 243 256C309 221 346 197 346 150C346 93 291 51 212 51C145 51 79 80 32 122L-12 69C48 22 122 -8 205 -8ZM401 652 649 778 651 782H492L334 656L333 652Z" glyph-name="sacute" horiz-adv-x="517" unicode="&#347;" /><glyph d="M205 -8C332 -8 415 65 415 157C415 226 368 266 287 307C215 344 186 368 186 409C186 462 236 502 306 502C360 502 413 479 458 446L497 499C441 538 379 561 312 561C200 561 117 496 117 404C117 335 159 299 243 256C309 221 346 197 346 150C346 93 291 51 212 51C145 51 79 80 32 122L-12 69C48 22 122 -8 205 -8ZM579 792H514L418 731L390 702H374L358 731L298 792H248L247 788L329 652H412L578 788Z" glyph-name="scaron" horiz-adv-x="517" unicode="&#353;" /><glyph d="M205 -8C332 -8 415 65 415 157C415 226 368 266 287 307C215 344 186 368 186 409C186 462 236 502 306 502C360 502 413 479 458 446L497 499C441 538 379 561 312 561C200 561 117 496 117 404C117 335 159 299 243 256C309 221 346 197 346 150C346 93 291 51 212 51C145 51 79 80 32 122L-12 69C48 22 122 -8 205 -8ZM202 652H268L364 713L392 742H407L424 713L483 652H534L535 656L452 792H369L203 656Z" glyph-name="scircumflex" horiz-adv-x="517" unicode="&#349;" /><glyph d="M301 121 278 149C161 208 128 245 128 289C128 365 198 424 320 479H335L358 451C475 392 508 355 508 312C508 236 438 177 315 121ZM181 -163C315 -163 398 -95 398 -6C398 24 390 52 375 68L339 85L343 96C504 143 580 229 580 323C580 385 542 430 433 490C343 541 311 570 311 610C311 663 362 704 454 704C516 704 574 685 617 659L652 714C605 742 535 763 460 763C321 763 238 693 238 606C238 576 246 548 261 531L297 515L293 503C136 458 56 375 56 279C56 215 95 169 202 111C292 60 325 28 325 -12C325 -67 274 -104 187 -104C120 -104 59 -83 14 -54L-21 -109C29 -140 102 -163 181 -163Z" glyph-name="section" horiz-adv-x="620" unicode="&#167;" /><glyph d="M240 429 277 544H172L135 429ZM165 131 170 143H57L-100 -128L-55 -141Z" glyph-name="semicolon" horiz-adv-x="282" unicode=";" /><glyph d="M578 638 607 736H172L149 664H441L522 680L530 665L459 598L46 24L107 -14Z" glyph-name="seven" horiz-adv-x="521" unicode="7" /><glyph d="M294 217 314 283H35L19 232H198L253 244L259 231L209 186L-35 -145L8 -169Z" glyph-name="seven.den" horiz-adv-x="355" /><glyph d="M437 670 457 736H178L161 685H340L396 697L402 684L352 640L108 308L151 284Z" glyph-name="seven.num" horiz-adv-x="355" /><glyph d="M571 635 602 736H166L143 664H434L515 680L524 665L452 598L37 26L98 -14Z" glyph-name="seven.tab" horiz-adv-x="555" /><glyph d="M254 -9C413 -9 513 133 513 276C513 380 451 461 340 461C327 461 314 459 300 456L186 415L179 424C271 555 400 637 554 691L530 753C420 719 300 659 214 570C116 469 53 338 53 207C53 66 135 -9 254 -9ZM260 56C179 56 126 111 126 208C126 253 136 314 160 369C215 392 267 401 306 401C396 401 439 345 439 270C439 170 374 56 260 56Z" glyph-name="six" horiz-adv-x="574" unicode="6" /><glyph d="M72 -166C163 -166 231 -81 231 12C231 74 195 116 131 116C125 116 118 116 111 115L41 86L35 96C83 168 162 220 256 252L241 296C168 274 98 234 48 181C-13 117 -45 35 -45 -39C-45 -123 2 -166 72 -166ZM4 -39C4 -12 11 22 25 58C55 69 83 76 106 76C158 76 180 46 180 7C180 -59 134 -120 76 -120C32 -120 4 -90 4 -39Z" glyph-name="six.den" horiz-adv-x="355" /><glyph d="M215 288C306 288 374 373 374 465C374 527 338 570 274 570C267 570 261 569 254 568L183 540L178 549C226 621 304 674 399 705L384 750C311 727 241 688 191 634C130 571 97 489 97 415C97 331 145 288 215 288ZM147 415C147 441 153 476 168 511C197 522 226 530 249 530C301 530 322 500 322 460C322 394 277 333 219 333C175 333 147 363 147 415Z" glyph-name="six.num" horiz-adv-x="355" /><glyph d="M209 -9C364 -9 469 137 469 284C469 386 413 461 305 461C295 461 284 459 273 457L165 413L155 425C246 550 372 641 513 693L488 754C383 718 268 652 184 564C84 457 25 324 25 195C25 63 98 -9 209 -9ZM98 197C98 246 113 313 137 369C191 390 236 402 269 402C357 402 395 347 395 275C395 171 322 56 215 56C142 56 98 109 98 197Z" glyph-name="six.tab" horiz-adv-x="555" /><glyph d="M533 770H460L-152 -137H-79Z" glyph-name="slash" horiz-adv-x="395" unicode="/" /><glyph d="M558 807H485L-127 -100H-54Z" glyph-name="slash.cap" horiz-adv-x="395" /><glyph d="M-63 -100 671 807H594L-140 -100Z" glyph-name="slash.tab" horiz-adv-x="555" /><glyph glyph-name="space" horiz-adv-x="278" unicode=" " /><glyph d="M51 0H483L504 68H181L114 50L106 64L153 121L249 296L254 333L263 339L293 329H491L511 392H346L292 379L284 391L322 432L352 487C387 551 422 598 465 628C502 655 547 671 600 671C618 671 632 670 644 667L669 738C654 740 635 742 614 742C536 742 474 722 423 685C368 646 326 591 286 518L235 422L229 388L220 382L192 392H99L79 329H142L193 342L200 330L161 287L31 45Z" glyph-name="sterling" horiz-adv-x="619" unicode="&#163;" /><glyph d="M406 0 428 68H136L70 50L62 64L106 116L199 294L206 333L216 339L246 329H413L432 392H298L241 379L233 391L273 433L304 492C332 543 354 577 382 605C424 647 476 671 542 671C555 671 566 670 577 668L601 737C586 740 571 742 549 742C460 742 387 709 330 652C297 619 269 579 238 521L185 420L181 388L171 382L144 392H45L25 329H94L146 342L152 330L114 287L-12 45L8 0Z" glyph-name="sterling.tab" horiz-adv-x="555" /><glyph d="M299 -1 317 63C307 61 289 59 278 59C203 59 169 85 169 146C169 165 173 193 182 224L256 460V493L266 501L297 490H446L465 551H324L281 539L273 550L298 591L341 731H267L221 581L223 548L212 540L182 551H121L101 490H155L197 502L205 491L180 450L112 233C100 197 93 163 93 132C93 43 148 -5 259 -5C274 -5 289 -3 299 -1Z" glyph-name="t" horiz-adv-x="434" unicode="t" /><glyph d="M299 -1 317 63C307 61 289 59 278 59C205 59 168 83 168 149C168 178 175 212 188 257L193 272L202 279L231 267H360L377 320H249L206 307L198 318L223 354L257 461L256 494L267 501L297 490H446L465 551H324L281 539L273 550L298 590L341 731H267L221 581L223 548L212 540L181 551H121L102 490H153L198 502L205 491L180 451L148 349L149 315L139 308L110 320H48L32 267H87L128 280L136 268L112 235C99 192 93 162 93 132C93 43 148 -5 259 -5C274 -5 289 -3 299 -1Z" glyph-name="tbar" horiz-adv-x="434" unicode="&#359;" /><glyph d="M299 -1 317 63C307 61 289 59 278 59C203 59 169 85 169 146C169 165 173 193 182 224L256 460V493L266 501L297 490H446L465 551H324L281 539L273 550L298 591L341 731H267L221 581L223 548L212 540L182 551H121L101 490H155L197 502L205 491L180 450L112 233C100 197 93 163 93 132C93 43 148 -5 259 -5C274 -5 289 -3 299 -1ZM399 653 432 642 582 820 586 833H491Z" glyph-name="tcaron" horiz-adv-x="434" unicode="&#357;" /><glyph d="M200 68C166 68 134 79 105 97L101 118L124 157L200 406L202 446L219 466C265 488 297 499 326 499C401 499 446 452 446 365C446 285 408 184 355 131C314 90 262 68 200 68ZM25 -157 76 2 80 61 96 68 128 27C152 14 174 6 208 6C285 6 353 36 406 89C475 157 517 275 517 370C517 485 458 560 357 560C346 560 335 559 322 556L230 499L219 508L255 573L316 765H242L-50 -157Z" glyph-name="thorn" horiz-adv-x="558" unicode="&#254;" /><glyph d="M-25 -7C327 -3 469 109 469 231C469 318 390 366 270 377L271 390C450 434 567 512 567 612C567 687 503 742 385 742C308 742 236 722 157 682L179 621C247 655 307 675 373 675C443 675 485 649 485 601C485 534 404 464 177 409L169 348C311 339 387 308 387 236C387 149 284 64 -13 59Z" glyph-name="three" horiz-adv-x="544" unicode="3" /><glyph d="M-86 -162C-61 -162 -38 -161 -17 -159C142 -148 219 -88 219 -19C219 30 175 60 96 68L98 78C214 105 279 149 279 209C279 256 238 289 166 289C119 289 72 276 27 254L41 211C81 231 119 242 157 242C195 242 221 227 221 200C221 160 174 124 40 92L33 49C120 44 161 23 161 -15C161 -61 105 -104 -22 -112C-38 -114 -57 -115 -77 -115Z" glyph-name="three.den" horiz-adv-x="355" /><glyph d="M57 292C82 292 105 293 126 295C285 306 362 366 362 435C362 483 318 513 239 521L241 532C357 558 421 602 421 662C421 709 381 742 309 742C262 742 215 730 169 707L184 665C224 684 262 696 300 696C338 696 364 680 364 653C364 613 317 577 183 546L176 502C262 497 304 476 304 438C304 392 248 350 121 341C105 340 86 338 66 338Z" glyph-name="three.num" horiz-adv-x="355" /><glyph d="M-46 -7C304 -4 453 106 453 231C453 318 373 366 252 378L253 391C433 434 550 512 550 612C550 687 485 742 366 742C289 742 221 723 142 684L163 623C230 656 291 675 354 675C424 675 466 648 466 601C466 534 387 464 158 409L150 348C292 340 369 307 369 236C369 149 263 65 -33 59Z" glyph-name="three.tab" horiz-adv-x="555" /><glyph d="M57 292C82 292 105 293 126 295C285 306 362 366 362 435C362 483 318 513 239 521L241 532C357 558 421 602 421 662C421 709 381 742 309 742C262 742 215 730 169 707L184 665C224 684 262 696 300 696C338 696 364 680 364 653C364 613 317 577 183 546L176 502C262 497 304 476 304 438C304 392 248 350 121 341C105 340 86 338 66 338ZM444 337 810 734 812 740H742L426 347ZM-7 -161H62L379 232L361 242L-6 -155ZM576 -15 556 -9 489 -8 417 -16 405 -8 447 23 572 145 639 243 658 255 639 196 594 64 581 -5ZM673 -50 687 -4H654L620 -15L613 -6L635 28L716 289H639L370 -1L354 -50H525L561 -40L568 -49L547 -82L524 -157H576L602 -75V-47L609 -42L632 -50Z" glyph-name="threequarters" horiz-adv-x="791" unicode="&#190;" /><glyph d="M217 646C269 712 292 734 314 734C331 734 340 726 377 694C418 658 433 649 461 649C506 649 542 688 601 775L565 797C512 731 491 708 469 708C453 708 444 716 405 749C364 784 351 794 322 794C276 794 241 755 181 668Z" glyph-name="tilde" horiz-adv-x="500" unicode="&#732;" /><glyph d="M5 811C62 879 84 899 107 899C124 899 134 893 176 861C220 826 242 816 268 816C311 816 343 842 416 939L381 963C325 896 301 876 278 876C262 876 253 881 211 913C166 948 146 959 119 959C74 959 39 928 -31 834Z" glyph-name="tilde.cap" horiz-adv-x="0" /><glyph d="M9 811C66 880 88 899 110 899C127 899 136 893 177 861C221 826 240 816 267 816C309 816 341 844 413 938L378 962C322 895 298 876 277 876C260 876 252 881 211 913C167 948 148 959 121 959C78 959 46 930 -27 835Z" glyph-name="tilde.capnrw" horiz-adv-x="0" /><glyph d="M-24 645C27 713 47 734 68 734C83 734 90 728 127 694C165 659 180 648 206 648C248 648 282 683 343 777L307 798C255 729 237 709 216 709C199 709 192 715 155 749C116 784 104 795 77 795C35 795 0 757 -60 667Z" glyph-name="tilde.nrw" horiz-adv-x="0" /><glyph d="M534 687 550 736H198L182 687H294L335 699L344 687L319 648L217 325H268L373 652L375 689L388 699L417 687ZM951 325 1061 736H984L779 432L746 367H730L738 432L725 736H650L500 325H548L643 594L673 687H691L689 617L700 320H749L949 617L988 687H1006L977 594L903 325Z" glyph-name="trademark" horiz-adv-x="1019" unicode="&#8482;" /><glyph d="M849 726V736H133V726L480 -23H502Z" glyph-name="triagdn" horiz-adv-x="873" unicode="&#9660;" /><glyph d="M500 736H55L265 -23H290Z" glyph-name="triagdn.tab" horiz-adv-x="555" /><glyph d="M795 0V10L448 759H427L80 10V0Z" glyph-name="triagup" horiz-adv-x="873" unicode="&#9650;" /><glyph d="M500 0 290 759H265L55 0Z" glyph-name="triagup.tab" horiz-adv-x="555" /><glyph d="M448 0 471 72H216L105 52L99 77L369 299C523 417 578 493 578 585C578 685 502 743 401 743C314 743 232 702 162 633L202 580C267 641 327 672 389 672C451 672 498 638 498 574C498 512 456 453 331 350L5 76L16 0Z" glyph-name="two" horiz-adv-x="585" unicode="2" /><glyph d="M191 -157 207 -105H68L-19 -125L-23 -107L140 18C231 84 268 136 268 194C268 253 223 288 157 288C101 288 50 261 8 218L37 181C74 217 110 237 148 237C186 237 210 219 210 186C210 148 182 108 117 55L-82 -106L-74 -157Z" glyph-name="two.den" horiz-adv-x="355" /><glyph d="M334 296 350 348H211L124 329L120 346L283 472C374 537 411 589 411 647C411 706 365 742 300 742C244 742 193 715 151 671L180 634C216 670 253 691 291 691C329 691 353 672 353 639C353 601 325 561 260 508L61 347L69 296Z" glyph-name="two.num" horiz-adv-x="355" /><glyph d="M402 0 425 72H174L63 52L57 77L330 304C475 413 531 491 531 587C531 687 457 743 357 743C269 743 189 701 118 632L158 578C226 641 284 672 346 672C406 672 452 638 452 577C452 510 407 448 292 355L-38 76L-27 0Z" glyph-name="two.tab" horiz-adv-x="555" /><glyph d="M334 296 350 348H211L124 329L120 346L283 472C374 537 411 589 411 647C411 706 365 742 300 742C244 742 193 715 151 671L180 634C216 670 253 691 291 691C329 691 353 672 353 639C353 601 325 561 260 508L61 347L69 296ZM460 337 826 734 828 740H758L442 347ZM9 -161H78L395 232L377 242L10 -155ZM387 -162C412 -162 435 -161 456 -159C615 -148 692 -88 692 -19C692 30 648 60 569 68L571 78C687 105 752 149 752 209C752 256 711 289 639 289C592 289 545 276 500 254L514 211C554 231 592 242 630 242C668 242 694 227 694 200C694 160 647 124 513 92L506 49C593 44 634 23 634 -15C634 -61 578 -104 451 -112C435 -114 416 -115 396 -115Z" glyph-name="twothirds" horiz-adv-x="828" unicode="&#8532;" /><glyph d="M275 4 352 58H364L359 -4H400L577 554H502L375 148L372 107L354 85C305 64 270 56 235 56C161 56 123 91 123 152C123 177 130 209 140 240L238 554H164L70 253C56 209 47 174 47 143C47 47 107 -7 207 -7C232 -7 253 -3 275 4Z" glyph-name="u" horiz-adv-x="577" unicode="u" /><glyph d="M275 4 352 58H364L359 -4H400L577 554H502L375 148L372 107L354 85C305 64 270 56 235 56C161 56 123 91 123 152C123 177 130 209 140 240L238 554H164L70 253C56 209 47 174 47 143C47 47 107 -7 207 -7C232 -7 253 -3 275 4ZM431 652 679 778 681 782H522L364 656L363 652Z" glyph-name="uacute" horiz-adv-x="577" unicode="&#250;" /><glyph d="M275 4 352 58H364L359 -4H400L577 554H502L375 148L372 107L354 85C305 64 270 56 235 56C161 56 123 91 123 152C123 177 130 209 140 240L238 554H164L70 253C56 209 47 174 47 143C47 47 107 -7 207 -7C232 -7 253 -3 275 4ZM411 651C508 651 571 703 598 792H545C521 740 481 711 421 711C355 711 331 740 340 792H288C265 704 317 651 411 651Z" glyph-name="ubreve" horiz-adv-x="577" unicode="&#365;" /><glyph d="M275 4 352 58H364L359 -4H400L577 554H502L375 148L372 107L354 85C305 64 270 56 235 56C161 56 123 91 123 152C123 177 130 209 140 240L238 554H164L70 253C56 209 47 174 47 143C47 47 107 -7 207 -7C232 -7 253 -3 275 4ZM233 652H299L395 713L423 742H438L455 713L514 652H565L566 656L483 792H400L234 656Z" glyph-name="ucircumflex" horiz-adv-x="577" unicode="&#251;" /><glyph d="M275 4 352 58H364L359 -4H400L577 554H502L375 148L372 107L354 85C305 64 270 56 235 56C161 56 123 91 123 152C123 177 130 209 140 240L238 554H164L70 253C56 209 47 174 47 143C47 47 107 -7 207 -7C232 -7 253 -3 275 4ZM454 652H550L585 762H489ZM247 652H343L378 762H282Z" glyph-name="udieresis" horiz-adv-x="577" unicode="&#252;" /><glyph d="M275 4 352 58H364L359 -4H400L577 554H502L375 148L372 107L354 85C305 64 270 56 235 56C161 56 123 91 123 152C123 177 130 209 140 240L238 554H164L70 253C56 209 47 174 47 143C47 47 107 -7 207 -7C232 -7 253 -3 275 4ZM376 652H432L433 656L328 782H197L195 778Z" glyph-name="ugrave" horiz-adv-x="577" unicode="&#249;" /><glyph d="M275 5 352 58H364L359 -4H400L550 470L548 507L557 514H570C650 514 699 533 794 703L736 728C643 568 611 554 547 554H502L375 148L372 107L354 85C306 64 271 56 236 56C160 56 123 92 123 152C123 177 130 209 140 240L238 554H164L70 252C55 209 47 173 47 142C47 46 107 -7 206 -7C232 -7 252 -3 275 5Z" glyph-name="uhorn" horiz-adv-x="616" unicode="&#432;" /><glyph d="M275 4 352 58H364L359 -4H400L577 554H502L375 148L372 107L354 85C305 64 270 56 235 56C161 56 123 91 123 152C123 177 130 209 140 240L238 554H164L70 253C56 209 47 174 47 143C47 47 107 -7 207 -7C232 -7 253 -3 275 4ZM306 652 531 778 533 782H401L251 656L250 652ZM518 652 742 778 744 782H613L463 656L462 652Z" glyph-name="uhungarumlaut" horiz-adv-x="577" unicode="&#369;" /><glyph d="M275 4 352 58H364L359 -4H400L577 554H502L375 148L372 107L354 85C305 64 270 56 235 56C161 56 123 91 123 152C123 177 130 209 140 240L238 554H164L70 253C56 209 47 174 47 143C47 47 107 -7 207 -7C232 -7 253 -3 275 4ZM232 662H572L591 722H251Z" glyph-name="umacron" horiz-adv-x="577" unicode="&#363;" /><glyph d="M421 -157 438 -105H-121L-138 -157Z" glyph-name="underscore" horiz-adv-x="555" unicode="_" /><glyph glyph-name="uni0000" horiz-adv-x="0" /><glyph d="M195 809C309 851 352 880 352 919C352 946 320 964 244 964H86L69 911H225C256 911 266 906 266 897C266 885 247 873 118 820L115 809Z" glyph-name="uni00200309.cap" horiz-adv-x="0" /><glyph glyph-name="uni00A0" horiz-adv-x="278" unicode="&#160;" /><glyph d="M150 814H205L207 818L113 933H-15L-17 928ZM63 652 98 761H2L-33 652ZM270 652 305 761H209L174 652Z" glyph-name="uni00A80300" horiz-adv-x="0" /><glyph d="M262 981 263 986 155 1098H16L15 1094L195 981ZM338 823 373 932H277L242 823ZM103 823 138 932H42L7 823Z" glyph-name="uni00A80300.cap" horiz-adv-x="0" /><glyph d="M197 814 432 928 434 933H281L129 818L127 814ZM270 652 305 761H209L174 652ZM63 652 98 761H2L-33 652Z" glyph-name="uni00A80301" horiz-adv-x="0" /><glyph d="M258 981 503 1094 504 1098H341L176 986L175 981ZM338 823 373 932H277L242 823ZM103 823 138 932H42L7 823Z" glyph-name="uni00A80301.cap" horiz-adv-x="0" /><glyph d="M340 828 360 888H27L7 828ZM-33 652H63L98 761H2ZM270 652 305 761H209L174 652Z" glyph-name="uni00A80304" horiz-adv-x="0" /><glyph d="M414 999 434 1059H61L41 999ZM338 823 373 932H277L242 823ZM103 823 138 932H42L7 823Z" glyph-name="uni00A80304.cap" horiz-adv-x="0" /><glyph d="M212 814 377 943 378 947H312L216 891L189 863H174L156 892L98 947H46L45 943L126 814ZM270 652 305 761H209L174 652ZM63 652 98 761H2L-33 652Z" glyph-name="uni00A8030C" horiz-adv-x="0" /><glyph d="M265 981 453 1109 454 1113H388L276 1057L243 1029H226L203 1057L129 1113H75L74 1109L180 981ZM338 823 373 932H276L241 823ZM103 823 138 932H42L7 823Z" glyph-name="uni00A8030C.cap" horiz-adv-x="0" /><glyph d="M384 454 400 506H261L174 486L170 504L333 629C424 695 461 747 461 805C461 864 416 899 350 899C294 899 243 872 201 829L230 792C267 828 303 848 341 848C379 848 403 830 403 797C403 759 375 719 310 666L111 505L119 454Z" glyph-name="uni00B2" horiz-adv-x="355" unicode="&#178;" /><glyph d="M107 449C132 449 155 450 176 452C335 463 412 523 412 592C412 641 368 671 289 679L291 689C407 716 472 760 472 820C472 867 431 900 359 900C312 900 265 887 220 865L234 822C274 842 312 853 350 853C388 853 414 838 414 811C414 771 367 735 233 703L226 660C313 655 354 634 354 596C354 550 298 507 171 499C155 497 136 496 116 496Z" glyph-name="uni00B3" horiz-adv-x="355" unicode="&#179;" /><glyph d="M61 -34 60 1 70 8 100 -6C191 2 275 36 347 90L397 168H411L374 -3H430L487 237L588 554H514L447 342C391 167 266 72 85 56L78 67L108 112L247 554H173L-52 -156H23Z" glyph-name="uni00B5" horiz-adv-x="586" unicode="&#181;" /><glyph d="M163 264 200 380H94L57 264Z" glyph-name="uni00B7" horiz-adv-x="228" unicode="&#183;" /><glyph d="M73 316H179L216 431H110Z" glyph-name="uni00B7.cap" horiz-adv-x="228" /><glyph d="M175 316 212 431H106L69 316Z" glyph-name="uni00B7.tab" horiz-adv-x="278" /><glyph d="M302 540 413 897H368L225 845L234 803L341 841L349 831L321 788L240 528L241 497L232 490L206 502H125L110 454H370L385 502H323L284 490L277 500Z" glyph-name="uni00B9" horiz-adv-x="355" unicode="&#185;" /><glyph d="M550 45 656 383H387L366 317H522L568 331L577 319L550 278L501 121L508 93L499 81C452 64 407 57 367 57C231 57 162 141 162 269C162 378 213 508 288 583C342 637 411 671 494 671C564 671 621 647 676 606L722 670C663 716 591 744 504 744C394 744 303 703 229 630C138 539 81 392 81 265C81 100 178 -7 339 -7C414 -7 487 14 550 45ZM314 -84H210L208 -92C250 -112 263 -122 262 -134C260 -151 230 -170 131 -196L136 -226C289 -195 339 -167 342 -131C344 -114 334 -99 314 -84Z" glyph-name="uni0122" horiz-adv-x="708" unicode="&#290;" /><glyph d="M252 124C175 124 129 169 129 253C129 311 154 387 200 433C240 473 296 498 359 498C396 498 431 488 463 470L467 452L442 410L381 208L380 170L369 156C314 132 283 124 252 124ZM126 -162C264 -162 362 -81 409 71L563 558H523L485 498H474L446 540C420 552 392 560 356 560C280 560 206 531 150 475C88 413 56 319 56 245C56 134 118 66 222 66C235 66 247 67 258 69L346 117L356 109L353 101C308 -37 236 -101 132 -101C75 -101 29 -83 -19 -56L-53 -113C-2 -142 55 -162 126 -162ZM450 652 453 660C411 679 397 689 397 701C397 719 428 737 528 764L523 794C386 766 317 736 317 695C317 678 327 665 346 652Z" glyph-name="uni0123" horiz-adv-x="563" unicode="&#291;" /><glyph d="M93 0 186 302 189 343 201 353H282L289 326L467 0H552L555 8L362 349L333 371L337 385L382 406L764 728L767 736H664L307 429L285 403H218L209 415L238 463L323 736H241L11 0ZM271 -84H167L165 -92C207 -112 220 -122 219 -134C217 -151 187 -170 88 -196L93 -226C246 -195 296 -167 299 -131C301 -114 291 -99 271 -84Z" glyph-name="uni0136" horiz-adv-x="658" unicode="&#310;" /><glyph d="M74 0 140 208 141 255 154 265H225L231 244L356 0H430L432 8L300 258L273 280L278 294L319 316L584 546L587 554H496L248 333L229 312H168L159 325L195 378L316 765H242L0 0ZM221 -84H117L115 -92C157 -112 170 -122 169 -134C167 -151 137 -170 38 -196L43 -226C196 -195 246 -167 249 -131C251 -114 241 -99 221 -84Z" glyph-name="uni0137" horiz-adv-x="531" unicode="&#311;" /><glyph d="M441 0 465 73H156L112 60L104 72L129 111L327 736H245L12 0ZM242 -84H138L136 -92C178 -112 191 -122 190 -134C188 -151 158 -170 59 -196L64 -226C217 -195 267 -167 270 -131C272 -114 262 -99 242 -84Z" glyph-name="uni013B" horiz-adv-x="559" unicode="&#315;" /><glyph d="M90 0 331 765H256L15 0ZM66 -84H-38L-40 -92C2 -112 15 -122 14 -134C12 -151 -18 -170 -117 -196L-112 -226C41 -195 91 -167 94 -131C96 -114 86 -99 66 -84Z" glyph-name="uni013C" horiz-adv-x="281" unicode="&#316;" /><glyph d="M87 0 259 546 275 662 299 668 437 0H546L779 736H703L534 200L518 83L494 78L358 736H244L11 0ZM290 -84H186L184 -92C226 -112 239 -122 238 -134C236 -151 206 -170 107 -196L112 -226C265 -195 315 -167 318 -131C320 -114 310 -99 290 -84Z" glyph-name="uni0145" horiz-adv-x="733" unicode="&#325;" /><glyph d="M202 405 205 447 222 468C271 490 307 498 342 498C416 498 454 463 454 402C454 376 447 344 437 313L339 0H413L507 301C521 344 529 379 529 410C529 507 470 561 370 561C345 561 324 557 302 549L224 495H213L217 558H176L0 0H74ZM216 -84H112L110 -92C152 -112 165 -122 164 -134C162 -151 132 -170 33 -196L38 -226C191 -195 241 -167 244 -131C246 -114 236 -99 216 -84Z" glyph-name="uni0146" horiz-adv-x="577" unicode="&#326;" /><glyph d="M188 351 215 391 290 626 288 662 298 670H424C538 670 589 623 588 554C587 436 435 340 257 340H196ZM169 241 168 277 179 285H232C320 285 355 259 391 187L491 0H582L584 8L482 186C450 248 416 280 356 299L358 308C551 346 672 434 673 568C674 667 602 736 453 736H244L11 0H93ZM282 -84H178L176 -92C218 -112 231 -122 230 -134C228 -151 198 -170 99 -196L104 -226C257 -195 307 -167 310 -131C312 -114 302 -99 282 -84Z" glyph-name="uni0156" horiz-adv-x="682" unicode="&#342;" /><glyph d="M74 0 191 370 192 402 206 418C293 465 357 483 430 488L454 565C400 564 356 554 308 536L212 453H201L216 558H176L0 0ZM51 -84H-53L-55 -92C-13 -112 0 -122 -1 -134C-3 -151 -33 -170 -132 -196L-127 -226C26 -195 76 -167 79 -131C81 -114 71 -99 51 -84Z" glyph-name="uni0157" horiz-adv-x="395" unicode="&#343;" /><glyph d="M161 -157 287 -4C449 4 545 99 546 216C547 301 504 352 378 410C274 460 244 495 245 546C245 616 305 673 413 673C487 673 551 647 604 608L651 670C581 715 510 741 421 741C257 741 163 649 163 537C163 455 211 402 331 347C435 297 464 262 464 206C464 125 387 63 271 63C182 63 108 94 38 142L-7 79C53 38 118 11 189 0L243 10L248 -3L179 -43L51 -153L50 -157Z" glyph-name="uni015E" horiz-adv-x="637" unicode="&#350;" /><glyph d="M101 -157 222 -8C339 -1 415 69 415 157C415 226 368 266 287 307C215 344 186 368 186 409C186 462 236 502 306 502C360 502 413 479 458 446L497 499C441 538 379 561 312 561C200 561 117 496 117 404C117 335 159 299 243 256C309 221 346 197 346 150C346 93 291 51 212 51C145 51 79 80 32 122L-12 69C31 34 81 10 136 -1L182 7L186 -7L126 -37L-10 -153L-11 -157Z" glyph-name="uni015F" horiz-adv-x="517" unicode="&#351;" /><glyph d="M193 8 233 1 229 -11 185 -26 34 -153 33 -157H145L273 0L471 629V665L482 674L515 662H729L753 736H177L153 662H360L405 674L413 663L387 623Z" glyph-name="uni0162" horiz-adv-x="640" unicode="&#354;" /><glyph d="M260 -5C274 -5 290 -3 300 -1L317 63C308 61 289 59 278 59C204 59 169 85 169 146C169 165 173 193 183 224L256 460V493L266 501L296 490H445L464 551H324L280 539L273 550L297 591L341 731H267L221 581L222 548L211 540L181 551H121L101 490H154L197 502L204 491L179 450L112 233C101 197 94 163 94 132C94 56 134 10 214 -1L210 -13L161 -31L18 -153L16 -157H128L252 -5Z" glyph-name="uni0163" horiz-adv-x="434" unicode="&#355;" /><glyph d="M294 -9C379 -9 460 30 522 91C618 188 681 351 681 488C681 645 592 745 431 745C362 745 291 729 222 697L241 632C302 659 360 675 417 675C539 675 605 605 605 478C605 457 603 434 599 410L585 400L532 413H104L97 384C84 334 77 290 77 238C77 89 158 -9 294 -9ZM299 59C203 59 149 130 149 242C149 276 153 315 163 356L175 365L215 349H524L575 362L585 349C530 173 421 59 299 59Z" glyph-name="uni018F" horiz-adv-x="704" unicode="&#399;" /><glyph d="M529 230 520 220 480 230H249L190 221L185 234L234 282L449 606L486 686H507L499 606L514 274ZM604 0 565 746H463L-42 0H45L141 141L153 174L168 181L205 168H474L518 179L528 169L519 127L525 0ZM579 821 768 951 769 955H700L590 898L557 869H539L516 898L442 955H390L389 951L495 821Z" glyph-name="uni01CD" horiz-adv-x="736" unicode="&#461;" /><glyph d="M210 50C125 50 86 92 86 148C86 184 100 217 122 239C155 271 206 287 278 287C302 287 353 284 395 277L403 263L380 232L353 139V107L339 88C295 63 253 50 210 50ZM261 4 340 61 342 0H398L418 108L490 342C497 366 503 395 503 419C503 507 438 560 317 560C262 560 214 549 170 536L173 474C213 488 258 498 304 498C394 498 432 462 432 404C432 387 429 373 425 357L415 317L402 310L367 327C325 335 289 338 260 338C168 337 108 316 66 274C32 240 14 194 14 144C14 49 83 -6 190 -6C218 -6 239 -2 261 4ZM595 792H530L434 731L406 702H390L374 731L314 792H264L263 788L345 652H428L594 788Z" glyph-name="uni01CE" horiz-adv-x="548" unicode="&#462;" /><glyph d="M107 0 340 736H258L25 0ZM368 821 557 951 558 955H489L379 898L346 869H328L305 898L231 955H179L178 951L284 821Z" glyph-name="uni01CF" horiz-adv-x="308" unicode="&#463;" /><glyph d="M191 554 15 0H90L265 554L243 551H212ZM470 792H405L309 731L281 702H265L249 731L189 792H139L138 788L220 652H303L469 788Z" glyph-name="uni01D0" horiz-adv-x="281" unicode="&#464;" /><glyph d="M320 -9C414 -9 494 32 563 100C656 193 713 347 713 481C713 632 627 745 473 745C379 745 299 704 230 636C137 543 80 389 80 255C80 104 166 -9 320 -9ZM326 61C217 61 161 145 161 255C161 372 212 514 290 591C340 641 398 675 467 675C575 675 632 591 632 481C632 364 581 222 503 145C453 95 395 61 326 61ZM581 821 770 951 771 955H702L592 898L559 869H541L518 898L444 955H392L391 951L497 821Z" glyph-name="uni01D1" horiz-adv-x="736" unicode="&#465;" /><glyph d="M215 -9C286 -9 346 21 395 71C465 141 511 262 511 364C511 484 451 563 337 563C267 563 206 532 157 483C87 413 41 292 41 189C41 70 102 -9 215 -9ZM222 54C145 54 112 112 112 189C112 274 152 386 210 444C244 478 284 499 330 499C407 499 440 442 440 364C440 279 400 167 342 109C308 75 268 54 222 54ZM601 792H536L440 731L412 702H396L380 731L320 792H270L269 788L351 652H434L600 788Z" glyph-name="uni01D2" horiz-adv-x="552" unicode="&#466;" /><glyph d="M305 -8C464 -8 556 93 614 272L759 736H681L542 290C493 139 419 63 312 63C219 63 165 115 165 198C165 231 173 266 184 301L320 736H238L107 317C93 275 84 233 84 192C84 66 171 -8 305 -8ZM564 821 753 951 754 955H685L575 898L542 869H524L501 898L427 955H375L374 951L480 821Z" glyph-name="uni01D3" horiz-adv-x="707" unicode="&#467;" /><glyph d="M275 4 352 58H364L359 -4H400L577 554H502L375 148L372 107L354 85C305 64 270 56 235 56C161 56 123 91 123 152C123 177 130 209 140 240L238 554H164L70 253C56 209 47 174 47 143C47 47 107 -7 207 -7C232 -7 253 -3 275 4ZM610 792H545L449 731L421 702H405L389 731L329 792H279L278 788L360 652H443L609 788Z" glyph-name="uni01D4" horiz-adv-x="577" unicode="&#468;" /><glyph d="M305 -8C464 -8 556 93 614 272L759 736H681L542 290C493 139 419 63 312 63C219 63 165 115 165 198C165 231 173 266 184 301L320 736H238L107 317C93 275 84 233 84 192C84 66 171 -8 305 -8ZM764 999 784 1059H411L391 999ZM688 823 723 932H627L592 823ZM453 823 488 932H392L357 823Z" glyph-name="uni01D5" horiz-adv-x="707" unicode="&#469;" /><glyph d="M275 4 352 58H364L359 -4H400L577 554H502L375 148L372 107L354 85C305 64 270 56 235 56C161 56 123 91 123 152C123 177 130 209 140 240L238 554H164L70 253C56 209 47 174 47 143C47 47 107 -7 207 -7C232 -7 253 -3 275 4ZM620 828 640 888H307L287 828ZM247 652H343L378 761H282ZM550 652 585 761H489L454 652Z" glyph-name="uni01D6" horiz-adv-x="577" unicode="&#470;" /><glyph d="M305 -8C464 -8 556 93 614 272L759 736H681L542 290C493 139 419 63 312 63C219 63 165 115 165 198C165 231 173 266 184 301L320 736H238L107 317C93 275 84 233 84 192C84 66 171 -8 305 -8ZM607 981 852 1094 853 1098H690L525 986L524 981ZM687 823 722 932H626L591 823ZM452 823 487 932H391L356 823Z" glyph-name="uni01D7" horiz-adv-x="707" unicode="&#471;" /><glyph d="M275 4 352 58H364L359 -4H400L577 554H502L375 148L372 107L354 85C305 64 270 56 235 56C161 56 123 91 123 152C123 177 130 209 140 240L238 554H164L70 253C56 209 47 174 47 143C47 47 107 -7 207 -7C232 -7 253 -3 275 4ZM477 814 712 928 714 933H561L409 818L407 814ZM550 652 585 761H489L454 652ZM343 652 378 761H282L247 652Z" glyph-name="uni01D8" horiz-adv-x="577" unicode="&#472;" /><glyph d="M305 -8C464 -8 556 93 614 272L759 736H681L542 290C493 139 419 63 312 63C219 63 165 115 165 198C165 231 173 266 184 301L320 736H238L107 317C93 275 84 233 84 192C84 66 171 -8 305 -8ZM615 981 803 1109 804 1113H738L626 1057L593 1029H576L553 1057L479 1113H425L424 1109L530 981ZM688 823 723 932H626L591 823ZM453 823 488 932H392L357 823Z" glyph-name="uni01D9" horiz-adv-x="707" unicode="&#473;" /><glyph d="M275 4 352 58H364L359 -4H400L577 554H502L375 148L372 107L354 85C305 64 270 56 235 56C161 56 123 91 123 152C123 177 130 209 140 240L238 554H164L70 253C56 209 47 174 47 143C47 47 107 -7 207 -7C232 -7 253 -3 275 4ZM492 814 657 943 658 947H592L496 891L469 863H454L436 892L378 947H326L325 943L406 814ZM550 652 585 761H489L454 652ZM343 652 378 761H282L247 652Z" glyph-name="uni01DA" horiz-adv-x="577" unicode="&#474;" /><glyph d="M305 -8C464 -8 556 93 614 272L759 736H681L542 290C493 139 419 63 312 63C219 63 165 115 165 198C165 231 173 266 184 301L320 736H238L107 317C93 275 84 233 84 192C84 66 171 -8 305 -8ZM611 981 612 986 504 1098H365L364 1094L544 981ZM687 823 722 932H626L591 823ZM452 823 487 932H391L356 823Z" glyph-name="uni01DB" horiz-adv-x="707" unicode="&#475;" /><glyph d="M275 4 352 58H364L359 -4H400L577 554H502L375 148L372 107L354 85C305 64 270 56 235 56C161 56 123 91 123 152C123 177 130 209 140 240L238 554H164L70 253C56 209 47 174 47 143C47 47 107 -7 207 -7C232 -7 253 -3 275 4ZM430 814H485L487 818L393 933H265L263 928ZM343 652 378 761H282L247 652ZM550 652 585 761H489L454 652Z" glyph-name="uni01DC" horiz-adv-x="577" unicode="&#476;" /><glyph d="M503 145C453 95 395 61 326 61C217 61 161 145 161 255C161 372 212 514 290 591C340 641 398 675 467 675C575 675 632 591 632 481C632 364 581 222 503 145ZM330 -147C260 -125 243 -113 243 -101C243 -90 252 -76 316 -8H320C413 -8 493 31 563 100C656 193 713 347 713 481C713 632 627 745 473 745C379 745 299 704 230 636C137 543 80 389 80 255C80 125 141 23 266 -1L263 -14C177 -77 158 -98 158 -117C158 -132 174 -147 193 -157H327Z" glyph-name="uni01EA" horiz-adv-x="736" unicode="&#490;" /><glyph d="M235 -157 239 -147C169 -125 151 -113 151 -101C151 -91 161 -76 225 -8C286 -8 346 22 395 71C466 142 511 262 511 363C511 484 451 563 337 563C267 563 207 533 157 483C87 414 41 292 41 189C41 85 84 15 179 -1L175 -13C88 -72 67 -99 67 -117C67 -132 83 -147 102 -157ZM223 54C145 54 112 112 112 189C112 274 152 386 210 444C244 478 284 499 329 499C406 499 440 443 440 365C440 280 401 169 342 109C308 75 268 54 223 54Z" glyph-name="uni01EB" horiz-adv-x="552" unicode="&#491;" /><glyph d="M-98 -165C33 -87 85 -30 136 131L270 554L248 551H216L196 554L63 135C22 4 -20 -43 -131 -115ZM475 792H410L314 731L286 702H270L254 731L194 792H144L143 788L225 652H308L474 788Z" glyph-name="uni01F0" horiz-adv-x="281" unicode="&#496;" /><glyph d="M87 0 259 546 275 662 299 668 437 0H546L779 736H703L534 200L518 83L494 78L358 736H244L11 0ZM574 821 575 826 463 945H321L320 940L505 821Z" glyph-name="uni01F8" horiz-adv-x="733" unicode="&#504;" /><glyph d="M202 405 205 447 222 468C271 490 307 498 342 498C416 498 454 463 454 402C454 376 447 344 437 313L339 0H413L507 301C521 344 529 379 529 410C529 507 470 561 370 561C345 561 324 557 302 549L224 495H213L217 558H176L0 0H74ZM380 652H436L437 656L332 782H201L199 778Z" glyph-name="uni01F9" horiz-adv-x="577" unicode="&#505;" /><glyph d="M264 -5C440 -5 545 94 546 216C547 301 504 352 378 410C274 460 244 495 245 546C245 616 305 673 413 673C487 673 551 647 604 608L651 670C581 715 510 741 421 741C257 741 163 649 163 537C163 455 211 402 331 347C435 297 464 262 464 206C464 125 387 63 271 63C182 63 108 94 38 142L-7 79C74 25 159 -5 264 -5ZM245 -84H141L139 -92C181 -112 194 -122 193 -134C191 -151 161 -170 62 -196L67 -226C220 -195 270 -167 273 -131C275 -114 265 -99 245 -84Z" glyph-name="uni0218" horiz-adv-x="637" unicode="&#536;" /><glyph d="M205 -8C332 -8 415 65 415 157C415 226 368 266 287 307C215 344 186 368 186 409C186 462 236 502 306 502C360 502 413 479 458 446L497 499C441 538 379 561 312 561C200 561 117 496 117 404C117 335 159 299 243 256C309 221 346 197 346 150C346 93 291 51 212 51C145 51 79 80 32 122L-12 69C48 22 122 -8 205 -8ZM181 -84H77L75 -92C117 -112 130 -122 129 -134C127 -151 97 -170 -2 -196L3 -226C156 -195 206 -167 209 -131C211 -114 201 -99 181 -84Z" glyph-name="uni0219" horiz-adv-x="517" unicode="&#537;" /><glyph d="M273 0 471 629V665L482 674L515 662H729L753 736H177L153 662H360L405 674L413 663L387 623L191 0ZM244 -84H140L138 -92C180 -112 193 -122 192 -134C190 -151 160 -170 61 -196L66 -226C219 -195 269 -167 272 -131C274 -114 264 -99 244 -84Z" glyph-name="uni021A" horiz-adv-x="640" unicode="&#538;" /><glyph d="M299 -1 317 63C307 61 289 59 278 59C203 59 169 85 169 146C169 165 173 193 182 224L256 460V493L266 501L297 490H446L465 551H324L281 539L273 550L298 591L341 731H267L221 581L223 548L212 540L182 551H121L101 490H155L197 502L205 491L180 450L112 233C100 197 93 163 93 132C93 43 148 -5 259 -5C274 -5 289 -3 299 -1ZM173 -84H69L67 -92C109 -112 122 -122 121 -134C119 -151 89 -170 -10 -196L-5 -226C148 -195 198 -167 201 -131C203 -114 193 -99 173 -84Z" glyph-name="uni021B" horiz-adv-x="434" unicode="&#539;" /><glyph d="M529 230 520 220 480 230H249L190 221L185 234L234 282L449 606L486 686H507L499 606L514 274ZM604 0 565 746H463L-42 0H45L141 141L153 174L168 181L205 168H474L518 179L528 169L519 127L525 0ZM590 821 626 935H520L484 821Z" glyph-name="uni0226" horiz-adv-x="736" unicode="&#550;" /><glyph d="M210 50C125 50 86 92 86 148C86 184 100 217 122 239C155 271 206 287 278 287C302 287 353 284 395 277L403 263L380 232L353 139V107L339 88C295 63 253 50 210 50ZM261 4 340 61 342 0H398L418 108L490 342C497 366 503 395 503 419C503 507 438 560 317 560C262 560 214 549 170 536L173 474C213 488 258 498 304 498C394 498 432 462 432 404C432 387 429 373 425 357L415 317L402 310L367 327C325 335 289 338 260 338C168 337 108 316 66 274C32 240 14 194 14 144C14 49 83 -6 190 -6C218 -6 239 -2 261 4ZM437 652 474 766H367L331 652Z" glyph-name="uni0227" horiz-adv-x="548" unicode="&#551;" /><glyph d="M320 -9C414 -9 494 32 563 100C656 193 713 347 713 481C713 632 627 745 473 745C379 745 299 704 230 636C137 543 80 389 80 255C80 104 166 -9 320 -9ZM326 61C217 61 161 145 161 255C161 372 212 514 290 591C340 641 398 675 467 675C575 675 632 591 632 481C632 364 581 222 503 145C453 95 395 61 326 61ZM592 821 628 935H522L486 821Z" glyph-name="uni022E" horiz-adv-x="736" unicode="&#558;" /><glyph d="M215 -9C286 -9 346 21 395 71C465 141 511 262 511 364C511 484 451 563 337 563C267 563 206 532 157 483C87 413 41 292 41 189C41 70 102 -9 215 -9ZM222 54C145 54 112 112 112 189C112 274 152 386 210 444C244 478 284 499 330 499C407 499 440 442 440 364C440 279 400 167 342 109C308 75 268 54 222 54ZM444 652 481 766H374L338 652Z" glyph-name="uni022F" horiz-adv-x="552" unicode="&#559;" /><glyph d="M286 0 379 299 774 730 776 736H685L388 409L361 353H345L346 409L254 736H175L173 730L298 301L204 0ZM696 832 715 893H328L309 832Z" glyph-name="uni0232" horiz-adv-x="663" unicode="&#562;" /><glyph d="M-56 -160C110 -118 188 -53 302 119L594 554H512L261 157L220 75H200L210 158L201 554H127L151 50L163 35L162 25C101 -42 28 -76 -63 -99ZM212 662H552L571 722H231Z" glyph-name="uni0233" horiz-adv-x="539" unicode="&#563;" /><glyph d="M-98 -165C33 -87 85 -30 136 131L270 554L248 551H216L196 554L63 135C22 4 -20 -43 -131 -115Z" glyph-name="uni0237" horiz-adv-x="281" unicode="&#567;" /><glyph d="M199 -10C271 -10 333 21 385 73C454 142 500 258 500 359C500 484 429 560 298 560C247 560 197 550 144 526L159 470C202 488 243 500 288 500C386 500 435 442 435 340C435 331 435 322 434 312L421 303L377 313H57C38 256 30 211 30 169C30 73 82 -10 199 -10ZM206 46C125 46 95 106 95 180C95 205 98 234 105 262L119 273L152 262H370L410 273L420 260C379 133 290 46 206 46Z" glyph-name="uni0259" horiz-adv-x="542" unicode="&#601;" /><glyph d="M386 753 388 765H278L120 475L161 462Z" glyph-name="uni02B9" horiz-adv-x="283" unicode="&#697;" /><glyph d="M383 753 386 765H279L117 475L156 462ZM619 753 623 765H516L354 475L393 462Z" glyph-name="uni02BA" horiz-adv-x="505" unicode="&#698;" /><glyph d="M108 480 106 468H217L373 758L332 771Z" glyph-name="uni02BB" horiz-adv-x="283" unicode="&#699;" /><glyph d="M387 753 390 765H278L122 476L163 463Z" glyph-name="uni02BC" horiz-adv-x="283" unicode="&#700;" /><glyph d="M100 516H120C261 519 353 616 353 721C353 802 300 854 212 865L193 807C254 799 289 766 289 717C289 643 219 576 130 576C127 576 121 577 119 577Z" glyph-name="uni02BE" horiz-adv-x="238" unicode="&#702;" /><glyph d="M401 865C394 865 388 866 380 866C239 863 147 766 147 660C147 579 200 528 289 516L307 574C246 583 212 615 212 664C212 739 282 805 370 805C373 805 379 805 381 804Z" glyph-name="uni02BF" horiz-adv-x="238" unicode="&#703;" /><glyph d="M416 772 417 776 335 885H214L213 881L363 772ZM18 652 112 708 140 736H156L173 708L232 652H285L286 656L204 786H119L-47 656L-48 652Z" glyph-name="uni02C60300" horiz-adv-x="0" /><glyph d="M475 947 476 951 388 1057H257L255 1052L413 947ZM47 821 161 877 194 905H212L234 877L309 821H361L363 826L256 953H171L-16 826L-18 821Z" glyph-name="uni02C60300.cap" horiz-adv-x="0" /><glyph d="M346 772 560 881 561 885H419L285 776L284 772ZM18 652 112 708 140 736H156L173 708L233 652H285L286 656L204 786H119L-47 656L-48 652Z" glyph-name="uni02C60301" horiz-adv-x="0" /><glyph d="M410 947 627 1052 629 1057H474L334 951L333 947ZM47 821 161 877 194 905H212L234 877L309 821H361L363 826L256 953H171L-16 826L-18 821Z" glyph-name="uni02C60301.cap" horiz-adv-x="0" /><glyph d="M54 830C99 891 118 909 134 909C146 909 152 905 182 875C214 844 230 834 253 834C288 834 323 866 380 951L344 972C297 908 279 893 264 893C251 893 245 897 215 927C182 959 168 968 144 968C109 968 75 937 17 852ZM18 652 112 708 140 736H156L173 708L233 652H285L286 656L204 785H119L-47 656L-48 652Z" glyph-name="uni02C60303" horiz-adv-x="0" /><glyph d="M87 993C139 1057 161 1074 179 1074C193 1074 201 1069 235 1038C272 1006 293 998 315 998C355 998 386 1023 450 1112L413 1135C362 1070 341 1055 324 1055C309 1055 302 1060 267 1090C230 1121 210 1131 188 1131C149 1131 118 1107 51 1016ZM47 821 161 877 194 905H212L234 877L309 821H361L363 826L256 953H171L-16 826L-18 821Z" glyph-name="uni02C60303.cap" horiz-adv-x="0" /><glyph d="M261 863H355C380 863 387 859 387 850C387 837 369 824 280 772L276 761H338C431 812 460 839 460 871C460 897 440 914 385 914H278ZM18 652 112 708 141 736H156L172 708L233 652H285L287 656L204 786H119L-46 656L-48 652Z" glyph-name="uni02C60309" horiz-adv-x="0" /><glyph d="M416 929C511 978 541 1003 541 1038C541 1062 518 1079 461 1079H338L322 1027H424C453 1027 461 1023 461 1016C461 1003 444 991 353 940L349 929ZM47 821 161 877 194 905H212L234 877L309 821H361L363 826L256 953H171L-16 826L-18 821Z" glyph-name="uni02C60309.cap" horiz-adv-x="0" /><glyph d="M198 517 308 864H243L132 517Z" glyph-name="uni02C8" horiz-adv-x="178" unicode="&#712;" /><glyph d="M-19 -170 91 177H26L-85 -170Z" glyph-name="uni02CC" horiz-adv-x="178" unicode="&#716;" /><glyph d="M-57 -154H283L302 -94H-38Z" glyph-name="uni02CD" horiz-adv-x="500" unicode="&#717;" /><glyph d="M160 818H215L217 822L123 937H-5L-7 933ZM132 651C228 651 291 702 317 785H265C240 737 200 711 140 711C75 711 51 737 59 785H6C-13 703 36 651 132 651Z" glyph-name="uni02D80300" horiz-adv-x="0" /><glyph d="M204 982H270L271 986L164 1099H25L24 1094ZM182 821C290 821 359 871 389 955H335C309 908 262 881 190 881C118 881 87 907 93 955H41C20 874 75 821 182 821Z" glyph-name="uni02D80300.cap" horiz-adv-x="0" /><glyph d="M191 818 428 933 429 937H276L123 823L122 818ZM132 651C228 651 291 702 317 785H265C240 737 200 711 140 711C75 711 51 737 59 785H6C-13 703 36 651 132 651Z" glyph-name="uni02D80301" horiz-adv-x="0" /><glyph d="M250 982 494 1094 496 1099H332L168 986L167 982ZM182 821C289 821 359 871 389 955H335C309 908 262 881 190 881C117 881 86 907 93 955H41C19 874 75 821 182 821Z" glyph-name="uni02D80301.cap" horiz-adv-x="0" /><glyph d="M53 827C98 888 117 906 133 906C145 906 152 902 181 873C214 841 229 831 252 831C288 831 322 863 379 948L343 970C296 906 278 890 262 890C250 890 244 894 214 924C181 956 167 965 143 965C108 965 74 935 17 848ZM133 651C227 651 291 702 317 785H265C240 737 201 711 140 711C76 711 51 737 59 785H6C-12 703 35 651 133 651Z" glyph-name="uni02D80303" horiz-adv-x="0" /><glyph d="M87 998C139 1061 161 1078 179 1078C193 1078 201 1073 235 1043C272 1011 293 1002 316 1002C355 1002 387 1028 450 1116L413 1139C362 1075 341 1059 324 1059C309 1059 302 1064 267 1094C230 1126 211 1135 188 1135C149 1135 118 1111 51 1021ZM182 821C289 821 359 871 389 955H335C309 908 262 881 190 881C117 881 86 907 93 955H41C19 874 75 821 182 821Z" glyph-name="uni02D80303.cap" horiz-adv-x="0" /><glyph d="M93 903H205C235 903 245 899 245 890C245 878 230 866 123 813L120 803H186C288 848 322 876 322 909C322 937 294 955 239 955H110ZM132 651C228 651 291 702 317 785H265C240 737 200 711 140 711C74 711 52 736 59 785H6C-13 703 37 651 132 651Z" glyph-name="uni02D80309" horiz-adv-x="0" /><glyph d="M128 1070H260C295 1070 305 1066 305 1057C305 1045 291 1036 172 985L168 974H245C355 1016 391 1042 391 1080C391 1105 364 1123 291 1123H145ZM182 821C289 821 359 871 389 955H335C309 908 262 881 190 881C117 881 86 907 93 955H41C20 878 71 821 182 821Z" glyph-name="uni02D80309.cap" horiz-adv-x="0" /><glyph d="M96 652H152L153 656L48 782H-83L-85 778Z" glyph-name="uni0300" horiz-adv-x="0" unicode="&#768;" /><glyph d="M153 652 401 778 403 782H244L86 656L85 652Z" glyph-name="uni0301" horiz-adv-x="0" unicode="&#769;" /><glyph d="M-47 652H19L115 713L143 742H158L175 713L234 652H285L286 656L203 792H120L-46 656Z" glyph-name="uni0302" horiz-adv-x="0" unicode="&#770;" /><glyph d="M-33 646C19 712 42 734 64 734C81 734 90 726 127 694C168 658 183 649 211 649C256 649 292 688 351 775L315 797C262 731 241 708 219 708C203 708 194 716 155 749C114 784 101 794 72 794C26 794 -9 755 -69 668Z" glyph-name="uni0303" horiz-adv-x="0" unicode="&#771;" /><glyph d="M-48 662H292L311 722H-29Z" glyph-name="uni0304" horiz-adv-x="0" unicode="&#772;" /><glyph d="M131 651C228 651 291 703 318 792H265C241 740 201 711 141 711C75 711 51 740 60 792H8C-15 704 37 651 131 651Z" glyph-name="uni0306" horiz-adv-x="0" unicode="&#774;" /><glyph d="M172 652 209 766H102L66 652Z" glyph-name="uni0307" horiz-adv-x="0" unicode="&#775;" /><glyph d="M174 652H270L305 762H209ZM-33 652H63L98 762H2Z" glyph-name="uni0308" horiz-adv-x="0" unicode="&#776;" /><glyph d="M37 744H160C189 744 199 739 199 730C198 716 181 703 73 649L69 638H134C238 686 277 715 278 749C278 778 251 798 193 798H55Z" glyph-name="uni0309" horiz-adv-x="0" unicode="&#777;" /><glyph d="M139 644C220 644 267 697 267 754C267 805 225 844 158 844C78 844 29 792 29 735C29 683 71 644 139 644ZM141 677C93 677 66 703 66 737C66 780 102 811 155 811C203 811 230 786 230 751C230 709 195 677 141 677Z" glyph-name="uni030A" horiz-adv-x="0" unicode="&#778;" /><glyph d="M26 652 251 778 253 782H121L-29 656L-30 652ZM238 652 462 778 464 782H333L183 656L182 652Z" glyph-name="uni030B" horiz-adv-x="0" unicode="&#779;" /><glyph d="M329 792H264L168 731L140 702H124L108 731L48 792H-2L-3 788L79 652H162L328 788Z" glyph-name="uni030C" horiz-adv-x="0" unicode="&#780;" /><glyph d="M181 652 184 660C142 679 128 689 128 701C128 719 159 737 259 764L254 794C117 766 48 736 48 695C48 678 58 665 77 652Z" glyph-name="uni0312" horiz-adv-x="0" unicode="&#786;" /><glyph d="M60 585 93 574 243 752 247 765H152Z" glyph-name="uni0315" horiz-adv-x="0" unicode="&#789;" /><glyph d="M-98 -198 -61 -84H-168L-204 -198Z" glyph-name="uni0323" horiz-adv-x="0" unicode="&#803;" /><glyph d="M-204 -194 -170 -84H-266L-300 -194ZM3 -194 37 -84H-59L-94 -194Z" glyph-name="uni0324" horiz-adv-x="0" unicode="&#804;" /><glyph d="M-75 -84H-179L-181 -92C-139 -112 -126 -122 -127 -134C-129 -151 -159 -170 -258 -196L-253 -226C-100 -195 -50 -167 -47 -131C-45 -114 -55 -99 -75 -84Z" glyph-name="uni0326" horiz-adv-x="0" unicode="&#806;" /><glyph d="M-174 -157 -46 -1 -89 11 -284 -153 -286 -157Z" glyph-name="uni0327" horiz-adv-x="0" unicode="&#807;" /><glyph d="M-177 -157H-43L-40 -147C-109 -125 -127 -113 -127 -101C-127 -90 -116 -75 -46 0L-75 19C-187 -70 -211 -97 -211 -117C-211 -132 -196 -147 -177 -157Z" glyph-name="uni0328" horiz-adv-x="0" unicode="&#808;" /><glyph d="M-322 -225H-257L-160 -163L-132 -135H-117L-100 -163L-41 -225H9L11 -220L-72 -84H-155L-321 -220Z" glyph-name="uni032D" horiz-adv-x="0" unicode="&#813;" /><glyph d="M-147 -225C-50 -225 13 -173 40 -84H-13C-36 -136 -76 -164 -137 -164C-202 -164 -226 -136 -218 -84H-269C-292 -171 -241 -225 -147 -225Z" glyph-name="uni032E" horiz-adv-x="0" unicode="&#814;" /><glyph d="M-307 -154H33L52 -94H-288Z" glyph-name="uni0331" horiz-adv-x="0" unicode="&#817;" /><glyph d="M0 -154 19 -94H-256L-275 -154Z" glyph-name="uni0331.nrw" horiz-adv-x="0" /><glyph d="M196 413 225 454 278 624 276 659 286 666H391L427 675L434 666L414 631L376 493L405 494L456 640V668L466 675C541 665 583 634 583 578C583 471 450 402 238 402H204ZM244 69 236 62 210 70H98L92 80L120 122L179 311L177 346L188 354H241C410 354 496 303 496 217C496 135 429 77 273 63L267 71L287 104L331 263H303L244 96ZM218 -135 255 -16 254 17 263 23 292 12C478 18 565 108 565 209C565 296 489 354 387 372L391 382C552 402 658 484 658 590C658 667 594 715 524 724L482 710L475 720L501 760L531 854H478L446 754L447 720L440 714L410 726H239L13 10H176L218 21L223 13L199 -26L166 -135Z" glyph-name="uni0E3F" horiz-adv-x="652" unicode="&#3647;" /><glyph d="M260 0C449 0 578 80 578 206C578 293 522 345 402 371L405 381C577 413 671 489 671 592C671 685 593 736 455 736H244L11 0ZM205 414 231 451 287 629 286 665 296 673H418C535 673 591 641 591 577C591 484 466 401 238 401H213ZM98 74 123 110 186 311 185 346 197 355H241C433 355 504 292 504 213C504 119 412 63 232 63H105ZM30 -154H370L389 -94H49Z" glyph-name="uni1E06" horiz-adv-x="667" unicode="&#7686;" /><glyph d="M-2 -4H39L76 53H87L117 12C142 0 169 -5 200 -5C280 -5 351 28 403 80C473 150 516 267 516 368C516 484 460 560 357 560C347 560 336 559 323 557L230 499L219 508L255 573L316 765H242ZM195 57C161 57 129 66 99 83L94 102L119 146L200 407L202 447L218 466C265 489 297 500 327 500C401 500 445 453 445 365C445 282 408 178 352 122C313 83 261 57 195 57ZM-24 -154H316L335 -94H-5Z" glyph-name="uni1E07" horiz-adv-x="558" unicode="&#7687;" /><glyph d="M169 0C337 0 457 47 542 132C625 215 678 343 678 460C678 636 569 736 378 736H244L11 0ZM105 82 133 124 288 618 286 656 299 665H351C518 665 596 588 596 457C596 351 543 240 482 178C412 108 311 71 172 71H112ZM235 -198 272 -84H165L129 -198Z" glyph-name="uni1E0C" horiz-adv-x="701" unicode="&#7692;" /><glyph d="M229 55C156 55 111 103 112 196C112 274 149 376 205 433C243 471 295 497 359 497C392 497 427 487 457 467L460 443L436 405L356 146V111L338 89C290 65 258 55 229 55ZM204 -5C217 -5 233 -3 243 -1L333 61H345L340 -4H380L622 765H548L485 563L481 505L466 498L431 540C409 553 384 560 355 560C277 560 207 528 155 475C87 408 41 289 41 192C40 72 96 -5 204 -5ZM174 -198 211 -84H104L68 -198Z" glyph-name="uni1E0D" horiz-adv-x="558" unicode="&#7693;" /><glyph d="M169 0C337 0 457 47 542 132C625 215 678 343 678 460C678 636 569 736 378 736H244L11 0ZM105 82 133 124 288 618 286 656 299 665H351C518 665 596 588 596 457C596 351 543 240 482 178C412 108 311 71 172 71H112ZM26 -154H366L385 -94H45Z" glyph-name="uni1E0E" horiz-adv-x="701" unicode="&#7694;" /><glyph d="M229 55C156 55 111 103 112 196C112 274 149 376 205 433C243 471 295 497 359 497C392 497 427 487 457 467L460 443L436 405L356 146V111L338 89C290 65 258 55 229 55ZM204 -5C217 -5 233 -3 243 -1L333 61H345L340 -4H380L622 765H548L485 563L481 505L466 498L431 540C409 553 384 560 355 560C277 560 207 528 155 475C87 408 41 289 41 192C40 72 96 -5 204 -5ZM-34 -154H306L325 -94H-15Z" glyph-name="uni1E0F" horiz-adv-x="558" unicode="&#7695;" /><glyph d="M169 0C337 0 457 47 542 132C625 215 678 343 678 460C678 636 569 736 378 736H244L11 0ZM105 82 133 124 288 618 286 656 299 665H351C518 665 596 588 596 457C596 351 543 240 482 178C412 108 311 71 172 71H112ZM9 -225H74L171 -163L199 -135H214L231 -163L290 -225H340L342 -220L259 -84H176L10 -220Z" glyph-name="uni1E12" horiz-adv-x="701" unicode="&#7698;" /><glyph d="M229 55C156 55 111 103 112 196C112 274 149 376 205 433C243 471 295 497 359 497C392 497 427 487 457 467L460 443L436 405L356 146V111L338 89C290 65 258 55 229 55ZM204 -5C217 -5 233 -3 243 -1L333 61H345L340 -4H380L622 765H548L485 563L481 505L466 498L431 540C409 553 384 560 355 560C277 560 207 528 155 475C87 408 41 289 41 192C40 72 96 -5 204 -5ZM-50 -225H15L112 -163L140 -135H155L172 -163L231 -225H281L283 -220L200 -84H117L-49 -220Z" glyph-name="uni1E13" horiz-adv-x="558" unicode="&#7699;" /><glyph d="M550 45 656 383H387L366 317H522L568 331L577 319L550 278L501 121L508 93L499 81C452 64 407 57 367 57C231 57 162 141 162 269C162 378 213 508 288 583C342 637 411 671 494 671C564 671 621 647 676 606L722 670C663 716 591 744 504 744C394 744 303 703 229 630C138 539 81 392 81 265C81 100 178 -7 339 -7C414 -7 487 14 550 45ZM742 832 761 893H374L355 832Z" glyph-name="uni1E20" horiz-adv-x="708" unicode="&#7712;" /><glyph d="M252 124C175 124 129 169 129 253C129 311 154 387 200 433C240 473 296 498 359 498C396 498 431 488 463 470L467 452L442 410L381 208L380 170L369 156C314 132 283 124 252 124ZM126 -162C264 -162 362 -81 409 71L563 558H523L485 498H474L446 540C420 552 392 560 356 560C280 560 206 531 150 475C88 413 56 319 56 245C56 134 118 66 222 66C235 66 247 67 258 69L346 117L356 109L353 101C308 -37 236 -101 132 -101C75 -101 29 -83 -19 -56L-53 -113C-2 -142 55 -162 126 -162ZM221 662H561L580 722H240Z" glyph-name="uni1E21" horiz-adv-x="563" unicode="&#7713;" /><glyph d="M93 0 190 307 189 343 201 352 233 340H520L565 352L573 341L548 301L453 0H535L768 736H686L595 448L596 412L585 404L553 416H265L221 403L212 415L237 454L326 736H244L11 0ZM265 -198 302 -84H195L159 -198Z" glyph-name="uni1E24" horiz-adv-x="722" unicode="&#7716;" /><glyph d="M202 405 205 447 222 468C271 490 307 498 342 498C416 498 454 463 454 402C454 376 447 344 437 313L339 0H413L507 301C521 344 529 379 529 410C529 507 469 561 372 561C349 561 330 557 310 550L230 500L220 509L253 567L315 765H241L0 0H74ZM204 -198 241 -84H134L98 -198Z" glyph-name="uni1E25" horiz-adv-x="577" unicode="&#7717;" /><glyph d="M14 8 53 1 50 -11 -2 -30 -146 -153 -147 -157H-35L93 0L190 307L189 343L201 352L233 340H520L565 352L573 341L548 301L453 0H535L768 736H686L595 448L596 412L585 404L553 416H265L221 403L212 415L237 454L326 736H244Z" glyph-name="uni1E28" horiz-adv-x="722" unicode="&#7720;" /><glyph d="M74 0 202 405 205 447 222 468C271 490 307 498 342 498C416 498 454 463 454 402C454 376 447 344 437 313L339 0H413L507 301C521 344 529 379 529 410C529 507 469 561 372 561C349 561 330 557 310 550L230 500L220 509L252 567L315 765H241L3 9L35 2L31 -12L-20 -30L-165 -153L-166 -157H-54Z" glyph-name="uni1E29" horiz-adv-x="577" unicode="&#7721;" /><glyph d="M93 0 190 307 189 343 201 352 233 340H520L565 352L573 341L548 301L453 0H535L768 736H686L595 448L596 412L585 404L553 416H265L221 403L212 415L237 454L326 736H244L11 0ZM215 -225C312 -225 375 -173 402 -84H349C326 -136 286 -164 225 -164C160 -164 136 -136 144 -84H93C70 -171 121 -225 215 -225Z" glyph-name="uni1E2A" horiz-adv-x="722" unicode="&#7722;" /><glyph d="M202 405 205 447 222 468C271 490 307 498 342 498C416 498 454 463 454 402C454 376 447 344 437 313L339 0H413L507 301C521 344 529 379 529 410C529 507 469 561 372 561C349 561 330 557 310 550L230 500L220 509L253 567L315 765H241L0 0H74ZM155 -225C252 -225 315 -173 342 -84H289C266 -136 226 -164 165 -164C100 -164 76 -136 84 -84H33C10 -171 61 -225 155 -225Z" glyph-name="uni1E2B" horiz-adv-x="577" unicode="&#7723;" /><glyph d="M93 0 186 302 189 343 201 353H282L289 326L467 0H552L555 8L362 349L333 371L337 385L382 406L764 728L767 736H664L307 429L285 403H218L209 415L238 463L323 736H241L11 0ZM248 -198 285 -84H178L142 -198Z" glyph-name="uni1E32" horiz-adv-x="658" unicode="&#7730;" /><glyph d="M74 0 140 208 141 255 154 265H225L231 244L356 0H430L432 8L300 258L273 280L278 294L319 316L584 546L587 554H496L248 333L229 312H168L159 325L195 378L316 765H242L0 0ZM198 -198 235 -84H128L92 -198Z" glyph-name="uni1E33" horiz-adv-x="531" unicode="&#7731;" /><glyph d="M93 0 186 302 189 343 201 353H282L289 326L467 0H552L555 8L362 349L333 371L337 385L382 406L764 728L767 736H664L307 429L285 403H218L209 415L238 463L323 736H241L11 0ZM39 -154H379L398 -94H58Z" glyph-name="uni1E34" horiz-adv-x="658" unicode="&#7732;" /><glyph d="M74 0 140 208 141 255 154 265H225L231 244L356 0H430L432 8L300 258L273 280L278 294L319 316L584 546L587 554H496L248 333L229 312H168L159 325L195 378L316 765H242L0 0ZM-10 -154H330L349 -94H9Z" glyph-name="uni1E35" horiz-adv-x="531" unicode="&#7733;" /><glyph d="M441 0 465 73H156L112 60L104 72L129 111L327 736H245L12 0ZM219 -198 256 -84H149L113 -198Z" glyph-name="uni1E36" horiz-adv-x="559" unicode="&#7734;" /><glyph d="M90 0 331 765H256L15 0ZM43 -198 80 -84H-27L-63 -198Z" glyph-name="uni1E37" horiz-adv-x="281" unicode="&#7735;" /><glyph d="M441 0 465 73H156L112 60L104 72L129 111L327 736H245L12 0ZM479 832 498 893H177L158 832ZM219 -198 256 -84H149L113 -198Z" glyph-name="uni1E38" horiz-adv-x="559" unicode="&#7736;" /><glyph d="M90 0 331 765H256L15 0ZM188 860H463L482 920H206ZM43 -198 80 -84H-27L-63 -198Z" glyph-name="uni1E39" horiz-adv-x="281" unicode="&#7737;" /><glyph d="M441 0 465 73H156L112 60L104 72L129 111L327 736H245L12 0ZM10 -154H350L369 -94H29Z" glyph-name="uni1E3A" horiz-adv-x="559" unicode="&#7738;" /><glyph d="M90 0 331 765H256L15 0ZM141 -154 160 -94H-115L-134 -154Z" glyph-name="uni1E3B" horiz-adv-x="281" unicode="&#7739;" /><glyph d="M441 0 465 73H156L112 60L104 72L129 111L327 736H245L12 0ZM-5 -225H60L157 -163L185 -135H200L217 -163L276 -225H326L328 -220L245 -84H162L-4 -220Z" glyph-name="uni1E3C" horiz-adv-x="559" unicode="&#7740;" /><glyph d="M90 0 331 765H256L15 0ZM-181 -225H-116L-19 -163L9 -135H24L41 -163L100 -225H150L152 -220L69 -84H-14L-180 -220Z" glyph-name="uni1E3D" horiz-adv-x="281" unicode="&#7741;" /><glyph d="M407 -8 790 578 834 669H857L672 0H748L945 736H818L449 171L401 68H382L397 171L381 736H260L-4 0H70L301 669H325L312 584L331 -8ZM662 821 919 940 920 945H752L581 826L579 821Z" glyph-name="uni1E3E" horiz-adv-x="917" unicode="&#7742;" /><glyph d="M201 407 205 447 223 469C268 490 305 498 337 498C406 498 443 465 443 408C443 384 436 352 426 319L326 0H400L497 309C511 354 518 390 518 421C518 428 518 435 517 442L537 467C575 484 617 498 657 498C731 498 769 463 769 404C769 379 762 349 753 319L652 0H727L823 307C836 350 844 383 844 416C844 508 788 560 689 560C659 560 626 555 601 547L507 479C487 531 437 560 370 560C346 560 319 556 298 549L225 495H214L217 558H176L0 0H74ZM595 652 843 778 845 782H686L528 656L527 652Z" glyph-name="uni1E3F" horiz-adv-x="890" unicode="&#7743;" /><glyph d="M407 -8 790 578 834 669H857L672 0H748L945 736H818L449 171L401 68H382L397 171L381 736H260L-4 0H70L301 669H325L312 584L331 -8ZM676 821 712 935H606L570 821Z" glyph-name="uni1E40" horiz-adv-x="917" unicode="&#7744;" /><glyph d="M201 407 205 447 223 469C268 490 305 498 337 498C406 498 443 465 443 408C443 384 436 352 426 319L326 0H400L497 309C511 354 518 390 518 421C518 428 518 435 517 442L537 467C575 484 617 498 657 498C731 498 769 463 769 404C769 379 762 349 753 319L652 0H727L823 307C836 350 844 383 844 416C844 508 788 560 689 560C659 560 626 555 601 547L507 479C487 531 437 560 370 560C346 560 319 556 298 549L225 495H214L217 558H176L0 0H74ZM616 652 653 766H546L510 652Z" glyph-name="uni1E41" horiz-adv-x="890" unicode="&#7745;" /><glyph d="M407 -8 790 578 834 669H857L672 0H748L945 736H818L449 171L401 68H382L397 171L381 736H260L-4 0H70L301 669H325L312 584L331 -8ZM359 -198 396 -84H289L253 -198Z" glyph-name="uni1E42" horiz-adv-x="917" unicode="&#7746;" /><glyph d="M201 407 205 447 223 469C268 490 305 498 337 498C406 498 443 465 443 408C443 384 436 352 426 319L326 0H400L497 309C511 354 518 390 518 421C518 428 518 435 517 442L537 467C575 484 617 498 657 498C731 498 769 463 769 404C769 379 762 349 753 319L652 0H727L823 307C836 350 844 383 844 416C844 508 788 560 689 560C659 560 626 555 601 547L507 479C487 531 437 560 370 560C346 560 319 556 298 549L225 495H214L217 558H176L0 0H74ZM353 -198 390 -84H283L247 -198Z" glyph-name="uni1E43" horiz-adv-x="890" unicode="&#7747;" /><glyph d="M87 0 259 546 275 662 299 668 437 0H546L779 736H703L534 200L518 83L494 78L358 736H244L11 0ZM589 821 625 935H519L483 821Z" glyph-name="uni1E44" horiz-adv-x="733" unicode="&#7748;" /><glyph d="M202 405 205 447 222 468C271 490 307 498 342 498C416 498 454 463 454 402C454 376 447 344 437 313L339 0H413L507 301C521 344 529 379 529 410C529 507 470 561 370 561C345 561 324 557 302 549L224 495H213L217 558H176L0 0H74ZM456 652 493 766H386L350 652Z" glyph-name="uni1E45" horiz-adv-x="577" unicode="&#7749;" /><glyph d="M87 0 259 546 275 662 299 668 437 0H546L779 736H703L534 200L518 83L494 78L358 736H244L11 0ZM267 -198 304 -84H197L161 -198Z" glyph-name="uni1E46" horiz-adv-x="733" unicode="&#7750;" /><glyph d="M202 405 205 447 222 468C271 490 307 498 342 498C416 498 454 463 454 402C454 376 447 344 437 313L339 0H413L507 301C521 344 529 379 529 410C529 507 470 561 370 561C345 561 324 557 302 549L224 495H213L217 558H176L0 0H74ZM193 -198 230 -84H123L87 -198Z" glyph-name="uni1E47" horiz-adv-x="577" unicode="&#7751;" /><glyph d="M87 0 259 546 275 662 299 668 437 0H546L779 736H703L534 200L518 83L494 78L358 736H244L11 0ZM58 -154H398L417 -94H77Z" glyph-name="uni1E48" horiz-adv-x="733" unicode="&#7752;" /><glyph d="M202 405 205 447 222 468C271 490 307 498 342 498C416 498 454 463 454 402C454 376 447 344 437 313L339 0H413L507 301C521 344 529 379 529 410C529 507 470 561 370 561C345 561 324 557 302 549L224 495H213L217 558H176L0 0H74ZM-16 -154H324L343 -94H3Z" glyph-name="uni1E49" horiz-adv-x="577" unicode="&#7753;" /><glyph d="M87 0 259 546 275 662 299 668 437 0H546L779 736H703L534 200L518 83L494 78L358 736H244L11 0ZM43 -225H108L205 -163L233 -135H248L265 -163L324 -225H374L376 -220L293 -84H210L44 -220Z" glyph-name="uni1E4A" horiz-adv-x="733" unicode="&#7754;" /><glyph d="M202 405 205 447 222 468C271 490 307 498 342 498C416 498 454 463 454 402C454 376 447 344 437 313L339 0H413L507 301C521 344 529 379 529 410C529 507 470 561 370 561C345 561 324 557 302 549L224 495H213L217 558H176L0 0H74ZM-31 -225H34L131 -163L159 -135H174L191 -163L250 -225H300L302 -220L219 -84H136L-30 -220Z" glyph-name="uni1E4B" horiz-adv-x="577" unicode="&#7755;" /><glyph d="M188 351 215 391 290 626 288 662 298 670H424C538 670 589 623 588 554C587 436 435 340 257 340H196ZM169 241 168 277 179 285H232C320 285 355 259 391 187L491 0H582L584 8L482 186C450 248 416 280 356 299L358 308C551 346 672 434 673 568C674 667 602 736 453 736H244L11 0H93ZM545 821 581 935H475L439 821Z" glyph-name="uni1E58" horiz-adv-x="682" unicode="&#7768;" /><glyph d="M74 0 191 370 192 402 206 418C293 465 357 483 430 488L454 565C400 564 356 554 308 536L212 453H201L216 558H176L0 0ZM390 652 427 766H320L284 652Z" glyph-name="uni1E59" horiz-adv-x="395" unicode="&#7769;" /><glyph d="M188 351 215 391 290 626 288 662 298 670H424C538 670 589 623 588 554C587 436 435 340 257 340H196ZM169 241 168 277 179 285H232C320 285 355 259 391 187L491 0H582L584 8L482 186C450 248 416 280 356 299L358 308C551 346 672 434 673 568C674 667 602 736 453 736H244L11 0H93ZM259 -198 296 -84H189L153 -198Z" glyph-name="uni1E5A" horiz-adv-x="682" unicode="&#7770;" /><glyph d="M74 0 191 370 192 402 206 418C293 465 357 483 430 488L454 565C400 564 356 554 308 536L212 453H201L216 558H176L0 0ZM27 -198 64 -84H-43L-79 -198Z" glyph-name="uni1E5B" horiz-adv-x="395" unicode="&#7771;" /><glyph d="M188 351 215 391 290 626 288 662 298 670H424C538 670 589 623 588 554C587 436 435 340 257 340H196ZM169 241 168 277 179 285H232C320 285 355 259 391 187L491 0H582L584 8L482 186C450 248 416 280 356 299L358 308C551 346 672 434 673 568C674 667 602 736 453 736H244L11 0H93ZM689 832 708 893H321L302 832ZM259 -198 296 -84H189L153 -198Z" glyph-name="uni1E5C" horiz-adv-x="682" unicode="&#7772;" /><glyph d="M74 0 191 370 192 402 206 418C293 465 357 483 430 488L454 565C400 564 356 554 308 536L212 453H201L216 558H176L0 0ZM203 662H478L497 722H221ZM27 -198 64 -84H-43L-79 -198Z" glyph-name="uni1E5D" horiz-adv-x="395" unicode="&#7773;" /><glyph d="M188 351 215 391 290 626 288 662 298 670H424C538 670 589 623 588 554C587 436 435 340 257 340H196ZM169 241 168 277 179 285H232C320 285 355 259 391 187L491 0H582L584 8L482 186C450 248 416 280 356 299L358 308C551 346 672 434 673 568C674 667 602 736 453 736H244L11 0H93ZM50 -154H390L409 -94H69Z" glyph-name="uni1E5E" horiz-adv-x="682" unicode="&#7774;" /><glyph d="M74 0 191 370 192 402 206 418C293 465 357 483 430 488L454 565C400 564 356 554 308 536L212 453H201L216 558H176L0 0ZM126 -154 145 -94H-130L-149 -154Z" glyph-name="uni1E5F" horiz-adv-x="395" unicode="&#7775;" /><glyph d="M264 -5C440 -5 545 94 546 216C547 301 504 352 378 410C274 460 244 495 245 546C245 616 305 673 413 673C487 673 551 647 604 608L651 670C581 715 510 741 421 741C257 741 163 649 163 537C163 455 211 402 331 347C435 297 464 262 464 206C464 125 387 63 271 63C182 63 108 94 38 142L-7 79C74 25 159 -5 264 -5ZM222 -198 259 -84H152L116 -198Z" glyph-name="uni1E62" horiz-adv-x="637" unicode="&#7778;" /><glyph d="M205 -8C332 -8 415 65 415 157C415 226 368 266 287 307C215 344 186 368 186 409C186 462 236 502 306 502C360 502 413 479 458 446L497 499C441 538 379 561 312 561C200 561 117 496 117 404C117 335 159 299 243 256C309 221 346 197 346 150C346 93 291 51 212 51C145 51 79 80 32 122L-12 69C48 22 122 -8 205 -8ZM158 -198 195 -84H88L52 -198Z" glyph-name="uni1E63" horiz-adv-x="517" unicode="&#7779;" /><glyph d="M273 0 471 629V665L482 674L515 662H729L753 736H177L153 662H360L405 674L413 663L387 623L191 0ZM221 -198 258 -84H151L115 -198Z" glyph-name="uni1E6C" horiz-adv-x="640" unicode="&#7788;" /><glyph d="M299 -1 317 63C307 61 289 59 278 59C203 59 169 85 169 146C169 165 173 193 182 224L256 460V493L266 501L297 490H446L465 551H324L281 539L273 550L298 591L341 731H267L221 581L223 548L212 540L182 551H121L101 490H155L197 502L205 491L180 450L112 233C100 197 93 163 93 132C93 43 148 -5 259 -5C274 -5 289 -3 299 -1ZM150 -198 187 -84H80L44 -198Z" glyph-name="uni1E6D" horiz-adv-x="434" unicode="&#7789;" /><glyph d="M273 0 471 629V665L482 674L515 662H729L753 736H177L153 662H360L405 674L413 663L387 623L191 0ZM12 -154H352L371 -94H31Z" glyph-name="uni1E6E" horiz-adv-x="640" unicode="&#7790;" /><glyph d="M299 -1 317 63C307 61 289 59 278 59C203 59 169 85 169 146C169 165 173 193 182 224L256 460V493L266 501L297 490H446L465 551H324L281 539L273 550L298 591L341 731H267L221 581L223 548L212 540L182 551H121L101 490H155L197 502L205 491L180 450L112 233C100 197 93 163 93 132C93 43 148 -5 259 -5C274 -5 289 -3 299 -1ZM248 -154 267 -94H-8L-27 -154Z" glyph-name="uni1E6F" horiz-adv-x="434" unicode="&#7791;" /><glyph d="M273 0 471 629V665L482 674L515 662H729L753 736H177L153 662H360L405 674L413 663L387 623L191 0ZM-3 -225H62L159 -163L187 -135H202L219 -163L278 -225H328L330 -220L247 -84H164L-2 -220Z" glyph-name="uni1E70" horiz-adv-x="640" unicode="&#7792;" /><glyph d="M299 -1 317 63C307 61 289 59 278 59C203 59 169 85 169 146C169 165 173 193 182 224L256 460V493L266 501L297 490H446L465 551H324L281 539L273 550L298 591L341 731H267L221 581L223 548L212 540L182 551H121L101 490H155L197 502L205 491L180 450L112 233C100 197 93 163 93 132C93 43 148 -5 259 -5C274 -5 289 -3 299 -1ZM-74 -225H-9L88 -163L116 -135H131L148 -163L207 -225H257L259 -220L176 -84H93L-73 -220Z" glyph-name="uni1E71" horiz-adv-x="434" unicode="&#7793;" /><glyph d="M802 736H714L330 138L293 56H277L286 138L265 736H185L219 -11H312ZM258 -198 295 -84H188L152 -198Z" glyph-name="uni1E7E" horiz-adv-x="708" unicode="&#7806;" /><glyph d="M598 554H515L250 135L211 51H191L200 135L194 554H120L140 -11H224ZM175 -198 212 -84H105L69 -198Z" glyph-name="uni1E7F" horiz-adv-x="545" unicode="&#7807;" /><glyph d="M57 0 337 293 361 336H375V293L472 0H552L554 7L433 355L413 373L416 385L449 404L766 729L768 736H676L418 465L393 421H378L377 465L290 736H209L208 729L321 404L341 385L337 374L306 356L-34 7L-36 0ZM439 823 474 933H378L343 823ZM674 823 709 933H612L577 823Z" glyph-name="uni1E8C" horiz-adv-x="691" unicode="&#7820;" /><glyph d="M41 0 236 210 260 250H273L274 210L343 0H413L415 6L324 261L307 279L310 290L340 308L571 548L573 554H493L310 358L287 318H274L273 358L208 554H137L135 548L221 308L239 291L236 280L205 262L-41 6L-42 0ZM437 652H533L568 762H472ZM230 652H326L361 762H265Z" glyph-name="uni1E8D" horiz-adv-x="542" unicode="&#7821;" /><glyph d="M286 0 379 299 774 730 776 736H685L388 409L361 353H345L346 409L254 736H175L173 730L298 301L204 0ZM551 821 587 935H481L445 821Z" glyph-name="uni1E8E" horiz-adv-x="663" unicode="&#7822;" /><glyph d="M-56 -160C110 -118 188 -53 302 119L594 554H512L261 157L220 75H200L210 158L201 554H127L151 50L163 35L162 25C101 -42 28 -76 -63 -99ZM432 652 469 766H362L326 652Z" glyph-name="uni1E8F" horiz-adv-x="539" unicode="&#7823;" /><glyph d="M494 0 516 69H186L101 49L93 62L680 667L702 736H212L190 667H500L582 685L590 674L3 69L-17 0ZM362 821 475 882 509 911H527L549 882L624 821H676L678 826L572 959H486L299 826L297 821Z" glyph-name="uni1E90" horiz-adv-x="644" unicode="&#7824;" /><glyph d="M374 0 393 60H148L81 43L74 57L506 493L524 554H139L120 494H351L418 510L425 497L-9 60L-27 0ZM192 652H258L354 713L382 742H397L414 713L473 652H524L525 656L442 792H359L193 656Z" glyph-name="uni1E91" horiz-adv-x="508" unicode="&#7825;" /><glyph d="M494 0 516 69H186L101 49L93 62L680 667L702 736H212L190 667H500L582 685L590 674L3 69L-17 0ZM223 -198 260 -84H153L117 -198Z" glyph-name="uni1E92" horiz-adv-x="644" unicode="&#7826;" /><glyph d="M374 0 393 60H148L81 43L74 57L506 493L524 554H139L120 494H351L418 510L425 497L-9 60L-27 0ZM155 -198 192 -84H85L49 -198Z" glyph-name="uni1E93" horiz-adv-x="508" unicode="&#7827;" /><glyph d="M494 0 516 69H186L101 49L93 62L680 667L702 736H212L190 667H500L582 685L590 674L3 69L-17 0ZM14 -154H354L373 -94H33Z" glyph-name="uni1E94" horiz-adv-x="644" unicode="&#7828;" /><glyph d="M374 0 393 60H148L81 43L74 57L506 493L524 554H139L120 494H351L418 510L425 497L-9 60L-27 0ZM-53 -154H287L306 -94H-34Z" glyph-name="uni1E95" horiz-adv-x="508" unicode="&#7829;" /><glyph d="M202 405 205 447 222 468C271 490 307 498 342 498C416 498 454 463 454 402C454 376 447 344 437 313L339 0H413L507 301C521 344 529 379 529 410C529 507 469 561 372 561C349 561 330 557 310 550L230 500L220 509L253 567L315 765H241L0 0H74ZM-5 -154H335L354 -94H14Z" glyph-name="uni1E96" horiz-adv-x="577" unicode="&#7830;" /><glyph d="M391 -8C540 -8 622 75 622 176C622 262 559 323 444 359L450 379L513 400L756 624L771 669C712 713 615 744 514 744C312 744 203 635 141 442L2 0H84L216 425C265 579 351 678 516 678C573 678 641 667 698 640L692 619L628 598L389 381L374 331C489 294 544 245 544 180C544 117 497 60 393 60C339 60 295 73 255 93L227 30C274 7 328 -8 391 -8Z" glyph-name="uni1E9E" horiz-adv-x="711" unicode="&#7838;" /><glyph d="M529 230 520 220 480 230H249L190 221L185 234L234 282L449 606L486 686H507L499 606L514 274ZM604 0 565 746H463L-42 0H45L141 141L153 174L168 181L205 168H474L518 179L528 169L519 127L525 0ZM274 -198 311 -84H204L168 -198Z" glyph-name="uni1EA0" horiz-adv-x="736" unicode="&#7840;" /><glyph d="M210 50C125 50 86 92 86 148C86 184 100 217 122 239C155 271 206 287 278 287C302 287 353 284 395 277L403 263L380 232L353 139V107L339 88C295 63 253 50 210 50ZM261 4 340 61 342 0H398L418 108L490 342C497 366 503 395 503 419C503 507 438 560 317 560C262 560 214 549 170 536L173 474C213 488 258 498 304 498C394 498 432 462 432 404C432 387 429 373 425 357L415 317L402 310L367 327C325 335 289 338 260 338C168 337 108 316 66 274C32 240 14 194 14 144C14 49 83 -6 190 -6C218 -6 239 -2 261 4ZM169 -198 206 -84H99L63 -198Z" glyph-name="uni1EA1" horiz-adv-x="548" unicode="&#7841;" /><glyph d="M529 230 520 220 480 230H249L190 221L185 234L234 282L449 606L486 686H507L499 606L514 274ZM604 0 565 746H463L-42 0H45L141 141L153 174L168 181L205 168H474L518 179L528 169L519 127L525 0ZM560 809C674 851 717 880 717 919C717 946 685 964 609 964H451L434 911H590C621 911 631 906 631 897C631 885 612 873 483 820L480 809Z" glyph-name="uni1EA2" horiz-adv-x="736" unicode="&#7842;" /><glyph d="M210 50C125 50 86 92 86 148C86 184 100 217 122 239C155 271 206 287 278 287C302 287 353 284 395 277L403 263L380 232L353 139V107L339 88C295 63 253 50 210 50ZM261 4 340 61 342 0H398L418 108L490 342C497 366 503 395 503 419C503 507 438 560 317 560C262 560 214 549 170 536L173 474C213 488 258 498 304 498C394 498 432 462 432 404C432 387 429 373 425 357L415 317L402 310L367 327C325 335 289 338 260 338C168 337 108 316 66 274C32 240 14 194 14 144C14 49 83 -6 190 -6C218 -6 239 -2 261 4ZM302 744H425C454 744 464 739 464 730C463 716 446 703 338 649L334 638H399C503 686 542 715 543 749C543 778 516 798 458 798H320Z" glyph-name="uni1EA3" horiz-adv-x="548" unicode="&#7843;" /><glyph d="M529 230 520 220 480 230H249L190 221L185 234L234 282L449 606L486 686H507L499 606L514 274ZM604 0 565 746H463L-42 0H45L141 141L153 174L168 181L205 168H474L518 179L528 169L519 127L525 0ZM775 947 992 1052 994 1057H839L699 951L698 947ZM412 821 526 877 559 905H577L599 877L674 821H726L728 826L621 953H536L349 826L347 821Z" glyph-name="uni1EA4" horiz-adv-x="736" unicode="&#7844;" /><glyph d="M210 50C125 50 86 92 86 148C86 184 100 217 122 239C155 271 206 287 278 287C302 287 353 284 395 277L403 263L380 232L353 139V107L339 88C295 63 253 50 210 50ZM261 4 340 61 342 0H398L418 108L490 342C497 366 503 395 503 419C503 507 438 560 317 560C262 560 214 549 170 536L173 474C213 488 258 498 304 498C394 498 432 462 432 404C432 387 429 373 425 357L415 317L402 310L367 327C325 335 289 338 260 338C168 337 108 316 66 274C32 240 14 194 14 144C14 49 83 -6 190 -6C218 -6 239 -2 261 4ZM611 772 825 881 826 885H684L550 776L549 772ZM283 652 377 708 405 736H421L438 708L498 652H550L551 656L469 786H384L218 656L217 652Z" glyph-name="uni1EA5" horiz-adv-x="548" unicode="&#7845;" /><glyph d="M529 230 520 220 480 230H249L190 221L185 234L234 282L449 606L486 686H507L499 606L514 274ZM604 0 565 746H463L-42 0H45L141 141L153 174L168 181L205 168H474L518 179L528 169L519 127L525 0ZM840 947 841 951 753 1057H622L620 1052L778 947ZM412 821 526 877 559 905H577L599 877L674 821H726L728 826L621 953H536L349 826L347 821Z" glyph-name="uni1EA6" horiz-adv-x="736" unicode="&#7846;" /><glyph d="M210 50C125 50 86 92 86 148C86 184 100 217 122 239C155 271 206 287 278 287C302 287 353 284 395 277L403 263L380 232L353 139V107L339 88C295 63 253 50 210 50ZM261 4 340 61 342 0H398L418 108L490 342C497 366 503 395 503 419C503 507 438 560 317 560C262 560 214 549 170 536L173 474C213 488 258 498 304 498C394 498 432 462 432 404C432 387 429 373 425 357L415 317L402 310L367 327C325 335 289 338 260 338C168 337 108 316 66 274C32 240 14 194 14 144C14 49 83 -6 190 -6C218 -6 239 -2 261 4ZM681 772 682 776 600 885H479L478 881L628 772ZM283 652 377 708 405 736H421L438 708L497 652H550L551 656L469 786H384L218 656L217 652Z" glyph-name="uni1EA7" horiz-adv-x="548" unicode="&#7847;" /><glyph d="M529 230 520 220 480 230H249L190 221L185 234L234 282L449 606L486 686H507L499 606L514 274ZM604 0 565 746H463L-42 0H45L141 141L153 174L168 181L205 168H474L518 179L528 169L519 127L525 0ZM781 929C876 978 906 1003 906 1038C906 1062 883 1079 826 1079H703L687 1027H789C818 1027 826 1023 826 1016C826 1003 809 991 718 940L714 929ZM412 821 526 877 559 905H577L599 877L674 821H726L728 826L621 953H536L349 826L347 821Z" glyph-name="uni1EA8" horiz-adv-x="736" unicode="&#7848;" /><glyph d="M210 50C125 50 86 92 86 148C86 184 100 217 122 239C155 271 206 287 278 287C302 287 353 284 395 277L403 263L380 232L353 139V107L339 88C295 63 253 50 210 50ZM261 4 340 61 342 0H398L418 108L490 342C497 366 503 395 503 419C503 507 438 560 317 560C262 560 214 549 170 536L173 474C213 488 258 498 304 498C394 498 432 462 432 404C432 387 429 373 425 357L415 317L402 310L367 327C325 335 289 338 260 338C168 337 108 316 66 274C32 240 14 194 14 144C14 49 83 -6 190 -6C218 -6 239 -2 261 4ZM527 863H621C646 863 653 859 653 850C653 837 635 824 546 772L542 761H604C697 812 726 839 726 871C726 897 706 914 651 914H544ZM284 652 378 708 407 736H422L438 708L499 652H551L553 656L470 786H385L220 656L218 652Z" glyph-name="uni1EA9" horiz-adv-x="548" unicode="&#7849;" /><glyph d="M529 230 520 220 480 230H249L190 221L185 234L234 282L449 606L486 686H507L499 606L514 274ZM604 0 565 746H463L-42 0H45L141 141L153 174L168 181L205 168H474L518 179L528 169L519 127L525 0ZM452 993C504 1057 526 1074 544 1074C558 1074 566 1069 600 1038C637 1006 658 998 680 998C720 998 751 1023 815 1112L778 1135C727 1070 706 1055 689 1055C674 1055 667 1060 632 1090C595 1121 575 1131 553 1131C514 1131 483 1107 416 1016ZM412 821 526 877 559 905H577L599 877L674 821H726L728 826L621 953H536L349 826L347 821Z" glyph-name="uni1EAA" horiz-adv-x="736" unicode="&#7850;" /><glyph d="M210 50C125 50 86 92 86 148C86 184 100 217 122 239C155 271 206 287 278 287C302 287 353 284 395 277L403 263L380 232L353 139V107L339 88C295 63 253 50 210 50ZM261 4 340 61 342 0H398L418 108L490 342C497 366 503 395 503 419C503 507 438 560 317 560C262 560 214 549 170 536L173 474C213 488 258 498 304 498C394 498 432 462 432 404C432 387 429 373 425 357L415 317L402 310L367 327C325 335 289 338 260 338C168 337 108 316 66 274C32 240 14 194 14 144C14 49 83 -6 190 -6C218 -6 239 -2 261 4ZM319 830C364 891 383 909 399 909C411 909 417 905 447 875C479 844 495 834 518 834C553 834 588 866 645 951L609 972C562 908 544 893 529 893C516 893 510 897 480 927C447 959 433 968 409 968C374 968 340 937 282 852ZM283 652 377 708 405 736H421L438 708L498 652H550L551 656L469 785H384L218 656L217 652Z" glyph-name="uni1EAB" horiz-adv-x="548" unicode="&#7851;" /><glyph d="M529 230 520 220 480 230H249L190 221L185 234L234 282L449 606L486 686H507L499 606L514 274ZM604 0 565 746H463L-42 0H45L141 141L153 174L168 181L205 168H474L518 179L528 169L519 127L525 0ZM412 821 525 882 559 911H577L599 882L674 821H726L728 826L622 959H536L349 826L347 821ZM274 -198 311 -84H204L168 -198Z" glyph-name="uni1EAC" horiz-adv-x="736" unicode="&#7852;" /><glyph d="M210 50C125 50 86 92 86 148C86 184 100 217 122 239C155 271 206 287 278 287C302 287 353 284 395 277L403 263L380 232L353 139V107L339 88C295 63 253 50 210 50ZM261 4 340 61 342 0H398L418 108L490 342C497 366 503 395 503 419C503 507 438 560 317 560C262 560 214 549 170 536L173 474C213 488 258 498 304 498C394 498 432 462 432 404C432 387 429 373 425 357L415 317L402 310L367 327C325 335 289 338 260 338C168 337 108 316 66 274C32 240 14 194 14 144C14 49 83 -6 190 -6C218 -6 239 -2 261 4ZM218 652H284L380 713L408 742H423L440 713L499 652H550L551 656L468 792H385L219 656ZM169 -198 206 -84H99L63 -198Z" glyph-name="uni1EAD" horiz-adv-x="548" unicode="&#7853;" /><glyph d="M529 230 520 220 480 230H249L190 221L185 234L234 282L449 606L486 686H507L499 606L514 274ZM604 0 565 746H463L-42 0H45L141 141L153 174L168 181L205 168H474L518 179L528 169L519 127L525 0ZM615 982 859 1094 861 1099H697L533 986L532 982ZM547 821C654 821 724 871 754 955H700C674 908 627 881 555 881C482 881 451 907 458 955H406C384 874 440 821 547 821Z" glyph-name="uni1EAE" horiz-adv-x="736" unicode="&#7854;" /><glyph d="M210 50C125 50 86 92 86 148C86 184 100 217 122 239C155 271 206 287 278 287C302 287 353 284 395 277L403 263L380 232L353 139V107L339 88C295 63 253 50 210 50ZM261 4 340 61 342 0H398L418 108L490 342C497 366 503 395 503 419C503 507 438 560 317 560C262 560 214 549 170 536L173 474C213 488 258 498 304 498C394 498 432 462 432 404C432 387 429 373 425 357L415 317L402 310L367 327C325 335 289 338 260 338C168 337 108 316 66 274C32 240 14 194 14 144C14 49 83 -6 190 -6C218 -6 239 -2 261 4ZM456 818 693 933 694 937H541L388 823L387 818ZM397 651C493 651 556 702 582 785H530C505 737 465 711 405 711C340 711 316 737 324 785H271C252 703 301 651 397 651Z" glyph-name="uni1EAF" horiz-adv-x="548" unicode="&#7855;" /><glyph d="M529 230 520 220 480 230H249L190 221L185 234L234 282L449 606L486 686H507L499 606L514 274ZM604 0 565 746H463L-42 0H45L141 141L153 174L168 181L205 168H474L518 179L528 169L519 127L525 0ZM569 982H635L636 986L529 1099H390L389 1094ZM547 821C655 821 724 871 754 955H700C674 908 627 881 555 881C483 881 452 907 458 955H406C385 874 440 821 547 821Z" glyph-name="uni1EB0" horiz-adv-x="736" unicode="&#7856;" /><glyph d="M210 50C125 50 86 92 86 148C86 184 100 217 122 239C155 271 206 287 278 287C302 287 353 284 395 277L403 263L380 232L353 139V107L339 88C295 63 253 50 210 50ZM261 4 340 61 342 0H398L418 108L490 342C497 366 503 395 503 419C503 507 438 560 317 560C262 560 214 549 170 536L173 474C213 488 258 498 304 498C394 498 432 462 432 404C432 387 429 373 425 357L415 317L402 310L367 327C325 335 289 338 260 338C168 337 108 316 66 274C32 240 14 194 14 144C14 49 83 -6 190 -6C218 -6 239 -2 261 4ZM425 818H480L482 822L388 937H260L258 933ZM397 651C493 651 556 702 582 785H530C505 737 465 711 405 711C340 711 316 737 324 785H271C252 703 301 651 397 651Z" glyph-name="uni1EB1" horiz-adv-x="548" unicode="&#7857;" /><glyph d="M529 230 520 220 480 230H249L190 221L185 234L234 282L449 606L486 686H507L499 606L514 274ZM604 0 565 746H463L-42 0H45L141 141L153 174L168 181L205 168H474L518 179L528 169L519 127L525 0ZM493 1070H625C660 1070 670 1066 670 1057C670 1045 656 1036 537 985L533 974H610C720 1016 756 1042 756 1080C756 1105 729 1123 656 1123H510ZM547 821C654 821 724 871 754 955H700C674 908 627 881 555 881C482 881 451 907 458 955H406C385 878 436 821 547 821Z" glyph-name="uni1EB2" horiz-adv-x="736" unicode="&#7858;" /><glyph d="M210 50C125 50 86 92 86 148C86 184 100 217 122 239C155 271 206 287 278 287C302 287 353 284 395 277L403 263L380 232L353 139V107L339 88C295 63 253 50 210 50ZM261 4 340 61 342 0H398L418 108L490 342C497 366 503 395 503 419C503 507 438 560 317 560C262 560 214 549 170 536L173 474C213 488 258 498 304 498C394 498 432 462 432 404C432 387 429 373 425 357L415 317L402 310L367 327C325 335 289 338 260 338C168 337 108 316 66 274C32 240 14 194 14 144C14 49 83 -6 190 -6C218 -6 239 -2 261 4ZM359 903H471C501 903 511 899 511 890C511 878 496 866 389 813L386 803H452C554 848 588 876 588 909C588 937 560 955 505 955H376ZM398 651C494 651 557 702 583 785H531C506 737 466 711 406 711C340 711 318 736 325 785H272C253 703 303 651 398 651Z" glyph-name="uni1EB3" horiz-adv-x="548" unicode="&#7859;" /><glyph d="M529 230 520 220 480 230H249L190 221L185 234L234 282L449 606L486 686H507L499 606L514 274ZM604 0 565 746H463L-42 0H45L141 141L153 174L168 181L205 168H474L518 179L528 169L519 127L525 0ZM452 998C504 1061 526 1078 544 1078C558 1078 566 1073 600 1043C637 1011 658 1002 681 1002C720 1002 752 1028 815 1116L778 1139C727 1075 706 1059 689 1059C674 1059 667 1064 632 1094C595 1126 576 1135 553 1135C514 1135 483 1111 416 1021ZM547 821C654 821 724 871 754 955H700C674 908 627 881 555 881C482 881 451 907 458 955H406C384 874 440 821 547 821Z" glyph-name="uni1EB4" horiz-adv-x="736" unicode="&#7860;" /><glyph d="M210 50C125 50 86 92 86 148C86 184 100 217 122 239C155 271 206 287 278 287C302 287 353 284 395 277L403 263L380 232L353 139V107L339 88C295 63 253 50 210 50ZM261 4 340 61 342 0H398L418 108L490 342C497 366 503 395 503 419C503 507 438 560 317 560C262 560 214 549 170 536L173 474C213 488 258 498 304 498C394 498 432 462 432 404C432 387 429 373 425 357L415 317L402 310L367 327C325 335 289 338 260 338C168 337 108 316 66 274C32 240 14 194 14 144C14 49 83 -6 190 -6C218 -6 239 -2 261 4ZM318 827C363 888 382 906 398 906C410 906 417 902 446 873C479 841 494 831 517 831C553 831 587 863 644 948L608 970C561 906 543 890 527 890C515 890 509 894 479 924C446 956 432 965 408 965C373 965 339 935 282 848ZM398 651C492 651 556 702 582 785H530C505 737 466 711 405 711C341 711 316 737 324 785H271C253 703 300 651 398 651Z" glyph-name="uni1EB5" horiz-adv-x="548" unicode="&#7861;" /><glyph d="M529 230 520 220 480 230H249L190 221L185 234L234 282L449 606L486 686H507L499 606L514 274ZM604 0 565 746H463L-42 0H45L141 141L153 174L168 181L205 168H474L518 179L528 169L519 127L525 0ZM549 821C656 821 723 873 753 956H700C674 908 629 881 557 881C485 881 453 908 458 956H405C384 875 441 821 549 821ZM274 -198 311 -84H204L168 -198Z" glyph-name="uni1EB6" horiz-adv-x="736" unicode="&#7862;" /><glyph d="M210 50C125 50 86 92 86 148C86 184 100 217 122 239C155 271 206 287 278 287C302 287 353 284 395 277L403 263L380 232L353 139V107L339 88C295 63 253 50 210 50ZM261 4 340 61 342 0H398L418 108L490 342C497 366 503 395 503 419C503 507 438 560 317 560C262 560 214 549 170 536L173 474C213 488 258 498 304 498C394 498 432 462 432 404C432 387 429 373 425 357L415 317L402 310L367 327C325 335 289 338 260 338C168 337 108 316 66 274C32 240 14 194 14 144C14 49 83 -6 190 -6C218 -6 239 -2 261 4ZM396 651C493 651 556 703 583 792H530C506 740 466 711 406 711C340 711 316 740 325 792H273C250 704 302 651 396 651ZM169 -198 206 -84H99L63 -198Z" glyph-name="uni1EB7" horiz-adv-x="548" unicode="&#7863;" /><glyph d="M480 0 502 71H156L109 58L102 70L127 109L190 310L189 346L201 355L233 343H524L546 412H263L217 400L210 411L235 451L292 633L291 669L302 677L335 665H679L702 736H244L11 0ZM233 -198 270 -84H163L127 -198Z" glyph-name="uni1EB8" horiz-adv-x="620" unicode="&#7864;" /><glyph d="M423 280 390 292H172L132 280L122 293C164 421 252 507 336 507C417 507 447 447 447 373C447 349 444 319 438 291ZM398 27 384 83C340 65 299 53 254 53C156 53 107 112 107 213C107 222 107 231 108 241L121 250L165 240H485C504 297 512 342 512 384C512 480 460 563 343 563C271 563 209 532 157 480C88 411 42 296 42 194C42 70 113 -7 244 -7C295 -7 345 3 398 27ZM179 -198 216 -84H109L73 -198Z" glyph-name="uni1EB9" horiz-adv-x="542" unicode="&#7865;" /><glyph d="M480 0 502 71H156L109 58L102 70L127 109L190 310L189 346L201 355L233 343H524L546 412H263L217 400L210 411L235 451L292 633L291 669L302 677L335 665H679L702 736H244L11 0ZM520 809C634 851 677 880 677 919C677 946 645 964 569 964H411L394 911H550C581 911 591 906 591 897C591 885 572 873 443 820L440 809Z" glyph-name="uni1EBA" horiz-adv-x="620" unicode="&#7866;" /><glyph d="M423 280 390 292H172L132 280L122 293C164 421 252 507 336 507C417 507 447 447 447 373C447 349 444 319 438 291ZM398 27 384 83C340 65 299 53 254 53C156 53 107 112 107 213C107 222 107 231 108 241L121 250L165 240H485C504 297 512 342 512 384C512 480 460 563 343 563C271 563 209 532 157 480C88 411 42 296 42 194C42 70 113 -7 244 -7C295 -7 345 3 398 27ZM307 744H430C459 744 469 739 469 730C468 716 451 703 343 649L339 638H404C508 686 547 715 548 749C548 778 521 798 463 798H325Z" glyph-name="uni1EBB" horiz-adv-x="542" unicode="&#7867;" /><glyph d="M480 0 502 71H156L109 58L102 70L127 109L190 310L189 346L201 355L233 343H524L546 412H263L217 400L210 411L235 451L292 633L291 669L302 677L335 665H679L702 736H244L11 0ZM330 811C387 879 409 899 432 899C449 899 459 893 501 861C545 826 567 816 593 816C636 816 668 842 741 939L706 963C650 896 626 876 603 876C587 876 578 881 536 913C491 948 471 959 444 959C399 959 364 928 294 834Z" glyph-name="uni1EBC" horiz-adv-x="620" unicode="&#7868;" /><glyph d="M423 280 390 292H172L132 280L122 293C164 421 252 507 336 507C417 507 447 447 447 373C447 349 444 319 438 291ZM398 27 384 83C340 65 299 53 254 53C156 53 107 112 107 213C107 222 107 231 108 241L121 250L165 240H485C504 297 512 342 512 384C512 480 460 563 343 563C271 563 209 532 157 480C88 411 42 296 42 194C42 70 113 -7 244 -7C295 -7 345 3 398 27ZM238 646C290 712 313 734 335 734C352 734 361 726 398 694C439 658 454 649 482 649C527 649 563 688 622 775L586 797C533 731 512 708 490 708C474 708 465 716 426 749C385 784 372 794 343 794C297 794 262 755 202 668Z" glyph-name="uni1EBD" horiz-adv-x="542" unicode="&#7869;" /><glyph d="M480 0 502 71H156L109 58L102 70L127 109L190 310L189 346L201 355L233 343H524L546 412H263L217 400L210 411L235 451L292 633L291 669L302 677L335 665H679L702 736H244L11 0ZM735 947 952 1052 954 1057H799L659 951L658 947ZM372 821 486 877 519 905H537L559 877L634 821H686L688 826L581 953H496L309 826L307 821Z" glyph-name="uni1EBE" horiz-adv-x="620" unicode="&#7870;" /><glyph d="M423 280 390 292H172L132 280L122 293C164 421 252 507 336 507C417 507 447 447 447 373C447 349 444 319 438 291ZM398 27 384 83C340 65 299 53 254 53C156 53 107 112 107 213C107 222 107 231 108 241L121 250L165 240H485C504 297 512 342 512 384C512 480 460 563 343 563C271 563 209 532 157 480C88 411 42 296 42 194C42 70 113 -7 244 -7C295 -7 345 3 398 27ZM617 772 831 881 832 885H690L556 776L555 772ZM289 652 383 708 411 736H427L444 708L504 652H556L557 656L475 786H390L224 656L223 652Z" glyph-name="uni1EBF" horiz-adv-x="542" unicode="&#7871;" /><glyph d="M480 0 502 71H156L109 58L102 70L127 109L190 310L189 346L201 355L233 343H524L546 412H263L217 400L210 411L235 451L292 633L291 669L302 677L335 665H679L702 736H244L11 0ZM800 947 801 951 713 1057H582L580 1052L738 947ZM372 821 486 877 519 905H537L559 877L634 821H686L688 826L581 953H496L309 826L307 821Z" glyph-name="uni1EC0" horiz-adv-x="620" unicode="&#7872;" /><glyph d="M423 280 390 292H172L132 280L122 293C164 421 252 507 336 507C417 507 447 447 447 373C447 349 444 319 438 291ZM398 27 384 83C340 65 299 53 254 53C156 53 107 112 107 213C107 222 107 231 108 241L121 250L165 240H485C504 297 512 342 512 384C512 480 460 563 343 563C271 563 209 532 157 480C88 411 42 296 42 194C42 70 113 -7 244 -7C295 -7 345 3 398 27ZM686 772 687 776 605 885H484L483 881L633 772ZM288 652 382 708 410 736H426L443 708L502 652H555L556 656L474 786H389L223 656L222 652Z" glyph-name="uni1EC1" horiz-adv-x="542" unicode="&#7873;" /><glyph d="M480 0 502 71H156L109 58L102 70L127 109L190 310L189 346L201 355L233 343H524L546 412H263L217 400L210 411L235 451L292 633L291 669L302 677L335 665H679L702 736H244L11 0ZM741 929C836 978 866 1003 866 1038C866 1062 843 1079 786 1079H663L647 1027H749C778 1027 786 1023 786 1016C786 1003 769 991 678 940L674 929ZM372 821 486 877 519 905H537L559 877L634 821H686L688 826L581 953H496L309 826L307 821Z" glyph-name="uni1EC2" horiz-adv-x="620" unicode="&#7874;" /><glyph d="M423 280 390 292H172L132 280L122 293C164 421 252 507 336 507C417 507 447 447 447 373C447 349 444 319 438 291ZM398 27 384 83C340 65 299 53 254 53C156 53 107 112 107 213C107 222 107 231 108 241L121 250L165 240H485C504 297 512 342 512 384C512 480 460 563 343 563C271 563 209 532 157 480C88 411 42 296 42 194C42 70 113 -7 244 -7C295 -7 345 3 398 27ZM532 863H626C651 863 658 859 658 850C658 837 640 824 551 772L547 761H609C702 812 731 839 731 871C731 897 711 914 656 914H549ZM289 652 383 708 412 736H427L443 708L504 652H556L558 656L475 786H390L225 656L223 652Z" glyph-name="uni1EC3" horiz-adv-x="542" unicode="&#7875;" /><glyph d="M480 0 502 71H156L109 58L102 70L127 109L190 310L189 346L201 355L233 343H524L546 412H263L217 400L210 411L235 451L292 633L291 669L302 677L335 665H679L702 736H244L11 0ZM412 993C464 1057 486 1074 504 1074C518 1074 526 1069 560 1038C597 1006 618 998 640 998C680 998 711 1023 775 1112L738 1135C687 1070 666 1055 649 1055C634 1055 627 1060 592 1090C555 1121 535 1131 513 1131C474 1131 443 1107 376 1016ZM372 821 486 877 519 905H537L559 877L634 821H686L688 826L581 953H496L309 826L307 821Z" glyph-name="uni1EC4" horiz-adv-x="620" unicode="&#7876;" /><glyph d="M423 280 390 292H172L132 280L122 293C164 421 252 507 336 507C417 507 447 447 447 373C447 349 444 319 438 291ZM398 27 384 83C340 65 299 53 254 53C156 53 107 112 107 213C107 222 107 231 108 241L121 250L165 240H485C504 297 512 342 512 384C512 480 460 563 343 563C271 563 209 532 157 480C88 411 42 296 42 194C42 70 113 -7 244 -7C295 -7 345 3 398 27ZM325 830C370 891 389 909 405 909C417 909 423 905 453 875C485 844 501 834 524 834C559 834 594 866 651 951L615 972C568 908 550 893 535 893C522 893 516 897 486 927C453 959 439 968 415 968C380 968 346 937 288 852ZM289 652 383 708 411 736H427L444 708L504 652H556L557 656L475 785H390L224 656L223 652Z" glyph-name="uni1EC5" horiz-adv-x="542" unicode="&#7877;" /></font>
</defs>
</svg>
