<?xml version="1.0" standalone="no"?><!DOCTYPE svg PUBLIC "-//W3C//DTD SVG 1.1//EN" "http://www.w3.org/Graphics/SVG/1.1/DTD/svg11.dtd" ><svg version="1.1" xmlns="http://www.w3.org/2000/svg"><defs><font horiz-adv-x="0" id="font"><font-face ascent="800" bbox="-267 -240 1155 1043" cap-height="700" descent="-200" font-family="Retina" font-stretch="normal" font-style="italic" font-weight="900" units-per-em="1000" x-height="532" /><missing-glyph d="M100 -240H600V960H100ZM192 910H507L350 429ZM321 360 150 -154V874ZM378 360 550 874V-154ZM350 291 507 -190H192Z" horiz-adv-x="700" /><glyph d="M434 273H298L422 506ZM447 0H644L580 703H343L-59 0H153L212 111H442Z" glyph-name="A" horiz-adv-x="714" unicode="A" /><glyph d="M514 272H368L578 536ZM449 0H967L1007 164H681L708 277H989L1028 439H747L770 536H1088L1128 700H499L-66 0H152L240 111H476Z" glyph-name="AE" horiz-adv-x="1069" unicode="&#198;" /><glyph d="M514 272H368L578 536ZM449 0H967L1007 164H681L708 277H989L1028 439H747L770 536H1088L1128 700H499L-66 0H152L240 111H476ZM790 737 972 838H742L640 737Z" glyph-name="AEacute" horiz-adv-x="1069" unicode="&#508;" /><glyph d="M434 273H298L422 506ZM447 0H644L580 703H343L-59 0H153L212 111H442ZM528 742 710 843H480L378 742Z" glyph-name="Aacute" horiz-adv-x="714" unicode="&#193;" /><glyph d="M434 273H298L422 506ZM447 0H644L580 703H343L-59 0H153L212 111H442ZM488 830C451 830 429 845 426 869H333C324 790 380 737 477 737C570 737 644 786 665 869H570C553 845 527 830 488 830Z" glyph-name="Abreve" horiz-adv-x="714" unicode="&#258;" /><glyph d="M434 273H298L422 506ZM447 0H644L580 703H343L-59 0H153L212 111H442ZM484 780 531 742H645L575 851H415L293 742H419Z" glyph-name="Acircumflex" horiz-adv-x="714" unicode="&#194;" /><glyph d="M434 273H298L422 506ZM447 0H644L580 703H343L-59 0H153L212 111H442ZM443 742 473 864H332L302 742ZM636 742 666 864H525L496 742Z" glyph-name="Adieresis" horiz-adv-x="714" unicode="&#196;" /><glyph d="M434 273H298L422 506ZM447 0H644L580 703H343L-59 0H153L212 111H442ZM414 742H550L495 843H280Z" glyph-name="Agrave" horiz-adv-x="714" unicode="&#192;" /><glyph d="M434 273H298L422 506ZM447 0H644L580 703H343L-59 0H153L212 111H442ZM635 746 657 836H327L305 746Z" glyph-name="Amacron" horiz-adv-x="714" unicode="&#256;" /><glyph d="M434 273H298L422 506ZM630 -79C585 -68 574 -61 574 -51C574 -43 579 -34 611 0H644L580 703H343L-59 0H153L212 111H442L447 0H500C435 -39 418 -62 418 -86C418 -125 466 -147 609 -152Z" glyph-name="Aogonek" horiz-adv-x="714" unicode="&#260;" /><glyph d="M459 690C423 690 398 711 398 744C398 785 431 820 477 820C512 820 538 799 538 766C538 726 504 690 459 690ZM434 273H298L422 506ZM447 0H644L581 695H560C578 715 588 740 588 768C588 824 542 863 479 863C405 863 347 809 347 742C347 724 352 708 360 695H338L-59 0H153L212 111H442Z" glyph-name="Aring" horiz-adv-x="714" unicode="&#197;" /><glyph d="M553 887 709 974H491L404 887ZM459 690C423 690 398 711 398 744C398 785 431 820 477 820C512 820 538 799 538 766C538 726 504 690 459 690ZM434 273H298L422 506ZM447 0H644L581 695H560C578 715 588 740 588 768C588 824 542 863 479 863C405 863 347 809 347 742C347 724 352 708 360 695H338L-59 0H153L212 111H442Z" glyph-name="Aringacute" horiz-adv-x="714" unicode="&#506;" /><glyph d="M434 273H298L422 506ZM447 0H644L580 703H343L-59 0H153L212 111H442ZM419 780C435 780 450 775 485 759C521 742 538 736 561 736C604 736 638 759 690 843L622 882C596 847 580 835 559 835C543 835 529 840 493 857C457 874 440 880 417 880C375 880 340 856 288 772L356 734C383 768 398 780 419 780Z" glyph-name="Atilde" horiz-adv-x="714" unicode="&#195;" /><glyph d="M394 549C446 549 466 531 466 499C466 457 435 426 369 426H288L317 549ZM345 290C395 290 419 272 419 235C419 186 383 150 311 150H221L255 290ZM-10 0H276C502 0 616 85 616 220C616 282 579 330 512 355C604 381 672 441 672 539C672 638 593 700 422 700H159Z" glyph-name="B" horiz-adv-x="656" unicode="B" /><glyph d="M342 -10C413 -10 479 3 529 21L535 196C488 182 435 168 388 168C299 168 246 208 246 294C246 369 273 443 312 482C342 512 387 532 440 532C502 532 549 516 599 492L666 666C602 695 532 710 447 710C324 710 234 669 167 602C90 525 44 406 44 279C44 78 169 -10 342 -10Z" glyph-name="C" horiz-adv-x="611" unicode="C" /><glyph d="M342 -10C413 -10 479 3 529 21L535 196C488 182 435 168 388 168C299 168 246 208 246 294C246 369 273 443 312 482C342 512 387 532 440 532C502 532 549 516 599 492L666 666C602 695 532 710 447 710C324 710 234 669 167 602C90 525 44 406 44 279C44 78 169 -10 342 -10ZM518 744 700 845H470L368 744Z" glyph-name="Cacute" horiz-adv-x="611" unicode="&#262;" /><glyph d="M342 -10C413 -10 479 3 529 21L535 196C488 182 435 168 388 168C299 168 246 208 246 294C246 369 273 443 312 482C342 512 387 532 440 532C502 532 549 516 599 492L666 666C602 695 532 710 447 710C324 710 234 669 167 602C90 525 44 406 44 279C44 78 169 -10 342 -10ZM470 815 423 853H309L379 744H539L661 853H536Z" glyph-name="Ccaron" horiz-adv-x="611" unicode="&#268;" /><glyph d="M406 -88C406 -54 373 -36 315 -36L352 -10C419 -9 481 4 529 21L535 196C488 182 435 168 388 168C299 168 246 208 246 294C246 369 273 443 312 482C342 512 387 532 440 532C502 532 549 516 599 492L666 666C602 695 532 710 447 710C324 710 234 669 167 602C90 525 44 406 44 279C44 116 126 28 249 0L180 -59L198 -91C234 -80 254 -85 254 -96C254 -109 230 -120 150 -123L139 -174C344 -176 406 -134 406 -88Z" glyph-name="Ccedilla" horiz-adv-x="611" unicode="&#199;" /><glyph d="M342 -10C413 -10 479 3 529 21L535 196C488 182 435 168 388 168C299 168 246 208 246 294C246 369 273 443 312 482C342 512 387 532 440 532C502 532 549 516 599 492L666 666C602 695 532 710 447 710C324 710 234 669 167 602C90 525 44 406 44 279C44 78 169 -10 342 -10ZM474 782 521 744H635L565 853H405L283 744H409Z" glyph-name="Ccircumflex" horiz-adv-x="611" unicode="&#264;" /><glyph d="M342 -10C413 -10 479 3 529 21L535 196C488 182 435 168 388 168C299 168 246 208 246 294C246 369 273 443 312 482C342 512 387 532 440 532C502 532 549 516 599 492L666 666C602 695 532 710 447 710C324 710 234 669 167 602C90 525 44 406 44 279C44 78 169 -10 342 -10ZM533 744 563 866H415L385 744Z" glyph-name="Cdotaccent" horiz-adv-x="611" unicode="&#266;" /><glyph d="M361 529C444 529 490 492 490 415C490 339 462 265 426 227C391 192 343 171 266 171H229L315 529ZM-10 0H225C390 0 497 45 573 118C642 186 691 293 691 430C691 601 581 700 360 700H159Z" glyph-name="D" horiz-adv-x="697" unicode="D" /><glyph d="M361 529C444 529 490 492 490 415C490 339 462 265 426 227C391 192 343 171 266 171H229L315 529ZM-10 0H225C390 0 497 45 573 118C642 186 691 293 691 430C691 601 581 700 360 700H159ZM448 808 401 846H287L357 737H517L639 846H514Z" glyph-name="Dcaron" horiz-adv-x="697" unicode="&#270;" /><glyph d="M392 293 423 420H301L327 529H376C459 529 505 492 505 415C505 339 477 265 441 227C406 192 358 171 281 171H241L271 293ZM5 0H240C405 0 512 45 588 118C657 186 706 293 706 430C706 601 596 700 375 700H174L107 423H54L22 291H75Z" glyph-name="Dcroat" horiz-adv-x="712" unicode="&#272;" /><glyph d="M-10 0H521L561 164H225L252 277H543L582 439H291L315 536H642L682 700H159Z" glyph-name="E" horiz-adv-x="623" unicode="E" /><glyph d="M-10 0H521L561 164H225L252 277H543L582 439H291L315 536H642L682 700H159ZM494 737 676 838H446L344 737Z" glyph-name="Eacute" horiz-adv-x="623" unicode="&#201;" /><glyph d="M-10 0H521L561 164H225L252 277H543L582 439H291L315 536H642L682 700H159ZM454 825C417 825 395 840 392 864H299C290 785 346 732 443 732C536 732 610 781 631 864H536C519 840 493 825 454 825Z" glyph-name="Ebreve" horiz-adv-x="623" unicode="&#276;" /><glyph d="M-10 0H521L561 164H225L252 277H543L582 439H291L315 536H642L682 700H159ZM446 808 399 846H285L355 737H515L637 846H512Z" glyph-name="Ecaron" horiz-adv-x="623" unicode="&#282;" /><glyph d="M-10 0H521L561 164H225L252 277H543L582 439H291L315 536H642L682 700H159ZM450 775 497 737H611L541 846H381L259 737H385Z" glyph-name="Ecircumflex" horiz-adv-x="623" unicode="&#202;" /><glyph d="M-10 0H521L561 164H225L252 277H543L582 439H291L315 536H642L682 700H159ZM409 737 439 859H298L268 737ZM602 737 632 859H491L462 737Z" glyph-name="Edieresis" horiz-adv-x="623" unicode="&#203;" /><glyph d="M-10 0H521L561 164H225L252 277H543L582 439H291L315 536H642L682 700H159ZM509 737 539 859H391L361 737Z" glyph-name="Edotaccent" horiz-adv-x="623" unicode="&#278;" /><glyph d="M-10 0H521L561 164H225L252 277H543L582 439H291L315 536H642L682 700H159ZM380 737H516L461 838H246Z" glyph-name="Egrave" horiz-adv-x="623" unicode="&#200;" /><glyph d="M-10 0H521L561 164H225L252 277H543L582 439H291L315 536H642L682 700H159ZM601 741 623 831H293L271 741Z" glyph-name="Emacron" horiz-adv-x="623" unicode="&#274;" /><glyph d="M351 -179C485 -179 569 -112 605 35L765 700H581L509 416L495 353L352 700H158L-10 0H174L260 345L272 401L422 38C410 -6 385 -25 344 -25C318 -25 284 -18 265 -13L228 -162C267 -174 306 -179 351 -179Z" glyph-name="Eng" horiz-adv-x="715" unicode="&#330;" /><glyph d="M504 -79C459 -68 448 -61 448 -51C448 -43 453 -34 485 0H521L561 164H225L252 277H543L582 439H291L315 536H642L682 700H159L-10 0H374C309 -39 292 -62 292 -86C292 -125 340 -147 483 -152Z" glyph-name="Eogonek" horiz-adv-x="623" unicode="&#280;" /><glyph d="M392 293 423 420H301L327 529H376C459 529 505 492 505 415C505 339 477 265 441 227C406 192 358 171 281 171H241L271 293ZM5 0H240C405 0 512 45 588 118C657 186 706 293 706 430C706 601 596 700 375 700H174L107 423H54L22 291H75Z" glyph-name="Eth" horiz-adv-x="712" unicode="&#208;" /><glyph d="M537 4 544 167C519 162 476 157 431 157C358 157 308 176 290 227H503L527 323H285C287 341 291 359 295 376H539L562 471H338C344 479 350 486 356 492C389 525 432 541 483 541C536 541 587 526 622 513L682 675C634 694 569 709 494 709C373 709 290 674 224 609C186 571 155 523 134 471H68L45 376H104C100 358 97 341 95 323H33L10 227H94C109 62 233 -9 405 -9C449 -9 502 -3 537 4Z" glyph-name="Euro" horiz-adv-x="619" unicode="&#8364;" /><glyph d="M462 9 477 176C440 166 407 160 371 160C312 160 276 179 265 227H439L462 323H267C270 341 273 359 278 376H475L497 471H317C324 482 331 491 339 499C368 528 403 539 449 539C489 539 525 530 556 519L622 682C570 700 522 709 457 709C349 709 266 677 201 611C165 575 136 526 114 471H55L33 376H86C82 358 79 341 77 323H20L-3 227H72C79 66 173 -9 337 -9C387 -9 426 -2 462 9Z" glyph-name="Euro.tab" horiz-adv-x="564" /><glyph d="M491 244 532 413H288L316 530H629L670 700H159L-10 0H188L247 244Z" glyph-name="F" horiz-adv-x="588" unicode="F" /><glyph d="M583 44 678 420H374L338 269H456L428 161C408 156 387 153 362 153C288 153 244 189 244 269C244 348 271 442 313 484C344 514 387 536 443 536C506 536 562 519 626 491L699 652C627 687 539 710 453 710C326 710 235 669 168 602C88 522 44 398 44 267C44 93 142 -9 335 -9C425 -9 513 13 583 44Z" glyph-name="G" horiz-adv-x="684" unicode="G" /><glyph d="M583 44 678 420H374L338 269H456L428 161C408 156 387 153 362 153C288 153 244 189 244 269C244 348 271 442 313 484C344 514 387 536 443 536C506 536 562 519 626 491L699 652C627 687 539 710 453 710C326 710 235 669 168 602C88 522 44 398 44 267C44 93 142 -9 335 -9C425 -9 513 13 583 44ZM484 832C447 832 425 847 422 871H329C320 792 376 739 473 739C566 739 640 788 661 871H566C549 847 523 832 484 832Z" glyph-name="Gbreve" horiz-adv-x="684" unicode="&#286;" /><glyph d="M583 44 678 420H374L338 269H456L428 161C408 156 387 153 362 153C288 153 244 189 244 269C244 348 271 442 313 484C344 514 387 536 443 536C506 536 562 519 626 491L699 652C627 687 539 710 453 710C326 710 235 669 168 602C88 522 44 398 44 267C44 93 142 -9 335 -9C425 -9 513 13 583 44ZM476 815 429 853H315L385 744H545L667 853H542Z" glyph-name="Gcaron" horiz-adv-x="684" unicode="&#486;" /><glyph d="M583 44 678 420H374L338 269H456L428 161C408 156 387 153 362 153C288 153 244 189 244 269C244 348 271 442 313 484C344 514 387 536 443 536C506 536 562 519 626 491L699 652C627 687 539 710 453 710C326 710 235 669 168 602C88 522 44 398 44 267C44 93 142 -9 335 -9C425 -9 513 13 583 44ZM480 782 527 744H641L571 853H411L289 744H415Z" glyph-name="Gcircumflex" horiz-adv-x="684" unicode="&#284;" /><glyph d="M583 44 678 420H374L338 269H456L428 161C408 156 387 153 362 153C288 153 244 189 244 269C244 348 271 442 313 484C344 514 387 536 443 536C506 536 562 519 626 491L699 652C627 687 539 710 453 710C326 710 235 669 168 602C88 522 44 398 44 267C44 93 142 -9 335 -9C425 -9 513 13 583 44ZM539 744 569 866H421L391 744Z" glyph-name="Gdotaccent" horiz-adv-x="684" unicode="&#288;" /><glyph d="M393 0H592L761 700H562L502 450H298L358 700H159L-10 0H189L253 267H457Z" glyph-name="H" horiz-adv-x="711" unicode="H" /><glyph d="M515 443H311L328 513H532ZM408 0H607L730 509H782L813 637H761L776 700H577L561 633H357L373 700H174L159 637H106L75 509H128L5 0H204L267 263H471Z" glyph-name="Hbar" horiz-adv-x="740" unicode="&#294;" /><glyph d="M393 0H592L761 700H562L502 450H298L358 700H159L-10 0H189L253 267H457ZM479 775 526 737H640L570 846H410L288 737H414Z" glyph-name="Hcircumflex" horiz-adv-x="711" unicode="&#292;" /><glyph d="M192 0 361 700H162L-7 0Z" glyph-name="I" horiz-adv-x="314" unicode="I" /><glyph d="M192 0 361 700H162L-7 0ZM328 737 510 838H280L178 737Z" glyph-name="Iacute" horiz-adv-x="314" unicode="&#205;" /><glyph d="M192 0 361 700H162L-7 0ZM288 825C251 825 229 840 226 864H133C124 785 180 732 277 732C370 732 444 781 465 864H370C353 840 327 825 288 825Z" glyph-name="Ibreve" horiz-adv-x="314" unicode="&#300;" /><glyph d="M192 0 361 700H162L-7 0ZM284 775 331 737H445L375 846H215L93 737H219Z" glyph-name="Icircumflex" horiz-adv-x="314" unicode="&#206;" /><glyph d="M192 0 361 700H162L-7 0ZM243 737 273 859H132L102 737ZM436 737 466 859H325L296 737Z" glyph-name="Idieresis" horiz-adv-x="314" unicode="&#207;" /><glyph d="M192 0 361 700H162L-7 0ZM343 737 373 859H225L195 737Z" glyph-name="Idotaccent" horiz-adv-x="314" unicode="&#304;" /><glyph d="M192 0 361 700H162L-7 0ZM214 737H350L295 838H80Z" glyph-name="Igrave" horiz-adv-x="314" unicode="&#204;" /><glyph d="M192 0 361 700H162L-7 0ZM416 741 438 831H146L125 741Z" glyph-name="Imacron" horiz-adv-x="314" unicode="&#298;" /><glyph d="M180 -79C135 -68 124 -61 124 -51C124 -43 129 -34 161 0H192L361 700H162L-7 0H50C-15 -39 -32 -62 -32 -86C-32 -125 16 -147 159 -152Z" glyph-name="Iogonek" horiz-adv-x="314" unicode="&#302;" /><glyph d="M192 0 361 700H162L-7 0ZM219 775C235 775 250 770 285 754C321 737 338 731 361 731C404 731 438 754 490 838L422 877C396 842 380 830 359 830C343 830 329 835 293 852C257 869 240 875 217 875C175 875 140 851 88 767L156 729C183 763 198 775 219 775Z" glyph-name="Itilde" horiz-adv-x="314" unicode="&#296;" /><glyph d="M446 231 557 700H358L254 266C236 195 198 165 138 165C106 165 72 173 30 191L-29 30C28 6 80 -8 152 -8C312 -8 407 72 446 231Z" glyph-name="J" horiz-adv-x="502" unicode="J" /><glyph d="M446 231 557 700H358L254 266C236 195 198 165 138 165C106 165 72 173 30 191L-29 30C28 6 80 -8 152 -8C312 -8 407 72 446 231ZM479 775 526 737H640L570 846H410L288 737H414Z" glyph-name="Jcircumflex" horiz-adv-x="502" unicode="&#308;" /><glyph d="M389 0H617L459 344L781 700H537L287 406L358 700H159L-10 0H189L263 306Z" glyph-name="K" horiz-adv-x="680" unicode="K" /><glyph d="M-10 0H465L508 176H231L358 700H159Z" glyph-name="L" horiz-adv-x="555" unicode="L" /><glyph d="M-10 0H465L508 176H231L358 700H159ZM325 737 507 838H277L175 737Z" glyph-name="Lacute" horiz-adv-x="555" unicode="&#313;" /><glyph d="M-10 0H465L508 176H231L358 700H159ZM524 700H411C399 636 382 588 356 540L401 514C473 564 509 615 524 700Z" glyph-name="Lcaron" horiz-adv-x="555" unicode="&#317;" /><glyph d="M5 0H480L523 176H246L278 307L414 364L452 524L316 464L373 700H174L96 376L36 351L0 198L59 222Z" glyph-name="Lslash" horiz-adv-x="570" unicode="&#321;" /><glyph d="M304 0H487L727 456L638 0H832L963 700H672L461 279L453 700H180L-25 0H161L294 464Z" glyph-name="M" horiz-adv-x="929" unicode="M" /><glyph d="M258 338 273 408 393 0H596L765 700H581L499 373L486 310L374 700H159L-10 0H174Z" glyph-name="N" horiz-adv-x="715" unicode="N" /><glyph d="M258 338 273 408 393 0H596L765 700H581L499 373L486 310L374 700H159L-10 0H174ZM530 734 712 835H482L380 734Z" glyph-name="Nacute" horiz-adv-x="715" unicode="&#323;" /><glyph d="M258 338 273 408 393 0H596L765 700H581L499 373L486 310L374 700H159L-10 0H174ZM482 805 435 843H321L391 734H551L673 843H548Z" glyph-name="Ncaron" horiz-adv-x="715" unicode="&#327;" /><glyph d="M258 338 273 408 393 0H596L765 700H581L499 373L486 310L374 700H159L-10 0H174ZM423 775C439 775 454 770 489 754C525 737 542 731 565 731C608 731 642 754 694 838L626 877C600 842 584 830 563 830C547 830 533 835 497 852C461 869 444 875 421 875C379 875 344 851 292 767L360 729C387 763 402 775 423 775Z" glyph-name="Ntilde" horiz-adv-x="715" unicode="&#209;" /><glyph d="M337 -12C438 -12 523 25 588 90C660 162 711 292 711 425C711 607 598 712 419 712C318 712 232 675 168 610C96 538 44 408 44 275C44 93 158 -12 337 -12ZM411 545C473 545 511 503 511 433C511 349 478 234 438 195C412 168 379 155 345 155C282 155 244 197 244 267C244 351 278 466 317 505C344 532 376 545 411 545Z" glyph-name="O" horiz-adv-x="716" unicode="O" /><glyph d="M384 161C295 161 246 201 246 283C246 362 275 439 313 478C350 516 401 539 485 539H500L409 161ZM381 0H891L931 164H605L632 277H913L952 439H671L694 536H1013L1053 700H512C347 700 239 655 164 582C95 514 45 407 45 270C45 99 153 0 381 0Z" glyph-name="OE" horiz-adv-x="993" unicode="&#338;" /><glyph d="M337 -12C438 -12 523 25 588 90C660 162 711 292 711 425C711 607 598 712 419 712C318 712 232 675 168 610C96 538 44 408 44 275C44 93 158 -12 337 -12ZM411 545C473 545 511 503 511 433C511 349 478 234 438 195C412 168 379 155 345 155C282 155 244 197 244 267C244 351 278 466 317 505C344 532 376 545 411 545ZM517 744 699 845H469L367 744Z" glyph-name="Oacute" horiz-adv-x="716" unicode="&#211;" /><glyph d="M337 -12C438 -12 523 25 588 90C660 162 711 292 711 425C711 607 598 712 419 712C318 712 232 675 168 610C96 538 44 408 44 275C44 93 158 -12 337 -12ZM411 545C473 545 511 503 511 433C511 349 478 234 438 195C412 168 379 155 345 155C282 155 244 197 244 267C244 351 278 466 317 505C344 532 376 545 411 545ZM477 832C440 832 418 847 415 871H322C313 792 369 739 466 739C559 739 633 788 654 871H559C542 847 516 832 477 832Z" glyph-name="Obreve" horiz-adv-x="716" unicode="&#334;" /><glyph d="M337 -12C438 -12 523 25 588 90C660 162 711 292 711 425C711 607 598 712 419 712C318 712 232 675 168 610C96 538 44 408 44 275C44 93 158 -12 337 -12ZM411 545C473 545 511 503 511 433C511 349 478 234 438 195C412 168 379 155 345 155C282 155 244 197 244 267C244 351 278 466 317 505C344 532 376 545 411 545ZM473 782 520 744H634L564 853H404L282 744H408Z" glyph-name="Ocircumflex" horiz-adv-x="716" unicode="&#212;" /><glyph d="M337 -12C438 -12 523 25 588 90C660 162 711 292 711 425C711 607 598 712 419 712C318 712 232 675 168 610C96 538 44 408 44 275C44 93 158 -12 337 -12ZM411 545C473 545 511 503 511 433C511 349 478 234 438 195C412 168 379 155 345 155C282 155 244 197 244 267C244 351 278 466 317 505C344 532 376 545 411 545ZM432 744 462 866H321L291 744ZM625 744 655 866H514L485 744Z" glyph-name="Odieresis" horiz-adv-x="716" unicode="&#214;" /><glyph d="M337 -12C438 -12 523 25 588 90C660 162 711 292 711 425C711 607 598 712 419 712C318 712 232 675 168 610C96 538 44 408 44 275C44 93 158 -12 337 -12ZM411 545C473 545 511 503 511 433C511 349 478 234 438 195C412 168 379 155 345 155C282 155 244 197 244 267C244 351 278 466 317 505C344 532 376 545 411 545ZM403 744H539L484 845H269Z" glyph-name="Ograve" horiz-adv-x="716" unicode="&#210;" /><glyph d="M337 -12C438 -12 523 25 588 90C660 162 711 291 711 417C711 503 683 569 636 617C768 643 819 728 819 809C819 831 816 844 812 857L681 824C682 812 681 800 679 788C673 736 623 707 531 707C502 707 477 708 447 708C325 708 234 675 168 609C96 537 44 407 44 274C44 93 158 -12 337 -12ZM411 545C473 545 511 503 511 433C511 349 478 234 438 195C412 168 379 155 345 155C282 155 244 197 244 267C244 351 278 466 317 505C344 532 376 545 411 545Z" glyph-name="Ohorn" horiz-adv-x="716" unicode="&#416;" /><glyph d="M337 -12C438 -12 523 25 588 90C660 162 711 292 711 425C711 607 598 712 419 712C318 712 232 675 168 610C96 538 44 408 44 275C44 93 158 -12 337 -12ZM411 545C473 545 511 503 511 433C511 349 478 234 438 195C412 168 379 155 345 155C282 155 244 197 244 267C244 351 278 466 317 505C344 532 376 545 411 545ZM413 744 579 845H412L301 744ZM597 744 763 845H596L485 744Z" glyph-name="Ohungarumlaut" horiz-adv-x="716" unicode="&#336;" /><glyph d="M337 -12C438 -12 523 25 588 90C660 162 711 292 711 425C711 607 598 712 419 712C318 712 232 675 168 610C96 538 44 408 44 275C44 93 158 -12 337 -12ZM411 545C473 545 511 503 511 433C511 349 478 234 438 195C412 168 379 155 345 155C282 155 244 197 244 267C244 351 278 466 317 505C344 532 376 545 411 545ZM624 748 646 838H316L294 748Z" glyph-name="Omacron" horiz-adv-x="716" unicode="&#332;" /><glyph d="M241 269C241 351 275 465 315 505C343 534 376 546 411 546C429 546 445 543 459 536L242 250C241 256 241 262 241 269ZM345 154C326 154 309 158 294 165L514 454C515 447 515 439 515 431C515 349 481 235 441 195C413 166 380 154 345 154ZM337 -12C438 -12 523 25 588 90C660 162 711 292 711 425C711 498 693 559 659 606L784 751H631L572 679C529 701 477 712 419 712C318 712 232 675 168 610C96 538 44 408 44 275C44 202 62 141 96 94L-29 -51H124L184 21C227 -1 278 -12 337 -12Z" glyph-name="Oslash" horiz-adv-x="716" unicode="&#216;" /><glyph d="M241 269C241 351 275 465 315 505C343 534 376 546 411 546C429 546 445 543 459 536L242 250C241 256 241 262 241 269ZM345 154C326 154 309 158 294 165L514 454C515 447 515 439 515 431C515 349 481 235 441 195C413 166 380 154 345 154ZM337 -12C438 -12 523 25 588 90C660 162 711 292 711 425C711 498 693 559 659 606L784 751H631L572 679C529 701 477 712 419 712C318 712 232 675 168 610C96 538 44 408 44 275C44 202 62 141 96 94L-29 -51H124L184 21C227 -1 278 -12 337 -12ZM517 744 699 845H469L367 744Z" glyph-name="Oslashacute" horiz-adv-x="716" unicode="&#510;" /><glyph d="M337 -12C438 -12 523 25 588 90C660 162 711 292 711 425C711 607 598 712 419 712C318 712 232 675 168 610C96 538 44 408 44 275C44 93 158 -12 337 -12ZM411 545C473 545 511 503 511 433C511 349 478 234 438 195C412 168 379 155 345 155C282 155 244 197 244 267C244 351 278 466 317 505C344 532 376 545 411 545ZM408 782C424 782 439 777 474 761C510 744 527 738 550 738C593 738 627 761 679 845L611 884C585 849 569 837 548 837C532 837 518 842 482 859C446 876 429 882 406 882C364 882 329 858 277 774L345 736C372 770 387 782 408 782Z" glyph-name="Otilde" horiz-adv-x="716" unicode="&#213;" /><glyph d="M371 539C435 539 459 512 459 470C459 431 446 396 425 375C404 354 369 341 323 341H270L318 539ZM302 184C429 184 518 218 574 274C625 326 657 404 657 490C657 630 557 700 385 700H159L-10 0H188L233 184Z" glyph-name="P" horiz-adv-x="631" unicode="P" /><glyph d="M658 -70 563 73C572 80 581 88 589 97C660 168 711 295 711 425C711 607 598 712 419 712C318 712 232 675 168 610C96 538 44 408 44 275C44 96 158 -8 328 -8C345 -8 362 -7 379 -5L419 -70ZM411 545C473 545 511 504 511 431C511 351 479 237 440 198C413 172 380 158 345 158C283 158 244 197 244 269C244 352 278 466 317 505C344 532 376 545 411 545Z" glyph-name="Q" horiz-adv-x="716" unicode="Q" /><glyph d="M393 541C446 541 476 518 476 478C476 449 465 423 448 406C426 385 389 373 341 373H275L316 541ZM254 219C302 219 323 202 340 156L392 0H614L552 159C530 215 512 245 465 270C593 303 678 389 678 512C678 634 593 700 418 700H159L-10 0H185L238 219Z" glyph-name="R" horiz-adv-x="670" unicode="R" /><glyph d="M393 541C446 541 476 518 476 478C476 449 465 423 448 406C426 385 389 373 341 373H275L316 541ZM254 219C302 219 323 202 340 156L392 0H614L552 159C530 215 512 245 465 270C593 303 678 389 678 512C678 634 593 700 418 700H159L-10 0H185L238 219ZM492 737 674 838H444L342 737Z" glyph-name="Racute" horiz-adv-x="670" unicode="&#340;" /><glyph d="M393 541C446 541 476 518 476 478C476 449 465 423 448 406C426 385 389 373 341 373H275L316 541ZM254 219C302 219 323 202 340 156L392 0H614L552 159C530 215 512 245 465 270C593 303 678 389 678 512C678 634 593 700 418 700H159L-10 0H185L238 219ZM444 808 397 846H283L353 737H513L635 846H510Z" glyph-name="Rcaron" horiz-adv-x="670" unicode="&#344;" /><glyph d="M376 203C376 174 348 153 299 153C214 153 126 178 53 216L-13 54C64 16 160 -11 279 -11C468 -11 574 88 574 227C574 327 515 382 379 432C305 461 287 475 287 499C287 527 309 547 359 547C426 547 502 519 564 490L635 648C562 685 482 709 369 709C198 709 91 607 91 478C91 373 154 323 286 275C356 247 376 230 376 203Z" glyph-name="S" horiz-adv-x="613" unicode="S" /><glyph d="M376 203C376 174 348 153 299 153C214 153 126 178 53 216L-13 54C64 16 160 -11 279 -11C468 -11 574 88 574 227C574 327 515 382 379 432C305 461 287 475 287 499C287 527 309 547 359 547C426 547 502 519 564 490L635 648C562 685 482 709 369 709C198 709 91 607 91 478C91 373 154 323 286 275C356 247 376 230 376 203ZM473 744 655 845H425L323 744Z" glyph-name="Sacute" horiz-adv-x="613" unicode="&#346;" /><glyph d="M376 203C376 174 348 153 299 153C214 153 126 178 53 216L-13 54C64 16 160 -11 279 -11C468 -11 574 88 574 227C574 327 515 382 379 432C305 461 287 475 287 499C287 527 309 547 359 547C426 547 502 519 564 490L635 648C562 685 482 709 369 709C198 709 91 607 91 478C91 373 154 323 286 275C356 247 376 230 376 203ZM425 815 378 853H264L334 744H494L616 853H491Z" glyph-name="Scaron" horiz-adv-x="613" unicode="&#352;" /><glyph d="M376 203C376 174 348 153 299 153C214 153 126 178 53 216L-13 54C64 16 160 -11 279 -11C468 -11 574 88 574 227C574 327 515 382 379 432C305 461 287 475 287 499C287 527 309 547 359 547C426 547 502 519 564 490L635 648C562 685 482 709 369 709C198 709 91 607 91 478C91 373 154 323 286 275C356 247 376 230 376 203ZM429 782 476 744H590L520 853H360L238 744H364Z" glyph-name="Scircumflex" horiz-adv-x="613" unicode="&#348;" /><glyph d="M681 525 724 700H126L82 525H284L157 0H356L483 525Z" glyph-name="T" horiz-adv-x="642" unicode="T" /><glyph d="M525 243 558 376H447L483 525H681L724 700H126L82 525H284L248 376H137L104 243H216L157 0H356L415 243Z" glyph-name="Tbar" horiz-adv-x="642" unicode="&#358;" /><glyph d="M681 525 724 700H126L82 525H284L157 0H356L483 525ZM444 808 397 846H283L353 737H513L635 846H510Z" glyph-name="Tcaron" horiz-adv-x="642" unicode="&#356;" /><glyph d="M348 451C407 451 435 428 435 386C435 347 422 307 401 287C381 266 348 253 301 253H248L296 451ZM276 96C397 96 490 130 551 191C602 242 633 320 633 407C633 544 540 612 382 612H335L356 700H159L-10 0H187L210 96Z" glyph-name="Thorn" horiz-adv-x="632" unicode="&#222;" /><glyph d="M646 253 752 700H553L452 274C432 193 392 157 327 157C282 157 244 181 244 231C244 250 247 268 251 288L349 700H150L62 327C49 275 45 241 45 213C45 64 152 -11 314 -11C491 -11 599 65 646 253Z" glyph-name="U" horiz-adv-x="699" unicode="U" /><glyph d="M646 253 752 700H553L452 274C432 193 392 157 327 157C282 157 244 181 244 231C244 250 247 268 251 288L349 700H150L62 327C49 275 45 241 45 213C45 64 152 -11 314 -11C491 -11 599 65 646 253ZM514 734 696 835H466L364 734Z" glyph-name="Uacute" horiz-adv-x="699" unicode="&#218;" /><glyph d="M646 253 752 700H553L452 274C432 193 392 157 327 157C282 157 244 181 244 231C244 250 247 268 251 288L349 700H150L62 327C49 275 45 241 45 213C45 64 152 -11 314 -11C491 -11 599 65 646 253ZM474 822C437 822 415 837 412 861H319C310 782 366 729 463 729C556 729 630 778 651 861H556C539 837 513 822 474 822Z" glyph-name="Ubreve" horiz-adv-x="699" unicode="&#364;" /><glyph d="M646 253 752 700H553L452 274C432 193 392 157 327 157C282 157 244 181 244 231C244 250 247 268 251 288L349 700H150L62 327C49 275 45 241 45 213C45 64 152 -11 314 -11C491 -11 599 65 646 253ZM471 775 518 737H632L562 846H402L280 737H406Z" glyph-name="Ucircumflex" horiz-adv-x="699" unicode="&#219;" /><glyph d="M646 253 752 700H553L452 274C432 193 392 157 327 157C282 157 244 181 244 231C244 250 247 268 251 288L349 700H150L62 327C49 275 45 241 45 213C45 64 152 -11 314 -11C491 -11 599 65 646 253ZM430 737 460 859H319L289 737ZM623 737 653 859H512L483 737Z" glyph-name="Udieresis" horiz-adv-x="699" unicode="&#220;" /><glyph d="M646 253 752 700H553L452 274C432 193 392 157 327 157C282 157 244 181 244 231C244 250 247 268 251 288L349 700H150L62 327C49 275 45 241 45 213C45 64 152 -11 314 -11C491 -11 599 65 646 253ZM400 734H536L481 835H266Z" glyph-name="Ugrave" horiz-adv-x="699" unicode="&#217;" /><glyph d="M314 -11C491 -11 599 65 646 253L735 629C836 663 880 736 880 808C880 832 877 845 873 857L742 824C743 810 742 799 741 786C734 734 682 700 585 700H553L452 274C432 193 392 157 327 157C282 157 244 181 244 231C244 250 247 268 251 288L349 700H150L62 327C49 275 45 241 45 213C45 64 152 -11 314 -11Z" glyph-name="Uhorn" horiz-adv-x="730" unicode="&#431;" /><glyph d="M646 253 752 700H553L452 274C432 193 392 157 327 157C282 157 244 181 244 231C244 250 247 268 251 288L349 700H150L62 327C49 275 45 241 45 213C45 64 152 -11 314 -11C491 -11 599 65 646 253ZM411 737 577 838H410L299 737ZM595 737 761 838H594L483 737Z" glyph-name="Uhungarumlaut" horiz-adv-x="699" unicode="&#368;" /><glyph d="M646 253 752 700H553L452 274C432 193 392 157 327 157C282 157 244 181 244 231C244 250 247 268 251 288L349 700H150L62 327C49 275 45 241 45 213C45 64 152 -11 314 -11C491 -11 599 65 646 253ZM622 741 644 831H314L292 741Z" glyph-name="Umacron" horiz-adv-x="699" unicode="&#362;" /><glyph d="M361 -152 382 -79C337 -68 326 -61 326 -51C326 -44 330 -36 354 -10C508 2 603 80 646 253L752 700H553L452 274C432 193 392 157 327 157C282 157 244 181 244 231C244 250 247 268 251 288L349 700H150L62 327C49 275 45 241 45 213C45 87 121 14 243 -6C185 -41 170 -63 170 -86C170 -125 218 -147 361 -152Z" glyph-name="Uogonek" horiz-adv-x="699" unicode="&#370;" /><glyph d="M646 253 752 700H553L452 274C432 193 392 157 327 157C282 157 244 181 244 231C244 250 247 268 251 288L349 700H150L62 327C49 275 45 241 45 213C45 64 152 -11 314 -11C491 -11 599 65 646 253ZM486 945C412 945 354 892 354 824C354 768 400 729 463 729C538 729 595 783 595 850C595 906 549 945 486 945ZM465 772C430 772 404 793 404 826C404 867 438 902 484 902C519 902 545 881 545 848C545 808 511 772 465 772Z" glyph-name="Uring" horiz-adv-x="699" unicode="&#366;" /><glyph d="M646 253 752 700H553L452 274C432 193 392 157 327 157C282 157 244 181 244 231C244 250 247 268 251 288L349 700H150L62 327C49 275 45 241 45 213C45 64 152 -11 314 -11C491 -11 599 65 646 253ZM406 775C422 775 437 770 472 754C508 737 525 731 548 731C591 731 625 754 677 838L609 877C583 842 567 830 546 830C530 830 516 835 480 852C444 869 427 875 404 875C362 875 327 851 275 767L343 729C370 763 385 775 406 775Z" glyph-name="Utilde" horiz-adv-x="699" unicode="&#360;" /><glyph d="M382 -3 786 700H565L330 247L307 700H99L164 -3Z" glyph-name="V" horiz-adv-x="687" unicode="V" /><glyph d="M552 -2H770L1111 700H901L711 268L708 700H503L286 268L305 700H103L106 -2H322L542 432Z" glyph-name="W" horiz-adv-x="1017" unicode="W" /><glyph d="M552 -2H770L1111 700H901L711 268L708 700H503L286 268L305 700H103L106 -2H322L542 432ZM666 737 848 838H618L516 737Z" glyph-name="Wacute" horiz-adv-x="1017" unicode="&#7810;" /><glyph d="M552 -2H770L1111 700H901L711 268L708 700H503L286 268L305 700H103L106 -2H322L542 432ZM622 775 669 737H783L713 846H553L431 737H557Z" glyph-name="Wcircumflex" horiz-adv-x="1017" unicode="&#372;" /><glyph d="M552 -2H770L1111 700H901L711 268L708 700H503L286 268L305 700H103L106 -2H322L542 432ZM581 737 611 859H470L440 737ZM774 737 804 859H663L634 737Z" glyph-name="Wdieresis" horiz-adv-x="1017" unicode="&#7812;" /><glyph d="M552 -2H770L1111 700H901L711 268L708 700H503L286 268L305 700H103L106 -2H322L542 432ZM552 737H688L633 838H418Z" glyph-name="Wgrave" horiz-adv-x="1017" unicode="&#7808;" /><glyph d="M174 0 331 213 401 0H615L483 352L774 700H540L393 505L331 700H117L242 369L-61 0Z" glyph-name="X" horiz-adv-x="683" unicode="X" /><glyph d="M357 0 415 243 762 700H536L358 436L300 700H92L219 253L158 0Z" glyph-name="Y" horiz-adv-x="654" unicode="Y" /><glyph d="M357 0 415 243 762 700H536L358 436L300 700H92L219 253L158 0ZM485 734 667 835H437L335 734Z" glyph-name="Yacute" horiz-adv-x="654" unicode="&#221;" /><glyph d="M357 0 415 243 762 700H536L358 436L300 700H92L219 253L158 0ZM442 775 489 737H603L533 846H373L251 737H377Z" glyph-name="Ycircumflex" horiz-adv-x="654" unicode="&#374;" /><glyph d="M357 0 415 243 762 700H536L358 436L300 700H92L219 253L158 0ZM401 737 431 859H290L260 737ZM594 737 624 859H483L454 737Z" glyph-name="Ydieresis" horiz-adv-x="654" unicode="&#376;" /><glyph d="M357 0 415 243 762 700H536L358 436L300 700H92L219 253L158 0ZM371 734H507L452 835H237Z" glyph-name="Ygrave" horiz-adv-x="654" unicode="&#7922;" /><glyph d="M526 0 567 165H256L644 531L685 700H146L106 535H399L7 165L-32 0Z" glyph-name="Z" horiz-adv-x="618" unicode="Z" /><glyph d="M526 0 567 165H256L644 531L685 700H146L106 535H399L7 165L-32 0ZM472 737 654 838H424L322 737Z" glyph-name="Zacute" horiz-adv-x="618" unicode="&#377;" /><glyph d="M526 0 567 165H256L644 531L685 700H146L106 535H399L7 165L-32 0ZM424 808 377 846H263L333 737H493L615 846H490Z" glyph-name="Zcaron" horiz-adv-x="618" unicode="&#381;" /><glyph d="M526 0 567 165H256L644 531L685 700H146L106 535H399L7 165L-32 0ZM487 737 517 859H369L339 737Z" glyph-name="Zdotaccent" horiz-adv-x="618" unicode="&#379;" /><glyph d="M219 112C188 112 168 126 168 152C168 197 205 228 275 228C292 228 305 227 316 226L291 129C266 118 242 112 219 112ZM297 0H455L470 110L522 316C527 339 531 362 531 381C531 487 452 542 320 542C237 542 165 527 107 508L123 373C173 389 216 399 266 399C316 399 344 382 344 350C344 341 343 330 340 319V318C306 323 278 326 240 326C82 326 -2 251 -2 131C-2 41 56 -8 136 -8C195 -8 238 11 286 49Z" glyph-name="a" horiz-adv-x="554" unicode="a" /><glyph d="M219 112C188 112 168 126 168 152C168 197 205 228 275 228C292 228 305 227 316 226L291 129C266 118 242 112 219 112ZM297 0H455L470 110L522 316C527 339 531 362 531 381C531 487 452 542 320 542C237 542 165 527 107 508L123 373C173 389 216 399 266 399C316 399 344 382 344 350C344 341 343 330 340 319V318C306 323 278 326 240 326C82 326 -2 251 -2 131C-2 41 56 -8 136 -8C195 -8 238 11 286 49ZM388 581 580 696H364L265 581Z" glyph-name="aacute" horiz-adv-x="554" unicode="&#225;" /><glyph d="M219 112C188 112 168 126 168 152C168 197 205 228 275 228C292 228 305 227 316 226L291 129C266 118 242 112 219 112ZM297 0H455L470 110L522 316C527 339 531 362 531 381C531 487 452 542 320 542C237 542 165 527 107 508L123 373C173 389 216 399 266 399C316 399 344 382 344 350C344 341 343 330 340 319V318C306 323 278 326 240 326C82 326 -2 251 -2 131C-2 41 56 -8 136 -8C195 -8 238 11 286 49ZM365 671C327 671 307 687 304 712H220C210 631 263 576 355 576C441 576 510 629 530 712H442C427 687 402 671 365 671Z" glyph-name="abreve" horiz-adv-x="554" unicode="&#259;" /><glyph d="M219 112C188 112 168 126 168 152C168 197 205 228 275 228C292 228 305 227 316 226L291 129C266 118 242 112 219 112ZM297 0H455L470 110L522 316C527 339 531 362 531 381C531 487 452 542 320 542C237 542 165 527 107 508L123 373C173 389 216 399 266 399C316 399 344 382 344 350C344 341 343 330 340 319V318C306 323 278 326 240 326C82 326 -2 251 -2 131C-2 41 56 -8 136 -8C195 -8 238 11 286 49ZM360 625 408 581H510L439 702H308L179 581H292Z" glyph-name="acircumflex" horiz-adv-x="554" unicode="&#226;" /><glyph d="M368 578 560 693H344L245 578Z" glyph-name="acute" horiz-adv-x="500" unicode="&#180;" /><glyph d="M171 737 353 838H123L21 737Z" glyph-name="acute.cap" horiz-adv-x="0" /><glyph d="M219 112C188 112 168 126 168 152C168 197 205 228 275 228C292 228 305 227 316 226L291 129C266 118 242 112 219 112ZM297 0H455L470 110L522 316C527 339 531 362 531 381C531 487 452 542 320 542C237 542 165 527 107 508L123 373C173 389 216 399 266 399C316 399 344 382 344 350C344 341 343 330 340 319V318C306 323 278 326 240 326C82 326 -2 251 -2 131C-2 41 56 -8 136 -8C195 -8 238 11 286 49ZM319 581 350 708H216L185 581ZM504 581 535 708H401L370 581Z" glyph-name="adieresis" horiz-adv-x="554" unicode="&#228;" /><glyph d="M606 408C649 408 671 385 671 352C671 338 669 326 664 312H502C520 378 563 408 606 408ZM221 114C187 114 169 128 169 155C169 197 205 228 275 228C293 228 306 227 318 226V207C318 185 320 164 324 146C288 126 251 114 221 114ZM734 20 728 145C683 131 639 123 591 123C524 123 482 149 479 205H799C815 249 825 300 825 349C825 466 759 544 635 544C569 544 512 525 465 488C432 524 376 542 300 542C229 542 164 527 107 508L123 373C173 389 216 399 266 399C316 399 344 382 344 350C344 341 343 330 340 319V318C306 323 278 326 240 326C82 326 -2 251 -2 131C-2 42 62 -8 153 -8C229 -8 292 14 365 61C406 14 471 -10 555 -10C628 -10 679 1 734 20Z" glyph-name="ae" horiz-adv-x="839" unicode="&#230;" /><glyph d="M606 408C649 408 671 385 671 352C671 338 669 326 664 312H502C520 378 563 408 606 408ZM221 114C187 114 169 128 169 155C169 197 205 228 275 228C293 228 306 227 318 226V207C318 185 320 164 324 146C288 126 251 114 221 114ZM734 20 728 145C683 131 639 123 591 123C524 123 482 149 479 205H799C815 249 825 300 825 349C825 466 759 544 635 544C569 544 512 525 465 488C432 524 376 542 300 542C229 542 164 527 107 508L123 373C173 389 216 399 266 399C316 399 344 382 344 350C344 341 343 330 340 319V318C306 323 278 326 240 326C82 326 -2 251 -2 131C-2 42 62 -8 153 -8C229 -8 292 14 365 61C406 14 471 -10 555 -10C628 -10 679 1 734 20ZM542 578 734 693H518L419 578Z" glyph-name="aeacute" horiz-adv-x="839" unicode="&#509;" /><glyph d="M219 112C188 112 168 126 168 152C168 197 205 228 275 228C292 228 305 227 316 226L291 129C266 118 242 112 219 112ZM297 0H455L470 110L522 316C527 339 531 362 531 381C531 487 452 542 320 542C237 542 165 527 107 508L123 373C173 389 216 399 266 399C316 399 344 382 344 350C344 341 343 330 340 319V318C306 323 278 326 240 326C82 326 -2 251 -2 131C-2 41 56 -8 136 -8C195 -8 238 11 286 49ZM308 581H418L371 696H170Z" glyph-name="agrave" horiz-adv-x="554" unicode="&#224;" /><glyph d="M219 112C188 112 168 126 168 152C168 197 205 228 275 228C292 228 305 227 316 226L291 129C266 118 242 112 219 112ZM297 0H455L470 110L522 316C527 339 531 362 531 381C531 487 452 542 320 542C237 542 165 527 107 508L123 373C173 389 216 399 266 399C316 399 344 382 344 350C344 341 343 330 340 319V318C306 323 278 326 240 326C82 326 -2 251 -2 131C-2 41 56 -8 136 -8C195 -8 238 11 286 49ZM493 585 514 670H218L197 585Z" glyph-name="amacron" horiz-adv-x="554" unicode="&#257;" /><glyph d="M237 149C207 149 185 168 185 200C185 232 206 267 261 304L320 182C288 159 263 149 237 149ZM412 0H609L524 172C602 252 647 320 683 399H506C492 368 475 337 454 309L380 460C370 480 368 493 368 503C368 531 385 545 420 545C461 545 503 529 552 502L637 652C572 687 500 708 416 708C262 708 188 619 186 518C185 484 190 457 204 423C64 360 1 273 1 168C1 57 73 -10 185 -10C262 -10 325 16 382 58Z" glyph-name="ampersand" horiz-adv-x="675" unicode="&amp;" /><glyph d="M219 112C188 112 168 126 168 152C168 197 205 228 275 228C292 228 305 227 316 226L291 129C266 118 242 112 219 112ZM455 -79C410 -68 399 -61 399 -51C399 -43 404 -34 436 0H455L470 110L522 316C527 339 531 362 531 381C531 487 452 542 320 542C237 542 165 527 107 508L123 373C173 389 216 399 266 399C316 399 344 382 344 350C344 341 343 330 340 319V318C306 323 278 326 240 326C82 326 -2 251 -2 131C-2 41 56 -8 136 -8C195 -8 238 11 286 49L297 0H325C260 -39 243 -62 243 -86C243 -125 291 -147 434 -152Z" glyph-name="aogonek" horiz-adv-x="554" unicode="&#261;" /><glyph d="M493 568C457 516 438 496 412 496C395 496 377 505 343 527C302 555 279 567 245 567C197 567 149 528 83 418L164 375C196 418 214 429 237 429C255 429 273 421 307 399C348 371 371 359 405 359C454 359 501 393 579 525ZM448 338C416 295 396 284 373 284C356 284 338 292 304 315C263 342 240 355 206 355C157 355 110 320 32 188L118 145C154 198 173 217 199 217C216 217 234 209 268 186C309 159 332 146 366 146C414 146 462 185 529 295Z" glyph-name="approxequal" horiz-adv-x="564" unicode="&#8776;" /><glyph d="M219 112C188 112 168 126 168 152C168 197 205 228 275 228C292 228 305 227 316 226L291 129C266 118 242 112 219 112ZM297 0H455L470 110L522 316C527 339 531 362 531 381C531 487 452 542 320 542C237 542 165 527 107 508L123 373C173 389 216 399 266 399C316 399 344 382 344 350C344 341 343 330 340 319V318C306 323 278 326 240 326C82 326 -2 251 -2 131C-2 41 56 -8 136 -8C195 -8 238 11 286 49ZM355 576C425 576 479 631 479 696C479 751 438 789 378 789C307 789 253 733 253 668C253 614 294 576 355 576ZM357 619C323 619 303 639 303 670C303 711 335 745 375 745C409 745 429 725 429 695C429 654 397 619 357 619Z" glyph-name="aring" horiz-adv-x="554" unicode="&#229;" /><glyph d="M219 112C188 112 168 126 168 152C168 197 205 228 275 228C292 228 305 227 316 226L291 129C266 118 242 112 219 112ZM297 0H455L470 110L522 316C527 339 531 362 531 381C531 487 452 542 320 542C237 542 165 527 107 508L123 373C173 389 216 399 266 399C316 399 344 382 344 350C344 341 343 330 340 319V318C306 323 278 326 240 326C82 326 -2 251 -2 131C-2 41 56 -8 136 -8C195 -8 238 11 286 49ZM599 895H397L315 802H439ZM353 576C424 576 478 629 478 689C478 742 435 778 376 778C305 778 252 725 252 665C252 612 294 576 353 576ZM357 619C323 619 301 637 301 666C301 703 332 735 372 735C406 735 428 717 428 688C428 651 397 619 357 619Z" glyph-name="aringacute" horiz-adv-x="554" unicode="&#507;" /><glyph d="M71 401H232L364 584L405 401H556L476 714H303Z" glyph-name="asciicircum" horiz-adv-x="564" unicode="^" /><glyph d="M463 468C431 414 413 393 393 393C374 393 357 403 319 426C273 454 251 466 217 466C168 466 120 426 54 287L144 246C177 300 195 320 214 320C233 320 251 310 288 287C335 259 357 248 390 248C440 248 486 287 554 426Z" glyph-name="asciitilde" horiz-adv-x="564" unicode="~" /><glyph d="M252 588 315 685 218 709 229 593ZM202 569 214 588 141 677 90 595ZM376 526 368 621 263 576 264 553ZM159 436 219 535 204 553 97 511ZM241 416 330 454 255 541 233 531Z" glyph-name="asterisk" horiz-adv-x="336" unicode="*" /><glyph d="M363 -150C418 -150 457 -144 497 -133L486 -55C451 -63 421 -68 385 -68C228 -68 129 12 129 182C129 421 301 620 471 620C549 620 570 587 570 538C570 527 569 515 566 502C553 503 540 504 528 504C353 504 241 375 241 215C241 114 294 63 364 63C405 63 439 77 478 110L501 63H596L691 385C709 446 720 484 720 542C720 645 659 717 509 717C268 717 28 492 28 169C28 -30 150 -150 363 -150ZM449 178C416 178 396 199 396 242C397 313 451 393 528 393H536L472 182C465 179 458 178 449 178Z" glyph-name="at" horiz-adv-x="718" unicode="@" /><glyph d="M219 112C188 112 168 126 168 152C168 197 205 228 275 228C292 228 305 227 316 226L291 129C266 118 242 112 219 112ZM297 0H455L470 110L522 316C527 339 531 362 531 381C531 487 452 542 320 542C237 542 165 527 107 508L123 373C173 389 216 399 266 399C316 399 344 382 344 350C344 341 343 330 340 319V318C306 323 278 326 240 326C82 326 -2 251 -2 131C-2 41 56 -8 136 -8C195 -8 238 11 286 49ZM299 621C315 621 328 615 361 598C395 581 412 575 434 575C474 575 505 599 556 688L489 725C464 689 451 676 430 676C415 676 401 682 368 699C334 716 318 722 296 722C256 722 225 698 174 609L241 573C266 608 279 621 299 621Z" glyph-name="atilde" horiz-adv-x="554" unicode="&#227;" /><glyph d="M301 -10C367 -10 422 18 465 60C524 120 566 223 566 348C566 477 498 541 413 541C368 541 330 527 290 499L344 724H158L-17 0H131L163 42C207 7 250 -10 301 -10ZM272 141C251 141 231 148 209 163L259 370C288 385 310 391 329 391C365 391 388 368 388 317C388 264 367 198 337 169C320 152 297 141 272 141Z" glyph-name="b" horiz-adv-x="586" unicode="b" /><glyph d="M206 -130H325L230 795H111Z" glyph-name="backslash" horiz-adv-x="394" unicode="\" /><glyph d="M205 -114H324L229 811H110Z" glyph-name="backslash.cap" horiz-adv-x="394" /><glyph d="M116 -130 339 795H216L-7 -130Z" glyph-name="bar" horiz-adv-x="301" unicode="|" /><glyph d="M120 -114 343 811H220L-3 -114Z" glyph-name="bar.cap" horiz-adv-x="301" /><glyph d="M412 -115 450 -6C373 0 303 13 252 26C313 54 356 98 356 156C356 229 290 274 199 302C338 337 437 398 437 487C437 528 417 561 388 582C444 595 520 608 601 614L613 723C472 709 327 676 232 643L197 554C237 533 260 509 260 476C260 421 197 379 41 349L19 259C134 235 179 201 179 152C179 109 138 78 74 53L66 -35C145 -69 275 -101 412 -115Z" glyph-name="braceleft" horiz-adv-x="548" unicode="{" /><glyph d="M423 -70 461 39C384 45 314 58 263 71C324 99 367 143 367 201C367 274 301 319 210 347C349 382 448 443 448 532C448 573 428 606 399 627C455 640 531 653 612 659L624 768C483 754 338 721 243 688L208 599C248 578 271 554 271 521C271 466 208 424 52 394L30 304C145 280 190 246 190 197C190 154 149 123 85 98L77 10C156 -24 286 -56 423 -70Z" glyph-name="braceleft.cap" horiz-adv-x="548" /><glyph d="M-58 -115C82 -101 228 -68 322 -35L358 54C318 75 295 99 295 132C295 187 357 229 514 259L535 349C421 373 375 407 375 456C375 499 416 530 480 555L488 643C409 677 279 709 143 723L104 614C182 608 252 595 302 582C242 554 198 510 198 452C198 379 264 334 355 306C217 271 117 210 117 121C117 80 137 47 167 26C110 13 35 0 -46 -6Z" glyph-name="braceright" horiz-adv-x="548" unicode="}" /><glyph d="M-47 -70C93 -56 239 -23 333 10L369 99C329 120 306 144 306 177C306 232 368 274 525 304L546 394C432 418 386 452 386 501C386 544 427 575 491 600L499 688C420 722 290 754 154 768L115 659C193 653 263 640 313 627C253 599 209 555 209 497C209 424 275 379 366 351C228 316 128 255 128 166C128 125 148 92 178 71C121 58 46 45 -35 39Z" glyph-name="braceright.cap" horiz-adv-x="548" /><glyph d="M292 -91 316 13 152 6 296 602 458 595 482 699 168 717 -31 -109Z" glyph-name="bracketleft" horiz-adv-x="406" unicode="[" /><glyph d="M303 -46 327 58 163 51 307 647 469 640 493 744 179 762 -20 -64Z" glyph-name="bracketleft.cap" horiz-adv-x="406" /><glyph d="M256 -109 455 717 132 699 108 595 272 602 128 6 -34 13 -58 -91Z" glyph-name="bracketright" horiz-adv-x="406" unicode="]" /><glyph d="M267 -64 466 762 143 744 119 640 283 647 139 51 -23 58 -47 -46Z" glyph-name="bracketright.cap" horiz-adv-x="406" /><glyph d="M345 668C307 668 287 684 284 709H200C190 628 243 573 335 573C421 573 490 626 510 709H422C407 684 382 668 345 668Z" glyph-name="breve" horiz-adv-x="500" unicode="&#728;" /><glyph d="M131 825C94 825 72 840 69 864H-24C-33 785 23 732 120 732C213 732 287 781 308 864H213C196 840 170 825 131 825Z" glyph-name="breve.cap" horiz-adv-x="0" /><glyph d="M99 355C99 264 172 191 263 191C354 191 427 264 427 355C427 446 354 519 263 519C172 519 99 446 99 355Z" glyph-name="bullet" horiz-adv-x="483" unicode="&#8226;" /><glyph d="M410 18 401 170C362 157 330 149 295 149C235 149 197 176 197 239C197 282 214 323 239 348C260 369 290 382 326 382C363 382 396 373 441 348L500 501C447 526 402 542 325 542C238 542 166 510 115 460C55 400 21 310 21 214C21 71 110 -10 255 -10C312 -10 363 1 410 18Z" glyph-name="c" horiz-adv-x="479" unicode="c" /><glyph d="M410 18 401 170C362 157 330 149 295 149C235 149 197 176 197 239C197 282 214 323 239 348C260 369 290 382 326 382C363 382 396 373 441 348L500 501C447 526 402 542 325 542C238 542 166 510 115 460C55 400 21 310 21 214C21 71 110 -10 255 -10C312 -10 363 1 410 18ZM389 581 581 696H365L266 581Z" glyph-name="cacute" horiz-adv-x="479" unicode="&#263;" /><glyph d="M338 655 290 699H188L259 578H390L519 699H405Z" glyph-name="caron" horiz-adv-x="500" unicode="&#711;" /><glyph d="M123 808 76 846H-38L32 737H192L314 846H189Z" glyph-name="caron.cap" horiz-adv-x="0" /><glyph d="M410 18 401 170C362 157 330 149 295 149C235 149 197 176 197 239C197 282 214 323 239 348C260 369 290 382 326 382C363 382 396 373 441 348L500 501C447 526 402 542 325 542C238 542 166 510 115 460C55 400 21 310 21 214C21 71 110 -10 255 -10C312 -10 363 1 410 18ZM359 658 311 702H209L280 581H411L540 702H426Z" glyph-name="ccaron" horiz-adv-x="479" unicode="&#269;" /><glyph d="M333 -88C333 -54 300 -36 242 -36L280 -9C327 -7 370 3 410 18L401 170C362 157 330 149 295 149C235 149 197 176 197 239C197 282 214 323 239 348C260 369 290 382 326 382C363 382 396 373 441 348L500 501C447 526 402 542 325 542C238 542 166 510 115 460C55 400 21 310 21 214C21 99 78 25 176 -1L107 -59L125 -91C161 -80 181 -85 181 -96C181 -109 157 -120 77 -123L66 -174C271 -176 333 -134 333 -88Z" glyph-name="ccedilla" horiz-adv-x="479" unicode="&#231;" /><glyph d="M410 18 401 170C362 157 330 149 295 149C235 149 197 176 197 239C197 282 214 323 239 348C260 369 290 382 326 382C363 382 396 373 441 348L500 501C447 526 402 542 325 542C238 542 166 510 115 460C55 400 21 310 21 214C21 71 110 -10 255 -10C312 -10 363 1 410 18ZM361 625 409 581H511L440 702H309L180 581H293Z" glyph-name="ccircumflex" horiz-adv-x="479" unicode="&#265;" /><glyph d="M410 18 401 170C362 157 330 149 295 149C235 149 197 176 197 239C197 282 214 323 239 348C260 369 290 382 326 382C363 382 396 373 441 348L500 501C447 526 402 542 325 542C238 542 166 510 115 460C55 400 21 310 21 214C21 71 110 -10 255 -10C312 -10 363 1 410 18ZM416 581 447 708H306L275 581Z" glyph-name="cdotaccent" horiz-adv-x="479" unicode="&#267;" /><glyph d="M290 -88C290 -54 257 -36 199 -36L264 10H145L64 -59L82 -91C118 -80 138 -85 138 -96C138 -109 114 -120 34 -123L23 -174C228 -176 290 -134 290 -88Z" glyph-name="cedilla" horiz-adv-x="500" unicode="&#184;" /><glyph d="M209 335C209 374 223 409 247 434C262 449 281 460 302 465L242 263C219 278 209 302 209 335ZM429 135 415 266C374 254 344 248 315 247L379 465C406 460 430 451 457 437L518 568C494 580 465 591 429 599L461 704H363L335 608C252 608 178 576 127 525C75 473 45 402 45 323C45 214 105 146 189 120L153 -4H250L283 109C347 110 388 118 429 135Z" glyph-name="cent" horiz-adv-x="481" unicode="&#162;" /><glyph d="M340 622 388 578H490L419 699H288L159 578H272Z" glyph-name="circumflex" horiz-adv-x="500" unicode="&#710;" /><glyph d="M127 775 174 737H288L218 846H58L-64 737H62Z" glyph-name="circumflex.cap" horiz-adv-x="0" /><glyph d="M235 336 283 532H101L53 336ZM154 0 202 196H20L-28 0Z" glyph-name="colon" horiz-adv-x="255" unicode=":" /><glyph d="M250 389 293 568H109L65 389ZM192 151 236 331H52L8 151Z" glyph-name="colon.fig" horiz-adv-x="257" /><glyph d="M244 388 288 568H99L55 388ZM188 151 232 332H42L-2 151Z" glyph-name="colon.figtab" horiz-adv-x="282" /><glyph d="M229 336 276 532H94L47 336ZM148 0 196 196H14L-34 0Z" glyph-name="colon.tab" horiz-adv-x="282" /><glyph d="M198 196H26C-7 41 -35 -13 -99 -97L-42 -145C93 -56 176 54 198 196Z" glyph-name="comma" horiz-adv-x="245" unicode="," /><glyph d="M205 196H28C-6 55 -41 -15 -109 -97L-48 -145C70 -65 166 19 205 196Z" glyph-name="comma.tab" horiz-adv-x="282" /><glyph d="M47 271C47 93 154 -19 320 -19C542 -19 717 192 717 429C717 606 610 719 444 719C222 719 47 508 47 271ZM94 276C94 484 244 676 436 676C580 676 670 579 670 424C670 215 520 23 328 23C184 23 94 121 94 276ZM476 182 471 279C443 265 421 258 393 258C354 258 332 281 332 322C331 381 364 448 431 448C455 448 479 441 502 425L548 521C519 540 485 551 438 551C298 551 210 437 210 306C210 207 273 155 368 155C408 155 439 163 476 182Z" glyph-name="copyright" horiz-adv-x="725" unicode="&#169;" /><glyph d="M260 141C222 141 197 164 197 212C197 268 219 334 248 363C265 381 288 391 313 391C335 391 355 384 377 369L327 160C300 146 279 141 260 141ZM328 0H474L648 724H462L409 503C369 529 328 541 283 541C217 541 162 512 119 470C60 410 20 307 20 183C20 54 88 -10 178 -10C227 -10 267 9 314 47Z" glyph-name="d" horiz-adv-x="586" unicode="d" /><glyph d="M235 471 237 559H244L328 536L347 616L252 593H245L295 702H208L205 593H198L114 616L94 536L190 559H197L154 471L131 262H156Z" glyph-name="dagger" horiz-adv-x="296" unicode="&#8224;" /><glyph d="M192 348 276 325 296 405 200 382H193L235 471L237 559H244L328 536L347 616L252 593H245L295 702H208L205 593H198L114 616L94 536L190 559H197L154 471L153 382H146L62 405L42 325L138 348H145L95 239H181L185 348Z" glyph-name="daggerdbl" horiz-adv-x="296" unicode="&#8225;" /><glyph d="M260 141C222 141 197 164 197 212C197 268 219 334 248 363C265 381 288 391 313 391C335 391 355 384 377 369L327 160C300 146 279 141 260 141ZM328 0H474L648 724H462L409 503C369 529 328 541 283 541C217 541 162 512 119 470C60 410 20 307 20 183C20 54 88 -10 178 -10C227 -10 267 9 314 47ZM801 724H688C676 660 659 612 633 564L678 538C750 588 786 639 801 724Z" glyph-name="dcaron" horiz-adv-x="586" unicode="&#271;" /><glyph d="M260 141C222 141 197 162 197 208C197 261 218 324 245 351C263 369 286 378 310 378C332 378 352 372 375 359L327 160C300 146 279 141 260 141ZM328 0H474L611 572H650L675 674H636L648 724H462L450 674H334L310 572H426L407 492C365 516 324 528 279 528C216 528 160 501 119 460C60 400 20 299 20 178C20 52 88 -10 178 -10C227 -10 267 9 314 47Z" glyph-name="dcroat" horiz-adv-x="586" unicode="&#273;" /><glyph d="M441 535C441 636 364 710 266 710C169 710 91 634 91 533C91 432 168 358 265 358C363 358 441 434 441 535ZM341 533C341 486 310 451 266 451C222 451 191 487 191 535C191 582 222 617 266 617C309 617 341 581 341 533Z" glyph-name="degree" horiz-adv-x="405" unicode="&#176;" /><glyph d="M299 578 330 705H196L165 578ZM484 578 515 705H381L350 578Z" glyph-name="dieresis" horiz-adv-x="500" unicode="&#168;" /><glyph d="M86 737 116 859H-25L-55 737ZM279 737 309 859H168L139 737Z" glyph-name="dieresis.cap" horiz-adv-x="0" /><glyph d="M411 480 445 617H292L258 480ZM522 286 555 423 320 421 86 423 52 286 288 288ZM316 92 349 229H197L164 92Z" glyph-name="divide" horiz-adv-x="564" unicode="&#247;" /><glyph d="M250 498C250 530 277 558 336 558L297 440C260 456 250 474 250 498ZM365 202C365 166 341 141 271 140L311 263C352 246 365 226 365 202ZM272 -3C437 -3 532 90 532 223C532 314 481 373 363 416L408 550C452 540 495 523 535 500L597 638C555 661 511 677 465 688L495 776H396L371 700C363 701 356 701 348 701C174 701 83 609 83 477C83 397 129 334 245 287L199 147C144 159 92 183 40 215L-21 75C27 44 83 23 141 10L101 -110H200L236 -2C248 -3 260 -3 272 -3Z" glyph-name="dollar" horiz-adv-x="559" unicode="$" /><glyph d="M235 498C235 531 259 558 314 559L280 439C244 456 235 474 235 498ZM350 204C350 170 328 143 265 140L300 263C339 246 350 229 350 204ZM259 -3C422 -3 514 89 514 223C514 312 465 372 346 416L384 552C430 543 475 524 518 500L573 641C530 663 484 679 437 689L463 776H364L342 701H329C161 701 71 610 71 477C71 394 118 332 235 287L194 146C137 157 82 182 27 214L-26 71C25 41 81 20 141 8L107 -110H205L237 -3Z" glyph-name="dollar.tab" horiz-adv-x="564" /><glyph d="M272 141C235 141 207 159 207 208C207 253 222 308 247 333C264 350 288 359 315 359C337 359 359 350 377 336L336 163C314 148 294 141 272 141ZM336 0H482L616 555H675L696 643H637L651 700H465L451 643H335L314 555H430L410 472C374 494 332 509 282 509C221 509 164 485 122 443C64 385 30 283 30 181C30 54 102 -10 187 -10C238 -10 279 9 323 46ZM450 -131 472 -44H8L-13 -131Z" glyph-name="dong" horiz-adv-x="629" unicode="&#8363;" /><glyph d="M395 578 426 705H285L254 578Z" glyph-name="dotaccent" horiz-adv-x="500" unicode="&#729;" /><glyph d="M186 737 216 859H68L38 737Z" glyph-name="dotaccent.cap" horiz-adv-x="0" /><glyph d="M170 0 299 532H113L-16 0Z" glyph-name="dotlessi" horiz-adv-x="283" unicode="&#305;" /><glyph d="M309 408C352 408 373 385 373 352C373 338 371 326 367 312H204C222 378 265 408 309 408ZM437 20 431 145C385 131 342 123 294 123C226 123 184 149 181 205H502C517 249 527 300 527 349C527 465 455 544 330 544C250 544 177 516 123 463C67 407 21 316 21 207C21 63 110 -10 258 -10C331 -10 382 1 437 20Z" glyph-name="e" horiz-adv-x="541" unicode="e" /><glyph d="M309 408C352 408 373 385 373 352C373 338 371 326 367 312H204C222 378 265 408 309 408ZM437 20 431 145C385 131 342 123 294 123C226 123 184 149 181 205H502C517 249 527 300 527 349C527 465 455 544 330 544C250 544 177 516 123 463C67 407 21 316 21 207C21 63 110 -10 258 -10C331 -10 382 1 437 20ZM391 581 583 696H367L268 581Z" glyph-name="eacute" horiz-adv-x="541" unicode="&#233;" /><glyph d="M309 408C352 408 373 385 373 352C373 338 371 326 367 312H204C222 378 265 408 309 408ZM437 20 431 145C385 131 342 123 294 123C226 123 184 149 181 205H502C517 249 527 300 527 349C527 465 455 544 330 544C250 544 177 516 123 463C67 407 21 316 21 207C21 63 110 -10 258 -10C331 -10 382 1 437 20ZM369 671C331 671 311 687 308 712H224C214 631 267 576 359 576C445 576 514 629 534 712H446C431 687 406 671 369 671Z" glyph-name="ebreve" horiz-adv-x="541" unicode="&#277;" /><glyph d="M309 408C352 408 373 385 373 352C373 338 371 326 367 312H204C222 378 265 408 309 408ZM437 20 431 145C385 131 342 123 294 123C226 123 184 149 181 205H502C517 249 527 300 527 349C527 465 455 544 330 544C250 544 177 516 123 463C67 407 21 316 21 207C21 63 110 -10 258 -10C331 -10 382 1 437 20ZM361 658 313 702H211L282 581H413L542 702H428Z" glyph-name="ecaron" horiz-adv-x="541" unicode="&#283;" /><glyph d="M309 408C352 408 373 385 373 352C373 338 371 326 367 312H204C222 378 265 408 309 408ZM437 20 431 145C385 131 342 123 294 123C226 123 184 149 181 205H502C517 249 527 300 527 349C527 465 455 544 330 544C250 544 177 516 123 463C67 407 21 316 21 207C21 63 110 -10 258 -10C331 -10 382 1 437 20ZM363 625 411 581H513L442 702H311L182 581H295Z" glyph-name="ecircumflex" horiz-adv-x="541" unicode="&#234;" /><glyph d="M309 408C352 408 373 385 373 352C373 338 371 326 367 312H204C222 378 265 408 309 408ZM437 20 431 145C385 131 342 123 294 123C226 123 184 149 181 205H502C517 249 527 300 527 349C527 465 455 544 330 544C250 544 177 516 123 463C67 407 21 316 21 207C21 63 110 -10 258 -10C331 -10 382 1 437 20ZM322 581 353 708H219L188 581ZM507 581 538 708H404L373 581Z" glyph-name="edieresis" horiz-adv-x="541" unicode="&#235;" /><glyph d="M309 408C352 408 373 385 373 352C373 338 371 326 367 312H204C222 378 265 408 309 408ZM437 20 431 145C385 131 342 123 294 123C226 123 184 149 181 205H502C517 249 527 300 527 349C527 465 455 544 330 544C250 544 177 516 123 463C67 407 21 316 21 207C21 63 110 -10 258 -10C331 -10 382 1 437 20ZM418 581 449 708H308L277 581Z" glyph-name="edotaccent" horiz-adv-x="541" unicode="&#279;" /><glyph d="M309 408C352 408 373 385 373 352C373 338 371 326 367 312H204C222 378 265 408 309 408ZM437 20 431 145C385 131 342 123 294 123C226 123 184 149 181 205H502C517 249 527 300 527 349C527 465 455 544 330 544C250 544 177 516 123 463C67 407 21 316 21 207C21 63 110 -10 258 -10C331 -10 382 1 437 20ZM311 581H421L374 696H173Z" glyph-name="egrave" horiz-adv-x="541" unicode="&#232;" /><glyph d="M270 -11C445 -11 554 87 554 209C554 269 529 313 472 349C567 386 608 451 608 533C608 633 523 711 362 711C187 711 97 608 97 508C97 452 117 410 167 373C62 336 13 262 13 178C13 66 107 -11 270 -11ZM270 481C270 532 307 572 358 572C399 572 427 552 427 513C427 459 389 421 341 421C302 421 270 438 270 481ZM199 196C199 254 243 301 296 301C345 301 377 277 377 232C377 175 335 128 280 128C234 128 199 151 199 196Z" glyph-name="eight" horiz-adv-x="595" unicode="8" /><glyph d="M172 -7C293 -7 363 50 363 124C363 161 344 189 305 210C362 230 393 267 393 316C393 383 329 428 223 428C107 428 45 373 45 306C45 273 58 247 93 225C28 204 -4 162 -4 110C-4 40 58 -7 172 -7ZM168 294C168 319 189 338 220 338C250 338 267 324 267 302C267 276 247 257 215 257C185 257 168 271 168 294ZM124 125C124 153 147 176 183 176C217 176 235 160 235 135C235 107 213 84 176 84C143 84 124 100 124 125Z" glyph-name="eight.den" horiz-adv-x="417" /><glyph d="M239 271C360 271 430 328 430 402C430 439 411 467 372 488C429 508 460 545 460 594C460 661 396 706 290 706C174 706 112 651 112 584C112 551 125 525 160 503C95 482 63 440 63 388C63 318 125 271 239 271ZM235 572C235 597 256 616 287 616C317 616 334 602 334 580C334 554 314 535 282 535C252 535 235 549 235 572ZM191 403C191 431 214 454 250 454C284 454 302 438 302 413C302 385 280 362 243 362C210 362 191 378 191 403Z" glyph-name="eight.num" horiz-adv-x="417" /><glyph d="M232 -10C408 -10 507 89 507 211C507 275 480 324 421 354C510 386 561 452 561 542C561 635 489 710 342 710C163 710 75 608 75 496C75 442 97 399 144 369C40 337 -8 262 -8 173C-8 60 81 -10 232 -10ZM301 422C266 422 243 440 243 476C243 523 268 572 322 572C364 572 384 550 384 517C384 471 356 422 301 422ZM243 129C204 129 171 149 171 192C171 246 206 299 263 299C304 299 334 279 334 235C334 181 301 129 243 129Z" glyph-name="eight.tab" horiz-adv-x="564" /><glyph d="M618 0 664 187H489L443 0ZM380 0 426 187H251L205 0ZM142 0 188 187H13L-33 0Z" glyph-name="ellipsis" horiz-adv-x="714" unicode="&#8230;" /><glyph d="M309 408C352 408 373 385 373 352C373 338 371 326 367 312H204C222 378 265 408 309 408ZM437 20 431 145C385 131 342 123 294 123C226 123 184 149 181 205H502C517 249 527 300 527 349C527 465 455 544 330 544C250 544 177 516 123 463C67 407 21 316 21 207C21 63 110 -10 258 -10C331 -10 382 1 437 20ZM496 585 517 670H221L200 585Z" glyph-name="emacron" horiz-adv-x="541" unicode="&#275;" /><glyph d="M742 226 779 379H59L21 226Z" glyph-name="emdash" horiz-adv-x="784" unicode="&#8212;" /><glyph d="M756 283 793 436H73L35 283Z" glyph-name="emdash.cap" horiz-adv-x="784" /><glyph d="M432 226 469 379H59L21 226Z" glyph-name="endash" horiz-adv-x="473" unicode="&#8211;" /><glyph d="M446 283 483 436H73L35 283Z" glyph-name="endash.cap" horiz-adv-x="473" /><glyph d="M306 -183C414 -115 463 -56 500 92L555 330C562 359 566 387 566 412C566 490 519 541 433 541C378 541 332 521 272 483L259 532H112L-17 0H169L254 355C286 371 309 378 332 378C358 378 369 364 369 342C369 334 368 325 366 314L323 128C295 22 269 -24 196 -87Z" glyph-name="eng" horiz-adv-x="585" unicode="&#331;" /><glyph d="M309 408C352 408 373 385 373 352C373 338 371 326 367 312H204C222 378 265 408 309 408ZM435 -79C390 -68 379 -61 379 -51C379 -42 385 -32 437 20L431 145C385 131 342 123 294 123C226 123 184 149 181 205H502C517 249 527 300 527 349C527 465 455 544 330 544C250 544 177 516 123 463C67 407 21 316 21 207C21 63 110 -8 258 -8C270 -8 282 -8 293 -7C238 -42 223 -63 223 -86C223 -125 271 -147 414 -152Z" glyph-name="eogonek" horiz-adv-x="541" unicode="&#281;" /><glyph d="M543 395 575 527H115L83 395ZM491 182 523 314H63L31 182Z" glyph-name="equal" horiz-adv-x="564" unicode="=" /><glyph d="M229 -12C307 -12 372 17 425 70C495 141 540 279 540 422C540 510 517 580 465 633L581 724H437L393 686C359 705 319 720 272 732L187 606C217 597 243 588 265 579L176 504H300L336 532C355 511 365 487 369 455C338 466 302 473 264 473C115 473 14 349 14 189C14 64 97 -12 229 -12ZM241 137C208 137 186 160 186 200C186 265 226 337 287 337C312 337 334 331 358 321C345 246 323 189 296 161C280 145 261 137 241 137Z" glyph-name="eth" horiz-adv-x="548" unicode="&#240;" /><glyph d="M192 229 318 557 353 700H150L115 557L85 229ZM176 0 218 172H31L-11 0Z" glyph-name="exclam" horiz-adv-x="293" unicode="!" /><glyph d="M141 471 15 143 -20 0H183L218 143L248 471ZM157 700 115 528H302L344 700Z" glyph-name="exclamdown" horiz-adv-x="293" unicode="&#161;" /><glyph d="M412 372 447 517H329L334 536C343 574 364 590 400 590C424 590 449 587 477 580L522 709C482 721 432 730 379 730C254 730 184 671 156 557L146 517H74L40 372H111L22 0H206L296 372Z" glyph-name="f" horiz-adv-x="402" unicode="f" /><glyph d="M412 372 447 517H329L334 536C343 574 364 590 400 590C424 590 446 587 472 582L505 714C462 725 417 730 379 730C254 730 184 671 156 557L146 517H74L40 372H111L22 0H206L296 372Z" glyph-name="f.lig" horiz-adv-x="402" /><glyph d="M412 372 447 517H329L334 536C343 574 364 590 400 590C424 590 449 587 477 580L522 709C482 721 432 730 379 730C254 730 184 671 156 557L146 517H74L40 372H111L22 0H206L296 372ZM816 372 851 517H733L738 536C747 574 768 590 804 590C828 590 853 587 881 580L926 709C886 721 836 730 783 730C658 730 588 671 560 557L550 517H478L444 372H515L426 0H610L700 372Z" glyph-name="f_f" horiz-adv-x="807" /><glyph d="M412 372 447 517H329L334 536C343 574 364 590 400 590C424 590 449 587 477 580L522 709C482 721 432 730 379 730C254 730 184 671 156 557L146 517H74L40 372H111L22 0H206L296 372ZM816 372 851 517H733L738 536C747 574 768 590 804 590C828 590 850 587 876 582L909 714C866 725 821 730 783 730C658 730 588 671 560 557L550 517H478L444 372H515L426 0H610L700 372ZM1124 591 1155 718H962L931 591ZM977 0 1106 532H920L791 0Z" glyph-name="f_f_i" horiz-adv-x="1090" /><glyph d="M412 372 447 517H329L334 536C343 574 364 590 400 590C424 590 449 587 477 580L522 709C482 721 432 730 379 730C254 730 184 671 156 557L146 517H74L40 372H111L22 0H206L296 372ZM816 372 851 517H733L738 536C747 574 768 590 804 590C828 590 850 587 876 582L909 714C866 725 821 730 783 730C658 730 588 671 560 557L550 517H478L444 372H515L426 0H610L700 372ZM977 0 1152 724H966L791 0Z" glyph-name="f_f_l" horiz-adv-x="1090" /><glyph d="M412 372 447 517H329L334 536C343 574 364 590 400 590C424 590 446 587 472 582L505 714C462 725 417 730 379 730C254 730 184 671 156 557L146 517H74L40 372H111L22 0H206L296 372ZM719 591 750 718H557L526 591ZM572 0 701 532H515L386 0Z" glyph-name="fi" horiz-adv-x="686" unicode="&#64257;" /><glyph d="M534 291C534 394 457 451 371 451C330 451 293 444 253 430L285 542H577L616 700H165L60 317L173 264C220 287 259 301 295 301C327 301 343 287 343 261C343 208 268 158 10 147L-2 -11C436 -5 534 147 534 291Z" glyph-name="five" horiz-adv-x="565" unicode="5" /><glyph d="M345 171C345 230 300 271 230 271C205 271 180 268 155 261L171 319H365L390 422H85L23 195L103 159C134 172 161 181 183 181C204 181 215 171 215 157C215 127 162 102 -8 95L-17 -7C249 -4 345 65 345 171Z" glyph-name="five.den" horiz-adv-x="396" /><glyph d="M412 449C412 508 367 549 297 549C272 549 247 546 222 539L238 597H432L457 700H152L90 473L170 437C201 450 228 459 250 459C271 459 282 449 282 435C282 405 229 380 59 373L50 271C316 274 412 343 412 449Z" glyph-name="five.num" horiz-adv-x="396" /><glyph d="M517 299C517 393 466 454 357 454C315 454 276 447 229 430L262 542H564L603 700H145L36 319L150 265C202 290 243 302 275 302C308 302 320 289 320 266C320 216 256 164 -16 147L-18 -12C353 2 517 117 517 299Z" glyph-name="five.tab" horiz-adv-x="564" /><glyph d="M412 372 447 517H329L334 536C343 574 364 590 400 590C424 590 446 587 472 582L505 714C462 725 417 730 379 730C254 730 184 671 156 557L146 517H74L40 372H111L22 0H206L296 372ZM572 0 747 724H561L386 0Z" glyph-name="fl" horiz-adv-x="686" unicode="&#64258;" /><glyph d="M189 266 396 533 331 266ZM549 119 586 269H511L615 703H356L17 275L3 119H287L259 0H446L475 119Z" glyph-name="four" horiz-adv-x="604" unicode="4" /><glyph d="M111 163 251 330 209 163ZM368 69 391 165H333L395 423H208L-6 170L-14 69H182L165 0H293L310 69Z" glyph-name="four.den" horiz-adv-x="427" /><glyph d="M178 441 318 608 276 441ZM435 347 458 443H400L462 701H275L61 448L53 347H249L232 278H360L377 347Z" glyph-name="four.num" horiz-adv-x="427" /><glyph d="M151 266 348 548 280 266ZM503 119 540 269H459L563 703H300L4 284L-14 119H239L210 0H394L423 119Z" glyph-name="four.tab" horiz-adv-x="564" /><glyph d="M-250 0H-168L108 332L424 700H343L67 368Z" glyph-name="fraction" horiz-adv-x="134" unicode="&#8260;" /><glyph d="M266 163C222 163 198 186 198 232C198 281 218 337 243 362C261 379 285 391 312 391C333 391 353 384 376 370L330 176C305 166 285 163 266 163ZM184 -179C344 -179 444 -116 481 37L601 532H453L421 490C376 525 330 541 279 541C213 541 160 517 119 475C62 419 21 319 21 208C21 75 98 21 186 21C232 21 269 34 305 58L301 44C285 -21 246 -48 173 -48C123 -48 69 -36 16 -12L-29 -135C26 -160 95 -179 184 -179Z" glyph-name="g" horiz-adv-x="584" unicode="g" /><glyph d="M266 163C222 163 198 186 198 232C198 281 218 337 243 362C261 379 285 391 312 391C333 391 353 384 376 370L330 176C305 166 285 163 266 163ZM184 -179C344 -179 444 -116 481 37L601 532H453L421 490C376 525 330 541 279 541C213 541 160 517 119 475C62 419 21 319 21 208C21 75 98 21 186 21C232 21 269 34 305 58L301 44C285 -21 246 -48 173 -48C123 -48 69 -36 16 -12L-29 -135C26 -160 95 -179 184 -179ZM399 671C361 671 341 687 338 712H254C244 631 297 576 389 576C475 576 544 629 564 712H476C461 687 436 671 399 671Z" glyph-name="gbreve" horiz-adv-x="584" unicode="&#287;" /><glyph d="M266 163C222 163 198 186 198 232C198 281 218 337 243 362C261 379 285 391 312 391C333 391 353 384 376 370L330 176C305 166 285 163 266 163ZM184 -179C344 -179 444 -116 481 37L601 532H453L421 490C376 525 330 541 279 541C213 541 160 517 119 475C62 419 21 319 21 208C21 75 98 21 186 21C232 21 269 34 305 58L301 44C285 -21 246 -48 173 -48C123 -48 69 -36 16 -12L-29 -135C26 -160 95 -179 184 -179ZM391 658 343 702H241L312 581H443L572 702H458Z" glyph-name="gcaron" horiz-adv-x="584" unicode="&#487;" /><glyph d="M266 163C222 163 198 186 198 232C198 281 218 337 243 362C261 379 285 391 312 391C333 391 353 384 376 370L330 176C305 166 285 163 266 163ZM184 -179C344 -179 444 -116 481 37L601 532H453L421 490C376 525 330 541 279 541C213 541 160 517 119 475C62 419 21 319 21 208C21 75 98 21 186 21C232 21 269 34 305 58L301 44C285 -21 246 -48 173 -48C123 -48 69 -36 16 -12L-29 -135C26 -160 95 -179 184 -179ZM393 625 441 581H543L472 702H341L212 581H325Z" glyph-name="gcircumflex" horiz-adv-x="584" unicode="&#285;" /><glyph d="M266 163C222 163 198 186 198 232C198 281 218 337 243 362C261 379 285 391 312 391C333 391 353 384 376 370L330 176C305 166 285 163 266 163ZM184 -179C344 -179 444 -116 481 37L601 532H453L421 490C376 525 330 541 279 541C213 541 160 517 119 475C62 419 21 319 21 208C21 75 98 21 186 21C232 21 269 34 305 58L301 44C285 -21 246 -48 173 -48C123 -48 69 -36 16 -12L-29 -135C26 -160 95 -179 184 -179ZM448 581 479 708H338L307 581Z" glyph-name="gdotaccent" horiz-adv-x="584" unicode="&#289;" /><glyph d="M387 -7C527 -7 617 77 617 198C617 266 587 314 513 353C620 397 668 472 668 561C668 661 586 730 433 730C264 730 179 646 146 517H75L40 372H111L22 0H205L321 489C336 551 370 581 423 581C462 581 489 564 489 534C489 488 443 447 356 413L328 301C407 270 441 237 441 198C441 160 419 135 375 135C349 135 317 144 288 155L254 16C294 1 339 -7 387 -7Z" glyph-name="germandbls" horiz-adv-x="659" unicode="&#223;" /><glyph d="M288 578H398L351 693H150Z" glyph-name="grave" horiz-adv-x="500" unicode="`" /><glyph d="M57 737H193L138 838H-77Z" glyph-name="grave.cap" horiz-adv-x="0" /><glyph d="M142 622 106 475 377 363 50 252 11 87 518 285 553 424Z" glyph-name="greater" horiz-adv-x="564" unicode="&gt;" /><glyph d="M419 76 487 126 407 289 569 468 516 528 271 338 250 251ZM188 76 256 126 176 293 338 468 284 528 42 348 19 254Z" glyph-name="guillemotleft" horiz-adv-x="544" unicode="&#171;" /><glyph d="M433 133 501 183 421 346 583 525 530 585 285 395 264 308ZM202 133 270 183 190 350 352 525 298 585 56 405 33 311Z" glyph-name="guillemotleft.cap" horiz-adv-x="544" /><glyph d="M277 76 519 255 542 349 373 528 305 478 385 310 223 136ZM46 76 290 265 312 353 142 528 74 478 155 314 -8 136Z" glyph-name="guillemotright" horiz-adv-x="544" unicode="&#187;" /><glyph d="M291 133 533 312 556 406 387 585 319 535 399 367 237 193ZM60 133 304 322 326 410 156 585 88 535 169 371 6 193Z" glyph-name="guillemotright.cap" horiz-adv-x="544" /><glyph d="M188 76 256 126 175 291 338 468 284 528 42 348 19 254Z" glyph-name="guilsinglleft" horiz-adv-x="313" unicode="&#8249;" /><glyph d="M202 133 270 183 189 348 352 525 298 585 56 405 33 311Z" glyph-name="guilsinglleft.cap" horiz-adv-x="313" /><glyph d="M46 76 288 255 311 349 142 528 74 478 155 312 -8 136Z" glyph-name="guilsinglright" horiz-adv-x="313" unicode="&#8250;" /><glyph d="M60 133 302 312 325 406 156 585 88 535 169 369 6 193Z" glyph-name="guilsinglright.cap" horiz-adv-x="313" /><glyph d="M332 378C358 378 369 364 369 342C369 334 368 326 366 314L290 0H476L555 330C562 359 566 387 566 412C566 490 519 541 433 541C383 541 341 525 288 493L344 724H158L-17 0H169L255 355C286 371 309 378 332 378Z" glyph-name="h" horiz-adv-x="585" unicode="h" /><glyph d="M329 365C355 365 366 351 366 330C366 322 366 313 362 301L290 0H476L552 318C559 346 563 375 563 399C563 477 516 528 430 528C380 528 338 512 285 480L307 572H423L448 674H332L344 724H158L146 674H107L82 572H121L-17 0H169L252 342C283 358 306 365 329 365Z" glyph-name="hbar" horiz-adv-x="585" unicode="&#295;" /><glyph d="M332 378C358 378 369 364 369 342C369 334 368 326 366 314L290 0H476L555 330C562 359 566 387 566 412C566 490 519 541 433 541C383 541 341 525 288 493L344 724H158L-17 0H169L255 355C286 371 309 378 332 378ZM275 806 323 762H425L354 883H223L94 762H207Z" glyph-name="hcircumflex" horiz-adv-x="585" unicode="&#293;" /><glyph d="M273 578 447 693H283L174 578ZM452 578 626 693H462L353 578Z" glyph-name="hungarumlaut" horiz-adv-x="500" unicode="&#733;" /><glyph d="M67 737 233 838H66L-45 737ZM251 737 417 838H250L139 737Z" glyph-name="hungarumlaut.cap" horiz-adv-x="0" /><glyph d="M293 224 331 381H59L21 224Z" glyph-name="hyphen" horiz-adv-x="335" unicode="-" /><glyph d="M307 281 345 438H73L35 281Z" glyph-name="hyphen.cap" horiz-adv-x="335" /><glyph d="M317 591 348 718H155L124 591ZM170 0 299 532H113L-16 0Z" glyph-name="i" horiz-adv-x="283" unicode="i" /><glyph d="M170 0 299 532H113L-16 0ZM286 578 317 705H176L145 578Z" glyph-name="i.dot" horiz-adv-x="283" /><glyph d="M170 0 299 532H113L-16 0ZM259 578 451 693H235L136 578Z" glyph-name="iacute" horiz-adv-x="283" unicode="&#237;" /><glyph d="M170 0 299 532H113L-16 0ZM237 668C199 668 179 684 176 709H92C82 628 135 573 227 573C313 573 382 626 402 709H314C299 684 274 668 237 668Z" glyph-name="ibreve" horiz-adv-x="283" unicode="&#301;" /><glyph d="M170 0 299 532H113L-16 0ZM231 622 279 578H381L310 699H179L50 578H163Z" glyph-name="icircumflex" horiz-adv-x="283" unicode="&#238;" /><glyph d="M170 0 299 532H113L-16 0ZM190 578 221 705H87L56 578ZM375 578 406 705H272L241 578Z" glyph-name="idieresis" horiz-adv-x="283" unicode="&#239;" /><glyph d="M170 0 299 532H113L-16 0ZM179 578H289L242 693H41Z" glyph-name="igrave" horiz-adv-x="283" unicode="&#236;" /><glyph d="M170 0 299 532H113L-16 0ZM349 582 370 667H104L83 582Z" glyph-name="imacron" horiz-adv-x="283" unicode="&#299;" /><glyph d="M317 591 348 718H155L124 591ZM164 -79C119 -68 108 -61 108 -51C108 -43 113 -34 145 0H170L299 532H113L-16 0H34C-31 -39 -48 -62 -48 -86C-48 -125 0 -147 143 -152Z" glyph-name="iogonek" horiz-adv-x="283" unicode="&#303;" /><glyph d="M170 0 299 532H113L-16 0ZM170 618C186 618 199 612 232 595C266 578 283 572 305 572C345 572 376 596 427 685L360 722C335 686 322 673 301 673C286 673 272 679 239 696C205 713 189 719 167 719C127 719 96 695 45 606L112 570C137 605 150 618 170 618Z" glyph-name="itilde" horiz-adv-x="283" unicode="&#297;" /><glyph d="M317 591 348 718H155L124 591ZM194 92 299 532H113L16 128C-11 20 -37 -24 -110 -87L0 -183C108 -115 157 -55 194 92Z" glyph-name="j" horiz-adv-x="283" unicode="j" /><glyph d="M194 92 299 532H113L16 128C-11 20 -37 -24 -110 -87L0 -183C108 -115 157 -55 194 92ZM232 622 280 578H382L311 699H180L51 578H164Z" glyph-name="jcircumflex" horiz-adv-x="283" unicode="&#309;" /><glyph d="M307 0H511L403 265L635 532H417L246 318L344 724H158L-17 0H169L226 236Z" glyph-name="k" horiz-adv-x="573" unicode="k" /><glyph d="M170 0 345 724H159L-16 0Z" glyph-name="l" horiz-adv-x="283" unicode="l" /><glyph d="M170 0 345 724H159L-16 0ZM303 761 495 876H279L180 761Z" glyph-name="lacute" horiz-adv-x="283" unicode="&#314;" /><glyph d="M170 0 345 724H159L-16 0ZM498 724H385C373 660 356 612 330 564L375 538C447 588 483 639 498 724Z" glyph-name="lcaron" horiz-adv-x="283" unicode="&#318;" /><glyph d="M464 87 500 234 229 346 556 457 595 622 88 424 53 285Z" glyph-name="less" horiz-adv-x="564" unicode="&lt;" /><glyph d="M195 0 274 328 343 360 377 499 307 465 370 724H185L102 379L33 346L0 209L69 243L10 0Z" glyph-name="lslash" horiz-adv-x="334" unicode="&#322;" /><glyph d="M330 378C354 378 365 364 365 343C365 334 364 326 361 314L286 0H472L550 330C552 338 554 345 555 353C587 370 611 378 632 378C657 378 667 364 667 343C667 334 666 326 663 314L588 0H774L853 330C860 359 864 387 864 412C864 490 818 541 732 541C669 541 619 521 547 478C527 518 487 541 429 541C375 541 331 521 272 483L259 532H112L-17 0H169L255 355C285 371 308 378 330 378Z" glyph-name="m" horiz-adv-x="883" unicode="m" /><glyph d="M473 582 494 667H198L177 582Z" glyph-name="macron" horiz-adv-x="500" unicode="&#175;" /><glyph d="M278 741 300 831H-30L-52 741Z" glyph-name="macron.cap" horiz-adv-x="0" /><glyph d="M259 741 281 831H-11L-32 741Z" glyph-name="macron.capnrw" horiz-adv-x="0" /><glyph d="M208 582 229 667H-37L-58 582Z" glyph-name="macron.nrw" horiz-adv-x="0" /><glyph d="M138 284 178 444H41L1 284Z" glyph-name="middotcat" horiz-adv-x="133" /><glyph d="M168 314 209 483H53L12 314Z" glyph-name="middotcat.cap" horiz-adv-x="205" /><glyph d="M520 280 556 429H86L50 280Z" glyph-name="minus" horiz-adv-x="564" unicode="&#8722;" /><glyph d="M389 118 507 211 402 347 575 486 493 592 321 453 218 592 100 499 206 363 32 224 114 117 287 257Z" glyph-name="multiply" horiz-adv-x="564" unicode="&#215;" /><glyph d="M332 378C358 378 369 364 369 342C369 334 368 326 366 314L290 0H476L555 330C562 359 566 387 566 412C566 490 519 541 433 541C378 541 332 521 272 483L259 532H112L-17 0H169L254 355C286 371 309 378 332 378Z" glyph-name="n" horiz-adv-x="585" unicode="n" /><glyph d="M332 378C358 378 369 364 369 342C369 334 368 326 366 314L290 0H476L555 330C562 359 566 387 566 412C566 490 519 541 433 541C378 541 332 521 272 483L259 532H112L-17 0H169L254 355C286 371 309 378 332 378ZM406 581 598 696H382L283 581Z" glyph-name="nacute" horiz-adv-x="585" unicode="&#324;" /><glyph d="M332 378C358 378 369 364 369 342C369 334 368 326 366 314L290 0H476L555 330C562 359 566 387 566 412C566 490 519 541 433 541C378 541 332 521 272 483L259 532H112L-17 0H169L254 355C286 371 309 378 332 378ZM376 658 328 702H226L297 581H428L557 702H443Z" glyph-name="ncaron" horiz-adv-x="585" unicode="&#328;" /><glyph d="M348 712C179 712 64 603 64 433C64 307 153 252 243 252C273 252 304 257 335 265C287 212 207 169 66 142L89 -15C233 1 361 61 436 136C527 225 581 349 581 476C581 635 489 712 348 712ZM333 560C377 560 404 530 404 479C404 452 397 423 388 392C369 387 350 385 331 385C273 385 243 406 243 451C243 511 284 560 333 560Z" glyph-name="nine" horiz-adv-x="574" unicode="9" /><glyph d="M209 430C98 430 18 365 18 267C18 197 67 156 139 156C166 156 194 161 220 169C188 134 137 109 37 92L55 -10C267 19 375 129 375 272C375 371 314 430 209 430ZM200 331C231 331 251 312 251 280C251 270 250 259 248 246C230 243 213 241 197 241C158 241 142 255 142 279C142 309 166 331 200 331Z" glyph-name="nine.den" horiz-adv-x="409" /><glyph d="M276 708C165 708 85 643 85 545C85 475 134 434 206 434C233 434 261 439 287 447C255 412 204 387 104 370L122 268C334 297 442 407 442 550C442 649 381 708 276 708ZM267 609C298 609 318 590 318 558C318 548 317 537 315 524C297 521 280 519 264 519C225 519 209 533 209 557C209 587 233 609 267 609Z" glyph-name="nine.num" horiz-adv-x="409" /><glyph d="M327 712C150 712 43 581 43 418C43 306 111 251 209 251C246 251 278 257 313 269C270 214 196 175 60 132L102 -19C228 12 333 64 410 140C510 238 551 359 551 477C551 629 470 712 327 712ZM315 560C351 560 375 535 375 487C375 463 370 429 362 398C336 390 310 385 284 385C241 385 219 406 219 445C219 482 232 516 251 535C266 550 288 560 315 560Z" glyph-name="nine.tab" horiz-adv-x="564" /><glyph d="M492 187 522 309H324L390 400H544L574 522H483L553 619H435L365 522H114L84 400H282L216 309H62L32 187H123L53 90H171L241 187Z" glyph-name="notequal" horiz-adv-x="564" unicode="&#8800;" /><glyph d="M332 378C358 378 369 364 369 342C369 334 368 326 366 314L290 0H476L555 330C562 359 566 387 566 412C566 490 519 541 433 541C378 541 332 521 272 483L259 532H112L-17 0H169L254 355C286 371 309 378 332 378ZM317 621C333 621 346 615 379 598C413 581 430 575 452 575C492 575 523 599 574 688L507 725C482 689 469 676 448 676C433 676 419 682 386 699C352 716 336 722 314 722C274 722 243 698 192 609L259 573C284 608 297 621 317 621Z" glyph-name="ntilde" horiz-adv-x="585" unicode="&#241;" /><glyph d="M372 270 263 279 301 428 410 419ZM301 -4H398L439 154L568 143L577 253L467 262L505 411L629 401L638 511L533 519L581 704H484L438 527L329 536L372 704H275L234 544L106 554L96 445L206 436L168 287L45 297L35 187L140 178L93 -4H190L235 171L344 162Z" glyph-name="numbersign" horiz-adv-x="634" unicode="#" /><glyph d="M247 -12C326 -12 394 17 445 67C505 127 542 220 542 321C542 457 450 544 315 544C236 544 168 515 117 465C57 405 21 311 21 210C21 75 112 -12 247 -12ZM260 141C222 141 196 166 196 218C196 273 217 339 244 366C260 381 278 391 302 391C340 391 367 365 367 313C367 259 345 193 318 166C303 151 284 141 260 141Z" glyph-name="o" horiz-adv-x="562" unicode="o" /><glyph d="M247 -12C326 -12 394 17 445 67C505 127 542 220 542 321C542 457 450 544 315 544C236 544 168 515 117 465C57 405 21 311 21 210C21 75 112 -12 247 -12ZM260 141C222 141 196 166 196 218C196 273 217 339 244 366C260 381 278 391 302 391C340 391 367 365 367 313C367 259 345 193 318 166C303 151 284 141 260 141ZM389 581 581 696H365L266 581Z" glyph-name="oacute" horiz-adv-x="562" unicode="&#243;" /><glyph d="M247 -12C326 -12 394 17 445 67C505 127 542 220 542 321C542 457 450 544 315 544C236 544 168 515 117 465C57 405 21 311 21 210C21 75 112 -12 247 -12ZM260 141C222 141 196 166 196 218C196 273 217 339 244 366C260 381 278 391 302 391C340 391 367 365 367 313C367 259 345 193 318 166C303 151 284 141 260 141ZM367 671C329 671 309 687 306 712H222C212 631 265 576 357 576C443 576 512 629 532 712H444C429 687 404 671 367 671Z" glyph-name="obreve" horiz-adv-x="562" unicode="&#335;" /><glyph d="M247 -12C326 -12 394 17 445 67C505 127 542 220 542 321C542 457 450 544 315 544C236 544 168 515 117 465C57 405 21 311 21 210C21 75 112 -12 247 -12ZM260 141C222 141 196 166 196 218C196 273 217 339 244 366C260 381 278 391 302 391C340 391 367 365 367 313C367 259 345 193 318 166C303 151 284 141 260 141ZM361 625 409 581H511L440 702H309L180 581H293Z" glyph-name="ocircumflex" horiz-adv-x="562" unicode="&#244;" /><glyph d="M247 -12C326 -12 394 17 445 67C505 127 542 220 542 321C542 457 450 544 315 544C236 544 168 515 117 465C57 405 21 311 21 210C21 75 112 -12 247 -12ZM260 141C222 141 196 166 196 218C196 273 217 339 244 366C260 381 278 391 302 391C340 391 367 365 367 313C367 259 345 193 318 166C303 151 284 141 260 141ZM320 581 351 708H217L186 581ZM505 581 536 708H402L371 581Z" glyph-name="odieresis" horiz-adv-x="562" unicode="&#246;" /><glyph d="M653 408C695 408 717 385 717 352C717 338 715 326 711 312H548C566 378 609 408 653 408ZM260 141C222 141 196 166 196 218C196 273 217 339 244 366C260 381 278 391 302 391C340 391 367 365 367 313C367 259 345 193 318 166C303 151 284 141 260 141ZM608 -10C679 -10 726 1 781 20L774 145C729 131 686 123 638 123C570 123 528 149 525 205H846C861 249 871 300 871 349C871 466 800 544 679 544C604 544 533 517 481 464C444 515 384 544 311 544C232 544 165 515 116 465C57 405 21 311 21 210C21 75 112 -12 241 -12C315 -12 377 16 425 63C463 14 527 -10 608 -10Z" glyph-name="oe" horiz-adv-x="885" unicode="&#339;" /><glyph d="M273 -79C228 -68 217 -61 217 -51C217 -42 223 -32 264 10H160C81 -35 61 -60 61 -86C61 -125 109 -147 252 -152Z" glyph-name="ogonek" horiz-adv-x="500" unicode="&#731;" /><glyph d="M247 -12C326 -12 394 17 445 67C505 127 542 220 542 321C542 457 450 544 315 544C236 544 168 515 117 465C57 405 21 311 21 210C21 75 112 -12 247 -12ZM260 141C222 141 196 166 196 218C196 273 217 339 244 366C260 381 278 391 302 391C340 391 367 365 367 313C367 259 345 193 318 166C303 151 284 141 260 141ZM309 581H419L372 696H171Z" glyph-name="ograve" horiz-adv-x="562" unicode="&#242;" /><glyph d="M247 -12C326 -12 394 16 445 67C505 127 542 220 542 321C542 377 525 425 495 462C588 490 633 561 633 632C633 652 630 665 626 680L500 649C501 636 501 626 499 613C493 562 447 538 383 538C361 538 338 539 317 539C238 539 167 512 117 462C57 402 21 309 21 210C21 75 112 -12 247 -12ZM260 141C222 141 196 166 196 218C196 273 217 338 243 365C259 380 278 390 302 390C340 390 367 365 367 313C367 259 345 193 318 166C303 151 284 141 260 141Z" glyph-name="ohorn" horiz-adv-x="562" unicode="&#417;" /><glyph d="M247 -12C326 -12 394 17 445 67C505 127 542 220 542 321C542 457 450 544 315 544C236 544 168 515 117 465C57 405 21 311 21 210C21 75 112 -12 247 -12ZM260 141C222 141 196 166 196 218C196 273 217 339 244 366C260 381 278 391 302 391C340 391 367 365 367 313C367 259 345 193 318 166C303 151 284 141 260 141ZM294 581 468 696H304L195 581ZM473 581 647 696H483L374 581Z" glyph-name="ohungarumlaut" horiz-adv-x="562" unicode="&#337;" /><glyph d="M247 -12C326 -12 394 17 445 67C505 127 542 220 542 321C542 457 450 544 315 544C236 544 168 515 117 465C57 405 21 311 21 210C21 75 112 -12 247 -12ZM260 141C222 141 196 166 196 218C196 273 217 339 244 366C260 381 278 391 302 391C340 391 367 365 367 313C367 259 345 193 318 166C303 151 284 141 260 141ZM494 585 515 670H219L198 585Z" glyph-name="omacron" horiz-adv-x="562" unicode="&#333;" /><glyph d="M301 0 473 703H339L94 623L105 460L228 495L107 0Z" glyph-name="one" horiz-adv-x="437" unicode="1" /><glyph d="M205 0 307 424H213L39 371L44 260L138 285L70 0Z" glyph-name="one.den" horiz-adv-x="321" /><glyph d="M272 278 374 702H280L106 649L111 538L205 563L137 278Z" glyph-name="one.num" horiz-adv-x="321" /><glyph d="M437 0 475 156H342L487 703H353L125 640L113 477L244 507L149 156H4L-34 0Z" glyph-name="one.tab" horiz-adv-x="564" /><glyph d="M272 278 374 702H280L106 649L111 538L205 563L137 278ZM103 0H185L461 332L777 700H696L420 368ZM832 0 859 108H695L769 164C863 228 888 267 888 318C888 385 832 428 744 428C677 428 612 407 556 371L597 271C645 301 686 316 716 316C737 316 748 307 748 294C748 281 739 270 709 246L504 90L503 0Z" glyph-name="onehalf" horiz-adv-x="914" unicode="&#189;" /><glyph d="M272 278 374 702H280L106 649L111 538L205 563L137 278ZM103 0H185L461 332L777 700H696L420 368ZM578 163 718 330 676 163ZM835 69 858 165H800L862 423H675L461 170L453 69H649L632 0H760L777 69Z" glyph-name="onequarter" horiz-adv-x="894" unicode="&#188;" /><glyph d="M272 278 374 702H280L106 649L111 538L205 563L137 278ZM103 0H185L461 332L777 700H696L420 368ZM489 -5C766 -3 853 51 853 131C853 170 825 203 768 214C852 234 893 275 893 330C893 390 839 427 728 427C674 427 619 418 574 403L595 308C634 319 676 326 710 326C742 326 756 319 756 306C756 289 728 272 612 252L598 170C691 167 715 156 715 139C715 118 679 101 514 98Z" glyph-name="onethird" horiz-adv-x="910" unicode="&#8531;" /><glyph d="M222 447C202 447 189 455 189 473C189 499 209 516 253 516C264 516 273 515 281 514L266 455C251 450 236 447 222 447ZM270 379H373L382 446L409 561C413 577 415 594 415 606C415 672 370 706 286 706C231 706 185 697 148 683L161 601C192 612 219 619 250 619C280 619 297 610 297 588C297 583 296 577 295 572C274 575 255 577 232 577C131 577 81 530 81 458C81 403 116 376 169 376C207 376 235 386 264 408ZM358 261 373 322H45L30 261Z" glyph-name="ordfeminine" horiz-adv-x="392" unicode="&#170;" /><glyph d="M278 708C171 708 94 624 94 511C94 423 156 373 240 373C348 373 425 457 425 570C425 658 363 708 278 708ZM270 614C297 614 315 597 315 564C315 523 290 467 249 467C222 467 203 483 203 516C203 558 229 614 270 614ZM353 261 368 322H52L37 261Z" glyph-name="ordmasculine" horiz-adv-x="394" unicode="&#186;" /><glyph d="M189 219C189 274 212 340 241 369C259 387 278 396 302 396C312 396 321 394 330 391L190 205C189 209 189 214 189 219ZM260 136C250 136 240 138 231 141L372 329C373 324 373 318 373 312C373 257 350 192 321 162C304 145 284 136 260 136ZM247 -12C326 -12 394 17 445 67C505 127 542 220 542 321C542 377 527 424 499 461L598 581H471L423 522C392 536 355 544 315 544C236 544 168 515 117 465C57 405 21 311 21 210C21 155 36 107 64 71L-36 -49H91L139 10C170 -4 207 -12 247 -12Z" glyph-name="oslash" horiz-adv-x="562" unicode="&#248;" /><glyph d="M189 219C189 274 212 340 241 369C259 387 278 396 302 396C312 396 321 394 330 391L190 205C189 209 189 214 189 219ZM260 136C250 136 240 138 231 141L372 329C373 324 373 318 373 312C373 257 350 192 321 162C304 145 284 136 260 136ZM247 -12C326 -12 394 17 445 67C505 127 542 220 542 321C542 377 527 424 499 461L598 581H471L423 522C392 536 355 544 315 544C236 544 168 515 117 465C57 405 21 311 21 210C21 155 36 107 64 71L-36 -49H91L139 10C170 -4 207 -12 247 -12ZM393 581 585 696H369L270 581Z" glyph-name="oslashacute" horiz-adv-x="562" unicode="&#511;" /><glyph d="M247 -12C326 -12 394 17 445 67C505 127 542 220 542 321C542 457 450 544 315 544C236 544 168 515 117 465C57 405 21 311 21 210C21 75 112 -12 247 -12ZM260 141C222 141 196 166 196 218C196 273 217 339 244 366C260 381 278 391 302 391C340 391 367 365 367 313C367 259 345 193 318 166C303 151 284 141 260 141ZM300 621C316 621 329 615 362 598C396 581 413 575 435 575C475 575 506 599 557 688L490 725C465 689 452 676 431 676C416 676 402 682 369 699C335 716 319 722 297 722C257 722 226 698 175 609L242 573C267 608 280 621 300 621Z" glyph-name="otilde" horiz-adv-x="562" unicode="&#245;" /><glyph d="M272 141C250 141 230 148 208 163L259 372C286 386 307 391 326 391C364 391 388 368 388 320C388 264 367 198 338 169C321 151 298 141 272 141ZM303 -9C369 -9 422 16 465 58C524 118 566 222 566 349C566 478 497 541 408 541C360 541 319 523 272 485L258 532H112L-59 -173H127L176 29C216 3 258 -9 303 -9Z" glyph-name="p" horiz-adv-x="586" unicode="p" /><glyph d="M420 0 588 700H385C183 700 67 596 67 449C67 339 148 279 268 279H274L349 591H445L303 0Z" glyph-name="paragraph" horiz-adv-x="541" unicode="&#182;" /><glyph d="M299 -35C240 33 206 113 206 216C206 372 296 527 458 629L413 728C185 627 39 442 39 224C39 94 107 -32 218 -120Z" glyph-name="parenleft" horiz-adv-x="391" unicode="(" /><glyph d="M310 10C251 78 217 158 217 261C217 417 307 572 469 674L424 773C196 672 50 487 50 269C50 139 118 13 229 -75Z" glyph-name="parenleft.cap" horiz-adv-x="391" /><glyph d="M111 643C169 575 203 495 203 392C203 236 114 81 -48 -21L-3 -120C225 -19 370 166 370 384C370 514 302 640 191 728Z" glyph-name="parenright" horiz-adv-x="391" unicode=")" /><glyph d="M122 688C180 620 214 540 214 437C214 281 125 126 -37 24L8 -75C236 26 381 211 381 429C381 559 313 685 202 773Z" glyph-name="parenright.cap" horiz-adv-x="391" /><glyph d="M700 673 633 713 343 365 28 27 95 -13 385 335ZM259 708C213 708 174 689 141 657C101 616 76 549 76 484C76 393 135 346 209 346C256 346 294 365 327 397C367 437 392 505 392 571C392 660 333 708 259 708ZM249 614C273 614 288 597 288 567C288 536 274 475 255 456C244 445 232 439 219 439C195 439 180 456 180 487C180 518 194 579 213 598C224 609 236 614 249 614ZM519 354C474 354 434 335 402 303C362 263 336 195 336 130C336 40 395 -8 470 -8C516 -8 555 11 587 43C627 84 653 151 653 217C653 307 594 354 519 354ZM510 261C534 261 548 244 548 213C548 182 535 121 515 102C505 91 492 86 479 86C455 86 441 103 441 133C441 164 454 225 474 244C484 255 497 261 510 261Z" glyph-name="percent" horiz-adv-x="698" unicode="%" /><glyph d="M149 0 196 196H14L-33 0Z" glyph-name="period" horiz-adv-x="245" unicode="." /><glyph d="M150 0 197 196H15L-32 0Z" glyph-name="period.tab" horiz-adv-x="282" /><glyph d="M318 117 359 286H521L555 423H393L435 592H290L248 423H85L52 286H214L172 117Z" glyph-name="plus" horiz-adv-x="564" unicode="+" /><glyph d="M335 190 369 332H523L557 470H403L440 618H295L258 470H103L70 332H224L190 190ZM445 0 477 133H23L-9 0Z" glyph-name="plusminus" horiz-adv-x="564" unicode="&#177;" /><glyph d="M432 -173 603 532H455L423 490C379 525 336 541 285 541C219 541 164 513 122 471C62 411 20 307 20 187C20 54 87 -9 173 -9C218 -9 255 5 296 33L246 -173ZM258 141C221 141 197 164 197 215C197 268 219 333 248 363C266 380 289 391 314 391C335 391 354 384 376 369L326 160C298 146 277 141 258 141Z" glyph-name="q" horiz-adv-x="586" unicode="q" /><glyph d="M277 229 314 308C484 360 566 439 566 547C566 646 481 710 345 710C261 710 176 688 102 649L149 502C216 531 272 547 316 547C355 547 374 533 374 510C374 479 343 448 186 401L170 229ZM263 0 304 172H117L76 0Z" glyph-name="question" horiz-adv-x="531" unicode="?" /><glyph d="M294 471 257 392C87 340 5 261 5 153C5 54 90 -10 226 -10C310 -10 395 12 469 51L422 198C355 169 299 153 255 153C216 153 197 167 197 190C197 221 228 252 385 299L401 471ZM308 700 267 528H454L495 700Z" glyph-name="questiondown" horiz-adv-x="531" unicode="&#191;" /><glyph d="M601 698 602 700H415L277 382L347 359ZM379 698 380 700H192L54 382L124 359Z" glyph-name="quotedbl" horiz-adv-x="512" unicode="&quot;" /><glyph d="M631 698V700H436L284 385L353 359ZM392 698V700H198L46 385L114 359Z" glyph-name="quotedbl.tab" horiz-adv-x="564" /><glyph d="M185 196H28C-6 43 -34 -12 -99 -97L-42 -145C86 -54 163 50 185 196ZM401 196H243C210 43 182 -12 116 -97L173 -145C301 -54 378 50 401 196Z" glyph-name="quotedblbase" horiz-adv-x="448" unicode="&#8222;" /><glyph d="M270 390H428C461 543 489 598 554 683L497 731C370 640 292 536 270 390ZM55 390H212C246 543 274 598 339 683L282 731C155 640 77 536 55 390Z" glyph-name="quotedblleft" horiz-adv-x="465" unicode="&#8220;" /><glyph d="M336 724H179C145 572 117 516 52 431L109 383C236 474 314 578 336 724ZM551 724H394C360 572 332 516 267 431L324 383C452 474 529 578 551 724Z" glyph-name="quotedblright" horiz-adv-x="465" unicode="&#8221;" /><glyph d="M55 390H226C260 545 287 599 351 683L294 731C159 642 77 532 55 390Z" glyph-name="quoteleft" horiz-adv-x="262" unicode="&#8216;" /><glyph d="M349 723H177C144 568 116 514 52 430L109 382C244 471 327 581 349 723Z" glyph-name="quoteright" horiz-adv-x="262" unicode="&#8217;" /><glyph d="M198 196H26C-7 41 -35 -13 -99 -97L-42 -145C93 -56 176 54 198 196Z" glyph-name="quotesinglbase" horiz-adv-x="245" unicode="&#8218;" /><glyph d="M391 698 392 700H193L54 382L124 359Z" glyph-name="quotesingle" horiz-adv-x="301" unicode="'" /><glyph d="M356 698V700H164L37 380L108 359Z" glyph-name="quotesingle.tab" horiz-adv-x="282" /><glyph d="M-17 0H169L242 303C292 333 347 350 410 350L456 542C383 542 325 512 266 446L255 532H112Z" glyph-name="r" horiz-adv-x="411" unicode="r" /><glyph d="M-17 0H169L242 303C292 333 347 350 410 350L456 542C383 542 325 512 266 446L255 532H112ZM341 578 533 693H317L218 578Z" glyph-name="racute" horiz-adv-x="411" unicode="&#341;" /><glyph d="M-17 0H169L242 303C292 333 347 350 410 350L456 542C383 542 325 512 266 446L255 532H112ZM311 655 263 699H161L232 578H363L492 699H378Z" glyph-name="rcaron" horiz-adv-x="411" unicode="&#345;" /><glyph d="M278 709C179 709 94 625 89 519C84 430 141 370 224 370C323 370 408 454 413 560C418 649 361 709 278 709ZM227 391C153 391 107 443 111 520C116 615 188 689 275 689C349 689 395 636 391 559C386 465 314 391 227 391ZM234 552 244 591H261C281 591 286 584 284 572C280 559 269 552 250 552ZM224 510C237 510 239 507 244 495L260 454H326L307 498C301 512 296 520 286 525C310 532 337 545 344 578C352 612 331 635 272 635H197L152 454H210Z" glyph-name="registered" horiz-adv-x="370" unicode="&#174;" /><glyph d="M335 573C405 573 459 628 459 693C459 748 418 786 358 786C287 786 233 730 233 665C233 611 274 573 335 573ZM337 616C303 616 283 636 283 667C283 708 315 742 355 742C389 742 409 722 409 692C409 651 377 616 337 616Z" glyph-name="ring" horiz-adv-x="500" unicode="&#730;" /><glyph d="M143 948C69 948 11 895 11 827C11 771 57 732 120 732C195 732 252 786 252 853C252 909 206 948 143 948ZM122 775C87 775 61 796 61 829C61 870 95 905 141 905C176 905 202 884 202 851C202 811 168 775 122 775Z" glyph-name="ring.cap" horiz-adv-x="0" /><glyph d="M329 892H127L45 799H169ZM83 573C154 573 208 626 208 686C208 739 165 775 106 775C35 775 -18 722 -18 662C-18 609 24 573 83 573ZM87 616C53 616 31 634 31 663C31 700 62 732 102 732C136 732 158 714 158 685C158 648 127 616 87 616Z" glyph-name="ringacute" horiz-adv-x="0" /><glyph d="M279 157C279 140 264 130 227 130C178 130 106 150 36 184L-18 44C56 10 132 -11 228 -11C367 -11 450 69 450 171C450 249 407 294 289 335C237 354 225 363 225 377C225 392 240 402 275 402C320 402 375 386 442 355L496 492C429 523 358 542 282 542C139 542 54 464 54 358C54 280 103 238 211 201C268 180 279 172 279 157Z" glyph-name="s" horiz-adv-x="491" unicode="s" /><glyph d="M279 157C279 140 264 130 227 130C178 130 106 150 36 184L-18 44C56 10 132 -11 228 -11C367 -11 450 69 450 171C450 249 407 294 289 335C237 354 225 363 225 377C225 392 240 402 275 402C320 402 375 386 442 355L496 492C429 523 358 542 282 542C139 542 54 464 54 358C54 280 103 238 211 201C268 180 279 172 279 157ZM364 581 556 696H340L241 581Z" glyph-name="sacute" horiz-adv-x="491" unicode="&#347;" /><glyph d="M279 157C279 140 264 130 227 130C178 130 106 150 36 184L-18 44C56 10 132 -11 228 -11C367 -11 450 69 450 171C450 249 407 294 289 335C237 354 225 363 225 377C225 392 240 402 275 402C320 402 375 386 442 355L496 492C429 523 358 542 282 542C139 542 54 464 54 358C54 280 103 238 211 201C268 180 279 172 279 157ZM334 658 286 702H184L255 581H386L515 702H401Z" glyph-name="scaron" horiz-adv-x="491" unicode="&#353;" /><glyph d="M279 157C279 140 264 130 227 130C178 130 106 150 36 184L-18 44C56 10 132 -11 228 -11C367 -11 450 69 450 171C450 249 407 294 289 335C237 354 225 363 225 377C225 392 240 402 275 402C320 402 375 386 442 355L496 492C429 523 358 542 282 542C139 542 54 464 54 358C54 280 103 238 211 201C268 180 279 172 279 157ZM336 625 384 581H486L415 702H284L155 581H268Z" glyph-name="scircumflex" horiz-adv-x="491" unicode="&#349;" /><glyph d="M294 310C218 346 210 352 210 368C210 384 225 399 259 415C275 407 293 399 312 390C388 355 396 349 396 333C396 317 381 302 346 285C331 293 313 301 294 310ZM262 -9C387 -9 458 61 458 152C458 174 453 194 441 211C529 249 558 299 558 356C558 414 518 456 404 507C320 546 315 552 315 564C315 573 323 580 346 580C387 580 450 559 513 531L568 657C502 688 431 710 344 710C219 710 147 640 147 549C147 527 153 507 164 489C77 451 47 402 47 345C47 285 88 245 202 193C285 155 291 149 291 137C291 128 283 120 260 120C218 120 156 141 93 170L37 43C103 12 175 -9 262 -9Z" glyph-name="section" horiz-adv-x="567" unicode="&#167;" /><glyph d="M237 336 285 532H103L55 336ZM203 196H30C-3 41 -30 -13 -94 -97L-37 -145C98 -56 181 54 203 196Z" glyph-name="semicolon" horiz-adv-x="255" unicode=";" /><glyph d="M186 -17 575 516 619 700H133L91 530H379L7 49Z" glyph-name="seven" horiz-adv-x="545" unicode="7" /><glyph d="M120 -10 366 303 394 422H62L35 309H222L1 43Z" glyph-name="seven.den" horiz-adv-x="379" /><glyph d="M187 268 433 581 461 700H129L102 587H289L68 321Z" glyph-name="seven.num" horiz-adv-x="379" /><glyph d="M175 -15 560 516 604 700H112L70 530H363L-1 41Z" glyph-name="seven.tab" horiz-adv-x="564" /><glyph d="M264 -12C433 -12 548 97 548 267C548 393 459 448 369 448C339 448 308 443 277 435C325 488 405 531 546 558L523 715C379 699 251 639 176 564C85 475 31 351 31 224C31 65 123 -12 264 -12ZM279 140C235 140 208 170 208 221C208 248 215 277 224 308C243 313 262 315 281 315C339 315 369 294 369 249C369 189 328 140 279 140Z" glyph-name="six" horiz-adv-x="574" unicode="6" /><glyph d="M173 -8C284 -8 364 57 364 155C364 225 315 266 243 266C216 266 188 261 162 253C194 288 245 313 345 330L327 432C115 403 7 293 7 150C7 51 68 -8 173 -8ZM182 91C151 91 131 110 131 142C131 152 132 163 134 176C152 179 169 181 185 181C224 181 240 167 240 143C240 113 216 91 182 91Z" glyph-name="six.den" horiz-adv-x="409" /><glyph d="M240 270C351 270 431 335 431 433C431 503 382 544 310 544C283 544 255 539 229 531C261 566 312 591 412 608L394 710C182 681 74 571 74 428C74 329 135 270 240 270ZM249 369C218 369 198 388 198 420C198 430 199 441 201 454C219 457 236 459 252 459C291 459 307 445 307 421C307 391 283 369 249 369Z" glyph-name="six.num" horiz-adv-x="409" /><glyph d="M237 -12C414 -12 521 119 521 282C521 394 453 449 355 449C318 449 286 443 251 431C294 486 368 525 504 568L462 719C336 688 231 636 154 560C54 462 13 341 13 223C13 71 94 -12 237 -12ZM249 140C213 140 189 165 189 213C189 237 194 271 202 302C228 310 254 315 280 315C323 315 345 294 345 255C345 218 332 184 313 165C298 150 276 140 249 140Z" glyph-name="six.tab" horiz-adv-x="564" /><glyph d="M552 795H416L-126 -130H11Z" glyph-name="slash" horiz-adv-x="408" unicode="/" /><glyph d="M561 811H425L-117 -114H20Z" glyph-name="slash.cap" horiz-adv-x="408" /><glyph d="M699 812H553L-136 -113H10Z" glyph-name="slash.tab" horiz-adv-x="564" /><glyph glyph-name="space" horiz-adv-x="169" unicode=" " /><glyph glyph-name="space.cap" horiz-adv-x="188" /><glyph d="M514 162H226C255 187 276 221 294 269V270H463L498 417H351L366 456C375 482 387 500 406 516C424 531 447 538 478 538C508 538 546 530 576 518L642 679C605 696 539 709 492 709C410 709 344 689 292 646C251 610 221 560 195 494L166 417H71L35 270H110C79 192 52 159 7 124L11 0H476Z" glyph-name="sterling" horiz-adv-x="575" unicode="&#163;" /><glyph d="M493 162H212C241 187 261 221 280 269V270H442L477 417H336L351 456C361 482 373 500 391 516C409 531 433 538 464 538C495 538 525 532 555 521L620 683C584 698 527 709 480 709C397 709 331 689 279 645C237 609 208 560 181 494L152 417H56L21 270H95C64 192 37 159 -8 124L-3 0H454Z" glyph-name="sterling.tab" horiz-adv-x="564" /><glyph d="M331 4 364 152C340 146 324 143 299 143C266 143 247 157 247 186C247 196 248 205 250 214L293 388H421L455 532H329L363 668H181L147 532H78L43 388H112L66 203C60 179 58 156 58 135C58 41 118 -8 233 -8C267 -8 301 -4 331 4Z" glyph-name="t" horiz-adv-x="421" unicode="t" /><glyph d="M331 4 362 144C338 138 322 135 297 135C264 135 245 149 245 178C245 188 246 197 248 206L251 218H345L370 319H276L295 396H422L455 532H329L363 668H181L147 532H78L45 396H114L95 319H39L15 218H70L66 203C60 179 58 156 58 135C58 41 118 -8 233 -8C267 -8 301 -4 331 4Z" glyph-name="tbar" horiz-adv-x="418" unicode="&#359;" /><glyph d="M331 4 364 152C340 146 324 143 299 143C266 143 247 157 247 186C247 196 248 205 250 214L293 388H421L455 532H329L363 668H181L147 532H78L43 388H112L66 203C60 179 58 156 58 135C58 41 118 -8 233 -8C267 -8 301 -4 331 4ZM538 746H425C413 682 396 634 370 586L415 560C487 610 523 661 538 746Z" glyph-name="tcaron" horiz-adv-x="421" unicode="&#357;" /><glyph d="M272 140C250 140 230 147 208 163L259 371C287 386 309 391 328 391C365 391 388 368 388 319C388 263 367 197 338 168C321 150 298 140 272 140ZM303 -10C369 -10 422 15 465 58C524 117 566 222 566 348C566 477 498 541 413 541C368 541 330 527 289 498L344 724H158L-59 -173H127L176 28C216 2 258 -10 303 -10Z" glyph-name="thorn" horiz-adv-x="586" unicode="&#254;" /><glyph d="M-26 -7C371 -3 507 81 507 221C507 295 466 337 384 359C511 398 572 464 572 552C572 659 478 709 334 709C247 709 174 694 103 669L129 523C194 546 256 556 301 556C345 556 367 544 367 517C367 487 347 457 160 413L135 290C271 282 310 265 310 230C310 185 257 153 9 148Z" glyph-name="three" horiz-adv-x="550" unicode="3" /><glyph d="M-37 -5C240 -3 327 51 327 131C327 170 299 203 242 214C326 234 367 275 367 330C367 390 313 427 202 427C148 427 93 418 48 403L69 308C108 319 150 326 184 326C216 326 230 319 230 306C230 289 202 272 86 252L72 170C165 167 189 156 189 139C189 118 153 101 -12 98Z" glyph-name="three.den" horiz-adv-x="384" /><glyph d="M30 273C307 275 394 329 394 409C394 448 366 481 309 492C393 512 434 553 434 608C434 668 380 705 269 705C215 705 160 696 115 681L136 586C175 597 217 604 251 604C283 604 297 597 297 584C297 567 269 550 153 530L139 448C232 445 256 434 256 417C256 396 220 379 55 376Z" glyph-name="three.num" horiz-adv-x="384" /><glyph d="M-41 -6C313 1 502 71 502 233C502 301 459 348 367 366C495 409 563 472 563 565C563 654 497 710 357 710C257 710 173 689 83 652L110 506C191 538 262 555 312 555C346 555 362 543 362 523C362 491 341 467 137 409L122 288C264 285 303 267 303 235C303 195 269 162 -4 150Z" glyph-name="three.tab" horiz-adv-x="564" /><glyph d="M30 273C307 275 394 329 394 409C394 448 366 481 309 492C393 512 434 553 434 608C434 668 380 705 269 705C215 705 160 696 115 681L136 586C175 597 217 604 251 604C283 604 297 597 297 584C297 567 269 550 153 530L139 448C232 445 256 434 256 417C256 396 220 379 55 376ZM147 0H229L505 332L821 700H740L464 368ZM623 163 763 330 721 163ZM880 69 903 165H845L907 423H720L506 170L498 69H694L677 0H805L822 69Z" glyph-name="threequarters" horiz-adv-x="938" unicode="&#190;" /><glyph d="M279 618C295 618 308 612 341 595C375 578 392 572 414 572C454 572 485 596 536 685L469 722C444 686 431 673 410 673C395 673 381 679 348 696C314 713 298 719 276 719C236 719 205 695 154 606L221 570C246 605 259 618 279 618Z" glyph-name="tilde" horiz-adv-x="500" unicode="&#732;" /><glyph d="M62 775C78 775 93 770 128 754C164 737 181 731 204 731C247 731 281 754 333 838L265 877C239 842 223 830 202 830C186 830 172 835 136 852C100 869 83 875 60 875C18 875 -17 851 -69 767L-1 729C26 763 41 775 62 775Z" glyph-name="tilde.cap" horiz-adv-x="0" /><glyph d="M206 465 249 639H319L334 700H123L108 639H179L137 465ZM409 465H474L546 601L518 465H586L631 700H534L464 565L458 700H368L298 465H364L403 599Z" glyph-name="trademark" horiz-adv-x="571" unicode="&#8482;" /><glyph d="M107 700V690L431 -12H449L773 690V700Z" glyph-name="triagdn" horiz-adv-x="782" unicode="&#9660;" /><glyph d="M75 700 286 -13H309L520 700Z" glyph-name="triagdn.tab" horiz-adv-x="564" /><glyph d="M715 0V10L391 712H373L49 10V0Z" glyph-name="triagup" horiz-adv-x="782" unicode="&#9650;" /><glyph d="M490 0 278 713H255L44 0Z" glyph-name="triagup.tab" horiz-adv-x="564" /><glyph d="M473 0 515 167H267L389 274C527 379 576 447 576 538C576 644 498 711 364 711C252 711 168 669 93 621L156 469C232 518 282 538 322 538C356 538 376 523 376 495C376 468 360 447 306 401L-9 137L-12 0Z" glyph-name="two" horiz-adv-x="562" unicode="2" /><glyph d="M309 0 336 108H172L246 164C340 228 365 267 365 318C365 385 309 428 221 428C154 428 89 407 33 371L74 271C122 301 163 316 193 316C214 316 225 307 225 294C225 281 216 270 186 246L-19 90L-20 0Z" glyph-name="two.den" horiz-adv-x="390" /><glyph d="M376 278 403 386H239L313 442C407 506 432 545 432 596C432 663 376 706 288 706C221 706 156 685 100 649L141 549C189 579 230 594 260 594C281 594 292 585 292 572C292 559 283 548 253 524L48 368L47 278Z" glyph-name="two.num" horiz-adv-x="390" /><glyph d="M449 0 491 168H238L393 290C497 370 557 435 557 535C557 641 485 711 350 711C241 711 157 669 73 607L139 456C223 512 269 536 313 536C343 536 359 523 359 496C359 468 338 441 280 394L-26 138L-30 0Z" glyph-name="two.tab" horiz-adv-x="564" /><glyph d="M376 278 403 386H239L313 442C407 506 432 545 432 596C432 663 376 706 288 706C221 706 156 685 100 649L141 549C189 579 230 594 260 594C281 594 292 585 292 572C292 559 283 548 253 524L48 368L47 278ZM196 0H278L554 332L870 700H789L513 368ZM583 -5C860 -3 947 51 947 131C947 170 919 203 862 214C946 234 987 275 987 330C987 390 933 427 822 427C768 427 713 418 668 403L689 308C728 319 770 326 804 326C836 326 850 319 850 306C850 289 822 272 706 252L692 170C785 167 809 156 809 139C809 118 773 101 608 98Z" glyph-name="twothirds" horiz-adv-x="1004" unicode="&#8532;" /><glyph d="M327 0H473L602 532H416L330 177C299 161 276 154 253 154C228 154 216 168 216 190C216 198 217 206 220 218L295 532H109L30 202C23 173 19 144 19 120C19 42 66 -9 152 -9C208 -9 253 11 313 49Z" glyph-name="u" horiz-adv-x="585" unicode="u" /><glyph d="M327 0H473L602 532H416L330 177C299 161 276 154 253 154C228 154 216 168 216 190C216 198 217 206 220 218L295 532H109L30 202C23 173 19 144 19 120C19 42 66 -9 152 -9C208 -9 253 11 313 49ZM407 575 599 690H383L284 575Z" glyph-name="uacute" horiz-adv-x="585" unicode="&#250;" /><glyph d="M327 0H473L602 532H416L330 177C299 161 276 154 253 154C228 154 216 168 216 190C216 198 217 206 220 218L295 532H109L30 202C23 173 19 144 19 120C19 42 66 -9 152 -9C208 -9 253 11 313 49ZM385 665C347 665 327 681 324 706H240C230 625 283 570 375 570C461 570 530 623 550 706H462C447 681 422 665 385 665Z" glyph-name="ubreve" horiz-adv-x="585" unicode="&#365;" /><glyph d="M327 0H473L602 532H416L330 177C299 161 276 154 253 154C228 154 216 168 216 190C216 198 217 206 220 218L295 532H109L30 202C23 173 19 144 19 120C19 42 66 -9 152 -9C208 -9 253 11 313 49ZM380 622 428 578H530L459 699H328L199 578H312Z" glyph-name="ucircumflex" horiz-adv-x="585" unicode="&#251;" /><glyph d="M327 0H473L602 532H416L330 177C299 161 276 154 253 154C228 154 216 168 216 190C216 198 217 206 220 218L295 532H109L30 202C23 173 19 144 19 120C19 42 66 -9 152 -9C208 -9 253 11 313 49ZM339 578 370 705H236L205 578ZM524 578 555 705H421L390 578Z" glyph-name="udieresis" horiz-adv-x="585" unicode="&#252;" /><glyph d="M327 0H473L602 532H416L330 177C299 161 276 154 253 154C228 154 216 168 216 190C216 198 217 206 220 218L295 532H109L30 202C23 173 19 144 19 120C19 42 66 -9 152 -9C208 -9 253 11 313 49ZM327 575H437L390 690H189Z" glyph-name="ugrave" horiz-adv-x="585" unicode="&#249;" /><glyph d="M313 49 327 0H473L586 466C675 500 715 569 715 634C715 655 712 667 708 680L582 649C583 637 583 627 581 613C575 562 523 532 438 532H416L330 177C299 161 276 154 253 154C228 154 216 168 216 190C216 198 217 206 220 218L295 532H109L30 202C23 173 19 144 19 120C19 42 66 -9 152 -9C208 -9 253 11 313 49Z" glyph-name="uhorn" horiz-adv-x="613" unicode="&#432;" /><glyph d="M327 0H473L602 532H416L330 177C299 161 276 154 253 154C228 154 216 168 216 190C216 198 217 206 220 218L295 532H109L30 202C23 173 19 144 19 120C19 42 66 -9 152 -9C208 -9 253 11 313 49ZM313 578 487 693H323L214 578ZM492 578 666 693H502L393 578Z" glyph-name="uhungarumlaut" horiz-adv-x="585" unicode="&#369;" /><glyph d="M327 0H473L602 532H416L330 177C299 161 276 154 253 154C228 154 216 168 216 190C216 198 217 206 220 218L295 532H109L30 202C23 173 19 144 19 120C19 42 66 -9 152 -9C208 -9 253 11 313 49ZM513 582 534 667H238L217 582Z" glyph-name="umacron" horiz-adv-x="585" unicode="&#363;" /><glyph d="M413 -108 430 -42H-76L-93 -108Z" glyph-name="underscore" horiz-adv-x="502" unicode="_" /><glyph glyph-name="uni0000" horiz-adv-x="0" /><glyph d="M-3 903 -4 823C38 832 87 838 124 838C158 838 168 834 168 827C168 817 147 809 74 793L78 729C228 754 281 794 281 845C281 889 233 919 135 919C87 919 41 914 -3 903Z" glyph-name="uni00200309.cap" horiz-adv-x="0" /><glyph glyph-name="uni00A0" horiz-adv-x="169" unicode="&#160;" /><glyph d="M71 727H180L142 829H-54ZM49 578 79 701H-55L-85 578ZM234 578 264 701H130L100 578Z" glyph-name="uni00A80300" horiz-adv-x="0" /><glyph d="M225 882 175 976H-38L91 882ZM86 737 115 856H-26L-55 737ZM279 737 308 856H167L139 737Z" glyph-name="uni00A80300.cap" horiz-adv-x="0" /><glyph d="M155 727 331 829H121L34 727ZM49 578 79 701H-55L-85 578ZM234 578 264 701H130L100 578Z" glyph-name="uni00A80301" horiz-adv-x="0" /><glyph d="M208 882 381 976H154L61 882ZM86 737 115 856H-26L-55 737ZM279 737 308 856H167L139 737Z" glyph-name="uni00A80301.cap" horiz-adv-x="0" /><glyph d="M270 731 291 814H-28L-49 731ZM49 578 79 701H-55L-85 578ZM234 578 264 701H130L100 578Z" glyph-name="uni00A80304" horiz-adv-x="0" /><glyph d="M316 886 337 974H3L-19 886ZM86 737 115 856H-26L-55 737ZM279 737 308 856H167L139 737Z" glyph-name="uni00A80304.cap" horiz-adv-x="0" /><glyph d="M175 727 304 835H191L123 802L72 835H-30L45 727ZM49 578 79 701H-55L-85 578ZM234 578 264 701H130L100 578Z" glyph-name="uni00A8030C" horiz-adv-x="0" /><glyph d="M227 882 350 984H225L158 951L108 984H-6L68 882ZM86 737 115 856H-26L-55 737ZM279 737 308 856H167L139 737Z" glyph-name="uni00A8030C.cap" horiz-adv-x="0" /><glyph d="M423 415 450 523H286L360 579C454 643 479 682 479 733C479 800 423 843 335 843C268 843 203 822 147 786L188 686C236 716 277 731 307 731C328 731 339 722 339 709C339 696 330 685 300 661L95 505L94 415Z" glyph-name="uni00B2" horiz-adv-x="420" unicode="&#178;" /><glyph d="M77 410C354 412 441 466 441 546C441 585 413 618 356 629C440 649 481 690 481 745C481 805 427 842 316 842C262 842 207 833 162 818L183 723C222 734 264 741 298 741C330 741 344 734 344 721C344 704 316 687 200 667L186 585C279 582 303 571 303 554C303 533 267 516 102 513Z" glyph-name="uni00B3" horiz-adv-x="414" unicode="&#179;" /><glyph d="M147 -66 156 17C169 0 188 -8 212 -8C249 -8 286 10 337 53L352 0H477L605 532H419L334 177C307 163 280 154 256 154C231 154 219 168 219 189C219 197 220 206 223 218L298 532H112L-58 -173H121Z" glyph-name="uni00B5" horiz-adv-x="588" unicode="&#181;" /><glyph d="M211 204 259 400H77L29 204Z" glyph-name="uni00B7" horiz-adv-x="271" unicode="&#183;" /><glyph d="M225 261 272 457H90L43 261Z" glyph-name="uni00B7.cap" horiz-adv-x="271" /><glyph d="M210 259 257 455H75L28 259Z" glyph-name="uni00B7.tab" horiz-adv-x="282" /><glyph d="M319 415 421 839H327L153 786L158 675L252 700L184 415Z" glyph-name="uni00B9" horiz-adv-x="351" unicode="&#185;" /><glyph d="M583 44 678 420H374L338 269H456L428 161C408 156 387 153 362 153C288 153 244 189 244 269C244 348 271 442 313 484C344 514 387 536 443 536C506 536 562 519 626 491L699 652C627 687 539 710 453 710C326 710 235 669 168 602C88 522 44 398 44 267C44 93 142 -9 335 -9C425 -9 513 13 583 44ZM221 -65C228 -80 233 -92 233 -104C233 -126 220 -148 184 -180L231 -227C326 -193 374 -145 374 -84C374 -68 370 -50 363 -35Z" glyph-name="uni0122" horiz-adv-x="684" unicode="&#290;" /><glyph d="M266 163C222 163 198 186 198 232C198 281 218 337 243 362C261 379 285 391 312 391C333 391 353 384 376 370L330 176C305 166 285 163 266 163ZM184 -179C344 -179 444 -116 481 37L601 532H453L421 490C376 525 330 541 279 541C213 541 160 517 119 475C62 419 21 319 21 208C21 75 98 21 186 21C232 21 269 34 305 58L301 44C285 -21 246 -48 173 -48C123 -48 69 -36 16 -12L-29 -135C26 -160 95 -179 184 -179ZM462 604C455 619 450 631 450 643C450 665 463 687 499 719L452 766C357 732 309 684 309 623C309 607 313 589 320 574Z" glyph-name="uni0123" horiz-adv-x="584" unicode="&#291;" /><glyph d="M389 0H617L459 344L781 700H537L287 406L358 700H159L-10 0H189L263 306ZM197 -55C204 -70 209 -82 209 -94C209 -116 196 -138 160 -170L207 -217C302 -183 350 -135 350 -74C350 -58 346 -40 339 -25Z" glyph-name="uni0136" horiz-adv-x="680" unicode="&#310;" /><glyph d="M307 0H511L403 265L635 532H417L246 318L344 724H158L-17 0H169L226 236ZM142 -55C149 -70 154 -82 154 -94C154 -116 141 -138 105 -170L152 -217C247 -183 295 -135 295 -74C295 -58 291 -40 284 -25Z" glyph-name="uni0137" horiz-adv-x="573" unicode="&#311;" /><glyph d="M-10 0H465L508 176H231L358 700H159ZM148 -58C155 -73 160 -85 160 -97C160 -119 147 -141 111 -173L158 -220C253 -186 301 -138 301 -77C301 -61 297 -43 290 -28Z" glyph-name="uni013B" horiz-adv-x="555" unicode="&#315;" /><glyph d="M170 0 345 724H159L-16 0ZM-15 -58C-8 -73 -3 -85 -3 -97C-3 -119 -16 -141 -52 -173L-5 -220C90 -186 138 -138 138 -77C138 -61 134 -43 127 -28Z" glyph-name="uni013C" horiz-adv-x="283" unicode="&#316;" /><glyph d="M258 338 273 408 393 0H596L765 700H581L499 373L486 310L374 700H159L-10 0H174ZM209 -55C216 -70 221 -82 221 -94C221 -116 208 -138 172 -170L219 -217C314 -183 362 -135 362 -74C362 -58 358 -40 351 -25Z" glyph-name="uni0145" horiz-adv-x="715" unicode="&#325;" /><glyph d="M332 378C358 378 369 364 369 342C369 334 368 326 366 314L290 0H476L555 330C562 359 566 387 566 412C566 490 519 541 433 541C378 541 332 521 272 483L259 532H112L-17 0H169L254 355C286 371 309 378 332 378ZM141 -55C148 -70 153 -82 153 -94C153 -116 140 -138 104 -170L151 -217C246 -183 294 -135 294 -74C294 -58 290 -40 283 -25Z" glyph-name="uni0146" horiz-adv-x="585" unicode="&#326;" /><glyph d="M393 541C446 541 476 518 476 478C476 449 465 423 448 406C426 385 389 373 341 373H275L316 541ZM254 219C302 219 323 202 340 156L392 0H614L552 159C530 215 512 245 465 270C593 303 678 389 678 512C678 634 593 700 418 700H159L-10 0H185L238 219ZM191 -55C198 -70 203 -82 203 -94C203 -116 190 -138 154 -170L201 -217C296 -183 344 -135 344 -74C344 -58 340 -40 333 -25Z" glyph-name="uni0156" horiz-adv-x="670" unicode="&#342;" /><glyph d="M-17 0H169L242 303C292 333 347 350 410 350L456 542C383 542 325 512 266 446L255 532H112ZM-15 -58C-8 -73 -3 -85 -3 -97C-3 -119 -16 -141 -52 -173L-5 -220C90 -186 138 -138 138 -77C138 -61 134 -43 127 -28Z" glyph-name="uni0157" horiz-adv-x="411" unicode="&#343;" /><glyph d="M356 -88C356 -54 323 -36 265 -36L301 -11C476 -3 574 93 574 227C574 327 515 382 379 432C305 461 287 475 287 499C287 527 309 547 359 547C426 547 502 519 564 490L635 648C562 685 482 709 369 709C198 709 91 607 91 478C91 373 154 323 286 275C356 247 376 230 376 203C376 174 348 153 299 153C214 153 126 178 53 216L-13 54C44 26 112 4 192 -6L130 -59L148 -91C184 -80 204 -85 204 -96C204 -109 180 -120 100 -123L89 -174C294 -176 356 -134 356 -88Z" glyph-name="uni015E" horiz-adv-x="613" unicode="&#350;" /><glyph d="M302 -88C302 -54 269 -36 211 -36L247 -10C375 -3 450 74 450 171C450 249 407 294 289 335C237 354 225 363 225 377C225 392 240 402 275 402C320 402 375 386 442 355L496 492C429 523 358 542 282 542C139 542 54 464 54 358C54 280 103 238 211 201C268 180 279 172 279 157C279 140 264 130 227 130C178 130 106 150 36 184L-18 44C32 21 83 4 140 -5L76 -59L94 -91C130 -80 150 -85 150 -96C150 -109 126 -120 46 -123L35 -174C240 -176 302 -134 302 -88Z" glyph-name="uni015F" horiz-adv-x="491" unicode="&#351;" /><glyph d="M361 -88C361 -54 328 -36 270 -36L321 0H356L483 525H681L724 700H126L82 525H284L157 0H204L135 -59L153 -91C189 -80 209 -85 209 -96C209 -109 185 -120 105 -123L94 -174C299 -176 361 -134 361 -88Z" glyph-name="uni0162" horiz-adv-x="642" unicode="&#354;" /><glyph d="M294 -88C294 -54 261 -36 203 -36L243 -8C273 -7 304 -3 331 4L364 152C340 146 324 143 299 143C266 143 247 157 247 186C247 196 248 205 250 214L293 388H421L455 532H329L363 668H181L147 532H78L43 388H112L66 203C60 179 58 156 58 135C58 70 87 26 144 5L68 -59L86 -91C122 -80 142 -85 142 -96C142 -109 118 -120 38 -123L27 -174C232 -176 294 -134 294 -88Z" glyph-name="uni0163" horiz-adv-x="421" unicode="&#355;" /><glyph d="M287 -12C393 -12 478 23 542 88C626 172 674 323 674 445C674 619 567 712 394 712C303 712 235 695 159 662L184 510C240 532 299 548 358 548C437 548 480 517 480 435V428H66C49 352 40 301 40 252C40 86 131 -12 287 -12ZM311 150C255 150 226 178 226 236C226 249 227 264 230 279H450C436 240 419 205 401 187C377 162 348 150 311 150Z" glyph-name="uni018F" horiz-adv-x="678" unicode="&#399;" /><glyph d="M434 273H298L422 506ZM447 0H644L580 703H343L-59 0H153L212 111H442ZM480 813 433 851H319L389 742H549L671 851H546Z" glyph-name="uni01CD" horiz-adv-x="714" unicode="&#461;" /><glyph d="M219 112C188 112 168 126 168 152C168 197 205 228 275 228C292 228 305 227 316 226L291 129C266 118 242 112 219 112ZM297 0H455L470 110L522 316C527 339 531 362 531 381C531 487 452 542 320 542C237 542 165 527 107 508L123 373C173 389 216 399 266 399C316 399 344 382 344 350C344 341 343 330 340 319V318C306 323 278 326 240 326C82 326 -2 251 -2 131C-2 41 56 -8 136 -8C195 -8 238 11 286 49ZM358 658 310 702H208L279 581H410L539 702H425Z" glyph-name="uni01CE" horiz-adv-x="554" unicode="&#462;" /><glyph d="M192 0 361 700H162L-7 0ZM280 808 233 846H119L189 737H349L471 846H346Z" glyph-name="uni01CF" horiz-adv-x="314" unicode="&#463;" /><glyph d="M170 0 299 532H113L-16 0ZM229 655 181 699H79L150 578H281L410 699H296Z" glyph-name="uni01D0" horiz-adv-x="283" unicode="&#464;" /><glyph d="M337 -12C438 -12 523 25 588 90C660 162 711 292 711 425C711 607 598 712 419 712C318 712 232 675 168 610C96 538 44 408 44 275C44 93 158 -12 337 -12ZM411 545C473 545 511 503 511 433C511 349 478 234 438 195C412 168 379 155 345 155C282 155 244 197 244 267C244 351 278 466 317 505C344 532 376 545 411 545ZM469 815 422 853H308L378 744H538L660 853H535Z" glyph-name="uni01D1" horiz-adv-x="716" unicode="&#465;" /><glyph d="M247 -12C326 -12 394 17 445 67C505 127 542 220 542 321C542 457 450 544 315 544C236 544 168 515 117 465C57 405 21 311 21 210C21 75 112 -12 247 -12ZM260 141C222 141 196 166 196 218C196 273 217 339 244 366C260 381 278 391 302 391C340 391 367 365 367 313C367 259 345 193 318 166C303 151 284 141 260 141ZM359 658 311 702H209L280 581H411L540 702H426Z" glyph-name="uni01D2" horiz-adv-x="562" unicode="&#466;" /><glyph d="M646 253 752 700H553L452 274C432 193 392 157 327 157C282 157 244 181 244 231C244 250 247 268 251 288L349 700H150L62 327C49 275 45 241 45 213C45 64 152 -11 314 -11C491 -11 599 65 646 253ZM466 805 419 843H305L375 734H535L657 843H532Z" glyph-name="uni01D3" horiz-adv-x="699" unicode="&#467;" /><glyph d="M327 0H473L602 532H416L330 177C299 161 276 154 253 154C228 154 216 168 216 190C216 198 217 206 220 218L295 532H109L30 202C23 173 19 144 19 120C19 42 66 -9 152 -9C208 -9 253 11 313 49ZM377 652 329 696H227L298 575H429L558 696H444Z" glyph-name="uni01D4" horiz-adv-x="585" unicode="&#468;" /><glyph d="M646 253 752 700H553L452 274C432 193 392 157 327 157C282 157 244 181 244 231C244 250 247 268 251 288L349 700H150L62 327C49 275 45 241 45 213C45 64 152 -11 314 -11C491 -11 599 65 646 253ZM660 886 681 974H347L325 886ZM430 737 459 856H318L289 737ZM623 737 652 856H511L483 737Z" glyph-name="uni01D5" horiz-adv-x="699" unicode="&#469;" /><glyph d="M327 0H473L602 532H416L330 177C299 161 276 154 253 154C228 154 216 168 216 190C216 198 217 206 220 218L295 532H109L30 202C23 173 19 144 19 120C19 42 66 -9 152 -9C208 -9 253 11 313 49ZM560 731 581 814H262L241 731ZM339 578 369 701H235L205 578ZM524 578 554 701H420L390 578Z" glyph-name="uni01D6" horiz-adv-x="585" unicode="&#470;" /><glyph d="M646 253 752 700H553L452 274C432 193 392 157 327 157C282 157 244 181 244 231C244 250 247 268 251 288L349 700H150L62 327C49 275 45 241 45 213C45 64 152 -11 314 -11C491 -11 599 65 646 253ZM552 882 725 976H498L405 882ZM430 737 459 856H318L289 737ZM623 737 652 856H511L483 737Z" glyph-name="uni01D7" horiz-adv-x="699" unicode="&#471;" /><glyph d="M327 0H473L602 532H416L330 177C299 161 276 154 253 154C228 154 216 168 216 190C216 198 217 206 220 218L295 532H109L30 202C23 173 19 144 19 120C19 42 66 -9 152 -9C208 -9 253 11 313 49ZM445 727 621 829H411L324 727ZM339 578 369 701H235L205 578ZM524 578 554 701H420L390 578Z" glyph-name="uni01D8" horiz-adv-x="585" unicode="&#472;" /><glyph d="M646 253 752 700H553L452 274C432 193 392 157 327 157C282 157 244 181 244 231C244 250 247 268 251 288L349 700H150L62 327C49 275 45 241 45 213C45 64 152 -11 314 -11C491 -11 599 65 646 253ZM571 882 694 984H569L502 951L452 984H338L412 882ZM430 737 459 856H318L289 737ZM623 737 652 856H511L483 737Z" glyph-name="uni01D9" horiz-adv-x="699" unicode="&#473;" /><glyph d="M327 0H473L602 532H416L330 177C299 161 276 154 253 154C228 154 216 168 216 190C216 198 217 206 220 218L295 532H109L30 202C23 173 19 144 19 120C19 42 66 -9 152 -9C208 -9 253 11 313 49ZM465 727 594 835H481L413 802L362 835H260L335 727ZM339 578 369 701H235L205 578ZM524 578 554 701H420L390 578Z" glyph-name="uni01DA" horiz-adv-x="585" unicode="&#474;" /><glyph d="M646 253 752 700H553L452 274C432 193 392 157 327 157C282 157 244 181 244 231C244 250 247 268 251 288L349 700H150L62 327C49 275 45 241 45 213C45 64 152 -11 314 -11C491 -11 599 65 646 253ZM569 882 519 976H306L435 882ZM430 737 459 856H318L289 737ZM623 737 652 856H511L483 737Z" glyph-name="uni01DB" horiz-adv-x="699" unicode="&#475;" /><glyph d="M327 0H473L602 532H416L330 177C299 161 276 154 253 154C228 154 216 168 216 190C216 198 217 206 220 218L295 532H109L30 202C23 173 19 144 19 120C19 42 66 -9 152 -9C208 -9 253 11 313 49ZM361 727H470L432 829H236ZM339 578 369 701H235L205 578ZM524 578 554 701H420L390 578Z" glyph-name="uni01DC" horiz-adv-x="585" unicode="&#476;" /><glyph d="M376 -152 397 -79C352 -68 341 -61 341 -51C341 -44 345 -36 368 -11C456 -4 530 32 588 90C660 162 711 292 711 425C711 607 598 712 419 712C318 712 232 675 168 610C96 538 44 408 44 275C44 121 126 22 259 -5C201 -41 185 -63 185 -86C185 -125 233 -147 376 -152ZM411 545C473 545 511 503 511 433C511 349 478 234 438 195C412 168 379 155 345 155C282 155 244 197 244 267C244 351 278 466 317 505C344 532 376 545 411 545Z" glyph-name="uni01EA" horiz-adv-x="716" unicode="&#490;" /><glyph d="M300 -152 321 -79C276 -68 265 -61 265 -51C265 -43 269 -35 294 -8C353 1 405 27 445 67C505 127 542 220 542 321C542 457 450 544 315 544C236 544 168 515 117 465C57 405 21 311 21 210C21 98 84 19 183 -5C125 -41 109 -63 109 -86C109 -125 157 -147 300 -152ZM260 141C222 141 196 166 196 218C196 273 217 339 244 366C260 381 278 391 302 391C340 391 367 365 367 313C367 259 345 193 318 166C303 151 284 141 260 141Z" glyph-name="uni01EB" horiz-adv-x="562" unicode="&#491;" /><glyph d="M194 92 299 532H113L16 128C-11 20 -37 -24 -110 -87L0 -183C108 -115 157 -55 194 92ZM230 655 182 699H80L151 578H282L411 699H297Z" glyph-name="uni01F0" horiz-adv-x="283" unicode="&#496;" /><glyph d="M258 338 273 408 393 0H596L765 700H581L499 373L486 310L374 700H159L-10 0H174ZM416 734H552L497 835H282Z" glyph-name="uni01F8" horiz-adv-x="715" unicode="&#504;" /><glyph d="M332 378C358 378 369 364 369 342C369 334 368 326 366 314L290 0H476L555 330C562 359 566 387 566 412C566 490 519 541 433 541C378 541 332 521 272 483L259 532H112L-17 0H169L254 355C286 371 309 378 332 378ZM326 581H436L389 696H188Z" glyph-name="uni01F9" horiz-adv-x="585" unicode="&#505;" /><glyph d="M376 203C376 174 348 153 299 153C214 153 126 178 53 216L-13 54C64 16 160 -11 279 -11C468 -11 574 88 574 227C574 327 515 382 379 432C305 461 287 475 287 499C287 527 309 547 359 547C426 547 502 519 564 490L635 648C562 685 482 709 369 709C198 709 91 607 91 478C91 373 154 323 286 275C356 247 376 230 376 203ZM161 -65C168 -80 173 -92 173 -104C173 -126 160 -148 124 -180L171 -227C266 -193 314 -145 314 -84C314 -68 310 -50 303 -35Z" glyph-name="uni0218" horiz-adv-x="613" unicode="&#536;" /><glyph d="M279 157C279 140 264 130 227 130C178 130 106 150 36 184L-18 44C56 10 132 -11 228 -11C367 -11 450 69 450 171C450 249 407 294 289 335C237 354 225 363 225 377C225 392 240 402 275 402C320 402 375 386 442 355L496 492C429 523 358 542 282 542C139 542 54 464 54 358C54 280 103 238 211 201C268 180 279 172 279 157ZM99 -61C106 -76 111 -88 111 -100C111 -122 98 -144 62 -176L109 -223C204 -189 252 -141 252 -80C252 -64 248 -46 241 -31Z" glyph-name="uni0219" horiz-adv-x="491" unicode="&#537;" /><glyph d="M681 525 724 700H126L82 525H284L157 0H356L483 525ZM165 -58C172 -73 177 -85 177 -97C177 -119 164 -141 128 -173L175 -220C270 -186 318 -138 318 -77C318 -61 314 -43 307 -28Z" glyph-name="uni021A" horiz-adv-x="642" unicode="&#538;" /><glyph d="M331 4 364 152C340 146 324 143 299 143C266 143 247 157 247 186C247 196 248 205 250 214L293 388H421L455 532H329L363 668H181L147 532H78L43 388H112L66 203C60 179 58 156 58 135C58 41 118 -8 233 -8C267 -8 301 -4 331 4ZM87 -61C94 -76 99 -88 99 -100C99 -122 86 -144 50 -176L97 -223C192 -189 240 -141 240 -80C240 -64 236 -46 229 -31Z" glyph-name="uni021B" horiz-adv-x="421" unicode="&#539;" /><glyph d="M434 273H298L422 506ZM447 0H644L580 703H343L-59 0H153L212 111H442ZM543 742 573 864H425L395 742Z" glyph-name="uni0226" horiz-adv-x="714" unicode="&#550;" /><glyph d="M219 112C188 112 168 126 168 152C168 197 205 228 275 228C292 228 305 227 316 226L291 129C266 118 242 112 219 112ZM297 0H455L470 110L522 316C527 339 531 362 531 381C531 487 452 542 320 542C237 542 165 527 107 508L123 373C173 389 216 399 266 399C316 399 344 382 344 350C344 341 343 330 340 319V318C306 323 278 326 240 326C82 326 -2 251 -2 131C-2 41 56 -8 136 -8C195 -8 238 11 286 49ZM415 581 446 708H305L274 581Z" glyph-name="uni0227" horiz-adv-x="554" unicode="&#551;" /><glyph d="M337 -12C438 -12 523 25 588 90C660 162 711 292 711 425C711 607 598 712 419 712C318 712 232 675 168 610C96 538 44 408 44 275C44 93 158 -12 337 -12ZM411 545C473 545 511 503 511 433C511 349 478 234 438 195C412 168 379 155 345 155C282 155 244 197 244 267C244 351 278 466 317 505C344 532 376 545 411 545ZM532 744 562 866H414L384 744Z" glyph-name="uni022E" horiz-adv-x="716" unicode="&#558;" /><glyph d="M247 -12C326 -12 394 17 445 67C505 127 542 220 542 321C542 457 450 544 315 544C236 544 168 515 117 465C57 405 21 311 21 210C21 75 112 -12 247 -12ZM260 141C222 141 196 166 196 218C196 273 217 339 244 366C260 381 278 391 302 391C340 391 367 365 367 313C367 259 345 193 318 166C303 151 284 141 260 141ZM416 581 447 708H306L275 581Z" glyph-name="uni022F" horiz-adv-x="562" unicode="&#559;" /><glyph d="M357 0 415 243 762 700H536L358 436L300 700H92L219 253L158 0ZM593 741 615 831H285L263 741Z" glyph-name="uni0232" horiz-adv-x="654" unicode="&#562;" /><glyph d="M-26 -180C195 -149 270 -82 360 75L606 532H409L254 196L250 532H66L109 19C63 -2 15 -15 -33 -22ZM490 582 511 667H215L194 582Z" glyph-name="uni0233" horiz-adv-x="544" unicode="&#563;" /><glyph d="M194 92 299 532H113L16 128C-11 20 -37 -24 -110 -87L0 -183C108 -115 157 -55 194 92Z" glyph-name="uni0237" horiz-adv-x="283" unicode="&#567;" /><glyph d="M234 124C191 124 170 147 170 180C170 194 172 206 176 220H339C321 154 278 124 234 124ZM106 512 112 387C158 401 201 409 249 409C317 409 359 383 362 327H41C26 283 16 232 16 183C16 67 88 -12 213 -12C293 -12 366 16 420 69C476 125 522 216 522 325C522 469 433 542 285 542C212 542 161 531 106 512Z" glyph-name="uni0259" horiz-adv-x="541" unicode="&#601;" /><glyph d="M398 722 399 724H200L61 406L131 383Z" glyph-name="uni02B9" horiz-adv-x="301" unicode="&#697;" /><glyph d="M608 722 609 724H422L284 406L354 383ZM386 722 387 724H199L61 406L131 383Z" glyph-name="uni02BA" horiz-adv-x="512" unicode="&#698;" /><glyph d="M55 390H226C260 545 287 599 351 683L294 731C159 642 77 532 55 390Z" glyph-name="uni02BB" horiz-adv-x="262" unicode="&#699;" /><glyph d="M349 723H177C144 568 116 514 52 430L109 382C244 471 327 581 349 723Z" glyph-name="uni02BC" horiz-adv-x="262" unicode="&#700;" /><glyph d="M106 616 78 505C214 505 304 582 304 691C304 766 250 815 153 815L127 704C161 704 179 691 179 670C179 639 152 616 106 616Z" glyph-name="uni02BE" horiz-adv-x="217" unicode="&#702;" /><glyph d="M301 704 329 815C192 815 102 738 102 629C102 554 156 505 253 505L280 616C245 616 227 629 227 650C227 681 254 704 301 704Z" glyph-name="uni02BF" horiz-adv-x="217" unicode="&#703;" /><glyph d="M249 669H341L303 771H124ZM89 615 140 578H242L167 691H36L-93 578H20Z" glyph-name="uni02C60300" horiz-adv-x="0" /><glyph d="M416 825 366 919H171L298 825ZM126 772 175 737H290L217 842H57L-66 737H60Z" glyph-name="uni02C60300.cap" horiz-adv-x="0" /><glyph d="M312 669 488 771H294L208 669ZM89 615 140 578H242L167 691H36L-93 578H20Z" glyph-name="uni02C60301" horiz-adv-x="0" /><glyph d="M385 825 559 919H350L256 825ZM126 772 175 737H290L217 842H57L-66 737H60Z" glyph-name="uni02C60301.cap" horiz-adv-x="0" /><glyph d="M15 710C38 742 51 754 68 754C81 754 94 749 121 734C152 718 167 712 189 712C223 712 254 736 302 814L239 848C216 816 204 804 187 804C174 804 161 809 133 824C102 840 87 847 65 847C31 847 0 822 -47 744ZM89 615 140 578H242L167 690H36L-94 578H20Z" glyph-name="uni02C60303" horiz-adv-x="0" /><glyph d="M45 862C67 894 81 906 99 906C114 906 128 900 159 885C193 869 207 864 228 864C267 864 298 888 346 967L281 1004C258 972 244 959 227 959C211 959 198 965 166 980C133 997 118 1001 97 1001C58 1001 28 978 -20 898ZM126 770 176 737H291L217 840H57L-67 737H58Z" glyph-name="uni02C60303.cap" horiz-adv-x="0" /><glyph d="M189 807V734C216 742 248 747 273 747C295 747 302 743 302 736C302 725 286 715 233 701L239 644C350 667 394 707 394 754C394 797 355 823 287 823C253 823 219 817 189 807ZM89 615 140 578H242L167 691H36L-93 578H20Z" glyph-name="uni02C60309" horiz-adv-x="0" /><glyph d="M219 960 217 887C251 894 290 899 321 899C348 899 356 895 356 889C356 881 341 874 281 859L283 800C401 820 445 856 448 903C451 948 413 975 331 975C291 975 254 970 219 960ZM126 772 175 737H290L217 842H57L-66 737H60Z" glyph-name="uni02C60309.cap" horiz-adv-x="0" /><glyph d="M83 515H214L285 805H154Z" glyph-name="uni02C8" horiz-adv-x="179" unicode="&#712;" /><glyph d="M-66 -105H65L136 185H5Z" glyph-name="uni02CC" horiz-adv-x="179" unicode="&#716;" /><glyph d="M304 -126 325 -41H29L8 -126Z" glyph-name="uni02CD" horiz-adv-x="500" unicode="&#717;" /><glyph d="M71 719H179L141 821H-55ZM94 665C56 665 35 678 31 697H-53C-62 624 -10 573 83 573C170 573 239 622 258 697H170C155 677 130 665 94 665Z" glyph-name="uni02D80300" horiz-adv-x="0" /><glyph d="M226 880 175 974H-37L91 880ZM130 823C93 823 70 837 66 858H-26C-34 783 23 732 120 732C213 732 286 779 307 858H212C197 836 169 823 130 823Z" glyph-name="uni02D80300.cap" horiz-adv-x="0" /><glyph d="M153 719 329 821H118L31 719ZM94 665C56 665 35 678 31 697H-53C-62 624 -10 573 83 573C170 573 239 622 258 697H170C155 677 130 665 94 665Z" glyph-name="uni02D80301" horiz-adv-x="0" /><glyph d="M207 880 380 974H153L59 880ZM130 823C93 823 70 837 66 858H-26C-34 783 23 732 120 732C213 732 286 779 307 858H212C197 836 169 823 130 823Z" glyph-name="uni02D80301.cap" horiz-adv-x="0" /><glyph d="M15 719C38 751 51 763 67 763C80 763 94 758 121 743C152 727 167 720 189 720C223 720 254 744 302 823L239 857C216 824 203 813 187 813C173 813 160 818 133 833C102 849 87 855 65 855C31 855 0 831 -47 753ZM94 665C56 665 35 678 31 697H-53C-62 624 -10 573 83 573C170 573 239 622 258 697H170C155 677 130 665 94 665Z" glyph-name="uni02D80303" horiz-adv-x="0" /><glyph d="M48 878C70 910 84 923 102 923C117 923 131 917 162 902C196 885 210 881 231 881C270 881 300 904 348 984L284 1020C261 988 247 976 229 976C214 976 200 982 169 997C136 1013 121 1018 100 1018C61 1018 31 994 -17 915ZM130 823C93 823 70 837 66 858H-26C-34 783 23 732 120 732C213 732 286 779 307 858H212C197 836 169 823 130 823Z" glyph-name="uni02D80303.cap" horiz-adv-x="0" /><glyph d="M15 859V785C47 794 84 800 112 800C140 800 148 796 148 788C147 779 131 770 75 754L79 697C200 722 249 758 252 805C255 848 213 877 130 877C92 877 52 871 15 859ZM94 665C56 665 35 678 31 697H-53C-62 624 -10 573 83 573C170 573 239 622 258 697H170C155 677 130 665 94 665Z" glyph-name="uni02D80309" horiz-adv-x="0" /><glyph d="M33 1023V947C75 956 121 961 157 961C191 961 201 957 200 950C200 941 180 935 108 920L112 860C253 882 309 918 311 966C314 1009 269 1038 167 1038C121 1038 76 1033 33 1023ZM130 823C93 823 70 837 66 858H-26C-34 783 23 732 120 732C213 732 286 779 307 858H212C197 836 169 823 130 823Z" glyph-name="uni02D80309.cap" horiz-adv-x="0" /><glyph d="M38 578H148L101 693H-100Z" glyph-name="uni0300" horiz-adv-x="0" unicode="&#768;" /><glyph d="M118 578 310 693H94L-5 578Z" glyph-name="uni0301" horiz-adv-x="0" unicode="&#769;" /><glyph d="M90 622 138 578H240L169 699H38L-91 578H22Z" glyph-name="uni0302" horiz-adv-x="0" unicode="&#770;" /><glyph d="M29 618C45 618 58 612 91 595C125 578 142 572 164 572C204 572 235 596 286 685L219 722C194 686 181 673 160 673C145 673 131 679 98 696C64 713 48 719 26 719C-14 719 -45 695 -96 606L-29 570C-4 605 9 618 29 618Z" glyph-name="uni0303" horiz-adv-x="0" unicode="&#771;" /><glyph d="M223 582 244 667H-52L-73 582Z" glyph-name="uni0304" horiz-adv-x="0" unicode="&#772;" /><glyph d="M95 668C57 668 37 684 34 709H-50C-60 628 -7 573 85 573C171 573 240 626 260 709H172C157 684 132 668 95 668Z" glyph-name="uni0306" horiz-adv-x="0" unicode="&#774;" /><glyph d="M145 578 176 705H35L4 578Z" glyph-name="uni0307" horiz-adv-x="0" unicode="&#775;" /><glyph d="M49 578 80 705H-54L-85 578ZM234 578 265 705H131L100 578Z" glyph-name="uni0308" horiz-adv-x="0" unicode="&#776;" /><glyph d="M-27 749V667C11 677 56 685 89 685C118 685 126 680 126 673C126 663 111 653 41 635L47 570C188 599 235 640 235 693C235 739 190 769 100 769C56 769 14 762 -27 749Z" glyph-name="uni0309" horiz-adv-x="0" unicode="&#777;" /><glyph d="M85 573C155 573 209 628 209 693C209 748 168 786 108 786C37 786 -17 730 -17 665C-17 611 24 573 85 573ZM87 616C53 616 33 636 33 667C33 708 65 742 105 742C139 742 159 722 159 692C159 651 127 616 87 616Z" glyph-name="uni030A" horiz-adv-x="0" unicode="&#778;" /><glyph d="M23 578 197 693H33L-76 578ZM202 578 376 693H212L103 578Z" glyph-name="uni030B" horiz-adv-x="0" unicode="&#779;" /><glyph d="M88 655 40 699H-62L9 578H140L269 699H155Z" glyph-name="uni030C" horiz-adv-x="0" unicode="&#780;" /><glyph d="M159 601C152 616 147 628 147 640C147 662 160 684 196 716L149 763C54 729 6 681 6 620C6 604 10 586 17 571Z" glyph-name="uni0312" horiz-adv-x="0" unicode="&#786;" /><glyph d="M223 724H110C98 660 81 612 55 564L100 538C172 588 208 639 223 724Z" glyph-name="uni0315" horiz-adv-x="0" unicode="&#789;" /><glyph d="M-33 -163 -2 -36H-143L-174 -163Z" glyph-name="uni0323" horiz-adv-x="0" unicode="&#803;" /><glyph d="M-129 -163 -98 -36H-232L-263 -163ZM56 -163 87 -36H-47L-78 -163Z" glyph-name="uni0324" horiz-adv-x="0" unicode="&#804;" /><glyph d="M-156 -58C-149 -73 -144 -85 -144 -97C-144 -119 -157 -141 -193 -173L-146 -220C-51 -186 -3 -138 -3 -77C-3 -61 -7 -43 -14 -28Z" glyph-name="uni0326" horiz-adv-x="0" unicode="&#806;" /><glyph d="M40 -88C40 -54 7 -36 -51 -36L14 10H-105L-186 -59L-168 -91C-132 -80 -112 -85 -112 -96C-112 -109 -136 -120 -216 -123L-227 -174C-22 -176 40 -134 40 -88Z" glyph-name="uni0327" horiz-adv-x="0" unicode="&#807;" /><glyph d="M23 -79C-22 -68 -33 -61 -33 -51C-33 -42 -27 -32 14 10H-90C-169 -35 -189 -60 -189 -86C-189 -125 -141 -147 2 -152Z" glyph-name="uni0328" horiz-adv-x="0" unicode="&#808;" /><glyph d="M-86 -114 -38 -158H64L-7 -37H-138L-267 -158H-154Z" glyph-name="uni032D" horiz-adv-x="0" unicode="&#813;" /><glyph d="M-82 -78C-120 -78 -140 -62 -143 -37H-227C-237 -118 -184 -173 -92 -173C-6 -173 63 -120 83 -37H-5C-20 -62 -45 -78 -82 -78Z" glyph-name="uni032E" horiz-adv-x="0" unicode="&#814;" /><glyph d="M54 -126 75 -41H-221L-242 -126Z" glyph-name="uni0331" horiz-adv-x="0" unicode="&#817;" /><glyph d="M39 -126 60 -41H-206L-227 -126Z" glyph-name="uni0331.nrw" horiz-adv-x="0" /><glyph d="M292 -110 319 0C523 6 634 84 634 220C634 284 598 332 521 355C628 384 689 446 689 544C689 631 625 688 488 698L507 776H408L390 700H159L-10 0H220L193 -110ZM270 425 302 554H367L336 425ZM503 505C503 464 475 428 410 425L441 554C484 551 503 536 503 505ZM203 145 238 291H303L268 145ZM453 231C453 183 413 147 342 145L377 291C428 291 453 268 453 231Z" glyph-name="uni0E3F" horiz-adv-x="674" unicode="&#3647;" /><glyph d="M394 549C446 549 466 531 466 499C466 457 435 426 369 426H288L317 549ZM345 290C395 290 419 272 419 235C419 186 383 150 311 150H221L255 290ZM-10 0H276C502 0 616 85 616 220C616 282 579 330 512 355C604 381 672 441 672 539C672 638 593 700 422 700H159ZM396 -126 417 -41H121L100 -126Z" glyph-name="uni1E06" horiz-adv-x="656" unicode="&#7686;" /><glyph d="M301 -10C367 -10 422 18 465 60C524 120 566 223 566 348C566 477 498 541 413 541C368 541 330 527 290 499L344 724H158L-17 0H131L163 42C207 7 250 -10 301 -10ZM272 141C251 141 231 148 209 163L259 370C288 385 310 391 329 391C365 391 388 368 388 317C388 264 367 198 337 169C320 152 297 141 272 141ZM332 -129 353 -44H57L36 -129Z" glyph-name="uni1E07" horiz-adv-x="586" unicode="&#7687;" /><glyph d="M361 529C444 529 490 492 490 415C490 339 462 265 426 227C391 192 343 171 266 171H229L315 529ZM-10 0H225C390 0 497 45 573 118C642 186 691 293 691 430C691 601 581 700 360 700H159ZM310 -163 341 -36H200L169 -163Z" glyph-name="uni1E0C" horiz-adv-x="697" unicode="&#7692;" /><glyph d="M260 141C222 141 197 164 197 212C197 268 219 334 248 363C265 381 288 391 313 391C335 391 355 384 377 369L327 160C300 146 279 141 260 141ZM328 0H474L648 724H462L409 503C369 529 328 541 283 541C217 541 162 512 119 470C60 410 20 307 20 183C20 54 88 -10 178 -10C227 -10 267 9 314 47ZM273 -166 304 -39H163L132 -166Z" glyph-name="uni1E0D" horiz-adv-x="586" unicode="&#7693;" /><glyph d="M361 529C444 529 490 492 490 415C490 339 462 265 426 227C391 192 343 171 266 171H229L315 529ZM-10 0H225C390 0 497 45 573 118C642 186 691 293 691 430C691 601 581 700 360 700H159ZM397 -126 418 -41H122L101 -126Z" glyph-name="uni1E0E" horiz-adv-x="697" unicode="&#7694;" /><glyph d="M260 141C222 141 197 164 197 212C197 268 219 334 248 363C265 381 288 391 313 391C335 391 355 384 377 369L327 160C300 146 279 141 260 141ZM328 0H474L648 724H462L409 503C369 529 328 541 283 541C217 541 162 512 119 470C60 410 20 307 20 183C20 54 88 -10 178 -10C227 -10 267 9 314 47ZM360 -129 381 -44H85L64 -129Z" glyph-name="uni1E0F" horiz-adv-x="586" unicode="&#7695;" /><glyph d="M361 529C444 529 490 492 490 415C490 339 462 265 426 227C391 192 343 171 266 171H229L315 529ZM-10 0H225C390 0 497 45 573 118C642 186 691 293 691 430C691 601 581 700 360 700H159ZM257 -114 305 -158H407L336 -37H205L76 -158H189Z" glyph-name="uni1E12" horiz-adv-x="697" unicode="&#7698;" /><glyph d="M260 141C222 141 197 164 197 212C197 268 219 334 248 363C265 381 288 391 313 391C335 391 355 384 377 369L327 160C300 146 279 141 260 141ZM328 0H474L648 724H462L409 503C369 529 328 541 283 541C217 541 162 512 119 470C60 410 20 307 20 183C20 54 88 -10 178 -10C227 -10 267 9 314 47ZM220 -117 268 -161H370L299 -40H168L39 -161H152Z" glyph-name="uni1E13" horiz-adv-x="586" unicode="&#7699;" /><glyph d="M583 44 678 420H374L338 269H456L428 161C408 156 387 153 362 153C288 153 244 189 244 269C244 348 271 442 313 484C344 514 387 536 443 536C506 536 562 519 626 491L699 652C627 687 539 710 453 710C326 710 235 669 168 602C88 522 44 398 44 267C44 93 142 -9 335 -9C425 -9 513 13 583 44ZM631 748 653 838H323L301 748Z" glyph-name="uni1E20" horiz-adv-x="684" unicode="&#7712;" /><glyph d="M266 163C222 163 198 186 198 232C198 281 218 337 243 362C261 379 285 391 312 391C333 391 353 384 376 370L330 176C305 166 285 163 266 163ZM184 -179C344 -179 444 -116 481 37L601 532H453L421 490C376 525 330 541 279 541C213 541 160 517 119 475C62 419 21 319 21 208C21 75 98 21 186 21C232 21 269 34 305 58L301 44C285 -21 246 -48 173 -48C123 -48 69 -36 16 -12L-29 -135C26 -160 95 -179 184 -179ZM526 585 547 670H251L230 585Z" glyph-name="uni1E21" horiz-adv-x="584" unicode="&#7713;" /><glyph d="M393 0H592L761 700H562L502 450H298L358 700H159L-10 0H189L253 267H457ZM326 -160 357 -33H216L185 -160Z" glyph-name="uni1E24" horiz-adv-x="711" unicode="&#7716;" /><glyph d="M332 378C358 378 369 364 369 342C369 334 368 326 366 314L290 0H476L555 330C562 359 566 387 566 412C566 490 519 541 433 541C383 541 341 525 288 493L344 724H158L-17 0H169L255 355C286 371 309 378 332 378ZM264 -160 295 -33H154L123 -160Z" glyph-name="uni1E25" horiz-adv-x="585" unicode="&#7717;" /><glyph d="M194 -88C194 -54 161 -36 103 -36L154 0H189L253 267H457L393 0H592L761 700H562L502 450H298L358 700H159L-10 0H37L-32 -59L-14 -91C22 -80 42 -85 42 -96C42 -109 18 -120 -62 -123L-73 -174C132 -176 194 -134 194 -88Z" glyph-name="uni1E28" horiz-adv-x="711" unicode="&#7720;" /><glyph d="M181 -88C181 -54 148 -36 90 -36L141 0H169L255 355C286 371 309 378 332 378C358 378 369 364 369 342C369 334 368 326 366 314L290 0H476L555 330C562 359 566 387 566 412C566 490 519 541 433 541C383 541 341 525 288 493L344 724H158L-17 0H24L-45 -59L-27 -91C9 -80 29 -85 29 -96C29 -109 5 -120 -75 -123L-86 -174C119 -176 181 -134 181 -88Z" glyph-name="uni1E29" horiz-adv-x="585" unicode="&#7721;" /><glyph d="M393 0H592L761 700H562L502 450H298L358 700H159L-10 0H189L253 267H457ZM277 -78C239 -78 219 -62 216 -37H132C122 -118 175 -173 267 -173C353 -173 422 -120 442 -37H354C339 -62 314 -78 277 -78Z" glyph-name="uni1E2A" horiz-adv-x="711" unicode="&#7722;" /><glyph d="M332 378C358 378 369 364 369 342C369 334 368 326 366 314L290 0H476L555 330C562 359 566 387 566 412C566 490 519 541 433 541C383 541 341 525 288 493L344 724H158L-17 0H169L255 355C286 371 309 378 332 378ZM214 -78C176 -78 156 -62 153 -37H69C59 -118 112 -173 204 -173C290 -173 359 -120 379 -37H291C276 -62 251 -78 214 -78Z" glyph-name="uni1E2B" horiz-adv-x="585" unicode="&#7723;" /><glyph d="M389 0H617L459 344L781 700H537L287 406L358 700H159L-10 0H189L263 306ZM320 -160 351 -33H210L179 -160Z" glyph-name="uni1E32" horiz-adv-x="680" unicode="&#7730;" /><glyph d="M307 0H511L403 265L635 532H417L246 318L344 724H158L-17 0H169L226 236ZM265 -160 296 -33H155L124 -160Z" glyph-name="uni1E33" horiz-adv-x="573" unicode="&#7731;" /><glyph d="M389 0H617L459 344L781 700H537L287 406L358 700H159L-10 0H189L263 306ZM406 -126 427 -41H131L110 -126Z" glyph-name="uni1E34" horiz-adv-x="680" unicode="&#7732;" /><glyph d="M307 0H511L403 265L635 532H417L246 318L344 724H158L-17 0H169L226 236ZM350 -126 371 -41H75L54 -126Z" glyph-name="uni1E35" horiz-adv-x="573" unicode="&#7733;" /><glyph d="M-10 0H465L508 176H231L358 700H159ZM271 -163 302 -36H161L130 -163Z" glyph-name="uni1E36" horiz-adv-x="555" unicode="&#7734;" /><glyph d="M170 0 345 724H159L-16 0ZM108 -163 139 -36H-2L-33 -163Z" glyph-name="uni1E37" horiz-adv-x="283" unicode="&#7735;" /><glyph d="M-10 0H465L508 176H231L358 700H159ZM413 741 435 831H143L122 741ZM271 -163 302 -36H161L130 -163Z" glyph-name="uni1E38" horiz-adv-x="555" unicode="&#7736;" /><glyph d="M170 0 345 724H159L-16 0ZM393 765 414 850H148L127 765ZM108 -163 139 -36H-2L-33 -163Z" glyph-name="uni1E39" horiz-adv-x="283" unicode="&#7737;" /><glyph d="M-10 0H465L508 176H231L358 700H159ZM358 -126 379 -41H83L62 -126Z" glyph-name="uni1E3A" horiz-adv-x="555" unicode="&#7738;" /><glyph d="M170 0 345 724H159L-16 0ZM180 -126 201 -41H-65L-86 -126Z" glyph-name="uni1E3B" horiz-adv-x="283" unicode="&#7739;" /><glyph d="M-10 0H465L508 176H231L358 700H159ZM218 -114 266 -158H368L297 -37H166L37 -158H150Z" glyph-name="uni1E3C" horiz-adv-x="555" unicode="&#7740;" /><glyph d="M170 0 345 724H159L-16 0ZM55 -114 103 -158H205L134 -37H3L-126 -158H-13Z" glyph-name="uni1E3D" horiz-adv-x="283" unicode="&#7741;" /><glyph d="M304 0H487L727 456L638 0H832L963 700H672L461 279L453 700H180L-25 0H161L294 464ZM626 734 808 835H578L476 734Z" glyph-name="uni1E3E" horiz-adv-x="929" unicode="&#7742;" /><glyph d="M330 378C354 378 365 364 365 343C365 334 364 326 361 314L286 0H472L550 330C552 338 554 345 555 353C587 370 611 378 632 378C657 378 667 364 667 343C667 334 666 326 663 314L588 0H774L853 330C860 359 864 387 864 412C864 490 818 541 732 541C669 541 619 521 547 478C527 518 487 541 429 541C375 541 331 521 272 483L259 532H112L-17 0H169L255 355C285 371 308 378 330 378ZM559 581 751 696H535L436 581Z" glyph-name="uni1E3F" horiz-adv-x="883" unicode="&#7743;" /><glyph d="M304 0H487L727 456L638 0H832L963 700H672L461 279L453 700H180L-25 0H161L294 464ZM641 734 671 856H523L493 734Z" glyph-name="uni1E40" horiz-adv-x="929" unicode="&#7744;" /><glyph d="M330 378C354 378 365 364 365 343C365 334 364 326 361 314L286 0H472L550 330C552 338 554 345 555 353C587 370 611 378 632 378C657 378 667 364 667 343C667 334 666 326 663 314L588 0H774L853 330C860 359 864 387 864 412C864 490 818 541 732 541C669 541 619 521 547 478C527 518 487 541 429 541C375 541 331 521 272 483L259 532H112L-17 0H169L255 355C285 371 308 378 330 378ZM586 581 617 708H476L445 581Z" glyph-name="uni1E41" horiz-adv-x="883" unicode="&#7745;" /><glyph d="M304 0H487L727 456L638 0H832L963 700H672L461 279L453 700H180L-25 0H161L294 464ZM427 -163 458 -36H317L286 -163Z" glyph-name="uni1E42" horiz-adv-x="929" unicode="&#7746;" /><glyph d="M330 378C354 378 365 364 365 343C365 334 364 326 361 314L286 0H472L550 330C552 338 554 345 555 353C587 370 611 378 632 378C657 378 667 364 667 343C667 334 666 326 663 314L588 0H774L853 330C860 359 864 387 864 412C864 490 818 541 732 541C669 541 619 521 547 478C527 518 487 541 429 541C375 541 331 521 272 483L259 532H112L-17 0H169L255 355C285 371 308 378 330 378ZM409 -163 440 -36H299L268 -163Z" glyph-name="uni1E43" horiz-adv-x="883" unicode="&#7747;" /><glyph d="M258 338 273 408 393 0H596L765 700H581L499 373L486 310L374 700H159L-10 0H174ZM545 734 575 856H427L397 734Z" glyph-name="uni1E44" horiz-adv-x="715" unicode="&#7748;" /><glyph d="M332 378C358 378 369 364 369 342C369 334 368 326 366 314L290 0H476L555 330C562 359 566 387 566 412C566 490 519 541 433 541C378 541 332 521 272 483L259 532H112L-17 0H169L254 355C286 371 309 378 332 378ZM433 581 464 708H323L292 581Z" glyph-name="uni1E45" horiz-adv-x="585" unicode="&#7749;" /><glyph d="M258 338 273 408 393 0H596L765 700H581L499 373L486 310L374 700H159L-10 0H174ZM332 -160 363 -33H222L191 -160Z" glyph-name="uni1E46" horiz-adv-x="715" unicode="&#7750;" /><glyph d="M332 378C358 378 369 364 369 342C369 334 368 326 366 314L290 0H476L555 330C562 359 566 387 566 412C566 490 519 541 433 541C378 541 332 521 272 483L259 532H112L-17 0H169L254 355C286 371 309 378 332 378ZM264 -160 295 -33H154L123 -160Z" glyph-name="uni1E47" horiz-adv-x="585" unicode="&#7751;" /><glyph d="M258 338 273 408 393 0H596L765 700H581L499 373L486 310L374 700H159L-10 0H174ZM418 -126 439 -41H143L122 -126Z" glyph-name="uni1E48" horiz-adv-x="715" unicode="&#7752;" /><glyph d="M332 378C358 378 369 364 369 342C369 334 368 326 366 314L290 0H476L555 330C562 359 566 387 566 412C566 490 519 541 433 541C378 541 332 521 272 483L259 532H112L-17 0H169L254 355C286 371 309 378 332 378ZM350 -126 371 -41H75L54 -126Z" glyph-name="uni1E49" horiz-adv-x="585" unicode="&#7753;" /><glyph d="M258 338 273 408 393 0H596L765 700H581L499 373L486 310L374 700H159L-10 0H174ZM279 -111 327 -155H429L358 -34H227L98 -155H211Z" glyph-name="uni1E4A" horiz-adv-x="715" unicode="&#7754;" /><glyph d="M332 378C358 378 369 364 369 342C369 334 368 326 366 314L290 0H476L555 330C562 359 566 387 566 412C566 490 519 541 433 541C378 541 332 521 272 483L259 532H112L-17 0H169L254 355C286 371 309 378 332 378ZM211 -111 259 -155H361L290 -34H159L30 -155H143Z" glyph-name="uni1E4B" horiz-adv-x="585" unicode="&#7755;" /><glyph d="M393 541C446 541 476 518 476 478C476 449 465 423 448 406C426 385 389 373 341 373H275L316 541ZM254 219C302 219 323 202 340 156L392 0H614L552 159C530 215 512 245 465 270C593 303 678 389 678 512C678 634 593 700 418 700H159L-10 0H185L238 219ZM507 737 537 859H389L359 737Z" glyph-name="uni1E58" horiz-adv-x="670" unicode="&#7768;" /><glyph d="M-17 0H169L242 303C292 333 347 350 410 350L456 542C383 542 325 512 266 446L255 532H112ZM368 578 399 705H258L227 578Z" glyph-name="uni1E59" horiz-adv-x="411" unicode="&#7769;" /><glyph d="M393 541C446 541 476 518 476 478C476 449 465 423 448 406C426 385 389 373 341 373H275L316 541ZM254 219C302 219 323 202 340 156L392 0H614L552 159C530 215 512 245 465 270C593 303 678 389 678 512C678 634 593 700 418 700H159L-10 0H185L238 219ZM314 -160 345 -33H204L173 -160Z" glyph-name="uni1E5A" horiz-adv-x="670" unicode="&#7770;" /><glyph d="M-17 0H169L242 303C292 333 347 350 410 350L456 542C383 542 325 512 266 446L255 532H112ZM108 -163 139 -36H-2L-33 -163Z" glyph-name="uni1E5B" horiz-adv-x="411" unicode="&#7771;" /><glyph d="M393 541C446 541 476 518 476 478C476 449 465 423 448 406C426 385 389 373 341 373H275L316 541ZM254 219C302 219 323 202 340 156L392 0H614L552 159C530 215 512 245 465 270C593 303 678 389 678 512C678 634 593 700 418 700H159L-10 0H185L238 219ZM599 741 621 831H291L269 741ZM314 -160 345 -33H204L173 -160Z" glyph-name="uni1E5C" horiz-adv-x="670" unicode="&#7772;" /><glyph d="M-17 0H169L242 303C292 333 347 350 410 350L456 542C383 542 325 512 266 446L255 532H112ZM431 582 452 667H186L165 582ZM108 -163 139 -36H-2L-33 -163Z" glyph-name="uni1E5D" horiz-adv-x="411" unicode="&#7773;" /><glyph d="M393 541C446 541 476 518 476 478C476 449 465 423 448 406C426 385 389 373 341 373H275L316 541ZM254 219C302 219 323 202 340 156L392 0H614L552 159C530 215 512 245 465 270C593 303 678 389 678 512C678 634 593 700 418 700H159L-10 0H185L238 219ZM400 -126 421 -41H125L104 -126Z" glyph-name="uni1E5E" horiz-adv-x="670" unicode="&#7774;" /><glyph d="M-17 0H169L242 303C292 333 347 350 410 350L456 542C383 542 325 512 266 446L255 532H112ZM180 -126 201 -41H-65L-86 -126Z" glyph-name="uni1E5F" horiz-adv-x="411" unicode="&#7775;" /><glyph d="M376 203C376 174 348 153 299 153C214 153 126 178 53 216L-13 54C64 16 160 -11 279 -11C468 -11 574 88 574 227C574 327 515 382 379 432C305 461 287 475 287 499C287 527 309 547 359 547C426 547 502 519 564 490L635 648C562 685 482 709 369 709C198 709 91 607 91 478C91 373 154 323 286 275C356 247 376 230 376 203ZM284 -170 315 -43H174L143 -170Z" glyph-name="uni1E62" horiz-adv-x="613" unicode="&#7778;" /><glyph d="M279 157C279 140 264 130 227 130C178 130 106 150 36 184L-18 44C56 10 132 -11 228 -11C367 -11 450 69 450 171C450 249 407 294 289 335C237 354 225 363 225 377C225 392 240 402 275 402C320 402 375 386 442 355L496 492C429 523 358 542 282 542C139 542 54 464 54 358C54 280 103 238 211 201C268 180 279 172 279 157ZM222 -166 253 -39H112L81 -166Z" glyph-name="uni1E63" horiz-adv-x="491" unicode="&#7779;" /><glyph d="M681 525 724 700H126L82 525H284L157 0H356L483 525ZM288 -163 319 -36H178L147 -163Z" glyph-name="uni1E6C" horiz-adv-x="642" unicode="&#7788;" /><glyph d="M331 4 364 152C340 146 324 143 299 143C266 143 247 157 247 186C247 196 248 205 250 214L293 388H421L455 532H329L363 668H181L147 532H78L43 388H112L66 203C60 179 58 156 58 135C58 41 118 -8 233 -8C267 -8 301 -4 331 4ZM210 -166 241 -39H100L69 -166Z" glyph-name="uni1E6D" horiz-adv-x="421" unicode="&#7789;" /><glyph d="M681 525 724 700H126L82 525H284L157 0H356L483 525ZM375 -126 396 -41H100L79 -126Z" glyph-name="uni1E6E" horiz-adv-x="642" unicode="&#7790;" /><glyph d="M331 4 364 152C340 146 324 143 299 143C266 143 247 157 247 186C247 196 248 205 250 214L293 388H421L455 532H329L363 668H181L147 532H78L43 388H112L66 203C60 179 58 156 58 135C58 41 118 -8 233 -8C267 -8 301 -4 331 4ZM282 -129 303 -44H37L16 -129Z" glyph-name="uni1E6F" horiz-adv-x="421" unicode="&#7791;" /><glyph d="M681 525 724 700H126L82 525H284L157 0H356L483 525ZM235 -114 283 -158H385L314 -37H183L54 -158H167Z" glyph-name="uni1E70" horiz-adv-x="642" unicode="&#7792;" /><glyph d="M331 4 364 152C340 146 324 143 299 143C266 143 247 157 247 186C247 196 248 205 250 214L293 388H421L455 532H329L363 668H181L147 532H78L43 388H112L66 203C60 179 58 156 58 135C58 41 118 -8 233 -8C267 -8 301 -4 331 4ZM157 -117 205 -161H307L236 -40H105L-24 -161H89Z" glyph-name="uni1E71" horiz-adv-x="421" unicode="&#7793;" /><glyph d="M382 -3 786 700H565L330 247L307 700H99L164 -3ZM306 -168 337 -41H196L165 -168Z" glyph-name="uni1E7E" horiz-adv-x="687" unicode="&#7806;" /><glyph d="M310 -3 609 532H412L251 197L246 532H63L105 -3ZM238 -166 269 -39H128L97 -166Z" glyph-name="uni1E7F" horiz-adv-x="548" unicode="&#7807;" /><glyph d="M174 0 331 213 401 0H615L483 352L774 700H540L393 505L331 700H117L242 369L-61 0ZM418 737 448 859H307L277 737ZM611 737 641 859H500L471 737Z" glyph-name="uni1E8C" horiz-adv-x="683" unicode="&#7820;" /><glyph d="M303 0H496L391 265L618 532H408L311 397L267 532H74L177 277L-60 0H153L258 144ZM330 578 361 705H227L196 578ZM515 578 546 705H412L381 578Z" glyph-name="uni1E8D" horiz-adv-x="565" unicode="&#7821;" /><glyph d="M357 0 415 243 762 700H536L358 436L300 700H92L219 253L158 0ZM500 734 530 856H382L352 734Z" glyph-name="uni1E8E" horiz-adv-x="654" unicode="&#7822;" /><glyph d="M-26 -180C195 -149 270 -82 360 75L606 532H409L254 196L250 532H66L109 19C63 -2 15 -15 -33 -22ZM411 575 442 702H301L270 575Z" glyph-name="uni1E8F" horiz-adv-x="544" unicode="&#7823;" /><glyph d="M526 0 567 165H256L644 531L685 700H146L106 535H399L7 165L-32 0ZM428 775 475 737H589L519 846H359L237 737H363Z" glyph-name="uni1E90" horiz-adv-x="618" unicode="&#7824;" /><glyph d="M426 0 461 143H224L511 385L546 532H105L70 389H290L1 146L-33 0ZM346 622 394 578H496L425 699H294L165 578H278Z" glyph-name="uni1E91" horiz-adv-x="519" unicode="&#7825;" /><glyph d="M526 0 567 165H256L644 531L685 700H146L106 535H399L7 165L-32 0ZM290 -163 321 -36H180L149 -163Z" glyph-name="uni1E92" horiz-adv-x="618" unicode="&#7826;" /><glyph d="M426 0 461 143H224L511 385L546 532H105L70 389H290L1 146L-33 0ZM239 -163 270 -36H129L98 -163Z" glyph-name="uni1E93" horiz-adv-x="519" unicode="&#7827;" /><glyph d="M526 0 567 165H256L644 531L685 700H146L106 535H399L7 165L-32 0ZM377 -126 398 -41H102L81 -126Z" glyph-name="uni1E94" horiz-adv-x="618" unicode="&#7828;" /><glyph d="M426 0 461 143H224L511 385L546 532H105L70 389H290L1 146L-33 0ZM326 -126 347 -41H51L30 -126Z" glyph-name="uni1E95" horiz-adv-x="519" unicode="&#7829;" /><glyph d="M332 378C358 378 369 364 369 342C369 334 368 326 366 314L290 0H476L555 330C562 359 566 387 566 412C566 490 519 541 433 541C383 541 341 525 288 493L344 724H158L-17 0H169L255 355C286 371 309 378 332 378ZM350 -126 371 -41H75L54 -126Z" glyph-name="uni1E96" horiz-adv-x="585" unicode="&#7830;" /><glyph d="M388 -12C554 -13 659 87 659 203C659 273 619 329 541 367L740 562L745 580C681 663 577 711 449 711C260 711 130 610 85 427L-17 0H179L275 405C298 495 353 545 428 545C454 545 478 539 499 529L336 372L315 286C431 253 464 225 464 200C464 173 442 151 386 151C349 151 312 159 277 168L237 11C283 -3 342 -11 388 -12Z" glyph-name="uni1E9E" horiz-adv-x="704" unicode="&#7838;" /><glyph d="M434 273H298L422 506ZM447 0H644L580 703H343L-59 0H153L212 111H442ZM336 -160 367 -33H226L195 -160Z" glyph-name="uni1EA0" horiz-adv-x="714" unicode="&#7840;" /><glyph d="M219 112C188 112 168 126 168 152C168 197 205 228 275 228C292 228 305 227 316 226L291 129C266 118 242 112 219 112ZM297 0H455L470 110L522 316C527 339 531 362 531 381C531 487 452 542 320 542C237 542 165 527 107 508L123 373C173 389 216 399 266 399C316 399 344 382 344 350C344 341 343 330 340 319V318C306 323 278 326 240 326C82 326 -2 251 -2 131C-2 41 56 -8 136 -8C195 -8 238 11 286 49ZM251 -166 282 -39H141L110 -166Z" glyph-name="uni1EA1" horiz-adv-x="554" unicode="&#7841;" /><glyph d="M434 273H298L422 506ZM447 0H644L580 703H343L-59 0H153L212 111H442ZM354 908 353 828C395 837 444 843 481 843C515 843 525 839 525 832C525 822 504 814 431 798L435 734C585 759 638 799 638 850C638 894 590 924 492 924C444 924 398 919 354 908Z" glyph-name="uni1EA2" horiz-adv-x="714" unicode="&#7842;" /><glyph d="M219 112C188 112 168 126 168 152C168 197 205 228 275 228C292 228 305 227 316 226L291 129C266 118 242 112 219 112ZM297 0H455L470 110L522 316C527 339 531 362 531 381C531 487 452 542 320 542C237 542 165 527 107 508L123 373C173 389 216 399 266 399C316 399 344 382 344 350C344 341 343 330 340 319V318C306 323 278 326 240 326C82 326 -2 251 -2 131C-2 41 56 -8 136 -8C195 -8 238 11 286 49ZM243 752V670C281 680 326 688 359 688C388 688 396 683 396 676C396 666 381 656 311 638L317 573C458 602 505 643 505 696C505 742 460 772 370 772C326 772 284 765 243 752Z" glyph-name="uni1EA3" horiz-adv-x="554" unicode="&#7843;" /><glyph d="M434 273H298L422 506ZM447 0H644L580 703H343L-59 0H153L212 111H442ZM742 830 916 924H707L613 830ZM483 777 532 742H647L574 847H414L291 742H417Z" glyph-name="uni1EA4" horiz-adv-x="714" unicode="&#7844;" /><glyph d="M219 112C188 112 168 126 168 152C168 197 205 228 275 228C292 228 305 227 316 226L291 129C266 118 242 112 219 112ZM297 0H455L470 110L522 316C527 339 531 362 531 381C531 487 452 542 320 542C237 542 165 527 107 508L123 373C173 389 216 399 266 399C316 399 344 382 344 350C344 341 343 330 340 319V318C306 323 278 326 240 326C82 326 -2 251 -2 131C-2 41 56 -8 136 -8C195 -8 238 11 286 49ZM582 672 758 774H564L478 672ZM359 618 410 581H512L437 694H306L177 581H290Z" glyph-name="uni1EA5" horiz-adv-x="554" unicode="&#7845;" /><glyph d="M434 273H298L422 506ZM447 0H644L580 703H343L-59 0H153L212 111H442ZM773 830 723 924H528L655 830ZM483 777 532 742H647L574 847H414L291 742H417Z" glyph-name="uni1EA6" horiz-adv-x="714" unicode="&#7846;" /><glyph d="M219 112C188 112 168 126 168 152C168 197 205 228 275 228C292 228 305 227 316 226L291 129C266 118 242 112 219 112ZM297 0H455L470 110L522 316C527 339 531 362 531 381C531 487 452 542 320 542C237 542 165 527 107 508L123 373C173 389 216 399 266 399C316 399 344 382 344 350C344 341 343 330 340 319V318C306 323 278 326 240 326C82 326 -2 251 -2 131C-2 41 56 -8 136 -8C195 -8 238 11 286 49ZM519 672H611L573 774H394ZM359 618 410 581H512L437 694H306L177 581H290Z" glyph-name="uni1EA7" horiz-adv-x="554" unicode="&#7847;" /><glyph d="M434 273H298L422 506ZM447 0H644L580 703H343L-59 0H153L212 111H442ZM576 965 574 892C608 899 647 904 678 904C705 904 713 900 713 894C713 886 698 879 638 864L640 805C758 825 802 861 805 908C808 953 770 980 688 980C648 980 611 975 576 965ZM483 777 532 742H647L574 847H414L291 742H417Z" glyph-name="uni1EA8" horiz-adv-x="714" unicode="&#7848;" /><glyph d="M219 112C188 112 168 126 168 152C168 197 205 228 275 228C292 228 305 227 316 226L291 129C266 118 242 112 219 112ZM297 0H455L470 110L522 316C527 339 531 362 531 381C531 487 452 542 320 542C237 542 165 527 107 508L123 373C173 389 216 399 266 399C316 399 344 382 344 350C344 341 343 330 340 319V318C306 323 278 326 240 326C82 326 -2 251 -2 131C-2 41 56 -8 136 -8C195 -8 238 11 286 49ZM459 810V737C486 745 518 750 543 750C565 750 572 746 572 739C572 728 556 718 503 704L509 647C620 670 664 710 664 757C664 800 625 826 557 826C523 826 489 820 459 810ZM359 618 410 581H512L437 694H306L177 581H290Z" glyph-name="uni1EA9" horiz-adv-x="554" unicode="&#7849;" /><glyph d="M434 273H298L422 506ZM447 0H644L580 703H343L-59 0H153L212 111H442ZM402 867C424 899 438 911 456 911C471 911 485 905 516 890C550 874 564 869 585 869C624 869 655 893 703 972L638 1009C615 977 601 964 584 964C568 964 555 970 523 985C490 1002 475 1006 454 1006C415 1006 385 983 337 903ZM483 775 533 742H648L574 845H414L290 742H415Z" glyph-name="uni1EAA" horiz-adv-x="714" unicode="&#7850;" /><glyph d="M219 112C188 112 168 126 168 152C168 197 205 228 275 228C292 228 305 227 316 226L291 129C266 118 242 112 219 112ZM297 0H455L470 110L522 316C527 339 531 362 531 381C531 487 452 542 320 542C237 542 165 527 107 508L123 373C173 389 216 399 266 399C316 399 344 382 344 350C344 341 343 330 340 319V318C306 323 278 326 240 326C82 326 -2 251 -2 131C-2 41 56 -8 136 -8C195 -8 238 11 286 49ZM285 713C308 745 321 757 338 757C351 757 364 752 391 737C422 721 437 715 459 715C493 715 524 739 572 817L509 851C486 819 474 807 457 807C444 807 431 812 403 827C372 843 357 850 335 850C301 850 270 825 223 747ZM359 618 410 581H512L437 693H306L176 581H290Z" glyph-name="uni1EAB" horiz-adv-x="554" unicode="&#7851;" /><glyph d="M434 273H298L422 506ZM447 0H644L580 703H343L-59 0H153L212 111H442ZM484 780 531 742H645L575 851H415L293 742H419ZM336 -160 367 -33H226L195 -160Z" glyph-name="uni1EAC" horiz-adv-x="714" unicode="&#7852;" /><glyph d="M219 112C188 112 168 126 168 152C168 197 205 228 275 228C292 228 305 227 316 226L291 129C266 118 242 112 219 112ZM297 0H455L470 110L522 316C527 339 531 362 531 381C531 487 452 542 320 542C237 542 165 527 107 508L123 373C173 389 216 399 266 399C316 399 344 382 344 350C344 341 343 330 340 319V318C306 323 278 326 240 326C82 326 -2 251 -2 131C-2 41 56 -8 136 -8C195 -8 238 11 286 49ZM360 625 408 581H510L439 702H308L179 581H292ZM251 -166 282 -39H141L110 -166Z" glyph-name="uni1EAD" horiz-adv-x="554" unicode="&#7853;" /><glyph d="M434 273H298L422 506ZM447 0H644L580 703H343L-59 0H153L212 111H442ZM564 885 737 979H510L416 885ZM487 828C450 828 427 842 423 863H331C323 788 380 737 477 737C570 737 643 784 664 863H569C554 841 526 828 487 828Z" glyph-name="uni1EAE" horiz-adv-x="714" unicode="&#7854;" /><glyph d="M219 112C188 112 168 126 168 152C168 197 205 228 275 228C292 228 305 227 316 226L291 129C266 118 242 112 219 112ZM297 0H455L470 110L522 316C527 339 531 362 531 381C531 487 452 542 320 542C237 542 165 527 107 508L123 373C173 389 216 399 266 399C316 399 344 382 344 350C344 341 343 330 340 319V318C306 323 278 326 240 326C82 326 -2 251 -2 131C-2 41 56 -8 136 -8C195 -8 238 11 286 49ZM423 722 599 824H388L301 722ZM364 668C326 668 305 681 301 700H217C208 627 260 576 353 576C440 576 509 625 528 700H440C425 680 400 668 364 668Z" glyph-name="uni1EAF" horiz-adv-x="554" unicode="&#7855;" /><glyph d="M434 273H298L422 506ZM447 0H644L580 703H343L-59 0H153L212 111H442ZM583 885 532 979H320L448 885ZM487 828C450 828 427 842 423 863H331C323 788 380 737 477 737C570 737 643 784 664 863H569C554 841 526 828 487 828Z" glyph-name="uni1EB0" horiz-adv-x="714" unicode="&#7856;" /><glyph d="M219 112C188 112 168 126 168 152C168 197 205 228 275 228C292 228 305 227 316 226L291 129C266 118 242 112 219 112ZM297 0H455L470 110L522 316C527 339 531 362 531 381C531 487 452 542 320 542C237 542 165 527 107 508L123 373C173 389 216 399 266 399C316 399 344 382 344 350C344 341 343 330 340 319V318C306 323 278 326 240 326C82 326 -2 251 -2 131C-2 41 56 -8 136 -8C195 -8 238 11 286 49ZM341 722H449L411 824H215ZM364 668C326 668 305 681 301 700H217C208 627 260 576 353 576C440 576 509 625 528 700H440C425 680 400 668 364 668Z" glyph-name="uni1EB1" horiz-adv-x="554" unicode="&#7857;" /><glyph d="M434 273H298L422 506ZM447 0H644L580 703H343L-59 0H153L212 111H442ZM390 1028V952C432 961 478 966 514 966C548 966 558 962 557 955C557 946 537 940 465 925L469 865C610 887 666 923 668 971C671 1014 626 1043 524 1043C478 1043 433 1038 390 1028ZM487 828C450 828 427 842 423 863H331C323 788 380 737 477 737C570 737 643 784 664 863H569C554 841 526 828 487 828Z" glyph-name="uni1EB2" horiz-adv-x="714" unicode="&#7858;" /><glyph d="M219 112C188 112 168 126 168 152C168 197 205 228 275 228C292 228 305 227 316 226L291 129C266 118 242 112 219 112ZM297 0H455L470 110L522 316C527 339 531 362 531 381C531 487 452 542 320 542C237 542 165 527 107 508L123 373C173 389 216 399 266 399C316 399 344 382 344 350C344 341 343 330 340 319V318C306 323 278 326 240 326C82 326 -2 251 -2 131C-2 41 56 -8 136 -8C195 -8 238 11 286 49ZM285 862V788C317 797 354 803 382 803C410 803 418 799 418 791C417 782 401 773 345 757L349 700C470 725 519 761 522 808C525 851 483 880 400 880C362 880 322 874 285 862ZM364 668C326 668 305 681 301 700H217C208 627 260 576 353 576C440 576 509 625 528 700H440C425 680 400 668 364 668Z" glyph-name="uni1EB3" horiz-adv-x="554" unicode="&#7859;" /><glyph d="M434 273H298L422 506ZM447 0H644L580 703H343L-59 0H153L212 111H442ZM405 883C427 915 441 928 459 928C474 928 488 922 519 907C553 890 567 886 588 886C627 886 657 909 705 989L641 1025C618 993 604 981 586 981C571 981 557 987 526 1002C493 1018 478 1023 457 1023C418 1023 388 999 340 920ZM487 828C450 828 427 842 423 863H331C323 788 380 737 477 737C570 737 643 784 664 863H569C554 841 526 828 487 828Z" glyph-name="uni1EB4" horiz-adv-x="714" unicode="&#7860;" /><glyph d="M219 112C188 112 168 126 168 152C168 197 205 228 275 228C292 228 305 227 316 226L291 129C266 118 242 112 219 112ZM297 0H455L470 110L522 316C527 339 531 362 531 381C531 487 452 542 320 542C237 542 165 527 107 508L123 373C173 389 216 399 266 399C316 399 344 382 344 350C344 341 343 330 340 319V318C306 323 278 326 240 326C82 326 -2 251 -2 131C-2 41 56 -8 136 -8C195 -8 238 11 286 49ZM285 722C308 754 321 766 337 766C350 766 364 761 391 746C422 730 437 723 459 723C493 723 524 747 572 826L509 860C486 827 473 816 457 816C443 816 430 821 403 836C372 852 357 858 335 858C301 858 270 834 223 756ZM364 668C326 668 305 681 301 700H217C208 627 260 576 353 576C440 576 509 625 528 700H440C425 680 400 668 364 668Z" glyph-name="uni1EB5" horiz-adv-x="554" unicode="&#7861;" /><glyph d="M434 273H298L422 506ZM447 0H644L580 703H343L-59 0H153L212 111H442ZM488 830C451 830 429 845 426 869H333C324 790 380 737 477 737C570 737 644 786 665 869H570C553 845 527 830 488 830ZM336 -160 367 -33H226L195 -160Z" glyph-name="uni1EB6" horiz-adv-x="714" unicode="&#7862;" /><glyph d="M219 112C188 112 168 126 168 152C168 197 205 228 275 228C292 228 305 227 316 226L291 129C266 118 242 112 219 112ZM297 0H455L470 110L522 316C527 339 531 362 531 381C531 487 452 542 320 542C237 542 165 527 107 508L123 373C173 389 216 399 266 399C316 399 344 382 344 350C344 341 343 330 340 319V318C306 323 278 326 240 326C82 326 -2 251 -2 131C-2 41 56 -8 136 -8C195 -8 238 11 286 49ZM365 671C327 671 307 687 304 712H220C210 631 263 576 355 576C441 576 510 629 530 712H442C427 687 402 671 365 671ZM251 -166 282 -39H141L110 -166Z" glyph-name="uni1EB7" horiz-adv-x="554" unicode="&#7863;" /><glyph d="M-10 0H521L561 164H225L252 277H543L582 439H291L315 536H642L682 700H159ZM307 -163 338 -36H197L166 -163Z" glyph-name="uni1EB8" horiz-adv-x="623" unicode="&#7864;" /><glyph d="M309 408C352 408 373 385 373 352C373 338 371 326 367 312H204C222 378 265 408 309 408ZM437 20 431 145C385 131 342 123 294 123C226 123 184 149 181 205H502C517 249 527 300 527 349C527 465 455 544 330 544C250 544 177 516 123 463C67 407 21 316 21 207C21 63 110 -10 258 -10C331 -10 382 1 437 20ZM243 -166 274 -39H133L102 -166Z" glyph-name="uni1EB9" horiz-adv-x="541" unicode="&#7865;" /><glyph d="M-10 0H521L561 164H225L252 277H543L582 439H291L315 536H642L682 700H159ZM320 903 319 823C361 832 410 838 447 838C481 838 491 834 491 827C491 817 470 809 397 793L401 729C551 754 604 794 604 845C604 889 556 919 458 919C410 919 364 914 320 903Z" glyph-name="uni1EBA" horiz-adv-x="623" unicode="&#7866;" /><glyph d="M309 408C352 408 373 385 373 352C373 338 371 326 367 312H204C222 378 265 408 309 408ZM437 20 431 145C385 131 342 123 294 123C226 123 184 149 181 205H502C517 249 527 300 527 349C527 465 455 544 330 544C250 544 177 516 123 463C67 407 21 316 21 207C21 63 110 -10 258 -10C331 -10 382 1 437 20ZM246 752V670C284 680 329 688 362 688C391 688 399 683 399 676C399 666 384 656 314 638L320 573C461 602 508 643 508 696C508 742 463 772 373 772C329 772 287 765 246 752Z" glyph-name="uni1EBB" horiz-adv-x="541" unicode="&#7867;" /><glyph d="M-10 0H521L561 164H225L252 277H543L582 439H291L315 536H642L682 700H159ZM385 775C401 775 416 770 451 754C487 737 504 731 527 731C570 731 604 754 656 838L588 877C562 842 546 830 525 830C509 830 495 835 459 852C423 869 406 875 383 875C341 875 306 851 254 767L322 729C349 763 364 775 385 775Z" glyph-name="uni1EBC" horiz-adv-x="623" unicode="&#7868;" /><glyph d="M309 408C352 408 373 385 373 352C373 338 371 326 367 312H204C222 378 265 408 309 408ZM437 20 431 145C385 131 342 123 294 123C226 123 184 149 181 205H502C517 249 527 300 527 349C527 465 455 544 330 544C250 544 177 516 123 463C67 407 21 316 21 207C21 63 110 -10 258 -10C331 -10 382 1 437 20ZM302 621C318 621 331 615 364 598C398 581 415 575 437 575C477 575 508 599 559 688L492 725C467 689 454 676 433 676C418 676 404 682 371 699C337 716 321 722 299 722C259 722 228 698 177 609L244 573C269 608 282 621 302 621Z" glyph-name="uni1EBD" horiz-adv-x="541" unicode="&#7869;" /><glyph d="M-10 0H521L561 164H225L252 277H543L582 439H291L315 536H642L682 700H159ZM708 825 882 919H673L579 825ZM449 772 498 737H613L540 842H380L257 737H383Z" glyph-name="uni1EBE" horiz-adv-x="623" unicode="&#7870;" /><glyph d="M309 408C352 408 373 385 373 352C373 338 371 326 367 312H204C222 378 265 408 309 408ZM437 20 431 145C385 131 342 123 294 123C226 123 184 149 181 205H502C517 249 527 300 527 349C527 465 455 544 330 544C250 544 177 516 123 463C67 407 21 316 21 207C21 63 110 -10 258 -10C331 -10 382 1 437 20ZM585 672 761 774H567L481 672ZM362 618 413 581H515L440 694H309L180 581H293Z" glyph-name="uni1EBF" horiz-adv-x="541" unicode="&#7871;" /><glyph d="M-10 0H521L561 164H225L252 277H543L582 439H291L315 536H642L682 700H159ZM739 825 689 919H494L621 825ZM449 772 498 737H613L540 842H380L257 737H383Z" glyph-name="uni1EC0" horiz-adv-x="623" unicode="&#7872;" /><glyph d="M309 408C352 408 373 385 373 352C373 338 371 326 367 312H204C222 378 265 408 309 408ZM437 20 431 145C385 131 342 123 294 123C226 123 184 149 181 205H502C517 249 527 300 527 349C527 465 455 544 330 544C250 544 177 516 123 463C67 407 21 316 21 207C21 63 110 -10 258 -10C331 -10 382 1 437 20ZM522 672H614L576 774H397ZM362 618 413 581H515L440 694H309L180 581H293Z" glyph-name="uni1EC1" horiz-adv-x="541" unicode="&#7873;" /><glyph d="M-10 0H521L561 164H225L252 277H543L582 439H291L315 536H642L682 700H159ZM542 960 540 887C574 894 613 899 644 899C671 899 679 895 679 889C679 881 664 874 604 859L606 800C724 820 768 856 771 903C774 948 736 975 654 975C614 975 577 970 542 960ZM449 772 498 737H613L540 842H380L257 737H383Z" glyph-name="uni1EC2" horiz-adv-x="623" unicode="&#7874;" /><glyph d="M309 408C352 408 373 385 373 352C373 338 371 326 367 312H204C222 378 265 408 309 408ZM437 20 431 145C385 131 342 123 294 123C226 123 184 149 181 205H502C517 249 527 300 527 349C527 465 455 544 330 544C250 544 177 516 123 463C67 407 21 316 21 207C21 63 110 -10 258 -10C331 -10 382 1 437 20ZM462 810V737C489 745 521 750 546 750C568 750 575 746 575 739C575 728 559 718 506 704L512 647C623 670 667 710 667 757C667 800 628 826 560 826C526 826 492 820 462 810ZM362 618 413 581H515L440 694H309L180 581H293Z" glyph-name="uni1EC3" horiz-adv-x="541" unicode="&#7875;" /><glyph d="M-10 0H521L561 164H225L252 277H543L582 439H291L315 536H642L682 700H159ZM368 862C390 894 404 906 422 906C437 906 451 900 482 885C516 869 530 864 551 864C590 864 621 888 669 967L604 1004C581 972 567 959 550 959C534 959 521 965 489 980C456 997 441 1001 420 1001C381 1001 351 978 303 898ZM449 770 499 737H614L540 840H380L256 737H381Z" glyph-name="uni1EC4" horiz-adv-x="623" unicode="&#7876;" /><glyph d="M309 408C352 408 373 385 373 352C373 338 371 326 367 312H204C222 378 265 408 309 408ZM437 20 431 145C385 131 342 123 294 123C226 123 184 149 181 205H502C517 249 527 300 527 349C527 465 455 544 330 544C250 544 177 516 123 463C67 407 21 316 21 207C21 63 110 -10 258 -10C331 -10 382 1 437 20ZM288 713C311 745 324 757 341 757C354 757 367 752 394 737C425 721 440 715 462 715C496 715 527 739 575 817L512 851C489 819 477 807 460 807C447 807 434 812 406 827C375 843 360 850 338 850C304 850 273 825 226 747ZM362 618 413 581H515L440 693H309L179 581H293Z" glyph-name="uni1EC5" horiz-adv-x="541" unicode="&#7877;" /><glyph d="M-10 0H521L561 164H225L252 277H543L582 439H291L315 536H642L682 700H159ZM450 775 497 737H611L541 846H381L259 737H385ZM307 -163 338 -36H197L166 -163Z" glyph-name="uni1EC6" horiz-adv-x="623" unicode="&#7878;" /><glyph d="M309 408C352 408 373 385 373 352C373 338 371 326 367 312H204C222 378 265 408 309 408ZM437 20 431 145C385 131 342 123 294 123C226 123 184 149 181 205H502C517 249 527 300 527 349C527 465 455 544 330 544C250 544 177 516 123 463C67 407 21 316 21 207C21 63 110 -10 258 -10C331 -10 382 1 437 20ZM363 625 411 581H513L442 702H311L182 581H295ZM243 -166 274 -39H133L102 -166Z" glyph-name="uni1EC7" horiz-adv-x="541" unicode="&#7879;" /><glyph d="M192 0 361 700H162L-7 0ZM154 903 153 823C195 832 244 838 281 838C315 838 325 834 325 827C325 817 304 809 231 793L235 729C385 754 438 794 438 845C438 889 390 919 292 919C244 919 198 914 154 903Z" glyph-name="uni1EC8" horiz-adv-x="314" unicode="&#7880;" /><glyph d="M170 0 299 532H113L-16 0ZM114 749V667C152 677 197 685 230 685C259 685 267 680 267 673C267 663 252 653 182 635L188 570C329 599 376 640 376 693C376 739 331 769 241 769C197 769 155 762 114 749Z" glyph-name="uni1EC9" horiz-adv-x="283" unicode="&#7881;" /><glyph d="M192 0 361 700H162L-7 0ZM124 -163 155 -36H14L-17 -163Z" glyph-name="uni1ECA" horiz-adv-x="314" unicode="&#7882;" /><glyph d="M317 591 348 718H155L124 591ZM170 0 299 532H113L-16 0ZM108 -163 139 -36H-2L-33 -163Z" glyph-name="uni1ECB" horiz-adv-x="283" unicode="&#7883;" /><glyph d="M337 -12C438 -12 523 25 588 90C660 162 711 292 711 425C711 607 598 712 419 712C318 712 232 675 168 610C96 538 44 408 44 275C44 93 158 -12 337 -12ZM411 545C473 545 511 503 511 433C511 349 478 234 438 195C412 168 379 155 345 155C282 155 244 197 244 267C244 351 278 466 317 505C344 532 376 545 411 545ZM335 -170 366 -43H225L194 -170Z" glyph-name="uni1ECC" horiz-adv-x="716" unicode="&#7884;" /><glyph d="M247 -12C326 -12 394 17 445 67C505 127 542 220 542 321C542 457 450 544 315 544C236 544 168 515 117 465C57 405 21 311 21 210C21 75 112 -12 247 -12ZM260 141C222 141 196 166 196 218C196 273 217 339 244 366C260 381 278 391 302 391C340 391 367 365 367 313C367 259 345 193 318 166C303 151 284 141 260 141ZM257 -166 288 -39H147L116 -166Z" glyph-name="uni1ECD" horiz-adv-x="562" unicode="&#7885;" /><glyph d="M337 -12C438 -12 523 25 588 90C660 162 711 292 711 425C711 607 598 712 419 712C318 712 232 675 168 610C96 538 44 408 44 275C44 93 158 -12 337 -12ZM411 545C473 545 511 503 511 433C511 349 478 234 438 195C412 168 379 155 345 155C282 155 244 197 244 267C244 351 278 466 317 505C344 532 376 545 411 545ZM343 910 342 830C384 839 433 845 470 845C504 845 514 841 514 834C514 824 493 816 420 800L424 736C574 761 627 801 627 852C627 896 579 926 481 926C433 926 387 921 343 910Z" glyph-name="uni1ECE" horiz-adv-x="716" unicode="&#7886;" /><glyph d="M247 -12C326 -12 394 17 445 67C505 127 542 220 542 321C542 457 450 544 315 544C236 544 168 515 117 465C57 405 21 311 21 210C21 75 112 -12 247 -12ZM260 141C222 141 196 166 196 218C196 273 217 339 244 366C260 381 278 391 302 391C340 391 367 365 367 313C367 259 345 193 318 166C303 151 284 141 260 141ZM244 752V670C282 680 327 688 360 688C389 688 397 683 397 676C397 666 382 656 312 638L318 573C459 602 506 643 506 696C506 742 461 772 371 772C327 772 285 765 244 752Z" glyph-name="uni1ECF" horiz-adv-x="562" unicode="&#7887;" /><glyph d="M337 -12C438 -12 523 25 588 90C660 162 711 292 711 425C711 607 598 712 419 712C318 712 232 675 168 610C96 538 44 408 44 275C44 93 158 -12 337 -12ZM411 545C473 545 511 503 511 433C511 349 478 234 438 195C412 168 379 155 345 155C282 155 244 197 244 267C244 351 278 466 317 505C344 532 376 545 411 545ZM731 832 905 926H696L602 832ZM472 779 521 744H636L563 849H403L280 744H406Z" glyph-name="uni1ED0" horiz-adv-x="716" unicode="&#7888;" /><glyph d="M247 -12C326 -12 394 17 445 67C505 127 542 220 542 321C542 457 450 544 315 544C236 544 168 515 117 465C57 405 21 311 21 210C21 75 112 -12 247 -12ZM260 141C222 141 196 166 196 218C196 273 217 339 244 366C260 381 278 391 302 391C340 391 367 365 367 313C367 259 345 193 318 166C303 151 284 141 260 141ZM583 672 759 774H565L479 672ZM360 618 411 581H513L438 694H307L178 581H291Z" glyph-name="uni1ED1" horiz-adv-x="562" unicode="&#7889;" /><glyph d="M337 -12C438 -12 523 25 588 90C660 162 711 292 711 425C711 607 598 712 419 712C318 712 232 675 168 610C96 538 44 408 44 275C44 93 158 -12 337 -12ZM411 545C473 545 511 503 511 433C511 349 478 234 438 195C412 168 379 155 345 155C282 155 244 197 244 267C244 351 278 466 317 505C344 532 376 545 411 545ZM762 832 712 926H517L644 832ZM472 779 521 744H636L563 849H403L280 744H406Z" glyph-name="uni1ED2" horiz-adv-x="716" unicode="&#7890;" /><glyph d="M247 -12C326 -12 394 17 445 67C505 127 542 220 542 321C542 457 450 544 315 544C236 544 168 515 117 465C57 405 21 311 21 210C21 75 112 -12 247 -12ZM260 141C222 141 196 166 196 218C196 273 217 339 244 366C260 381 278 391 302 391C340 391 367 365 367 313C367 259 345 193 318 166C303 151 284 141 260 141ZM520 672H612L574 774H395ZM360 618 411 581H513L438 694H307L178 581H291Z" glyph-name="uni1ED3" horiz-adv-x="562" unicode="&#7891;" /><glyph d="M337 -12C438 -12 523 25 588 90C660 162 711 292 711 425C711 607 598 712 419 712C318 712 232 675 168 610C96 538 44 408 44 275C44 93 158 -12 337 -12ZM411 545C473 545 511 503 511 433C511 349 478 234 438 195C412 168 379 155 345 155C282 155 244 197 244 267C244 351 278 466 317 505C344 532 376 545 411 545ZM565 967 563 894C597 901 636 906 667 906C694 906 702 902 702 896C702 888 687 881 627 866L629 807C747 827 791 863 794 910C797 955 759 982 677 982C637 982 600 977 565 967ZM472 779 521 744H636L563 849H403L280 744H406Z" glyph-name="uni1ED4" horiz-adv-x="716" unicode="&#7892;" /><glyph d="M247 -12C326 -12 394 17 445 67C505 127 542 220 542 321C542 457 450 544 315 544C236 544 168 515 117 465C57 405 21 311 21 210C21 75 112 -12 247 -12ZM260 141C222 141 196 166 196 218C196 273 217 339 244 366C260 381 278 391 302 391C340 391 367 365 367 313C367 259 345 193 318 166C303 151 284 141 260 141ZM460 810V737C487 745 519 750 544 750C566 750 573 746 573 739C573 728 557 718 504 704L510 647C621 670 665 710 665 757C665 800 626 826 558 826C524 826 490 820 460 810ZM360 618 411 581H513L438 694H307L178 581H291Z" glyph-name="uni1ED5" horiz-adv-x="562" unicode="&#7893;" /><glyph d="M337 -12C438 -12 523 25 588 90C660 162 711 292 711 425C711 607 598 712 419 712C318 712 232 675 168 610C96 538 44 408 44 275C44 93 158 -12 337 -12ZM411 545C473 545 511 503 511 433C511 349 478 234 438 195C412 168 379 155 345 155C282 155 244 197 244 267C244 351 278 466 317 505C344 532 376 545 411 545ZM391 869C413 901 427 913 445 913C460 913 474 907 505 892C539 876 553 871 574 871C613 871 644 895 692 974L627 1011C604 979 590 966 573 966C557 966 544 972 512 987C479 1004 464 1008 443 1008C404 1008 374 985 326 905ZM472 777 522 744H637L563 847H403L279 744H404Z" glyph-name="uni1ED6" horiz-adv-x="716" unicode="&#7894;" /><glyph d="M247 -12C326 -12 394 17 445 67C505 127 542 220 542 321C542 457 450 544 315 544C236 544 168 515 117 465C57 405 21 311 21 210C21 75 112 -12 247 -12ZM260 141C222 141 196 166 196 218C196 273 217 339 244 366C260 381 278 391 302 391C340 391 367 365 367 313C367 259 345 193 318 166C303 151 284 141 260 141ZM286 713C309 745 322 757 339 757C352 757 365 752 392 737C423 721 438 715 460 715C494 715 525 739 573 817L510 851C487 819 475 807 458 807C445 807 432 812 404 827C373 843 358 850 336 850C302 850 271 825 224 747ZM360 618 411 581H513L438 693H307L177 581H291Z" glyph-name="uni1ED7" horiz-adv-x="562" unicode="&#7895;" /><glyph d="M337 -12C438 -12 523 25 588 90C660 162 711 292 711 425C711 607 598 712 419 712C318 712 232 675 168 610C96 538 44 408 44 275C44 93 158 -12 337 -12ZM411 545C473 545 511 503 511 433C511 349 478 234 438 195C412 168 379 155 345 155C282 155 244 197 244 267C244 351 278 466 317 505C344 532 376 545 411 545ZM473 782 520 744H634L564 853H404L282 744H408ZM335 -170 366 -43H225L194 -170Z" glyph-name="uni1ED8" horiz-adv-x="716" unicode="&#7896;" /><glyph d="M247 -12C326 -12 394 17 445 67C505 127 542 220 542 321C542 457 450 544 315 544C236 544 168 515 117 465C57 405 21 311 21 210C21 75 112 -12 247 -12ZM260 141C222 141 196 166 196 218C196 273 217 339 244 366C260 381 278 391 302 391C340 391 367 365 367 313C367 259 345 193 318 166C303 151 284 141 260 141ZM361 625 409 581H511L440 702H309L180 581H293ZM257 -166 288 -39H147L116 -166Z" glyph-name="uni1ED9" horiz-adv-x="562" unicode="&#7897;" /><glyph d="M500 745 658 846H450L354 745ZM337 -12C438 -12 523 25 588 90C660 162 711 291 711 417C711 503 683 569 636 617C768 643 819 728 819 809C819 831 816 844 812 857L681 824C682 812 681 800 679 788C673 736 623 707 531 707C502 707 477 708 447 708C325 708 234 675 168 609C96 537 44 407 44 274C44 93 158 -12 337 -12ZM411 545C473 545 511 503 511 433C511 349 478 234 438 195C412 168 379 155 345 155C282 155 244 197 244 267C244 351 278 466 317 505C344 532 376 545 411 545Z" glyph-name="uni1EDA" horiz-adv-x="716" unicode="&#7898;" /><glyph d="M367 581 517 696H334L234 581ZM247 -12C326 -12 394 16 445 67C505 127 542 220 542 321C542 377 525 425 495 462C588 490 633 561 633 632C633 652 630 665 626 680L500 649C501 636 501 626 499 613C493 562 447 538 383 538C361 538 338 539 317 539C238 539 167 512 117 462C57 402 21 309 21 210C21 75 112 -12 247 -12ZM260 141C222 141 196 166 196 218C196 273 217 338 243 365C259 380 278 390 302 390C340 390 367 365 367 313C367 259 345 193 318 166C303 151 284 141 260 141Z" glyph-name="uni1EDB" horiz-adv-x="562" unicode="&#7899;" /><glyph d="M337 -12C438 -12 523 25 588 90C660 162 711 291 711 417C711 503 683 569 636 617C768 643 819 728 819 809C819 831 816 844 812 857L681 824C682 812 681 800 679 788C673 736 623 707 531 707C502 707 477 708 447 708C325 708 234 675 168 609C96 537 44 407 44 274C44 93 158 -12 337 -12ZM411 545C473 545 511 503 511 433C511 349 478 234 438 195C412 168 379 155 345 155C282 155 244 197 244 267C244 351 278 466 317 505C344 532 376 545 411 545ZM403 744H539L484 845H269Z" glyph-name="uni1EDC" horiz-adv-x="716" unicode="&#7900;" /><glyph d="M247 -12C326 -12 394 16 445 67C505 127 542 220 542 321C542 377 525 425 495 462C588 490 633 561 633 632C633 652 630 665 626 680L500 649C501 636 501 626 499 613C493 562 447 538 383 538C361 538 338 539 317 539C238 539 167 512 117 462C57 402 21 309 21 210C21 75 112 -12 247 -12ZM260 141C222 141 196 166 196 218C196 273 217 338 243 365C259 380 278 390 302 390C340 390 367 365 367 313C367 259 345 193 318 166C303 151 284 141 260 141ZM313 581H423L376 696H175Z" glyph-name="uni1EDD" horiz-adv-x="562" unicode="&#7901;" /><glyph d="M337 -12C438 -12 523 25 588 90C660 162 711 291 711 417C711 503 683 569 636 617C768 643 819 728 819 809C819 831 816 844 812 857L681 824C682 812 681 800 679 788C673 736 623 707 531 707C502 707 477 708 447 708C325 708 234 675 168 609C96 537 44 407 44 274C44 93 158 -12 337 -12ZM411 545C473 545 511 503 511 433C511 349 478 234 438 195C412 168 379 155 345 155C282 155 244 197 244 267C244 351 278 466 317 505C344 532 376 545 411 545ZM343 910 342 830C384 839 433 845 470 845C504 845 514 841 514 834C514 824 493 816 420 800L424 736C574 761 627 801 627 852C627 896 579 926 481 926C433 926 387 921 343 910Z" glyph-name="uni1EDE" horiz-adv-x="716" unicode="&#7902;" /><glyph d="M238 752 237 671C273 680 315 688 346 688C373 688 381 683 381 676C381 666 366 657 299 638L304 573C440 602 486 643 486 696C486 742 443 772 358 772C316 772 277 765 238 752ZM247 -12C326 -12 394 16 445 67C505 127 542 220 542 321C542 377 525 425 495 462C588 490 633 561 633 632C633 652 630 665 626 680L500 649C501 636 501 626 499 613C493 562 447 538 383 538C361 538 338 539 317 539C238 539 167 512 117 462C57 402 21 309 21 210C21 75 112 -12 247 -12ZM260 141C222 141 196 166 196 218C196 273 217 338 243 365C259 380 278 390 302 390C340 390 367 365 367 313C367 259 345 193 318 166C303 151 284 141 260 141Z" glyph-name="uni1EDF" horiz-adv-x="562" unicode="&#7903;" /><glyph d="M392 783C407 783 421 778 455 762C490 745 507 739 529 739C570 739 603 763 654 846L586 885C561 850 546 838 526 838C511 838 497 843 463 860C427 877 411 883 389 883C347 883 315 859 264 775L332 737C357 771 372 783 392 783ZM337 -12C438 -12 523 25 588 90C660 162 711 291 711 417C711 503 683 569 636 617C768 643 819 728 819 809C819 831 816 844 812 857L681 824C682 812 681 800 679 788C673 736 623 707 531 707C502 707 477 708 447 708C325 708 234 675 168 609C96 537 44 407 44 274C44 93 158 -12 337 -12ZM411 545C473 545 511 503 511 433C511 349 478 234 438 195C412 168 379 155 345 155C282 155 244 197 244 267C244 351 278 466 317 505C344 532 376 545 411 545Z" glyph-name="uni1EE0" horiz-adv-x="716" unicode="&#7904;" /><glyph d="M272 621C285 621 297 615 326 598C356 581 370 575 388 575C422 575 448 601 492 690L427 725C405 690 394 676 379 676C367 676 354 682 326 699C296 716 282 722 263 722C230 722 204 697 160 608L225 573C246 608 258 621 272 621ZM247 -12C326 -12 394 16 445 67C505 127 542 220 542 321C542 377 525 425 495 462C588 490 633 561 633 632C633 652 630 665 626 680L500 649C501 636 501 626 499 613C493 562 447 538 383 538C361 538 338 539 317 539C238 539 167 512 117 462C57 402 21 309 21 210C21 75 112 -12 247 -12ZM260 141C222 141 196 166 196 218C196 273 217 338 243 365C259 380 278 390 302 390C340 390 367 365 367 313C367 259 345 193 318 166C303 151 284 141 260 141Z" glyph-name="uni1EE1" horiz-adv-x="562" unicode="&#7905;" /><glyph d="M337 -12C438 -12 523 25 588 90C660 162 711 291 711 417C711 503 683 569 636 617C768 643 819 728 819 809C819 831 816 844 812 857L681 824C682 812 681 800 679 788C673 736 623 707 531 707C502 707 477 708 447 708C325 708 234 675 168 609C96 537 44 407 44 274C44 93 158 -12 337 -12ZM411 545C473 545 511 503 511 433C511 349 478 234 438 195C412 168 379 155 345 155C282 155 244 197 244 267C244 351 278 466 317 505C344 532 376 545 411 545ZM334 -170 365 -43H224L193 -170Z" glyph-name="uni1EE2" horiz-adv-x="716" unicode="&#7906;" /><glyph d="M247 -12C326 -12 394 16 445 67C505 127 542 220 542 321C542 377 525 425 495 462C588 490 633 561 633 632C633 652 630 665 626 680L500 649C501 636 501 626 499 613C493 562 447 538 383 538C361 538 338 539 317 539C238 539 167 512 117 462C57 402 21 309 21 210C21 75 112 -12 247 -12ZM260 141C222 141 196 166 196 218C196 273 217 338 243 365C259 380 278 390 302 390C340 390 367 365 367 313C367 259 345 193 318 166C303 151 284 141 260 141ZM253 -166 284 -39H143L112 -166Z" glyph-name="uni1EE3" horiz-adv-x="562" unicode="&#7907;" /><glyph d="M646 253 752 700H553L452 274C432 193 392 157 327 157C282 157 244 181 244 231C244 250 247 268 251 288L349 700H150L62 327C49 275 45 241 45 213C45 64 152 -11 314 -11C491 -11 599 65 646 253ZM323 -170 354 -43H213L182 -170Z" glyph-name="uni1EE4" horiz-adv-x="699" unicode="&#7908;" /><glyph d="M327 0H473L602 532H416L330 177C299 161 276 154 253 154C228 154 216 168 216 190C216 198 217 206 220 218L295 532H109L30 202C23 173 19 144 19 120C19 42 66 -9 152 -9C208 -9 253 11 313 49ZM264 -166 295 -39H154L123 -166Z" glyph-name="uni1EE5" horiz-adv-x="585" unicode="&#7909;" /><glyph d="M646 253 752 700H553L452 274C432 193 392 157 327 157C282 157 244 181 244 231C244 250 247 268 251 288L349 700H150L62 327C49 275 45 241 45 213C45 64 152 -11 314 -11C491 -11 599 65 646 253ZM340 900 339 820C381 829 430 835 467 835C501 835 511 831 511 824C511 814 490 806 417 790L421 726C571 751 624 791 624 842C624 886 576 916 478 916C430 916 384 911 340 900Z" glyph-name="uni1EE6" horiz-adv-x="699" unicode="&#7910;" /><glyph d="M327 0H473L602 532H416L330 177C299 161 276 154 253 154C228 154 216 168 216 190C216 198 217 206 220 218L295 532H109L30 202C23 173 19 144 19 120C19 42 66 -9 152 -9C208 -9 253 11 313 49ZM262 746V664C300 674 345 682 378 682C407 682 415 677 415 670C415 660 400 650 330 632L336 567C477 596 524 637 524 690C524 736 479 766 389 766C345 766 303 759 262 746Z" glyph-name="uni1EE7" horiz-adv-x="585" unicode="&#7911;" /><glyph d="M314 -11C491 -11 599 65 646 253L735 629C836 663 880 736 880 808C880 832 877 845 873 857L742 824C743 810 742 799 741 786C734 734 682 700 585 700H553L452 274C432 193 392 157 327 157C282 157 244 181 244 231C244 250 247 268 251 288L349 700H150L62 327C49 275 45 241 45 213C45 64 152 -11 314 -11ZM514 734 696 835H466L364 734Z" glyph-name="uni1EE8" horiz-adv-x="730" unicode="&#7912;" /><glyph d="M394 575 580 690H370L271 575ZM313 49 327 0H473L586 466C675 500 715 569 715 634C715 655 712 667 708 680L582 649C583 637 583 627 581 613C575 562 523 532 438 532H416L330 177C299 161 276 154 253 154C228 154 216 168 216 190C216 198 217 206 220 218L295 532H109L30 202C23 173 19 144 19 120C19 42 66 -9 152 -9C208 -9 253 11 313 49Z" glyph-name="uni1EE9" horiz-adv-x="613" unicode="&#7913;" /><glyph d="M314 -11C491 -11 599 65 646 253L735 629C836 663 880 736 880 808C880 832 877 845 873 857L742 824C743 810 742 799 741 786C734 734 682 700 585 700H553L452 274C432 193 392 157 327 157C282 157 244 181 244 231C244 250 247 268 251 288L349 700H150L62 327C49 275 45 241 45 213C45 64 152 -11 314 -11ZM400 734H536L481 835H266Z" glyph-name="uni1EEA" horiz-adv-x="730" unicode="&#7914;" /><glyph d="M313 49 327 0H473L586 466C675 500 715 569 715 634C715 655 712 667 708 680L582 649C583 637 583 627 581 613C575 562 523 532 438 532H416L330 177C299 161 276 154 253 154C228 154 216 168 216 190C216 198 217 206 220 218L295 532H109L30 202C23 173 19 144 19 120C19 42 66 -9 152 -9C208 -9 253 11 313 49ZM327 575H437L390 690H189Z" glyph-name="uni1EEB" horiz-adv-x="613" unicode="&#7915;" /><glyph d="M314 -11C491 -11 599 65 646 253L735 629C836 663 880 736 880 808C880 832 877 845 873 857L742 824C743 810 742 799 741 786C734 734 682 700 585 700H553L452 274C432 193 392 157 327 157C282 157 244 181 244 231C244 250 247 268 251 288L349 700H150L62 327C49 275 45 241 45 213C45 64 152 -11 314 -11ZM340 900 339 820C381 829 430 835 467 835C501 835 511 831 511 824C511 814 490 806 417 790L421 726C571 751 624 791 624 842C624 886 576 916 478 916C430 916 384 911 340 900Z" glyph-name="uni1EEC" horiz-adv-x="730" unicode="&#7916;" /><glyph d="M313 49 327 0H473L586 466C675 500 715 569 715 634C715 655 712 667 708 680L582 649C583 637 583 627 581 613C575 562 523 532 438 532H416L330 177C299 161 276 154 253 154C228 154 216 168 216 190C216 198 217 206 220 218L295 532H109L30 202C23 173 19 144 19 120C19 42 66 -9 152 -9C208 -9 253 11 313 49ZM262 746V664C300 674 345 682 378 682C407 682 415 677 415 670C415 660 400 650 330 632L336 567C477 596 524 637 524 690C524 736 479 766 389 766C345 766 303 759 262 746Z" glyph-name="uni1EED" horiz-adv-x="613" unicode="&#7917;" /><glyph d="M314 -11C491 -11 599 65 646 253L735 629C836 663 880 736 880 808C880 832 877 845 873 857L742 824C743 810 742 799 741 786C734 734 682 700 585 700H553L452 274C432 193 392 157 327 157C282 157 244 181 244 231C244 250 247 268 251 288L349 700H150L62 327C49 275 45 241 45 213C45 64 152 -11 314 -11ZM406 775C422 775 437 770 472 754C508 737 525 731 548 731C591 731 625 754 677 838L609 877C583 842 567 830 546 830C530 830 516 835 480 852C444 869 427 875 404 875C362 875 327 851 275 767L343 729C370 763 385 775 406 775Z" glyph-name="uni1EEE" horiz-adv-x="730" unicode="&#7918;" /><glyph d="M305 618C321 618 334 612 366 595C399 578 415 572 436 572C475 572 505 596 554 685L489 722C465 686 452 673 432 673C417 673 404 679 372 696C339 713 324 719 302 719C264 719 234 695 185 606L249 570C274 605 286 618 305 618ZM313 49 327 0H473L586 466C675 500 715 569 715 634C715 655 712 667 708 680L582 649C583 637 583 627 581 613C575 562 523 532 438 532H416L330 177C299 161 276 154 253 154C228 154 216 168 216 190C216 198 217 206 220 218L295 532H109L30 202C23 173 19 144 19 120C19 42 66 -9 152 -9C208 -9 253 11 313 49Z" glyph-name="uni1EEF" horiz-adv-x="613" unicode="&#7919;" /><glyph d="M314 -11C491 -11 599 65 646 253L735 629C836 663 880 736 880 808C880 832 877 845 873 857L742 824C743 810 742 799 741 786C734 734 682 700 585 700H553L452 274C432 193 392 157 327 157C282 157 244 181 244 231C244 250 247 268 251 288L349 700H150L62 327C49 275 45 241 45 213C45 64 152 -11 314 -11ZM323 -170 354 -43H213L182 -170Z" glyph-name="uni1EF0" horiz-adv-x="730" unicode="&#7920;" /><glyph d="M313 49 327 0H473L586 466C675 500 715 569 715 634C715 655 712 667 708 680L582 649C583 637 583 627 581 613C575 562 523 532 438 532H416L330 177C299 161 276 154 253 154C228 154 216 168 216 190C216 198 217 206 220 218L295 532H109L30 202C23 173 19 144 19 120C19 42 66 -9 152 -9C208 -9 253 11 313 49ZM264 -166 295 -39H154L123 -166Z" glyph-name="uni1EF1" horiz-adv-x="613" unicode="&#7921;" /><glyph d="M357 0 415 243 762 700H536L358 436L300 700H92L219 253L158 0ZM290 -163 321 -36H180L149 -163Z" glyph-name="uni1EF4" horiz-adv-x="654" unicode="&#7924;" /><glyph d="M-26 -180C195 -149 270 -82 360 75L606 532H409L254 196L250 532H66L109 19C63 -2 15 -15 -33 -22ZM421 -173 452 -46H311L280 -173Z" glyph-name="uni1EF5" horiz-adv-x="544" unicode="&#7925;" /><glyph d="M357 0 415 243 762 700H536L358 436L300 700H92L219 253L158 0ZM311 900 310 820C352 829 401 835 438 835C472 835 482 831 482 824C482 814 461 806 388 790L392 726C542 751 595 791 595 842C595 886 547 916 449 916C401 916 355 911 311 900Z" glyph-name="uni1EF6" horiz-adv-x="654" unicode="&#7926;" /><glyph d="M-26 -180C195 -149 270 -82 360 75L606 532H409L254 196L250 532H66L109 19C63 -2 15 -15 -33 -22ZM239 746V664C277 674 322 682 355 682C384 682 392 677 392 670C392 660 377 650 307 632L313 567C454 596 501 637 501 690C501 736 456 766 366 766C322 766 280 759 239 746Z" glyph-name="uni1EF7" horiz-adv-x="544" unicode="&#7927;" /><glyph d="M357 0 415 243 762 700H536L358 436L300 700H92L219 253L158 0ZM377 775C393 775 408 770 443 754C479 737 496 731 519 731C562 731 596 754 648 838L580 877C554 842 538 830 517 830C501 830 487 835 451 852C415 869 398 875 375 875C333 875 298 851 246 767L314 729C341 763 356 775 377 775Z" glyph-name="uni1EF8" horiz-adv-x="654" unicode="&#7928;" /><glyph d="M-26 -180C195 -149 270 -82 360 75L606 532H409L254 196L250 532H66L109 19C63 -2 15 -15 -33 -22ZM296 618C312 618 325 612 358 595C392 578 409 572 431 572C471 572 502 596 553 685L486 722C461 686 448 673 427 673C412 673 398 679 365 696C331 713 315 719 293 719C253 719 222 695 171 606L238 570C263 605 276 618 296 618Z" glyph-name="uni1EF9" horiz-adv-x="544" unicode="&#7929;" /><glyph glyph-name="uni2002" horiz-adv-x="500" unicode="&#8194;" /><glyph glyph-name="uni2003" horiz-adv-x="1000" unicode="&#8195;" /><glyph glyph-name="uni2004" horiz-adv-x="333" unicode="&#8196;" /><glyph glyph-name="uni2005" horiz-adv-x="250" unicode="&#8197;" /><glyph glyph-name="uni2007" horiz-adv-x="564" unicode="&#8199;" /><glyph glyph-name="uni2009" horiz-adv-x="125" unicode="&#8201;" /><glyph glyph-name="uni200A" horiz-adv-x="42" unicode="&#8202;" /><glyph d="M293 224 331 381H59L21 224Z" glyph-name="uni2011" horiz-adv-x="335" unicode="&#8209;" /><glyph d="M307 281 345 438H73L35 281Z" glyph-name="uni2011.cap" horiz-adv-x="335" /><glyph d="M475 283 513 436H93L56 283Z" glyph-name="uni2012" horiz-adv-x="564" unicode="&#8210;" /><glyph d="M742 226 779 379H59L21 226Z" glyph-name="uni2015" horiz-adv-x="784" unicode="&#8213;" /><glyph d="M756 283 793 436H73L35 283Z" glyph-name="uni2015.cap" horiz-adv-x="784" /><glyph d="M128 724C118 686 114 655 114 625C114 534 149 456 222 383L287 425C276 459 269 496 269 535C269 588 278 645 298 724Z" glyph-name="uni201B" horiz-adv-x="262" unicode="&#8219;" /><glyph d="M343 724C333 683 329 650 329 618C329 530 361 456 427 383L490 424C477 461 471 495 471 540C471 584 481 641 501 724ZM129 724C119 683 115 650 115 618C115 530 147 456 213 383L276 424C263 461 257 495 257 540C257 584 267 641 287 724Z" glyph-name="uni201F" horiz-adv-x="465" unicode="&#8223;" /><glyph d="M490 196H308L261 0H443ZM208 196H26L-21 0H160Z" glyph-name="uni2025" horiz-adv-x="564" unicode="&#8229;" /><glyph glyph-name="uni202F" horiz-adv-x="125" unicode="&#8239;" /><glyph d="M291 407C352 407 401 429 439 467C485 513 516 596 516 678C516 780 448 844 349 844C288 844 239 823 201 785C155 739 124 655 124 574C124 472 192 407 291 407ZM300 515C273 515 255 534 255 573C255 624 276 694 300 718C313 731 326 737 340 737C367 737 385 717 385 678C385 628 364 558 340 534C327 521 314 515 300 515Z" glyph-name="uni2070" horiz-adv-x="469" unicode="&#8304;" /><glyph d="M225 578 365 745 323 578ZM482 484 505 580H447L509 838H322L108 585L100 484H296L279 415H407L424 484Z" glyph-name="uni2074" horiz-adv-x="457" unicode="&#8308;" /><glyph d="M459 586C459 645 414 686 344 686C319 686 294 683 269 676L285 734H479L504 837H199L137 610L217 574C248 587 275 596 297 596C318 596 329 586 329 572C329 542 276 517 106 510L97 408C363 411 459 480 459 586Z" glyph-name="uni2075" horiz-adv-x="426" unicode="&#8309;" /><glyph d="M287 407C398 407 478 472 478 570C478 640 429 681 357 681C330 681 302 676 276 668C308 703 359 728 459 745L441 847C229 818 121 708 121 565C121 466 182 407 287 407ZM296 506C265 506 245 525 245 557C245 567 246 578 248 591C266 594 283 596 299 596C338 596 354 582 354 558C354 528 330 506 296 506Z" glyph-name="uni2076" horiz-adv-x="439" unicode="&#8310;" /><glyph d="M234 405 480 718 508 837H176L149 724H336L115 458Z" glyph-name="uni2077" horiz-adv-x="409" unicode="&#8311;" /><glyph d="M286 408C407 408 477 465 477 539C477 576 458 604 419 625C476 645 507 682 507 731C507 798 443 843 337 843C221 843 159 788 159 721C159 688 172 662 207 640C142 619 110 577 110 525C110 455 172 408 286 408ZM282 709C282 734 303 753 334 753C364 753 381 739 381 717C381 691 361 672 329 672C299 672 282 686 282 709ZM238 540C238 568 261 591 297 591C331 591 349 575 349 550C349 522 327 499 290 499C257 499 238 515 238 540Z" glyph-name="uni2078" horiz-adv-x="447" unicode="&#8312;" /><glyph d="M323 845C212 845 132 780 132 682C132 612 181 571 253 571C280 571 308 576 334 584C302 549 251 524 151 507L169 405C381 434 489 544 489 687C489 786 428 845 323 845ZM314 746C345 746 365 727 365 695C365 685 364 674 362 661C344 658 327 656 311 656C272 656 256 670 256 694C256 724 280 746 314 746Z" glyph-name="uni2079" horiz-adv-x="439" unicode="&#8313;" /><glyph d="M154 -164C215 -164 264 -142 302 -104C348 -58 379 25 379 107C379 209 311 273 212 273C151 273 102 252 64 214C18 168 -13 84 -13 3C-13 -99 55 -164 154 -164ZM163 -56C136 -56 118 -37 118 2C118 53 139 123 163 147C176 160 189 166 203 166C230 166 248 146 248 107C248 57 227 -13 203 -37C190 -50 177 -56 163 -56Z" glyph-name="uni2080" horiz-adv-x="469" unicode="&#8320;" /><glyph d="M182 -156 284 268H190L16 215L21 104L115 129L47 -156Z" glyph-name="uni2081" horiz-adv-x="351" unicode="&#8321;" /><glyph d="M286 -156 313 -48H149L223 8C317 72 342 111 342 162C342 229 286 272 198 272C131 272 66 251 10 215L51 115C99 145 140 160 170 160C191 160 202 151 202 138C202 125 193 114 163 90L-42 -66L-43 -156Z" glyph-name="uni2082" horiz-adv-x="420" unicode="&#8322;" /><glyph d="M-60 -161C217 -159 304 -105 304 -25C304 14 276 47 219 58C303 78 344 119 344 174C344 234 290 271 179 271C125 271 70 262 25 247L46 152C85 163 127 170 161 170C193 170 207 163 207 150C207 133 179 116 63 96L49 14C142 11 166 0 166 -17C166 -38 130 -55 -35 -58Z" glyph-name="uni2083" horiz-adv-x="414" unicode="&#8323;" /><glyph d="M88 7 228 174 186 7ZM345 -87 368 9H310L372 267H185L-29 14L-37 -87H159L142 -156H270L287 -87Z" glyph-name="uni2084" horiz-adv-x="457" unicode="&#8324;" /><glyph d="M322 15C322 74 277 115 207 115C182 115 157 112 132 105L148 163H342L367 266H62L0 39L80 3C111 16 138 25 160 25C181 25 192 15 192 1C192 -29 139 -54 -31 -61L-40 -163C226 -160 322 -91 322 15Z" glyph-name="uni2085" horiz-adv-x="426" unicode="&#8325;" /><glyph d="M150 -164C261 -164 341 -99 341 -1C341 69 292 110 220 110C193 110 165 105 139 97C171 132 222 157 322 174L304 276C92 247 -16 137 -16 -6C-16 -105 45 -164 150 -164ZM159 -65C128 -65 108 -46 108 -14C108 -4 109 7 111 20C129 23 146 25 162 25C201 25 217 11 217 -13C217 -43 193 -65 159 -65Z" glyph-name="uni2086" horiz-adv-x="439" unicode="&#8326;" /><glyph d="M97 -166 343 147 371 266H39L12 153H199L-22 -113Z" glyph-name="uni2087" horiz-adv-x="409" unicode="&#8327;" /><glyph d="M149 -163C270 -163 340 -106 340 -32C340 5 321 33 282 54C339 74 370 111 370 160C370 227 306 272 200 272C84 272 22 217 22 150C22 117 35 91 70 69C5 48 -27 6 -27 -46C-27 -116 35 -163 149 -163ZM145 138C145 163 166 182 197 182C227 182 244 168 244 146C244 120 224 101 192 101C162 101 145 115 145 138ZM101 -31C101 -3 124 20 160 20C194 20 212 4 212 -21C212 -49 190 -72 153 -72C120 -72 101 -56 101 -31Z" glyph-name="uni2088" horiz-adv-x="447" unicode="&#8328;" /><glyph d="M186 274C75 274 -5 209 -5 111C-5 41 44 0 116 0C143 0 171 5 197 13C165 -22 114 -47 14 -64L32 -166C244 -137 352 -27 352 116C352 215 291 274 186 274ZM177 175C208 175 228 156 228 124C228 114 227 103 225 90C207 87 190 85 174 85C135 85 119 99 119 123C119 153 143 175 177 175Z" glyph-name="uni2089" horiz-adv-x="439" unicode="&#8329;" /><glyph d="M349 280H275L311 439ZM524 270 487 430H561ZM417 0H629L676 196H748L772 291H699L730 419H802L825 514H753L798 700H623L579 514H469L422 700H204L159 514H87L64 419H136L105 291H33L10 196H82L35 0H210L257 196H368Z" glyph-name="uni20A6" horiz-adv-x="793" unicode="&#8358;" /><glyph d="M560 270H474L562 458ZM706 238 712 435H786ZM308 238 323 435H397ZM555 -2H768L855 186H990L1012 281H899L965 424H1046L1070 519H1008L1092 700H892L818 519H717L722 700H515L433 519H332L345 700H151L148 519H86L63 424H146L143 281H29L6 186H141L138 -2H348L436 186H557Z" glyph-name="uni20A9" horiz-adv-x="1036" unicode="&#8361;" /><glyph d="M360 542H415C478 542 501 523 502 472H343ZM307 318 324 388H486C480 374 472 361 463 352C442 331 407 318 361 318ZM270 164H345C456 164 549 197 613 261C645 293 669 335 683 382H745L768 478H698V487C698 633 605 700 424 700H202L149 478H76L54 382H126L34 0H230Z" glyph-name="uni20B1" horiz-adv-x="727" unicode="&#8369;" /><glyph d="M514 3 416 154C391 193 362 219 318 237C421 266 491 320 525 386H599L628 507H543C536 535 521 559 497 578H645L675 700H146L117 578H203C291 578 339 552 347 502H98L72 391H323C291 343 230 314 141 314H53L24 193H83C148 193 176 175 205 129L283 0H514Z" glyph-name="uni20B9" horiz-adv-x="617" unicode="&#8377;" /></font>
</defs>
</svg>
