<?xml version="1.0" standalone="no"?><!DOCTYPE svg PUBLIC "-//W3C//DTD SVG 1.1//EN" "http://www.w3.org/Graphics/SVG/1.1/DTD/svg11.dtd" ><svg version="1.1" xmlns="http://www.w3.org/2000/svg"><defs><font horiz-adv-x="0" id="font"><font-face ascent="800" bbox="-202 -240 1018 1028" cap-height="700" descent="-200" font-family="Retina" font-stretch="normal" font-style="normal" font-weight="700" units-per-em="1000" x-height="528" /><missing-glyph d="M100 -240H600V960H100ZM192 910H507L350 429ZM321 360 150 -154V874ZM378 360 550 874V-154ZM350 291 507 -190H192Z" horiz-adv-x="700" /><glyph d="M439 263H268L354 539ZM520 0H696L455 704H255L13 0H187L226 125H481Z" glyph-name="A" horiz-adv-x="709" unicode="A" /><glyph d="M514 263H333L509 565H514ZM514 0H1018V140H677V289H973V427H677V560H1011V700H418L4 0H180L253 125H514Z" glyph-name="AE" horiz-adv-x="1061" unicode="&#198;" /><glyph d="M514 263H333L509 565H514ZM514 0H1018V140H677V289H973V427H677V560H1011V700H418L4 0H180L253 125H514ZM659 741 814 841H620L535 741Z" glyph-name="AEacute" horiz-adv-x="1061" unicode="&#508;" /><glyph d="M439 263H268L354 539ZM520 0H696L455 704H255L13 0H187L226 125H481ZM401 746 556 846H362L277 746Z" glyph-name="Aacute" horiz-adv-x="709" unicode="&#193;" /><glyph d="M439 263H268L354 539ZM520 0H696L455 704H255L13 0H187L226 125H481ZM355 824C316 824 291 841 283 867H200C207 795 258 741 353 741C448 741 501 795 508 867H425C417 841 394 824 355 824Z" glyph-name="Abreve" horiz-adv-x="709" unicode="&#258;" /><glyph d="M439 263H268L354 539ZM520 0H696L455 704H255L13 0H187L226 125H481ZM353 789 413 746H518L422 853H286L190 746H294Z" glyph-name="Acircumflex" horiz-adv-x="709" unicode="&#194;" /><glyph d="M439 263H268L354 539ZM520 0H696L455 704H255L13 0H187L226 125H481ZM323 746V857H200V746ZM508 746V857H385V746Z" glyph-name="Adieresis" horiz-adv-x="709" unicode="&#196;" /><glyph d="M439 263H268L354 539ZM520 0H696L455 704H255L13 0H187L226 125H481ZM307 746H431L346 846H152Z" glyph-name="Agrave" horiz-adv-x="709" unicode="&#192;" /><glyph d="M439 263H268L354 539ZM520 0H696L455 704H255L13 0H187L226 125H481ZM512 750V830H196V750Z" glyph-name="Amacron" horiz-adv-x="709" unicode="&#256;" /><glyph d="M439 263H268L354 539ZM697 -86C643 -73 635 -68 635 -54C635 -46 639 -37 663 0H696L455 704H255L13 0H187L226 125H481L520 0H569C516 -40 501 -59 501 -82C501 -124 550 -144 688 -151Z" glyph-name="Aogonek" horiz-adv-x="709" unicode="&#260;" /><glyph d="M286 757C286 796 314 822 355 822C395 822 423 796 423 757C423 719 395 693 355 693C314 693 286 719 286 757ZM439 263H268L354 539ZM520 0H696L459 693H446C461 710 470 732 470 757C470 818 421 862 355 862C288 862 239 818 239 757C239 732 248 710 263 693H251L13 0H187L226 125H481Z" glyph-name="Aring" horiz-adv-x="709" unicode="&#197;" /><glyph d="M404 887 539 971H351L279 887ZM286 757C286 796 314 822 355 822C395 822 423 796 423 757C423 719 395 693 355 693C314 693 286 719 286 757ZM439 263H268L354 539ZM520 0H696L459 693H446C461 710 470 732 470 757C470 818 421 862 355 862C288 862 239 818 239 757C239 732 248 710 263 693H251L13 0H187L226 125H481Z" glyph-name="Aringacute" horiz-adv-x="709" unicode="&#506;" /><glyph d="M439 263H268L354 539ZM520 0H696L455 704H255L13 0H187L226 125H481ZM246 740C263 778 276 786 294 786C310 786 325 780 357 765C396 746 415 741 439 741C479 741 514 766 542 854L471 874C454 836 441 828 423 828C407 828 392 834 360 849C321 868 302 873 278 873C238 873 203 848 175 760Z" glyph-name="Atilde" horiz-adv-x="709" unicode="&#195;" /><glyph d="M341 0C524 0 624 71 624 199C624 295 563 342 470 362C546 384 605 429 605 524C605 632 525 700 348 700H65V0ZM229 417V571H335C402 571 432 544 432 500C432 448 395 417 325 417ZM229 128V301H331C409 301 451 270 451 216C451 159 412 128 342 128Z" glyph-name="B" horiz-adv-x="654" unicode="B" /><glyph d="M579 31 547 176C497 156 446 142 394 142C276 142 207 217 207 352C207 481 277 558 388 558C447 558 499 542 546 522L576 672C520 695 455 710 376 710C177 710 36 576 36 350C36 116 172 -10 378 -10C450 -10 519 5 579 31Z" glyph-name="C" horiz-adv-x="610" unicode="C" /><glyph d="M579 31 547 176C497 156 446 142 394 142C276 142 207 217 207 352C207 481 277 558 388 558C447 558 499 542 546 522L576 672C520 695 455 710 376 710C177 710 36 576 36 350C36 116 172 -10 378 -10C450 -10 519 5 579 31ZM404 748 559 848H365L280 748Z" glyph-name="Cacute" horiz-adv-x="610" unicode="&#262;" /><glyph d="M579 31 547 176C497 156 446 142 394 142C276 142 207 217 207 352C207 481 277 558 388 558C447 558 499 542 546 522L576 672C520 695 455 710 376 710C177 710 36 576 36 350C36 116 172 -10 378 -10C450 -10 519 5 579 31ZM358 812 298 855H193L289 748H425L521 855H417Z" glyph-name="Ccaron" horiz-adv-x="610" unicode="&#268;" /><glyph d="M471 -87C471 -52 439 -33 369 -35L399 -10C463 -7 525 7 579 31L547 176C497 156 446 142 394 142C276 142 207 217 207 352C207 481 277 558 388 558C447 558 499 542 546 522L576 672C520 695 455 710 376 710C177 710 36 576 36 350C36 143 142 21 309 -5L259 -57L282 -85C318 -76 340 -81 340 -94C340 -108 319 -117 238 -122L242 -169C411 -167 471 -133 471 -87Z" glyph-name="Ccedilla" horiz-adv-x="610" unicode="&#199;" /><glyph d="M579 31 547 176C497 156 446 142 394 142C276 142 207 217 207 352C207 481 277 558 388 558C447 558 499 542 546 522L576 672C520 695 455 710 376 710C177 710 36 576 36 350C36 116 172 -10 378 -10C450 -10 519 5 579 31ZM356 791 416 748H521L425 855H289L193 748H297Z" glyph-name="Ccircumflex" horiz-adv-x="610" unicode="&#264;" /><glyph d="M579 31 547 176C497 156 446 142 394 142C276 142 207 217 207 352C207 481 277 558 388 558C447 558 499 542 546 522L576 672C520 695 455 710 376 710C177 710 36 576 36 350C36 116 172 -10 378 -10C450 -10 519 5 579 31ZM421 748V859H293V748Z" glyph-name="Cdotaccent" horiz-adv-x="610" unicode="&#266;" /><glyph d="M659 352C659 595 500 700 276 700H65V0H270C498 0 659 106 659 352ZM232 146V554H283C411 554 488 496 488 350C488 203 409 146 282 146Z" glyph-name="D" horiz-adv-x="695" unicode="D" /><glyph d="M659 352C659 595 500 700 276 700H65V0H270C498 0 659 106 659 352ZM232 146V554H283C411 554 488 496 488 350C488 203 409 146 282 146ZM340 805 280 848H175L271 741H407L503 848H399Z" glyph-name="Dcaron" horiz-adv-x="695" unicode="&#270;" /><glyph d="M244 146V303H379V412H244V554H297C425 554 502 496 502 350C502 203 423 146 296 146ZM284 0C513 0 673 106 673 352C673 595 514 700 290 700H79V414H19V301H79V0Z" glyph-name="Dcroat" horiz-adv-x="709" unicode="&#272;" /><glyph d="M579 0V140H230V289H534V427H230V560H572V700H65V0Z" glyph-name="E" horiz-adv-x="622" unicode="E" /><glyph d="M579 0V140H230V289H534V427H230V560H572V700H65V0ZM373 741 528 841H334L249 741Z" glyph-name="Eacute" horiz-adv-x="622" unicode="&#201;" /><glyph d="M579 0V140H230V289H534V427H230V560H572V700H65V0ZM327 819C288 819 263 836 255 862H172C179 790 230 736 325 736C420 736 473 790 480 862H397C389 836 366 819 327 819Z" glyph-name="Ebreve" horiz-adv-x="622" unicode="&#276;" /><glyph d="M579 0V140H230V289H534V427H230V560H572V700H65V0ZM327 805 267 848H162L258 741H394L490 848H386Z" glyph-name="Ecaron" horiz-adv-x="622" unicode="&#282;" /><glyph d="M579 0V140H230V289H534V427H230V560H572V700H65V0ZM325 784 385 741H490L394 848H258L162 741H266Z" glyph-name="Ecircumflex" horiz-adv-x="622" unicode="&#202;" /><glyph d="M579 0V140H230V289H534V427H230V560H572V700H65V0ZM295 741V852H172V741ZM480 741V852H357V741Z" glyph-name="Edieresis" horiz-adv-x="622" unicode="&#203;" /><glyph d="M579 0V140H230V289H534V427H230V560H572V700H65V0ZM390 741V852H262V741Z" glyph-name="Edotaccent" horiz-adv-x="622" unicode="&#278;" /><glyph d="M579 0V140H230V289H534V427H230V560H572V700H65V0ZM279 741H403L318 841H124Z" glyph-name="Egrave" horiz-adv-x="622" unicode="&#200;" /><glyph d="M579 0V140H230V289H534V427H230V560H572V700H65V0ZM484 745V825H168V745Z" glyph-name="Emacron" horiz-adv-x="622" unicode="&#274;" /><glyph d="M446 -179C575 -179 651 -106 651 37V700H495V334L496 288L243 700H65V0H221V446L494 29C494 -20 467 -47 416 -47C394 -47 371 -44 350 -39V-169C379 -175 415 -179 446 -179Z" glyph-name="Eng" horiz-adv-x="716" unicode="&#330;" /><glyph d="M580 -86C526 -73 518 -68 518 -54C518 -46 522 -37 546 0H579V140H230V289H534V427H230V560H572V700H65V0H452C399 -40 384 -59 384 -82C384 -124 433 -144 571 -151Z" glyph-name="Eogonek" horiz-adv-x="622" unicode="&#280;" /><glyph d="M244 146V303H379V412H244V554H297C425 554 502 496 502 350C502 203 423 146 296 146ZM284 0C513 0 673 106 673 352C673 595 514 700 290 700H79V414H19V301H79V0Z" glyph-name="Eth" horiz-adv-x="709" unicode="&#208;" /><glyph d="M576 15 553 156C524 147 471 136 428 136C351 136 295 164 268 232H503V315H251C250 326 250 338 250 350C250 362 250 373 251 383H503V466H268C294 536 350 564 429 564C475 564 521 553 553 544L575 685C537 697 479 708 421 708C238 708 132 621 99 466H23V383H89C88 372 88 361 88 350C88 338 88 326 89 315H23V232H99C133 75 241 -8 420 -8C476 -8 535 2 576 15Z" glyph-name="Euro" horiz-adv-x="612" unicode="&#8364;" /><glyph d="M531 13 508 155C473 143 438 136 402 136C334 136 287 165 264 232H458V315H249C248 326 248 338 248 350C248 362 248 373 249 383H458V466H263C286 535 333 564 403 564C438 564 473 557 507 545L531 686C488 700 442 708 390 708C232 708 128 627 96 466H26V383H87C86 372 86 361 86 350C86 338 86 326 87 315H26V232H97C128 72 229 -8 389 -8C439 -8 487 0 531 13Z" glyph-name="Euro.tab" horiz-adv-x="564" /><glyph d="M232 0V258H488V402H232V556H565V700H65V0Z" glyph-name="F" horiz-adv-x="591" unicode="F" /><glyph d="M630 53V407H340V278H471V145C449 136 419 129 385 129C270 129 207 200 207 346C207 484 271 562 388 562C461 562 517 542 569 519L613 661C546 691 472 710 387 710C187 710 36 589 36 350C36 115 161 -9 375 -9C471 -9 565 19 630 53Z" glyph-name="G" horiz-adv-x="686" unicode="G" /><glyph d="M630 53V407H340V278H471V145C449 136 419 129 385 129C270 129 207 200 207 346C207 484 271 562 388 562C461 562 517 542 569 519L613 661C546 691 472 710 387 710C187 710 36 589 36 350C36 115 161 -9 375 -9C471 -9 565 19 630 53ZM367 826C328 826 303 843 295 869H212C219 797 270 743 365 743C460 743 513 797 520 869H437C429 843 406 826 367 826Z" glyph-name="Gbreve" horiz-adv-x="686" unicode="&#286;" /><glyph d="M630 53V407H340V278H471V145C449 136 419 129 385 129C270 129 207 200 207 346C207 484 271 562 388 562C461 562 517 542 569 519L613 661C546 691 472 710 387 710C187 710 36 589 36 350C36 115 161 -9 375 -9C471 -9 565 19 630 53ZM367 812 307 855H202L298 748H434L530 855H426Z" glyph-name="Gcaron" horiz-adv-x="686" unicode="&#486;" /><glyph d="M630 53V407H340V278H471V145C449 136 419 129 385 129C270 129 207 200 207 346C207 484 271 562 388 562C461 562 517 542 569 519L613 661C546 691 472 710 387 710C187 710 36 589 36 350C36 115 161 -9 375 -9C471 -9 565 19 630 53ZM365 791 425 748H530L434 855H298L202 748H306Z" glyph-name="Gcircumflex" horiz-adv-x="686" unicode="&#284;" /><glyph d="M630 53V407H340V278H471V145C449 136 419 129 385 129C270 129 207 200 207 346C207 484 271 562 388 562C461 562 517 542 569 519L613 661C546 691 472 710 387 710C187 710 36 589 36 350C36 115 161 -9 375 -9C471 -9 565 19 630 53ZM430 748V859H302V748Z" glyph-name="Gdotaccent" horiz-adv-x="686" unicode="&#288;" /><glyph d="M233 281H478V0H646V700H478V437H233V700H65V0H233Z" glyph-name="H" horiz-adv-x="711" unicode="H" /><glyph d="M245 418V519H494V418ZM247 272H492V0H660V515H720V625H660V700H494V622H245V700H79V625H19V515H79V0H247Z" glyph-name="Hbar" horiz-adv-x="739" unicode="&#294;" /><glyph d="M233 281H478V0H646V700H478V437H233V700H65V0H233ZM354 784 414 741H519L423 848H287L191 741H295Z" glyph-name="Hcircumflex" horiz-adv-x="711" unicode="&#292;" /><glyph d="M236 0V700H68V0Z" glyph-name="I" horiz-adv-x="304" unicode="I" /><glyph d="M236 0V700H68V0ZM199 741 354 841H160L75 741Z" glyph-name="Iacute" horiz-adv-x="304" unicode="&#205;" /><glyph d="M236 0V700H68V0ZM153 819C114 819 89 836 81 862H-2C5 790 56 736 151 736C246 736 299 790 306 862H223C215 836 192 819 153 819Z" glyph-name="Ibreve" horiz-adv-x="304" unicode="&#300;" /><glyph d="M236 0V700H68V0ZM151 784 211 741H316L220 848H84L-12 741H92Z" glyph-name="Icircumflex" horiz-adv-x="304" unicode="&#206;" /><glyph d="M236 0V700H68V0ZM121 741V852H-2V741ZM306 741V852H183V741Z" glyph-name="Idieresis" horiz-adv-x="304" unicode="&#207;" /><glyph d="M236 0V700H68V0ZM216 741V852H88V741Z" glyph-name="Idotaccent" horiz-adv-x="304" unicode="&#304;" /><glyph d="M236 0V700H68V0ZM105 741H229L144 841H-50Z" glyph-name="Igrave" horiz-adv-x="304" unicode="&#204;" /><glyph d="M236 0V700H68V0ZM291 745V825H13V745Z" glyph-name="Imacron" horiz-adv-x="304" unicode="&#298;" /><glyph d="M244 -86C190 -73 182 -68 182 -54C182 -46 186 -37 210 0H236V700H68V0H116C63 -40 48 -59 48 -82C48 -124 97 -144 235 -151Z" glyph-name="Iogonek" horiz-adv-x="304" unicode="&#302;" /><glyph d="M236 0V700H68V0ZM44 735C61 773 74 781 92 781C108 781 123 775 155 760C194 741 213 736 237 736C277 736 312 761 340 849L269 869C252 831 239 823 221 823C205 823 190 829 158 844C119 863 100 868 76 868C36 868 1 843 -27 755Z" glyph-name="Itilde" horiz-adv-x="304" unicode="&#296;" /><glyph d="M435 266V700H267V266C267 179 227 139 150 139C116 139 82 146 44 158L18 14C65 0 118 -8 177 -8C348 -8 435 81 435 266Z" glyph-name="J" horiz-adv-x="495" unicode="J" /><glyph d="M435 266V700H267V266C267 179 227 139 150 139C116 139 82 146 44 158L18 14C65 0 118 -8 177 -8C348 -8 435 81 435 266ZM350 784 410 741H515L419 848H283L187 741H291Z" glyph-name="Jcircumflex" horiz-adv-x="495" unicode="&#308;" /><glyph d="M463 0H665L398 361L656 700H456L236 397H233V700H65V0H233V321H235Z" glyph-name="K" horiz-adv-x="668" unicode="K" /><glyph d="M526 0V151H233V700H65V0Z" glyph-name="L" horiz-adv-x="553" unicode="L" /><glyph d="M526 0V151H233V700H65V0ZM196 741 351 841H157L72 741Z" glyph-name="Lacute" horiz-adv-x="553" unicode="&#313;" /><glyph d="M526 0V151H233V700H65V0ZM394 700H296V664C296 618 292 582 279 545L324 522C369 564 394 607 394 672Z" glyph-name="Lcaron" horiz-adv-x="553" unicode="&#317;" /><glyph d="M541 0V151H247V318L381 381V512L247 446V700H79V367L19 339V211L79 239V0Z" glyph-name="Lslash" horiz-adv-x="567" unicode="&#321;" /><glyph d="M377 0H538L687 502L710 0H875L838 700H597L459 222L322 700H87L49 0H205L229 500Z" glyph-name="M" horiz-adv-x="924" unicode="M" /><glyph d="M221 445 471 0H651V700H495V263L250 700H65V0H221Z" glyph-name="N" horiz-adv-x="716" unicode="N" /><glyph d="M221 445 471 0H651V700H495V263L250 700H65V0H221ZM411 738 566 838H372L287 738Z" glyph-name="Nacute" horiz-adv-x="716" unicode="&#323;" /><glyph d="M221 445 471 0H651V700H495V263L250 700H65V0H221ZM365 802 305 845H200L296 738H432L528 845H424Z" glyph-name="Ncaron" horiz-adv-x="716" unicode="&#327;" /><glyph d="M221 445 471 0H651V700H495V263L250 700H65V0H221ZM256 735C273 773 286 781 304 781C320 781 335 775 367 760C406 741 425 736 449 736C489 736 524 761 552 849L481 869C464 831 451 823 433 823C417 823 402 829 370 844C331 863 312 868 288 868C248 868 213 843 185 755Z" glyph-name="Ntilde" horiz-adv-x="716" unicode="&#209;" /><glyph d="M680 351C680 576 550 712 359 712C166 712 36 574 36 349C36 125 166 -12 357 -12C549 -12 680 126 680 351ZM509 349C509 209 450 132 359 132C267 132 207 210 207 351C207 491 266 568 358 568C448 568 509 490 509 349Z" glyph-name="O" horiz-adv-x="716" unicode="O" /><glyph d="M36 348C36 105 195 0 419 0H968V140H627V289H923V427H627V560H961V700H425C197 700 36 594 36 348ZM207 350C207 503 286 563 413 563H462V137H412C284 137 207 198 207 350Z" glyph-name="OE" horiz-adv-x="1011" unicode="&#338;" /><glyph d="M680 351C680 576 550 712 359 712C166 712 36 574 36 349C36 125 166 -12 357 -12C549 -12 680 126 680 351ZM509 349C509 209 450 132 359 132C267 132 207 210 207 351C207 491 266 568 358 568C448 568 509 490 509 349ZM405 748 560 848H366L281 748Z" glyph-name="Oacute" horiz-adv-x="716" unicode="&#211;" /><glyph d="M680 351C680 576 550 712 359 712C166 712 36 574 36 349C36 125 166 -12 357 -12C549 -12 680 126 680 351ZM509 349C509 209 450 132 359 132C267 132 207 210 207 351C207 491 266 568 358 568C448 568 509 490 509 349ZM359 826C320 826 295 843 287 869H204C211 797 262 743 357 743C452 743 505 797 512 869H429C421 843 398 826 359 826Z" glyph-name="Obreve" horiz-adv-x="716" unicode="&#334;" /><glyph d="M680 351C680 576 550 712 359 712C166 712 36 574 36 349C36 125 166 -12 357 -12C549 -12 680 126 680 351ZM509 349C509 209 450 132 359 132C267 132 207 210 207 351C207 491 266 568 358 568C448 568 509 490 509 349ZM357 791 417 748H522L426 855H290L194 748H298Z" glyph-name="Ocircumflex" horiz-adv-x="716" unicode="&#212;" /><glyph d="M680 351C680 576 550 712 359 712C166 712 36 574 36 349C36 125 166 -12 357 -12C549 -12 680 126 680 351ZM509 349C509 209 450 132 359 132C267 132 207 210 207 351C207 491 266 568 358 568C448 568 509 490 509 349ZM327 748V859H204V748ZM512 748V859H389V748Z" glyph-name="Odieresis" horiz-adv-x="716" unicode="&#214;" /><glyph d="M680 351C680 576 550 712 359 712C166 712 36 574 36 349C36 125 166 -12 357 -12C549 -12 680 126 680 351ZM509 349C509 209 450 132 359 132C267 132 207 210 207 351C207 491 266 568 358 568C448 568 509 490 509 349ZM311 748H435L350 848H156Z" glyph-name="Ograve" horiz-adv-x="716" unicode="&#210;" /><glyph d="M357 -12C549 -12 680 126 680 351C680 480 635 577 558 636C639 654 683 704 683 776C683 802 677 829 667 853L559 823C564 809 567 796 567 781C567 731 527 706 441 706C414 706 386 708 359 708C166 708 36 573 36 349C36 125 166 -12 357 -12ZM509 349C509 209 450 132 359 132C267 132 207 210 207 351C207 491 266 567 358 567C448 567 509 490 509 349Z" glyph-name="Ohorn" horiz-adv-x="716" unicode="&#416;" /><glyph d="M680 351C680 576 550 712 359 712C166 712 36 574 36 349C36 125 166 -12 357 -12C549 -12 680 126 680 351ZM509 349C509 209 450 132 359 132C267 132 207 210 207 351C207 491 266 568 358 568C448 568 509 490 509 349ZM308 748 448 848H305L213 748ZM480 748 621 848H478L386 748Z" glyph-name="Ohungarumlaut" horiz-adv-x="716" unicode="&#336;" /><glyph d="M680 351C680 576 550 712 359 712C166 712 36 574 36 349C36 125 166 -12 357 -12C549 -12 680 126 680 351ZM509 349C509 209 450 132 359 132C267 132 207 210 207 351C207 491 266 568 358 568C448 568 509 490 509 349ZM516 752V832H200V752Z" glyph-name="Omacron" horiz-adv-x="716" unicode="&#332;" /><glyph d="M206 351C206 492 265 569 358 569C385 569 409 562 430 549L228 222C214 256 206 299 206 351ZM359 131C331 131 306 138 284 152L487 481C502 446 511 402 511 349C511 208 451 131 359 131ZM357 -12C549 -12 680 126 680 351C680 462 648 552 593 614L689 751H562L512 677C468 700 416 712 359 712C166 712 36 574 36 349C36 238 68 149 123 86L27 -51H154L204 23C248 0 300 -12 357 -12Z" glyph-name="Oslash" horiz-adv-x="716" unicode="&#216;" /><glyph d="M206 351C206 492 265 569 358 569C385 569 409 562 430 549L228 222C214 256 206 299 206 351ZM359 131C331 131 306 138 284 152L487 481C502 446 511 402 511 349C511 208 451 131 359 131ZM357 -12C549 -12 680 126 680 351C680 462 648 552 593 614L689 751H562L512 677C468 700 416 712 359 712C166 712 36 574 36 349C36 238 68 149 123 86L27 -51H154L204 23C248 0 300 -12 357 -12ZM405 748 560 848H366L281 748Z" glyph-name="Oslashacute" horiz-adv-x="716" unicode="&#510;" /><glyph d="M680 351C680 576 550 712 359 712C166 712 36 574 36 349C36 125 166 -12 357 -12C549 -12 680 126 680 351ZM509 349C509 209 450 132 359 132C267 132 207 210 207 351C207 491 266 568 358 568C448 568 509 490 509 349ZM250 742C267 780 280 788 298 788C314 788 329 782 361 767C400 748 419 743 443 743C483 743 518 768 546 856L475 876C458 838 445 830 427 830C411 830 396 836 364 851C325 870 306 875 282 875C242 875 207 850 179 762Z" glyph-name="Otilde" horiz-adv-x="716" unicode="&#213;" /><glyph d="M232 0V197H296C480 197 597 278 597 457C597 620 493 700 298 700H65V0ZM232 332V562H297C389 562 429 527 429 450C429 372 387 332 294 332Z" glyph-name="P" horiz-adv-x="618" unicode="P" /><glyph d="M720 -72 585 82C645 144 680 237 680 352C680 575 550 712 359 712C166 712 36 573 36 350C36 127 166 -9 357 -9C388 -9 418 -5 445 2L509 -72ZM509 349C509 209 450 132 359 132C267 132 207 210 207 351C207 491 266 568 358 568C448 568 509 490 509 349Z" glyph-name="Q" horiz-adv-x="716" unicode="Q" /><glyph d="M230 362V565H323C408 565 445 529 445 469C445 401 396 362 311 362ZM230 232H261C313 232 343 214 374 165L474 0H670L549 185C514 240 490 264 446 282C530 308 616 365 616 491C616 626 527 700 333 700H65V0H230Z" glyph-name="R" horiz-adv-x="671" unicode="R" /><glyph d="M230 362V565H323C408 565 445 529 445 469C445 401 396 362 311 362ZM230 232H261C313 232 343 214 374 165L474 0H670L549 185C514 240 490 264 446 282C530 308 616 365 616 491C616 626 527 700 333 700H65V0H230ZM376 741 531 841H337L252 741Z" glyph-name="Racute" horiz-adv-x="671" unicode="&#340;" /><glyph d="M230 362V565H323C408 565 445 529 445 469C445 401 396 362 311 362ZM230 232H261C313 232 343 214 374 165L474 0H670L549 185C514 240 490 264 446 282C530 308 616 365 616 491C616 626 527 700 333 700H65V0H230ZM330 805 270 848H165L261 741H397L493 848H389Z" glyph-name="Rcaron" horiz-adv-x="671" unicode="&#344;" /><glyph d="M577 212C577 335 508 386 340 431C235 462 216 480 216 513C216 546 243 570 302 570C373 570 449 549 505 523L546 661C482 689 402 709 311 709C147 709 52 628 52 498C52 380 122 331 287 287C387 255 414 234 414 195C414 156 382 130 306 130C219 130 132 157 65 187L25 50C101 15 195 -10 299 -10C476 -10 577 67 577 212Z" glyph-name="S" horiz-adv-x="608" unicode="S" /><glyph d="M577 212C577 335 508 386 340 431C235 462 216 480 216 513C216 546 243 570 302 570C373 570 449 549 505 523L546 661C482 689 402 709 311 709C147 709 52 628 52 498C52 380 122 331 287 287C387 255 414 234 414 195C414 156 382 130 306 130C219 130 132 157 65 187L25 50C101 15 195 -10 299 -10C476 -10 577 67 577 212ZM360 748 515 848H321L236 748Z" glyph-name="Sacute" horiz-adv-x="608" unicode="&#346;" /><glyph d="M577 212C577 335 508 386 340 431C235 462 216 480 216 513C216 546 243 570 302 570C373 570 449 549 505 523L546 661C482 689 402 709 311 709C147 709 52 628 52 498C52 380 122 331 287 287C387 255 414 234 414 195C414 156 382 130 306 130C219 130 132 157 65 187L25 50C101 15 195 -10 299 -10C476 -10 577 67 577 212ZM314 812 254 855H149L245 748H381L477 855H373Z" glyph-name="Scaron" horiz-adv-x="608" unicode="&#352;" /><glyph d="M577 212C577 335 508 386 340 431C235 462 216 480 216 513C216 546 243 570 302 570C373 570 449 549 505 523L546 661C482 689 402 709 311 709C147 709 52 628 52 498C52 380 122 331 287 287C387 255 414 234 414 195C414 156 382 130 306 130C219 130 132 157 65 187L25 50C101 15 195 -10 299 -10C476 -10 577 67 577 212ZM312 791 372 748H477L381 855H245L149 748H253Z" glyph-name="Scircumflex" horiz-adv-x="608" unicode="&#348;" /><glyph d="M401 0V550H611V700H23V550H233V0Z" glyph-name="T" horiz-adv-x="635" unicode="T" /><glyph d="M519 262V376H401V550H611V700H23V550H233V376H115V262H233V0H401V262Z" glyph-name="Tbar" horiz-adv-x="635" unicode="&#358;" /><glyph d="M401 0V550H611V700H23V550H233V0ZM318 805 258 848H153L249 741H385L481 848H377Z" glyph-name="Tcaron" horiz-adv-x="635" unicode="&#356;" /><glyph d="M232 0V103H296C480 103 597 183 597 362C597 525 493 605 298 605H232V700H65V0ZM232 237V468H297C389 468 429 433 429 356C429 277 387 237 294 237Z" glyph-name="Thorn" horiz-adv-x="628" unicode="&#222;" /><glyph d="M638 277V700H472V269C472 171 420 132 349 132C278 132 226 171 226 269V700H57V276C57 73 176 -11 347 -11C518 -11 638 73 638 277Z" glyph-name="U" horiz-adv-x="695" unicode="U" /><glyph d="M638 277V700H472V269C472 171 420 132 349 132C278 132 226 171 226 269V700H57V276C57 73 176 -11 347 -11C518 -11 638 73 638 277ZM395 738 550 838H356L271 738Z" glyph-name="Uacute" horiz-adv-x="695" unicode="&#218;" /><glyph d="M638 277V700H472V269C472 171 420 132 349 132C278 132 226 171 226 269V700H57V276C57 73 176 -11 347 -11C518 -11 638 73 638 277ZM349 816C310 816 285 833 277 859H194C201 787 252 733 347 733C442 733 495 787 502 859H419C411 833 388 816 349 816Z" glyph-name="Ubreve" horiz-adv-x="695" unicode="&#364;" /><glyph d="M638 277V700H472V269C472 171 420 132 349 132C278 132 226 171 226 269V700H57V276C57 73 176 -11 347 -11C518 -11 638 73 638 277ZM347 784 407 741H512L416 848H280L184 741H288Z" glyph-name="Ucircumflex" horiz-adv-x="695" unicode="&#219;" /><glyph d="M638 277V700H472V269C472 171 420 132 349 132C278 132 226 171 226 269V700H57V276C57 73 176 -11 347 -11C518 -11 638 73 638 277ZM317 741V852H194V741ZM502 741V852H379V741Z" glyph-name="Udieresis" horiz-adv-x="695" unicode="&#220;" /><glyph d="M638 277V700H472V269C472 171 420 132 349 132C278 132 226 171 226 269V700H57V276C57 73 176 -11 347 -11C518 -11 638 73 638 277ZM301 738H425L340 838H146Z" glyph-name="Ugrave" horiz-adv-x="695" unicode="&#217;" /><glyph d="M347 -11C518 -11 638 73 638 277V638C711 663 749 712 749 776C749 802 743 829 733 853L625 823C630 809 633 796 633 781C633 728 589 700 499 700H472V269C472 171 420 132 349 132C278 132 226 171 226 269V700H57V276C57 73 176 -11 347 -11Z" glyph-name="Uhorn" horiz-adv-x="727" unicode="&#431;" /><glyph d="M638 277V700H472V269C472 171 420 132 349 132C278 132 226 171 226 269V700H57V276C57 73 176 -11 347 -11C518 -11 638 73 638 277ZM298 741 438 841H295L203 741ZM470 741 611 841H468L376 741Z" glyph-name="Uhungarumlaut" horiz-adv-x="695" unicode="&#368;" /><glyph d="M638 277V700H472V269C472 171 420 132 349 132C278 132 226 171 226 269V700H57V276C57 73 176 -11 347 -11C518 -11 638 73 638 277ZM506 745V825H190V745Z" glyph-name="Umacron" horiz-adv-x="695" unicode="&#362;" /><glyph d="M442 -151 451 -86C397 -73 389 -68 389 -54C389 -46 392 -38 413 -6C548 14 638 100 638 277V700H472V269C472 171 420 132 349 132C278 132 226 171 226 269V700H57V276C57 88 159 2 311 -10C267 -43 255 -61 255 -82C255 -124 304 -144 442 -151Z" glyph-name="Uogonek" horiz-adv-x="695" unicode="&#370;" /><glyph d="M638 277V700H472V269C472 171 420 132 349 132C278 132 226 171 226 269V700H57V276C57 73 176 -11 347 -11C518 -11 638 73 638 277ZM233 837C233 777 281 732 348 732C414 732 463 777 463 837C463 897 415 942 348 942C282 942 233 897 233 837ZM279 837C279 875 307 902 348 902C389 902 417 875 417 837C417 799 389 772 348 772C307 772 279 799 279 837Z" glyph-name="Uring" horiz-adv-x="695" unicode="&#366;" /><glyph d="M638 277V700H472V269C472 171 420 132 349 132C278 132 226 171 226 269V700H57V276C57 73 176 -11 347 -11C518 -11 638 73 638 277ZM240 735C257 773 270 781 288 781C304 781 319 775 351 760C390 741 409 736 433 736C473 736 508 761 536 849L465 869C448 831 435 823 417 823C401 823 386 829 354 844C315 863 296 868 272 868C232 868 197 843 169 755Z" glyph-name="Utilde" horiz-adv-x="695" unicode="&#360;" /><glyph d="M439 -4 679 700H500L348 200L195 700H13L254 -4Z" glyph-name="V" horiz-adv-x="692" unicode="V" /><glyph d="M648 -3H832L1010 700H839L735 218L608 700H427L297 218L194 700H17L195 -3H378L513 481Z" glyph-name="W" horiz-adv-x="1027" unicode="W" /><glyph d="M648 -3H832L1010 700H839L735 218L608 700H427L297 218L194 700H17L195 -3H378L513 481ZM560 741 715 841H521L436 741Z" glyph-name="Wacute" horiz-adv-x="1027" unicode="&#7810;" /><glyph d="M648 -3H832L1010 700H839L735 218L608 700H427L297 218L194 700H17L195 -3H378L513 481ZM512 784 572 741H677L581 848H445L349 741H453Z" glyph-name="Wcircumflex" horiz-adv-x="1027" unicode="&#372;" /><glyph d="M648 -3H832L1010 700H839L735 218L608 700H427L297 218L194 700H17L195 -3H378L513 481ZM482 741V852H359V741ZM667 741V852H544V741Z" glyph-name="Wdieresis" horiz-adv-x="1027" unicode="&#7812;" /><glyph d="M648 -3H832L1010 700H839L735 218L608 700H427L297 218L194 700H17L195 -3H378L513 481ZM466 741H590L505 841H311Z" glyph-name="Wgrave" horiz-adv-x="1027" unicode="&#7808;" /><glyph d="M469 0H658L437 360L648 700H463L335 480L208 700H21L232 361L11 0H197L334 235Z" glyph-name="X" horiz-adv-x="669" unicode="X" /><glyph d="M412 0V256L652 700H473L330 415L186 700H4L244 256V0Z" glyph-name="Y" horiz-adv-x="656" unicode="Y" /><glyph d="M412 0V256L652 700H473L330 415L186 700H4L244 256V0ZM375 738 530 838H336L251 738Z" glyph-name="Yacute" horiz-adv-x="656" unicode="&#221;" /><glyph d="M412 0V256L652 700H473L330 415L186 700H4L244 256V0ZM327 784 387 741H492L396 848H260L164 741H268Z" glyph-name="Ycircumflex" horiz-adv-x="656" unicode="&#374;" /><glyph d="M412 0V256L652 700H473L330 415L186 700H4L244 256V0ZM297 741V852H174V741ZM482 741V852H359V741Z" glyph-name="Ydieresis" horiz-adv-x="656" unicode="&#376;" /><glyph d="M412 0V256L652 700H473L330 415L186 700H4L244 256V0ZM281 738H405L320 838H126Z" glyph-name="Ygrave" horiz-adv-x="656" unicode="&#7922;" /><glyph d="M582 0V142H240L582 560V700H51V558H376L34 140V0Z" glyph-name="Z" horiz-adv-x="619" unicode="Z" /><glyph d="M582 0V142H240L582 560V700H51V558H376L34 140V0ZM360 741 515 841H321L236 741Z" glyph-name="Zacute" horiz-adv-x="619" unicode="&#377;" /><glyph d="M582 0V142H240L582 560V700H51V558H376L34 140V0ZM314 805 254 848H149L245 741H381L477 848H373Z" glyph-name="Zcaron" horiz-adv-x="619" unicode="&#381;" /><glyph d="M582 0V142H240L582 560V700H51V558H376L34 140V0ZM377 741V852H249V741Z" glyph-name="Zdotaccent" horiz-adv-x="619" unicode="&#379;" /><glyph d="M248 94C202 94 173 116 173 165C173 187 178 204 189 215C204 230 225 237 271 237C295 237 317 235 339 232V122C312 106 279 94 248 94ZM349 48 370 0H507L494 107V345C494 481 424 537 275 537C194 537 124 519 63 496L95 379C145 400 197 413 249 413C315 413 339 385 339 336V312C310 317 276 321 240 321C153 321 103 304 70 271C43 244 28 205 28 158C28 47 95 -9 190 -9C255 -9 303 12 349 48Z" glyph-name="a" horiz-adv-x="548" unicode="a" /><glyph d="M248 94C202 94 173 116 173 165C173 187 178 204 189 215C204 230 225 237 271 237C295 237 317 235 339 232V122C312 106 279 94 248 94ZM349 48 370 0H507L494 107V345C494 481 424 537 275 537C194 537 124 519 63 496L95 379C145 400 197 413 249 413C315 413 339 385 339 336V312C310 317 276 321 240 321C153 321 103 304 70 271C43 244 28 205 28 158C28 47 95 -9 190 -9C255 -9 303 12 349 48ZM307 584 467 699H285L205 584Z" glyph-name="aacute" horiz-adv-x="548" unicode="&#225;" /><glyph d="M248 94C202 94 173 116 173 165C173 187 178 204 189 215C204 230 225 237 271 237C295 237 317 235 339 232V122C312 106 279 94 248 94ZM349 48 370 0H507L494 107V345C494 481 424 537 275 537C194 537 124 519 63 496L95 379C145 400 197 413 249 413C315 413 339 385 339 336V312C310 317 276 321 240 321C153 321 103 304 70 271C43 244 28 205 28 158C28 47 95 -9 190 -9C255 -9 303 12 349 48ZM276 663C235 663 213 683 205 710H130C135 636 183 579 274 579C365 579 415 636 420 710H345C337 683 317 663 276 663Z" glyph-name="abreve" horiz-adv-x="548" unicode="&#259;" /><glyph d="M248 94C202 94 173 116 173 165C173 187 178 204 189 215C204 230 225 237 271 237C295 237 317 235 339 232V122C312 106 279 94 248 94ZM349 48 370 0H507L494 107V345C494 481 424 537 275 537C194 537 124 519 63 496L95 379C145 400 197 413 249 413C315 413 339 385 339 336V312C310 317 276 321 240 321C153 321 103 304 70 271C43 244 28 205 28 158C28 47 95 -9 190 -9C255 -9 303 12 349 48ZM274 635 335 584H429L331 704H219L121 584H213Z" glyph-name="acircumflex" horiz-adv-x="548" unicode="&#226;" /><glyph d="M282 581 442 696H260L180 581Z" glyph-name="acute" horiz-adv-x="500" unicode="&#180;" /><glyph d="M47 741 202 841H8L-77 741Z" glyph-name="acute.cap" horiz-adv-x="0" /><glyph d="M248 94C202 94 173 116 173 165C173 187 178 204 189 215C204 230 225 237 271 237C295 237 317 235 339 232V122C312 106 279 94 248 94ZM349 48 370 0H507L494 107V345C494 481 424 537 275 537C194 537 124 519 63 496L95 379C145 400 197 413 249 413C315 413 339 385 339 336V312C310 317 276 321 240 321C153 321 103 304 70 271C43 244 28 205 28 158C28 47 95 -9 190 -9C255 -9 303 12 349 48ZM245 585V700H129V585ZM421 585V700H305V585Z" glyph-name="adieresis" horiz-adv-x="548" unicode="&#228;" /><glyph d="M480 305C486 378 519 423 573 423C628 423 660 378 665 305ZM595 -10C662 -10 733 8 792 40L757 142C709 118 654 104 609 104C531 104 487 144 480 212H811V254C811 434 718 540 586 540C521 540 469 517 433 476C406 516 357 537 274 537C194 537 124 519 63 496L95 379C145 400 197 413 249 413C315 413 339 385 339 336V312C310 317 276 321 240 321C153 321 103 304 70 271C43 244 28 205 28 158C28 46 103 -9 210 -9C277 -9 344 14 406 55C452 11 517 -10 595 -10ZM249 96C204 96 173 118 173 165C173 187 178 204 189 215C204 230 225 237 271 237C293 237 314 235 335 232C337 194 345 160 356 131C319 108 281 96 249 96Z" glyph-name="ae" horiz-adv-x="838" unicode="&#230;" /><glyph d="M480 305C486 378 519 423 573 423C628 423 660 378 665 305ZM595 -10C662 -10 733 8 792 40L757 142C709 118 654 104 609 104C531 104 487 144 480 212H811V254C811 434 718 540 586 540C521 540 469 517 433 476C406 516 357 537 274 537C194 537 124 519 63 496L95 379C145 400 197 413 249 413C315 413 339 385 339 336V312C310 317 276 321 240 321C153 321 103 304 70 271C43 244 28 205 28 158C28 46 103 -9 210 -9C277 -9 344 14 406 55C452 11 517 -10 595 -10ZM249 96C204 96 173 118 173 165C173 187 178 204 189 215C204 230 225 237 271 237C293 237 314 235 335 232C337 194 345 160 356 131C319 108 281 96 249 96ZM462 581 622 696H440L360 581Z" glyph-name="aeacute" horiz-adv-x="838" unicode="&#509;" /><glyph d="M248 94C202 94 173 116 173 165C173 187 178 204 189 215C204 230 225 237 271 237C295 237 317 235 339 232V122C312 106 279 94 248 94ZM349 48 370 0H507L494 107V345C494 481 424 537 275 537C194 537 124 519 63 496L95 379C145 400 197 413 249 413C315 413 339 385 339 336V312C310 317 276 321 240 321C153 321 103 304 70 271C43 244 28 205 28 158C28 47 95 -9 190 -9C255 -9 303 12 349 48ZM243 584H345L265 699H83Z" glyph-name="agrave" horiz-adv-x="548" unicode="&#224;" /><glyph d="M248 94C202 94 173 116 173 165C173 187 178 204 189 215C204 230 225 237 271 237C295 237 317 235 339 232V122C312 106 279 94 248 94ZM349 48 370 0H507L494 107V345C494 481 424 537 275 537C194 537 124 519 63 496L95 379C145 400 197 413 249 413C315 413 339 385 339 336V312C310 317 276 321 240 321C153 321 103 304 70 271C43 244 28 205 28 158C28 47 95 -9 190 -9C255 -9 303 12 349 48ZM417 590V665H133V590Z" glyph-name="amacron" horiz-adv-x="548" unicode="&#257;" /><glyph d="M253 126C212 126 180 155 180 206C180 241 197 280 243 316L352 172C317 138 288 126 253 126ZM487 0H665L535 173C590 249 618 317 641 398H490C479 358 465 322 446 289L320 452C301 478 291 496 291 519C291 548 311 567 348 567C389 567 439 549 491 520L536 659C471 691 408 708 330 708C199 708 124 641 124 543C124 497 139 460 168 415C74 360 24 284 24 190C24 63 109 -10 230 -10C310 -10 377 18 433 68Z" glyph-name="ampersand" horiz-adv-x="673" unicode="&amp;" /><glyph d="M248 94C202 94 173 116 173 165C173 187 178 204 189 215C204 230 225 237 271 237C295 237 317 235 339 232V122C312 106 279 94 248 94ZM524 -86C470 -73 462 -68 462 -54C462 -46 466 -37 490 0H507L494 107V345C494 481 424 537 275 537C194 537 124 519 63 496L95 379C145 400 197 413 249 413C315 413 339 385 339 336V312C310 317 276 321 240 321C153 321 103 304 70 271C43 244 28 205 28 158C28 47 95 -9 190 -9C255 -9 303 12 349 48L370 0H396C343 -40 328 -59 328 -82C328 -124 377 -144 515 -151Z" glyph-name="aogonek" horiz-adv-x="548" unicode="&#261;" /><glyph d="M428 558C402 503 386 487 362 487C344 487 327 494 285 519C237 547 213 557 183 557C133 557 96 523 52 407L132 372C157 421 172 436 194 436C212 436 229 429 271 404C319 376 343 365 373 365C425 365 466 399 512 523ZM432 341C408 292 392 277 370 277C352 277 335 284 293 309C245 337 222 348 191 348C140 348 99 314 52 190L136 155C162 210 178 226 203 226C221 226 238 219 280 194C328 166 351 156 382 156C431 156 469 190 512 306Z" glyph-name="approxequal" horiz-adv-x="564" unicode="&#8776;" /><glyph d="M248 94C202 94 173 116 173 165C173 187 178 204 189 215C204 230 225 237 271 237C295 237 317 235 339 232V122C312 106 279 94 248 94ZM349 48 370 0H507L494 107V345C494 481 424 537 275 537C194 537 124 519 63 496L95 379C145 400 197 413 249 413C315 413 339 385 339 336V312C310 317 276 321 240 321C153 321 103 304 70 271C43 244 28 205 28 158C28 47 95 -9 190 -9C255 -9 303 12 349 48ZM167 681C167 623 212 578 275 578C338 578 383 623 383 681C383 739 338 784 275 784C212 784 167 739 167 681ZM212 681C212 718 240 744 275 744C310 744 338 718 338 681C338 645 310 618 275 618C240 618 212 645 212 681Z" glyph-name="aring" horiz-adv-x="548" unicode="&#229;" /><glyph d="M248 94C202 94 173 116 173 165C173 187 178 204 189 215C204 230 225 237 271 237C295 237 317 235 339 232V122C312 106 279 94 248 94ZM349 48 370 0H507L494 107V345C494 481 424 537 275 537C194 537 124 519 63 496L95 379C145 400 197 413 249 413C315 413 339 385 339 336V312C310 317 276 321 240 321C153 321 103 304 70 271C43 244 28 205 28 158C28 47 95 -9 190 -9C255 -9 303 12 349 48ZM445 889H273L208 800H311ZM167 676C167 621 212 578 275 578C338 578 383 621 383 676C383 732 338 774 275 774C212 774 167 732 167 676ZM212 676C212 711 240 735 275 735C310 735 338 711 338 676C338 642 310 618 275 618C240 618 212 642 212 676Z" glyph-name="aringacute" horiz-adv-x="548" unicode="&#507;" /><glyph d="M48 407H182L282 605L382 407H516L356 717H209Z" glyph-name="asciicircum" horiz-adv-x="564" unicode="^" /><glyph d="M430 457C405 402 390 385 368 385C349 385 332 392 288 418C238 446 212 457 181 457C131 457 91 418 46 289L134 256C160 311 174 328 196 328C215 328 232 321 277 295C326 267 352 256 383 256C433 256 473 295 518 424Z" glyph-name="asciitilde" horiz-adv-x="564" unicode="~" /><glyph d="M177 594 211 702H123L157 594ZM198 565 310 568 283 649 191 584ZM137 565 143 584 51 649 24 568ZM212 430 282 481 192 549 175 537ZM122 430 160 537 143 549 53 481Z" glyph-name="asterisk" horiz-adv-x="335" unicode="*" /><glyph d="M383 -150C434 -150 478 -143 518 -132L506 -62C471 -71 430 -78 395 -78C230 -78 125 9 125 202C125 439 278 632 452 632C530 632 569 596 569 531C569 521 568 511 566 499C550 502 533 504 517 504C351 504 251 383 251 230C251 120 311 63 384 63C425 63 459 78 499 109L520 64H601L681 401C691 447 698 484 698 526C698 642 628 717 473 717C241 717 37 498 37 198C37 -29 162 -150 383 -150ZM447 163C411 163 383 190 383 243C383 330 439 408 522 408C530 408 538 407 546 406L490 173C476 166 462 163 447 163Z" glyph-name="at" horiz-adv-x="727" unicode="@" /><glyph d="M248 94C202 94 173 116 173 165C173 187 178 204 189 215C204 230 225 237 271 237C295 237 317 235 339 232V122C312 106 279 94 248 94ZM349 48 370 0H507L494 107V345C494 481 424 537 275 537C194 537 124 519 63 496L95 379C145 400 197 413 249 413C315 413 339 385 339 336V312C310 317 276 321 240 321C153 321 103 304 70 271C43 244 28 205 28 158C28 47 95 -9 190 -9C255 -9 303 12 349 48ZM172 578C189 617 200 626 218 626C233 626 246 620 278 604C316 585 333 579 356 579C395 579 426 607 455 697L388 716C370 677 359 668 342 668C327 668 313 674 281 690C244 709 226 715 203 715C165 715 132 687 105 597Z" glyph-name="atilde" horiz-adv-x="548" unicode="&#227;" /><glyph d="M337 -10C457 -10 545 86 545 264C545 444 459 537 343 537C290 537 247 516 214 489V724H56V0H179L200 43C235 15 277 -10 337 -10ZM293 119C264 119 237 129 214 144V378C235 394 264 409 295 409C356 409 394 361 394 264C394 165 355 119 293 119Z" glyph-name="b" horiz-adv-x="577" unicode="b" /><glyph d="M306 -130H419L101 795H-12Z" glyph-name="backslash" horiz-adv-x="395" unicode="\" /><glyph d="M301 -114H414L96 811H-17Z" glyph-name="backslash.cap" horiz-adv-x="395" /><glyph d="M204 -130V795H98V-130Z" glyph-name="bar" horiz-adv-x="303" unicode="|" /><glyph d="M204 -114V811H98V-114Z" glyph-name="bar.cap" horiz-adv-x="303" /><glyph d="M503 -115 515 -21C431 -14 357 1 301 17C345 43 379 78 379 135C379 222 298 271 188 304C298 337 379 386 379 473C379 530 345 565 301 591C357 607 431 622 515 629L503 723C370 710 242 678 155 644L143 567C194 543 227 512 227 470C227 408 172 365 31 343V265C172 243 227 200 227 138C227 96 194 65 143 41L155 -36C242 -70 370 -102 503 -115Z" glyph-name="braceleft" horiz-adv-x="547" unicode="{" /><glyph d="M503 -70 515 24C431 31 357 46 301 62C345 88 379 123 379 180C379 267 298 316 188 349C298 382 379 431 379 518C379 575 345 610 301 636C357 652 431 667 515 674L503 768C370 755 242 723 155 689L143 612C194 588 227 557 227 515C227 453 172 410 31 388V310C172 288 227 245 227 183C227 141 194 110 143 86L155 9C242 -25 370 -57 503 -70Z" glyph-name="braceleft.cap" horiz-adv-x="547" /><glyph d="M44 -115C177 -102 305 -70 392 -36L404 41C353 65 320 96 320 138C320 200 375 243 516 265V343C375 365 320 408 320 470C320 512 353 543 404 567L392 644C305 678 177 710 44 723L31 629C115 622 190 607 245 591C201 565 168 530 168 473C168 386 248 337 359 304C248 271 168 222 168 135C168 78 201 43 245 17C190 1 115 -14 31 -21Z" glyph-name="braceright" horiz-adv-x="547" unicode="}" /><glyph d="M44 -70C177 -57 305 -25 392 9L404 86C353 110 320 141 320 183C320 245 375 288 516 310V388C375 410 320 453 320 515C320 557 353 588 404 612L392 689C305 723 177 755 44 768L31 674C115 667 190 652 245 636C201 610 168 575 168 518C168 431 248 382 359 349C248 316 168 267 168 180C168 123 201 88 245 62C190 46 115 31 31 24Z" glyph-name="braceright.cap" horiz-adv-x="547" /><glyph d="M374 -91V-3L200 -11V619L374 611V699L69 717V-109Z" glyph-name="bracketleft" horiz-adv-x="408" unicode="[" /><glyph d="M374 -46V42L200 34V664L374 656V744L69 762V-64Z" glyph-name="bracketleft.cap" horiz-adv-x="408" /><glyph d="M339 -109V717L34 699V611L208 619V-11L34 -3V-91Z" glyph-name="bracketright" horiz-adv-x="408" unicode="]" /><glyph d="M339 -64V762L34 744V656L208 664V34L34 42V-46Z" glyph-name="bracketright.cap" horiz-adv-x="408" /><glyph d="M251 660C210 660 188 680 180 707H105C110 633 158 576 249 576C340 576 390 633 395 707H320C312 680 292 660 251 660Z" glyph-name="breve" horiz-adv-x="500" unicode="&#728;" /><glyph d="M1 819C-38 819 -63 836 -71 862H-154C-147 790 -96 736 -1 736C94 736 147 790 154 862H71C63 836 40 819 1 819Z" glyph-name="breve.cap" horiz-adv-x="0" /><glyph d="M80 355C80 270 149 201 234 201C320 201 389 270 389 355C389 440 320 509 234 509C149 509 80 440 80 355Z" glyph-name="bullet" horiz-adv-x="469" unicode="&#8226;" /><glyph d="M448 30 417 157C376 139 339 126 300 126C223 126 180 178 180 265C180 345 224 401 298 401C340 401 380 388 413 372L445 506C398 525 350 538 289 538C131 538 30 429 30 264C30 96 126 -10 279 -10C343 -10 400 7 448 30Z" glyph-name="c" horiz-adv-x="470" unicode="c" /><glyph d="M448 30 417 157C376 139 339 126 300 126C223 126 180 178 180 265C180 345 224 401 298 401C340 401 380 388 413 372L445 506C398 525 350 538 289 538C131 538 30 429 30 264C30 96 126 -10 279 -10C343 -10 400 7 448 30ZM307 584 467 699H285L205 584Z" glyph-name="cacute" horiz-adv-x="470" unicode="&#263;" /><glyph d="M251 650 190 701H96L194 581H306L404 701H312Z" glyph-name="caron" horiz-adv-x="500" unicode="&#711;" /><glyph d="M1 805 -59 848H-164L-68 741H68L164 848H60Z" glyph-name="caron.cap" horiz-adv-x="0" /><glyph d="M448 30 417 157C376 139 339 126 300 126C223 126 180 178 180 265C180 345 224 401 298 401C340 401 380 388 413 372L445 506C398 525 350 538 289 538C131 538 30 429 30 264C30 96 126 -10 279 -10C343 -10 400 7 448 30ZM276 653 215 704H121L219 584H331L429 704H337Z" glyph-name="ccaron" horiz-adv-x="470" unicode="&#269;" /><glyph d="M390 -87C390 -52 358 -33 288 -35L320 -8C367 -2 410 12 448 30L417 157C376 139 339 126 300 126C223 126 180 178 180 265C180 345 224 401 298 401C340 401 380 388 413 372L445 506C398 525 350 538 289 538C131 538 30 429 30 264C30 116 105 16 227 -6L178 -57L201 -85C237 -76 259 -81 259 -94C259 -108 238 -117 157 -122L161 -169C330 -167 390 -133 390 -87Z" glyph-name="ccedilla" horiz-adv-x="470" unicode="&#231;" /><glyph d="M448 30 417 157C376 139 339 126 300 126C223 126 180 178 180 265C180 345 224 401 298 401C340 401 380 388 413 372L445 506C398 525 350 538 289 538C131 538 30 429 30 264C30 96 126 -10 279 -10C343 -10 400 7 448 30ZM274 635 335 584H429L331 704H219L121 584H213Z" glyph-name="ccircumflex" horiz-adv-x="470" unicode="&#265;" /><glyph d="M448 30 417 157C376 139 339 126 300 126C223 126 180 178 180 265C180 345 224 401 298 401C340 401 380 388 413 372L445 506C398 525 350 538 289 538C131 538 30 429 30 264C30 96 126 -10 279 -10C343 -10 400 7 448 30ZM336 585V700H214V585Z" glyph-name="cdotaccent" horiz-adv-x="470" unicode="&#267;" /><glyph d="M137 -169C306 -167 366 -133 366 -87C366 -52 334 -33 264 -35L314 8L218 10L154 -57L177 -85C213 -76 235 -81 235 -94C235 -108 214 -117 133 -122Z" glyph-name="cedilla" horiz-adv-x="500" unicode="&#184;" /><glyph d="M174 358C174 422 209 468 265 479L231 248C193 268 174 308 174 358ZM448 153 419 266C373 246 335 236 298 235L333 479C362 474 388 465 418 452L449 568C418 581 390 590 359 595L375 704H290L275 601C120 595 34 491 34 358C34 234 101 151 204 125L185 -4H270L288 117C344 119 394 131 448 153Z" glyph-name="cent" horiz-adv-x="480" unicode="&#162;" /><glyph d="M249 632 310 581H404L306 701H194L96 581H188Z" glyph-name="circumflex" horiz-adv-x="500" unicode="&#710;" /><glyph d="M-1 784 59 741H164L68 848H-68L-164 741H-60Z" glyph-name="circumflex.cap" horiz-adv-x="0" /><glyph d="M197 356V528H40V356ZM197 0V172H40V0Z" glyph-name="colon" horiz-adv-x="238" unicode=":" /><glyph d="M199 412V573H40V412ZM199 146V306H40V146Z" glyph-name="colon.fig" horiz-adv-x="240" /><glyph d="M221 412V573H62V412ZM221 146V306H62V146Z" glyph-name="colon.figtab" horiz-adv-x="282" /><glyph d="M220 356V528H62V356ZM220 0V172H62V0Z" glyph-name="colon.tab" horiz-adv-x="282" /><glyph d="M195 172H45C45 29 29 -31 -16 -107L34 -145C142 -55 195 43 195 163Z" glyph-name="comma" horiz-adv-x="228" unicode="," /><glyph d="M223 172H72C72 29 56 -31 11 -107L62 -145C170 -55 223 43 223 163Z" glyph-name="comma.tab" horiz-adv-x="282" /><glyph d="M367 -21C554 -21 694 131 694 350C694 569 554 721 367 721C181 721 41 569 41 350C41 131 181 -21 367 -21ZM367 683C531 683 652 547 652 350C652 153 531 17 367 17C204 17 83 153 83 350C83 547 204 683 367 683ZM504 188 477 269C450 255 425 247 396 247C338 247 302 287 302 354C302 418 337 459 392 459C422 459 451 450 476 436L502 520C469 537 431 548 386 548C278 548 198 476 198 353C198 226 275 158 388 158C429 158 470 169 504 188Z" glyph-name="copyright" horiz-adv-x="735" unicode="&#169;" /><glyph d="M281 119C221 119 183 167 183 263C183 362 222 409 284 409C313 409 340 399 363 383V150C342 133 313 119 281 119ZM374 48 398 0H521V724H363V505C326 525 290 537 246 537C121 537 32 442 32 263C32 84 119 -10 232 -10C296 -10 338 17 374 48Z" glyph-name="d" horiz-adv-x="577" unicode="d" /><glyph d="M184 472 165 561H174L261 541V612L174 591H165L186 702H109L130 591H121L34 612V541L121 561H130L111 472L137 264H159Z" glyph-name="dagger" horiz-adv-x="296" unicode="&#8224;" /><glyph d="M174 354 261 333V404L174 384H165L184 472L165 561H174L261 541V612L174 591H165L186 702H109L130 591H121L34 612V541L121 561H130L111 472L130 384H121L34 404V333L121 354H130L109 243H186L165 354Z" glyph-name="daggerdbl" horiz-adv-x="296" unicode="&#8225;" /><glyph d="M281 119C221 119 183 167 183 263C183 362 222 409 284 409C313 409 340 399 363 383V150C342 133 313 119 281 119ZM374 48 398 0H521V724H363V505C326 525 290 537 246 537C121 537 32 442 32 263C32 84 119 -10 232 -10C296 -10 338 17 374 48ZM668 724H570V688C570 642 566 606 553 569L598 546C643 588 668 631 668 696Z" glyph-name="dcaron" horiz-adv-x="577" unicode="&#271;" /><glyph d="M281 119C221 119 183 165 183 258C183 354 222 398 284 398C313 398 340 388 363 373V150C342 133 313 119 281 119ZM374 48 398 0H521V576H566V664H521V724H363V664H238V576H363V494C326 515 290 526 246 526C121 526 32 433 32 258C32 82 119 -10 232 -10C296 -10 338 17 374 48Z" glyph-name="dcroat" horiz-adv-x="577" unicode="&#273;" /><glyph d="M377 537C377 636 302 709 206 709C109 709 33 635 33 536C33 437 108 363 205 363C301 363 377 438 377 537ZM290 536C290 483 254 444 205 444C156 444 120 484 120 537C120 589 156 629 205 629C254 629 290 588 290 536Z" glyph-name="degree" horiz-adv-x="410" unicode="&#176;" /><glyph d="M220 582V697H104V582ZM396 582V697H280V582Z" glyph-name="dieresis" horiz-adv-x="500" unicode="&#168;" /><glyph d="M-31 741V852H-154V741ZM154 741V852H31V741Z" glyph-name="dieresis.cap" horiz-adv-x="0" /><glyph d="M349 486V609H215V486ZM514 295V414L282 412L50 414V295L282 298ZM349 100V223H215V100Z" glyph-name="divide" horiz-adv-x="564" unicode="&#247;" /><glyph d="M198 506C198 548 233 577 296 578L272 432C218 450 198 472 198 506ZM392 198C392 152 355 124 288 122L313 276C371 257 392 233 392 198ZM260 -110 278 -2C441 0 534 77 534 209C534 313 477 376 336 415L362 573C406 567 448 553 490 534L524 656C480 676 436 689 391 696L405 779H319L306 702C150 702 56 624 56 496C56 394 111 332 250 293L223 126C168 134 114 153 61 180L26 55C77 31 134 13 193 4L174 -110Z" glyph-name="dollar" horiz-adv-x="566" unicode="$" /><glyph d="M192 506C192 548 226 577 292 578L268 431C212 450 192 472 192 506ZM389 199C389 152 351 124 284 122L309 277C368 258 389 234 389 199ZM256 -110 274 -2C439 0 530 77 530 211C530 311 474 376 331 414L357 573C400 567 443 553 485 534L520 656C477 675 433 688 387 695L401 779H315L302 702C142 702 51 623 51 494C51 397 106 332 246 293L219 127C164 135 107 154 55 180L21 55C72 31 130 13 189 4L170 -110Z" glyph-name="dollar.tab" horiz-adv-x="564" /><glyph d="M193 248C193 337 232 378 294 378C323 378 350 368 373 353V151C352 134 323 120 291 120C231 120 193 163 193 248ZM384 49 407 0H531V560H593V636H531V700H373V636H248V560H373V474C336 495 300 506 256 506C131 506 41 416 41 248C41 80 129 -8 242 -8C305 -8 348 18 384 49ZM531 -130V-53H87V-130Z" glyph-name="dong" horiz-adv-x="619" unicode="&#8363;" /><glyph d="M311 582V697H189V582Z" glyph-name="dotaccent" horiz-adv-x="500" unicode="&#729;" /><glyph d="M64 741V852H-64V741Z" glyph-name="dotaccent.cap" horiz-adv-x="0" /><glyph d="M215 0V528H57V0Z" glyph-name="dotlessi" horiz-adv-x="273" unicode="&#305;" /><glyph d="M292 -10C359 -10 430 8 489 40L454 142C406 118 351 104 306 104C228 104 183 144 177 212H508V254C508 434 416 540 271 540C134 540 30 436 30 261C30 73 136 -10 292 -10ZM177 305C183 378 216 423 270 423C325 423 357 378 362 305Z" glyph-name="e" horiz-adv-x="535" unicode="e" /><glyph d="M292 -10C359 -10 430 8 489 40L454 142C406 118 351 104 306 104C228 104 183 144 177 212H508V254C508 434 416 540 271 540C134 540 30 436 30 261C30 73 136 -10 292 -10ZM177 305C183 378 216 423 270 423C325 423 357 378 362 305ZM306 584 466 699H284L204 584Z" glyph-name="eacute" horiz-adv-x="535" unicode="&#233;" /><glyph d="M292 -10C359 -10 430 8 489 40L454 142C406 118 351 104 306 104C228 104 183 144 177 212H508V254C508 434 416 540 271 540C134 540 30 436 30 261C30 73 136 -10 292 -10ZM177 305C183 378 216 423 270 423C325 423 357 378 362 305ZM275 663C234 663 212 683 204 710H129C134 636 182 579 273 579C364 579 414 636 419 710H344C336 683 316 663 275 663Z" glyph-name="ebreve" horiz-adv-x="535" unicode="&#277;" /><glyph d="M292 -10C359 -10 430 8 489 40L454 142C406 118 351 104 306 104C228 104 183 144 177 212H508V254C508 434 416 540 271 540C134 540 30 436 30 261C30 73 136 -10 292 -10ZM177 305C183 378 216 423 270 423C325 423 357 378 362 305ZM275 653 214 704H120L218 584H330L428 704H336Z" glyph-name="ecaron" horiz-adv-x="535" unicode="&#283;" /><glyph d="M292 -10C359 -10 430 8 489 40L454 142C406 118 351 104 306 104C228 104 183 144 177 212H508V254C508 434 416 540 271 540C134 540 30 436 30 261C30 73 136 -10 292 -10ZM177 305C183 378 216 423 270 423C325 423 357 378 362 305ZM273 635 334 584H428L330 704H218L120 584H212Z" glyph-name="ecircumflex" horiz-adv-x="535" unicode="&#234;" /><glyph d="M292 -10C359 -10 430 8 489 40L454 142C406 118 351 104 306 104C228 104 183 144 177 212H508V254C508 434 416 540 271 540C134 540 30 436 30 261C30 73 136 -10 292 -10ZM177 305C183 378 216 423 270 423C325 423 357 378 362 305ZM244 585V700H128V585ZM420 585V700H304V585Z" glyph-name="edieresis" horiz-adv-x="535" unicode="&#235;" /><glyph d="M292 -10C359 -10 430 8 489 40L454 142C406 118 351 104 306 104C228 104 183 144 177 212H508V254C508 434 416 540 271 540C134 540 30 436 30 261C30 73 136 -10 292 -10ZM177 305C183 378 216 423 270 423C325 423 357 378 362 305ZM335 585V700H213V585Z" glyph-name="edotaccent" horiz-adv-x="535" unicode="&#279;" /><glyph d="M292 -10C359 -10 430 8 489 40L454 142C406 118 351 104 306 104C228 104 183 144 177 212H508V254C508 434 416 540 271 540C134 540 30 436 30 261C30 73 136 -10 292 -10ZM177 305C183 378 216 423 270 423C325 423 357 378 362 305ZM242 584H344L264 699H82Z" glyph-name="egrave" horiz-adv-x="535" unicode="&#232;" /><glyph d="M295 -10C458 -10 557 74 557 190C557 276 514 332 434 363C500 393 540 441 540 522C540 623 455 710 295 710C137 710 50 623 50 522C50 441 90 393 157 363C77 332 34 276 34 190C34 74 131 -10 295 -10ZM295 414C239 414 199 448 199 505C199 556 237 592 295 592C354 592 392 556 392 505C392 448 351 414 295 414ZM295 310C360 310 404 272 404 209C404 147 359 109 295 109C231 109 187 147 187 209C187 272 231 310 295 310Z" glyph-name="eight" horiz-adv-x="591" unicode="8" /><glyph d="M207 -6C322 -6 387 45 387 115C387 165 359 198 303 217C350 236 376 266 376 312C376 374 317 427 207 427C98 427 38 374 38 312C38 266 64 236 111 217C55 198 27 165 27 115C27 45 92 -6 207 -6ZM207 253C171 253 145 271 145 301C145 329 168 347 207 347C246 347 269 329 269 301C269 271 244 253 207 253ZM207 74C166 74 138 94 138 127C138 161 165 181 207 181C249 181 277 161 277 127C277 94 249 74 207 74Z" glyph-name="eight.den" horiz-adv-x="415" /><glyph d="M207 273C322 273 387 324 387 394C387 444 359 477 303 496C350 515 376 545 376 591C376 653 317 706 207 706C98 706 38 653 38 591C38 545 64 515 111 496C55 477 27 444 27 394C27 324 92 273 207 273ZM207 532C171 532 145 550 145 580C145 608 168 626 207 626C246 626 269 608 269 580C269 550 244 532 207 532ZM207 353C166 353 138 373 138 406C138 440 165 460 207 460C249 460 277 440 277 406C277 373 249 353 207 353Z" glyph-name="eight.num" horiz-adv-x="415" /><glyph d="M282 -10C439 -10 533 74 533 190C533 275 494 332 413 363C479 393 517 441 517 522C517 623 435 710 282 710C130 710 48 623 48 522C48 441 85 393 151 363C71 332 32 275 32 190C32 74 124 -10 282 -10ZM369 505C369 448 333 414 282 414C232 414 195 448 195 505C195 556 229 592 282 592C335 592 369 556 369 505ZM381 209C381 147 341 109 282 109C224 109 183 147 183 209C183 272 223 310 282 310C341 310 381 272 381 209Z" glyph-name="eight.tab" horiz-adv-x="564" /><glyph d="M631 0V164H479V0ZM409 0V164H257V0ZM187 0V164H35V0Z" glyph-name="ellipsis" horiz-adv-x="666" unicode="&#8230;" /><glyph d="M292 -10C359 -10 430 8 489 40L454 142C406 118 351 104 306 104C228 104 183 144 177 212H508V254C508 434 416 540 271 540C134 540 30 436 30 261C30 73 136 -10 292 -10ZM177 305C183 378 216 423 270 423C325 423 357 378 362 305ZM416 590V665H132V590Z" glyph-name="emacron" horiz-adv-x="535" unicode="&#275;" /><glyph d="M754 238V368H35V238Z" glyph-name="emdash" horiz-adv-x="789" unicode="&#8212;" /><glyph d="M754 294V424H35V294Z" glyph-name="emdash.cap" horiz-adv-x="789" /><glyph d="M443 238V368H35V238Z" glyph-name="endash" horiz-adv-x="478" unicode="&#8211;" /><glyph d="M443 294V424H35V294Z" glyph-name="endash.cap" horiz-adv-x="478" /><glyph d="M405 -182C492 -111 526 -55 526 83V368C526 479 470 537 368 537C301 537 250 509 205 475L180 528H56V0H214V364C241 383 275 398 305 398C347 398 368 375 368 330V86C368 -12 349 -50 295 -108Z" glyph-name="eng" horiz-adv-x="579" unicode="&#331;" /><glyph d="M479 -151 489 -86C435 -73 426 -68 426 -54C426 -43 434 -29 487 47L454 142C406 118 351 104 306 104C228 104 183 144 177 212H508V254C508 434 416 540 271 540C134 540 30 436 30 261C30 73 136 -8 293 -8C313 -8 335 -6 357 -1C307 -40 293 -60 293 -82C293 -124 342 -144 479 -151ZM362 305H177C183 378 216 423 270 423C325 423 357 378 362 305Z" glyph-name="eogonek" horiz-adv-x="535" unicode="&#281;" /><glyph d="M508 403V516H56V403ZM508 193V307H56V193Z" glyph-name="equal" horiz-adv-x="564" unicode="=" /><glyph d="M264 -12C419 -12 512 106 512 306C512 454 474 562 382 637L476 724H350L309 684C273 703 232 718 184 731L118 621C154 610 185 599 211 587L134 510H243L282 546C313 521 333 492 346 453C312 467 275 474 236 474C109 474 30 380 30 234C30 80 123 -12 264 -12ZM265 116C212 116 179 159 179 234C179 312 216 358 274 358C305 358 333 350 364 335C365 322 365 308 365 293C365 173 325 116 265 116Z" glyph-name="eth" horiz-adv-x="546" unicode="&#240;" /><glyph d="M187 220 228 549V700H56V549L97 220ZM222 0V152H61V0Z" glyph-name="exclam" horiz-adv-x="284" unicode="!" /><glyph d="M97 480 56 151V0H228V151L187 480ZM62 700V548H223V700Z" glyph-name="exclamdown" horiz-adv-x="284" unicode="&#161;" /><glyph d="M285 730C149 730 94 664 94 549V515H18V392H94V0H250V392H374V515H249V545C249 586 268 610 314 610C342 610 371 605 397 598L416 712C381 723 335 730 285 730Z" glyph-name="f" horiz-adv-x="391" unicode="f" /><glyph d="M285 730C149 730 94 664 94 549V515H18V392H94V0H250V392H374V515H249V545C249 586 268 610 314 610C339 610 364 606 387 600V719C357 726 321 730 285 730Z" glyph-name="f.lig" horiz-adv-x="391" /><glyph d="M285 730C149 730 94 664 94 549V515H18V392H94V0H250V392H374V515H249V545C249 586 268 610 314 610C342 610 371 605 397 598L416 712C381 723 335 730 285 730ZM678 730C542 730 487 664 487 549V515H411V392H487V0H643V392H767V515H642V545C642 586 661 610 707 610C735 610 764 605 790 598L809 712C774 723 728 730 678 730Z" glyph-name="f_f" horiz-adv-x="784" /><glyph d="M285 730C149 730 94 664 94 549V515H18V392H94V0H250V392H374V515H249V545C249 586 268 610 314 610C342 610 371 605 397 598L416 712C381 723 335 730 285 730ZM678 730C542 730 487 664 487 549V515H411V392H487V0H643V392H767V515H642V545C642 586 661 610 707 610C732 610 757 606 780 600V719C750 726 714 730 678 730ZM1003 601V716H838V601ZM999 0V528H841V0Z" glyph-name="f_f_i" horiz-adv-x="1057" /><glyph d="M285 730C149 730 94 664 94 549V515H18V392H94V0H250V392H374V515H249V545C249 586 268 610 314 610C342 610 371 605 397 598L416 712C381 723 335 730 285 730ZM678 730C542 730 487 664 487 549V515H411V392H487V0H643V392H767V515H642V545C642 586 661 610 707 610C732 610 757 606 780 600V719C750 726 714 730 678 730ZM999 0V724H841V0Z" glyph-name="f_f_l" horiz-adv-x="1057" /><glyph d="M285 730C149 730 94 664 94 549V515H18V392H94V0H250V392H374V515H249V545C249 586 268 610 314 610C339 610 364 606 387 600V719C357 726 321 730 285 730ZM610 601V716H445V601ZM606 0V528H448V0Z" glyph-name="fi" horiz-adv-x="664" unicode="&#64257;" /><glyph d="M527 269C527 384 454 450 342 450C290 450 242 438 198 419L207 565H517V700H75L54 322L162 275C212 304 255 319 294 319C338 319 364 297 364 258C364 192 291 143 45 123L65 -12C393 9 527 95 527 269Z" glyph-name="five" horiz-adv-x="563" unicode="5" /><glyph d="M365 162C365 229 317 270 239 270C206 270 173 263 143 249L149 332H359V421H55L41 193L117 162C147 178 178 188 205 188C233 188 250 176 250 155C250 120 202 93 34 81L49 -8C281 5 365 62 365 162Z" glyph-name="five.den" horiz-adv-x="395" /><glyph d="M365 441C365 508 317 549 239 549C206 549 173 542 143 528L149 611H359V700H55L41 472L117 441C147 457 178 467 205 467C233 467 250 455 250 434C250 399 202 372 34 360L49 271C281 284 365 341 365 441Z" glyph-name="five.num" horiz-adv-x="395" /><glyph d="M525 269C525 384 452 450 339 450C287 450 240 438 195 418L205 565H516V700H73L52 321L160 275C210 304 252 319 292 319C337 319 362 297 362 258C362 192 289 143 42 123L62 -12C392 9 525 95 525 269Z" glyph-name="five.tab" horiz-adv-x="564" /><glyph d="M285 730C149 730 94 664 94 549V515H18V392H94V0H250V392H374V515H249V545C249 586 268 610 314 610C339 610 364 606 387 600V719C357 726 321 730 285 730ZM606 0V724H448V0Z" glyph-name="fl" horiz-adv-x="664" unicode="&#64258;" /><glyph d="M491 0V131H574V259H491V703H277L20 261L39 131H333V0ZM336 257H162L336 561Z" glyph-name="four" horiz-adv-x="598" unicode="4" /><glyph d="M345 0V75H407V159H345V423H188L18 163L22 75H233V0ZM235 157H117L235 340Z" glyph-name="four.den" horiz-adv-x="423" /><glyph d="M345 279V354H407V438H345V702H188L18 442L22 354H233V279ZM235 436H117L235 619Z" glyph-name="four.num" horiz-adv-x="423" /><glyph d="M468 0V131H543V259H468V703H247L23 270L43 131H311V0ZM315 257H157L315 572Z" glyph-name="four.tab" horiz-adv-x="564" /><glyph d="M-199 0H-130L77 335L311 700H241L34 365Z" glyph-name="fraction" horiz-adv-x="111" unicode="&#8260;" /><glyph d="M183 274C183 365 222 409 284 409C313 409 340 399 363 383V164C342 151 313 140 284 140C221 140 183 183 183 274ZM32 273C32 102 117 19 240 19C291 19 334 35 364 54V32C364 -36 324 -66 249 -66C192 -66 141 -54 94 -34L58 -141C114 -165 186 -179 262 -179C415 -179 521 -119 521 53V528H398L377 484C342 513 300 537 240 537C118 537 32 440 32 273Z" glyph-name="g" horiz-adv-x="577" unicode="g" /><glyph d="M183 274C183 365 222 409 284 409C313 409 340 399 363 383V164C342 151 313 140 284 140C221 140 183 183 183 274ZM32 273C32 102 117 19 240 19C291 19 334 35 364 54V32C364 -36 324 -66 249 -66C192 -66 141 -54 94 -34L58 -141C114 -165 186 -179 262 -179C415 -179 521 -119 521 53V528H398L377 484C342 513 300 537 240 537C118 537 32 440 32 273ZM294 663C253 663 231 683 223 710H148C153 636 201 579 292 579C383 579 433 636 438 710H363C355 683 335 663 294 663Z" glyph-name="gbreve" horiz-adv-x="577" unicode="&#287;" /><glyph d="M183 274C183 365 222 409 284 409C313 409 340 399 363 383V164C342 151 313 140 284 140C221 140 183 183 183 274ZM32 273C32 102 117 19 240 19C291 19 334 35 364 54V32C364 -36 324 -66 249 -66C192 -66 141 -54 94 -34L58 -141C114 -165 186 -179 262 -179C415 -179 521 -119 521 53V528H398L377 484C342 513 300 537 240 537C118 537 32 440 32 273ZM294 653 233 704H139L237 584H349L447 704H355Z" glyph-name="gcaron" horiz-adv-x="577" unicode="&#487;" /><glyph d="M183 274C183 365 222 409 284 409C313 409 340 399 363 383V164C342 151 313 140 284 140C221 140 183 183 183 274ZM32 273C32 102 117 19 240 19C291 19 334 35 364 54V32C364 -36 324 -66 249 -66C192 -66 141 -54 94 -34L58 -141C114 -165 186 -179 262 -179C415 -179 521 -119 521 53V528H398L377 484C342 513 300 537 240 537C118 537 32 440 32 273ZM292 635 353 584H447L349 704H237L139 584H231Z" glyph-name="gcircumflex" horiz-adv-x="577" unicode="&#285;" /><glyph d="M183 274C183 365 222 409 284 409C313 409 340 399 363 383V164C342 151 313 140 284 140C221 140 183 183 183 274ZM32 273C32 102 117 19 240 19C291 19 334 35 364 54V32C364 -36 324 -66 249 -66C192 -66 141 -54 94 -34L58 -141C114 -165 186 -179 262 -179C415 -179 521 -119 521 53V528H398L377 484C342 513 300 537 240 537C118 537 32 440 32 273ZM354 585V700H232V585Z" glyph-name="gdotaccent" horiz-adv-x="577" unicode="&#289;" /><glyph d="M431 -8C545 -8 624 51 624 165C624 263 568 323 463 364C536 398 585 454 585 542C585 652 497 730 347 730C170 730 95 643 94 515H18V392H94V0H249V501C249 565 285 603 347 603C404 603 434 572 434 528C434 475 391 437 315 407V307C426 272 473 226 473 174C473 133 448 114 404 114C373 114 337 122 305 134V13C345 -1 388 -8 431 -8Z" glyph-name="germandbls" horiz-adv-x="651" unicode="&#223;" /><glyph d="M218 581H320L240 696H58Z" glyph-name="grave" horiz-adv-x="500" unicode="`" /><glyph d="M-47 741H77L-8 841H-202Z" glyph-name="grave.cap" horiz-adv-x="0" /><glyph d="M59 610V476L374 354L59 233V99L512 295V414Z" glyph-name="greater" horiz-adv-x="564" unicode="&gt;" /><glyph d="M452 81 505 129 377 303 505 477 452 524 248 343V262ZM230 81 283 129 155 303 283 477 230 524 26 343V262Z" glyph-name="guillemotleft" horiz-adv-x="534" unicode="&#171;" /><glyph d="M452 137 505 185 377 359 505 533 452 580 248 399V318ZM230 137 283 185 155 359 283 533 230 580 26 399V318Z" glyph-name="guillemotleft.cap" horiz-adv-x="534" /><glyph d="M82 81 285 263V343L82 524L29 477L156 303L29 128ZM304 81 507 263V343L304 524L251 477L379 303L251 128Z" glyph-name="guillemotright" horiz-adv-x="534" unicode="&#187;" /><glyph d="M82 137 285 319V399L82 580L29 533L156 359L29 184ZM304 137 507 319V399L304 580L251 533L379 359L251 184Z" glyph-name="guillemotright.cap" horiz-adv-x="534" /><glyph d="M230 81 283 129 155 303 283 477 230 524 26 343V262Z" glyph-name="guilsinglleft" horiz-adv-x="311" unicode="&#8249;" /><glyph d="M230 137 283 185 155 359 283 533 230 580 26 399V318Z" glyph-name="guilsinglleft.cap" horiz-adv-x="311" /><glyph d="M82 81 285 263V343L82 524L29 477L156 303L29 128Z" glyph-name="guilsinglright" horiz-adv-x="311" unicode="&#8250;" /><glyph d="M82 137 285 319V399L82 580L29 533L156 359L29 184Z" glyph-name="guilsinglright.cap" horiz-adv-x="311" /><glyph d="M214 364C241 383 275 398 305 398C347 398 368 375 368 330V0H526V368C526 479 470 537 368 537C306 537 257 512 214 482V724H56V0H214Z" glyph-name="h" horiz-adv-x="579" unicode="h" /><glyph d="M214 353C241 372 275 387 305 387C347 387 368 364 368 319V0H526V357C526 468 470 526 368 526C306 526 257 502 214 472V576H339V664H214V724H56V664H11V576H56V0H214Z" glyph-name="hbar" horiz-adv-x="579" unicode="&#295;" /><glyph d="M214 364C241 383 275 398 305 398C347 398 368 375 368 330V0H526V368C526 479 470 537 368 537C306 537 257 512 214 482V724H56V0H214ZM134 814 195 763H289L191 883H79L-19 763H73Z" glyph-name="hcircumflex" horiz-adv-x="579" unicode="&#293;" /><glyph d="M196 581 341 696H199L112 581ZM364 581 509 696H367L280 581Z" glyph-name="hungarumlaut" horiz-adv-x="500" unicode="&#733;" /><glyph d="M-50 741 90 841H-53L-145 741ZM122 741 263 841H120L28 741Z" glyph-name="hungarumlaut.cap" horiz-adv-x="0" /><glyph d="M302 236V370H35V236Z" glyph-name="hyphen" horiz-adv-x="337" unicode="-" /><glyph d="M302 292V426H35V292Z" glyph-name="hyphen.cap" horiz-adv-x="337" /><glyph d="M219 601V716H54V601ZM215 0V528H57V0Z" glyph-name="i" horiz-adv-x="273" unicode="i" /><glyph d="M215 0V528H57V0ZM197 582V697H75V582Z" glyph-name="i.dot" horiz-adv-x="273" /><glyph d="M215 0V528H57V0ZM168 581 328 696H146L66 581Z" glyph-name="iacute" horiz-adv-x="273" unicode="&#237;" /><glyph d="M215 0V528H57V0ZM137 660C96 660 74 680 66 707H-9C-4 633 44 576 135 576C226 576 276 633 281 707H206C198 680 178 660 137 660Z" glyph-name="ibreve" horiz-adv-x="273" unicode="&#301;" /><glyph d="M215 0V528H57V0ZM135 632 196 581H290L192 701H80L-18 581H74Z" glyph-name="icircumflex" horiz-adv-x="273" unicode="&#238;" /><glyph d="M215 0V528H57V0ZM106 582V697H-10V582ZM282 582V697H166V582Z" glyph-name="idieresis" horiz-adv-x="273" unicode="&#239;" /><glyph d="M215 0V528H57V0ZM104 581H206L126 696H-56Z" glyph-name="igrave" horiz-adv-x="273" unicode="&#236;" /><glyph d="M215 0V528H57V0ZM262 587V662H10V587Z" glyph-name="imacron" horiz-adv-x="273" unicode="&#299;" /><glyph d="M219 601V716H54V601ZM228 -86C174 -73 166 -68 166 -54C166 -46 170 -37 194 0H215V528H57V0H100C47 -40 32 -59 32 -82C32 -124 81 -144 219 -151Z" glyph-name="iogonek" horiz-adv-x="273" unicode="&#303;" /><glyph d="M215 0V528H57V0ZM33 575C50 614 61 623 79 623C94 623 107 617 139 601C177 582 194 576 217 576C256 576 287 604 316 694L249 713C231 674 220 665 203 665C188 665 174 671 142 687C105 706 87 712 64 712C26 712 -7 684 -34 594Z" glyph-name="itilde" horiz-adv-x="273" unicode="&#297;" /><glyph d="M219 601V716H54V601ZM90 -182C180 -110 216 -59 216 84V528H58V87C58 -12 38 -48 -20 -107Z" glyph-name="j" horiz-adv-x="273" unicode="j" /><glyph d="M90 -182C180 -110 216 -59 216 84V528H58V87C58 -12 38 -48 -20 -107ZM136 632 197 581H291L193 701H81L-17 581H75Z" glyph-name="jcircumflex" horiz-adv-x="273" unicode="&#309;" /><glyph d="M370 0H555L365 275L549 528H367L214 302V724H56V0H214V247H215Z" glyph-name="k" horiz-adv-x="557" unicode="k" /><glyph d="M215 0V724H57V0Z" glyph-name="l" horiz-adv-x="273" unicode="l" /><glyph d="M215 0V724H57V0ZM168 766 328 881H146L66 766Z" glyph-name="lacute" horiz-adv-x="273" unicode="&#314;" /><glyph d="M215 0V724H57V0ZM363 724H265V688C265 642 261 606 248 569L293 546C338 588 363 631 363 696Z" glyph-name="lcaron" horiz-adv-x="273" unicode="&#318;" /><glyph d="M505 99V234L191 355L505 477V610L52 414V295Z" glyph-name="less" horiz-adv-x="564" unicode="&lt;" /><glyph d="M238 0V337L301 368V487L238 454V724H80V375L17 343V225L80 258V0Z" glyph-name="lslash" horiz-adv-x="318" unicode="&#322;" /><glyph d="M828 0V369C828 480 771 537 671 537C605 537 549 510 497 472C472 515 427 537 366 537C301 537 251 509 205 475L180 528H56V0H214V364C241 383 275 398 303 398C342 398 363 375 363 331V0H521V348C521 353 520 358 518 363C547 383 582 398 610 398C649 398 670 375 670 331V0Z" glyph-name="m" horiz-adv-x="881" unicode="m" /><glyph d="M392 587V662H108V587Z" glyph-name="macron" horiz-adv-x="500" unicode="&#175;" /><glyph d="M158 745V825H-158V745Z" glyph-name="macron.cap" horiz-adv-x="0" /><glyph d="M139 745V825H-139V745Z" glyph-name="macron.capnrw" horiz-adv-x="0" /><glyph d="M126 587V662H-126V587Z" glyph-name="macron.nrw" horiz-adv-x="0" /><glyph d="M119 294V437H-1V294Z" glyph-name="middotcat" horiz-adv-x="118" /><glyph d="M136 317V468H0V317Z" glyph-name="middotcat.cap" horiz-adv-x="197" /><glyph d="M514 291V419H50V291Z" glyph-name="minus" horiz-adv-x="564" unicode="&#8722;" /><glyph d="M424 125 512 213 368 355 512 498 425 584 282 440 140 584 52 496 197 355 53 211 139 125 282 269Z" glyph-name="multiply" horiz-adv-x="564" unicode="&#215;" /><glyph d="M214 364C241 383 275 398 305 398C347 398 368 375 368 330V0H526V368C526 479 470 537 368 537C301 537 250 509 205 475L180 528H56V0H214Z" glyph-name="n" horiz-adv-x="579" unicode="n" /><glyph d="M214 364C241 383 275 398 305 398C347 398 368 375 368 330V0H526V368C526 479 470 537 368 537C301 537 250 509 205 475L180 528H56V0H214ZM320 584 480 699H298L218 584Z" glyph-name="nacute" horiz-adv-x="579" unicode="&#324;" /><glyph d="M214 364C241 383 275 398 305 398C347 398 368 375 368 330V0H526V368C526 479 470 537 368 537C301 537 250 509 205 475L180 528H56V0H214ZM289 653 228 704H134L232 584H344L442 704H350Z" glyph-name="ncaron" horiz-adv-x="579" unicode="&#328;" /><glyph d="M280 712C129 712 30 615 30 465C30 329 110 251 224 251C276 251 322 265 370 286C340 218 268 162 129 107L198 -18C429 70 536 211 536 419C536 609 437 712 280 712ZM277 582C342 582 382 530 382 440C382 422 381 407 380 393C349 380 317 372 285 372C223 372 184 405 184 474C184 542 221 582 277 582Z" glyph-name="nine" horiz-adv-x="571" unicode="9" /><glyph d="M199 428C92 428 24 369 24 282C24 205 79 156 160 156C197 156 233 164 264 179C246 139 207 109 96 73L136 -11C300 39 379 128 379 251C379 362 312 428 199 428ZM198 343C243 343 270 315 270 263C270 256 270 249 269 242C247 235 224 231 202 231C157 231 132 251 132 286C132 322 157 343 198 343Z" glyph-name="nine.den" horiz-adv-x="407" /><glyph d="M199 707C92 707 24 648 24 561C24 484 79 435 160 435C197 435 233 443 264 458C246 418 207 388 96 352L136 268C300 318 379 407 379 530C379 641 312 707 199 707ZM198 622C243 622 270 594 270 542C270 535 270 528 269 521C247 514 224 510 202 510C157 510 132 530 132 565C132 601 157 622 198 622Z" glyph-name="nine.num" horiz-adv-x="407" /><glyph d="M275 712C129 712 31 615 31 466C31 330 110 251 221 251C271 251 315 264 361 285C332 217 263 160 128 105L197 -18C423 70 527 212 527 419C527 609 431 712 275 712ZM273 582C333 582 373 532 373 440C373 424 373 407 371 391C342 380 312 372 281 372C220 372 183 405 183 474C183 542 219 582 273 582Z" glyph-name="nine.tab" horiz-adv-x="564" /><glyph d="M508 197V303H304L355 407H508V512H412L463 614H360L309 512H56V407H261L209 303H56V197H152L101 95H205L256 197Z" glyph-name="notequal" horiz-adv-x="564" unicode="&#8800;" /><glyph d="M214 364C241 383 275 398 305 398C347 398 368 375 368 330V0H526V368C526 479 470 537 368 537C301 537 250 509 205 475L180 528H56V0H214ZM185 578C202 617 213 626 231 626C246 626 259 620 291 604C329 585 346 579 369 579C408 579 439 607 468 697L401 716C383 677 372 668 355 668C340 668 326 674 294 690C257 709 239 715 216 715C178 715 145 687 118 597Z" glyph-name="ntilde" horiz-adv-x="579" unicode="&#241;" /><glyph d="M363 270 244 277 268 428 387 421ZM319 -4H404L429 156L561 148V258L447 265L471 416L597 409V520L489 526L517 704H432L404 531L285 538L312 704H227L201 543L70 550V440L184 433L160 282L34 289V179L142 173L114 -4H199L226 168L345 161Z" glyph-name="numbersign" horiz-adv-x="631" unicode="#" /><glyph d="M527 265C527 439 420 540 279 540C137 540 30 437 30 263C30 89 137 -12 278 -12C420 -12 527 90 527 265ZM377 264C377 172 339 118 279 118C220 118 180 173 180 264C180 355 219 409 278 409C337 409 377 354 377 264Z" glyph-name="o" horiz-adv-x="557" unicode="o" /><glyph d="M527 265C527 439 420 540 279 540C137 540 30 437 30 263C30 89 137 -12 278 -12C420 -12 527 90 527 265ZM377 264C377 172 339 118 279 118C220 118 180 173 180 264C180 355 219 409 278 409C337 409 377 354 377 264ZM310 584 470 699H288L208 584Z" glyph-name="oacute" horiz-adv-x="557" unicode="&#243;" /><glyph d="M527 265C527 439 420 540 279 540C137 540 30 437 30 263C30 89 137 -12 278 -12C420 -12 527 90 527 265ZM377 264C377 172 339 118 279 118C220 118 180 173 180 264C180 355 219 409 278 409C337 409 377 354 377 264ZM279 663C238 663 216 683 208 710H133C138 636 186 579 277 579C368 579 418 636 423 710H348C340 683 320 663 279 663Z" glyph-name="obreve" horiz-adv-x="557" unicode="&#335;" /><glyph d="M527 265C527 439 420 540 279 540C137 540 30 437 30 263C30 89 137 -12 278 -12C420 -12 527 90 527 265ZM377 264C377 172 339 118 279 118C220 118 180 173 180 264C180 355 219 409 278 409C337 409 377 354 377 264ZM277 635 338 584H432L334 704H222L124 584H216Z" glyph-name="ocircumflex" horiz-adv-x="557" unicode="&#244;" /><glyph d="M527 265C527 439 420 540 279 540C137 540 30 437 30 263C30 89 137 -12 278 -12C420 -12 527 90 527 265ZM377 264C377 172 339 118 279 118C220 118 180 173 180 264C180 355 219 409 278 409C337 409 377 354 377 264ZM248 585V700H132V585ZM424 585V700H308V585Z" glyph-name="odieresis" horiz-adv-x="557" unicode="&#246;" /><glyph d="M528 305C534 378 567 423 621 423C676 423 708 378 713 305ZM377 264C377 172 339 118 279 118C220 118 180 173 180 264C180 355 218 409 278 409C337 409 377 354 377 264ZM645 -10C711 -10 781 8 840 40L805 142C757 118 702 104 657 104C579 104 534 144 528 212H859V254C859 434 767 540 627 540C554 540 494 510 454 456C412 511 350 540 276 540C136 540 30 437 30 263C30 89 135 -12 274 -12C347 -12 410 16 452 69C493 15 559 -10 645 -10Z" glyph-name="oe" horiz-adv-x="886" unicode="&#339;" /><glyph d="M342 -86C288 -73 280 -68 280 -54C280 -45 284 -36 313 8L228 10C163 -37 146 -57 146 -82C146 -124 195 -144 333 -151Z" glyph-name="ogonek" horiz-adv-x="500" unicode="&#731;" /><glyph d="M527 265C527 439 420 540 279 540C137 540 30 437 30 263C30 89 137 -12 278 -12C420 -12 527 90 527 265ZM377 264C377 172 339 118 279 118C220 118 180 173 180 264C180 355 219 409 278 409C337 409 377 354 377 264ZM246 584H348L268 699H86Z" glyph-name="ograve" horiz-adv-x="557" unicode="&#242;" /><glyph d="M278 -12C419 -12 527 90 527 264C527 357 493 427 437 472C500 489 536 534 536 599C536 625 531 648 521 671L417 643C422 630 425 617 425 603C425 557 390 533 328 533C312 533 295 534 279 534C138 534 30 434 30 262C30 89 137 -12 278 -12ZM377 263C377 172 338 118 279 118C220 118 180 173 180 263C180 354 219 407 278 407C337 407 377 353 377 263Z" glyph-name="ohorn" horiz-adv-x="557" unicode="&#417;" /><glyph d="M527 265C527 439 420 540 279 540C137 540 30 437 30 263C30 89 137 -12 278 -12C420 -12 527 90 527 265ZM377 264C377 172 339 118 279 118C220 118 180 173 180 264C180 355 219 409 278 409C337 409 377 354 377 264ZM224 584 369 699H227L140 584ZM392 584 537 699H395L308 584Z" glyph-name="ohungarumlaut" horiz-adv-x="557" unicode="&#337;" /><glyph d="M527 265C527 439 420 540 279 540C137 540 30 437 30 263C30 89 137 -12 278 -12C420 -12 527 90 527 265ZM377 264C377 172 339 118 279 118C220 118 180 173 180 264C180 355 219 409 278 409C337 409 377 354 377 264ZM420 590V665H136V590Z" glyph-name="omacron" horiz-adv-x="557" unicode="&#333;" /><glyph d="M348 0V704H233L19 623L54 487L183 529V0Z" glyph-name="one" horiz-adv-x="430" unicode="1" /><glyph d="M257 0V423H176L19 368L41 275L141 305V0Z" glyph-name="one.den" horiz-adv-x="317" /><glyph d="M257 279V702H176L19 647L41 554L141 584V279Z" glyph-name="one.num" horiz-adv-x="317" /><glyph d="M520 0V133H380V704H264L58 637L82 497L216 534V133H61V0Z" glyph-name="one.tab" horiz-adv-x="564" /><glyph d="M257 279V702H176L19 647L41 554L141 584V279ZM156 0H225L432 335L666 700H596L389 365ZM853 0V94H674L756 168C821 221 846 260 846 309C846 381 788 427 696 427C631 427 571 401 520 359L563 276C608 310 649 330 682 330C710 330 726 316 726 295C726 276 713 257 683 230L512 78L529 0Z" glyph-name="onehalf" horiz-adv-x="879" unicode="&#189;" /><glyph d="M257 279V702H176L19 647L41 554L141 584V279ZM156 0H225L432 335L666 700H596L389 365ZM793 0V75H855V159H793V423H636L466 163L470 75H681V0ZM683 157H565L683 340Z" glyph-name="onequarter" horiz-adv-x="871" unicode="&#188;" /><glyph d="M257 279V702H176L19 647L41 554L141 584V279ZM156 0H225L432 335L666 700H596L389 365ZM533 -4C774 3 863 51 863 133C863 185 828 214 747 225C824 250 858 282 858 332C858 389 808 427 713 427C650 427 587 413 534 390L559 307C605 327 653 338 691 338C722 338 737 328 737 313C737 291 709 272 597 244L607 175C717 175 742 162 742 138C742 111 701 92 533 84Z" glyph-name="onethird" horiz-adv-x="889" unicode="&#8531;" /><glyph d="M186 439C159 439 139 451 139 480C139 507 158 523 195 523C207 523 230 522 241 520V455C225 445 203 439 186 439ZM250 409 262 379H351L342 445V590C342 670 299 706 203 706C154 706 107 696 68 681L90 609C120 621 155 630 187 630C228 630 241 613 241 584V570C225 573 193 576 173 576C91 576 45 539 45 475C45 410 86 375 150 375C189 375 222 389 250 409ZM357 264V318H38V264Z" glyph-name="ordfeminine" horiz-adv-x="395" unicode="&#170;" /><glyph d="M199 707C108 707 39 643 39 540C39 436 107 373 198 373C289 373 358 437 358 541C358 644 290 707 199 707ZM199 454C160 454 135 487 135 541C135 594 160 626 198 626C237 626 262 593 262 540C262 486 237 454 199 454ZM353 264V318H44V264Z" glyph-name="ordmasculine" horiz-adv-x="397" unicode="&#186;" /><glyph d="M179 264C179 356 218 411 278 411C293 411 306 408 318 401L192 184C184 206 179 233 179 264ZM279 116C264 116 250 120 237 127L364 346C373 324 378 296 378 264C378 171 339 116 279 116ZM278 -12C420 -12 527 90 527 265C527 351 501 420 457 467L527 577H420L383 519C352 533 317 540 279 540C137 540 30 437 30 263C30 176 57 108 101 61L30 -50H137L174 9C205 -5 240 -12 278 -12Z" glyph-name="oslash" horiz-adv-x="557" unicode="&#248;" /><glyph d="M179 264C179 356 218 411 278 411C293 411 306 408 318 401L192 184C184 206 179 233 179 264ZM279 116C264 116 250 120 237 127L364 346C373 324 378 296 378 264C378 171 339 116 279 116ZM278 -12C420 -12 527 90 527 265C527 351 501 420 457 467L527 577H420L383 519C352 533 317 540 279 540C137 540 30 437 30 263C30 176 57 108 101 61L30 -50H137L174 9C205 -5 240 -12 278 -12ZM310 584 470 699H288L208 584Z" glyph-name="oslashacute" horiz-adv-x="557" unicode="&#511;" /><glyph d="M527 265C527 439 420 540 279 540C137 540 30 437 30 263C30 89 137 -12 278 -12C420 -12 527 90 527 265ZM377 264C377 172 339 118 279 118C220 118 180 173 180 264C180 355 219 409 278 409C337 409 377 354 377 264ZM175 578C192 617 203 626 221 626C236 626 249 620 281 604C319 585 336 579 359 579C398 579 429 607 458 697L391 716C373 677 362 668 345 668C330 668 316 674 284 690C247 709 229 715 206 715C168 715 135 687 108 597Z" glyph-name="otilde" horiz-adv-x="557" unicode="&#245;" /><glyph d="M293 119C264 119 237 129 214 144V378C235 394 264 409 295 409C356 409 394 361 394 264C394 165 355 119 293 119ZM214 23C251 2 287 -9 331 -9C456 -9 545 86 545 264C545 444 458 537 345 537C281 537 239 511 203 479L179 528H56V-173H214Z" glyph-name="p" horiz-adv-x="577" unicode="p" /><glyph d="M476 0V700H279C124 700 25 622 25 488C25 353 130 277 275 279V605H374V0Z" glyph-name="paragraph" horiz-adv-x="542" unicode="&#182;" /><glyph d="M369 -39C245 55 188 155 188 304C188 453 245 553 369 647L312 728C135 626 43 488 43 304C43 120 135 -18 312 -120Z" glyph-name="parenleft" horiz-adv-x="393" unicode="(" /><glyph d="M369 6C245 100 188 200 188 349C188 498 245 598 369 692L312 773C135 671 43 533 43 349C43 165 135 27 312 -75Z" glyph-name="parenleft.cap" horiz-adv-x="393" /><glyph d="M24 -39 81 -120C258 -18 350 120 350 304C350 488 258 626 81 728L24 647C148 553 205 453 205 304C205 155 148 55 24 -39Z" glyph-name="parenright" horiz-adv-x="393" unicode=")" /><glyph d="M24 6 81 -75C258 27 350 165 350 349C350 533 258 671 81 773L24 692C148 598 205 498 205 349C205 200 148 100 24 6Z" glyph-name="parenright.cap" horiz-adv-x="393" /><glyph d="M598 677 532 712 327 364 99 23 165 -12 370 337ZM329 528C329 640 262 707 179 707C96 707 29 640 29 528C29 415 96 348 179 348C262 348 329 415 329 528ZM237 528C237 462 213 429 179 429C145 429 121 462 121 528C121 593 145 626 179 626C213 626 237 593 237 528ZM669 172C669 285 601 352 519 352C436 352 369 285 369 172C369 60 436 -7 519 -7C601 -7 669 60 669 172ZM576 172C576 107 553 74 519 74C485 74 461 107 461 172C461 238 485 271 519 271C553 271 576 238 576 172Z" glyph-name="percent" horiz-adv-x="698" unicode="%" /><glyph d="M192 0V172H35V0Z" glyph-name="period" horiz-adv-x="228" unicode="." /><glyph d="M220 0V172H62V0Z" glyph-name="period.tab" horiz-adv-x="282" /><glyph d="M345 119V296H514V414H345V590H220V414H50V296H220V119Z" glyph-name="plus" horiz-adv-x="564" unicode="+" /><glyph d="M345 183V336H506V454H345V612H220V454H59V336H220V183ZM506 0V114H59V0Z" glyph-name="plusminus" horiz-adv-x="564" unicode="&#177;" /><glyph d="M521 -173V528H398L377 484C342 513 300 537 240 537C120 537 32 442 32 263C32 84 118 -9 234 -9C287 -9 330 11 363 38V-173ZM281 119C221 119 183 166 183 263C183 362 222 409 284 409C313 409 340 399 363 383V150C342 133 313 119 281 119Z" glyph-name="q" horiz-adv-x="577" unicode="q" /><glyph d="M505 528C505 642 422 710 286 710C189 710 101 681 22 633L76 506C146 546 213 569 268 569C318 569 345 547 345 512C345 470 301 437 164 391L190 220H281L295 308C432 353 505 420 505 528ZM316 0V152H155V0Z" glyph-name="question" horiz-adv-x="531" unicode="?" /><glyph d="M26 172C26 58 109 -10 245 -10C342 -10 430 19 509 67L455 194C385 154 318 131 263 131C213 131 186 153 186 188C186 230 230 263 367 309L341 480H250L236 392C99 347 26 280 26 172ZM215 700V548H376V700Z" glyph-name="questiondown" horiz-adv-x="531" unicode="&#191;" /><glyph d="M464 698V700H302L240 403L305 383ZM255 698V700H93L32 403L96 383Z" glyph-name="quotedbl" horiz-adv-x="482" unicode="&quot;" /><glyph d="M529 698V700H361L282 406L346 383ZM296 698V700H128L49 406L113 383Z" glyph-name="quotedbl.tab" horiz-adv-x="564" /><glyph d="M388 172H247C247 32 232 -31 187 -108L236 -145C339 -54 388 43 388 161ZM185 172H44C44 32 29 -31 -16 -108L33 -145C136 -54 185 43 185 161Z" glyph-name="quotedblbase" horiz-adv-x="421" unicode="&#8222;" /><glyph d="M22 414H163C163 554 178 616 223 694L174 730C71 639 22 542 22 424ZM225 414H366C366 554 381 616 426 694L377 730C274 639 225 542 225 424Z" glyph-name="quotedblleft" horiz-adv-x="438" unicode="&#8220;" /><glyph d="M416 724H275C275 584 260 522 215 444L264 407C367 499 416 596 416 714ZM213 724H72C72 584 57 522 12 444L61 407C164 499 213 596 213 714Z" glyph-name="quotedblright" horiz-adv-x="438" unicode="&#8221;" /><glyph d="M22 414H172C172 556 188 616 233 692L183 730C75 641 22 542 22 422Z" glyph-name="quoteleft" horiz-adv-x="245" unicode="&#8216;" /><glyph d="M223 724H73C73 582 57 522 12 445L62 407C170 497 223 596 223 716Z" glyph-name="quoteright" horiz-adv-x="245" unicode="&#8217;" /><glyph d="M195 172H45C45 29 29 -31 -16 -107L34 -145C142 -55 195 43 195 163Z" glyph-name="quotesinglbase" horiz-adv-x="228" unicode="&#8218;" /><glyph d="M265 698V700H94L32 403L96 383Z" glyph-name="quotesingle" horiz-adv-x="284" unicode="'" /><glyph d="M259 698V700H93L36 402L101 383Z" glyph-name="quotesingle.tab" horiz-adv-x="282" /><glyph d="M214 0V320C259 353 313 373 377 374V536C301 538 248 501 205 441L177 528H56V0Z" glyph-name="r" horiz-adv-x="400" unicode="r" /><glyph d="M214 0V320C259 353 313 373 377 374V536C301 538 248 501 205 441L177 528H56V0ZM246 581 406 696H224L144 581Z" glyph-name="racute" horiz-adv-x="400" unicode="&#341;" /><glyph d="M214 0V320C259 353 313 373 377 374V536C301 538 248 501 205 441L177 528H56V0ZM215 650 154 701H60L158 581H270L368 701H276Z" glyph-name="rcaron" horiz-adv-x="400" unicode="&#345;" /><glyph d="M189 709C98 709 29 638 29 540C29 442 98 371 189 371C279 371 348 442 348 540C348 638 279 709 189 709ZM189 391C108 391 51 453 51 540C51 627 108 690 189 690C269 690 326 627 326 540C326 453 269 391 189 391ZM166 550V595H188C209 595 217 587 217 574C217 558 205 550 184 550ZM166 512H170C183 512 187 510 195 499L224 455H283V456L250 502C241 516 234 522 222 527C246 534 270 548 270 580C270 613 244 634 190 634H115V455H166Z" glyph-name="registered" horiz-adv-x="377" unicode="&#174;" /><glyph d="M142 678C142 620 187 575 250 575C313 575 358 620 358 678C358 736 313 781 250 781C187 781 142 736 142 678ZM187 678C187 715 215 741 250 741C285 741 313 715 313 678C313 642 285 615 250 615C215 615 187 642 187 678Z" glyph-name="ring" horiz-adv-x="500" unicode="&#730;" /><glyph d="M-115 840C-115 780 -67 735 0 735C66 735 115 780 115 840C115 900 67 945 0 945C-66 945 -115 900 -115 840ZM-69 840C-69 878 -41 905 0 905C41 905 69 878 69 840C69 802 41 775 0 775C-41 775 -69 802 -69 840Z" glyph-name="ring.cap" horiz-adv-x="0" /><glyph d="M170 886H-2L-67 797H36ZM-108 673C-108 618 -63 575 0 575C63 575 108 618 108 673C108 729 63 771 0 771C-63 771 -108 729 -108 673ZM-63 673C-63 708 -35 732 0 732C35 732 63 708 63 673C63 639 35 615 0 615C-35 615 -63 639 -63 673Z" glyph-name="ringacute" horiz-adv-x="0" /><glyph d="M465 158C465 250 419 289 283 326C205 349 189 358 189 382C189 403 209 417 248 417C301 417 358 400 410 376L445 495C387 522 320 537 249 537C117 537 44 471 44 371C44 271 106 237 223 206C304 183 319 174 319 150C319 126 296 110 249 110C185 110 114 132 55 163L20 43C85 10 169 -10 252 -10C384 -10 465 47 465 158Z" glyph-name="s" horiz-adv-x="491" unicode="s" /><glyph d="M465 158C465 250 419 289 283 326C205 349 189 358 189 382C189 403 209 417 248 417C301 417 358 400 410 376L445 495C387 522 320 537 249 537C117 537 44 471 44 371C44 271 106 237 223 206C304 183 319 174 319 150C319 126 296 110 249 110C185 110 114 132 55 163L20 43C85 10 169 -10 252 -10C384 -10 465 47 465 158ZM287 584 447 699H265L185 584Z" glyph-name="sacute" horiz-adv-x="491" unicode="&#347;" /><glyph d="M465 158C465 250 419 289 283 326C205 349 189 358 189 382C189 403 209 417 248 417C301 417 358 400 410 376L445 495C387 522 320 537 249 537C117 537 44 471 44 371C44 271 106 237 223 206C304 183 319 174 319 150C319 126 296 110 249 110C185 110 114 132 55 163L20 43C85 10 169 -10 252 -10C384 -10 465 47 465 158ZM256 653 195 704H101L199 584H311L409 704H317Z" glyph-name="scaron" horiz-adv-x="491" unicode="&#353;" /><glyph d="M465 158C465 250 419 289 283 326C205 349 189 358 189 382C189 403 209 417 248 417C301 417 358 400 410 376L445 495C387 522 320 537 249 537C117 537 44 471 44 371C44 271 106 237 223 206C304 183 319 174 319 150C319 126 296 110 249 110C185 110 114 132 55 163L20 43C85 10 169 -10 252 -10C384 -10 465 47 465 158ZM254 635 315 584H409L311 704H199L101 584H193Z" glyph-name="scircumflex" horiz-adv-x="491" unicode="&#349;" /><glyph d="M278 300C182 334 170 346 170 370C170 391 186 408 220 428C240 419 264 410 291 401C387 367 399 354 399 330C399 310 383 293 349 273C328 282 305 291 278 300ZM283 -8C405 -8 472 55 472 133C472 166 463 192 443 214C504 250 537 289 537 350C537 419 496 458 348 509C249 544 238 553 238 570C238 585 253 597 288 597C331 597 395 582 453 560L483 672C424 694 361 709 285 709C163 709 96 646 96 567C96 534 105 509 125 487C64 450 31 412 31 350C31 281 73 242 221 191C320 156 330 147 330 130C330 115 316 103 281 103C237 103 174 119 115 141L86 29C145 7 208 -8 283 -8Z" glyph-name="section" horiz-adv-x="569" unicode="&#167;" /><glyph d="M200 356V528H43V356ZM200 172H47C47 29 33 -31 -11 -107L39 -145C147 -55 200 43 200 163Z" glyph-name="semicolon" horiz-adv-x="238" unicode=";" /><glyph d="M221 -14 511 544V700H36V556H341L62 34Z" glyph-name="seven" horiz-adv-x="542" unicode="7" /><glyph d="M159 -8 354 318V421H29V323H230L51 31Z" glyph-name="seven.den" horiz-adv-x="377" /><glyph d="M159 271 354 597V700H29V602H230L51 310Z" glyph-name="seven.num" horiz-adv-x="377" /><glyph d="M235 -13 526 544V700H42V556H357L76 35Z" glyph-name="seven.tab" horiz-adv-x="564" /><glyph d="M291 -12C442 -12 541 85 541 235C541 371 461 449 347 449C295 449 249 435 201 414C231 482 303 538 442 593L373 718C142 630 35 489 35 281C35 91 134 -12 291 -12ZM294 118C229 118 189 170 189 260C189 278 190 293 191 307C222 320 254 328 286 328C348 328 387 295 387 226C387 158 350 118 294 118Z" glyph-name="six" horiz-adv-x="571" unicode="6" /><glyph d="M208 -7C315 -7 383 52 383 139C383 216 328 265 247 265C210 265 174 257 143 242C161 282 200 312 311 348L271 432C107 382 28 293 28 170C28 59 95 -7 208 -7ZM209 78C164 78 137 106 137 158C137 165 137 172 138 179C160 186 183 190 205 190C250 190 275 170 275 135C275 99 250 78 209 78Z" glyph-name="six.den" horiz-adv-x="407" /><glyph d="M208 272C315 272 383 331 383 418C383 495 328 544 247 544C210 544 174 536 143 521C161 561 200 591 311 627L271 711C107 661 28 572 28 449C28 338 95 272 208 272ZM209 357C164 357 137 385 137 437C137 444 137 451 138 458C160 465 183 469 205 469C250 469 275 449 275 414C275 378 250 357 209 357Z" glyph-name="six.num" horiz-adv-x="407" /><glyph d="M289 -12C435 -12 533 85 533 234C533 370 454 449 343 449C293 449 249 436 203 415C232 483 301 540 436 595L367 718C141 630 37 488 37 281C37 91 133 -12 289 -12ZM291 118C231 118 191 168 191 260C191 276 191 293 193 309C222 320 252 328 283 328C344 328 381 295 381 226C381 158 345 118 291 118Z" glyph-name="six.tab" horiz-adv-x="564" /><glyph d="M407 795H294L-24 -130H89Z" glyph-name="slash" horiz-adv-x="395" unicode="/" /><glyph d="M412 811H299L-19 -114H94Z" glyph-name="slash.cap" horiz-adv-x="395" /><glyph d="M578 812H456L-14 -113H107Z" glyph-name="slash.tab" horiz-adv-x="564" /><glyph glyph-name="space" horiz-adv-x="173" unicode=" " /><glyph glyph-name="space.cap" horiz-adv-x="193" /><glyph d="M526 138H220C244 167 258 197 266 249L272 282H457V407H294L303 459C308 491 318 516 337 534C356 553 382 563 418 563C449 563 484 556 512 547L540 688C506 700 456 709 405 709C326 709 266 687 223 644C186 606 163 555 151 488L137 407H41V282H116L114 270C98 185 75 145 38 107L64 0H526Z" glyph-name="sterling" horiz-adv-x="573" unicode="&#163;" /><glyph d="M519 138H218C243 166 259 198 267 249L273 282H450V407H295L304 459C310 495 321 518 339 536C357 554 381 563 414 563C445 563 477 557 505 546L533 687C495 701 448 709 400 709C323 709 265 687 222 645C185 607 164 556 152 488L138 407H44V282H117L115 270C101 192 77 146 41 107L67 0H519Z" glyph-name="sterling.tab" horiz-adv-x="564" /><glyph d="M268 -8C313 -8 350 -2 380 8V133C358 125 336 121 313 121C271 121 246 140 246 186V404H380V528H246V667H90V528H18V404H90V165C90 39 152 -8 268 -8Z" glyph-name="t" horiz-adv-x="411" unicode="t" /><glyph d="M380 8V126C358 118 336 114 313 114C271 114 246 133 246 180V225H346V313H246V411H380V528H246V667H90V528H18V411H90V313H32V225H90V165C90 39 152 -8 268 -8C313 -8 350 -2 380 8Z" glyph-name="tbar" horiz-adv-x="411" unicode="&#359;" /><glyph d="M268 -8C313 -8 350 -2 380 8V133C358 125 336 121 313 121C271 121 246 140 246 186V404H380V528H246V667H90V528H18V404H90V165C90 39 152 -8 268 -8ZM397 741H299V705C299 659 295 623 282 586L327 563C372 605 397 648 397 713Z" glyph-name="tcaron" horiz-adv-x="411" unicode="&#357;" /><glyph d="M293 119C264 119 237 129 214 144V378C235 394 264 409 295 409C356 409 394 361 394 264C394 165 355 119 293 119ZM214 23C251 2 287 -9 331 -9C456 -9 545 86 545 264C545 444 459 537 343 537C290 537 247 516 214 489V724H56V-173H214Z" glyph-name="thorn" horiz-adv-x="577" unicode="&#254;" /><glyph d="M36 -7C332 3 516 64 516 219C516 309 466 357 343 375C451 414 509 465 509 554C509 650 433 710 299 710C197 710 115 686 35 650L73 526C144 558 219 577 267 577C314 577 340 559 340 527C340 482 291 451 128 402L142 299C303 297 346 274 346 229C346 170 275 138 36 126Z" glyph-name="three" horiz-adv-x="549" unicode="3" /><glyph d="M29 -4C270 3 359 51 359 133C359 185 324 214 243 225C320 250 354 282 354 332C354 389 304 427 209 427C146 427 83 413 30 390L55 307C101 327 149 338 187 338C218 338 233 328 233 313C233 291 205 272 93 244L103 175C213 175 238 162 238 138C238 111 197 92 29 84Z" glyph-name="three.den" horiz-adv-x="385" /><glyph d="M29 275C270 282 359 330 359 412C359 464 324 493 243 504C320 529 354 561 354 611C354 668 304 706 209 706C146 706 83 692 30 669L55 586C101 606 149 617 187 617C218 617 233 607 233 592C233 570 205 551 93 523L103 454C213 454 238 441 238 417C238 390 197 371 29 363Z" glyph-name="three.num" horiz-adv-x="385" /><glyph d="M36 650 74 525C147 558 223 577 273 577C320 577 347 559 347 527C347 482 297 451 131 402L145 299C309 297 353 274 353 229C353 170 280 138 37 126V-7C337 3 523 64 523 219C523 309 472 357 346 375C457 414 516 465 516 554C516 651 439 710 303 710C200 710 117 686 36 650Z" glyph-name="three.tab" horiz-adv-x="564" /><glyph d="M29 275C270 282 359 330 359 412C359 464 324 493 243 504C320 529 354 561 354 611C354 668 304 706 209 706C146 706 83 692 30 669L55 586C101 606 149 617 187 617C218 617 233 607 233 592C233 570 205 551 93 523L103 454C213 454 238 441 238 417C238 390 197 371 29 363ZM199 0H268L475 335L709 700H639L432 365ZM836 0V75H898V159H836V423H679L509 163L513 75H724V0ZM726 157H608L726 340Z" glyph-name="threequarters" horiz-adv-x="915" unicode="&#190;" /><glyph d="M147 575C164 614 175 623 193 623C208 623 221 617 253 601C291 582 308 576 331 576C370 576 401 604 430 694L363 713C345 674 334 665 317 665C302 665 288 671 256 687C219 706 201 712 178 712C140 712 107 684 80 594Z" glyph-name="tilde" horiz-adv-x="500" unicode="&#732;" /><glyph d="M-108 735C-91 773 -78 781 -60 781C-44 781 -29 775 3 760C42 741 61 736 85 736C125 736 160 761 188 849L117 869C100 831 87 823 69 823C53 823 38 829 6 844C-33 863 -52 868 -76 868C-116 868 -151 843 -179 755Z" glyph-name="tilde.cap" horiz-adv-x="0" /><glyph d="M153 467V647H225V700H20V647H92V467ZM361 467H418L465 615L472 467H531L518 700H436L390 552L344 700H262L250 467H307L314 615Z" glyph-name="trademark" horiz-adv-x="565" unicode="&#8482;" /><glyph d="M52 700V690L376 -12H394L718 690V700Z" glyph-name="triagdn" horiz-adv-x="771" unicode="&#9660;" /><glyph d="M59 700 271 -13H294L505 700Z" glyph-name="triagdn.tab" horiz-adv-x="564" /><glyph d="M718 0V10L394 712H376L52 10V0Z" glyph-name="triagup" horiz-adv-x="771" unicode="&#9650;" /><glyph d="M505 0 294 713H271L59 0Z" glyph-name="triagup.tab" horiz-adv-x="564" /><glyph d="M525 0V143H254L382 278C476 365 514 427 514 514C514 631 434 710 293 710C180 710 94 662 32 607L100 476C166 530 220 561 272 561C318 561 344 532 344 494C344 458 323 429 278 382L23 118L49 0Z" glyph-name="two" horiz-adv-x="558" unicode="2" /><glyph d="M362 0V94H183L265 168C330 221 355 260 355 309C355 381 297 427 205 427C140 427 80 401 29 359L72 276C117 310 158 330 191 330C219 330 235 316 235 295C235 276 222 257 192 230L21 78L38 0Z" glyph-name="two.den" horiz-adv-x="388" /><glyph d="M362 279V373H183L265 447C330 500 355 539 355 588C355 660 297 706 205 706C140 706 80 680 29 638L72 555C117 589 158 609 191 609C219 609 235 595 235 574C235 555 222 536 192 509L21 357L38 279Z" glyph-name="two.num" horiz-adv-x="388" /><glyph d="M38 607 106 475C172 530 224 561 275 561C319 561 345 534 345 494C345 460 325 430 281 382L30 118L56 0H526V143H261L386 278C477 364 516 428 516 513C516 632 435 710 295 710C184 710 100 662 38 607Z" glyph-name="two.tab" horiz-adv-x="564" /><glyph d="M362 279V373H183L265 447C330 500 355 539 355 588C355 660 297 706 205 706C140 706 80 680 29 638L72 555C117 589 158 609 191 609C219 609 235 595 235 574C235 555 222 536 192 509L21 357L38 279ZM247 0H316L523 335L757 700H687L480 365ZM625 -4C866 3 955 51 955 133C955 185 920 214 839 225C916 250 950 282 950 332C950 389 900 427 805 427C742 427 679 413 626 390L651 307C697 327 745 338 783 338C814 338 829 328 829 313C829 291 801 272 689 244L699 175C809 175 834 162 834 138C834 111 793 92 625 84Z" glyph-name="twothirds" horiz-adv-x="980" unicode="&#8532;" /><glyph d="M374 52 399 0H523V528H365V163C338 145 304 129 273 129C232 129 211 153 211 197V528H53V160C53 49 108 -9 210 -9C278 -9 328 18 374 52Z" glyph-name="u" horiz-adv-x="579" unicode="u" /><glyph d="M374 52 399 0H523V528H365V163C338 145 304 129 273 129C232 129 211 153 211 197V528H53V160C53 49 108 -9 210 -9C278 -9 328 18 374 52ZM320 578 480 693H298L218 578Z" glyph-name="uacute" horiz-adv-x="579" unicode="&#250;" /><glyph d="M374 52 399 0H523V528H365V163C338 145 304 129 273 129C232 129 211 153 211 197V528H53V160C53 49 108 -9 210 -9C278 -9 328 18 374 52ZM289 657C248 657 226 677 218 704H143C148 630 196 573 287 573C378 573 428 630 433 704H358C350 677 330 657 289 657Z" glyph-name="ubreve" horiz-adv-x="579" unicode="&#365;" /><glyph d="M374 52 399 0H523V528H365V163C338 145 304 129 273 129C232 129 211 153 211 197V528H53V160C53 49 108 -9 210 -9C278 -9 328 18 374 52ZM287 632 348 581H442L344 701H232L134 581H226Z" glyph-name="ucircumflex" horiz-adv-x="579" unicode="&#251;" /><glyph d="M374 52 399 0H523V528H365V163C338 145 304 129 273 129C232 129 211 153 211 197V528H53V160C53 49 108 -9 210 -9C278 -9 328 18 374 52ZM258 582V697H142V582ZM434 582V697H318V582Z" glyph-name="udieresis" horiz-adv-x="579" unicode="&#252;" /><glyph d="M374 52 399 0H523V528H365V163C338 145 304 129 273 129C232 129 211 153 211 197V528H53V160C53 49 108 -9 210 -9C278 -9 328 18 374 52ZM256 578H358L278 693H96Z" glyph-name="ugrave" horiz-adv-x="579" unicode="&#249;" /><glyph d="M374 53 399 0H523V472C585 497 618 541 618 599C618 625 612 648 602 671L498 643C503 630 506 617 506 603C506 555 466 528 384 528H365V164C338 145 304 130 273 130C232 130 211 153 211 198V528H53V160C53 49 108 -9 210 -9C278 -9 328 19 374 53Z" glyph-name="uhorn" horiz-adv-x="604" unicode="&#432;" /><glyph d="M374 52 399 0H523V528H365V163C338 145 304 129 273 129C232 129 211 153 211 197V528H53V160C53 49 108 -9 210 -9C278 -9 328 18 374 52ZM234 581 379 696H237L150 581ZM402 581 547 696H405L318 581Z" glyph-name="uhungarumlaut" horiz-adv-x="579" unicode="&#369;" /><glyph d="M374 52 399 0H523V528H365V163C338 145 304 129 273 129C232 129 211 153 211 197V528H53V160C53 49 108 -9 210 -9C278 -9 328 18 374 52ZM430 587V662H146V587Z" glyph-name="umacron" horiz-adv-x="579" unicode="&#363;" /><glyph d="M498 -104V-46H-2V-104Z" glyph-name="underscore" horiz-adv-x="496" unicode="_" /><glyph glyph-name="uni0000" horiz-adv-x="0" /><glyph d="M-144 895 -129 825C-89 834 -49 838 -11 838C28 838 38 833 38 825C38 816 24 808 -42 790L-25 733C94 763 137 792 137 838C137 881 94 911 -2 911C-52 911 -98 905 -144 895Z" glyph-name="uni00200309.cap" horiz-adv-x="0" /><glyph glyph-name="uni00A0" horiz-adv-x="173" unicode="&#160;" /><glyph d="M-35 723H66L-2 824H-180ZM-30 582V694H-146V582ZM146 582V694H30V582Z" glyph-name="uni00A80300" horiz-adv-x="0" /><glyph d="M73 878 -4 969H-196L-50 878ZM-31 741V849H-154V741ZM154 741V849H31V741Z" glyph-name="uni00A80300.cap" horiz-adv-x="0" /><glyph d="M35 723 180 824H2L-66 723ZM-30 582V694H-146V582ZM146 582V694H30V582Z" glyph-name="uni00A80301" horiz-adv-x="0" /><glyph d="M50 878 196 969H4L-73 878ZM-31 741V849H-154V741ZM154 741V849H31V741Z" glyph-name="uni00A80301.cap" horiz-adv-x="0" /><glyph d="M148 727V801H-148V727ZM-30 582V694H-146V582ZM146 582V694H30V582Z" glyph-name="uni00A80304" horiz-adv-x="0" /><glyph d="M157 882V960H-157V882ZM-31 741V849H-154V741ZM154 741V849H31V741Z" glyph-name="uni00A80304.cap" horiz-adv-x="0" /><glyph d="M56 723 156 829H64L1 790L-62 829H-156L-56 723ZM-30 582V694H-146V582ZM146 582V694H30V582Z" glyph-name="uni00A8030C" horiz-adv-x="0" /><glyph d="M68 878 166 976H62L1 941L-61 976H-166L-68 878ZM-31 741V849H-154V741ZM154 741V849H31V741Z" glyph-name="uni00A8030C.cap" horiz-adv-x="0" /><glyph d="M377 415V509H198L280 583C345 636 370 675 370 724C370 796 312 842 220 842C155 842 95 816 44 774L87 691C132 725 173 745 206 745C234 745 250 731 250 710C250 691 237 672 207 645L36 493L53 415Z" glyph-name="uni00B2" horiz-adv-x="418" unicode="&#178;" /><glyph d="M44 411C285 418 374 466 374 548C374 600 339 629 258 640C335 665 369 697 369 747C369 804 319 842 224 842C161 842 98 828 45 805L70 722C116 742 164 753 202 753C233 753 248 743 248 728C248 706 220 687 108 659L118 590C228 590 253 577 253 553C253 526 212 507 44 499Z" glyph-name="uni00B3" horiz-adv-x="415" unicode="&#179;" /><glyph d="M208 -55 199 24C219 3 245 -8 275 -8C317 -8 354 13 395 54L420 0H526V528H368V165C341 146 307 131 276 131C235 131 214 154 214 199V528H56V-173H208Z" glyph-name="uni00B5" horiz-adv-x="582" unicode="&#181;" /><glyph d="M206 217V389H48V217Z" glyph-name="uni00B7" horiz-adv-x="254" unicode="&#183;" /><glyph d="M206 273V445H48V273Z" glyph-name="uni00B7.cap" horiz-adv-x="254" /><glyph d="M220 271V442H62V271Z" glyph-name="uni00B7.tab" horiz-adv-x="282" /><glyph d="M272 415V838H191L34 783L56 690L156 720V415Z" glyph-name="uni00B9" horiz-adv-x="347" unicode="&#185;" /><glyph d="M630 53V407H340V278H471V145C449 136 419 129 385 129C270 129 207 200 207 346C207 484 271 562 388 562C461 562 517 542 569 519L613 661C546 691 472 710 387 710C187 710 36 589 36 350C36 115 161 -9 375 -9C471 -9 565 19 630 53ZM291 -66C310 -87 317 -100 317 -120C317 -144 306 -161 284 -181L334 -218C398 -191 436 -151 436 -104C436 -80 429 -60 413 -38Z" glyph-name="uni0122" horiz-adv-x="686" unicode="&#290;" /><glyph d="M183 274C183 365 222 409 284 409C313 409 340 399 363 383V164C342 151 313 140 284 140C221 140 183 183 183 274ZM32 273C32 102 117 19 240 19C291 19 334 35 364 54V32C364 -36 324 -66 249 -66C192 -66 141 -54 94 -34L58 -141C114 -165 186 -179 262 -179C415 -179 521 -119 521 53V528H398L377 484C342 513 300 537 240 537C118 537 32 440 32 273ZM368 605C349 626 342 639 342 659C342 683 353 700 375 720L325 757C261 730 223 690 223 643C223 619 230 599 246 577Z" glyph-name="uni0123" horiz-adv-x="577" unicode="&#291;" /><glyph d="M463 0H665L398 361L656 700H456L236 397H233V700H65V0H233V321H235ZM263 -56C282 -77 289 -90 289 -110C289 -134 278 -151 256 -171L306 -208C370 -181 408 -141 408 -94C408 -70 401 -50 385 -28Z" glyph-name="uni0136" horiz-adv-x="668" unicode="&#310;" /><glyph d="M370 0H555L365 275L549 528H367L214 302V724H56V0H214V247H215ZM212 -56C231 -77 238 -90 238 -110C238 -134 227 -151 205 -171L255 -208C319 -181 357 -141 357 -94C357 -70 350 -50 334 -28Z" glyph-name="uni0137" horiz-adv-x="557" unicode="&#311;" /><glyph d="M526 0V151H233V700H65V0ZM217 -59C236 -80 243 -93 243 -113C243 -137 232 -154 210 -174L260 -211C324 -184 362 -144 362 -97C362 -73 355 -53 339 -31Z" glyph-name="uni013B" horiz-adv-x="553" unicode="&#315;" /><glyph d="M215 0V724H57V0ZM61 -59C80 -80 87 -93 87 -113C87 -137 76 -154 54 -174L104 -211C168 -184 206 -144 206 -97C206 -73 199 -53 183 -31Z" glyph-name="uni013C" horiz-adv-x="273" unicode="&#316;" /><glyph d="M221 445 471 0H651V700H495V263L250 700H65V0H221ZM280 -56C299 -77 306 -90 306 -110C306 -134 295 -151 273 -171L323 -208C387 -181 425 -141 425 -94C425 -70 418 -50 402 -28Z" glyph-name="uni0145" horiz-adv-x="716" unicode="&#325;" /><glyph d="M214 364C241 383 275 398 305 398C347 398 368 375 368 330V0H526V368C526 479 470 537 368 537C301 537 250 509 205 475L180 528H56V0H214ZM215 -56C234 -77 241 -90 241 -110C241 -134 230 -151 208 -171L258 -208C322 -181 360 -141 360 -94C360 -70 353 -50 337 -28Z" glyph-name="uni0146" horiz-adv-x="579" unicode="&#326;" /><glyph d="M230 362V565H323C408 565 445 529 445 469C445 401 396 362 311 362ZM230 232H261C313 232 343 214 374 165L474 0H670L549 185C514 240 490 264 446 282C530 308 616 365 616 491C616 626 527 700 333 700H65V0H230ZM265 -56C284 -77 291 -90 291 -110C291 -134 280 -151 258 -171L308 -208C372 -181 410 -141 410 -94C410 -70 403 -50 387 -28Z" glyph-name="uni0156" horiz-adv-x="671" unicode="&#342;" /><glyph d="M214 0V320C259 353 313 373 377 374V536C301 538 248 501 205 441L177 528H56V0ZM61 -59C80 -80 87 -93 87 -113C87 -137 76 -154 54 -174L104 -211C168 -184 206 -144 206 -97C206 -73 199 -53 183 -31Z" glyph-name="uni0157" horiz-adv-x="400" unicode="&#343;" /><glyph d="M193 -169C362 -167 422 -133 422 -87C422 -52 390 -33 320 -35L352 -7C496 7 577 82 577 212C577 335 508 386 340 431C235 462 216 480 216 513C216 546 243 570 302 570C373 570 449 549 505 523L546 661C482 689 402 709 311 709C147 709 52 628 52 498C52 380 122 331 287 287C387 255 414 234 414 195C414 156 382 130 306 130C219 130 132 157 65 187L25 50C90 20 169 -3 256 -9L210 -57L233 -85C269 -76 291 -81 291 -94C291 -108 270 -117 189 -122Z" glyph-name="uni015E" horiz-adv-x="608" unicode="&#350;" /><glyph d="M130 -169C299 -167 359 -133 359 -87C359 -52 327 -33 257 -35L288 -8C399 1 465 57 465 158C465 250 419 289 283 326C205 349 189 358 189 382C189 403 209 417 248 417C301 417 358 400 410 376L445 495C387 522 320 537 249 537C117 537 44 471 44 371C44 271 106 237 223 206C304 183 319 174 319 150C319 126 296 110 249 110C185 110 114 132 55 163L20 43C70 18 131 0 195 -7L147 -57L170 -85C206 -76 228 -81 228 -94C228 -108 207 -117 126 -122Z" glyph-name="uni015F" horiz-adv-x="491" unicode="&#351;" /><glyph d="M434 -87C434 -52 402 -33 332 -35L373 0H401V550H611V700H23V550H233V0H276L222 -57L245 -85C281 -76 303 -81 303 -94C303 -108 282 -117 201 -122L205 -169C374 -167 434 -133 434 -87Z" glyph-name="uni0162" horiz-adv-x="635" unicode="&#354;" /><glyph d="M132 -169C301 -167 361 -133 361 -87C361 -52 329 -33 259 -35L291 -7C326 -6 355 0 380 8V133C358 125 336 121 313 121C271 121 246 140 246 186V404H380V528H246V667H90V528H18V404H90V165C90 65 129 15 202 -1L149 -57L172 -85C208 -76 230 -81 230 -94C230 -108 209 -117 128 -122Z" glyph-name="uni0163" horiz-adv-x="411" unicode="&#355;" /><glyph d="M336 -12C522 -12 644 126 644 356C644 592 515 712 323 712C229 712 155 691 87 655L135 528C186 556 242 572 303 572C394 572 456 526 473 418H36V349C36 122 156 -12 336 -12ZM338 126C263 126 215 177 202 290H475C462 179 412 126 338 126Z" glyph-name="uni018F" horiz-adv-x="680" unicode="&#399;" /><glyph d="M439 263H268L354 539ZM520 0H696L455 704H255L13 0H187L226 125H481ZM355 810 295 853H190L286 746H422L518 853H414Z" glyph-name="uni01CD" horiz-adv-x="709" unicode="&#461;" /><glyph d="M248 94C202 94 173 116 173 165C173 187 178 204 189 215C204 230 225 237 271 237C295 237 317 235 339 232V122C312 106 279 94 248 94ZM349 48 370 0H507L494 107V345C494 481 424 537 275 537C194 537 124 519 63 496L95 379C145 400 197 413 249 413C315 413 339 385 339 336V312C310 317 276 321 240 321C153 321 103 304 70 271C43 244 28 205 28 158C28 47 95 -9 190 -9C255 -9 303 12 349 48ZM276 653 215 704H121L219 584H331L429 704H337Z" glyph-name="uni01CE" horiz-adv-x="548" unicode="&#462;" /><glyph d="M236 0V700H68V0ZM153 805 93 848H-12L84 741H220L316 848H212Z" glyph-name="uni01CF" horiz-adv-x="304" unicode="&#463;" /><glyph d="M215 0V528H57V0ZM137 650 76 701H-18L80 581H192L290 701H198Z" glyph-name="uni01D0" horiz-adv-x="273" unicode="&#464;" /><glyph d="M680 351C680 576 550 712 359 712C166 712 36 574 36 349C36 125 166 -12 357 -12C549 -12 680 126 680 351ZM509 349C509 209 450 132 359 132C267 132 207 210 207 351C207 491 266 568 358 568C448 568 509 490 509 349ZM359 812 299 855H194L290 748H426L522 855H418Z" glyph-name="uni01D1" horiz-adv-x="716" unicode="&#465;" /><glyph d="M527 265C527 439 420 540 279 540C137 540 30 437 30 263C30 89 137 -12 278 -12C420 -12 527 90 527 265ZM377 264C377 172 339 118 279 118C220 118 180 173 180 264C180 355 219 409 278 409C337 409 377 354 377 264ZM279 653 218 704H124L222 584H334L432 704H340Z" glyph-name="uni01D2" horiz-adv-x="557" unicode="&#466;" /><glyph d="M638 277V700H472V269C472 171 420 132 349 132C278 132 226 171 226 269V700H57V276C57 73 176 -11 347 -11C518 -11 638 73 638 277ZM349 802 289 845H184L280 738H416L512 845H408Z" glyph-name="uni01D3" horiz-adv-x="695" unicode="&#467;" /><glyph d="M374 52 399 0H523V528H365V163C338 145 304 129 273 129C232 129 211 153 211 197V528H53V160C53 49 108 -9 210 -9C278 -9 328 18 374 52ZM289 647 228 698H134L232 578H344L442 698H350Z" glyph-name="uni01D4" horiz-adv-x="579" unicode="&#468;" /><glyph d="M638 277V700H472V269C472 171 420 132 349 132C278 132 226 171 226 269V700H57V276C57 73 176 -11 347 -11C518 -11 638 73 638 277ZM505 882V960H191V882ZM317 741V849H194V741ZM502 741V849H379V741Z" glyph-name="uni01D5" horiz-adv-x="695" unicode="&#469;" /><glyph d="M374 52 399 0H523V528H365V163C338 145 304 129 273 129C232 129 211 153 211 197V528H53V160C53 49 108 -9 210 -9C278 -9 328 18 374 52ZM436 727V801H140V727ZM258 582V694H142V582ZM434 582V694H318V582Z" glyph-name="uni01D6" horiz-adv-x="579" unicode="&#470;" /><glyph d="M638 277V700H472V269C472 171 420 132 349 132C278 132 226 171 226 269V700H57V276C57 73 176 -11 347 -11C518 -11 638 73 638 277ZM398 878 544 969H352L275 878ZM317 741V849H194V741ZM502 741V849H379V741Z" glyph-name="uni01D7" horiz-adv-x="695" unicode="&#471;" /><glyph d="M374 52 399 0H523V528H365V163C338 145 304 129 273 129C232 129 211 153 211 197V528H53V160C53 49 108 -9 210 -9C278 -9 328 18 374 52ZM323 723 468 824H290L222 723ZM258 582V694H142V582ZM434 582V694H318V582Z" glyph-name="uni01D8" horiz-adv-x="579" unicode="&#472;" /><glyph d="M638 277V700H472V269C472 171 420 132 349 132C278 132 226 171 226 269V700H57V276C57 73 176 -11 347 -11C518 -11 638 73 638 277ZM416 878 514 976H410L349 941L287 976H182L280 878ZM317 741V849H194V741ZM502 741V849H379V741Z" glyph-name="uni01D9" horiz-adv-x="695" unicode="&#473;" /><glyph d="M374 52 399 0H523V528H365V163C338 145 304 129 273 129C232 129 211 153 211 197V528H53V160C53 49 108 -9 210 -9C278 -9 328 18 374 52ZM344 723 444 829H352L289 790L226 829H132L232 723ZM258 582V694H142V582ZM434 582V694H318V582Z" glyph-name="uni01DA" horiz-adv-x="579" unicode="&#474;" /><glyph d="M638 277V700H472V269C472 171 420 132 349 132C278 132 226 171 226 269V700H57V276C57 73 176 -11 347 -11C518 -11 638 73 638 277ZM421 878 344 969H152L298 878ZM317 741V849H194V741ZM502 741V849H379V741Z" glyph-name="uni01DB" horiz-adv-x="695" unicode="&#475;" /><glyph d="M374 52 399 0H523V528H365V163C338 145 304 129 273 129C232 129 211 153 211 197V528H53V160C53 49 108 -9 210 -9C278 -9 328 18 374 52ZM253 723H354L286 824H108ZM258 582V694H142V582ZM434 582V694H318V582Z" glyph-name="uni01DC" horiz-adv-x="579" unicode="&#476;" /><glyph d="M452 -151 461 -86C407 -73 399 -68 399 -54C399 -46 402 -38 423 -6C578 22 680 153 680 351C680 576 550 712 359 712C166 712 36 574 36 349C36 140 149 7 320 -10C277 -43 265 -61 265 -82C265 -124 314 -144 452 -151ZM509 349C509 209 450 132 359 132C267 132 207 210 207 351C207 491 266 568 358 568C448 568 509 490 509 349Z" glyph-name="uni01EA" horiz-adv-x="716" unicode="&#490;" /><glyph d="M372 -151 381 -86C327 -73 319 -68 319 -54C319 -46 322 -38 344 -4C452 23 527 118 527 265C527 439 420 540 279 540C137 540 30 437 30 263C30 105 119 7 241 -10C197 -43 185 -61 185 -82C185 -124 234 -144 372 -151ZM377 264C377 172 339 118 279 118C220 118 180 173 180 264C180 355 219 409 278 409C337 409 377 354 377 264Z" glyph-name="uni01EB" horiz-adv-x="557" unicode="&#491;" /><glyph d="M90 -182C180 -110 216 -59 216 84V528H58V87C58 -12 38 -48 -20 -107ZM138 650 77 701H-17L81 581H193L291 701H199Z" glyph-name="uni01F0" horiz-adv-x="273" unicode="&#496;" /><glyph d="M221 445 471 0H651V700H495V263L250 700H65V0H221ZM317 738H441L356 838H162Z" glyph-name="uni01F8" horiz-adv-x="716" unicode="&#504;" /><glyph d="M214 364C241 383 275 398 305 398C347 398 368 375 368 330V0H526V368C526 479 470 537 368 537C301 537 250 509 205 475L180 528H56V0H214ZM256 584H358L278 699H96Z" glyph-name="uni01F9" horiz-adv-x="579" unicode="&#505;" /><glyph d="M577 212C577 335 508 386 340 431C235 462 216 480 216 513C216 546 243 570 302 570C373 570 449 549 505 523L546 661C482 689 402 709 311 709C147 709 52 628 52 498C52 380 122 331 287 287C387 255 414 234 414 195C414 156 382 130 306 130C219 130 132 157 65 187L25 50C101 15 195 -10 299 -10C476 -10 577 67 577 212ZM235 -66C254 -87 261 -100 261 -120C261 -144 250 -161 228 -181L278 -218C342 -191 380 -151 380 -104C380 -80 373 -60 357 -38Z" glyph-name="uni0218" horiz-adv-x="608" unicode="&#536;" /><glyph d="M465 158C465 250 419 289 283 326C205 349 189 358 189 382C189 403 209 417 248 417C301 417 358 400 410 376L445 495C387 522 320 537 249 537C117 537 44 471 44 371C44 271 106 237 223 206C304 183 319 174 319 150C319 126 296 110 249 110C185 110 114 132 55 163L20 43C85 10 169 -10 252 -10C384 -10 465 47 465 158ZM174 -62C193 -83 200 -96 200 -116C200 -140 189 -157 167 -177L217 -214C281 -187 319 -147 319 -100C319 -76 312 -56 296 -34Z" glyph-name="uni0219" horiz-adv-x="491" unicode="&#537;" /><glyph d="M401 0V550H611V700H23V550H233V0ZM242 -59C261 -80 268 -93 268 -113C268 -137 257 -154 235 -174L285 -211C349 -184 387 -144 387 -97C387 -73 380 -53 364 -31Z" glyph-name="uni021A" horiz-adv-x="635" unicode="&#538;" /><glyph d="M268 -8C313 -8 350 -2 380 8V133C358 125 336 121 313 121C271 121 246 140 246 186V404H380V528H246V667H90V528H18V404H90V165C90 39 152 -8 268 -8ZM162 -62C181 -83 188 -96 188 -116C188 -140 177 -157 155 -177L205 -214C269 -187 307 -147 307 -100C307 -76 300 -56 284 -34Z" glyph-name="uni021B" horiz-adv-x="411" unicode="&#539;" /><glyph d="M439 263H268L354 539ZM520 0H696L455 704H255L13 0H187L226 125H481ZM418 746V857H290V746Z" glyph-name="uni0226" horiz-adv-x="709" unicode="&#550;" /><glyph d="M248 94C202 94 173 116 173 165C173 187 178 204 189 215C204 230 225 237 271 237C295 237 317 235 339 232V122C312 106 279 94 248 94ZM349 48 370 0H507L494 107V345C494 481 424 537 275 537C194 537 124 519 63 496L95 379C145 400 197 413 249 413C315 413 339 385 339 336V312C310 317 276 321 240 321C153 321 103 304 70 271C43 244 28 205 28 158C28 47 95 -9 190 -9C255 -9 303 12 349 48ZM336 585V700H214V585Z" glyph-name="uni0227" horiz-adv-x="548" unicode="&#551;" /><glyph d="M680 351C680 576 550 712 359 712C166 712 36 574 36 349C36 125 166 -12 357 -12C549 -12 680 126 680 351ZM509 349C509 209 450 132 359 132C267 132 207 210 207 351C207 491 266 568 358 568C448 568 509 490 509 349ZM422 748V859H294V748Z" glyph-name="uni022E" horiz-adv-x="716" unicode="&#558;" /><glyph d="M527 265C527 439 420 540 279 540C137 540 30 437 30 263C30 89 137 -12 278 -12C420 -12 527 90 527 265ZM377 264C377 172 339 118 279 118C220 118 180 173 180 264C180 355 219 409 278 409C337 409 377 354 377 264ZM339 585V700H217V585Z" glyph-name="uni022F" horiz-adv-x="557" unicode="&#559;" /><glyph d="M412 0V256L652 700H473L330 415L186 700H4L244 256V0ZM486 745V825H170V745Z" glyph-name="uni0232" horiz-adv-x="656" unicode="&#562;" /><glyph d="M74 -179C277 -134 332 -85 391 93L532 528H373L277 166L177 528H15L183 15C146 -17 98 -38 38 -54ZM415 587V662H131V587Z" glyph-name="uni0233" horiz-adv-x="540" unicode="&#563;" /><glyph d="M90 -182C180 -110 216 -59 216 84V528H58V87C58 -12 38 -48 -20 -107Z" glyph-name="uni0237" horiz-adv-x="273" unicode="&#567;" /><glyph d="M243 538C176 538 105 520 46 488L81 386C129 410 184 424 229 424C307 424 352 384 358 316H27V274C27 94 119 -12 264 -12C401 -12 505 92 505 267C505 455 399 538 243 538ZM358 223C352 150 319 105 265 105C210 105 178 150 173 223Z" glyph-name="uni0259" horiz-adv-x="535" unicode="&#601;" /><glyph d="M265 722V724H94L32 427L96 407Z" glyph-name="uni02B9" horiz-adv-x="284" unicode="&#697;" /><glyph d="M464 722V724H302L240 427L305 407ZM255 722V724H93L32 427L96 407Z" glyph-name="uni02BA" horiz-adv-x="482" unicode="&#698;" /><glyph d="M22 414H172C172 556 188 616 233 692L183 730C75 641 22 542 22 422Z" glyph-name="uni02BB" horiz-adv-x="245" unicode="&#699;" /><glyph d="M223 724H73C73 582 57 522 12 445L62 407C170 497 223 596 223 716Z" glyph-name="uni02BC" horiz-adv-x="245" unicode="&#700;" /><glyph d="M23 611V515C132 515 198 575 198 664C198 753 132 812 23 812V716C68 716 93 695 93 664C93 632 68 611 23 611Z" glyph-name="uni02BE" horiz-adv-x="211" unicode="&#702;" /><glyph d="M187 716V812C79 812 13 752 13 664C13 574 79 515 187 515V611C143 611 118 633 118 664C118 696 143 716 187 716Z" glyph-name="uni02BF" horiz-adv-x="211" unicode="&#703;" /><glyph d="M157 672H243L176 773H12ZM-1 624 62 581H156L56 692H-56L-156 581H-64Z" glyph-name="uni02C60300" horiz-adv-x="0" /><glyph d="M274 828 197 919H20L166 828ZM-1 779 60 741H166L68 842H-68L-166 741H-62Z" glyph-name="uni02C60300.cap" horiz-adv-x="0" /><glyph d="M202 672 347 773H183L115 672ZM-1 624 62 581H156L56 692H-56L-156 581H-64Z" glyph-name="uni02C60301" horiz-adv-x="0" /><glyph d="M233 828 379 919H201L124 828ZM-1 779 60 741H166L68 842H-68L-166 741H-62Z" glyph-name="uni02C60301.cap" horiz-adv-x="0" /><glyph d="M-88 712C-73 746 -64 755 -49 755C-35 755 -24 750 5 735C39 718 51 713 72 713C106 713 134 739 162 817L100 838C84 803 76 795 60 795C46 795 35 799 6 814C-28 832 -39 837 -61 837C-94 837 -123 811 -150 733ZM-1 622 63 581H157L56 690H-56L-157 581H-65Z" glyph-name="uni02C60303" horiz-adv-x="0" /><glyph d="M-92 863C-78 899 -69 906 -53 906C-38 906 -26 901 3 886C38 869 53 864 75 864C110 864 141 888 169 970L102 991C87 955 78 948 62 948C48 948 35 953 6 967C-29 985 -43 990 -65 990C-101 990 -131 966 -160 884ZM-1 777 62 741H167L68 839H-68L-167 741H-64Z" glyph-name="uni02C60303.cap" horiz-adv-x="0" /><glyph d="M62 803 75 738C101 746 129 750 154 750C179 750 188 745 188 735C188 726 175 717 126 699L145 649C236 679 267 707 267 749C267 789 231 817 164 817C127 817 95 812 62 803ZM-1 624 62 581H156L56 692H-56L-156 581H-64Z" glyph-name="uni02C60309" horiz-adv-x="0" /><glyph d="M61 954 73 889C102 896 133 901 164 901C194 901 204 895 204 887C204 878 192 872 137 857L151 804C249 829 285 858 285 900C285 941 247 968 171 968C131 968 96 964 61 954ZM-1 779 60 741H166L68 842H-68L-166 741H-62Z" glyph-name="uni02C60309.cap" horiz-adv-x="0" /><glyph d="M29 524H141V803H29Z" glyph-name="uni02C8" horiz-adv-x="170" unicode="&#712;" /><glyph d="M29 -103H141V176H29Z" glyph-name="uni02CC" horiz-adv-x="170" unicode="&#716;" /><glyph d="M392 -120V-45H108V-120Z" glyph-name="uni02CD" horiz-adv-x="500" unicode="&#717;" /><glyph d="M-35 716H66L-1 817H-179ZM1 657C-39 657 -62 674 -70 696H-145C-140 628 -91 576 -1 576C89 576 140 628 145 696H70C62 674 40 657 1 657Z" glyph-name="uni02D80300" horiz-adv-x="0" /><glyph d="M74 876 -3 967H-195L-49 876ZM1 817C-39 817 -64 832 -73 854H-156C-148 786 -94 736 -1 736C93 736 148 786 156 854H73C64 832 40 817 1 817Z" glyph-name="uni02D80300.cap" horiz-adv-x="0" /><glyph d="M35 716 179 817H1L-66 716ZM1 657C-39 657 -62 674 -70 696H-145C-140 628 -91 576 -1 576C89 576 140 628 145 696H70C62 674 40 657 1 657Z" glyph-name="uni02D80301" horiz-adv-x="0" /><glyph d="M49 876 195 967H3L-74 876ZM1 817C-39 817 -64 832 -73 854H-156C-148 786 -94 736 -1 736C93 736 148 786 156 854H73C64 832 40 817 1 817Z" glyph-name="uni02D80301.cap" horiz-adv-x="0" /><glyph d="M-90 719C-75 754 -66 763 -51 763C-37 763 -26 758 3 743C37 725 49 720 70 720C104 720 133 746 160 824L98 846C82 811 74 802 58 802C44 802 33 807 4 822C-30 839 -41 844 -63 844C-96 844 -125 819 -152 740ZM1 657C-39 657 -62 674 -70 696H-145C-140 628 -91 576 -1 576C89 576 140 628 145 696H70C62 674 40 657 1 657Z" glyph-name="uni02D80303" horiz-adv-x="0" /><glyph d="M-94 877C-80 913 -71 921 -55 921C-40 921 -28 915 1 901C36 883 51 878 73 878C108 878 139 902 167 984L100 1005C85 970 76 962 60 962C46 962 33 967 4 982C-31 1000 -45 1004 -67 1004C-103 1004 -133 980 -162 898ZM1 817C-39 817 -64 832 -73 854H-156C-148 786 -94 736 -1 736C93 736 148 786 156 854H73C64 832 40 817 1 817Z" glyph-name="uni02D80303.cap" horiz-adv-x="0" /><glyph d="M-115 849 -101 784C-70 792 -38 797 -10 797C18 797 27 791 27 783C27 773 14 765 -38 747L-20 696C81 726 117 754 117 796C117 837 77 865 -1 865C-41 865 -77 860 -115 849ZM1 657C-39 657 -62 674 -70 696H-145C-140 628 -91 576 -1 576C89 576 140 628 145 696H70C62 674 40 657 1 657Z" glyph-name="uni02D80309" horiz-adv-x="0" /><glyph d="M-135 1009 -121 942C-83 950 -45 955 -9 955C27 955 37 950 37 943C37 934 24 927 -39 911L-22 857C93 885 134 914 134 956C134 997 92 1023 -1 1023C-48 1023 -91 1019 -135 1009ZM1 817C-39 817 -64 832 -73 854H-156C-148 786 -94 736 -1 736C93 736 148 786 156 854H73C64 832 40 817 1 817Z" glyph-name="uni02D80309.cap" horiz-adv-x="0" /><glyph d="M-32 581H70L-10 696H-192Z" glyph-name="uni0300" horiz-adv-x="0" unicode="&#768;" /><glyph d="M32 581 192 696H10L-70 581Z" glyph-name="uni0301" horiz-adv-x="0" unicode="&#769;" /><glyph d="M-1 632 60 581H154L56 701H-56L-154 581H-62Z" glyph-name="uni0302" horiz-adv-x="0" unicode="&#770;" /><glyph d="M-103 575C-86 614 -75 623 -57 623C-42 623 -29 617 3 601C41 582 58 576 81 576C120 576 151 604 180 694L113 713C95 674 84 665 67 665C52 665 38 671 6 687C-31 706 -49 712 -72 712C-110 712 -143 684 -170 594Z" glyph-name="uni0303" horiz-adv-x="0" unicode="&#771;" /><glyph d="M142 587V662H-142V587Z" glyph-name="uni0304" horiz-adv-x="0" unicode="&#772;" /><glyph d="M1 660C-40 660 -62 680 -70 707H-145C-140 633 -92 576 -1 576C90 576 140 633 145 707H70C62 680 42 660 1 660Z" glyph-name="uni0306" horiz-adv-x="0" unicode="&#774;" /><glyph d="M61 582V697H-61V582Z" glyph-name="uni0307" horiz-adv-x="0" unicode="&#775;" /><glyph d="M-30 582V697H-146V582ZM146 582V697H30V582Z" glyph-name="uni0308" horiz-adv-x="0" unicode="&#776;" /><glyph d="M-132 741 -115 669C-81 679 -43 685 -10 685C22 685 33 679 33 670C33 659 20 651 -42 630L-23 573C88 607 127 637 127 685C127 729 83 760 -2 760C-47 760 -90 753 -132 741Z" glyph-name="uni0309" horiz-adv-x="0" unicode="&#777;" /><glyph d="M-108 678C-108 620 -63 575 0 575C63 575 108 620 108 678C108 736 63 781 0 781C-63 781 -108 736 -108 678ZM-63 678C-63 715 -35 741 0 741C35 741 63 715 63 678C63 642 35 615 0 615C-35 615 -63 642 -63 678Z" glyph-name="uni030A" horiz-adv-x="0" unicode="&#778;" /><glyph d="M-54 581 91 696H-51L-138 581ZM114 581 259 696H117L30 581Z" glyph-name="uni030B" horiz-adv-x="0" unicode="&#779;" /><glyph d="M1 650 -60 701H-154L-56 581H56L154 701H62Z" glyph-name="uni030C" horiz-adv-x="0" unicode="&#780;" /><glyph d="M75 602C56 623 49 636 49 656C49 680 60 697 82 717L32 754C-32 727 -70 687 -70 640C-70 616 -63 596 -47 574Z" glyph-name="uni0312" horiz-adv-x="0" unicode="&#786;" /><glyph d="M98 724H0V688C0 642 -4 606 -17 569L28 546C73 588 98 631 98 696Z" glyph-name="uni0315" horiz-adv-x="0" unicode="&#789;" /><glyph d="M61 -156V-41H-61V-156Z" glyph-name="uni0323" horiz-adv-x="0" unicode="&#803;" /><glyph d="M-30 -156V-41H-146V-156ZM146 -156V-41H30V-156Z" glyph-name="uni0324" horiz-adv-x="0" unicode="&#804;" /><glyph d="M-75 -59C-56 -80 -49 -93 -49 -113C-49 -137 -60 -154 -82 -174L-32 -211C32 -184 70 -144 70 -97C70 -73 63 -53 47 -31Z" glyph-name="uni0326" horiz-adv-x="0" unicode="&#806;" /><glyph d="M-113 -169C56 -167 116 -133 116 -87C116 -52 84 -33 14 -35L64 8L-32 10L-96 -57L-73 -85C-37 -76 -15 -81 -15 -94C-15 -108 -36 -117 -117 -122Z" glyph-name="uni0327" horiz-adv-x="0" unicode="&#807;" /><glyph d="M92 -86C38 -73 30 -68 30 -54C30 -45 34 -36 63 8L-22 10C-87 -37 -104 -57 -104 -82C-104 -124 -55 -144 83 -151Z" glyph-name="uni0328" horiz-adv-x="0" unicode="&#808;" /><glyph d="M-1 -110 60 -161H154L56 -41H-56L-154 -161H-62Z" glyph-name="uni032D" horiz-adv-x="0" unicode="&#813;" /><glyph d="M1 -88C-40 -88 -62 -68 -70 -41H-145C-140 -115 -92 -172 -1 -172C90 -172 140 -115 145 -41H70C62 -68 42 -88 1 -88Z" glyph-name="uni032E" horiz-adv-x="0" unicode="&#814;" /><glyph d="M142 -120V-45H-142V-120Z" glyph-name="uni0331" horiz-adv-x="0" unicode="&#817;" /><glyph d="M126 -120V-45H-126V-120Z" glyph-name="uni0331.nrw" horiz-adv-x="0" /><glyph d="M378 -110V0C548 5 640 76 640 199C640 295 580 342 487 362C562 384 621 430 621 524C621 629 545 697 378 700V779H292V700H65V0H292V-110ZM217 416V575H302V416ZM367 575C433 575 464 547 464 502C464 450 429 419 367 416ZM217 124V302H302V124ZM480 214C480 156 440 124 367 124V302C442 299 480 268 480 214Z" glyph-name="uni0E3F" horiz-adv-x="671" unicode="&#3647;" /><glyph d="M341 0C524 0 624 71 624 199C624 295 563 342 470 362C546 384 605 429 605 524C605 632 525 700 348 700H65V0ZM229 417V571H335C402 571 432 544 432 500C432 448 395 417 325 417ZM229 128V301H331C409 301 451 270 451 216C451 159 412 128 342 128ZM483 -120V-45H199V-120Z" glyph-name="uni1E06" horiz-adv-x="654" unicode="&#7686;" /><glyph d="M337 -10C457 -10 545 86 545 264C545 444 459 537 343 537C290 537 247 516 214 489V724H56V0H179L200 43C235 15 277 -10 337 -10ZM293 119C264 119 237 129 214 144V378C235 394 264 409 295 409C356 409 394 361 394 264C394 165 355 119 293 119ZM426 -123V-48H142V-123Z" glyph-name="uni1E07" horiz-adv-x="577" unicode="&#7687;" /><glyph d="M659 352C659 595 500 700 276 700H65V0H270C498 0 659 106 659 352ZM232 146V554H283C411 554 488 496 488 350C488 203 409 146 282 146ZM402 -156V-41H280V-156Z" glyph-name="uni1E0C" horiz-adv-x="695" unicode="&#7692;" /><glyph d="M281 119C221 119 183 167 183 263C183 362 222 409 284 409C313 409 340 399 363 383V150C342 133 313 119 281 119ZM374 48 398 0H521V724H363V505C326 525 290 537 246 537C121 537 32 442 32 263C32 84 119 -10 232 -10C296 -10 338 17 374 48ZM353 -159V-44H231V-159Z" glyph-name="uni1E0D" horiz-adv-x="577" unicode="&#7693;" /><glyph d="M659 352C659 595 500 700 276 700H65V0H270C498 0 659 106 659 352ZM232 146V554H283C411 554 488 496 488 350C488 203 409 146 282 146ZM483 -120V-45H199V-120Z" glyph-name="uni1E0E" horiz-adv-x="695" unicode="&#7694;" /><glyph d="M281 119C221 119 183 167 183 263C183 362 222 409 284 409C313 409 340 399 363 383V150C342 133 313 119 281 119ZM374 48 398 0H521V724H363V505C326 525 290 537 246 537C121 537 32 442 32 263C32 84 119 -10 232 -10C296 -10 338 17 374 48ZM434 -123V-48H150V-123Z" glyph-name="uni1E0F" horiz-adv-x="577" unicode="&#7695;" /><glyph d="M659 352C659 595 500 700 276 700H65V0H270C498 0 659 106 659 352ZM232 146V554H283C411 554 488 496 488 350C488 203 409 146 282 146ZM340 -110 401 -161H495L397 -41H285L187 -161H279Z" glyph-name="uni1E12" horiz-adv-x="695" unicode="&#7698;" /><glyph d="M281 119C221 119 183 167 183 263C183 362 222 409 284 409C313 409 340 399 363 383V150C342 133 313 119 281 119ZM374 48 398 0H521V724H363V505C326 525 290 537 246 537C121 537 32 442 32 263C32 84 119 -10 232 -10C296 -10 338 17 374 48ZM291 -113 352 -164H446L348 -44H236L138 -164H230Z" glyph-name="uni1E13" horiz-adv-x="577" unicode="&#7699;" /><glyph d="M630 53V407H340V278H471V145C449 136 419 129 385 129C270 129 207 200 207 346C207 484 271 562 388 562C461 562 517 542 569 519L613 661C546 691 472 710 387 710C187 710 36 589 36 350C36 115 161 -9 375 -9C471 -9 565 19 630 53ZM524 752V832H208V752Z" glyph-name="uni1E20" horiz-adv-x="686" unicode="&#7712;" /><glyph d="M183 274C183 365 222 409 284 409C313 409 340 399 363 383V164C342 151 313 140 284 140C221 140 183 183 183 274ZM32 273C32 102 117 19 240 19C291 19 334 35 364 54V32C364 -36 324 -66 249 -66C192 -66 141 -54 94 -34L58 -141C114 -165 186 -179 262 -179C415 -179 521 -119 521 53V528H398L377 484C342 513 300 537 240 537C118 537 32 440 32 273ZM435 590V665H151V590Z" glyph-name="uni1E21" horiz-adv-x="577" unicode="&#7713;" /><glyph d="M233 281H478V0H646V700H478V437H233V700H65V0H233ZM416 -153V-38H294V-153Z" glyph-name="uni1E24" horiz-adv-x="711" unicode="&#7716;" /><glyph d="M214 364C241 383 275 398 305 398C347 398 368 375 368 330V0H526V368C526 479 470 537 368 537C306 537 257 512 214 482V724H56V0H214ZM351 -153V-38H229V-153Z" glyph-name="uni1E25" horiz-adv-x="579" unicode="&#7717;" /><glyph d="M265 -87C265 -52 233 -33 163 -35L204 0H233V281H478V0H646V700H478V437H233V700H65V0H107L53 -57L76 -85C112 -76 134 -81 134 -94C134 -108 113 -117 32 -122L36 -169C205 -167 265 -133 265 -87Z" glyph-name="uni1E28" horiz-adv-x="711" unicode="&#7720;" /><glyph d="M251 -87C251 -52 219 -33 149 -35L190 0H214V364C241 383 275 398 305 398C347 398 368 375 368 330V0H526V368C526 479 470 537 368 537C306 537 257 512 214 482V724H56V0H93L39 -57L62 -85C98 -76 120 -81 120 -94C120 -108 99 -117 18 -122L22 -169C191 -167 251 -133 251 -87Z" glyph-name="uni1E29" horiz-adv-x="579" unicode="&#7721;" /><glyph d="M233 281H478V0H646V700H478V437H233V700H65V0H233ZM356 -88C315 -88 293 -68 285 -41H210C215 -115 263 -172 354 -172C445 -172 495 -115 500 -41H425C417 -68 397 -88 356 -88Z" glyph-name="uni1E2A" horiz-adv-x="711" unicode="&#7722;" /><glyph d="M214 364C241 383 275 398 305 398C347 398 368 375 368 330V0H526V368C526 479 470 537 368 537C306 537 257 512 214 482V724H56V0H214ZM291 -88C250 -88 228 -68 220 -41H145C150 -115 198 -172 289 -172C380 -172 430 -115 435 -41H360C352 -68 332 -88 291 -88Z" glyph-name="uni1E2B" horiz-adv-x="579" unicode="&#7723;" /><glyph d="M463 0H665L398 361L656 700H456L236 397H233V700H65V0H233V321H235ZM399 -153V-38H277V-153Z" glyph-name="uni1E32" horiz-adv-x="668" unicode="&#7730;" /><glyph d="M370 0H555L365 275L549 528H367L214 302V724H56V0H214V247H215ZM348 -153V-38H226V-153Z" glyph-name="uni1E33" horiz-adv-x="557" unicode="&#7731;" /><glyph d="M463 0H665L398 361L656 700H456L236 397H233V700H65V0H233V321H235ZM480 -120V-45H196V-120Z" glyph-name="uni1E34" horiz-adv-x="668" unicode="&#7732;" /><glyph d="M370 0H555L365 275L549 528H367L214 302V724H56V0H214V247H215ZM429 -120V-45H145V-120Z" glyph-name="uni1E35" horiz-adv-x="557" unicode="&#7733;" /><glyph d="M526 0V151H233V700H65V0ZM353 -156V-41H231V-156Z" glyph-name="uni1E36" horiz-adv-x="553" unicode="&#7734;" /><glyph d="M215 0V724H57V0ZM197 -156V-41H75V-156Z" glyph-name="uni1E37" horiz-adv-x="273" unicode="&#7735;" /><glyph d="M526 0V151H233V700H65V0ZM288 745V825H10V745ZM353 -156V-41H231V-156Z" glyph-name="uni1E38" horiz-adv-x="553" unicode="&#7736;" /><glyph d="M215 0V724H57V0ZM262 772V847H10V772ZM197 -156V-41H75V-156Z" glyph-name="uni1E39" horiz-adv-x="273" unicode="&#7737;" /><glyph d="M526 0V151H233V700H65V0ZM434 -120V-45H150V-120Z" glyph-name="uni1E3A" horiz-adv-x="553" unicode="&#7738;" /><glyph d="M215 0V724H57V0ZM262 -120V-45H10V-120Z" glyph-name="uni1E3B" horiz-adv-x="273" unicode="&#7739;" /><glyph d="M526 0V151H233V700H65V0ZM291 -110 352 -161H446L348 -41H236L138 -161H230Z" glyph-name="uni1E3C" horiz-adv-x="553" unicode="&#7740;" /><glyph d="M215 0V724H57V0ZM135 -110 196 -161H290L192 -41H80L-18 -161H74Z" glyph-name="uni1E3D" horiz-adv-x="273" unicode="&#7741;" /><glyph d="M377 0H538L687 502L710 0H875L838 700H597L459 222L322 700H87L49 0H205L229 500ZM507 738 662 838H468L383 738Z" glyph-name="uni1E3E" horiz-adv-x="924" unicode="&#7742;" /><glyph d="M828 0V369C828 480 771 537 671 537C605 537 549 510 497 472C472 515 427 537 366 537C301 537 251 509 205 475L180 528H56V0H214V364C241 383 275 398 303 398C342 398 363 375 363 331V0H521V348C521 353 520 358 518 363C547 383 582 398 610 398C649 398 670 375 670 331V0ZM474 584 634 699H452L372 584Z" glyph-name="uni1E3F" horiz-adv-x="881" unicode="&#7743;" /><glyph d="M377 0H538L687 502L710 0H875L838 700H597L459 222L322 700H87L49 0H205L229 500ZM524 738V849H396V738Z" glyph-name="uni1E40" horiz-adv-x="924" unicode="&#7744;" /><glyph d="M828 0V369C828 480 771 537 671 537C605 537 549 510 497 472C472 515 427 537 366 537C301 537 251 509 205 475L180 528H56V0H214V364C241 383 275 398 303 398C342 398 363 375 363 331V0H521V348C521 353 520 358 518 363C547 383 582 398 610 398C649 398 670 375 670 331V0ZM503 585V700H381V585Z" glyph-name="uni1E41" horiz-adv-x="881" unicode="&#7745;" /><glyph d="M377 0H538L687 502L710 0H875L838 700H597L459 222L322 700H87L49 0H205L229 500ZM518 -156V-41H396V-156Z" glyph-name="uni1E42" horiz-adv-x="924" unicode="&#7746;" /><glyph d="M828 0V369C828 480 771 537 671 537C605 537 549 510 497 472C472 515 427 537 366 537C301 537 251 509 205 475L180 528H56V0H214V364C241 383 275 398 303 398C342 398 363 375 363 331V0H521V348C521 353 520 358 518 363C547 383 582 398 610 398C649 398 670 375 670 331V0ZM503 -156V-41H381V-156Z" glyph-name="uni1E43" horiz-adv-x="881" unicode="&#7747;" /><glyph d="M221 445 471 0H651V700H495V263L250 700H65V0H221ZM428 738V849H300V738Z" glyph-name="uni1E44" horiz-adv-x="716" unicode="&#7748;" /><glyph d="M214 364C241 383 275 398 305 398C347 398 368 375 368 330V0H526V368C526 479 470 537 368 537C301 537 250 509 205 475L180 528H56V0H214ZM349 585V700H227V585Z" glyph-name="uni1E45" horiz-adv-x="579" unicode="&#7749;" /><glyph d="M221 445 471 0H651V700H495V263L250 700H65V0H221ZM416 -153V-38H294V-153Z" glyph-name="uni1E46" horiz-adv-x="716" unicode="&#7750;" /><glyph d="M214 364C241 383 275 398 305 398C347 398 368 375 368 330V0H526V368C526 479 470 537 368 537C301 537 250 509 205 475L180 528H56V0H214ZM351 -153V-38H229V-153Z" glyph-name="uni1E47" horiz-adv-x="579" unicode="&#7751;" /><glyph d="M221 445 471 0H651V700H495V263L250 700H65V0H221ZM497 -120V-45H213V-120Z" glyph-name="uni1E48" horiz-adv-x="716" unicode="&#7752;" /><glyph d="M214 364C241 383 275 398 305 398C347 398 368 375 368 330V0H526V368C526 479 470 537 368 537C301 537 250 509 205 475L180 528H56V0H214ZM432 -120V-45H148V-120Z" glyph-name="uni1E49" horiz-adv-x="579" unicode="&#7753;" /><glyph d="M221 445 471 0H651V700H495V263L250 700H65V0H221ZM354 -107 415 -158H509L411 -38H299L201 -158H293Z" glyph-name="uni1E4A" horiz-adv-x="716" unicode="&#7754;" /><glyph d="M214 364C241 383 275 398 305 398C347 398 368 375 368 330V0H526V368C526 479 470 537 368 537C301 537 250 509 205 475L180 528H56V0H214ZM289 -107 350 -158H444L346 -38H234L136 -158H228Z" glyph-name="uni1E4B" horiz-adv-x="579" unicode="&#7755;" /><glyph d="M230 362V565H323C408 565 445 529 445 469C445 401 396 362 311 362ZM230 232H261C313 232 343 214 374 165L474 0H670L549 185C514 240 490 264 446 282C530 308 616 365 616 491C616 626 527 700 333 700H65V0H230ZM393 741V852H265V741Z" glyph-name="uni1E58" horiz-adv-x="671" unicode="&#7768;" /><glyph d="M214 0V320C259 353 313 373 377 374V536C301 538 248 501 205 441L177 528H56V0ZM275 582V697H153V582Z" glyph-name="uni1E59" horiz-adv-x="400" unicode="&#7769;" /><glyph d="M230 362V565H323C408 565 445 529 445 469C445 401 396 362 311 362ZM230 232H261C313 232 343 214 374 165L474 0H670L549 185C514 240 490 264 446 282C530 308 616 365 616 491C616 626 527 700 333 700H65V0H230ZM401 -153V-38H279V-153Z" glyph-name="uni1E5A" horiz-adv-x="671" unicode="&#7770;" /><glyph d="M214 0V320C259 353 313 373 377 374V536C301 538 248 501 205 441L177 528H56V0ZM197 -156V-41H75V-156Z" glyph-name="uni1E5B" horiz-adv-x="400" unicode="&#7771;" /><glyph d="M230 362V565H323C408 565 445 529 445 469C445 401 396 362 311 362ZM230 232H261C313 232 343 214 374 165L474 0H670L549 185C514 240 490 264 446 282C530 308 616 365 616 491C616 626 527 700 333 700H65V0H230ZM487 745V825H171V745ZM401 -153V-38H279V-153Z" glyph-name="uni1E5C" horiz-adv-x="671" unicode="&#7772;" /><glyph d="M214 0V320C259 353 313 373 377 374V536C301 538 248 501 205 441L177 528H56V0ZM340 587V662H88V587ZM197 -156V-41H75V-156Z" glyph-name="uni1E5D" horiz-adv-x="400" unicode="&#7773;" /><glyph d="M230 362V565H323C408 565 445 529 445 469C445 401 396 362 311 362ZM230 232H261C313 232 343 214 374 165L474 0H670L549 185C514 240 490 264 446 282C530 308 616 365 616 491C616 626 527 700 333 700H65V0H230ZM482 -120V-45H198V-120Z" glyph-name="uni1E5E" horiz-adv-x="671" unicode="&#7774;" /><glyph d="M214 0V320C259 353 313 373 377 374V536C301 538 248 501 205 441L177 528H56V0ZM262 -120V-45H10V-120Z" glyph-name="uni1E5F" horiz-adv-x="400" unicode="&#7775;" /><glyph d="M577 212C577 335 508 386 340 431C235 462 216 480 216 513C216 546 243 570 302 570C373 570 449 549 505 523L546 661C482 689 402 709 311 709C147 709 52 628 52 498C52 380 122 331 287 287C387 255 414 234 414 195C414 156 382 130 306 130C219 130 132 157 65 187L25 50C101 15 195 -10 299 -10C476 -10 577 67 577 212ZM371 -163V-48H249V-163Z" glyph-name="uni1E62" horiz-adv-x="608" unicode="&#7778;" /><glyph d="M465 158C465 250 419 289 283 326C205 349 189 358 189 382C189 403 209 417 248 417C301 417 358 400 410 376L445 495C387 522 320 537 249 537C117 537 44 471 44 371C44 271 106 237 223 206C304 183 319 174 319 150C319 126 296 110 249 110C185 110 114 132 55 163L20 43C85 10 169 -10 252 -10C384 -10 465 47 465 158ZM310 -159V-44H188V-159Z" glyph-name="uni1E63" horiz-adv-x="491" unicode="&#7779;" /><glyph d="M401 0V550H611V700H23V550H233V0ZM378 -156V-41H256V-156Z" glyph-name="uni1E6C" horiz-adv-x="635" unicode="&#7788;" /><glyph d="M268 -8C313 -8 350 -2 380 8V133C358 125 336 121 313 121C271 121 246 140 246 186V404H380V528H246V667H90V528H18V404H90V165C90 39 152 -8 268 -8ZM298 -159V-44H176V-159Z" glyph-name="uni1E6D" horiz-adv-x="411" unicode="&#7789;" /><glyph d="M401 0V550H611V700H23V550H233V0ZM459 -120V-45H175V-120Z" glyph-name="uni1E6E" horiz-adv-x="635" unicode="&#7790;" /><glyph d="M268 -8C313 -8 350 -2 380 8V133C358 125 336 121 313 121C271 121 246 140 246 186V404H380V528H246V667H90V528H18V404H90V165C90 39 152 -8 268 -8ZM363 -123V-48H111V-123Z" glyph-name="uni1E6F" horiz-adv-x="411" unicode="&#7791;" /><glyph d="M401 0V550H611V700H23V550H233V0ZM316 -110 377 -161H471L373 -41H261L163 -161H255Z" glyph-name="uni1E70" horiz-adv-x="635" unicode="&#7792;" /><glyph d="M268 -8C313 -8 350 -2 380 8V133C358 125 336 121 313 121C271 121 246 140 246 186V404H380V528H246V667H90V528H18V404H90V165C90 39 152 -8 268 -8ZM236 -113 297 -164H391L293 -44H181L83 -164H175Z" glyph-name="uni1E71" horiz-adv-x="411" unicode="&#7793;" /><glyph d="M439 -4 679 700H500L348 200L195 700H13L254 -4ZM408 -161V-46H286V-161Z" glyph-name="uni1E7E" horiz-adv-x="692" unicode="&#7806;" /><glyph d="M357 -4 532 528H373L273 160L171 528H9L185 -4ZM332 -159V-44H210V-159Z" glyph-name="uni1E7F" horiz-adv-x="541" unicode="&#7807;" /><glyph d="M469 0H658L437 360L648 700H463L335 480L208 700H21L232 361L11 0H197L334 235ZM304 741V852H181V741ZM489 741V852H366V741Z" glyph-name="uni1E8C" horiz-adv-x="669" unicode="&#7820;" /><glyph d="M354 0H520L358 271L514 528H351L266 371L182 528H16L170 270L10 0H173L263 165ZM236 582V697H120V582ZM412 582V697H296V582Z" glyph-name="uni1E8D" horiz-adv-x="530" unicode="&#7821;" /><glyph d="M412 0V256L652 700H473L330 415L186 700H4L244 256V0ZM392 738V849H264V738Z" glyph-name="uni1E8E" horiz-adv-x="656" unicode="&#7822;" /><glyph d="M74 -179C277 -134 332 -85 391 93L532 528H373L277 166L177 528H15L183 15C146 -17 98 -38 38 -54ZM334 579V694H212V579Z" glyph-name="uni1E8F" horiz-adv-x="540" unicode="&#7823;" /><glyph d="M582 0V142H240L582 560V700H51V558H376L34 140V0ZM312 784 372 741H477L381 848H245L149 741H253Z" glyph-name="uni1E90" horiz-adv-x="619" unicode="&#7824;" /><glyph d="M470 0V122H219L470 404V528H45V406H282L30 123V0ZM256 632 317 581H411L313 701H201L103 581H195Z" glyph-name="uni1E91" horiz-adv-x="503" unicode="&#7825;" /><glyph d="M582 0V142H240L582 560V700H51V558H376L34 140V0ZM379 -156V-41H257V-156Z" glyph-name="uni1E92" horiz-adv-x="619" unicode="&#7826;" /><glyph d="M470 0V122H219L470 404V528H45V406H282L30 123V0ZM317 -156V-41H195V-156Z" glyph-name="uni1E93" horiz-adv-x="503" unicode="&#7827;" /><glyph d="M582 0V142H240L582 560V700H51V558H376L34 140V0ZM460 -120V-45H176V-120Z" glyph-name="uni1E94" horiz-adv-x="619" unicode="&#7828;" /><glyph d="M470 0V122H219L470 404V528H45V406H282L30 123V0ZM398 -120V-45H114V-120Z" glyph-name="uni1E95" horiz-adv-x="503" unicode="&#7829;" /><glyph d="M214 364C241 383 275 398 305 398C347 398 368 375 368 330V0H526V368C526 479 470 537 368 537C306 537 257 512 214 482V724H56V0H214ZM432 -120V-45H148V-120Z" glyph-name="uni1E96" horiz-adv-x="579" unicode="&#7830;" /><glyph d="M437 -12C577 -12 662 66 662 168C662 258 608 325 497 368L654 572V588C578 668 477 711 356 711C173 711 57 609 57 427V0H222V428C222 520 276 570 360 570C394 570 426 562 455 546L313 369V295C451 257 495 225 495 185C495 151 466 128 408 128C368 128 330 136 292 147V8C339 -6 391 -12 437 -12Z" glyph-name="uni1E9E" horiz-adv-x="695" unicode="&#7838;" /><glyph d="M439 263H268L354 539ZM520 0H696L455 704H255L13 0H187L226 125H481ZM416 -153V-38H294V-153Z" glyph-name="uni1EA0" horiz-adv-x="709" unicode="&#7840;" /><glyph d="M248 94C202 94 173 116 173 165C173 187 178 204 189 215C204 230 225 237 271 237C295 237 317 235 339 232V122C312 106 279 94 248 94ZM349 48 370 0H507L494 107V345C494 481 424 537 275 537C194 537 124 519 63 496L95 379C145 400 197 413 249 413C315 413 339 385 339 336V312C310 317 276 321 240 321C153 321 103 304 70 271C43 244 28 205 28 158C28 47 95 -9 190 -9C255 -9 303 12 349 48ZM332 -159V-44H210V-159Z" glyph-name="uni1EA1" horiz-adv-x="548" unicode="&#7841;" /><glyph d="M439 263H268L354 539ZM520 0H696L455 704H255L13 0H187L226 125H481ZM210 900 225 830C265 839 305 843 343 843C382 843 392 838 392 830C392 821 378 813 312 795L329 738C448 768 491 797 491 843C491 886 448 916 352 916C302 916 256 910 210 900Z" glyph-name="uni1EA2" horiz-adv-x="709" unicode="&#7842;" /><glyph d="M248 94C202 94 173 116 173 165C173 187 178 204 189 215C204 230 225 237 271 237C295 237 317 235 339 232V122C312 106 279 94 248 94ZM349 48 370 0H507L494 107V345C494 481 424 537 275 537C194 537 124 519 63 496L95 379C145 400 197 413 249 413C315 413 339 385 339 336V312C310 317 276 321 240 321C153 321 103 304 70 271C43 244 28 205 28 158C28 47 95 -9 190 -9C255 -9 303 12 349 48ZM143 744 160 672C194 682 232 688 265 688C297 688 308 682 308 673C308 662 295 654 233 633L252 576C363 610 402 640 402 688C402 732 358 763 273 763C228 763 185 756 143 744Z" glyph-name="uni1EA3" horiz-adv-x="548" unicode="&#7843;" /><glyph d="M439 263H268L354 539ZM520 0H696L455 704H255L13 0H187L226 125H481ZM587 833 733 924H555L478 833ZM353 784 414 746H520L422 847H286L188 746H292Z" glyph-name="uni1EA4" horiz-adv-x="709" unicode="&#7844;" /><glyph d="M248 94C202 94 173 116 173 165C173 187 178 204 189 215C204 230 225 237 271 237C295 237 317 235 339 232V122C312 106 279 94 248 94ZM349 48 370 0H507L494 107V345C494 481 424 537 275 537C194 537 124 519 63 496L95 379C145 400 197 413 249 413C315 413 339 385 339 336V312C310 317 276 321 240 321C153 321 103 304 70 271C43 244 28 205 28 158C28 47 95 -9 190 -9C255 -9 303 12 349 48ZM477 675 622 776H458L390 675ZM274 627 337 584H431L331 695H219L119 584H211Z" glyph-name="uni1EA5" horiz-adv-x="548" unicode="&#7845;" /><glyph d="M439 263H268L354 539ZM520 0H696L455 704H255L13 0H187L226 125H481ZM628 833 551 924H374L520 833ZM353 784 414 746H520L422 847H286L188 746H292Z" glyph-name="uni1EA6" horiz-adv-x="709" unicode="&#7846;" /><glyph d="M248 94C202 94 173 116 173 165C173 187 178 204 189 215C204 230 225 237 271 237C295 237 317 235 339 232V122C312 106 279 94 248 94ZM349 48 370 0H507L494 107V345C494 481 424 537 275 537C194 537 124 519 63 496L95 379C145 400 197 413 249 413C315 413 339 385 339 336V312C310 317 276 321 240 321C153 321 103 304 70 271C43 244 28 205 28 158C28 47 95 -9 190 -9C255 -9 303 12 349 48ZM432 675H518L451 776H287ZM274 627 337 584H431L331 695H219L119 584H211Z" glyph-name="uni1EA7" horiz-adv-x="548" unicode="&#7847;" /><glyph d="M439 263H268L354 539ZM520 0H696L455 704H255L13 0H187L226 125H481ZM415 959 427 894C456 901 487 906 518 906C548 906 558 900 558 892C558 883 546 877 491 862L505 809C603 834 639 863 639 905C639 946 601 973 525 973C485 973 450 969 415 959ZM353 784 414 746H520L422 847H286L188 746H292Z" glyph-name="uni1EA8" horiz-adv-x="709" unicode="&#7848;" /><glyph d="M248 94C202 94 173 116 173 165C173 187 178 204 189 215C204 230 225 237 271 237C295 237 317 235 339 232V122C312 106 279 94 248 94ZM349 48 370 0H507L494 107V345C494 481 424 537 275 537C194 537 124 519 63 496L95 379C145 400 197 413 249 413C315 413 339 385 339 336V312C310 317 276 321 240 321C153 321 103 304 70 271C43 244 28 205 28 158C28 47 95 -9 190 -9C255 -9 303 12 349 48ZM337 806 350 741C376 749 404 753 429 753C454 753 463 748 463 738C463 729 450 720 401 702L420 652C511 682 542 710 542 752C542 792 506 820 439 820C402 820 370 815 337 806ZM274 627 337 584H431L331 695H219L119 584H211Z" glyph-name="uni1EA9" horiz-adv-x="548" unicode="&#7849;" /><glyph d="M439 263H268L354 539ZM520 0H696L455 704H255L13 0H187L226 125H481ZM262 868C276 904 285 911 301 911C316 911 328 906 357 891C392 874 407 869 429 869C464 869 495 893 523 975L456 996C441 960 432 953 416 953C402 953 389 958 360 972C325 990 311 995 289 995C253 995 223 971 194 889ZM353 782 416 746H521L422 844H286L187 746H290Z" glyph-name="uni1EAA" horiz-adv-x="709" unicode="&#7850;" /><glyph d="M248 94C202 94 173 116 173 165C173 187 178 204 189 215C204 230 225 237 271 237C295 237 317 235 339 232V122C312 106 279 94 248 94ZM349 48 370 0H507L494 107V345C494 481 424 537 275 537C194 537 124 519 63 496L95 379C145 400 197 413 249 413C315 413 339 385 339 336V312C310 317 276 321 240 321C153 321 103 304 70 271C43 244 28 205 28 158C28 47 95 -9 190 -9C255 -9 303 12 349 48ZM187 715C202 749 211 758 226 758C240 758 251 753 280 738C314 721 326 716 347 716C381 716 409 742 437 820L375 841C359 806 351 798 335 798C321 798 310 802 281 817C247 835 236 840 214 840C181 840 152 814 125 736ZM274 625 338 584H432L331 693H219L118 584H210Z" glyph-name="uni1EAB" horiz-adv-x="548" unicode="&#7851;" /><glyph d="M439 263H268L354 539ZM520 0H696L455 704H255L13 0H187L226 125H481ZM353 789 413 746H518L422 853H286L190 746H294ZM416 -153V-38H294V-153Z" glyph-name="uni1EAC" horiz-adv-x="709" unicode="&#7852;" /><glyph d="M248 94C202 94 173 116 173 165C173 187 178 204 189 215C204 230 225 237 271 237C295 237 317 235 339 232V122C312 106 279 94 248 94ZM349 48 370 0H507L494 107V345C494 481 424 537 275 537C194 537 124 519 63 496L95 379C145 400 197 413 249 413C315 413 339 385 339 336V312C310 317 276 321 240 321C153 321 103 304 70 271C43 244 28 205 28 158C28 47 95 -9 190 -9C255 -9 303 12 349 48ZM274 635 335 584H429L331 704H219L121 584H213ZM332 -159V-44H210V-159Z" glyph-name="uni1EAD" horiz-adv-x="548" unicode="&#7853;" /><glyph d="M439 263H268L354 539ZM520 0H696L455 704H255L13 0H187L226 125H481ZM403 881 549 972H357L280 881ZM355 822C315 822 290 837 281 859H198C206 791 260 741 353 741C447 741 502 791 510 859H427C418 837 394 822 355 822Z" glyph-name="uni1EAE" horiz-adv-x="709" unicode="&#7854;" /><glyph d="M248 94C202 94 173 116 173 165C173 187 178 204 189 215C204 230 225 237 271 237C295 237 317 235 339 232V122C312 106 279 94 248 94ZM349 48 370 0H507L494 107V345C494 481 424 537 275 537C194 537 124 519 63 496L95 379C145 400 197 413 249 413C315 413 339 385 339 336V312C310 317 276 321 240 321C153 321 103 304 70 271C43 244 28 205 28 158C28 47 95 -9 190 -9C255 -9 303 12 349 48ZM310 719 454 820H276L209 719ZM276 660C236 660 213 677 205 699H130C135 631 184 579 274 579C364 579 415 631 420 699H345C337 677 315 660 276 660Z" glyph-name="uni1EAF" horiz-adv-x="548" unicode="&#7855;" /><glyph d="M439 263H268L354 539ZM520 0H696L455 704H255L13 0H187L226 125H481ZM428 881 351 972H159L305 881ZM355 822C315 822 290 837 281 859H198C206 791 260 741 353 741C447 741 502 791 510 859H427C418 837 394 822 355 822Z" glyph-name="uni1EB0" horiz-adv-x="709" unicode="&#7856;" /><glyph d="M248 94C202 94 173 116 173 165C173 187 178 204 189 215C204 230 225 237 271 237C295 237 317 235 339 232V122C312 106 279 94 248 94ZM349 48 370 0H507L494 107V345C494 481 424 537 275 537C194 537 124 519 63 496L95 379C145 400 197 413 249 413C315 413 339 385 339 336V312C310 317 276 321 240 321C153 321 103 304 70 271C43 244 28 205 28 158C28 47 95 -9 190 -9C255 -9 303 12 349 48ZM240 719H341L274 820H96ZM276 660C236 660 213 677 205 699H130C135 631 184 579 274 579C364 579 415 631 420 699H345C337 677 315 660 276 660Z" glyph-name="uni1EB1" horiz-adv-x="548" unicode="&#7857;" /><glyph d="M439 263H268L354 539ZM520 0H696L455 704H255L13 0H187L226 125H481ZM219 1014 233 947C271 955 309 960 345 960C381 960 391 955 391 948C391 939 378 932 315 916L332 862C447 890 488 919 488 961C488 1002 446 1028 353 1028C306 1028 263 1024 219 1014ZM355 822C315 822 290 837 281 859H198C206 791 260 741 353 741C447 741 502 791 510 859H427C418 837 394 822 355 822Z" glyph-name="uni1EB2" horiz-adv-x="709" unicode="&#7858;" /><glyph d="M248 94C202 94 173 116 173 165C173 187 178 204 189 215C204 230 225 237 271 237C295 237 317 235 339 232V122C312 106 279 94 248 94ZM349 48 370 0H507L494 107V345C494 481 424 537 275 537C194 537 124 519 63 496L95 379C145 400 197 413 249 413C315 413 339 385 339 336V312C310 317 276 321 240 321C153 321 103 304 70 271C43 244 28 205 28 158C28 47 95 -9 190 -9C255 -9 303 12 349 48ZM160 852 174 787C205 795 237 800 265 800C293 800 302 794 302 786C302 776 289 768 237 750L255 699C356 729 392 757 392 799C392 840 352 868 274 868C234 868 198 863 160 852ZM276 660C236 660 213 677 205 699H130C135 631 184 579 274 579C364 579 415 631 420 699H345C337 677 315 660 276 660Z" glyph-name="uni1EB3" horiz-adv-x="548" unicode="&#7859;" /><glyph d="M439 263H268L354 539ZM520 0H696L455 704H255L13 0H187L226 125H481ZM260 882C274 918 283 926 299 926C314 926 326 920 355 906C390 888 405 883 427 883C462 883 493 907 521 989L454 1010C439 975 430 967 414 967C400 967 387 972 358 987C323 1005 309 1009 287 1009C251 1009 221 985 192 903ZM355 822C315 822 290 837 281 859H198C206 791 260 741 353 741C447 741 502 791 510 859H427C418 837 394 822 355 822Z" glyph-name="uni1EB4" horiz-adv-x="709" unicode="&#7860;" /><glyph d="M248 94C202 94 173 116 173 165C173 187 178 204 189 215C204 230 225 237 271 237C295 237 317 235 339 232V122C312 106 279 94 248 94ZM349 48 370 0H507L494 107V345C494 481 424 537 275 537C194 537 124 519 63 496L95 379C145 400 197 413 249 413C315 413 339 385 339 336V312C310 317 276 321 240 321C153 321 103 304 70 271C43 244 28 205 28 158C28 47 95 -9 190 -9C255 -9 303 12 349 48ZM185 722C200 757 209 766 224 766C238 766 249 761 278 746C312 728 324 723 345 723C379 723 408 749 435 827L373 849C357 814 349 805 333 805C319 805 308 810 279 825C245 842 234 847 212 847C179 847 150 822 123 743ZM276 660C236 660 213 677 205 699H130C135 631 184 579 274 579C364 579 415 631 420 699H345C337 677 315 660 276 660Z" glyph-name="uni1EB5" horiz-adv-x="548" unicode="&#7861;" /><glyph d="M439 263H268L354 539ZM520 0H696L455 704H255L13 0H187L226 125H481ZM355 824C316 824 291 841 283 867H200C207 795 258 741 353 741C448 741 501 795 508 867H425C417 841 394 824 355 824ZM416 -153V-38H294V-153Z" glyph-name="uni1EB6" horiz-adv-x="709" unicode="&#7862;" /><glyph d="M248 94C202 94 173 116 173 165C173 187 178 204 189 215C204 230 225 237 271 237C295 237 317 235 339 232V122C312 106 279 94 248 94ZM349 48 370 0H507L494 107V345C494 481 424 537 275 537C194 537 124 519 63 496L95 379C145 400 197 413 249 413C315 413 339 385 339 336V312C310 317 276 321 240 321C153 321 103 304 70 271C43 244 28 205 28 158C28 47 95 -9 190 -9C255 -9 303 12 349 48ZM276 663C235 663 213 683 205 710H130C135 636 183 579 274 579C365 579 415 636 420 710H345C337 683 317 663 276 663ZM332 -159V-44H210V-159Z" glyph-name="uni1EB7" horiz-adv-x="548" unicode="&#7863;" /><glyph d="M579 0V140H230V289H534V427H230V560H572V700H65V0ZM391 -156V-41H269V-156Z" glyph-name="uni1EB8" horiz-adv-x="622" unicode="&#7864;" /><glyph d="M292 -10C359 -10 430 8 489 40L454 142C406 118 351 104 306 104C228 104 183 144 177 212H508V254C508 434 416 540 271 540C134 540 30 436 30 261C30 73 136 -10 292 -10ZM177 305C183 378 216 423 270 423C325 423 357 378 362 305ZM334 -159V-44H212V-159Z" glyph-name="uni1EB9" horiz-adv-x="535" unicode="&#7865;" /><glyph d="M579 0V140H230V289H534V427H230V560H572V700H65V0ZM182 895 197 825C237 834 277 838 315 838C354 838 364 833 364 825C364 816 350 808 284 790L301 733C420 763 463 792 463 838C463 881 420 911 324 911C274 911 228 905 182 895Z" glyph-name="uni1EBA" horiz-adv-x="622" unicode="&#7866;" /><glyph d="M292 -10C359 -10 430 8 489 40L454 142C406 118 351 104 306 104C228 104 183 144 177 212H508V254C508 434 416 540 271 540C134 540 30 436 30 261C30 73 136 -10 292 -10ZM177 305C183 378 216 423 270 423C325 423 357 378 362 305ZM142 744 159 672C193 682 231 688 264 688C296 688 307 682 307 673C307 662 294 654 232 633L251 576C362 610 401 640 401 688C401 732 357 763 272 763C227 763 184 756 142 744Z" glyph-name="uni1EBB" horiz-adv-x="535" unicode="&#7867;" /><glyph d="M579 0V140H230V289H534V427H230V560H572V700H65V0ZM218 735C235 773 248 781 266 781C282 781 297 775 329 760C368 741 387 736 411 736C451 736 486 761 514 849L443 869C426 831 413 823 395 823C379 823 364 829 332 844C293 863 274 868 250 868C210 868 175 843 147 755Z" glyph-name="uni1EBC" horiz-adv-x="622" unicode="&#7868;" /><glyph d="M292 -10C359 -10 430 8 489 40L454 142C406 118 351 104 306 104C228 104 183 144 177 212H508V254C508 434 416 540 271 540C134 540 30 436 30 261C30 73 136 -10 292 -10ZM177 305C183 378 216 423 270 423C325 423 357 378 362 305ZM171 578C188 617 199 626 217 626C232 626 245 620 277 604C315 585 332 579 355 579C394 579 425 607 454 697L387 716C369 677 358 668 341 668C326 668 312 674 280 690C243 709 225 715 202 715C164 715 131 687 104 597Z" glyph-name="uni1EBD" horiz-adv-x="535" unicode="&#7869;" /><glyph d="M579 0V140H230V289H534V427H230V560H572V700H65V0ZM559 828 705 919H527L450 828ZM325 779 386 741H492L394 842H258L160 741H264Z" glyph-name="uni1EBE" horiz-adv-x="622" unicode="&#7870;" /><glyph d="M292 -10C359 -10 430 8 489 40L454 142C406 118 351 104 306 104C228 104 183 144 177 212H508V254C508 434 416 540 271 540C134 540 30 436 30 261C30 73 136 -10 292 -10ZM177 305C183 378 216 423 270 423C325 423 357 378 362 305ZM476 675 621 776H457L389 675ZM273 627 336 584H430L330 695H218L118 584H210Z" glyph-name="uni1EBF" horiz-adv-x="535" unicode="&#7871;" /><glyph d="M579 0V140H230V289H534V427H230V560H572V700H65V0ZM600 828 523 919H346L492 828ZM325 779 386 741H492L394 842H258L160 741H264Z" glyph-name="uni1EC0" horiz-adv-x="622" unicode="&#7872;" /><glyph d="M292 -10C359 -10 430 8 489 40L454 142C406 118 351 104 306 104C228 104 183 144 177 212H508V254C508 434 416 540 271 540C134 540 30 436 30 261C30 73 136 -10 292 -10ZM177 305C183 378 216 423 270 423C325 423 357 378 362 305ZM431 675H517L450 776H286ZM273 627 336 584H430L330 695H218L118 584H210Z" glyph-name="uni1EC1" horiz-adv-x="535" unicode="&#7873;" /><glyph d="M579 0V140H230V289H534V427H230V560H572V700H65V0ZM387 954 399 889C428 896 459 901 490 901C520 901 530 895 530 887C530 878 518 872 463 857L477 804C575 829 611 858 611 900C611 941 573 968 497 968C457 968 422 964 387 954ZM325 779 386 741H492L394 842H258L160 741H264Z" glyph-name="uni1EC2" horiz-adv-x="622" unicode="&#7874;" /><glyph d="M292 -10C359 -10 430 8 489 40L454 142C406 118 351 104 306 104C228 104 183 144 177 212H508V254C508 434 416 540 271 540C134 540 30 436 30 261C30 73 136 -10 292 -10ZM177 305C183 378 216 423 270 423C325 423 357 378 362 305ZM336 806 349 741C375 749 403 753 428 753C453 753 462 748 462 738C462 729 449 720 400 702L419 652C510 682 541 710 541 752C541 792 505 820 438 820C401 820 369 815 336 806ZM273 627 336 584H430L330 695H218L118 584H210Z" glyph-name="uni1EC3" horiz-adv-x="535" unicode="&#7875;" /><glyph d="M579 0V140H230V289H534V427H230V560H572V700H65V0ZM234 863C248 899 257 906 273 906C288 906 300 901 329 886C364 869 379 864 401 864C436 864 467 888 495 970L428 991C413 955 404 948 388 948C374 948 361 953 332 967C297 985 283 990 261 990C225 990 195 966 166 884ZM325 777 388 741H493L394 839H258L159 741H262Z" glyph-name="uni1EC4" horiz-adv-x="622" unicode="&#7876;" /><glyph d="M292 -10C359 -10 430 8 489 40L454 142C406 118 351 104 306 104C228 104 183 144 177 212H508V254C508 434 416 540 271 540C134 540 30 436 30 261C30 73 136 -10 292 -10ZM177 305C183 378 216 423 270 423C325 423 357 378 362 305ZM186 715C201 749 210 758 225 758C239 758 250 753 279 738C313 721 325 716 346 716C380 716 408 742 436 820L374 841C358 806 350 798 334 798C320 798 309 802 280 817C246 835 235 840 213 840C180 840 151 814 124 736ZM273 625 337 584H431L330 693H218L117 584H209Z" glyph-name="uni1EC5" horiz-adv-x="535" unicode="&#7877;" /><glyph d="M579 0V140H230V289H534V427H230V560H572V700H65V0ZM325 784 385 741H490L394 848H258L162 741H266ZM391 -156V-41H269V-156Z" glyph-name="uni1EC6" horiz-adv-x="622" unicode="&#7878;" /><glyph d="M292 -10C359 -10 430 8 489 40L454 142C406 118 351 104 306 104C228 104 183 144 177 212H508V254C508 434 416 540 271 540C134 540 30 436 30 261C30 73 136 -10 292 -10ZM177 305C183 378 216 423 270 423C325 423 357 378 362 305ZM273 635 334 584H428L330 704H218L120 584H212ZM334 -159V-44H212V-159Z" glyph-name="uni1EC7" horiz-adv-x="535" unicode="&#7879;" /><glyph d="M236 0V700H68V0ZM8 895 23 825C63 834 103 838 141 838C180 838 190 833 190 825C190 816 176 808 110 790L127 733C246 763 289 792 289 838C289 881 246 911 150 911C100 911 54 905 8 895Z" glyph-name="uni1EC8" horiz-adv-x="304" unicode="&#7880;" /><glyph d="M215 0V528H57V0ZM4 741 21 669C55 679 93 685 126 685C158 685 169 679 169 670C169 659 156 651 94 630L113 573C224 607 263 637 263 685C263 729 219 760 134 760C89 760 46 753 4 741Z" glyph-name="uni1EC9" horiz-adv-x="273" unicode="&#7881;" /><glyph d="M236 0V700H68V0ZM213 -156V-41H91V-156Z" glyph-name="uni1ECA" horiz-adv-x="304" unicode="&#7882;" /><glyph d="M219 601V716H54V601ZM215 0V528H57V0ZM197 -156V-41H75V-156Z" glyph-name="uni1ECB" horiz-adv-x="273" unicode="&#7883;" /><glyph d="M680 351C680 576 550 712 359 712C166 712 36 574 36 349C36 125 166 -12 357 -12C549 -12 680 126 680 351ZM509 349C509 209 450 132 359 132C267 132 207 210 207 351C207 491 266 568 358 568C448 568 509 490 509 349ZM419 -163V-48H297V-163Z" glyph-name="uni1ECC" horiz-adv-x="716" unicode="&#7884;" /><glyph d="M527 265C527 439 420 540 279 540C137 540 30 437 30 263C30 89 137 -12 278 -12C420 -12 527 90 527 265ZM377 264C377 172 339 118 279 118C220 118 180 173 180 264C180 355 219 409 278 409C337 409 377 354 377 264ZM339 -159V-44H217V-159Z" glyph-name="uni1ECD" horiz-adv-x="557" unicode="&#7885;" /><glyph d="M680 351C680 576 550 712 359 712C166 712 36 574 36 349C36 125 166 -12 357 -12C549 -12 680 126 680 351ZM509 349C509 209 450 132 359 132C267 132 207 210 207 351C207 491 266 568 358 568C448 568 509 490 509 349ZM214 902 229 832C269 841 309 845 347 845C386 845 396 840 396 832C396 823 382 815 316 797L333 740C452 770 495 799 495 845C495 888 452 918 356 918C306 918 260 912 214 902Z" glyph-name="uni1ECE" horiz-adv-x="716" unicode="&#7886;" /><glyph d="M527 265C527 439 420 540 279 540C137 540 30 437 30 263C30 89 137 -12 278 -12C420 -12 527 90 527 265ZM377 264C377 172 339 118 279 118C220 118 180 173 180 264C180 355 219 409 278 409C337 409 377 354 377 264ZM146 744 163 672C197 682 235 688 268 688C300 688 311 682 311 673C311 662 298 654 236 633L255 576C366 610 405 640 405 688C405 732 361 763 276 763C231 763 188 756 146 744Z" glyph-name="uni1ECF" horiz-adv-x="557" unicode="&#7887;" /><glyph d="M680 351C680 576 550 712 359 712C166 712 36 574 36 349C36 125 166 -12 357 -12C549 -12 680 126 680 351ZM509 349C509 209 450 132 359 132C267 132 207 210 207 351C207 491 266 568 358 568C448 568 509 490 509 349ZM591 835 737 926H559L482 835ZM357 786 418 748H524L426 849H290L192 748H296Z" glyph-name="uni1ED0" horiz-adv-x="716" unicode="&#7888;" /><glyph d="M527 265C527 439 420 540 279 540C137 540 30 437 30 263C30 89 137 -12 278 -12C420 -12 527 90 527 265ZM377 264C377 172 339 118 279 118C220 118 180 173 180 264C180 355 219 409 278 409C337 409 377 354 377 264ZM480 675 625 776H461L393 675ZM277 627 340 584H434L334 695H222L122 584H214Z" glyph-name="uni1ED1" horiz-adv-x="557" unicode="&#7889;" /><glyph d="M680 351C680 576 550 712 359 712C166 712 36 574 36 349C36 125 166 -12 357 -12C549 -12 680 126 680 351ZM509 349C509 209 450 132 359 132C267 132 207 210 207 351C207 491 266 568 358 568C448 568 509 490 509 349ZM632 835 555 926H378L524 835ZM357 786 418 748H524L426 849H290L192 748H296Z" glyph-name="uni1ED2" horiz-adv-x="716" unicode="&#7890;" /><glyph d="M527 265C527 439 420 540 279 540C137 540 30 437 30 263C30 89 137 -12 278 -12C420 -12 527 90 527 265ZM377 264C377 172 339 118 279 118C220 118 180 173 180 264C180 355 219 409 278 409C337 409 377 354 377 264ZM435 675H521L454 776H290ZM277 627 340 584H434L334 695H222L122 584H214Z" glyph-name="uni1ED3" horiz-adv-x="557" unicode="&#7891;" /><glyph d="M680 351C680 576 550 712 359 712C166 712 36 574 36 349C36 125 166 -12 357 -12C549 -12 680 126 680 351ZM509 349C509 209 450 132 359 132C267 132 207 210 207 351C207 491 266 568 358 568C448 568 509 490 509 349ZM419 961 431 896C460 903 491 908 522 908C552 908 562 902 562 894C562 885 550 879 495 864L509 811C607 836 643 865 643 907C643 948 605 975 529 975C489 975 454 971 419 961ZM357 786 418 748H524L426 849H290L192 748H296Z" glyph-name="uni1ED4" horiz-adv-x="716" unicode="&#7892;" /><glyph d="M527 265C527 439 420 540 279 540C137 540 30 437 30 263C30 89 137 -12 278 -12C420 -12 527 90 527 265ZM377 264C377 172 339 118 279 118C220 118 180 173 180 264C180 355 219 409 278 409C337 409 377 354 377 264ZM340 806 353 741C379 749 407 753 432 753C457 753 466 748 466 738C466 729 453 720 404 702L423 652C514 682 545 710 545 752C545 792 509 820 442 820C405 820 373 815 340 806ZM277 627 340 584H434L334 695H222L122 584H214Z" glyph-name="uni1ED5" horiz-adv-x="557" unicode="&#7893;" /><glyph d="M680 351C680 576 550 712 359 712C166 712 36 574 36 349C36 125 166 -12 357 -12C549 -12 680 126 680 351ZM509 349C509 209 450 132 359 132C267 132 207 210 207 351C207 491 266 568 358 568C448 568 509 490 509 349ZM266 870C280 906 289 913 305 913C320 913 332 908 361 893C396 876 411 871 433 871C468 871 499 895 527 977L460 998C445 962 436 955 420 955C406 955 393 960 364 974C329 992 315 997 293 997C257 997 227 973 198 891ZM357 784 420 748H525L426 846H290L191 748H294Z" glyph-name="uni1ED6" horiz-adv-x="716" unicode="&#7894;" /><glyph d="M527 265C527 439 420 540 279 540C137 540 30 437 30 263C30 89 137 -12 278 -12C420 -12 527 90 527 265ZM377 264C377 172 339 118 279 118C220 118 180 173 180 264C180 355 219 409 278 409C337 409 377 354 377 264ZM190 715C205 749 214 758 229 758C243 758 254 753 283 738C317 721 329 716 350 716C384 716 412 742 440 820L378 841C362 806 354 798 338 798C324 798 313 802 284 817C250 835 239 840 217 840C184 840 155 814 128 736ZM277 625 341 584H435L334 693H222L121 584H213Z" glyph-name="uni1ED7" horiz-adv-x="557" unicode="&#7895;" /><glyph d="M680 351C680 576 550 712 359 712C166 712 36 574 36 349C36 125 166 -12 357 -12C549 -12 680 126 680 351ZM509 349C509 209 450 132 359 132C267 132 207 210 207 351C207 491 266 568 358 568C448 568 509 490 509 349ZM357 791 417 748H522L426 855H290L194 748H298ZM419 -163V-48H297V-163Z" glyph-name="uni1ED8" horiz-adv-x="716" unicode="&#7896;" /><glyph d="M527 265C527 439 420 540 279 540C137 540 30 437 30 263C30 89 137 -12 278 -12C420 -12 527 90 527 265ZM377 264C377 172 339 118 279 118C220 118 180 173 180 264C180 355 219 409 278 409C337 409 377 354 377 264ZM277 635 338 584H432L334 704H222L124 584H216ZM339 -159V-44H217V-159Z" glyph-name="uni1ED9" horiz-adv-x="557" unicode="&#7897;" /><glyph d="M399 749 532 849H357L277 749ZM357 -12C549 -12 680 126 680 351C680 480 635 577 558 636C639 654 683 704 683 776C683 802 677 829 667 853L559 823C564 809 567 796 567 781C567 731 527 706 441 706C414 706 386 708 359 708C166 708 36 573 36 349C36 125 166 -12 357 -12ZM509 349C509 209 450 132 359 132C267 132 207 210 207 351C207 491 266 567 358 567C448 567 509 490 509 349Z" glyph-name="uni1EDA" horiz-adv-x="716" unicode="&#7898;" /><glyph d="M295 584 419 699H264L184 584ZM278 -12C419 -12 527 90 527 264C527 357 493 427 437 472C500 489 536 534 536 599C536 625 531 648 521 671L417 643C422 630 425 617 425 603C425 557 390 533 328 533C312 533 295 534 279 534C138 534 30 434 30 262C30 89 137 -12 278 -12ZM377 263C377 172 338 118 279 118C220 118 180 173 180 263C180 354 219 407 278 407C337 407 377 353 377 263Z" glyph-name="uni1EDB" horiz-adv-x="557" unicode="&#7899;" /><glyph d="M357 -12C549 -12 680 126 680 351C680 480 635 577 558 636C639 654 683 704 683 776C683 802 677 829 667 853L559 823C564 809 567 796 567 781C567 731 527 706 441 706C414 706 386 708 359 708C166 708 36 573 36 349C36 125 166 -12 357 -12ZM509 349C509 209 450 132 359 132C267 132 207 210 207 351C207 491 266 567 358 567C448 567 509 490 509 349ZM311 748H435L350 848H156Z" glyph-name="uni1EDC" horiz-adv-x="716" unicode="&#7900;" /><glyph d="M278 -12C419 -12 527 90 527 264C527 357 493 427 437 472C500 489 536 534 536 599C536 625 531 648 521 671L417 643C422 630 425 617 425 603C425 557 390 533 328 533C312 533 295 534 279 534C138 534 30 434 30 262C30 89 137 -12 278 -12ZM377 263C377 172 338 118 279 118C220 118 180 173 180 263C180 354 219 407 278 407C337 407 377 353 377 263ZM246 584H348L268 699H86Z" glyph-name="uni1EDD" horiz-adv-x="557" unicode="&#7901;" /><glyph d="M357 -12C549 -12 680 126 680 351C680 480 635 577 558 636C639 654 683 704 683 776C683 802 677 829 667 853L559 823C564 809 567 796 567 781C567 731 527 706 441 706C414 706 386 708 359 708C166 708 36 573 36 349C36 125 166 -12 357 -12ZM509 349C509 209 450 132 359 132C267 132 207 210 207 351C207 491 266 567 358 567C448 567 509 490 509 349ZM214 902 229 832C269 841 309 845 347 845C386 845 396 840 396 832C396 823 382 815 316 797L333 740C452 770 495 799 495 845C495 888 452 918 356 918C306 918 260 912 214 902Z" glyph-name="uni1EDE" horiz-adv-x="716" unicode="&#7902;" /><glyph d="M134 744 151 672C185 682 222 689 254 689C285 689 296 682 296 673C296 663 283 654 222 633L242 576C350 610 389 640 389 688C389 733 346 763 262 763C218 763 175 756 134 744ZM278 -12C419 -12 527 90 527 264C527 357 493 427 437 472C500 489 536 534 536 599C536 625 531 648 521 671L417 643C422 630 425 617 425 603C425 557 390 533 328 533C312 533 295 534 279 534C138 534 30 434 30 262C30 89 137 -12 278 -12ZM377 263C377 172 338 118 279 118C220 118 180 173 180 263C180 354 219 407 278 407C337 407 377 353 377 263Z" glyph-name="uni1EDF" horiz-adv-x="557" unicode="&#7903;" /><glyph d="M238 743C254 780 267 788 284 788C300 788 315 783 346 767C384 749 402 744 425 744C464 744 498 769 526 857L456 877C440 840 427 832 410 832C394 832 379 837 348 853C310 871 292 876 268 876C229 876 196 851 168 763ZM357 -12C549 -12 680 126 680 351C680 480 635 577 558 636C639 654 683 704 683 776C683 802 677 829 667 853L559 823C564 809 567 796 567 781C567 731 527 706 441 706C414 706 386 708 359 708C166 708 36 573 36 349C36 125 166 -12 357 -12ZM509 349C509 209 450 132 359 132C267 132 207 210 207 351C207 491 266 567 358 567C448 567 509 490 509 349Z" glyph-name="uni1EE0" horiz-adv-x="716" unicode="&#7904;" /><glyph d="M159 578C173 616 182 625 197 625C210 625 221 620 248 603C281 585 295 579 315 579C348 579 376 607 402 697L338 716C323 679 314 669 299 669C287 669 276 675 248 691C215 709 201 715 182 715C148 715 121 687 95 597ZM278 -12C419 -12 527 90 527 264C527 357 493 427 437 472C500 489 536 534 536 599C536 625 531 648 521 671L417 643C422 630 425 617 425 603C425 557 390 533 328 533C312 533 295 534 279 534C138 534 30 434 30 262C30 89 137 -12 278 -12ZM377 263C377 172 338 118 279 118C220 118 180 173 180 263C180 354 219 407 278 407C337 407 377 353 377 263Z" glyph-name="uni1EE1" horiz-adv-x="557" unicode="&#7905;" /><glyph d="M357 -12C549 -12 680 126 680 351C680 480 635 577 558 636C639 654 683 704 683 776C683 802 677 829 667 853L559 823C564 809 567 796 567 781C567 731 527 706 441 706C414 706 386 708 359 708C166 708 36 573 36 349C36 125 166 -12 357 -12ZM509 349C509 209 450 132 359 132C267 132 207 210 207 351C207 491 266 567 358 567C448 567 509 490 509 349ZM419 -163V-48H297V-163Z" glyph-name="uni1EE2" horiz-adv-x="716" unicode="&#7906;" /><glyph d="M278 -12C419 -12 527 90 527 264C527 357 493 427 437 472C500 489 536 534 536 599C536 625 531 648 521 671L417 643C422 630 425 617 425 603C425 557 390 533 328 533C312 533 295 534 279 534C138 534 30 434 30 262C30 89 137 -12 278 -12ZM377 263C377 172 338 118 279 118C220 118 180 173 180 263C180 354 219 407 278 407C337 407 377 353 377 263ZM339 -159V-44H217V-159Z" glyph-name="uni1EE3" horiz-adv-x="557" unicode="&#7907;" /><glyph d="M638 277V700H472V269C472 171 420 132 349 132C278 132 226 171 226 269V700H57V276C57 73 176 -11 347 -11C518 -11 638 73 638 277ZM409 -163V-48H287V-163Z" glyph-name="uni1EE4" horiz-adv-x="695" unicode="&#7908;" /><glyph d="M374 52 399 0H523V528H365V163C338 145 304 129 273 129C232 129 211 153 211 197V528H53V160C53 49 108 -9 210 -9C278 -9 328 18 374 52ZM352 -159V-44H230V-159Z" glyph-name="uni1EE5" horiz-adv-x="579" unicode="&#7909;" /><glyph d="M638 277V700H472V269C472 171 420 132 349 132C278 132 226 171 226 269V700H57V276C57 73 176 -11 347 -11C518 -11 638 73 638 277ZM204 892 219 822C259 831 299 835 337 835C376 835 386 830 386 822C386 813 372 805 306 787L323 730C442 760 485 789 485 835C485 878 442 908 346 908C296 908 250 902 204 892Z" glyph-name="uni1EE6" horiz-adv-x="695" unicode="&#7910;" /><glyph d="M374 52 399 0H523V528H365V163C338 145 304 129 273 129C232 129 211 153 211 197V528H53V160C53 49 108 -9 210 -9C278 -9 328 18 374 52ZM156 738 173 666C207 676 245 682 278 682C310 682 321 676 321 667C321 656 308 648 246 627L265 570C376 604 415 634 415 682C415 726 371 757 286 757C241 757 198 750 156 738Z" glyph-name="uni1EE7" horiz-adv-x="579" unicode="&#7911;" /><glyph d="M347 -11C518 -11 638 73 638 277V638C711 663 749 712 749 776C749 802 743 829 733 853L625 823C630 809 633 796 633 781C633 728 589 700 499 700H472V269C472 171 420 132 349 132C278 132 226 171 226 269V700H57V276C57 73 176 -11 347 -11ZM394 738 549 838H355L270 738Z" glyph-name="uni1EE8" horiz-adv-x="727" unicode="&#7912;" /><glyph d="M324 575 476 690H299L220 575ZM374 53 399 0H523V472C585 497 618 541 618 599C618 625 612 648 602 671L498 643C503 630 506 617 506 603C506 555 466 528 384 528H365V164C338 145 304 130 273 130C232 130 211 153 211 198V528H53V160C53 49 108 -9 210 -9C278 -9 328 19 374 53Z" glyph-name="uni1EE9" horiz-adv-x="604" unicode="&#7913;" /><glyph d="M347 -11C518 -11 638 73 638 277V638C711 663 749 712 749 776C749 802 743 829 733 853L625 823C630 809 633 796 633 781C633 728 589 700 499 700H472V269C472 171 420 132 349 132C278 132 226 171 226 269V700H57V276C57 73 176 -11 347 -11ZM300 738H424L339 838H145Z" glyph-name="uni1EEA" horiz-adv-x="727" unicode="&#7914;" /><glyph d="M374 53 399 0H523V472C585 497 618 541 618 599C618 625 612 648 602 671L498 643C503 630 506 617 506 603C506 555 466 528 384 528H365V164C338 145 304 130 273 130C232 130 211 153 211 198V528H53V160C53 49 108 -9 210 -9C278 -9 328 19 374 53ZM256 578H358L278 693H96Z" glyph-name="uni1EEB" horiz-adv-x="604" unicode="&#7915;" /><glyph d="M347 -11C518 -11 638 73 638 277V638C711 663 749 712 749 776C749 802 743 829 733 853L625 823C630 809 633 796 633 781C633 728 589 700 499 700H472V269C472 171 420 132 349 132C278 132 226 171 226 269V700H57V276C57 73 176 -11 347 -11ZM203 892 218 822C258 831 298 835 336 835C375 835 385 830 385 822C385 813 371 805 305 787L322 730C441 760 484 789 484 835C484 878 441 908 345 908C295 908 249 902 203 892Z" glyph-name="uni1EEC" horiz-adv-x="727" unicode="&#7916;" /><glyph d="M374 53 399 0H523V472C585 497 618 541 618 599C618 625 612 648 602 671L498 643C503 630 506 617 506 603C506 555 466 528 384 528H365V164C338 145 304 130 273 130C232 130 211 153 211 198V528H53V160C53 49 108 -9 210 -9C278 -9 328 19 374 53ZM156 738 173 666C207 676 245 682 278 682C310 682 321 676 321 667C321 656 308 648 246 627L265 570C376 604 415 634 415 682C415 726 371 757 286 757C241 757 198 750 156 738Z" glyph-name="uni1EED" horiz-adv-x="604" unicode="&#7917;" /><glyph d="M347 -11C518 -11 638 73 638 277V638C711 663 749 712 749 776C749 802 743 829 733 853L625 823C630 809 633 796 633 781C633 728 589 700 499 700H472V269C472 171 420 132 349 132C278 132 226 171 226 269V700H57V276C57 73 176 -11 347 -11ZM239 735C256 773 269 781 287 781C303 781 318 775 350 760C389 741 408 736 432 736C472 736 507 761 535 849L464 869C447 831 434 823 416 823C400 823 385 829 353 844C314 863 295 868 271 868C231 868 196 843 168 755Z" glyph-name="uni1EEE" horiz-adv-x="727" unicode="&#7918;" /><glyph d="M184 572C201 611 212 620 229 620C244 620 257 615 289 598C325 580 342 573 365 573C402 573 433 601 461 692L395 711C377 672 367 663 350 663C335 663 322 668 290 685C254 703 237 709 214 709C177 709 145 681 118 591ZM374 53 399 0H523V472C585 497 618 541 618 599C618 625 612 648 602 671L498 643C503 630 506 617 506 603C506 555 466 528 384 528H365V164C338 145 304 130 273 130C232 130 211 153 211 198V528H53V160C53 49 108 -9 210 -9C278 -9 328 19 374 53Z" glyph-name="uni1EEF" horiz-adv-x="604" unicode="&#7919;" /><glyph d="M347 -11C518 -11 638 73 638 277V638C711 663 749 712 749 776C749 802 743 829 733 853L625 823C630 809 633 796 633 781C633 728 589 700 499 700H472V269C472 171 420 132 349 132C278 132 226 171 226 269V700H57V276C57 73 176 -11 347 -11ZM408 -163V-48H286V-163Z" glyph-name="uni1EF0" horiz-adv-x="727" unicode="&#7920;" /><glyph d="M374 53 399 0H523V472C585 497 618 541 618 599C618 625 612 648 602 671L498 643C503 630 506 617 506 603C506 555 466 528 384 528H365V164C338 145 304 130 273 130C232 130 211 153 211 198V528H53V160C53 49 108 -9 210 -9C278 -9 328 19 374 53ZM352 -159V-44H230V-159Z" glyph-name="uni1EF1" horiz-adv-x="604" unicode="&#7921;" /><glyph d="M412 0V256L652 700H473L330 415L186 700H4L244 256V0ZM389 -156V-41H267V-156Z" glyph-name="uni1EF4" horiz-adv-x="656" unicode="&#7924;" /><glyph d="M74 -179C277 -134 332 -85 391 93L532 528H373L277 166L177 528H15L183 15C146 -17 98 -38 38 -54ZM485 -176V-61H363V-176Z" glyph-name="uni1EF5" horiz-adv-x="540" unicode="&#7925;" /><glyph d="M412 0V256L652 700H473L330 415L186 700H4L244 256V0ZM184 892 199 822C239 831 279 835 317 835C356 835 366 830 366 822C366 813 352 805 286 787L303 730C422 760 465 789 465 835C465 878 422 908 326 908C276 908 230 902 184 892Z" glyph-name="uni1EF6" horiz-adv-x="656" unicode="&#7926;" /><glyph d="M74 -179C277 -134 332 -85 391 93L532 528H373L277 166L177 528H15L183 15C146 -17 98 -38 38 -54ZM141 738 158 666C192 676 230 682 263 682C295 682 306 676 306 667C306 656 293 648 231 627L250 570C361 604 400 634 400 682C400 726 356 757 271 757C226 757 183 750 141 738Z" glyph-name="uni1EF7" horiz-adv-x="540" unicode="&#7927;" /><glyph d="M412 0V256L652 700H473L330 415L186 700H4L244 256V0ZM220 735C237 773 250 781 268 781C284 781 299 775 331 760C370 741 389 736 413 736C453 736 488 761 516 849L445 869C428 831 415 823 397 823C381 823 366 829 334 844C295 863 276 868 252 868C212 868 177 843 149 755Z" glyph-name="uni1EF8" horiz-adv-x="656" unicode="&#7928;" /><glyph d="M74 -179C277 -134 332 -85 391 93L532 528H373L277 166L177 528H15L183 15C146 -17 98 -38 38 -54ZM170 575C187 614 198 623 216 623C231 623 244 617 276 601C314 582 331 576 354 576C393 576 424 604 453 694L386 713C368 674 357 665 340 665C325 665 311 671 279 687C242 706 224 712 201 712C163 712 130 684 103 594Z" glyph-name="uni1EF9" horiz-adv-x="540" unicode="&#7929;" /><glyph glyph-name="uni2002" horiz-adv-x="500" unicode="&#8194;" /><glyph glyph-name="uni2003" horiz-adv-x="1000" unicode="&#8195;" /><glyph glyph-name="uni2004" horiz-adv-x="333" unicode="&#8196;" /><glyph glyph-name="uni2005" horiz-adv-x="250" unicode="&#8197;" /><glyph glyph-name="uni2007" horiz-adv-x="564" unicode="&#8199;" /><glyph glyph-name="uni2009" horiz-adv-x="125" unicode="&#8201;" /><glyph glyph-name="uni200A" horiz-adv-x="42" unicode="&#8202;" /><glyph d="M302 236V370H35V236Z" glyph-name="uni2011" horiz-adv-x="337" unicode="&#8209;" /><glyph d="M302 292V426H35V292Z" glyph-name="uni2011.cap" horiz-adv-x="337" /><glyph d="M490 294V424H74V294Z" glyph-name="uni2012" horiz-adv-x="564" unicode="&#8210;" /><glyph d="M754 238V368H35V238Z" glyph-name="uni2015" horiz-adv-x="789" unicode="&#8213;" /><glyph d="M754 294V424H35V294Z" glyph-name="uni2015.cap" horiz-adv-x="789" /><glyph d="M22 724V716C22 596 75 497 183 407L233 445C188 522 172 582 172 724Z" glyph-name="uni201B" horiz-adv-x="245" unicode="&#8219;" /><glyph d="M22 724V714C22 596 71 499 174 407L223 444C178 522 163 584 163 724ZM225 724V714C225 596 274 499 377 407L426 444C381 522 366 584 366 724Z" glyph-name="uni201F" horiz-adv-x="438" unicode="&#8223;" /><glyph d="M502 0V172H345V0ZM219 0V172H63V0Z" glyph-name="uni2025" horiz-adv-x="564" unicode="&#8229;" /><glyph glyph-name="uni202F" horiz-adv-x="125" unicode="&#8239;" /><glyph d="M233 408C345 408 421 486 421 626C421 765 345 843 233 843C122 843 45 765 45 626C45 486 122 408 233 408ZM233 750C275 750 304 712 304 625C304 537 275 501 233 501C192 501 162 539 162 627C162 714 192 750 233 750Z" glyph-name="uni2070" horiz-adv-x="467" unicode="&#8304;" /><glyph d="M360 415V490H422V574H360V838H203L33 578L37 490H248V415ZM250 572H132L250 755Z" glyph-name="uni2074" horiz-adv-x="453" unicode="&#8308;" /><glyph d="M380 577C380 644 332 685 254 685C221 685 188 678 158 664L164 747H374V836H70L56 608L132 577C162 593 193 603 220 603C248 603 265 591 265 570C265 535 217 508 49 496L64 407C296 420 380 477 380 577Z" glyph-name="uni2075" horiz-adv-x="425" unicode="&#8309;" /><glyph d="M223 408C330 408 398 467 398 554C398 631 343 680 262 680C225 680 189 672 158 657C176 697 215 727 326 763L286 847C122 797 43 708 43 585C43 474 110 408 223 408ZM224 493C179 493 152 521 152 573C152 580 152 587 153 594C175 601 198 605 220 605C265 605 290 585 290 550C290 514 265 493 224 493Z" glyph-name="uni2076" horiz-adv-x="437" unicode="&#8310;" /><glyph d="M174 407 369 733V836H44V738H245L66 446Z" glyph-name="uni2077" horiz-adv-x="407" unicode="&#8311;" /><glyph d="M222 409C337 409 402 460 402 530C402 580 374 613 318 632C365 651 391 681 391 727C391 789 332 842 222 842C113 842 53 789 53 727C53 681 79 651 126 632C70 613 42 580 42 530C42 460 107 409 222 409ZM222 668C186 668 160 686 160 716C160 744 183 762 222 762C261 762 284 744 284 716C284 686 259 668 222 668ZM222 489C181 489 153 509 153 542C153 576 180 596 222 596C264 596 292 576 292 542C292 509 264 489 222 489Z" glyph-name="uni2078" horiz-adv-x="445" unicode="&#8312;" /><glyph d="M214 843C107 843 39 784 39 697C39 620 94 571 175 571C212 571 248 579 279 594C261 554 222 524 111 488L151 404C315 454 394 543 394 666C394 777 327 843 214 843ZM213 758C258 758 285 730 285 678C285 671 285 664 284 657C262 650 239 646 217 646C172 646 147 666 147 701C147 737 172 758 213 758Z" glyph-name="uni2079" horiz-adv-x="437" unicode="&#8313;" /><glyph d="M233 -163C345 -163 421 -85 421 55C421 194 345 272 233 272C122 272 45 194 45 55C45 -85 122 -163 233 -163ZM233 179C275 179 304 141 304 54C304 -34 275 -70 233 -70C192 -70 162 -32 162 56C162 143 192 179 233 179Z" glyph-name="uni2080" horiz-adv-x="467" unicode="&#8320;" /><glyph d="M272 -156V267H191L34 212L56 119L156 149V-156Z" glyph-name="uni2081" horiz-adv-x="347" unicode="&#8321;" /><glyph d="M377 -156V-62H198L280 12C345 65 370 104 370 153C370 225 312 271 220 271C155 271 95 245 44 203L87 120C132 154 173 174 206 174C234 174 250 160 250 139C250 120 237 101 207 74L36 -78L53 -156Z" glyph-name="uni2082" horiz-adv-x="418" unicode="&#8322;" /><glyph d="M44 -160C285 -153 374 -105 374 -23C374 29 339 58 258 69C335 94 369 126 369 176C369 233 319 271 224 271C161 271 98 257 45 234L70 151C116 171 164 182 202 182C233 182 248 172 248 157C248 135 220 116 108 88L118 19C228 19 253 6 253 -18C253 -45 212 -64 44 -72Z" glyph-name="uni2083" horiz-adv-x="415" unicode="&#8323;" /><glyph d="M360 -156V-81H422V3H360V267H203L33 7L37 -81H248V-156ZM250 1H132L250 184Z" glyph-name="uni2084" horiz-adv-x="453" unicode="&#8324;" /><glyph d="M380 6C380 73 332 114 254 114C221 114 188 107 158 93L164 176H374V265H70L56 37L132 6C162 22 193 32 220 32C248 32 265 20 265 -1C265 -36 217 -63 49 -75L64 -164C296 -151 380 -94 380 6Z" glyph-name="uni2085" horiz-adv-x="425" unicode="&#8325;" /><glyph d="M223 -163C330 -163 398 -104 398 -17C398 60 343 109 262 109C225 109 189 101 158 86C176 126 215 156 326 192L286 276C122 226 43 137 43 14C43 -97 110 -163 223 -163ZM224 -78C179 -78 152 -50 152 2C152 9 152 16 153 23C175 30 198 34 220 34C265 34 290 14 290 -21C290 -57 265 -78 224 -78Z" glyph-name="uni2086" horiz-adv-x="437" unicode="&#8326;" /><glyph d="M174 -164 369 162V265H44V167H245L66 -125Z" glyph-name="uni2087" horiz-adv-x="407" unicode="&#8327;" /><glyph d="M222 -162C337 -162 402 -111 402 -41C402 9 374 42 318 61C365 80 391 110 391 156C391 218 332 271 222 271C113 271 53 218 53 156C53 110 79 80 126 61C70 42 42 9 42 -41C42 -111 107 -162 222 -162ZM222 97C186 97 160 115 160 145C160 173 183 191 222 191C261 191 284 173 284 145C284 115 259 97 222 97ZM222 -82C181 -82 153 -62 153 -29C153 5 180 25 222 25C264 25 292 5 292 -29C292 -62 264 -82 222 -82Z" glyph-name="uni2088" horiz-adv-x="445" unicode="&#8328;" /><glyph d="M214 272C107 272 39 213 39 126C39 49 94 0 175 0C212 0 248 8 279 23C261 -17 222 -47 111 -83L151 -167C315 -117 394 -28 394 95C394 206 327 272 214 272ZM213 187C258 187 285 159 285 107C285 100 285 93 284 86C262 79 239 75 217 75C172 75 147 95 147 130C147 166 172 187 213 187Z" glyph-name="uni2089" horiz-adv-x="437" unicode="&#8329;" /><glyph d="M353 281H254L253 480ZM532 231 432 429H531ZM498 0H678V207H753V291H678V419H753V502H678V700H529V502H396L293 700H107V502H32V419H107V291H32V207H107V0H256V207H390Z" glyph-name="uni20A6" horiz-adv-x="785" unicode="&#8358;" /><glyph d="M566 273H457L512 499ZM716 193 662 433H760ZM313 192 270 433H368ZM632 -3H812L858 199H993V282H877L909 423H993V506H928L972 700H808L772 506H648L604 700H428L383 506H258L222 700H52L96 506H32V423H115L148 282H32V199H167L213 -3H391L441 199H582Z" glyph-name="uni20A9" horiz-adv-x="1025" unicode="&#8361;" /><glyph d="M274 562H338C416 562 456 534 466 474H274ZM274 312V401H466C454 342 414 312 336 312ZM274 178 337 177C503 177 614 246 634 396H707V479H636C623 627 521 700 339 700H107V479H32V396H107V0H274Z" glyph-name="uni20B1" horiz-adv-x="717" unicode="&#8369;" /><glyph d="M572 2 424 174C395 208 363 232 323 248C415 277 472 332 490 401H567V505H488C476 542 452 573 415 595H567V700H47V595H145C244 595 303 563 320 501H47V405H317C295 345 231 310 134 310H47V206H114C174 206 209 189 246 145L366 0H572Z" glyph-name="uni20B9" horiz-adv-x="616" unicode="&#8377;" /><glyph d="M232 0C471 0 571 135 579 318H490C478 222 411 151 281 151H274V295L465 389V481L274 387V459L465 554V645L274 551V700H107V474L32 438V347L107 383V310L32 274V183L107 219V0Z" glyph-name="uni20BA" horiz-adv-x="611" unicode="&#8378;" /><glyph d="M474 450C474 370 426 331 337 331H274V562H339C430 562 474 529 474 450ZM551 94V177H274V247H345C529 247 642 320 642 477C642 626 534 700 341 700H107V332H32V249H107V177H32V94H107V0H274V94Z" glyph-name="uni20BD" horiz-adv-x="670" unicode="&#8381;" /><glyph d="M367 -21C554 -21 694 131 694 350C694 569 554 721 367 721C181 721 41 569 41 350C41 131 181 -21 367 -21ZM367 683C531 683 652 547 652 350C652 153 531 17 367 17C204 17 83 153 83 350C83 547 204 683 367 683ZM337 160V265H373C474 265 540 310 540 408C540 497 481 543 374 543H238V160ZM337 344V463H372C418 463 440 445 440 404C440 364 418 344 371 344Z" glyph-name="uni2117" horiz-adv-x="735" unicode="&#8471;" /><glyph d="M370 467H427L474 613L482 467H540L528 700H446L400 553L353 700H272L259 467H316L323 615ZM230 537C230 580 205 597 145 611C109 621 104 627 104 637C104 647 111 654 134 654C158 654 186 647 206 637L221 687C199 697 168 704 135 704C75 704 44 674 44 632C44 590 69 574 128 560C165 549 171 543 171 532C171 520 161 512 134 512C104 512 73 522 47 535L33 485C60 472 96 463 133 463C192 463 230 488 230 537Z" glyph-name="uni2120" horiz-adv-x="574" unicode="&#8480;" /><glyph d="M257 279V702H176L19 647L41 554L141 584V279ZM156 0H225L432 335L666 700H596L389 365ZM864 162C864 229 816 270 738 270C705 270 672 263 642 249L648 332H858V421H554L540 193L616 162C646 178 677 188 704 188C732 188 749 176 749 155C749 120 701 93 533 81L548 -8C780 5 864 62 864 162Z" glyph-name="uni2155" horiz-adv-x="894" unicode="&#8533;" /><glyph d="M362 279V373H183L265 447C330 500 355 539 355 588C355 660 297 706 205 706C140 706 80 680 29 638L72 555C117 589 158 609 191 609C219 609 235 595 235 574C235 555 222 536 192 509L21 357L38 279ZM247 0H316L523 335L757 700H687L480 365ZM956 162C956 229 908 270 830 270C797 270 764 263 734 249L740 332H950V421H646L632 193L708 162C738 178 769 188 796 188C824 188 841 176 841 155C841 120 793 93 625 81L640 -8C872 5 956 62 956 162Z" glyph-name="uni2156" horiz-adv-x="986" unicode="&#8534;" /><glyph d="M29 275C270 282 359 330 359 412C359 464 324 493 243 504C320 529 354 561 354 611C354 668 304 706 209 706C146 706 83 692 30 669L55 586C101 606 149 617 187 617C218 617 233 607 233 592C233 570 205 551 93 523L103 454C213 454 238 441 238 417C238 390 197 371 29 363ZM199 0H268L475 335L709 700H639L432 365ZM908 162C908 229 860 270 782 270C749 270 716 263 686 249L692 332H902V421H598L584 193L660 162C690 178 721 188 748 188C776 188 793 176 793 155C793 120 745 93 577 81L592 -8C824 5 908 62 908 162Z" glyph-name="uni2157" horiz-adv-x="938" unicode="&#8535;" /><glyph d="M345 279V354H407V438H345V702H188L18 442L22 354H233V279ZM235 436H117L235 619ZM258 0H327L534 335L768 700H698L491 365ZM966 162C966 229 918 270 840 270C807 270 774 263 744 249L750 332H960V421H656L642 193L718 162C748 178 779 188 806 188C834 188 851 176 851 155C851 120 803 93 635 81L650 -8C882 5 966 62 966 162Z" glyph-name="uni2158" horiz-adv-x="996" unicode="&#8536;" /><glyph d="M257 279V702H176L19 647L41 554L141 584V279ZM156 0H225L432 335L666 700H596L389 365ZM653 -7C760 -7 828 52 828 139C828 216 773 265 692 265C655 265 619 257 588 242C606 282 645 312 756 348L716 432C552 382 473 293 473 170C473 59 540 -7 653 -7ZM654 78C609 78 582 106 582 158C582 165 582 172 583 179C605 186 628 190 650 190C695 190 720 170 720 135C720 99 695 78 654 78Z" glyph-name="uni2159" horiz-adv-x="851" unicode="&#8537;" /><glyph d="M365 441C365 508 317 549 239 549C206 549 173 542 143 528L149 611H359V700H55L41 472L117 441C147 457 178 467 205 467C233 467 250 455 250 434C250 399 202 372 34 360L49 271C281 284 365 341 365 441ZM199 0H268L475 335L709 700H639L432 365ZM696 -7C803 -7 871 52 871 139C871 216 816 265 735 265C698 265 662 257 631 242C649 282 688 312 799 348L759 432C595 382 516 293 516 170C516 59 583 -7 696 -7ZM697 78C652 78 625 106 625 158C625 165 625 172 626 179C648 186 671 190 693 190C738 190 763 170 763 135C763 99 738 78 697 78Z" glyph-name="uni215A" horiz-adv-x="895" unicode="&#8538;" /><glyph d="M257 279V702H176L19 647L41 554L141 584V279ZM156 0H225L432 335L666 700H596L389 365ZM686 -6C801 -6 866 45 866 115C866 165 838 198 782 217C829 236 855 266 855 312C855 374 796 427 686 427C577 427 517 374 517 312C517 266 543 236 590 217C534 198 506 165 506 115C506 45 571 -6 686 -6ZM686 253C650 253 624 271 624 301C624 329 647 347 686 347C725 347 748 329 748 301C748 271 723 253 686 253ZM686 74C645 74 617 94 617 127C617 161 644 181 686 181C728 181 756 161 756 127C756 94 728 74 686 74Z" glyph-name="uni215B" horiz-adv-x="894" unicode="&#8539;" /><glyph d="M29 275C270 282 359 330 359 412C359 464 324 493 243 504C320 529 354 561 354 611C354 668 304 706 209 706C146 706 83 692 30 669L55 586C101 606 149 617 187 617C218 617 233 607 233 592C233 570 205 551 93 523L103 454C213 454 238 441 238 417C238 390 197 371 29 363ZM199 0H268L475 335L709 700H639L432 365ZM730 -6C845 -6 910 45 910 115C910 165 882 198 826 217C873 236 899 266 899 312C899 374 840 427 730 427C621 427 561 374 561 312C561 266 587 236 634 217C578 198 550 165 550 115C550 45 615 -6 730 -6ZM730 253C694 253 668 271 668 301C668 329 691 347 730 347C769 347 792 329 792 301C792 271 767 253 730 253ZM730 74C689 74 661 94 661 127C661 161 688 181 730 181C772 181 800 161 800 127C800 94 772 74 730 74Z" glyph-name="uni215C" horiz-adv-x="937" unicode="&#8540;" /><glyph d="M365 441C365 508 317 549 239 549C206 549 173 542 143 528L149 611H359V700H55L41 472L117 441C147 457 178 467 205 467C233 467 250 455 250 434C250 399 202 372 34 360L49 271C281 284 365 341 365 441ZM199 0H268L475 335L709 700H639L432 365ZM730 -6C845 -6 910 45 910 115C910 165 882 198 826 217C873 236 899 266 899 312C899 374 840 427 730 427C621 427 561 374 561 312C561 266 587 236 634 217C578 198 550 165 550 115C550 45 615 -6 730 -6ZM730 253C694 253 668 271 668 301C668 329 691 347 730 347C769 347 792 329 792 301C792 271 767 253 730 253ZM730 74C689 74 661 94 661 127C661 161 688 181 730 181C772 181 800 161 800 127C800 94 772 74 730 74Z" glyph-name="uni215D" horiz-adv-x="938" unicode="&#8541;" /><glyph d="M159 271 354 597V700H29V602H230L51 310ZM125 0H194L401 335L635 700H565L358 365ZM655 -6C770 -6 835 45 835 115C835 165 807 198 751 217C798 236 824 266 824 312C824 374 765 427 655 427C546 427 486 374 486 312C486 266 512 236 559 217C503 198 475 165 475 115C475 45 540 -6 655 -6ZM655 253C619 253 593 271 593 301C593 329 616 347 655 347C694 347 717 329 717 301C717 271 692 253 655 253ZM655 74C614 74 586 94 586 127C586 161 613 181 655 181C697 181 725 161 725 127C725 94 697 74 655 74Z" glyph-name="uni215E" horiz-adv-x="863" unicode="&#8542;" /><glyph d="M440 155 242 307 551 290H979V428H551L242 411L440 563L354 661L59 398V320L354 57Z" glyph-name="uni2190" horiz-adv-x="1042" unicode="&#8592;" /><glyph d="M350 269 334 529 447 365 541 441 321 710H243L23 441L117 365L231 531L215 269V-2H350Z" glyph-name="uni2191" horiz-adv-x="564" unicode="&#8593;" /><glyph d="M688 57 983 320V398L688 661L602 563L800 411L491 428H63V290H491L800 307L602 155Z" glyph-name="uni2192" horiz-adv-x="1042" unicode="&#8594;" /><glyph d="M321 -10 541 259 447 335 334 171 350 431V702H215V431L231 169L117 335L23 259L243 -10Z" glyph-name="uni2193" horiz-adv-x="564" unicode="&#8595;" /><glyph d="M297 -114V212C360 228 407 287 407 355C407 423 360 482 297 498V811H191V498C128 482 80 423 80 355C80 287 128 228 191 212V-114Z" glyph-name="uni237F" horiz-adv-x="487" unicode="&#9087;" /><glyph d="M117 708V-8L125 -12L727 341V359L125 712Z" glyph-name="uni25B6" horiz-adv-x="798" unicode="&#9654;" /><glyph d="M98 548V172L106 168L496 351V369L106 552Z" glyph-name="uni25B6.tab" horiz-adv-x="564" /><glyph d="M680 -8V708L672 712L70 359V341L672 -12Z" glyph-name="uni25C0" horiz-adv-x="798" unicode="&#9664;" /><glyph d="M467 172V548L459 552L69 369V351L459 168Z" glyph-name="uni25C0.tab" horiz-adv-x="564" /><glyph d="M249 -110 310 -161H404L306 -41H194L96 -161H188Z" glyph-name="uniA788" horiz-adv-x="500" unicode="&#42888;" /><glyph d="M545 -86C491 -73 483 -68 483 -54C483 -46 487 -37 511 0H523V528H365V163C338 145 304 129 273 129C232 129 211 153 211 197V528H53V160C53 49 108 -9 210 -9C278 -9 328 18 374 52L399 0H417C364 -40 349 -59 349 -82C349 -124 398 -144 536 -151Z" glyph-name="uogonek" horiz-adv-x="579" unicode="&#371;" /><glyph d="M374 52 399 0H523V528H365V163C338 145 304 129 273 129C232 129 211 153 211 197V528H53V160C53 49 108 -9 210 -9C278 -9 328 18 374 52ZM180 675C180 617 225 572 288 572C351 572 396 617 396 675C396 733 351 778 288 778C225 778 180 733 180 675ZM225 675C225 712 253 738 288 738C323 738 351 712 351 675C351 639 323 612 288 612C253 612 225 639 225 675Z" glyph-name="uring" horiz-adv-x="579" unicode="&#367;" /><glyph d="M374 52 399 0H523V528H365V163C338 145 304 129 273 129C232 129 211 153 211 197V528H53V160C53 49 108 -9 210 -9C278 -9 328 18 374 52ZM185 575C202 614 213 623 231 623C246 623 259 617 291 601C329 582 346 576 369 576C408 576 439 604 468 694L401 713C383 674 372 665 355 665C340 665 326 671 294 687C257 706 239 712 216 712C178 712 145 684 118 594Z" glyph-name="utilde" horiz-adv-x="579" unicode="&#361;" /><glyph d="M357 -4 532 528H373L273 160L171 528H9L185 -4Z" glyph-name="v" horiz-adv-x="541" unicode="v" /><glyph d="M500 -3H664L802 528H648L577 183L487 528H330L241 183L170 528H13L151 -3H315L407 334Z" glyph-name="w" horiz-adv-x="815" unicode="w" /><glyph d="M500 -3H664L802 528H648L577 183L487 528H330L241 183L170 528H13L151 -3H315L407 334ZM439 581 599 696H417L337 581Z" glyph-name="wacute" horiz-adv-x="815" unicode="&#7811;" /><glyph d="M500 -3H664L802 528H648L577 183L487 528H330L241 183L170 528H13L151 -3H315L407 334ZM406 632 467 581H561L463 701H351L253 581H345Z" glyph-name="wcircumflex" horiz-adv-x="815" unicode="&#373;" /><glyph d="M500 -3H664L802 528H648L577 183L487 528H330L241 183L170 528H13L151 -3H315L407 334ZM377 582V697H261V582ZM553 582V697H437V582Z" glyph-name="wdieresis" horiz-adv-x="815" unicode="&#7813;" /><glyph d="M500 -3H664L802 528H648L577 183L487 528H330L241 183L170 528H13L151 -3H315L407 334ZM375 581H477L397 696H215Z" glyph-name="wgrave" horiz-adv-x="815" unicode="&#7809;" /><glyph d="M354 0H520L358 271L514 528H351L266 371L182 528H16L170 270L10 0H173L263 165Z" glyph-name="x" horiz-adv-x="530" unicode="x" /><glyph d="M74 -179C277 -134 332 -85 391 93L532 528H373L277 166L177 528H15L183 15C146 -17 98 -38 38 -54Z" glyph-name="y" horiz-adv-x="540" unicode="y" /><glyph d="M74 -179C277 -134 332 -85 391 93L532 528H373L277 166L177 528H15L183 15C146 -17 98 -38 38 -54ZM305 578 465 693H283L203 578Z" glyph-name="yacute" horiz-adv-x="540" unicode="&#253;" /><glyph d="M74 -179C277 -134 332 -85 391 93L532 528H373L277 166L177 528H15L183 15C146 -17 98 -38 38 -54ZM272 632 333 581H427L329 701H217L119 581H211Z" glyph-name="ycircumflex" horiz-adv-x="540" unicode="&#375;" /><glyph d="M74 -179C277 -134 332 -85 391 93L532 528H373L277 166L177 528H15L183 15C146 -17 98 -38 38 -54ZM243 582V697H127V582ZM419 582V697H303V582Z" glyph-name="ydieresis" horiz-adv-x="540" unicode="&#255;" /><glyph d="M542 94V176H387V241H542V323H403L602 700H427L306 428L186 700H8L207 323H68V241H223V176H68V94H223V0H387V94Z" glyph-name="yen" horiz-adv-x="610" unicode="&#165;" /><glyph d="M497 94V176H361V241H497V323H375L554 700H389L283 427L177 700H10L189 323H67V241H203V176H67V94H203V0H361V94Z" glyph-name="yen.tab" horiz-adv-x="564" /><glyph d="M74 -179C277 -134 332 -85 391 93L532 528H373L277 166L177 528H15L183 15C146 -17 98 -38 38 -54ZM241 578H343L263 693H81Z" glyph-name="ygrave" horiz-adv-x="540" unicode="&#7923;" /><glyph d="M470 0V122H219L470 404V528H45V406H282L30 123V0Z" glyph-name="z" horiz-adv-x="503" unicode="z" /><glyph d="M470 0V122H219L470 404V528H45V406H282L30 123V0ZM289 581 449 696H267L187 581Z" glyph-name="zacute" horiz-adv-x="503" unicode="&#378;" /><glyph d="M470 0V122H219L470 404V528H45V406H282L30 123V0ZM258 650 197 701H103L201 581H313L411 701H319Z" glyph-name="zcaron" horiz-adv-x="503" unicode="&#382;" /><glyph d="M470 0V122H219L470 404V528H45V406H282L30 123V0ZM318 582V697H196V582Z" glyph-name="zdotaccent" horiz-adv-x="503" unicode="&#380;" /><glyph d="M586 350C586 591 472 712 311 712C152 712 38 590 38 350C38 109 151 -12 311 -12C471 -12 586 110 586 350ZM423 349C423 187 378 125 312 125C246 125 200 189 200 351C200 513 245 575 311 575C377 575 423 511 423 349Z" glyph-name="zero" horiz-adv-x="623" unicode="0" /><glyph d="M218 -7C330 -7 406 71 406 211C406 350 330 428 218 428C107 428 30 350 30 211C30 71 107 -7 218 -7ZM218 335C260 335 289 297 289 210C289 122 260 86 218 86C177 86 147 124 147 212C147 299 177 335 218 335Z" glyph-name="zero.den" horiz-adv-x="437" /><glyph d="M218 272C330 272 406 350 406 490C406 629 330 707 218 707C107 707 30 629 30 490C30 350 107 272 218 272ZM218 614C260 614 289 576 289 489C289 401 260 365 218 365C177 365 147 403 147 491C147 578 177 614 218 614Z" glyph-name="zero.num" horiz-adv-x="437" /><glyph d="M528 350C528 594 431 712 282 712C133 712 36 594 36 350C36 106 133 -12 282 -12C431 -12 528 106 528 350ZM371 349C371 184 335 128 282 128C230 128 193 186 193 351C193 516 230 572 282 572C334 572 371 514 371 349Z" glyph-name="zero.tab" horiz-adv-x="564" /></font>
</defs>
</svg>
