<?xml version="1.0" standalone="no"?><!DOCTYPE svg PUBLIC "-//W3C//DTD SVG 1.1//EN" "http://www.w3.org/Graphics/SVG/1.1/DTD/svg11.dtd" ><svg version="1.1" xmlns="http://www.w3.org/2000/svg"><defs><font horiz-adv-x="0" id="font"><font-face ascent="800" bbox="-363 -240 1220 1139" cap-height="736" descent="-200" font-family="Retina MP" font-stretch="normal" font-style="italic" font-weight="500" units-per-em="1000" x-height="557" /><missing-glyph d="M100 -240H600V960H100ZM192 910H507L350 429ZM321 360 150 -154V874ZM378 360 550 874V-154ZM350 291 507 -190H192Z" horiz-adv-x="700" /><glyph d="M508 244 497 233 441 247H291L218 231L212 246L288 318L416 523L469 643H496L479 523L483 311ZM621 0 597 742H430L-61 0H80L155 114L174 160L189 167L243 148H419L485 166L496 156L485 100L488 0Z" glyph-name="A" horiz-adv-x="736" unicode="A" /><glyph d="M447 245H348L264 233L259 251L342 318L527 548L579 639H617L509 294L506 238L495 229ZM80 0 167 102 185 156 197 162 246 146H400L471 163L479 151L439 86L412 0H896L934 118H642L572 102L564 114L599 173L629 272V328L641 337L693 321H934L970 433H741L671 416L663 428L698 488L723 571V625L735 634L786 618H1079L1118 736H543L-70 4L-72 0Z" glyph-name="AE" horiz-adv-x="1031" unicode="&#198;" /><glyph d="M447 245H348L264 233L259 251L342 318L527 548L579 639H617L509 294L506 238L495 229ZM80 0 167 102 185 156 197 162 246 146H400L471 163L479 151L439 86L412 0H896L934 118H642L572 102L564 114L599 173L629 272V328L641 337L693 321H934L970 433H741L671 416L663 428L698 488L723 571V625L735 634L786 618H1079L1118 736H543L-70 4L-72 0ZM841 814 1097 931 1099 936 872 937 721 819 719 814Z" glyph-name="AEacute" horiz-adv-x="1031" unicode="&#508;" /><glyph d="M508 244 497 233 441 247H291L218 231L212 246L288 318L416 523L469 643H496L479 523L483 311ZM621 0 597 742H430L-61 0H80L155 114L174 160L189 167L243 148H419L485 166L496 156L485 100L488 0ZM592 814 848 931 850 936 623 937 472 819 470 814Z" glyph-name="Aacute" horiz-adv-x="736" unicode="&#193;" /><glyph d="M508 244 497 233 441 247H291L218 231L212 246L288 318L416 523L469 643H496L479 523L483 311ZM621 0 597 742H430L-61 0H80L155 114L174 160L189 167L243 148H419L485 166L496 156L485 100L488 0ZM547 812C661 812 735 865 765 950H692C671 913 631 888 559 888C487 888 458 913 459 950H388C368 869 427 812 547 812Z" glyph-name="Abreve" horiz-adv-x="736" unicode="&#258;" /><glyph d="M508 244 497 233 441 247H291L218 231L212 246L288 318L416 523L469 643H496L479 523L483 311ZM621 0 597 742H430L-61 0H80L155 114L174 160L189 167L243 148H419L485 166L496 156L485 100L488 0ZM426 814 510 855 551 890H577L604 855L662 814H742L744 818L636 953H523L331 818L329 814Z" glyph-name="Acircumflex" horiz-adv-x="736" unicode="&#194;" /><glyph d="M508 244 497 233 441 247H291L218 231L212 246L288 318L416 523L469 643H496L479 523L483 311ZM621 0 597 742H430L-61 0H80L155 114L174 160L189 167L243 148H419L485 166L496 156L485 100L488 0ZM477 819 516 940H394L356 819ZM719 819 757 940H636L597 819Z" glyph-name="Adieresis" horiz-adv-x="736" unicode="&#196;" /><glyph d="M508 244 497 233 441 247H291L218 231L212 246L288 318L416 523L469 643H496L479 523L483 311ZM621 0 597 742H430L-61 0H80L155 114L174 160L189 167L243 148H419L485 166L496 156L485 100L488 0ZM595 814 596 819 495 936H303L301 931L489 814Z" glyph-name="Agrave" horiz-adv-x="736" unicode="&#192;" /><glyph d="M508 244 497 233 441 247H291L218 231L212 246L288 318L416 523L469 643H496L479 523L483 311ZM621 0 597 742H430L-61 0H80L155 114L174 160L189 167L243 148H419L485 166L496 156L485 100L488 0ZM739 826 762 900H364L341 826Z" glyph-name="Amacron" horiz-adv-x="736" unicode="&#256;" /><glyph d="M621 -157 625 -144C555 -123 534 -112 534 -100C534 -88 549 -71 621 0L597 742H430L-61 0H80L155 114L174 160L189 167L243 148H419L485 166L496 156L485 100L487 5L547 2L543 -12C436 -67 411 -93 411 -115C411 -129 426 -145 449 -157ZM291 247 218 231 212 246 288 318 416 523 469 643H496L479 523L483 311L508 244L497 233L441 247Z" glyph-name="Aogonek" horiz-adv-x="736" unicode="&#260;" /><glyph d="M526 739C472 739 439 762 439 799C439 839 479 867 540 867C592 867 628 844 628 809C628 769 588 739 526 739ZM508 244 497 233 441 247H291L218 231L212 246L288 318L416 523L469 642H496L479 523L483 311ZM156 114 174 160 190 167 243 148H419L486 166L497 156L485 100L488 0H621L599 695L576 709L577 714C632 728 674 764 674 815C674 866 625 906 542 906C457 906 394 865 394 801C394 768 413 741 443 725L440 714L399 695L-61 0H80Z" glyph-name="Aring" horiz-adv-x="736" unicode="&#197;" /><glyph d="M526 739C472 739 439 762 439 799C439 839 479 867 540 867C592 867 628 844 628 809C628 769 588 739 526 739ZM508 244 497 233 441 247H291L218 231L212 246L288 318L416 523L469 642H496L479 523L483 311ZM156 114 174 160 190 167 243 148H419L486 166L497 156L485 100L488 0H621L599 695L576 709L577 714C632 728 674 764 674 815C674 866 625 906 542 906C457 906 394 865 394 801C394 768 413 741 443 725L440 714L399 695L-61 0H80ZM630 956 886 1073 888 1078 661 1079 510 961 508 956Z" glyph-name="Aringacute" horiz-adv-x="736" unicode="&#506;" /><glyph d="M508 244 497 233 441 247H291L218 231L212 246L288 318L416 523L469 643H496L479 523L483 311ZM621 0 597 742H430L-61 0H80L155 114L174 160L189 167L243 148H419L485 166L496 156L485 100L488 0ZM380 803C433 871 454 888 473 888C489 888 499 882 540 854C587 821 610 811 640 811C680 811 710 830 791 942L741 972C688 906 668 890 648 890C633 890 623 895 582 923C534 955 513 966 484 966C441 966 408 942 329 833Z" glyph-name="Atilde" horiz-adv-x="736" unicode="&#195;" /><glyph d="M248 0C456 0 593 74 593 206C593 287 540 342 426 368L429 379C599 413 689 489 689 591C689 683 610 736 461 736H222L-10 0ZM231 424 270 482 299 579 300 633 310 641H356C498 641 557 617 557 556C557 481 461 418 241 410ZM132 106 169 161 206 285V334L220 345C407 339 473 295 473 225C473 138 391 94 148 94H140Z" glyph-name="B" horiz-adv-x="667" unicode="B" /><glyph d="M346 -7C409 -7 471 6 532 40L503 156C458 132 416 119 369 119C262 119 206 177 206 286C206 376 244 474 312 541C358 588 424 617 500 617C556 617 605 600 649 574L715 693C664 722 593 743 509 743C387 743 284 698 205 619C124 538 65 409 65 272C65 94 171 -7 346 -7Z" glyph-name="C" horiz-adv-x="630" unicode="C" /><glyph d="M346 -7C409 -7 471 6 532 40L503 156C458 132 416 119 369 119C262 119 206 177 206 286C206 376 244 474 312 541C358 588 424 617 500 617C556 617 605 600 649 574L715 693C664 722 593 743 509 743C387 743 284 698 205 619C124 538 65 409 65 272C65 94 171 -7 346 -7ZM600 813 856 930 858 935 631 936 480 818 478 813Z" glyph-name="Cacute" horiz-adv-x="630" unicode="&#262;" /><glyph d="M346 -7C409 -7 471 6 532 40L503 156C458 132 416 119 369 119C262 119 206 177 206 286C206 376 244 474 312 541C358 588 424 617 500 617C556 617 605 600 649 574L715 693C664 722 593 743 509 743C387 743 284 698 205 619C124 538 65 409 65 272C65 94 171 -7 346 -7ZM600 813 792 946 793 950H693L611 911L570 875H545L516 911L460 950H381L379 946L486 813Z" glyph-name="Ccaron" horiz-adv-x="630" unicode="&#268;" /><glyph d="M346 -7C409 -7 471 6 532 40L503 156C458 132 416 119 369 119C262 119 206 177 206 286C206 376 244 474 312 541C358 588 424 617 500 617C556 617 605 600 649 574L715 693C664 722 593 743 509 743C387 743 284 698 205 619C124 538 65 409 65 272C65 127 135 27 273 1L267 -15L207 -37L62 -153L61 -157H216L336 -7Z" glyph-name="Ccedilla" horiz-adv-x="630" unicode="&#199;" /><glyph d="M346 -7C409 -7 471 6 532 40L503 156C458 132 416 119 369 119C262 119 206 177 206 286C206 376 244 474 312 541C358 588 424 617 500 617C556 617 605 600 649 574L715 693C664 722 593 743 509 743C387 743 284 698 205 619C124 538 65 409 65 272C65 94 171 -7 346 -7ZM434 813 518 854 559 889H585L612 854L670 813H750L752 817L644 952H531L339 817L337 813Z" glyph-name="Ccircumflex" horiz-adv-x="630" unicode="&#264;" /><glyph d="M346 -7C409 -7 471 6 532 40L503 156C458 132 416 119 369 119C262 119 206 177 206 286C206 376 244 474 312 541C358 588 424 617 500 617C556 617 605 600 649 574L715 693C664 722 593 743 509 743C387 743 284 698 205 619C124 538 65 409 65 272C65 94 171 -7 346 -7ZM610 813 649 935H517L478 813Z" glyph-name="Cdotaccent" horiz-adv-x="630" unicode="&#266;" /><glyph d="M158 0C341 0 467 45 560 137C647 224 696 354 696 465C696 641 584 736 362 736H222L-10 0ZM149 130 189 190 301 554V609L317 620C498 616 555 558 555 456C555 370 514 267 459 213C397 151 308 119 157 117Z" glyph-name="D" horiz-adv-x="701" unicode="D" /><glyph d="M158 0C341 0 467 45 560 137C647 224 696 354 696 465C696 641 584 736 362 736H222L-10 0ZM149 130 189 190 301 554V609L317 620C498 616 555 558 555 456C555 370 514 267 459 213C397 151 308 119 157 117ZM562 814 754 947 755 951H655L573 912L532 876H507L478 912L422 951H343L341 947L448 814Z" glyph-name="Dcaron" horiz-adv-x="701" unicode="&#270;" /><glyph d="M43 0H211C394 0 520 45 612 137C700 224 748 354 748 465C748 648 631 736 415 736H276L198 489L195 429L183 420L130 437H70L32 318H91L156 335L162 326L126 266ZM196 130 230 181 260 281V332L271 341L330 324H430L465 431H366L296 414L289 423L322 476L348 560L347 609L361 619C548 616 608 559 608 456C608 370 567 267 508 209C449 150 358 118 204 117Z" glyph-name="Dcroat" horiz-adv-x="755" unicode="&#272;" /><glyph d="M485 0 523 118H223L153 102L144 114L180 173L210 272V328L222 337L274 321H522L559 433H321L252 416L244 428L279 488L304 571V625L316 634L367 618H668L707 736H222L-10 0Z" glyph-name="E" horiz-adv-x="620" unicode="E" /><glyph d="M485 0 523 118H223L153 102L144 114L180 173L210 272V328L222 337L274 321H522L559 433H321L252 416L244 428L279 488L304 571V625L316 634L367 618H668L707 736H222L-10 0ZM546 814 802 931 804 936 577 937 426 819 424 814Z" glyph-name="Eacute" horiz-adv-x="620" unicode="&#201;" /><glyph d="M485 0 523 118H223L153 102L144 114L180 173L210 272V328L222 337L274 321H522L559 433H321L252 416L244 428L279 488L304 571V625L316 634L367 618H668L707 736H222L-10 0ZM501 812C615 812 689 865 719 950H646C625 913 585 888 513 888C441 888 412 913 413 950H342C322 869 381 812 501 812Z" glyph-name="Ebreve" horiz-adv-x="620" unicode="&#276;" /><glyph d="M485 0 523 118H223L153 102L144 114L180 173L210 272V328L222 337L274 321H522L559 433H321L252 416L244 428L279 488L304 571V625L316 634L367 618H668L707 736H222L-10 0ZM547 814 739 947 740 951H640L558 912L517 876H492L463 912L407 951H328L326 947L433 814Z" glyph-name="Ecaron" horiz-adv-x="620" unicode="&#282;" /><glyph d="M485 0 523 118H223L153 102L144 114L180 173L210 272V328L222 337L274 321H522L559 433H321L252 416L244 428L279 488L304 571V625L316 634L367 618H668L707 736H222L-10 0ZM380 814 464 855 505 890H531L558 855L616 814H696L698 818L590 953H477L285 818L283 814Z" glyph-name="Ecircumflex" horiz-adv-x="620" unicode="&#202;" /><glyph d="M485 0 523 118H223L153 102L144 114L180 173L210 272V328L222 337L274 321H522L559 433H321L252 416L244 428L279 488L304 571V625L316 634L367 618H668L707 736H222L-10 0ZM431 819 470 940H348L310 819ZM673 819 711 940H590L551 819Z" glyph-name="Edieresis" horiz-adv-x="620" unicode="&#203;" /><glyph d="M485 0 523 118H223L153 102L144 114L180 173L210 272V328L222 337L274 321H522L559 433H321L252 416L244 428L279 488L304 571V625L316 634L367 618H668L707 736H222L-10 0ZM556 814 595 936H463L424 814Z" glyph-name="Edotaccent" horiz-adv-x="620" unicode="&#278;" /><glyph d="M485 0 523 118H223L153 102L144 114L180 173L210 272V328L222 337L274 321H522L559 433H321L252 416L244 428L279 488L304 571V625L316 634L367 618H668L707 736H222L-10 0ZM549 814 550 819 449 936H257L255 931L443 814Z" glyph-name="Egrave" horiz-adv-x="620" unicode="&#200;" /><glyph d="M485 0 523 118H223L153 102L144 114L180 173L210 272V328L222 337L274 321H522L559 433H321L252 416L244 428L279 488L304 571V625L316 634L367 618H668L707 736H222L-10 0ZM693 826 716 900H318L295 826Z" glyph-name="Emacron" horiz-adv-x="620" unicode="&#274;" /><glyph d="M407 -157C536 -39 569 8 596 90L799 736H673L550 336L528 142L500 135L388 736H222L-11 0H115L241 409L263 602L292 609L398 27L448 15L442 -5L242 -149L239 -157Z" glyph-name="Eng" horiz-adv-x="733" unicode="&#330;" /><glyph d="M438 -144C368 -123 347 -112 347 -100C347 -88 362 -71 434 0H484L522 118H223L153 102L144 114L179 173L210 272L209 328L221 337L274 321H522L559 433H321L252 416L243 428L278 488L304 571L303 625L315 634L367 618H668L706 736H222L-10 0H267L367 21L370 6C254 -69 224 -92 224 -115C224 -129 239 -145 262 -157H433Z" glyph-name="Eogonek" horiz-adv-x="620" unicode="&#280;" /><glyph d="M43 0H211C394 0 520 45 612 137C700 224 748 354 748 465C748 648 631 736 415 736H276L198 489L195 429L183 420L130 437H70L32 318H91L156 335L162 326L126 266ZM196 130 230 181 260 281V332L271 341L330 324H430L465 431H366L296 414L289 423L322 476L348 560L347 609L361 619C548 616 608 559 608 456C608 370 567 267 508 209C449 150 358 118 204 117Z" glyph-name="Eth" horiz-adv-x="755" unicode="&#208;" /><glyph d="M509 6 518 117C490 112 458 108 418 108C296 108 227 145 222 249L236 260L293 241H512L536 315H295L232 299L224 310L255 351L265 385L261 425L273 434L319 420H569L592 494H393L299 474L291 486C361 590 449 629 565 629C611 629 647 624 678 617L723 727C686 735 641 740 594 740C421 740 280 676 203 531L210 489L197 480L159 494H102L78 420H127L177 436L185 425L154 382L143 347L149 310L137 301L102 315H45L22 241H78L132 256L139 246L116 198C126 75 230 -4 403 -4C445 -4 484 1 509 6Z" glyph-name="Euro" horiz-adv-x="643" unicode="&#8364;" /><glyph d="M420 6 427 115C405 111 382 108 355 108C249 108 188 144 183 250L196 260L254 241H429L453 315H256L193 299L185 310L216 351L226 385L222 425L234 434L280 420H486L510 494H354L259 474L252 486C320 590 406 629 501 629C533 629 562 624 585 619L631 729C603 736 567 740 530 740C370 740 237 673 165 531L171 489L159 480L120 494H63L40 420H88L139 436L146 425L115 382L104 347L110 310L98 301L63 315H6L-17 241H39L93 256L100 246L77 198C87 69 193 -4 344 -4C377 -4 401 1 420 6Z" glyph-name="Euro.tab" horiz-adv-x="555" /><glyph d="M128 0 204 241V295L216 304L267 288H461L499 409H318L249 393L240 406L275 463L307 566V622L318 631L370 614H662L701 736H222L-10 0Z" glyph-name="F" horiz-adv-x="587" unicode="F" /><glyph d="M565 48 678 409H398L363 301H465L537 320L548 305L509 249L484 164L487 116L472 98C454 96 436 95 418 95C270 95 199 161 199 275C199 364 243 483 306 546C351 591 413 620 490 620C552 620 607 602 663 571L736 686C676 721 599 744 508 744C385 744 286 704 207 625C117 536 63 396 63 267C63 106 163 -6 339 -6C417 -6 493 15 565 48Z" glyph-name="G" horiz-adv-x="708" unicode="G" /><glyph d="M565 48 678 409H398L363 301H465L537 320L548 305L509 249L484 164L487 116L472 98C454 96 436 95 418 95C270 95 199 161 199 275C199 364 243 483 306 546C351 591 413 620 490 620C552 620 607 602 663 571L736 686C676 721 599 744 508 744C385 744 286 704 207 625C117 536 63 396 63 267C63 106 163 -6 339 -6C417 -6 493 15 565 48ZM545 812C659 812 733 865 763 950H690C669 913 629 888 557 888C485 888 456 913 457 950H386C366 869 425 812 545 812Z" glyph-name="Gbreve" horiz-adv-x="708" unicode="&#286;" /><glyph d="M565 48 678 409H398L363 301H465L537 320L548 305L509 249L484 164L487 116L472 98C454 96 436 95 418 95C270 95 199 161 199 275C199 364 243 483 306 546C351 591 413 620 490 620C552 620 607 602 663 571L736 686C676 721 599 744 508 744C385 744 286 704 207 625C117 536 63 396 63 267C63 106 163 -6 339 -6C417 -6 493 15 565 48ZM591 814 783 947 784 951H684L602 912L561 876H536L507 912L451 951H372L370 947L477 814Z" glyph-name="Gcaron" horiz-adv-x="708" unicode="&#486;" /><glyph d="M565 48 678 409H398L363 301H465L537 320L548 305L509 249L484 164L487 116L472 98C454 96 436 95 418 95C270 95 199 161 199 275C199 364 243 483 306 546C351 591 413 620 490 620C552 620 607 602 663 571L736 686C676 721 599 744 508 744C385 744 286 704 207 625C117 536 63 396 63 267C63 106 163 -6 339 -6C417 -6 493 15 565 48ZM424 814 508 855 549 890H575L602 855L660 814H740L742 818L634 953H521L329 818L327 814Z" glyph-name="Gcircumflex" horiz-adv-x="708" unicode="&#284;" /><glyph d="M565 48 678 409H398L363 301H465L537 320L548 305L509 249L484 164L487 116L472 98C454 96 436 95 418 95C270 95 199 161 199 275C199 364 243 483 306 546C351 591 413 620 490 620C552 620 607 602 663 571L736 686C676 721 599 744 508 744C385 744 286 704 207 625C117 536 63 396 63 267C63 106 163 -6 339 -6C417 -6 493 15 565 48ZM600 814 639 936H507L468 814Z" glyph-name="Gdotaccent" horiz-adv-x="708" unicode="&#288;" /><glyph d="M128 0 211 264V319L223 328L275 312H455L524 328L533 316L498 259L417 0H556L788 736H650L573 491V436L561 427L509 443H329L260 427L251 439L285 496L361 736H222L-11 0Z" glyph-name="H" horiz-adv-x="722" unicode="H" /><glyph d="M290 397 324 452 336 490 335 540 348 550 400 533H579L649 550L658 538L622 481L610 444V395L598 385L548 402H368L299 385ZM181 0 256 239V297L268 306L320 289H501L571 306L580 294L544 236L470 0H609L764 489L763 537L776 546L825 527H887L922 636H863L800 619L791 631L828 690L842 736H703L684 678V621L671 612L619 630H436L371 612L362 624L397 682L414 736H275L257 678V628L245 619L195 636H132L98 527H152L219 545L228 533L192 474L43 0Z" glyph-name="Hbar" horiz-adv-x="829" unicode="&#294;" /><glyph d="M128 0 211 264V319L223 328L275 312H455L524 328L533 316L498 259L417 0H556L788 736H650L573 491V436L561 427L509 443H329L260 427L251 439L285 496L361 736H222L-11 0ZM419 814 503 855 544 890H570L597 855L655 814H735L737 818L629 953H516L324 818L322 814Z" glyph-name="Hcircumflex" horiz-adv-x="722" unicode="&#292;" /><glyph d="M135 0 368 736H229L-4 0Z" glyph-name="I" horiz-adv-x="308" unicode="I" /><glyph d="M135 0 368 736H229L-4 0ZM378 814 634 931 636 936 409 937 258 819 256 814Z" glyph-name="Iacute" horiz-adv-x="308" unicode="&#205;" /><glyph d="M135 0 368 736H229L-4 0ZM333 812C447 812 521 865 551 950H478C457 913 417 888 345 888C273 888 244 913 245 950H174C154 869 213 812 333 812Z" glyph-name="Ibreve" horiz-adv-x="308" unicode="&#300;" /><glyph d="M135 0 368 736H229L-4 0ZM212 814 296 855 337 890H363L390 855L448 814H528L530 818L422 953H309L117 818L115 814Z" glyph-name="Icircumflex" horiz-adv-x="308" unicode="&#206;" /><glyph d="M135 0 368 736H229L-4 0ZM263 819 302 940H180L142 819ZM505 819 543 940H422L383 819Z" glyph-name="Idieresis" horiz-adv-x="308" unicode="&#207;" /><glyph d="M135 0 368 736H229L-4 0ZM388 814 427 936H295L256 814Z" glyph-name="Idotaccent" horiz-adv-x="308" unicode="&#304;" /><glyph d="M135 0 368 736H229L-4 0ZM381 814 382 819 281 936H89L87 931L275 814Z" glyph-name="Igrave" horiz-adv-x="308" unicode="&#204;" /><glyph d="M135 0 368 736H229L-4 0ZM497 826 520 900H178L155 826Z" glyph-name="Imacron" horiz-adv-x="308" unicode="&#298;" /><glyph d="M135 -157 139 -144C69 -123 49 -112 49 -100C49 -88 64 -71 135 0L368 736H229L-3 3L52 1L48 -12C-50 -69 -75 -94 -75 -115C-75 -129 -60 -145 -37 -157Z" glyph-name="Iogonek" horiz-adv-x="308" unicode="&#302;" /><glyph d="M135 0 368 736H229L-4 0ZM166 803C219 871 240 888 259 888C275 888 285 882 326 854C373 821 396 811 426 811C466 811 496 830 577 942L527 972C474 906 454 890 434 890C419 890 409 895 368 923C320 955 299 966 270 966C227 966 194 942 115 833Z" glyph-name="Itilde" horiz-adv-x="308" unicode="&#296;" /><glyph d="M112 -7C191 -7 262 16 314 65C368 114 404 186 433 276L577 736H441L298 283C282 233 262 192 233 163C203 133 166 118 119 118C83 118 48 127 16 142L-44 25C-6 7 46 -7 112 -7Z" glyph-name="J" horiz-adv-x="506" unicode="J" /><glyph d="M112 -7C191 -7 262 16 314 65C368 114 404 186 433 276L577 736H441L298 283C282 233 262 192 233 163C203 133 166 118 119 118C83 118 48 127 16 142L-44 25C-6 7 46 -7 112 -7ZM422 814 506 855 547 890H573L600 855L658 814H738L740 818L632 953H519L327 818L325 814Z" glyph-name="Jcircumflex" horiz-adv-x="506" unicode="&#308;" /><glyph d="M128 0 208 258 216 330 232 342H296L300 292L419 0H563L566 7L422 333L381 368L385 386L454 422L777 729L780 736H615L337 460L306 413H256L243 429L291 516L359 736H221L-10 0Z" glyph-name="K" horiz-adv-x="658" unicode="K" /><glyph d="M444 0 483 122H227L159 105L149 118L185 176L361 736H223L-10 0Z" glyph-name="L" horiz-adv-x="559" unicode="L" /><glyph d="M444 0 483 122H227L159 105L149 118L185 176L361 736H223L-10 0ZM372 814 628 931 630 936 403 937 252 819 250 814Z" glyph-name="Lacute" horiz-adv-x="559" unicode="&#313;" /><glyph d="M444 0 483 122H227L159 105L149 118L185 176L361 736H223L-10 0ZM394 562 435 547 603 724 606 736H479Z" glyph-name="Lcaron" horiz-adv-x="559" unicode="&#317;" /><glyph d="M497 0 536 122H276L207 105L198 118L233 175L271 297L268 339L278 349L324 352L512 427L553 555L384 487L310 434L298 446L340 513L410 736H276L182 442L187 400L177 389L132 388L43 351L0 223L71 251L143 302L155 290L113 222L43 0Z" glyph-name="Lslash" horiz-adv-x="612" unicode="&#321;" /><glyph d="M430 -6 729 490 791 624H820L641 0H767L965 736H760L496 293L420 118H395L428 293L442 736H239L-26 0H99L310 624H340L318 492L306 -6Z" glyph-name="M" horiz-adv-x="917" unicode="M" /><glyph d="M116 0 241 409 263 602 292 609 405 0H567L800 736H673L550 336L529 142L500 135L389 736H222L-10 0Z" glyph-name="N" horiz-adv-x="733" unicode="N" /><glyph d="M116 0 241 409 263 602 292 609 405 0H567L800 736H673L550 336L529 142L500 135L389 736H222L-10 0ZM587 814 843 931 845 936 618 937 467 819 465 814Z" glyph-name="Nacute" horiz-adv-x="733" unicode="&#323;" /><glyph d="M116 0 241 409 263 602 292 609 405 0H567L800 736H673L550 336L529 142L500 135L389 736H222L-10 0ZM588 814 780 947 781 951H681L599 912L558 876H533L504 912L448 951H369L367 947L474 814Z" glyph-name="Ncaron" horiz-adv-x="733" unicode="&#327;" /><glyph d="M116 0 241 409 263 602 292 609 405 0H567L800 736H673L550 336L529 142L500 135L389 736H222L-10 0ZM375 803C428 871 449 888 468 888C484 888 494 882 535 854C582 821 605 811 635 811C675 811 705 830 786 942L736 972C683 906 663 890 643 890C628 890 618 895 577 923C529 955 508 966 479 966C436 966 403 942 324 833Z" glyph-name="Ntilde" horiz-adv-x="733" unicode="&#209;" /><glyph d="M322 -9C422 -9 511 33 584 106C671 193 728 347 728 477C728 636 633 745 469 745C369 745 280 703 207 630C121 543 64 389 64 259C64 100 158 -9 322 -9ZM332 110C247 110 200 170 200 260C200 358 247 496 308 557C350 599 397 626 460 626C545 626 592 566 592 476C592 378 545 240 484 179C441 137 395 110 332 110Z" glyph-name="O" horiz-adv-x="736" unicode="O" /><glyph d="M453 120 438 110H419C264 110 205 176 205 277C205 359 243 457 295 518C362 591 453 626 592 626H602L610 613L571 554L453 175ZM885 0 920 111H565L557 124L592 182L619 273V330L631 338L683 322H923L959 432H730L660 415L652 427L687 487L711 565V615L723 625H1071L1107 736H594C417 736 282 690 188 586C112 503 65 379 65 269C65 96 179 0 399 0Z" glyph-name="OE" horiz-adv-x="1020" unicode="&#338;" /><glyph d="M322 -9C422 -9 511 33 584 106C671 193 728 347 728 477C728 636 633 745 469 745C369 745 280 703 207 630C121 543 64 389 64 259C64 100 158 -9 322 -9ZM332 110C247 110 200 170 200 260C200 358 247 496 308 557C350 599 397 626 460 626C545 626 592 566 592 476C592 378 545 240 484 179C441 137 395 110 332 110ZM589 814 845 931 847 936 620 937 469 819 467 814Z" glyph-name="Oacute" horiz-adv-x="736" unicode="&#211;" /><glyph d="M322 -9C422 -9 511 33 584 106C671 193 728 347 728 477C728 636 633 745 469 745C369 745 280 703 207 630C121 543 64 389 64 259C64 100 158 -9 322 -9ZM332 110C247 110 200 170 200 260C200 358 247 496 308 557C350 599 397 626 460 626C545 626 592 566 592 476C592 378 545 240 484 179C441 137 395 110 332 110ZM544 812C658 812 732 865 762 950H689C668 913 628 888 556 888C484 888 455 913 456 950H385C365 869 424 812 544 812Z" glyph-name="Obreve" horiz-adv-x="736" unicode="&#334;" /><glyph d="M322 -9C422 -9 511 33 584 106C671 193 728 347 728 477C728 636 633 745 469 745C369 745 280 703 207 630C121 543 64 389 64 259C64 100 158 -9 322 -9ZM332 110C247 110 200 170 200 260C200 358 247 496 308 557C350 599 397 626 460 626C545 626 592 566 592 476C592 378 545 240 484 179C441 137 395 110 332 110ZM423 814 507 855 548 890H574L601 855L659 814H739L741 818L633 953H520L328 818L326 814Z" glyph-name="Ocircumflex" horiz-adv-x="736" unicode="&#212;" /><glyph d="M322 -9C422 -9 511 33 584 106C671 193 728 347 728 477C728 636 633 745 469 745C369 745 280 703 207 630C121 543 64 389 64 259C64 100 158 -9 322 -9ZM332 110C247 110 200 170 200 260C200 358 247 496 308 557C350 599 397 626 460 626C545 626 592 566 592 476C592 378 545 240 484 179C441 137 395 110 332 110ZM474 819 513 940H391L353 819ZM716 819 754 940H633L594 819Z" glyph-name="Odieresis" horiz-adv-x="736" unicode="&#214;" /><glyph d="M322 -9C422 -9 511 33 584 106C671 193 728 347 728 477C728 636 633 745 469 745C369 745 280 703 207 630C121 543 64 389 64 259C64 100 158 -9 322 -9ZM332 110C247 110 200 170 200 260C200 358 247 496 308 557C350 599 397 626 460 626C545 626 592 566 592 476C592 378 545 240 484 179C441 137 395 110 332 110ZM592 814 593 819 492 936H300L298 931L486 814Z" glyph-name="Ograve" horiz-adv-x="736" unicode="&#210;" /><glyph d="M580 103C667 189 725 339 725 459C725 549 690 620 623 659L635 679C652 678 669 677 686 677C791 677 825 701 928 896L842 932C751 755 715 736 633 736H481C374 736 281 695 210 624C120 535 64 387 64 259C64 100 159 -9 323 -9C420 -9 510 32 580 103ZM333 110C247 110 200 171 200 260C200 355 248 493 311 556C349 594 400 624 462 624C540 624 591 563 591 472C591 379 541 237 480 176C441 137 392 110 333 110Z" glyph-name="Ohorn" horiz-adv-x="743" unicode="&#416;" /><glyph d="M322 -9C422 -9 511 33 584 106C671 193 728 347 728 477C728 636 633 745 469 745C369 745 280 703 207 630C121 543 64 389 64 259C64 100 158 -9 322 -9ZM332 110C247 110 200 170 200 260C200 358 247 496 308 557C350 599 397 626 460 626C545 626 592 566 592 476C592 378 545 240 484 179C441 137 395 110 332 110ZM444 814 686 931 688 936H509L365 819L364 814ZM676 814 918 931 920 936H741L597 819L596 814Z" glyph-name="Ohungarumlaut" horiz-adv-x="736" unicode="&#336;" /><glyph d="M322 -9C422 -9 511 33 584 106C671 193 728 347 728 477C728 636 633 745 469 745C369 745 280 703 207 630C121 543 64 389 64 259C64 100 158 -9 322 -9ZM332 110C247 110 200 170 200 260C200 358 247 496 308 557C350 599 397 626 460 626C545 626 592 566 592 476C592 378 545 240 484 179C441 137 395 110 332 110ZM736 826 759 900H361L338 826Z" glyph-name="Omacron" horiz-adv-x="736" unicode="&#332;" /><glyph d="M199 191H177C177 211 179 231 179 242C191 369 238 494 305 560C349 605 406 630 471 630C515 630 555 618 589 598L584 578L504 532L261 278ZM322 105C280 105 241 116 204 137L210 158L290 204L533 458L593 546H614C614 528 613 507 613 495C602 369 559 250 487 177C443 132 387 105 322 105ZM17 -59 103 25 134 78H150L165 38C208 7 259 -9 323 -9C423 -9 512 33 584 105C668 188 728 341 728 478C728 520 721 556 708 590L674 606L678 620L744 658L886 791L887 794H776L691 711L660 658H644L628 698C585 729 534 745 470 745C371 745 281 703 209 630C120 542 64 388 64 258C64 216 71 180 84 146L120 130L116 116L50 78L-92 -56L-93 -59Z" glyph-name="Oslash" horiz-adv-x="736" unicode="&#216;" /><glyph d="M199 191H177C177 211 179 231 179 242C191 369 238 494 305 560C349 605 406 630 471 630C515 630 555 618 589 598L584 578L504 532L261 278ZM322 105C280 105 241 116 204 137L210 158L290 204L533 458L593 546H614C614 528 613 507 613 495C602 369 559 250 487 177C443 132 387 105 322 105ZM17 -59 103 25 134 78H150L165 38C208 7 259 -9 323 -9C423 -9 512 33 584 105C668 188 728 341 728 478C728 520 721 556 708 590L674 606L678 620L744 658L886 791L887 794H776L691 711L660 658H644L628 698C585 729 534 745 470 745C371 745 281 703 209 630C120 542 64 388 64 258C64 216 71 180 84 146L120 130L116 116L50 78L-92 -56L-93 -59ZM586 814 842 931 844 936 617 937 466 819 464 814Z" glyph-name="Oslashacute" horiz-adv-x="736" unicode="&#510;" /><glyph d="M322 -9C422 -9 511 33 584 106C671 193 728 347 728 477C728 636 633 745 469 745C369 745 280 703 207 630C121 543 64 389 64 259C64 100 158 -9 322 -9ZM332 110C247 110 200 170 200 260C200 358 247 496 308 557C350 599 397 626 460 626C545 626 592 566 592 476C592 378 545 240 484 179C441 137 395 110 332 110ZM377 803C430 871 451 888 470 888C486 888 496 882 537 854C584 821 607 811 637 811C677 811 707 830 788 942L738 972C685 906 665 890 645 890C630 890 620 895 579 923C531 955 510 966 481 966C438 966 405 942 326 833Z" glyph-name="Otilde" horiz-adv-x="736" unicode="&#213;" /><glyph d="M208 332 250 394 302 565V626L315 636H342C478 636 528 592 528 520C528 471 507 424 472 389C430 347 352 318 221 318H217ZM128 0 181 171 185 232 197 240 251 225H278C403 225 508 263 573 327C628 383 660 459 660 536C660 654 580 736 402 736H222L-10 0Z" glyph-name="P" horiz-adv-x="628" unicode="P" /><glyph d="M506 -113H661L664 -105L519 99L529 111L585 115C663 197 728 343 728 477C728 636 634 745 470 745C370 745 281 703 208 630C121 543 64 389 64 259C64 100 160 -6 309 -6C322 -6 335 -4 346 -1L386 38H407ZM331 109C246 109 200 170 200 260C200 358 247 496 308 557C350 599 397 626 460 626C545 626 593 566 593 476C593 378 544 238 483 177C441 135 395 109 331 109Z" glyph-name="Q" horiz-adv-x="740" unicode="Q" /><glyph d="M217 364 257 422 303 569 302 627 313 636H368C494 636 545 596 545 533C544 431 421 351 226 351ZM194 211V266L204 274H211C305 274 333 254 360 190L444 0H595L598 7L513 173C480 243 445 273 382 296L385 306C575 347 692 438 692 564C692 672 603 736 444 736H222L-10 0H128Z" glyph-name="R" horiz-adv-x="682" unicode="R" /><glyph d="M217 364 257 422 303 569 302 627 313 636H368C494 636 545 596 545 533C544 431 421 351 226 351ZM194 211V266L204 274H211C305 274 333 254 360 190L444 0H595L598 7L513 173C480 243 445 273 382 296L385 306C575 347 692 438 692 564C692 672 603 736 444 736H222L-10 0H128ZM545 814 801 931 803 936 576 937 425 819 423 814Z" glyph-name="Racute" horiz-adv-x="682" unicode="&#340;" /><glyph d="M217 364 257 422 303 569 302 627 313 636H368C494 636 545 596 545 533C544 431 421 351 226 351ZM194 211V266L204 274H211C305 274 333 254 360 190L444 0H595L598 7L513 173C480 243 445 273 382 296L385 306C575 347 692 438 692 564C692 672 603 736 444 736H222L-10 0H128ZM545 814 737 947 738 951H638L556 912L515 876H490L461 912L405 951H326L324 947L431 814Z" glyph-name="Rcaron" horiz-adv-x="682" unicode="&#344;" /><glyph d="M261 -7C456 -7 570 94 570 228C570 320 517 373 392 426C299 469 273 496 274 537C274 587 320 628 409 628C479 628 541 604 595 569L670 673C594 718 517 742 425 742C241 742 136 644 136 521C136 430 193 373 312 324C406 282 432 255 432 208C432 150 376 108 276 108C191 108 122 135 52 178L-22 74C64 25 155 -7 261 -7Z" glyph-name="S" horiz-adv-x="637" unicode="S" /><glyph d="M261 -7C456 -7 570 94 570 228C570 320 517 373 392 426C299 469 273 496 274 537C274 587 320 628 409 628C479 628 541 604 595 569L670 673C594 718 517 742 425 742C241 742 136 644 136 521C136 430 193 373 312 324C406 282 432 255 432 208C432 150 376 108 276 108C191 108 122 135 52 178L-22 74C64 25 155 -7 261 -7ZM532 814 788 931 790 936 563 937 412 819 410 814Z" glyph-name="Sacute" horiz-adv-x="637" unicode="&#346;" /><glyph d="M261 -7C456 -7 570 94 570 228C570 320 517 373 392 426C299 469 273 496 274 537C274 587 320 628 409 628C479 628 541 604 595 569L670 673C594 718 517 742 425 742C241 742 136 644 136 521C136 430 193 373 312 324C406 282 432 255 432 208C432 150 376 108 276 108C191 108 122 135 52 178L-22 74C64 25 155 -7 261 -7ZM532 814 724 947 725 951H625L543 912L502 876H477L448 912L392 951H313L311 947L418 814Z" glyph-name="Scaron" horiz-adv-x="637" unicode="&#352;" /><glyph d="M261 -7C456 -7 570 94 570 228C570 320 517 373 392 426C299 469 273 496 274 537C274 587 320 628 409 628C479 628 541 604 595 569L670 673C594 718 517 742 425 742C241 742 136 644 136 521C136 430 193 373 312 324C406 282 432 255 432 208C432 150 376 108 276 108C191 108 122 135 52 178L-22 74C64 25 155 -7 261 -7ZM366 814 450 855 491 890H517L544 855L602 814H682L684 818L576 953H463L271 818L269 814Z" glyph-name="Scircumflex" horiz-adv-x="637" unicode="&#348;" /><glyph d="M301 0 477 561V617L490 626L542 609H714L755 736H174L133 609H294L364 626L372 614L337 556L162 0Z" glyph-name="T" horiz-adv-x="640" unicode="T" /><glyph d="M301 0 382 259 384 314 395 322 446 306H567L601 415H487L419 397L411 408L450 471L477 561V617L490 626L542 609H714L755 736H174L133 609H294L364 626L372 614L337 556L309 464L306 406L295 397L246 415H124L89 306H202L271 323L279 313L242 253L162 0Z" glyph-name="Tbar" horiz-adv-x="640" unicode="&#358;" /><glyph d="M301 0 477 561V617L490 626L542 609H714L755 736H174L133 609H294L364 626L372 614L337 556L162 0ZM546 814 738 947 739 951H639L557 912L516 876H491L462 912L406 951H327L325 947L432 814Z" glyph-name="Tcaron" horiz-adv-x="640" unicode="&#356;" /><glyph d="M179 230 218 292 269 457V511L284 522H324C449 522 496 482 496 414C496 367 476 323 443 290C399 246 322 219 199 219H186ZM129 0 151 71 154 132 167 141 220 125H247C366 125 475 161 545 230C597 281 628 352 628 430C628 544 547 621 403 621H378L311 602L304 614L342 674L361 736H222L-10 0Z" glyph-name="Thorn" horiz-adv-x="636" unicode="&#222;" /><glyph d="M307 -8C474 -8 572 84 636 281L779 736H643L511 309C466 172 408 113 318 113C243 113 203 151 203 216C203 243 210 273 219 304L355 736H216L89 330C74 284 64 240 64 199C64 72 156 -8 307 -8Z" glyph-name="U" horiz-adv-x="707" unicode="U" /><glyph d="M307 -8C474 -8 572 84 636 281L779 736H643L511 309C466 172 408 113 318 113C243 113 203 151 203 216C203 243 210 273 219 304L355 736H216L89 330C74 284 64 240 64 199C64 72 156 -8 307 -8ZM578 814 834 931 836 936 609 937 458 819 456 814Z" glyph-name="Uacute" horiz-adv-x="707" unicode="&#218;" /><glyph d="M307 -8C474 -8 572 84 636 281L779 736H643L511 309C466 172 408 113 318 113C243 113 203 151 203 216C203 243 210 273 219 304L355 736H216L89 330C74 284 64 240 64 199C64 72 156 -8 307 -8ZM533 812C647 812 721 865 751 950H678C657 913 617 888 545 888C473 888 444 913 445 950H374C354 869 413 812 533 812Z" glyph-name="Ubreve" horiz-adv-x="707" unicode="&#364;" /><glyph d="M307 -8C474 -8 572 84 636 281L779 736H643L511 309C466 172 408 113 318 113C243 113 203 151 203 216C203 243 210 273 219 304L355 736H216L89 330C74 284 64 240 64 199C64 72 156 -8 307 -8ZM412 814 496 855 537 890H563L590 855L648 814H728L730 818L622 953H509L317 818L315 814Z" glyph-name="Ucircumflex" horiz-adv-x="707" unicode="&#219;" /><glyph d="M307 -8C474 -8 572 84 636 281L779 736H643L511 309C466 172 408 113 318 113C243 113 203 151 203 216C203 243 210 273 219 304L355 736H216L89 330C74 284 64 240 64 199C64 72 156 -8 307 -8ZM463 819 502 940H380L342 819ZM705 819 743 940H622L583 819Z" glyph-name="Udieresis" horiz-adv-x="707" unicode="&#220;" /><glyph d="M307 -8C474 -8 572 84 636 281L779 736H643L511 309C466 172 408 113 318 113C243 113 203 151 203 216C203 243 210 273 219 304L355 736H216L89 330C74 284 64 240 64 199C64 72 156 -8 307 -8ZM581 814 582 819 481 936H289L287 931L475 814Z" glyph-name="Ugrave" horiz-adv-x="707" unicode="&#217;" /><glyph d="M306 -7C474 -7 572 83 637 282L740 615L739 668L749 676H751C845 676 884 701 992 895L908 931C810 758 780 736 698 736H643L511 309C466 172 407 113 318 113C243 113 203 151 203 216C203 243 210 273 219 303L355 736H216L88 329C74 283 64 240 64 199C64 72 156 -7 306 -7Z" glyph-name="Uhorn" horiz-adv-x="741" unicode="&#431;" /><glyph d="M307 -8C474 -8 572 84 636 281L779 736H643L511 309C466 172 408 113 318 113C243 113 203 151 203 216C203 243 210 273 219 304L355 736H216L89 330C74 284 64 240 64 199C64 72 156 -8 307 -8ZM433 814 675 931 677 936H498L354 819L353 814ZM665 814 907 931 909 936H730L586 819L585 814Z" glyph-name="Uhungarumlaut" horiz-adv-x="707" unicode="&#368;" /><glyph d="M307 -8C474 -8 572 84 636 281L779 736H643L511 309C466 172 408 113 318 113C243 113 203 151 203 216C203 243 210 273 219 304L355 736H216L89 330C74 284 64 240 64 199C64 72 156 -8 307 -8ZM725 826 748 900H350L327 826Z" glyph-name="Umacron" horiz-adv-x="707" unicode="&#362;" /><glyph d="M336 -157 341 -144C271 -123 250 -112 250 -100C250 -90 262 -73 330 -6C474 1 573 86 635 276L779 736H643L512 310C467 174 408 113 317 113C243 113 203 151 203 216C203 243 209 271 218 301L354 736H215L87 325C73 281 64 238 64 199C64 95 125 19 250 -1L246 -15C156 -69 127 -94 127 -114C127 -129 142 -145 165 -157Z" glyph-name="Uogonek" horiz-adv-x="707" unicode="&#370;" /><glyph d="M307 -8C474 -8 572 84 636 281L779 736H643L511 309C466 172 408 113 318 113C243 113 203 151 203 216C203 243 210 273 219 304L355 736H216L89 330C74 284 64 240 64 199C64 72 156 -8 307 -8ZM539 812C632 812 689 856 690 918C692 963 647 1006 566 1006C474 1006 416 963 415 900C413 855 457 812 539 812ZM543 847C482 847 456 873 456 902C457 943 496 971 562 971C622 971 649 945 648 916C647 875 609 847 543 847Z" glyph-name="Uring" horiz-adv-x="707" unicode="&#366;" /><glyph d="M307 -8C474 -8 572 84 636 281L779 736H643L511 309C466 172 408 113 318 113C243 113 203 151 203 216C203 243 210 273 219 304L355 736H216L89 330C74 284 64 240 64 199C64 72 156 -8 307 -8ZM366 803C419 871 440 888 459 888C475 888 485 882 526 854C573 821 596 811 626 811C666 811 696 830 777 942L727 972C674 906 654 890 634 890C619 890 609 895 568 923C520 955 499 966 470 966C427 966 394 942 315 833Z" glyph-name="Utilde" horiz-adv-x="707" unicode="&#360;" /><glyph d="M823 736H675L362 226L309 101H285L306 226L309 736H169L186 -7H342Z" glyph-name="V" horiz-adv-x="708" unicode="V" /><glyph d="M285 -5 567 481 625 612H651L628 481L609 -5H760L1181 736H1037L778 251L725 113H698L725 251L748 736H601L322 251L266 113H239L268 252L314 736H179L132 -5Z" glyph-name="W" horiz-adv-x="1072" unicode="W" /><glyph d="M285 -5 567 481 625 612H651L628 481L609 -5H760L1181 736H1037L778 251L725 113H698L725 251L748 736H601L322 251L266 113H239L268 252L314 736H179L132 -5ZM755 814 1011 931 1013 936 786 937 635 819 633 814Z" glyph-name="Wacute" horiz-adv-x="1072" unicode="&#7810;" /><glyph d="M285 -5 567 481 625 612H651L628 481L609 -5H760L1181 736H1037L778 251L725 113H698L725 251L748 736H601L322 251L266 113H239L268 252L314 736H179L132 -5ZM589 814 673 855 714 890H740L767 855L825 814H905L907 818L799 953H686L494 818L492 814Z" glyph-name="Wcircumflex" horiz-adv-x="1072" unicode="&#372;" /><glyph d="M285 -5 567 481 625 612H651L628 481L609 -5H760L1181 736H1037L778 251L725 113H698L725 251L748 736H601L322 251L266 113H239L268 252L314 736H179L132 -5ZM640 819 679 940H557L519 819ZM882 819 920 940H799L760 819Z" glyph-name="Wdieresis" horiz-adv-x="1072" unicode="&#7812;" /><glyph d="M285 -5 567 481 625 612H651L628 481L609 -5H760L1181 736H1037L778 251L725 113H698L725 251L748 736H601L322 251L266 113H239L268 252L314 736H179L132 -5ZM758 814 759 819 658 936H466L464 931L652 814Z" glyph-name="Wgrave" horiz-adv-x="1072" unicode="&#7808;" /><glyph d="M97 0 315 245 351 312H371L367 245L432 0H574L575 6L471 345L440 371L444 385L495 415L788 730L789 736H636L438 513L402 444H381L384 513L326 736H188L186 730L284 418L317 387L312 373L262 348L-57 6L-59 0Z" glyph-name="X" horiz-adv-x="691" unicode="X" /><glyph d="M314 0 401 277 791 730 793 736H640L410 459L368 367H345L350 459L295 736H159L156 730L262 279L175 0Z" glyph-name="Y" horiz-adv-x="663" unicode="Y" /><glyph d="M314 0 401 277 791 730 793 736H640L410 459L368 367H345L350 459L295 736H159L156 730L262 279L175 0ZM551 814 807 931 809 936 582 937 431 819 429 814Z" glyph-name="Yacute" horiz-adv-x="663" unicode="&#221;" /><glyph d="M314 0 401 277 791 730 793 736H640L410 459L368 367H345L350 459L295 736H159L156 730L262 279L175 0ZM385 814 469 855 510 890H536L563 855L621 814H701L703 818L595 953H482L290 818L288 814Z" glyph-name="Ycircumflex" horiz-adv-x="663" unicode="&#374;" /><glyph d="M314 0 401 277 791 730 793 736H640L410 459L368 367H345L350 459L295 736H159L156 730L262 279L175 0ZM436 819 475 940H353L315 819ZM678 819 716 940H595L556 819Z" glyph-name="Ydieresis" horiz-adv-x="663" unicode="&#376;" /><glyph d="M314 0 401 277 791 730 793 736H640L410 459L368 367H345L350 459L295 736H159L156 730L262 279L175 0ZM554 814 555 819 454 936H262L260 931L448 814Z" glyph-name="Ygrave" horiz-adv-x="663" unicode="&#7922;" /><glyph d="M503 0 539 114H293L160 83L150 99L681 623L716 736H201L165 622H393L520 651L530 636L1 114L-35 0Z" glyph-name="Z" horiz-adv-x="644" unicode="Z" /><glyph d="M503 0 539 114H293L160 83L150 99L681 623L716 736H201L165 622H393L520 651L530 636L1 114L-35 0ZM540 814 796 931 798 936 571 937 420 819 418 814Z" glyph-name="Zacute" horiz-adv-x="644" unicode="&#377;" /><glyph d="M503 0 539 114H293L160 83L150 99L681 623L716 736H201L165 622H393L520 651L530 636L1 114L-35 0ZM541 814 733 947 734 951H634L552 912L511 876H486L457 912L401 951H322L320 947L427 814Z" glyph-name="Zcaron" horiz-adv-x="644" unicode="&#381;" /><glyph d="M506 0 542 114H295L163 83L153 99L683 623L719 736H204L167 622H395L523 651L532 636L3 114L-32 0H187L265 13L270 -2L193 -38L51 -153L49 -157H204L329 0Z" glyph-name="Zcedilla" horiz-adv-x="644" /><glyph d="M503 0 539 114H293L160 83L150 99L681 623L716 736H201L165 622H393L520 651L530 636L1 114L-35 0ZM550 814 589 936H457L418 814Z" glyph-name="Zdotaccent" horiz-adv-x="644" unicode="&#379;" /><glyph d="M241 78C156 78 117 109 117 160C117 187 128 212 146 230C176 259 225 275 290 275C296 275 332 274 362 273L371 257L343 217L322 150L321 105L301 85C281 80 260 78 241 78ZM232 -2 318 57 322 0H417L434 113L502 335C512 364 518 392 518 418C518 510 443 563 318 563C261 563 206 553 155 538L158 441C202 454 245 462 286 462C366 462 402 437 402 379C402 369 401 359 399 348L397 332L380 320L314 338C289 342 268 343 250 342C156 340 93 317 53 277C19 243 0 198 0 147C0 50 77 -7 189 -7C204 -7 218 -5 232 -2Z" glyph-name="a" horiz-adv-x="548" unicode="a" /><glyph d="M241 78C156 78 117 109 117 160C117 187 128 212 146 230C176 259 225 275 290 275C296 275 332 274 362 273L371 257L343 217L322 150L321 105L301 85C281 80 260 78 241 78ZM232 -2 318 57 322 0H417L434 113L502 335C512 364 518 392 518 418C518 510 443 563 318 563C261 563 206 553 155 538L158 441C202 454 245 462 286 462C366 462 402 437 402 379C402 369 401 359 399 348L397 332L380 320L314 338C289 342 268 343 250 342C156 340 93 317 53 277C19 243 0 198 0 147C0 50 77 -7 189 -7C204 -7 218 -5 232 -2ZM420 639 666 760 668 765H462L318 644L317 639Z" glyph-name="aacute" horiz-adv-x="548" unicode="&#225;" /><glyph d="M241 78C156 78 117 109 117 160C117 187 128 212 146 230C176 259 225 275 290 275C296 275 332 274 362 273L371 257L343 217L322 150L321 105L301 85C281 80 260 78 241 78ZM232 -2 318 57 322 0H417L434 113L502 335C512 364 518 392 518 418C518 510 443 563 318 563C261 563 206 553 155 538L158 441C202 454 245 462 286 462C366 462 402 437 402 379C402 369 401 359 399 348L397 332L380 320L314 338C289 342 268 343 250 342C156 340 93 317 53 277C19 243 0 198 0 147C0 50 77 -7 189 -7C204 -7 218 -5 232 -2ZM396 638C502 638 566 691 594 777H521C501 739 467 714 407 714C344 714 321 739 325 777H254C235 692 292 638 396 638Z" glyph-name="abreve" horiz-adv-x="548" unicode="&#259;" /><glyph d="M241 78C156 78 117 109 117 160C117 187 128 212 146 230C176 259 225 275 290 275C296 275 332 274 362 273L371 257L343 217L322 150L321 105L301 85C281 80 260 78 241 78ZM232 -2 318 57 322 0H417L434 113L502 335C512 364 518 392 518 418C518 510 443 563 318 563C261 563 206 553 155 538L158 441C202 454 245 462 286 462C366 462 402 437 402 379C402 369 401 359 399 348L397 332L380 320L314 338C289 342 268 343 250 342C156 340 93 317 53 277C19 243 0 198 0 147C0 50 77 -7 189 -7C204 -7 218 -5 232 -2ZM197 639H296L364 680L398 716H420L440 681L484 639H563L565 643L478 780H367L199 643Z" glyph-name="acircumflex" horiz-adv-x="548" unicode="&#226;" /><glyph d="M410 639 656 760 658 765H452L308 644L307 639Z" glyph-name="acute" horiz-adv-x="500" unicode="&#180;" /><glyph d="M225 814 481 931 483 936 256 937 105 819 103 814Z" glyph-name="acute.cap" horiz-adv-x="0" /><glyph d="M241 78C156 78 117 109 117 160C117 187 128 212 146 230C176 259 225 275 290 275C296 275 332 274 362 273L371 257L343 217L322 150L321 105L301 85C281 80 260 78 241 78ZM232 -2 318 57 322 0H417L434 113L502 335C512 364 518 392 518 418C518 510 443 563 318 563C261 563 206 553 155 538L158 441C202 454 245 462 286 462C366 462 402 437 402 379C402 369 401 359 399 348L397 332L380 320L314 338C289 342 268 343 250 342C156 340 93 317 53 277C19 243 0 198 0 147C0 50 77 -7 189 -7C204 -7 218 -5 232 -2ZM426 639H548L587 761H465ZM213 639H334L373 761H251Z" glyph-name="adieresis" horiz-adv-x="548" unicode="&#228;" /><glyph d="M539 306 482 291 470 310C490 355 513 397 540 426C571 457 605 475 646 475C712 475 736 430 736 365C736 348 735 329 731 307L712 293L664 306ZM219 81C151 81 117 111 117 160C117 187 127 213 146 231C174 260 223 275 287 275C293 275 330 275 360 273L365 264L350 226C348 216 345 198 345 188C344 181 344 174 345 168C345 165 354 140 355 137L351 123C302 95 258 81 219 81ZM727 25 708 118C664 102 626 93 581 93C491 93 446 136 443 224L464 242L545 226H808C830 291 838 343 838 379C838 492 778 565 674 565C591 565 522 519 475 452H463C450 529 403 563 308 563C251 563 204 553 154 538L157 441C201 454 247 462 293 462C369 462 397 435 397 380C397 371 396 361 393 349L391 332L375 320L308 338C282 342 261 342 242 342C154 339 92 317 53 278C19 244 -1 198 -1 144C-1 52 74 -7 182 -7C211 -7 238 -3 267 6L374 85C411 25 482 -7 570 -7C624 -7 678 3 727 25Z" glyph-name="ae" horiz-adv-x="857" unicode="&#230;" /><glyph d="M539 306 482 291 470 310C490 355 513 397 540 426C571 457 605 475 646 475C712 475 736 430 736 365C736 348 735 329 731 307L712 293L664 306ZM219 81C151 81 117 111 117 160C117 187 127 213 146 231C174 260 223 275 287 275C293 275 330 275 360 273L365 264L350 226C348 216 345 198 345 188C344 181 344 174 345 168C345 165 354 140 355 137L351 123C302 95 258 81 219 81ZM727 25 708 118C664 102 626 93 581 93C491 93 446 136 443 224L464 242L545 226H808C830 291 838 343 838 379C838 492 778 565 674 565C591 565 522 519 475 452H463C450 529 403 563 308 563C251 563 204 553 154 538L157 441C201 454 247 462 293 462C369 462 397 435 397 380C397 371 396 361 393 349L391 332L375 320L308 338C282 342 261 342 242 342C154 339 92 317 53 278C19 244 -1 198 -1 144C-1 52 74 -7 182 -7C211 -7 238 -3 267 6L374 85C411 25 482 -7 570 -7C624 -7 678 3 727 25ZM580 639 826 760 828 765H622L478 644L477 639Z" glyph-name="aeacute" horiz-adv-x="857" unicode="&#509;" /><glyph d="M241 78C156 78 117 109 117 160C117 187 128 212 146 230C176 259 225 275 290 275C296 275 332 274 362 273L371 257L343 217L322 150L321 105L301 85C281 80 260 78 241 78ZM232 -2 318 57 322 0H417L434 113L502 335C512 364 518 392 518 418C518 510 443 563 318 563C261 563 206 553 155 538L158 441C202 454 245 462 286 462C366 462 402 437 402 379C402 369 401 359 399 348L397 332L380 320L314 338C289 342 268 343 250 342C156 340 93 317 53 277C19 243 0 198 0 147C0 50 77 -7 189 -7C204 -7 218 -5 232 -2ZM347 639H435L437 644L335 765H163L161 760Z" glyph-name="agrave" horiz-adv-x="548" unicode="&#224;" /><glyph d="M241 78C156 78 117 109 117 160C117 187 128 212 146 230C176 259 225 275 290 275C296 275 332 274 362 273L371 257L343 217L322 150L321 105L301 85C281 80 260 78 241 78ZM232 -2 318 57 322 0H417L434 113L502 335C512 364 518 392 518 418C518 510 443 563 318 563C261 563 206 553 155 538L158 441C202 454 245 462 286 462C366 462 402 437 402 379C402 369 401 359 399 348L397 332L380 320L314 338C289 342 268 343 250 342C156 340 93 317 53 277C19 243 0 198 0 147C0 50 77 -7 189 -7C204 -7 218 -5 232 -2ZM210 654H561L584 728H233Z" glyph-name="amacron" horiz-adv-x="548" unicode="&#257;" /><glyph d="M215 97C167 97 141 131 141 178C141 231 174 294 284 373L312 372L303 319L345 229L378 214L370 191C299 123 254 97 215 97ZM419 135V81L457 0H588L590 6L512 173L476 193L484 216L538 242L685 411L686 417H554L489 338L457 275H433V336L380 447C366 479 360 505 360 528C360 588 405 629 466 629C511 629 550 611 589 580L662 681C614 719 550 743 474 743C327 743 235 655 235 526C235 506 237 490 240 474L274 437L261 416L214 417C97 357 19 261 19 153C19 51 84 -8 180 -8C266 -8 329 33 396 135Z" glyph-name="ampersand" horiz-adv-x="695" unicode="&amp;" /><glyph d="M241 78C156 78 117 109 117 160C117 187 128 212 146 230C176 259 225 275 290 275C296 275 332 274 362 273L371 257L343 217L322 150L321 105L301 85C281 80 260 78 241 78ZM403 -144C333 -123 313 -112 313 -100C313 -88 328 -71 399 0H417L434 113L502 335C512 364 518 392 518 418C518 510 443 563 318 563C261 563 206 553 155 538L158 441C202 454 245 462 286 462C366 462 402 437 402 379C402 369 401 359 399 348L397 332L380 320L314 338C289 342 268 343 250 342C156 340 93 317 53 277C19 243 0 198 0 147C0 50 77 -7 189 -7C204 -7 218 -5 232 -2L318 57L322 3C217 -65 189 -93 189 -115C189 -129 204 -145 227 -157H399Z" glyph-name="aogonek" horiz-adv-x="548" unicode="&#261;" /><glyph d="M156 393C211 470 230 491 251 491C269 490 284 482 327 446C372 409 396 396 427 396C478 396 523 432 604 565L536 603C481 526 460 504 439 505C421 505 407 513 365 548C320 584 296 597 263 597C212 597 171 561 90 429ZM80 145C135 222 155 244 176 243C194 243 209 234 252 199C297 161 321 149 352 149C403 149 447 185 528 317L460 354C405 278 385 257 364 257C347 257 332 265 290 300C245 337 221 350 189 350C138 350 95 313 14 181Z" glyph-name="approxequal" horiz-adv-x="555" unicode="&#8776;" /><glyph d="M241 78C156 78 117 109 117 160C117 187 128 212 146 230C176 259 225 275 290 275C296 275 332 274 362 273L371 257L343 217L322 150L321 105L301 85C281 80 260 78 241 78ZM232 -2 318 57 322 0H417L434 113L502 335C512 364 518 392 518 418C518 510 443 563 318 563C261 563 206 553 155 538L158 441C202 454 245 462 286 462C366 462 402 437 402 379C402 369 401 359 399 348L397 332L380 320L314 338C289 342 268 343 250 342C156 340 93 317 53 277C19 243 0 198 0 147C0 50 77 -7 189 -7C204 -7 218 -5 232 -2ZM397 633C482 633 535 683 535 743C535 792 490 831 422 831C340 831 285 782 285 722C285 672 329 633 397 633ZM400 669C352 669 327 694 327 725C327 768 364 796 420 796C468 796 493 770 493 739C493 697 456 669 400 669Z" glyph-name="aring" horiz-adv-x="548" unicode="&#229;" /><glyph d="M241 78C156 78 117 109 117 160C117 187 128 212 146 230C176 259 225 275 290 275C296 275 332 274 362 273L371 257L343 217L322 150L321 105L301 85C281 80 260 78 241 78ZM232 -2 318 57 322 0H417L434 113L502 335C512 364 518 392 518 418C518 510 443 563 318 563C261 563 206 553 155 538L158 441C202 454 245 462 286 462C366 462 402 437 402 379C402 369 401 359 399 348L397 332L380 320L314 338C289 342 268 343 250 342C156 340 93 317 53 277C19 243 0 198 0 147C0 50 77 -7 189 -7C204 -7 218 -5 232 -2ZM397 633C480 633 530 681 534 736C537 769 517 798 484 814L716 928L717 933H517L399 826C332 818 288 775 285 726C281 673 329 633 397 633ZM401 669C352 669 324 694 326 727C329 764 363 792 418 792C467 792 495 767 492 734C490 697 456 669 401 669Z" glyph-name="aringacute" horiz-adv-x="548" unicode="&#507;" /><glyph d="M188 373 350 580 391 659H415L411 580L442 373H542L475 744H375L70 373Z" glyph-name="asciicircum" horiz-adv-x="555" unicode="^" /><glyph d="M111 254C169 339 191 365 213 364C231 364 245 355 288 316C334 276 358 262 390 262C442 262 487 301 575 452L505 491C447 408 425 383 403 383C385 384 372 392 328 430C284 469 260 483 227 483C174 483 129 444 40 292Z" glyph-name="asciitilde" horiz-adv-x="555" unicode="~" /><glyph d="M377 584C383 643 405 698 430 732V745H292V732C317 698 339 643 346 584ZM427 525C484 536 543 532 583 519L594 523L552 655L540 651C515 617 470 579 418 554ZM296 525 305 554C252 579 208 617 183 651L170 655L128 523L140 519C180 532 238 536 296 525ZM437 296 548 377 540 388C500 401 451 432 411 476L387 457C415 406 429 349 430 307ZM285 296 293 307C293 349 307 406 336 457L311 476C271 432 222 401 182 388L174 377Z" glyph-name="asterisk" horiz-adv-x="575" unicode="*" /><glyph d="M463 -157 487 -92H417C235 -92 140 1 140 182C140 360 228 537 353 630C409 673 472 696 534 696C625 696 669 650 669 571C669 547 665 521 659 497L644 490L604 525C593 527 576 529 561 529C497 529 439 508 394 473C326 421 284 331 284 235C284 130 349 68 440 68C451 68 460 70 472 74L521 117H537V69H609L724 429C741 481 754 535 754 578C754 689 681 770 540 770C457 770 372 739 299 683C158 576 58 385 58 182C58 -27 178 -157 405 -157ZM483 155C428 155 395 184 395 248C395 308 421 369 461 404C495 431 538 445 588 445C597 445 606 444 614 443L622 425L597 383L543 214V176L532 162C514 157 497 155 483 155Z" glyph-name="at" horiz-adv-x="764" unicode="@" /><glyph d="M241 78C156 78 117 109 117 160C117 187 128 212 146 230C176 259 225 275 290 275C296 275 332 274 362 273L371 257L343 217L322 150L321 105L301 85C281 80 260 78 241 78ZM232 -2 318 57 322 0H417L434 113L502 335C512 364 518 392 518 418C518 510 443 563 318 563C261 563 206 553 155 538L158 441C202 454 245 462 286 462C366 462 402 437 402 379C402 369 401 359 399 348L397 332L380 320L314 338C289 342 268 343 250 342C156 340 93 317 53 277C19 243 0 198 0 147C0 50 77 -7 189 -7C204 -7 218 -5 232 -2ZM238 630C288 695 308 712 326 712C341 712 351 704 388 677C432 644 448 634 478 634C522 634 551 662 621 767L570 794C520 730 501 713 483 713C469 713 458 719 421 747C377 780 360 791 331 791C287 791 260 764 188 659Z" glyph-name="atilde" horiz-adv-x="548" unicode="&#227;" /><glyph d="M-21 -3H53L93 55H104L138 4C156 -2 175 -5 194 -5C283 -5 363 30 421 88C491 158 531 266 531 366C531 485 465 562 367 562C361 562 355 562 349 561L266 512L251 527L296 601L347 765H222ZM179 97C162 97 145 99 128 102L122 122L160 186L222 385L223 439L243 459C263 463 281 465 297 465C380 465 413 424 413 354C413 284 383 202 340 159C301 121 251 97 179 97Z" glyph-name="b" horiz-adv-x="558" unicode="b" /><glyph d="M304 -137 246 770H154L212 -137Z" glyph-name="backslash" horiz-adv-x="395" unicode="\" /><glyph d="M303 -100 245 807H153L211 -100Z" glyph-name="backslash.cap" horiz-adv-x="395" /><glyph d="M91 -196 415 829H323L-1 -196Z" glyph-name="bar" horiz-adv-x="390" unicode="|" /><glyph d="M108 -141 418 839H326L16 -141Z" glyph-name="bar.cap" horiz-adv-x="390" /><glyph d="M395 -124 430 -45C324 -35 230 -16 178 4L182 18C275 45 330 92 330 159C330 228 268 277 175 306L180 322C352 363 443 434 443 518C443 559 421 588 370 611L375 625C439 647 548 670 661 682L675 762C529 747 378 710 280 674L259 607C299 589 326 566 326 521C326 433 223 368 92 355C89 355 61 352 58 352L39 289C41 288 68 284 70 283C163 268 216 231 216 170C216 108 161 60 76 30L55 -36C131 -72 258 -107 395 -124Z" glyph-name="braceleft" horiz-adv-x="567" unicode="{" /><glyph d="M410 -79 445 0C339 10 245 29 193 49L197 63C290 90 345 137 345 204C345 273 283 322 190 351L195 367C367 408 458 479 458 563C458 604 436 633 385 656L390 670C454 692 563 715 676 727L690 807C544 792 393 755 295 719L274 652C314 634 341 611 341 566C341 478 238 413 107 400C104 400 76 397 73 397L54 334C56 333 83 329 85 328C178 313 231 276 231 215C231 153 176 105 91 75L70 9C146 -27 273 -62 410 -79Z" glyph-name="braceleft.cap" horiz-adv-x="567" /><glyph d="M-84 -124C62 -109 213 -72 312 -36L332 31C292 49 265 72 265 117C265 205 368 270 499 283C502 283 530 286 533 286L552 349C550 350 523 354 521 355C428 370 376 407 376 468C376 530 430 578 515 608L536 674C460 710 333 745 197 762L161 683C267 673 361 654 413 634L409 620C316 593 261 546 261 479C261 410 323 361 416 332L411 316C239 275 149 204 149 120C149 79 170 49 222 27L217 13C153 -9 43 -32 -70 -44Z" glyph-name="braceright" horiz-adv-x="567" unicode="}" /><glyph d="M-69 -79C77 -64 228 -27 327 9L347 76C307 94 280 117 280 162C280 250 383 315 514 328C517 328 545 331 548 331L567 394C565 395 538 399 536 400C443 415 391 452 391 513C391 575 445 623 530 653L551 719C475 755 348 790 212 807L176 728C282 718 376 699 428 679L424 665C331 638 276 591 276 524C276 455 338 406 431 377L426 361C254 320 164 249 164 165C164 124 185 94 237 72L232 58C168 36 58 13 -55 1Z" glyph-name="braceright.cap" horiz-adv-x="567" /><glyph d="M246 -97 271 -18 131 -27 62 -49 53 -36 97 35 281 617 280 675 292 684 338 666 483 656 509 735 220 753 -55 -115Z" glyph-name="bracketleft" horiz-adv-x="411" unicode="[" /><glyph d="M261 -52 286 27 146 18 77 -4 68 9 112 80 296 662 295 720 307 729 353 711 498 701 524 780 235 798 -40 -70Z" glyph-name="bracketleft.cap" horiz-adv-x="411" /><glyph d="M190 735 165 656 305 665 374 686 382 674 338 603 154 21 155 -37 143 -46 97 -28 -48 -18 -73 -97 215 -115 490 753Z" glyph-name="bracketright" horiz-adv-x="411" unicode="]" /><glyph d="M205 780 180 701 320 710 389 731 397 719 353 648 169 66 170 8 158 -1 112 17 -33 27 -58 -52 230 -70 505 798Z" glyph-name="bracketright.cap" horiz-adv-x="411" /><glyph d="M380 638C486 638 550 691 578 777H505C485 739 451 714 391 714C328 714 305 739 309 777H238C219 692 276 638 380 638Z" glyph-name="breve" horiz-adv-x="500" unicode="&#728;" /><glyph d="M180 812C294 812 368 865 398 950H325C304 913 264 888 192 888C120 888 91 913 92 950H21C1 869 60 812 180 812Z" glyph-name="breve.cap" horiz-adv-x="0" /><glyph d="M329 195C429 195 507 274 507 373C507 472 429 551 329 551C230 551 151 472 151 373C151 274 230 195 329 195Z" glyph-name="bullet" horiz-adv-x="600" unicode="&#8226;" /><glyph d="M243 -7C292 -7 342 5 390 32L367 133C329 113 296 104 264 104C191 104 151 144 151 220C151 284 178 354 222 398C254 430 296 451 353 451C395 451 434 436 462 418L520 523C480 547 425 564 359 564C265 564 192 529 137 473C69 406 29 304 29 204C29 76 107 -7 243 -7Z" glyph-name="c" horiz-adv-x="483" unicode="c" /><glyph d="M243 -7C292 -7 342 5 390 32L367 133C329 113 296 104 264 104C191 104 151 144 151 220C151 284 178 354 222 398C254 430 296 451 353 451C395 451 434 436 462 418L520 523C480 547 425 564 359 564C265 564 192 529 137 473C69 406 29 304 29 204C29 76 107 -7 243 -7ZM422 639 668 760 670 765H464L320 644L319 639Z" glyph-name="cacute" horiz-adv-x="483" unicode="&#263;" /><glyph d="M592 780H494L425 738L392 703H370L350 738L306 780H226L225 776L311 639H422L591 776Z" glyph-name="caron" horiz-adv-x="500" unicode="&#711;" /><glyph d="M226 814 418 947 419 951H319L237 912L196 876H171L142 912L86 951H7L5 947L112 814Z" glyph-name="caron.cap" horiz-adv-x="0" /><glyph d="M243 -7C292 -7 342 5 390 32L367 133C329 113 296 104 264 104C191 104 151 144 151 220C151 284 178 354 222 398C254 430 296 451 353 451C395 451 434 436 462 418L520 523C480 547 425 564 359 564C265 564 192 529 137 473C69 406 29 304 29 204C29 76 107 -7 243 -7ZM610 780H512L443 738L410 703H388L368 738L324 780H244L243 776L329 639H440L609 776Z" glyph-name="ccaron" horiz-adv-x="483" unicode="&#269;" /><glyph d="M390 32 367 133C329 113 296 104 264 104C191 104 151 144 151 220C151 284 178 354 222 398C254 430 296 451 353 451C395 451 434 436 462 418L520 523C480 547 425 564 359 564C265 564 192 529 137 473C69 406 29 304 29 204C29 99 81 20 184 0L179 -17L107 -46L-26 -153L-28 -157H128L247 -7C292 -7 342 5 390 32Z" glyph-name="ccedilla" horiz-adv-x="483" unicode="&#231;" /><glyph d="M243 -7C292 -7 342 5 390 32L367 133C329 113 296 104 264 104C191 104 151 144 151 220C151 284 178 354 222 398C254 430 296 451 353 451C395 451 434 436 462 418L520 523C480 547 425 564 359 564C265 564 192 529 137 473C69 406 29 304 29 204C29 76 107 -7 243 -7ZM198 639H297L365 680L399 716H421L441 681L485 639H564L566 643L479 780H368L200 643Z" glyph-name="ccircumflex" horiz-adv-x="483" unicode="&#265;" /><glyph d="M243 -7C292 -7 342 5 390 32L367 133C329 113 296 104 264 104C191 104 151 144 151 220C151 284 178 354 222 398C254 430 296 451 353 451C395 451 434 436 462 418L520 523C480 547 425 564 359 564C265 564 192 529 137 473C69 406 29 304 29 204C29 76 107 -7 243 -7ZM448 639 487 762H354L315 639Z" glyph-name="cdotaccent" horiz-adv-x="483" unicode="&#267;" /><glyph d="M108 -157 232 -2 163 14 -46 -153 -47 -157Z" glyph-name="cedilla" horiz-adv-x="500" unicode="&#184;" /><glyph d="M157 339C157 424 215 509 350 543L357 534L322 480L253 270V225L239 215C179 245 157 286 157 339ZM266 104 264 151 275 159 311 142C358 148 410 167 447 188L422 265C373 240 336 226 287 216L281 224L319 278L389 491L387 538L397 545C436 534 472 515 501 495L554 573C534 587 500 604 473 610L421 596L414 606L452 662L478 743H403L373 654L375 606L365 598L326 612C156 586 56 465 56 332C56 253 90 189 166 153L218 163L225 153L187 94L154 -7H230Z" glyph-name="cent" horiz-adv-x="495" unicode="&#162;" /><glyph d="M181 639H280L348 680L382 716H404L424 681L468 639H547L549 643L462 780H351L183 643Z" glyph-name="circumflex" horiz-adv-x="500" unicode="&#710;" /><glyph d="M59 814 143 855 184 890H210L237 855L295 814H375L377 818L269 953H156L-36 818L-38 814Z" glyph-name="circumflex.cap" horiz-adv-x="0" /><glyph d="M240 376 293 540H148L96 376ZM122 0 174 164H30L-22 0Z" glyph-name="colon" horiz-adv-x="275" unicode=":" /><glyph d="M265 447 318 610H173L121 447ZM165 127 217 291H72L20 127Z" glyph-name="colon.fig" horiz-adv-x="279" /><glyph d="M236 447 289 610H144L92 447ZM136 127 188 291H43L-9 127Z" glyph-name="colon.figtab" horiz-adv-x="278" /><glyph d="M216 376 269 540H124L72 376ZM98 0 150 164H6L-46 0Z" glyph-name="colon.tab" horiz-adv-x="278" /><glyph d="M217 172 219 181H53L-122 -126L-45 -144Z" glyph-name="comma" horiz-adv-x="278" unicode="," /><glyph d="M190 172 192 181H25L-150 -126L-72 -144Z" glyph-name="comma.tab" horiz-adv-x="278" /><glyph d="M387 -159C475 -159 559 -128 633 -72C778 37 875 233 875 426C875 633 751 775 566 775C478 775 393 744 319 687C175 578 78 382 78 188C78 -17 202 -159 387 -159ZM389 -126C219 -126 115 1 115 189C115 373 206 558 340 661C407 711 485 742 564 742C734 742 839 615 839 425C839 243 747 58 613 -45C547 -96 468 -126 389 -126ZM455 77C501 77 542 88 587 109L572 188C539 171 508 161 472 161C405 161 370 200 370 261C370 352 439 466 550 466C590 466 623 453 650 437L695 514C661 534 616 551 556 551C391 551 275 399 274 252C274 140 347 77 455 77Z" glyph-name="copyright" horiz-adv-x="935" unicode="&#169;" /><glyph d="M260 92C178 92 144 134 144 205C144 273 175 355 218 398C255 435 306 460 379 460C395 460 412 458 428 454L435 431L397 369L335 172L334 119L314 98C294 94 276 92 260 92ZM202 -5C212 -5 224 -4 234 -2L315 58H327L326 -3H400L642 765H517L462 590L457 521L438 511L393 555C383 560 373 562 361 562C274 562 195 526 135 467C68 400 27 291 26 193C26 69 91 -5 202 -5Z" glyph-name="d" horiz-adv-x="558" unicode="d" /><glyph d="M479 726 482 736H361L357 726C366 689 366 622 349 546H375C405 622 447 689 479 726ZM526 427 568 560H558C498 528 434 504 358 504H339C263 504 214 528 174 560H164L122 427H132C192 458 256 482 332 482H351C427 482 476 458 516 427ZM328 307 340 437H314L244 307L175 -11H197Z" glyph-name="dagger" horiz-adv-x="555" unicode="&#8224;" /><glyph d="M477 725 481 736H362L358 725C368 696 372 639 359 578H384C410 639 449 696 477 725ZM539 469 578 590H567C508 560 445 540 370 540H350C274 540 224 560 184 590H173L134 469H145C204 497 267 518 343 518H362C438 518 488 497 528 469ZM347 368 352 479H328L264 368L259 257H282ZM437 147 476 268H465C407 239 344 218 268 218H248C173 218 123 239 82 268H72L33 147H43C102 175 166 196 241 196H261C337 196 386 175 427 147ZM249 0 253 11C242 40 238 97 252 158H226C201 97 161 40 134 11L130 0Z" glyph-name="daggerdbl" horiz-adv-x="555" unicode="&#8225;" /><glyph d="M260 92C178 92 144 134 144 205C144 273 175 355 218 398C255 435 306 460 379 460C395 460 412 458 428 454L435 431L397 369L335 172L334 119L314 98C294 94 276 92 260 92ZM202 -5C212 -5 224 -4 234 -2L315 58H327L326 -3H400L642 765H517L462 590L457 521L438 511L393 555C383 560 373 562 361 562C274 562 195 526 135 467C68 400 27 291 26 193C26 69 91 -5 202 -5ZM649 591 690 576 858 753 861 765H734Z" glyph-name="dcaron" horiz-adv-x="558" unicode="&#271;" /><glyph d="M260 90C181 90 143 124 143 189C143 247 165 313 207 355C241 388 291 409 360 409C377 409 394 407 411 403L417 380L381 322L336 174L335 116L315 96C294 91 276 90 260 90ZM201 -5C212 -5 223 -4 234 -2L315 58H327L326 -3H400L578 560L579 607L589 615L633 599H677L705 685H671L606 666L598 678L632 729L643 765H519L505 721L507 677L496 669L451 685H333L306 599H414L483 618L491 606L459 561L447 523L443 467L426 458L376 502C367 507 355 510 343 510C262 510 176 475 122 421C60 360 26 267 26 177C26 62 91 -5 201 -5Z" glyph-name="dcroat" horiz-adv-x="558" unicode="&#273;" /><glyph d="M543 534C543 652 450 745 335 745C220 745 127 650 127 532C127 414 220 322 335 322C450 322 543 416 543 534ZM203 534C203 616 257 674 335 674C412 674 467 615 467 533C467 451 413 393 335 393C258 393 203 452 203 534Z" glyph-name="degree" horiz-adv-x="556" unicode="&#176;" /><glyph d="M410 639H532L571 761H449ZM197 639H318L357 761H235Z" glyph-name="dieresis" horiz-adv-x="500" unicode="&#168;" /><glyph d="M110 819 149 940H27L-11 819ZM352 819 390 940H269L230 819Z" glyph-name="dieresis.cap" horiz-adv-x="0" /><glyph d="M411 509 449 628H328L290 509ZM527 323 558 423 321 416 87 423 56 323 293 330ZM286 117 324 236H203L165 117Z" glyph-name="divide" horiz-adv-x="555" unicode="&#247;" /><glyph d="M241 515C241 586 298 644 415 665L422 655L387 601L342 461L339 411L328 403C264 435 241 470 241 515ZM255 81 290 136 344 304 347 353 355 359C419 328 447 296 447 243C447 167 392 100 262 72ZM244 -47V11L254 19L294 4C461 24 556 131 556 253C556 333 512 386 434 419L377 407L370 417L400 468L447 612L450 660L462 669C523 655 577 629 622 597L678 679C644 702 594 723 550 731L486 717L479 727L516 783L539 854H455L430 776L434 727L424 719L382 733C225 720 132 620 132 508C132 431 173 374 251 345L309 358L316 348L286 297L230 124L228 77L215 67C144 84 73 122 23 160L-36 79C7 47 76 12 131 7L192 19L199 10L158 -54L132 -135H216Z" glyph-name="dollar" horiz-adv-x="604" unicode="$" /><glyph d="M207 510C207 576 256 641 360 665L367 655L332 601L287 461L282 411L274 406C226 436 207 468 207 510ZM196 81 231 136 285 304 289 352 298 358C340 332 366 300 366 250C366 176 319 100 204 70ZM186 -47 188 11 198 19 235 5C384 26 470 139 470 263C470 338 434 387 375 418L318 405L311 415L343 468L389 612L395 660L406 668C453 655 496 632 537 604L592 681C566 703 526 724 491 730L427 717L420 727L458 783L480 854H400L374 776L377 726L367 719L324 733C190 719 105 614 105 498C105 435 132 378 195 347L252 360L260 350L229 297L174 124L170 77L158 67C99 83 43 118 -2 156L-60 77C-20 45 31 13 76 7L136 19L143 10L103 -54L77 -135H158Z" glyph-name="dollar.tab" horiz-adv-x="555" /><glyph d="M265 91C180 91 140 123 140 189C140 237 162 305 199 342C232 375 285 396 356 396C373 396 390 394 407 390L414 367L378 311L340 184L339 117L320 97C298 93 281 91 265 91ZM299 575H407L476 594L484 582L452 538L443 512L442 459L424 449L376 491C365 496 350 498 337 498C249 498 169 465 113 410C55 351 21 259 21 176C21 66 88 -5 202 -5C212 -5 224 -4 234 -2L316 58H327L326 -3H401L572 539L571 584L581 592L625 575H670L697 659H664L598 641L590 652L623 700L634 736H510L496 692L499 651L489 643L443 659H326ZM349 -157 372 -87H-7L-30 -157Z" glyph-name="dong" horiz-adv-x="558" unicode="&#8363;" /><glyph d="M431 639 470 762H337L298 639Z" glyph-name="dotaccent" horiz-adv-x="500" unicode="&#729;" /><glyph d="M235 814 274 936H142L103 814Z" glyph-name="dotaccent.cap" horiz-adv-x="0" /><glyph d="M115 0 292 557H166L-10 0Z" glyph-name="dotlessi" horiz-adv-x="281" unicode="&#305;" /><glyph d="M166 557 -10 0H115L292 557L253 549H200Z" glyph-name="dotlessi.cmb" horiz-adv-x="281" /><glyph d="M115 -157 119 -144C49 -123 29 -112 29 -100C29 -88 44 -71 115 0L292 557H166L-9 4L42 2L37 -14C-69 -68 -95 -93 -95 -115C-95 -129 -80 -145 -57 -157Z" glyph-name="dotlessiogonek" horiz-adv-x="281" /><glyph d="M115 -157 119 -144C49 -123 29 -112 29 -100C29 -88 44 -71 115 0L292 557L253 549H200L166 557L-9 4L42 2L37 -14C-69 -68 -95 -93 -95 -115C-95 -129 -80 -145 -57 -157Z" glyph-name="dotlessiogonek.cmb" horiz-adv-x="281" /><glyph d="M219 306 163 291 152 308C194 405 254 475 329 475C395 475 421 430 421 364C421 347 419 327 416 307L396 293L348 306ZM406 25 388 118C347 103 307 93 264 93C174 93 132 139 127 227L145 242L226 226H492C514 291 523 340 523 384C523 489 459 566 340 566C263 566 197 534 144 481C76 413 30 302 30 201C30 71 103 -6 248 -7C305 -7 357 3 406 25Z" glyph-name="e" horiz-adv-x="542" unicode="e" /><glyph d="M219 306 163 291 152 308C194 405 254 475 329 475C395 475 421 430 421 364C421 347 419 327 416 307L396 293L348 306ZM406 25 388 118C347 103 307 93 264 93C174 93 132 139 127 227L145 242L226 226H492C514 291 523 340 523 384C523 489 459 566 340 566C263 566 197 534 144 481C76 413 30 302 30 201C30 71 103 -6 248 -7C305 -7 357 3 406 25ZM426 639 672 760 674 765H468L324 644L323 639Z" glyph-name="eacute" horiz-adv-x="542" unicode="&#233;" /><glyph d="M219 306 163 291 152 308C194 405 254 475 329 475C395 475 421 430 421 364C421 347 419 327 416 307L396 293L348 306ZM406 25 388 118C347 103 307 93 264 93C174 93 132 139 127 227L145 242L226 226H492C514 291 523 340 523 384C523 489 459 566 340 566C263 566 197 534 144 481C76 413 30 302 30 201C30 71 103 -6 248 -7C305 -7 357 3 406 25ZM401 638C507 638 571 691 599 777H526C506 739 472 714 412 714C349 714 326 739 330 777H259C240 692 297 638 401 638Z" glyph-name="ebreve" horiz-adv-x="542" unicode="&#277;" /><glyph d="M219 306 163 291 152 308C194 405 254 475 329 475C395 475 421 430 421 364C421 347 419 327 416 307L396 293L348 306ZM406 25 388 118C347 103 307 93 264 93C174 93 132 139 127 227L145 242L226 226H492C514 291 523 340 523 384C523 489 459 566 340 566C263 566 197 534 144 481C76 413 30 302 30 201C30 71 103 -6 248 -7C305 -7 357 3 406 25ZM613 780H515L446 738L413 703H391L371 738L327 780H247L246 776L332 639H443L612 776Z" glyph-name="ecaron" horiz-adv-x="542" unicode="&#283;" /><glyph d="M219 306 163 291 152 308C194 405 254 475 329 475C395 475 421 430 421 364C421 347 419 327 416 307L396 293L348 306ZM406 25 388 118C347 103 307 93 264 93C174 93 132 139 127 227L145 242L226 226H492C514 291 523 340 523 384C523 489 459 566 340 566C263 566 197 534 144 481C76 413 30 302 30 201C30 71 103 -6 248 -7C305 -7 357 3 406 25ZM202 639H301L369 680L403 716H425L445 681L489 639H568L570 643L483 780H372L204 643Z" glyph-name="ecircumflex" horiz-adv-x="542" unicode="&#234;" /><glyph d="M219 306 163 291 152 308C194 405 254 475 329 475C395 475 421 430 421 364C421 347 419 327 416 307L396 293L348 306ZM406 25 388 118C347 103 307 93 264 93C174 93 132 139 127 227L145 242L226 226H492C514 291 523 340 523 384C523 489 459 566 340 566C263 566 197 534 144 481C76 413 30 302 30 201C30 71 103 -6 248 -7C305 -7 357 3 406 25ZM431 639H553L592 761H470ZM218 639H339L378 761H256Z" glyph-name="edieresis" horiz-adv-x="542" unicode="&#235;" /><glyph d="M219 306 163 291 152 308C194 405 254 475 329 475C395 475 421 430 421 364C421 347 419 327 416 307L396 293L348 306ZM406 25 388 118C347 103 307 93 264 93C174 93 132 139 127 227L145 242L226 226H492C514 291 523 340 523 384C523 489 459 566 340 566C263 566 197 534 144 481C76 413 30 302 30 201C30 71 103 -6 248 -7C305 -7 357 3 406 25ZM452 639 491 762H358L319 639Z" glyph-name="edotaccent" horiz-adv-x="542" unicode="&#279;" /><glyph d="M219 306 163 291 152 308C194 405 254 475 329 475C395 475 421 430 421 364C421 347 419 327 416 307L396 293L348 306ZM406 25 388 118C347 103 307 93 264 93C174 93 132 139 127 227L145 242L226 226H492C514 291 523 340 523 384C523 489 459 566 340 566C263 566 197 534 144 481C76 413 30 302 30 201C30 71 103 -6 248 -7C305 -7 357 3 406 25ZM352 639H440L442 644L340 765H168L166 760Z" glyph-name="egrave" horiz-adv-x="542" unicode="&#232;" /><glyph d="M259 -9C423 -9 529 89 529 207C529 288 474 342 412 371L415 381C538 410 613 475 613 576C613 674 524 745 393 745C242 745 148 657 148 550C148 475 201 430 251 402L248 392C114 370 23 287 23 175C23 64 120 -9 259 -9ZM387 649C454 649 499 613 499 557C499 483 431 428 363 428C302 428 260 467 260 530C260 597 309 649 387 649ZM266 87C192 87 144 130 144 195C144 273 211 345 298 345C370 345 410 295 410 230C410 150 352 87 266 87Z" glyph-name="eight" horiz-adv-x="599" unicode="8" /><glyph d="M65 -165C161 -165 231 -103 231 -28C231 15 203 48 165 66L166 72C239 90 284 132 284 191C284 250 233 291 157 291C66 291 8 234 8 169C8 131 30 102 64 84L63 78C-14 63 -69 12 -69 -57C-69 -121 -14 -165 65 -165ZM153 231C188 231 211 210 211 179C211 135 172 98 134 98C102 98 80 120 80 154C80 197 111 231 153 231ZM71 -103C34 -103 9 -81 9 -45C9 5 48 50 95 50C131 50 154 27 154 -12C154 -62 118 -103 71 -103Z" glyph-name="eight.den" horiz-adv-x="355" /><glyph d="M208 288C304 288 373 350 373 425C373 467 346 501 308 518L309 524C382 543 427 584 427 644C427 702 376 744 300 744C209 744 151 687 151 621C151 583 172 554 207 536L206 530C129 516 74 464 74 395C74 331 128 288 208 288ZM295 684C331 684 353 662 353 631C353 587 315 550 276 550C245 550 223 572 223 606C223 650 254 684 295 684ZM214 349C177 349 151 371 151 407C151 458 190 503 238 503C273 503 297 479 297 441C297 390 261 349 214 349Z" glyph-name="eight.num" horiz-adv-x="355" /><glyph d="M215 -9C369 -9 473 91 473 211C473 290 426 340 367 370L370 380C485 408 555 483 555 577C555 674 472 745 350 745C206 745 115 657 115 550C115 479 160 430 208 403L205 393C85 373 -4 289 -4 173C-4 64 84 -9 215 -9ZM343 649C401 649 441 613 441 557C441 485 381 428 319 428C264 428 228 468 228 529C228 597 273 649 343 649ZM223 87C157 87 116 128 116 193C116 272 179 345 254 345C320 345 355 295 355 233C355 150 300 87 223 87Z" glyph-name="eight.tab" horiz-adv-x="555" /><glyph d="M676 0 726 156H586L536 0ZM399 0 449 156H308L259 0ZM122 0 171 156H31L-19 0Z" glyph-name="ellipsis" horiz-adv-x="833" unicode="&#8230;" /><glyph d="M219 306 163 291 152 308C194 405 254 475 329 475C395 475 421 430 421 364C421 347 419 327 416 307L396 293L348 306ZM406 25 388 118C347 103 307 93 264 93C174 93 132 139 127 227L145 242L226 226H492C514 291 523 340 523 384C523 489 459 566 340 566C263 566 197 534 144 481C76 413 30 302 30 201C30 71 103 -6 248 -7C305 -7 357 3 406 25ZM215 654H566L589 728H238Z" glyph-name="emacron" horiz-adv-x="542" unicode="&#275;" /><glyph d="M798 258 838 380H77L37 258Z" glyph-name="emdash" horiz-adv-x="849" unicode="&#8212;" /><glyph d="M815 313 855 435H94L54 313Z" glyph-name="emdash.cap" horiz-adv-x="849" /><glyph d="M468 258 507 381H77L37 258Z" glyph-name="endash" horiz-adv-x="518" unicode="&#8211;" /><glyph d="M485 313 524 436H94L54 313Z" glyph-name="endash.cap" horiz-adv-x="518" /><glyph d="M233 -165C374 -82 422 -21 474 144L521 291C536 338 544 375 544 409C544 510 470 562 367 562C350 562 334 560 319 555L243 499H231V560H157L-20 0H105L224 378L227 434L247 456C263 458 278 459 291 459C368 459 415 437 415 381C415 362 410 337 401 309L353 156C316 36 280 -11 172 -86Z" glyph-name="eng" horiz-adv-x="577" unicode="&#331;" /><glyph d="M219 306 163 291 152 308C194 405 254 475 329 475C395 475 421 430 421 364C421 347 419 327 416 307L396 293L348 306ZM389 -144C319 -123 299 -112 299 -100C299 -86 323 -58 407 21L388 118C347 103 307 93 264 93C174 93 132 139 127 227L145 242L226 226H492C514 291 523 340 523 384C523 489 459 566 340 566C263 566 197 534 144 481C76 413 30 302 30 201C30 73 102 -2 236 -2C262 -2 293 4 321 13L327 0C204 -65 175 -91 175 -115C175 -129 190 -145 213 -157H385Z" glyph-name="eogonek" horiz-adv-x="542" unicode="&#281;" /><glyph d="M549 441 582 541H139L107 441ZM474 204 506 304H63L31 204Z" glyph-name="equal" horiz-adv-x="555" unicode="=" /><glyph d="M217 -9C273 -9 323 6 368 40C471 117 540 291 540 440C540 514 518 576 482 627L448 634L450 650L531 680L649 762L650 765H533L459 713L435 675H417L414 704C382 729 341 752 299 770L247 689C274 675 295 663 318 646L359 643L357 627L285 598L198 537L197 534H305L359 571L384 605H402L400 562C425 515 438 463 438 398L420 387L322 450C311 453 306 454 283 454C225 454 174 439 132 411C63 363 20 273 20 183C20 69 99 -9 217 -9ZM227 94C173 94 137 128 137 188C137 267 200 364 293 364C327 364 358 355 413 326C385 205 317 94 227 94Z" glyph-name="eth" horiz-adv-x="555" unicode="&#240;" /><glyph d="M114 250H173L339 634L370 736H223L192 634ZM-11 0H138L185 147H37Z" glyph-name="exclam" horiz-adv-x="304" unicode="!" /><glyph d="M371 736H223L176 589H325ZM247 486H188L22 102L-9 0H138L169 102Z" glyph-name="exclamdown" horiz-adv-x="304" unicode="&#161;" /><glyph d="M271 385 270 434 283 443 329 427H434L465 525H377L305 507L298 516L303 527C343 622 392 666 469 666C497 666 523 661 547 653L586 752C553 762 519 768 475 768C399 768 340 748 294 710C258 679 230 635 209 574L206 566V521L193 512L148 528H106L74 427H111L170 445L179 432L145 378L27 0H150Z" glyph-name="f" horiz-adv-x="404" unicode="f" /><glyph d="M271 385 270 434 283 443 329 427H434L465 525H377L305 507L298 516L303 527C343 622 392 666 469 666C486 666 501 664 517 661L549 761C525 766 502 768 475 768C398 768 340 748 294 710C258 679 230 635 209 574L206 566V521L193 512L148 528H106L74 427H110L170 445L179 432L145 378L27 0H150Z" glyph-name="f.lig" horiz-adv-x="404" /><glyph d="M271 385 270 434 283 443 329 427H434L465 525H377L305 507L298 516L303 527C343 622 392 666 469 666C497 666 523 661 547 653L586 752C553 762 519 768 475 768C399 768 340 748 294 710C258 679 230 635 209 574L206 566V521L193 512L148 528H106L74 427H111L170 445L179 432L145 378L27 0H150ZM675 385 674 434 687 443 733 427H838L869 525H781L709 507L702 516L707 527C747 622 796 666 873 666C901 666 927 661 951 653L990 752C957 762 923 768 879 768C803 768 744 748 698 710C662 679 634 635 613 574L610 566V521L597 512L552 528H510L478 427H515L574 445L583 432L549 378L431 0H554Z" glyph-name="f_f" horiz-adv-x="808" /><glyph d="M271 385 270 434 283 443 329 427H434L465 525H377L305 507L298 516L303 527C343 622 392 666 469 666C497 666 523 661 547 653L586 752C553 762 519 768 475 768C399 768 340 748 294 710C258 679 230 635 209 574L206 566V521L193 512L148 528H106L74 427H111L170 445L179 432L145 378L27 0H150ZM675 385 674 434 687 443 733 427H838L869 525H781L709 507L702 516L707 527C747 622 796 666 873 666C890 666 905 664 921 661L953 761C929 766 906 768 879 768C802 768 744 748 698 710C662 679 634 635 613 574L610 566V521L597 512L552 528H510L478 427H514L574 445L583 432L549 378L431 0H554ZM1029 647H1102L1139 637L1177 756H1022L985 637ZM923 0 1099 557 1061 549H1007L974 557L798 0Z" glyph-name="f_f_i" horiz-adv-x="1089" /><glyph d="M271 385 270 434 283 443 329 427H434L465 525H377L305 507L298 516L303 527C343 622 392 666 469 666C497 666 523 661 547 653L586 752C553 762 519 768 475 768C399 768 340 748 294 710C258 679 230 635 209 574L206 566V521L193 512L148 528H106L74 427H111L170 445L179 432L145 378L27 0H150ZM675 385 674 434 687 443 733 427H838L869 525H781L709 507L702 516L707 527C747 622 796 666 873 666C890 666 905 664 921 661L953 761C929 766 906 768 879 768C802 768 744 748 698 710C662 679 634 635 613 574L610 566V521L597 512L552 528H510L478 427H514L574 445L583 432L549 378L431 0H554ZM923 0 1164 765H1038L797 0Z" glyph-name="f_f_l" horiz-adv-x="1089" /><glyph d="M271 385 270 434 283 443 329 427H434L465 525H377L305 507L298 516L303 527C343 622 392 666 469 666C486 666 501 664 517 661L549 761C525 766 502 768 475 768C398 768 340 748 294 710C258 679 230 635 209 574L206 566V521L193 512L148 528H106L74 427H110L170 445L179 432L145 378L27 0H150ZM625 647H698L735 637L773 756H618L581 637ZM519 0 695 557 657 549H603L570 557L394 0Z" glyph-name="fi" horiz-adv-x="685" unicode="&#64257;" /><glyph d="M1 -13C361 14 528 163 528 327C528 417 468 468 376 468C319 468 264 450 211 415L196 428L254 501L286 586L284 629L298 638L354 621H608L645 736H225L87 361L168 322C221 356 271 372 315 372C367 372 392 349 392 308C392 220 287 130 6 99Z" glyph-name="five" horiz-adv-x="568" unicode="5" /><glyph d="M-84 -169C126 -158 239 -71 239 35C239 89 203 119 148 119C114 119 82 108 49 86L39 96L75 146L92 189L94 220L103 228L154 211H285L308 284H55L-30 55L20 28C54 48 83 57 108 57C137 57 152 45 152 21C152 -33 76 -84 -77 -98Z" glyph-name="five.den" horiz-adv-x="355" /><glyph d="M59 284C268 295 381 381 381 487C381 541 345 571 291 571C257 571 225 560 192 539L181 549L218 598L234 641L236 673L246 680L297 663H427L451 736H198L113 507L163 480C196 500 225 510 251 510C280 510 295 497 295 474C295 419 219 369 66 355Z" glyph-name="five.num" horiz-adv-x="355" /><glyph d="M-34 -13C332 16 493 166 493 328C493 417 435 468 345 468C288 468 236 451 185 416L169 429L227 502L259 586L258 629L271 638L327 621H572L608 736H199L60 362L142 323C192 358 241 372 281 372C333 372 358 348 358 310C358 222 254 132 -29 99Z" glyph-name="five.tab" horiz-adv-x="555" /><glyph d="M271 385 270 434 283 443 329 427H434L465 525H377L305 507L298 516L303 527C343 622 392 666 469 666C486 666 501 664 517 661L549 761C525 766 502 768 475 768C398 768 340 748 294 710C258 679 230 635 209 574L206 566V521L193 512L148 528H106L74 427H110L170 445L179 432L145 378L27 0H150ZM519 0 760 765H634L393 0Z" glyph-name="fl" horiz-adv-x="685" unicode="&#64258;" /><glyph d="M121 268 212 341 418 578 477 669H510L451 527L384 322L383 262L371 253L319 268H224L125 253ZM396 0 431 113 432 173 444 183 497 165H535L570 274H533L469 255L461 267L504 338L629 740H445L36 277L1 165H256L335 183L343 171L306 113L271 0Z" glyph-name="four" horiz-adv-x="612" unicode="4" /><glyph d="M132 -6 104 5H67L-8 -7L-14 6L40 44L133 148L187 235L213 239L176 144L144 50L140 1ZM236 -61 259 11H240L198 -2L192 7L219 52L292 287H173L-67 13L-89 -61H63L110 -48L117 -56L91 -99L73 -157H152L174 -89L173 -55L181 -49L210 -61Z" glyph-name="four.den" horiz-adv-x="355" /><glyph d="M275 446 247 457 209 458 134 445 128 458 183 497 275 600 330 687 356 692 318 597 287 502 283 454ZM379 392 402 464H383L341 451L334 460L362 504L435 739H316L76 465L53 392H206L253 404L260 396L233 354L215 295H295L316 363V398L324 404L353 392Z" glyph-name="four.num" horiz-adv-x="355" /><glyph d="M76 269 166 342 358 568 421 669H454L395 526L328 322L327 262L314 253L262 268H178L80 253ZM340 0 375 113 376 173 388 183 440 165H470L505 274H474L413 255L404 267L448 338L574 740H392L-9 277L-45 165H201L278 183L286 171L250 113L215 0Z" glyph-name="four.tab" horiz-adv-x="555" /><glyph d="M90 336 454 733 456 739H354L63 349ZM-363 -160H-261L30 230L3 243L-361 -154Z" glyph-name="fraction" horiz-adv-x="87" unicode="&#8260;" /><glyph d="M287 162C200 162 160 201 160 264C160 315 184 376 218 409C254 446 306 463 374 463C397 463 417 460 435 456L441 437L403 375L363 242V187L347 170C326 164 307 162 287 162ZM129 -161C287 -161 382 -78 437 96L583 560H509L470 501H458L425 552C406 558 384 562 357 562C281 562 200 538 136 474C76 415 43 325 43 250C43 141 113 74 217 74C226 74 235 75 244 77L321 119L332 111C288 -12 233 -61 137 -61C80 -61 35 -43 -10 -20L-63 -114C-9 -143 52 -161 129 -161Z" glyph-name="g" horiz-adv-x="563" unicode="g" /><glyph d="M287 162C200 162 160 201 160 264C160 315 184 376 218 409C254 446 306 463 374 463C397 463 417 460 435 456L441 437L403 375L363 242V187L347 170C326 164 307 162 287 162ZM129 -161C287 -161 382 -78 437 96L583 560H509L470 501H458L425 552C406 558 384 562 357 562C281 562 200 538 136 474C76 415 43 325 43 250C43 141 113 74 217 74C226 74 235 75 244 77L321 119L332 111C288 -12 233 -61 137 -61C80 -61 35 -43 -10 -20L-63 -114C-9 -143 52 -161 129 -161ZM402 638C508 638 572 691 600 777H527C507 739 473 714 413 714C350 714 327 739 331 777H260C241 692 298 638 402 638Z" glyph-name="gbreve" horiz-adv-x="563" unicode="&#287;" /><glyph d="M287 162C200 162 160 201 160 264C160 315 184 376 218 409C254 446 306 463 374 463C397 463 417 460 435 456L441 437L403 375L363 242V187L347 170C326 164 307 162 287 162ZM129 -161C287 -161 382 -78 437 96L583 560H509L470 501H458L425 552C406 558 384 562 357 562C281 562 200 538 136 474C76 415 43 325 43 250C43 141 113 74 217 74C226 74 235 75 244 77L321 119L332 111C288 -12 233 -61 137 -61C80 -61 35 -43 -10 -20L-63 -114C-9 -143 52 -161 129 -161ZM614 780H516L447 738L414 703H392L372 738L328 780H248L247 776L333 639H444L613 776Z" glyph-name="gcaron" horiz-adv-x="563" unicode="&#487;" /><glyph d="M287 162C200 162 160 201 160 264C160 315 184 376 218 409C254 446 306 463 374 463C397 463 417 460 435 456L441 437L403 375L363 242V187L347 170C326 164 307 162 287 162ZM129 -161C287 -161 382 -78 437 96L583 560H509L470 501H458L425 552C406 558 384 562 357 562C281 562 200 538 136 474C76 415 43 325 43 250C43 141 113 74 217 74C226 74 235 75 244 77L321 119L332 111C288 -12 233 -61 137 -61C80 -61 35 -43 -10 -20L-63 -114C-9 -143 52 -161 129 -161ZM203 639H302L370 680L404 716H426L446 681L490 639H569L571 643L484 780H373L205 643Z" glyph-name="gcircumflex" horiz-adv-x="563" unicode="&#285;" /><glyph d="M287 162C200 162 160 201 160 264C160 315 184 376 218 409C254 446 306 463 374 463C397 463 417 460 435 456L441 437L403 375L363 242V187L347 170C326 164 307 162 287 162ZM129 -161C287 -161 382 -78 437 96L583 560H509L470 501H458L425 552C406 558 384 562 357 562C281 562 200 538 136 474C76 415 43 325 43 250C43 141 113 74 217 74C226 74 235 75 244 77L321 119L332 111C288 -12 233 -61 137 -61C80 -61 35 -43 -10 -20L-63 -114C-9 -143 52 -161 129 -161ZM453 639 492 762H359L320 639Z" glyph-name="gdotaccent" horiz-adv-x="563" unicode="&#289;" /><glyph d="M598 191C598 280 535 331 455 368L459 381C592 417 682 506 682 613C682 700 607 768 476 768C342 768 255 691 206 566V521L193 512L148 528H106L74 427H111L170 445L180 432L145 378L27 0H150L314 524C344 617 392 670 467 670C525 670 558 640 558 595C558 530 507 464 381 421L354 336C427 301 479 255 479 195C479 140 439 93 374 93C343 93 312 102 283 116L236 21C279 3 328 -7 375 -7C508 -7 598 78 598 191Z" glyph-name="germandbls" horiz-adv-x="667" unicode="&#223;" /><glyph d="M331 639H419L421 644L319 765H147L145 760Z" glyph-name="grave" horiz-adv-x="500" unicode="`" /><glyph d="M228 814 229 819 128 936H-64L-66 931L122 814Z" glyph-name="grave.cap" horiz-adv-x="0" /><glyph d="M520 321 553 426 176 635 141 525 369 416 449 397 439 366 347 350 50 241 8 110Z" glyph-name="greater" horiz-adv-x="555" unicode="&gt;" /><glyph d="M355 357 331 282 513 94 562 132 480 264 428 304 434 324 510 355 675 494 642 545ZM79 357 55 282 237 94 287 132 204 264 152 304 158 324 234 355 399 494 366 545Z" glyph-name="guillemotleft" horiz-adv-x="662" unicode="&#171;" /><glyph d="M371 409 347 334 529 146 578 184 496 316 444 356 450 376 526 407 691 546 658 597ZM95 409 71 334 253 146 303 184 220 316 168 356 174 376 250 407 415 546 382 597Z" glyph-name="guillemotleft.cap" horiz-adv-x="662" /><glyph d="M334 282 358 357 176 545 127 506 209 375 261 334 255 315 180 284 14 145 47 94ZM610 282 634 357 452 545 403 506 485 375 537 334 531 315 456 284 290 145 323 94Z" glyph-name="guillemotright" horiz-adv-x="662" unicode="&#187;" /><glyph d="M350 334 374 409 192 597 143 558 225 427 277 386 271 367 196 336 30 197 63 146ZM626 334 650 409 468 597 419 558 501 427 553 386 547 367 472 336 306 197 339 146Z" glyph-name="guillemotright.cap" horiz-adv-x="662" /><glyph d="M79 357 55 282 237 94 287 133 204 264 152 305 158 324 233 355 399 493 366 545Z" glyph-name="guilsinglleft" horiz-adv-x="387" unicode="&#8249;" /><glyph d="M95 409 71 334 253 146 303 185 220 316 168 357 174 376 249 407 415 545 382 597Z" glyph-name="guilsinglleft.cap" horiz-adv-x="387" /><glyph d="M334 281 358 357 176 545 127 506 209 375 261 334 255 315 180 284 14 145 47 94Z" glyph-name="guilsinglright" horiz-adv-x="387" unicode="&#8250;" /><glyph d="M350 333 374 409 192 597 143 558 225 427 277 386 271 367 196 336 30 197 63 146Z" glyph-name="guilsinglright.cap" horiz-adv-x="387" /><glyph d="M225 378 227 434 247 456C265 458 282 459 297 459C374 459 416 435 416 381C416 362 410 336 401 307L304 0H430L521 289C535 335 543 372 543 407C543 509 467 562 372 562C362 562 355 561 346 559L265 512L253 524L292 591L347 765H221L-20 0H106Z" glyph-name="h" horiz-adv-x="577" unicode="h" /><glyph d="M206 328 211 380 232 403C247 405 261 406 274 406C351 406 398 384 398 328C398 308 393 284 384 255L304 0H429L504 237C519 284 527 321 527 356C527 458 451 509 356 509C347 509 339 508 330 505L246 459L235 471L265 526L280 569L279 606L290 615L334 598H453L481 685H374L308 667L300 679L334 726L346 765H221L207 719L208 677L197 668L149 685H110L82 598H116L182 617L190 605L151 545L-20 0H105Z" glyph-name="hbar" horiz-adv-x="577" unicode="&#295;" /><glyph d="M225 378 227 434 247 456C265 458 282 459 297 459C374 459 416 435 416 381C416 362 410 336 401 307L304 0H430L521 289C535 335 543 372 543 407C543 509 467 562 372 562C362 562 355 561 346 559L265 512L253 524L292 591L347 765H221L-20 0H106ZM116 817H215L283 858L317 894H339L359 859L403 817H482L484 821L397 958H286L118 821Z" glyph-name="hcircumflex" horiz-adv-x="577" unicode="&#293;" /><glyph d="M281 639 498 760 500 765H343L205 644L203 639ZM498 639 714 760 717 765H560L421 644L420 639Z" glyph-name="hungarumlaut" horiz-adv-x="500" unicode="&#733;" /><glyph d="M80 814 322 931 324 936H145L1 819L0 814ZM312 814 554 931 556 936H377L233 819L232 814Z" glyph-name="hungarumlaut.cap" horiz-adv-x="0" /><glyph d="M310 256 350 383H74L34 256Z" glyph-name="hyphen" horiz-adv-x="359" unicode="-" /><glyph d="M328 311 368 438H92L52 311Z" glyph-name="hyphen.cap" horiz-adv-x="359" /><glyph d="M221 647H294L331 637L369 756H214L177 637ZM115 0 291 557 253 549H199L166 557L-10 0Z" glyph-name="i" horiz-adv-x="281" unicode="i" /><glyph d="M166 557 -10 0H115L292 557L253 549H200ZM322 639 361 762H228L189 639Z" glyph-name="i.dot" horiz-adv-x="281" /><glyph d="M166 557 -10 0H115L292 557L253 549H200ZM301 639 547 760 549 765H343L199 644L198 639Z" glyph-name="iacute" horiz-adv-x="281" unicode="&#237;" /><glyph d="M166 557 -10 0H115L292 557L253 549H200ZM271 638C377 638 441 691 469 777H396C376 739 342 714 282 714C219 714 196 739 200 777H129C110 692 167 638 271 638Z" glyph-name="ibreve" horiz-adv-x="281" unicode="&#301;" /><glyph d="M166 557 -10 0H115L292 557L253 549H200ZM72 639H171L239 680L273 716H295L315 681L359 639H438L440 643L353 780H242L74 643Z" glyph-name="icircumflex" horiz-adv-x="281" unicode="&#238;" /><glyph d="M166 557 -10 0H115L292 557L253 549H200ZM301 639H423L462 761H340ZM88 639H209L248 761H126Z" glyph-name="idieresis" horiz-adv-x="281" unicode="&#239;" /><glyph d="M166 557 -10 0H115L292 557L253 549H200ZM222 639H310L312 644L210 765H38L36 760Z" glyph-name="igrave" horiz-adv-x="281" unicode="&#236;" /><glyph d="M166 557 -10 0H115L292 557L253 549H200ZM113 654H408L431 728H136Z" glyph-name="imacron" horiz-adv-x="281" unicode="&#299;" /><glyph d="M221 647H294L331 637L369 756H214L177 637ZM115 -157 119 -144C49 -123 29 -112 29 -100C29 -88 44 -71 115 0L292 557L253 549H200L166 557L-9 4L42 2L37 -14C-69 -68 -95 -93 -95 -115C-95 -129 -80 -145 -57 -157Z" glyph-name="iogonek" horiz-adv-x="281" unicode="&#303;" /><glyph d="M166 557 -10 0H115L292 557L253 549H200ZM113 630C163 695 183 712 201 712C216 712 226 704 263 677C307 644 323 634 353 634C397 634 426 662 496 767L445 794C395 730 376 713 358 713C344 713 333 719 296 747C252 780 235 791 206 791C162 791 135 764 63 659Z" glyph-name="itilde" horiz-adv-x="281" unicode="&#297;" /><glyph d="M226 647H299L336 637L373 756H219L182 637ZM-76 -165C63 -83 113 -22 165 143L297 557L257 549H205L171 557L44 155C6 34 -31 -13 -137 -86Z" glyph-name="j" horiz-adv-x="281" unicode="j" /><glyph d="M-76 -165C63 -83 113 -22 165 143L297 557L257 549H205L171 557L44 155C6 34 -31 -13 -137 -86ZM76 639H175L243 680L277 716H299L319 681L363 639H442L444 643L357 780H246L78 643Z" glyph-name="jcircumflex" horiz-adv-x="281" unicode="&#309;" /><glyph d="M106 0 156 163 162 249 179 262H229L235 230L319 0H441L443 7L346 253L314 282L319 297L371 326L600 549L602 557H465L264 351L242 321H195L183 341L246 441L347 765H222L-20 0Z" glyph-name="k" horiz-adv-x="531" unicode="k" /><glyph d="M115 0 356 765H230L-11 0Z" glyph-name="l" horiz-adv-x="281" unicode="l" /><glyph d="M115 0 356 765H230L-11 0ZM360 839 606 960 608 965H402L258 844L257 839Z" glyph-name="lacute" horiz-adv-x="281" unicode="&#314;" /><glyph d="M115 0 356 765H230L-11 0ZM361 591 402 576 570 753 573 765H446Z" glyph-name="lcaron" horiz-adv-x="281" unicode="&#318;" /><glyph d="M474 220 246 331 166 351 176 381 267 397 565 506 606 635 95 425 61 320 438 110Z" glyph-name="less" horiz-adv-x="555" unicode="&lt;" /><glyph d="M161 0 262 320 257 359 273 375 312 369 396 403 438 535 371 507 305 460 291 471 330 534 402 765H279L185 466L189 427L173 413L136 415L50 381L8 250L75 277L143 328L157 317L116 252L37 0Z" glyph-name="lslash" horiz-adv-x="375" unicode="&#322;" /><glyph d="M224 380 227 434 248 457C263 459 276 460 288 460C366 460 411 436 411 383C411 365 405 339 396 311L299 0H424L517 293C530 338 538 374 538 412C538 419 538 426 537 433L560 455C575 458 590 459 604 459C685 459 730 435 730 382C730 363 724 338 716 311L618 0H743L835 293C850 339 857 376 857 411C857 512 784 562 682 562C657 562 630 558 608 551L519 490C491 537 436 562 368 562C350 562 332 560 317 555L243 499H231V560H157L-20 0H105Z" glyph-name="m" horiz-adv-x="890" unicode="m" /><glyph d="M194 654H545L568 728H217Z" glyph-name="macron" horiz-adv-x="500" unicode="&#175;" /><glyph d="M372 826 395 900H-3L-26 826Z" glyph-name="macron.cap" horiz-adv-x="0" /><glyph d="M344 826 367 900H25L2 826Z" glyph-name="macron.capnrw" horiz-adv-x="0" /><glyph d="M-28 654H267L290 728H-5Z" glyph-name="macron.nrw" horiz-adv-x="0" /><glyph d="M133 324 176 460H69L25 324Z" glyph-name="middotcat" horiz-adv-x="129" /><glyph d="M27 353H154L199 496H73Z" glyph-name="middotcat.cap" horiz-adv-x="211" /><glyph d="M518 317 555 429H94L58 317Z" glyph-name="minus" horiz-adv-x="555" unicode="&#8722;" /><glyph d="M484 204 399 332 359 364 364 382 421 400 586 524 530 603 368 477 335 429H319L303 476L220 604L131 541L216 413L255 381L249 364L192 344L26 219L81 139L245 267L279 317H295L313 269L395 140Z" glyph-name="multiply" horiz-adv-x="555" unicode="&#215;" /><glyph d="M225 378 227 434 247 456C265 458 282 459 297 459C374 459 415 435 415 381C415 362 409 336 400 307L304 0H429L520 289C535 335 543 372 543 407C543 508 470 562 365 562C349 562 333 560 319 555L243 499H231V560H157L-20 0H106Z" glyph-name="n" horiz-adv-x="577" unicode="n" /><glyph d="M225 378 227 434 247 456C265 458 282 459 297 459C374 459 415 435 415 381C415 362 409 336 400 307L304 0H429L520 289C535 335 543 372 543 407C543 508 470 562 365 562C349 562 333 560 319 555L243 499H231V560H157L-20 0H106ZM439 639 685 760 687 765H481L337 644L336 639Z" glyph-name="nacute" horiz-adv-x="577" unicode="&#324;" /><glyph d="M225 378 227 434 247 456C265 458 282 459 297 459C374 459 415 435 415 381C415 362 409 336 400 307L304 0H429L520 289C535 335 543 372 543 407C543 508 470 562 365 562C349 562 333 560 319 555L243 499H231V560H157L-20 0H106ZM627 780H529L460 738L427 703H405L385 738L341 780H261L260 776L346 639H457L626 776Z" glyph-name="ncaron" horiz-adv-x="577" unicode="&#328;" /><glyph d="M113 -18C252 25 358 88 430 161C531 263 591 396 592 523C592 662 512 745 380 745C210 745 99 594 99 448C99 345 160 270 252 270C258 270 264 271 271 272L411 319L421 302C330 198 218 134 68 80ZM370 636C434 636 472 596 472 518C472 479 463 425 440 379C401 366 363 361 335 361C260 361 223 395 223 459C223 539 274 636 370 636Z" glyph-name="nine" horiz-adv-x="574" unicode="9" /><glyph d="M-19 -170C70 -140 142 -97 190 -43C246 19 273 96 273 163C273 245 226 292 150 292C49 292 -24 199 -24 109C-24 49 12 9 67 9C70 9 73 9 76 10L163 40L170 27C116 -36 43 -77 -43 -107ZM197 161C197 139 191 109 177 76C155 69 134 64 116 64C74 64 56 84 56 117C56 169 94 223 143 223C177 223 197 201 197 161Z" glyph-name="nine.den" horiz-adv-x="355" /><glyph d="M124 283C213 313 285 355 333 409C388 471 415 548 415 615C415 697 368 745 292 745C192 745 118 651 118 561C118 501 155 462 209 462H218L305 492L312 479C258 416 186 375 100 346ZM339 614C339 592 334 562 320 529C298 521 277 517 259 517C217 517 199 537 199 569C199 621 236 676 285 676C320 676 339 653 339 614Z" glyph-name="nine.num" horiz-adv-x="355" /><glyph d="M91 -18C203 22 302 82 372 153C485 268 539 413 539 536C539 670 465 745 344 745C175 745 66 592 66 441C66 335 121 270 212 270C216 270 222 271 226 271L355 319L365 302C277 202 158 126 42 77ZM330 636C385 636 418 598 418 528C418 486 405 431 384 380C347 368 315 361 288 361C220 361 190 398 190 456C190 542 246 636 330 636Z" glyph-name="nine.tab" horiz-adv-x="555" /><glyph d="M139 72 212 172 223 211 235 217 267 204H474L506 304H348L290 289L284 302L336 349L382 409L393 448L405 454L437 441H550L582 541H521L463 526L458 539L509 586L573 674H475L403 574L391 535L380 529L348 541H140L108 441H266L325 457L330 444L278 397L233 337L221 298L210 292L178 304H64L32 204H93L151 220L157 207L105 159L41 72Z" glyph-name="notequal" horiz-adv-x="555" unicode="&#8800;" /><glyph d="M225 378 227 434 247 456C265 458 282 459 297 459C374 459 415 435 415 381C415 362 409 336 400 307L304 0H429L520 289C535 335 543 372 543 407C543 508 470 562 365 562C349 562 333 560 319 555L243 499H231V560H157L-20 0H106ZM256 630C306 695 326 712 344 712C359 712 369 704 406 677C450 644 466 634 496 634C540 634 569 662 639 767L588 794C538 730 519 713 501 713C487 713 476 719 439 747C395 780 378 791 349 791C305 791 278 764 206 659Z" glyph-name="ntilde" horiz-adv-x="577" unicode="&#241;" /><glyph d="M75 -5 428 741H360L294 599L281 552L271 546L241 556L149 562L124 482L197 478L242 488L248 478L213 431L158 313L146 266L136 260L104 270L22 275L-5 196L63 192L107 202L113 193L78 146L8 -5ZM251 -5 317 136 330 183 340 189 373 179 463 173 488 253 413 257 369 247 363 257 399 304 454 422 466 469 476 475 508 465 591 460 617 540 550 543 505 533 499 543 534 590 604 741H537L184 -5Z" glyph-name="numbersign" horiz-adv-x="556" unicode="#" /><glyph d="M216 -9C295 -9 357 22 412 77C480 145 524 258 524 362C524 490 454 566 335 566C257 566 195 535 140 480C72 412 28 300 28 194C28 66 98 -9 216 -9ZM230 99C174 99 145 140 145 202C145 269 177 366 223 412C252 441 284 458 321 458C378 458 406 417 406 355C406 288 375 190 329 144C300 115 268 99 230 99Z" glyph-name="o" horiz-adv-x="552" unicode="o" /><glyph d="M216 -9C295 -9 357 22 412 77C480 145 524 258 524 362C524 490 454 566 335 566C257 566 195 535 140 480C72 412 28 300 28 194C28 66 98 -9 216 -9ZM230 99C174 99 145 140 145 202C145 269 177 366 223 412C252 441 284 458 321 458C378 458 406 417 406 355C406 288 375 190 329 144C300 115 268 99 230 99ZM425 639 671 760 673 765H467L323 644L322 639Z" glyph-name="oacute" horiz-adv-x="552" unicode="&#243;" /><glyph d="M216 -9C295 -9 357 22 412 77C480 145 524 258 524 362C524 490 454 566 335 566C257 566 195 535 140 480C72 412 28 300 28 194C28 66 98 -9 216 -9ZM230 99C174 99 145 140 145 202C145 269 177 366 223 412C252 441 284 458 321 458C378 458 406 417 406 355C406 288 375 190 329 144C300 115 268 99 230 99ZM401 638C507 638 571 691 599 777H526C506 739 472 714 412 714C349 714 326 739 330 777H259C240 692 297 638 401 638Z" glyph-name="obreve" horiz-adv-x="552" unicode="&#335;" /><glyph d="M216 -9C295 -9 357 22 412 77C480 145 524 258 524 362C524 490 454 566 335 566C257 566 195 535 140 480C72 412 28 300 28 194C28 66 98 -9 216 -9ZM230 99C174 99 145 140 145 202C145 269 177 366 223 412C252 441 284 458 321 458C378 458 406 417 406 355C406 288 375 190 329 144C300 115 268 99 230 99ZM202 639H301L369 680L403 716H425L445 681L489 639H568L570 643L483 780H372L204 643Z" glyph-name="ocircumflex" horiz-adv-x="552" unicode="&#244;" /><glyph d="M216 -9C295 -9 357 22 412 77C480 145 524 258 524 362C524 490 454 566 335 566C257 566 195 535 140 480C72 412 28 300 28 194C28 66 98 -9 216 -9ZM230 99C174 99 145 140 145 202C145 269 177 366 223 412C252 441 284 458 321 458C378 458 406 417 406 355C406 288 375 190 329 144C300 115 268 99 230 99ZM430 639H552L591 761H469ZM217 639H338L377 761H255Z" glyph-name="odieresis" horiz-adv-x="552" unicode="&#246;" /><glyph d="M229 99C175 99 147 139 147 201C147 269 177 365 226 415C253 441 285 458 322 458C376 458 403 417 403 356C403 288 373 191 325 143C299 117 266 99 229 99ZM570 306 512 291 500 310C520 356 545 399 573 427C603 457 638 475 678 475C743 475 767 428 767 361C767 344 765 326 762 306L744 293L696 306ZM404 128H418C444 45 493 -7 603 -7C659 -7 708 4 753 25L735 118C695 103 656 93 613 93C528 93 483 136 478 226L497 242L578 226H840C862 289 870 342 870 381C870 487 811 566 702 566C605 566 528 502 484 429H470C462 504 417 566 324 566C261 566 196 536 143 483C69 408 29 292 29 192C29 69 95 -9 200 -9C289 -9 362 55 404 128Z" glyph-name="oe" horiz-adv-x="889" unicode="&#339;" /><glyph d="M60 -157H232L236 -144C166 -123 146 -112 146 -100C146 -88 161 -71 232 0L187 24C56 -60 22 -91 22 -115C22 -129 37 -145 60 -157Z" glyph-name="ogonek" horiz-adv-x="500" unicode="&#731;" /><glyph d="M216 -9C295 -9 357 22 412 77C480 145 524 258 524 362C524 490 454 566 335 566C257 566 195 535 140 480C72 412 28 300 28 194C28 66 98 -9 216 -9ZM230 99C174 99 145 140 145 202C145 269 177 366 223 412C252 441 284 458 321 458C378 458 406 417 406 355C406 288 375 190 329 144C300 115 268 99 230 99ZM352 639H440L442 644L340 765H168L166 760Z" glyph-name="ograve" horiz-adv-x="552" unicode="&#242;" /><glyph d="M413 77C480 145 524 259 524 352C524 414 500 461 451 488L460 504C473 503 485 503 496 503C579 503 626 524 722 704L646 738C555 576 520 557 450 557H344C264 557 195 527 138 470C70 402 28 291 28 194C28 71 95 -9 214 -9C293 -9 357 21 413 77ZM230 99C174 99 145 140 145 201C145 268 177 362 222 407C252 437 284 455 321 455C374 455 406 415 406 349C406 281 372 188 329 146C301 117 267 99 230 99Z" glyph-name="ohorn" horiz-adv-x="556" unicode="&#417;" /><glyph d="M216 -9C295 -9 357 22 412 77C480 145 524 258 524 362C524 490 454 566 335 566C257 566 195 535 140 480C72 412 28 300 28 194C28 66 98 -9 216 -9ZM230 99C174 99 145 140 145 202C145 269 177 366 223 412C252 441 284 458 321 458C378 458 406 417 406 355C406 288 375 190 329 144C300 115 268 99 230 99ZM302 639 519 760 521 765H364L226 644L224 639ZM519 639 735 760 738 765H581L442 644L441 639Z" glyph-name="ohungarumlaut" horiz-adv-x="552" unicode="&#337;" /><glyph d="M216 -9C295 -9 357 22 412 77C480 145 524 258 524 362C524 490 454 566 335 566C257 566 195 535 140 480C72 412 28 300 28 194C28 66 98 -9 216 -9ZM230 99C174 99 145 140 145 202C145 269 177 366 223 412C252 441 284 458 321 458C378 458 406 417 406 355C406 288 375 190 329 144C300 115 268 99 230 99ZM215 654H566L589 728H238Z" glyph-name="omacron" horiz-adv-x="552" unicode="&#333;" /><glyph d="M232 0 466 741H363L121 639L145 543L305 608L315 595L266 524L101 0Z" glyph-name="one" horiz-adv-x="428" unicode="1" /><glyph d="M137 -35 238 287H177L22 238L33 174L132 207L140 195L102 141L44 -46V-89L35 -96L-4 -82H-69L-93 -157H187L211 -82H167L112 -97L105 -87Z" glyph-name="one.den" horiz-adv-x="355" /><glyph d="M280 418 380 739H320L165 690L175 627L274 659L283 647L245 594L187 406V363L178 356L138 370H74L50 295H330L354 370H309L255 355L248 365Z" glyph-name="one.num" horiz-adv-x="355" /><glyph d="M407 0 444 116H351L279 100L270 112L309 178L486 741H387L160 670L155 564L327 611L336 598L285 526L173 169L171 109L159 100L107 116H-16L-53 0Z" glyph-name="one.tab" horiz-adv-x="555" /><glyph d="M280 418 380 739H320L165 690L175 627L274 659L283 647L245 594L187 406V363L178 356L138 370H74L50 295H330L354 370H309L255 355L248 365ZM463 336 827 733 829 739H727L436 349ZM10 -160H112L403 230L376 243L12 -154ZM663 -157 688 -77H597L484 -109L479 -89L606 9C705 76 750 132 749 193C748 254 701 289 631 289C571 289 518 263 477 224L516 162C548 193 583 212 613 212C642 212 658 198 658 175C658 144 629 110 573 66L382 -92L390 -157Z" glyph-name="onehalf" horiz-adv-x="826" unicode="&#189;" /><glyph d="M280 418 380 739H320L165 690L175 627L274 659L283 647L245 594L187 406V363L178 356L138 370H74L50 295H330L354 370H309L255 355L248 365ZM463 336 827 733 829 739H727L436 349ZM10 -160H112L403 230L376 243L12 -154ZM587 -6 559 5H522L447 -7L441 6L495 44L588 148L642 235L668 239L631 144L599 50L595 1ZM691 -61 714 11H695L653 -2L647 7L674 52L747 287H628L388 13L366 -61H518L565 -48L572 -56L546 -99L528 -157H607L629 -89L628 -55L636 -49L665 -61Z" glyph-name="onequarter" horiz-adv-x="809" unicode="&#188;" /><glyph d="M280 418 380 739H320L165 690L175 627L274 659L283 647L245 594L187 406V363L178 356L138 370H74L50 295H330L354 370H309L255 355L248 365ZM463 336 827 733 829 739H727L436 349ZM10 -160H112L403 230L376 243L12 -154ZM373 -163C398 -163 421 -162 442 -161C611 -150 701 -94 701 -21C701 26 657 56 580 66L582 76C700 102 757 145 757 206C757 255 713 289 632 289C584 289 535 276 489 254L507 191C549 211 583 220 614 220C648 220 667 208 667 187C667 153 626 125 507 98L497 37C581 31 611 14 611 -14C611 -52 562 -84 443 -91L393 -94Z" glyph-name="onethird" horiz-adv-x="829" unicode="&#8531;" /><glyph d="M298 403C243 403 214 423 214 457C214 473 220 487 232 499C257 524 312 540 406 540C420 540 439 539 456 537L462 527L438 491L430 463L431 444L425 433C385 415 337 403 298 403ZM344 349 416 401 423 344H495L505 429L552 580C560 605 564 623 564 639C564 707 508 742 404 742C350 742 298 733 252 718L261 650C301 663 347 671 388 671C455 671 480 653 480 616C480 604 477 590 472 574L460 566L422 582C401 584 376 586 361 586C265 586 200 564 165 529C143 507 133 480 133 449C133 378 195 340 279 340C302 340 322 343 344 349ZM37 171H443L461 226H54Z" glyph-name="ordfeminine" horiz-adv-x="555" unicode="&#170;" /><glyph d="M325 337C466 337 566 460 566 581C566 679 498 744 394 744C253 744 153 621 153 500C153 402 221 337 325 337ZM332 411C277 411 240 446 240 505C240 586 305 670 387 670C442 670 479 636 479 576C479 495 414 411 332 411ZM441 171 458 226H63L45 171Z" glyph-name="ordmasculine" horiz-adv-x="556" unicode="&#186;" /><glyph d="M116 146C122 263 160 361 217 416C250 449 293 467 340 467C363 467 384 462 405 454L399 434L342 394L174 209L136 145H116ZM211 89C188 89 165 94 144 103L150 122L208 164L376 350L414 412H434V410C426 301 388 196 332 141C299 108 258 89 211 89ZM-13 -70 54 0 92 61H108L112 17C141 1 175 -9 214 -9C294 -9 356 22 412 77C483 149 523 264 523 363C523 392 519 422 511 448L478 456L483 472L538 504L657 623L658 626H565L498 557L459 496H444L439 540C410 557 377 566 337 566C258 566 195 536 139 479C70 410 27 296 27 193C27 165 31 134 40 109L73 100L68 84L14 53L-105 -67L-106 -70Z" glyph-name="oslash" horiz-adv-x="552" unicode="&#248;" /><glyph d="M116 146C122 263 160 361 217 416C250 449 293 467 340 467C363 467 384 462 405 454L399 434L342 394L174 209L136 145H116ZM211 89C188 89 165 94 144 103L150 122L208 164L376 350L414 412H434V410C426 301 388 196 332 141C299 108 258 89 211 89ZM-13 -70 54 0 92 61H108L112 17C141 1 175 -9 214 -9C294 -9 356 22 412 77C483 149 523 264 523 363C523 392 519 422 511 448L478 456L483 472L538 504L657 623L658 626H565L498 557L459 496H444L439 540C410 557 377 566 337 566C258 566 195 536 139 479C70 410 27 296 27 193C27 165 31 134 40 109L73 100L68 84L14 53L-105 -67L-106 -70ZM426 639 672 760 674 765H468L324 644L323 639Z" glyph-name="oslashacute" horiz-adv-x="552" unicode="&#511;" /><glyph d="M216 -9C295 -9 357 22 412 77C480 145 524 258 524 362C524 490 454 566 335 566C257 566 195 535 140 480C72 412 28 300 28 194C28 66 98 -9 216 -9ZM230 99C174 99 145 140 145 202C145 269 177 366 223 412C252 441 284 458 321 458C378 458 406 417 406 355C406 288 375 190 329 144C300 115 268 99 230 99ZM243 630C293 695 313 712 331 712C346 712 356 704 393 677C437 644 453 634 483 634C527 634 556 662 626 767L575 794C525 730 506 713 488 713C474 713 463 719 426 747C382 780 365 791 336 791C292 791 265 764 193 659Z" glyph-name="otilde" horiz-adv-x="552" unicode="&#245;" /><glyph d="M177 106C163 106 148 107 133 110L126 133L163 193L221 382L223 438L245 460C265 463 282 465 298 465C377 465 413 425 413 354C413 289 385 209 343 166C304 127 249 106 177 106ZM56 -157 99 -23 104 46 123 56 163 15C176 10 189 7 207 7C285 7 368 41 427 101C493 166 531 270 531 366C531 488 467 562 355 562C345 562 334 561 324 559L242 498H230V560H157L-70 -157Z" glyph-name="p" horiz-adv-x="558" unicode="p" /><glyph d="M353 -155 635 736H435C212 736 93 566 93 406C93 292 161 224 273 224H280L411 635L413 685L423 692L459 681H497L552 693L559 683L524 624L278 -155Z" glyph-name="paragraph" horiz-adv-x="575" unicode="&#182;" /><glyph d="M267 -73C199 5 166 98 166 205C166 399 281 572 504 693L470 763C203 649 54 425 54 204C54 82 102 -40 207 -126Z" glyph-name="parenleft" horiz-adv-x="416" unicode="(" /><glyph d="M282 -28C214 50 181 143 181 250C181 444 296 617 519 738L485 808C218 694 69 470 69 249C69 127 117 5 222 -81Z" glyph-name="parenleft.cap" horiz-adv-x="416" /><glyph d="M172 710C241 632 273 539 273 432C273 239 158 66 -65 -55L-31 -126C237 -12 385 213 385 434C385 555 338 678 232 764Z" glyph-name="parenright" horiz-adv-x="416" unicode=")" /><glyph d="M187 755C256 677 288 584 288 477C288 284 173 111 -50 -10L-16 -81C252 33 400 258 400 479C400 600 353 723 247 809Z" glyph-name="parenright.cap" horiz-adv-x="416" /><glyph d="M743 705 695 749 394 403 413 385ZM297 394C357 443 395 545 395 622C395 696 357 742 289 742C255 742 226 731 200 711C139 663 100 560 100 482C100 408 139 362 207 362C241 362 271 373 297 394ZM259 434C245 422 229 415 212 416C180 416 162 437 162 480C162 534 192 632 236 669C250 681 266 688 284 688C315 688 333 667 333 624C333 570 303 472 259 434ZM559 27C619 76 656 177 656 254C656 328 618 374 550 374C517 374 487 363 462 343C401 295 362 192 362 114C362 41 400 -6 468 -6C503 -6 533 5 559 27ZM364 333 345 351 15 32 63 -12ZM521 67C507 55 491 48 473 48C442 48 424 70 424 112C424 166 453 264 498 302C512 314 527 321 545 321C577 320 595 299 595 256C595 203 565 105 521 67Z" glyph-name="percent" horiz-adv-x="702" unicode="%" /><glyph d="M109 0 161 164H14L-37 0Z" glyph-name="period" horiz-adv-x="248" unicode="." /><glyph d="M101 0 153 164H6L-45 0Z" glyph-name="period.tab" horiz-adv-x="278" /><glyph d="M525 320 559 426H436L371 408L363 420L398 476L444 620H328L280 471V417L268 408L223 426H88L54 320H177L242 338L250 326L216 270L169 126H285L333 275V329L345 338L390 320Z" glyph-name="plus" horiz-adv-x="555" unicode="+" /><glyph d="M539 377 573 482H455L388 464L380 476L415 530L456 661H342L300 529L298 472L287 464L244 482H113L79 377H196L263 395L271 383L238 330L195 199H309L352 330L353 387L364 395L407 377ZM417 0 451 105H-4L-38 0Z" glyph-name="plusminus" horiz-adv-x="555" unicode="&#177;" /><glyph d="M352 -157 578 560H503L464 500H452L419 552C401 559 384 562 363 562C274 562 195 530 133 468C67 401 29 297 29 199C29 81 98 7 197 7C203 7 209 7 214 8L299 60L313 47L267 -32L228 -157ZM263 105C187 105 147 142 147 212C147 278 175 359 219 402C256 439 309 461 373 461C390 461 409 459 428 455L434 434L397 374L339 184L338 132L320 113C299 107 281 105 263 105Z" glyph-name="q" horiz-adv-x="558" unicode="q" /><glyph d="M190 250H256L313 352C507 410 596 491 596 596C596 690 516 744 395 744C301 744 222 717 143 667L190 567C255 608 316 630 374 630C425 630 459 610 459 572C459 519 405 468 223 414ZM228 0 274 147H125L79 0Z" glyph-name="question" horiz-adv-x="544" unicode="?" /><glyph d="M373 736 326 589H475L521 736ZM410 486H345L288 384C93 326 4 244 4 140C4 46 84 -9 205 -9C299 -9 378 19 458 69L411 168C345 127 284 105 226 105C176 105 141 125 141 164C141 217 195 267 377 322Z" glyph-name="questiondown" horiz-adv-x="544" unicode="&#191;" /><glyph d="M399 729 401 738H243L83 420L146 402ZM639 729 642 738H484L322 420L386 402Z" glyph-name="quotedbl" horiz-adv-x="519" unicode="&quot;" /><glyph d="M388 734 391 744H233L71 426L132 408ZM634 734 637 744H479L316 426L378 408Z" glyph-name="quotedbl.tab" horiz-adv-x="555" /><glyph d="M201 171 204 181H46L-112 -131L-50 -148ZM442 171 444 181H287L128 -131L190 -148Z" glyph-name="quotedblbase" horiz-adv-x="499" unicode="&#8222;" /><glyph d="M308 444 305 434H464L622 752L559 770ZM69 444 66 434H225L385 752L321 770Z" glyph-name="quotedblleft" horiz-adv-x="505" unicode="&#8220;" /><glyph d="M399 755 402 765H243L84 447L147 429ZM637 755 640 765H482L322 447L385 429Z" glyph-name="quotedblright" horiz-adv-x="505" unicode="&#8221;" /><glyph d="M70 445 68 435H234L393 752L324 771Z" glyph-name="quoteleft" horiz-adv-x="283" unicode="&#8216;" /><glyph d="M412 755 415 765H249L89 448L159 429Z" glyph-name="quoteright" horiz-adv-x="283" unicode="&#8217;" /><glyph d="M213 171 216 181H51L-107 -130L-38 -148Z" glyph-name="quotesinglbase" horiz-adv-x="278" unicode="&#8218;" /><glyph d="M404 729 407 738H241L81 421L150 402Z" glyph-name="quotesingle" horiz-adv-x="283" unicode="'" /><glyph d="M375 734 378 744H209L52 427L123 408Z" glyph-name="quotesingle.tab" horiz-adv-x="278" /><glyph d="M106 0 217 351V398L243 417C308 431 368 438 422 440L462 567C414 566 371 559 324 543L232 461H220L226 560H157L-20 0Z" glyph-name="r" horiz-adv-x="395" unicode="r" /><glyph d="M106 0 217 351V398L243 417C308 431 368 438 422 440L462 567C414 566 371 559 324 543L232 461H220L226 560H157L-20 0ZM370 639 616 760 618 765H412L268 644L267 639Z" glyph-name="racute" horiz-adv-x="395" unicode="&#341;" /><glyph d="M106 0 217 351V398L243 417C308 431 368 438 422 440L462 567C414 566 371 559 324 543L232 461H220L226 560H157L-20 0ZM558 780H460L391 738L358 703H336L316 738L272 780H192L191 776L277 639H388L557 776Z" glyph-name="rcaron" horiz-adv-x="395" unicode="&#345;" /><glyph d="M359 125C569 125 719 323 719 511C719 648 635 769 471 769C261 769 111 568 111 379C111 245 194 125 359 125ZM360 154C214 154 144 261 144 380C144 551 283 739 469 739C614 739 686 631 686 510C686 341 546 154 360 154ZM349 459 370 490 387 545V574L393 579H408C480 579 507 564 507 533C507 488 455 454 354 452ZM335 376 336 405 343 411H355C393 411 406 402 418 377L460 285H537L538 289L497 365C480 398 464 412 433 423L434 428C519 444 584 486 584 548C584 595 544 631 460 631H346L237 285H307Z" glyph-name="registered" horiz-adv-x="724" unicode="&#174;" /><glyph d="M381 633C466 633 519 683 519 743C519 792 474 831 406 831C324 831 269 782 269 722C269 672 313 633 381 633ZM384 669C336 669 311 694 311 725C311 768 348 796 404 796C452 796 477 770 477 739C477 697 440 669 384 669Z" glyph-name="ring" horiz-adv-x="500" unicode="&#730;" /><glyph d="M186 812C279 812 336 856 337 918C339 963 294 1006 213 1006C121 1006 63 963 62 900C60 855 104 812 186 812ZM190 847C129 847 103 873 103 902C104 943 143 971 209 971C269 971 296 945 295 916C294 875 256 847 190 847Z" glyph-name="ring.cap" horiz-adv-x="0" /><glyph d="M131 633C214 633 264 681 268 736C271 769 251 798 218 814L450 928L451 933H251L133 826C66 818 22 775 19 726C15 673 63 633 131 633ZM135 669C86 669 58 694 60 727C63 764 97 792 152 792C201 792 229 767 226 734C224 697 190 669 135 669Z" glyph-name="ringacute" horiz-adv-x="0" /><glyph d="M212 -8C352 -8 435 68 435 168C435 235 395 279 296 324C233 356 209 372 209 405C209 440 240 468 299 468C351 468 403 447 451 416L513 502C455 538 387 564 309 564C180 564 95 497 95 395C95 323 140 280 235 239C295 208 320 191 320 156C320 117 286 88 221 88C153 88 86 118 37 154L-27 68C34 25 114 -8 212 -8Z" glyph-name="s" horiz-adv-x="517" unicode="s" /><glyph d="M212 -8C352 -8 435 68 435 168C435 235 395 279 296 324C233 356 209 372 209 405C209 440 240 468 299 468C351 468 403 447 451 416L513 502C455 538 387 564 309 564C180 564 95 497 95 395C95 323 140 280 235 239C295 208 320 191 320 156C320 117 286 88 221 88C153 88 86 118 37 154L-27 68C34 25 114 -8 212 -8ZM401 639 647 760 649 765H443L299 644L298 639Z" glyph-name="sacute" horiz-adv-x="517" unicode="&#347;" /><glyph d="M212 -8C352 -8 435 68 435 168C435 235 395 279 296 324C233 356 209 372 209 405C209 440 240 468 299 468C351 468 403 447 451 416L513 502C455 538 387 564 309 564C180 564 95 497 95 395C95 323 140 280 235 239C295 208 320 191 320 156C320 117 286 88 221 88C153 88 86 118 37 154L-27 68C34 25 114 -8 212 -8ZM589 780H491L422 738L389 703H367L347 738L303 780H223L222 776L308 639H419L588 776Z" glyph-name="scaron" horiz-adv-x="517" unicode="&#353;" /><glyph d="M212 -8C352 -8 435 68 435 168C435 235 395 279 296 324C233 356 209 372 209 405C209 440 240 468 299 468C351 468 403 447 451 416L513 502C455 538 387 564 309 564C180 564 95 497 95 395C95 323 140 280 235 239C295 208 320 191 320 156C320 117 286 88 221 88C153 88 86 118 37 154L-27 68C34 25 114 -8 212 -8ZM178 639H277L345 680L379 716H401L421 681L465 639H544L546 643L459 780H348L180 643Z" glyph-name="scircumflex" horiz-adv-x="517" unicode="&#349;" /><glyph d="M312 147 282 181C176 232 149 261 149 298C149 356 203 404 306 452H321L350 418C457 367 484 337 484 301C484 242 430 195 327 147ZM180 -164C330 -164 425 -88 425 7C425 35 417 61 403 80L365 98L369 112C527 151 597 236 597 321C597 384 559 430 444 490C351 541 324 566 324 598C324 640 364 672 447 672C510 672 566 654 616 626L664 710C607 742 534 763 453 763C301 763 209 687 209 592C209 565 216 538 231 518L269 500L265 486C109 448 36 368 36 279C36 215 74 169 188 110C281 59 309 34 309 0C309 -43 268 -73 188 -73C120 -73 62 -55 11 -24L-38 -107C22 -142 98 -164 180 -164Z" glyph-name="section" horiz-adv-x="620" unicode="&#167;" /><glyph d="M246 376 298 540H153L101 376ZM206 172 208 181H42L-133 -126L-56 -144Z" glyph-name="semicolon" horiz-adv-x="282" unicode=";" /><glyph d="M574 585 618 736H163L124 613H357L472 639L484 619L373 524L27 51L132 -14Z" glyph-name="seven" horiz-adv-x="521" unicode="7" /><glyph d="M287 182 318 284H28L3 205H149L223 222L230 205L162 148L-49 -130L19 -170Z" glyph-name="seven.den" horiz-adv-x="355" /><glyph d="M429 635 461 736H171L145 657H291L365 674L373 658L305 600L94 322L162 283Z" glyph-name="seven.num" horiz-adv-x="355" /><glyph d="M570 584 617 736H156L117 613H352L469 639L481 619L368 524L16 54L118 -14Z" glyph-name="seven.tab" horiz-adv-x="555" /><glyph d="M250 -9C421 -9 532 142 532 287C532 390 470 466 378 466C372 466 365 465 359 464L220 417L210 434C301 538 411 603 559 656L514 754C386 714 278 654 201 575C100 473 40 340 39 213C38 74 118 -9 250 -9ZM260 100C197 100 158 140 158 218C158 257 168 311 190 357C230 370 267 375 295 375C370 375 408 341 408 277C408 196 357 100 260 100Z" glyph-name="six" horiz-adv-x="574" unicode="6" /><glyph d="M69 -165C166 -165 243 -73 243 18C243 78 206 118 152 118C149 118 146 118 143 117L56 87L49 100C103 163 174 204 259 234L235 297C149 268 79 227 31 175C-26 112 -54 33 -54 -36C-54 -118 -7 -165 69 -165ZM22 -34C22 -12 27 18 41 51C64 58 84 63 102 63C144 63 162 43 162 10C162 -42 124 -96 76 -96C41 -96 22 -74 22 -34Z" glyph-name="six.den" horiz-adv-x="355" /><glyph d="M211 287C308 287 385 379 385 470C385 531 349 570 294 570H285L198 539L191 552C245 615 317 656 402 686L378 749C292 720 222 680 174 628C116 564 88 485 88 417C88 335 135 287 211 287ZM164 418C164 440 170 470 184 503C206 511 227 515 245 515C287 515 305 495 305 462C305 410 267 356 219 356C184 356 164 378 164 418Z" glyph-name="six.num" horiz-adv-x="355" /><glyph d="M211 -9C380 -9 489 144 489 295C489 401 434 466 344 466C339 466 334 465 329 465L200 417L190 434C279 534 396 610 513 659L463 754C350 713 252 653 181 581C69 466 16 322 16 200C16 66 91 -9 211 -9ZM137 208C137 250 150 305 172 356C208 368 240 375 267 375C335 375 366 338 366 280C366 195 309 100 226 100C170 100 137 138 137 208Z" glyph-name="six.tab" horiz-adv-x="555" /><glyph d="M545 770H434L-165 -137H-54Z" glyph-name="slash" horiz-adv-x="395" unicode="/" /><glyph d="M570 807H459L-140 -100H-29Z" glyph-name="slash.cap" horiz-adv-x="395" /><glyph d="M-37 -100 685 807H567L-154 -100Z" glyph-name="slash.tab" horiz-adv-x="555" /><glyph glyph-name="space" horiz-adv-x="278" unicode=" " /><glyph d="M45 0H483L519 112H245L160 92L151 108L207 172L263 271L268 316L279 324L318 310H490L522 412H399L322 394L314 408L361 454L379 489C406 534 435 569 472 593C502 613 538 623 582 623C603 623 622 620 635 617L676 734C659 738 632 742 600 742C519 742 457 723 407 690C350 654 307 601 271 535L223 448L218 404L207 396L171 412H97L64 310H102L165 327L172 313L117 256L22 81Z" glyph-name="sterling" horiz-adv-x="619" unicode="&#163;" /><glyph d="M406 0 442 112H203L117 92L108 108L165 171L220 270L226 316L238 324L277 310H416L449 412H359L280 393L272 408L321 455L345 496C363 527 379 550 398 569C433 604 476 623 533 623C547 623 560 622 574 619L614 736C590 740 571 742 548 742C449 742 375 708 316 649C286 620 260 583 235 537L183 447L178 404L166 396L131 412H51L18 310H60L124 327L131 313L76 256L-20 81L2 0Z" glyph-name="sterling.tab" horiz-adv-x="555" /><glyph d="M303 -3 337 104C329 103 315 102 306 102C238 102 206 124 206 176C206 193 209 215 217 239L271 412V460L282 469L328 453H445L477 554H366L307 537L297 550L332 605L371 729H247L206 595V547L194 539L151 554H112L79 453H114L170 470L179 458L144 402L96 246C84 208 78 176 78 146C78 47 146 -6 268 -6C282 -6 292 -5 303 -3Z" glyph-name="t" horiz-adv-x="434" unicode="t" /><glyph d="M303 -3 337 104C329 103 317 102 307 102C245 102 203 117 203 186C203 206 206 229 214 258L215 263L225 270L268 256H366L390 332H303L235 313L227 325L259 373L273 416L271 462L283 471L328 453H445L477 554H366L307 537L297 550L332 604L371 729H247L206 595V547L194 539L149 554H112L80 453H107L172 472L181 460L146 406L132 363L135 322L124 313L81 332H41L17 256H46L112 274L120 261L88 216C80 186 78 165 78 146C78 47 146 -6 268 -6C282 -6 292 -5 303 -3Z" glyph-name="tbar" horiz-adv-x="434" unicode="&#359;" /><glyph d="M303 -3 337 104C329 103 315 102 306 102C238 102 206 124 206 176C206 193 209 215 217 239L271 412V460L282 469L328 453H445L477 554H366L307 537L297 550L332 605L371 729H247L206 595V547L194 539L151 554H112L79 453H114L170 470L179 458L144 402L96 246C84 208 78 176 78 146C78 47 146 -6 268 -6C282 -6 292 -5 303 -3ZM414 644 455 629 623 806 626 818H499Z" glyph-name="tcaron" horiz-adv-x="434" unicode="&#357;" /><glyph d="M175 105C161 105 147 106 134 109L126 132L163 192L221 381L223 437L243 458C262 461 279 463 293 463C374 463 413 425 413 355C413 285 383 205 343 165C304 126 249 105 175 105ZM56 -157 99 -23 104 46 122 56 163 15C176 10 190 7 207 7C285 7 368 41 427 101C493 166 531 271 531 367C531 486 464 562 367 562C359 562 353 562 344 560L265 513L251 527L295 602L346 765H222L-69 -157Z" glyph-name="thorn" horiz-adv-x="558" unicode="&#254;" /><glyph d="M-34 -8C338 0 485 105 485 229C485 309 411 360 296 374L297 389C488 436 573 518 573 607C573 687 508 743 380 743C303 743 230 725 146 683L177 583C244 616 300 634 355 634C408 634 438 613 438 577C438 525 372 473 173 421L162 330C291 320 350 297 350 241C350 170 264 110 -8 100Z" glyph-name="three" horiz-adv-x="544" unicode="3" /><glyph d="M-102 -163C-77 -163 -54 -162 -33 -161C136 -150 226 -94 226 -21C226 26 182 56 105 66L107 76C225 102 282 145 282 206C282 255 238 289 157 289C109 289 60 276 14 254L32 191C74 211 108 220 139 220C173 220 192 208 192 187C192 153 151 125 32 98L22 37C106 31 136 14 136 -14C136 -52 87 -84 -32 -91L-82 -94Z" glyph-name="three.den" horiz-adv-x="355" /><glyph d="M40 289C65 289 89 290 110 292C279 302 368 358 368 432C368 479 325 508 248 518L250 528C367 555 424 597 424 658C424 707 380 741 300 741C252 741 203 729 157 706L174 644C216 663 251 673 282 673C315 673 334 661 334 639C334 606 294 578 174 550L165 489C248 483 279 467 279 438C279 401 229 368 111 361C95 360 79 359 61 359Z" glyph-name="three.num" horiz-adv-x="355" /><glyph d="M-59 -8C320 0 470 103 470 229C470 309 394 361 274 374L276 389C470 436 557 518 557 607C557 687 489 743 358 743C280 743 207 726 122 684L153 584C221 616 279 634 332 634C386 634 415 613 415 577C415 524 354 475 150 421L138 330C269 320 329 297 329 240C329 170 242 110 -33 100Z" glyph-name="three.tab" horiz-adv-x="555" /><glyph d="M40 289C65 289 89 290 110 292C279 302 368 358 368 432C368 479 325 508 248 518L250 528C367 555 424 597 424 658C424 707 380 741 300 741C252 741 203 729 157 706L174 644C216 663 251 673 282 673C315 673 334 661 334 639C334 606 294 578 174 550L165 489C248 483 279 467 279 438C279 401 229 368 111 361C95 360 79 359 61 359ZM445 336 809 733 811 739H709L418 349ZM-8 -160H94L385 230L358 243L-6 -154ZM568 -6 540 5H503L428 -7L422 6L476 44L569 148L623 235L649 239L612 144L580 50L576 1ZM672 -61 695 11H676L634 -2L628 7L655 52L728 287H609L369 13L347 -61H499L546 -48L553 -56L527 -99L509 -157H588L610 -89L609 -55L617 -49L646 -61Z" glyph-name="threequarters" horiz-adv-x="791" unicode="&#190;" /><glyph d="M222 630C272 695 292 712 310 712C325 712 335 704 372 677C416 644 432 634 462 634C506 634 535 662 605 767L554 794C504 730 485 713 467 713C453 713 442 719 405 747C361 780 344 791 315 791C271 791 244 764 172 659Z" glyph-name="tilde" horiz-adv-x="500" unicode="&#732;" /><glyph d="M13 803C66 871 87 888 106 888C122 888 132 882 173 854C220 821 243 811 273 811C313 811 343 830 424 942L374 972C321 906 301 890 281 890C266 890 256 895 215 923C167 955 146 966 117 966C74 966 41 942 -38 833Z" glyph-name="tilde.cap" horiz-adv-x="0" /><glyph d="M20 804C73 872 91 888 110 888C125 888 134 882 174 854C221 821 241 811 270 811C309 811 339 833 417 942L369 972C316 904 297 889 278 889C264 889 255 894 215 922C168 955 149 966 120 966C78 966 49 944 -31 834Z" glyph-name="tilde.capnrw" horiz-adv-x="0" /><glyph d="M-15 628C34 696 49 711 66 711C79 711 86 705 121 677C161 645 176 633 203 633C241 633 272 663 340 767L292 795C243 729 228 713 210 713C197 713 189 718 155 747C115 780 102 791 75 791C35 791 6 761 -63 656Z" glyph-name="tilde.nrw" horiz-adv-x="0" /><glyph d="M539 671 560 736H189L168 671H275L324 687L333 674L305 628L206 319H276L377 633L378 676L392 687L426 671ZM961 319 1075 736H976L795 465L755 376H736L750 465L742 736H650L496 319H558L646 569L678 667H698L690 582L696 315H759L935 582L979 667H1000L969 569L898 319Z" glyph-name="trademark" horiz-adv-x="1019" unicode="&#8482;" /><glyph d="M849 726V736H133V726L480 -23H502Z" glyph-name="triagdn" horiz-adv-x="873" unicode="&#9660;" /><glyph d="M500 736H55L265 -23H290Z" glyph-name="triagdn.tab" horiz-adv-x="555" /><glyph d="M795 0V10L448 759H427L80 10V0Z" glyph-name="triagup" horiz-adv-x="873" unicode="&#9650;" /><glyph d="M500 0 290 759H265L55 0Z" glyph-name="triagup.tab" horiz-adv-x="555" /><glyph d="M452 0 490 122H302L158 85L148 109L356 278C519 392 589 472 589 577C589 682 510 743 397 743C304 743 219 704 148 640L208 544C267 593 320 621 372 621C420 621 451 596 451 552C451 503 406 453 304 369L-8 99L5 0Z" glyph-name="two" horiz-adv-x="585" unicode="2" /><glyph d="M192 -157 217 -77H126L13 -109L8 -89L135 9C234 76 279 132 278 193C277 254 230 289 160 289C100 289 47 263 6 224L45 162C77 193 112 212 142 212C171 212 187 198 187 175C187 144 158 110 102 66L-89 -92L-81 -157Z" glyph-name="two.den" horiz-adv-x="355" /><glyph d="M334 295 360 376H269L156 344L150 363L278 462C377 529 421 584 420 645C420 706 372 742 302 742C242 742 190 715 148 676L188 615C220 645 254 664 284 664C314 664 329 651 330 627C330 596 300 563 244 518L53 360L61 295Z" glyph-name="two.num" horiz-adv-x="355" /><glyph d="M406 0 445 122H264L121 85L112 109L318 280C475 390 542 472 542 578C542 681 467 743 353 743C260 743 179 702 109 640L169 543C232 595 279 621 330 621C375 621 405 596 405 554C405 501 362 450 266 371L-46 99L-33 0Z" glyph-name="two.tab" horiz-adv-x="555" /><glyph d="M334 295 360 376H269L156 344L150 363L278 462C377 529 421 584 420 645C420 706 372 742 302 742C242 742 190 715 148 676L188 615C220 645 254 664 284 664C314 664 329 651 330 627C330 596 300 563 244 518L53 360L61 295ZM461 336 825 733 827 739H725L434 349ZM8 -160H110L401 230L374 243L10 -154ZM371 -163C396 -163 419 -162 440 -161C609 -150 699 -94 699 -21C699 26 655 56 578 66L580 76C698 102 755 145 755 206C755 255 711 289 630 289C582 289 533 276 487 254L505 191C547 211 581 220 612 220C646 220 665 208 665 187C665 153 624 125 505 98L495 37C579 31 609 14 609 -14C609 -52 560 -84 441 -91L391 -94Z" glyph-name="twothirds" horiz-adv-x="828" unicode="&#8532;" /><glyph d="M258 1 334 58H346L345 -3H419L597 557H471L352 179L350 123L330 101C312 98 295 97 280 97C203 97 161 122 161 175C161 195 167 221 176 250L273 557H147L56 268C42 222 34 185 34 150C34 49 107 -6 211 -6C228 -6 244 -3 258 1Z" glyph-name="u" horiz-adv-x="577" unicode="u" /><glyph d="M258 1 334 58H346L345 -3H419L597 557H471L352 179L350 123L330 101C312 98 295 97 280 97C203 97 161 122 161 175C161 195 167 221 176 250L273 557H147L56 268C42 222 34 185 34 150C34 49 107 -6 211 -6C228 -6 244 -3 258 1ZM436 639 682 760 684 765H478L334 644L333 639Z" glyph-name="uacute" horiz-adv-x="577" unicode="&#250;" /><glyph d="M258 1 334 58H346L345 -3H419L597 557H471L352 179L350 123L330 101C312 98 295 97 280 97C203 97 161 122 161 175C161 195 167 221 176 250L273 557H147L56 268C42 222 34 185 34 150C34 49 107 -6 211 -6C228 -6 244 -3 258 1ZM411 638C517 638 581 691 609 777H536C516 739 482 714 422 714C359 714 336 739 340 777H269C250 692 307 638 411 638Z" glyph-name="ubreve" horiz-adv-x="577" unicode="&#365;" /><glyph d="M258 1 334 58H346L345 -3H419L597 557H471L352 179L350 123L330 101C312 98 295 97 280 97C203 97 161 122 161 175C161 195 167 221 176 250L273 557H147L56 268C42 222 34 185 34 150C34 49 107 -6 211 -6C228 -6 244 -3 258 1ZM212 639H311L379 680L413 716H435L455 681L499 639H578L580 643L493 780H382L214 643Z" glyph-name="ucircumflex" horiz-adv-x="577" unicode="&#251;" /><glyph d="M258 1 334 58H346L345 -3H419L597 557H471L352 179L350 123L330 101C312 98 295 97 280 97C203 97 161 122 161 175C161 195 167 221 176 250L273 557H147L56 268C42 222 34 185 34 150C34 49 107 -6 211 -6C228 -6 244 -3 258 1ZM441 639H563L602 761H480ZM228 639H349L388 761H266Z" glyph-name="udieresis" horiz-adv-x="577" unicode="&#252;" /><glyph d="M258 1 334 58H346L345 -3H419L597 557H471L352 179L350 123L330 101C312 98 295 97 280 97C203 97 161 122 161 175C161 195 167 221 176 250L273 557H147L56 268C42 222 34 185 34 150C34 49 107 -6 211 -6C228 -6 244 -3 258 1ZM363 639H451L453 644L351 765H179L177 760Z" glyph-name="ugrave" horiz-adv-x="577" unicode="&#249;" /><glyph d="M258 2 334 58H346L345 -3H419L559 439L558 494L569 503H570C653 503 695 523 795 704L720 738C627 576 594 557 523 557H471L352 179L350 123L330 100C313 98 298 97 285 97C201 98 161 124 161 176C161 195 167 220 176 248L272 557H147L56 266C41 219 34 181 34 147C34 46 107 -6 210 -6C229 -6 243 -3 258 2Z" glyph-name="uhorn" horiz-adv-x="616" unicode="&#432;" /><glyph d="M258 1 334 58H346L345 -3H419L597 557H471L352 179L350 123L330 101C312 98 295 97 280 97C203 97 161 122 161 175C161 195 167 221 176 250L273 557H147L56 268C42 222 34 185 34 150C34 49 107 -6 211 -6C228 -6 244 -3 258 1ZM313 639 530 760 532 765H375L237 644L235 639ZM530 639 746 760 749 765H592L453 644L452 639Z" glyph-name="uhungarumlaut" horiz-adv-x="577" unicode="&#369;" /><glyph d="M258 1 334 58H346L345 -3H419L597 557H471L352 179L350 123L330 101C312 98 295 97 280 97C203 97 161 122 161 175C161 195 167 221 176 250L273 557H147L56 268C42 222 34 185 34 150C34 49 107 -6 211 -6C228 -6 244 -3 258 1ZM225 654H576L599 728H248Z" glyph-name="umacron" horiz-adv-x="577" unicode="&#363;" /><glyph d="M420 -157 436 -105H-122L-139 -157Z" glyph-name="underscore" horiz-adv-x="555" unicode="_" /><glyph glyph-name="uni0000" horiz-adv-x="0" /><glyph d="M203 802C316 843 360 876 360 917C360 949 321 968 242 968H78L58 902H210C242 902 251 898 251 890C251 877 227 862 105 813L101 802Z" glyph-name="uni00200309.cap" horiz-adv-x="0" /><glyph glyph-name="uni00A0" horiz-adv-x="278" unicode="&#160;" /><glyph d="M140 802H221L223 807L137 918H-25L-27 914ZM68 639 106 757H-16L-54 639ZM282 639 319 757H198L160 639Z" glyph-name="uni00A80300" horiz-adv-x="0" /><glyph d="M279 988 280 993 181 1105H0L-2 1100L180 988ZM352 819 390 937H268L230 819ZM111 819 149 937H27L-11 819Z" glyph-name="uni00A80300.cap" horiz-adv-x="0" /><glyph d="M203 802 436 914 437 918H243L103 807L101 802ZM282 639 319 757H198L160 639ZM68 639 106 757H-16L-54 639Z" glyph-name="uni00A80301" horiz-adv-x="0" /><glyph d="M277 988 522 1100 524 1105H310L159 993L157 988ZM352 819 390 937H268L230 819ZM111 819 149 937H27L-11 819Z" glyph-name="uni00A80301.cap" horiz-adv-x="0" /><glyph d="M344 815 368 889H20L-4 815ZM-54 639H68L106 757H-16ZM282 639 319 757H198L160 639Z" glyph-name="uni00A80304" horiz-adv-x="0" /><glyph d="M422 1000 446 1074H58L34 1000ZM352 819 390 937H268L230 819ZM111 819 148 937H27L-11 819Z" glyph-name="uni00A80304.cap" horiz-adv-x="0" /><glyph d="M223 802 391 933 392 937H293L223 898L190 865H170L148 898L104 937H26L25 933L109 802ZM282 639 319 757H198L160 639ZM68 639 106 757H-16L-54 639Z" glyph-name="uni00A8030C" horiz-adv-x="0" /><glyph d="M281 988 473 1119 474 1123H376L293 1084L253 1050H227L199 1084L142 1123H61L60 1119L168 988ZM352 819 390 937H268L230 819ZM110 819 149 937H27L-11 819Z" glyph-name="uni00A8030C.cap" horiz-adv-x="0" /><glyph d="M385 454 410 534H319L206 502L201 522L328 620C427 687 472 743 471 804C470 865 423 900 353 900C293 900 240 874 199 835L238 773C270 804 305 823 335 823C364 823 380 809 380 786C380 755 351 721 295 677L104 519L112 454Z" glyph-name="uni00B2" horiz-adv-x="355" unicode="&#178;" /><glyph d="M91 448C116 448 139 449 160 450C329 461 419 517 419 590C419 637 375 667 298 677L300 687C418 713 475 756 475 817C475 866 431 900 350 900C302 900 253 887 207 865L225 802C267 822 301 831 332 831C366 831 385 819 385 798C385 764 344 736 225 709L215 648C299 642 329 625 329 597C329 559 280 527 161 520L111 517Z" glyph-name="uni00B3" horiz-adv-x="355" unicode="&#179;" /><glyph d="M88 -50V4L98 12L142 -7C205 -3 265 17 318 51L364 121H379L366 -2H448L489 182L607 557H481L407 317C364 185 279 113 125 94L117 106L159 172L281 557H156L-70 -155H55Z" glyph-name="uni00B5" horiz-adv-x="586" unicode="&#181;" /><glyph d="M174 237 226 401H79L27 237Z" glyph-name="uni00B7" horiz-adv-x="228" unicode="&#183;" /><glyph d="M45 292H192L243 455H96Z" glyph-name="uni00B7.cap" horiz-adv-x="228" /><glyph d="M188 292 240 455H93L41 292Z" glyph-name="uni00B7.tab" horiz-adv-x="278" /><glyph d="M330 576 431 898H370L215 849L226 785L325 818L333 806L295 752L237 565V522L228 515L189 529H124L100 454H380L404 529H360L305 514L298 524Z" glyph-name="uni00B9" horiz-adv-x="355" unicode="&#185;" /><glyph d="M565 48 678 409H398L363 301H465L537 320L548 305L509 249L484 164L487 116L472 98C454 96 436 95 418 95C270 95 199 161 199 275C199 364 243 483 306 546C351 591 413 620 490 620C552 620 607 602 663 571L736 686C676 721 599 744 508 744C385 744 286 704 207 625C117 536 63 396 63 267C63 106 163 -6 339 -6C417 -6 493 15 565 48ZM332 -75H200L196 -87C245 -108 256 -116 255 -128C254 -144 228 -159 119 -185L123 -221C308 -191 359 -162 362 -125C364 -107 353 -90 332 -75Z" glyph-name="uni0122" horiz-adv-x="708" unicode="&#290;" /><glyph d="M287 162C200 162 160 201 160 264C160 315 184 376 218 409C254 446 306 463 374 463C397 463 417 460 435 456L441 437L403 375L363 242V187L347 170C326 164 307 162 287 162ZM129 -161C287 -161 382 -78 437 96L583 560H509L470 501H458L425 552C406 558 384 562 357 562C281 562 200 538 136 474C76 415 43 325 43 250C43 141 113 74 217 74C226 74 235 75 244 77L321 119L332 111C288 -12 233 -61 137 -61C80 -61 35 -43 -10 -20L-63 -114C-9 -143 52 -161 129 -161ZM460 639 464 651C416 670 402 679 402 690C402 708 429 722 540 749L536 785C369 759 296 728 296 684C296 667 307 652 328 639Z" glyph-name="uni0123" horiz-adv-x="563" unicode="&#291;" /><glyph d="M128 0 208 258 216 330 232 342H296L300 292L419 0H563L566 7L422 333L381 368L385 386L454 422L777 729L780 736H615L337 460L306 413H256L243 429L291 516L359 736H221L-10 0ZM292 -75H160L156 -87C205 -108 216 -116 215 -128C214 -144 188 -159 79 -185L83 -221C268 -191 319 -162 322 -125C324 -107 313 -90 292 -75Z" glyph-name="uni0136" horiz-adv-x="658" unicode="&#310;" /><glyph d="M106 0 156 163 162 249 179 262H229L235 230L319 0H441L443 7L346 253L314 282L319 297L371 326L600 549L602 557H465L264 351L242 321H195L183 341L246 441L347 765H222L-20 0ZM237 -75H105L101 -87C150 -108 161 -116 160 -128C159 -144 133 -159 24 -185L28 -221C213 -191 264 -162 267 -125C269 -107 258 -90 237 -75Z" glyph-name="uni0137" horiz-adv-x="531" unicode="&#311;" /><glyph d="M444 0 483 122H227L159 105L149 118L185 176L361 736H223L-10 0ZM254 -75H122L118 -87C167 -108 178 -116 177 -128C176 -144 150 -159 41 -185L45 -221C230 -191 281 -162 284 -125C286 -107 275 -90 254 -75Z" glyph-name="uni013B" horiz-adv-x="559" unicode="&#315;" /><glyph d="M115 0 356 765H230L-11 0ZM86 -75H-46L-50 -87C-1 -108 10 -116 9 -128C8 -144 -18 -159 -127 -185L-123 -221C62 -191 113 -162 116 -125C118 -107 107 -90 86 -75Z" glyph-name="uni013C" horiz-adv-x="281" unicode="&#316;" /><glyph d="M116 0 241 409 263 602 292 609 405 0H567L800 736H673L550 336L529 142L500 135L389 736H222L-10 0ZM308 -75H176L172 -87C221 -108 232 -116 231 -128C230 -144 204 -159 95 -185L99 -221C284 -191 335 -162 338 -125C340 -107 329 -90 308 -75Z" glyph-name="uni0145" horiz-adv-x="733" unicode="&#325;" /><glyph d="M225 378 227 434 247 456C265 458 282 459 297 459C374 459 415 435 415 381C415 362 409 336 400 307L304 0H429L520 289C535 335 543 372 543 407C543 508 470 562 365 562C349 562 333 560 319 555L243 499H231V560H157L-20 0H106ZM237 -75H105L101 -87C150 -108 161 -116 160 -128C159 -144 133 -159 24 -185L28 -221C213 -191 264 -162 267 -125C269 -107 258 -90 237 -75Z" glyph-name="uni0146" horiz-adv-x="577" unicode="&#326;" /><glyph d="M217 364 257 422 303 569 302 627 313 636H368C494 636 545 596 545 533C544 431 421 351 226 351ZM194 211V266L204 274H211C305 274 333 254 360 190L444 0H595L598 7L513 173C480 243 445 273 382 296L385 306C575 347 692 438 692 564C692 672 603 736 444 736H222L-10 0H128ZM299 -75H167L163 -87C212 -108 223 -116 222 -128C221 -144 195 -159 86 -185L90 -221C275 -191 326 -162 329 -125C331 -107 320 -90 299 -75Z" glyph-name="uni0156" horiz-adv-x="682" unicode="&#342;" /><glyph d="M106 0 217 351V398L243 417C308 431 368 438 422 440L462 567C414 566 371 559 324 543L232 461H220L226 560H157L-20 0ZM80 -75H-52L-56 -87C-7 -108 4 -116 3 -128C2 -144 -24 -159 -133 -185L-129 -221C56 -191 107 -162 110 -125C112 -107 101 -90 80 -75Z" glyph-name="uni0157" horiz-adv-x="395" unicode="&#343;" /><glyph d="M176 -157 300 -3C471 10 570 103 570 228C570 320 517 373 392 426C299 469 273 496 274 537C274 587 320 628 409 628C479 628 541 604 595 569L670 673C594 718 517 742 425 742C241 742 136 644 136 521C136 430 193 373 312 324C406 282 432 255 432 208C432 150 376 108 276 108C191 108 122 135 52 178L-22 74C33 41 90 17 152 5L238 12L242 -6L144 -53L22 -153L20 -157Z" glyph-name="uni015E" horiz-adv-x="637" unicode="&#350;" /><glyph d="M115 -157 234 -7C361 0 435 73 435 168C435 235 395 279 296 324C233 356 209 372 209 405C209 440 240 468 299 468C351 468 403 447 451 416L513 502C455 538 387 564 309 564C180 564 95 497 95 395C95 323 140 280 235 239C295 208 320 191 320 156C320 117 286 88 221 88C153 88 86 118 37 154L-27 68C12 40 59 17 113 4L175 11L178 -5L96 -44L-39 -153L-41 -157Z" glyph-name="uni015F" horiz-adv-x="517" unicode="&#351;" /><glyph d="M163 3 237 0 232 -16 163 -40 23 -153 22 -157H177L301 0L478 561V617L490 626L542 609H714L755 736H174L133 609H294L364 626L372 614L337 556Z" glyph-name="uni0162" horiz-adv-x="640" unicode="&#354;" /><glyph d="M268 -6C282 -6 292 -5 304 -3L337 104C329 103 316 102 306 102C238 102 206 124 206 176C206 193 210 215 217 239L270 412V460L282 469L328 453H445L477 554H366L306 537L297 550L332 605L370 729H247L206 595V547L194 539L151 554H111L79 453H113L169 470L179 458L144 402L96 246C84 208 78 176 78 146C78 66 122 17 203 0L198 -16L131 -37L-12 -153L-13 -157H142L262 -6Z" glyph-name="uni0163" horiz-adv-x="434" unicode="&#355;" /><glyph d="M300 -9C395 -9 478 30 544 96C636 188 696 346 696 479C696 642 603 744 429 744C350 744 268 726 205 699L229 587C296 612 351 623 402 623C508 623 571 575 571 444C571 437 571 429 570 421L552 407L458 428H94L83 385C69 337 64 287 64 243C64 91 153 -9 300 -9ZM311 105C233 105 182 156 182 251C182 273 185 299 190 328L210 343L266 325H457L536 343L547 328C484 178 406 105 311 105Z" glyph-name="uni018F" horiz-adv-x="704" unicode="&#399;" /><glyph d="M508 244 497 233 441 247H291L218 231L212 246L288 318L416 523L469 643H496L479 523L483 311ZM621 0 597 742H430L-61 0H80L155 114L174 160L189 167L243 148H419L485 166L496 156L485 100L488 0ZM593 814 785 947 786 951H686L604 912L563 876H538L509 912L453 951H374L372 947L479 814Z" glyph-name="uni01CD" horiz-adv-x="736" unicode="&#461;" /><glyph d="M241 78C156 78 117 109 117 160C117 187 128 212 146 230C176 259 225 275 290 275C296 275 332 274 362 273L371 257L343 217L322 150L321 105L301 85C281 80 260 78 241 78ZM232 -2 318 57 322 0H417L434 113L502 335C512 364 518 392 518 418C518 510 443 563 318 563C261 563 206 553 155 538L158 441C202 454 245 462 286 462C366 462 402 437 402 379C402 369 401 359 399 348L397 332L380 320L314 338C289 342 268 343 250 342C156 340 93 317 53 277C19 243 0 198 0 147C0 50 77 -7 189 -7C204 -7 218 -5 232 -2ZM608 780H510L441 738L408 703H386L366 738L322 780H242L241 776L327 639H438L607 776Z" glyph-name="uni01CE" horiz-adv-x="548" unicode="&#462;" /><glyph d="M135 0 368 736H229L-4 0ZM379 814 571 947 572 951H472L390 912L349 876H324L295 912L239 951H160L158 947L265 814Z" glyph-name="uni01CF" horiz-adv-x="308" unicode="&#463;" /><glyph d="M166 557 -10 0H115L292 557L253 549H200ZM483 780H385L316 738L283 703H261L241 738L197 780H117L116 776L202 639H313L482 776Z" glyph-name="uni01D0" horiz-adv-x="281" unicode="&#464;" /><glyph d="M322 -9C422 -9 511 33 584 106C671 193 728 347 728 477C728 636 633 745 469 745C369 745 280 703 207 630C121 543 64 389 64 259C64 100 158 -9 322 -9ZM332 110C247 110 200 170 200 260C200 358 247 496 308 557C350 599 397 626 460 626C545 626 592 566 592 476C592 378 545 240 484 179C441 137 395 110 332 110ZM590 814 782 947 783 951H683L601 912L560 876H535L506 912L450 951H371L369 947L476 814Z" glyph-name="uni01D1" horiz-adv-x="736" unicode="&#465;" /><glyph d="M216 -9C295 -9 357 22 412 77C480 145 524 258 524 362C524 490 454 566 335 566C257 566 195 535 140 480C72 412 28 300 28 194C28 66 98 -9 216 -9ZM230 99C174 99 145 140 145 202C145 269 177 366 223 412C252 441 284 458 321 458C378 458 406 417 406 355C406 288 375 190 329 144C300 115 268 99 230 99ZM613 780H515L446 738L413 703H391L371 738L327 780H247L246 776L332 639H443L612 776Z" glyph-name="uni01D2" horiz-adv-x="552" unicode="&#466;" /><glyph d="M307 -8C474 -8 572 84 636 281L779 736H643L511 309C466 172 408 113 318 113C243 113 203 151 203 216C203 243 210 273 219 304L355 736H216L89 330C74 284 64 240 64 199C64 72 156 -8 307 -8ZM579 814 771 947 772 951H672L590 912L549 876H524L495 912L439 951H360L358 947L465 814Z" glyph-name="uni01D3" horiz-adv-x="707" unicode="&#467;" /><glyph d="M258 1 334 58H346L345 -3H419L597 557H471L352 179L350 123L330 101C312 98 295 97 280 97C203 97 161 122 161 175C161 195 167 221 176 250L273 557H147L56 268C42 222 34 185 34 150C34 49 107 -6 211 -6C228 -6 244 -3 258 1ZM624 780H526L457 738L424 703H402L382 738L338 780H258L257 776L343 639H454L623 776Z" glyph-name="uni01D4" horiz-adv-x="577" unicode="&#468;" /><glyph d="M307 -8C474 -8 572 84 636 281L779 736H643L511 309C466 172 408 113 318 113C243 113 203 151 203 216C203 243 210 273 219 304L355 736H216L89 330C74 284 64 240 64 199C64 72 156 -8 307 -8ZM775 1000 799 1074H411L387 1000ZM705 819 743 937H621L583 819ZM464 819 501 937H380L342 819Z" glyph-name="uni01D5" horiz-adv-x="707" unicode="&#469;" /><glyph d="M258 1 334 58H346L345 -3H419L597 557H471L352 179L350 123L330 101C312 98 295 97 280 97C203 97 161 122 161 175C161 195 167 221 176 250L273 557H147L56 268C42 222 34 185 34 150C34 49 107 -6 211 -6C228 -6 244 -3 258 1ZM625 815 649 889H301L277 815ZM227 639H349L387 757H265ZM563 639 600 757H479L441 639Z" glyph-name="uni01D6" horiz-adv-x="577" unicode="&#470;" /><glyph d="M307 -8C474 -8 572 84 636 281L779 736H643L511 309C466 172 408 113 318 113C243 113 203 151 203 216C203 243 210 273 219 304L355 736H216L89 330C74 284 64 240 64 199C64 72 156 -8 307 -8ZM630 988 875 1100 877 1105H663L512 993L510 988ZM705 819 743 937H621L583 819ZM464 819 502 937H380L342 819Z" glyph-name="uni01D7" horiz-adv-x="707" unicode="&#471;" /><glyph d="M258 1 334 58H346L345 -3H419L597 557H471L352 179L350 123L330 101C312 98 295 97 280 97C203 97 161 122 161 175C161 195 167 221 176 250L273 557H147L56 268C42 222 34 185 34 150C34 49 107 -6 211 -6C228 -6 244 -3 258 1ZM484 802 717 914 718 918H524L384 807L382 802ZM563 639 600 757H479L441 639ZM349 639 387 757H265L227 639Z" glyph-name="uni01D8" horiz-adv-x="577" unicode="&#472;" /><glyph d="M307 -8C474 -8 572 84 636 281L779 736H643L511 309C466 172 408 113 318 113C243 113 203 151 203 216C203 243 210 273 219 304L355 736H216L89 330C74 284 64 240 64 199C64 72 156 -8 307 -8ZM634 988 826 1119 827 1123H729L646 1084L606 1050H580L552 1084L495 1123H414L413 1119L521 988ZM705 819 743 937H621L583 819ZM463 819 502 937H380L342 819Z" glyph-name="uni01D9" horiz-adv-x="707" unicode="&#473;" /><glyph d="M258 1 334 58H346L345 -3H419L597 557H471L352 179L350 123L330 101C312 98 295 97 280 97C203 97 161 122 161 175C161 195 167 221 176 250L273 557H147L56 268C42 222 34 185 34 150C34 49 107 -6 211 -6C228 -6 244 -3 258 1ZM505 802 673 933 674 937H575L505 898L472 865H452L430 898L386 937H308L307 933L391 802ZM564 639 601 757H480L442 639ZM350 639 388 757H266L228 639Z" glyph-name="uni01DA" horiz-adv-x="577" unicode="&#474;" /><glyph d="M307 -8C474 -8 572 84 636 281L779 736H643L511 309C466 172 408 113 318 113C243 113 203 151 203 216C203 243 210 273 219 304L355 736H216L89 330C74 284 64 240 64 199C64 72 156 -8 307 -8ZM632 988 633 993 534 1105H353L351 1100L533 988ZM705 819 743 937H621L583 819ZM464 819 502 937H380L342 819Z" glyph-name="uni01DB" horiz-adv-x="707" unicode="&#475;" /><glyph d="M258 1 334 58H346L345 -3H419L597 557H471L352 179L350 123L330 101C312 98 295 97 280 97C203 97 161 122 161 175C161 195 167 221 176 250L273 557H147L56 268C42 222 34 185 34 150C34 49 107 -6 211 -6C228 -6 244 -3 258 1ZM421 802H502L504 807L418 918H256L254 914ZM349 639 387 757H265L227 639ZM563 639 600 757H479L441 639Z" glyph-name="uni01DC" horiz-adv-x="577" unicode="&#476;" /><glyph d="M344 -157 348 -144C278 -123 258 -112 258 -100C258 -89 270 -71 337 -7C430 -3 516 38 584 106C671 193 728 347 728 477C728 636 633 745 469 745C369 745 280 703 207 630C121 543 64 389 64 259C64 127 127 29 256 2L251 -17C158 -75 134 -95 134 -115C134 -129 149 -145 172 -157ZM484 179C441 137 395 110 332 110C247 110 200 170 200 260C200 358 247 496 308 557C350 599 397 626 460 626C545 626 592 566 592 476C592 378 545 240 484 179Z" glyph-name="uni01EA" horiz-adv-x="736" unicode="&#490;" /><glyph d="M257 -157 261 -144C191 -123 172 -112 172 -100C172 -89 184 -73 254 -4C310 1 364 30 412 78C480 146 524 259 524 362C524 490 454 566 335 566C258 566 197 536 142 482C73 415 28 302 28 194C28 82 76 15 185 0L181 -13C71 -69 48 -93 48 -115C48 -129 63 -145 85 -157ZM231 99C174 99 145 140 145 202C145 269 177 366 223 412C252 441 284 458 321 458C378 458 406 417 406 355C406 288 375 191 329 144C300 115 268 99 231 99Z" glyph-name="uni01EB" horiz-adv-x="552" unicode="&#491;" /><glyph d="M-76 -165C63 -83 113 -22 165 143L297 557L257 549H205L171 557L44 155C6 34 -31 -13 -137 -86ZM488 780H390L321 738L288 703H266L246 738L202 780H122L121 776L207 639H318L487 776Z" glyph-name="uni01F0" horiz-adv-x="281" unicode="&#496;" /><glyph d="M116 0 241 409 263 602 292 609 405 0H567L800 736H673L550 336L529 142L500 135L389 736H222L-10 0ZM590 814 591 819 490 936H298L296 931L484 814Z" glyph-name="uni01F8" horiz-adv-x="733" unicode="&#504;" /><glyph d="M225 378 227 434 247 456C265 458 282 459 297 459C374 459 415 435 415 381C415 362 409 336 400 307L304 0H429L520 289C535 335 543 372 543 407C543 508 470 562 365 562C349 562 333 560 319 555L243 499H231V560H157L-20 0H106ZM365 639H453L455 644L353 765H181L179 760Z" glyph-name="uni01F9" horiz-adv-x="577" unicode="&#505;" /><glyph d="M261 -7C456 -7 570 94 570 228C570 320 517 373 392 426C299 469 273 496 274 537C274 587 320 628 409 628C479 628 541 604 595 569L670 673C594 718 517 742 425 742C241 742 136 644 136 521C136 430 193 373 312 324C406 282 432 255 432 208C432 150 376 108 276 108C191 108 122 135 52 178L-22 74C64 25 155 -7 261 -7ZM255 -75H123L119 -87C168 -108 179 -116 178 -128C177 -144 151 -159 42 -185L46 -221C231 -191 282 -162 285 -125C287 -107 276 -90 255 -75Z" glyph-name="uni0218" horiz-adv-x="637" unicode="&#536;" /><glyph d="M212 -8C352 -8 435 68 435 168C435 235 395 279 296 324C233 356 209 372 209 405C209 440 240 468 299 468C351 468 403 447 451 416L513 502C455 538 387 564 309 564C180 564 95 497 95 395C95 323 140 280 235 239C295 208 320 191 320 156C320 117 286 88 221 88C153 88 86 118 37 154L-27 68C34 25 114 -8 212 -8ZM202 -75H70L66 -87C115 -108 126 -116 125 -128C124 -144 98 -159 -11 -185L-7 -221C178 -191 229 -162 232 -125C234 -107 223 -90 202 -75Z" glyph-name="uni0219" horiz-adv-x="517" unicode="&#537;" /><glyph d="M301 0 477 561V617L490 626L542 609H714L755 736H174L133 609H294L364 626L372 614L337 556L162 0ZM265 -75H133L129 -87C178 -108 189 -116 188 -128C187 -144 161 -159 52 -185L56 -221C241 -191 292 -162 295 -125C297 -107 286 -90 265 -75Z" glyph-name="uni021A" horiz-adv-x="640" unicode="&#538;" /><glyph d="M303 -3 337 104C329 103 315 102 306 102C238 102 206 124 206 176C206 193 209 215 217 239L271 412V460L282 469L328 453H445L477 554H366L307 537L297 550L332 605L371 729H247L206 595V547L194 539L151 554H112L79 453H114L170 470L179 458L144 402L96 246C84 208 78 176 78 146C78 47 146 -6 268 -6C282 -6 292 -5 303 -3ZM191 -75H59L55 -87C104 -108 115 -116 114 -128C113 -144 87 -159 -22 -185L-18 -221C167 -191 218 -162 221 -125C223 -107 212 -90 191 -75Z" glyph-name="uni021B" horiz-adv-x="434" unicode="&#539;" /><glyph d="M508 244 497 233 441 247H291L218 231L212 246L288 318L416 523L469 643H496L479 523L483 311ZM621 0 597 742H430L-61 0H80L155 114L174 160L189 167L243 148H419L485 166L496 156L485 100L488 0ZM602 814 641 936H509L470 814Z" glyph-name="uni0226" horiz-adv-x="736" unicode="&#550;" /><glyph d="M241 78C156 78 117 109 117 160C117 187 128 212 146 230C176 259 225 275 290 275C296 275 332 274 362 273L371 257L343 217L322 150L321 105L301 85C281 80 260 78 241 78ZM232 -2 318 57 322 0H417L434 113L502 335C512 364 518 392 518 418C518 510 443 563 318 563C261 563 206 553 155 538L158 441C202 454 245 462 286 462C366 462 402 437 402 379C402 369 401 359 399 348L397 332L380 320L314 338C289 342 268 343 250 342C156 340 93 317 53 277C19 243 0 198 0 147C0 50 77 -7 189 -7C204 -7 218 -5 232 -2ZM447 639 486 762H353L314 639Z" glyph-name="uni0227" horiz-adv-x="548" unicode="&#551;" /><glyph d="M322 -9C422 -9 511 33 584 106C671 193 728 347 728 477C728 636 633 745 469 745C369 745 280 703 207 630C121 543 64 389 64 259C64 100 158 -9 322 -9ZM332 110C247 110 200 170 200 260C200 358 247 496 308 557C350 599 397 626 460 626C545 626 592 566 592 476C592 378 545 240 484 179C441 137 395 110 332 110ZM599 814 638 936H506L467 814Z" glyph-name="uni022E" horiz-adv-x="736" unicode="&#558;" /><glyph d="M216 -9C295 -9 357 22 412 77C480 145 524 258 524 362C524 490 454 566 335 566C257 566 195 535 140 480C72 412 28 300 28 194C28 66 98 -9 216 -9ZM230 99C174 99 145 140 145 202C145 269 177 366 223 412C252 441 284 458 321 458C378 458 406 417 406 355C406 288 375 190 329 144C300 115 268 99 230 99ZM451 639 490 762H357L318 639Z" glyph-name="uni022F" horiz-adv-x="552" unicode="&#559;" /><glyph d="M314 0 401 277 791 730 793 736H640L410 459L368 367H345L350 459L295 736H159L156 730L262 279L175 0ZM698 826 721 900H323L300 826Z" glyph-name="uni0232" horiz-adv-x="663" unicode="&#562;" /><glyph d="M-57 -162C142 -121 221 -47 344 147L607 557H473L297 252L236 116H211L230 252L235 557H113L123 79L149 56L146 43C98 -13 22 -46 -71 -64ZM209 654H560L583 728H232Z" glyph-name="uni0233" horiz-adv-x="539" unicode="&#563;" /><glyph d="M-76 -165C63 -83 113 -22 165 143L297 557L257 549H205L171 557L44 155C6 34 -31 -13 -137 -86Z" glyph-name="uni0237" horiz-adv-x="281" unicode="&#567;" /><glyph d="M202 -9C279 -9 345 23 398 75C466 144 512 255 512 356C512 486 439 563 294 564C237 564 186 554 136 531L154 439C195 454 235 463 278 463C368 463 410 417 415 330L397 315L316 331H50C28 265 19 217 19 172C19 67 83 -9 202 -9ZM214 81C147 81 121 127 121 192C121 210 123 230 126 250L146 264L194 251H323L379 266L390 248C348 151 288 81 214 81Z" glyph-name="uni0259" horiz-adv-x="542" unicode="&#601;" /><glyph d="M410 755 413 764H247L87 447L156 428Z" glyph-name="uni02B9" horiz-adv-x="283" unicode="&#697;" /><glyph d="M405 755 407 764H249L89 446L152 428ZM645 755 648 764H490L328 446L392 428Z" glyph-name="uni02BA" horiz-adv-x="505" unicode="&#698;" /><glyph d="M70 445 68 435H234L393 752L324 771Z" glyph-name="uni02BB" horiz-adv-x="283" unicode="&#699;" /><glyph d="M412 755 415 765H249L89 448L159 429Z" glyph-name="uni02BC" horiz-adv-x="283" unicode="&#700;" /><glyph d="M90 499C98 498 106 498 115 498C261 499 355 601 355 717C355 804 302 862 210 873L182 785C230 777 257 749 257 706C257 644 206 589 129 589H119Z" glyph-name="uni02BE" horiz-adv-x="238" unicode="&#702;" /><glyph d="M407 872C399 872 390 873 382 873C236 872 142 769 142 653C142 567 195 509 287 498L315 585C267 593 240 621 240 665C240 726 291 782 367 782H378Z" glyph-name="uni02BF" horiz-adv-x="238" unicode="&#703;" /><glyph d="M432 762 434 766 358 866H211L209 862L355 762ZM30 639 98 678 132 713H152L173 678L217 639H297L298 643L214 775H101L-68 643L-69 639Z" glyph-name="uni02C60300" horiz-adv-x="0" /><glyph d="M512 939 514 943 427 1050H259L257 1045L420 939ZM60 814 144 853 185 887H210L239 853L295 814H375L377 818L269 949H155L-36 818L-38 814Z" glyph-name="uni02C60300.cap" horiz-adv-x="0" /><glyph d="M370 762 571 862 572 866H398L281 766L280 762ZM30 639 98 678 132 713H153L173 678L217 639H297L299 643L214 775H101L-68 643L-69 639Z" glyph-name="uni02C60301" horiz-adv-x="0" /><glyph d="M449 939 667 1045 669 1050H474L342 943L341 939ZM60 814 144 853 185 887H210L239 853L295 814H375L377 818L269 949H155L-36 818L-38 814Z" glyph-name="uni02C60301.cap" horiz-adv-x="0" /><glyph d="M50 812C96 870 110 884 125 884C137 884 144 880 176 854C212 825 229 815 253 815C290 815 321 840 384 935L338 962C291 900 277 889 263 889C251 889 245 893 212 919C174 949 158 958 135 958C98 958 67 933 3 838ZM30 639 98 678 132 712H153L173 678L217 639H297L299 643L214 774H101L-68 643L-69 639Z" glyph-name="uni02C60303" horiz-adv-x="0" /><glyph d="M86 982C134 1043 155 1057 172 1057C185 1057 194 1053 230 1027C273 997 295 988 319 988C361 988 389 1010 460 1108L411 1136C364 1076 344 1061 328 1061C314 1061 306 1065 269 1091C227 1120 204 1130 180 1130C139 1130 112 1111 38 1010ZM60 814 144 853 185 887H210L239 853L295 814H375L377 818L269 949H155L-36 818L-38 814Z" glyph-name="uni02C60303.cap" horiz-adv-x="0" /><glyph d="M265 845H353C376 845 383 840 383 833C383 819 361 804 285 760L282 749H359C446 797 478 827 478 860C478 889 454 907 395 907H285ZM29 639 98 678 133 713H153L173 678L218 639H297L299 643L214 775H101L-67 643L-69 639Z" glyph-name="uni02C60309" horiz-adv-x="0" /><glyph d="M440 921C540 969 570 997 570 1035C570 1062 545 1081 478 1081H350L330 1017H431C459 1017 468 1014 468 1006C468 992 445 976 358 932L354 921ZM60 814 144 853 185 887H210L239 853L295 814H375L377 818L269 949H155L-36 818L-38 814Z" glyph-name="uni02C60309.cap" horiz-adv-x="0" /><glyph d="M208 500 326 871H229L111 500Z" glyph-name="uni02C8" horiz-adv-x="178" unicode="&#712;" /><glyph d="M-4 -169 114 202H17L-101 -169Z" glyph-name="uni02CC" horiz-adv-x="178" unicode="&#716;" /><glyph d="M-67 -164H285L308 -90H-43Z" glyph-name="uni02CD" horiz-adv-x="500" unicode="&#717;" /><glyph d="M142 803H224L225 807L139 918H-23L-24 914ZM129 638C237 638 302 689 327 773H255C236 736 200 712 141 712C78 712 56 736 59 773H-13C-30 691 25 638 129 638Z" glyph-name="uni02D80300" horiz-adv-x="0" /><glyph d="M187 980H285L286 985L187 1097H6L4 1092ZM182 812C297 812 370 863 401 950H328C305 913 265 888 194 888C122 888 93 912 95 950H24C5 870 63 812 182 812Z" glyph-name="uni02D80300.cap" horiz-adv-x="0" /><glyph d="M200 803 433 914 434 919H240L100 808L98 803ZM129 638C237 638 302 689 327 773H255C236 736 200 712 141 712C78 712 56 736 59 773H-13C-30 691 25 638 129 638Z" glyph-name="uni02D80301" horiz-adv-x="0" /><glyph d="M269 980 514 1092 516 1097H302L151 985L149 980ZM182 812C297 812 370 863 401 950H328C305 913 265 888 194 888C122 888 93 912 95 950H24C5 870 63 812 182 812Z" glyph-name="uni02D80301.cap" horiz-adv-x="0" /><glyph d="M50 810C95 869 110 882 126 882C137 882 144 878 176 852C213 823 230 813 254 813C290 813 320 839 384 934L338 961C290 898 276 887 262 887C250 887 243 891 210 917C173 947 157 956 134 956C97 956 68 930 4 836ZM133 638C232 638 303 689 328 773H256C236 736 201 712 142 712C78 712 57 736 60 773H-12C-29 691 20 638 133 638Z" glyph-name="uni02D80303" horiz-adv-x="0" /><glyph d="M85 985C133 1046 154 1061 171 1061C185 1061 193 1056 229 1030C272 1000 295 991 318 991C360 991 388 1013 459 1111L410 1139C363 1079 344 1064 327 1064C313 1064 305 1069 269 1094C226 1124 203 1134 180 1134C138 1134 111 1114 37 1013ZM182 812C297 812 370 863 401 950H328C305 913 265 888 194 888C122 888 93 912 95 950H24C5 870 63 812 182 812Z" glyph-name="uni02D80303.cap" horiz-adv-x="0" /><glyph d="M76 884H187C218 884 229 881 229 872C229 860 207 845 108 802L104 792H191C292 834 328 865 328 898C328 927 300 947 234 947H96ZM129 638C237 638 302 689 327 773H255C236 736 200 712 141 712C77 712 57 735 59 773H-13C-31 691 26 638 129 638Z" glyph-name="uni02D80309" horiz-adv-x="0" /><glyph d="M112 1066H255C288 1066 297 1062 297 1053C297 1040 275 1025 158 982L154 970H253C368 1012 407 1041 407 1082C407 1111 379 1131 296 1131H133ZM182 812C297 812 370 863 401 950H328C305 913 265 888 194 888C122 888 93 912 95 950H24C5 875 57 812 182 812Z" glyph-name="uni02D80309.cap" horiz-adv-x="0" /><glyph d="M81 639H169L171 644L69 765H-103L-105 760Z" glyph-name="uni0300" horiz-adv-x="0" unicode="&#768;" /><glyph d="M160 639 406 760 408 765H202L58 644L57 639Z" glyph-name="uni0301" horiz-adv-x="0" unicode="&#769;" /><glyph d="M-69 639H30L98 680L132 716H154L174 681L218 639H297L299 643L212 780H101L-67 643Z" glyph-name="uni0302" horiz-adv-x="0" unicode="&#770;" /><glyph d="M-28 630C22 695 42 712 60 712C75 712 85 704 122 677C166 644 182 634 212 634C256 634 285 662 355 767L304 794C254 730 235 713 217 713C203 713 192 719 155 747C111 780 94 791 65 791C21 791 -6 764 -78 659Z" glyph-name="uni0303" horiz-adv-x="0" unicode="&#771;" /><glyph d="M-56 654H295L318 728H-33Z" glyph-name="uni0304" horiz-adv-x="0" unicode="&#772;" /><glyph d="M130 638C236 638 300 691 328 777H255C235 739 201 714 141 714C78 714 55 739 59 777H-12C-31 692 26 638 130 638Z" glyph-name="uni0306" horiz-adv-x="0" unicode="&#774;" /><glyph d="M181 639 220 762H87L48 639Z" glyph-name="uni0307" horiz-adv-x="0" unicode="&#775;" /><glyph d="M160 639H282L321 761H199ZM-53 639H68L107 761H-15Z" glyph-name="uni0308" horiz-adv-x="0" unicode="&#776;" /><glyph d="M26 733H147C174 733 183 728 182 719C182 705 161 691 55 641L51 629H139C238 675 281 708 283 744C285 775 255 798 193 798H46Z" glyph-name="uni0309" horiz-adv-x="0" unicode="&#777;" /><glyph d="M131 633C216 633 269 683 269 743C269 792 224 831 156 831C74 831 19 782 19 722C19 672 63 633 131 633ZM134 669C86 669 61 694 61 725C61 768 98 796 154 796C202 796 227 770 227 739C227 697 190 669 134 669Z" glyph-name="uni030A" horiz-adv-x="0" unicode="&#778;" /><glyph d="M31 639 248 760 250 765H93L-45 644L-47 639ZM248 639 464 760 467 765H310L171 644L170 639Z" glyph-name="uni030B" horiz-adv-x="0" unicode="&#779;" /><glyph d="M342 780H244L175 738L142 703H120L100 738L56 780H-24L-25 776L61 639H172L341 776Z" glyph-name="uni030C" horiz-adv-x="0" unicode="&#780;" /><glyph d="M188 639 192 651C144 670 130 679 130 690C130 708 157 722 268 749L264 785C97 759 24 728 24 684C24 667 35 652 56 639Z" glyph-name="uni0312" horiz-adv-x="0" unicode="&#786;" /><glyph d="M68 591 109 576 277 753 280 765H153Z" glyph-name="uni0315" horiz-adv-x="0" unicode="&#789;" /><glyph d="M-85 -199 -46 -75H-179L-217 -199Z" glyph-name="uni0323" horiz-adv-x="0" unicode="&#803;" /><glyph d="M-196 -197 -158 -75H-280L-318 -197ZM17 -197 56 -75H-66L-104 -197Z" glyph-name="uni0324" horiz-adv-x="0" unicode="&#804;" /><glyph d="M-55 -75H-187L-191 -87C-142 -108 -131 -116 -132 -128C-133 -144 -159 -159 -268 -185L-264 -221C-79 -191 -28 -162 -25 -125C-23 -107 -34 -90 -55 -75Z" glyph-name="uni0326" horiz-adv-x="0" unicode="&#806;" /><glyph d="M-142 -157 -18 -2 -87 14 -296 -153 -297 -157Z" glyph-name="uni0327" horiz-adv-x="0" unicode="&#807;" /><glyph d="M-190 -157H-18L-14 -144C-84 -123 -104 -112 -104 -100C-104 -88 -89 -71 -18 0L-63 24C-194 -60 -228 -91 -228 -115C-228 -129 -213 -145 -190 -157Z" glyph-name="uni0328" horiz-adv-x="0" unicode="&#808;" /><glyph d="M-335 -216H-237L-168 -175L-134 -139H-113L-93 -174L-48 -216H30L32 -212L-55 -75H-165L-334 -212Z" glyph-name="uni032D" horiz-adv-x="0" unicode="&#813;" /><glyph d="M-141 -215C-34 -215 30 -161 58 -75H-15C-35 -114 -69 -139 -129 -139C-192 -139 -215 -114 -211 -75H-282C-302 -161 -245 -215 -141 -215Z" glyph-name="uni032E" horiz-adv-x="0" unicode="&#814;" /><glyph d="M-317 -164H35L58 -90H-293Z" glyph-name="uni0331" horiz-adv-x="0" unicode="&#817;" /><glyph d="M7 -164 30 -90H-266L-289 -164Z" glyph-name="uni0331.nrw" horiz-adv-x="0" /><glyph d="M215 424 256 486 285 579 284 630 295 638H368L413 650L420 640L395 598L368 489L405 491L449 607L450 641L463 651C524 636 556 610 556 566C556 470 437 413 224 411ZM278 97 301 135 332 259 297 261 246 127 245 95 236 88 206 98H123L116 108L157 172L189 278L190 331L204 342C392 338 471 298 471 223C471 155 417 109 285 87ZM231 -135 265 -24V22L275 29L313 12C487 20 579 111 579 209C579 291 511 345 411 368L415 379C587 404 676 496 676 587C676 663 614 709 539 721L490 705L482 716L516 769L543 854H463L435 765L434 718L425 711L386 727H220L-7 9H148L207 25L213 15L180 -39L150 -135Z" glyph-name="uni0E3F" horiz-adv-x="652" unicode="&#3647;" /><glyph d="M248 0C456 0 593 74 593 206C593 287 540 342 426 368L429 379C599 413 689 489 689 591C689 683 610 736 461 736H222L-10 0ZM231 424 270 482 299 579 300 633 310 641H356C498 641 557 617 557 556C557 481 461 418 241 410ZM132 106 169 161 206 285V334L220 345C407 339 473 295 473 225C473 138 391 94 148 94H140ZM22 -164H374L397 -90H46Z" glyph-name="uni1E06" horiz-adv-x="667" unicode="&#7686;" /><glyph d="M-21 -3H53L93 55H104L138 4C156 -2 175 -5 194 -5C283 -5 363 30 421 88C491 158 531 266 531 366C531 485 465 562 367 562C361 562 355 562 349 561L266 512L251 527L296 601L347 765H222ZM179 97C162 97 145 99 128 102L122 122L160 186L222 385L223 439L243 459C263 463 281 465 297 465C380 465 413 424 413 354C413 284 383 202 340 159C301 121 251 97 179 97ZM-34 -164H318L341 -90H-10Z" glyph-name="uni1E07" horiz-adv-x="558" unicode="&#7687;" /><glyph d="M158 0C341 0 467 45 560 137C647 224 696 354 696 465C696 641 584 736 362 736H222L-10 0ZM149 130 189 190 301 554V609L317 620C498 616 555 558 555 456C555 370 514 267 459 213C397 151 308 119 157 117ZM253 -199 292 -75H159L121 -199Z" glyph-name="uni1E0C" horiz-adv-x="701" unicode="&#7692;" /><glyph d="M260 92C178 92 144 134 144 205C144 273 175 355 218 398C255 435 306 460 379 460C395 460 412 458 428 454L435 431L397 369L335 172L334 119L314 98C294 94 276 92 260 92ZM202 -5C212 -5 224 -4 234 -2L315 58H327L326 -3H400L642 765H517L462 590L457 521L438 511L393 555C383 560 373 562 361 562C274 562 195 526 135 467C68 400 27 291 26 193C26 69 91 -5 202 -5ZM195 -199 234 -75H101L63 -199Z" glyph-name="uni1E0D" horiz-adv-x="558" unicode="&#7693;" /><glyph d="M158 0C341 0 467 45 560 137C647 224 696 354 696 465C696 641 584 736 362 736H222L-10 0ZM149 130 189 190 301 554V609L317 620C498 616 555 558 555 456C555 370 514 267 459 213C397 151 308 119 157 117ZM22 -164H374L397 -90H46Z" glyph-name="uni1E0E" horiz-adv-x="701" unicode="&#7694;" /><glyph d="M260 92C178 92 144 134 144 205C144 273 175 355 218 398C255 435 306 460 379 460C395 460 412 458 428 454L435 431L397 369L335 172L334 119L314 98C294 94 276 92 260 92ZM202 -5C212 -5 224 -4 234 -2L315 58H327L326 -3H400L642 765H517L462 590L457 521L438 511L393 555C383 560 373 562 361 562C274 562 195 526 135 467C68 400 27 291 26 193C26 69 91 -5 202 -5ZM-37 -164H315L338 -90H-13Z" glyph-name="uni1E0F" horiz-adv-x="558" unicode="&#7695;" /><glyph d="M158 0C341 0 467 45 560 137C647 224 696 354 696 465C696 641 584 736 362 736H222L-10 0ZM149 130 189 190 301 554V609L317 620C498 616 555 558 555 456C555 370 514 267 459 213C397 151 308 119 157 117ZM-3 -216H95L164 -175L198 -139H219L239 -174L284 -216H362L364 -212L277 -75H167L-2 -212Z" glyph-name="uni1E12" horiz-adv-x="701" unicode="&#7698;" /><glyph d="M260 92C178 92 144 134 144 205C144 273 175 355 218 398C255 435 306 460 379 460C395 460 412 458 428 454L435 431L397 369L335 172L334 119L314 98C294 94 276 92 260 92ZM202 -5C212 -5 224 -4 234 -2L315 58H327L326 -3H400L642 765H517L462 590L457 521L438 511L393 555C383 560 373 562 361 562C274 562 195 526 135 467C68 400 27 291 26 193C26 69 91 -5 202 -5ZM-55 -216H43L112 -175L146 -139H167L187 -174L232 -216H310L312 -212L225 -75H115L-54 -212Z" glyph-name="uni1E13" horiz-adv-x="558" unicode="&#7699;" /><glyph d="M565 48 678 409H398L363 301H465L537 320L548 305L509 249L484 164L487 116L472 98C454 96 436 95 418 95C270 95 199 161 199 275C199 364 243 483 306 546C351 591 413 620 490 620C552 620 607 602 663 571L736 686C676 721 599 744 508 744C385 744 286 704 207 625C117 536 63 396 63 267C63 106 163 -6 339 -6C417 -6 493 15 565 48ZM737 826 760 900H362L339 826Z" glyph-name="uni1E20" horiz-adv-x="708" unicode="&#7712;" /><glyph d="M287 162C200 162 160 201 160 264C160 315 184 376 218 409C254 446 306 463 374 463C397 463 417 460 435 456L441 437L403 375L363 242V187L347 170C326 164 307 162 287 162ZM129 -161C287 -161 382 -78 437 96L583 560H509L470 501H458L425 552C406 558 384 562 357 562C281 562 200 538 136 474C76 415 43 325 43 250C43 141 113 74 217 74C226 74 235 75 244 77L321 119L332 111C288 -12 233 -61 137 -61C80 -61 35 -43 -10 -20L-63 -114C-9 -143 52 -161 129 -161ZM216 654H567L590 728H239Z" glyph-name="uni1E21" horiz-adv-x="563" unicode="&#7713;" /><glyph d="M128 0 211 264V319L223 328L275 312H455L524 328L533 316L498 259L417 0H556L788 736H650L573 491V436L561 427L509 443H329L260 427L251 439L285 496L361 736H222L-11 0ZM277 -199 316 -75H183L145 -199Z" glyph-name="uni1E24" horiz-adv-x="722" unicode="&#7716;" /><glyph d="M225 378 227 434 247 456C265 458 282 459 297 459C374 459 416 435 416 381C416 362 410 336 401 307L304 0H430L521 289C535 335 543 372 543 407C543 509 467 562 372 562C362 562 355 561 346 559L265 512L253 524L292 591L347 765H221L-20 0H106ZM210 -199 249 -75H116L78 -199Z" glyph-name="uni1E25" horiz-adv-x="577" unicode="&#7717;" /><glyph d="M-10 3 62 0 58 -14 -9 -38 -151 -153 -153 -157H3L128 0L211 264V319L223 328L275 312H455L524 328L533 316L498 259L417 0H556L788 736H650L572 491L573 436L561 427L509 443H329L260 427L251 439L285 496L361 736H222Z" glyph-name="uni1E28" horiz-adv-x="722" unicode="&#7720;" /><glyph d="M106 0 225 378 227 434 247 456C265 458 282 459 297 459C374 459 416 435 416 381C416 362 410 336 401 307L304 0H430L521 289C535 335 543 372 543 407C543 509 467 562 372 562C362 562 355 561 346 559L265 512L253 524L292 591L347 765H221L-19 3L42 1L37 -16L-31 -39L-173 -153L-175 -157H-19Z" glyph-name="uni1E29" horiz-adv-x="577" unicode="&#7721;" /><glyph d="M128 0 211 264V319L223 328L275 312H455L524 328L533 316L498 259L417 0H556L788 736H650L573 491V436L561 427L509 443H329L260 427L251 439L285 496L361 736H222L-11 0ZM220 -215C327 -215 391 -161 419 -75H346C326 -114 292 -139 232 -139C169 -139 146 -114 150 -75H79C59 -161 116 -215 220 -215Z" glyph-name="uni1E2A" horiz-adv-x="722" unicode="&#7722;" /><glyph d="M225 378 227 434 247 456C265 458 282 459 297 459C374 459 416 435 416 381C416 362 410 336 401 307L304 0H430L521 289C535 335 543 372 543 407C543 509 467 562 372 562C362 562 355 561 346 559L265 512L253 524L292 591L347 765H221L-20 0H106ZM154 -215C261 -215 325 -161 353 -75H280C260 -114 226 -139 166 -139C103 -139 80 -114 84 -75H13C-7 -161 50 -215 154 -215Z" glyph-name="uni1E2B" horiz-adv-x="577" unicode="&#7723;" /><glyph d="M128 0 208 258 216 330 232 342H296L300 292L419 0H563L566 7L422 333L381 368L385 386L454 422L777 729L780 736H615L337 460L306 413H256L243 429L291 516L359 736H221L-10 0ZM262 -199 301 -75H168L130 -199Z" glyph-name="uni1E32" horiz-adv-x="658" unicode="&#7730;" /><glyph d="M106 0 156 163 162 249 179 262H229L235 230L319 0H441L443 7L346 253L314 282L319 297L371 326L600 549L602 557H465L264 351L242 321H195L183 341L246 441L347 765H222L-20 0ZM207 -199 246 -75H113L75 -199Z" glyph-name="uni1E33" horiz-adv-x="531" unicode="&#7731;" /><glyph d="M128 0 208 258 216 330 232 342H296L300 292L419 0H563L566 7L422 333L381 368L385 386L454 422L777 729L780 736H615L337 460L306 413H256L243 429L291 516L359 736H221L-10 0ZM30 -164H382L405 -90H54Z" glyph-name="uni1E34" horiz-adv-x="658" unicode="&#7732;" /><glyph d="M106 0 156 163 162 249 179 262H229L235 230L319 0H441L443 7L346 253L314 282L319 297L371 326L600 549L602 557H465L264 351L242 321H195L183 341L246 441L347 765H222L-20 0ZM-25 -164H327L350 -90H-1Z" glyph-name="uni1E35" horiz-adv-x="531" unicode="&#7733;" /><glyph d="M444 0 483 122H227L159 105L149 118L185 176L361 736H223L-10 0ZM224 -199 263 -75H130L92 -199Z" glyph-name="uni1E36" horiz-adv-x="559" unicode="&#7734;" /><glyph d="M115 0 356 765H230L-11 0ZM56 -199 95 -75H-38L-76 -199Z" glyph-name="uni1E37" horiz-adv-x="281" unicode="&#7735;" /><glyph d="M444 0 483 122H227L159 105L149 118L185 176L361 736H223L-10 0ZM491 826 514 900H172L149 826ZM224 -199 263 -75H130L92 -199Z" glyph-name="uni1E38" horiz-adv-x="559" unicode="&#7736;" /><glyph d="M115 0 356 765H230L-11 0ZM175 854H470L493 928H198ZM56 -199 95 -75H-38L-76 -199Z" glyph-name="uni1E39" horiz-adv-x="281" unicode="&#7737;" /><glyph d="M444 0 483 122H227L159 105L149 118L185 176L361 736H223L-10 0ZM-8 -164H344L367 -90H16Z" glyph-name="uni1E3A" horiz-adv-x="559" unicode="&#7738;" /><glyph d="M115 0 356 765H230L-11 0ZM148 -164 171 -90H-125L-148 -164Z" glyph-name="uni1E3B" horiz-adv-x="281" unicode="&#7739;" /><glyph d="M444 0 483 122H227L159 105L149 118L185 176L361 736H223L-10 0ZM-26 -216H72L141 -175L175 -139H196L216 -174L261 -216H339L341 -212L254 -75H144L-25 -212Z" glyph-name="uni1E3C" horiz-adv-x="559" unicode="&#7740;" /><glyph d="M115 0 356 765H230L-11 0ZM-194 -216H-96L-27 -175L7 -139H28L48 -174L93 -216H171L173 -212L86 -75H-24L-193 -212Z" glyph-name="uni1E3D" horiz-adv-x="281" unicode="&#7741;" /><glyph d="M430 -6 729 490 791 624H820L641 0H767L965 736H760L496 293L420 118H395L428 293L442 736H239L-26 0H99L310 624H340L318 492L306 -6ZM676 814 932 931 934 936 707 937 556 819 554 814Z" glyph-name="uni1E3E" horiz-adv-x="917" unicode="&#7742;" /><glyph d="M224 380 227 434 248 457C263 459 276 460 288 460C366 460 411 436 411 383C411 365 405 339 396 311L299 0H424L517 293C530 338 538 374 538 412C538 419 538 426 537 433L560 455C575 458 590 459 604 459C685 459 730 435 730 382C730 363 724 338 716 311L618 0H743L835 293C850 339 857 376 857 411C857 512 784 562 682 562C657 562 630 558 608 551L519 490C491 537 436 562 368 562C350 562 332 560 317 555L243 499H231V560H157L-20 0H105ZM601 639 847 760 849 765H643L499 644L498 639Z" glyph-name="uni1E3F" horiz-adv-x="890" unicode="&#7743;" /><glyph d="M430 -6 729 490 791 624H820L641 0H767L965 736H760L496 293L420 118H395L428 293L442 736H239L-26 0H99L310 624H340L318 492L306 -6ZM686 814 725 936H593L554 814Z" glyph-name="uni1E40" horiz-adv-x="917" unicode="&#7744;" /><glyph d="M224 380 227 434 248 457C263 459 276 460 288 460C366 460 411 436 411 383C411 365 405 339 396 311L299 0H424L517 293C530 338 538 374 538 412C538 419 538 426 537 433L560 455C575 458 590 459 604 459C685 459 730 435 730 382C730 363 724 338 716 311L618 0H743L835 293C850 339 857 376 857 411C857 512 784 562 682 562C657 562 630 558 608 551L519 490C491 537 436 562 368 562C350 562 332 560 317 555L243 499H231V560H157L-20 0H105ZM628 639 667 762H534L495 639Z" glyph-name="uni1E41" horiz-adv-x="890" unicode="&#7745;" /><glyph d="M430 -6 729 490 791 624H820L641 0H767L965 736H760L496 293L420 118H395L428 293L442 736H239L-26 0H99L310 624H340L318 492L306 -6ZM370 -199 409 -75H276L238 -199Z" glyph-name="uni1E42" horiz-adv-x="917" unicode="&#7746;" /><glyph d="M224 380 227 434 248 457C263 459 276 460 288 460C366 460 411 436 411 383C411 365 405 339 396 311L299 0H424L517 293C530 338 538 374 538 412C538 419 538 426 537 433L560 455C575 458 590 459 604 459C685 459 730 435 730 382C730 363 724 338 716 311L618 0H743L835 293C850 339 857 376 857 411C857 512 784 562 682 562C657 562 630 558 608 551L519 490C491 537 436 562 368 562C350 562 332 560 317 555L243 499H231V560H157L-20 0H105ZM364 -199 403 -75H270L232 -199Z" glyph-name="uni1E43" horiz-adv-x="890" unicode="&#7747;" /><glyph d="M116 0 241 409 263 602 292 609 405 0H567L800 736H673L550 336L529 142L500 135L389 736H222L-10 0ZM597 814 636 936H504L465 814Z" glyph-name="uni1E44" horiz-adv-x="733" unicode="&#7748;" /><glyph d="M225 378 227 434 247 456C265 458 282 459 297 459C374 459 415 435 415 381C415 362 409 336 400 307L304 0H429L520 289C535 335 543 372 543 407C543 508 470 562 365 562C349 562 333 560 319 555L243 499H231V560H157L-20 0H106ZM465 639 504 762H371L332 639Z" glyph-name="uni1E45" horiz-adv-x="577" unicode="&#7749;" /><glyph d="M116 0 241 409 263 602 292 609 405 0H567L800 736H673L550 336L529 142L500 135L389 736H222L-10 0ZM278 -199 317 -75H184L146 -199Z" glyph-name="uni1E46" horiz-adv-x="733" unicode="&#7750;" /><glyph d="M225 378 227 434 247 456C265 458 282 459 297 459C374 459 415 435 415 381C415 362 409 336 400 307L304 0H429L520 289C535 335 543 372 543 407C543 508 470 562 365 562C349 562 333 560 319 555L243 499H231V560H157L-20 0H106ZM207 -199 246 -75H113L75 -199Z" glyph-name="uni1E47" horiz-adv-x="577" unicode="&#7751;" /><glyph d="M116 0 241 409 263 602 292 609 405 0H567L800 736H673L550 336L529 142L500 135L389 736H222L-10 0ZM46 -164H398L421 -90H70Z" glyph-name="uni1E48" horiz-adv-x="733" unicode="&#7752;" /><glyph d="M225 378 227 434 247 456C265 458 282 459 297 459C374 459 415 435 415 381C415 362 409 336 400 307L304 0H429L520 289C535 335 543 372 543 407C543 508 470 562 365 562C349 562 333 560 319 555L243 499H231V560H157L-20 0H106ZM-25 -164H327L350 -90H-1Z" glyph-name="uni1E49" horiz-adv-x="577" unicode="&#7753;" /><glyph d="M116 0 241 409 263 602 292 609 405 0H567L800 736H673L550 336L529 142L500 135L389 736H222L-10 0ZM28 -216H126L195 -175L229 -139H250L270 -174L315 -216H393L395 -212L308 -75H198L29 -212Z" glyph-name="uni1E4A" horiz-adv-x="733" unicode="&#7754;" /><glyph d="M225 378 227 434 247 456C265 458 282 459 297 459C374 459 415 435 415 381C415 362 409 336 400 307L304 0H429L520 289C535 335 543 372 543 407C543 508 470 562 365 562C349 562 333 560 319 555L243 499H231V560H157L-20 0H106ZM-43 -216H55L124 -175L158 -139H179L199 -174L244 -216H322L324 -212L237 -75H127L-42 -212Z" glyph-name="uni1E4B" horiz-adv-x="577" unicode="&#7755;" /><glyph d="M217 364 257 422 303 569 302 627 313 636H368C494 636 545 596 545 533C544 431 421 351 226 351ZM194 211V266L204 274H211C305 274 333 254 360 190L444 0H595L598 7L513 173C480 243 445 273 382 296L385 306C575 347 692 438 692 564C692 672 603 736 444 736H222L-10 0H128ZM555 814 594 936H462L423 814Z" glyph-name="uni1E58" horiz-adv-x="682" unicode="&#7768;" /><glyph d="M106 0 217 351V398L243 417C308 431 368 438 422 440L462 567C414 566 371 559 324 543L232 461H220L226 560H157L-20 0ZM396 639 435 762H302L263 639Z" glyph-name="uni1E59" horiz-adv-x="395" unicode="&#7769;" /><glyph d="M217 364 257 422 303 569 302 627 313 636H368C494 636 545 596 545 533C544 431 421 351 226 351ZM194 211V266L204 274H211C305 274 333 254 360 190L444 0H595L598 7L513 173C480 243 445 273 382 296L385 306C575 347 692 438 692 564C692 672 603 736 444 736H222L-10 0H128ZM269 -199 308 -75H175L137 -199Z" glyph-name="uni1E5A" horiz-adv-x="682" unicode="&#7770;" /><glyph d="M106 0 217 351V398L243 417C308 431 368 438 422 440L462 567C414 566 371 559 324 543L232 461H220L226 560H157L-20 0ZM47 -199 86 -75H-47L-85 -199Z" glyph-name="uni1E5B" horiz-adv-x="395" unicode="&#7771;" /><glyph d="M217 364 257 422 303 569 302 627 313 636H368C494 636 545 596 545 533C544 431 421 351 226 351ZM194 211V266L204 274H211C305 274 333 254 360 190L444 0H595L598 7L513 173C480 243 445 273 382 296L385 306C575 347 692 438 692 564C692 672 603 736 444 736H222L-10 0H128ZM692 826 715 900H317L294 826ZM269 -199 308 -75H175L137 -199Z" glyph-name="uni1E5C" horiz-adv-x="682" unicode="&#7772;" /><glyph d="M106 0 217 351V398L243 417C308 431 368 438 422 440L462 567C414 566 371 559 324 543L232 461H220L226 560H157L-20 0ZM188 654H483L506 728H211ZM47 -199 86 -75H-47L-85 -199Z" glyph-name="uni1E5D" horiz-adv-x="395" unicode="&#7773;" /><glyph d="M217 364 257 422 303 569 302 627 313 636H368C494 636 545 596 545 533C544 431 421 351 226 351ZM194 211V266L204 274H211C305 274 333 254 360 190L444 0H595L598 7L513 173C480 243 445 273 382 296L385 306C575 347 692 438 692 564C692 672 603 736 444 736H222L-10 0H128ZM37 -164H389L412 -90H61Z" glyph-name="uni1E5E" horiz-adv-x="682" unicode="&#7774;" /><glyph d="M106 0 217 351V398L243 417C308 431 368 438 422 440L462 567C414 566 371 559 324 543L232 461H220L226 560H157L-20 0ZM140 -164 163 -90H-133L-156 -164Z" glyph-name="uni1E5F" horiz-adv-x="395" unicode="&#7775;" /><glyph d="M261 -7C456 -7 570 94 570 228C570 320 517 373 392 426C299 469 273 496 274 537C274 587 320 628 409 628C479 628 541 604 595 569L670 673C594 718 517 742 425 742C241 742 136 644 136 521C136 430 193 373 312 324C406 282 432 255 432 208C432 150 376 108 276 108C191 108 122 135 52 178L-22 74C64 25 155 -7 261 -7ZM225 -199 264 -75H131L93 -199Z" glyph-name="uni1E62" horiz-adv-x="637" unicode="&#7778;" /><glyph d="M212 -8C352 -8 435 68 435 168C435 235 395 279 296 324C233 356 209 372 209 405C209 440 240 468 299 468C351 468 403 447 451 416L513 502C455 538 387 564 309 564C180 564 95 497 95 395C95 323 140 280 235 239C295 208 320 191 320 156C320 117 286 88 221 88C153 88 86 118 37 154L-27 68C34 25 114 -8 212 -8ZM172 -199 211 -75H78L40 -199Z" glyph-name="uni1E63" horiz-adv-x="517" unicode="&#7779;" /><glyph d="M301 0 477 561V617L490 626L542 609H714L755 736H174L133 609H294L364 626L372 614L337 556L162 0ZM235 -199 274 -75H141L103 -199Z" glyph-name="uni1E6C" horiz-adv-x="640" unicode="&#7788;" /><glyph d="M303 -3 337 104C329 103 315 102 306 102C238 102 206 124 206 176C206 193 209 215 217 239L271 412V460L282 469L328 453H445L477 554H366L307 537L297 550L332 605L371 729H247L206 595V547L194 539L151 554H112L79 453H114L170 470L179 458L144 402L96 246C84 208 78 176 78 146C78 47 146 -6 268 -6C282 -6 292 -5 303 -3ZM161 -199 200 -75H67L29 -199Z" glyph-name="uni1E6D" horiz-adv-x="434" unicode="&#7789;" /><glyph d="M301 0 477 561V617L490 626L542 609H714L755 736H174L133 609H294L364 626L372 614L337 556L162 0ZM3 -164H355L378 -90H27Z" glyph-name="uni1E6E" horiz-adv-x="640" unicode="&#7790;" /><glyph d="M303 -3 337 104C329 103 315 102 306 102C238 102 206 124 206 176C206 193 209 215 217 239L271 412V460L282 469L328 453H445L477 554H366L307 537L297 550L332 605L371 729H247L206 595V547L194 539L151 554H112L79 453H114L170 470L179 458L144 402L96 246C84 208 78 176 78 146C78 47 146 -6 268 -6C282 -6 292 -5 303 -3ZM253 -164 276 -90H-20L-43 -164Z" glyph-name="uni1E6F" horiz-adv-x="434" unicode="&#7791;" /><glyph d="M301 0 477 561V617L490 626L542 609H714L755 736H174L133 609H294L364 626L372 614L337 556L162 0ZM-15 -216H83L152 -175L186 -139H207L227 -174L272 -216H350L352 -212L265 -75H155L-14 -212Z" glyph-name="uni1E70" horiz-adv-x="640" unicode="&#7792;" /><glyph d="M303 -3 337 104C329 103 315 102 306 102C238 102 206 124 206 176C206 193 209 215 217 239L271 412V460L282 469L328 453H445L477 554H366L307 537L297 550L332 605L371 729H247L206 595V547L194 539L151 554H112L79 453H114L170 470L179 458L144 402L96 246C84 208 78 176 78 146C78 47 146 -6 268 -6C282 -6 292 -5 303 -3ZM-89 -216H9L78 -175L112 -139H133L153 -174L198 -216H276L278 -212L191 -75H81L-88 -212Z" glyph-name="uni1E71" horiz-adv-x="434" unicode="&#7793;" /><glyph d="M823 736H675L362 226L309 101H285L306 226L309 736H169L186 -7H342ZM269 -199 308 -75H175L137 -199Z" glyph-name="uni1E7E" horiz-adv-x="708" unicode="&#7806;" /><glyph d="M611 557H477L283 229L224 92H199L219 230L231 557H109L114 -7H251ZM187 -199 226 -75H93L55 -199Z" glyph-name="uni1E7F" horiz-adv-x="545" unicode="&#7807;" /><glyph d="M97 0 315 245 351 312H371L367 245L432 0H574L575 6L471 345L440 371L444 385L495 415L788 730L789 736H636L438 513L402 444H381L384 513L326 736H188L186 730L284 418L317 387L312 373L262 348L-57 6L-59 0ZM448 819 487 940H365L327 819ZM690 819 728 940H607L568 819Z" glyph-name="uni1E8C" horiz-adv-x="691" unicode="&#7820;" /><glyph d="M72 0 215 171 251 234H271L267 171L311 0H432L433 6L355 254L328 279L332 294L380 319L593 551L595 557H461L329 399L294 337H274L279 399L238 557H118L117 551L189 320L218 295L214 280L165 255L-63 6L-65 0ZM424 639H546L585 761H463ZM211 639H332L371 761H249Z" glyph-name="uni1E8D" horiz-adv-x="542" unicode="&#7821;" /><glyph d="M314 0 401 277 791 730 793 736H640L410 459L368 367H345L350 459L295 736H159L156 730L262 279L175 0ZM561 814 600 936H468L429 814Z" glyph-name="uni1E8E" horiz-adv-x="663" unicode="&#7822;" /><glyph d="M-57 -162C142 -121 221 -47 344 147L607 557H473L297 252L236 116H211L230 252L235 557H113L123 79L149 56L146 43C98 -13 22 -46 -71 -64ZM445 639 484 762H351L312 639Z" glyph-name="uni1E8F" horiz-adv-x="539" unicode="&#7823;" /><glyph d="M503 0 539 114H293L160 83L150 99L681 623L716 736H201L165 622H393L520 651L530 636L1 114L-35 0ZM374 814 458 855 499 890H525L552 855L610 814H690L692 818L584 953H471L279 818L277 814Z" glyph-name="uni1E90" horiz-adv-x="644" unicode="&#7824;" /><glyph d="M382 0 412 96H212L129 72L119 88L513 459L542 557H132L102 461H287L371 484L381 469L-14 98L-44 0ZM178 639H277L345 680L379 716H401L421 681L465 639H544L546 643L459 780H348L180 643Z" glyph-name="uni1E91" horiz-adv-x="508" unicode="&#7825;" /><glyph d="M503 0 539 114H293L160 83L150 99L681 623L716 736H201L165 622H393L520 651L530 636L1 114L-35 0ZM235 -199 274 -75H141L103 -199Z" glyph-name="uni1E92" horiz-adv-x="644" unicode="&#7826;" /><glyph d="M382 0 412 96H212L129 72L119 88L513 459L542 557H132L102 461H287L371 484L381 469L-14 98L-44 0ZM167 -199 206 -75H73L35 -199Z" glyph-name="uni1E93" horiz-adv-x="508" unicode="&#7827;" /><glyph d="M503 0 539 114H293L160 83L150 99L681 623L716 736H201L165 622H393L520 651L530 636L1 114L-35 0ZM3 -164H355L378 -90H27Z" glyph-name="uni1E94" horiz-adv-x="644" unicode="&#7828;" /><glyph d="M382 0 412 96H212L129 72L119 88L513 459L542 557H132L102 461H287L371 484L381 469L-14 98L-44 0ZM-65 -164H287L310 -90H-41Z" glyph-name="uni1E95" horiz-adv-x="508" unicode="&#7829;" /><glyph d="M225 378 227 434 247 456C265 458 282 459 297 459C374 459 416 435 416 381C416 362 410 336 401 307L304 0H430L521 289C535 335 543 372 543 407C543 509 467 562 372 562C362 562 355 561 346 559L265 512L253 524L292 591L347 765H221L-20 0H106ZM-21 -164H331L354 -90H3Z" glyph-name="uni1E96" horiz-adv-x="577" unicode="&#7830;" /><glyph d="M394 -7C556 -7 633 76 633 176C633 262 571 318 472 357L478 377L559 400L761 611L777 669C714 711 620 744 506 744C294 744 183 638 123 450L-18 0H119L254 431C298 568 379 638 515 638C561 638 608 630 651 615L645 591L567 570L379 378L361 320C454 287 505 246 505 193C505 143 466 103 392 103C349 103 311 114 279 130L233 26C275 7 330 -7 394 -7Z" glyph-name="uni1E9E" horiz-adv-x="711" unicode="&#7838;" /><glyph d="M508 244 497 233 441 247H291L218 231L212 246L288 318L416 523L469 643H496L479 523L483 311ZM621 0 597 742H430L-61 0H80L155 114L174 160L189 167L243 148H419L485 166L496 156L485 100L488 0ZM288 -199 327 -75H194L156 -199Z" glyph-name="uni1EA0" horiz-adv-x="736" unicode="&#7840;" /><glyph d="M241 78C156 78 117 109 117 160C117 187 128 212 146 230C176 259 225 275 290 275C296 275 332 274 362 273L371 257L343 217L322 150L321 105L301 85C281 80 260 78 241 78ZM232 -2 318 57 322 0H417L434 113L502 335C512 364 518 392 518 418C518 510 443 563 318 563C261 563 206 553 155 538L158 441C202 454 245 462 286 462C366 462 402 437 402 379C402 369 401 359 399 348L397 332L380 320L314 338C289 342 268 343 250 342C156 340 93 317 53 277C19 243 0 198 0 147C0 50 77 -7 189 -7C204 -7 218 -5 232 -2ZM186 -199 225 -75H92L54 -199Z" glyph-name="uni1EA1" horiz-adv-x="548" unicode="&#7841;" /><glyph d="M508 244 497 233 441 247H291L218 231L212 246L288 318L416 523L469 643H496L479 523L483 311ZM621 0 597 742H430L-61 0H80L155 114L174 160L189 167L243 148H419L485 166L496 156L485 100L488 0ZM570 802C683 843 727 876 727 917C727 949 688 968 609 968H445L425 902H577C609 902 618 898 618 890C618 877 594 862 472 813L468 802Z" glyph-name="uni1EA2" horiz-adv-x="736" unicode="&#7842;" /><glyph d="M241 78C156 78 117 109 117 160C117 187 128 212 146 230C176 259 225 275 290 275C296 275 332 274 362 273L371 257L343 217L322 150L321 105L301 85C281 80 260 78 241 78ZM232 -2 318 57 322 0H417L434 113L502 335C512 364 518 392 518 418C518 510 443 563 318 563C261 563 206 553 155 538L158 441C202 454 245 462 286 462C366 462 402 437 402 379C402 369 401 359 399 348L397 332L380 320L314 338C289 342 268 343 250 342C156 340 93 317 53 277C19 243 0 198 0 147C0 50 77 -7 189 -7C204 -7 218 -5 232 -2ZM292 733H413C440 733 449 728 448 719C448 705 427 691 321 641L317 629H405C504 675 547 708 549 744C551 775 521 798 459 798H312Z" glyph-name="uni1EA3" horiz-adv-x="548" unicode="&#7843;" /><glyph d="M508 244 497 233 441 247H291L218 231L212 246L288 318L416 523L469 643H496L479 523L483 311ZM621 0 597 742H430L-61 0H80L155 114L174 160L189 167L243 148H419L485 166L496 156L485 100L488 0ZM816 939 1034 1045 1036 1050H841L709 943L708 939ZM427 814 511 853 552 887H577L606 853L662 814H742L744 818L636 949H522L331 818L329 814Z" glyph-name="uni1EA4" horiz-adv-x="736" unicode="&#7844;" /><glyph d="M241 78C156 78 117 109 117 160C117 187 128 212 146 230C176 259 225 275 290 275C296 275 332 274 362 273L371 257L343 217L322 150L321 105L301 85C281 80 260 78 241 78ZM232 -2 318 57 322 0H417L434 113L502 335C512 364 518 392 518 418C518 510 443 563 318 563C261 563 206 553 155 538L158 441C202 454 245 462 286 462C366 462 402 437 402 379C402 369 401 359 399 348L397 332L380 320L314 338C289 342 268 343 250 342C156 340 93 317 53 277C19 243 0 198 0 147C0 50 77 -7 189 -7C204 -7 218 -5 232 -2ZM636 762 837 862 838 866H664L547 766L546 762ZM296 639 364 678 398 713H419L439 678L483 639H563L565 643L480 775H367L198 643L197 639Z" glyph-name="uni1EA5" horiz-adv-x="548" unicode="&#7845;" /><glyph d="M508 244 497 233 441 247H291L218 231L212 246L288 318L416 523L469 643H496L479 523L483 311ZM621 0 597 742H430L-61 0H80L155 114L174 160L189 167L243 148H419L485 166L496 156L485 100L488 0ZM879 939 881 943 794 1050H626L624 1045L787 939ZM427 814 511 853 552 887H577L606 853L662 814H742L744 818L636 949H522L331 818L329 814Z" glyph-name="uni1EA6" horiz-adv-x="736" unicode="&#7846;" /><glyph d="M241 78C156 78 117 109 117 160C117 187 128 212 146 230C176 259 225 275 290 275C296 275 332 274 362 273L371 257L343 217L322 150L321 105L301 85C281 80 260 78 241 78ZM232 -2 318 57 322 0H417L434 113L502 335C512 364 518 392 518 418C518 510 443 563 318 563C261 563 206 553 155 538L158 441C202 454 245 462 286 462C366 462 402 437 402 379C402 369 401 359 399 348L397 332L380 320L314 338C289 342 268 343 250 342C156 340 93 317 53 277C19 243 0 198 0 147C0 50 77 -7 189 -7C204 -7 218 -5 232 -2ZM698 762 700 766 624 866H477L475 862L621 762ZM296 639 364 678 398 713H418L439 678L483 639H563L564 643L480 775H367L198 643L197 639Z" glyph-name="uni1EA7" horiz-adv-x="548" unicode="&#7847;" /><glyph d="M508 244 497 233 441 247H291L218 231L212 246L288 318L416 523L469 643H496L479 523L483 311ZM621 0 597 742H430L-61 0H80L155 114L174 160L189 167L243 148H419L485 166L496 156L485 100L488 0ZM807 921C907 969 937 997 937 1035C937 1062 912 1081 845 1081H717L697 1017H798C826 1017 835 1014 835 1006C835 992 812 976 725 932L721 921ZM427 814 511 853 552 887H577L606 853L662 814H742L744 818L636 949H522L331 818L329 814Z" glyph-name="uni1EA8" horiz-adv-x="736" unicode="&#7848;" /><glyph d="M241 78C156 78 117 109 117 160C117 187 128 212 146 230C176 259 225 275 290 275C296 275 332 274 362 273L371 257L343 217L322 150L321 105L301 85C281 80 260 78 241 78ZM232 -2 318 57 322 0H417L434 113L502 335C512 364 518 392 518 418C518 510 443 563 318 563C261 563 206 553 155 538L158 441C202 454 245 462 286 462C366 462 402 437 402 379C402 369 401 359 399 348L397 332L380 320L314 338C289 342 268 343 250 342C156 340 93 317 53 277C19 243 0 198 0 147C0 50 77 -7 189 -7C204 -7 218 -5 232 -2ZM531 845H619C642 845 649 840 649 833C649 819 627 804 551 760L548 749H625C712 797 744 827 744 860C744 889 720 907 661 907H551ZM295 639 364 678 399 713H419L439 678L484 639H563L565 643L480 775H367L199 643L197 639Z" glyph-name="uni1EA9" horiz-adv-x="548" unicode="&#7849;" /><glyph d="M508 244 497 233 441 247H291L218 231L212 246L288 318L416 523L469 643H496L479 523L483 311ZM621 0 597 742H430L-61 0H80L155 114L174 160L189 167L243 148H419L485 166L496 156L485 100L488 0ZM452 982C500 1043 521 1057 538 1057C551 1057 560 1053 596 1027C639 997 661 988 685 988C727 988 755 1010 826 1108L777 1136C730 1076 710 1061 694 1061C680 1061 672 1065 635 1091C593 1120 570 1130 546 1130C505 1130 478 1111 404 1010ZM426 814 510 853 551 887H576L605 853L661 814H741L743 818L635 949H521L330 818L328 814Z" glyph-name="uni1EAA" horiz-adv-x="736" unicode="&#7850;" /><glyph d="M241 78C156 78 117 109 117 160C117 187 128 212 146 230C176 259 225 275 290 275C296 275 332 274 362 273L371 257L343 217L322 150L321 105L301 85C281 80 260 78 241 78ZM232 -2 318 57 322 0H417L434 113L502 335C512 364 518 392 518 418C518 510 443 563 318 563C261 563 206 553 155 538L158 441C202 454 245 462 286 462C366 462 402 437 402 379C402 369 401 359 399 348L397 332L380 320L314 338C289 342 268 343 250 342C156 340 93 317 53 277C19 243 0 198 0 147C0 50 77 -7 189 -7C204 -7 218 -5 232 -2ZM316 812C362 870 376 884 391 884C403 884 410 880 442 854C478 825 495 815 519 815C556 815 587 840 650 935L604 962C557 900 543 889 529 889C517 889 511 893 478 919C440 949 424 958 401 958C364 958 333 933 269 838ZM296 639 364 678 398 712H419L439 678L483 639H563L565 643L480 774H367L198 643L197 639Z" glyph-name="uni1EAB" horiz-adv-x="548" unicode="&#7851;" /><glyph d="M508 244 497 233 441 247H291L218 231L212 246L288 318L416 523L469 643H496L479 523L483 311ZM621 0 597 742H430L-61 0H80L155 114L174 160L189 167L243 148H419L485 166L496 156L485 100L488 0ZM426 814 510 855 551 890H577L604 855L662 814H742L744 818L636 953H523L331 818L329 814ZM288 -199 327 -75H194L156 -199Z" glyph-name="uni1EAC" horiz-adv-x="736" unicode="&#7852;" /><glyph d="M241 78C156 78 117 109 117 160C117 187 128 212 146 230C176 259 225 275 290 275C296 275 332 274 362 273L371 257L343 217L322 150L321 105L301 85C281 80 260 78 241 78ZM232 -2 318 57 322 0H417L434 113L502 335C512 364 518 392 518 418C518 510 443 563 318 563C261 563 206 553 155 538L158 441C202 454 245 462 286 462C366 462 402 437 402 379C402 369 401 359 399 348L397 332L380 320L314 338C289 342 268 343 250 342C156 340 93 317 53 277C19 243 0 198 0 147C0 50 77 -7 189 -7C204 -7 218 -5 232 -2ZM197 639H296L364 680L398 716H420L440 681L484 639H563L565 643L478 780H367L199 643ZM186 -199 225 -75H92L54 -199Z" glyph-name="uni1EAD" horiz-adv-x="548" unicode="&#7853;" /><glyph d="M508 244 497 233 441 247H291L218 231L212 246L288 318L416 523L469 643H496L479 523L483 311ZM621 0 597 742H430L-61 0H80L155 114L174 160L189 167L243 148H419L485 166L496 156L485 100L488 0ZM636 980 881 1092 883 1097H669L518 985L516 980ZM549 812C664 812 737 863 768 950H695C672 913 632 888 561 888C489 888 460 912 462 950H391C372 870 430 812 549 812Z" glyph-name="uni1EAE" horiz-adv-x="736" unicode="&#7854;" /><glyph d="M241 78C156 78 117 109 117 160C117 187 128 212 146 230C176 259 225 275 290 275C296 275 332 274 362 273L371 257L343 217L322 150L321 105L301 85C281 80 260 78 241 78ZM232 -2 318 57 322 0H417L434 113L502 335C512 364 518 392 518 418C518 510 443 563 318 563C261 563 206 553 155 538L158 441C202 454 245 462 286 462C366 462 402 437 402 379C402 369 401 359 399 348L397 332L380 320L314 338C289 342 268 343 250 342C156 340 93 317 53 277C19 243 0 198 0 147C0 50 77 -7 189 -7C204 -7 218 -5 232 -2ZM466 803 699 914 700 919H506L366 808L364 803ZM395 638C503 638 568 689 593 773H521C502 736 466 712 407 712C344 712 322 736 325 773H253C236 691 291 638 395 638Z" glyph-name="uni1EAF" horiz-adv-x="548" unicode="&#7855;" /><glyph d="M508 244 497 233 441 247H291L218 231L212 246L288 318L416 523L469 643H496L479 523L483 311ZM621 0 597 742H430L-61 0H80L155 114L174 160L189 167L243 148H419L485 166L496 156L485 100L488 0ZM553 980H651L652 985L553 1097H372L370 1092ZM548 812C663 812 736 863 767 950H694C671 913 631 888 560 888C488 888 459 912 461 950H390C371 870 429 812 548 812Z" glyph-name="uni1EB0" horiz-adv-x="736" unicode="&#7856;" /><glyph d="M241 78C156 78 117 109 117 160C117 187 128 212 146 230C176 259 225 275 290 275C296 275 332 274 362 273L371 257L343 217L322 150L321 105L301 85C281 80 260 78 241 78ZM232 -2 318 57 322 0H417L434 113L502 335C512 364 518 392 518 418C518 510 443 563 318 563C261 563 206 553 155 538L158 441C202 454 245 462 286 462C366 462 402 437 402 379C402 369 401 359 399 348L397 332L380 320L314 338C289 342 268 343 250 342C156 340 93 317 53 277C19 243 0 198 0 147C0 50 77 -7 189 -7C204 -7 218 -5 232 -2ZM408 803H490L491 807L405 918H243L242 914ZM395 638C503 638 568 689 593 773H521C502 736 466 712 407 712C344 712 322 736 325 773H253C236 691 291 638 395 638Z" glyph-name="uni1EB1" horiz-adv-x="548" unicode="&#7857;" /><glyph d="M508 244 497 233 441 247H291L218 231L212 246L288 318L416 523L469 643H496L479 523L483 311ZM621 0 597 742H430L-61 0H80L155 114L174 160L189 167L243 148H419L485 166L496 156L485 100L488 0ZM479 1066H622C655 1066 664 1062 664 1053C664 1040 642 1025 525 982L521 970H620C735 1012 774 1041 774 1082C774 1111 746 1131 663 1131H500ZM549 812C664 812 737 863 768 950H695C672 913 632 888 561 888C489 888 460 912 462 950H391C372 875 424 812 549 812Z" glyph-name="uni1EB2" horiz-adv-x="736" unicode="&#7858;" /><glyph d="M241 78C156 78 117 109 117 160C117 187 128 212 146 230C176 259 225 275 290 275C296 275 332 274 362 273L371 257L343 217L322 150L321 105L301 85C281 80 260 78 241 78ZM232 -2 318 57 322 0H417L434 113L502 335C512 364 518 392 518 418C518 510 443 563 318 563C261 563 206 553 155 538L158 441C202 454 245 462 286 462C366 462 402 437 402 379C402 369 401 359 399 348L397 332L380 320L314 338C289 342 268 343 250 342C156 340 93 317 53 277C19 243 0 198 0 147C0 50 77 -7 189 -7C204 -7 218 -5 232 -2ZM342 884H453C484 884 495 881 495 872C495 860 473 845 374 802L370 792H457C558 834 594 865 594 898C594 927 566 947 500 947H362ZM395 638C503 638 568 689 593 773H521C502 736 466 712 407 712C343 712 323 735 325 773H253C235 691 292 638 395 638Z" glyph-name="uni1EB3" horiz-adv-x="548" unicode="&#7859;" /><glyph d="M508 244 497 233 441 247H291L218 231L212 246L288 318L416 523L469 643H496L479 523L483 311ZM621 0 597 742H430L-61 0H80L155 114L174 160L189 167L243 148H419L485 166L496 156L485 100L488 0ZM452 985C500 1046 521 1061 538 1061C552 1061 560 1056 596 1030C639 1000 662 991 685 991C727 991 755 1013 826 1111L777 1139C730 1079 711 1064 694 1064C680 1064 672 1069 636 1094C593 1124 570 1134 547 1134C505 1134 478 1114 404 1013ZM549 812C664 812 737 863 768 950H695C672 913 632 888 561 888C489 888 460 912 462 950H391C372 870 430 812 549 812Z" glyph-name="uni1EB4" horiz-adv-x="736" unicode="&#7860;" /><glyph d="M241 78C156 78 117 109 117 160C117 187 128 212 146 230C176 259 225 275 290 275C296 275 332 274 362 273L371 257L343 217L322 150L321 105L301 85C281 80 260 78 241 78ZM232 -2 318 57 322 0H417L434 113L502 335C512 364 518 392 518 418C518 510 443 563 318 563C261 563 206 553 155 538L158 441C202 454 245 462 286 462C366 462 402 437 402 379C402 369 401 359 399 348L397 332L380 320L314 338C289 342 268 343 250 342C156 340 93 317 53 277C19 243 0 198 0 147C0 50 77 -7 189 -7C204 -7 218 -5 232 -2ZM316 810C361 869 376 882 392 882C403 882 410 878 442 852C479 823 496 813 520 813C556 813 586 839 650 934L604 961C556 898 542 887 528 887C516 887 509 891 476 917C439 947 423 956 400 956C363 956 334 930 270 836ZM399 638C498 638 569 689 594 773H522C502 736 467 712 408 712C344 712 323 736 326 773H254C237 691 286 638 399 638Z" glyph-name="uni1EB5" horiz-adv-x="548" unicode="&#7861;" /><glyph d="M508 244 497 233 441 247H291L218 231L212 246L288 318L416 523L469 643H496L479 523L483 311ZM621 0 597 742H430L-61 0H80L155 114L174 160L189 167L243 148H419L485 166L496 156L485 100L488 0ZM547 812C661 812 735 865 765 950H692C671 913 631 888 559 888C487 888 458 913 459 950H388C368 869 427 812 547 812ZM288 -199 327 -75H194L156 -199Z" glyph-name="uni1EB6" horiz-adv-x="736" unicode="&#7862;" /><glyph d="M241 78C156 78 117 109 117 160C117 187 128 212 146 230C176 259 225 275 290 275C296 275 332 274 362 273L371 257L343 217L322 150L321 105L301 85C281 80 260 78 241 78ZM232 -2 318 57 322 0H417L434 113L502 335C512 364 518 392 518 418C518 510 443 563 318 563C261 563 206 553 155 538L158 441C202 454 245 462 286 462C366 462 402 437 402 379C402 369 401 359 399 348L397 332L380 320L314 338C289 342 268 343 250 342C156 340 93 317 53 277C19 243 0 198 0 147C0 50 77 -7 189 -7C204 -7 218 -5 232 -2ZM396 638C502 638 566 691 594 777H521C501 739 467 714 407 714C344 714 321 739 325 777H254C235 692 292 638 396 638ZM186 -199 225 -75H92L54 -199Z" glyph-name="uni1EB7" horiz-adv-x="548" unicode="&#7863;" /><glyph d="M485 0 523 118H223L153 102L144 114L180 173L210 272V328L222 337L274 321H522L559 433H321L252 416L244 428L279 488L304 571V625L316 634L367 618H668L707 736H222L-10 0ZM238 -199 277 -75H144L106 -199Z" glyph-name="uni1EB8" horiz-adv-x="620" unicode="&#7864;" /><glyph d="M219 306 163 291 152 308C194 405 254 475 329 475C395 475 421 430 421 364C421 347 419 327 416 307L396 293L348 306ZM406 25 388 118C347 103 307 93 264 93C174 93 132 139 127 227L145 242L226 226H492C514 291 523 340 523 384C523 489 459 566 340 566C263 566 197 534 144 481C76 413 30 302 30 201C30 71 103 -6 248 -7C305 -7 357 3 406 25ZM191 -199 230 -75H97L59 -199Z" glyph-name="uni1EB9" horiz-adv-x="542" unicode="&#7865;" /><glyph d="M485 0 523 118H223L153 102L144 114L180 173L210 272V328L222 337L274 321H522L559 433H321L252 416L244 428L279 488L304 571V625L316 634L367 618H668L707 736H222L-10 0ZM524 802C637 843 681 876 681 917C681 949 642 968 563 968H399L379 902H531C563 902 572 898 572 890C572 877 548 862 426 813L422 802Z" glyph-name="uni1EBA" horiz-adv-x="620" unicode="&#7866;" /><glyph d="M219 306 163 291 152 308C194 405 254 475 329 475C395 475 421 430 421 364C421 347 419 327 416 307L396 293L348 306ZM406 25 388 118C347 103 307 93 264 93C174 93 132 139 127 227L145 242L226 226H492C514 291 523 340 523 384C523 489 459 566 340 566C263 566 197 534 144 481C76 413 30 302 30 201C30 71 103 -6 248 -7C305 -7 357 3 406 25ZM297 733H418C445 733 454 728 453 719C453 705 432 691 326 641L322 629H410C509 675 552 708 554 744C556 775 526 798 464 798H317Z" glyph-name="uni1EBB" horiz-adv-x="542" unicode="&#7867;" /><glyph d="M485 0 523 118H223L153 102L144 114L180 173L210 272V328L222 337L274 321H522L559 433H321L252 416L244 428L279 488L304 571V625L316 634L367 618H668L707 736H222L-10 0ZM334 803C387 871 408 888 427 888C443 888 453 882 494 854C541 821 564 811 594 811C634 811 664 830 745 942L695 972C642 906 622 890 602 890C587 890 577 895 536 923C488 955 467 966 438 966C395 966 362 942 283 833Z" glyph-name="uni1EBC" horiz-adv-x="620" unicode="&#7868;" /><glyph d="M219 306 163 291 152 308C194 405 254 475 329 475C395 475 421 430 421 364C421 347 419 327 416 307L396 293L348 306ZM406 25 388 118C347 103 307 93 264 93C174 93 132 139 127 227L145 242L226 226H492C514 291 523 340 523 384C523 489 459 566 340 566C263 566 197 534 144 481C76 413 30 302 30 201C30 71 103 -6 248 -7C305 -7 357 3 406 25ZM243 630C293 695 313 712 331 712C346 712 356 704 393 677C437 644 453 634 483 634C527 634 556 662 626 767L575 794C525 730 506 713 488 713C474 713 463 719 426 747C382 780 365 791 336 791C292 791 265 764 193 659Z" glyph-name="uni1EBD" horiz-adv-x="542" unicode="&#7869;" /><glyph d="M485 0 523 118H223L153 102L144 114L180 173L210 272V328L222 337L274 321H522L559 433H321L252 416L244 428L279 488L304 571V625L316 634L367 618H668L707 736H222L-10 0ZM770 939 988 1045 990 1050H795L663 943L662 939ZM381 814 465 853 506 887H531L560 853L616 814H696L698 818L590 949H476L285 818L283 814Z" glyph-name="uni1EBE" horiz-adv-x="620" unicode="&#7870;" /><glyph d="M219 306 163 291 152 308C194 405 254 475 329 475C395 475 421 430 421 364C421 347 419 327 416 307L396 293L348 306ZM406 25 388 118C347 103 307 93 264 93C174 93 132 139 127 227L145 242L226 226H492C514 291 523 340 523 384C523 489 459 566 340 566C263 566 197 534 144 481C76 413 30 302 30 201C30 71 103 -6 248 -7C305 -7 357 3 406 25ZM641 762 842 862 843 866H669L552 766L551 762ZM301 639 369 678 403 713H424L444 678L488 639H568L570 643L485 775H372L203 643L202 639Z" glyph-name="uni1EBF" horiz-adv-x="542" unicode="&#7871;" /><glyph d="M485 0 523 118H223L153 102L144 114L180 173L210 272V328L222 337L274 321H522L559 433H321L252 416L244 428L279 488L304 571V625L316 634L367 618H668L707 736H222L-10 0ZM833 939 835 943 748 1050H580L578 1045L741 939ZM381 814 465 853 506 887H531L560 853L616 814H696L698 818L590 949H476L285 818L283 814Z" glyph-name="uni1EC0" horiz-adv-x="620" unicode="&#7872;" /><glyph d="M219 306 163 291 152 308C194 405 254 475 329 475C395 475 421 430 421 364C421 347 419 327 416 307L396 293L348 306ZM406 25 388 118C347 103 307 93 264 93C174 93 132 139 127 227L145 242L226 226H492C514 291 523 340 523 384C523 489 459 566 340 566C263 566 197 534 144 481C76 413 30 302 30 201C30 71 103 -6 248 -7C305 -7 357 3 406 25ZM703 762 705 766 629 866H482L480 862L626 762ZM301 639 369 678 403 713H423L444 678L488 639H568L569 643L485 775H372L203 643L202 639Z" glyph-name="uni1EC1" horiz-adv-x="542" unicode="&#7873;" /><glyph d="M485 0 523 118H223L153 102L144 114L180 173L210 272V328L222 337L274 321H522L559 433H321L252 416L244 428L279 488L304 571V625L316 634L367 618H668L707 736H222L-10 0ZM761 921C861 969 891 997 891 1035C891 1062 866 1081 799 1081H671L651 1017H752C780 1017 789 1014 789 1006C789 992 766 976 679 932L675 921ZM381 814 465 853 506 887H531L560 853L616 814H696L698 818L590 949H476L285 818L283 814Z" glyph-name="uni1EC2" horiz-adv-x="620" unicode="&#7874;" /><glyph d="M219 306 163 291 152 308C194 405 254 475 329 475C395 475 421 430 421 364C421 347 419 327 416 307L396 293L348 306ZM406 25 388 118C347 103 307 93 264 93C174 93 132 139 127 227L145 242L226 226H492C514 291 523 340 523 384C523 489 459 566 340 566C263 566 197 534 144 481C76 413 30 302 30 201C30 71 103 -6 248 -7C305 -7 357 3 406 25ZM536 845H624C647 845 654 840 654 833C654 819 632 804 556 760L553 749H630C717 797 749 827 749 860C749 889 725 907 666 907H556ZM300 639 369 678 404 713H424L444 678L489 639H568L570 643L485 775H372L204 643L202 639Z" glyph-name="uni1EC3" horiz-adv-x="542" unicode="&#7875;" /><glyph d="M485 0 523 118H223L153 102L144 114L180 173L210 272V328L222 337L274 321H522L559 433H321L252 416L244 428L279 488L304 571V625L316 634L367 618H668L707 736H222L-10 0ZM407 982C455 1043 476 1057 493 1057C506 1057 515 1053 551 1027C594 997 616 988 640 988C682 988 710 1010 781 1108L732 1136C685 1076 665 1061 649 1061C635 1061 627 1065 590 1091C548 1120 525 1130 501 1130C460 1130 433 1111 359 1010ZM381 814 465 853 506 887H531L560 853L616 814H696L698 818L590 949H476L285 818L283 814Z" glyph-name="uni1EC4" horiz-adv-x="620" unicode="&#7876;" /><glyph d="M219 306 163 291 152 308C194 405 254 475 329 475C395 475 421 430 421 364C421 347 419 327 416 307L396 293L348 306ZM406 25 388 118C347 103 307 93 264 93C174 93 132 139 127 227L145 242L226 226H492C514 291 523 340 523 384C523 489 459 566 340 566C263 566 197 534 144 481C76 413 30 302 30 201C30 71 103 -6 248 -7C305 -7 357 3 406 25ZM321 812C367 870 381 884 396 884C408 884 415 880 447 854C483 825 500 815 524 815C561 815 592 840 655 935L609 962C562 900 548 889 534 889C522 889 516 893 483 919C445 949 429 958 406 958C369 958 338 933 274 838ZM301 639 369 678 403 712H424L444 678L488 639H568L570 643L485 774H372L203 643L202 639Z" glyph-name="uni1EC5" horiz-adv-x="542" unicode="&#7877;" /></font>
</defs>
</svg>
