<?xml version="1.0" encoding="UTF-8"?>
<svg viewBox="0 0 16 16" version="1.1" xmlns="http://www.w3.org/2000/svg" xmlns:xlink="http://www.w3.org/1999/xlink">
    <!-- Generator: Sketch 44.1 (41455) - http://www.bohemiancoding.com/sketch -->
    <title>Shape</title>
    <desc>Created with Sketch.</desc>
    <defs></defs>
    <g id="Page-2---Final" stroke="none" stroke-width="1" fill-rule="evenodd">
        <g id="1home_4.3" transform="translate(-1093.000000, -80.000000)" fill-rule="nonzero">
            <g id="Group-2" transform="translate(1082.000000, 44.000000)">
                <path d="M22.6462857,39.1542857 C22.6828571,39.1737143 22.7222857,39.1925714 22.7565714,39.2142857 C23,39.3462857 23.2742857,39.4285714 23.5714286,39.4285714 C24.5188571,39.4285714 25.2857143,38.6611429 25.2857143,37.7142857 C25.2857143,36.7674286 24.5188571,36 23.5714286,36 C22.6251429,36 21.8571429,36.7674286 21.8571429,37.7142857 C21.8571429,38.32 22.1731429,38.8485714 22.6462857,39.1542857 Z M14.4285714,46.2862857 C14.4285714,45.1434286 14.4285714,40.572 14.4285714,40.572 C14.4285714,40.572 14.4314286,40.3148571 14.5645714,40 C13.3765714,40 12.1428571,40 12.1428571,40 C12.1428571,40 11,40 11,41.1434286 L11,45.1434286 C11,46.2862857 12.1428571,46.2862857 12.1428571,46.2862857 L12.1428571,52.0005714 L15.5714286,52.0005714 L15.5714286,47.4291429 C15.5714286,47.4291429 14.4285714,47.4291429 14.4285714,46.2862857 Z M23.5714286,46.2862857 C23.5714286,45.1434286 23.5714286,40.572 23.5714286,40.572 C23.5714286,40.572 23.5685714,40.3148571 23.4354286,40 C24.6234286,40 25.8571429,40 25.8571429,40 C25.8571429,40 27,40 27,41.1434286 L27,45.1434286 C27,46.2862857 25.8571429,46.2862857 25.8571429,46.2862857 L25.8571429,52.0005714 L22.4285714,52.0005714 L22.4285714,47.4291429 C22.4285714,47.4291429 23.5714286,47.4291429 23.5714286,46.2862857 Z M19,39.4285714 C19.9468571,39.4285714 20.7142857,38.6611429 20.7142857,37.7142857 C20.7142857,36.7674286 19.9468571,36 19,36 C18.0531429,36 17.2857143,36.7674286 17.2857143,37.7142857 C17.2857143,38.6611429 18.0531429,39.4285714 19,39.4285714 Z M14.4285714,39.4285714 C13.4817143,39.4285714 12.7142857,38.6611429 12.7142857,37.7142857 C12.7142857,36.7674286 13.4817143,36 14.4285714,36 C15.3754286,36 16.1428571,36.7674286 16.1428571,37.7142857 C16.1428571,38.3211429 15.8262857,38.8502857 15.3514286,39.1548571 C15.3154286,39.1748571 15.2777143,39.1931429 15.244,39.2137143 C15.0005714,39.3462857 14.7257143,39.4285714 14.4285714,39.4285714 Z M19,40 L19,52.0005714 L16.7142857,52.0005714 L16.7142857,46.2862857 C16.7142857,46.2862857 15.5714286,46.2862857 15.5714286,45.1434286 L15.5714286,41.1434286 C15.5714286,40 16.7142857,40 16.7142857,40 C16.7142857,40 17.4761905,40 19,40 Z M19,40 C20.5238095,40 21.2857143,40 21.2857143,40 C21.2857143,40 22.4285714,40 22.4285714,41.1434286 L22.4285714,45.1434286 C22.4285714,46.2862857 21.2857143,46.2862857 21.2857143,46.2862857 L21.2857143,52.0005714 L19,52.0005714 L19,40 Z" id="Shape"></path>
            </g>
        </g>
    </g>
</svg>
