<svg viewBox="0 0 22 22" xmlns="http://www.w3.org/2000/svg"><title>Combined Shape</title><path d="M11 22C4.925 22 0 17.075 0 11S4.925 0 11 0s11 4.925 11 11-4.925 11-11 11zM7.61 8.816c0 .22.093.423.277.612.183.189.409.283.676.283.454 0 .762-.27.924-.81.172-.515.382-.905.63-1.17.249-.265.635-.398 1.16-.398.45 0 .816.132 1.1.394.284.263.426.585.426.967a1.1 1.1 0 0 1-.14.544 2.054 2.054 0 0 1-.344.455c-.136.136-.356.338-.662.605-.349.306-.625.57-.83.792-.206.222-.37.48-.495.773-.124.294-.186.64-.186 1.042 0 .32.085.56.254.723.17.163.379.244.627.244.477 0 .761-.249.852-.745.053-.234.092-.398.118-.49.026-.094.063-.187.111-.28.048-.093.12-.196.219-.308a4.97 4.97 0 0 1 .39-.39c.587-.525.994-.899 1.22-1.12.228-.223.423-.487.588-.792.165-.306.247-.661.247-1.067 0-.516-.144-.993-.433-1.433-.289-.439-.698-.786-1.228-1.042-.53-.255-1.141-.383-1.834-.383-.744 0-1.396.153-1.955.459-.558.305-.983.69-1.274 1.156-.292.466-.437.925-.437 1.379zm3.496 7.849c.281 0 .53-.096.744-.287.215-.19.323-.453.323-.788 0-.3-.103-.553-.308-.759a1.032 1.032 0 0 0-.76-.308c-.305 0-.563.103-.773.308a1.02 1.02 0 0 0-.315.76c0 .338.109.602.326.79.217.19.471.284.763.284z" fill="#dedfe3" fill-rule="evenodd"/></svg>
