<?xml version="1.0" standalone="no"?><!DOCTYPE svg PUBLIC "-//W3C//DTD SVG 1.1//EN" "http://www.w3.org/Graphics/SVG/1.1/DTD/svg11.dtd" ><svg version="1.1" xmlns="http://www.w3.org/2000/svg"><defs><font horiz-adv-x="0" id="font"><font-face ascent="800" bbox="-222 -240 1085 963" cap-height="700" descent="-200" font-family="Retina" font-stretch="normal" font-style="italic" font-weight="250" units-per-em="1000" x-height="508" /><missing-glyph d="M100 -240H600V960H100ZM192 910H507L350 429ZM321 360 150 -154V874ZM378 360 550 874V-154ZM350 291 507 -190H192Z" horiz-adv-x="700" /><glyph d="M508 219H160L442 667ZM541 0H573L465 712H437L-14 0H22L142 190H513Z" glyph-name="A" horiz-adv-x="681" unicode="A" /><glyph d="M507 219H198L594 672H615ZM454 0H891L899 29H492L568 345H926L934 374H575L647 671H1048L1055 700H580L-33 0H7L173 190H500Z" glyph-name="AE" horiz-adv-x="1017" unicode="&#198;" /><glyph d="M507 219H198L594 672H615ZM454 0H891L899 29H492L568 345H926L934 374H575L647 671H1048L1055 700H580L-33 0H7L173 190H500ZM721 758 875 853H816L684 758Z" glyph-name="AEacute" horiz-adv-x="1017" unicode="&#508;" /><glyph d="M508 219H160L442 667ZM541 0H573L465 712H437L-14 0H22L142 190H513ZM456 765 610 860H551L419 765Z" glyph-name="Aacute" horiz-adv-x="681" unicode="&#193;" /><glyph d="M508 219H160L442 667ZM541 0H573L465 712H437L-14 0H22L142 190H513ZM469 795C430 795 411 819 410 860H383C376 801 409 764 465 764C519 764 564 801 585 860H554C537 819 508 795 469 795Z" glyph-name="Abreve" horiz-adv-x="681" unicode="&#258;" /><glyph d="M508 219H160L442 667ZM541 0H573L465 712H437L-14 0H22L142 190H513ZM478 828 539 765H571L502 860H468L354 765H389Z" glyph-name="Acircumflex" horiz-adv-x="681" unicode="&#194;" /><glyph d="M508 219H160L442 667ZM541 0H573L465 712H437L-14 0H22L142 190H513ZM410 765 424 827H385L371 765ZM554 765 568 827H529L515 765Z" glyph-name="Adieresis" horiz-adv-x="681" unicode="&#196;" /><glyph d="M508 219H160L442 667ZM541 0H573L465 712H437L-14 0H22L142 190H513ZM471 765H503L416 860H362Z" glyph-name="Agrave" horiz-adv-x="681" unicode="&#192;" /><glyph d="M508 219H160L442 667ZM541 0H573L465 712H437L-14 0H22L142 190H513ZM591 772 599 803H343L335 772Z" glyph-name="Amacron" horiz-adv-x="681" unicode="&#256;" /><glyph d="M508 219H160L442 667ZM562 -118C510 -114 495 -107 495 -92C495 -79 503 -64 566 0H573L465 712H437L-14 0H22L142 190H513L541 3C472 -59 460 -77 460 -99C460 -125 484 -140 552 -144Z" glyph-name="Aogonek" horiz-adv-x="681" unicode="&#260;" /><glyph d="M452 704C417 704 396 727 396 756C396 796 431 833 477 833C513 833 533 810 533 781C533 741 499 704 452 704ZM509 219H160L443 668ZM541 0H573L470 682C523 692 560 736 560 783C560 824 529 857 481 857C417 857 369 807 369 754C369 722 388 694 420 684L-14 0H22L142 190H513Z" glyph-name="Aring" horiz-adv-x="681" unicode="&#197;" /><glyph d="M487 889 614 962H555L451 889ZM452 704C417 704 396 727 396 756C396 796 431 833 477 833C513 833 533 810 533 781C533 741 499 704 452 704ZM509 219H160L443 668ZM541 0H573L470 682C523 692 560 736 560 783C560 824 529 857 481 857C417 857 369 807 369 754C369 722 388 694 420 684L-14 0H22L142 190H513Z" glyph-name="Aringacute" horiz-adv-x="681" unicode="&#506;" /><glyph d="M508 219H160L442 667ZM541 0H573L465 712H437L-14 0H22L142 190H513ZM422 816C434 816 440 813 465 793C492 773 505 765 523 765C553 765 573 786 606 837L582 848C553 807 541 797 528 797C516 797 510 800 484 820C458 840 444 847 427 847C396 847 377 827 343 776L367 764C396 806 409 816 422 816Z" glyph-name="Atilde" horiz-adv-x="681" unicode="&#195;" /><glyph d="M430 671C536 671 594 624 594 551C594 454 496 377 334 377H174L245 671ZM301 348C454 348 533 290 533 205C533 99 440 29 306 29H90L167 348ZM51 0H299C460 0 565 84 565 202C565 288 504 342 405 359C527 374 626 445 626 555C626 642 557 700 434 700H220Z" glyph-name="B" horiz-adv-x="648" unicode="B" /><glyph d="M352 -9C414 -9 466 3 519 23L509 52C459 32 410 21 355 21C210 21 120 118 120 277C120 397 167 512 241 586C298 643 373 679 454 679C521 679 574 663 632 628L649 655C593 688 535 709 456 709C365 709 282 670 216 605C137 525 88 405 88 275C88 96 195 -9 352 -9Z" glyph-name="C" horiz-adv-x="610" unicode="C" /><glyph d="M352 -9C414 -9 466 3 519 23L509 52C459 32 410 21 355 21C210 21 120 118 120 277C120 397 167 512 241 586C298 643 373 679 454 679C521 679 574 663 632 628L649 655C593 688 535 709 456 709C365 709 282 670 216 605C137 525 88 405 88 275C88 96 195 -9 352 -9ZM477 765 631 860H572L440 765Z" glyph-name="Cacute" horiz-adv-x="610" unicode="&#262;" /><glyph d="M352 -9C414 -9 466 3 519 23L509 52C459 32 410 21 355 21C210 21 120 118 120 277C120 397 167 512 241 586C298 643 373 679 454 679C521 679 574 663 632 628L649 655C593 688 535 709 456 709C365 709 282 670 216 605C137 525 88 405 88 275C88 96 195 -9 352 -9ZM489 798 429 860H397L466 765H500L614 860H579Z" glyph-name="Ccaron" horiz-adv-x="610" unicode="&#268;" /><glyph d="M355 -84C355 -59 334 -47 293 -43L323 -8C332 -9 342 -9 352 -9C414 -9 466 3 519 23L509 52C459 32 410 21 355 21C210 21 120 118 120 277C120 397 167 512 241 586C298 643 373 679 454 679C521 679 574 663 632 628L649 655C593 688 535 709 456 709C365 709 282 670 216 605C137 525 88 405 88 275C88 118 171 18 297 -4L259 -51L264 -63C307 -65 321 -72 321 -86C321 -102 302 -115 218 -117L216 -141C319 -140 355 -117 355 -84Z" glyph-name="Ccedilla" horiz-adv-x="610" unicode="&#199;" /><glyph d="M352 -9C414 -9 466 3 519 23L509 52C459 32 410 21 355 21C210 21 120 118 120 277C120 397 167 512 241 586C298 643 373 679 454 679C521 679 574 663 632 628L649 655C593 688 535 709 456 709C365 709 282 670 216 605C137 525 88 405 88 275C88 96 195 -9 352 -9ZM499 828 560 765H592L523 860H489L375 765H410Z" glyph-name="Ccircumflex" horiz-adv-x="610" unicode="&#264;" /><glyph d="M352 -9C414 -9 466 3 519 23L509 52C459 32 410 21 355 21C210 21 120 118 120 277C120 397 167 512 241 586C298 643 373 679 454 679C521 679 574 663 632 628L649 655C593 688 535 709 456 709C365 709 282 670 216 605C137 525 88 405 88 275C88 96 195 -9 352 -9ZM503 765 517 827H478L464 765Z" glyph-name="Cdotaccent" horiz-adv-x="610" unicode="&#266;" /><glyph d="M339 671C518 671 615 578 615 428C615 307 574 206 507 138C437 69 337 29 221 29H90L245 671ZM51 0H214C346 0 456 44 530 117C603 190 647 298 647 430C647 599 532 700 347 700H220Z" glyph-name="D" horiz-adv-x="688" unicode="D" /><glyph d="M339 671C518 671 615 578 615 428C615 307 574 206 507 138C437 69 337 29 221 29H90L245 671ZM51 0H214C346 0 456 44 530 117C603 190 647 298 647 430C647 599 532 700 347 700H220ZM466 791 406 853H374L443 758H477L591 853H556Z" glyph-name="Dcaron" horiz-adv-x="688" unicode="&#270;" /><glyph d="M374 345 381 374H183L255 671H348C527 671 625 578 625 428C625 307 584 206 516 138C447 69 347 29 230 29H99L176 345ZM61 0H224C355 0 466 44 539 117C612 190 657 298 657 430C657 599 542 700 357 700H229L151 374H62L54 345H144Z" glyph-name="Dcroat" horiz-adv-x="697" unicode="&#272;" /><glyph d="M51 0H490L497 29H90L166 345H525L532 374H173L245 671H646L654 700H220Z" glyph-name="E" horiz-adv-x="616" unicode="E" /><glyph d="M51 0H490L497 29H90L166 345H525L532 374H173L245 671H646L654 700H220ZM454 758 608 853H549L417 758Z" glyph-name="Eacute" horiz-adv-x="616" unicode="&#201;" /><glyph d="M51 0H490L497 29H90L166 345H525L532 374H173L245 671H646L654 700H220ZM467 788C428 788 409 812 408 853H381C374 794 407 757 463 757C517 757 562 794 583 853H552C535 812 506 788 467 788Z" glyph-name="Ebreve" horiz-adv-x="616" unicode="&#276;" /><glyph d="M51 0H490L497 29H90L166 345H525L532 374H173L245 671H646L654 700H220ZM466 791 406 853H374L443 758H477L591 853H556Z" glyph-name="Ecaron" horiz-adv-x="616" unicode="&#282;" /><glyph d="M51 0H490L497 29H90L166 345H525L532 374H173L245 671H646L654 700H220ZM476 821 537 758H569L500 853H466L352 758H387Z" glyph-name="Ecircumflex" horiz-adv-x="616" unicode="&#202;" /><glyph d="M51 0H490L497 29H90L166 345H525L532 374H173L245 671H646L654 700H220ZM408 758 422 820H383L369 758ZM552 758 566 820H527L513 758Z" glyph-name="Edieresis" horiz-adv-x="616" unicode="&#203;" /><glyph d="M51 0H490L497 29H90L166 345H525L532 374H173L245 671H646L654 700H220ZM480 758 494 820H455L441 758Z" glyph-name="Edotaccent" horiz-adv-x="616" unicode="&#278;" /><glyph d="M51 0H490L497 29H90L166 345H525L532 374H173L245 671H646L654 700H220ZM469 758H501L414 853H360Z" glyph-name="Egrave" horiz-adv-x="616" unicode="&#200;" /><glyph d="M51 0H490L497 29H90L166 345H525L532 374H173L245 671H646L654 700H220ZM589 765 597 796H341L333 765Z" glyph-name="Emacron" horiz-adv-x="616" unicode="&#274;" /><glyph d="M352 -177C443 -177 512 -120 540 -4L709 700H678L521 48L256 700H220L51 0H82L240 658L509 -6C487 -94 428 -148 355 -148C319 -148 292 -140 264 -128L257 -158C288 -172 317 -177 352 -177Z" glyph-name="Eng" horiz-adv-x="714" unicode="&#330;" /><glyph d="M459 -118C407 -114 392 -107 392 -92C392 -79 400 -64 463 0H490L497 29H90L166 345H525L532 374H173L245 671H646L654 700H220L51 0H435C369 -59 357 -77 357 -99C357 -125 381 -140 449 -144Z" glyph-name="Eogonek" horiz-adv-x="616" unicode="&#280;" /><glyph d="M374 345 381 374H183L255 671H348C527 671 625 578 625 428C625 307 584 206 516 138C447 69 347 29 230 29H99L176 345ZM61 0H224C355 0 466 44 539 117C612 190 657 298 657 430C657 599 542 700 357 700H229L151 374H62L54 345H144Z" glyph-name="Eth" horiz-adv-x="697" unicode="&#208;" /><glyph d="M465 8 461 37C429 28 394 23 359 23C245 23 163 91 163 245V253H460L467 282H164C168 327 177 372 192 415H499L506 444H202C226 505 258 559 295 596C343 644 405 677 483 677C530 677 577 663 610 648L625 678C585 695 541 707 487 707C399 707 327 671 273 617C230 574 193 513 167 444H87L79 415H157C144 373 136 328 132 282H48L41 253H131V243C131 73 224 -7 357 -7C397 -7 432 -2 465 8Z" glyph-name="Euro" horiz-adv-x="583" unicode="&#8364;" /><glyph d="M437 12 433 41C399 29 361 23 326 23C208 23 138 95 138 235V253H427L433 282H140C144 326 154 372 168 415H463L470 444H179C202 504 235 559 275 599C326 650 390 677 458 677C499 677 536 668 568 655L583 684C550 698 507 707 460 707C381 707 308 675 251 617C206 573 170 512 145 444H62L55 415H135C122 372 113 327 109 282H26L19 253H107V234C107 77 188 -7 325 -7C364 -7 402 0 437 12Z" glyph-name="Euro.tab" horiz-adv-x="564" /><glyph d="M467 322 474 351H168L245 671H646L654 700H220L51 0H83L161 322Z" glyph-name="F" horiz-adv-x="578" unicode="F" /><glyph d="M552 45 627 346H383L376 317H589L525 64C471 34 411 20 351 20C200 20 119 126 119 271C119 392 165 510 239 585C298 643 377 680 468 680C544 680 610 655 661 621L677 648C621 685 549 710 471 710C368 710 279 668 215 604C136 525 87 400 87 271C87 105 187 -9 346 -9C423 -9 489 9 552 45Z" glyph-name="G" horiz-adv-x="698" unicode="G" /><glyph d="M552 45 627 346H383L376 317H589L525 64C471 34 411 20 351 20C200 20 119 126 119 271C119 392 165 510 239 585C298 643 377 680 468 680C544 680 610 655 661 621L677 648C621 685 549 710 471 710C368 710 279 668 215 604C136 525 87 400 87 271C87 105 187 -9 346 -9C423 -9 489 9 552 45ZM493 795C454 795 435 819 434 860H407C400 801 433 764 489 764C543 764 588 801 609 860H578C561 819 532 795 493 795Z" glyph-name="Gbreve" horiz-adv-x="698" unicode="&#286;" /><glyph d="M552 45 627 346H383L376 317H589L525 64C471 34 411 20 351 20C200 20 119 126 119 271C119 392 165 510 239 585C298 643 377 680 468 680C544 680 610 655 661 621L677 648C621 685 549 710 471 710C368 710 279 668 215 604C136 525 87 400 87 271C87 105 187 -9 346 -9C423 -9 489 9 552 45ZM492 798 432 860H400L469 765H503L617 860H582Z" glyph-name="Gcaron" horiz-adv-x="698" unicode="&#486;" /><glyph d="M552 45 627 346H383L376 317H589L525 64C471 34 411 20 351 20C200 20 119 126 119 271C119 392 165 510 239 585C298 643 377 680 468 680C544 680 610 655 661 621L677 648C621 685 549 710 471 710C368 710 279 668 215 604C136 525 87 400 87 271C87 105 187 -9 346 -9C423 -9 489 9 552 45ZM502 828 563 765H595L526 860H492L378 765H413Z" glyph-name="Gcircumflex" horiz-adv-x="698" unicode="&#284;" /><glyph d="M552 45 627 346H383L376 317H589L525 64C471 34 411 20 351 20C200 20 119 126 119 271C119 392 165 510 239 585C298 643 377 680 468 680C544 680 610 655 661 621L677 648C621 685 549 710 471 710C368 710 279 668 215 604C136 525 87 400 87 271C87 105 187 -9 346 -9C423 -9 489 9 552 45ZM506 765 520 827H481L467 765Z" glyph-name="Gdotaccent" horiz-adv-x="698" unicode="&#288;" /><glyph d="M510 0H541L710 700H678L600 374H173L252 700H220L51 0H83L166 345H593Z" glyph-name="H" horiz-adv-x="714" unicode="H" /><glyph d="M609 374H182L223 542H650ZM519 0H551L682 542H770L777 570H689L720 700H688L657 570H230L261 700H229L198 570H108L102 542H191L61 0H92L175 345H602Z" glyph-name="Hbar" horiz-adv-x="733" unicode="&#294;" /><glyph d="M510 0H541L710 700H678L600 374H173L252 700H220L51 0H83L166 345H593ZM493 821 554 758H586L517 853H483L369 758H404Z" glyph-name="Hcircumflex" horiz-adv-x="714" unicode="&#292;" /><glyph d="M87 0 256 700H224L55 0Z" glyph-name="I" horiz-adv-x="264" unicode="I" /><glyph d="M87 0 256 700H224L55 0ZM247 758 401 853H342L210 758Z" glyph-name="Iacute" horiz-adv-x="264" unicode="&#205;" /><glyph d="M87 0 256 700H224L55 0ZM260 788C221 788 202 812 201 853H174C167 794 200 757 256 757C310 757 355 794 376 853H345C328 812 299 788 260 788Z" glyph-name="Ibreve" horiz-adv-x="264" unicode="&#300;" /><glyph d="M87 0 256 700H224L55 0ZM269 821 330 758H362L293 853H259L145 758H180Z" glyph-name="Icircumflex" horiz-adv-x="264" unicode="&#206;" /><glyph d="M87 0 256 700H224L55 0ZM201 758 215 820H176L162 758ZM345 758 359 820H320L306 758Z" glyph-name="Idieresis" horiz-adv-x="264" unicode="&#207;" /><glyph d="M87 0 256 700H224L55 0ZM273 758 287 820H248L234 758Z" glyph-name="Idotaccent" horiz-adv-x="264" unicode="&#304;" /><glyph d="M87 0 256 700H224L55 0ZM262 758H294L207 853H153Z" glyph-name="Igrave" horiz-adv-x="264" unicode="&#204;" /><glyph d="M87 0 256 700H224L55 0ZM365 765 373 796H151L143 765Z" glyph-name="Imacron" horiz-adv-x="264" unicode="&#298;" /><glyph d="M82 -118C30 -114 15 -107 15 -92C15 -79 23 -64 86 0H87L256 700H224L55 0H58C-8 -59 -20 -77 -20 -99C-20 -125 4 -140 72 -144Z" glyph-name="Iogonek" horiz-adv-x="264" unicode="&#302;" /><glyph d="M87 0 256 700H224L55 0ZM213 809C225 809 231 806 256 786C283 766 296 758 314 758C344 758 364 779 397 830L373 841C344 800 332 790 319 790C307 790 301 793 275 813C249 833 235 840 218 840C187 840 168 820 134 769L158 757C187 799 200 809 213 809Z" glyph-name="Itilde" horiz-adv-x="264" unicode="&#296;" /><glyph d="M352 207 469 700H437L321 212C291 91 225 21 123 21C77 21 34 33 -6 55L-20 28C26 4 74 -8 121 -8C243 -8 318 71 352 207Z" glyph-name="J" horiz-adv-x="464" unicode="J" /><glyph d="M352 207 469 700H437L321 212C291 91 225 21 123 21C77 21 34 33 -6 55L-20 28C26 4 74 -8 121 -8C243 -8 318 71 352 207ZM483 821 544 758H576L507 853H473L359 758H394Z" glyph-name="Jcircumflex" horiz-adv-x="464" unicode="&#308;" /><glyph d="M486 0H529L221 360L688 700H640L193 374H173L252 700H220L51 0H83L167 348H189Z" glyph-name="K" horiz-adv-x="615" unicode="K" /><glyph d="M51 0H450L457 29H90L252 700H220Z" glyph-name="L" horiz-adv-x="542" unicode="L" /><glyph d="M51 0H450L457 29H90L252 700H220ZM249 758 403 853H344L212 758Z" glyph-name="Lacute" horiz-adv-x="542" unicode="&#313;" /><glyph d="M51 0H450L457 29H90L252 700H220ZM390 701H361C346 631 333 604 307 570L319 562C355 602 374 629 390 701Z" glyph-name="Lcaron" horiz-adv-x="542" unicode="&#317;" /><glyph d="M61 0H459L467 29H99L170 325L381 431L388 466L179 360L261 700H229L143 343L41 292L33 257L135 308Z" glyph-name="Lslash" horiz-adv-x="552" unicode="&#321;" /><glyph d="M711 0H743L878 700H841L397 43L274 700H242L39 0H71L255 646L377 -2H400L840 650Z" glyph-name="M" horiz-adv-x="904" unicode="M" /><glyph d="M507 0H541L709 700H678L521 48L256 700H220L51 0H82L240 658Z" glyph-name="N" horiz-adv-x="714" unicode="N" /><glyph d="M507 0H541L709 700H678L521 48L256 700H220L51 0H82L240 658ZM474 753 628 848H569L437 753Z" glyph-name="Nacute" horiz-adv-x="714" unicode="&#323;" /><glyph d="M507 0H541L709 700H678L521 48L256 700H220L51 0H82L240 658ZM486 786 426 848H394L463 753H497L611 848H576Z" glyph-name="Ncaron" horiz-adv-x="714" unicode="&#327;" /><glyph d="M507 0H541L709 700H678L521 48L256 700H220L51 0H82L240 658ZM442 809C454 809 460 806 485 786C512 766 525 758 543 758C573 758 593 779 626 830L602 841C573 800 561 790 548 790C536 790 530 793 504 813C478 833 464 840 447 840C416 840 397 820 363 769L387 757C416 799 429 809 442 809Z" glyph-name="Ntilde" horiz-adv-x="714" unicode="&#209;" /><glyph d="M329 -12C411 -12 484 24 545 85C627 167 681 306 681 443C681 610 582 712 438 712C356 712 282 676 222 615C140 533 85 394 85 257C85 90 185 -12 329 -12ZM435 683C564 683 650 590 650 440C650 313 597 180 519 102C468 50 402 17 332 17C203 17 117 110 117 260C117 387 170 520 248 598C299 650 365 683 435 683Z" glyph-name="O" horiz-adv-x="720" unicode="O" /><glyph d="M397 29C221 29 120 123 120 273C120 393 161 494 229 562C298 631 398 671 515 671H645L491 29ZM388 0H921L929 29H522L598 345H956L964 374H605L677 671H1078L1085 700H521C389 700 279 656 205 583C132 510 88 402 88 270C88 102 207 0 388 0Z" glyph-name="OE" horiz-adv-x="1047" unicode="&#338;" /><glyph d="M329 -12C411 -12 484 24 545 85C627 167 681 306 681 443C681 610 582 712 438 712C356 712 282 676 222 615C140 533 85 394 85 257C85 90 185 -12 329 -12ZM435 683C564 683 650 590 650 440C650 313 597 180 519 102C468 50 402 17 332 17C203 17 117 110 117 260C117 387 170 520 248 598C299 650 365 683 435 683ZM463 765 617 860H558L426 765Z" glyph-name="Oacute" horiz-adv-x="720" unicode="&#211;" /><glyph d="M329 -12C411 -12 484 24 545 85C627 167 681 306 681 443C681 610 582 712 438 712C356 712 282 676 222 615C140 533 85 394 85 257C85 90 185 -12 329 -12ZM435 683C564 683 650 590 650 440C650 313 597 180 519 102C468 50 402 17 332 17C203 17 117 110 117 260C117 387 170 520 248 598C299 650 365 683 435 683ZM476 795C437 795 418 819 417 860H390C383 801 416 764 472 764C526 764 571 801 592 860H561C544 819 515 795 476 795Z" glyph-name="Obreve" horiz-adv-x="720" unicode="&#334;" /><glyph d="M329 -12C411 -12 484 24 545 85C627 167 681 306 681 443C681 610 582 712 438 712C356 712 282 676 222 615C140 533 85 394 85 257C85 90 185 -12 329 -12ZM435 683C564 683 650 590 650 440C650 313 597 180 519 102C468 50 402 17 332 17C203 17 117 110 117 260C117 387 170 520 248 598C299 650 365 683 435 683ZM485 828 546 765H578L509 860H475L361 765H396Z" glyph-name="Ocircumflex" horiz-adv-x="720" unicode="&#212;" /><glyph d="M329 -12C411 -12 484 24 545 85C627 167 681 306 681 443C681 610 582 712 438 712C356 712 282 676 222 615C140 533 85 394 85 257C85 90 185 -12 329 -12ZM435 683C564 683 650 590 650 440C650 313 597 180 519 102C468 50 402 17 332 17C203 17 117 110 117 260C117 387 170 520 248 598C299 650 365 683 435 683ZM417 765 431 827H392L378 765ZM561 765 575 827H536L522 765Z" glyph-name="Odieresis" horiz-adv-x="720" unicode="&#214;" /><glyph d="M329 -12C411 -12 484 24 545 85C627 167 681 306 681 443C681 610 582 712 438 712C356 712 282 676 222 615C140 533 85 394 85 257C85 90 185 -12 329 -12ZM435 683C564 683 650 590 650 440C650 313 597 180 519 102C468 50 402 17 332 17C203 17 117 110 117 260C117 387 170 520 248 598C299 650 365 683 435 683ZM478 765H510L423 860H369Z" glyph-name="Ograve" horiz-adv-x="720" unicode="&#210;" /><glyph d="M435 680C564 680 650 588 650 439C650 312 597 179 519 101C468 50 402 17 332 17C203 17 117 109 117 258C117 385 170 518 248 596C299 647 365 680 435 680ZM545 84C627 166 681 305 681 441C681 554 634 638 557 679C677 670 743 723 743 798C743 811 742 820 738 830L708 819C710 811 712 802 712 794C712 739 668 702 578 702C533 702 496 709 439 709C356 709 282 674 222 613C140 531 85 392 85 256C85 90 185 -12 329 -12C411 -12 484 23 545 84Z" glyph-name="Ohorn" horiz-adv-x="720" unicode="&#416;" /><glyph d="M329 -12C411 -12 484 24 545 85C627 167 681 306 681 443C681 610 582 712 438 712C356 712 282 676 222 615C140 533 85 394 85 257C85 90 185 -12 329 -12ZM435 683C564 683 650 590 650 440C650 313 597 180 519 102C468 50 402 17 332 17C203 17 117 110 117 260C117 387 170 520 248 598C299 650 365 683 435 683ZM406 765 557 860H500L370 765ZM535 765 686 860H630L500 765Z" glyph-name="Ohungarumlaut" horiz-adv-x="720" unicode="&#336;" /><glyph d="M329 -12C411 -12 484 24 545 85C627 167 681 306 681 443C681 610 582 712 438 712C356 712 282 676 222 615C140 533 85 394 85 257C85 90 185 -12 329 -12ZM435 683C564 683 650 590 650 440C650 313 597 180 519 102C468 50 402 17 332 17C203 17 117 110 117 260C117 387 170 520 248 598C299 650 365 683 435 683ZM598 772 606 803H350L342 772Z" glyph-name="Omacron" horiz-adv-x="720" unicode="&#332;" /><glyph d="M117 260C117 387 170 520 248 598C299 650 365 683 435 683C501 683 556 659 593 615L156 109C131 148 117 199 117 260ZM332 17C266 17 211 41 174 85L611 591C636 552 650 501 650 440C650 313 597 180 519 102C468 50 402 17 332 17ZM329 -12C411 -12 484 24 545 85C627 167 681 306 681 443C681 513 664 571 633 616L753 751H715L615 638C573 686 511 712 438 712C356 712 282 676 222 615C140 533 85 394 85 257C85 187 103 128 134 84L14 -51H52L151 62C194 14 256 -12 329 -12Z" glyph-name="Oslash" horiz-adv-x="720" unicode="&#216;" /><glyph d="M117 260C117 387 170 520 248 598C299 650 365 683 435 683C501 683 556 659 593 615L156 109C131 148 117 199 117 260ZM332 17C266 17 211 41 174 85L611 591C636 552 650 501 650 440C650 313 597 180 519 102C468 50 402 17 332 17ZM329 -12C411 -12 484 24 545 85C627 167 681 306 681 443C681 513 664 571 633 616L753 751H715L615 638C573 686 511 712 438 712C356 712 282 676 222 615C140 533 85 394 85 257C85 187 103 128 134 84L14 -51H52L151 62C194 14 256 -12 329 -12ZM463 765 617 860H558L426 765Z" glyph-name="Oslashacute" horiz-adv-x="720" unicode="&#510;" /><glyph d="M329 -12C411 -12 484 24 545 85C627 167 681 306 681 443C681 610 582 712 438 712C356 712 282 676 222 615C140 533 85 394 85 257C85 90 185 -12 329 -12ZM435 683C564 683 650 590 650 440C650 313 597 180 519 102C468 50 402 17 332 17C203 17 117 110 117 260C117 387 170 520 248 598C299 650 365 683 435 683ZM429 816C441 816 447 813 472 793C499 773 512 765 530 765C560 765 580 786 613 837L589 848C560 807 548 797 535 797C523 797 517 800 491 820C465 840 451 847 434 847C403 847 384 827 350 776L374 764C403 806 416 816 429 816Z" glyph-name="Otilde" horiz-adv-x="720" unicode="&#213;" /><glyph d="M390 671C517 671 580 615 580 525C580 459 556 407 518 368C467 318 390 289 279 289H152L245 671ZM276 259C397 259 484 291 541 348C585 392 613 451 613 527C613 630 540 700 397 700H220L51 0H83L145 259Z" glyph-name="P" horiz-adv-x="601" unicode="P" /><glyph d="M590 -80 493 41C511 54 529 69 545 85C627 167 681 306 681 443C681 610 582 712 438 712C356 712 282 676 222 615C140 533 85 394 85 257C85 90 185 -12 329 -12C378 -12 424 1 466 24L548 -80ZM435 683C564 683 650 590 650 440C650 313 597 180 519 102C468 50 402 17 332 17C203 17 117 110 117 260C117 387 170 520 248 598C299 650 365 683 435 683Z" glyph-name="Q" horiz-adv-x="720" unicode="Q" /><glyph d="M417 671C536 671 589 612 589 532C589 480 570 436 535 400C483 349 387 320 293 320H160L245 671ZM267 291C344 291 374 267 412 202L530 0H570L436 222C411 264 392 284 358 298C510 320 622 401 622 538C622 632 552 700 421 700H220L51 0H83L153 291Z" glyph-name="R" horiz-adv-x="658" unicode="R" /><glyph d="M417 671C536 671 589 612 589 532C589 480 570 436 535 400C483 349 387 320 293 320H160L245 671ZM267 291C344 291 374 267 412 202L530 0H570L436 222C411 264 392 284 358 298C510 320 622 401 622 538C622 632 552 700 421 700H220L51 0H83L153 291ZM427 758 581 853H522L390 758Z" glyph-name="Racute" horiz-adv-x="658" unicode="&#340;" /><glyph d="M417 671C536 671 589 612 589 532C589 480 570 436 535 400C483 349 387 320 293 320H160L245 671ZM267 291C344 291 374 267 412 202L530 0H570L436 222C411 264 392 284 358 298C510 320 622 401 622 538C622 632 552 700 421 700H220L51 0H83L153 291ZM439 791 379 853H347L416 758H450L564 853H529Z" glyph-name="Rcaron" horiz-adv-x="658" unicode="&#344;" /><glyph d="M488 183C488 88 396 21 276 21C179 21 100 54 41 94L23 67C93 22 173 -8 274 -8C419 -8 520 72 520 185C520 263 471 310 337 376C219 436 175 470 175 534C175 612 249 679 364 679C446 679 515 654 572 617L590 643C530 681 455 708 366 708C230 708 143 628 143 533C143 454 195 411 320 350C444 286 488 245 488 183Z" glyph-name="S" horiz-adv-x="596" unicode="S" /><glyph d="M488 183C488 88 396 21 276 21C179 21 100 54 41 94L23 67C93 22 173 -8 274 -8C419 -8 520 72 520 185C520 263 471 310 337 376C219 436 175 470 175 534C175 612 249 679 364 679C446 679 515 654 572 617L590 643C530 681 455 708 366 708C230 708 143 628 143 533C143 454 195 411 320 350C444 286 488 245 488 183ZM411 765 565 860H506L374 765Z" glyph-name="Sacute" horiz-adv-x="596" unicode="&#346;" /><glyph d="M488 183C488 88 396 21 276 21C179 21 100 54 41 94L23 67C93 22 173 -8 274 -8C419 -8 520 72 520 185C520 263 471 310 337 376C219 436 175 470 175 534C175 612 249 679 364 679C446 679 515 654 572 617L590 643C530 681 455 708 366 708C230 708 143 628 143 533C143 454 195 411 320 350C444 286 488 245 488 183ZM423 798 363 860H331L400 765H434L548 860H513Z" glyph-name="Scaron" horiz-adv-x="596" unicode="&#352;" /><glyph d="M488 183C488 88 396 21 276 21C179 21 100 54 41 94L23 67C93 22 173 -8 274 -8C419 -8 520 72 520 185C520 263 471 310 337 376C219 436 175 470 175 534C175 612 249 679 364 679C446 679 515 654 572 617L590 643C530 681 455 708 366 708C230 708 143 628 143 533C143 454 195 411 320 350C444 286 488 245 488 183ZM433 828 494 765H526L457 860H423L309 765H344Z" glyph-name="Scircumflex" horiz-adv-x="596" unicode="&#348;" /><glyph d="M669 671 676 700H136L128 671H383L221 0H253L415 671Z" glyph-name="T" horiz-adv-x="600" unicode="T" /><glyph d="M485 348 492 377H344L415 671H669L676 700H136L128 671H383L312 377H165L157 348H305L221 0H253L337 348Z" glyph-name="Tbar" horiz-adv-x="600" unicode="&#358;" /><glyph d="M669 671 676 700H136L128 671H383L221 0H253L415 671ZM428 791 368 853H336L405 758H439L553 853H518Z" glyph-name="Tcaron" horiz-adv-x="600" unicode="&#356;" /><glyph d="M364 546C486 546 552 495 552 400C552 341 529 285 488 244C437 193 363 164 267 164H123L215 546ZM265 135C371 135 455 167 511 223C557 270 583 332 583 402C583 515 504 576 366 576H222L252 700H220L51 0H83L116 135Z" glyph-name="Thorn" horiz-adv-x="612" unicode="&#222;" /><glyph d="M587 239 696 700H665L557 243C521 102 431 19 317 19C205 19 132 86 132 199C132 224 136 261 143 289L240 700H208L112 293C104 262 99 225 99 196C99 68 190 -10 313 -10C448 -10 549 82 587 239Z" glyph-name="U" horiz-adv-x="690" unicode="U" /><glyph d="M587 239 696 700H665L557 243C521 102 431 19 317 19C205 19 132 86 132 199C132 224 136 261 143 289L240 700H208L112 293C104 262 99 225 99 196C99 68 190 -10 313 -10C448 -10 549 82 587 239ZM453 753 607 848H548L416 753Z" glyph-name="Uacute" horiz-adv-x="690" unicode="&#218;" /><glyph d="M587 239 696 700H665L557 243C521 102 431 19 317 19C205 19 132 86 132 199C132 224 136 261 143 289L240 700H208L112 293C104 262 99 225 99 196C99 68 190 -10 313 -10C448 -10 549 82 587 239ZM466 783C427 783 408 807 407 848H380C373 789 406 752 462 752C516 752 561 789 582 848H551C534 807 505 783 466 783Z" glyph-name="Ubreve" horiz-adv-x="690" unicode="&#364;" /><glyph d="M587 239 696 700H665L557 243C521 102 431 19 317 19C205 19 132 86 132 199C132 224 136 261 143 289L240 700H208L112 293C104 262 99 225 99 196C99 68 190 -10 313 -10C448 -10 549 82 587 239ZM476 821 537 758H569L500 853H466L352 758H387Z" glyph-name="Ucircumflex" horiz-adv-x="690" unicode="&#219;" /><glyph d="M587 239 696 700H665L557 243C521 102 431 19 317 19C205 19 132 86 132 199C132 224 136 261 143 289L240 700H208L112 293C104 262 99 225 99 196C99 68 190 -10 313 -10C448 -10 549 82 587 239ZM408 758 422 820H383L369 758ZM552 758 566 820H527L513 758Z" glyph-name="Udieresis" horiz-adv-x="690" unicode="&#220;" /><glyph d="M587 239 696 700H665L557 243C521 102 431 19 317 19C205 19 132 86 132 199C132 224 136 261 143 289L240 700H208L112 293C104 262 99 225 99 196C99 68 190 -10 313 -10C448 -10 549 82 587 239ZM468 753H500L413 848H359Z" glyph-name="Ugrave" horiz-adv-x="690" unicode="&#217;" /><glyph d="M313 -10C448 -10 549 82 587 239L690 674C784 679 837 730 837 799C837 813 835 822 831 830L801 819C804 811 805 802 805 793C805 743 766 700 667 700H665L557 243C521 102 431 19 317 19C205 19 132 86 132 199C132 224 136 261 143 289L240 700H208L112 293C104 262 99 225 99 196C99 68 190 -10 313 -10Z" glyph-name="Uhorn" horiz-adv-x="714" unicode="&#431;" /><glyph d="M587 239 696 700H665L557 243C521 102 431 19 317 19C205 19 132 86 132 199C132 224 136 261 143 289L240 700H208L112 293C104 262 99 225 99 196C99 68 190 -10 313 -10C448 -10 549 82 587 239ZM397 758 548 853H491L361 758ZM526 758 677 853H621L491 758Z" glyph-name="Uhungarumlaut" horiz-adv-x="690" unicode="&#368;" /><glyph d="M587 239 696 700H665L557 243C521 102 431 19 317 19C205 19 132 86 132 199C132 224 136 261 143 289L240 700H208L112 293C104 262 99 225 99 196C99 68 190 -10 313 -10C448 -10 549 82 587 239ZM589 765 597 796H341L333 765Z" glyph-name="Umacron" horiz-adv-x="690" unicode="&#362;" /><glyph d="M311 -144 321 -118C269 -114 254 -107 254 -92C254 -80 261 -66 315 -10C448 -10 549 82 587 239L696 700H665L557 243C521 102 431 19 317 19C205 19 132 86 132 199C132 224 136 261 143 289L240 700H208L112 293C104 262 99 225 99 196C99 77 177 2 287 -9C229 -61 219 -78 219 -99C219 -125 243 -140 311 -144Z" glyph-name="Uogonek" horiz-adv-x="690" unicode="&#370;" /><glyph d="M587 239 696 700H665L557 243C521 102 431 19 317 19C205 19 132 86 132 199C132 224 136 261 143 289L240 700H208L112 293C104 262 99 225 99 196C99 68 190 -10 313 -10C448 -10 549 82 587 239ZM495 923C432 923 384 873 384 820C384 779 414 746 463 746C526 746 575 796 575 849C575 890 544 923 495 923ZM467 770C431 770 411 793 411 822C411 862 445 899 492 899C527 899 548 876 548 846C548 807 513 770 467 770Z" glyph-name="Uring" horiz-adv-x="690" unicode="&#366;" /><glyph d="M587 239 696 700H665L557 243C521 102 431 19 317 19C205 19 132 86 132 199C132 224 136 261 143 289L240 700H208L112 293C104 262 99 225 99 196C99 68 190 -10 313 -10C448 -10 549 82 587 239ZM420 809C432 809 438 806 463 786C490 766 503 758 521 758C551 758 571 779 604 830L580 841C551 800 539 790 526 790C514 790 508 793 482 813C456 833 442 840 425 840C394 840 375 820 341 769L365 757C394 799 407 809 420 809Z" glyph-name="Utilde" horiz-adv-x="690" unicode="&#360;" /><glyph d="M281 -12 726 700H689L278 32L186 700H154L255 -12Z" glyph-name="V" horiz-adv-x="666" unicode="V" /><glyph d="M666 -10H699L1079 700H1044L692 36L633 700H602L224 35L191 700H159L198 -10H230L607 650Z" glyph-name="W" horiz-adv-x="1023" unicode="W" /><glyph d="M666 -10H699L1079 700H1044L692 36L633 700H602L224 35L191 700H159L198 -10H230L607 650ZM624 758 778 853H719L587 758Z" glyph-name="Wacute" horiz-adv-x="1023" unicode="&#7810;" /><glyph d="M666 -10H699L1079 700H1044L692 36L633 700H602L224 35L191 700H159L198 -10H230L607 650ZM646 821 707 758H739L670 853H636L522 758H557Z" glyph-name="Wcircumflex" horiz-adv-x="1023" unicode="&#372;" /><glyph d="M666 -10H699L1079 700H1044L692 36L633 700H602L224 35L191 700H159L198 -10H230L607 650ZM578 758 592 820H553L539 758ZM722 758 736 820H697L683 758Z" glyph-name="Wdieresis" horiz-adv-x="1023" unicode="&#7812;" /><glyph d="M666 -10H699L1079 700H1044L692 36L633 700H602L224 35L191 700H159L198 -10H230L607 650ZM639 758H671L584 853H530Z" glyph-name="Wgrave" horiz-adv-x="1023" unicode="&#7808;" /><glyph d="M30 0 336 335 493 0H529L358 357L673 700H632L344 383L200 700H165L321 362L-12 0Z" glyph-name="X" horiz-adv-x="629" unicode="X" /><glyph d="M266 0 337 294 697 700H656L325 324L174 700H138L305 294L234 0Z" glyph-name="Y" horiz-adv-x="623" unicode="Y" /><glyph d="M266 0 337 294 697 700H656L325 324L174 700H138L305 294L234 0ZM416 753 570 848H511L379 753Z" glyph-name="Yacute" horiz-adv-x="623" unicode="&#221;" /><glyph d="M266 0 337 294 697 700H656L325 324L174 700H138L305 294L234 0ZM440 821 501 758H533L464 853H430L316 758H351Z" glyph-name="Ycircumflex" horiz-adv-x="623" unicode="&#374;" /><glyph d="M266 0 337 294 697 700H656L325 324L174 700H138L305 294L234 0ZM372 758 386 820H347L333 758ZM516 758 530 820H491L477 758Z" glyph-name="Ydieresis" horiz-adv-x="623" unicode="&#376;" /><glyph d="M266 0 337 294 697 700H656L325 324L174 700H138L305 294L234 0ZM431 753H463L376 848H322Z" glyph-name="Ygrave" horiz-adv-x="623" unicode="&#7922;" /><glyph d="M485 0 492 29H45L635 676L639 700H170L162 671H592L3 25L-2 0Z" glyph-name="Z" horiz-adv-x="595" unicode="Z" /><glyph d="M485 0 492 29H45L635 676L639 700H170L162 671H592L3 25L-2 0ZM403 758 557 853H498L366 758Z" glyph-name="Zacute" horiz-adv-x="595" unicode="&#377;" /><glyph d="M485 0 492 29H45L635 676L639 700H170L162 671H592L3 25L-2 0ZM415 791 355 853H323L392 758H426L540 853H505Z" glyph-name="Zcaron" horiz-adv-x="595" unicode="&#381;" /><glyph d="M485 0 492 29H45L635 676L639 700H170L162 671H592L3 25L-2 0ZM429 758 443 820H404L390 758Z" glyph-name="Zdotaccent" horiz-adv-x="595" unicode="&#379;" /><glyph d="M174 19C110 19 58 55 58 125C58 211 119 274 273 274C309 274 354 272 395 268L344 81C287 42 230 19 174 19ZM341 0H363L377 95L444 342C450 365 452 382 452 399C452 475 391 516 303 516C240 516 192 505 140 488L147 461C195 477 245 487 299 487C372 487 423 458 423 394C423 380 421 362 416 345L402 294C360 299 314 301 276 301C108 301 28 232 28 124C28 38 90 -9 171 -9C231 -9 286 14 342 53Z" glyph-name="a" horiz-adv-x="509" unicode="a" /><glyph d="M174 19C110 19 58 55 58 125C58 211 119 274 273 274C309 274 354 272 395 268L344 81C287 42 230 19 174 19ZM341 0H363L377 95L444 342C450 365 452 382 452 399C452 475 391 516 303 516C240 516 192 505 140 488L147 461C195 477 245 487 299 487C372 487 423 458 423 394C423 380 421 362 416 345L402 294C360 299 314 301 276 301C108 301 28 232 28 124C28 38 90 -9 171 -9C231 -9 286 14 342 53ZM329 597 486 712H431L299 597Z" glyph-name="aacute" horiz-adv-x="509" unicode="&#225;" /><glyph d="M174 19C110 19 58 55 58 125C58 211 119 274 273 274C309 274 354 272 395 268L344 81C287 42 230 19 174 19ZM341 0H363L377 95L444 342C450 365 452 382 452 399C452 475 391 516 303 516C240 516 192 505 140 488L147 461C195 477 245 487 299 487C372 487 423 458 423 394C423 380 421 362 416 345L402 294C360 299 314 301 276 301C108 301 28 232 28 124C28 38 90 -9 171 -9C231 -9 286 14 342 53ZM339 626C296 626 280 656 285 705H261C247 639 276 595 336 595C393 595 440 639 456 705H429C412 656 383 626 339 626Z" glyph-name="abreve" horiz-adv-x="509" unicode="&#259;" /><glyph d="M174 19C110 19 58 55 58 125C58 211 119 274 273 274C309 274 354 272 395 268L344 81C287 42 230 19 174 19ZM341 0H363L377 95L444 342C450 365 452 382 452 399C452 475 391 516 303 516C240 516 192 505 140 488L147 461C195 477 245 487 299 487C372 487 423 458 423 394C423 380 421 362 416 345L402 294C360 299 314 301 276 301C108 301 28 232 28 124C28 38 90 -9 171 -9C231 -9 286 14 342 53ZM355 679 412 597H438L377 712H346L229 597H259Z" glyph-name="acircumflex" horiz-adv-x="509" unicode="&#226;" /><glyph d="M328 594 485 709H430L298 594Z" glyph-name="acute" horiz-adv-x="500" unicode="&#180;" /><glyph d="M116 758 270 853H211L79 758Z" glyph-name="acute.cap" horiz-adv-x="0" /><glyph d="M174 19C110 19 58 55 58 125C58 211 119 274 273 274C309 274 354 272 395 268L344 81C287 42 230 19 174 19ZM341 0H363L377 95L444 342C450 365 452 382 452 399C452 475 391 516 303 516C240 516 192 505 140 488L147 461C195 477 245 487 299 487C372 487 423 458 423 394C423 380 421 362 416 345L402 294C360 299 314 301 276 301C108 301 28 232 28 124C28 38 90 -9 171 -9C231 -9 286 14 342 53ZM287 606 301 667H264L250 606ZM422 606 436 667H399L385 606Z" glyph-name="adieresis" horiz-adv-x="509" unicode="&#228;" /><glyph d="M636 492C718 492 765 433 765 339C765 316 763 292 759 270H424C451 387 539 492 636 492ZM174 19C110 19 58 55 58 125C58 211 119 274 273 274C309 274 353 272 394 268C387 240 385 214 385 189C385 163 388 139 394 117C300 44 236 19 174 19ZM722 29 711 55C665 31 614 18 568 18C465 18 414 90 414 190C414 208 416 226 419 243H783C791 272 795 304 795 338C795 449 737 520 640 520C572 520 512 477 468 413C460 405 453 395 445 383C446 388 446 394 446 399C446 475 386 516 292 516C239 516 189 505 140 488L147 461C193 477 245 487 291 487C372 487 418 454 418 394C418 379 417 364 413 348L401 294C359 299 314 301 276 301C108 301 28 232 28 124C28 38 90 -9 173 -9C245 -9 310 22 403 91C429 28 485 -10 566 -10C616 -10 673 4 722 29Z" glyph-name="ae" horiz-adv-x="838" unicode="&#230;" /><glyph d="M636 492C718 492 765 433 765 339C765 316 763 292 759 270H424C451 387 539 492 636 492ZM174 19C110 19 58 55 58 125C58 211 119 274 273 274C309 274 353 272 394 268C387 240 385 214 385 189C385 163 388 139 394 117C300 44 236 19 174 19ZM722 29 711 55C665 31 614 18 568 18C465 18 414 90 414 190C414 208 416 226 419 243H783C791 272 795 304 795 338C795 449 737 520 640 520C572 520 512 477 468 413C460 405 453 395 445 383C446 388 446 394 446 399C446 475 386 516 292 516C239 516 189 505 140 488L147 461C193 477 245 487 291 487C372 487 418 454 418 394C418 379 417 364 413 348L401 294C359 299 314 301 276 301C108 301 28 232 28 124C28 38 90 -9 173 -9C245 -9 310 22 403 91C429 28 485 -10 566 -10C616 -10 673 4 722 29ZM501 594 658 709H603L471 594Z" glyph-name="aeacute" horiz-adv-x="838" unicode="&#509;" /><glyph d="M174 19C110 19 58 55 58 125C58 211 119 274 273 274C309 274 354 272 395 268L344 81C287 42 230 19 174 19ZM341 0H363L377 95L444 342C450 365 452 382 452 399C452 475 391 516 303 516C240 516 192 505 140 488L147 461C195 477 245 487 299 487C372 487 423 458 423 394C423 380 421 362 416 345L402 294C360 299 314 301 276 301C108 301 28 232 28 124C28 38 90 -9 171 -9C231 -9 286 14 342 53ZM340 597H367L289 712H239Z" glyph-name="agrave" horiz-adv-x="509" unicode="&#224;" /><glyph d="M174 19C110 19 58 55 58 125C58 211 119 274 273 274C309 274 354 272 395 268L344 81C287 42 230 19 174 19ZM341 0H363L377 95L444 342C450 365 452 382 452 399C452 475 391 516 303 516C240 516 192 505 140 488L147 461C195 477 245 487 299 487C372 487 423 458 423 394C423 380 421 362 416 345L402 294C360 299 314 301 276 301C108 301 28 232 28 124C28 38 90 -9 171 -9C231 -9 286 14 342 53ZM448 613 455 642H234L227 613Z" glyph-name="amacron" horiz-adv-x="509" unicode="&#257;" /><glyph d="M208 22C129 22 76 71 76 151C76 239 151 332 293 384L439 160C356 65 280 22 208 22ZM544 0H582L479 159C528 219 579 295 633 391H597C549 308 503 239 460 185L318 403C293 442 280 481 280 520C280 613 346 679 436 679C486 679 530 663 575 633L592 659C544 691 493 708 437 708C327 708 248 631 248 520C248 482 259 445 278 409C131 357 44 259 44 147C44 55 108 -7 206 -7C287 -7 368 36 456 134Z" glyph-name="ampersand" horiz-adv-x="676" unicode="&amp;" /><glyph d="M174 19C110 19 58 55 58 125C58 211 119 274 273 274C309 274 354 272 395 268L344 81C287 42 230 19 174 19ZM359 -118C307 -114 292 -107 292 -92C292 -79 300 -64 363 0L377 95L444 342C450 365 452 382 452 399C452 475 391 516 303 516C240 516 192 505 140 488L147 461C195 477 245 487 299 487C372 487 423 458 423 394C423 380 421 362 416 345L402 294C360 299 314 301 276 301C108 301 28 232 28 124C28 38 90 -9 171 -9C231 -9 286 14 342 53L341 6C270 -57 257 -76 257 -99C257 -125 281 -140 349 -144Z" glyph-name="aogonek" horiz-adv-x="509" unicode="&#261;" /><glyph d="M520 513C482 447 455 426 432 426C411 426 394 434 343 467C291 502 268 513 238 513C201 513 166 486 120 407L146 394C186 460 212 481 236 481C256 481 274 474 324 440C376 405 398 394 429 394C466 394 502 421 547 500ZM471 316C433 250 406 229 382 229C362 229 344 237 294 270C241 305 219 316 189 316C152 316 116 289 71 210L97 197C136 263 162 284 186 284C207 284 225 277 275 243C327 208 349 197 380 197C417 197 452 224 497 303Z" glyph-name="approxequal" horiz-adv-x="564" unicode="&#8776;" /><glyph d="M174 19C110 19 58 55 58 125C58 211 119 274 273 274C309 274 354 272 395 268L344 81C287 42 230 19 174 19ZM341 0H363L377 95L444 342C450 365 452 382 452 399C452 475 391 516 303 516C240 516 192 505 140 488L147 461C195 477 245 487 299 487C372 487 423 458 423 394C423 380 421 362 416 345L402 294C360 299 314 301 276 301C108 301 28 232 28 124C28 38 90 -9 171 -9C231 -9 286 14 342 53ZM337 589C399 589 446 639 446 692C446 731 416 764 369 764C307 764 260 714 260 661C260 622 289 589 337 589ZM341 612C306 612 286 635 286 664C286 703 319 741 364 741C400 741 419 718 419 689C419 650 386 612 341 612Z" glyph-name="aring" horiz-adv-x="509" unicode="&#229;" /><glyph d="M174 19C110 19 58 55 58 125C58 211 119 274 273 274C309 274 354 272 395 268L344 81C287 42 230 19 174 19ZM341 0H363L377 95L444 342C450 365 452 382 452 399C452 475 391 516 303 516C240 516 192 505 140 488L147 461C195 477 245 487 299 487C372 487 423 458 423 394C423 380 421 362 416 345L402 294C360 299 314 301 276 301C108 301 28 232 28 124C28 38 90 -9 171 -9C231 -9 286 14 342 53ZM503 862H444L337 790H375ZM338 589C397 589 443 638 443 688C443 726 413 757 367 757C308 757 261 709 261 659C261 621 291 589 338 589ZM342 612C307 612 288 634 288 662C288 699 320 734 363 734C397 734 417 713 417 685C417 648 385 612 342 612Z" glyph-name="aringacute" horiz-adv-x="509" unicode="&#507;" /><glyph d="M128 437H167L392 697L489 437H523L411 732H383Z" glyph-name="asciicircum" horiz-adv-x="564" unicode="^" /><glyph d="M504 415C458 349 432 328 407 328C386 328 368 336 317 369C263 404 241 415 210 415C172 415 136 388 84 309L110 296C156 362 182 383 207 383C228 383 247 376 297 342C351 306 373 296 404 296C441 296 478 323 530 402Z" glyph-name="asciitilde" horiz-adv-x="564" unicode="~" /><glyph d="M242 599 281 696 247 704 236 600ZM213 587 217 593 137 659 118 629ZM360 569 357 605 256 583 257 576ZM150 482 219 560 215 565 127 509ZM264 454 297 467 245 558 239 555Z" glyph-name="asterisk" horiz-adv-x="327" unicode="*" /><glyph d="M343 -150C393 -150 439 -141 482 -129L477 -101C439 -114 391 -122 346 -122C187 -122 93 -29 93 146C93 433 284 689 498 689C611 689 662 634 662 553C662 532 660 511 655 488C628 498 601 504 568 504C401 504 295 342 295 200C295 110 346 64 420 64C463 64 513 83 557 119L553 65H567L670 427C684 473 692 511 692 555C692 648 632 716 501 716C267 716 63 449 63 142C63 -46 168 -150 343 -150ZM426 92C363 92 325 129 325 204C325 327 420 476 565 476C595 476 622 472 649 460L643 436L563 151C511 109 462 92 426 92Z" glyph-name="at" horiz-adv-x="734" unicode="@" /><glyph d="M174 19C110 19 58 55 58 125C58 211 119 274 273 274C309 274 354 272 395 268L344 81C287 42 230 19 174 19ZM341 0H363L377 95L444 342C450 365 452 382 452 399C452 475 391 516 303 516C240 516 192 505 140 488L147 461C195 477 245 487 299 487C372 487 423 458 423 394C423 380 421 362 416 345L402 294C360 299 314 301 276 301C108 301 28 232 28 124C28 38 90 -9 171 -9C231 -9 286 14 342 53ZM296 649C306 649 313 644 338 625C365 604 375 597 392 597C423 597 441 618 474 670L450 681C424 638 410 627 397 627C387 627 380 632 356 651C329 672 319 679 301 679C271 679 252 659 220 607L243 595C270 638 283 649 296 649Z" glyph-name="atilde" horiz-adv-x="509" unicode="&#227;" /><glyph d="M223 -10C286 -10 342 15 386 59C446 119 485 217 485 323C485 450 412 518 320 518C273 518 225 499 176 465L238 724H209L34 0H55L74 48C118 11 169 -10 223 -10ZM224 17C172 17 126 38 82 75L168 433C213 466 265 491 317 491C397 491 455 433 455 321C455 224 418 131 365 78C326 39 278 17 224 17Z" glyph-name="b" horiz-adv-x="538" unicode="b" /><glyph d="M238 -130H265L170 795H143Z" glyph-name="backslash" horiz-adv-x="359" unicode="\" /><glyph d="M235 -114H262L167 811H140Z" glyph-name="backslash.cap" horiz-adv-x="359" /><glyph d="M76 -130 299 795H271L48 -130Z" glyph-name="bar" horiz-adv-x="309" unicode="|" /><glyph d="M80 -114 303 811H275L52 -114Z" glyph-name="bar.cap" horiz-adv-x="309" /><glyph d="M388 -117 403 -90C301 -79 222 -53 163 -26C230 9 295 68 295 155C295 229 248 282 165 301C283 326 380 394 380 506C380 562 349 605 315 632C386 659 485 687 592 698V725C480 713 388 687 289 649L278 625C320 596 349 554 349 503C349 404 247 317 64 316L58 292C202 291 264 231 264 157C264 80 208 23 125 -17L124 -41C203 -79 282 -105 388 -117Z" glyph-name="braceleft" horiz-adv-x="542" unicode="{" /><glyph d="M399 -72 414 -45C312 -34 233 -8 174 19C241 54 306 113 306 200C306 274 259 327 176 346C294 371 391 439 391 551C391 607 360 650 326 677C397 704 496 732 603 743V770C491 758 399 732 300 694L289 670C331 641 360 599 360 548C360 449 258 362 75 361L69 337C213 336 275 276 275 202C275 125 219 68 136 28L135 4C214 -34 293 -60 399 -72Z" glyph-name="braceleft.cap" horiz-adv-x="542" /><glyph d="M-25 -117C86 -105 179 -79 277 -41L288 -17C246 12 218 54 218 105C218 204 320 291 502 292L509 316C364 317 303 377 303 451C303 528 359 585 442 625L443 649C363 687 284 713 178 725L164 698C265 687 345 661 404 634C336 599 272 540 272 453C272 379 319 326 402 307C284 282 187 214 187 102C187 46 217 3 251 -24C180 -51 81 -79 -25 -90Z" glyph-name="braceright" horiz-adv-x="542" unicode="}" /><glyph d="M-14 -72C97 -60 190 -34 288 4L299 28C257 57 229 99 229 150C229 249 331 336 513 337L520 361C375 362 314 422 314 496C314 573 370 630 453 670L454 694C374 732 295 758 189 770L175 743C276 732 356 706 415 679C347 644 283 585 283 498C283 424 330 371 413 352C295 327 198 259 198 147C198 91 228 48 262 21C191 -6 92 -34 -14 -45Z" glyph-name="braceright.cap" horiz-adv-x="542" /><glyph d="M274 -93 279 -70 61 -80 247 689 459 678 465 701 223 716 24 -108Z" glyph-name="bracketleft" horiz-adv-x="417" unicode="[" /><glyph d="M285 -48 290 -25 72 -35 258 734 470 723 476 746 234 761 35 -63Z" glyph-name="bracketleft.cap" horiz-adv-x="417" /><glyph d="M219 -108 418 716 168 701 162 678 380 688 195 -81 -17 -70 -23 -93Z" glyph-name="bracketright" horiz-adv-x="417" unicode="]" /><glyph d="M230 -63 429 761 179 746 173 723 391 733 206 -36 -6 -25 -12 -48Z" glyph-name="bracketright.cap" horiz-adv-x="417" /><glyph d="M338 623C295 623 279 653 284 702H260C246 636 275 592 335 592C392 592 439 636 455 702H428C411 653 382 623 338 623Z" glyph-name="breve" horiz-adv-x="500" unicode="&#728;" /><glyph d="M129 788C90 788 71 812 70 853H43C36 794 69 757 125 757C179 757 224 794 245 853H214C197 812 168 788 129 788Z" glyph-name="breve.cap" horiz-adv-x="0" /><glyph d="M115 355C115 294 165 245 225 245C286 245 335 294 335 355C335 416 286 465 225 465C165 465 115 416 115 355Z" glyph-name="bullet" horiz-adv-x="402" unicode="&#8226;" /><glyph d="M360 14 351 40C315 26 280 19 247 19C143 19 83 82 83 192C83 280 119 371 174 426C212 465 262 489 317 489C366 489 402 476 443 450L459 476C418 502 375 517 318 517C254 517 195 489 151 446C91 385 52 288 52 190C52 60 126 -10 245 -10C285 -10 322 -2 360 14Z" glyph-name="c" horiz-adv-x="454" unicode="c" /><glyph d="M360 14 351 40C315 26 280 19 247 19C143 19 83 82 83 192C83 280 119 371 174 426C212 465 262 489 317 489C366 489 402 476 443 450L459 476C418 502 375 517 318 517C254 517 195 489 151 446C91 385 52 288 52 190C52 60 126 -10 245 -10C285 -10 322 -2 360 14ZM343 597 500 712H445L313 597Z" glyph-name="cacute" horiz-adv-x="454" unicode="&#263;" /><glyph d="M339 627 282 709H256L317 594H348L465 709H436Z" glyph-name="caron" horiz-adv-x="500" unicode="&#711;" /><glyph d="M128 791 68 853H36L105 758H139L253 853H218Z" glyph-name="caron.cap" horiz-adv-x="0" /><glyph d="M360 14 351 40C315 26 280 19 247 19C143 19 83 82 83 192C83 280 119 371 174 426C212 465 262 489 317 489C366 489 402 476 443 450L459 476C418 502 375 517 318 517C254 517 195 489 151 446C91 385 52 288 52 190C52 60 126 -10 245 -10C285 -10 322 -2 360 14ZM354 630 297 712H271L332 597H363L480 712H451Z" glyph-name="ccaron" horiz-adv-x="454" unicode="&#269;" /><glyph d="M254 -84C254 -59 233 -47 192 -43L221 -9C228 -10 237 -10 245 -10C285 -10 322 -2 360 14L351 40C315 26 280 19 247 19C143 19 83 82 83 192C83 280 119 371 174 426C212 465 262 489 317 489C366 489 402 476 443 450L459 476C418 502 375 517 318 517C254 517 195 489 151 446C91 385 52 288 52 190C52 79 106 12 195 -5L158 -51L163 -63C206 -65 220 -72 220 -86C220 -102 201 -115 117 -117L115 -141C218 -140 254 -117 254 -84Z" glyph-name="ccedilla" horiz-adv-x="454" unicode="&#231;" /><glyph d="M360 14 351 40C315 26 280 19 247 19C143 19 83 82 83 192C83 280 119 371 174 426C212 465 262 489 317 489C366 489 402 476 443 450L459 476C418 502 375 517 318 517C254 517 195 489 151 446C91 385 52 288 52 190C52 60 126 -10 245 -10C285 -10 322 -2 360 14ZM369 679 426 597H452L391 712H360L243 597H273Z" glyph-name="ccircumflex" horiz-adv-x="454" unicode="&#265;" /><glyph d="M360 14 351 40C315 26 280 19 247 19C143 19 83 82 83 192C83 280 119 371 174 426C212 465 262 489 317 489C366 489 402 476 443 450L459 476C418 502 375 517 318 517C254 517 195 489 151 446C91 385 52 288 52 190C52 60 126 -10 245 -10C285 -10 322 -2 360 14ZM369 606 383 667H346L332 606Z" glyph-name="cdotaccent" horiz-adv-x="454" unicode="&#267;" /><glyph d="M92 -141C195 -140 231 -117 231 -84C231 -59 210 -47 169 -43L205 0L184 9L135 -51L140 -63C183 -65 197 -72 197 -86C197 -102 178 -115 94 -117Z" glyph-name="cedilla" horiz-adv-x="500" unicode="&#184;" /><glyph d="M118 316C118 380 145 444 185 484C219 518 266 541 317 544L222 183C155 195 118 243 118 316ZM258 151C307 151 361 166 406 188L396 213C357 193 303 179 261 179H247L342 544C386 541 417 527 450 508L466 532C431 553 398 568 350 571L385 704H357L323 572C261 570 205 544 162 502C115 455 87 386 87 317C87 228 137 171 214 155L173 -4H201L241 152C247 151 252 151 258 151Z" glyph-name="cent" horiz-adv-x="465" unicode="&#162;" /><glyph d="M354 676 411 594H437L376 709H345L228 594H258Z" glyph-name="circumflex" horiz-adv-x="500" unicode="&#710;" /><glyph d="M138 821 199 758H231L162 853H128L14 758H49Z" glyph-name="circumflex.cap" horiz-adv-x="0" /><glyph d="M148 448 163 508H119L104 448ZM41 0 55 60H11L-3 0Z" glyph-name="colon" horiz-adv-x="160" unicode=":" /><glyph d="M145 442 159 503H115L101 442ZM91 214 105 274H62L47 214Z" glyph-name="colon.fig" horiz-adv-x="156" /><glyph d="M193 477 208 537H165L150 477ZM121 179 136 239H92L77 179Z" glyph-name="colon.figtab" horiz-adv-x="282" /><glyph d="M187 448 201 508H157L143 448ZM79 0 93 60H49L35 0Z" glyph-name="colon.tab" horiz-adv-x="282" /><glyph d="M54 60H14C-4 -26 -26 -68 -88 -134L-79 -145C-4 -86 34 -32 54 60Z" glyph-name="comma" horiz-adv-x="150" unicode="," /><glyph d="M102 60H61C42 -18 11 -64 -51 -126L-41 -135C34 -77 84 -20 102 60Z" glyph-name="comma.tab" horiz-adv-x="282" /><glyph d="M84 257C84 84 185 -31 344 -31C567 -31 740 205 740 443C740 616 639 731 480 731C257 731 84 495 84 257ZM106 258C106 484 271 711 480 711C628 711 719 604 719 442C719 216 554 -11 344 -11C197 -11 106 96 106 258ZM509 199 500 223C466 207 432 196 394 196C325 196 282 240 282 310C282 416 364 510 458 510C496 510 523 501 549 484L563 509C535 525 504 536 460 536C346 536 253 432 253 309C253 224 307 170 392 170C436 170 475 182 509 199Z" glyph-name="copyright" horiz-adv-x="778" unicode="&#169;" /><glyph d="M224 17C144 17 83 76 83 187C83 284 120 376 173 430C212 469 261 491 317 491C368 491 413 469 456 432L370 74C325 42 275 17 224 17ZM361 0H382L556 724H526L463 461C420 497 372 518 317 518C254 518 196 493 152 449C92 389 53 291 53 185C53 58 130 -10 221 -10C268 -10 315 9 364 43Z" glyph-name="d" horiz-adv-x="538" unicode="d" /><glyph d="M208 481 219 570H239L301 560L309 592L241 582H223L264 702H229L212 582H193L130 592L123 560L190 570H209L176 481L136 272H145Z" glyph-name="dagger" horiz-adv-x="277" unicode="&#8224;" /><glyph d="M192 379 254 370 262 401 194 391H175L208 481L219 570H239L301 560L309 592L241 582H223L264 702H229L212 582H193L130 592L123 560L190 570H209L176 481L165 391H146L83 401L75 370L143 379H162L120 259H155L172 379Z" glyph-name="daggerdbl" horiz-adv-x="277" unicode="&#8225;" /><glyph d="M224 17C144 17 83 76 83 187C83 284 120 376 173 430C212 469 261 491 317 491C368 491 413 469 456 432L370 74C325 42 275 17 224 17ZM361 0H382L556 724H526L463 461C420 497 372 518 317 518C254 518 196 493 152 449C92 389 53 291 53 185C53 58 130 -10 221 -10C268 -10 315 9 364 43ZM679 725H650C635 655 622 628 596 594L608 586C644 626 663 653 679 725Z" glyph-name="dcaron" horiz-adv-x="538" unicode="&#271;" /><glyph d="M224 17C144 17 83 75 83 184C83 280 120 371 173 424C212 463 261 484 317 484C366 484 411 462 454 425L370 74C325 42 275 17 224 17ZM361 0H382L525 594H599L606 620H531L556 724H526L501 620H334L327 594H495L461 454C418 489 370 511 316 511C253 511 196 488 152 443C92 383 53 287 53 183C53 58 130 -10 221 -10C268 -10 315 9 364 43Z" glyph-name="dcroat" horiz-adv-x="538" unicode="&#273;" /><glyph d="M447 547C447 636 378 708 287 708C197 708 128 636 128 547C128 458 197 387 287 387C378 387 447 458 447 547ZM417 547C417 473 362 413 287 413C212 413 157 473 157 547C157 622 212 681 287 681C362 681 417 622 417 547Z" glyph-name="degree" horiz-adv-x="434" unicode="&#176;" /><glyph d="M286 603 300 664H263L249 603ZM421 603 435 664H398L384 603Z" glyph-name="dieresis" horiz-adv-x="500" unicode="&#168;" /><glyph d="M70 758 84 820H45L31 758ZM214 758 228 820H189L175 758Z" glyph-name="dieresis.cap" horiz-adv-x="0" /><glyph d="M371 517 384 572H336L322 517ZM522 340 530 371H92L84 340ZM278 138 291 194H243L229 138Z" glyph-name="divide" horiz-adv-x="564" unicode="&#247;" /><glyph d="M180 524C180 603 245 672 361 672H380L308 381C223 421 180 461 180 524ZM264 28H247L325 339C416 296 462 251 462 188C462 95 383 28 264 28ZM262 0C400 0 493 78 493 190C493 265 443 318 332 370L407 669C462 662 506 642 554 609L571 635C523 667 476 689 415 697L438 789H409L386 699C379 700 372 700 364 700C225 700 148 618 148 521C148 448 196 399 300 350L221 31C157 39 96 64 43 101L24 76C81 37 145 11 213 3L185 -106H214L241 1C248 0 255 0 262 0Z" glyph-name="dollar" horiz-adv-x="570" unicode="$" /><glyph d="M151 524C151 603 217 672 331 672C338 672 345 672 352 671L280 381C193 421 151 461 151 524ZM237 28C231 28 225 28 219 29L296 340C389 298 435 253 435 189C435 95 355 28 237 28ZM235 0C372 0 467 79 467 191C467 267 417 318 304 370L379 669C433 661 477 639 525 605L542 632C494 665 446 688 387 696L410 789H381L358 699C350 700 342 700 333 700C197 700 119 618 119 521C119 448 166 400 272 351L193 31C127 39 67 66 13 105L-6 81C52 40 115 12 185 3L157 -106H186L214 1C221 0 228 0 235 0Z" glyph-name="dollar.tab" horiz-adv-x="564" /><glyph d="M229 17C145 17 88 77 88 178C88 268 122 352 173 403C212 441 262 465 318 465C375 465 420 439 458 406L378 74C335 42 290 17 229 17ZM369 0H390L529 581H609L616 609H536L558 700H528L506 609H341L335 581H500L465 435C431 465 381 492 319 492C256 492 196 466 151 421C95 365 58 277 58 176C58 62 126 -10 225 -10C284 -10 330 12 373 44ZM361 -123 368 -95H14L7 -123Z" glyph-name="dong" horiz-adv-x="573" unicode="&#8363;" /><glyph d="M354 603 368 664H331L317 603Z" glyph-name="dotaccent" horiz-adv-x="500" unicode="&#729;" /><glyph d="M142 758 156 820H117L103 758Z" glyph-name="dotaccent.cap" horiz-adv-x="0" /><glyph d="M66 0 188 508H159L36 0Z" glyph-name="dotlessi" horiz-adv-x="225" unicode="&#305;" /><glyph d="M302 492C384 492 431 433 431 339C431 316 429 292 425 270H90C117 387 205 492 302 492ZM388 29 377 55C331 31 280 18 234 18C131 18 81 90 81 190C81 208 82 226 85 243H449C457 272 461 304 461 338C461 449 403 520 306 520C251 520 197 494 157 454C94 392 51 291 51 189C51 70 114 -10 232 -10C282 -10 339 4 388 29Z" glyph-name="e" horiz-adv-x="505" unicode="e" /><glyph d="M302 492C384 492 431 433 431 339C431 316 429 292 425 270H90C117 387 205 492 302 492ZM388 29 377 55C331 31 280 18 234 18C131 18 81 90 81 190C81 208 82 226 85 243H449C457 272 461 304 461 338C461 449 403 520 306 520C251 520 197 494 157 454C94 392 51 291 51 189C51 70 114 -10 232 -10C282 -10 339 4 388 29ZM329 597 486 712H431L299 597Z" glyph-name="eacute" horiz-adv-x="505" unicode="&#233;" /><glyph d="M302 492C384 492 431 433 431 339C431 316 429 292 425 270H90C117 387 205 492 302 492ZM388 29 377 55C331 31 280 18 234 18C131 18 81 90 81 190C81 208 82 226 85 243H449C457 272 461 304 461 338C461 449 403 520 306 520C251 520 197 494 157 454C94 392 51 291 51 189C51 70 114 -10 232 -10C282 -10 339 4 388 29ZM339 626C296 626 280 656 285 705H261C247 639 276 595 336 595C393 595 440 639 456 705H429C412 656 383 626 339 626Z" glyph-name="ebreve" horiz-adv-x="505" unicode="&#277;" /><glyph d="M302 492C384 492 431 433 431 339C431 316 429 292 425 270H90C117 387 205 492 302 492ZM388 29 377 55C331 31 280 18 234 18C131 18 81 90 81 190C81 208 82 226 85 243H449C457 272 461 304 461 338C461 449 403 520 306 520C251 520 197 494 157 454C94 392 51 291 51 189C51 70 114 -10 232 -10C282 -10 339 4 388 29ZM340 630 283 712H257L318 597H349L466 712H437Z" glyph-name="ecaron" horiz-adv-x="505" unicode="&#283;" /><glyph d="M302 492C384 492 431 433 431 339C431 316 429 292 425 270H90C117 387 205 492 302 492ZM388 29 377 55C331 31 280 18 234 18C131 18 81 90 81 190C81 208 82 226 85 243H449C457 272 461 304 461 338C461 449 403 520 306 520C251 520 197 494 157 454C94 392 51 291 51 189C51 70 114 -10 232 -10C282 -10 339 4 388 29ZM355 679 412 597H438L377 712H346L229 597H259Z" glyph-name="ecircumflex" horiz-adv-x="505" unicode="&#234;" /><glyph d="M302 492C384 492 431 433 431 339C431 316 429 292 425 270H90C117 387 205 492 302 492ZM388 29 377 55C331 31 280 18 234 18C131 18 81 90 81 190C81 208 82 226 85 243H449C457 272 461 304 461 338C461 449 403 520 306 520C251 520 197 494 157 454C94 392 51 291 51 189C51 70 114 -10 232 -10C282 -10 339 4 388 29ZM287 606 301 667H264L250 606ZM422 606 436 667H399L385 606Z" glyph-name="edieresis" horiz-adv-x="505" unicode="&#235;" /><glyph d="M302 492C384 492 431 433 431 339C431 316 429 292 425 270H90C117 387 205 492 302 492ZM388 29 377 55C331 31 280 18 234 18C131 18 81 90 81 190C81 208 82 226 85 243H449C457 272 461 304 461 338C461 449 403 520 306 520C251 520 197 494 157 454C94 392 51 291 51 189C51 70 114 -10 232 -10C282 -10 339 4 388 29ZM355 606 369 667H332L318 606Z" glyph-name="edotaccent" horiz-adv-x="505" unicode="&#279;" /><glyph d="M302 492C384 492 431 433 431 339C431 316 429 292 425 270H90C117 387 205 492 302 492ZM388 29 377 55C331 31 280 18 234 18C131 18 81 90 81 190C81 208 82 226 85 243H449C457 272 461 304 461 338C461 449 403 520 306 520C251 520 197 494 157 454C94 392 51 291 51 189C51 70 114 -10 232 -10C282 -10 339 4 388 29ZM340 597H367L289 712H239Z" glyph-name="egrave" horiz-adv-x="505" unicode="&#232;" /><glyph d="M256 -9C394 -9 495 87 495 204C495 270 464 326 385 361C481 383 552 453 552 548C552 639 479 708 363 708C228 708 145 615 145 516C145 454 173 406 243 374C125 351 50 266 50 162C50 57 134 -9 256 -9ZM177 518C177 601 247 679 358 679C456 679 521 624 521 546C521 456 441 382 340 380C249 379 177 433 177 518ZM81 166C81 261 165 351 289 352C392 354 464 288 464 203C464 103 378 21 260 21C154 21 81 74 81 166Z" glyph-name="eight" horiz-adv-x="572" unicode="8" /><glyph d="M168 -5C260 -5 326 46 326 119C326 163 298 198 249 213C316 224 362 265 362 320C362 379 309 423 227 423C139 423 79 373 79 312C79 272 102 241 147 225C67 214 19 164 19 104C19 41 76 -5 168 -5ZM109 309C109 358 156 396 225 396C292 396 333 363 333 319C333 271 284 232 219 232C151 232 109 264 109 309ZM49 107C49 161 105 206 174 206C250 206 296 169 296 120C296 65 245 22 170 22C94 22 49 55 49 107Z" glyph-name="eight.den" horiz-adv-x="400" /><glyph d="M236 277C328 277 394 328 394 401C394 445 366 480 317 495C384 506 430 547 430 602C430 661 377 705 295 705C207 705 147 655 147 594C147 554 170 523 215 507C135 496 87 446 87 386C87 323 144 277 236 277ZM177 591C177 640 224 678 293 678C360 678 401 645 401 601C401 553 352 514 287 514C219 514 177 546 177 591ZM117 389C117 443 173 488 242 488C318 488 364 451 364 402C364 347 313 304 238 304C162 304 117 337 117 389Z" glyph-name="eight.num" horiz-adv-x="400" /><glyph d="M220 -8C365 -8 471 90 471 211C471 280 432 332 358 362C459 389 532 459 532 556C532 651 449 708 349 708C211 708 120 611 120 507C120 443 157 399 217 373C92 346 20 261 20 158C20 53 111 -8 220 -8ZM303 382C226 382 152 425 152 509C152 596 232 678 346 678C438 678 500 627 500 554C500 457 408 382 303 382ZM225 21C127 21 51 73 51 160C51 258 141 352 271 352C372 352 440 289 440 209C440 105 345 21 225 21Z" glyph-name="eight.tab" horiz-adv-x="564" /><glyph d="M333 0 348 60H304L290 0ZM184 0 199 60H155L141 0ZM35 0 49 60H6L-8 0Z" glyph-name="ellipsis" horiz-adv-x="447" unicode="&#8230;" /><glyph d="M302 492C384 492 431 433 431 339C431 316 429 292 425 270H90C117 387 205 492 302 492ZM388 29 377 55C331 31 280 18 234 18C131 18 81 90 81 190C81 208 82 226 85 243H449C457 272 461 304 461 338C461 449 403 520 306 520C251 520 197 494 157 454C94 392 51 291 51 189C51 70 114 -10 232 -10C282 -10 339 4 388 29ZM448 613 455 642H234L227 613Z" glyph-name="emacron" horiz-adv-x="505" unicode="&#275;" /><glyph d="M768 293 776 321H69L62 293Z" glyph-name="emdash" horiz-adv-x="812" unicode="&#8212;" /><glyph d="M781 346 789 374H82L75 346Z" glyph-name="emdash.cap" horiz-adv-x="812" /><glyph d="M455 293 462 321H69L62 293Z" glyph-name="endash" horiz-adv-x="499" unicode="&#8211;" /><glyph d="M468 346 475 374H82L75 346Z" glyph-name="endash.cap" horiz-adv-x="499" /><glyph d="M245 -177C328 -128 378 -78 406 34L471 316C478 342 481 367 481 388C481 469 428 517 341 517C283 517 226 494 174 462L177 508H156L34 0H64L168 431C220 465 280 489 337 489C409 489 451 451 451 383C451 366 448 343 442 321L377 39C351 -67 307 -106 232 -152Z" glyph-name="eng" horiz-adv-x="547" unicode="&#331;" /><glyph d="M302 492C384 492 431 433 431 339C431 316 429 292 425 270H90C117 387 205 492 302 492ZM354 -118C302 -114 287 -107 287 -92C287 -75 301 -54 388 29L377 55C331 31 280 18 234 18C131 18 81 90 81 190C81 208 82 226 85 243H449C457 272 461 304 461 338C461 449 403 520 306 520C251 520 197 494 157 454C94 392 51 291 51 189C51 70 114 -10 232 -10C264 -10 299 -5 333 6C264 -56 253 -76 253 -99C253 -125 276 -140 345 -144Z" glyph-name="eogonek" horiz-adv-x="505" unicode="&#281;" /><glyph d="M536 436 543 466H125L118 436ZM489 244 496 275H78L70 244Z" glyph-name="equal" horiz-adv-x="564" unicode="=" /><glyph d="M205 -12C266 -12 320 15 365 59C438 133 486 271 486 400C486 490 459 566 402 627L546 724H502L385 644C348 678 300 707 241 729L229 704C283 684 327 658 361 627L223 534H267L379 611C430 557 455 491 457 410C408 449 356 469 298 469C161 469 46 320 46 163C46 58 106 -12 205 -12ZM207 16C124 16 75 76 75 164C75 303 176 442 294 442C352 442 404 420 456 377C451 263 407 142 343 78C304 39 257 16 207 16Z" glyph-name="eth" horiz-adv-x="531" unicode="&#240;" /><glyph d="M91 159 177 486 229 700H198L146 486L75 159ZM66 0 81 60H37L23 0Z" glyph-name="exclam" horiz-adv-x="211" unicode="!" /><glyph d="M166 541 80 214 28 0H59L111 214L182 541ZM191 700 176 640H220L234 700Z" glyph-name="exclamdown" horiz-adv-x="211" unicode="&#161;" /><glyph d="M375 481 382 508H219L237 580C256 660 303 701 364 701C399 701 431 691 455 681L468 708C436 721 400 728 366 728C288 728 231 680 208 583L190 508H96L89 481H183L67 0H97L213 481Z" glyph-name="f" horiz-adv-x="340" unicode="f" /><glyph d="M375 481 382 508H219L237 580C256 660 303 701 364 701C393 701 421 694 449 683L456 712C426 723 395 728 366 728C288 728 231 680 208 583L190 508H96L89 481H183L67 0H97L213 481Z" glyph-name="f.lig" horiz-adv-x="340" /><glyph d="M375 481 382 508H219L237 580C256 660 303 701 364 701C399 701 431 691 455 681L468 708C436 721 400 728 366 728C288 728 231 680 208 583L190 508H96L89 481H183L67 0H97L213 481ZM715 481 722 508H559L577 580C596 660 643 701 704 701C739 701 771 691 795 681L808 708C776 721 740 728 706 728C628 728 571 680 548 583L530 508H436L429 481H523L407 0H437L553 481Z" glyph-name="f_f" horiz-adv-x="680" /><glyph d="M375 481 382 508H219L237 580C256 660 303 701 364 701C399 701 431 691 455 681L468 708C436 721 400 728 366 728C288 728 231 680 208 583L190 508H96L89 481H183L67 0H97L213 481ZM715 481 722 508H559L577 580C596 660 643 701 704 701C733 701 761 694 789 683L796 712C766 723 735 728 706 728C628 728 571 680 548 583L530 508H436L429 481H523L407 0H437L553 481ZM906 647 921 707H884L869 647ZM746 0 868 508H839L716 0Z" glyph-name="f_f_i" horiz-adv-x="905" /><glyph d="M375 481 382 508H219L237 580C256 660 303 701 364 701C399 701 431 691 455 681L468 708C436 721 400 728 366 728C288 728 231 680 208 583L190 508H96L89 481H183L67 0H97L213 481ZM715 481 722 508H559L577 580C596 660 643 701 704 701C733 701 761 694 789 683L796 712C766 723 735 728 706 728C628 728 571 680 548 583L530 508H436L429 481H523L407 0H437L553 481ZM746 0 921 724H891L716 0Z" glyph-name="f_f_l" horiz-adv-x="905" /><glyph d="M375 481 382 508H219L237 580C256 660 303 701 364 701C393 701 421 694 449 683L456 712C426 723 395 728 366 728C288 728 231 680 208 583L190 508H96L89 481H183L67 0H97L213 481ZM566 647 581 707H544L529 647ZM406 0 528 508H499L376 0Z" glyph-name="fi" horiz-adv-x="565" unicode="&#64257;" /><glyph d="M488 275C488 365 426 420 322 420C272 420 217 408 156 379L241 671H570L576 700H218L118 352L139 341C203 375 264 391 321 391C402 391 456 349 456 272C456 140 308 36 22 17V-12C328 6 488 123 488 275Z" glyph-name="five" horiz-adv-x="554" unicode="5" /><glyph d="M313 162C313 217 268 254 200 254C166 254 127 246 90 230L136 391H360L367 418H115L56 207L74 196C116 215 157 227 197 227C253 227 283 201 283 160C283 89 196 31 -1 20L0 -7C215 5 313 72 313 162Z" glyph-name="five.den" horiz-adv-x="385" /><glyph d="M381 444C381 499 336 536 268 536C234 536 195 528 158 512L204 673H428L435 700H183L124 489L142 478C184 497 225 509 265 509C321 509 351 483 351 442C351 371 264 313 67 302L68 275C283 287 381 354 381 444Z" glyph-name="five.num" horiz-adv-x="385" /><glyph d="M481 292C481 374 422 423 322 423C261 423 200 407 134 373L215 671H557L564 700H193L97 347L117 336C189 372 252 393 316 393C403 393 450 354 450 288C450 155 293 50 9 16L8 -13C317 23 481 140 481 292Z" glyph-name="five.tab" horiz-adv-x="564" /><glyph d="M375 481 382 508H219L237 580C256 660 303 701 364 701C393 701 421 694 449 683L456 712C426 723 395 728 366 728C288 728 231 680 208 583L190 508H96L89 481H183L67 0H97L213 481ZM406 0 581 724H551L376 0Z" glyph-name="fl" horiz-adv-x="565" unicode="&#64258;" /><glyph d="M383 213H73L490 660ZM524 185 531 213H413L532 705H495L31 209L33 185H376L331 0H361L406 185Z" glyph-name="four" horiz-adv-x="575" unicode="4" /><glyph d="M244 132H44L305 385ZM346 105 353 132H272L342 421H305L2 129L5 105H238L212 0H240L265 105Z" glyph-name="four.den" horiz-adv-x="405" /><glyph d="M312 414H112L373 667ZM414 387 421 414H340L410 703H373L70 411L73 387H306L280 282H308L333 387Z" glyph-name="four.num" horiz-adv-x="405" /><glyph d="M360 214H48L467 663ZM489 185 495 214H391L509 705H470L8 211L9 185H353L308 0H339L384 185Z" glyph-name="four.tab" horiz-adv-x="564" /><glyph d="M-222 0H-185L104 342L410 700H373L84 358Z" glyph-name="fraction" horiz-adv-x="142" unicode="&#8260;" /><glyph d="M225 33C144 33 85 91 85 196C85 291 121 378 173 430C211 468 258 491 312 491C364 491 409 469 452 432L371 91C327 58 276 33 225 33ZM170 -176C282 -176 350 -117 376 -12L501 508H480L460 460C417 496 369 518 313 518C251 518 195 492 151 449C92 390 55 298 55 194C55 73 130 6 222 6C268 6 315 25 363 59L347 -8C325 -99 264 -149 172 -149C113 -149 53 -131 7 -102L-6 -128C44 -157 104 -176 170 -176Z" glyph-name="g" horiz-adv-x="534" unicode="g" /><glyph d="M225 33C144 33 85 91 85 196C85 291 121 378 173 430C211 468 258 491 312 491C364 491 409 469 452 432L371 91C327 58 276 33 225 33ZM170 -176C282 -176 350 -117 376 -12L501 508H480L460 460C417 496 369 518 313 518C251 518 195 492 151 449C92 390 55 298 55 194C55 73 130 6 222 6C268 6 315 25 363 59L347 -8C325 -99 264 -149 172 -149C113 -149 53 -131 7 -102L-6 -128C44 -157 104 -176 170 -176ZM362 626C319 626 303 656 308 705H284C270 639 299 595 359 595C416 595 463 639 479 705H452C435 656 406 626 362 626Z" glyph-name="gbreve" horiz-adv-x="534" unicode="&#287;" /><glyph d="M225 33C144 33 85 91 85 196C85 291 121 378 173 430C211 468 258 491 312 491C364 491 409 469 452 432L371 91C327 58 276 33 225 33ZM170 -176C282 -176 350 -117 376 -12L501 508H480L460 460C417 496 369 518 313 518C251 518 195 492 151 449C92 390 55 298 55 194C55 73 130 6 222 6C268 6 315 25 363 59L347 -8C325 -99 264 -149 172 -149C113 -149 53 -131 7 -102L-6 -128C44 -157 104 -176 170 -176ZM363 630 306 712H280L341 597H372L489 712H460Z" glyph-name="gcaron" horiz-adv-x="534" unicode="&#487;" /><glyph d="M225 33C144 33 85 91 85 196C85 291 121 378 173 430C211 468 258 491 312 491C364 491 409 469 452 432L371 91C327 58 276 33 225 33ZM170 -176C282 -176 350 -117 376 -12L501 508H480L460 460C417 496 369 518 313 518C251 518 195 492 151 449C92 390 55 298 55 194C55 73 130 6 222 6C268 6 315 25 363 59L347 -8C325 -99 264 -149 172 -149C113 -149 53 -131 7 -102L-6 -128C44 -157 104 -176 170 -176ZM378 679 435 597H461L400 712H369L252 597H282Z" glyph-name="gcircumflex" horiz-adv-x="534" unicode="&#285;" /><glyph d="M225 33C144 33 85 91 85 196C85 291 121 378 173 430C211 468 258 491 312 491C364 491 409 469 452 432L371 91C327 58 276 33 225 33ZM170 -176C282 -176 350 -117 376 -12L501 508H480L460 460C417 496 369 518 313 518C251 518 195 492 151 449C92 390 55 298 55 194C55 73 130 6 222 6C268 6 315 25 363 59L347 -8C325 -99 264 -149 172 -149C113 -149 53 -131 7 -102L-6 -128C44 -157 104 -176 170 -176ZM378 606 392 667H355L341 606Z" glyph-name="gdotaccent" horiz-adv-x="534" unicode="&#289;" /><glyph d="M341 -7C451 -7 536 70 536 174C536 257 481 319 360 360C490 401 584 479 584 586C584 668 526 727 423 727C301 727 222 643 191 514L190 508H96L89 481H183L67 0H97L219 508C247 625 317 699 422 699C508 699 554 652 554 585C554 492 467 416 321 375L315 349C451 306 506 247 506 173C506 89 438 21 344 21C296 21 255 30 214 53L206 22C248 2 291 -7 341 -7Z" glyph-name="germandbls" horiz-adv-x="616" unicode="&#223;" /><glyph d="M339 594H366L288 709H238Z" glyph-name="grave" horiz-adv-x="500" unicode="`" /><glyph d="M131 758H163L76 853H22Z" glyph-name="grave.cap" horiz-adv-x="0" /><glyph d="M147 557 139 526 485 358 58 191 49 154 521 341 528 370Z" glyph-name="greater" horiz-adv-x="564" unicode="&gt;" /><glyph d="M383 106 399 118 283 302 490 495 477 509 241 314 237 297ZM202 106 218 118 101 303 308 495 296 509 60 316 55 298Z" glyph-name="guillemotleft" horiz-adv-x="484" unicode="&#171;" /><glyph d="M395 159 411 171 295 355 502 548 489 562 253 367 249 350ZM214 159 230 171 113 356 320 548 308 562 72 369 67 351Z" glyph-name="guillemotleft.cap" horiz-adv-x="484" /><glyph d="M214 106 450 298 455 316 308 509 292 497 408 311 202 120ZM33 106 269 300 273 317 127 509 111 497 227 312 20 120Z" glyph-name="guillemotright" horiz-adv-x="484" unicode="&#187;" /><glyph d="M226 159 462 351 467 369 320 562 304 550 420 364 214 173ZM45 159 281 353 285 370 139 562 123 550 239 365 32 173Z" glyph-name="guillemotright.cap" horiz-adv-x="484" /><glyph d="M202 106 218 118 101 303 308 495 296 509 60 316 55 298Z" glyph-name="guilsinglleft" horiz-adv-x="302" unicode="&#8249;" /><glyph d="M214 159 230 171 113 356 320 548 308 562 72 369 67 351Z" glyph-name="guilsinglleft.cap" horiz-adv-x="302" /><glyph d="M33 106 269 298 273 316 127 509 111 497 227 311 20 120Z" glyph-name="guilsinglright" horiz-adv-x="302" unicode="&#8250;" /><glyph d="M45 159 281 351 285 369 139 562 123 550 239 364 32 173Z" glyph-name="guilsinglright.cap" horiz-adv-x="302" /><glyph d="M337 489C409 489 451 451 451 383C451 366 448 343 442 321L366 0H396L471 316C478 342 481 367 481 388C481 469 428 517 341 517C284 517 227 495 175 463L238 724H209L34 0H64L167 430C219 465 280 489 337 489Z" glyph-name="h" horiz-adv-x="547" unicode="h" /><glyph d="M336 483C408 483 449 445 449 377C449 359 446 337 440 314L366 0H396L469 310C476 336 479 361 479 382C479 463 426 511 340 511C282 511 225 488 174 457L207 594H373L380 620H213L238 724H209L184 620H108L102 594H178L34 0H64L166 425C218 460 278 483 336 483Z" glyph-name="hbar" horiz-adv-x="547" unicode="&#295;" /><glyph d="M337 489C409 489 451 451 451 383C451 366 448 343 442 321L366 0H396L471 316C478 342 481 367 481 388C481 469 428 517 341 517C284 517 227 495 175 463L238 724H209L34 0H64L167 430C219 465 280 489 337 489ZM256 852 313 770H339L278 885H247L130 770H160Z" glyph-name="hcircumflex" horiz-adv-x="547" unicode="&#293;" /><glyph d="M271 594 424 709H373L241 594ZM399 594 552 709H500L369 594Z" glyph-name="hungarumlaut" horiz-adv-x="500" unicode="&#733;" /><glyph d="M59 758 210 853H153L23 758ZM188 758 339 853H283L153 758Z" glyph-name="hungarumlaut.cap" horiz-adv-x="0" /><glyph d="M302 292 309 322H69L62 292Z" glyph-name="hyphen" horiz-adv-x="346" unicode="-" /><glyph d="M315 345 322 375H82L75 345Z" glyph-name="hyphen.cap" horiz-adv-x="346" /><glyph d="M226 647 241 707H204L189 647ZM66 0 188 508H159L36 0Z" glyph-name="i" horiz-adv-x="225" unicode="i" /><glyph d="M66 0 188 508H159L36 0ZM216 603 230 664H193L179 603Z" glyph-name="i.dot" horiz-adv-x="225" /><glyph d="M66 0 188 508H159L36 0ZM190 594 347 709H292L160 594Z" glyph-name="iacute" horiz-adv-x="225" unicode="&#237;" /><glyph d="M66 0 188 508H159L36 0ZM200 623C157 623 141 653 146 702H122C108 636 137 592 197 592C254 592 301 636 317 702H290C273 653 244 623 200 623Z" glyph-name="ibreve" horiz-adv-x="225" unicode="&#301;" /><glyph d="M66 0 188 508H159L36 0ZM216 676 273 594H299L238 709H207L90 594H120Z" glyph-name="icircumflex" horiz-adv-x="225" unicode="&#238;" /><glyph d="M66 0 188 508H159L36 0ZM148 603 162 664H125L111 603ZM283 603 297 664H260L246 603Z" glyph-name="idieresis" horiz-adv-x="225" unicode="&#239;" /><glyph d="M66 0 188 508H159L36 0ZM201 594H228L150 709H100Z" glyph-name="igrave" horiz-adv-x="225" unicode="&#236;" /><glyph d="M66 0 188 508H159L36 0ZM294 610 302 639H110L102 610Z" glyph-name="imacron" horiz-adv-x="225" unicode="&#299;" /><glyph d="M226 647 241 707H204L189 647ZM61 -118C9 -114 -6 -107 -6 -92C-6 -79 2 -64 65 0H66L188 508H159L36 0H37C-29 -59 -41 -77 -41 -99C-41 -125 -17 -140 51 -144Z" glyph-name="iogonek" horiz-adv-x="225" unicode="&#303;" /><glyph d="M66 0 188 508H159L36 0ZM157 646C167 646 174 641 199 622C226 601 236 594 253 594C284 594 302 615 335 667L311 678C285 635 271 624 258 624C248 624 241 629 217 648C190 669 180 676 162 676C132 676 113 656 81 604L104 592C131 635 144 646 157 646Z" glyph-name="itilde" horiz-adv-x="225" unicode="&#297;" /><glyph d="M229 647 244 707H207L192 647ZM80 34 191 508H161L51 39C26 -66 -19 -104 -92 -153L-80 -177C2 -126 53 -78 80 34Z" glyph-name="j" horiz-adv-x="226" unicode="j" /><glyph d="M80 34 191 508H161L51 39C26 -66 -19 -104 -92 -153L-80 -177C2 -126 53 -78 80 34ZM219 676 276 594H302L241 709H210L93 594H123Z" glyph-name="jcircumflex" horiz-adv-x="226" unicode="&#309;" /><glyph d="M347 0H386L175 260L499 508H452L149 275H130L238 724H209L34 0H64L125 252H143Z" glyph-name="k" horiz-adv-x="468" unicode="k" /><glyph d="M66 0 241 724H211L36 0Z" glyph-name="l" horiz-adv-x="225" unicode="l" /><glyph d="M66 0 241 724H211L36 0ZM238 790 395 905H340L208 790Z" glyph-name="lacute" horiz-adv-x="225" unicode="&#314;" /><glyph d="M66 0 241 724H211L36 0ZM363 725H334C319 655 306 628 280 594L292 586C328 626 347 653 363 725Z" glyph-name="lcaron" horiz-adv-x="225" unicode="&#318;" /><glyph d="M466 154 474 185 128 353 555 520 564 557 93 370 86 341Z" glyph-name="less" horiz-adv-x="564" unicode="&lt;" /><glyph d="M47 -1 78 1 163 357 252 401 259 435 171 389 252 725 222 724 137 374 49 329 41 296 129 341Z" glyph-name="lslash" horiz-adv-x="247" unicode="&#322;" /><glyph d="M335 489C405 489 445 452 445 385C445 367 442 345 437 322L360 0H390L466 318C472 344 475 369 475 390C475 401 474 411 473 420C546 465 604 489 661 489C732 489 771 452 771 385C771 367 769 345 763 322L687 0H717L792 318C798 344 802 369 802 390C802 470 750 517 665 517C601 517 539 491 465 445C447 492 402 517 339 517C282 517 225 494 174 462L177 508H156L34 0H64L168 431C219 466 278 489 335 489Z" glyph-name="m" horiz-adv-x="867" unicode="m" /><glyph d="M447 610 454 639H233L226 610Z" glyph-name="macron" horiz-adv-x="500" unicode="&#175;" /><glyph d="M251 765 259 796H3L-5 765Z" glyph-name="macron.cap" horiz-adv-x="0" /><glyph d="M234 765 242 796H20L12 765Z" glyph-name="macron.capnrw" horiz-adv-x="0" /><glyph d="M182 610 190 639H-2L-10 610Z" glyph-name="macron.nrw" horiz-adv-x="0" /><glyph d="M67 343 83 405H43L28 343Z" glyph-name="middotcat" horiz-adv-x="52" /><glyph d="M63 332 79 398H35L19 332Z" glyph-name="middotcat.cap" horiz-adv-x="162" /><glyph d="M522 340 530 371H91L84 340Z" glyph-name="minus" horiz-adv-x="564" unicode="&#8722;" /><glyph d="M434 162 458 182 328 353 542 524 524 548 309 376 182 548 156 528 286 357 73 186 91 162 305 334Z" glyph-name="multiply" horiz-adv-x="564" unicode="&#215;" /><glyph d="M337 489C409 489 451 451 451 383C451 366 448 343 442 321L366 0H396L471 316C478 342 481 367 481 388C481 469 428 517 341 517C283 517 226 494 174 462L177 508H156L34 0H64L168 431C220 465 280 489 337 489Z" glyph-name="n" horiz-adv-x="547" unicode="n" /><glyph d="M337 489C409 489 451 451 451 383C451 366 448 343 442 321L366 0H396L471 316C478 342 481 367 481 388C481 469 428 517 341 517C283 517 226 494 174 462L177 508H156L34 0H64L168 431C220 465 280 489 337 489ZM349 597 506 712H451L319 597Z" glyph-name="nacute" horiz-adv-x="547" unicode="&#324;" /><glyph d="M337 489C409 489 451 451 451 383C451 366 448 343 442 321L366 0H396L471 316C478 342 481 367 481 388C481 469 428 517 341 517C283 517 226 494 174 462L177 508H156L34 0H64L168 431C220 465 280 489 337 489ZM360 630 303 712H277L338 597H369L486 712H457Z" glyph-name="ncaron" horiz-adv-x="547" unicode="&#328;" /><glyph d="M350 711C216 711 114 585 114 446C114 337 182 270 295 270C346 270 403 284 451 303C391 182 271 71 89 11L96 -17C210 15 303 70 370 137C477 244 531 378 531 507C531 639 457 711 350 711ZM348 682C436 682 499 622 499 505C499 448 487 389 465 335C412 314 352 299 301 299C202 299 146 353 146 448C146 566 235 682 348 682Z" glyph-name="nine" horiz-adv-x="557" unicode="9" /><glyph d="M208 424C120 424 50 358 50 272C50 202 100 159 180 159C214 159 251 167 284 180C245 109 167 50 43 16L49 -10C229 34 339 152 339 287C339 372 287 424 208 424ZM207 397C270 397 309 359 309 285C309 261 304 235 296 209C260 194 219 186 184 186C115 186 80 217 80 273C80 343 135 397 207 397Z" glyph-name="nine.den" horiz-adv-x="394" /><glyph d="M276 706C188 706 118 640 118 554C118 484 168 441 248 441C282 441 319 449 352 462C313 391 235 332 111 298L117 272C297 316 407 434 407 569C407 654 355 706 276 706ZM275 679C338 679 377 641 377 567C377 543 372 517 364 491C328 476 287 468 252 468C183 468 148 499 148 555C148 625 203 679 275 679Z" glyph-name="nine.num" horiz-adv-x="394" /><glyph d="M339 710C192 710 84 582 84 436C84 330 154 271 267 271C325 271 388 289 443 314C384 189 271 88 86 10L99 -17C209 23 295 78 359 142C471 254 520 392 520 509C520 635 449 710 339 710ZM336 681C433 681 488 612 488 505C488 458 476 400 458 348C398 321 328 300 273 300C177 300 117 348 117 438C117 509 145 575 189 619C226 656 279 681 336 681Z" glyph-name="nine.tab" horiz-adv-x="564" /><glyph d="M489 244 496 275H256L391 436H536L543 466H417L524 594H489L381 466H125L118 436H357L223 275H78L70 244H196L90 116H125L231 244Z" glyph-name="notequal" horiz-adv-x="564" unicode="&#8800;" /><glyph d="M337 489C409 489 451 451 451 383C451 366 448 343 442 321L366 0H396L471 316C478 342 481 367 481 388C481 469 428 517 341 517C283 517 226 494 174 462L177 508H156L34 0H64L168 431C220 465 280 489 337 489ZM316 649C326 649 333 644 358 625C385 604 395 597 412 597C443 597 461 618 494 670L470 681C444 638 430 627 417 627C407 627 400 632 376 651C349 672 339 679 321 679C291 679 272 659 240 607L263 595C290 638 303 649 316 649Z" glyph-name="ntilde" horiz-adv-x="547" unicode="&#241;" /><glyph d="M383 238 230 253 281 463 435 448ZM323 -6H354L407 207L544 194L546 223L414 236L466 446L602 433L604 462L473 474L530 706H499L442 477L288 491L341 706H310L258 494L120 507L118 478L251 466L199 256L62 269L60 240L192 227L135 -6H166L223 225L376 210Z" glyph-name="numbersign" horiz-adv-x="618" unicode="#" /><glyph d="M223 -12C283 -12 337 15 379 57C440 118 482 220 482 323C482 448 408 520 310 520C250 520 196 493 153 451C92 390 51 288 51 185C51 60 125 -12 223 -12ZM225 16C145 16 81 75 81 187C81 281 120 377 176 433C212 469 257 492 308 492C388 492 452 433 452 321C452 227 413 131 357 75C321 39 276 16 225 16Z" glyph-name="o" horiz-adv-x="533" unicode="o" /><glyph d="M223 -12C283 -12 337 15 379 57C440 118 482 220 482 323C482 448 408 520 310 520C250 520 196 493 153 451C92 390 51 288 51 185C51 60 125 -12 223 -12ZM225 16C145 16 81 75 81 187C81 281 120 377 176 433C212 469 257 492 308 492C388 492 452 433 452 321C452 227 413 131 357 75C321 39 276 16 225 16ZM336 597 493 712H438L306 597Z" glyph-name="oacute" horiz-adv-x="533" unicode="&#243;" /><glyph d="M223 -12C283 -12 337 15 379 57C440 118 482 220 482 323C482 448 408 520 310 520C250 520 196 493 153 451C92 390 51 288 51 185C51 60 125 -12 223 -12ZM225 16C145 16 81 75 81 187C81 281 120 377 176 433C212 469 257 492 308 492C388 492 452 433 452 321C452 227 413 131 357 75C321 39 276 16 225 16ZM346 626C303 626 287 656 292 705H268C254 639 283 595 343 595C400 595 447 639 463 705H436C419 656 390 626 346 626Z" glyph-name="obreve" horiz-adv-x="533" unicode="&#335;" /><glyph d="M223 -12C283 -12 337 15 379 57C440 118 482 220 482 323C482 448 408 520 310 520C250 520 196 493 153 451C92 390 51 288 51 185C51 60 125 -12 223 -12ZM225 16C145 16 81 75 81 187C81 281 120 377 176 433C212 469 257 492 308 492C388 492 452 433 452 321C452 227 413 131 357 75C321 39 276 16 225 16ZM362 679 419 597H445L384 712H353L236 597H266Z" glyph-name="ocircumflex" horiz-adv-x="533" unicode="&#244;" /><glyph d="M223 -12C283 -12 337 15 379 57C440 118 482 220 482 323C482 448 408 520 310 520C250 520 196 493 153 451C92 390 51 288 51 185C51 60 125 -12 223 -12ZM225 16C145 16 81 75 81 187C81 281 120 377 176 433C212 469 257 492 308 492C388 492 452 433 452 321C452 227 413 131 357 75C321 39 276 16 225 16ZM294 606 308 667H271L257 606ZM429 606 443 667H406L392 606Z" glyph-name="odieresis" horiz-adv-x="533" unicode="&#246;" /><glyph d="M691 492C773 492 820 433 820 339C820 316 818 292 814 270H478C506 387 594 492 691 492ZM226 16C145 16 81 75 81 187C81 281 120 377 176 433C212 469 257 492 306 492C388 492 452 433 452 321C452 227 413 131 357 75C321 39 276 16 226 16ZM378 57C405 84 427 119 444 159C454 57 513 -10 621 -10C671 -10 727 4 776 29L765 55C719 31 669 18 623 18C520 18 469 90 469 190C469 208 470 226 473 243H837C845 272 850 304 850 338C850 449 791 520 694 520C639 520 586 494 546 454C518 426 494 390 477 350C467 458 399 520 308 520C249 520 196 493 153 451C92 390 51 288 51 185C51 60 126 -12 224 -12C283 -12 335 15 378 57Z" glyph-name="oe" horiz-adv-x="893" unicode="&#339;" /><glyph d="M201 -118C149 -114 134 -107 134 -92C134 -79 142 -64 205 0L189 11C112 -57 99 -76 99 -99C99 -125 123 -140 191 -144Z" glyph-name="ogonek" horiz-adv-x="500" unicode="&#731;" /><glyph d="M223 -12C283 -12 337 15 379 57C440 118 482 220 482 323C482 448 408 520 310 520C250 520 196 493 153 451C92 390 51 288 51 185C51 60 125 -12 223 -12ZM225 16C145 16 81 75 81 187C81 281 120 377 176 433C212 469 257 492 308 492C388 492 452 433 452 321C452 227 413 131 357 75C321 39 276 16 225 16ZM347 597H374L296 712H246Z" glyph-name="ograve" horiz-adv-x="533" unicode="&#242;" /><glyph d="M225 -12C283 -12 337 14 379 57C440 117 482 218 482 319C482 402 449 459 399 488C489 494 539 541 539 604C539 616 537 626 534 633L507 623C509 615 510 611 510 600C510 557 470 512 383 512C361 512 336 515 319 515C251 515 196 488 153 445C92 384 51 285 51 183C51 59 126 -12 225 -12ZM226 16C145 16 81 74 81 185C81 277 120 371 176 428C212 464 255 488 310 488C385 488 452 430 452 317C452 225 413 130 357 74C321 38 276 16 226 16Z" glyph-name="ohorn" horiz-adv-x="533" unicode="&#417;" /><glyph d="M223 -12C283 -12 337 15 379 57C440 118 482 220 482 323C482 448 408 520 310 520C250 520 196 493 153 451C92 390 51 288 51 185C51 60 125 -12 223 -12ZM225 16C145 16 81 75 81 187C81 281 120 377 176 433C212 469 257 492 308 492C388 492 452 433 452 321C452 227 413 131 357 75C321 39 276 16 225 16ZM279 597 432 712H381L249 597ZM407 597 560 712H508L377 597Z" glyph-name="ohungarumlaut" horiz-adv-x="533" unicode="&#337;" /><glyph d="M223 -12C283 -12 337 15 379 57C440 118 482 220 482 323C482 448 408 520 310 520C250 520 196 493 153 451C92 390 51 288 51 185C51 60 125 -12 223 -12ZM225 16C145 16 81 75 81 187C81 281 120 377 176 433C212 469 257 492 308 492C388 492 452 433 452 321C452 227 413 131 357 75C321 39 276 16 225 16ZM455 613 462 642H241L234 613Z" glyph-name="omacron" horiz-adv-x="533" unicode="&#333;" /><glyph d="M197 0 367 705H338L137 622L146 596L327 668L165 0Z" glyph-name="one" horiz-adv-x="398" unicode="1" /><glyph d="M139 0 243 421H220L64 365L73 340L205 386L109 0Z" glyph-name="one.den" horiz-adv-x="298" /><glyph d="M207 282 311 703H288L132 647L141 622L273 668L177 282Z" glyph-name="one.num" horiz-adv-x="298" /><glyph d="M397 0 405 29H226L410 705H381L165 616L170 591L369 670L194 29H1L-7 0Z" glyph-name="one.tab" horiz-adv-x="564" /><glyph d="M207 282 311 703H288L132 647L141 622L273 668L177 282ZM96 0H133L422 342L728 700H691L402 358ZM762 0 768 28H518L715 185C781 239 817 279 817 329C817 385 770 423 705 423C647 423 592 394 549 352L566 332C608 371 655 396 703 396C755 396 787 370 787 327C787 289 756 255 697 206L469 22L472 0Z" glyph-name="onehalf" horiz-adv-x="857" unicode="&#189;" /><glyph d="M207 282 311 703H288L132 647L141 622L273 668L177 282ZM96 0H133L422 342L728 700H691L402 358ZM671 132H471L732 385ZM773 105 780 132H699L769 421H732L429 129L432 105H665L639 0H667L692 105Z" glyph-name="onequarter" horiz-adv-x="832" unicode="&#188;" /><glyph d="M207 282 311 703H288L132 647L141 622L273 668L177 282ZM96 0H133L422 342L728 700H691L402 358ZM477 -6C698 -5 790 48 790 128C790 175 750 209 670 217C787 243 836 285 836 340C836 391 791 424 711 424C663 424 615 413 573 394L583 369C625 387 668 396 709 396C775 396 806 374 806 339C806 293 754 253 610 226L605 203C721 196 760 169 760 127C760 66 674 22 484 22Z" glyph-name="onethird" horiz-adv-x="871" unicode="&#8531;" /><glyph d="M223 401C183 401 153 423 153 463C153 515 190 551 291 551C315 551 342 550 369 548L344 446C303 417 262 401 223 401ZM343 380H363L371 442L407 592C410 608 411 618 411 628C411 677 374 705 314 705C270 705 233 696 198 685L203 661C236 672 272 680 310 680C355 680 383 660 383 627C383 613 381 602 379 591L374 572C346 574 318 575 294 575C177 575 125 529 125 460C125 409 165 377 221 377C260 377 300 391 340 417ZM347 276 353 301H75L69 276Z" glyph-name="ordfeminine" horiz-adv-x="410" unicode="&#170;" /><glyph d="M300 706C204 706 124 606 124 500C124 423 175 372 245 372C341 372 421 473 421 578C421 655 370 706 300 706ZM298 681C353 681 393 641 393 575C393 494 331 397 247 397C193 397 152 437 152 503C152 584 214 681 298 681ZM346 276 353 301H74L68 276Z" glyph-name="ordmasculine" horiz-adv-x="410" unicode="&#186;" /><glyph d="M81 187C81 281 120 377 176 433C212 469 257 492 308 492C347 492 382 478 408 451L108 79C91 107 81 143 81 187ZM225 16C186 16 151 30 125 57L425 429C442 401 452 365 452 321C452 227 413 131 357 75C321 39 276 16 225 16ZM223 -12C283 -12 337 15 379 57C440 118 482 220 482 323C482 376 469 420 446 452L535 560H499L428 473C398 504 356 520 310 520C250 520 196 493 153 451C92 390 51 288 51 185C51 132 64 88 87 56L-3 -52H34L106 34C136 4 177 -12 223 -12Z" glyph-name="oslash" horiz-adv-x="533" unicode="&#248;" /><glyph d="M81 187C81 281 120 377 176 433C212 469 257 492 308 492C347 492 382 478 408 451L108 79C91 107 81 143 81 187ZM225 16C186 16 151 30 125 57L425 429C442 401 452 365 452 321C452 227 413 131 357 75C321 39 276 16 225 16ZM223 -12C283 -12 337 15 379 57C440 118 482 220 482 323C482 376 469 420 446 452L535 560H499L428 473C398 504 356 520 310 520C250 520 196 493 153 451C92 390 51 288 51 185C51 132 64 88 87 56L-3 -52H34L106 34C136 4 177 -12 223 -12ZM336 597 493 712H438L306 597Z" glyph-name="oslashacute" horiz-adv-x="533" unicode="&#511;" /><glyph d="M223 -12C283 -12 337 15 379 57C440 118 482 220 482 323C482 448 408 520 310 520C250 520 196 493 153 451C92 390 51 288 51 185C51 60 125 -12 223 -12ZM225 16C145 16 81 75 81 187C81 281 120 377 176 433C212 469 257 492 308 492C388 492 452 433 452 321C452 227 413 131 357 75C321 39 276 16 225 16ZM303 649C313 649 320 644 345 625C372 604 382 597 399 597C430 597 448 618 481 670L457 681C431 638 417 627 404 627C394 627 387 632 363 651C336 672 326 679 308 679C278 679 259 659 227 607L250 595C277 638 290 649 303 649Z" glyph-name="otilde" horiz-adv-x="533" unicode="&#245;" /><glyph d="M224 17C172 17 125 38 82 76L168 434C212 466 262 491 314 491C393 491 455 432 455 321C455 224 418 131 365 78C326 39 278 17 224 17ZM223 -10C286 -10 342 15 386 59C446 119 485 216 485 322C485 449 409 518 318 518C271 518 223 499 174 464L177 508H156L-8 -173H22L75 47C118 11 169 -10 223 -10Z" glyph-name="p" horiz-adv-x="538" unicode="p" /><glyph d="M376 0 545 700H381C209 700 105 594 105 452C105 337 185 282 293 282H295L390 671H506L344 0Z" glyph-name="paragraph" horiz-adv-x="549" unicode="&#182;" /><glyph d="M265 -102C165 -8 114 99 114 214C114 416 233 600 460 707L451 727C215 625 83 428 83 214C83 88 146 -29 250 -119Z" glyph-name="parenleft" horiz-adv-x="402" unicode="(" /><glyph d="M276 -57C176 37 125 144 125 259C125 461 244 645 471 752L462 772C226 670 94 473 94 259C94 133 157 16 261 -74Z" glyph-name="parenleft.cap" horiz-adv-x="402" /><glyph d="M161 710C261 616 311 509 311 394C311 192 193 8 -34 -99L-25 -119C211 -17 343 180 343 394C343 520 280 637 176 727Z" glyph-name="parenright" horiz-adv-x="402" unicode=")" /><glyph d="M172 755C272 661 322 554 322 439C322 237 204 53 -23 -54L-14 -74C222 28 354 225 354 439C354 565 291 682 187 772Z" glyph-name="parenright.cap" horiz-adv-x="402" /><glyph d="M666 697 640 710 362 355 76 3 103 -10 381 345ZM282 706C251 706 222 691 197 667C156 625 128 552 128 482C128 401 169 356 224 356C255 356 284 370 309 395C350 436 378 510 378 580C378 660 337 706 282 706ZM281 679C322 679 349 643 349 579C349 516 324 448 288 412C269 393 247 383 225 383C184 383 156 418 156 482C156 546 182 613 218 649C237 668 259 679 281 679ZM520 344C489 344 459 330 435 305C393 264 365 191 365 120C365 40 406 -6 461 -6C493 -6 522 9 546 33C588 75 615 149 615 218C615 299 575 344 520 344ZM519 317C560 317 587 282 587 218C587 154 562 87 526 51C506 32 485 21 462 21C421 21 394 56 394 121C394 184 419 252 455 288C474 307 496 317 519 317Z" glyph-name="percent" horiz-adv-x="697" unicode="%" /><glyph d="M36 0 50 60H6L-8 0Z" glyph-name="period" horiz-adv-x="150" unicode="." /><glyph d="M79 0 93 60H49L35 0Z" glyph-name="period.tab" horiz-adv-x="282" /><glyph d="M267 130 319 341H522L529 370H326L378 580H346L294 370H91L84 341H287L236 130Z" glyph-name="plus" horiz-adv-x="564" unicode="+" /><glyph d="M273 153 322 353H515L523 382H330L379 583H347L298 382H105L97 353H290L241 153ZM430 0 438 30H20L12 0Z" glyph-name="plusminus" horiz-adv-x="564" unicode="&#177;" /><glyph d="M340 -173 504 508H483L464 460C420 496 370 518 314 518C252 518 196 493 152 449C92 389 53 292 53 185C53 58 130 -10 221 -10C267 -10 313 9 361 41L310 -173ZM224 17C144 17 83 76 83 187C83 284 120 376 173 430C212 468 259 491 314 491C365 491 412 470 455 432L369 74C325 42 275 17 224 17Z" glyph-name="q" horiz-adv-x="538" unicode="q" /><glyph d="M215 159 262 322C456 382 534 459 534 564C534 652 459 710 342 710C270 710 194 685 135 643L150 619C211 659 275 680 341 680C444 680 502 632 502 561C502 477 442 405 236 343L199 159ZM192 0 206 60H162L148 0Z" glyph-name="question" horiz-adv-x="520" unicode="?" /><glyph d="M351 541 304 378C110 318 32 241 32 136C32 48 107 -10 224 -10C296 -10 372 15 431 57L416 81C355 41 291 20 225 20C122 20 64 68 64 139C64 223 124 295 330 357L367 541ZM374 700 360 640H404L418 700Z" glyph-name="questiondown" horiz-adv-x="520" unicode="&#191;" /><glyph d="M417 699V700H368L257 499L271 493ZM272 699V700H223L112 499L126 493Z" glyph-name="quotedbl" horiz-adv-x="348" unicode="&quot;" /><glyph d="M549 699V700H497L361 501L374 493ZM340 699V700H288L152 501L165 493Z" glyph-name="quotedbl.tab" horiz-adv-x="564" /><glyph d="M54 60H14C-4 -26 -26 -68 -88 -134L-79 -145C-4 -86 34 -32 54 60ZM200 60H161C143 -26 121 -68 59 -134L68 -145C142 -86 181 -32 200 60Z" glyph-name="quotedblbase" horiz-adv-x="296" unicode="&#8222;" /><glyph d="M254 521H293C312 607 334 649 396 715L387 726C312 667 273 613 254 521ZM107 521H146C165 607 187 649 249 715L240 726C165 667 127 613 107 521Z" glyph-name="quotedblleft" horiz-adv-x="317" unicode="&#8220;" /><glyph d="M239 724H200C181 639 159 596 97 530L106 519C181 579 220 633 239 724ZM386 724H347C328 639 306 596 244 530L253 519C328 579 367 633 386 724Z" glyph-name="quotedblright" horiz-adv-x="317" unicode="&#8221;" /><glyph d="M107 521H146C165 607 187 649 249 715L240 726C165 667 127 613 107 521Z" glyph-name="quoteleft" horiz-adv-x="170" unicode="&#8216;" /><glyph d="M239 724H200C181 639 159 596 97 530L106 519C181 579 220 633 239 724Z" glyph-name="quoteright" horiz-adv-x="170" unicode="&#8217;" /><glyph d="M54 60H14C-4 -26 -26 -68 -88 -134L-79 -145C-4 -86 34 -32 54 60Z" glyph-name="quotesinglbase" horiz-adv-x="150" unicode="&#8218;" /><glyph d="M272 699V700H223L112 499L126 493Z" glyph-name="quotesingle" horiz-adv-x="203" unicode="'" /><glyph d="M303 699V700H252L115 501L129 493Z" glyph-name="quotesingle.tab" horiz-adv-x="282" /><glyph d="M34 0H64L159 395C235 454 304 480 379 483L386 512C306 512 232 480 165 424L177 508H156Z" glyph-name="r" horiz-adv-x="358" unicode="r" /><glyph d="M34 0H64L159 395C235 454 304 480 379 483L386 512C306 512 232 480 165 424L177 508H156ZM273 594 430 709H375L243 594Z" glyph-name="racute" horiz-adv-x="358" unicode="&#341;" /><glyph d="M34 0H64L159 395C235 454 304 480 379 483L386 512C306 512 232 480 165 424L177 508H156ZM284 627 227 709H201L262 594H293L410 709H381Z" glyph-name="rcaron" horiz-adv-x="358" unicode="&#345;" /><glyph d="M299 709C203 709 121 624 116 522C112 435 166 376 247 376C341 376 426 466 430 563C434 649 379 709 299 709ZM247 390C176 390 128 445 132 523C137 617 213 694 299 694C370 694 418 640 413 561C409 468 332 390 247 390ZM234 543 251 611H293C318 611 328 601 327 585C325 560 297 543 257 543ZM230 526H249C265 526 272 522 280 510L313 463H337L301 513C295 523 291 526 284 530C315 537 344 553 346 585C349 611 331 628 297 628H237L196 463H215Z" glyph-name="registered" horiz-adv-x="409" unicode="&#174;" /><glyph d="M336 586C398 586 445 636 445 689C445 728 415 761 368 761C306 761 259 711 259 658C259 619 288 586 336 586ZM340 609C305 609 285 632 285 661C285 700 318 738 363 738C399 738 418 715 418 686C418 647 385 609 340 609Z" glyph-name="ring" horiz-adv-x="500" unicode="&#730;" /><glyph d="M158 928C95 928 47 878 47 825C47 784 77 751 126 751C189 751 238 801 238 854C238 895 207 928 158 928ZM130 775C94 775 74 798 74 827C74 867 108 904 155 904C190 904 211 881 211 851C211 812 176 775 130 775Z" glyph-name="ring.cap" horiz-adv-x="0" /><glyph d="M252 859H193L86 787H124ZM87 586C146 586 192 635 192 685C192 723 162 754 116 754C57 754 10 706 10 656C10 618 40 586 87 586ZM91 609C56 609 37 631 37 659C37 696 69 731 112 731C146 731 166 710 166 682C166 645 134 609 91 609Z" glyph-name="ringacute" horiz-adv-x="0" /><glyph d="M349 124C349 64 294 18 207 18C140 18 76 43 23 80L7 55C63 16 134 -10 205 -10C308 -10 379 45 379 128C379 193 341 228 249 271C162 312 132 335 132 387C132 440 187 489 269 489C329 489 374 469 419 441L435 467C385 496 339 517 270 517C171 517 102 456 102 383C102 320 142 288 236 244C322 204 349 175 349 124Z" glyph-name="s" horiz-adv-x="469" unicode="s" /><glyph d="M349 124C349 64 294 18 207 18C140 18 76 43 23 80L7 55C63 16 134 -10 205 -10C308 -10 379 45 379 128C379 193 341 228 249 271C162 312 132 335 132 387C132 440 187 489 269 489C329 489 374 469 419 441L435 467C385 496 339 517 270 517C171 517 102 456 102 383C102 320 142 288 236 244C322 204 349 175 349 124ZM311 597 468 712H413L281 597Z" glyph-name="sacute" horiz-adv-x="469" unicode="&#347;" /><glyph d="M349 124C349 64 294 18 207 18C140 18 76 43 23 80L7 55C63 16 134 -10 205 -10C308 -10 379 45 379 128C379 193 341 228 249 271C162 312 132 335 132 387C132 440 187 489 269 489C329 489 374 469 419 441L435 467C385 496 339 517 270 517C171 517 102 456 102 383C102 320 142 288 236 244C322 204 349 175 349 124ZM322 630 265 712H239L300 597H331L448 712H419Z" glyph-name="scaron" horiz-adv-x="469" unicode="&#353;" /><glyph d="M349 124C349 64 294 18 207 18C140 18 76 43 23 80L7 55C63 16 134 -10 205 -10C308 -10 379 45 379 128C379 193 341 228 249 271C162 312 132 335 132 387C132 440 187 489 269 489C329 489 374 469 419 441L435 467C385 496 339 517 270 517C171 517 102 456 102 383C102 320 142 288 236 244C322 204 349 175 349 124ZM337 679 394 597H420L359 712H328L211 597H241Z" glyph-name="scircumflex" horiz-adv-x="469" unicode="&#349;" /><glyph d="M261 231C148 281 125 312 125 349C125 407 184 448 322 491C335 485 350 478 367 470C480 420 502 388 502 352C502 293 444 253 306 210C292 216 278 223 261 231ZM247 -6C350 -6 411 40 411 99C411 135 395 159 340 191C469 234 534 280 534 355C534 404 505 441 383 495C275 546 248 566 248 605C248 644 296 678 377 678C435 678 489 663 542 638L558 666C497 693 446 707 380 707C277 707 216 661 216 602C216 565 232 541 288 509C159 466 94 420 94 346C94 297 123 260 245 206C352 155 380 135 380 96C380 56 332 23 250 23C193 23 138 38 86 63L70 34C131 8 181 -6 247 -6Z" glyph-name="section" horiz-adv-x="577" unicode="&#167;" /><glyph d="M149 448 164 508H120L106 448ZM56 60H17C-2 -26 -24 -68 -86 -134L-77 -145C-2 -86 36 -32 56 60Z" glyph-name="semicolon" horiz-adv-x="160" unicode=";" /><glyph d="M95 -7 577 671 582 700H163L156 671H542L67 9Z" glyph-name="seven" horiz-adv-x="529" unicode="7" /><glyph d="M66 -5 365 388 371 418H86L79 390H331L42 12Z" glyph-name="seven.den" horiz-adv-x="368" /><glyph d="M134 277 433 670 439 700H154L147 672H399L110 294Z" glyph-name="seven.num" horiz-adv-x="368" /><glyph d="M107 -7 568 671 574 700H131L124 671H533L78 6Z" glyph-name="seven.tab" horiz-adv-x="564" /><glyph d="M252 -11C386 -11 488 115 488 254C488 363 420 430 307 430C256 430 199 416 151 397C211 518 331 629 513 689L506 717C392 685 299 630 232 563C125 456 71 322 71 193C71 61 145 -11 252 -11ZM254 18C166 18 103 78 103 195C103 252 115 311 137 365C190 386 250 401 301 401C400 401 456 347 456 252C456 134 367 18 254 18Z" glyph-name="six" horiz-adv-x="557" unicode="6" /><glyph d="M165 -6C253 -6 323 60 323 146C323 216 273 259 193 259C159 259 122 251 89 238C128 309 206 368 330 402L324 428C144 384 34 266 34 131C34 46 86 -6 165 -6ZM166 21C103 21 64 59 64 133C64 157 69 183 77 209C113 224 154 232 189 232C258 232 293 201 293 145C293 75 238 21 166 21Z" glyph-name="six.den" horiz-adv-x="394" /><glyph d="M233 276C321 276 391 342 391 428C391 498 341 541 261 541C227 541 190 533 157 520C196 591 274 650 398 684L392 710C212 666 102 548 102 413C102 328 154 276 233 276ZM234 303C171 303 132 341 132 415C132 439 137 465 145 491C181 506 222 514 257 514C326 514 361 483 361 427C361 357 306 303 234 303Z" glyph-name="six.num" horiz-adv-x="394" /><glyph d="M228 -10C375 -10 483 118 483 264C483 370 413 429 300 429C242 429 179 411 124 386C183 511 296 612 481 690L468 717C358 677 272 622 208 558C96 446 47 308 47 191C47 65 118 -10 228 -10ZM231 19C134 19 79 88 79 195C79 242 91 300 109 352C169 379 239 400 294 400C390 400 450 352 450 262C450 191 422 125 378 81C341 44 288 19 231 19Z" glyph-name="six.tab" horiz-adv-x="564" /><glyph d="M482 795H450L-91 -130H-60Z" glyph-name="slash" horiz-adv-x="364" unicode="/" /><glyph d="M492 811H460L-81 -114H-50Z" glyph-name="slash.cap" horiz-adv-x="364" /><glyph d="M642 811H608L-79 -114H-45Z" glyph-name="slash.tab" horiz-adv-x="564" /><glyph glyph-name="space" horiz-adv-x="188" unicode=" " /><glyph glyph-name="space.cap" horiz-adv-x="212" /><glyph d="M449 29H51C130 86 169 134 200 244L226 334H453L460 364H234L271 494C288 553 316 606 348 634C379 662 421 678 469 678C509 678 554 666 585 653L599 680C565 696 519 707 471 707C414 707 364 690 324 654C287 621 258 566 239 499L202 364H96L89 334H193L170 249C141 144 102 95 5 25L8 0H442Z" glyph-name="sterling" horiz-adv-x="566" unicode="&#163;" /><glyph d="M432 29H37C115 86 154 134 185 244L210 334H437L443 364H219L254 491C271 550 298 604 332 634C363 662 404 678 453 678C493 678 537 666 568 653L582 680C548 696 502 707 455 707C397 707 347 689 307 653C269 618 241 563 223 496L187 364H80L73 334H179L156 249C127 144 85 95 -11 25L-8 0H425Z" glyph-name="sterling.tab" horiz-adv-x="564" /><glyph d="M278 -1 284 29C261 24 238 19 213 19C163 19 121 42 121 97C121 111 123 127 127 144L209 481H384L390 508H216L254 666H225L186 508H97L90 481H180L98 149C93 129 91 109 91 93C91 24 142 -9 211 -9C234 -9 256 -6 278 -1Z" glyph-name="t" horiz-adv-x="378" unicode="t" /><glyph d="M278 -1 284 29C261 24 238 19 213 19C163 19 121 42 121 97C121 111 123 127 127 144L154 257H287L294 284H161L209 481H384L390 508H216L254 666H225L186 508H97L90 481H180L131 284H54L47 257H125L98 149C93 129 91 109 91 93C91 24 142 -9 211 -9C234 -9 256 -6 278 -1Z" glyph-name="tbar" horiz-adv-x="378" unicode="&#359;" /><glyph d="M278 -1 284 29C261 24 238 19 213 19C163 19 121 42 121 97C121 111 123 127 127 144L209 481H384L390 508H216L254 666H225L186 508H97L90 481H180L98 149C93 129 91 109 91 93C91 24 142 -9 211 -9C234 -9 256 -6 278 -1ZM388 718H359C344 648 331 621 305 587L317 579C353 619 372 646 388 718Z" glyph-name="tcaron" horiz-adv-x="378" unicode="&#357;" /><glyph d="M224 17C172 17 125 38 82 76L168 433C213 466 265 491 317 491C397 491 455 433 455 321C455 224 418 131 365 78C326 39 278 17 224 17ZM223 -10C286 -10 342 15 386 59C446 119 485 217 485 323C485 450 411 518 320 518C273 518 225 499 176 465L238 724H209L-8 -173H22L75 47C118 11 169 -10 223 -10Z" glyph-name="thorn" horiz-adv-x="538" unicode="&#254;" /><glyph d="M5 -7C311 -6 456 88 456 217C456 300 392 353 266 365C443 409 531 482 531 576C531 656 468 710 357 710C286 710 220 690 157 659L169 633C231 663 294 680 356 680C450 680 499 638 499 574C499 491 413 421 196 373L191 346C360 339 424 295 424 215C424 109 294 24 12 23Z" glyph-name="three" horiz-adv-x="537" unicode="3" /><glyph d="M-13 -6C208 -5 300 48 300 128C300 175 260 209 180 217C297 243 346 285 346 340C346 391 301 424 221 424C173 424 125 413 83 394L93 369C135 387 178 396 219 396C285 396 316 374 316 339C316 293 264 253 120 226L115 203C231 196 270 169 270 127C270 66 184 22 -6 22Z" glyph-name="three.den" horiz-adv-x="381" /><glyph d="M55 276C276 277 368 330 368 410C368 457 328 491 248 499C365 525 414 567 414 622C414 673 369 706 289 706C241 706 193 695 151 676L161 651C203 669 246 678 287 678C353 678 384 656 384 621C384 575 332 535 188 508L183 485C299 478 338 451 338 409C338 348 252 304 62 304Z" glyph-name="three.num" horiz-adv-x="381" /><glyph d="M-18 -7C287 1 452 93 452 229C452 305 385 358 247 367C430 421 529 491 529 589C529 658 470 708 358 708C278 708 200 683 124 643L136 618C207 654 282 679 355 679C448 679 497 642 497 587C497 499 386 426 168 373V347C343 344 420 300 420 228C420 113 270 31 -11 23Z" glyph-name="three.tab" horiz-adv-x="564" /><glyph d="M55 276C276 277 368 330 368 410C368 457 328 491 248 499C365 525 414 567 414 622C414 673 369 706 289 706C241 706 193 695 151 676L161 651C203 669 246 678 287 678C353 678 384 656 384 621C384 575 332 535 188 508L183 485C299 478 338 451 338 409C338 348 252 304 62 304ZM172 0H209L498 342L804 700H767L478 358ZM747 132H547L808 385ZM849 105 856 132H775L845 421H808L505 129L508 105H741L715 0H743L768 105Z" glyph-name="threequarters" horiz-adv-x="908" unicode="&#190;" /><glyph d="M295 646C305 646 312 641 337 622C364 601 374 594 391 594C422 594 440 615 473 667L449 678C423 635 409 624 396 624C386 624 379 629 355 648C328 669 318 676 300 676C270 676 251 656 219 604L242 592C269 635 282 646 295 646Z" glyph-name="tilde" horiz-adv-x="500" unicode="&#732;" /><glyph d="M82 809C94 809 100 806 125 786C152 766 165 758 183 758C213 758 233 779 266 830L242 841C213 800 201 790 188 790C176 790 170 793 144 813C118 833 104 840 87 840C56 840 37 820 3 769L27 757C56 799 69 809 82 809Z" glyph-name="tilde.cap" horiz-adv-x="0" /><glyph d="M178 477 227 680H307L311 700H131L126 680H205L156 477ZM376 672 414 477H437L568 672L531 477H552L595 700H563L431 502L392 700H364L299 477H320Z" glyph-name="trademark" horiz-adv-x="542" unicode="&#8482;" /><glyph d="M107 700V690L431 -12H449L773 690V700Z" glyph-name="triagdn" horiz-adv-x="782" unicode="&#9660;" /><glyph d="M75 700 286 -13H309L520 700Z" glyph-name="triagdn.tab" horiz-adv-x="564" /><glyph d="M715 0V10L391 712H373L49 10V0Z" glyph-name="triagup" horiz-adv-x="782" unicode="&#9650;" /><glyph d="M490 0 278 713H255L44 0Z" glyph-name="triagup.tab" horiz-adv-x="564" /><glyph d="M424 0 431 29H48L376 319C472 408 528 475 528 564C528 646 469 708 368 708C283 708 211 666 147 602L167 580C229 642 294 678 367 678C451 678 497 630 497 560C497 486 444 423 353 338L-1 22L2 0Z" glyph-name="two" horiz-adv-x="540" unicode="2" /><glyph d="M280 0 286 28H36L233 185C299 239 335 279 335 329C335 385 288 423 223 423C165 423 110 394 67 352L84 332C126 371 173 396 221 396C273 396 305 370 305 327C305 289 274 255 215 206L-13 22L-10 0Z" glyph-name="two.den" horiz-adv-x="375" /><glyph d="M348 282 354 310H104L301 467C367 521 403 561 403 611C403 667 356 705 291 705C233 705 178 676 135 634L152 614C194 653 241 678 289 678C341 678 373 652 373 609C373 571 342 537 283 488L55 304L58 282Z" glyph-name="two.num" horiz-adv-x="375" /><glyph d="M415 0 422 29H36L350 306C463 407 515 472 515 562C515 646 459 708 355 708C265 708 187 661 121 597L141 576C208 639 277 678 354 678C438 678 483 630 483 559C483 483 439 424 331 328L-13 22L-10 0Z" glyph-name="two.tab" horiz-adv-x="564" /><glyph d="M348 282 354 310H104L301 467C367 521 403 561 403 611C403 667 356 705 291 705C233 705 178 676 135 634L152 614C194 653 241 678 289 678C341 678 373 652 373 609C373 571 342 537 283 488L55 304L58 282ZM209 0H246L535 342L841 700H804L515 358ZM590 -6C811 -5 903 48 903 128C903 175 863 209 783 217C900 243 949 285 949 340C949 391 904 424 824 424C776 424 728 413 686 394L696 369C738 387 781 396 822 396C888 396 919 374 919 339C919 293 867 253 723 226L718 203C834 196 873 169 873 127C873 66 787 22 597 22Z" glyph-name="twothirds" horiz-adv-x="984" unicode="&#8532;" /><glyph d="M370 0H390L513 508H483L379 77C327 43 267 19 209 19C137 19 96 57 96 125C96 142 99 165 104 187L180 508H150L75 192C69 166 66 141 66 120C66 39 119 -9 205 -9C262 -9 321 13 373 45Z" glyph-name="u" horiz-adv-x="547" unicode="u" /><glyph d="M370 0H390L513 508H483L379 77C327 43 267 19 209 19C137 19 96 57 96 125C96 142 99 165 104 187L180 508H150L75 192C69 166 66 141 66 120C66 39 119 -9 205 -9C262 -9 321 13 373 45ZM342 589 499 704H444L312 589Z" glyph-name="uacute" horiz-adv-x="547" unicode="&#250;" /><glyph d="M370 0H390L513 508H483L379 77C327 43 267 19 209 19C137 19 96 57 96 125C96 142 99 165 104 187L180 508H150L75 192C69 166 66 141 66 120C66 39 119 -9 205 -9C262 -9 321 13 373 45ZM352 618C309 618 293 648 298 697H274C260 631 289 587 349 587C406 587 453 631 469 697H442C425 648 396 618 352 618Z" glyph-name="ubreve" horiz-adv-x="547" unicode="&#365;" /><glyph d="M370 0H390L513 508H483L379 77C327 43 267 19 209 19C137 19 96 57 96 125C96 142 99 165 104 187L180 508H150L75 192C69 166 66 141 66 120C66 39 119 -9 205 -9C262 -9 321 13 373 45ZM369 676 426 594H452L391 709H360L243 594H273Z" glyph-name="ucircumflex" horiz-adv-x="547" unicode="&#251;" /><glyph d="M370 0H390L513 508H483L379 77C327 43 267 19 209 19C137 19 96 57 96 125C96 142 99 165 104 187L180 508H150L75 192C69 166 66 141 66 120C66 39 119 -9 205 -9C262 -9 321 13 373 45ZM301 603 315 664H278L264 603ZM436 603 450 664H413L399 603Z" glyph-name="udieresis" horiz-adv-x="547" unicode="&#252;" /><glyph d="M370 0H390L513 508H483L379 77C327 43 267 19 209 19C137 19 96 57 96 125C96 142 99 165 104 187L180 508H150L75 192C69 166 66 141 66 120C66 39 119 -9 205 -9C262 -9 321 13 373 45ZM353 589H380L302 704H252Z" glyph-name="ugrave" horiz-adv-x="547" unicode="&#249;" /><glyph d="M373 45 370 0H390L507 485C589 491 643 538 643 603C643 615 641 625 637 633L610 623C613 614 614 609 614 599C614 556 579 508 483 508L379 77C327 43 267 19 209 19C137 19 96 57 96 125C96 142 99 165 104 187L180 508H150L75 192C69 166 66 141 66 120C66 39 119 -9 205 -9C262 -9 321 13 373 45Z" glyph-name="uhorn" horiz-adv-x="563" unicode="&#432;" /><glyph d="M370 0H390L513 508H483L379 77C327 43 267 19 209 19C137 19 96 57 96 125C96 142 99 165 104 187L180 508H150L75 192C69 166 66 141 66 120C66 39 119 -9 205 -9C262 -9 321 13 373 45ZM286 594 439 709H388L256 594ZM414 594 567 709H515L384 594Z" glyph-name="uhungarumlaut" horiz-adv-x="547" unicode="&#369;" /><glyph d="M370 0H390L513 508H483L379 77C327 43 267 19 209 19C137 19 96 57 96 125C96 142 99 165 104 187L180 508H150L75 192C69 166 66 141 66 120C66 39 119 -9 205 -9C262 -9 321 13 373 45ZM462 610 469 639H248L241 610Z" glyph-name="umacron" horiz-adv-x="547" unicode="&#363;" /><glyph d="M440 -90 447 -60H-27L-34 -90Z" glyph-name="underscore" horiz-adv-x="470" unicode="_" /><glyph glyph-name="uni0000" horiz-adv-x="0" /><glyph d="M45 860 46 831C78 838 110 842 144 842C188 842 203 835 203 824C203 813 196 804 111 777L113 752C220 783 240 805 240 830C240 856 211 872 150 872C112 872 81 868 45 860Z" glyph-name="uni00200309.cap" horiz-adv-x="0" /><glyph glyph-name="uni00A0" horiz-adv-x="188" unicode="&#160;" /><glyph d="M108 706H137L70 801H19ZM36 603 50 664H13L-1 603ZM171 603 185 664H148L134 603Z" glyph-name="uni00A80300" horiz-adv-x="0" /><glyph d="M177 860 100 940H46L143 860ZM70 758 84 820H45L31 758ZM214 758 228 820H189L175 758Z" glyph-name="uni00A80300.cap" horiz-adv-x="0" /><glyph d="M113 706 247 801H191L81 706ZM36 603 50 664H13L-1 603ZM171 603 185 664H148L134 603Z" glyph-name="uni00A80301" horiz-adv-x="0" /><glyph d="M152 860 289 940H228L115 860ZM70 758 84 820H45L31 758ZM214 758 228 820H189L175 758Z" glyph-name="uni00A80301.cap" horiz-adv-x="0" /><glyph d="M209 712 216 742H21L14 712ZM36 603 50 664H13L-1 603ZM171 603 185 664H148L134 603Z" glyph-name="uni00A80304" horiz-adv-x="0" /><glyph d="M256 866 264 897H47L40 866ZM70 758 84 820H45L31 758ZM214 758 228 820H189L175 758Z" glyph-name="uni00A80304.cap" horiz-adv-x="0" /><glyph d="M125 706 239 801H209L115 738L52 801H26L94 706ZM36 603 50 664H13L-1 603ZM171 603 185 664H148L134 603Z" glyph-name="uni00A8030C" horiz-adv-x="0" /><glyph d="M163 860 276 940H241L152 892L88 940H56L130 860ZM70 758 84 820H45L31 758ZM214 758 228 820H189L175 758Z" glyph-name="uni00A8030C.cap" horiz-adv-x="0" /><glyph d="M394 419 400 447H150L347 604C413 658 449 698 449 748C449 804 402 842 337 842C279 842 224 813 181 771L198 751C240 790 287 815 335 815C387 815 419 789 419 746C419 708 388 674 329 625L101 441L104 419Z" glyph-name="uni00B2" horiz-adv-x="405" unicode="&#178;" /><glyph d="M101 413C322 414 414 467 414 547C414 594 374 628 294 636C411 662 460 704 460 759C460 810 415 843 335 843C287 843 239 832 197 813L207 788C249 806 292 815 333 815C399 815 430 793 430 758C430 712 378 672 234 645L229 622C345 615 384 588 384 546C384 485 298 441 108 441Z" glyph-name="uni00B3" horiz-adv-x="411" unicode="&#179;" /><glyph d="M63 -6 82 81C95 24 143 -7 211 -7C265 -7 320 12 379 48L376 0H396L518 508H489L385 78C325 41 268 21 216 21C144 21 101 59 101 128C101 146 105 167 111 189L186 508H156L-5 -166H24Z" glyph-name="uni00B5" horiz-adv-x="553" unicode="&#181;" /><glyph d="M115 277 130 337H86L72 277Z" glyph-name="uni00B7" horiz-adv-x="176" unicode="&#183;" /><glyph d="M104 330 121 390H77L61 330Z" glyph-name="uni00B7.cap" horiz-adv-x="176" /><glyph d="M157 325 171 385H128L113 325Z" glyph-name="uni00B7.tab" horiz-adv-x="282" /><glyph d="M253 419 357 840H334L178 784L187 759L319 805L223 419Z" glyph-name="uni00B9" horiz-adv-x="328" unicode="&#185;" /><glyph d="M552 45 627 346H383L376 317H589L525 64C471 34 411 20 351 20C200 20 119 126 119 271C119 392 165 510 239 585C298 643 377 680 468 680C544 680 610 655 661 621L677 648C621 685 549 710 471 710C368 710 279 668 215 604C136 525 87 400 87 271C87 105 187 -9 346 -9C423 -9 489 9 552 45ZM272 -69C281 -84 285 -94 285 -104C285 -124 276 -139 239 -167L249 -181C308 -148 323 -119 323 -93C323 -81 319 -70 310 -56Z" glyph-name="uni0122" horiz-adv-x="698" unicode="&#290;" /><glyph d="M225 33C144 33 85 91 85 196C85 291 121 378 173 430C211 468 258 491 312 491C364 491 409 469 452 432L371 91C327 58 276 33 225 33ZM170 -176C282 -176 350 -117 376 -12L501 508H480L460 460C417 496 369 518 313 518C251 518 195 492 151 449C92 390 55 298 55 194C55 73 130 6 222 6C268 6 315 25 363 59L347 -8C325 -99 264 -149 172 -149C113 -149 53 -131 7 -102L-6 -128C44 -157 104 -176 170 -176ZM386 606C377 621 373 631 373 641C373 661 382 676 419 704L409 718C350 685 335 656 335 630C335 618 339 607 348 593Z" glyph-name="uni0123" horiz-adv-x="534" unicode="&#291;" /><glyph d="M486 0H529L221 360L688 700H640L193 374H173L252 700H220L51 0H83L167 348H189ZM220 -57C229 -72 233 -82 233 -92C233 -112 224 -127 187 -155L197 -169C256 -136 271 -107 271 -81C271 -69 267 -58 258 -44Z" glyph-name="uni0136" horiz-adv-x="615" unicode="&#310;" /><glyph d="M347 0H386L175 260L499 508H452L149 275H130L238 724H209L34 0H64L125 252H143ZM146 -57C155 -72 159 -82 159 -92C159 -112 150 -127 113 -155L123 -169C182 -136 197 -107 197 -81C197 -69 193 -58 184 -44Z" glyph-name="uni0137" horiz-adv-x="468" unicode="&#311;" /><glyph d="M51 0H450L457 29H90L252 700H220ZM206 -62C215 -77 219 -87 219 -97C219 -117 210 -132 173 -160L183 -174C242 -141 257 -112 257 -86C257 -74 253 -63 244 -49Z" glyph-name="uni013B" horiz-adv-x="542" unicode="&#315;" /><glyph d="M66 0 241 724H211L36 0ZM9 -62C18 -77 22 -87 22 -97C22 -117 13 -132 -24 -160L-14 -174C45 -141 60 -112 60 -86C60 -74 56 -63 47 -49Z" glyph-name="uni013C" horiz-adv-x="225" unicode="&#316;" /><glyph d="M507 0H541L709 700H678L521 48L256 700H220L51 0H82L240 658ZM245 -57C254 -72 258 -82 258 -92C258 -112 249 -127 212 -155L222 -169C281 -136 296 -107 296 -81C296 -69 292 -58 283 -44Z" glyph-name="uni0145" horiz-adv-x="714" unicode="&#325;" /><glyph d="M337 489C409 489 451 451 451 383C451 366 448 343 442 321L366 0H396L471 316C478 342 481 367 481 388C481 469 428 517 341 517C283 517 226 494 174 462L177 508H156L34 0H64L168 431C220 465 280 489 337 489ZM176 -57C185 -72 189 -82 189 -92C189 -112 180 -127 143 -155L153 -169C212 -136 227 -107 227 -81C227 -69 223 -58 214 -44Z" glyph-name="uni0146" horiz-adv-x="547" unicode="&#326;" /><glyph d="M417 671C536 671 589 612 589 532C589 480 570 436 535 400C483 349 387 320 293 320H160L245 671ZM267 291C344 291 374 267 412 202L530 0H570L436 222C411 264 392 284 358 298C510 320 622 401 622 538C622 632 552 700 421 700H220L51 0H83L153 291ZM241 -57C250 -72 254 -82 254 -92C254 -112 245 -127 208 -155L218 -169C277 -136 292 -107 292 -81C292 -69 288 -58 279 -44Z" glyph-name="uni0156" horiz-adv-x="658" unicode="&#342;" /><glyph d="M34 0H64L159 395C235 454 304 480 379 483L386 512C306 512 232 480 165 424L177 508H156ZM7 -62C16 -77 20 -87 20 -97C20 -117 11 -132 -26 -160L-16 -174C43 -141 58 -112 58 -86C58 -74 54 -63 45 -49Z" glyph-name="uni0157" horiz-adv-x="358" unicode="&#343;" /><glyph d="M281 -84C281 -59 260 -47 219 -43L249 -7C257 -8 265 -8 274 -8C419 -8 520 72 520 185C520 263 471 310 337 376C219 436 175 470 175 534C175 612 249 679 364 679C446 679 515 654 572 617L590 643C530 681 455 708 366 708C230 708 143 628 143 533C143 454 195 411 320 350C444 286 488 245 488 183C488 88 396 21 276 21C179 21 100 54 41 94L23 67C81 30 145 3 222 -5L185 -51L190 -63C233 -65 247 -72 247 -86C247 -102 228 -115 144 -117L142 -141C245 -140 281 -117 281 -84Z" glyph-name="uni015E" horiz-adv-x="596" unicode="&#350;" /><glyph d="M219 -84C219 -59 198 -47 157 -43L185 -9C192 -10 198 -10 205 -10C308 -10 379 45 379 128C379 193 341 228 249 271C162 312 132 335 132 387C132 440 187 489 269 489C329 489 374 469 419 441L435 467C385 496 339 517 270 517C171 517 102 456 102 383C102 320 142 288 236 244C322 204 349 175 349 124C349 64 294 18 207 18C140 18 76 43 23 80L7 55C51 24 104 2 159 -7L123 -51L128 -63C171 -65 185 -72 185 -86C185 -102 166 -115 82 -117L80 -141C183 -140 219 -117 219 -84Z" glyph-name="uni015F" horiz-adv-x="469" unicode="&#351;" /><glyph d="M278 -84C278 -59 257 -47 216 -43L252 0H253L415 671H669L676 700H136L128 671H383L221 0H224L182 -51L187 -63C230 -65 244 -72 244 -86C244 -102 225 -115 141 -117L139 -141C242 -140 278 -117 278 -84Z" glyph-name="uni0162" horiz-adv-x="600" unicode="&#354;" /><glyph d="M218 -84C218 -59 197 -47 156 -43L186 -7C194 -8 202 -9 211 -9C234 -9 256 -6 278 -1L284 29C261 24 238 19 213 19C163 19 121 42 121 97C121 111 123 127 127 144L209 481H384L390 508H216L254 666H225L186 508H97L90 481H180L98 149C93 129 91 109 91 93C91 42 119 10 162 -2L122 -51L127 -63C170 -65 184 -72 184 -86C184 -102 165 -115 81 -117L79 -141C182 -140 218 -117 218 -84Z" glyph-name="uni0163" horiz-adv-x="378" unicode="&#355;" /><glyph d="M293 -11C375 -11 453 25 514 86C599 171 653 318 653 452C653 616 559 711 414 711C330 711 256 686 187 637L204 613C269 658 338 682 412 682C542 682 622 595 622 449C622 424 620 398 616 372H94C83 316 80 275 80 239C80 78 164 -11 293 -11ZM295 17C180 17 111 97 111 239C111 271 113 306 121 343H610C591 252 549 163 491 105C436 51 368 17 295 17Z" glyph-name="uni018F" horiz-adv-x="689" unicode="&#399;" /><glyph d="M508 219H160L442 667ZM541 0H573L465 712H437L-14 0H22L142 190H513ZM468 798 408 860H376L445 765H479L593 860H558Z" glyph-name="uni01CD" horiz-adv-x="681" unicode="&#461;" /><glyph d="M174 19C110 19 58 55 58 125C58 211 119 274 273 274C309 274 354 272 395 268L344 81C287 42 230 19 174 19ZM341 0H363L377 95L444 342C450 365 452 382 452 399C452 475 391 516 303 516C240 516 192 505 140 488L147 461C195 477 245 487 299 487C372 487 423 458 423 394C423 380 421 362 416 345L402 294C360 299 314 301 276 301C108 301 28 232 28 124C28 38 90 -9 171 -9C231 -9 286 14 342 53ZM340 630 283 712H257L318 597H349L466 712H437Z" glyph-name="uni01CE" horiz-adv-x="509" unicode="&#462;" /><glyph d="M87 0 256 700H224L55 0ZM259 791 199 853H167L236 758H270L384 853H349Z" glyph-name="uni01CF" horiz-adv-x="264" unicode="&#463;" /><glyph d="M66 0 188 508H159L36 0ZM201 627 144 709H118L179 594H210L327 709H298Z" glyph-name="uni01D0" horiz-adv-x="225" unicode="&#464;" /><glyph d="M329 -12C411 -12 484 24 545 85C627 167 681 306 681 443C681 610 582 712 438 712C356 712 282 676 222 615C140 533 85 394 85 257C85 90 185 -12 329 -12ZM435 683C564 683 650 590 650 440C650 313 597 180 519 102C468 50 402 17 332 17C203 17 117 110 117 260C117 387 170 520 248 598C299 650 365 683 435 683ZM475 798 415 860H383L452 765H486L600 860H565Z" glyph-name="uni01D1" horiz-adv-x="720" unicode="&#465;" /><glyph d="M223 -12C283 -12 337 15 379 57C440 118 482 220 482 323C482 448 408 520 310 520C250 520 196 493 153 451C92 390 51 288 51 185C51 60 125 -12 223 -12ZM225 16C145 16 81 75 81 187C81 281 120 377 176 433C212 469 257 492 308 492C388 492 452 433 452 321C452 227 413 131 357 75C321 39 276 16 225 16ZM347 630 290 712H264L325 597H356L473 712H444Z" glyph-name="uni01D2" horiz-adv-x="533" unicode="&#466;" /><glyph d="M587 239 696 700H665L557 243C521 102 431 19 317 19C205 19 132 86 132 199C132 224 136 261 143 289L240 700H208L112 293C104 262 99 225 99 196C99 68 190 -10 313 -10C448 -10 549 82 587 239ZM465 786 405 848H373L442 753H476L590 848H555Z" glyph-name="uni01D3" horiz-adv-x="690" unicode="&#467;" /><glyph d="M370 0H390L513 508H483L379 77C327 43 267 19 209 19C137 19 96 57 96 125C96 142 99 165 104 187L180 508H150L75 192C69 166 66 141 66 120C66 39 119 -9 205 -9C262 -9 321 13 373 45ZM353 622 296 704H270L331 589H362L479 704H450Z" glyph-name="uni01D4" horiz-adv-x="547" unicode="&#468;" /><glyph d="M587 239 696 700H665L557 243C521 102 431 19 317 19C205 19 132 86 132 199C132 224 136 261 143 289L240 700H208L112 293C104 262 99 225 99 196C99 68 190 -10 313 -10C448 -10 549 82 587 239ZM594 866 602 897H385L378 866ZM408 758 422 820H383L369 758ZM552 758 566 820H527L513 758Z" glyph-name="uni01D5" horiz-adv-x="690" unicode="&#469;" /><glyph d="M370 0H390L513 508H483L379 77C327 43 267 19 209 19C137 19 96 57 96 125C96 142 99 165 104 187L180 508H150L75 192C69 166 66 141 66 120C66 39 119 -9 205 -9C262 -9 321 13 373 45ZM474 712 481 742H286L279 712ZM301 603 315 664H278L264 603ZM436 603 450 664H413L399 603Z" glyph-name="uni01D6" horiz-adv-x="547" unicode="&#470;" /><glyph d="M587 239 696 700H665L557 243C521 102 431 19 317 19C205 19 132 86 132 199C132 224 136 261 143 289L240 700H208L112 293C104 262 99 225 99 196C99 68 190 -10 313 -10C448 -10 549 82 587 239ZM490 860 627 940H566L453 860ZM408 758 422 820H383L369 758ZM552 758 566 820H527L513 758Z" glyph-name="uni01D7" horiz-adv-x="690" unicode="&#471;" /><glyph d="M370 0H390L513 508H483L379 77C327 43 267 19 209 19C137 19 96 57 96 125C96 142 99 165 104 187L180 508H150L75 192C69 166 66 141 66 120C66 39 119 -9 205 -9C262 -9 321 13 373 45ZM378 706 512 801H456L346 706ZM301 603 315 664H278L264 603ZM436 603 450 664H413L399 603Z" glyph-name="uni01D8" horiz-adv-x="547" unicode="&#472;" /><glyph d="M587 239 696 700H665L557 243C521 102 431 19 317 19C205 19 132 86 132 199C132 224 136 261 143 289L240 700H208L112 293C104 262 99 225 99 196C99 68 190 -10 313 -10C448 -10 549 82 587 239ZM501 860 614 940H579L490 892L426 940H394L468 860ZM408 758 422 820H383L369 758ZM552 758 566 820H527L513 758Z" glyph-name="uni01D9" horiz-adv-x="690" unicode="&#473;" /><glyph d="M370 0H390L513 508H483L379 77C327 43 267 19 209 19C137 19 96 57 96 125C96 142 99 165 104 187L180 508H150L75 192C69 166 66 141 66 120C66 39 119 -9 205 -9C262 -9 321 13 373 45ZM390 706 504 801H474L380 738L317 801H291L359 706ZM301 603 315 664H278L264 603ZM436 603 450 664H413L399 603Z" glyph-name="uni01DA" horiz-adv-x="547" unicode="&#474;" /><glyph d="M587 239 696 700H665L557 243C521 102 431 19 317 19C205 19 132 86 132 199C132 224 136 261 143 289L240 700H208L112 293C104 262 99 225 99 196C99 68 190 -10 313 -10C448 -10 549 82 587 239ZM515 860 438 940H384L481 860ZM408 758 422 820H383L369 758ZM552 758 566 820H527L513 758Z" glyph-name="uni01DB" horiz-adv-x="690" unicode="&#475;" /><glyph d="M370 0H390L513 508H483L379 77C327 43 267 19 209 19C137 19 96 57 96 125C96 142 99 165 104 187L180 508H150L75 192C69 166 66 141 66 120C66 39 119 -9 205 -9C262 -9 321 13 373 45ZM373 706H402L335 801H284ZM301 603 315 664H278L264 603ZM436 603 450 664H413L399 603Z" glyph-name="uni01DC" horiz-adv-x="547" unicode="&#476;" /><glyph d="M435 683C564 683 650 590 650 440C650 313 597 180 519 102C468 50 402 17 332 17C203 17 117 110 117 260C117 387 170 520 248 598C299 650 365 683 435 683ZM336 -118C284 -114 269 -107 269 -92C269 -80 276 -66 328 -12H329C411 -12 484 24 545 85C627 167 681 306 681 443C681 610 582 712 438 712C356 712 282 676 222 615C140 533 85 394 85 257C85 101 172 2 300 -11C244 -61 234 -79 234 -99C234 -125 258 -140 326 -144Z" glyph-name="uni01EA" horiz-adv-x="720" unicode="&#490;" /><glyph d="M228 -144 238 -118C186 -114 171 -107 171 -92C171 -80 178 -66 230 -12C287 -10 339 17 379 57C440 118 482 220 482 323C482 448 408 520 310 520C250 520 196 493 153 451C92 390 51 288 51 185C51 69 114 -1 202 -11C146 -61 136 -79 136 -99C136 -125 160 -140 228 -144ZM225 16C145 16 81 75 81 187C81 281 120 377 176 433C212 469 257 492 308 492C388 492 452 433 452 321C452 227 413 131 357 75C321 39 276 16 225 16Z" glyph-name="uni01EB" horiz-adv-x="533" unicode="&#491;" /><glyph d="M80 34 191 508H161L51 39C26 -66 -19 -104 -92 -153L-80 -177C2 -126 53 -78 80 34ZM204 627 147 709H121L182 594H213L330 709H301Z" glyph-name="uni01F0" horiz-adv-x="226" unicode="&#496;" /><glyph d="M507 0H541L709 700H678L521 48L256 700H220L51 0H82L240 658ZM489 753H521L434 848H380Z" glyph-name="uni01F8" horiz-adv-x="714" unicode="&#504;" /><glyph d="M337 489C409 489 451 451 451 383C451 366 448 343 442 321L366 0H396L471 316C478 342 481 367 481 388C481 469 428 517 341 517C283 517 226 494 174 462L177 508H156L34 0H64L168 431C220 465 280 489 337 489ZM360 597H387L309 712H259Z" glyph-name="uni01F9" horiz-adv-x="547" unicode="&#505;" /><glyph d="M488 183C488 88 396 21 276 21C179 21 100 54 41 94L23 67C93 22 173 -8 274 -8C419 -8 520 72 520 185C520 263 471 310 337 376C219 436 175 470 175 534C175 612 249 679 364 679C446 679 515 654 572 617L590 643C530 681 455 708 366 708C230 708 143 628 143 533C143 454 195 411 320 350C444 286 488 245 488 183ZM198 -69C207 -84 211 -94 211 -104C211 -124 202 -139 165 -167L175 -181C234 -148 249 -119 249 -93C249 -81 245 -70 236 -56Z" glyph-name="uni0218" horiz-adv-x="596" unicode="&#536;" /><glyph d="M349 124C349 64 294 18 207 18C140 18 76 43 23 80L7 55C63 16 134 -10 205 -10C308 -10 379 45 379 128C379 193 341 228 249 271C162 312 132 335 132 387C132 440 187 489 269 489C329 489 374 469 419 441L435 467C385 496 339 517 270 517C171 517 102 456 102 383C102 320 142 288 236 244C322 204 349 175 349 124ZM136 -65C145 -80 149 -90 149 -100C149 -120 140 -135 103 -163L113 -177C172 -144 187 -115 187 -89C187 -77 183 -66 174 -52Z" glyph-name="uni0219" horiz-adv-x="469" unicode="&#537;" /><glyph d="M669 671 676 700H136L128 671H383L221 0H253L415 671ZM197 -62C206 -77 210 -87 210 -97C210 -117 201 -132 164 -160L174 -174C233 -141 248 -112 248 -86C248 -74 244 -63 235 -49Z" glyph-name="uni021A" horiz-adv-x="600" unicode="&#538;" /><glyph d="M278 -1 284 29C261 24 238 19 213 19C163 19 121 42 121 97C121 111 123 127 127 144L209 481H384L390 508H216L254 666H225L186 508H97L90 481H180L98 149C93 129 91 109 91 93C91 24 142 -9 211 -9C234 -9 256 -6 278 -1ZM127 -65C136 -80 140 -90 140 -100C140 -120 131 -135 94 -163L104 -177C163 -144 178 -115 178 -89C178 -77 174 -66 165 -52Z" glyph-name="uni021B" horiz-adv-x="378" unicode="&#539;" /><glyph d="M508 219H160L442 667ZM541 0H573L465 712H437L-14 0H22L142 190H513ZM482 765 496 827H457L443 765Z" glyph-name="uni0226" horiz-adv-x="681" unicode="&#550;" /><glyph d="M174 19C110 19 58 55 58 125C58 211 119 274 273 274C309 274 354 272 395 268L344 81C287 42 230 19 174 19ZM341 0H363L377 95L444 342C450 365 452 382 452 399C452 475 391 516 303 516C240 516 192 505 140 488L147 461C195 477 245 487 299 487C372 487 423 458 423 394C423 380 421 362 416 345L402 294C360 299 314 301 276 301C108 301 28 232 28 124C28 38 90 -9 171 -9C231 -9 286 14 342 53ZM355 606 369 667H332L318 606Z" glyph-name="uni0227" horiz-adv-x="509" unicode="&#551;" /><glyph d="M329 -12C411 -12 484 24 545 85C627 167 681 306 681 443C681 610 582 712 438 712C356 712 282 676 222 615C140 533 85 394 85 257C85 90 185 -12 329 -12ZM435 683C564 683 650 590 650 440C650 313 597 180 519 102C468 50 402 17 332 17C203 17 117 110 117 260C117 387 170 520 248 598C299 650 365 683 435 683ZM489 765 503 827H464L450 765Z" glyph-name="uni022E" horiz-adv-x="720" unicode="&#558;" /><glyph d="M223 -12C283 -12 337 15 379 57C440 118 482 220 482 323C482 448 408 520 310 520C250 520 196 493 153 451C92 390 51 288 51 185C51 60 125 -12 223 -12ZM225 16C145 16 81 75 81 187C81 281 120 377 176 433C212 469 257 492 308 492C388 492 452 433 452 321C452 227 413 131 357 75C321 39 276 16 225 16ZM362 606 376 667H339L325 606Z" glyph-name="uni022F" horiz-adv-x="533" unicode="&#559;" /><glyph d="M266 0 337 294 697 700H656L325 324L174 700H138L305 294L234 0ZM553 765 561 796H305L297 765Z" glyph-name="uni0232" horiz-adv-x="623" unicode="&#562;" /><glyph d="M-23 -175C79 -148 141 -95 204 5L514 508H480L197 38L132 508H102L175 5C116 -79 67 -121 -26 -147ZM438 610 445 639H224L217 610Z" glyph-name="uni0233" horiz-adv-x="491" unicode="&#563;" /><glyph d="M80 34 191 508H161L51 39C26 -66 -19 -104 -92 -153L-80 -177C2 -126 53 -78 80 34Z" glyph-name="uni0237" horiz-adv-x="226" unicode="&#567;" /><glyph d="M202 16C120 16 73 75 73 169C73 192 75 216 79 238H414C387 121 299 16 202 16ZM116 479 127 453C173 477 224 490 270 490C373 490 423 418 423 318C423 300 422 282 419 265H55C47 236 43 204 43 170C43 59 101 -12 198 -12C253 -12 307 14 347 54C410 116 453 217 453 319C453 438 390 518 272 518C222 518 165 504 116 479Z" glyph-name="uni0259" horiz-adv-x="504" unicode="&#601;" /><glyph d="M277 723V724H228L117 523L131 517Z" glyph-name="uni02B9" horiz-adv-x="203" unicode="&#697;" /><glyph d="M422 723V724H373L262 523L276 517ZM277 723V724H228L117 523L131 517Z" glyph-name="uni02BA" horiz-adv-x="348" unicode="&#698;" /><glyph d="M107 521H146C165 607 187 649 249 715L240 726C165 667 127 613 107 521Z" glyph-name="uni02BB" horiz-adv-x="170" unicode="&#699;" /><glyph d="M239 724H200C181 639 159 596 97 530L106 519C181 579 220 633 239 724Z" glyph-name="uni02BC" horiz-adv-x="170" unicode="&#700;" /><glyph d="M111 586 105 560C202 563 263 628 263 701C263 763 219 797 163 799L157 775C205 773 235 746 235 700C235 637 183 589 111 586Z" glyph-name="uni02BE" horiz-adv-x="181" unicode="&#702;" /><glyph d="M273 773 279 799C181 796 121 731 121 658C121 596 165 562 221 560L227 584C178 587 148 613 148 659C148 722 200 770 273 773Z" glyph-name="uni02BF" horiz-adv-x="181" unicode="&#703;" /><glyph d="M238 689H267L201 783H150ZM102 665 163 594H190L123 697H92L-25 594H5Z" glyph-name="uni02C60300" horiz-adv-x="0" /><glyph d="M313 840 237 919H182L280 840ZM136 810 201 758H233L159 841H125L11 758H46Z" glyph-name="uni02C60300.cap" horiz-adv-x="0" /><glyph d="M228 689 362 783H307L195 689ZM102 665 163 594H190L123 697H92L-25 594H5Z" glyph-name="uni02C60301" horiz-adv-x="0" /><glyph d="M265 840 401 919H341L227 840ZM136 810 201 758H233L159 841H125L11 758H46Z" glyph-name="uni02C60301.cap" horiz-adv-x="0" /><glyph d="M36 718C59 752 72 761 84 761C93 761 99 758 120 743C144 725 153 719 168 719C194 719 212 738 241 783L219 793C196 759 183 750 172 750C162 750 157 753 135 768C112 785 102 791 87 791C61 791 43 773 13 728ZM100 657 165 594H191L121 689H90L-26 594H4Z" glyph-name="uni02C60303" horiz-adv-x="0" /><glyph d="M68 862C93 898 106 908 117 908C126 908 132 904 154 887C178 870 188 863 203 863C228 863 248 882 278 929L257 939C232 903 219 893 208 893C198 893 193 897 170 914C147 932 136 938 121 938C96 938 76 919 47 873ZM135 806 203 758H235L158 837H124L10 758H45Z" glyph-name="uni02C60303.cap" horiz-adv-x="0" /><glyph d="M169 779 170 752C192 759 213 762 234 762C262 762 273 755 273 745C273 732 262 720 205 694L211 673C291 707 308 726 308 752C308 774 286 791 243 791C218 791 195 787 169 779ZM102 665 163 594H190L123 697H92L-25 594H5Z" glyph-name="uni02C60309" horiz-adv-x="0" /><glyph d="M202 926V897C224 903 247 906 269 906C298 906 310 899 310 890C310 879 298 870 242 849L246 825C327 853 346 873 346 897C346 919 322 935 278 935C250 935 226 932 202 926ZM136 810 201 758H233L159 841H125L11 758H46Z" glyph-name="uni02C60309.cap" horiz-adv-x="0" /><glyph d="M126 564H154L210 796H182Z" glyph-name="uni02C8" horiz-adv-x="132" unicode="&#712;" /><glyph d="M-33 -96H-5L51 136H23Z" glyph-name="uni02CC" horiz-adv-x="132" unicode="&#716;" /><glyph d="M277 -94 284 -65H63L56 -94Z" glyph-name="uni02CD" horiz-adv-x="500" unicode="&#717;" /><glyph d="M106 705H135L69 799H18ZM90 623C46 623 26 647 29 689H5C-7 631 28 592 86 592C144 592 190 631 204 689H178C164 647 133 623 90 623Z" glyph-name="uni02D80300" horiz-adv-x="0" /><glyph d="M177 857 101 936H46L144 857ZM128 788C86 788 67 807 64 838H37C34 788 69 757 124 757C179 757 224 788 243 838H213C198 807 168 788 128 788Z" glyph-name="uni02D80300.cap" horiz-adv-x="0" /><glyph d="M114 705 248 799H193L82 705ZM90 623C46 623 26 647 29 689H5C-7 631 28 592 86 592C144 592 190 631 204 689H178C164 647 133 623 90 623Z" glyph-name="uni02D80301" horiz-adv-x="0" /><glyph d="M151 857 287 936H226L113 857ZM128 788C86 788 67 807 64 838H37C34 788 69 757 124 757C179 757 224 788 243 838H213C198 807 168 788 128 788Z" glyph-name="uni02D80301.cap" horiz-adv-x="0" /><glyph d="M32 722C55 757 68 766 80 766C89 766 95 762 116 747C140 730 148 724 164 724C190 724 208 743 237 788L215 798C192 763 179 754 167 754C158 754 152 758 131 773C107 790 97 796 83 796C57 796 39 777 9 732ZM90 623C46 623 27 647 29 689H5C-7 631 28 592 86 592C144 592 190 631 204 689H178C164 647 133 623 90 623Z" glyph-name="uni02D80303" horiz-adv-x="0" /><glyph d="M63 865C88 902 101 911 113 911C122 911 128 907 150 891C174 873 184 866 199 866C224 866 244 885 274 932L253 943C228 907 215 897 204 897C194 897 189 900 166 917C143 935 132 942 117 942C92 942 72 923 42 876ZM128 788C86 788 67 807 64 838H37C34 788 69 757 124 757C179 757 224 788 243 838H213C198 807 168 788 128 788Z" glyph-name="uni02D80303.cap" horiz-adv-x="0" /><glyph d="M54 797 55 770C77 777 98 780 119 780C149 780 159 772 159 763C159 750 148 738 90 712L96 691C176 725 193 744 193 770C193 792 172 809 129 809C103 809 80 805 54 797ZM90 623C46 623 26 647 29 689H5C-7 631 28 592 86 592C144 592 190 631 204 689H178C164 647 133 623 90 623Z" glyph-name="uni02D80309" horiz-adv-x="0" /><glyph d="M82 945V917C107 923 132 926 157 926C190 926 203 920 203 910C203 900 192 890 130 868L133 845C222 873 239 894 239 918C239 940 215 956 166 956C137 956 108 952 82 945ZM128 788C86 788 67 807 64 838H37C34 788 69 757 124 757C179 757 224 788 243 838H213C198 807 168 788 128 788Z" glyph-name="uni02D80309.cap" horiz-adv-x="0" /><glyph d="M89 594H116L38 709H-12Z" glyph-name="uni0300" horiz-adv-x="0" unicode="&#768;" /><glyph d="M78 594 235 709H180L48 594Z" glyph-name="uni0301" horiz-adv-x="0" unicode="&#769;" /><glyph d="M104 676 161 594H187L126 709H95L-22 594H8Z" glyph-name="uni0302" horiz-adv-x="0" unicode="&#770;" /><glyph d="M45 646C55 646 62 641 87 622C114 601 124 594 141 594C172 594 190 615 223 667L199 678C173 635 159 624 146 624C136 624 129 629 105 648C78 669 68 676 50 676C20 676 1 656 -31 604L-8 592C19 635 32 646 45 646Z" glyph-name="uni0303" horiz-adv-x="0" unicode="&#771;" /><glyph d="M197 610 204 639H-17L-24 610Z" glyph-name="uni0304" horiz-adv-x="0" unicode="&#772;" /><glyph d="M88 623C45 623 29 653 34 702H10C-4 636 25 592 85 592C142 592 189 636 205 702H178C161 653 132 623 88 623Z" glyph-name="uni0306" horiz-adv-x="0" unicode="&#774;" /><glyph d="M104 603 118 664H81L67 603Z" glyph-name="uni0307" horiz-adv-x="0" unicode="&#775;" /><glyph d="M36 603 50 664H13L-1 603ZM171 603 185 664H148L134 603Z" glyph-name="uni0308" horiz-adv-x="0" unicode="&#776;" /><glyph d="M22 705V677C49 685 77 690 104 690C140 690 155 681 155 668C155 654 143 643 69 611L74 588C170 626 190 647 190 674C190 701 165 719 112 719C81 719 52 714 22 705Z" glyph-name="uni0309" horiz-adv-x="0" unicode="&#777;" /><glyph d="M86 586C148 586 195 636 195 689C195 728 165 761 118 761C56 761 9 711 9 658C9 619 38 586 86 586ZM90 609C55 609 35 632 35 661C35 700 68 738 113 738C149 738 168 715 168 686C168 647 135 609 90 609Z" glyph-name="uni030A" horiz-adv-x="0" unicode="&#778;" /><glyph d="M21 594 174 709H123L-9 594ZM149 594 302 709H250L119 594Z" glyph-name="uni030B" horiz-adv-x="0" unicode="&#779;" /><glyph d="M89 627 32 709H6L67 594H98L215 709H186Z" glyph-name="uni030C" horiz-adv-x="0" unicode="&#780;" /><glyph d="M112 603C103 618 99 628 99 638C99 658 108 673 145 701L135 715C76 682 61 653 61 627C61 615 65 604 74 590Z" glyph-name="uni0312" horiz-adv-x="0" unicode="&#786;" /><glyph d="M143 725H114C99 655 86 628 60 594L72 586C108 626 127 653 143 725Z" glyph-name="uni0315" horiz-adv-x="0" unicode="&#789;" /><glyph d="M-71 -119 -57 -58H-94L-108 -119Z" glyph-name="uni0323" horiz-adv-x="0" unicode="&#803;" /><glyph d="M-139 -119 -125 -58H-162L-176 -119ZM-4 -119 10 -58H-27L-41 -119Z" glyph-name="uni0324" horiz-adv-x="0" unicode="&#804;" /><glyph d="M-103 -62C-94 -77 -90 -87 -90 -97C-90 -117 -99 -132 -136 -160L-126 -174C-67 -141 -52 -112 -52 -86C-52 -74 -56 -63 -65 -49Z" glyph-name="uni0326" horiz-adv-x="0" unicode="&#806;" /><glyph d="M-158 -141C-55 -140 -19 -117 -19 -84C-19 -59 -40 -47 -81 -43L-45 0L-66 9L-115 -51L-110 -63C-67 -65 -53 -72 -53 -86C-53 -102 -72 -115 -156 -117Z" glyph-name="uni0327" horiz-adv-x="0" unicode="&#807;" /><glyph d="M-49 -118C-101 -114 -116 -107 -116 -92C-116 -79 -108 -64 -45 0L-61 11C-138 -57 -151 -76 -151 -99C-151 -125 -127 -140 -59 -144Z" glyph-name="uni0328" horiz-adv-x="0" unicode="&#808;" /><glyph d="M-82 -91 -25 -173H1L-60 -58H-91L-208 -173H-178Z" glyph-name="uni032D" horiz-adv-x="0" unicode="&#813;" /><glyph d="M-96 -138C-139 -138 -155 -108 -150 -59H-174C-188 -125 -159 -169 -99 -169C-42 -169 5 -125 21 -59H-6C-23 -108 -52 -138 -96 -138Z" glyph-name="uni032E" horiz-adv-x="0" unicode="&#814;" /><glyph d="M27 -94 34 -65H-187L-194 -94Z" glyph-name="uni0331" horiz-adv-x="0" unicode="&#817;" /><glyph d="M11 -94 19 -65H-173L-181 -94Z" glyph-name="uni0331.nrw" horiz-adv-x="0" /><glyph d="M174 377 245 671H419L348 377ZM598 561C598 459 510 388 375 378L445 671C546 671 598 628 598 561ZM91 29 166 348H312C322 348 332 348 341 347L264 29ZM540 205C540 99 444 29 319 29H291L367 345C478 333 540 283 540 205ZM314 0C459 0 572 82 572 206C572 283 522 337 425 360C542 384 631 450 631 563C631 644 570 699 453 700L475 789H446L424 700H220L51 0H256L230 -105H259L285 0Z" glyph-name="uni0E3F" horiz-adv-x="656" unicode="&#3647;" /><glyph d="M430 671C536 671 594 624 594 551C594 454 496 377 334 377H174L245 671ZM301 348C454 348 533 290 533 205C533 99 440 29 306 29H90L167 348ZM51 0H299C460 0 565 84 565 202C565 288 504 342 405 359C527 374 626 445 626 555C626 642 557 700 434 700H220ZM369 -94 376 -65H155L148 -94Z" glyph-name="uni1E06" horiz-adv-x="648" unicode="&#7686;" /><glyph d="M223 -10C286 -10 342 15 386 59C446 119 485 217 485 323C485 450 412 518 320 518C273 518 225 499 176 465L238 724H209L34 0H55L74 48C118 11 169 -10 223 -10ZM224 17C172 17 126 38 82 75L168 433C213 466 265 491 317 491C397 491 455 433 455 321C455 224 418 131 365 78C326 39 278 17 224 17ZM286 -97 293 -68H72L65 -97Z" glyph-name="uni1E07" horiz-adv-x="538" unicode="&#7687;" /><glyph d="M339 671C518 671 615 578 615 428C615 307 574 206 507 138C437 69 337 29 221 29H90L245 671ZM51 0H214C346 0 456 44 530 117C603 190 647 298 647 430C647 599 532 700 347 700H220ZM277 -119 291 -58H254L240 -119Z" glyph-name="uni1E0C" horiz-adv-x="688" unicode="&#7692;" /><glyph d="M224 17C144 17 83 76 83 187C83 284 120 376 173 430C212 469 261 491 317 491C368 491 413 469 456 432L370 74C325 42 275 17 224 17ZM361 0H382L556 724H526L463 461C420 497 372 518 317 518C254 518 196 493 152 449C92 389 53 291 53 185C53 58 130 -10 221 -10C268 -10 315 9 364 43ZM203 -122 217 -61H180L166 -122Z" glyph-name="uni1E0D" horiz-adv-x="538" unicode="&#7693;" /><glyph d="M339 671C518 671 615 578 615 428C615 307 574 206 507 138C437 69 337 29 221 29H90L245 671ZM51 0H214C346 0 456 44 530 117C603 190 647 298 647 430C647 599 532 700 347 700H220ZM375 -94 382 -65H161L154 -94Z" glyph-name="uni1E0E" horiz-adv-x="688" unicode="&#7694;" /><glyph d="M224 17C144 17 83 76 83 187C83 284 120 376 173 430C212 469 261 491 317 491C368 491 413 469 456 432L370 74C325 42 275 17 224 17ZM361 0H382L556 724H526L463 461C420 497 372 518 317 518C254 518 196 493 152 449C92 389 53 291 53 185C53 58 130 -10 221 -10C268 -10 315 9 364 43ZM301 -97 308 -68H87L80 -97Z" glyph-name="uni1E0F" horiz-adv-x="538" unicode="&#7695;" /><glyph d="M339 671C518 671 615 578 615 428C615 307 574 206 507 138C437 69 337 29 221 29H90L245 671ZM51 0H214C346 0 456 44 530 117C603 190 647 298 647 430C647 599 532 700 347 700H220ZM266 -91 323 -173H349L288 -58H257L140 -173H170Z" glyph-name="uni1E12" horiz-adv-x="688" unicode="&#7698;" /><glyph d="M224 17C144 17 83 76 83 187C83 284 120 376 173 430C212 469 261 491 317 491C368 491 413 469 456 432L370 74C325 42 275 17 224 17ZM361 0H382L556 724H526L463 461C420 497 372 518 317 518C254 518 196 493 152 449C92 389 53 291 53 185C53 58 130 -10 221 -10C268 -10 315 9 364 43ZM192 -94 249 -176H275L214 -61H183L66 -176H96Z" glyph-name="uni1E13" horiz-adv-x="538" unicode="&#7699;" /><glyph d="M552 45 627 346H383L376 317H589L525 64C471 34 411 20 351 20C200 20 119 126 119 271C119 392 165 510 239 585C298 643 377 680 468 680C544 680 610 655 661 621L677 648C621 685 549 710 471 710C368 710 279 668 215 604C136 525 87 400 87 271C87 105 187 -9 346 -9C423 -9 489 9 552 45ZM615 772 623 803H367L359 772Z" glyph-name="uni1E20" horiz-adv-x="698" unicode="&#7712;" /><glyph d="M225 33C144 33 85 91 85 196C85 291 121 378 173 430C211 468 258 491 312 491C364 491 409 469 452 432L371 91C327 58 276 33 225 33ZM170 -176C282 -176 350 -117 376 -12L501 508H480L460 460C417 496 369 518 313 518C251 518 195 492 151 449C92 390 55 298 55 194C55 73 130 6 222 6C268 6 315 25 363 59L347 -8C325 -99 264 -149 172 -149C113 -149 53 -131 7 -102L-6 -128C44 -157 104 -176 170 -176ZM471 613 478 642H257L250 613Z" glyph-name="uni1E21" horiz-adv-x="534" unicode="&#7713;" /><glyph d="M510 0H541L710 700H678L600 374H173L252 700H220L51 0H83L166 345H593ZM289 -114 303 -53H266L252 -114Z" glyph-name="uni1E24" horiz-adv-x="714" unicode="&#7716;" /><glyph d="M337 489C409 489 451 451 451 383C451 366 448 343 442 321L366 0H396L471 316C478 342 481 367 481 388C481 469 428 517 341 517C284 517 227 495 175 463L238 724H209L34 0H64L167 430C219 465 280 489 337 489ZM207 -114 221 -53H184L170 -114Z" glyph-name="uni1E25" horiz-adv-x="547" unicode="&#7717;" /><glyph d="M108 -84C108 -59 87 -47 46 -43L82 0H83L166 345H593L510 0H541L710 700H678L600 374H173L252 700H220L51 0H54L12 -51L17 -63C60 -65 74 -72 74 -86C74 -102 55 -115 -29 -117L-31 -141C72 -140 108 -117 108 -84Z" glyph-name="uni1E28" horiz-adv-x="714" unicode="&#7720;" /><glyph d="M89 -84C89 -59 68 -47 27 -43L63 0H64L167 430C219 465 280 489 337 489C409 489 451 451 451 383C451 366 448 343 442 321L366 0H396L471 316C478 342 481 367 481 388C481 469 428 517 341 517C284 517 227 495 175 463L238 724H209L34 0H35L-7 -51L-2 -63C41 -65 55 -72 55 -86C55 -102 36 -115 -48 -117L-50 -141C53 -140 89 -117 89 -84Z" glyph-name="uni1E29" horiz-adv-x="547" unicode="&#7721;" /><glyph d="M510 0H541L710 700H678L600 374H173L252 700H220L51 0H83L166 345H593ZM263 -138C220 -138 204 -108 209 -59H185C171 -125 200 -169 260 -169C317 -169 364 -125 380 -59H353C336 -108 307 -138 263 -138Z" glyph-name="uni1E2A" horiz-adv-x="714" unicode="&#7722;" /><glyph d="M337 489C409 489 451 451 451 383C451 366 448 343 442 321L366 0H396L471 316C478 342 481 367 481 388C481 469 428 517 341 517C284 517 227 495 175 463L238 724H209L34 0H64L167 430C219 465 280 489 337 489ZM181 -138C138 -138 122 -108 127 -59H103C89 -125 118 -169 178 -169C235 -169 282 -125 298 -59H271C254 -108 225 -138 181 -138Z" glyph-name="uni1E2B" horiz-adv-x="547" unicode="&#7723;" /><glyph d="M486 0H529L221 360L688 700H640L193 374H173L252 700H220L51 0H83L167 348H189ZM252 -114 266 -53H229L215 -114Z" glyph-name="uni1E32" horiz-adv-x="615" unicode="&#7730;" /><glyph d="M347 0H386L175 260L499 508H452L149 275H130L238 724H209L34 0H64L125 252H143ZM178 -114 192 -53H155L141 -114Z" glyph-name="uni1E33" horiz-adv-x="468" unicode="&#7731;" /><glyph d="M486 0H529L221 360L688 700H640L193 374H173L252 700H220L51 0H83L167 348H189ZM349 -94 356 -65H135L128 -94Z" glyph-name="uni1E34" horiz-adv-x="615" unicode="&#7732;" /><glyph d="M347 0H386L175 260L499 508H452L149 275H130L238 724H209L34 0H64L125 252H143ZM275 -94 282 -65H61L54 -94Z" glyph-name="uni1E35" horiz-adv-x="468" unicode="&#7733;" /><glyph d="M51 0H450L457 29H90L252 700H220ZM238 -119 252 -58H215L201 -119Z" glyph-name="uni1E36" horiz-adv-x="542" unicode="&#7734;" /><glyph d="M66 0 241 724H211L36 0ZM41 -119 55 -58H18L4 -119Z" glyph-name="uni1E37" horiz-adv-x="225" unicode="&#7735;" /><glyph d="M51 0H450L457 29H90L252 700H220ZM367 765 375 796H153L145 765ZM238 -119 252 -58H215L201 -119Z" glyph-name="uni1E38" horiz-adv-x="542" unicode="&#7736;" /><glyph d="M66 0 241 724H211L36 0ZM342 806 350 835H158L150 806ZM41 -119 55 -58H18L4 -119Z" glyph-name="uni1E39" horiz-adv-x="225" unicode="&#7737;" /><glyph d="M51 0H450L457 29H90L252 700H220ZM336 -94 343 -65H122L115 -94Z" glyph-name="uni1E3A" horiz-adv-x="542" unicode="&#7738;" /><glyph d="M66 0 241 724H211L36 0ZM123 -94 131 -65H-61L-69 -94Z" glyph-name="uni1E3B" horiz-adv-x="225" unicode="&#7739;" /><glyph d="M51 0H450L457 29H90L252 700H220ZM227 -91 284 -173H310L249 -58H218L101 -173H131Z" glyph-name="uni1E3C" horiz-adv-x="542" unicode="&#7740;" /><glyph d="M66 0 241 724H211L36 0ZM30 -91 87 -173H113L52 -58H21L-96 -173H-66Z" glyph-name="uni1E3D" horiz-adv-x="225" unicode="&#7741;" /><glyph d="M711 0H743L878 700H841L397 43L274 700H242L39 0H71L255 646L377 -2H400L840 650ZM552 753 706 848H647L515 753Z" glyph-name="uni1E3E" horiz-adv-x="904" unicode="&#7742;" /><glyph d="M335 489C405 489 445 452 445 385C445 367 442 345 437 322L360 0H390L466 318C472 344 475 369 475 390C475 401 474 411 473 420C546 465 604 489 661 489C732 489 771 452 771 385C771 367 769 345 763 322L687 0H717L792 318C798 344 802 369 802 390C802 470 750 517 665 517C601 517 539 491 465 445C447 492 402 517 339 517C282 517 225 494 174 462L177 508H156L34 0H64L168 431C219 466 278 489 335 489ZM510 594 667 709H612L480 594Z" glyph-name="uni1E3F" horiz-adv-x="867" unicode="&#7743;" /><glyph d="M711 0H743L878 700H841L397 43L274 700H242L39 0H71L255 646L377 -2H400L840 650ZM578 753 592 815H553L539 753Z" glyph-name="uni1E40" horiz-adv-x="904" unicode="&#7744;" /><glyph d="M335 489C405 489 445 452 445 385C445 367 442 345 437 322L360 0H390L466 318C472 344 475 369 475 390C475 401 474 411 473 420C546 465 604 489 661 489C732 489 771 452 771 385C771 367 769 345 763 322L687 0H717L792 318C798 344 802 369 802 390C802 470 750 517 665 517C601 517 539 491 465 445C447 492 402 517 339 517C282 517 225 494 174 462L177 508H156L34 0H64L168 431C219 466 278 489 335 489ZM536 603 550 664H513L499 603Z" glyph-name="uni1E41" horiz-adv-x="867" unicode="&#7745;" /><glyph d="M711 0H743L878 700H841L397 43L274 700H242L39 0H71L255 646L377 -2H400L840 650ZM383 -119 397 -58H360L346 -119Z" glyph-name="uni1E42" horiz-adv-x="904" unicode="&#7746;" /><glyph d="M335 489C405 489 445 452 445 385C445 367 442 345 437 322L360 0H390L466 318C472 344 475 369 475 390C475 401 474 411 473 420C546 465 604 489 661 489C732 489 771 452 771 385C771 367 769 345 763 322L687 0H717L792 318C798 344 802 369 802 390C802 470 750 517 665 517C601 517 539 491 465 445C447 492 402 517 339 517C282 517 225 494 174 462L177 508H156L34 0H64L168 431C219 466 278 489 335 489ZM366 -119 380 -58H343L329 -119Z" glyph-name="uni1E43" horiz-adv-x="867" unicode="&#7747;" /><glyph d="M507 0H541L709 700H678L521 48L256 700H220L51 0H82L240 658ZM500 753 514 815H475L461 753Z" glyph-name="uni1E44" horiz-adv-x="714" unicode="&#7748;" /><glyph d="M337 489C409 489 451 451 451 383C451 366 448 343 442 321L366 0H396L471 316C478 342 481 367 481 388C481 469 428 517 341 517C283 517 226 494 174 462L177 508H156L34 0H64L168 431C220 465 280 489 337 489ZM375 606 389 667H352L338 606Z" glyph-name="uni1E45" horiz-adv-x="547" unicode="&#7749;" /><glyph d="M507 0H541L709 700H678L521 48L256 700H220L51 0H82L240 658ZM277 -114 291 -53H254L240 -114Z" glyph-name="uni1E46" horiz-adv-x="714" unicode="&#7750;" /><glyph d="M337 489C409 489 451 451 451 383C451 366 448 343 442 321L366 0H396L471 316C478 342 481 367 481 388C481 469 428 517 341 517C283 517 226 494 174 462L177 508H156L34 0H64L168 431C220 465 280 489 337 489ZM208 -114 222 -53H185L171 -114Z" glyph-name="uni1E47" horiz-adv-x="547" unicode="&#7751;" /><glyph d="M507 0H541L709 700H678L521 48L256 700H220L51 0H82L240 658ZM374 -94 381 -65H160L153 -94Z" glyph-name="uni1E48" horiz-adv-x="714" unicode="&#7752;" /><glyph d="M337 489C409 489 451 451 451 383C451 366 448 343 442 321L366 0H396L471 316C478 342 481 367 481 388C481 469 428 517 341 517C283 517 226 494 174 462L177 508H156L34 0H64L168 431C220 465 280 489 337 489ZM305 -94 312 -65H91L84 -94Z" glyph-name="uni1E49" horiz-adv-x="547" unicode="&#7753;" /><glyph d="M507 0H541L709 700H678L521 48L256 700H220L51 0H82L240 658ZM266 -86 323 -168H349L288 -53H257L140 -168H170Z" glyph-name="uni1E4A" horiz-adv-x="714" unicode="&#7754;" /><glyph d="M337 489C409 489 451 451 451 383C451 366 448 343 442 321L366 0H396L471 316C478 342 481 367 481 388C481 469 428 517 341 517C283 517 226 494 174 462L177 508H156L34 0H64L168 431C220 465 280 489 337 489ZM197 -86 254 -168H280L219 -53H188L71 -168H101Z" glyph-name="uni1E4B" horiz-adv-x="547" unicode="&#7755;" /><glyph d="M417 671C536 671 589 612 589 532C589 480 570 436 535 400C483 349 387 320 293 320H160L245 671ZM267 291C344 291 374 267 412 202L530 0H570L436 222C411 264 392 284 358 298C510 320 622 401 622 538C622 632 552 700 421 700H220L51 0H83L153 291ZM453 758 467 820H428L414 758Z" glyph-name="uni1E58" horiz-adv-x="658" unicode="&#7768;" /><glyph d="M34 0H64L159 395C235 454 304 480 379 483L386 512C306 512 232 480 165 424L177 508H156ZM299 603 313 664H276L262 603Z" glyph-name="uni1E59" horiz-adv-x="358" unicode="&#7769;" /><glyph d="M417 671C536 671 589 612 589 532C589 480 570 436 535 400C483 349 387 320 293 320H160L245 671ZM267 291C344 291 374 267 412 202L530 0H570L436 222C411 264 392 284 358 298C510 320 622 401 622 538C622 632 552 700 421 700H220L51 0H83L153 291ZM273 -114 287 -53H250L236 -114Z" glyph-name="uni1E5A" horiz-adv-x="658" unicode="&#7770;" /><glyph d="M34 0H64L159 395C235 454 304 480 379 483L386 512C306 512 232 480 165 424L177 508H156ZM39 -119 53 -58H16L2 -119Z" glyph-name="uni1E5B" horiz-adv-x="358" unicode="&#7771;" /><glyph d="M417 671C536 671 589 612 589 532C589 480 570 436 535 400C483 349 387 320 293 320H160L245 671ZM267 291C344 291 374 267 412 202L530 0H570L436 222C411 264 392 284 358 298C510 320 622 401 622 538C622 632 552 700 421 700H220L51 0H83L153 291ZM562 765 570 796H314L306 765ZM273 -114 287 -53H250L236 -114Z" glyph-name="uni1E5C" horiz-adv-x="658" unicode="&#7772;" /><glyph d="M34 0H64L159 395C235 454 304 480 379 483L386 512C306 512 232 480 165 424L177 508H156ZM377 610 385 639H193L185 610ZM39 -119 53 -58H16L2 -119Z" glyph-name="uni1E5D" horiz-adv-x="358" unicode="&#7773;" /><glyph d="M417 671C536 671 589 612 589 532C589 480 570 436 535 400C483 349 387 320 293 320H160L245 671ZM267 291C344 291 374 267 412 202L530 0H570L436 222C411 264 392 284 358 298C510 320 622 401 622 538C622 632 552 700 421 700H220L51 0H83L153 291ZM369 -94 376 -65H155L148 -94Z" glyph-name="uni1E5E" horiz-adv-x="658" unicode="&#7774;" /><glyph d="M34 0H64L159 395C235 454 304 480 379 483L386 512C306 512 232 480 165 424L177 508H156ZM121 -94 129 -65H-63L-71 -94Z" glyph-name="uni1E5F" horiz-adv-x="358" unicode="&#7775;" /><glyph d="M488 183C488 88 396 21 276 21C179 21 100 54 41 94L23 67C93 22 173 -8 274 -8C419 -8 520 72 520 185C520 263 471 310 337 376C219 436 175 470 175 534C175 612 249 679 364 679C446 679 515 654 572 617L590 643C530 681 455 708 366 708C230 708 143 628 143 533C143 454 195 411 320 350C444 286 488 245 488 183ZM230 -126 244 -65H207L193 -126Z" glyph-name="uni1E62" horiz-adv-x="596" unicode="&#7778;" /><glyph d="M349 124C349 64 294 18 207 18C140 18 76 43 23 80L7 55C63 16 134 -10 205 -10C308 -10 379 45 379 128C379 193 341 228 249 271C162 312 132 335 132 387C132 440 187 489 269 489C329 489 374 469 419 441L435 467C385 496 339 517 270 517C171 517 102 456 102 383C102 320 142 288 236 244C322 204 349 175 349 124ZM168 -122 182 -61H145L131 -122Z" glyph-name="uni1E63" horiz-adv-x="469" unicode="&#7779;" /><glyph d="M669 671 676 700H136L128 671H383L221 0H253L415 671ZM229 -119 243 -58H206L192 -119Z" glyph-name="uni1E6C" horiz-adv-x="600" unicode="&#7788;" /><glyph d="M278 -1 284 29C261 24 238 19 213 19C163 19 121 42 121 97C121 111 123 127 127 144L209 481H384L390 508H216L254 666H225L186 508H97L90 481H180L98 149C93 129 91 109 91 93C91 24 142 -9 211 -9C234 -9 256 -6 278 -1ZM159 -122 173 -61H136L122 -122Z" glyph-name="uni1E6D" horiz-adv-x="378" unicode="&#7789;" /><glyph d="M669 671 676 700H136L128 671H383L221 0H253L415 671ZM327 -94 334 -65H113L106 -94Z" glyph-name="uni1E6E" horiz-adv-x="600" unicode="&#7790;" /><glyph d="M278 -1 284 29C261 24 238 19 213 19C163 19 121 42 121 97C121 111 123 127 127 144L209 481H384L390 508H216L254 666H225L186 508H97L90 481H180L98 149C93 129 91 109 91 93C91 24 142 -9 211 -9C234 -9 256 -6 278 -1ZM241 -97 249 -68H57L49 -97Z" glyph-name="uni1E6F" horiz-adv-x="378" unicode="&#7791;" /><glyph d="M669 671 676 700H136L128 671H383L221 0H253L415 671ZM218 -91 275 -173H301L240 -58H209L92 -173H122Z" glyph-name="uni1E70" horiz-adv-x="600" unicode="&#7792;" /><glyph d="M278 -1 284 29C261 24 238 19 213 19C163 19 121 42 121 97C121 111 123 127 127 144L209 481H384L390 508H216L254 666H225L186 508H97L90 481H180L98 149C93 129 91 109 91 93C91 24 142 -9 211 -9C234 -9 256 -6 278 -1ZM148 -94 205 -176H231L170 -61H139L22 -176H52Z" glyph-name="uni1E71" horiz-adv-x="378" unicode="&#7793;" /><glyph d="M281 -12 726 700H689L278 32L186 700H154L255 -12ZM261 -126 275 -65H238L224 -126Z" glyph-name="uni1E7E" horiz-adv-x="666" unicode="&#7806;" /><glyph d="M194 -10 514 508H481L189 30L127 508H98L168 -10ZM174 -122 188 -61H151L137 -122Z" glyph-name="uni1E7F" horiz-adv-x="491" unicode="&#7807;" /><glyph d="M30 0 336 335 493 0H529L358 357L673 700H632L344 383L200 700H165L321 362L-12 0ZM375 758 389 820H350L336 758ZM519 758 533 820H494L480 758Z" glyph-name="uni1E8C" horiz-adv-x="629" unicode="&#7820;" /><glyph d="M352 0H384L259 259L491 508H454L246 283L142 508H110L226 263L-19 0H18L238 239ZM269 603 283 664H246L232 603ZM404 603 418 664H381L367 603Z" glyph-name="uni1E8D" horiz-adv-x="482" unicode="&#7821;" /><glyph d="M266 0 337 294 697 700H656L325 324L174 700H138L305 294L234 0ZM442 753 456 815H417L403 753Z" glyph-name="uni1E8E" horiz-adv-x="623" unicode="&#7822;" /><glyph d="M-23 -175C79 -148 141 -95 204 5L514 508H480L197 38L132 508H102L175 5C116 -79 67 -121 -26 -147ZM344 598 358 659H321L307 598Z" glyph-name="uni1E8F" horiz-adv-x="491" unicode="&#7823;" /><glyph d="M485 0 492 29H45L635 676L639 700H170L162 671H592L3 25L-2 0ZM425 821 486 758H518L449 853H415L301 758H336Z" glyph-name="uni1E90" horiz-adv-x="595" unicode="&#7824;" /><glyph d="M342 0 349 27H33L452 486L455 508H115L108 481H411L-8 22L-12 0ZM324 676 381 594H407L346 709H315L198 594H228Z" glyph-name="uni1E91" horiz-adv-x="451" unicode="&#7825;" /><glyph d="M485 0 492 29H45L635 676L639 700H170L162 671H592L3 25L-2 0ZM237 -119 251 -58H214L200 -119Z" glyph-name="uni1E92" horiz-adv-x="595" unicode="&#7826;" /><glyph d="M342 0 349 27H33L452 486L455 508H115L108 481H411L-8 22L-12 0ZM165 -119 179 -58H142L128 -119Z" glyph-name="uni1E93" horiz-adv-x="451" unicode="&#7827;" /><glyph d="M485 0 492 29H45L635 676L639 700H170L162 671H592L3 25L-2 0ZM335 -94 342 -65H121L114 -94Z" glyph-name="uni1E94" horiz-adv-x="595" unicode="&#7828;" /><glyph d="M342 0 349 27H33L452 486L455 508H115L108 481H411L-8 22L-12 0ZM263 -94 270 -65H49L42 -94Z" glyph-name="uni1E95" horiz-adv-x="451" unicode="&#7829;" /><glyph d="M337 489C409 489 451 451 451 383C451 366 448 343 442 321L366 0H396L471 316C478 342 481 367 481 388C481 469 428 517 341 517C284 517 227 495 175 463L238 724H209L34 0H64L167 430C219 465 280 489 337 489ZM304 -94 311 -65H90L83 -94Z" glyph-name="uni1E96" horiz-adv-x="547" unicode="&#7830;" /><glyph d="M356 -9C488 -9 579 75 579 176C579 253 517 312 396 356L669 595L671 602C624 670 543 710 448 710C305 710 187 617 149 459L40 0H71L179 455C214 598 322 681 444 681C516 681 585 656 632 600L353 357L349 342C484 296 547 244 547 174C547 92 473 20 360 20C316 20 261 30 218 53L210 22C252 1 306 -9 356 -9Z" glyph-name="uni1E9E" horiz-adv-x="658" unicode="&#7838;" /><glyph d="M508 219H160L442 667ZM541 0H573L465 712H437L-14 0H22L142 190H513ZM276 -114 290 -53H253L239 -114Z" glyph-name="uni1EA0" horiz-adv-x="681" unicode="&#7840;" /><glyph d="M174 19C110 19 58 55 58 125C58 211 119 274 273 274C309 274 354 272 395 268L344 81C287 42 230 19 174 19ZM341 0H363L377 95L444 342C450 365 452 382 452 399C452 475 391 516 303 516C240 516 192 505 140 488L147 461C195 477 245 487 299 487C372 487 423 458 423 394C423 380 421 362 416 345L402 294C360 299 314 301 276 301C108 301 28 232 28 124C28 38 90 -9 171 -9C231 -9 286 14 342 53ZM179 -122 193 -61H156L142 -122Z" glyph-name="uni1EA1" horiz-adv-x="509" unicode="&#7841;" /><glyph d="M508 219H160L442 667ZM541 0H573L465 712H437L-14 0H22L142 190H513ZM385 867 386 838C418 845 450 849 484 849C528 849 543 842 543 831C543 820 536 811 451 784L453 759C560 790 580 812 580 837C580 863 551 879 490 879C452 879 421 875 385 867Z" glyph-name="uni1EA2" horiz-adv-x="681" unicode="&#7842;" /><glyph d="M174 19C110 19 58 55 58 125C58 211 119 274 273 274C309 274 354 272 395 268L344 81C287 42 230 19 174 19ZM341 0H363L377 95L444 342C450 365 452 382 452 399C452 475 391 516 303 516C240 516 192 505 140 488L147 461C195 477 245 487 299 487C372 487 423 458 423 394C423 380 421 362 416 345L402 294C360 299 314 301 276 301C108 301 28 232 28 124C28 38 90 -9 171 -9C231 -9 286 14 342 53ZM273 708V680C300 688 328 693 355 693C391 693 406 684 406 671C406 657 394 646 320 614L325 591C421 629 441 650 441 677C441 704 416 722 363 722C332 722 303 717 273 708Z" glyph-name="uni1EA3" horiz-adv-x="509" unicode="&#7843;" /><glyph d="M508 219H160L442 667ZM541 0H573L465 712H437L-14 0H22L142 190H513ZM605 847 741 926H681L567 847ZM476 817 541 765H573L499 848H465L351 765H386Z" glyph-name="uni1EA4" horiz-adv-x="681" unicode="&#7844;" /><glyph d="M174 19C110 19 58 55 58 125C58 211 119 274 273 274C309 274 354 272 395 268L344 81C287 42 230 19 174 19ZM341 0H363L377 95L444 342C450 365 452 382 452 399C452 475 391 516 303 516C240 516 192 505 140 488L147 461C195 477 245 487 299 487C372 487 423 458 423 394C423 380 421 362 416 345L402 294C360 299 314 301 276 301C108 301 28 232 28 124C28 38 90 -9 171 -9C231 -9 286 14 342 53ZM479 692 613 786H558L446 692ZM353 668 414 597H441L374 700H343L226 597H256Z" glyph-name="uni1EA5" horiz-adv-x="509" unicode="&#7845;" /><glyph d="M508 219H160L442 667ZM541 0H573L465 712H437L-14 0H22L142 190H513ZM653 847 577 926H522L620 847ZM476 817 541 765H573L499 848H465L351 765H386Z" glyph-name="uni1EA6" horiz-adv-x="681" unicode="&#7846;" /><glyph d="M174 19C110 19 58 55 58 125C58 211 119 274 273 274C309 274 354 272 395 268L344 81C287 42 230 19 174 19ZM341 0H363L377 95L444 342C450 365 452 382 452 399C452 475 391 516 303 516C240 516 192 505 140 488L147 461C195 477 245 487 299 487C372 487 423 458 423 394C423 380 421 362 416 345L402 294C360 299 314 301 276 301C108 301 28 232 28 124C28 38 90 -9 171 -9C231 -9 286 14 342 53ZM489 692H518L452 786H401ZM353 668 414 597H441L374 700H343L226 597H256Z" glyph-name="uni1EA7" horiz-adv-x="509" unicode="&#7847;" /><glyph d="M508 219H160L442 667ZM541 0H573L465 712H437L-14 0H22L142 190H513ZM542 933V904C564 910 587 913 609 913C638 913 650 906 650 897C650 886 638 877 582 856L586 832C667 860 686 880 686 904C686 926 662 942 618 942C590 942 566 939 542 933ZM476 817 541 765H573L499 848H465L351 765H386Z" glyph-name="uni1EA8" horiz-adv-x="681" unicode="&#7848;" /><glyph d="M174 19C110 19 58 55 58 125C58 211 119 274 273 274C309 274 354 272 395 268L344 81C287 42 230 19 174 19ZM341 0H363L377 95L444 342C450 365 452 382 452 399C452 475 391 516 303 516C240 516 192 505 140 488L147 461C195 477 245 487 299 487C372 487 423 458 423 394C423 380 421 362 416 345L402 294C360 299 314 301 276 301C108 301 28 232 28 124C28 38 90 -9 171 -9C231 -9 286 14 342 53ZM420 782 421 755C443 762 464 765 485 765C513 765 524 758 524 748C524 735 513 723 456 697L462 676C542 710 559 729 559 755C559 777 537 794 494 794C469 794 446 790 420 782ZM353 668 414 597H441L374 700H343L226 597H256Z" glyph-name="uni1EA9" horiz-adv-x="509" unicode="&#7849;" /><glyph d="M508 219H160L442 667ZM541 0H573L465 712H437L-14 0H22L142 190H513ZM408 869C433 905 446 915 457 915C466 915 472 911 494 894C518 877 528 870 543 870C568 870 588 889 618 936L597 946C572 910 559 900 548 900C538 900 533 904 510 921C487 939 476 945 461 945C436 945 416 926 387 880ZM475 813 543 765H575L498 844H464L350 765H385Z" glyph-name="uni1EAA" horiz-adv-x="681" unicode="&#7850;" /><glyph d="M174 19C110 19 58 55 58 125C58 211 119 274 273 274C309 274 354 272 395 268L344 81C287 42 230 19 174 19ZM341 0H363L377 95L444 342C450 365 452 382 452 399C452 475 391 516 303 516C240 516 192 505 140 488L147 461C195 477 245 487 299 487C372 487 423 458 423 394C423 380 421 362 416 345L402 294C360 299 314 301 276 301C108 301 28 232 28 124C28 38 90 -9 171 -9C231 -9 286 14 342 53ZM287 721C310 755 323 764 335 764C344 764 350 761 371 746C395 728 404 722 419 722C445 722 463 741 492 786L470 796C447 762 434 753 423 753C413 753 408 756 386 771C363 788 353 794 338 794C312 794 294 776 264 731ZM351 660 416 597H442L372 692H341L225 597H255Z" glyph-name="uni1EAB" horiz-adv-x="509" unicode="&#7851;" /><glyph d="M508 219H160L442 667ZM541 0H573L465 712H437L-14 0H22L142 190H513ZM478 828 539 765H571L502 860H468L354 765H389ZM276 -114 290 -53H253L239 -114Z" glyph-name="uni1EAC" horiz-adv-x="681" unicode="&#7852;" /><glyph d="M174 19C110 19 58 55 58 125C58 211 119 274 273 274C309 274 354 272 395 268L344 81C287 42 230 19 174 19ZM341 0H363L377 95L444 342C450 365 452 382 452 399C452 475 391 516 303 516C240 516 192 505 140 488L147 461C195 477 245 487 299 487C372 487 423 458 423 394C423 380 421 362 416 345L402 294C360 299 314 301 276 301C108 301 28 232 28 124C28 38 90 -9 171 -9C231 -9 286 14 342 53ZM355 679 412 597H438L377 712H346L229 597H259ZM179 -122 193 -61H156L142 -122Z" glyph-name="uni1EAD" horiz-adv-x="509" unicode="&#7853;" /><glyph d="M508 219H160L442 667ZM541 0H573L465 712H437L-14 0H22L142 190H513ZM491 864 627 943H566L453 864ZM468 795C426 795 407 814 404 845H377C374 795 409 764 464 764C519 764 564 795 583 845H553C538 814 508 795 468 795Z" glyph-name="uni1EAE" horiz-adv-x="681" unicode="&#7854;" /><glyph d="M174 19C110 19 58 55 58 125C58 211 119 274 273 274C309 274 354 272 395 268L344 81C287 42 230 19 174 19ZM341 0H363L377 95L444 342C450 365 452 382 452 399C452 475 391 516 303 516C240 516 192 505 140 488L147 461C195 477 245 487 299 487C372 487 423 458 423 394C423 380 421 362 416 345L402 294C360 299 314 301 276 301C108 301 28 232 28 124C28 38 90 -9 171 -9C231 -9 286 14 342 53ZM365 708 499 802H444L333 708ZM341 626C297 626 277 650 280 692H256C244 634 279 595 337 595C395 595 441 634 455 692H429C415 650 384 626 341 626Z" glyph-name="uni1EAF" horiz-adv-x="509" unicode="&#7855;" /><glyph d="M508 219H160L442 667ZM541 0H573L465 712H437L-14 0H22L142 190H513ZM517 864 441 943H386L484 864ZM468 795C426 795 407 814 404 845H377C374 795 409 764 464 764C519 764 564 795 583 845H553C538 814 508 795 468 795Z" glyph-name="uni1EB0" horiz-adv-x="681" unicode="&#7856;" /><glyph d="M174 19C110 19 58 55 58 125C58 211 119 274 273 274C309 274 354 272 395 268L344 81C287 42 230 19 174 19ZM341 0H363L377 95L444 342C450 365 452 382 452 399C452 475 391 516 303 516C240 516 192 505 140 488L147 461C195 477 245 487 299 487C372 487 423 458 423 394C423 380 421 362 416 345L402 294C360 299 314 301 276 301C108 301 28 232 28 124C28 38 90 -9 171 -9C231 -9 286 14 342 53ZM357 708H386L320 802H269ZM341 626C297 626 277 650 280 692H256C244 634 279 595 337 595C395 595 441 634 455 692H429C415 650 384 626 341 626Z" glyph-name="uni1EB1" horiz-adv-x="509" unicode="&#7857;" /><glyph d="M508 219H160L442 667ZM541 0H573L465 712H437L-14 0H22L142 190H513ZM422 952V924C447 930 472 933 497 933C530 933 543 927 543 917C543 907 532 897 470 875L473 852C562 880 579 901 579 925C579 947 555 963 506 963C477 963 448 959 422 952ZM468 795C426 795 407 814 404 845H377C374 795 409 764 464 764C519 764 564 795 583 845H553C538 814 508 795 468 795Z" glyph-name="uni1EB2" horiz-adv-x="681" unicode="&#7858;" /><glyph d="M174 19C110 19 58 55 58 125C58 211 119 274 273 274C309 274 354 272 395 268L344 81C287 42 230 19 174 19ZM341 0H363L377 95L444 342C450 365 452 382 452 399C452 475 391 516 303 516C240 516 192 505 140 488L147 461C195 477 245 487 299 487C372 487 423 458 423 394C423 380 421 362 416 345L402 294C360 299 314 301 276 301C108 301 28 232 28 124C28 38 90 -9 171 -9C231 -9 286 14 342 53ZM305 800 306 773C328 780 349 783 370 783C400 783 410 775 410 766C410 753 399 741 341 715L347 694C427 728 444 747 444 773C444 795 423 812 380 812C354 812 331 808 305 800ZM341 626C297 626 277 650 280 692H256C244 634 279 595 337 595C395 595 441 634 455 692H429C415 650 384 626 341 626Z" glyph-name="uni1EB3" horiz-adv-x="509" unicode="&#7859;" /><glyph d="M508 219H160L442 667ZM541 0H573L465 712H437L-14 0H22L142 190H513ZM403 872C428 909 441 918 453 918C462 918 468 914 490 898C514 880 524 873 539 873C564 873 584 892 614 939L593 950C568 914 555 904 544 904C534 904 529 907 506 924C483 942 472 949 457 949C432 949 412 930 382 883ZM468 795C426 795 407 814 404 845H377C374 795 409 764 464 764C519 764 564 795 583 845H553C538 814 508 795 468 795Z" glyph-name="uni1EB4" horiz-adv-x="681" unicode="&#7860;" /><glyph d="M174 19C110 19 58 55 58 125C58 211 119 274 273 274C309 274 354 272 395 268L344 81C287 42 230 19 174 19ZM341 0H363L377 95L444 342C450 365 452 382 452 399C452 475 391 516 303 516C240 516 192 505 140 488L147 461C195 477 245 487 299 487C372 487 423 458 423 394C423 380 421 362 416 345L402 294C360 299 314 301 276 301C108 301 28 232 28 124C28 38 90 -9 171 -9C231 -9 286 14 342 53ZM283 725C306 760 319 769 331 769C340 769 346 765 367 750C391 733 399 727 415 727C441 727 459 746 488 791L466 801C443 766 430 757 418 757C409 757 403 761 382 776C358 793 348 799 334 799C308 799 290 780 260 735ZM341 626C297 626 278 650 280 692H256C244 634 279 595 337 595C395 595 441 634 455 692H429C415 650 384 626 341 626Z" glyph-name="uni1EB5" horiz-adv-x="509" unicode="&#7861;" /><glyph d="M508 219H160L442 667ZM541 0H573L465 712H437L-14 0H22L142 190H513ZM469 795C430 795 411 819 410 860H383C376 801 409 764 465 764C519 764 564 801 585 860H554C537 819 508 795 469 795ZM276 -114 290 -53H253L239 -114Z" glyph-name="uni1EB6" horiz-adv-x="681" unicode="&#7862;" /><glyph d="M174 19C110 19 58 55 58 125C58 211 119 274 273 274C309 274 354 272 395 268L344 81C287 42 230 19 174 19ZM341 0H363L377 95L444 342C450 365 452 382 452 399C452 475 391 516 303 516C240 516 192 505 140 488L147 461C195 477 245 487 299 487C372 487 423 458 423 394C423 380 421 362 416 345L402 294C360 299 314 301 276 301C108 301 28 232 28 124C28 38 90 -9 171 -9C231 -9 286 14 342 53ZM339 626C296 626 280 656 285 705H261C247 639 276 595 336 595C393 595 440 639 456 705H429C412 656 383 626 339 626ZM179 -122 193 -61H156L142 -122Z" glyph-name="uni1EB7" horiz-adv-x="509" unicode="&#7863;" /><glyph d="M51 0H490L497 29H90L166 345H525L532 374H173L245 671H646L654 700H220ZM272 -119 286 -58H249L235 -119Z" glyph-name="uni1EB8" horiz-adv-x="616" unicode="&#7864;" /><glyph d="M302 492C384 492 431 433 431 339C431 316 429 292 425 270H90C117 387 205 492 302 492ZM388 29 377 55C331 31 280 18 234 18C131 18 81 90 81 190C81 208 82 226 85 243H449C457 272 461 304 461 338C461 449 403 520 306 520C251 520 197 494 157 454C94 392 51 291 51 189C51 70 114 -10 232 -10C282 -10 339 4 388 29ZM197 -122 211 -61H174L160 -122Z" glyph-name="uni1EB9" horiz-adv-x="505" unicode="&#7865;" /><glyph d="M51 0H490L497 29H90L166 345H525L532 374H173L245 671H646L654 700H220ZM383 860 384 831C416 838 448 842 482 842C526 842 541 835 541 824C541 813 534 804 449 777L451 752C558 783 578 805 578 830C578 856 549 872 488 872C450 872 419 868 383 860Z" glyph-name="uni1EBA" horiz-adv-x="616" unicode="&#7866;" /><glyph d="M302 492C384 492 431 433 431 339C431 316 429 292 425 270H90C117 387 205 492 302 492ZM388 29 377 55C331 31 280 18 234 18C131 18 81 90 81 190C81 208 82 226 85 243H449C457 272 461 304 461 338C461 449 403 520 306 520C251 520 197 494 157 454C94 392 51 291 51 189C51 70 114 -10 232 -10C282 -10 339 4 388 29ZM273 708V680C300 688 328 693 355 693C391 693 406 684 406 671C406 657 394 646 320 614L325 591C421 629 441 650 441 677C441 704 416 722 363 722C332 722 303 717 273 708Z" glyph-name="uni1EBB" horiz-adv-x="505" unicode="&#7867;" /><glyph d="M51 0H490L497 29H90L166 345H525L532 374H173L245 671H646L654 700H220ZM420 809C432 809 438 806 463 786C490 766 503 758 521 758C551 758 571 779 604 830L580 841C551 800 539 790 526 790C514 790 508 793 482 813C456 833 442 840 425 840C394 840 375 820 341 769L365 757C394 799 407 809 420 809Z" glyph-name="uni1EBC" horiz-adv-x="616" unicode="&#7868;" /><glyph d="M302 492C384 492 431 433 431 339C431 316 429 292 425 270H90C117 387 205 492 302 492ZM388 29 377 55C331 31 280 18 234 18C131 18 81 90 81 190C81 208 82 226 85 243H449C457 272 461 304 461 338C461 449 403 520 306 520C251 520 197 494 157 454C94 392 51 291 51 189C51 70 114 -10 232 -10C282 -10 339 4 388 29ZM296 649C306 649 313 644 338 625C365 604 375 597 392 597C423 597 441 618 474 670L450 681C424 638 410 627 397 627C387 627 380 632 356 651C329 672 319 679 301 679C271 679 252 659 220 607L243 595C270 638 283 649 296 649Z" glyph-name="uni1EBD" horiz-adv-x="505" unicode="&#7869;" /><glyph d="M51 0H490L497 29H90L166 345H525L532 374H173L245 671H646L654 700H220ZM603 840 739 919H679L565 840ZM474 810 539 758H571L497 841H463L349 758H384Z" glyph-name="uni1EBE" horiz-adv-x="616" unicode="&#7870;" /><glyph d="M302 492C384 492 431 433 431 339C431 316 429 292 425 270H90C117 387 205 492 302 492ZM388 29 377 55C331 31 280 18 234 18C131 18 81 90 81 190C81 208 82 226 85 243H449C457 272 461 304 461 338C461 449 403 520 306 520C251 520 197 494 157 454C94 392 51 291 51 189C51 70 114 -10 232 -10C282 -10 339 4 388 29ZM479 692 613 786H558L446 692ZM353 668 414 597H441L374 700H343L226 597H256Z" glyph-name="uni1EBF" horiz-adv-x="505" unicode="&#7871;" /><glyph d="M51 0H490L497 29H90L166 345H525L532 374H173L245 671H646L654 700H220ZM651 840 575 919H520L618 840ZM474 810 539 758H571L497 841H463L349 758H384Z" glyph-name="uni1EC0" horiz-adv-x="616" unicode="&#7872;" /><glyph d="M302 492C384 492 431 433 431 339C431 316 429 292 425 270H90C117 387 205 492 302 492ZM388 29 377 55C331 31 280 18 234 18C131 18 81 90 81 190C81 208 82 226 85 243H449C457 272 461 304 461 338C461 449 403 520 306 520C251 520 197 494 157 454C94 392 51 291 51 189C51 70 114 -10 232 -10C282 -10 339 4 388 29ZM489 692H518L452 786H401ZM353 668 414 597H441L374 700H343L226 597H256Z" glyph-name="uni1EC1" horiz-adv-x="505" unicode="&#7873;" /><glyph d="M51 0H490L497 29H90L166 345H525L532 374H173L245 671H646L654 700H220ZM540 926V897C562 903 585 906 607 906C636 906 648 899 648 890C648 879 636 870 580 849L584 825C665 853 684 873 684 897C684 919 660 935 616 935C588 935 564 932 540 926ZM474 810 539 758H571L497 841H463L349 758H384Z" glyph-name="uni1EC2" horiz-adv-x="616" unicode="&#7874;" /><glyph d="M302 492C384 492 431 433 431 339C431 316 429 292 425 270H90C117 387 205 492 302 492ZM388 29 377 55C331 31 280 18 234 18C131 18 81 90 81 190C81 208 82 226 85 243H449C457 272 461 304 461 338C461 449 403 520 306 520C251 520 197 494 157 454C94 392 51 291 51 189C51 70 114 -10 232 -10C282 -10 339 4 388 29ZM420 782 421 755C443 762 464 765 485 765C513 765 524 758 524 748C524 735 513 723 456 697L462 676C542 710 559 729 559 755C559 777 537 794 494 794C469 794 446 790 420 782ZM353 668 414 597H441L374 700H343L226 597H256Z" glyph-name="uni1EC3" horiz-adv-x="505" unicode="&#7875;" /><glyph d="M51 0H490L497 29H90L166 345H525L532 374H173L245 671H646L654 700H220ZM406 862C431 898 444 908 455 908C464 908 470 904 492 887C516 870 526 863 541 863C566 863 586 882 616 929L595 939C570 903 557 893 546 893C536 893 531 897 508 914C485 932 474 938 459 938C434 938 414 919 385 873ZM473 806 541 758H573L496 837H462L348 758H383Z" glyph-name="uni1EC4" horiz-adv-x="616" unicode="&#7876;" /><glyph d="M302 492C384 492 431 433 431 339C431 316 429 292 425 270H90C117 387 205 492 302 492ZM388 29 377 55C331 31 280 18 234 18C131 18 81 90 81 190C81 208 82 226 85 243H449C457 272 461 304 461 338C461 449 403 520 306 520C251 520 197 494 157 454C94 392 51 291 51 189C51 70 114 -10 232 -10C282 -10 339 4 388 29ZM287 721C310 755 323 764 335 764C344 764 350 761 371 746C395 728 404 722 419 722C445 722 463 741 492 786L470 796C447 762 434 753 423 753C413 753 408 756 386 771C363 788 353 794 338 794C312 794 294 776 264 731ZM351 660 416 597H442L372 692H341L225 597H255Z" glyph-name="uni1EC5" horiz-adv-x="505" unicode="&#7877;" /><glyph d="M51 0H490L497 29H90L166 345H525L532 374H173L245 671H646L654 700H220ZM476 821 537 758H569L500 853H466L352 758H387ZM272 -119 286 -58H249L235 -119Z" glyph-name="uni1EC6" horiz-adv-x="616" unicode="&#7878;" /><glyph d="M302 492C384 492 431 433 431 339C431 316 429 292 425 270H90C117 387 205 492 302 492ZM388 29 377 55C331 31 280 18 234 18C131 18 81 90 81 190C81 208 82 226 85 243H449C457 272 461 304 461 338C461 449 403 520 306 520C251 520 197 494 157 454C94 392 51 291 51 189C51 70 114 -10 232 -10C282 -10 339 4 388 29ZM355 679 412 597H438L377 712H346L229 597H259ZM197 -122 211 -61H174L160 -122Z" glyph-name="uni1EC7" horiz-adv-x="505" unicode="&#7879;" /><glyph d="M87 0 256 700H224L55 0ZM176 860 177 831C209 838 241 842 275 842C319 842 334 835 334 824C334 813 327 804 242 777L244 752C351 783 371 805 371 830C371 856 342 872 281 872C243 872 212 868 176 860Z" glyph-name="uni1EC8" horiz-adv-x="264" unicode="&#7880;" /><glyph d="M66 0 188 508H159L36 0ZM134 705V677C161 685 189 690 216 690C252 690 267 681 267 668C267 654 255 643 181 611L186 588C282 626 302 647 302 674C302 701 277 719 224 719C193 719 164 714 134 705Z" glyph-name="uni1EC9" horiz-adv-x="225" unicode="&#7881;" /><glyph d="M87 0 256 700H224L55 0ZM62 -119 76 -58H39L25 -119Z" glyph-name="uni1ECA" horiz-adv-x="264" unicode="&#7882;" /><glyph d="M226 647 241 707H204L189 647ZM66 0 188 508H159L36 0ZM41 -119 55 -58H18L4 -119Z" glyph-name="uni1ECB" horiz-adv-x="225" unicode="&#7883;" /><glyph d="M329 -12C411 -12 484 24 545 85C627 167 681 306 681 443C681 610 582 712 438 712C356 712 282 676 222 615C140 533 85 394 85 257C85 90 185 -12 329 -12ZM435 683C564 683 650 590 650 440C650 313 597 180 519 102C468 50 402 17 332 17C203 17 117 110 117 260C117 387 170 520 248 598C299 650 365 683 435 683ZM295 -126 309 -65H272L258 -126Z" glyph-name="uni1ECC" horiz-adv-x="720" unicode="&#7884;" /><glyph d="M223 -12C283 -12 337 15 379 57C440 118 482 220 482 323C482 448 408 520 310 520C250 520 196 493 153 451C92 390 51 288 51 185C51 60 125 -12 223 -12ZM225 16C145 16 81 75 81 187C81 281 120 377 176 433C212 469 257 492 308 492C388 492 452 433 452 321C452 227 413 131 357 75C321 39 276 16 225 16ZM201 -122 215 -61H178L164 -122Z" glyph-name="uni1ECD" horiz-adv-x="533" unicode="&#7885;" /><glyph d="M329 -12C411 -12 484 24 545 85C627 167 681 306 681 443C681 610 582 712 438 712C356 712 282 676 222 615C140 533 85 394 85 257C85 90 185 -12 329 -12ZM435 683C564 683 650 590 650 440C650 313 597 180 519 102C468 50 402 17 332 17C203 17 117 110 117 260C117 387 170 520 248 598C299 650 365 683 435 683ZM392 867 393 838C425 845 457 849 491 849C535 849 550 842 550 831C550 820 543 811 458 784L460 759C567 790 587 812 587 837C587 863 558 879 497 879C459 879 428 875 392 867Z" glyph-name="uni1ECE" horiz-adv-x="720" unicode="&#7886;" /><glyph d="M223 -12C283 -12 337 15 379 57C440 118 482 220 482 323C482 448 408 520 310 520C250 520 196 493 153 451C92 390 51 288 51 185C51 60 125 -12 223 -12ZM225 16C145 16 81 75 81 187C81 281 120 377 176 433C212 469 257 492 308 492C388 492 452 433 452 321C452 227 413 131 357 75C321 39 276 16 225 16ZM280 708V680C307 688 335 693 362 693C398 693 413 684 413 671C413 657 401 646 327 614L332 591C428 629 448 650 448 677C448 704 423 722 370 722C339 722 310 717 280 708Z" glyph-name="uni1ECF" horiz-adv-x="533" unicode="&#7887;" /><glyph d="M329 -12C411 -12 484 24 545 85C627 167 681 306 681 443C681 610 582 712 438 712C356 712 282 676 222 615C140 533 85 394 85 257C85 90 185 -12 329 -12ZM435 683C564 683 650 590 650 440C650 313 597 180 519 102C468 50 402 17 332 17C203 17 117 110 117 260C117 387 170 520 248 598C299 650 365 683 435 683ZM612 847 748 926H688L574 847ZM483 817 548 765H580L506 848H472L358 765H393Z" glyph-name="uni1ED0" horiz-adv-x="720" unicode="&#7888;" /><glyph d="M223 -12C283 -12 337 15 379 57C440 118 482 220 482 323C482 448 408 520 310 520C250 520 196 493 153 451C92 390 51 288 51 185C51 60 125 -12 223 -12ZM225 16C145 16 81 75 81 187C81 281 120 377 176 433C212 469 257 492 308 492C388 492 452 433 452 321C452 227 413 131 357 75C321 39 276 16 225 16ZM486 692 620 786H565L453 692ZM360 668 421 597H448L381 700H350L233 597H263Z" glyph-name="uni1ED1" horiz-adv-x="533" unicode="&#7889;" /><glyph d="M329 -12C411 -12 484 24 545 85C627 167 681 306 681 443C681 610 582 712 438 712C356 712 282 676 222 615C140 533 85 394 85 257C85 90 185 -12 329 -12ZM435 683C564 683 650 590 650 440C650 313 597 180 519 102C468 50 402 17 332 17C203 17 117 110 117 260C117 387 170 520 248 598C299 650 365 683 435 683ZM660 847 584 926H529L627 847ZM483 817 548 765H580L506 848H472L358 765H393Z" glyph-name="uni1ED2" horiz-adv-x="720" unicode="&#7890;" /><glyph d="M223 -12C283 -12 337 15 379 57C440 118 482 220 482 323C482 448 408 520 310 520C250 520 196 493 153 451C92 390 51 288 51 185C51 60 125 -12 223 -12ZM225 16C145 16 81 75 81 187C81 281 120 377 176 433C212 469 257 492 308 492C388 492 452 433 452 321C452 227 413 131 357 75C321 39 276 16 225 16ZM496 692H525L459 786H408ZM360 668 421 597H448L381 700H350L233 597H263Z" glyph-name="uni1ED3" horiz-adv-x="533" unicode="&#7891;" /><glyph d="M329 -12C411 -12 484 24 545 85C627 167 681 306 681 443C681 610 582 712 438 712C356 712 282 676 222 615C140 533 85 394 85 257C85 90 185 -12 329 -12ZM435 683C564 683 650 590 650 440C650 313 597 180 519 102C468 50 402 17 332 17C203 17 117 110 117 260C117 387 170 520 248 598C299 650 365 683 435 683ZM549 933V904C571 910 594 913 616 913C645 913 657 906 657 897C657 886 645 877 589 856L593 832C674 860 693 880 693 904C693 926 669 942 625 942C597 942 573 939 549 933ZM483 817 548 765H580L506 848H472L358 765H393Z" glyph-name="uni1ED4" horiz-adv-x="720" unicode="&#7892;" /><glyph d="M223 -12C283 -12 337 15 379 57C440 118 482 220 482 323C482 448 408 520 310 520C250 520 196 493 153 451C92 390 51 288 51 185C51 60 125 -12 223 -12ZM225 16C145 16 81 75 81 187C81 281 120 377 176 433C212 469 257 492 308 492C388 492 452 433 452 321C452 227 413 131 357 75C321 39 276 16 225 16ZM427 782 428 755C450 762 471 765 492 765C520 765 531 758 531 748C531 735 520 723 463 697L469 676C549 710 566 729 566 755C566 777 544 794 501 794C476 794 453 790 427 782ZM360 668 421 597H448L381 700H350L233 597H263Z" glyph-name="uni1ED5" horiz-adv-x="533" unicode="&#7893;" /><glyph d="M329 -12C411 -12 484 24 545 85C627 167 681 306 681 443C681 610 582 712 438 712C356 712 282 676 222 615C140 533 85 394 85 257C85 90 185 -12 329 -12ZM435 683C564 683 650 590 650 440C650 313 597 180 519 102C468 50 402 17 332 17C203 17 117 110 117 260C117 387 170 520 248 598C299 650 365 683 435 683ZM415 869C440 905 453 915 464 915C473 915 479 911 501 894C525 877 535 870 550 870C575 870 595 889 625 936L604 946C579 910 566 900 555 900C545 900 540 904 517 921C494 939 483 945 468 945C443 945 423 926 394 880ZM482 813 550 765H582L505 844H471L357 765H392Z" glyph-name="uni1ED6" horiz-adv-x="720" unicode="&#7894;" /><glyph d="M223 -12C283 -12 337 15 379 57C440 118 482 220 482 323C482 448 408 520 310 520C250 520 196 493 153 451C92 390 51 288 51 185C51 60 125 -12 223 -12ZM225 16C145 16 81 75 81 187C81 281 120 377 176 433C212 469 257 492 308 492C388 492 452 433 452 321C452 227 413 131 357 75C321 39 276 16 225 16ZM294 721C317 755 330 764 342 764C351 764 357 761 378 746C402 728 411 722 426 722C452 722 470 741 499 786L477 796C454 762 441 753 430 753C420 753 415 756 393 771C370 788 360 794 345 794C319 794 301 776 271 731ZM358 660 423 597H449L379 692H348L232 597H262Z" glyph-name="uni1ED7" horiz-adv-x="533" unicode="&#7895;" /><glyph d="M329 -12C411 -12 484 24 545 85C627 167 681 306 681 443C681 610 582 712 438 712C356 712 282 676 222 615C140 533 85 394 85 257C85 90 185 -12 329 -12ZM435 683C564 683 650 590 650 440C650 313 597 180 519 102C468 50 402 17 332 17C203 17 117 110 117 260C117 387 170 520 248 598C299 650 365 683 435 683ZM485 828 546 765H578L509 860H475L361 765H396ZM295 -126 309 -65H272L258 -126Z" glyph-name="uni1ED8" horiz-adv-x="720" unicode="&#7896;" /><glyph d="M223 -12C283 -12 337 15 379 57C440 118 482 220 482 323C482 448 408 520 310 520C250 520 196 493 153 451C92 390 51 288 51 185C51 60 125 -12 223 -12ZM225 16C145 16 81 75 81 187C81 281 120 377 176 433C212 469 257 492 308 492C388 492 452 433 452 321C452 227 413 131 357 75C321 39 276 16 225 16ZM362 679 419 597H445L384 712H353L236 597H266ZM201 -122 215 -61H178L164 -122Z" glyph-name="uni1ED9" horiz-adv-x="533" unicode="&#7897;" /><glyph d="M463 765 617 860H558L427 765ZM435 680C564 680 650 588 650 439C650 312 597 179 519 101C468 50 402 17 332 17C203 17 117 109 117 258C117 385 170 518 248 596C299 647 365 680 435 680ZM545 84C627 166 681 305 681 441C681 554 634 638 557 679C677 670 743 723 743 798C743 811 742 820 738 830L708 819C710 811 712 802 712 794C712 739 668 702 578 702C533 702 496 709 439 709C356 709 282 674 222 613C140 531 85 392 85 256C85 90 185 -12 329 -12C411 -12 484 23 545 84Z" glyph-name="uni1EDA" horiz-adv-x="720" unicode="&#7898;" /><glyph d="M335 597 492 712H437L305 597ZM225 -12C283 -12 337 14 379 57C440 117 482 218 482 319C482 402 449 459 399 488C489 494 539 541 539 604C539 616 537 626 534 633L507 623C509 615 510 611 510 600C510 557 470 512 383 512C361 512 336 515 319 515C251 515 196 488 153 445C92 384 51 285 51 183C51 59 126 -12 225 -12ZM226 16C145 16 81 74 81 185C81 277 120 371 176 428C212 464 255 488 310 488C385 488 452 430 452 317C452 225 413 130 357 74C321 38 276 16 226 16Z" glyph-name="uni1EDB" horiz-adv-x="533" unicode="&#7899;" /><glyph d="M435 680C564 680 650 588 650 439C650 312 597 179 519 101C468 50 402 17 332 17C203 17 117 109 117 258C117 385 170 518 248 596C299 647 365 680 435 680ZM545 84C627 166 681 305 681 441C681 554 634 638 557 679C677 670 743 723 743 798C743 811 742 820 738 830L708 819C710 811 712 802 712 794C712 739 668 702 578 702C533 702 496 709 439 709C356 709 282 674 222 613C140 531 85 392 85 256C85 90 185 -12 329 -12C411 -12 484 23 545 84ZM478 765H510L423 860H369Z" glyph-name="uni1EDC" horiz-adv-x="720" unicode="&#7900;" /><glyph d="M225 -12C283 -12 337 14 379 57C440 117 482 218 482 319C482 402 449 459 399 488C489 494 539 541 539 604C539 616 537 626 534 633L507 623C509 615 510 611 510 600C510 557 470 512 383 512C361 512 336 515 319 515C251 515 196 488 153 445C92 384 51 285 51 183C51 59 126 -12 225 -12ZM226 16C145 16 81 74 81 185C81 277 120 371 176 428C212 464 255 488 310 488C385 488 452 430 452 317C452 225 413 130 357 74C321 38 276 16 226 16ZM347 597H374L296 712H246Z" glyph-name="uni1EDD" horiz-adv-x="533" unicode="&#7901;" /><glyph d="M435 680C564 680 650 588 650 439C650 312 597 179 519 101C468 50 402 17 332 17C203 17 117 109 117 258C117 385 170 518 248 596C299 647 365 680 435 680ZM545 84C627 166 681 305 681 441C681 554 634 638 557 679C677 670 743 723 743 798C743 811 742 820 738 830L708 819C710 811 712 802 712 794C712 739 668 702 578 702C533 702 496 709 439 709C356 709 282 674 222 613C140 531 85 392 85 256C85 90 185 -12 329 -12C411 -12 484 23 545 84ZM392 867 393 838C425 845 457 849 491 849C535 849 550 842 550 831C550 820 543 811 458 784L460 759C567 790 587 812 587 837C587 863 558 879 497 879C459 879 428 875 392 867Z" glyph-name="uni1EDE" horiz-adv-x="720" unicode="&#7902;" /><glyph d="M277 708V680C304 688 332 693 359 693C395 693 410 684 410 671C410 657 398 646 324 614L329 591C425 629 445 651 445 677C445 704 420 722 367 722C336 722 307 717 277 708ZM225 -12C283 -12 337 14 379 57C440 117 482 218 482 319C482 402 449 459 399 488C489 494 539 541 539 604C539 616 537 626 534 633L507 623C509 615 510 611 510 600C510 557 470 512 383 512C361 512 336 515 319 515C251 515 196 488 153 445C92 384 51 285 51 183C51 59 126 -12 225 -12ZM226 16C145 16 81 74 81 185C81 277 120 371 176 428C212 464 255 488 310 488C385 488 452 430 452 317C452 225 413 130 357 74C321 38 276 16 226 16Z" glyph-name="uni1EDF" horiz-adv-x="533" unicode="&#7903;" /><glyph d="M427 816C439 816 445 813 470 793C495 773 508 765 525 765C554 765 574 786 606 837L582 848C555 806 543 797 530 797C518 797 512 800 488 819C462 839 449 847 432 847C403 847 383 827 350 776L375 764C402 806 415 816 427 816ZM435 680C564 680 650 588 650 439C650 312 597 179 519 101C468 50 402 17 332 17C203 17 117 109 117 258C117 385 170 518 248 596C299 647 365 680 435 680ZM545 84C627 166 681 305 681 441C681 554 634 638 557 679C677 670 743 723 743 798C743 811 742 820 738 830L708 819C710 811 712 802 712 794C712 739 668 702 578 702C533 702 496 709 439 709C356 709 282 674 222 613C140 531 85 392 85 256C85 90 185 -12 329 -12C411 -12 484 23 545 84Z" glyph-name="uni1EE0" horiz-adv-x="720" unicode="&#7904;" /><glyph d="M302 649C311 649 318 644 340 625C366 604 376 597 392 597C420 597 437 618 468 670L445 681C421 639 408 627 396 627C386 627 380 632 358 651C332 673 323 679 306 679C278 679 260 659 230 607L252 596C277 638 289 649 302 649ZM225 -12C283 -12 337 14 379 57C440 117 482 218 482 319C482 402 449 459 399 488C489 494 539 541 539 604C539 616 537 626 534 633L507 623C509 615 510 611 510 600C510 557 470 512 383 512C361 512 336 515 319 515C251 515 196 488 153 445C92 384 51 285 51 183C51 59 126 -12 225 -12ZM226 16C145 16 81 74 81 185C81 277 120 371 176 428C212 464 255 488 310 488C385 488 452 430 452 317C452 225 413 130 357 74C321 38 276 16 226 16Z" glyph-name="uni1EE1" horiz-adv-x="533" unicode="&#7905;" /><glyph d="M435 680C564 680 650 588 650 439C650 312 597 179 519 101C468 50 402 17 332 17C203 17 117 109 117 258C117 385 170 518 248 596C299 647 365 680 435 680ZM545 84C627 166 681 305 681 441C681 554 634 638 557 679C677 670 743 723 743 798C743 811 742 820 738 830L708 819C710 811 712 802 712 794C712 739 668 702 578 702C533 702 496 709 439 709C356 709 282 674 222 613C140 531 85 392 85 256C85 90 185 -12 329 -12C411 -12 484 23 545 84ZM295 -126 309 -65H272L258 -126Z" glyph-name="uni1EE2" horiz-adv-x="720" unicode="&#7906;" /><glyph d="M225 -12C283 -12 337 14 379 57C440 117 482 218 482 319C482 402 449 459 399 488C489 494 539 541 539 604C539 616 537 626 534 633L507 623C509 615 510 611 510 600C510 557 470 512 383 512C361 512 336 515 319 515C251 515 196 488 153 445C92 384 51 285 51 183C51 59 126 -12 225 -12ZM226 16C145 16 81 74 81 185C81 277 120 371 176 428C212 464 255 488 310 488C385 488 452 430 452 317C452 225 413 130 357 74C321 38 276 16 226 16ZM201 -122 215 -61H178L164 -122Z" glyph-name="uni1EE3" horiz-adv-x="533" unicode="&#7907;" /><glyph d="M587 239 696 700H665L557 243C521 102 431 19 317 19C205 19 132 86 132 199C132 224 136 261 143 289L240 700H208L112 293C104 262 99 225 99 196C99 68 190 -10 313 -10C448 -10 549 82 587 239ZM278 -126 292 -65H255L241 -126Z" glyph-name="uni1EE4" horiz-adv-x="690" unicode="&#7908;" /><glyph d="M370 0H390L513 508H483L379 77C327 43 267 19 209 19C137 19 96 57 96 125C96 142 99 165 104 187L180 508H150L75 192C69 166 66 141 66 120C66 39 119 -9 205 -9C262 -9 321 13 373 45ZM202 -122 216 -61H179L165 -122Z" glyph-name="uni1EE5" horiz-adv-x="547" unicode="&#7909;" /><glyph d="M587 239 696 700H665L557 243C521 102 431 19 317 19C205 19 132 86 132 199C132 224 136 261 143 289L240 700H208L112 293C104 262 99 225 99 196C99 68 190 -10 313 -10C448 -10 549 82 587 239ZM382 855 383 826C415 833 447 837 481 837C525 837 540 830 540 819C540 808 533 799 448 772L450 747C557 778 577 800 577 825C577 851 548 867 487 867C449 867 418 863 382 855Z" glyph-name="uni1EE6" horiz-adv-x="690" unicode="&#7910;" /><glyph d="M370 0H390L513 508H483L379 77C327 43 267 19 209 19C137 19 96 57 96 125C96 142 99 165 104 187L180 508H150L75 192C69 166 66 141 66 120C66 39 119 -9 205 -9C262 -9 321 13 373 45ZM286 700V672C313 680 341 685 368 685C404 685 419 676 419 663C419 649 407 638 333 606L338 583C434 621 454 642 454 669C454 696 429 714 376 714C345 714 316 709 286 700Z" glyph-name="uni1EE7" horiz-adv-x="547" unicode="&#7911;" /><glyph d="M313 -10C448 -10 549 82 587 239L690 674C784 679 837 730 837 799C837 813 835 822 831 830L801 819C804 811 805 802 805 793C805 743 766 700 667 700H665L557 243C521 102 431 19 317 19C205 19 132 86 132 199C132 224 136 261 143 289L240 700H208L112 293C104 262 99 225 99 196C99 68 190 -10 313 -10ZM453 753 607 848H548L416 753Z" glyph-name="uni1EE8" horiz-adv-x="714" unicode="&#7912;" /><glyph d="M343 591 499 706H445L313 591ZM373 45 370 0H390L507 485C589 491 643 538 643 603C643 615 641 625 637 633L610 623C613 614 614 609 614 599C614 556 579 508 483 508L379 77C327 43 267 19 209 19C137 19 96 57 96 125C96 142 99 165 104 187L180 508H150L75 192C69 166 66 141 66 120C66 39 119 -9 205 -9C262 -9 321 13 373 45Z" glyph-name="uni1EE9" horiz-adv-x="563" unicode="&#7913;" /><glyph d="M313 -10C448 -10 549 82 587 239L690 674C784 679 837 730 837 799C837 813 835 822 831 830L801 819C804 811 805 802 805 793C805 743 766 700 667 700H665L557 243C521 102 431 19 317 19C205 19 132 86 132 199C132 224 136 261 143 289L240 700H208L112 293C104 262 99 225 99 196C99 68 190 -10 313 -10ZM468 753H500L413 848H359Z" glyph-name="uni1EEA" horiz-adv-x="714" unicode="&#7914;" /><glyph d="M373 45 370 0H390L507 485C589 491 643 538 643 603C643 615 641 625 637 633L610 623C613 614 614 609 614 599C614 556 579 508 483 508L379 77C327 43 267 19 209 19C137 19 96 57 96 125C96 142 99 165 104 187L180 508H150L75 192C69 166 66 141 66 120C66 39 119 -9 205 -9C262 -9 321 13 373 45ZM356 589H383L305 704H255Z" glyph-name="uni1EEB" horiz-adv-x="563" unicode="&#7915;" /><glyph d="M313 -10C448 -10 549 82 587 239L690 674C784 679 837 730 837 799C837 813 835 822 831 830L801 819C804 811 805 802 805 793C805 743 766 700 667 700H665L557 243C521 102 431 19 317 19C205 19 132 86 132 199C132 224 136 261 143 289L240 700H208L112 293C104 262 99 225 99 196C99 68 190 -10 313 -10ZM382 855 383 826C415 833 447 837 481 837C525 837 540 830 540 819C540 808 533 799 448 772L450 747C557 778 577 800 577 825C577 851 548 867 487 867C449 867 418 863 382 855Z" glyph-name="uni1EEC" horiz-adv-x="714" unicode="&#7916;" /><glyph d="M373 45 370 0H390L507 485C589 491 643 538 643 603C643 615 641 625 637 633L610 623C613 614 614 609 614 599C614 556 579 508 483 508L379 77C327 43 267 19 209 19C137 19 96 57 96 125C96 142 99 165 104 187L180 508H150L75 192C69 166 66 141 66 120C66 39 119 -9 205 -9C262 -9 321 13 373 45ZM288 700V672C315 680 343 685 370 685C406 685 421 676 421 663C421 649 409 638 335 606L340 583C436 621 456 642 456 669C456 696 431 714 378 714C347 714 318 709 288 700Z" glyph-name="uni1EED" horiz-adv-x="563" unicode="&#7917;" /><glyph d="M313 -10C448 -10 549 82 587 239L690 674C784 679 837 730 837 799C837 813 835 822 831 830L801 819C804 811 805 802 805 793C805 743 766 700 667 700H665L557 243C521 102 431 19 317 19C205 19 132 86 132 199C132 224 136 261 143 289L240 700H208L112 293C104 262 99 225 99 196C99 68 190 -10 313 -10ZM420 809C432 809 438 806 463 786C490 766 503 758 521 758C551 758 571 779 604 830L580 841C551 800 539 790 526 790C514 790 508 793 482 813C456 833 442 840 425 840C394 840 375 820 341 769L365 757C394 799 407 809 420 809Z" glyph-name="uni1EEE" horiz-adv-x="714" unicode="&#7918;" /><glyph d="M310 646C321 646 328 641 352 622C379 601 390 594 407 594C437 594 455 615 488 667L465 678C438 635 424 624 411 624C401 624 394 629 370 648C343 669 334 676 315 676C286 676 267 656 234 604L257 592C284 635 298 646 310 646ZM373 45 370 0H390L507 485C589 491 643 538 643 603C643 615 641 625 637 633L610 623C613 614 614 609 614 599C614 556 579 508 483 508L379 77C327 43 267 19 209 19C137 19 96 57 96 125C96 142 99 165 104 187L180 508H150L75 192C69 166 66 141 66 120C66 39 119 -9 205 -9C262 -9 321 13 373 45Z" glyph-name="uni1EEF" horiz-adv-x="563" unicode="&#7919;" /><glyph d="M313 -10C448 -10 549 82 587 239L690 674C784 679 837 730 837 799C837 813 835 822 831 830L801 819C804 811 805 802 805 793C805 743 766 700 667 700H665L557 243C521 102 431 19 317 19C205 19 132 86 132 199C132 224 136 261 143 289L240 700H208L112 293C104 262 99 225 99 196C99 68 190 -10 313 -10ZM278 -126 292 -65H255L241 -126Z" glyph-name="uni1EF0" horiz-adv-x="714" unicode="&#7920;" /><glyph d="M373 45 370 0H390L507 485C589 491 643 538 643 603C643 615 641 625 637 633L610 623C613 614 614 609 614 599C614 556 579 508 483 508L379 77C327 43 267 19 209 19C137 19 96 57 96 125C96 142 99 165 104 187L180 508H150L75 192C69 166 66 141 66 120C66 39 119 -9 205 -9C262 -9 321 13 373 45ZM202 -122 216 -61H179L165 -122Z" glyph-name="uni1EF1" horiz-adv-x="563" unicode="&#7921;" /><glyph d="M266 0 337 294 697 700H656L325 324L174 700H138L305 294L234 0ZM242 -119 256 -58H219L205 -119Z" glyph-name="uni1EF4" horiz-adv-x="623" unicode="&#7924;" /><glyph d="M-23 -175C79 -148 141 -95 204 5L514 508H480L197 38L132 508H102L175 5C116 -79 67 -121 -26 -147ZM219 -178 233 -117H196L182 -178Z" glyph-name="uni1EF5" horiz-adv-x="491" unicode="&#7925;" /><glyph d="M266 0 337 294 697 700H656L325 324L174 700H138L305 294L234 0ZM345 855 346 826C378 833 410 837 444 837C488 837 503 830 503 819C503 808 496 799 411 772L413 747C520 778 540 800 540 825C540 851 511 867 450 867C412 867 381 863 345 855Z" glyph-name="uni1EF6" horiz-adv-x="623" unicode="&#7926;" /><glyph d="M-23 -175C79 -148 141 -95 204 5L514 508H480L197 38L132 508H102L175 5C116 -79 67 -121 -26 -147ZM261 700V672C288 680 316 685 343 685C379 685 394 676 394 663C394 649 382 638 308 606L313 583C409 621 429 642 429 669C429 696 404 714 351 714C320 714 291 709 261 700Z" glyph-name="uni1EF7" horiz-adv-x="491" unicode="&#7927;" /><glyph d="M266 0 337 294 697 700H656L325 324L174 700H138L305 294L234 0ZM384 809C396 809 402 806 427 786C454 766 467 758 485 758C515 758 535 779 568 830L544 841C515 800 503 790 490 790C478 790 472 793 446 813C420 833 406 840 389 840C358 840 339 820 305 769L329 757C358 799 371 809 384 809Z" glyph-name="uni1EF8" horiz-adv-x="623" unicode="&#7928;" /><glyph d="M-23 -175C79 -148 141 -95 204 5L514 508H480L197 38L132 508H102L175 5C116 -79 67 -121 -26 -147ZM286 646C296 646 303 641 328 622C355 601 365 594 382 594C413 594 431 615 464 667L440 678C414 635 400 624 387 624C377 624 370 629 346 648C319 669 309 676 291 676C261 676 242 656 210 604L233 592C260 635 273 646 286 646Z" glyph-name="uni1EF9" horiz-adv-x="491" unicode="&#7929;" /><glyph glyph-name="uni2002" horiz-adv-x="500" unicode="&#8194;" /><glyph glyph-name="uni2003" horiz-adv-x="1000" unicode="&#8195;" /><glyph glyph-name="uni2004" horiz-adv-x="333" unicode="&#8196;" /><glyph glyph-name="uni2005" horiz-adv-x="250" unicode="&#8197;" /><glyph glyph-name="uni2007" horiz-adv-x="564" unicode="&#8199;" /><glyph glyph-name="uni2009" horiz-adv-x="125" unicode="&#8201;" /><glyph glyph-name="uni200A" horiz-adv-x="42" unicode="&#8202;" /><glyph d="M302 292 309 322H69L62 292Z" glyph-name="uni2011" horiz-adv-x="346" unicode="&#8209;" /><glyph d="M315 345 322 375H82L75 345Z" glyph-name="uni2011.cap" horiz-adv-x="346" /><glyph d="M480 343 487 373H88L81 343Z" glyph-name="uni2012" horiz-adv-x="564" unicode="&#8210;" /><glyph d="M768 293 776 321H69L62 293Z" glyph-name="uni2015" horiz-adv-x="812" unicode="&#8213;" /><glyph d="M781 346 789 374H82L75 346Z" glyph-name="uni2015.cap" horiz-adv-x="812" /><glyph d="M147 724C140 696 138 678 138 653C138 607 154 565 188 517L200 525C182 563 173 598 173 637C173 662 177 691 185 724Z" glyph-name="uni201B" horiz-adv-x="170" unicode="&#8219;" /><glyph d="M294 724C287 696 285 678 285 653C285 607 301 565 335 517L347 525C329 563 320 598 320 637C320 662 324 691 332 724ZM155 724C148 696 146 678 146 653C146 607 162 565 196 517L208 525C190 563 181 598 181 637C181 662 185 691 193 724Z" glyph-name="uni201F" horiz-adv-x="317" unicode="&#8223;" /><glyph d="M375 60H332L317 0H361ZM93 60H49L35 0H79Z" glyph-name="uni2025" horiz-adv-x="564" unicode="&#8229;" /><glyph glyph-name="uni202F" horiz-adv-x="125" unicode="&#8239;" /><glyph d="M286 413C329 413 368 430 402 464C448 510 481 594 481 684C481 784 420 843 346 843C304 843 264 825 231 792C185 746 152 662 152 572C152 472 213 413 286 413ZM288 440C228 440 182 487 182 573C182 653 211 734 253 776C278 800 311 816 344 816C404 816 451 769 451 683C451 603 421 522 379 480C355 456 321 440 288 440Z" glyph-name="uni2070" horiz-adv-x="456" unicode="&#8304;" /><glyph d="M358 551H158L419 804ZM460 524 467 551H386L456 840H419L116 548L119 524H352L326 419H354L379 524Z" glyph-name="uni2074" horiz-adv-x="435" unicode="&#8308;" /><glyph d="M427 581C427 636 382 673 314 673C280 673 241 665 204 649L250 810H474L481 837H229L170 626L188 615C230 634 271 646 311 646C367 646 397 620 397 579C397 508 310 450 113 439L114 412C329 424 427 491 427 581Z" glyph-name="uni2075" horiz-adv-x="415" unicode="&#8309;" /><glyph d="M279 413C367 413 437 479 437 565C437 635 387 678 307 678C273 678 236 670 203 657C242 728 320 787 444 821L438 847C258 803 148 685 148 550C148 465 200 413 279 413ZM280 440C217 440 178 478 178 552C178 576 183 602 191 628C227 643 268 651 303 651C372 651 407 620 407 564C407 494 352 440 280 440Z" glyph-name="uni2076" horiz-adv-x="424" unicode="&#8310;" /><glyph d="M180 414 479 807 485 837H200L193 809H445L156 431Z" glyph-name="uni2077" horiz-adv-x="398" unicode="&#8311;" /><glyph d="M282 414C374 414 440 465 440 538C440 582 412 617 363 632C430 643 476 684 476 739C476 798 423 842 341 842C253 842 193 792 193 731C193 691 216 660 261 644C181 633 133 583 133 523C133 460 190 414 282 414ZM223 728C223 777 270 815 339 815C406 815 447 782 447 738C447 690 398 651 333 651C265 651 223 683 223 728ZM163 526C163 580 219 625 288 625C364 625 410 588 410 539C410 484 359 441 284 441C208 441 163 474 163 526Z" glyph-name="uni2078" horiz-adv-x="430" unicode="&#8312;" /><glyph d="M322 843C234 843 164 777 164 691C164 621 214 578 294 578C328 578 365 586 398 599C359 528 281 469 157 435L163 409C343 453 453 571 453 706C453 791 401 843 322 843ZM321 816C384 816 423 778 423 704C423 680 418 654 410 628C374 613 333 605 298 605C229 605 194 636 194 692C194 762 249 816 321 816Z" glyph-name="uni2079" horiz-adv-x="424" unicode="&#8313;" /><glyph d="M149 -162C192 -162 231 -145 265 -111C311 -65 344 19 344 109C344 209 283 268 209 268C167 268 127 250 94 217C48 171 15 87 15 -3C15 -103 76 -162 149 -162ZM151 -135C91 -135 45 -88 45 -2C45 78 74 159 116 201C141 225 174 241 207 241C267 241 314 194 314 108C314 28 284 -53 242 -95C218 -119 184 -135 151 -135Z" glyph-name="uni2080" horiz-adv-x="456" unicode="&#8320;" /><glyph d="M116 -156 220 265H197L41 209L50 184L182 230L86 -156Z" glyph-name="uni2081" horiz-adv-x="328" unicode="&#8321;" /><glyph d="M257 -156 263 -128H13L210 29C276 83 312 123 312 173C312 229 265 267 200 267C142 267 87 238 44 196L61 176C103 215 150 240 198 240C250 240 282 214 282 171C282 133 251 99 192 50L-36 -134L-33 -156Z" glyph-name="uni2082" horiz-adv-x="405" unicode="&#8322;" /><glyph d="M-36 -162C185 -161 277 -108 277 -28C277 19 237 53 157 61C274 87 323 129 323 184C323 235 278 268 198 268C150 268 102 257 60 238L70 213C112 231 155 240 196 240C262 240 293 218 293 183C293 137 241 97 97 70L92 47C208 40 247 13 247 -29C247 -90 161 -134 -29 -134Z" glyph-name="uni2083" horiz-adv-x="411" unicode="&#8323;" /><glyph d="M221 -24H21L282 229ZM323 -51 330 -24H249L319 265H282L-21 -27L-18 -51H215L189 -156H217L242 -51Z" glyph-name="uni2084" horiz-adv-x="435" unicode="&#8324;" /><glyph d="M290 6C290 61 245 98 177 98C143 98 104 90 67 74L113 235H337L344 262H92L33 51L51 40C93 59 134 71 174 71C230 71 260 45 260 4C260 -67 173 -125 -24 -136L-23 -163C192 -151 290 -84 290 6Z" glyph-name="uni2085" horiz-adv-x="415" unicode="&#8325;" /><glyph d="M142 -162C230 -162 300 -96 300 -10C300 60 250 103 170 103C136 103 99 95 66 82C105 153 183 212 307 246L301 272C121 228 11 110 11 -25C11 -110 63 -162 142 -162ZM143 -135C80 -135 41 -97 41 -23C41 1 46 27 54 53C90 68 131 76 166 76C235 76 270 45 270 -11C270 -81 215 -135 143 -135Z" glyph-name="uni2086" horiz-adv-x="424" unicode="&#8326;" /><glyph d="M43 -161 342 232 348 262H63L56 234H308L19 -144Z" glyph-name="uni2087" horiz-adv-x="398" unicode="&#8327;" /><glyph d="M145 -161C237 -161 303 -110 303 -37C303 7 275 42 226 57C293 68 339 109 339 164C339 223 286 267 204 267C116 267 56 217 56 156C56 116 79 85 124 69C44 58 -4 8 -4 -52C-4 -115 53 -161 145 -161ZM86 153C86 202 133 240 202 240C269 240 310 207 310 163C310 115 261 76 196 76C128 76 86 108 86 153ZM26 -49C26 5 82 50 151 50C227 50 273 13 273 -36C273 -91 222 -134 147 -134C71 -134 26 -101 26 -49Z" glyph-name="uni2088" horiz-adv-x="430" unicode="&#8328;" /><glyph d="M185 268C97 268 27 202 27 116C27 46 77 3 157 3C191 3 228 11 261 24C222 -47 144 -106 20 -140L26 -166C206 -122 316 -4 316 131C316 216 264 268 185 268ZM184 241C247 241 286 203 286 129C286 105 281 79 273 53C237 38 196 30 161 30C92 30 57 61 57 117C57 187 112 241 184 241Z" glyph-name="uni2089" horiz-adv-x="424" unicode="&#8329;" /><glyph d="M347 448H220L270 658ZM582 285H438L388 421H615ZM407 285H180L213 421H357ZM525 49 447 259H576ZM512 0H544L606 258H696L703 286H613L645 420H735L742 449H652L713 700H682L622 448H378L286 700H250L189 449H99L93 420H182L150 286H60L53 258H143L81 0H112L174 259H417Z" glyph-name="uni20A6" horiz-adv-x="748" unicode="&#8358;" /><glyph d="M588 448H469L577 649ZM763 285H625L618 421H831ZM597 285H381L454 421H590ZM350 285H212L210 421H424ZM639 37 627 259H750ZM614 -10H646L781 258H911L918 286H795L863 420H951L958 449H877L1004 700H968L844 448H616L603 700H571L438 448H210L206 700H174L180 449H100L93 420H180L183 286H60L53 258H184L190 -10H223L367 259H599ZM217 37 213 259H336Z" glyph-name="uni20A9" horiz-adv-x="964" unicode="&#8361;" /><glyph d="M275 671H403C523 671 596 616 596 512C596 502 595 492 594 483H230ZM179 269 224 457H590C580 415 560 378 531 350C479 298 402 269 314 269ZM171 239H309C409 239 497 272 554 329C588 363 612 406 622 456H705L712 484H626C627 494 628 504 628 514C628 634 544 700 405 700H250L198 484H108L102 456H191L82 0H113Z" glyph-name="uni20B1" horiz-adv-x="674" unicode="&#8369;" /><glyph d="M480 1 343 193C314 233 290 255 258 270C395 294 494 366 520 468H602L609 497H525C526 505 526 513 526 521C526 589 489 645 424 671H651L658 700H179L172 671H299C428 671 495 604 495 517C495 510 495 504 494 497H130L123 468H488C458 365 335 293 186 293H81L73 264H145C226 264 267 245 317 174L440 0H480Z" glyph-name="uni20B9" horiz-adv-x="609" unicode="&#8377;" /><glyph d="M151 0C343 0 484 125 535 286H503C449 132 319 29 153 29H121L175 256L444 405L452 439L183 289L216 426L485 576L493 610L224 461L282 700H250L188 442L84 385L76 351L180 408L147 271L43 214L35 180L139 238L82 0Z" glyph-name="uni20BA" horiz-adv-x="583" unicode="&#8378;" /><glyph d="M327 309H188L275 671H421C550 671 616 616 616 524C616 470 594 424 559 389C507 337 425 309 327 309ZM465 141 472 169H154L181 280H320C432 280 526 312 584 370C622 408 647 462 647 526C647 638 567 700 427 700H250L156 309H66L59 280H149L123 169H33L26 141H116L82 0H113L147 141Z" glyph-name="uni20BD" horiz-adv-x="648" unicode="&#8381;" /><glyph d="M84 257C84 84 185 -31 344 -31C567 -31 740 205 740 443C740 616 639 731 480 731C257 731 84 495 84 257ZM719 442C719 216 554 -11 344 -11C197 -11 106 96 106 258C106 484 271 711 480 711C628 711 719 604 719 442ZM294 173 324 298H407C512 298 581 355 581 434C581 496 534 532 455 532H351L266 173ZM330 324 373 506H451C517 506 550 479 550 433C550 371 499 324 410 324Z" glyph-name="uni2117" horiz-adv-x="778" unicode="&#8471;" /></font>
</defs>
</svg>
