<?xml version="1.0" standalone="no"?><!DOCTYPE svg PUBLIC "-//W3C//DTD SVG 1.1//EN" "http://www.w3.org/Graphics/SVG/1.1/DTD/svg11.dtd" ><svg version="1.1" xmlns="http://www.w3.org/2000/svg"><defs><font horiz-adv-x="0" id="font"><font-face ascent="800" bbox="-189 -240 992 996" cap-height="700" descent="-200" font-family="Retina" font-stretch="normal" font-style="normal" font-weight="400" units-per-em="1000" x-height="518" /><missing-glyph d="M100 -240H600V960H100ZM192 910H507L350 429ZM321 360 150 -154V874ZM378 360 550 874V-154ZM350 291 507 -190H192Z" horiz-adv-x="700" /><glyph d="M477 243H221L349 607ZM562 0H669L408 708H292L30 0H136L190 155H508Z" glyph-name="A" horiz-adv-x="699" unicode="A" /><glyph d="M514 243H275L498 611H514ZM514 0H986V90H614V314H940V404H614V610H981V700H444L16 0H128L222 155H514Z" glyph-name="AE" horiz-adv-x="1040" unicode="&#198;" /><glyph d="M514 243H275L498 611H514ZM514 0H986V90H614V314H940V404H614V610H981V700H444L16 0H128L222 155H514ZM626 749 769 847H642L545 749Z" glyph-name="AEacute" horiz-adv-x="1040" unicode="&#508;" /><glyph d="M477 243H221L349 607ZM562 0H669L408 708H292L30 0H136L190 155H508ZM370 755 513 853H386L289 755Z" glyph-name="Aacute" horiz-adv-x="699" unicode="&#193;" /><glyph d="M477 243H221L349 607ZM562 0H669L408 708H292L30 0H136L190 155H508ZM349 810C310 810 286 830 277 864H221C228 798 274 752 349 752C423 752 470 798 477 864H421C412 830 389 810 349 810Z" glyph-name="Abreve" horiz-adv-x="699" unicode="&#258;" /><glyph d="M477 243H221L349 607ZM562 0H669L408 708H292L30 0H136L190 155H508ZM348 808 415 755H486L392 856H306L212 755H281Z" glyph-name="Acircumflex" horiz-adv-x="699" unicode="&#194;" /><glyph d="M477 243H221L349 607ZM562 0H669L408 708H292L30 0H136L190 155H508ZM307 755V843H226V755ZM472 755V843H391V755Z" glyph-name="Adieresis" horiz-adv-x="699" unicode="&#196;" /><glyph d="M477 243H221L349 607ZM562 0H669L408 708H292L30 0H136L190 155H508ZM328 755H409L312 853H185Z" glyph-name="Agrave" horiz-adv-x="699" unicode="&#192;" /><glyph d="M477 243H221L349 607ZM562 0H669L408 708H292L30 0H136L190 155H508ZM492 761V817H206V761Z" glyph-name="Amacron" horiz-adv-x="699" unicode="&#256;" /><glyph d="M477 243H221L349 607ZM678 -101C621 -93 610 -85 610 -70C610 -58 617 -46 648 0H669L408 708H292L30 0H136L190 155H508L562 0H586C539 -44 525 -66 525 -87C525 -124 562 -142 672 -148Z" glyph-name="Aogonek" horiz-adv-x="699" unicode="&#260;" /><glyph d="M282 763C282 799 309 827 350 827C390 827 418 799 418 763C418 726 390 698 350 698C309 698 282 726 282 763ZM477 243H221L349 607ZM562 0H669L415 687C440 704 455 732 455 763C455 817 411 859 350 859C289 859 245 817 245 763C245 732 260 705 284 687L30 0H136L190 155H508Z" glyph-name="Aring" horiz-adv-x="699" unicode="&#197;" /><glyph d="M374 888 497 967H373L293 888ZM282 763C282 799 309 827 350 827C390 827 418 799 418 763C418 726 390 698 350 698C309 698 282 726 282 763ZM477 243H221L349 607ZM562 0H669L415 687C440 704 455 732 455 763C455 817 411 859 350 859C289 859 245 817 245 763C245 732 260 705 284 687L30 0H136L190 155H508Z" glyph-name="Aringacute" horiz-adv-x="699" unicode="&#506;" /><glyph d="M477 243H221L349 607ZM562 0H669L408 708H292L30 0H136L190 155H508ZM247 752C265 792 276 801 292 801C306 801 317 796 348 778C384 759 400 753 421 753C457 753 482 777 508 846L459 862C441 822 429 813 414 813C400 813 388 818 357 835C322 855 306 861 285 861C249 861 224 837 197 767Z" glyph-name="Atilde" horiz-adv-x="699" unicode="&#195;" /><glyph d="M350 0C504 0 603 68 603 191C603 289 536 341 435 363C514 388 581 438 581 534C581 633 505 700 350 700H88V0ZM189 404V611H345C435 611 478 575 478 519C478 446 410 404 311 404ZM189 89V317H313C432 317 500 273 500 200C500 129 441 89 352 89Z" glyph-name="B" horiz-adv-x="650" unicode="B" /><glyph d="M571 33 549 121C496 97 444 83 390 83C246 83 155 189 155 351C155 508 248 617 386 617C444 617 498 602 545 580L567 671C512 695 451 709 381 709C188 709 52 566 52 349C52 128 184 -9 381 -9C447 -9 512 5 571 33Z" glyph-name="C" horiz-adv-x="612" unicode="C" /><glyph d="M571 33 549 121C496 97 444 83 390 83C246 83 155 189 155 351C155 508 248 617 386 617C444 617 498 602 545 580L567 671C512 695 451 709 381 709C188 709 52 566 52 349C52 128 184 -9 381 -9C447 -9 512 5 571 33ZM384 756 527 854H400L303 756Z" glyph-name="Cacute" horiz-adv-x="612" unicode="&#262;" /><glyph d="M571 33 549 121C496 97 444 83 390 83C246 83 155 189 155 351C155 508 248 617 386 617C444 617 498 602 545 580L567 671C512 695 451 709 381 709C188 709 52 566 52 349C52 128 184 -9 381 -9C447 -9 512 5 571 33ZM364 805 297 857H226L320 756H406L500 857H431Z" glyph-name="Ccaron" horiz-adv-x="612" unicode="&#268;" /><glyph d="M446 -83C446 -53 419 -35 361 -37L386 -9C447 -9 512 5 571 33L549 121C496 97 444 83 390 83C246 83 155 189 155 351C155 508 248 617 386 617C444 617 498 602 545 580L567 671C512 695 451 709 381 709C188 709 52 566 52 349C52 149 160 18 327 -5L288 -54L304 -74C344 -67 364 -73 364 -88C364 -104 342 -115 266 -121L270 -156C400 -152 446 -124 446 -83Z" glyph-name="Ccedilla" horiz-adv-x="612" unicode="&#199;" /><glyph d="M571 33 549 121C496 97 444 83 390 83C246 83 155 189 155 351C155 508 248 617 386 617C444 617 498 602 545 580L567 671C512 695 451 709 381 709C188 709 52 566 52 349C52 128 184 -9 381 -9C447 -9 512 5 571 33ZM362 809 429 756H500L406 857H320L226 756H295Z" glyph-name="Ccircumflex" horiz-adv-x="612" unicode="&#264;" /><glyph d="M571 33 549 121C496 97 444 83 390 83C246 83 155 189 155 351C155 508 248 617 386 617C444 617 498 602 545 580L567 671C512 695 451 709 381 709C188 709 52 566 52 349C52 128 184 -9 381 -9C447 -9 512 5 571 33ZM405 756V844H321V756Z" glyph-name="Cdotaccent" horiz-adv-x="612" unicode="&#266;" /><glyph d="M639 351C639 586 489 700 277 700H88V0H274C488 0 639 115 639 351ZM189 89V611H281C436 611 536 522 536 349C536 176 435 89 282 89Z" glyph-name="D" horiz-adv-x="691" unicode="D" /><glyph d="M639 351C639 586 489 700 277 700H88V0H274C488 0 639 115 639 351ZM189 89V611H281C436 611 536 522 536 349C536 176 435 89 282 89ZM340 798 273 850H202L296 749H382L476 850H407Z" glyph-name="Dcaron" horiz-adv-x="691" unicode="&#270;" /><glyph d="M286 0C500 0 651 115 651 351C651 586 501 700 289 700H100V395H26V323H100V0ZM200 89V323H366V394H200V611H292C448 611 548 522 548 349C548 176 446 89 294 89Z" glyph-name="Dcroat" horiz-adv-x="703" unicode="&#272;" /><glyph d="M565 0V90H189V314H519V404H189V610H559V700H88V0Z" glyph-name="E" horiz-adv-x="618" unicode="E" /><glyph d="M565 0V90H189V314H519V404H189V610H559V700H88V0ZM353 749 496 847H369L272 749Z" glyph-name="Eacute" horiz-adv-x="618" unicode="&#201;" /><glyph d="M565 0V90H189V314H519V404H189V610H559V700H88V0ZM332 804C293 804 269 824 260 858H204C211 792 257 746 332 746C406 746 453 792 460 858H404C395 824 372 804 332 804Z" glyph-name="Ebreve" horiz-adv-x="618" unicode="&#276;" /><glyph d="M565 0V90H189V314H519V404H189V610H559V700H88V0ZM333 798 266 850H195L289 749H375L469 850H400Z" glyph-name="Ecaron" horiz-adv-x="618" unicode="&#282;" /><glyph d="M565 0V90H189V314H519V404H189V610H559V700H88V0ZM331 802 398 749H469L375 850H289L195 749H264Z" glyph-name="Ecircumflex" horiz-adv-x="618" unicode="&#202;" /><glyph d="M565 0V90H189V314H519V404H189V610H559V700H88V0ZM290 749V837H209V749ZM455 749V837H374V749Z" glyph-name="Edieresis" horiz-adv-x="618" unicode="&#203;" /><glyph d="M565 0V90H189V314H519V404H189V610H559V700H88V0ZM374 749V837H290V749Z" glyph-name="Edotaccent" horiz-adv-x="618" unicode="&#278;" /><glyph d="M565 0V90H189V314H519V404H189V610H559V700H88V0ZM311 749H392L295 847H168Z" glyph-name="Egrave" horiz-adv-x="618" unicode="&#200;" /><glyph d="M565 0V90H189V314H519V404H189V610H559V700H88V0ZM475 755V811H189V755Z" glyph-name="Emacron" horiz-adv-x="618" unicode="&#274;" /><glyph d="M451 -178C561 -178 628 -112 628 17V700H531V177L197 700H88V0H185V540L531 14C528 -52 495 -89 436 -89C409 -89 383 -84 359 -75V-165C386 -173 420 -178 451 -178Z" glyph-name="Eng" horiz-adv-x="716" unicode="&#330;" /><glyph d="M565 -101C508 -93 497 -85 497 -70C497 -58 504 -46 535 0H565V90H189V314H519V404H189V610H559V700H88V0H473C426 -44 412 -66 412 -87C412 -124 449 -142 559 -148Z" glyph-name="Eogonek" horiz-adv-x="618" unicode="&#280;" /><glyph d="M286 0C500 0 651 115 651 351C651 586 501 700 289 700H100V395H26V323H100V0ZM200 89V323H366V394H200V611H292C448 611 548 522 548 349C548 176 446 89 294 89Z" glyph-name="Eth" horiz-adv-x="703" unicode="&#208;" /><glyph d="M549 15 533 101C502 91 454 81 413 81C311 81 240 132 214 242H482V299H204C203 315 202 332 202 350C202 367 203 383 204 398H482V455H213C239 567 310 619 414 619C458 619 502 609 533 599L549 686C512 697 463 708 410 708C246 708 142 617 112 455H31V398H105C104 383 103 367 103 350C103 332 104 315 105 299H31V242H112C143 80 247 -8 409 -8C460 -8 512 3 549 15Z" glyph-name="Euro" horiz-adv-x="598" unicode="&#8364;" /><glyph d="M521 14 504 101C469 88 433 81 396 81C302 81 236 133 212 242H454V299H203C202 315 201 332 201 350C201 367 202 383 203 398H454V455H211C235 566 301 619 397 619C434 619 470 612 504 600L521 686C481 700 439 708 391 708C243 708 140 621 111 455H33V398H104C103 383 102 367 102 350C102 332 103 315 104 299H33V242H111C140 77 240 -8 390 -8C436 -8 481 0 521 14Z" glyph-name="Euro.tab" horiz-adv-x="564" /><glyph d="M189 0V288H469V378H189V610H556V700H88V0Z" glyph-name="F" horiz-adv-x="585" unicode="F" /><glyph d="M617 52V382H350V292H518V109C484 93 436 79 386 79C241 79 155 182 155 349C155 507 243 618 386 618C459 618 516 598 569 573L599 661C538 690 468 710 387 710C191 710 52 572 52 349C52 123 179 -9 381 -9C470 -9 553 17 617 52Z" glyph-name="G" horiz-adv-x="694" unicode="G" /><glyph d="M617 52V382H350V292H518V109C484 93 436 79 386 79C241 79 155 182 155 349C155 507 243 618 386 618C459 618 516 598 569 573L599 661C538 690 468 710 387 710C191 710 52 572 52 349C52 123 179 -9 381 -9C470 -9 553 17 617 52ZM369 811C330 811 306 831 297 865H241C248 799 294 753 369 753C443 753 490 799 497 865H441C432 831 409 811 369 811Z" glyph-name="Gbreve" horiz-adv-x="694" unicode="&#286;" /><glyph d="M617 52V382H350V292H518V109C484 93 436 79 386 79C241 79 155 182 155 349C155 507 243 618 386 618C459 618 516 598 569 573L599 661C538 690 468 710 387 710C191 710 52 572 52 349C52 123 179 -9 381 -9C470 -9 553 17 617 52ZM370 805 303 857H232L326 756H412L506 857H437Z" glyph-name="Gcaron" horiz-adv-x="694" unicode="&#486;" /><glyph d="M617 52V382H350V292H518V109C484 93 436 79 386 79C241 79 155 182 155 349C155 507 243 618 386 618C459 618 516 598 569 573L599 661C538 690 468 710 387 710C191 710 52 572 52 349C52 123 179 -9 381 -9C470 -9 553 17 617 52ZM368 809 435 756H506L412 857H326L232 756H301Z" glyph-name="Gcircumflex" horiz-adv-x="694" unicode="&#284;" /><glyph d="M617 52V382H350V292H518V109C484 93 436 79 386 79C241 79 155 182 155 349C155 507 243 618 386 618C459 618 516 598 569 573L599 661C538 690 468 710 387 710C191 710 52 572 52 349C52 123 179 -9 381 -9C470 -9 553 17 617 52ZM411 756V844H327V756Z" glyph-name="Gdotaccent" horiz-adv-x="694" unicode="&#288;" /><glyph d="M189 312H523V0H625V700H523V407H189V700H88V0H189Z" glyph-name="H" horiz-adv-x="713" unicode="H" /><glyph d="M200 397V530H536V397ZM201 308H535V0H636V528H711V598H636V700H536V596H200V700H100V598H26V528H100V0H201Z" glyph-name="Hbar" horiz-adv-x="736" unicode="&#294;" /><glyph d="M189 312H523V0H625V700H523V407H189V700H88V0H189ZM355 802 422 749H493L399 850H313L219 749H288Z" glyph-name="Hcircumflex" horiz-adv-x="713" unicode="&#292;" /><glyph d="M193 0V700H91V0Z" glyph-name="I" horiz-adv-x="284" unicode="I" /><glyph d="M193 0V700H91V0ZM163 749 306 847H179L82 749Z" glyph-name="Iacute" horiz-adv-x="284" unicode="&#205;" /><glyph d="M193 0V700H91V0ZM142 804C103 804 79 824 70 858H14C21 792 67 746 142 746C216 746 263 792 270 858H214C205 824 182 804 142 804Z" glyph-name="Ibreve" horiz-adv-x="284" unicode="&#300;" /><glyph d="M193 0V700H91V0ZM141 802 208 749H279L185 850H99L5 749H74Z" glyph-name="Icircumflex" horiz-adv-x="284" unicode="&#206;" /><glyph d="M193 0V700H91V0ZM100 749V837H19V749ZM265 749V837H184V749Z" glyph-name="Idieresis" horiz-adv-x="284" unicode="&#207;" /><glyph d="M193 0V700H91V0ZM184 749V837H100V749Z" glyph-name="Idotaccent" horiz-adv-x="284" unicode="&#304;" /><glyph d="M193 0V700H91V0ZM121 749H202L105 847H-22Z" glyph-name="Igrave" horiz-adv-x="284" unicode="&#204;" /><glyph d="M193 0V700H91V0ZM268 755V811H16V755Z" glyph-name="Imacron" horiz-adv-x="284" unicode="&#298;" /><glyph d="M209 -101C152 -93 141 -85 141 -70C141 -58 148 -46 179 0H193V700H91V0H117C70 -44 56 -66 56 -87C56 -124 93 -142 203 -148Z" glyph-name="Iogonek" horiz-adv-x="284" unicode="&#302;" /><glyph d="M193 0V700H91V0ZM40 746C58 786 69 795 85 795C99 795 110 790 141 772C177 753 193 747 214 747C250 747 275 771 301 840L252 856C234 816 222 807 207 807C193 807 181 812 150 829C115 849 99 855 78 855C42 855 17 831 -10 761Z" glyph-name="Itilde" horiz-adv-x="284" unicode="&#296;" /><glyph d="M399 252V700H298V252C298 142 250 82 155 82C117 82 81 89 44 103L25 15C69 0 115 -8 168 -8C321 -8 399 83 399 252Z" glyph-name="J" horiz-adv-x="480" unicode="J" /><glyph d="M399 252V700H298V252C298 142 250 82 155 82C117 82 81 89 44 103L25 15C69 0 115 -8 168 -8C321 -8 399 83 399 252ZM348 802 415 749H486L392 850H306L212 749H281Z" glyph-name="Jcircumflex" horiz-adv-x="480" unicode="&#308;" /><glyph d="M502 0H628L303 361L621 700H495L204 384H189V700H88V0H189V334H203Z" glyph-name="K" horiz-adv-x="641" unicode="K" /><glyph d="M519 0V91H189V700H88V0Z" glyph-name="L" horiz-adv-x="548" unicode="L" /><glyph d="M519 0V91H189V700H88V0ZM160 749 303 847H176L79 749Z" glyph-name="Lacute" horiz-adv-x="548" unicode="&#313;" /><glyph d="M519 0V91H189V700H88V0ZM340 701H276V669C276 624 271 592 257 557L286 542C321 582 340 618 340 676Z" glyph-name="Lcaron" horiz-adv-x="548" unicode="&#317;" /><glyph d="M533 0V91H201V323L360 406V490L201 404V700H100V353L26 316V233L100 272V0Z" glyph-name="Lslash" horiz-adv-x="561" unicode="&#321;" /><glyph d="M742 0H842L807 700H666L457 122L248 700H110L74 0H170L197 578L407 -1H505L716 580Z" glyph-name="M" horiz-adv-x="916" unicode="M" /><glyph d="M185 547 519 0H628V700H531V159L202 700H88V0H185Z" glyph-name="N" horiz-adv-x="716" unicode="N" /><glyph d="M185 547 519 0H628V700H531V159L202 700H88V0H185ZM387 745 530 843H403L306 745Z" glyph-name="Nacute" horiz-adv-x="716" unicode="&#323;" /><glyph d="M185 547 519 0H628V700H531V159L202 700H88V0H185ZM367 794 300 846H229L323 745H409L503 846H434Z" glyph-name="Ncaron" horiz-adv-x="716" unicode="&#327;" /><glyph d="M185 547 519 0H628V700H531V159L202 700H88V0H185ZM264 746C282 786 293 795 309 795C323 795 334 790 365 772C401 753 417 747 438 747C474 747 499 771 525 840L476 856C458 816 446 807 431 807C417 807 405 812 374 829C339 849 323 855 302 855C266 855 241 831 214 761Z" glyph-name="Ntilde" horiz-adv-x="716" unicode="&#209;" /><glyph d="M666 351C666 569 539 712 360 712C179 712 52 567 52 349C52 131 179 -12 358 -12C538 -12 666 133 666 351ZM563 349C563 185 480 76 360 76C238 76 155 185 155 351C155 515 238 624 358 624C479 624 563 515 563 349Z" glyph-name="O" horiz-adv-x="718" unicode="O" /><glyph d="M52 349C52 114 203 0 414 0H975V90H603V314H929V404H603V610H969V700H417C203 700 52 585 52 349ZM155 351C155 524 257 611 410 611H502V89H411C256 89 155 178 155 351Z" glyph-name="OE" horiz-adv-x="1028" unicode="&#338;" /><glyph d="M666 351C666 569 539 712 360 712C179 712 52 567 52 349C52 131 179 -12 358 -12C538 -12 666 133 666 351ZM563 349C563 185 480 76 360 76C238 76 155 185 155 351C155 515 238 624 358 624C479 624 563 515 563 349ZM380 756 523 854H396L299 756Z" glyph-name="Oacute" horiz-adv-x="718" unicode="&#211;" /><glyph d="M666 351C666 569 539 712 360 712C179 712 52 567 52 349C52 131 179 -12 358 -12C538 -12 666 133 666 351ZM563 349C563 185 480 76 360 76C238 76 155 185 155 351C155 515 238 624 358 624C479 624 563 515 563 349ZM359 811C320 811 296 831 287 865H231C238 799 284 753 359 753C433 753 480 799 487 865H431C422 831 399 811 359 811Z" glyph-name="Obreve" horiz-adv-x="718" unicode="&#334;" /><glyph d="M666 351C666 569 539 712 360 712C179 712 52 567 52 349C52 131 179 -12 358 -12C538 -12 666 133 666 351ZM563 349C563 185 480 76 360 76C238 76 155 185 155 351C155 515 238 624 358 624C479 624 563 515 563 349ZM358 809 425 756H496L402 857H316L222 756H291Z" glyph-name="Ocircumflex" horiz-adv-x="718" unicode="&#212;" /><glyph d="M666 351C666 569 539 712 360 712C179 712 52 567 52 349C52 131 179 -12 358 -12C538 -12 666 133 666 351ZM563 349C563 185 480 76 360 76C238 76 155 185 155 351C155 515 238 624 358 624C479 624 563 515 563 349ZM317 756V844H236V756ZM482 756V844H401V756Z" glyph-name="Odieresis" horiz-adv-x="718" unicode="&#214;" /><glyph d="M666 351C666 569 539 712 360 712C179 712 52 567 52 349C52 131 179 -12 358 -12C538 -12 666 133 666 351ZM563 349C563 185 480 76 360 76C238 76 155 185 155 351C155 515 238 624 358 624C479 624 563 515 563 349ZM338 756H419L322 854H195Z" glyph-name="Ograve" horiz-adv-x="718" unicode="&#210;" /><glyph d="M358 -12C538 -12 666 133 666 351C666 490 612 596 526 654C611 664 659 710 659 778C659 800 654 821 645 842L575 821C582 807 584 795 584 780C584 730 544 704 460 704C427 704 393 709 360 709C179 709 52 566 52 349C52 131 179 -12 358 -12ZM563 349C563 185 480 76 360 76C238 76 155 185 155 351C155 514 238 622 358 622C479 622 563 514 563 349Z" glyph-name="Ohorn" horiz-adv-x="718" unicode="&#416;" /><glyph d="M666 351C666 569 539 712 360 712C179 712 52 567 52 349C52 131 179 -12 358 -12C538 -12 666 133 666 351ZM563 349C563 185 480 76 360 76C238 76 155 185 155 351C155 515 238 624 358 624C479 624 563 515 563 349ZM309 756 444 854H337L237 756ZM453 756 588 854H481L381 756Z" glyph-name="Ohungarumlaut" horiz-adv-x="718" unicode="&#336;" /><glyph d="M666 351C666 569 539 712 360 712C179 712 52 567 52 349C52 131 179 -12 358 -12C538 -12 666 133 666 351ZM563 349C563 185 480 76 360 76C238 76 155 185 155 351C155 515 238 624 358 624C479 624 563 515 563 349ZM502 762V818H216V762Z" glyph-name="Omacron" horiz-adv-x="718" unicode="&#332;" /><glyph d="M155 351C155 515 237 625 358 625C402 625 441 610 473 584L204 162C173 209 155 274 155 351ZM360 75C315 75 276 90 244 117L513 539C545 492 563 426 563 349C563 184 480 75 360 75ZM358 -12C538 -12 666 133 666 351C666 463 633 555 576 618L667 751H585L525 663C479 695 422 712 360 712C179 712 52 567 52 349C52 237 85 145 142 82L50 -51H133L192 38C239 5 295 -12 358 -12Z" glyph-name="Oslash" horiz-adv-x="718" unicode="&#216;" /><glyph d="M155 351C155 515 237 625 358 625C402 625 441 610 473 584L204 162C173 209 155 274 155 351ZM360 75C315 75 276 90 244 117L513 539C545 492 563 426 563 349C563 184 480 75 360 75ZM358 -12C538 -12 666 133 666 351C666 463 633 555 576 618L667 751H585L525 663C479 695 422 712 360 712C179 712 52 567 52 349C52 237 85 145 142 82L50 -51H133L192 38C239 5 295 -12 358 -12ZM380 756 523 854H396L299 756Z" glyph-name="Oslashacute" horiz-adv-x="718" unicode="&#510;" /><glyph d="M666 351C666 569 539 712 360 712C179 712 52 567 52 349C52 131 179 -12 358 -12C538 -12 666 133 666 351ZM563 349C563 185 480 76 360 76C238 76 155 185 155 351C155 515 238 624 358 624C479 624 563 515 563 349ZM257 753C275 793 286 802 302 802C316 802 327 797 358 779C394 760 410 754 431 754C467 754 492 778 518 847L469 863C451 823 439 814 424 814C410 814 398 819 367 836C332 856 316 862 295 862C259 862 234 838 207 768Z" glyph-name="Otilde" horiz-adv-x="718" unicode="&#213;" /><glyph d="M189 0V225H290C459 225 575 303 575 471C575 624 475 700 300 700H88V0ZM189 314V611H297C411 611 472 565 472 468C472 363 400 314 290 314Z" glyph-name="P" horiz-adv-x="609" unicode="P" /><glyph d="M693 -76 558 66C625 130 666 229 666 352C666 569 539 712 360 712C179 712 52 567 52 350C52 133 179 -10 358 -10C401 -10 442 -2 478 14L561 -76ZM563 349C563 185 480 76 360 76C238 76 155 185 155 351C155 515 238 624 358 624C479 624 563 515 563 349Z" glyph-name="Q" horiz-adv-x="718" unicode="Q" /><glyph d="M189 345V611H328C434 611 486 567 486 488C486 398 409 345 296 345ZM189 257H261C325 257 360 236 401 178L530 0H653L502 199C466 252 442 274 400 290C493 314 590 372 590 501C590 628 504 700 334 700H88V0H189Z" glyph-name="R" horiz-adv-x="666" unicode="R" /><glyph d="M189 345V611H328C434 611 486 567 486 488C486 398 409 345 296 345ZM189 257H261C325 257 360 236 401 178L530 0H653L502 199C466 252 442 274 400 290C493 314 590 372 590 501C590 628 504 700 334 700H88V0H189ZM345 749 488 847H361L264 749Z" glyph-name="Racute" horiz-adv-x="666" unicode="&#340;" /><glyph d="M189 345V611H328C434 611 486 567 486 488C486 398 409 345 296 345ZM189 257H261C325 257 360 236 401 178L530 0H653L502 199C466 252 442 274 400 290C493 314 590 372 590 501C590 628 504 700 334 700H88V0H189ZM325 798 258 850H187L281 749H367L461 850H392Z" glyph-name="Rcaron" horiz-adv-x="666" unicode="&#344;" /><glyph d="M558 195C558 303 498 357 329 406C204 444 170 476 170 527C170 581 219 620 298 620C371 620 438 601 498 573L527 660C462 690 390 709 305 709C161 709 69 634 69 519C69 417 129 365 296 317C422 277 457 244 457 186C457 124 400 80 305 80C219 80 134 107 67 142L38 55C114 16 203 -9 300 -9C460 -9 558 67 558 195Z" glyph-name="S" horiz-adv-x="606" unicode="S" /><glyph d="M558 195C558 303 498 357 329 406C204 444 170 476 170 527C170 581 219 620 298 620C371 620 438 601 498 573L527 660C462 690 390 709 305 709C161 709 69 634 69 519C69 417 129 365 296 317C422 277 457 244 457 186C457 124 400 80 305 80C219 80 134 107 67 142L38 55C114 16 203 -9 300 -9C460 -9 558 67 558 195ZM331 756 474 854H347L250 756Z" glyph-name="Sacute" horiz-adv-x="606" unicode="&#346;" /><glyph d="M558 195C558 303 498 357 329 406C204 444 170 476 170 527C170 581 219 620 298 620C371 620 438 601 498 573L527 660C462 690 390 709 305 709C161 709 69 634 69 519C69 417 129 365 296 317C422 277 457 244 457 186C457 124 400 80 305 80C219 80 134 107 67 142L38 55C114 16 203 -9 300 -9C460 -9 558 67 558 195ZM311 805 244 857H173L267 756H353L447 857H378Z" glyph-name="Scaron" horiz-adv-x="606" unicode="&#352;" /><glyph d="M558 195C558 303 498 357 329 406C204 444 170 476 170 527C170 581 219 620 298 620C371 620 438 601 498 573L527 660C462 690 390 709 305 709C161 709 69 634 69 519C69 417 129 365 296 317C422 277 457 244 457 186C457 124 400 80 305 80C219 80 134 107 67 142L38 55C114 16 203 -9 300 -9C460 -9 558 67 558 195ZM309 809 376 756H447L353 857H267L173 756H242Z" glyph-name="Scircumflex" horiz-adv-x="606" unicode="&#348;" /><glyph d="M361 0V609H592V700H27V609H259V0Z" glyph-name="T" horiz-adv-x="620" unicode="T" /><glyph d="M493 304V376H361V609H592V700H27V609H259V376H127V304H259V0H361V304Z" glyph-name="Tbar" horiz-adv-x="620" unicode="&#358;" /><glyph d="M361 0V609H592V700H27V609H259V0ZM311 798 244 850H173L267 749H353L447 850H378Z" glyph-name="Tcaron" horiz-adv-x="620" unicode="&#356;" /><glyph d="M189 0V117H290C459 117 575 195 575 363C575 516 475 592 300 592H189V700H88V0ZM189 206V503H297C411 503 472 457 472 360C472 255 400 206 290 206Z" glyph-name="Thorn" horiz-adv-x="621" unicode="&#222;" /><glyph d="M614 271V700H514V267C514 142 445 77 347 77C249 77 180 142 180 269V700H79V271C79 85 185 -10 346 -10C506 -10 614 84 614 271Z" glyph-name="U" horiz-adv-x="693" unicode="U" /><glyph d="M614 271V700H514V267C514 142 445 77 347 77C249 77 180 142 180 269V700H79V271C79 85 185 -10 346 -10C506 -10 614 84 614 271ZM367 745 510 843H383L286 745Z" glyph-name="Uacute" horiz-adv-x="693" unicode="&#218;" /><glyph d="M614 271V700H514V267C514 142 445 77 347 77C249 77 180 142 180 269V700H79V271C79 85 185 -10 346 -10C506 -10 614 84 614 271ZM346 800C307 800 283 820 274 854H218C225 788 271 742 346 742C420 742 467 788 474 854H418C409 820 386 800 346 800Z" glyph-name="Ubreve" horiz-adv-x="693" unicode="&#364;" /><glyph d="M614 271V700H514V267C514 142 445 77 347 77C249 77 180 142 180 269V700H79V271C79 85 185 -10 346 -10C506 -10 614 84 614 271ZM345 802 412 749H483L389 850H303L209 749H278Z" glyph-name="Ucircumflex" horiz-adv-x="693" unicode="&#219;" /><glyph d="M614 271V700H514V267C514 142 445 77 347 77C249 77 180 142 180 269V700H79V271C79 85 185 -10 346 -10C506 -10 614 84 614 271ZM304 749V837H223V749ZM469 749V837H388V749Z" glyph-name="Udieresis" horiz-adv-x="693" unicode="&#220;" /><glyph d="M614 271V700H514V267C514 142 445 77 347 77C249 77 180 142 180 269V700H79V271C79 85 185 -10 346 -10C506 -10 614 84 614 271ZM325 745H406L309 843H182Z" glyph-name="Ugrave" horiz-adv-x="693" unicode="&#217;" /><glyph d="M346 -10C506 -10 614 84 614 271V653C689 671 731 716 731 778C731 800 726 821 717 842L647 821C653 807 656 795 656 780C656 728 614 700 528 700H514V267C514 142 445 77 347 77C249 77 180 142 180 269V700H79V271C79 85 185 -10 346 -10Z" glyph-name="Uhorn" horiz-adv-x="721" unicode="&#431;" /><glyph d="M614 271V700H514V267C514 142 445 77 347 77C249 77 180 142 180 269V700H79V271C79 85 185 -10 346 -10C506 -10 614 84 614 271ZM296 749 431 847H324L224 749ZM440 749 575 847H468L368 749Z" glyph-name="Uhungarumlaut" horiz-adv-x="693" unicode="&#368;" /><glyph d="M614 271V700H514V267C514 142 445 77 347 77C249 77 180 142 180 269V700H79V271C79 85 185 -10 346 -10C506 -10 614 84 614 271ZM489 755V811H203V755Z" glyph-name="Umacron" horiz-adv-x="693" unicode="&#362;" /><glyph d="M422 -148 428 -101C371 -93 360 -85 360 -70C360 -59 366 -47 393 -7C527 10 614 103 614 271V700H514V267C514 142 445 77 347 77C249 77 180 142 180 269V700H79V271C79 93 176 -2 326 -9C287 -48 275 -67 275 -87C275 -124 312 -142 422 -148Z" glyph-name="Uogonek" horiz-adv-x="693" unicode="&#370;" /><glyph d="M614 271V700H514V267C514 142 445 77 347 77C249 77 180 142 180 269V700H79V271C79 85 185 -10 346 -10C506 -10 614 84 614 271ZM241 836C241 782 284 739 346 739C407 739 451 782 451 836C451 890 408 932 346 932C285 932 241 890 241 836ZM278 836C278 872 305 900 346 900C387 900 414 872 414 836C414 799 387 771 346 771C305 771 278 799 278 836Z" glyph-name="Uring" horiz-adv-x="693" unicode="&#366;" /><glyph d="M614 271V700H514V267C514 142 445 77 347 77C249 77 180 142 180 269V700H79V271C79 85 185 -10 346 -10C506 -10 614 84 614 271ZM244 746C262 786 273 795 289 795C303 795 314 790 345 772C381 753 397 747 418 747C454 747 479 771 505 840L456 856C438 816 426 807 411 807C397 807 385 812 354 829C319 849 303 855 282 855C246 855 221 831 194 761Z" glyph-name="Utilde" horiz-adv-x="693" unicode="&#360;" /><glyph d="M395 -8 652 700H544L343 112L141 700H30L288 -8Z" glyph-name="V" horiz-adv-x="683" unicode="V" /><glyph d="M687 -6H799L992 700H888L742 124L571 700H460L288 124L142 700H34L228 -6H339L513 564Z" glyph-name="W" horiz-adv-x="1026" unicode="W" /><glyph d="M687 -6H799L992 700H888L742 124L571 700H460L288 124L142 700H34L228 -6H339L513 564ZM534 749 677 847H550L453 749Z" glyph-name="Wacute" horiz-adv-x="1026" unicode="&#7810;" /><glyph d="M687 -6H799L992 700H888L742 124L571 700H460L288 124L142 700H34L228 -6H339L513 564ZM512 802 579 749H650L556 850H470L376 749H445Z" glyph-name="Wcircumflex" horiz-adv-x="1026" unicode="&#372;" /><glyph d="M687 -6H799L992 700H888L742 124L571 700H460L288 124L142 700H34L228 -6H339L513 564ZM471 749V837H390V749ZM636 749V837H555V749Z" glyph-name="Wdieresis" horiz-adv-x="1026" unicode="&#7812;" /><glyph d="M687 -6H799L992 700H888L742 124L571 700H460L288 124L142 700H34L228 -6H339L513 564ZM492 749H573L476 847H349Z" glyph-name="Wgrave" horiz-adv-x="1026" unicode="&#7808;" /><glyph d="M506 0H621L388 361L610 700H497L326 432L155 700H41L262 361L29 0H143L325 287Z" glyph-name="X" horiz-adv-x="651" unicode="X" /><glyph d="M372 0V274L624 700H513L322 365L130 700H18L270 274V0Z" glyph-name="Y" horiz-adv-x="642" unicode="Y" /><glyph d="M372 0V274L624 700H513L322 365L130 700H18L270 274V0ZM342 745 485 843H358L261 745Z" glyph-name="Yacute" horiz-adv-x="642" unicode="&#221;" /><glyph d="M372 0V274L624 700H513L322 365L130 700H18L270 274V0ZM320 802 387 749H458L364 850H278L184 749H253Z" glyph-name="Ycircumflex" horiz-adv-x="642" unicode="&#374;" /><glyph d="M372 0V274L624 700H513L322 365L130 700H18L270 274V0ZM279 749V837H198V749ZM444 749V837H363V749Z" glyph-name="Ydieresis" horiz-adv-x="642" unicode="&#376;" /><glyph d="M372 0V274L624 700H513L322 365L130 700H18L270 274V0ZM300 745H381L284 843H157Z" glyph-name="Ygrave" horiz-adv-x="642" unicode="&#7922;" /><glyph d="M562 0V90H167L562 616V700H62V610H438L43 84V0Z" glyph-name="Z" horiz-adv-x="609" unicode="Z" /><glyph d="M562 0V90H167L562 616V700H62V610H438L43 84V0ZM325 749 468 847H341L244 749Z" glyph-name="Zacute" horiz-adv-x="609" unicode="&#377;" /><glyph d="M562 0V90H167L562 616V700H62V610H438L43 84V0ZM305 798 238 850H167L261 749H347L441 850H372Z" glyph-name="Zcaron" horiz-adv-x="609" unicode="&#381;" /><glyph d="M562 0V90H167L562 616V700H62V610H438L43 84V0ZM346 749V837H262V749Z" glyph-name="Zdotaccent" horiz-adv-x="609" unicode="&#379;" /><glyph d="M231 70C169 70 133 102 133 157C133 180 140 201 154 215C174 235 201 248 289 248C315 248 341 246 364 244V123C322 89 276 70 231 70ZM371 58 390 0H471L459 101V354C459 474 397 526 267 526C197 526 133 510 78 487L101 411C150 432 202 446 254 446C331 446 364 414 364 352V316C339 319 309 322 278 322C166 322 116 302 82 269C56 242 41 204 41 153C41 47 107 -9 201 -9C265 -9 318 14 371 58Z" glyph-name="a" horiz-adv-x="531" unicode="a" /><glyph d="M231 70C169 70 133 102 133 157C133 180 140 201 154 215C174 235 201 248 289 248C315 248 341 246 364 244V123C322 89 276 70 231 70ZM371 58 390 0H471L459 101V354C459 474 397 526 267 526C197 526 133 510 78 487L101 411C150 432 202 446 254 446C331 446 364 414 364 352V316C339 319 309 322 278 322C166 322 116 302 82 269C56 242 41 204 41 153C41 47 107 -9 201 -9C265 -9 318 14 371 58ZM280 590 424 705H306L213 590Z" glyph-name="aacute" horiz-adv-x="531" unicode="&#225;" /><glyph d="M231 70C169 70 133 102 133 157C133 180 140 201 154 215C174 235 201 248 289 248C315 248 341 246 364 244V123C322 89 276 70 231 70ZM371 58 390 0H471L459 101V354C459 474 397 526 267 526C197 526 133 510 78 487L101 411C150 432 202 446 254 446C331 446 364 414 364 352V316C339 319 309 322 278 322C166 322 116 302 82 269C56 242 41 204 41 153C41 47 107 -9 201 -9C265 -9 318 14 371 58ZM266 645C224 645 202 669 195 708H144C147 638 191 587 266 587C340 587 385 638 388 708H337C330 669 309 645 266 645Z" glyph-name="abreve" horiz-adv-x="531" unicode="&#259;" /><glyph d="M231 70C169 70 133 102 133 157C133 180 140 201 154 215C174 235 201 248 289 248C315 248 341 246 364 244V123C322 89 276 70 231 70ZM371 58 390 0H471L459 101V354C459 474 397 526 267 526C197 526 133 510 78 487L101 411C150 432 202 446 254 446C331 446 364 414 364 352V316C339 319 309 322 278 322C166 322 116 302 82 269C56 242 41 204 41 153C41 47 107 -9 201 -9C265 -9 318 14 371 58ZM266 656 334 590H396L303 708H229L136 590H197Z" glyph-name="acircumflex" horiz-adv-x="531" unicode="&#226;" /><glyph d="M264 587 408 702H290L197 587Z" glyph-name="acute" horiz-adv-x="500" unicode="&#180;" /><glyph d="M21 749 164 847H37L-60 749Z" glyph-name="acute.cap" horiz-adv-x="0" /><glyph d="M231 70C169 70 133 102 133 157C133 180 140 201 154 215C174 235 201 248 289 248C315 248 341 246 364 244V123C322 89 276 70 231 70ZM371 58 390 0H471L459 101V354C459 474 397 526 267 526C197 526 133 510 78 487L101 411C150 432 202 446 254 446C331 446 364 414 364 352V316C339 319 309 322 278 322C166 322 116 302 82 269C56 242 41 204 41 153C41 47 107 -9 201 -9C265 -9 318 14 371 58ZM227 596V684H149V596ZM383 596V684H305V596Z" glyph-name="adieresis" horiz-adv-x="531" unicode="&#228;" /><glyph d="M454 295C462 387 510 451 582 451C655 451 700 388 707 295ZM600 -10C662 -10 725 8 780 40L752 112C705 85 653 69 605 69C519 69 464 129 456 219H799V254C799 419 716 530 589 530C518 530 463 497 427 443C406 498 357 526 266 526C197 526 133 510 78 487L101 411C150 432 202 446 254 446C331 446 364 414 364 352V316C339 319 309 322 278 322C166 322 116 302 82 269C56 242 41 204 41 153C41 47 110 -9 212 -9C282 -9 349 19 416 72C459 17 524 -10 600 -10ZM231 70C169 70 133 101 133 157C133 180 140 201 154 215C174 235 201 248 289 248C312 248 336 246 361 243C362 202 370 165 382 133C330 91 279 70 231 70Z" glyph-name="ae" horiz-adv-x="838" unicode="&#230;" /><glyph d="M454 295C462 387 510 451 582 451C655 451 700 388 707 295ZM600 -10C662 -10 725 8 780 40L752 112C705 85 653 69 605 69C519 69 464 129 456 219H799V254C799 419 716 530 589 530C518 530 463 497 427 443C406 498 357 526 266 526C197 526 133 510 78 487L101 411C150 432 202 446 254 446C331 446 364 414 364 352V316C339 319 309 322 278 322C166 322 116 302 82 269C56 242 41 204 41 153C41 47 110 -9 212 -9C282 -9 349 19 416 72C459 17 524 -10 600 -10ZM231 70C169 70 133 101 133 157C133 180 140 201 154 215C174 235 201 248 289 248C312 248 336 246 361 243C362 202 370 165 382 133C330 91 279 70 231 70ZM447 587 591 702H473L380 587Z" glyph-name="aeacute" horiz-adv-x="838" unicode="&#509;" /><glyph d="M231 70C169 70 133 102 133 157C133 180 140 201 154 215C174 235 201 248 289 248C315 248 341 246 364 244V123C322 89 276 70 231 70ZM371 58 390 0H471L459 101V354C459 474 397 526 267 526C197 526 133 510 78 487L101 411C150 432 202 446 254 446C331 446 364 414 364 352V316C339 319 309 322 278 322C166 322 116 302 82 269C56 242 41 204 41 153C41 47 107 -9 201 -9C265 -9 318 14 371 58ZM252 590H319L226 705H108Z" glyph-name="agrave" horiz-adv-x="531" unicode="&#224;" /><glyph d="M231 70C169 70 133 102 133 157C133 180 140 201 154 215C174 235 201 248 289 248C315 248 341 246 364 244V123C322 89 276 70 231 70ZM371 58 390 0H471L459 101V354C459 474 397 526 267 526C197 526 133 510 78 487L101 411C150 432 202 446 254 446C331 446 364 414 364 352V316C339 319 309 322 278 322C166 322 116 302 82 269C56 242 41 204 41 153C41 47 107 -9 201 -9C265 -9 318 14 371 58ZM392 601V654H140V601Z" glyph-name="amacron" horiz-adv-x="531" unicode="&#257;" /><glyph d="M248 75C186 75 139 120 139 192C139 249 171 308 250 352L402 166C352 103 304 75 248 75ZM542 0H655L514 172C562 241 593 309 622 394H528C508 336 485 286 457 241L302 428C271 466 252 497 252 536C252 586 287 622 344 622C389 622 436 606 487 576L518 661C458 692 403 708 336 708C221 708 151 642 151 547C151 497 171 456 201 413C98 360 43 279 43 183C43 63 125 -8 235 -8C322 -8 394 31 455 102Z" glyph-name="ampersand" horiz-adv-x="675" unicode="&amp;" /><glyph d="M231 70C169 70 133 102 133 157C133 180 140 201 154 215C174 235 201 248 289 248C315 248 341 246 364 244V123C322 89 276 70 231 70ZM491 -101C434 -93 423 -85 423 -70C423 -58 430 -46 461 0H471L459 101V354C459 474 397 526 267 526C197 526 133 510 78 487L101 411C150 432 202 446 254 446C331 446 364 414 364 352V316C339 319 309 322 278 322C166 322 116 302 82 269C56 242 41 204 41 153C41 47 107 -9 201 -9C265 -9 318 14 371 58L390 0H399C352 -44 338 -66 338 -87C338 -124 375 -142 485 -148Z" glyph-name="aogonek" horiz-adv-x="531" unicode="&#261;" /><glyph d="M445 536C414 476 396 458 372 458C353 458 336 465 287 494C234 526 210 536 181 536C138 536 106 506 64 407L118 383C148 440 165 458 188 458C207 458 224 451 273 422C326 390 350 380 379 380C423 380 457 410 500 512ZM446 329C417 271 399 254 376 254C357 254 340 261 291 290C238 322 214 332 185 332C142 332 107 302 64 200L120 176C151 236 168 254 192 254C211 254 228 247 277 218C330 186 354 176 383 176C426 176 459 206 500 305Z" glyph-name="approxequal" horiz-adv-x="564" unicode="&#8776;" /><glyph d="M231 70C169 70 133 102 133 157C133 180 140 201 154 215C174 235 201 248 289 248C315 248 341 246 364 244V123C322 89 276 70 231 70ZM371 58 390 0H471L459 101V354C459 474 397 526 267 526C197 526 133 510 78 487L101 411C150 432 202 446 254 446C331 446 364 414 364 352V316C339 319 309 322 278 322C166 322 116 302 82 269C56 242 41 204 41 153C41 47 107 -9 201 -9C265 -9 318 14 371 58ZM167 679C167 626 208 584 266 584C324 584 365 626 365 679C365 732 324 774 266 774C208 774 167 732 167 679ZM203 679C203 715 229 743 266 743C303 743 329 715 329 679C329 643 303 615 266 615C229 615 203 643 203 679Z" glyph-name="aring" horiz-adv-x="531" unicode="&#229;" /><glyph d="M231 70C169 70 133 102 133 157C133 180 140 201 154 215C174 235 201 248 289 248C315 248 341 246 364 244V123C322 89 276 70 231 70ZM371 58 390 0H471L459 101V354C459 474 397 526 267 526C197 526 133 510 78 487L101 411C150 432 202 446 254 446C331 446 364 414 364 352V316C339 319 309 322 278 322C166 322 116 302 82 269C56 242 41 204 41 153C41 47 107 -9 201 -9C265 -9 318 14 371 58ZM406 876H291L214 795H284ZM167 675C167 623 208 584 266 584C324 584 365 623 365 675C365 726 324 766 266 766C208 766 167 726 167 675ZM203 675C203 709 229 735 266 735C303 735 329 709 329 675C329 641 303 615 266 615C229 615 203 641 203 675Z" glyph-name="aringacute" horiz-adv-x="531" unicode="&#507;" /><glyph d="M66 421H152L282 650L411 421H499L326 724H238Z" glyph-name="asciicircum" horiz-adv-x="564" unicode="^" /><glyph d="M450 436C419 376 402 357 379 357C358 357 341 365 289 394C234 426 208 436 178 436C134 436 99 403 56 299L114 275C145 336 163 355 186 355C206 355 224 347 275 318C331 286 356 276 386 276C430 276 465 308 508 413Z" glyph-name="asciitilde" horiz-adv-x="564" unicode="~" /><glyph d="M172 596 197 702H134L159 596ZM192 572 300 583 281 640 188 585ZM139 572 143 585 51 640 31 583ZM217 446 267 483 186 554 174 546ZM114 446 157 546 145 554 64 483Z" glyph-name="asterisk" horiz-adv-x="331" unicode="*" /><glyph d="M370 -150C422 -150 466 -142 506 -130L497 -81C461 -92 417 -99 377 -99C211 -99 109 -4 109 191C109 450 274 660 464 660C559 660 605 612 605 536C605 522 604 508 602 492C578 500 553 504 528 504C375 504 271 381 271 225C271 120 330 64 404 64C448 64 485 80 526 111L538 64H586L669 414C679 458 686 494 686 535C686 641 620 717 475 717C247 717 49 490 49 188C49 -31 166 -150 370 -150ZM438 129C389 129 353 165 353 232C353 344 427 441 530 441C550 441 570 437 589 430L525 161C494 139 467 129 438 129Z" glyph-name="at" horiz-adv-x="731" unicode="@" /><glyph d="M231 70C169 70 133 102 133 157C133 180 140 201 154 215C174 235 201 248 289 248C315 248 341 246 364 244V123C322 89 276 70 231 70ZM371 58 390 0H471L459 101V354C459 474 397 526 267 526C197 526 133 510 78 487L101 411C150 432 202 446 254 446C331 446 364 414 364 352V316C339 319 309 322 278 322C166 322 116 302 82 269C56 242 41 204 41 153C41 47 107 -9 201 -9C265 -9 318 14 371 58ZM167 586C185 627 196 637 211 637C224 637 234 632 265 614C300 594 314 588 334 588C369 588 394 613 419 685L373 699C355 658 344 649 329 649C316 649 305 653 275 671C240 691 226 698 206 698C171 698 146 672 121 601Z" glyph-name="atilde" horiz-adv-x="531" unicode="&#227;" /><glyph d="M303 -10C425 -10 513 88 513 261C513 429 427 527 308 527C249 527 204 503 171 476V724H75V0H149L163 43C200 13 246 -10 303 -10ZM279 69C239 69 201 87 171 110V404C199 428 237 448 280 448C363 448 417 379 417 260C417 135 360 69 279 69Z" glyph-name="b" horiz-adv-x="557" unicode="b" /><glyph d="M318 -130H391L73 795H0Z" glyph-name="backslash" horiz-adv-x="379" unicode="\" /><glyph d="M313 -114H386L68 811H-5Z" glyph-name="backslash.cap" horiz-adv-x="379" /><glyph d="M187 -130V795H119V-130Z" glyph-name="bar" horiz-adv-x="306" unicode="|" /><glyph d="M187 -114V811H119V-114Z" glyph-name="bar.cap" horiz-adv-x="306" /><glyph d="M491 -116 500 -55C407 -46 326 -25 265 -4C311 22 351 64 351 130C351 221 275 276 170 304C275 332 351 387 351 478C351 544 311 586 265 612C326 633 407 654 500 663L491 724C369 711 262 683 174 647L165 595C221 567 258 530 258 476C258 400 192 342 39 330V278C192 266 258 208 258 132C258 78 221 41 165 13L174 -39C262 -75 369 -103 491 -116Z" glyph-name="braceleft" horiz-adv-x="544" unicode="{" /><glyph d="M491 -71 500 -10C407 -1 326 20 265 41C311 67 351 109 351 175C351 266 275 321 170 349C275 377 351 432 351 523C351 589 311 631 265 657C326 678 407 699 500 708L491 769C369 756 262 728 174 692L165 640C221 612 258 575 258 521C258 445 192 387 39 375V323C192 311 258 253 258 177C258 123 221 86 165 58L174 6C262 -30 369 -58 491 -71Z" glyph-name="braceleft.cap" horiz-adv-x="544" /><glyph d="M54 -116C175 -103 283 -75 371 -39L379 13C323 41 286 78 286 132C286 208 353 266 505 278V330C353 342 286 400 286 476C286 530 323 567 379 595L371 647C283 683 175 711 54 724L44 663C138 654 219 633 279 612C234 586 194 544 194 478C194 387 269 332 374 304C269 276 194 221 194 130C194 64 234 22 279 -4C219 -25 138 -46 44 -55Z" glyph-name="braceright" horiz-adv-x="544" unicode="}" /><glyph d="M54 -71C175 -58 283 -30 371 6L379 58C323 86 286 123 286 177C286 253 353 311 505 323V375C353 387 286 445 286 521C286 575 323 612 379 640L371 692C283 728 175 756 54 769L44 708C138 699 219 678 279 657C234 631 194 589 194 523C194 432 269 377 374 349C269 321 194 266 194 175C194 109 234 67 279 41C219 20 138 -1 44 -10Z" glyph-name="braceright.cap" horiz-adv-x="544" /><glyph d="M366 -92V-35L171 -44V652L366 643V700L89 717V-109Z" glyph-name="bracketleft" horiz-adv-x="412" unicode="[" /><glyph d="M366 -47V10L171 1V697L366 688V745L89 762V-64Z" glyph-name="bracketleft.cap" horiz-adv-x="412" /><glyph d="M323 -109V717L47 700V643L241 652V-44L47 -35V-92Z" glyph-name="bracketright" horiz-adv-x="412" unicode="]" /><glyph d="M323 -64V762L47 745V688L241 697V1L47 10V-47Z" glyph-name="bracketright.cap" horiz-adv-x="412" /><glyph d="M250 642C208 642 186 666 179 705H128C131 635 175 584 250 584C324 584 369 635 372 705H321C314 666 293 642 250 642Z" glyph-name="breve" horiz-adv-x="500" unicode="&#728;" /><glyph d="M0 804C-39 804 -63 824 -72 858H-128C-121 792 -75 746 0 746C74 746 121 792 128 858H72C63 824 40 804 0 804Z" glyph-name="breve.cap" horiz-adv-x="0" /><glyph d="M86 355C86 282 145 222 218 222C291 222 351 282 351 355C351 428 291 488 218 488C145 488 86 428 86 355Z" glyph-name="bullet" horiz-adv-x="436" unicode="&#8226;" /><glyph d="M430 26 409 104C369 86 331 74 293 74C197 74 140 149 140 260C140 365 197 444 291 444C333 444 369 432 406 416L428 498C384 516 340 528 285 528C138 528 43 417 43 258C43 99 134 -10 279 -10C336 -10 385 5 430 26Z" glyph-name="c" horiz-adv-x="463" unicode="c" /><glyph d="M430 26 409 104C369 86 331 74 293 74C197 74 140 149 140 260C140 365 197 444 291 444C333 444 369 432 406 416L428 498C384 516 340 528 285 528C138 528 43 417 43 258C43 99 134 -10 279 -10C336 -10 385 5 430 26ZM287 590 431 705H313L220 590Z" glyph-name="cacute" horiz-adv-x="463" unicode="&#263;" /><glyph d="M250 639 182 705H120L213 587H287L380 705H319Z" glyph-name="caron" horiz-adv-x="500" unicode="&#711;" /><glyph d="M1 798 -66 850H-137L-43 749H43L137 850H68Z" glyph-name="caron.cap" horiz-adv-x="0" /><glyph d="M430 26 409 104C369 86 331 74 293 74C197 74 140 149 140 260C140 365 197 444 291 444C333 444 369 432 406 416L428 498C384 516 340 528 285 528C138 528 43 417 43 258C43 99 134 -10 279 -10C336 -10 385 5 430 26ZM273 642 205 708H143L236 590H310L403 708H342Z" glyph-name="ccaron" horiz-adv-x="463" unicode="&#269;" /><glyph d="M357 -83C357 -53 330 -35 272 -37L297 -10C346 -7 390 7 430 26L409 104C369 86 331 74 293 74C197 74 140 149 140 260C140 365 197 444 291 444C333 444 369 432 406 416L428 498C384 516 340 528 285 528C138 528 43 417 43 258C43 115 116 13 237 -7L199 -54L215 -74C255 -67 275 -73 275 -88C275 -104 253 -115 177 -121L181 -156C311 -152 357 -124 357 -83Z" glyph-name="ccedilla" horiz-adv-x="463" unicode="&#231;" /><glyph d="M430 26 409 104C369 86 331 74 293 74C197 74 140 149 140 260C140 365 197 444 291 444C333 444 369 432 406 416L428 498C384 516 340 528 285 528C138 528 43 417 43 258C43 99 134 -10 279 -10C336 -10 385 5 430 26ZM273 656 341 590H403L310 708H236L143 590H204Z" glyph-name="ccircumflex" horiz-adv-x="463" unicode="&#265;" /><glyph d="M430 26 409 104C369 86 331 74 293 74C197 74 140 149 140 260C140 365 197 444 291 444C333 444 369 432 406 416L428 498C384 516 340 528 285 528C138 528 43 417 43 258C43 99 134 -10 279 -10C336 -10 385 5 430 26ZM313 596V684H233V596Z" glyph-name="cdotaccent" horiz-adv-x="463" unicode="&#267;" /><glyph d="M162 -156C292 -152 338 -124 338 -83C338 -53 311 -35 253 -37L290 4L230 9L180 -54L196 -74C236 -67 256 -73 256 -88C256 -104 234 -115 158 -121Z" glyph-name="cedilla" horiz-adv-x="500" unicode="&#184;" /><glyph d="M136 360C136 447 192 504 265 511L228 215C168 235 136 289 136 360ZM430 172 408 242C366 220 320 208 279 208H274L312 510C346 506 375 496 406 480L429 552C394 568 363 579 326 584L341 704H284L269 587C137 582 49 488 49 359C49 242 114 161 213 139L195 -4H252L270 133C326 133 380 148 430 172Z" glyph-name="cent" horiz-adv-x="473" unicode="&#162;" /><glyph d="M250 653 318 587H380L287 705H213L120 587H181Z" glyph-name="circumflex" horiz-adv-x="500" unicode="&#710;" /><glyph d="M-1 802 66 749H137L43 850H-43L-137 749H-68Z" glyph-name="circumflex.cap" horiz-adv-x="0" /><glyph d="M151 401V518H49V401ZM151 0V117H49V0Z" glyph-name="colon" horiz-adv-x="200" unicode=":" /><glyph d="M152 444V556H49V444ZM152 162V274H49V162Z" glyph-name="colon.fig" horiz-adv-x="201" /><glyph d="M193 444V556H90V444ZM193 162V274H90V162Z" glyph-name="colon.figtab" horiz-adv-x="282" /><glyph d="M192 401V518H90V401ZM192 0V117H90V0Z" glyph-name="colon.tab" horiz-adv-x="282" /><glyph d="M148 117H51C51 4 35 -50 -11 -122L21 -146C106 -68 148 10 148 109Z" glyph-name="comma" horiz-adv-x="190" unicode="," /><glyph d="M194 117H97C97 4 82 -50 36 -122L68 -146C153 -68 194 10 194 109Z" glyph-name="comma.tab" horiz-adv-x="282" /><glyph d="M378 -26C561 -26 701 129 701 350C701 571 561 726 378 726C194 726 55 571 55 350C55 129 194 -26 378 -26ZM378 697C544 697 669 554 669 350C669 146 544 3 378 3C212 3 87 146 87 350C87 554 212 697 378 697ZM509 193 489 246C460 232 432 222 399 222C329 222 283 273 283 354C283 432 329 484 397 484C431 484 460 475 487 459L506 515C474 531 439 543 394 543C290 543 215 468 215 353C215 234 288 163 394 163C437 163 476 176 509 193Z" glyph-name="copyright" horiz-adv-x="756" unicode="&#169;" /><glyph d="M277 69C195 69 141 139 141 258C141 383 197 448 279 448C318 448 357 431 387 408V114C359 90 321 69 277 69ZM393 47 409 0H482V724H387V486C349 511 307 527 257 527C133 527 45 430 45 257C45 89 131 -10 249 -10C313 -10 358 18 393 47Z" glyph-name="d" horiz-adv-x="557" unicode="d" /><glyph d="M174 476 159 565H173L253 550V602L173 587H158L175 702H119L137 587H122L42 602V550L122 565H136L121 476L139 268H155Z" glyph-name="dagger" horiz-adv-x="295" unicode="&#8224;" /><glyph d="M173 366 253 351V403L173 388H159L174 476L159 565H173L253 550V602L173 587H158L175 702H119L137 587H122L42 602V550L122 565H136L121 476L136 388H122L42 403V351L122 366H137L119 251H175L158 366Z" glyph-name="daggerdbl" horiz-adv-x="295" unicode="&#8225;" /><glyph d="M277 69C195 69 141 139 141 258C141 383 197 448 279 448C318 448 357 431 387 408V114C359 90 321 69 277 69ZM393 47 409 0H482V724H387V486C349 511 307 527 257 527C133 527 45 430 45 257C45 89 131 -10 249 -10C313 -10 358 18 393 47ZM617 725H553V693C553 648 548 616 534 581L563 566C598 606 617 642 617 700Z" glyph-name="dcaron" horiz-adv-x="557" unicode="&#271;" /><glyph d="M277 69C195 69 141 138 141 254C141 376 197 440 279 440C318 440 357 423 387 400V114C359 90 321 69 277 69ZM393 47 409 0H482V584H542V642H482V724H387V642H242V584H387V478C349 503 307 519 257 519C133 519 45 423 45 253C45 88 131 -10 249 -10C313 -10 358 18 393 47Z" glyph-name="dcroat" horiz-adv-x="557" unicode="&#273;" /><glyph d="M377 542C377 636 305 708 211 708C118 708 45 635 45 541C45 447 117 375 211 375C304 375 377 448 377 542ZM318 541C318 478 273 429 211 429C149 429 104 479 104 542C104 605 149 654 211 654C273 654 318 605 318 541Z" glyph-name="degree" horiz-adv-x="422" unicode="&#176;" /><glyph d="M211 593V681H133V593ZM367 593V681H289V593Z" glyph-name="dieresis" horiz-adv-x="500" unicode="&#168;" /><glyph d="M-42 749V837H-123V749ZM123 749V837H42V749Z" glyph-name="dieresis.cap" horiz-adv-x="0" /><glyph d="M328 501V591H236V501ZM508 317V393L282 392L57 393V317L282 318ZM328 119V209H236V119Z" glyph-name="divide" horiz-adv-x="564" unicode="&#247;" /><glyph d="M163 518C163 580 214 624 301 624H305L276 407C196 432 163 464 163 518ZM279 76H277L309 309C394 283 429 247 429 191C429 116 366 76 279 76ZM273 -1C422 -1 517 72 517 198C517 296 459 357 320 395L350 621C397 615 442 599 486 577L511 652C464 675 416 690 367 697L379 784H321L309 701H307C164 701 75 627 75 512C75 418 129 359 264 321L232 79C172 87 115 108 63 136L38 60C90 31 152 10 215 3L200 -107H258Z" glyph-name="dollar" horiz-adv-x="568" unicode="$" /><glyph d="M156 518C156 580 207 624 295 624H300L271 407C189 432 156 465 156 518ZM424 192C424 117 362 76 273 76L305 309C389 283 424 247 424 192ZM254 -107 269 -1C418 -1 511 72 511 199C511 293 454 356 316 395L346 620C393 614 437 599 480 576L505 651C460 674 413 690 363 697L375 784H317L305 701H300C156 701 69 626 69 511C69 419 123 359 260 322L227 79C168 86 110 108 57 137L31 61C85 31 148 10 211 2L195 -107Z" glyph-name="dollar.tab" horiz-adv-x="564" /><glyph d="M146 244C146 359 204 420 286 420C327 420 366 403 396 381V114C368 91 330 71 285 71C202 71 146 135 146 244ZM402 48 418 0H491V570H562V623H491V700H396V623H252V570H396V459C358 484 316 499 267 499C142 499 54 407 54 244C54 84 140 -9 258 -9C322 -9 367 19 402 48ZM491 -126V-73H91V-126Z" glyph-name="dong" horiz-adv-x="596" unicode="&#8363;" /><glyph d="M290 593V681H210V593Z" glyph-name="dotaccent" horiz-adv-x="500" unicode="&#729;" /><glyph d="M42 749V837H-42V749Z" glyph-name="dotaccent.cap" horiz-adv-x="0" /><glyph d="M172 0V518H77V0Z" glyph-name="dotlessi" horiz-adv-x="249" unicode="&#305;" /><glyph d="M283 -10C344 -10 407 8 462 40L434 112C387 85 335 69 287 69C201 69 146 129 138 219H482V254C482 419 399 530 265 530C137 530 44 421 44 257C44 80 145 -10 283 -10ZM137 295C144 387 192 452 264 452C337 452 382 388 389 295Z" glyph-name="e" horiz-adv-x="521" unicode="e" /><glyph d="M283 -10C344 -10 407 8 462 40L434 112C387 85 335 69 287 69C201 69 146 129 138 219H482V254C482 419 399 530 265 530C137 530 44 421 44 257C44 80 145 -10 283 -10ZM137 295C144 387 192 452 264 452C337 452 382 388 389 295ZM282 590 426 705H308L215 590Z" glyph-name="eacute" horiz-adv-x="521" unicode="&#233;" /><glyph d="M283 -10C344 -10 407 8 462 40L434 112C387 85 335 69 287 69C201 69 146 129 138 219H482V254C482 419 399 530 265 530C137 530 44 421 44 257C44 80 145 -10 283 -10ZM137 295C144 387 192 452 264 452C337 452 382 388 389 295ZM268 645C226 645 204 669 197 708H146C149 638 193 587 268 587C342 587 387 638 390 708H339C332 669 311 645 268 645Z" glyph-name="ebreve" horiz-adv-x="521" unicode="&#277;" /><glyph d="M283 -10C344 -10 407 8 462 40L434 112C387 85 335 69 287 69C201 69 146 129 138 219H482V254C482 419 399 530 265 530C137 530 44 421 44 257C44 80 145 -10 283 -10ZM137 295C144 387 192 452 264 452C337 452 382 388 389 295ZM268 642 200 708H138L231 590H305L398 708H337Z" glyph-name="ecaron" horiz-adv-x="521" unicode="&#283;" /><glyph d="M283 -10C344 -10 407 8 462 40L434 112C387 85 335 69 287 69C201 69 146 129 138 219H482V254C482 419 399 530 265 530C137 530 44 421 44 257C44 80 145 -10 283 -10ZM137 295C144 387 192 452 264 452C337 452 382 388 389 295ZM268 656 336 590H398L305 708H231L138 590H199Z" glyph-name="ecircumflex" horiz-adv-x="521" unicode="&#234;" /><glyph d="M283 -10C344 -10 407 8 462 40L434 112C387 85 335 69 287 69C201 69 146 129 138 219H482V254C482 419 399 530 265 530C137 530 44 421 44 257C44 80 145 -10 283 -10ZM137 295C144 387 192 452 264 452C337 452 382 388 389 295ZM229 596V684H151V596ZM385 596V684H307V596Z" glyph-name="edieresis" horiz-adv-x="521" unicode="&#235;" /><glyph d="M283 -10C344 -10 407 8 462 40L434 112C387 85 335 69 287 69C201 69 146 129 138 219H482V254C482 419 399 530 265 530C137 530 44 421 44 257C44 80 145 -10 283 -10ZM137 295C144 387 192 452 264 452C337 452 382 388 389 295ZM308 596V684H228V596Z" glyph-name="edotaccent" horiz-adv-x="521" unicode="&#279;" /><glyph d="M283 -10C344 -10 407 8 462 40L434 112C387 85 335 69 287 69C201 69 146 129 138 219H482V254C482 419 399 530 265 530C137 530 44 421 44 257C44 80 145 -10 283 -10ZM137 295C144 387 192 452 264 452C337 452 382 388 389 295ZM254 590H321L228 705H110Z" glyph-name="egrave" horiz-adv-x="521" unicode="&#232;" /><glyph d="M291 -9C436 -9 534 74 534 186C534 277 484 334 405 365C469 395 516 443 516 528C516 626 432 709 291 709C150 709 66 626 66 528C66 443 113 395 176 365C98 334 48 277 48 186C48 74 144 -9 291 -9ZM291 406C221 406 165 449 165 515C165 578 213 625 291 625C369 625 417 578 417 515C417 449 361 406 291 406ZM291 323C373 323 435 272 435 200C435 126 376 75 291 75C205 75 147 126 147 200C147 272 208 323 291 323Z" glyph-name="eight" horiz-adv-x="582" unicode="8" /><glyph d="M204 -6C307 -6 372 45 372 113C372 166 339 199 282 218C328 235 360 265 360 315C360 374 301 425 204 425C107 425 48 374 48 315C48 265 80 235 127 218C69 199 36 166 36 113C36 45 101 -6 204 -6ZM204 242C156 242 117 267 117 307C117 344 150 371 204 371C257 371 291 344 291 307C291 267 253 242 204 242ZM204 48C147 48 107 77 107 121C107 164 147 193 204 193C260 193 301 164 301 121C301 77 262 48 204 48Z" glyph-name="eight.den" horiz-adv-x="408" /><glyph d="M204 275C307 275 372 326 372 394C372 447 339 480 282 499C328 516 360 546 360 596C360 655 301 706 204 706C107 706 48 655 48 596C48 546 80 516 127 499C69 480 36 447 36 394C36 326 101 275 204 275ZM204 523C156 523 117 548 117 588C117 625 150 652 204 652C257 652 291 625 291 588C291 548 253 523 204 523ZM204 329C147 329 107 358 107 402C107 445 147 474 204 474C260 474 301 445 301 402C301 358 262 329 204 329Z" glyph-name="eight.num" horiz-adv-x="408" /><glyph d="M282 -9C425 -9 519 74 519 186C519 277 472 334 391 365C456 395 502 443 502 528C502 626 420 709 282 709C145 709 63 626 63 528C63 443 108 395 174 365C93 334 45 277 45 186C45 74 138 -9 282 -9ZM403 515C403 447 350 406 282 406C215 406 162 447 162 515C162 580 207 625 282 625C357 625 403 580 403 515ZM421 200C421 125 365 75 282 75C200 75 144 125 144 200C144 274 202 323 282 323C361 323 421 274 421 200Z" glyph-name="eight.tab" horiz-adv-x="564" /><glyph d="M516 0V114H417V0ZM329 0V114H230V0ZM143 0V114H44V0Z" glyph-name="ellipsis" horiz-adv-x="559" unicode="&#8230;" /><glyph d="M283 -10C344 -10 407 8 462 40L434 112C387 85 335 69 287 69C201 69 146 129 138 219H482V254C482 419 399 530 265 530C137 530 44 421 44 257C44 80 145 -10 283 -10ZM137 295C144 387 192 452 264 452C337 452 382 388 389 295ZM394 601V654H142V601Z" glyph-name="emacron" horiz-adv-x="521" unicode="&#275;" /><glyph d="M756 264V346H44V264Z" glyph-name="emdash" horiz-adv-x="800" unicode="&#8212;" /><glyph d="M756 319V401H44V319Z" glyph-name="emdash.cap" horiz-adv-x="800" /><glyph d="M444 264V346H44V264Z" glyph-name="endash" horiz-adv-x="488" unicode="&#8211;" /><glyph d="M444 319V401H44V319Z" glyph-name="endash.cap" horiz-adv-x="488" /><glyph d="M377 -179C456 -118 492 -66 492 63V353C492 467 435 527 331 527C263 527 211 500 165 467L149 518H75V0H171V396C205 421 252 442 297 442C362 442 397 404 397 332V64C397 -40 370 -77 313 -130Z" glyph-name="eng" horiz-adv-x="563" unicode="&#331;" /><glyph d="M452 -148 458 -101C402 -93 390 -85 390 -70C390 -56 400 -37 461 45L434 112C387 85 335 69 287 69C201 69 146 129 138 219H482V254C482 419 399 530 265 530C137 530 44 421 44 257C44 80 145 -9 283 -9C311 -9 339 -4 371 7C320 -43 305 -66 305 -87C305 -124 342 -142 452 -148ZM389 295H137C144 387 192 452 264 452C337 452 382 388 389 295Z" glyph-name="eogonek" horiz-adv-x="521" unicode="&#281;" /><glyph d="M500 419V492H64V419ZM500 218V291H64V218Z" glyph-name="equal" horiz-adv-x="564" unicode="=" /><glyph d="M260 -10C402 -10 491 111 491 301C491 444 448 554 355 632L463 724H376L310 666C269 691 221 713 166 730L125 658C171 643 210 626 243 607L141 518H227L290 575C336 537 365 492 381 434C338 457 292 469 245 469C128 469 44 371 44 230C44 84 132 -10 260 -10ZM261 70C188 70 139 134 139 230C139 326 189 391 264 391C308 391 349 378 395 350C396 332 397 314 397 294C397 154 344 70 261 70Z" glyph-name="eth" horiz-adv-x="539" unicode="&#240;" /><glyph d="M158 201 183 530V700H79V530L104 201ZM183 0V107H79V0Z" glyph-name="exclam" horiz-adv-x="262" unicode="!" /><glyph d="M104 499 79 170V0H183V170L158 499ZM79 700V593H183V700Z" glyph-name="exclamdown" horiz-adv-x="262" unicode="&#161;" /><glyph d="M277 729C163 729 111 668 111 563V518H26V438H111V0H205V438H348V518H205V563C205 617 230 650 290 650C321 650 351 644 375 636L390 712C361 722 319 729 277 729Z" glyph-name="f" horiz-adv-x="366" unicode="f" /><glyph d="M277 729C163 729 111 668 111 563V518H26V438H111V0H205V438H348V518H205V563C205 617 230 650 290 650C317 650 344 645 366 639V718C340 725 308 729 277 729Z" glyph-name="f.lig" horiz-adv-x="366" /><glyph d="M277 729C163 729 111 668 111 563V518H26V438H111V0H205V438H348V518H205V563C205 617 230 650 290 650C321 650 351 644 375 636L390 712C361 722 319 729 277 729ZM644 729C530 729 478 668 478 563V518H393V438H478V0H572V438H715V518H572V563C572 617 597 650 657 650C688 650 718 644 742 636L757 712C728 722 686 729 644 729Z" glyph-name="f_f" horiz-adv-x="733" /><glyph d="M277 729C163 729 111 668 111 563V518H26V438H111V0H205V438H348V518H205V563C205 617 230 650 290 650C321 650 351 644 375 636L390 712C361 722 319 729 277 729ZM644 729C530 729 478 668 478 563V518H393V438H478V0H572V438H715V518H572V563C572 617 597 650 657 650C684 650 711 645 733 639V718C707 725 675 729 644 729ZM909 623V712H807V623ZM905 0V518H810V0Z" glyph-name="f_f_i" horiz-adv-x="983" /><glyph d="M277 729C163 729 111 668 111 563V518H26V438H111V0H205V438H348V518H205V563C205 617 230 650 290 650C321 650 351 644 375 636L390 712C361 722 319 729 277 729ZM644 729C530 729 478 668 478 563V518H393V438H478V0H572V438H715V518H572V563C572 617 597 650 657 650C684 650 711 645 733 639V718C707 725 675 729 644 729ZM905 0V724H810V0Z" glyph-name="f_f_l" horiz-adv-x="983" /><glyph d="M277 729C163 729 111 668 111 563V518H26V438H111V0H205V438H348V518H205V563C205 617 230 650 290 650C317 650 344 645 366 639V718C340 725 308 729 277 729ZM542 623V712H440V623ZM538 0V518H443V0Z" glyph-name="fi" horiz-adv-x="616" unicode="&#64257;" /><glyph d="M508 266C508 373 435 438 323 438C271 438 220 425 173 403L186 614H500V700H97L75 335L150 302C204 333 255 352 303 352C370 352 408 317 408 260C408 165 307 99 61 74L75 -13C372 14 508 107 508 266Z" glyph-name="five" horiz-adv-x="559" unicode="5" /><glyph d="M353 160C353 223 305 263 228 263C191 263 154 254 121 238L130 360H347V419H69L54 199L104 178C140 197 175 207 208 207C253 207 279 188 279 156C279 104 213 66 45 51L55 -8C264 8 353 66 353 160Z" glyph-name="five.den" horiz-adv-x="391" /><glyph d="M353 441C353 504 305 544 228 544C191 544 154 535 121 519L130 641H347V700H69L54 480L104 459C140 478 175 488 208 488C253 488 279 469 279 437C279 385 213 347 45 332L55 273C264 289 353 347 353 441Z" glyph-name="five.num" horiz-adv-x="391" /><glyph d="M510 265C510 373 437 438 323 438C269 438 218 425 171 401L184 614H502V700H94L73 334L147 301C202 333 253 352 303 352C372 352 411 317 411 259C411 165 307 99 59 74L72 -13C373 14 510 106 510 265Z" glyph-name="five.tab" horiz-adv-x="564" /><glyph d="M277 729C163 729 111 668 111 563V518H26V438H111V0H205V438H348V518H205V563C205 617 230 650 290 650C317 650 344 645 366 639V718C340 725 308 729 277 729ZM538 0V724H443V0Z" glyph-name="fl" horiz-adv-x="616" unicode="&#64258;" /><glyph d="M456 0V157H556V242H456V704H330L29 235L43 157H358V0ZM359 241H135L359 597Z" glyph-name="four" horiz-adv-x="585" unicode="4" /><glyph d="M323 0V90H395V146H323V422H226L24 146L27 90H252V0ZM254 145H95L254 367Z" glyph-name="four.den" horiz-adv-x="416" /><glyph d="M323 281V371H395V427H323V703H226L24 427L27 371H252V281ZM254 426H95L254 648Z" glyph-name="four.num" horiz-adv-x="416" /><glyph d="M446 0V157H535V242H446V704H314L31 240L45 157H347V0ZM349 241H134L349 606Z" glyph-name="four.tab" horiz-adv-x="564" /><glyph d="M-189 0H-137L75 339L306 700H254L42 361Z" glyph-name="fraction" horiz-adv-x="117" unicode="&#8260;" /><glyph d="M141 268C141 385 198 448 279 448C318 448 357 431 387 408V130C359 109 320 90 278 90C195 90 141 156 141 268ZM482 518H409L395 475C358 505 311 528 254 528C133 528 45 431 45 266C45 103 132 10 252 10C310 10 355 33 387 55V26C387 -56 342 -98 253 -98C198 -98 147 -85 99 -64L73 -141C127 -164 190 -177 257 -177C394 -177 482 -115 482 36Z" glyph-name="g" horiz-adv-x="557" unicode="g" /><glyph d="M141 268C141 385 198 448 279 448C318 448 357 431 387 408V130C359 109 320 90 278 90C195 90 141 156 141 268ZM482 518H409L395 475C358 505 311 528 254 528C133 528 45 431 45 266C45 103 132 10 252 10C310 10 355 33 387 55V26C387 -56 342 -98 253 -98C198 -98 147 -85 99 -64L73 -141C127 -164 190 -177 257 -177C394 -177 482 -115 482 36ZM286 645C244 645 222 669 215 708H164C167 638 211 587 286 587C360 587 405 638 408 708H357C350 669 329 645 286 645Z" glyph-name="gbreve" horiz-adv-x="557" unicode="&#287;" /><glyph d="M141 268C141 385 198 448 279 448C318 448 357 431 387 408V130C359 109 320 90 278 90C195 90 141 156 141 268ZM482 518H409L395 475C358 505 311 528 254 528C133 528 45 431 45 266C45 103 132 10 252 10C310 10 355 33 387 55V26C387 -56 342 -98 253 -98C198 -98 147 -85 99 -64L73 -141C127 -164 190 -177 257 -177C394 -177 482 -115 482 36ZM286 642 218 708H156L249 590H323L416 708H355Z" glyph-name="gcaron" horiz-adv-x="557" unicode="&#487;" /><glyph d="M141 268C141 385 198 448 279 448C318 448 357 431 387 408V130C359 109 320 90 278 90C195 90 141 156 141 268ZM482 518H409L395 475C358 505 311 528 254 528C133 528 45 431 45 266C45 103 132 10 252 10C310 10 355 33 387 55V26C387 -56 342 -98 253 -98C198 -98 147 -85 99 -64L73 -141C127 -164 190 -177 257 -177C394 -177 482 -115 482 36ZM286 656 354 590H416L323 708H249L156 590H217Z" glyph-name="gcircumflex" horiz-adv-x="557" unicode="&#285;" /><glyph d="M141 268C141 385 198 448 279 448C318 448 357 431 387 408V130C359 109 320 90 278 90C195 90 141 156 141 268ZM482 518H409L395 475C358 505 311 528 254 528C133 528 45 431 45 266C45 103 132 10 252 10C310 10 355 33 387 55V26C387 -56 342 -98 253 -98C198 -98 147 -85 99 -64L73 -141C127 -164 190 -177 257 -177C394 -177 482 -115 482 36ZM326 596V684H246V596Z" glyph-name="gdotaccent" horiz-adv-x="557" unicode="&#289;" /><glyph d="M414 -7C521 -7 593 51 593 153C593 254 526 321 408 364C487 399 548 460 548 552C548 654 466 729 335 729C181 729 112 641 111 518H26V438H111V0H205V510C205 591 251 649 333 649C409 649 453 604 453 546C453 481 401 429 304 397V322C440 280 498 224 498 158C498 108 463 74 400 74C364 74 323 83 283 101V18C326 0 371 -7 414 -7Z" glyph-name="germandbls" horiz-adv-x="634" unicode="&#223;" /><glyph d="M236 587H303L210 702H92Z" glyph-name="grave" horiz-adv-x="500" unicode="`" /><glyph d="M-21 749H60L-37 847H-164Z" glyph-name="grave.cap" horiz-adv-x="0" /><glyph d="M66 584V498L416 355L66 211V126L506 317V393Z" glyph-name="greater" horiz-adv-x="564" unicode="&gt;" /><glyph d="M435 93 469 124 326 305 469 486 435 517 237 330V280ZM233 93 267 124 124 305 267 486 233 517 35 330V280Z" glyph-name="guillemotleft" horiz-adv-x="509" unicode="&#171;" /><glyph d="M435 148 469 179 326 360 469 541 435 572 237 385V335ZM233 148 267 179 124 360 267 541 233 572 35 385V335Z" glyph-name="guillemotleft.cap" horiz-adv-x="509" /><glyph d="M74 93 272 280V330L74 517L40 486L183 305L40 123ZM276 93 474 280V330L276 517L242 486L386 305L242 123Z" glyph-name="guillemotright" horiz-adv-x="509" unicode="&#187;" /><glyph d="M74 148 272 335V385L74 572L40 541L183 360L40 178ZM276 148 474 335V385L276 572L242 541L386 360L242 178Z" glyph-name="guillemotright.cap" horiz-adv-x="509" /><glyph d="M233 93 267 124 124 305 267 486 233 517 35 330V280Z" glyph-name="guilsinglleft" horiz-adv-x="307" unicode="&#8249;" /><glyph d="M233 148 267 179 124 360 267 541 233 572 35 385V335Z" glyph-name="guilsinglleft.cap" horiz-adv-x="307" /><glyph d="M74 93 272 280V330L74 517L40 486L183 305L40 123Z" glyph-name="guilsinglright" horiz-adv-x="307" unicode="&#8250;" /><glyph d="M74 148 272 335V385L74 572L40 541L183 360L40 178Z" glyph-name="guilsinglright.cap" horiz-adv-x="307" /><glyph d="M171 396C205 421 252 442 297 442C362 442 397 404 397 332V0H492V353C492 467 435 527 331 527C267 527 215 502 171 471V724H75V0H171Z" glyph-name="h" horiz-adv-x="563" unicode="h" /><glyph d="M171 387C205 413 252 434 297 434C362 434 397 395 397 323V0H492V344C492 458 435 519 331 519C267 519 215 494 171 462V584H316V642H171V724H75V642H15V584H75V0H171Z" glyph-name="hbar" horiz-adv-x="563" unicode="&#295;" /><glyph d="M171 396C205 421 252 442 297 442C362 442 397 404 397 332V0H492V353C492 467 435 527 331 527C267 527 215 502 171 471V724H75V0H171ZM123 832 191 766H253L160 884H86L-7 766H54Z" glyph-name="hcircumflex" horiz-adv-x="563" unicode="&#293;" /><glyph d="M198 587 334 702H231L135 587ZM340 587 476 702H372L277 587Z" glyph-name="hungarumlaut" horiz-adv-x="500" unicode="&#733;" /><glyph d="M-50 749 85 847H-22L-122 749ZM94 749 229 847H122L22 749Z" glyph-name="hungarumlaut.cap" horiz-adv-x="0" /><glyph d="M297 263V347H44V263Z" glyph-name="hyphen" horiz-adv-x="341" unicode="-" /><glyph d="M297 318V402H44V318Z" glyph-name="hyphen.cap" horiz-adv-x="341" /><glyph d="M176 623V712H74V623ZM172 0V518H77V0Z" glyph-name="i" horiz-adv-x="249" unicode="i" /><glyph d="M172 0V518H77V0ZM165 593V681H85V593Z" glyph-name="i.dot" horiz-adv-x="249" /><glyph d="M172 0V518H77V0ZM139 587 283 702H165L72 587Z" glyph-name="iacute" horiz-adv-x="249" unicode="&#237;" /><glyph d="M172 0V518H77V0ZM125 642C83 642 61 666 54 705H3C6 635 50 584 125 584C199 584 244 635 247 705H196C189 666 168 642 125 642Z" glyph-name="ibreve" horiz-adv-x="249" unicode="&#301;" /><glyph d="M172 0V518H77V0ZM125 653 193 587H255L162 705H88L-5 587H56Z" glyph-name="icircumflex" horiz-adv-x="249" unicode="&#238;" /><glyph d="M172 0V518H77V0ZM86 593V681H8V593ZM242 593V681H164V593Z" glyph-name="idieresis" horiz-adv-x="249" unicode="&#239;" /><glyph d="M172 0V518H77V0ZM111 587H178L85 702H-33Z" glyph-name="igrave" horiz-adv-x="249" unicode="&#236;" /><glyph d="M172 0V518H77V0ZM236 598V651H14V598Z" glyph-name="imacron" horiz-adv-x="249" unicode="&#299;" /><glyph d="M176 623V712H74V623ZM191 -101C134 -93 123 -85 123 -70C123 -58 130 -46 161 0H172V518H77V0H99C52 -44 38 -66 38 -87C38 -124 75 -142 185 -148Z" glyph-name="iogonek" horiz-adv-x="249" unicode="&#303;" /><glyph d="M172 0V518H77V0ZM26 583C44 624 55 634 70 634C83 634 93 629 124 611C159 591 173 585 193 585C228 585 253 610 278 682L232 696C214 655 203 646 188 646C175 646 164 650 134 668C99 688 85 695 65 695C30 695 5 669 -20 598Z" glyph-name="itilde" horiz-adv-x="249" unicode="&#297;" /><glyph d="M177 623V712H74V623ZM55 -179C136 -117 173 -68 173 64V518H78V65C78 -40 51 -76 -9 -130Z" glyph-name="j" horiz-adv-x="249" unicode="j" /><glyph d="M55 -179C136 -117 173 -68 173 64V518H78V65C78 -40 51 -76 -9 -130ZM125 653 193 587H255L162 705H88L-5 587H56Z" glyph-name="jcircumflex" horiz-adv-x="249" unicode="&#309;" /><glyph d="M386 0H502L273 270L496 518H381L173 280H171V724H75V0H171V259H174Z" glyph-name="k" horiz-adv-x="514" unicode="k" /><glyph d="M172 0V724H77V0Z" glyph-name="l" horiz-adv-x="249" unicode="l" /><glyph d="M172 0V724H77V0ZM139 778 283 893H165L72 778Z" glyph-name="lacute" horiz-adv-x="249" unicode="&#314;" /><glyph d="M172 0V724H77V0ZM307 725H243V693C243 648 238 616 224 581L253 566C288 606 307 642 307 700Z" glyph-name="lcaron" horiz-adv-x="249" unicode="&#318;" /><glyph d="M498 126V212L148 356L498 499V584L58 393V317Z" glyph-name="less" horiz-adv-x="564" unicode="&lt;" /><glyph d="M189 0V348L260 384V461L189 422V725L94 724V372L24 335V260L94 298V0Z" glyph-name="lslash" horiz-adv-x="284" unicode="&#322;" /><glyph d="M804 0V354C804 468 744 527 642 527C575 527 516 498 462 460C437 504 391 527 329 527C263 527 211 500 165 467L149 518H75V0H171V396C205 421 251 442 294 442C358 442 392 405 392 333V0H487V343C487 361 484 378 479 392C520 421 567 442 608 442C673 442 708 405 708 333V0Z" glyph-name="m" horiz-adv-x="874" unicode="m" /><glyph d="M376 598V651H124V598Z" glyph-name="macron" horiz-adv-x="500" unicode="&#175;" /><glyph d="M143 755V811H-143V755Z" glyph-name="macron.cap" horiz-adv-x="0" /><glyph d="M126 755V811H-126V755Z" glyph-name="macron.capnrw" horiz-adv-x="0" /><glyph d="M111 598V651H-111V598Z" glyph-name="macron.nrw" horiz-adv-x="0" /><glyph d="M83 318V422H3V318Z" glyph-name="middotcat" horiz-adv-x="86" /><glyph d="M91 324V434H0V324Z" glyph-name="middotcat.cap" horiz-adv-x="180" /><glyph d="M508 315V395H57V315Z" glyph-name="minus" horiz-adv-x="564" unicode="&#8722;" /><glyph d="M438 143 494 199 336 355 494 512 439 566 282 409 126 567 70 511 228 355 71 198 125 143 282 301Z" glyph-name="multiply" horiz-adv-x="564" unicode="&#215;" /><glyph d="M171 396C205 421 252 442 297 442C362 442 397 404 397 332V0H492V353C492 467 435 527 331 527C263 527 211 500 165 467L149 518H75V0H171Z" glyph-name="n" horiz-adv-x="563" unicode="n" /><glyph d="M171 396C205 421 252 442 297 442C362 442 397 404 397 332V0H492V353C492 467 435 527 331 527C263 527 211 500 165 467L149 518H75V0H171ZM296 590 440 705H322L229 590Z" glyph-name="nacute" horiz-adv-x="563" unicode="&#324;" /><glyph d="M171 396C205 421 252 442 297 442C362 442 397 404 397 332V0H492V353C492 467 435 527 331 527C263 527 211 500 165 467L149 518H75V0H171ZM282 642 214 708H152L245 590H319L412 708H351Z" glyph-name="ncaron" horiz-adv-x="563" unicode="&#328;" /><glyph d="M276 711C139 711 47 615 47 472C47 334 129 257 249 257C301 257 352 271 399 293C367 200 289 124 140 59L182 -17C408 76 512 226 512 424C512 604 420 711 276 711ZM273 627C361 627 414 551 414 435C414 412 413 392 410 372C369 354 322 341 281 341C199 341 145 388 145 480C145 569 199 627 273 627Z" glyph-name="nine" horiz-adv-x="565" unicode="9" /><glyph d="M196 426C99 426 34 367 34 284C34 207 92 157 175 157C213 157 251 167 283 183C264 127 214 85 103 45L128 -11C287 43 362 133 362 253C362 361 298 426 196 426ZM194 369C254 369 292 328 292 260C292 249 291 239 290 229C261 216 229 209 199 209C141 209 104 238 104 287C104 336 142 369 194 369Z" glyph-name="nine.den" horiz-adv-x="401" /><glyph d="M196 707C99 707 34 648 34 565C34 488 92 438 175 438C213 438 251 448 283 464C264 408 214 366 103 326L128 270C287 324 362 414 362 534C362 642 298 707 196 707ZM194 650C254 650 292 609 292 541C292 530 291 520 290 510C261 497 229 490 199 490C141 490 104 519 104 568C104 617 142 650 194 650Z" glyph-name="nine.num" horiz-adv-x="401" /><glyph d="M274 711C139 711 46 615 46 473C46 335 128 257 247 257C300 257 351 271 398 294C366 200 290 124 141 58L183 -17C408 76 511 226 511 424C511 604 420 711 274 711ZM273 627C360 627 413 552 413 435C413 414 412 393 409 372C367 354 321 341 279 341C197 341 144 388 144 480C144 570 199 627 273 627Z" glyph-name="nine.tab" horiz-adv-x="564" /><glyph d="M500 220V289H279L350 421H500V490H390L452 605H382L319 490H64V421H285L214 289H64V220H175L112 105H183L245 220Z" glyph-name="notequal" horiz-adv-x="564" unicode="&#8800;" /><glyph d="M171 396C205 421 252 442 297 442C362 442 397 404 397 332V0H492V353C492 467 435 527 331 527C263 527 211 500 165 467L149 518H75V0H171ZM183 586C201 627 212 637 227 637C240 637 250 632 281 614C316 594 330 588 350 588C385 588 410 613 435 685L389 699C371 658 360 649 345 649C332 649 321 653 291 671C256 691 242 698 222 698C187 698 162 672 137 601Z" glyph-name="ntilde" horiz-adv-x="563" unicode="&#241;" /><glyph d="M366 256 229 263 259 443 395 436ZM324 -5H382L413 184L547 177V247L424 253L454 433L584 427V498L465 504L498 705H439L407 507L270 514L301 705H242L211 516L78 523V452L200 446L171 266L40 273V202L160 196L127 -5H186L218 193L355 186Z" glyph-name="numbersign" horiz-adv-x="625" unicode="#" /><glyph d="M502 260C502 425 404 530 273 530C143 530 44 424 44 258C44 93 142 -12 272 -12C403 -12 502 94 502 260ZM406 259C406 144 351 68 273 68C194 68 139 145 139 259C139 374 194 450 272 450C351 450 406 373 406 259Z" glyph-name="o" horiz-adv-x="545" unicode="o" /><glyph d="M502 260C502 425 404 530 273 530C143 530 44 424 44 258C44 93 142 -12 272 -12C403 -12 502 94 502 260ZM406 259C406 144 351 68 273 68C194 68 139 145 139 259C139 374 194 450 272 450C351 450 406 373 406 259ZM286 590 430 705H312L219 590Z" glyph-name="oacute" horiz-adv-x="545" unicode="&#243;" /><glyph d="M502 260C502 425 404 530 273 530C143 530 44 424 44 258C44 93 142 -12 272 -12C403 -12 502 94 502 260ZM406 259C406 144 351 68 273 68C194 68 139 145 139 259C139 374 194 450 272 450C351 450 406 373 406 259ZM272 645C230 645 208 669 201 708H150C153 638 197 587 272 587C346 587 391 638 394 708H343C336 669 315 645 272 645Z" glyph-name="obreve" horiz-adv-x="545" unicode="&#335;" /><glyph d="M502 260C502 425 404 530 273 530C143 530 44 424 44 258C44 93 142 -12 272 -12C403 -12 502 94 502 260ZM406 259C406 144 351 68 273 68C194 68 139 145 139 259C139 374 194 450 272 450C351 450 406 373 406 259ZM272 656 340 590H402L309 708H235L142 590H203Z" glyph-name="ocircumflex" horiz-adv-x="545" unicode="&#244;" /><glyph d="M502 260C502 425 404 530 273 530C143 530 44 424 44 258C44 93 142 -12 272 -12C403 -12 502 94 502 260ZM406 259C406 144 351 68 273 68C194 68 139 145 139 259C139 374 194 450 272 450C351 450 406 373 406 259ZM233 596V684H155V596ZM389 596V684H311V596Z" glyph-name="odieresis" horiz-adv-x="545" unicode="&#246;" /><glyph d="M505 295C513 387 561 452 633 452C706 452 751 388 758 295ZM406 259C406 144 351 68 273 68C194 68 139 145 139 259C139 374 194 450 272 450C351 450 406 373 406 259ZM653 -10C714 -10 776 8 831 40L803 112C756 85 704 69 656 69C570 69 515 129 507 219H851V254C851 419 768 530 637 530C557 530 493 488 457 415C419 489 352 530 272 530C142 530 44 424 44 258C44 93 141 -12 270 -12C350 -12 418 29 456 102C494 28 563 -10 653 -10Z" glyph-name="oe" horiz-adv-x="889" unicode="&#339;" /><glyph d="M317 -101C260 -93 249 -85 249 -70C249 -58 256 -45 290 4L237 11C180 -41 164 -64 164 -87C164 -124 201 -142 311 -148Z" glyph-name="ogonek" horiz-adv-x="500" unicode="&#731;" /><glyph d="M502 260C502 425 404 530 273 530C143 530 44 424 44 258C44 93 142 -12 272 -12C403 -12 502 94 502 260ZM406 259C406 144 351 68 273 68C194 68 139 145 139 259C139 374 194 450 272 450C351 450 406 373 406 259ZM258 590H325L232 705H114Z" glyph-name="ograve" horiz-adv-x="545" unicode="&#242;" /><glyph d="M272 -12C402 -12 502 94 502 259C502 360 463 436 400 480C465 491 504 532 504 592C504 614 499 633 490 653L424 633C429 620 432 608 432 594C432 548 396 523 329 523C311 523 291 525 273 525C143 525 44 421 44 258C44 93 142 -12 272 -12ZM406 258C406 144 351 68 273 68C195 68 139 145 139 259C139 372 194 447 272 447C350 447 406 371 406 258Z" glyph-name="ohorn" horiz-adv-x="545" unicode="&#417;" /><glyph d="M502 260C502 425 404 530 273 530C143 530 44 424 44 258C44 93 142 -12 272 -12C403 -12 502 94 502 260ZM406 259C406 144 351 68 273 68C194 68 139 145 139 259C139 374 194 450 272 450C351 450 406 373 406 259ZM220 590 356 705H253L157 590ZM362 590 498 705H394L299 590Z" glyph-name="ohungarumlaut" horiz-adv-x="545" unicode="&#337;" /><glyph d="M502 260C502 425 404 530 273 530C143 530 44 424 44 258C44 93 142 -12 272 -12C403 -12 502 94 502 260ZM406 259C406 144 351 68 273 68C194 68 139 145 139 259C139 374 194 450 272 450C351 450 406 373 406 259ZM398 601V654H146V601Z" glyph-name="omacron" horiz-adv-x="545" unicode="&#333;" /><glyph d="M303 0V704H230L33 623L57 541L204 596V0Z" glyph-name="one" horiz-adv-x="413" unicode="1" /><glyph d="M230 0V422H176L28 365L44 305L156 344V0Z" glyph-name="one.den" horiz-adv-x="308" /><glyph d="M230 281V703H176L28 646L44 586L156 625V281Z" glyph-name="one.num" horiz-adv-x="308" /><glyph d="M506 0V82H347V704H274L74 626L92 543L247 598V82H74V0Z" glyph-name="one.tab" horiz-adv-x="564" /><glyph d="M230 281V703H176L28 646L44 586L156 625V281ZM152 0H204L416 339L647 700H595L383 361ZM830 0V61H615L734 174C795 228 820 266 820 313C820 381 765 425 683 425C621 425 566 398 521 352L554 301C594 340 635 362 675 362C717 362 744 340 744 306C744 277 725 252 687 215L511 51L524 0Z" glyph-name="onehalf" horiz-adv-x="862" unicode="&#189;" /><glyph d="M230 281V703H176L28 646L44 586L156 625V281ZM152 0H204L416 339L647 700H595L383 361ZM758 0V90H830V146H758V422H661L459 146L462 90H687V0ZM689 145H530L689 367Z" glyph-name="onequarter" horiz-adv-x="851" unicode="&#188;" /><glyph d="M230 281V703H176L28 646L44 586L156 625V281ZM152 0H204L416 339L647 700H595L383 361ZM532 -4C743 2 839 48 839 129C839 183 795 214 705 222C790 249 833 282 833 335C833 388 785 425 698 425C638 425 581 410 533 384L553 330C596 353 643 366 685 366C733 366 757 349 757 323C757 289 713 263 597 235L604 189C724 187 762 167 762 132C762 90 702 60 532 54Z" glyph-name="onethird" horiz-adv-x="876" unicode="&#8531;" /><glyph d="M183 420C144 420 120 441 120 477C120 512 147 537 208 537C217 537 261 536 269 534V452C244 433 210 420 183 420ZM275 416 288 380H343L335 443V598C335 670 295 705 209 705C163 705 120 695 83 681L99 632C130 645 166 654 201 654C252 654 269 632 269 595V572C259 574 211 576 198 576C103 576 58 535 58 473C58 411 100 376 163 376C205 376 242 391 275 416ZM350 270V310H51V270Z" glyph-name="ordfeminine" horiz-adv-x="402" unicode="&#170;" /><glyph d="M202 707C114 707 49 639 49 539C49 439 114 373 201 373C289 373 354 440 354 540C354 640 290 707 202 707ZM202 426C149 426 112 473 112 540C112 606 149 653 201 653C254 653 291 606 291 539C291 473 254 426 202 426ZM349 270V310H54V270Z" glyph-name="ordmasculine" horiz-adv-x="403" unicode="&#186;" /><glyph d="M139 259C139 374 194 451 273 451C299 451 323 442 343 426L169 133C150 165 139 209 139 259ZM273 67C246 67 222 76 202 93L376 387C396 354 407 310 407 259C407 144 352 67 273 67ZM272 -12C403 -12 502 94 502 260C502 345 476 414 433 461L501 569H429L386 500C353 519 315 530 273 530C143 530 44 424 44 258C44 173 70 104 113 57L44 -51H116L159 19C192 -1 230 -12 272 -12Z" glyph-name="oslash" horiz-adv-x="545" unicode="&#248;" /><glyph d="M139 259C139 374 194 451 273 451C299 451 323 442 343 426L169 133C150 165 139 209 139 259ZM273 67C246 67 222 76 202 93L376 387C396 354 407 310 407 259C407 144 352 67 273 67ZM272 -12C403 -12 502 94 502 260C502 345 476 414 433 461L501 569H429L386 500C353 519 315 530 273 530C143 530 44 424 44 258C44 173 70 104 113 57L44 -51H116L159 19C192 -1 230 -12 272 -12ZM286 590 430 705H312L219 590Z" glyph-name="oslashacute" horiz-adv-x="545" unicode="&#511;" /><glyph d="M502 260C502 425 404 530 273 530C143 530 44 424 44 258C44 93 142 -12 272 -12C403 -12 502 94 502 260ZM406 259C406 144 351 68 273 68C194 68 139 145 139 259C139 374 194 450 272 450C351 450 406 373 406 259ZM173 586C191 627 202 637 217 637C230 637 240 632 271 614C306 594 320 588 340 588C375 588 400 613 425 685L379 699C361 658 350 649 335 649C322 649 311 653 281 671C246 691 232 698 212 698C177 698 152 672 127 601Z" glyph-name="otilde" horiz-adv-x="545" unicode="&#245;" /><glyph d="M279 69C239 69 201 87 171 110V404C199 428 237 448 280 448C363 448 417 379 417 260C417 135 360 69 279 69ZM171 32C209 7 251 -10 300 -10C425 -10 513 88 513 261C513 429 427 528 309 528C245 528 199 500 164 471L149 518H75V-173H171Z" glyph-name="p" horiz-adv-x="557" unicode="p" /><glyph d="M457 0V700H284C134 700 38 622 38 488C38 353 140 278 282 281V637H389V0Z" glyph-name="paragraph" horiz-adv-x="546" unicode="&#182;" /><glyph d="M360 -69C224 26 150 138 150 304C150 470 224 582 360 677L325 728C158 629 60 493 60 304C60 115 158 -21 325 -120Z" glyph-name="parenleft" horiz-adv-x="397" unicode="(" /><glyph d="M360 -24C224 71 150 183 150 349C150 515 224 627 360 722L325 773C158 674 60 538 60 349C60 160 158 24 325 -75Z" glyph-name="parenleft.cap" horiz-adv-x="397" /><glyph d="M37 -69 72 -120C240 -21 337 115 337 304C337 493 240 629 72 728L37 677C173 582 248 470 248 304C248 138 173 26 37 -69Z" glyph-name="parenright" horiz-adv-x="397" unicode=")" /><glyph d="M37 -24 72 -75C240 24 337 160 337 349C337 538 240 674 72 773L37 722C173 627 248 515 248 349C248 183 173 71 37 -24Z" glyph-name="parenright.cap" horiz-adv-x="397" /><glyph d="M579 687 531 711 332 360 118 13 165 -11 364 341ZM319 529C319 638 258 707 183 707C107 707 46 638 46 529C46 420 107 352 183 352C258 352 319 420 319 529ZM258 529C258 452 226 407 183 407C140 407 108 452 108 529C108 605 140 652 183 652C226 652 258 605 258 529ZM651 171C651 280 589 348 515 348C439 348 378 280 378 171C378 62 439 -7 515 -7C589 -7 651 62 651 171ZM590 171C590 95 558 48 515 48C472 48 439 95 439 171C439 248 472 293 515 293C558 293 590 248 590 171Z" glyph-name="percent" horiz-adv-x="697" unicode="%" /><glyph d="M146 0V117H44V0Z" glyph-name="period" horiz-adv-x="190" unicode="." /><glyph d="M192 0V117H90V0Z" glyph-name="period.tab" horiz-adv-x="282" /><glyph d="M322 125V318H508V392H322V585H242V392H57V318H242V125Z" glyph-name="plus" horiz-adv-x="564" unicode="+" /><glyph d="M322 168V344H499V419H322V598H242V419H66V344H242V168ZM499 0V73H66V0Z" glyph-name="plusminus" horiz-adv-x="564" unicode="&#177;" /><glyph d="M482 -173V518H409L395 475C358 505 312 528 254 528C132 528 45 430 45 257C45 89 130 -10 250 -10C308 -10 353 15 387 42V-173ZM277 69C195 69 141 139 141 258C141 383 197 448 279 448C318 448 357 431 387 408V114C359 90 321 69 277 69Z" glyph-name="q" horiz-adv-x="557" unicode="q" /><glyph d="M491 539C491 645 408 710 284 710C192 710 111 679 36 630L73 553C139 595 208 623 274 623C346 623 393 587 393 531C393 468 339 424 194 369L211 201H266L276 318C415 372 491 435 491 539ZM290 0V107H186V0Z" glyph-name="question" horiz-adv-x="531" unicode="?" /><glyph d="M40 161C40 55 123 -10 247 -10C339 -10 420 21 495 70L458 147C392 105 323 77 257 77C185 77 138 113 138 169C138 232 192 276 337 331L320 499H265L255 382C116 328 40 265 40 161ZM241 700V593H345V700Z" glyph-name="questiondown" horiz-adv-x="531" unicode="&#191;" /><glyph d="M389 699V700H282L220 450L261 437ZM211 699V700H105L43 450L83 437Z" glyph-name="quotedbl" horiz-adv-x="417" unicode="&quot;" /><glyph d="M498 699V700H386L303 452L343 437ZM276 699V700H165L81 452L122 437Z" glyph-name="quotedbl.tab" horiz-adv-x="564" /><glyph d="M318 117H226C226 5 211 -50 165 -122L196 -146C279 -67 318 10 318 109ZM143 117H51C51 5 35 -50 -11 -122L20 -146C103 -67 143 10 143 109Z" glyph-name="quotedblbase" horiz-adv-x="360" unicode="&#8222;" /><glyph d="M32 466H123C123 578 139 634 185 705L154 729C71 651 32 573 32 475ZM207 466H299C299 578 314 634 360 705L329 729C247 651 207 573 207 475Z" glyph-name="quotedblleft" horiz-adv-x="379" unicode="&#8220;" /><glyph d="M347 724H255C255 613 240 557 194 485L225 461C308 540 347 617 347 716ZM172 724H80C80 613 64 557 19 485L49 461C132 540 172 617 172 716Z" glyph-name="quotedblright" horiz-adv-x="379" unicode="&#8221;" /><glyph d="M32 466H128C128 579 144 634 190 705L158 729C73 651 32 573 32 474Z" glyph-name="quoteleft" horiz-adv-x="208" unicode="&#8216;" /><glyph d="M177 724H80C80 611 64 557 19 485L50 461C135 539 177 617 177 717Z" glyph-name="quoteright" horiz-adv-x="208" unicode="&#8217;" /><glyph d="M148 117H51C51 4 35 -50 -11 -122L21 -146C106 -68 148 10 148 109Z" glyph-name="quotesinglbase" horiz-adv-x="190" unicode="&#8218;" /><glyph d="M216 699V700H105L43 450L83 437Z" glyph-name="quotesingle" horiz-adv-x="245" unicode="'" /><glyph d="M240 699V700H129L57 450L98 437Z" glyph-name="quotesingle.tab" horiz-adv-x="282" /><glyph d="M171 0V357C221 399 280 425 351 427V524C270 525 212 489 165 432L147 518H75V0Z" glyph-name="r" horiz-adv-x="380" unicode="r" /><glyph d="M171 0V357C221 399 280 425 351 427V524C270 525 212 489 165 432L147 518H75V0ZM219 587 363 702H245L152 587Z" glyph-name="racute" horiz-adv-x="380" unicode="&#341;" /><glyph d="M171 0V357C221 399 280 425 351 427V524C270 525 212 489 165 432L147 518H75V0ZM205 639 137 705H75L168 587H242L335 705H274Z" glyph-name="rcaron" horiz-adv-x="380" unicode="&#345;" /><glyph d="M196 709C107 709 39 638 39 541C39 444 107 373 196 373C285 373 353 444 353 541C353 638 285 709 196 709ZM196 390C117 390 58 454 58 541C58 629 117 692 196 692C275 692 335 629 335 541C335 454 275 390 196 390ZM166 546V603H198C222 603 232 593 232 578C232 558 215 546 187 546ZM166 519H177C191 519 197 516 207 504L242 459H285L245 508C236 520 231 525 221 529C245 536 269 551 269 582C269 612 245 631 200 631H131V459H166Z" glyph-name="registered" horiz-adv-x="393" unicode="&#174;" /><glyph d="M151 676C151 623 192 581 250 581C308 581 349 623 349 676C349 729 308 771 250 771C192 771 151 729 151 676ZM187 676C187 712 213 740 250 740C287 740 313 712 313 676C313 640 287 612 250 612C213 612 187 640 187 676Z" glyph-name="ring" horiz-adv-x="500" unicode="&#730;" /><glyph d="M-105 840C-105 786 -62 743 0 743C61 743 105 786 105 840C105 894 62 936 0 936C-61 936 -105 894 -105 840ZM-68 840C-68 876 -41 904 0 904C41 904 68 876 68 840C68 803 41 775 0 775C-41 775 -68 803 -68 840Z" glyph-name="ring.cap" horiz-adv-x="0" /><glyph d="M140 873H25L-52 792H18ZM-99 672C-99 620 -58 581 0 581C58 581 99 620 99 672C99 723 58 763 0 763C-58 763 -99 723 -99 672ZM-63 672C-63 706 -37 732 0 732C37 732 63 706 63 672C63 638 37 612 0 612C-37 612 -63 638 -63 672Z" glyph-name="ringacute" horiz-adv-x="0" /><glyph d="M437 142C437 223 397 264 265 303C177 330 151 348 151 386C151 421 183 448 238 448C290 448 344 431 390 407L417 486C364 512 305 527 241 527C128 527 58 468 58 380C58 293 112 256 229 223C323 195 345 174 345 138C345 97 308 70 245 70C182 70 116 91 62 121L35 42C94 10 169 -10 244 -10C360 -10 437 44 437 142Z" glyph-name="s" horiz-adv-x="480" unicode="s" /><glyph d="M437 142C437 223 397 264 265 303C177 330 151 348 151 386C151 421 183 448 238 448C290 448 344 431 390 407L417 486C364 512 305 527 241 527C128 527 58 468 58 380C58 293 112 256 229 223C323 195 345 174 345 138C345 97 308 70 245 70C182 70 116 91 62 121L35 42C94 10 169 -10 244 -10C360 -10 437 44 437 142ZM262 590 406 705H288L195 590Z" glyph-name="sacute" horiz-adv-x="480" unicode="&#347;" /><glyph d="M437 142C437 223 397 264 265 303C177 330 151 348 151 386C151 421 183 448 238 448C290 448 344 431 390 407L417 486C364 512 305 527 241 527C128 527 58 468 58 380C58 293 112 256 229 223C323 195 345 174 345 138C345 97 308 70 245 70C182 70 116 91 62 121L35 42C94 10 169 -10 244 -10C360 -10 437 44 437 142ZM248 642 180 708H118L211 590H285L378 708H317Z" glyph-name="scaron" horiz-adv-x="480" unicode="&#353;" /><glyph d="M437 142C437 223 397 264 265 303C177 330 151 348 151 386C151 421 183 448 238 448C290 448 344 431 390 407L417 486C364 512 305 527 241 527C128 527 58 468 58 380C58 293 112 256 229 223C323 195 345 174 345 138C345 97 308 70 245 70C182 70 116 91 62 121L35 42C94 10 169 -10 244 -10C360 -10 437 44 437 142ZM248 656 316 590H378L285 708H211L118 590H179Z" glyph-name="scircumflex" horiz-adv-x="480" unicode="&#349;" /><glyph d="M273 267C152 309 132 330 132 364C132 398 167 428 234 458C253 450 275 442 299 433C420 391 441 370 441 337C441 302 406 272 339 242C320 250 298 258 273 267ZM283 -8C394 -8 458 47 458 115C458 153 444 181 407 207C482 243 527 285 527 347C527 410 491 448 336 502C223 543 203 559 203 587C203 614 232 637 290 637C337 637 400 621 452 600L472 672C420 692 357 708 289 708C178 708 115 653 115 585C115 547 129 519 166 494C91 457 46 415 46 353C46 290 82 252 236 198C349 157 370 141 370 113C370 86 341 64 283 64C236 64 172 79 121 100L100 28C152 8 216 -8 283 -8Z" glyph-name="section" horiz-adv-x="573" unicode="&#167;" /><glyph d="M153 401V518H51V401ZM153 117H55C55 4 39 -50 -6 -122L26 -146C111 -68 153 10 153 109Z" glyph-name="semicolon" horiz-adv-x="200" unicode=";" /><glyph d="M188 -10 494 606V700H45V612H393L93 20Z" glyph-name="seven" horiz-adv-x="536" unicode="7" /><glyph d="M139 -6 343 352V419H37V356H266L71 20Z" glyph-name="seven.den" horiz-adv-x="373" /><glyph d="M139 275 343 633V700H37V637H266L71 301Z" glyph-name="seven.num" horiz-adv-x="373" /><glyph d="M206 -10 517 606V700H52V612H415L111 21Z" glyph-name="seven.tab" horiz-adv-x="564" /><glyph d="M289 -11C426 -11 518 85 518 228C518 366 436 443 316 443C264 443 213 429 166 407C198 500 276 576 425 641L383 717C157 624 53 474 53 276C53 96 145 -11 289 -11ZM292 73C204 73 151 149 151 265C151 288 152 308 155 328C196 346 243 359 284 359C366 359 420 312 420 220C420 131 366 73 292 73Z" glyph-name="six" horiz-adv-x="565" unicode="6" /><glyph d="M205 -7C302 -7 367 52 367 135C367 212 309 262 226 262C188 262 150 252 118 236C137 292 187 334 298 374L273 430C114 376 39 286 39 166C39 58 103 -7 205 -7ZM207 50C147 50 109 91 109 159C109 170 110 180 111 190C140 203 172 210 202 210C260 210 297 181 297 132C297 83 259 50 207 50Z" glyph-name="six.den" horiz-adv-x="401" /><glyph d="M205 274C302 274 367 333 367 416C367 493 309 543 226 543C188 543 150 533 118 517C137 573 187 615 298 655L273 711C114 657 39 567 39 447C39 339 103 274 205 274ZM207 331C147 331 109 372 109 440C109 451 110 461 111 471C140 484 172 491 202 491C260 491 297 462 297 413C297 364 259 331 207 331Z" glyph-name="six.num" horiz-adv-x="401" /><glyph d="M290 -11C425 -11 518 85 518 227C518 365 436 443 317 443C264 443 213 429 166 406C198 500 274 576 423 642L381 717C156 624 53 474 53 276C53 96 144 -11 290 -11ZM291 73C204 73 151 148 151 265C151 286 152 307 155 328C197 346 243 359 285 359C367 359 420 312 420 220C420 130 365 73 291 73Z" glyph-name="six.tab" horiz-adv-x="564" /><glyph d="M379 795H306L-12 -130H61Z" glyph-name="slash" horiz-adv-x="379" unicode="/" /><glyph d="M384 811H311L-7 -114H66Z" glyph-name="slash.cap" horiz-adv-x="379" /><glyph d="M554 811H476L9 -114H87Z" glyph-name="slash.tab" horiz-adv-x="564" /><glyph glyph-name="space" horiz-adv-x="182" unicode=" " /><glyph glyph-name="space.cap" horiz-adv-x="202" /><glyph d="M515 85H164C199 122 220 163 230 238L239 307H446V386H249L261 477C267 523 281 559 305 583C328 607 359 619 401 619C436 619 475 610 503 600L523 686C487 699 442 708 395 708C326 708 274 688 235 649C198 613 177 561 168 493L154 386H55V307H144L137 251C124 160 95 110 49 67L67 0H515Z" glyph-name="sterling" horiz-adv-x="570" unicode="&#163;" /><glyph d="M514 85H161C198 121 220 164 229 238L238 307H445V386H249L261 477C267 526 282 560 305 584C328 607 360 619 400 619C435 619 473 610 502 598L522 684C484 699 440 708 393 708C325 708 273 688 234 649C198 613 177 563 168 493L154 386H54V307H143L136 251C124 163 95 110 49 67L66 0H514Z" glyph-name="sterling.tab" horiz-adv-x="564" /><glyph d="M265 -8C300 -8 330 -3 355 5V84C332 77 311 74 288 74C234 74 201 103 201 164V438H355V518H201V667H106V518H26V438H106V150C106 40 163 -8 265 -8Z" glyph-name="t" horiz-adv-x="395" unicode="t" /><glyph d="M355 5V82C332 75 311 72 288 72C234 72 201 101 201 162V240H317V299H201V440H355V518H201V667H106V518H26V440H106V299H39V240H106V150C106 40 163 -8 265 -8C300 -8 330 -3 355 5Z" glyph-name="tbar" horiz-adv-x="395" unicode="&#359;" /><glyph d="M265 -8C300 -8 330 -3 355 5V84C332 77 311 74 288 74C234 74 201 103 201 164V438H355V518H201V667H106V518H26V438H106V150C106 40 163 -8 265 -8ZM337 730H273V698C273 653 268 621 254 586L283 571C318 611 337 647 337 705Z" glyph-name="tcaron" horiz-adv-x="395" unicode="&#357;" /><glyph d="M279 69C239 69 201 87 171 110V404C199 428 237 448 280 448C363 448 417 379 417 260C417 135 360 69 279 69ZM171 32C209 7 251 -10 300 -10C425 -10 513 88 513 261C513 429 427 527 308 527C249 527 204 503 171 476V724H75V-173H171Z" glyph-name="thorn" horiz-adv-x="557" unicode="&#254;" /><glyph d="M49 -7C324 2 496 69 496 213C496 305 429 358 306 374C422 419 488 475 488 561C488 650 415 709 290 709C201 709 123 685 49 647L78 567C143 601 215 623 274 623C346 623 386 593 386 548C386 488 313 441 144 393L155 318C331 315 393 280 393 217C393 141 295 89 49 79Z" glyph-name="three" horiz-adv-x="547" unicode="3" /><glyph d="M39 -4C250 2 346 48 346 129C346 183 302 214 212 222C297 249 340 282 340 335C340 388 292 425 205 425C145 425 88 410 40 384L60 330C103 353 150 366 192 366C240 366 264 349 264 323C264 289 220 263 104 235L111 189C231 187 269 167 269 132C269 90 209 60 39 54Z" glyph-name="three.den" horiz-adv-x="383" /><glyph d="M39 277C250 283 346 329 346 410C346 464 302 495 212 503C297 530 340 563 340 616C340 669 292 706 205 706C145 706 88 691 40 665L60 611C103 634 150 647 192 647C240 647 264 630 264 604C264 570 220 544 104 516L111 470C231 468 269 448 269 413C269 371 209 341 39 335Z" glyph-name="three.num" horiz-adv-x="383" /><glyph d="M49 647 78 567C145 601 219 623 280 623C355 623 396 593 396 548C396 488 321 441 147 393L158 318C339 315 403 280 403 217C403 141 302 89 50 79V-7C331 1 505 69 505 213C505 305 436 358 309 374C429 419 498 475 498 561C498 650 423 709 295 709C204 709 124 685 49 647Z" glyph-name="three.tab" horiz-adv-x="564" /><glyph d="M39 277C250 283 346 329 346 410C346 464 302 495 212 503C297 530 340 563 340 616C340 669 292 706 205 706C145 706 88 691 40 665L60 611C103 634 150 647 192 647C240 647 264 630 264 604C264 570 220 544 104 516L111 470C231 468 269 448 269 413C269 371 209 341 39 335ZM206 0H258L470 339L701 700H649L437 361ZM812 0V90H884V146H812V422H715L513 146L516 90H741V0ZM743 145H584L743 367Z" glyph-name="threequarters" horiz-adv-x="905" unicode="&#190;" /><glyph d="M151 583C169 624 180 634 195 634C208 634 218 629 249 611C284 591 298 585 318 585C353 585 378 610 403 682L357 696C339 655 328 646 313 646C300 646 289 650 259 668C224 688 210 695 190 695C155 695 130 669 105 598Z" glyph-name="tilde" horiz-adv-x="500" unicode="&#732;" /><glyph d="M-102 746C-84 786 -73 795 -57 795C-43 795 -32 790 -1 772C35 753 51 747 72 747C108 747 133 771 159 840L110 856C92 816 80 807 65 807C51 807 39 812 8 829C-27 849 -43 855 -64 855C-100 855 -125 831 -152 761Z" glyph-name="tilde.cap" horiz-adv-x="0" /><glyph d="M139 472V663H215V700H22V663H97V472ZM361 472H401L466 645L475 472H515L503 700H447L382 526L316 700H260L248 472H287L296 645Z" glyph-name="trademark" horiz-adv-x="554" unicode="&#8482;" /><glyph d="M52 700V690L376 -12H394L718 690V700Z" glyph-name="triagdn" horiz-adv-x="771" unicode="&#9660;" /><glyph d="M59 700 271 -13H294L505 700Z" glyph-name="triagdn.tab" horiz-adv-x="564" /><glyph d="M718 0V10L394 712H376L52 10V0Z" glyph-name="triagup" horiz-adv-x="771" unicode="&#9650;" /><glyph d="M505 0 294 713H271L59 0Z" glyph-name="triagup.tab" horiz-adv-x="564" /><glyph d="M504 0V87H177L364 293C452 380 489 441 489 525C489 632 418 709 289 709C187 709 110 661 51 603L97 526C157 584 214 618 278 618C347 618 387 574 387 514C387 463 359 419 300 355L37 71L55 0Z" glyph-name="two" horiz-adv-x="549" unicode="2" /><glyph d="M349 0V61H134L253 174C314 228 339 266 339 313C339 381 284 425 202 425C140 425 85 398 40 352L73 301C113 340 154 362 194 362C236 362 263 340 263 306C263 277 244 252 206 215L30 51L43 0Z" glyph-name="two.den" horiz-adv-x="381" /><glyph d="M349 281V342H134L253 455C314 509 339 547 339 594C339 662 284 706 202 706C140 706 85 679 40 633L73 582C113 621 154 643 194 643C236 643 263 621 263 587C263 558 244 533 206 496L30 332L43 281Z" glyph-name="two.num" horiz-adv-x="381" /><glyph d="M59 602 104 525C165 584 222 618 286 618C355 618 395 574 395 514C395 464 367 420 308 356L46 71L63 0H512V87H186L374 293C460 380 498 442 498 525C498 632 425 709 296 709C194 709 118 661 59 602Z" glyph-name="two.tab" horiz-adv-x="564" /><glyph d="M349 281V342H134L253 455C314 509 339 547 339 594C339 662 284 706 202 706C140 706 85 679 40 633L73 582C113 621 154 643 194 643C236 643 263 621 263 587C263 558 244 533 206 496L30 332L43 281ZM251 0H303L515 339L746 700H694L482 361ZM631 -4C842 2 938 48 938 129C938 183 894 214 804 222C889 249 932 282 932 335C932 388 884 425 797 425C737 425 680 410 632 384L652 330C695 353 742 366 784 366C832 366 856 349 856 323C856 289 812 263 696 235L703 189C823 187 861 167 861 132C861 90 801 60 631 54Z" glyph-name="twothirds" horiz-adv-x="975" unicode="&#8532;" /><glyph d="M398 51 414 0H488V518H392V122C358 97 311 75 266 75C201 75 166 114 166 186V518H71V165C71 51 128 -9 232 -9C300 -9 352 18 398 51Z" glyph-name="u" horiz-adv-x="563" unicode="u" /><glyph d="M398 51 414 0H488V518H392V122C358 97 311 75 266 75C201 75 166 114 166 186V518H71V165C71 51 128 -9 232 -9C300 -9 352 18 398 51ZM294 583 438 698H320L227 583Z" glyph-name="uacute" horiz-adv-x="563" unicode="&#250;" /><glyph d="M398 51 414 0H488V518H392V122C358 97 311 75 266 75C201 75 166 114 166 186V518H71V165C71 51 128 -9 232 -9C300 -9 352 18 398 51ZM280 638C238 638 216 662 209 701H158C161 631 205 580 280 580C354 580 399 631 402 701H351C344 662 323 638 280 638Z" glyph-name="ubreve" horiz-adv-x="563" unicode="&#365;" /><glyph d="M398 51 414 0H488V518H392V122C358 97 311 75 266 75C201 75 166 114 166 186V518H71V165C71 51 128 -9 232 -9C300 -9 352 18 398 51ZM280 653 348 587H410L317 705H243L150 587H211Z" glyph-name="ucircumflex" horiz-adv-x="563" unicode="&#251;" /><glyph d="M398 51 414 0H488V518H392V122C358 97 311 75 266 75C201 75 166 114 166 186V518H71V165C71 51 128 -9 232 -9C300 -9 352 18 398 51ZM241 593V681H163V593ZM397 593V681H319V593Z" glyph-name="udieresis" horiz-adv-x="563" unicode="&#252;" /><glyph d="M398 51 414 0H488V518H392V122C358 97 311 75 266 75C201 75 166 114 166 186V518H71V165C71 51 128 -9 232 -9C300 -9 352 18 398 51ZM266 583H333L240 698H122Z" glyph-name="ugrave" horiz-adv-x="563" unicode="&#249;" /><glyph d="M398 52 414 0H488V475C554 493 590 535 590 592C590 614 586 633 576 653L510 633C516 620 519 608 519 594C519 546 479 518 402 518H392V123C358 98 311 76 266 76C201 76 166 115 166 187V518H71V166C71 52 128 -8 232 -8C300 -8 352 19 398 52Z" glyph-name="uhorn" horiz-adv-x="584" unicode="&#432;" /><glyph d="M398 51 414 0H488V518H392V122C358 97 311 75 266 75C201 75 166 114 166 186V518H71V165C71 51 128 -9 232 -9C300 -9 352 18 398 51ZM228 587 364 702H261L165 587ZM370 587 506 702H402L307 587Z" glyph-name="uhungarumlaut" horiz-adv-x="563" unicode="&#369;" /><glyph d="M398 51 414 0H488V518H392V122C358 97 311 75 266 75C201 75 166 114 166 186V518H71V165C71 51 128 -9 232 -9C300 -9 352 18 398 51ZM406 598V651H154V598Z" glyph-name="umacron" horiz-adv-x="563" unicode="&#363;" /><glyph d="M485 -97V-53H-2V-97Z" glyph-name="underscore" horiz-adv-x="483" unicode="_" /><glyph glyph-name="uni0000" horiz-adv-x="0" /><glyph d="M-122 878 -112 828C-76 836 -40 840 -5 840C38 840 52 834 52 823C52 812 37 804 -30 783L-17 743C86 771 120 795 120 832C120 868 83 892 0 892C-43 892 -82 887 -122 878Z" glyph-name="uni00200309.cap" horiz-adv-x="0" /><glyph glyph-name="uni00A0" horiz-adv-x="182" unicode="&#160;" /><glyph d="M-19 715H48L-30 812H-148ZM-39 593V679H-117V593ZM117 593V679H39V593Z" glyph-name="uni00A80300" horiz-adv-x="0" /><glyph d="M53 869 -33 955H-160L-28 869ZM-42 749V835H-123V749ZM123 749V835H42V749Z" glyph-name="uni00A80300.cap" horiz-adv-x="0" /><glyph d="M19 715 148 812H30L-48 715ZM-39 593V679H-117V593ZM117 593V679H39V593Z" glyph-name="uni00A80301" horiz-adv-x="0" /><glyph d="M28 869 160 955H33L-53 869ZM-42 749V835H-123V749ZM123 749V835H42V749Z" glyph-name="uni00A80301.cap" horiz-adv-x="0" /><glyph d="M124 720V772H-124V720ZM-39 593V679H-117V593ZM117 593V679H39V593Z" glyph-name="uni00A80304" horiz-adv-x="0" /><glyph d="M133 874V929H-133V874ZM-42 749V835H-123V749ZM123 749V835H42V749Z" glyph-name="uni00A80304.cap" horiz-adv-x="0" /><glyph d="M37 715 132 815H71L0 765L-70 815H-132L-37 715ZM-39 593V679H-117V593ZM117 593V679H39V593Z" glyph-name="uni00A8030C" horiz-adv-x="0" /><glyph d="M43 869 139 958H69L1 917L-68 958H-139L-43 869ZM-42 749V835H-123V749ZM123 749V835H42V749Z" glyph-name="uni00A8030C.cap" horiz-adv-x="0" /><glyph d="M364 417V478H149L268 591C329 645 354 683 354 730C354 798 299 842 217 842C155 842 100 815 55 769L88 718C128 757 169 779 209 779C251 779 278 757 278 723C278 694 259 669 221 632L45 468L58 417Z" glyph-name="uni00B2" horiz-adv-x="411" unicode="&#178;" /><glyph d="M54 413C265 419 361 465 361 546C361 600 317 631 227 639C312 666 355 699 355 752C355 805 307 842 220 842C160 842 103 827 55 801L75 747C118 770 165 783 207 783C255 783 279 766 279 740C279 706 235 680 119 652L126 606C246 604 284 584 284 549C284 507 224 477 54 471Z" glyph-name="uni00B3" horiz-adv-x="413" unicode="&#179;" /><glyph d="M168 -32 163 43C186 10 221 -7 268 -7C323 -7 369 16 411 53L428 0H492V518H397V124C363 99 315 77 271 77C205 77 171 116 171 188V518H75V-173H168Z" glyph-name="uni00B5" horiz-adv-x="568" unicode="&#181;" /><glyph d="M159 246V364H57V246Z" glyph-name="uni00B7" horiz-adv-x="216" unicode="&#183;" /><glyph d="M159 301V418H57V301Z" glyph-name="uni00B7.cap" horiz-adv-x="216" /><glyph d="M192 297V414H90V297Z" glyph-name="uni00B7.tab" horiz-adv-x="282" /><glyph d="M245 417V839H191L43 782L59 722L171 761V417Z" glyph-name="uni00B9" horiz-adv-x="338" unicode="&#185;" /><glyph d="M617 52V382H350V292H518V109C484 93 436 79 386 79C241 79 155 182 155 349C155 507 243 618 386 618C459 618 516 598 569 573L599 661C538 690 468 710 387 710C191 710 52 572 52 349C52 123 179 -9 381 -9C470 -9 553 17 617 52ZM317 -68C333 -87 340 -100 340 -117C340 -138 330 -153 307 -174L339 -200C391 -173 418 -142 418 -105C418 -84 412 -67 396 -47Z" glyph-name="uni0122" horiz-adv-x="694" unicode="&#290;" /><glyph d="M141 268C141 385 198 448 279 448C318 448 357 431 387 408V130C359 109 320 90 278 90C195 90 141 156 141 268ZM482 518H409L395 475C358 505 311 528 254 528C133 528 45 431 45 266C45 103 132 10 252 10C310 10 355 33 387 55V26C387 -56 342 -98 253 -98C198 -98 147 -85 99 -64L73 -141C127 -164 190 -177 257 -177C394 -177 482 -115 482 36ZM337 606C321 625 314 638 314 655C314 676 324 691 347 712L315 738C263 711 236 680 236 643C236 622 242 605 258 585Z" glyph-name="uni0123" horiz-adv-x="557" unicode="&#291;" /><glyph d="M502 0H628L303 361L621 700H495L204 384H189V700H88V0H189V334H203ZM278 -57C294 -76 301 -89 301 -106C301 -127 291 -142 268 -163L300 -189C352 -162 379 -131 379 -94C379 -73 373 -56 357 -36Z" glyph-name="uni0136" horiz-adv-x="641" unicode="&#310;" /><glyph d="M386 0H502L273 270L496 518H381L173 280H171V724H75V0H171V259H174ZM217 -57C233 -76 240 -89 240 -106C240 -127 230 -142 207 -163L239 -189C291 -162 318 -131 318 -94C318 -73 312 -56 296 -36Z" glyph-name="uni0137" horiz-adv-x="514" unicode="&#311;" /><glyph d="M519 0V91H189V700H88V0ZM249 -61C265 -80 272 -93 272 -110C272 -131 262 -146 239 -167L271 -193C323 -166 350 -135 350 -98C350 -77 344 -60 328 -40Z" glyph-name="uni013B" horiz-adv-x="548" unicode="&#315;" /><glyph d="M172 0V724H77V0ZM74 -61C90 -80 97 -93 97 -110C97 -131 87 -146 64 -167L96 -193C148 -166 175 -135 175 -98C175 -77 169 -60 153 -40Z" glyph-name="uni013C" horiz-adv-x="249" unicode="&#316;" /><glyph d="M185 547 519 0H628V700H531V159L202 700H88V0H185ZM302 -57C318 -76 325 -89 325 -106C325 -127 315 -142 292 -163L324 -189C376 -162 403 -131 403 -94C403 -73 397 -56 381 -36Z" glyph-name="uni0145" horiz-adv-x="716" unicode="&#325;" /><glyph d="M171 396C205 421 252 442 297 442C362 442 397 404 397 332V0H492V353C492 467 435 527 331 527C263 527 211 500 165 467L149 518H75V0H171ZM232 -57C248 -76 255 -89 255 -106C255 -127 245 -142 222 -163L254 -189C306 -162 333 -131 333 -94C333 -73 327 -56 311 -36Z" glyph-name="uni0146" horiz-adv-x="563" unicode="&#326;" /><glyph d="M189 345V611H328C434 611 486 567 486 488C486 398 409 345 296 345ZM189 257H261C325 257 360 236 401 178L530 0H653L502 199C466 252 442 274 400 290C493 314 590 372 590 501C590 628 504 700 334 700H88V0H189ZM287 -57C303 -76 310 -89 310 -106C310 -127 300 -142 277 -163L309 -189C361 -162 388 -131 388 -94C388 -73 382 -56 366 -36Z" glyph-name="uni0156" horiz-adv-x="666" unicode="&#342;" /><glyph d="M171 0V357C221 399 280 425 351 427V524C270 525 212 489 165 432L147 518H75V0ZM72 -61C88 -80 95 -93 95 -110C95 -131 85 -146 62 -167L94 -193C146 -166 173 -135 173 -98C173 -77 167 -60 151 -40Z" glyph-name="uni0157" horiz-adv-x="380" unicode="&#343;" /><glyph d="M212 -156C342 -152 388 -124 388 -83C388 -53 361 -35 303 -37L329 -8C472 1 558 75 558 195C558 303 498 357 329 406C204 444 170 476 170 527C170 581 219 620 298 620C371 620 438 601 498 573L527 660C462 690 390 709 305 709C161 709 69 634 69 519C69 417 129 365 296 317C422 277 457 244 457 186C457 124 400 80 305 80C219 80 134 107 67 142L38 55C105 21 182 -3 267 -8L230 -54L246 -74C286 -67 306 -73 306 -88C306 -104 284 -115 208 -121Z" glyph-name="uni015E" horiz-adv-x="606" unicode="&#350;" /><glyph d="M149 -156C279 -152 325 -124 325 -83C325 -53 298 -35 240 -37L265 -9C369 -3 437 50 437 142C437 223 397 264 265 303C177 330 151 348 151 386C151 421 183 448 238 448C290 448 344 431 390 407L417 486C364 512 305 527 241 527C128 527 58 468 58 380C58 293 112 256 229 223C323 195 345 174 345 138C345 97 308 70 245 70C182 70 116 91 62 121L35 42C83 16 142 -2 203 -8L167 -54L183 -74C223 -67 243 -73 243 -88C243 -104 221 -115 145 -121Z" glyph-name="uni015F" horiz-adv-x="480" unicode="&#351;" /><glyph d="M398 -83C398 -53 371 -35 313 -37L346 0H361V609H592V700H27V609H259V0H283L240 -54L256 -74C296 -67 316 -73 316 -88C316 -104 294 -115 218 -121L222 -156C352 -152 398 -124 398 -83Z" glyph-name="uni0162" horiz-adv-x="620" unicode="&#354;" /><glyph d="M153 -156C283 -152 329 -124 329 -83C329 -53 302 -35 244 -37L270 -8C300 -8 330 -3 355 5V84C332 77 311 74 288 74C234 74 201 103 201 164V438H355V518H201V667H106V518H26V438H106V150C106 61 143 13 212 -3L171 -54L187 -74C227 -67 247 -73 247 -88C247 -104 225 -115 149 -121Z" glyph-name="uni0163" horiz-adv-x="395" unicode="&#355;" /><glyph d="M337 -12C510 -12 632 133 632 353C632 584 504 712 322 712C233 712 161 688 97 646L132 568C185 604 245 624 312 624C429 624 512 547 527 399H51V349C51 125 169 -12 337 -12ZM338 76C236 76 166 161 155 312H528C517 165 442 76 338 76Z" glyph-name="uni018F" horiz-adv-x="684" unicode="&#399;" /><glyph d="M477 243H221L349 607ZM562 0H669L408 708H292L30 0H136L190 155H508ZM350 804 283 856H212L306 755H392L486 856H417Z" glyph-name="uni01CD" horiz-adv-x="699" unicode="&#461;" /><glyph d="M231 70C169 70 133 102 133 157C133 180 140 201 154 215C174 235 201 248 289 248C315 248 341 246 364 244V123C322 89 276 70 231 70ZM371 58 390 0H471L459 101V354C459 474 397 526 267 526C197 526 133 510 78 487L101 411C150 432 202 446 254 446C331 446 364 414 364 352V316C339 319 309 322 278 322C166 322 116 302 82 269C56 242 41 204 41 153C41 47 107 -9 201 -9C265 -9 318 14 371 58ZM266 642 198 708H136L229 590H303L396 708H335Z" glyph-name="uni01CE" horiz-adv-x="531" unicode="&#462;" /><glyph d="M193 0V700H91V0ZM143 798 76 850H5L99 749H185L279 850H210Z" glyph-name="uni01CF" horiz-adv-x="284" unicode="&#463;" /><glyph d="M172 0V518H77V0ZM125 639 57 705H-5L88 587H162L255 705H194Z" glyph-name="uni01D0" horiz-adv-x="249" unicode="&#464;" /><glyph d="M666 351C666 569 539 712 360 712C179 712 52 567 52 349C52 131 179 -12 358 -12C538 -12 666 133 666 351ZM563 349C563 185 480 76 360 76C238 76 155 185 155 351C155 515 238 624 358 624C479 624 563 515 563 349ZM360 805 293 857H222L316 756H402L496 857H427Z" glyph-name="uni01D1" horiz-adv-x="718" unicode="&#465;" /><glyph d="M502 260C502 425 404 530 273 530C143 530 44 424 44 258C44 93 142 -12 272 -12C403 -12 502 94 502 260ZM406 259C406 144 351 68 273 68C194 68 139 145 139 259C139 374 194 450 272 450C351 450 406 373 406 259ZM272 642 204 708H142L235 590H309L402 708H341Z" glyph-name="uni01D2" horiz-adv-x="545" unicode="&#466;" /><glyph d="M614 271V700H514V267C514 142 445 77 347 77C249 77 180 142 180 269V700H79V271C79 85 185 -10 346 -10C506 -10 614 84 614 271ZM347 794 280 846H209L303 745H389L483 846H414Z" glyph-name="uni01D3" horiz-adv-x="693" unicode="&#467;" /><glyph d="M398 51 414 0H488V518H392V122C358 97 311 75 266 75C201 75 166 114 166 186V518H71V165C71 51 128 -9 232 -9C300 -9 352 18 398 51ZM280 635 212 701H150L243 583H317L410 701H349Z" glyph-name="uni01D4" horiz-adv-x="563" unicode="&#468;" /><glyph d="M614 271V700H514V267C514 142 445 77 347 77C249 77 180 142 180 269V700H79V271C79 85 185 -10 346 -10C506 -10 614 84 614 271ZM479 874V929H213V874ZM304 749V835H223V749ZM469 749V835H388V749Z" glyph-name="uni01D5" horiz-adv-x="693" unicode="&#469;" /><glyph d="M398 51 414 0H488V518H392V122C358 97 311 75 266 75C201 75 166 114 166 186V518H71V165C71 51 128 -9 232 -9C300 -9 352 18 398 51ZM404 720V772H156V720ZM241 593V679H163V593ZM397 593V679H319V593Z" glyph-name="uni01D6" horiz-adv-x="563" unicode="&#470;" /><glyph d="M614 271V700H514V267C514 142 445 77 347 77C249 77 180 142 180 269V700H79V271C79 85 185 -10 346 -10C506 -10 614 84 614 271ZM374 869 506 955H379L293 869ZM304 749V835H223V749ZM469 749V835H388V749Z" glyph-name="uni01D7" horiz-adv-x="693" unicode="&#471;" /><glyph d="M398 51 414 0H488V518H392V122C358 97 311 75 266 75C201 75 166 114 166 186V518H71V165C71 51 128 -9 232 -9C300 -9 352 18 398 51ZM299 715 428 812H310L232 715ZM241 593V679H163V593ZM397 593V679H319V593Z" glyph-name="uni01D8" horiz-adv-x="563" unicode="&#472;" /><glyph d="M614 271V700H514V267C514 142 445 77 347 77C249 77 180 142 180 269V700H79V271C79 85 185 -10 346 -10C506 -10 614 84 614 271ZM389 869 485 958H415L347 917L278 958H207L303 869ZM304 749V835H223V749ZM469 749V835H388V749Z" glyph-name="uni01D9" horiz-adv-x="693" unicode="&#473;" /><glyph d="M398 51 414 0H488V518H392V122C358 97 311 75 266 75C201 75 166 114 166 186V518H71V165C71 51 128 -9 232 -9C300 -9 352 18 398 51ZM317 715 412 815H351L280 765L210 815H148L243 715ZM241 593V679H163V593ZM397 593V679H319V593Z" glyph-name="uni01DA" horiz-adv-x="563" unicode="&#474;" /><glyph d="M614 271V700H514V267C514 142 445 77 347 77C249 77 180 142 180 269V700H79V271C79 85 185 -10 346 -10C506 -10 614 84 614 271ZM399 869 313 955H186L318 869ZM304 749V835H223V749ZM469 749V835H388V749Z" glyph-name="uni01DB" horiz-adv-x="693" unicode="&#475;" /><glyph d="M398 51 414 0H488V518H392V122C358 97 311 75 266 75C201 75 166 114 166 186V518H71V165C71 51 128 -9 232 -9C300 -9 352 18 398 51ZM261 715H328L250 812H132ZM241 593V679H163V593ZM397 593V679H319V593Z" glyph-name="uni01DC" horiz-adv-x="563" unicode="&#476;" /><glyph d="M435 -148 441 -101C384 -93 373 -85 373 -70C373 -59 379 -47 405 -9C560 15 666 153 666 351C666 569 539 712 360 712C179 712 52 567 52 349C52 140 169 -1 337 -11C299 -48 288 -68 288 -87C288 -124 325 -142 435 -148ZM563 349C563 185 480 76 360 76C238 76 155 185 155 351C155 515 238 624 358 624C479 624 563 515 563 349Z" glyph-name="uni01EA" horiz-adv-x="718" unicode="&#490;" /><glyph d="M348 -148 354 -101C297 -93 286 -85 286 -70C286 -59 292 -47 319 -7C426 15 502 115 502 260C502 425 404 530 273 530C143 530 44 424 44 258C44 102 131 0 251 -11C212 -48 201 -68 201 -87C201 -124 238 -142 348 -148ZM406 259C406 144 351 68 273 68C194 68 139 145 139 259C139 374 194 450 272 450C351 450 406 373 406 259Z" glyph-name="uni01EB" horiz-adv-x="545" unicode="&#491;" /><glyph d="M55 -179C136 -117 173 -68 173 64V518H78V65C78 -40 51 -76 -9 -130ZM125 639 57 705H-5L88 587H162L255 705H194Z" glyph-name="uni01F0" horiz-adv-x="249" unicode="&#496;" /><glyph d="M185 547 519 0H628V700H531V159L202 700H88V0H185ZM345 745H426L329 843H202Z" glyph-name="uni01F8" horiz-adv-x="716" unicode="&#504;" /><glyph d="M171 396C205 421 252 442 297 442C362 442 397 404 397 332V0H492V353C492 467 435 527 331 527C263 527 211 500 165 467L149 518H75V0H171ZM268 590H335L242 705H124Z" glyph-name="uni01F9" horiz-adv-x="563" unicode="&#505;" /><glyph d="M558 195C558 303 498 357 329 406C204 444 170 476 170 527C170 581 219 620 298 620C371 620 438 601 498 573L527 660C462 690 390 709 305 709C161 709 69 634 69 519C69 417 129 365 296 317C422 277 457 244 457 186C457 124 400 80 305 80C219 80 134 107 67 142L38 55C114 16 203 -9 300 -9C460 -9 558 67 558 195ZM255 -68C271 -87 278 -100 278 -117C278 -138 268 -153 245 -174L277 -200C329 -173 356 -142 356 -105C356 -84 350 -67 334 -47Z" glyph-name="uni0218" horiz-adv-x="606" unicode="&#536;" /><glyph d="M437 142C437 223 397 264 265 303C177 330 151 348 151 386C151 421 183 448 238 448C290 448 344 431 390 407L417 486C364 512 305 527 241 527C128 527 58 468 58 380C58 293 112 256 229 223C323 195 345 174 345 138C345 97 308 70 245 70C182 70 116 91 62 121L35 42C94 10 169 -10 244 -10C360 -10 437 44 437 142ZM193 -64C209 -83 216 -96 216 -113C216 -134 206 -149 183 -170L215 -196C267 -169 294 -138 294 -101C294 -80 288 -63 272 -43Z" glyph-name="uni0219" horiz-adv-x="480" unicode="&#537;" /><glyph d="M361 0V609H592V700H27V609H259V0ZM259 -61C275 -80 282 -93 282 -110C282 -131 272 -146 249 -167L281 -193C333 -166 360 -135 360 -98C360 -77 354 -60 338 -40Z" glyph-name="uni021A" horiz-adv-x="620" unicode="&#538;" /><glyph d="M265 -8C300 -8 330 -3 355 5V84C332 77 311 74 288 74C234 74 201 103 201 164V438H355V518H201V667H106V518H26V438H106V150C106 40 163 -8 265 -8ZM183 -64C199 -83 206 -96 206 -113C206 -134 196 -149 173 -170L205 -196C257 -169 284 -138 284 -101C284 -80 278 -63 262 -43Z" glyph-name="uni021B" horiz-adv-x="395" unicode="&#539;" /><glyph d="M477 243H221L349 607ZM562 0H669L408 708H292L30 0H136L190 155H508ZM391 755V843H307V755Z" glyph-name="uni0226" horiz-adv-x="699" unicode="&#550;" /><glyph d="M231 70C169 70 133 102 133 157C133 180 140 201 154 215C174 235 201 248 289 248C315 248 341 246 364 244V123C322 89 276 70 231 70ZM371 58 390 0H471L459 101V354C459 474 397 526 267 526C197 526 133 510 78 487L101 411C150 432 202 446 254 446C331 446 364 414 364 352V316C339 319 309 322 278 322C166 322 116 302 82 269C56 242 41 204 41 153C41 47 107 -9 201 -9C265 -9 318 14 371 58ZM306 596V684H226V596Z" glyph-name="uni0227" horiz-adv-x="531" unicode="&#551;" /><glyph d="M666 351C666 569 539 712 360 712C179 712 52 567 52 349C52 131 179 -12 358 -12C538 -12 666 133 666 351ZM563 349C563 185 480 76 360 76C238 76 155 185 155 351C155 515 238 624 358 624C479 624 563 515 563 349ZM401 756V844H317V756Z" glyph-name="uni022E" horiz-adv-x="718" unicode="&#558;" /><glyph d="M502 260C502 425 404 530 273 530C143 530 44 424 44 258C44 93 142 -12 272 -12C403 -12 502 94 502 260ZM406 259C406 144 351 68 273 68C194 68 139 145 139 259C139 374 194 450 272 450C351 450 406 373 406 259ZM312 596V684H232V596Z" glyph-name="uni022F" horiz-adv-x="545" unicode="&#559;" /><glyph d="M372 0V274L624 700H513L322 365L130 700H18L270 274V0ZM464 755V811H178V755Z" glyph-name="uni0232" horiz-adv-x="642" unicode="&#562;" /><glyph d="M69 -178C219 -141 277 -94 331 57L494 518H397L263 94L126 518H28L207 10C169 -49 121 -81 47 -101ZM387 598V651H135V598Z" glyph-name="uni0233" horiz-adv-x="516" unicode="&#563;" /><glyph d="M55 -179C136 -117 173 -68 173 64V518H78V65C78 -40 51 -76 -9 -130Z" glyph-name="uni0237" horiz-adv-x="249" unicode="&#567;" /><glyph d="M238 528C177 528 114 510 59 478L87 406C134 433 186 449 234 449C320 449 375 389 383 299H39V264C39 99 122 -12 256 -12C384 -12 477 97 477 261C477 438 376 528 238 528ZM384 223C377 131 329 66 257 66C184 66 139 130 132 223Z" glyph-name="uni0259" horiz-adv-x="521" unicode="&#601;" /><glyph d="M216 723V724H105L43 474L83 461Z" glyph-name="uni02B9" horiz-adv-x="245" unicode="&#697;" /><glyph d="M389 723V724H282L220 474L261 461ZM211 723V724H105L43 474L83 461Z" glyph-name="uni02BA" horiz-adv-x="417" unicode="&#698;" /><glyph d="M32 466H128C128 579 144 634 190 705L158 729C73 651 32 573 32 474Z" glyph-name="uni02BB" horiz-adv-x="208" unicode="&#699;" /><glyph d="M177 724H80C80 611 64 557 19 485L50 461C135 539 177 617 177 717Z" glyph-name="uni02BC" horiz-adv-x="208" unicode="&#700;" /><glyph d="M27 599V537C119 537 179 592 179 672C179 752 119 806 27 806V744C79 744 112 714 112 672C112 628 79 599 27 599Z" glyph-name="uni02BE" horiz-adv-x="196" unicode="&#702;" /><glyph d="M169 744V806C77 806 17 751 17 672C17 591 77 537 169 537V599C117 599 85 629 85 672C85 715 117 744 169 744Z" glyph-name="uni02BF" horiz-adv-x="196" unicode="&#703;" /><glyph d="M145 680H204L126 778H16ZM0 644 71 587H132L37 694H-37L-132 587H-71Z" glyph-name="uni02C60300" horiz-adv-x="0" /><glyph d="M225 833 139 919H20L152 833ZM-1 794 69 749H139L43 842H-43L-139 749H-70Z" glyph-name="uni02C60300.cap" horiz-adv-x="0" /><glyph d="M163 680 291 778H181L103 680ZM0 644 71 587H132L37 694H-37L-132 587H-71Z" glyph-name="uni02C60301" horiz-adv-x="0" /><glyph d="M179 833 311 919H191L106 833ZM-1 794 69 749H139L43 842H-43L-139 749H-70Z" glyph-name="uni02C60301.cap" horiz-adv-x="0" /><glyph d="M-83 715C-68 749 -58 758 -45 758C-33 758 -24 754 3 739C34 721 44 716 63 716C93 716 115 739 139 801L95 816C79 781 70 773 56 773C45 773 36 777 9 792C-22 809 -33 815 -51 815C-81 815 -104 792 -127 730ZM0 639 72 587H133L37 689H-37L-133 587H-73Z" glyph-name="uni02C60303" horiz-adv-x="0" /><glyph d="M-86 862C-71 898 -62 907 -48 907C-36 907 -26 902 2 886C33 868 46 863 65 863C96 863 119 885 143 950L97 966C81 930 72 922 58 922C46 922 36 926 9 942C-23 960 -36 965 -55 965C-86 965 -109 943 -133 878ZM-1 791 70 749H141L43 838H-43L-141 749H-71Z" glyph-name="uni02C60303.cap" horiz-adv-x="0" /><glyph d="M52 791 63 745C86 752 110 756 133 756C161 756 172 749 172 738C172 727 159 717 112 697L127 661C204 690 228 714 228 747C228 781 197 804 140 804C108 804 81 800 52 791ZM0 644 71 587H132L37 694H-37L-132 587H-71Z" glyph-name="uni02C60309" horiz-adv-x="0" /><glyph d="M52 940 61 893C86 899 113 903 139 903C170 903 181 897 181 887C181 877 168 869 118 853L130 814C211 839 240 862 240 896C240 929 207 952 144 952C110 952 81 948 52 940ZM-1 794 69 749H139L43 842H-43L-139 749H-70Z" glyph-name="uni02C60309.cap" horiz-adv-x="0" /><glyph d="M40 543H111V800H40Z" glyph-name="uni02C8" horiz-adv-x="152" unicode="&#712;" /><glyph d="M40 -100H111V157H40Z" glyph-name="uni02CC" horiz-adv-x="152" unicode="&#716;" /><glyph d="M376 -108V-55H124V-108Z" glyph-name="uni02CD" horiz-adv-x="500" unicode="&#717;" /><glyph d="M-20 711H47L-31 808H-148ZM0 640C-41 640 -65 661 -72 692H-123C-120 629 -75 584 0 584C74 584 120 629 123 692H72C65 661 42 640 0 640Z" glyph-name="uni02D80300" horiz-adv-x="0" /><glyph d="M54 867 -32 952H-159L-27 867ZM0 803C-39 803 -65 820 -74 846H-130C-122 787 -75 746 0 746C74 746 122 787 130 846H74C65 820 40 803 0 803Z" glyph-name="uni02D80300.cap" horiz-adv-x="0" /><glyph d="M20 711 148 808H31L-47 711ZM0 640C-41 640 -65 661 -72 692H-123C-120 629 -75 584 0 584C74 584 120 629 123 692H72C65 661 42 640 0 640Z" glyph-name="uni02D80301" horiz-adv-x="0" /><glyph d="M27 867 159 952H32L-54 867ZM0 803C-39 803 -65 820 -74 846H-130C-122 787 -75 746 0 746C74 746 122 787 130 846H74C65 820 40 803 0 803Z" glyph-name="uni02D80301.cap" horiz-adv-x="0" /><glyph d="M-87 721C-71 755 -62 764 -48 764C-37 764 -28 760 -1 745C30 727 41 722 59 722C89 722 112 745 135 807L91 822C76 788 66 779 53 779C41 779 33 783 5 798C-26 815 -37 821 -55 821C-85 821 -107 798 -130 736ZM0 640C-41 640 -65 661 -72 692H-123C-120 629 -75 584 0 584C74 584 120 629 123 692H72C65 661 42 640 0 640Z" glyph-name="uni02D80303" horiz-adv-x="0" /><glyph d="M-90 871C-74 907 -65 916 -51 916C-39 916 -29 911 -2 896C30 877 43 872 62 872C93 872 116 894 140 959L93 975C78 939 69 931 55 931C43 931 33 935 5 951C-26 969 -39 974 -58 974C-89 974 -112 952 -136 887ZM0 803C-39 803 -65 820 -74 846H-130C-122 787 -75 746 0 746C74 746 122 787 130 846H74C65 820 40 803 0 803Z" glyph-name="uni02D80303.cap" horiz-adv-x="0" /><glyph d="M-96 824 -84 777C-59 784 -32 788 -8 788C21 788 32 781 32 771C32 760 19 751 -29 730L-15 693C68 723 95 747 95 781C95 814 61 837 -2 837C-35 837 -64 833 -96 824ZM0 640C-41 640 -65 661 -72 692H-123C-120 629 -75 584 0 584C74 584 120 629 123 692H72C65 661 42 640 0 640Z" glyph-name="uni02D80309" horiz-adv-x="0" /><glyph d="M-108 978 -98 929C-67 937 -36 941 -5 941C30 941 42 935 42 926C42 916 28 908 -28 890L-16 851C78 877 109 901 109 935C109 968 73 990 0 990C-39 990 -73 986 -108 978ZM0 803C-39 803 -65 820 -74 846H-130C-122 787 -75 746 0 746C74 746 122 787 130 846H74C65 820 40 803 0 803Z" glyph-name="uni02D80309.cap" horiz-adv-x="0" /><glyph d="M-14 587H53L-40 702H-158Z" glyph-name="uni0300" horiz-adv-x="0" unicode="&#768;" /><glyph d="M14 587 158 702H40L-53 587Z" glyph-name="uni0301" horiz-adv-x="0" unicode="&#769;" /><glyph d="M0 653 68 587H130L37 705H-37L-130 587H-69Z" glyph-name="uni0302" horiz-adv-x="0" unicode="&#770;" /><glyph d="M-99 583C-81 624 -70 634 -55 634C-42 634 -32 629 -1 611C34 591 48 585 68 585C103 585 128 610 153 682L107 696C89 655 78 646 63 646C50 646 39 650 9 668C-26 688 -40 695 -60 695C-95 695 -120 669 -145 598Z" glyph-name="uni0303" horiz-adv-x="0" unicode="&#771;" /><glyph d="M126 598V651H-126V598Z" glyph-name="uni0304" horiz-adv-x="0" unicode="&#772;" /><glyph d="M0 642C-42 642 -64 666 -71 705H-122C-119 635 -75 584 0 584C74 584 119 635 122 705H71C64 666 43 642 0 642Z" glyph-name="uni0306" horiz-adv-x="0" unicode="&#774;" /><glyph d="M40 593V681H-40V593Z" glyph-name="uni0307" horiz-adv-x="0" unicode="&#775;" /><glyph d="M-39 593V681H-117V593ZM117 593V681H39V593Z" glyph-name="uni0308" horiz-adv-x="0" unicode="&#776;" /><glyph d="M-110 723 -98 673C-68 682 -36 687 -6 687C30 687 43 679 43 668C43 655 29 645 -31 621L-16 580C78 614 108 639 108 677C108 714 71 740 -1 740C-39 740 -75 734 -110 723Z" glyph-name="uni0309" horiz-adv-x="0" unicode="&#777;" /><glyph d="M-99 676C-99 623 -58 581 0 581C58 581 99 623 99 676C99 729 58 771 0 771C-58 771 -99 729 -99 676ZM-63 676C-63 712 -37 740 0 740C37 740 63 712 63 676C63 640 37 612 0 612C-37 612 -63 640 -63 676Z" glyph-name="uni030A" horiz-adv-x="0" unicode="&#778;" /><glyph d="M-52 587 84 702H-19L-115 587ZM90 587 226 702H122L27 587Z" glyph-name="uni030B" horiz-adv-x="0" unicode="&#779;" /><glyph d="M0 639 -68 705H-130L-37 587H37L130 705H69Z" glyph-name="uni030C" horiz-adv-x="0" unicode="&#780;" /><glyph d="M51 603C35 622 28 635 28 652C28 673 38 688 61 709L29 735C-23 708 -50 677 -50 640C-50 619 -44 602 -28 582Z" glyph-name="uni0312" horiz-adv-x="0" unicode="&#786;" /><glyph d="M64 725H0V693C0 648 -5 616 -19 581L10 566C45 606 64 642 64 700Z" glyph-name="uni0315" horiz-adv-x="0" unicode="&#789;" /><glyph d="M40 -137V-49H-40V-137Z" glyph-name="uni0323" horiz-adv-x="0" unicode="&#803;" /><glyph d="M-39 -137V-49H-117V-137ZM117 -137V-49H39V-137Z" glyph-name="uni0324" horiz-adv-x="0" unicode="&#804;" /><glyph d="M-51 -61C-35 -80 -28 -93 -28 -110C-28 -131 -38 -146 -61 -167L-29 -193C23 -166 50 -135 50 -98C50 -77 44 -60 28 -40Z" glyph-name="uni0326" horiz-adv-x="0" unicode="&#806;" /><glyph d="M-88 -156C42 -152 88 -124 88 -83C88 -53 61 -35 3 -37L40 4L-20 9L-70 -54L-54 -74C-14 -67 6 -73 6 -88C6 -104 -16 -115 -92 -121Z" glyph-name="uni0327" horiz-adv-x="0" unicode="&#807;" /><glyph d="M67 -101C10 -93 -1 -85 -1 -70C-1 -58 6 -45 40 4L-13 11C-70 -41 -86 -64 -86 -87C-86 -124 -49 -142 61 -148Z" glyph-name="uni0328" horiz-adv-x="0" unicode="&#808;" /><glyph d="M0 -101 68 -167H130L37 -49H-37L-130 -167H-69Z" glyph-name="uni032D" horiz-adv-x="0" unicode="&#813;" /><glyph d="M0 -112C-42 -112 -64 -88 -71 -49H-122C-119 -119 -75 -170 0 -170C74 -170 119 -119 122 -49H71C64 -88 43 -112 0 -112Z" glyph-name="uni032E" horiz-adv-x="0" unicode="&#814;" /><glyph d="M126 -108V-55H-126V-108Z" glyph-name="uni0331" horiz-adv-x="0" unicode="&#817;" /><glyph d="M111 -108V-55H-111V-108Z" glyph-name="uni0331.nrw" horiz-adv-x="0" /><glyph d="M181 397V622H310V397ZM365 622C454 622 497 583 497 522C497 449 440 405 356 398V622ZM181 78V324H310V78ZM518 199C518 121 459 78 369 78H356V323C461 317 518 272 518 199ZM364 0C519 0 616 67 616 191C616 293 547 343 441 363C524 385 593 434 593 534C593 634 518 700 365 700H362V784H304V700H88V0H304V-107H362V0Z" glyph-name="uni0E3F" horiz-adv-x="664" unicode="&#3647;" /><glyph d="M350 0C504 0 603 68 603 191C603 289 536 341 435 363C514 388 581 438 581 534C581 633 505 700 350 700H88V0ZM189 404V611H345C435 611 478 575 478 519C478 446 410 404 311 404ZM189 89V317H313C432 317 500 273 500 200C500 129 441 89 352 89ZM469 -108V-55H217V-108Z" glyph-name="uni1E06" horiz-adv-x="650" unicode="&#7686;" /><glyph d="M303 -10C425 -10 513 88 513 261C513 429 427 527 308 527C249 527 204 503 171 476V724H75V0H149L163 43C200 13 246 -10 303 -10ZM279 69C239 69 201 87 171 110V404C199 428 237 448 280 448C363 448 417 379 417 260C417 135 360 69 279 69ZM398 -111V-58H146V-111Z" glyph-name="uni1E07" horiz-adv-x="557" unicode="&#7687;" /><glyph d="M639 351C639 586 489 700 277 700H88V0H274C488 0 639 115 639 351ZM189 89V611H281C436 611 536 522 536 349C536 176 435 89 282 89ZM384 -137V-49H304V-137Z" glyph-name="uni1E0C" horiz-adv-x="691" unicode="&#7692;" /><glyph d="M277 69C195 69 141 139 141 258C141 383 197 448 279 448C318 448 357 431 387 408V114C359 90 321 69 277 69ZM393 47 409 0H482V724H387V486C349 511 307 527 257 527C133 527 45 430 45 257C45 89 131 -10 249 -10C313 -10 358 18 393 47ZM324 -140V-52H244V-140Z" glyph-name="uni1E0D" horiz-adv-x="557" unicode="&#7693;" /><glyph d="M639 351C639 586 489 700 277 700H88V0H274C488 0 639 115 639 351ZM189 89V611H281C436 611 536 522 536 349C536 176 435 89 282 89ZM470 -108V-55H218V-108Z" glyph-name="uni1E0E" horiz-adv-x="691" unicode="&#7694;" /><glyph d="M277 69C195 69 141 139 141 258C141 383 197 448 279 448C318 448 357 431 387 408V114C359 90 321 69 277 69ZM393 47 409 0H482V724H387V486C349 511 307 527 257 527C133 527 45 430 45 257C45 89 131 -10 249 -10C313 -10 358 18 393 47ZM410 -111V-58H158V-111Z" glyph-name="uni1E0F" horiz-adv-x="557" unicode="&#7695;" /><glyph d="M639 351C639 586 489 700 277 700H88V0H274C488 0 639 115 639 351ZM189 89V611H281C436 611 536 522 536 349C536 176 435 89 282 89ZM344 -101 412 -167H474L381 -49H307L214 -167H275Z" glyph-name="uni1E12" horiz-adv-x="691" unicode="&#7698;" /><glyph d="M277 69C195 69 141 139 141 258C141 383 197 448 279 448C318 448 357 431 387 408V114C359 90 321 69 277 69ZM393 47 409 0H482V724H387V486C349 511 307 527 257 527C133 527 45 430 45 257C45 89 131 -10 249 -10C313 -10 358 18 393 47ZM284 -104 352 -170H414L321 -52H247L154 -170H215Z" glyph-name="uni1E13" horiz-adv-x="557" unicode="&#7699;" /><glyph d="M617 52V382H350V292H518V109C484 93 436 79 386 79C241 79 155 182 155 349C155 507 243 618 386 618C459 618 516 598 569 573L599 661C538 690 468 710 387 710C191 710 52 572 52 349C52 123 179 -9 381 -9C470 -9 553 17 617 52ZM512 762V818H226V762Z" glyph-name="uni1E20" horiz-adv-x="694" unicode="&#7712;" /><glyph d="M141 268C141 385 198 448 279 448C318 448 357 431 387 408V130C359 109 320 90 278 90C195 90 141 156 141 268ZM482 518H409L395 475C358 505 311 528 254 528C133 528 45 431 45 266C45 103 132 10 252 10C310 10 355 33 387 55V26C387 -56 342 -98 253 -98C198 -98 147 -85 99 -64L73 -141C127 -164 190 -177 257 -177C394 -177 482 -115 482 36ZM412 601V654H160V601Z" glyph-name="uni1E21" horiz-adv-x="557" unicode="&#7713;" /><glyph d="M189 312H523V0H625V700H523V407H189V700H88V0H189ZM396 -133V-45H316V-133Z" glyph-name="uni1E24" horiz-adv-x="713" unicode="&#7716;" /><glyph d="M171 396C205 421 252 442 297 442C362 442 397 404 397 332V0H492V353C492 467 435 527 331 527C267 527 215 502 171 471V724H75V0H171ZM323 -133V-45H243V-133Z" glyph-name="uni1E25" horiz-adv-x="563" unicode="&#7717;" /><glyph d="M227 -83C227 -53 200 -35 142 -37L175 0H189V312H523V0H625V700H523V407H189V700H88V0H112L69 -54L85 -74C125 -67 145 -73 145 -88C145 -104 123 -115 47 -121L51 -156C181 -152 227 -124 227 -83Z" glyph-name="uni1E28" horiz-adv-x="713" unicode="&#7720;" /><glyph d="M211 -83C211 -53 184 -35 126 -37L159 0H171V396C205 421 252 442 297 442C362 442 397 404 397 332V0H492V353C492 467 435 527 331 527C267 527 215 502 171 471V724H75V0H96L53 -54L69 -74C109 -67 129 -73 129 -88C129 -104 107 -115 31 -121L35 -156C165 -152 211 -124 211 -83Z" glyph-name="uni1E29" horiz-adv-x="563" unicode="&#7721;" /><glyph d="M189 312H523V0H625V700H523V407H189V700H88V0H189ZM356 -112C314 -112 292 -88 285 -49H234C237 -119 281 -170 356 -170C430 -170 475 -119 478 -49H427C420 -88 399 -112 356 -112Z" glyph-name="uni1E2A" horiz-adv-x="713" unicode="&#7722;" /><glyph d="M171 396C205 421 252 442 297 442C362 442 397 404 397 332V0H492V353C492 467 435 527 331 527C267 527 215 502 171 471V724H75V0H171ZM283 -112C241 -112 219 -88 212 -49H161C164 -119 208 -170 283 -170C357 -170 402 -119 405 -49H354C347 -88 326 -112 283 -112Z" glyph-name="uni1E2B" horiz-adv-x="563" unicode="&#7723;" /><glyph d="M502 0H628L303 361L621 700H495L204 384H189V700H88V0H189V334H203ZM369 -133V-45H289V-133Z" glyph-name="uni1E32" horiz-adv-x="641" unicode="&#7730;" /><glyph d="M386 0H502L273 270L496 518H381L173 280H171V724H75V0H171V259H174ZM308 -133V-45H228V-133Z" glyph-name="uni1E33" horiz-adv-x="514" unicode="&#7731;" /><glyph d="M502 0H628L303 361L621 700H495L204 384H189V700H88V0H189V334H203ZM455 -108V-55H203V-108Z" glyph-name="uni1E34" horiz-adv-x="641" unicode="&#7732;" /><glyph d="M386 0H502L273 270L496 518H381L173 280H171V724H75V0H171V259H174ZM394 -108V-55H142V-108Z" glyph-name="uni1E35" horiz-adv-x="514" unicode="&#7733;" /><glyph d="M519 0V91H189V700H88V0ZM340 -137V-49H260V-137Z" glyph-name="uni1E36" horiz-adv-x="548" unicode="&#7734;" /><glyph d="M172 0V724H77V0ZM165 -137V-49H85V-137Z" glyph-name="uni1E37" horiz-adv-x="249" unicode="&#7735;" /><glyph d="M519 0V91H189V700H88V0ZM265 755V811H13V755ZM340 -137V-49H260V-137Z" glyph-name="uni1E38" horiz-adv-x="548" unicode="&#7736;" /><glyph d="M172 0V724H77V0ZM236 789V842H14V789ZM165 -137V-49H85V-137Z" glyph-name="uni1E39" horiz-adv-x="249" unicode="&#7737;" /><glyph d="M519 0V91H189V700H88V0ZM426 -108V-55H174V-108Z" glyph-name="uni1E3A" horiz-adv-x="548" unicode="&#7738;" /><glyph d="M172 0V724H77V0ZM236 -108V-55H14V-108Z" glyph-name="uni1E3B" horiz-adv-x="249" unicode="&#7739;" /><glyph d="M519 0V91H189V700H88V0ZM300 -101 368 -167H430L337 -49H263L170 -167H231Z" glyph-name="uni1E3C" horiz-adv-x="548" unicode="&#7740;" /><glyph d="M172 0V724H77V0ZM125 -101 193 -167H255L162 -49H88L-5 -167H56Z" glyph-name="uni1E3D" horiz-adv-x="249" unicode="&#7741;" /><glyph d="M742 0H842L807 700H666L457 122L248 700H110L74 0H170L197 578L407 -1H505L716 580ZM478 745 621 843H494L397 745Z" glyph-name="uni1E3E" horiz-adv-x="916" unicode="&#7742;" /><glyph d="M804 0V354C804 468 744 527 642 527C575 527 516 498 462 460C437 504 391 527 329 527C263 527 211 500 165 467L149 518H75V0H171V396C205 421 251 442 294 442C358 442 392 405 392 333V0H487V343C487 361 484 378 479 392C520 421 567 442 608 442C673 442 708 405 708 333V0ZM454 588 598 703H480L387 588Z" glyph-name="uni1E3F" horiz-adv-x="874" unicode="&#7743;" /><glyph d="M742 0H842L807 700H666L457 122L248 700H110L74 0H170L197 578L407 -1H505L716 580ZM499 745V833H415V745Z" glyph-name="uni1E40" horiz-adv-x="916" unicode="&#7744;" /><glyph d="M804 0V354C804 468 744 527 642 527C575 527 516 498 462 460C437 504 391 527 329 527C263 527 211 500 165 467L149 518H75V0H171V396C205 421 251 442 294 442C358 442 392 405 392 333V0H487V343C487 361 484 378 479 392C520 421 567 442 608 442C673 442 708 405 708 333V0ZM480 594V682H400V594Z" glyph-name="uni1E41" horiz-adv-x="874" unicode="&#7745;" /><glyph d="M742 0H842L807 700H666L457 122L248 700H110L74 0H170L197 578L407 -1H505L716 580ZM496 -137V-49H416V-137Z" glyph-name="uni1E42" horiz-adv-x="916" unicode="&#7746;" /><glyph d="M804 0V354C804 468 744 527 642 527C575 527 516 498 462 460C437 504 391 527 329 527C263 527 211 500 165 467L149 518H75V0H171V396C205 421 251 442 294 442C358 442 392 405 392 333V0H487V343C487 361 484 378 479 392C520 421 567 442 608 442C673 442 708 405 708 333V0ZM480 -137V-49H400V-137Z" glyph-name="uni1E43" horiz-adv-x="874" unicode="&#7747;" /><glyph d="M185 547 519 0H628V700H531V159L202 700H88V0H185ZM408 745V833H324V745Z" glyph-name="uni1E44" horiz-adv-x="716" unicode="&#7748;" /><glyph d="M171 396C205 421 252 442 297 442C362 442 397 404 397 332V0H492V353C492 467 435 527 331 527C263 527 211 500 165 467L149 518H75V0H171ZM322 596V684H242V596Z" glyph-name="uni1E45" horiz-adv-x="563" unicode="&#7749;" /><glyph d="M185 547 519 0H628V700H531V159L202 700H88V0H185ZM393 -133V-45H313V-133Z" glyph-name="uni1E46" horiz-adv-x="716" unicode="&#7750;" /><glyph d="M171 396C205 421 252 442 297 442C362 442 397 404 397 332V0H492V353C492 467 435 527 331 527C263 527 211 500 165 467L149 518H75V0H171ZM323 -133V-45H243V-133Z" glyph-name="uni1E47" horiz-adv-x="563" unicode="&#7751;" /><glyph d="M185 547 519 0H628V700H531V159L202 700H88V0H185ZM479 -108V-55H227V-108Z" glyph-name="uni1E48" horiz-adv-x="716" unicode="&#7752;" /><glyph d="M171 396C205 421 252 442 297 442C362 442 397 404 397 332V0H492V353C492 467 435 527 331 527C263 527 211 500 165 467L149 518H75V0H171ZM409 -108V-55H157V-108Z" glyph-name="uni1E49" horiz-adv-x="563" unicode="&#7753;" /><glyph d="M185 547 519 0H628V700H531V159L202 700H88V0H185ZM353 -97 421 -163H483L390 -45H316L223 -163H284Z" glyph-name="uni1E4A" horiz-adv-x="716" unicode="&#7754;" /><glyph d="M171 396C205 421 252 442 297 442C362 442 397 404 397 332V0H492V353C492 467 435 527 331 527C263 527 211 500 165 467L149 518H75V0H171ZM283 -97 351 -163H413L320 -45H246L153 -163H214Z" glyph-name="uni1E4B" horiz-adv-x="563" unicode="&#7755;" /><glyph d="M189 345V611H328C434 611 486 567 486 488C486 398 409 345 296 345ZM189 257H261C325 257 360 236 401 178L530 0H653L502 199C466 252 442 274 400 290C493 314 590 372 590 501C590 628 504 700 334 700H88V0H189ZM366 749V837H282V749Z" glyph-name="uni1E58" horiz-adv-x="666" unicode="&#7768;" /><glyph d="M171 0V357C221 399 280 425 351 427V524C270 525 212 489 165 432L147 518H75V0ZM245 593V681H165V593Z" glyph-name="uni1E59" horiz-adv-x="380" unicode="&#7769;" /><glyph d="M189 345V611H328C434 611 486 567 486 488C486 398 409 345 296 345ZM189 257H261C325 257 360 236 401 178L530 0H653L502 199C466 252 442 274 400 290C493 314 590 372 590 501C590 628 504 700 334 700H88V0H189ZM378 -133V-45H298V-133Z" glyph-name="uni1E5A" horiz-adv-x="666" unicode="&#7770;" /><glyph d="M171 0V357C221 399 280 425 351 427V524C270 525 212 489 165 432L147 518H75V0ZM163 -137V-49H83V-137Z" glyph-name="uni1E5B" horiz-adv-x="380" unicode="&#7771;" /><glyph d="M189 345V611H328C434 611 486 567 486 488C486 398 409 345 296 345ZM189 257H261C325 257 360 236 401 178L530 0H653L502 199C466 252 442 274 400 290C493 314 590 372 590 501C590 628 504 700 334 700H88V0H189ZM467 755V811H181V755ZM378 -133V-45H298V-133Z" glyph-name="uni1E5C" horiz-adv-x="666" unicode="&#7772;" /><glyph d="M171 0V357C221 399 280 425 351 427V524C270 525 212 489 165 432L147 518H75V0ZM316 598V651H94V598ZM163 -137V-49H83V-137Z" glyph-name="uni1E5D" horiz-adv-x="380" unicode="&#7773;" /><glyph d="M189 345V611H328C434 611 486 567 486 488C486 398 409 345 296 345ZM189 257H261C325 257 360 236 401 178L530 0H653L502 199C466 252 442 274 400 290C493 314 590 372 590 501C590 628 504 700 334 700H88V0H189ZM464 -108V-55H212V-108Z" glyph-name="uni1E5E" horiz-adv-x="666" unicode="&#7774;" /><glyph d="M171 0V357C221 399 280 425 351 427V524C270 525 212 489 165 432L147 518H75V0ZM234 -108V-55H12V-108Z" glyph-name="uni1E5F" horiz-adv-x="380" unicode="&#7775;" /><glyph d="M558 195C558 303 498 357 329 406C204 444 170 476 170 527C170 581 219 620 298 620C371 620 438 601 498 573L527 660C462 690 390 709 305 709C161 709 69 634 69 519C69 417 129 365 296 317C422 277 457 244 457 186C457 124 400 80 305 80C219 80 134 107 67 142L38 55C114 16 203 -9 300 -9C460 -9 558 67 558 195ZM346 -144V-56H266V-144Z" glyph-name="uni1E62" horiz-adv-x="606" unicode="&#7778;" /><glyph d="M437 142C437 223 397 264 265 303C177 330 151 348 151 386C151 421 183 448 238 448C290 448 344 431 390 407L417 486C364 512 305 527 241 527C128 527 58 468 58 380C58 293 112 256 229 223C323 195 345 174 345 138C345 97 308 70 245 70C182 70 116 91 62 121L35 42C94 10 169 -10 244 -10C360 -10 437 44 437 142ZM284 -140V-52H204V-140Z" glyph-name="uni1E63" horiz-adv-x="480" unicode="&#7779;" /><glyph d="M361 0V609H592V700H27V609H259V0ZM350 -137V-49H270V-137Z" glyph-name="uni1E6C" horiz-adv-x="620" unicode="&#7788;" /><glyph d="M265 -8C300 -8 330 -3 355 5V84C332 77 311 74 288 74C234 74 201 103 201 164V438H355V518H201V667H106V518H26V438H106V150C106 40 163 -8 265 -8ZM274 -140V-52H194V-140Z" glyph-name="uni1E6D" horiz-adv-x="395" unicode="&#7789;" /><glyph d="M361 0V609H592V700H27V609H259V0ZM436 -108V-55H184V-108Z" glyph-name="uni1E6E" horiz-adv-x="620" unicode="&#7790;" /><glyph d="M265 -8C300 -8 330 -3 355 5V84C332 77 311 74 288 74C234 74 201 103 201 164V438H355V518H201V667H106V518H26V438H106V150C106 40 163 -8 265 -8ZM345 -111V-58H123V-111Z" glyph-name="uni1E6F" horiz-adv-x="395" unicode="&#7791;" /><glyph d="M361 0V609H592V700H27V609H259V0ZM310 -101 378 -167H440L347 -49H273L180 -167H241Z" glyph-name="uni1E70" horiz-adv-x="620" unicode="&#7792;" /><glyph d="M265 -8C300 -8 330 -3 355 5V84C332 77 311 74 288 74C234 74 201 103 201 164V438H355V518H201V667H106V518H26V438H106V150C106 40 163 -8 265 -8ZM234 -104 302 -170H364L271 -52H197L104 -170H165Z" glyph-name="uni1E71" horiz-adv-x="395" unicode="&#7793;" /><glyph d="M395 -8 652 700H544L343 112L141 700H30L288 -8ZM382 -143V-55H302V-143Z" glyph-name="uni1E7E" horiz-adv-x="683" unicode="&#7806;" /><glyph d="M309 -7 495 518H399L261 88L121 518H23L209 -7ZM299 -140V-52H219V-140Z" glyph-name="uni1E7F" horiz-adv-x="518" unicode="&#7807;" /><glyph d="M506 0H621L388 361L610 700H497L326 432L155 700H41L262 361L29 0H143L325 287ZM284 749V837H203V749ZM449 749V837H368V749Z" glyph-name="uni1E8C" horiz-adv-x="651" unicode="&#7820;" /><glyph d="M380 0H482L310 266L474 518H374L254 326L135 518H33L196 265L25 0H125L252 204ZM215 593V681H137V593ZM371 593V681H293V593Z" glyph-name="uni1E8D" horiz-adv-x="507" unicode="&#7821;" /><glyph d="M372 0V274L624 700H513L322 365L130 700H18L270 274V0ZM363 745V833H279V745Z" glyph-name="uni1E8E" horiz-adv-x="642" unicode="&#7822;" /><glyph d="M69 -178C219 -141 277 -94 331 57L494 518H397L263 94L126 518H28L207 10C169 -49 121 -81 47 -101ZM301 589V677H221V589Z" glyph-name="uni1E8F" horiz-adv-x="516" unicode="&#7823;" /><glyph d="M562 0V90H167L562 616V700H62V610H438L43 84V0ZM303 802 370 749H441L347 850H261L167 749H236Z" glyph-name="uni1E90" horiz-adv-x="609" unicode="&#7824;" /><glyph d="M436 0V79H151L436 444V518H53V439H323L38 74V0ZM242 653 310 587H372L279 705H205L112 587H173Z" glyph-name="uni1E91" horiz-adv-x="478" unicode="&#7825;" /><glyph d="M562 0V90H167L562 616V700H62V610H438L43 84V0ZM353 -137V-49H273V-137Z" glyph-name="uni1E92" horiz-adv-x="609" unicode="&#7826;" /><glyph d="M436 0V79H151L436 444V518H53V439H323L38 74V0ZM285 -137V-49H205V-137Z" glyph-name="uni1E93" horiz-adv-x="478" unicode="&#7827;" /><glyph d="M562 0V90H167L562 616V700H62V610H438L43 84V0ZM439 -108V-55H187V-108Z" glyph-name="uni1E94" horiz-adv-x="609" unicode="&#7828;" /><glyph d="M436 0V79H151L436 444V518H53V439H323L38 74V0ZM371 -108V-55H119V-108Z" glyph-name="uni1E95" horiz-adv-x="478" unicode="&#7829;" /><glyph d="M171 396C205 421 252 442 297 442C362 442 397 404 397 332V0H492V353C492 467 435 527 331 527C267 527 215 502 171 471V724H75V0H171ZM409 -108V-55H157V-108Z" glyph-name="uni1E96" horiz-adv-x="563" unicode="&#7830;" /><glyph d="M417 -11C548 -11 631 62 631 163C631 254 567 322 438 366L621 586V597C555 670 463 711 356 711C187 711 79 608 79 433V0H180V433C180 554 251 623 357 623C409 623 456 608 496 580L320 372V309C470 268 528 228 528 168C528 115 482 77 406 77C363 77 322 85 279 100V10C323 -5 368 -11 417 -11Z" glyph-name="uni1E9E" horiz-adv-x="676" unicode="&#7838;" /><glyph d="M477 243H221L349 607ZM562 0H669L408 708H292L30 0H136L190 155H508ZM390 -133V-45H310V-133Z" glyph-name="uni1EA0" horiz-adv-x="699" unicode="&#7840;" /><glyph d="M231 70C169 70 133 102 133 157C133 180 140 201 154 215C174 235 201 248 289 248C315 248 341 246 364 244V123C322 89 276 70 231 70ZM371 58 390 0H471L459 101V354C459 474 397 526 267 526C197 526 133 510 78 487L101 411C150 432 202 446 254 446C331 446 364 414 364 352V316C339 319 309 322 278 322C166 322 116 302 82 269C56 242 41 204 41 153C41 47 107 -9 201 -9C265 -9 318 14 371 58ZM302 -140V-52H222V-140Z" glyph-name="uni1EA1" horiz-adv-x="531" unicode="&#7841;" /><glyph d="M477 243H221L349 607ZM562 0H669L408 708H292L30 0H136L190 155H508ZM227 884 237 834C273 842 309 846 344 846C387 846 401 840 401 829C401 818 386 810 319 789L332 749C435 777 469 801 469 838C469 874 432 898 349 898C306 898 267 893 227 884Z" glyph-name="uni1EA2" horiz-adv-x="699" unicode="&#7842;" /><glyph d="M231 70C169 70 133 102 133 157C133 180 140 201 154 215C174 235 201 248 289 248C315 248 341 246 364 244V123C322 89 276 70 231 70ZM371 58 390 0H471L459 101V354C459 474 397 526 267 526C197 526 133 510 78 487L101 411C150 432 202 446 254 446C331 446 364 414 364 352V316C339 319 309 322 278 322C166 322 116 302 82 269C56 242 41 204 41 153C41 47 107 -9 201 -9C265 -9 318 14 371 58ZM156 726 168 676C198 685 230 690 260 690C296 690 309 682 309 671C309 658 295 648 235 624L250 583C344 617 374 642 374 680C374 717 337 743 265 743C227 743 191 737 156 726Z" glyph-name="uni1EA3" horiz-adv-x="531" unicode="&#7843;" /><glyph d="M477 243H221L349 607ZM562 0H669L408 708H292L30 0H136L190 155H508ZM528 839 660 925H540L455 839ZM348 800 418 755H488L392 848H306L210 755H279Z" glyph-name="uni1EA4" horiz-adv-x="699" unicode="&#7844;" /><glyph d="M231 70C169 70 133 102 133 157C133 180 140 201 154 215C174 235 201 248 289 248C315 248 341 246 364 244V123C322 89 276 70 231 70ZM371 58 390 0H471L459 101V354C459 474 397 526 267 526C197 526 133 510 78 487L101 411C150 432 202 446 254 446C331 446 364 414 364 352V316C339 319 309 322 278 322C166 322 116 302 82 269C56 242 41 204 41 153C41 47 107 -9 201 -9C265 -9 318 14 371 58ZM429 683 557 781H447L369 683ZM266 647 337 590H398L303 697H229L134 590H195Z" glyph-name="uni1EA5" horiz-adv-x="531" unicode="&#7845;" /><glyph d="M477 243H221L349 607ZM562 0H669L408 708H292L30 0H136L190 155H508ZM574 839 488 925H369L501 839ZM348 800 418 755H488L392 848H306L210 755H279Z" glyph-name="uni1EA6" horiz-adv-x="699" unicode="&#7846;" /><glyph d="M231 70C169 70 133 102 133 157C133 180 140 201 154 215C174 235 201 248 289 248C315 248 341 246 364 244V123C322 89 276 70 231 70ZM371 58 390 0H471L459 101V354C459 474 397 526 267 526C197 526 133 510 78 487L101 411C150 432 202 446 254 446C331 446 364 414 364 352V316C339 319 309 322 278 322C166 322 116 302 82 269C56 242 41 204 41 153C41 47 107 -9 201 -9C265 -9 318 14 371 58ZM411 683H470L392 781H282ZM266 647 337 590H398L303 697H229L134 590H195Z" glyph-name="uni1EA7" horiz-adv-x="531" unicode="&#7847;" /><glyph d="M477 243H221L349 607ZM562 0H669L408 708H292L30 0H136L190 155H508ZM401 946 410 899C435 905 462 909 488 909C519 909 530 903 530 893C530 883 517 875 467 859L479 820C560 845 589 868 589 902C589 935 556 958 493 958C459 958 430 954 401 946ZM348 800 418 755H488L392 848H306L210 755H279Z" glyph-name="uni1EA8" horiz-adv-x="699" unicode="&#7848;" /><glyph d="M231 70C169 70 133 102 133 157C133 180 140 201 154 215C174 235 201 248 289 248C315 248 341 246 364 244V123C322 89 276 70 231 70ZM371 58 390 0H471L459 101V354C459 474 397 526 267 526C197 526 133 510 78 487L101 411C150 432 202 446 254 446C331 446 364 414 364 352V316C339 319 309 322 278 322C166 322 116 302 82 269C56 242 41 204 41 153C41 47 107 -9 201 -9C265 -9 318 14 371 58ZM318 794 329 748C352 755 376 759 399 759C427 759 438 752 438 741C438 730 425 720 378 700L393 664C470 693 494 717 494 750C494 784 463 807 406 807C374 807 347 803 318 794ZM266 647 337 590H398L303 697H229L134 590H195Z" glyph-name="uni1EA9" horiz-adv-x="531" unicode="&#7849;" /><glyph d="M477 243H221L349 607ZM562 0H669L408 708H292L30 0H136L190 155H508ZM263 868C278 904 287 913 301 913C313 913 323 908 351 892C382 874 395 869 414 869C445 869 468 891 492 956L446 972C430 936 421 928 407 928C395 928 385 932 358 948C326 966 313 971 294 971C263 971 240 949 216 884ZM348 797 419 755H490L392 844H306L208 755H278Z" glyph-name="uni1EAA" horiz-adv-x="699" unicode="&#7850;" /><glyph d="M231 70C169 70 133 102 133 157C133 180 140 201 154 215C174 235 201 248 289 248C315 248 341 246 364 244V123C322 89 276 70 231 70ZM371 58 390 0H471L459 101V354C459 474 397 526 267 526C197 526 133 510 78 487L101 411C150 432 202 446 254 446C331 446 364 414 364 352V316C339 319 309 322 278 322C166 322 116 302 82 269C56 242 41 204 41 153C41 47 107 -9 201 -9C265 -9 318 14 371 58ZM183 718C198 752 208 761 221 761C233 761 242 757 269 742C300 724 310 719 329 719C359 719 381 742 405 804L361 819C345 784 336 776 322 776C311 776 302 780 275 795C244 812 233 818 215 818C185 818 162 795 139 733ZM266 642 338 590H399L303 692H229L133 590H193Z" glyph-name="uni1EAB" horiz-adv-x="531" unicode="&#7851;" /><glyph d="M477 243H221L349 607ZM562 0H669L408 708H292L30 0H136L190 155H508ZM348 808 415 755H486L392 856H306L212 755H281ZM390 -133V-45H310V-133Z" glyph-name="uni1EAC" horiz-adv-x="699" unicode="&#7852;" /><glyph d="M231 70C169 70 133 102 133 157C133 180 140 201 154 215C174 235 201 248 289 248C315 248 341 246 364 244V123C322 89 276 70 231 70ZM371 58 390 0H471L459 101V354C459 474 397 526 267 526C197 526 133 510 78 487L101 411C150 432 202 446 254 446C331 446 364 414 364 352V316C339 319 309 322 278 322C166 322 116 302 82 269C56 242 41 204 41 153C41 47 107 -9 201 -9C265 -9 318 14 371 58ZM266 656 334 590H396L303 708H229L136 590H197ZM302 -140V-52H222V-140Z" glyph-name="uni1EAD" horiz-adv-x="531" unicode="&#7853;" /><glyph d="M477 243H221L349 607ZM562 0H669L408 708H292L30 0H136L190 155H508ZM376 873 508 958H381L295 873ZM349 809C310 809 284 826 275 852H219C227 793 274 752 349 752C423 752 471 793 479 852H423C414 826 389 809 349 809Z" glyph-name="uni1EAE" horiz-adv-x="699" unicode="&#7854;" /><glyph d="M231 70C169 70 133 102 133 157C133 180 140 201 154 215C174 235 201 248 289 248C315 248 341 246 364 244V123C322 89 276 70 231 70ZM371 58 390 0H471L459 101V354C459 474 397 526 267 526C197 526 133 510 78 487L101 411C150 432 202 446 254 446C331 446 364 414 364 352V316C339 319 309 322 278 322C166 322 116 302 82 269C56 242 41 204 41 153C41 47 107 -9 201 -9C265 -9 318 14 371 58ZM286 714 414 811H297L219 714ZM266 643C225 643 201 664 194 695H143C146 632 191 587 266 587C340 587 386 632 389 695H338C331 664 308 643 266 643Z" glyph-name="uni1EAF" horiz-adv-x="531" unicode="&#7855;" /><glyph d="M477 243H221L349 607ZM562 0H669L408 708H292L30 0H136L190 155H508ZM403 873 317 958H190L322 873ZM349 809C310 809 284 826 275 852H219C227 793 274 752 349 752C423 752 471 793 479 852H423C414 826 389 809 349 809Z" glyph-name="uni1EB0" horiz-adv-x="699" unicode="&#7856;" /><glyph d="M231 70C169 70 133 102 133 157C133 180 140 201 154 215C174 235 201 248 289 248C315 248 341 246 364 244V123C322 89 276 70 231 70ZM371 58 390 0H471L459 101V354C459 474 397 526 267 526C197 526 133 510 78 487L101 411C150 432 202 446 254 446C331 446 364 414 364 352V316C339 319 309 322 278 322C166 322 116 302 82 269C56 242 41 204 41 153C41 47 107 -9 201 -9C265 -9 318 14 371 58ZM246 714H313L235 811H118ZM266 643C225 643 201 664 194 695H143C146 632 191 587 266 587C340 587 386 632 389 695H338C331 664 308 643 266 643Z" glyph-name="uni1EB1" horiz-adv-x="531" unicode="&#7857;" /><glyph d="M477 243H221L349 607ZM562 0H669L408 708H292L30 0H136L190 155H508ZM241 984 251 935C282 943 313 947 344 947C379 947 391 941 391 932C391 922 377 914 321 896L333 857C427 883 458 907 458 941C458 974 422 996 349 996C310 996 276 992 241 984ZM349 809C310 809 284 826 275 852H219C227 793 274 752 349 752C423 752 471 793 479 852H423C414 826 389 809 349 809Z" glyph-name="uni1EB2" horiz-adv-x="699" unicode="&#7858;" /><glyph d="M231 70C169 70 133 102 133 157C133 180 140 201 154 215C174 235 201 248 289 248C315 248 341 246 364 244V123C322 89 276 70 231 70ZM371 58 390 0H471L459 101V354C459 474 397 526 267 526C197 526 133 510 78 487L101 411C150 432 202 446 254 446C331 446 364 414 364 352V316C339 319 309 322 278 322C166 322 116 302 82 269C56 242 41 204 41 153C41 47 107 -9 201 -9C265 -9 318 14 371 58ZM170 827 182 780C207 787 234 791 258 791C287 791 298 784 298 774C298 763 285 754 237 733L251 696C334 726 361 750 361 784C361 817 327 840 264 840C231 840 202 836 170 827ZM266 643C225 643 201 664 194 695H143C146 632 191 587 266 587C340 587 386 632 389 695H338C331 664 308 643 266 643Z" glyph-name="uni1EB3" horiz-adv-x="531" unicode="&#7859;" /><glyph d="M477 243H221L349 607ZM562 0H669L408 708H292L30 0H136L190 155H508ZM259 877C275 913 284 922 298 922C310 922 320 917 347 902C379 883 392 878 411 878C442 878 465 900 489 965L442 981C427 945 418 937 404 937C392 937 382 941 354 957C323 975 310 980 291 980C260 980 237 958 213 893ZM349 809C310 809 284 826 275 852H219C227 793 274 752 349 752C423 752 471 793 479 852H423C414 826 389 809 349 809Z" glyph-name="uni1EB4" horiz-adv-x="699" unicode="&#7860;" /><glyph d="M231 70C169 70 133 102 133 157C133 180 140 201 154 215C174 235 201 248 289 248C315 248 341 246 364 244V123C322 89 276 70 231 70ZM371 58 390 0H471L459 101V354C459 474 397 526 267 526C197 526 133 510 78 487L101 411C150 432 202 446 254 446C331 446 364 414 364 352V316C339 319 309 322 278 322C166 322 116 302 82 269C56 242 41 204 41 153C41 47 107 -9 201 -9C265 -9 318 14 371 58ZM179 724C195 758 204 767 218 767C229 767 238 763 265 748C296 730 307 725 325 725C355 725 378 748 401 810L357 825C342 791 332 782 319 782C307 782 299 786 271 801C240 818 229 824 211 824C181 824 159 801 136 739ZM266 643C225 643 201 664 194 695H143C146 632 191 587 266 587C340 587 386 632 389 695H338C331 664 308 643 266 643Z" glyph-name="uni1EB5" horiz-adv-x="531" unicode="&#7861;" /><glyph d="M477 243H221L349 607ZM562 0H669L408 708H292L30 0H136L190 155H508ZM349 810C310 810 286 830 277 864H221C228 798 274 752 349 752C423 752 470 798 477 864H421C412 830 389 810 349 810ZM390 -133V-45H310V-133Z" glyph-name="uni1EB6" horiz-adv-x="699" unicode="&#7862;" /><glyph d="M231 70C169 70 133 102 133 157C133 180 140 201 154 215C174 235 201 248 289 248C315 248 341 246 364 244V123C322 89 276 70 231 70ZM371 58 390 0H471L459 101V354C459 474 397 526 267 526C197 526 133 510 78 487L101 411C150 432 202 446 254 446C331 446 364 414 364 352V316C339 319 309 322 278 322C166 322 116 302 82 269C56 242 41 204 41 153C41 47 107 -9 201 -9C265 -9 318 14 371 58ZM266 645C224 645 202 669 195 708H144C147 638 191 587 266 587C340 587 385 638 388 708H337C330 669 309 645 266 645ZM302 -140V-52H222V-140Z" glyph-name="uni1EB7" horiz-adv-x="531" unicode="&#7863;" /><glyph d="M565 0V90H189V314H519V404H189V610H559V700H88V0ZM375 -137V-49H295V-137Z" glyph-name="uni1EB8" horiz-adv-x="618" unicode="&#7864;" /><glyph d="M283 -10C344 -10 407 8 462 40L434 112C387 85 335 69 287 69C201 69 146 129 138 219H482V254C482 419 399 530 265 530C137 530 44 421 44 257C44 80 145 -10 283 -10ZM137 295C144 387 192 452 264 452C337 452 382 388 389 295ZM307 -140V-52H227V-140Z" glyph-name="uni1EB9" horiz-adv-x="521" unicode="&#7865;" /><glyph d="M565 0V90H189V314H519V404H189V610H559V700H88V0ZM210 878 220 828C256 836 292 840 327 840C370 840 384 834 384 823C384 812 369 804 302 783L315 743C418 771 452 795 452 832C452 868 415 892 332 892C289 892 250 887 210 878Z" glyph-name="uni1EBA" horiz-adv-x="618" unicode="&#7866;" /><glyph d="M283 -10C344 -10 407 8 462 40L434 112C387 85 335 69 287 69C201 69 146 129 138 219H482V254C482 419 399 530 265 530C137 530 44 421 44 257C44 80 145 -10 283 -10ZM137 295C144 387 192 452 264 452C337 452 382 388 389 295ZM157 726 169 676C199 685 231 690 261 690C297 690 310 682 310 671C310 658 296 648 236 624L251 583C345 617 375 642 375 680C375 717 338 743 266 743C228 743 192 737 157 726Z" glyph-name="uni1EBB" horiz-adv-x="521" unicode="&#7867;" /><glyph d="M565 0V90H189V314H519V404H189V610H559V700H88V0ZM230 746C248 786 259 795 275 795C289 795 300 790 331 772C367 753 383 747 404 747C440 747 465 771 491 840L442 856C424 816 412 807 397 807C383 807 371 812 340 829C305 849 289 855 268 855C232 855 207 831 180 761Z" glyph-name="uni1EBC" horiz-adv-x="618" unicode="&#7868;" /><glyph d="M283 -10C344 -10 407 8 462 40L434 112C387 85 335 69 287 69C201 69 146 129 138 219H482V254C482 419 399 530 265 530C137 530 44 421 44 257C44 80 145 -10 283 -10ZM137 295C144 387 192 452 264 452C337 452 382 388 389 295ZM169 586C187 627 198 637 213 637C226 637 236 632 267 614C302 594 316 588 336 588C371 588 396 613 421 685L375 699C357 658 346 649 331 649C318 649 307 653 277 671C242 691 228 698 208 698C173 698 148 672 123 601Z" glyph-name="uni1EBD" horiz-adv-x="521" unicode="&#7869;" /><glyph d="M565 0V90H189V314H519V404H189V610H559V700H88V0ZM511 833 643 919H523L438 833ZM331 794 401 749H471L375 842H289L193 749H262Z" glyph-name="uni1EBE" horiz-adv-x="618" unicode="&#7870;" /><glyph d="M283 -10C344 -10 407 8 462 40L434 112C387 85 335 69 287 69C201 69 146 129 138 219H482V254C482 419 399 530 265 530C137 530 44 421 44 257C44 80 145 -10 283 -10ZM137 295C144 387 192 452 264 452C337 452 382 388 389 295ZM431 683 559 781H449L371 683ZM268 647 339 590H400L305 697H231L136 590H197Z" glyph-name="uni1EBF" horiz-adv-x="521" unicode="&#7871;" /><glyph d="M565 0V90H189V314H519V404H189V610H559V700H88V0ZM557 833 471 919H352L484 833ZM331 794 401 749H471L375 842H289L193 749H262Z" glyph-name="uni1EC0" horiz-adv-x="618" unicode="&#7872;" /><glyph d="M283 -10C344 -10 407 8 462 40L434 112C387 85 335 69 287 69C201 69 146 129 138 219H482V254C482 419 399 530 265 530C137 530 44 421 44 257C44 80 145 -10 283 -10ZM137 295C144 387 192 452 264 452C337 452 382 388 389 295ZM413 683H472L394 781H284ZM268 647 339 590H400L305 697H231L136 590H197Z" glyph-name="uni1EC1" horiz-adv-x="521" unicode="&#7873;" /><glyph d="M565 0V90H189V314H519V404H189V610H559V700H88V0ZM384 940 393 893C418 899 445 903 471 903C502 903 513 897 513 887C513 877 500 869 450 853L462 814C543 839 572 862 572 896C572 929 539 952 476 952C442 952 413 948 384 940ZM331 794 401 749H471L375 842H289L193 749H262Z" glyph-name="uni1EC2" horiz-adv-x="618" unicode="&#7874;" /><glyph d="M283 -10C344 -10 407 8 462 40L434 112C387 85 335 69 287 69C201 69 146 129 138 219H482V254C482 419 399 530 265 530C137 530 44 421 44 257C44 80 145 -10 283 -10ZM137 295C144 387 192 452 264 452C337 452 382 388 389 295ZM320 794 331 748C354 755 378 759 401 759C429 759 440 752 440 741C440 730 427 720 380 700L395 664C472 693 496 717 496 750C496 784 465 807 408 807C376 807 349 803 320 794ZM268 647 339 590H400L305 697H231L136 590H197Z" glyph-name="uni1EC3" horiz-adv-x="521" unicode="&#7875;" /><glyph d="M565 0V90H189V314H519V404H189V610H559V700H88V0ZM246 862C261 898 270 907 284 907C296 907 306 902 334 886C365 868 378 863 397 863C428 863 451 885 475 950L429 966C413 930 404 922 390 922C378 922 368 926 341 942C309 960 296 965 277 965C246 965 223 943 199 878ZM331 791 402 749H473L375 838H289L191 749H261Z" glyph-name="uni1EC4" horiz-adv-x="618" unicode="&#7876;" /><glyph d="M283 -10C344 -10 407 8 462 40L434 112C387 85 335 69 287 69C201 69 146 129 138 219H482V254C482 419 399 530 265 530C137 530 44 421 44 257C44 80 145 -10 283 -10ZM137 295C144 387 192 452 264 452C337 452 382 388 389 295ZM185 718C200 752 210 761 223 761C235 761 244 757 271 742C302 724 312 719 331 719C361 719 383 742 407 804L363 819C347 784 338 776 324 776C313 776 304 780 277 795C246 812 235 818 217 818C187 818 164 795 141 733ZM268 642 340 590H401L305 692H231L135 590H195Z" glyph-name="uni1EC5" horiz-adv-x="521" unicode="&#7877;" /><glyph d="M565 0V90H189V314H519V404H189V610H559V700H88V0ZM331 802 398 749H469L375 850H289L195 749H264ZM375 -137V-49H295V-137Z" glyph-name="uni1EC6" horiz-adv-x="618" unicode="&#7878;" /><glyph d="M283 -10C344 -10 407 8 462 40L434 112C387 85 335 69 287 69C201 69 146 129 138 219H482V254C482 419 399 530 265 530C137 530 44 421 44 257C44 80 145 -10 283 -10ZM137 295C144 387 192 452 264 452C337 452 382 388 389 295ZM268 656 336 590H398L305 708H231L138 590H199ZM307 -140V-52H227V-140Z" glyph-name="uni1EC7" horiz-adv-x="521" unicode="&#7879;" /><glyph d="M193 0V700H91V0ZM20 878 30 828C66 836 102 840 137 840C180 840 194 834 194 823C194 812 179 804 112 783L125 743C228 771 262 795 262 832C262 868 225 892 142 892C99 892 60 887 20 878Z" glyph-name="uni1EC8" horiz-adv-x="284" unicode="&#7880;" /><glyph d="M172 0V518H77V0ZM14 723 26 673C56 682 88 687 118 687C154 687 167 679 167 668C167 655 153 645 93 621L108 580C202 614 232 639 232 677C232 714 195 740 123 740C85 740 49 734 14 723Z" glyph-name="uni1EC9" horiz-adv-x="249" unicode="&#7881;" /><glyph d="M193 0V700H91V0ZM182 -137V-49H102V-137Z" glyph-name="uni1ECA" horiz-adv-x="284" unicode="&#7882;" /><glyph d="M176 623V712H74V623ZM172 0V518H77V0ZM165 -137V-49H85V-137Z" glyph-name="uni1ECB" horiz-adv-x="249" unicode="&#7883;" /><glyph d="M666 351C666 569 539 712 360 712C179 712 52 567 52 349C52 131 179 -12 358 -12C538 -12 666 133 666 351ZM563 349C563 185 480 76 360 76C238 76 155 185 155 351C155 515 238 624 358 624C479 624 563 515 563 349ZM399 -144V-56H319V-144Z" glyph-name="uni1ECC" horiz-adv-x="718" unicode="&#7884;" /><glyph d="M502 260C502 425 404 530 273 530C143 530 44 424 44 258C44 93 142 -12 272 -12C403 -12 502 94 502 260ZM406 259C406 144 351 68 273 68C194 68 139 145 139 259C139 374 194 450 272 450C351 450 406 373 406 259ZM312 -140V-52H232V-140Z" glyph-name="uni1ECD" horiz-adv-x="545" unicode="&#7885;" /><glyph d="M666 351C666 569 539 712 360 712C179 712 52 567 52 349C52 131 179 -12 358 -12C538 -12 666 133 666 351ZM563 349C563 185 480 76 360 76C238 76 155 185 155 351C155 515 238 624 358 624C479 624 563 515 563 349ZM237 885 247 835C283 843 319 847 354 847C397 847 411 841 411 830C411 819 396 811 329 790L342 750C445 778 479 802 479 839C479 875 442 899 359 899C316 899 277 894 237 885Z" glyph-name="uni1ECE" horiz-adv-x="718" unicode="&#7886;" /><glyph d="M502 260C502 425 404 530 273 530C143 530 44 424 44 258C44 93 142 -12 272 -12C403 -12 502 94 502 260ZM406 259C406 144 351 68 273 68C194 68 139 145 139 259C139 374 194 450 272 450C351 450 406 373 406 259ZM162 726 174 676C204 685 236 690 266 690C302 690 315 682 315 671C315 658 301 648 241 624L256 583C350 617 380 642 380 680C380 717 343 743 271 743C233 743 197 737 162 726Z" glyph-name="uni1ECF" horiz-adv-x="545" unicode="&#7887;" /><glyph d="M666 351C666 569 539 712 360 712C179 712 52 567 52 349C52 131 179 -12 358 -12C538 -12 666 133 666 351ZM563 349C563 185 480 76 360 76C238 76 155 185 155 351C155 515 238 624 358 624C479 624 563 515 563 349ZM538 840 670 926H550L465 840ZM358 801 428 756H498L402 849H316L220 756H289Z" glyph-name="uni1ED0" horiz-adv-x="718" unicode="&#7888;" /><glyph d="M502 260C502 425 404 530 273 530C143 530 44 424 44 258C44 93 142 -12 272 -12C403 -12 502 94 502 260ZM406 259C406 144 351 68 273 68C194 68 139 145 139 259C139 374 194 450 272 450C351 450 406 373 406 259ZM435 683 563 781H453L375 683ZM272 647 343 590H404L309 697H235L140 590H201Z" glyph-name="uni1ED1" horiz-adv-x="545" unicode="&#7889;" /><glyph d="M666 351C666 569 539 712 360 712C179 712 52 567 52 349C52 131 179 -12 358 -12C538 -12 666 133 666 351ZM563 349C563 185 480 76 360 76C238 76 155 185 155 351C155 515 238 624 358 624C479 624 563 515 563 349ZM584 840 498 926H379L511 840ZM358 801 428 756H498L402 849H316L220 756H289Z" glyph-name="uni1ED2" horiz-adv-x="718" unicode="&#7890;" /><glyph d="M502 260C502 425 404 530 273 530C143 530 44 424 44 258C44 93 142 -12 272 -12C403 -12 502 94 502 260ZM406 259C406 144 351 68 273 68C194 68 139 145 139 259C139 374 194 450 272 450C351 450 406 373 406 259ZM417 683H476L398 781H288ZM272 647 343 590H404L309 697H235L140 590H201Z" glyph-name="uni1ED3" horiz-adv-x="545" unicode="&#7891;" /><glyph d="M666 351C666 569 539 712 360 712C179 712 52 567 52 349C52 131 179 -12 358 -12C538 -12 666 133 666 351ZM563 349C563 185 480 76 360 76C238 76 155 185 155 351C155 515 238 624 358 624C479 624 563 515 563 349ZM411 947 420 900C445 906 472 910 498 910C529 910 540 904 540 894C540 884 527 876 477 860L489 821C570 846 599 869 599 903C599 936 566 959 503 959C469 959 440 955 411 947ZM358 801 428 756H498L402 849H316L220 756H289Z" glyph-name="uni1ED4" horiz-adv-x="718" unicode="&#7892;" /><glyph d="M502 260C502 425 404 530 273 530C143 530 44 424 44 258C44 93 142 -12 272 -12C403 -12 502 94 502 260ZM406 259C406 144 351 68 273 68C194 68 139 145 139 259C139 374 194 450 272 450C351 450 406 373 406 259ZM324 794 335 748C358 755 382 759 405 759C433 759 444 752 444 741C444 730 431 720 384 700L399 664C476 693 500 717 500 750C500 784 469 807 412 807C380 807 353 803 324 794ZM272 647 343 590H404L309 697H235L140 590H201Z" glyph-name="uni1ED5" horiz-adv-x="545" unicode="&#7893;" /><glyph d="M666 351C666 569 539 712 360 712C179 712 52 567 52 349C52 131 179 -12 358 -12C538 -12 666 133 666 351ZM563 349C563 185 480 76 360 76C238 76 155 185 155 351C155 515 238 624 358 624C479 624 563 515 563 349ZM273 869C288 905 297 914 311 914C323 914 333 909 361 893C392 875 405 870 424 870C455 870 478 892 502 957L456 973C440 937 431 929 417 929C405 929 395 933 368 949C336 967 323 972 304 972C273 972 250 950 226 885ZM358 798 429 756H500L402 845H316L218 756H288Z" glyph-name="uni1ED6" horiz-adv-x="718" unicode="&#7894;" /><glyph d="M502 260C502 425 404 530 273 530C143 530 44 424 44 258C44 93 142 -12 272 -12C403 -12 502 94 502 260ZM406 259C406 144 351 68 273 68C194 68 139 145 139 259C139 374 194 450 272 450C351 450 406 373 406 259ZM189 718C204 752 214 761 227 761C239 761 248 757 275 742C306 724 316 719 335 719C365 719 387 742 411 804L367 819C351 784 342 776 328 776C317 776 308 780 281 795C250 812 239 818 221 818C191 818 168 795 145 733ZM272 642 344 590H405L309 692H235L139 590H199Z" glyph-name="uni1ED7" horiz-adv-x="545" unicode="&#7895;" /><glyph d="M666 351C666 569 539 712 360 712C179 712 52 567 52 349C52 131 179 -12 358 -12C538 -12 666 133 666 351ZM563 349C563 185 480 76 360 76C238 76 155 185 155 351C155 515 238 624 358 624C479 624 563 515 563 349ZM358 809 425 756H496L402 857H316L222 756H291ZM399 -144V-56H319V-144Z" glyph-name="uni1ED8" horiz-adv-x="718" unicode="&#7896;" /><glyph d="M502 260C502 425 404 530 273 530C143 530 44 424 44 258C44 93 142 -12 272 -12C403 -12 502 94 502 260ZM406 259C406 144 351 68 273 68C194 68 139 145 139 259C139 374 194 450 272 450C351 450 406 373 406 259ZM272 656 340 590H402L309 708H235L142 590H203ZM312 -140V-52H232V-140Z" glyph-name="uni1ED9" horiz-adv-x="545" unicode="&#7897;" /><glyph d="M385 757 517 854H400L306 757ZM358 -12C538 -12 666 133 666 351C666 490 612 596 526 654C611 664 659 710 659 778C659 800 654 821 645 842L575 821C582 807 584 795 584 780C584 730 544 704 460 704C427 704 393 709 360 709C179 709 52 566 52 349C52 131 179 -12 358 -12ZM563 349C563 185 480 76 360 76C238 76 155 185 155 351C155 514 238 622 358 622C479 622 563 514 563 349Z" glyph-name="uni1EDA" horiz-adv-x="718" unicode="&#7898;" /><glyph d="M284 590 411 705H306L214 590ZM272 -12C402 -12 502 94 502 259C502 360 463 436 400 480C465 491 504 532 504 592C504 614 499 633 490 653L424 633C429 620 432 608 432 594C432 548 396 523 329 523C311 523 291 525 273 525C143 525 44 421 44 258C44 93 142 -12 272 -12ZM406 258C406 144 351 68 273 68C195 68 139 145 139 259C139 372 194 447 272 447C350 447 406 371 406 258Z" glyph-name="uni1EDB" horiz-adv-x="545" unicode="&#7899;" /><glyph d="M358 -12C538 -12 666 133 666 351C666 490 612 596 526 654C611 664 659 710 659 778C659 800 654 821 645 842L575 821C582 807 584 795 584 780C584 730 544 704 460 704C427 704 393 709 360 709C179 709 52 566 52 349C52 131 179 -12 358 -12ZM563 349C563 185 480 76 360 76C238 76 155 185 155 351C155 514 238 622 358 622C479 622 563 514 563 349ZM338 756H419L322 854H195Z" glyph-name="uni1EDC" horiz-adv-x="718" unicode="&#7900;" /><glyph d="M272 -12C402 -12 502 94 502 259C502 360 463 436 400 480C465 491 504 532 504 592C504 614 499 633 490 653L424 633C429 620 432 608 432 594C432 548 396 523 329 523C311 523 291 525 273 525C143 525 44 421 44 258C44 93 142 -12 272 -12ZM406 258C406 144 351 68 273 68C195 68 139 145 139 259C139 372 194 447 272 447C350 447 406 371 406 258ZM258 590H325L232 705H114Z" glyph-name="uni1EDD" horiz-adv-x="545" unicode="&#7901;" /><glyph d="M358 -12C538 -12 666 133 666 351C666 490 612 596 526 654C611 664 659 710 659 778C659 800 654 821 645 842L575 821C582 807 584 795 584 780C584 730 544 704 460 704C427 704 393 709 360 709C179 709 52 566 52 349C52 131 179 -12 358 -12ZM563 349C563 185 480 76 360 76C238 76 155 185 155 351C155 514 238 622 358 622C479 622 563 514 563 349ZM237 885 247 835C283 843 319 847 354 847C397 847 411 841 411 830C411 819 396 811 329 790L342 750C445 778 479 802 479 839C479 875 442 899 359 899C316 899 277 894 237 885Z" glyph-name="uni1EDE" horiz-adv-x="718" unicode="&#7902;" /><glyph d="M156 726 168 676C198 685 229 691 259 691C294 691 308 682 308 671C308 658 293 648 234 624L249 584C342 617 372 642 372 680C372 717 335 743 264 743C227 743 191 737 156 726ZM272 -12C402 -12 502 94 502 259C502 360 463 436 400 480C465 491 504 532 504 592C504 614 499 633 490 653L424 633C429 620 432 608 432 594C432 548 396 523 329 523C311 523 291 525 273 525C143 525 44 421 44 258C44 93 142 -12 272 -12ZM406 258C406 144 351 68 273 68C195 68 139 145 139 259C139 372 194 447 272 447C350 447 406 371 406 258Z" glyph-name="uni1EDF" horiz-adv-x="545" unicode="&#7903;" /><glyph d="M250 753C267 793 279 802 294 802C307 802 319 797 349 780C385 760 400 754 421 754C456 754 481 778 507 848L458 863C440 824 429 815 414 815C400 815 389 820 358 837C323 856 307 862 287 862C251 862 227 838 201 769ZM358 -12C538 -12 666 133 666 351C666 490 612 596 526 654C611 664 659 710 659 778C659 800 654 821 645 842L575 821C582 807 584 795 584 780C584 730 544 704 460 704C427 704 393 709 360 709C179 709 52 566 52 349C52 131 179 -12 358 -12ZM563 349C563 185 480 76 360 76C238 76 155 185 155 351C155 514 238 622 358 622C479 622 563 514 563 349Z" glyph-name="uni1EE0" horiz-adv-x="718" unicode="&#7904;" /><glyph d="M163 587C179 627 189 636 203 636C215 636 223 632 251 614C283 594 296 588 314 588C346 588 367 613 391 685L347 699C331 659 321 649 307 649C296 649 287 654 259 672C227 691 214 698 196 698C164 698 143 672 119 601ZM272 -12C402 -12 502 94 502 259C502 360 463 436 400 480C465 491 504 532 504 592C504 614 499 633 490 653L424 633C429 620 432 608 432 594C432 548 396 523 329 523C311 523 291 525 273 525C143 525 44 421 44 258C44 93 142 -12 272 -12ZM406 258C406 144 351 68 273 68C195 68 139 145 139 259C139 372 194 447 272 447C350 447 406 371 406 258Z" glyph-name="uni1EE1" horiz-adv-x="545" unicode="&#7905;" /><glyph d="M358 -12C538 -12 666 133 666 351C666 490 612 596 526 654C611 664 659 710 659 778C659 800 654 821 645 842L575 821C582 807 584 795 584 780C584 730 544 704 460 704C427 704 393 709 360 709C179 709 52 566 52 349C52 131 179 -12 358 -12ZM563 349C563 185 480 76 360 76C238 76 155 185 155 351C155 514 238 622 358 622C479 622 563 514 563 349ZM399 -144V-56H319V-144Z" glyph-name="uni1EE2" horiz-adv-x="718" unicode="&#7906;" /><glyph d="M272 -12C402 -12 502 94 502 259C502 360 463 436 400 480C465 491 504 532 504 592C504 614 499 633 490 653L424 633C429 620 432 608 432 594C432 548 396 523 329 523C311 523 291 525 273 525C143 525 44 421 44 258C44 93 142 -12 272 -12ZM406 258C406 144 351 68 273 68C195 68 139 145 139 259C139 372 194 447 272 447C350 447 406 371 406 258ZM312 -140V-52H232V-140Z" glyph-name="uni1EE3" horiz-adv-x="545" unicode="&#7907;" /><glyph d="M614 271V700H514V267C514 142 445 77 347 77C249 77 180 142 180 269V700H79V271C79 85 185 -10 346 -10C506 -10 614 84 614 271ZM386 -144V-56H306V-144Z" glyph-name="uni1EE4" horiz-adv-x="693" unicode="&#7908;" /><glyph d="M398 51 414 0H488V518H392V122C358 97 311 75 266 75C201 75 166 114 166 186V518H71V165C71 51 128 -9 232 -9C300 -9 352 18 398 51ZM322 -140V-52H242V-140Z" glyph-name="uni1EE5" horiz-adv-x="563" unicode="&#7909;" /><glyph d="M614 271V700H514V267C514 142 445 77 347 77C249 77 180 142 180 269V700H79V271C79 85 185 -10 346 -10C506 -10 614 84 614 271ZM224 874 234 824C270 832 306 836 341 836C384 836 398 830 398 819C398 808 383 800 316 779L329 739C432 767 466 791 466 828C466 864 429 888 346 888C303 888 264 883 224 874Z" glyph-name="uni1EE6" horiz-adv-x="693" unicode="&#7910;" /><glyph d="M398 51 414 0H488V518H392V122C358 97 311 75 266 75C201 75 166 114 166 186V518H71V165C71 51 128 -9 232 -9C300 -9 352 18 398 51ZM170 719 182 669C212 678 244 683 274 683C310 683 323 675 323 664C323 651 309 641 249 617L264 576C358 610 388 635 388 673C388 710 351 736 279 736C241 736 205 730 170 719Z" glyph-name="uni1EE7" horiz-adv-x="563" unicode="&#7911;" /><glyph d="M346 -10C506 -10 614 84 614 271V653C689 671 731 716 731 778C731 800 726 821 717 842L647 821C653 807 656 795 656 780C656 728 614 700 528 700H514V267C514 142 445 77 347 77C249 77 180 142 180 269V700H79V271C79 85 185 -10 346 -10ZM367 745 510 843H383L286 745Z" glyph-name="uni1EE8" horiz-adv-x="721" unicode="&#7912;" /><glyph d="M302 575 442 690H326L234 575ZM398 52 414 0H488V475C554 493 590 535 590 592C590 614 586 633 576 653L510 633C516 620 519 608 519 594C519 546 479 518 402 518H392V123C358 98 311 76 266 76C201 76 166 115 166 187V518H71V166C71 52 128 -8 232 -8C300 -8 352 19 398 52Z" glyph-name="uni1EE9" horiz-adv-x="584" unicode="&#7913;" /><glyph d="M346 -10C506 -10 614 84 614 271V653C689 671 731 716 731 778C731 800 726 821 717 842L647 821C653 807 656 795 656 780C656 728 614 700 528 700H514V267C514 142 445 77 347 77C249 77 180 142 180 269V700H79V271C79 85 185 -10 346 -10ZM325 745H406L309 843H182Z" glyph-name="uni1EEA" horiz-adv-x="721" unicode="&#7914;" /><glyph d="M398 52 414 0H488V475C554 493 590 535 590 592C590 614 586 633 576 653L510 633C516 620 519 608 519 594C519 546 479 518 402 518H392V123C358 98 311 76 266 76C201 76 166 115 166 187V518H71V166C71 52 128 -8 232 -8C300 -8 352 19 398 52ZM266 583H333L240 698H122Z" glyph-name="uni1EEB" horiz-adv-x="584" unicode="&#7915;" /><glyph d="M346 -10C506 -10 614 84 614 271V653C689 671 731 716 731 778C731 800 726 821 717 842L647 821C653 807 656 795 656 780C656 728 614 700 528 700H514V267C514 142 445 77 347 77C249 77 180 142 180 269V700H79V271C79 85 185 -10 346 -10ZM224 874 234 824C270 832 306 836 341 836C384 836 398 830 398 819C398 808 383 800 316 779L329 739C432 767 466 791 466 828C466 864 429 888 346 888C303 888 264 883 224 874Z" glyph-name="uni1EEC" horiz-adv-x="721" unicode="&#7916;" /><glyph d="M398 52 414 0H488V475C554 493 590 535 590 592C590 614 586 633 576 653L510 633C516 620 519 608 519 594C519 546 479 518 402 518H392V123C358 98 311 76 266 76C201 76 166 115 166 187V518H71V166C71 52 128 -8 232 -8C300 -8 352 19 398 52ZM170 719 182 669C212 678 244 683 274 683C310 683 323 675 323 664C323 651 309 641 249 617L264 576C358 610 388 635 388 673C388 710 351 736 279 736C241 736 205 730 170 719Z" glyph-name="uni1EED" horiz-adv-x="584" unicode="&#7917;" /><glyph d="M346 -10C506 -10 614 84 614 271V653C689 671 731 716 731 778C731 800 726 821 717 842L647 821C653 807 656 795 656 780C656 728 614 700 528 700H514V267C514 142 445 77 347 77C249 77 180 142 180 269V700H79V271C79 85 185 -10 346 -10ZM244 746C262 786 273 795 289 795C303 795 314 790 345 772C381 753 397 747 418 747C454 747 479 771 505 840L456 856C438 816 426 807 411 807C397 807 385 812 354 829C319 849 303 855 282 855C246 855 221 831 194 761Z" glyph-name="uni1EEE" horiz-adv-x="721" unicode="&#7918;" /><glyph d="M181 575C198 616 209 625 225 625C237 625 247 620 278 603C312 583 326 576 346 576C381 576 405 602 430 673L384 687C366 647 355 637 340 637C327 637 317 642 287 660C253 680 238 686 219 686C184 686 160 661 135 589ZM398 52 414 0H488V475C554 493 590 535 590 592C590 614 586 633 576 653L510 633C516 620 519 608 519 594C519 546 479 518 402 518H392V123C358 98 311 76 266 76C201 76 166 115 166 187V518H71V166C71 52 128 -8 232 -8C300 -8 352 19 398 52Z" glyph-name="uni1EEF" horiz-adv-x="584" unicode="&#7919;" /><glyph d="M346 -10C506 -10 614 84 614 271V653C689 671 731 716 731 778C731 800 726 821 717 842L647 821C653 807 656 795 656 780C656 728 614 700 528 700H514V267C514 142 445 77 347 77C249 77 180 142 180 269V700H79V271C79 85 185 -10 346 -10ZM386 -144V-56H306V-144Z" glyph-name="uni1EF0" horiz-adv-x="721" unicode="&#7920;" /><glyph d="M398 52 414 0H488V475C554 493 590 535 590 592C590 614 586 633 576 653L510 633C516 620 519 608 519 594C519 546 479 518 402 518H392V123C358 98 311 76 266 76C201 76 166 115 166 187V518H71V166C71 52 128 -8 232 -8C300 -8 352 19 398 52ZM322 -140V-52H242V-140Z" glyph-name="uni1EF1" horiz-adv-x="584" unicode="&#7921;" /><glyph d="M372 0V274L624 700H513L322 365L130 700H18L270 274V0ZM361 -137V-49H281V-137Z" glyph-name="uni1EF4" horiz-adv-x="642" unicode="&#7924;" /><glyph d="M69 -178C219 -141 277 -94 331 57L494 518H397L263 94L126 518H28L207 10C169 -49 121 -81 47 -101ZM401 -176V-88H321V-176Z" glyph-name="uni1EF5" horiz-adv-x="516" unicode="&#7925;" /><glyph d="M372 0V274L624 700H513L322 365L130 700H18L270 274V0ZM199 874 209 824C245 832 281 836 316 836C359 836 373 830 373 819C373 808 358 800 291 779L304 739C407 767 441 791 441 828C441 864 404 888 321 888C278 888 239 883 199 874Z" glyph-name="uni1EF6" horiz-adv-x="642" unicode="&#7926;" /><glyph d="M69 -178C219 -141 277 -94 331 57L494 518H397L263 94L126 518H28L207 10C169 -49 121 -81 47 -101ZM150 719 162 669C192 678 224 683 254 683C290 683 303 675 303 664C303 651 289 641 229 617L244 576C338 610 368 635 368 673C368 710 331 736 259 736C221 736 185 730 150 719Z" glyph-name="uni1EF7" horiz-adv-x="516" unicode="&#7927;" /><glyph d="M372 0V274L624 700H513L322 365L130 700H18L270 274V0ZM219 746C237 786 248 795 264 795C278 795 289 790 320 772C356 753 372 747 393 747C429 747 454 771 480 840L431 856C413 816 401 807 386 807C372 807 360 812 329 829C294 849 278 855 257 855C221 855 196 831 169 761Z" glyph-name="uni1EF8" horiz-adv-x="642" unicode="&#7928;" /><glyph d="M69 -178C219 -141 277 -94 331 57L494 518H397L263 94L126 518H28L207 10C169 -49 121 -81 47 -101ZM162 583C180 624 191 634 206 634C219 634 229 629 260 611C295 591 309 585 329 585C364 585 389 610 414 682L368 696C350 655 339 646 324 646C311 646 300 650 270 668C235 688 221 695 201 695C166 695 141 669 116 598Z" glyph-name="uni1EF9" horiz-adv-x="516" unicode="&#7929;" /><glyph glyph-name="uni2002" horiz-adv-x="500" unicode="&#8194;" /><glyph glyph-name="uni2003" horiz-adv-x="1000" unicode="&#8195;" /><glyph glyph-name="uni2004" horiz-adv-x="333" unicode="&#8196;" /><glyph glyph-name="uni2005" horiz-adv-x="250" unicode="&#8197;" /><glyph glyph-name="uni2007" horiz-adv-x="564" unicode="&#8199;" /><glyph glyph-name="uni2009" horiz-adv-x="125" unicode="&#8201;" /><glyph glyph-name="uni200A" horiz-adv-x="42" unicode="&#8202;" /><glyph d="M297 263V347H44V263Z" glyph-name="uni2011" horiz-adv-x="341" unicode="&#8209;" /><glyph d="M297 318V402H44V318Z" glyph-name="uni2011.cap" horiz-adv-x="341" /><glyph d="M486 318V399H79V318Z" glyph-name="uni2012" horiz-adv-x="564" unicode="&#8210;" /><glyph d="M756 264V346H44V264Z" glyph-name="uni2015" horiz-adv-x="800" unicode="&#8213;" /><glyph d="M756 319V401H44V319Z" glyph-name="uni2015.cap" horiz-adv-x="800" /><glyph d="M32 724V717C32 617 73 539 158 461L190 485C144 557 128 611 128 724Z" glyph-name="uni201B" horiz-adv-x="208" unicode="&#8219;" /><glyph d="M32 724V716C32 617 71 540 154 461L185 485C139 557 123 613 123 724ZM207 724V716C207 617 247 540 329 461L360 485C314 557 299 613 299 724Z" glyph-name="uni201F" horiz-adv-x="379" unicode="&#8223;" /><glyph d="M474 0V117H372V0ZM192 0V117H90V0Z" glyph-name="uni2025" horiz-adv-x="564" unicode="&#8229;" /><glyph glyph-name="uni202F" horiz-adv-x="125" unicode="&#8239;" /><glyph d="M231 410C331 410 406 488 406 627C406 765 331 843 231 843C131 843 56 765 56 627C56 488 131 410 231 410ZM231 782C286 782 332 729 332 626C332 522 286 471 231 471C176 471 130 524 130 628C130 731 176 782 231 782Z" glyph-name="uni2070" horiz-adv-x="462" unicode="&#8304;" /><glyph d="M338 417V507H410V563H338V839H241L39 563L42 507H267V417ZM269 562H110L269 784Z" glyph-name="uni2074" horiz-adv-x="446" unicode="&#8308;" /><glyph d="M368 577C368 640 320 680 243 680C206 680 169 671 136 655L145 777H362V836H84L69 616L119 595C155 614 190 624 223 624C268 624 294 605 294 573C294 521 228 483 60 468L70 409C279 425 368 483 368 577Z" glyph-name="uni2075" horiz-adv-x="421" unicode="&#8309;" /><glyph d="M220 410C317 410 382 469 382 552C382 629 324 679 241 679C203 679 165 669 133 653C152 709 202 751 313 791L288 847C129 793 54 703 54 583C54 475 118 410 220 410ZM222 467C162 467 124 508 124 576C124 587 125 597 126 607C155 620 187 627 217 627C275 627 312 598 312 549C312 500 274 467 222 467Z" glyph-name="uni2076" horiz-adv-x="431" unicode="&#8310;" /><glyph d="M154 411 358 769V836H52V773H281L86 437Z" glyph-name="uni2077" horiz-adv-x="403" unicode="&#8311;" /><glyph d="M219 411C322 411 387 462 387 530C387 583 354 616 297 635C343 652 375 682 375 732C375 791 316 842 219 842C122 842 63 791 63 732C63 682 95 652 142 635C84 616 51 583 51 530C51 462 116 411 219 411ZM219 659C171 659 132 684 132 724C132 761 165 788 219 788C272 788 306 761 306 724C306 684 268 659 219 659ZM219 465C162 465 122 494 122 538C122 581 162 610 219 610C275 610 316 581 316 538C316 494 277 465 219 465Z" glyph-name="uni2078" horiz-adv-x="438" unicode="&#8312;" /><glyph d="M211 843C114 843 49 784 49 701C49 624 107 574 190 574C228 574 266 584 298 600C279 544 229 502 118 462L143 406C302 460 377 550 377 670C377 778 313 843 211 843ZM209 786C269 786 307 745 307 677C307 666 306 656 305 646C276 633 244 626 214 626C156 626 119 655 119 704C119 753 157 786 209 786Z" glyph-name="uni2079" horiz-adv-x="431" unicode="&#8313;" /><glyph d="M231 -163C331 -163 406 -85 406 54C406 192 331 270 231 270C131 270 56 192 56 54C56 -85 131 -163 231 -163ZM231 209C286 209 332 156 332 53C332 -51 286 -102 231 -102C176 -102 130 -49 130 55C130 158 176 209 231 209Z" glyph-name="uni2080" horiz-adv-x="462" unicode="&#8320;" /><glyph d="M245 -156V266H191L43 209L59 149L171 188V-156Z" glyph-name="uni2081" horiz-adv-x="338" unicode="&#8321;" /><glyph d="M364 -156V-95H149L268 18C329 72 354 110 354 157C354 225 299 269 217 269C155 269 100 242 55 196L88 145C128 184 169 206 209 206C251 206 278 184 278 150C278 121 259 96 221 59L45 -105L58 -156Z" glyph-name="uni2082" horiz-adv-x="411" unicode="&#8322;" /><glyph d="M54 -160C265 -154 361 -108 361 -27C361 27 317 58 227 66C312 93 355 126 355 179C355 232 307 269 220 269C160 269 103 254 55 228L75 174C118 197 165 210 207 210C255 210 279 193 279 167C279 133 235 107 119 79L126 33C246 31 284 11 284 -24C284 -66 224 -96 54 -102Z" glyph-name="uni2083" horiz-adv-x="413" unicode="&#8323;" /><glyph d="M338 -156V-66H410V-10H338V266H241L39 -10L42 -66H267V-156ZM269 -11H110L269 211Z" glyph-name="uni2084" horiz-adv-x="446" unicode="&#8324;" /><glyph d="M368 4C368 67 320 107 243 107C206 107 169 98 136 82L145 204H362V263H84L69 43L119 22C155 41 190 51 223 51C268 51 294 32 294 0C294 -52 228 -90 60 -105L70 -164C279 -148 368 -90 368 4Z" glyph-name="uni2085" horiz-adv-x="421" unicode="&#8325;" /><glyph d="M220 -163C317 -163 382 -104 382 -21C382 56 324 106 241 106C203 106 165 96 133 80C152 136 202 178 313 218L288 274C129 220 54 130 54 10C54 -98 118 -163 220 -163ZM222 -106C162 -106 124 -65 124 3C124 14 125 24 126 34C155 47 187 54 217 54C275 54 312 25 312 -24C312 -73 274 -106 222 -106Z" glyph-name="uni2086" horiz-adv-x="431" unicode="&#8326;" /><glyph d="M154 -162 358 196V263H52V200H281L86 -136Z" glyph-name="uni2087" horiz-adv-x="403" unicode="&#8327;" /><glyph d="M219 -162C322 -162 387 -111 387 -43C387 10 354 43 297 62C343 79 375 109 375 159C375 218 316 269 219 269C122 269 63 218 63 159C63 109 95 79 142 62C84 43 51 10 51 -43C51 -111 116 -162 219 -162ZM219 86C171 86 132 111 132 151C132 188 165 215 219 215C272 215 306 188 306 151C306 111 268 86 219 86ZM219 -108C162 -108 122 -79 122 -35C122 8 162 37 219 37C275 37 316 8 316 -35C316 -79 277 -108 219 -108Z" glyph-name="uni2088" horiz-adv-x="438" unicode="&#8328;" /><glyph d="M211 270C114 270 49 211 49 128C49 51 107 1 190 1C228 1 266 11 298 27C279 -29 229 -71 118 -111L143 -167C302 -113 377 -23 377 97C377 205 313 270 211 270ZM209 213C269 213 307 172 307 104C307 93 306 83 305 73C276 60 244 53 214 53C156 53 119 82 119 131C119 180 157 213 209 213Z" glyph-name="uni2089" horiz-adv-x="431" unicode="&#8329;" /><glyph d="M269 473H214V570ZM552 285H471L393 423H552ZM374 285H215V423H297ZM553 138 499 235H553ZM534 0H643V232H725V288H643V420H725V476H643V700H551V473H365L237 700H124V476H42V420H124V288H42V232H124V0H216V235H402Z" glyph-name="uni20A6" horiz-adv-x="767" unicode="&#8358;" /><glyph d="M525 475H470L497 578ZM744 281H661L623 425H776ZM577 281H418L456 425H538ZM338 281H255L223 425H376ZM706 107 674 231H733ZM654 -6H762L819 228H953V284H833L867 422H953V478H881L935 700H835L786 475H611L552 700H447L388 475H213L163 700H59L114 478H42V422H128L162 284H42V228H175L233 -6H340L405 231H590ZM293 107 266 231H325Z" glyph-name="uni20A9" horiz-adv-x="995" unicode="&#8361;" /><glyph d="M225 615H331C436 615 495 570 503 479H225ZM225 291V428H502C491 338 428 291 325 291ZM225 208H324C478 208 588 276 604 425H683V482H605C598 627 499 700 333 700H124V482H42V425H124V0H225Z" glyph-name="uni20B1" horiz-adv-x="696" unicode="&#8369;" /><glyph d="M557 2 387 189C356 224 327 246 291 260C397 288 463 352 479 434H559V501H481C473 560 440 605 385 632H559V700H59V632H178C299 632 368 585 379 499H59V436H375C355 353 272 302 153 302H59V234H136C201 234 237 217 284 164L429 0H557Z" glyph-name="uni20B9" horiz-adv-x="612" unicode="&#8377;" /><glyph d="M222 0C439 0 543 130 554 302H494C479 179 395 92 247 92H225V278L436 397V461L225 341V445L436 564V628L225 509V700H124V457L42 412V349L124 394V290L42 245V181L124 226V0Z" glyph-name="uni20BA" horiz-adv-x="597" unicode="&#8378;" /><glyph d="M515 473C515 369 438 320 327 320H225V615H334C451 615 515 569 515 473ZM522 117V173H225V263H330C501 263 616 335 616 488C616 628 513 700 337 700H124V321H42V264H124V173H42V117H124V0H225V117Z" glyph-name="uni20BD" horiz-adv-x="659" unicode="&#8381;" /><glyph d="M378 -26C561 -26 701 129 701 350C701 571 561 726 378 726C194 726 55 571 55 350C55 129 194 -26 378 -26ZM378 697C544 697 669 554 669 350C669 146 544 3 378 3C212 3 87 146 87 350C87 554 212 697 378 697ZM325 166V281H380C475 281 540 323 540 413C540 494 482 538 385 538H261V166ZM325 334V484H383C443 484 474 458 474 410C474 360 442 334 379 334Z" glyph-name="uni2117" horiz-adv-x="756" unicode="&#8471;" /><glyph d="M374 472H415L480 642L488 472H529L517 700H460L395 526L329 700H273L261 472H301L309 645ZM221 536C221 574 200 591 140 607C98 618 89 628 89 642C89 657 101 669 131 669C154 669 181 661 200 652L211 687C190 696 161 704 132 704C77 704 48 675 48 639C48 602 70 586 127 571C172 558 180 549 180 533C180 515 164 503 132 503C101 503 73 512 48 525L36 491C63 477 95 468 130 468C184 468 221 493 221 536Z" glyph-name="uni2120" horiz-adv-x="567" unicode="&#8480;" /><glyph d="M230 281V703H176L28 646L44 586L156 625V281ZM152 0H204L416 339L647 700H595L383 361ZM842 160C842 223 794 263 717 263C680 263 643 254 610 238L619 360H836V419H558L543 199L593 178C629 197 664 207 697 207C742 207 768 188 768 156C768 104 702 66 534 51L544 -8C753 8 842 66 842 160Z" glyph-name="uni2155" horiz-adv-x="880" unicode="&#8533;" /><glyph d="M349 281V342H134L253 455C314 509 339 547 339 594C339 662 284 706 202 706C140 706 85 679 40 633L73 582C113 621 154 643 194 643C236 643 263 621 263 587C263 558 244 533 206 496L30 332L43 281ZM251 0H303L515 339L746 700H694L482 361ZM941 160C941 223 893 263 816 263C779 263 742 254 709 238L718 360H935V419H657L642 199L692 178C728 197 763 207 796 207C841 207 867 188 867 156C867 104 801 66 633 51L643 -8C852 8 941 66 941 160Z" glyph-name="uni2156" horiz-adv-x="980" unicode="&#8534;" /><glyph d="M39 277C250 283 346 329 346 410C346 464 302 495 212 503C297 530 340 563 340 616C340 669 292 706 205 706C145 706 88 691 40 665L60 611C103 634 150 647 192 647C240 647 264 630 264 604C264 570 220 544 104 516L111 470C231 468 269 448 269 413C269 371 209 341 39 335ZM206 0H258L470 339L701 700H649L437 361ZM896 160C896 223 848 263 771 263C734 263 697 254 664 238L673 360H890V419H612L597 199L647 178C683 197 718 207 751 207C796 207 822 188 822 156C822 104 756 66 588 51L598 -8C807 8 896 66 896 160Z" glyph-name="uni2157" horiz-adv-x="934" unicode="&#8535;" /><glyph d="M323 281V371H395V427H323V703H226L24 427L27 371H252V281ZM254 426H95L254 648ZM257 0H309L521 339L752 700H700L488 361ZM948 160C948 223 900 263 823 263C786 263 749 254 716 238L725 360H942V419H664L649 199L699 178C735 197 770 207 803 207C848 207 874 188 874 156C874 104 808 66 640 51L650 -8C859 8 948 66 948 160Z" glyph-name="uni2158" horiz-adv-x="986" unicode="&#8536;" /><glyph d="M230 281V703H176L28 646L44 586L156 625V281ZM152 0H204L416 339L647 700H595L383 361ZM642 -7C739 -7 804 52 804 135C804 212 746 262 663 262C625 262 587 252 555 236C574 292 624 334 735 374L710 430C551 376 476 286 476 166C476 58 540 -7 642 -7ZM644 50C584 50 546 91 546 159C546 170 547 180 548 190C577 203 609 210 639 210C697 210 734 181 734 132C734 83 696 50 644 50Z" glyph-name="uni2159" horiz-adv-x="838" unicode="&#8537;" /><glyph d="M353 441C353 504 305 544 228 544C191 544 154 535 121 519L130 641H347V700H69L54 480L104 459C140 478 175 488 208 488C253 488 279 469 279 437C279 385 213 347 45 332L55 273C264 289 353 347 353 441ZM204 0H256L468 339L699 700H647L435 361ZM694 -7C791 -7 856 52 856 135C856 212 798 262 715 262C677 262 639 252 607 236C626 292 676 334 787 374L762 430C603 376 528 286 528 166C528 58 592 -7 694 -7ZM696 50C636 50 598 91 598 159C598 170 599 180 600 190C629 203 661 210 691 210C749 210 786 181 786 132C786 83 748 50 696 50Z" glyph-name="uni215A" horiz-adv-x="891" unicode="&#8538;" /><glyph d="M230 281V703H176L28 646L44 586L156 625V281ZM152 0H204L416 339L647 700H595L383 361ZM675 -6C778 -6 843 45 843 113C843 166 810 199 753 218C799 235 831 265 831 315C831 374 772 425 675 425C578 425 519 374 519 315C519 265 551 235 598 218C540 199 507 166 507 113C507 45 572 -6 675 -6ZM675 242C627 242 588 267 588 307C588 344 621 371 675 371C728 371 762 344 762 307C762 267 724 242 675 242ZM675 48C618 48 578 77 578 121C578 164 618 193 675 193C731 193 772 164 772 121C772 77 733 48 675 48Z" glyph-name="uni215B" horiz-adv-x="880" unicode="&#8539;" /><glyph d="M39 277C250 283 346 329 346 410C346 464 302 495 212 503C297 530 340 563 340 616C340 669 292 706 205 706C145 706 88 691 40 665L60 611C103 634 150 647 192 647C240 647 264 630 264 604C264 570 220 544 104 516L111 470C231 468 269 448 269 413C269 371 209 341 39 335ZM206 0H258L470 339L701 700H649L437 361ZM729 -6C832 -6 897 45 897 113C897 166 864 199 807 218C853 235 885 265 885 315C885 374 826 425 729 425C632 425 573 374 573 315C573 265 605 235 652 218C594 199 561 166 561 113C561 45 626 -6 729 -6ZM729 242C681 242 642 267 642 307C642 344 675 371 729 371C782 371 816 344 816 307C816 267 778 242 729 242ZM729 48C672 48 632 77 632 121C632 164 672 193 729 193C785 193 826 164 826 121C826 77 787 48 729 48Z" glyph-name="uni215C" horiz-adv-x="934" unicode="&#8540;" /><glyph d="M353 441C353 504 305 544 228 544C191 544 154 535 121 519L130 641H347V700H69L54 480L104 459C140 478 175 488 208 488C253 488 279 469 279 437C279 385 213 347 45 332L55 273C264 289 353 347 353 441ZM204 0H256L468 339L699 700H647L435 361ZM728 -6C831 -6 896 45 896 113C896 166 863 199 806 218C852 235 884 265 884 315C884 374 825 425 728 425C631 425 572 374 572 315C572 265 604 235 651 218C593 199 560 166 560 113C560 45 625 -6 728 -6ZM728 242C680 242 641 267 641 307C641 344 674 371 728 371C781 371 815 344 815 307C815 267 777 242 728 242ZM728 48C671 48 631 77 631 121C631 164 671 193 728 193C784 193 825 164 825 121C825 77 786 48 728 48Z" glyph-name="uni215D" horiz-adv-x="932" unicode="&#8541;" /><glyph d="M139 275 343 633V700H37V637H266L71 301ZM133 0H185L397 339L628 700H576L364 361ZM656 -6C759 -6 824 45 824 113C824 166 791 199 734 218C780 235 812 265 812 315C812 374 753 425 656 425C559 425 500 374 500 315C500 265 532 235 579 218C521 199 488 166 488 113C488 45 553 -6 656 -6ZM656 242C608 242 569 267 569 307C569 344 602 371 656 371C709 371 743 344 743 307C743 267 705 242 656 242ZM656 48C599 48 559 77 559 121C559 164 599 193 656 193C712 193 753 164 753 121C753 77 714 48 656 48Z" glyph-name="uni215E" horiz-adv-x="860" unicode="&#8542;" /><glyph d="M412 138 183 327 537 317H971V402H537L183 392L412 581L358 643L70 385V334L358 76Z" glyph-name="uni2190" horiz-adv-x="1042" unicode="&#8592;" /><glyph d="M325 274 315 600 468 396 528 446 308 712H257L36 446L97 396L249 600L240 274V-3H325Z" glyph-name="uni2191" horiz-adv-x="564" unicode="&#8593;" /><glyph d="M685 76 973 334V385L685 643L630 581L860 392L505 402H71V317H505L860 327L630 138Z" glyph-name="uni2192" horiz-adv-x="1042" unicode="&#8594;" /><glyph d="M308 -12 528 254 468 304 315 100 325 426V703H240V426L249 100L97 304L36 254L257 -12Z" glyph-name="uni2193" horiz-adv-x="564" unicode="&#8595;" /><glyph d="M259 -114V228C319 240 364 292 364 355C364 418 319 470 259 482V811H191V482C131 470 86 418 86 355C86 292 131 240 191 228V-114Z" glyph-name="uni237F" horiz-adv-x="449" unicode="&#9087;" /><glyph d="M117 708V-8L125 -12L727 341V359L125 712Z" glyph-name="uni25B6" horiz-adv-x="798" unicode="&#9654;" /><glyph d="M98 548V172L106 168L496 351V369L106 552Z" glyph-name="uni25B6.tab" horiz-adv-x="564" /><glyph d="M680 -8V708L672 712L70 359V341L672 -12Z" glyph-name="uni25C0" horiz-adv-x="798" unicode="&#9664;" /><glyph d="M467 172V548L459 552L69 369V351L459 168Z" glyph-name="uni25C0.tab" horiz-adv-x="564" /><glyph d="M250 -101 318 -167H380L287 -49H213L120 -167H181Z" glyph-name="uniA788" horiz-adv-x="500" unicode="&#42888;" /><glyph d="M512 -101C455 -93 444 -85 444 -70C444 -58 451 -46 482 0H488V518H392V122C358 97 311 75 266 75C201 75 166 114 166 186V518H71V165C71 51 128 -9 232 -9C300 -9 352 18 398 51L414 0H420C373 -44 359 -66 359 -87C359 -124 396 -142 506 -148Z" glyph-name="uogonek" horiz-adv-x="563" unicode="&#371;" /><glyph d="M398 51 414 0H488V518H392V122C358 97 311 75 266 75C201 75 166 114 166 186V518H71V165C71 51 128 -9 232 -9C300 -9 352 18 398 51ZM181 672C181 619 222 577 280 577C338 577 379 619 379 672C379 725 338 767 280 767C222 767 181 725 181 672ZM217 672C217 708 243 736 280 736C317 736 343 708 343 672C343 636 317 608 280 608C243 608 217 636 217 672Z" glyph-name="uring" horiz-adv-x="563" unicode="&#367;" /><glyph d="M398 51 414 0H488V518H392V122C358 97 311 75 266 75C201 75 166 114 166 186V518H71V165C71 51 128 -9 232 -9C300 -9 352 18 398 51ZM181 583C199 624 210 634 225 634C238 634 248 629 279 611C314 591 328 585 348 585C383 585 408 610 433 682L387 696C369 655 358 646 343 646C330 646 319 650 289 668C254 688 240 695 220 695C185 695 160 669 135 598Z" glyph-name="utilde" horiz-adv-x="563" unicode="&#361;" /><glyph d="M309 -7 495 518H399L261 88L121 518H23L209 -7Z" glyph-name="v" horiz-adv-x="518" unicode="v" /><glyph d="M524 -5H623L773 518H679L573 103L449 518H352L229 102L123 518H27L176 -5H275L399 404Z" glyph-name="w" horiz-adv-x="800" unicode="w" /><glyph d="M524 -5H623L773 518H679L573 103L449 518H352L229 102L123 518H27L176 -5H275L399 404ZM414 587 558 702H440L347 587Z" glyph-name="wacute" horiz-adv-x="800" unicode="&#7811;" /><glyph d="M524 -5H623L773 518H679L573 103L449 518H352L229 102L123 518H27L176 -5H275L399 404ZM400 653 468 587H530L437 705H363L270 587H331Z" glyph-name="wcircumflex" horiz-adv-x="800" unicode="&#373;" /><glyph d="M524 -5H623L773 518H679L573 103L449 518H352L229 102L123 518H27L176 -5H275L399 404ZM361 593V681H283V593ZM517 593V681H439V593Z" glyph-name="wdieresis" horiz-adv-x="800" unicode="&#7813;" /><glyph d="M524 -5H623L773 518H679L573 103L449 518H352L229 102L123 518H27L176 -5H275L399 404ZM386 587H453L360 702H242Z" glyph-name="wgrave" horiz-adv-x="800" unicode="&#7809;" /><glyph d="M380 0H482L310 266L474 518H374L254 326L135 518H33L196 265L25 0H125L252 204Z" glyph-name="x" horiz-adv-x="507" unicode="x" /><glyph d="M69 -178C219 -141 277 -94 331 57L494 518H397L263 94L126 518H28L207 10C169 -49 121 -81 47 -101Z" glyph-name="y" horiz-adv-x="516" unicode="y" /><glyph d="M69 -178C219 -141 277 -94 331 57L494 518H397L263 94L126 518H28L207 10C169 -49 121 -81 47 -101ZM275 583 419 698H301L208 583Z" glyph-name="yacute" horiz-adv-x="516" unicode="&#253;" /><glyph d="M69 -178C219 -141 277 -94 331 57L494 518H397L263 94L126 518H28L207 10C169 -49 121 -81 47 -101ZM261 653 329 587H391L298 705H224L131 587H192Z" glyph-name="ycircumflex" horiz-adv-x="516" unicode="&#375;" /><glyph d="M69 -178C219 -141 277 -94 331 57L494 518H397L263 94L126 518H28L207 10C169 -49 121 -81 47 -101ZM222 593V681H144V593ZM378 593V681H300V593Z" glyph-name="ydieresis" horiz-adv-x="516" unicode="&#255;" /><glyph d="M510 115V170H344V259H510V315H357L563 700H456L295 371L135 700H26L232 315H79V259H245V170H79V115H245V0H344V115Z" glyph-name="yen" horiz-adv-x="590" unicode="&#165;" /><glyph d="M486 115V170H330V259H486V315H342L538 700H436L283 370L130 700H26L222 315H78V259H234V170H78V115H234V0H330V115Z" glyph-name="yen.tab" horiz-adv-x="564" /><glyph d="M69 -178C219 -141 277 -94 331 57L494 518H397L263 94L126 518H28L207 10C169 -49 121 -81 47 -101ZM247 583H314L221 698H103Z" glyph-name="ygrave" horiz-adv-x="516" unicode="&#7923;" /><glyph d="M436 0V79H151L436 444V518H53V439H323L38 74V0Z" glyph-name="z" horiz-adv-x="478" unicode="z" /><glyph d="M436 0V79H151L436 444V518H53V439H323L38 74V0ZM256 587 400 702H282L189 587Z" glyph-name="zacute" horiz-adv-x="478" unicode="&#378;" /><glyph d="M436 0V79H151L436 444V518H53V439H323L38 74V0ZM242 639 174 705H112L205 587H279L372 705H311Z" glyph-name="zcaron" horiz-adv-x="478" unicode="&#382;" /><glyph d="M436 0V79H151L436 444V518H53V439H323L38 74V0ZM282 593V681H202V593Z" glyph-name="zdotaccent" horiz-adv-x="478" unicode="&#380;" /><glyph d="M563 350C563 590 454 711 308 711C164 711 54 590 54 350C54 110 163 -11 308 -11C453 -11 563 110 563 350ZM464 349C464 159 395 73 309 73C222 73 153 161 153 351C153 541 222 627 308 627C395 627 464 539 464 349Z" glyph-name="zero" horiz-adv-x="617" unicode="0" /><glyph d="M216 -7C316 -7 391 71 391 210C391 348 316 426 216 426C116 426 41 348 41 210C41 71 116 -7 216 -7ZM216 365C271 365 317 312 317 209C317 105 271 54 216 54C161 54 115 107 115 211C115 314 161 365 216 365Z" glyph-name="zero.den" horiz-adv-x="432" /><glyph d="M216 274C316 274 391 352 391 491C391 629 316 707 216 707C116 707 41 629 41 491C41 352 116 274 216 274ZM216 646C271 646 317 593 317 490C317 386 271 335 216 335C161 335 115 388 115 492C115 595 161 646 216 646Z" glyph-name="zero.num" horiz-adv-x="432" /><glyph d="M516 350C516 592 418 711 282 711C146 711 48 591 48 350C48 108 146 -11 282 -11C418 -11 516 109 516 350ZM417 349C417 156 357 73 283 73C208 73 147 158 147 351C147 544 208 627 282 627C357 627 417 542 417 349Z" glyph-name="zero.tab" horiz-adv-x="564" /></font>
</defs>
</svg>
